%
M48
M72
T01C0.0157
T02C0.0197
T03C0.0240
T04C0.0320
T05C0.0400
T06C0.0472
T07C0.1378
%
T01
X8340Y5480
X9620Y7240
X7860Y7960
X11380Y12200
X13700Y9880
X14580Y10760
X15460Y11000
X15460Y9880
X16660Y7240
X15700Y6840
X15540Y5480
X20900Y10440
X20580Y10760
X19460Y11000
X23540Y11240
X23860Y11560
X24180Y11880
X25780Y11400
X23380Y7240
X30420Y6760
X31380Y7240
X21220Y18200
X22020Y19400
X21780Y21320
X22100Y22120
X21780Y22760
X22260Y23240
X23540Y22120
X23220Y21800
X24020Y22280
X25780Y23080
X26180Y21800
X22260Y24520
X24740Y25480
X24420Y27160
X23780Y27160
X22420Y28360
X18020Y28760
X15220Y28840
X15220Y29800
X14420Y27880
X15780Y25560
X14900Y22920
X12980Y22040
X13780Y20920
X14340Y19800
X15620Y19400
X16500Y19720
X16260Y18520
X15940Y18200
X16260Y17240
X17300Y17640
X17620Y17320
X17940Y17880
X18020Y18520
X18900Y19400
X19700Y19400
X19460Y18520
X18820Y16680
X18420Y14840
X14500Y14200
X13700Y14840
X12660Y14760
X14180Y16680
X13220Y17640
X14500Y17880
X16260Y20920
X17540Y21800
X18100Y20920
X19140Y21800
X11540Y22440
X9140Y21160
X4580Y17640
X4260Y17960
X3220Y18360
X7380Y14200
X10500Y16280
X10500Y25400
X8100Y28360
X6900Y27880
X29460Y27880
X29620Y29800
X30340Y21480
T02
X32820Y22920
X29620Y26440
X28340Y26440
X26260Y26440
X25780Y25000
X26260Y24520
X26580Y24040
X25940Y22600
X26580Y22120
X24980Y20840
X22740Y20840
X20340Y18600
X23220Y15720
X22420Y13960
X21780Y13960
X21300Y14280
X22900Y13640
X23380Y12840
X25780Y13320
X26420Y12840
X26420Y12360
X25780Y10920
X26420Y10440
X24500Y8680
X26260Y7880
X28820Y8680
X30420Y8680
X32660Y13480
X32660Y18600
X23540Y23880
X22580Y25960
X20500Y26440
X19060Y27880
X16180Y26280
X14580Y26280
X13300Y26280
X11380Y26280
X10580Y24840
X11220Y24360
X11540Y23880
X10580Y22920
X10900Y22440
X11540Y21960
X11380Y19720
X7860Y20520
X3700Y24040
X6900Y26280
X8340Y26280
X9620Y26280
X18420Y22120
X20020Y22280
X10740Y15080
X10740Y13160
X11220Y12680
X10580Y11240
X10740Y10760
X11540Y10280
X9940Y8840
X8660Y9000
X13460Y13640
X15700Y8200
X19060Y4360
X21300Y8040
X26420Y4040
T03
X18100Y13680
X16100Y13680
T04
X17780Y7580
X17780Y6580
X10740Y6580
X10740Y7580
X8500Y16020
X8500Y17020
X5940Y16860
X5940Y15860
X5140Y27540
X5140Y28540
X12500Y28540
X12500Y27540
X20500Y27540
X20500Y28540
X27540Y28540
X27540Y27540
X25460Y7580
X25460Y6580
X32340Y6580
X32340Y7580
T05
X21060Y23540
X21060Y24540
X20060Y24540
X19060Y24540
X19060Y23540
X20060Y23540
X18060Y23540
X18060Y24540
X17060Y24540
X17060Y23540
X3609Y20888
X3609Y19888
X3609Y18888
X3609Y17888
X3609Y16888
X3609Y15888
X3609Y14888
X3609Y13888
X2609Y13888
X2609Y14888
X2609Y15888
X2609Y16888
X2609Y17888
X2609Y18888
X2609Y19888
X2609Y20888
T06
X5816Y30880
X6800Y30880
X7800Y30880
X8800Y30880
X9800Y30880
X13236Y30920
X14220Y30920
X15220Y30920
X16220Y30920
X17220Y30920
X20916Y30920
X21900Y30920
X22900Y30920
X23900Y30920
X24900Y30920
X27636Y30920
X28620Y30920
X29620Y30920
X30620Y30920
X31620Y30920
X31924Y4360
X30940Y4360
X29940Y4360
X28940Y4360
X27940Y4360
X24884Y4360
X23900Y4360
X22900Y4360
X21900Y4360
X20900Y4360
X17524Y4360
X16540Y4360
X15540Y4360
X14540Y4360
X13540Y4360
X10324Y4360
X9340Y4360
X8340Y4360
X7340Y4360
X6340Y4360
T07
X3109Y3609
X3109Y31168
X34605Y31168
X34605Y3609
M30
