G75*
G70*
%OFA0B0*%
%FSLAX24Y24*%
%IPPOS*%
%LPD*%
%AMOC8*
5,1,8,0,0,1.08239X$1,22.5*
%
%ADD10C,0.0000*%
%ADD11C,0.0060*%
D10*
X001140Y001640D02*
X001140Y033136D01*
X036573Y033136D01*
X036573Y001640D01*
X001140Y001640D01*
X002420Y003609D02*
X002422Y003661D01*
X002428Y003713D01*
X002438Y003764D01*
X002451Y003814D01*
X002469Y003864D01*
X002490Y003911D01*
X002514Y003957D01*
X002543Y004001D01*
X002574Y004043D01*
X002608Y004082D01*
X002645Y004119D01*
X002685Y004152D01*
X002728Y004183D01*
X002772Y004210D01*
X002818Y004234D01*
X002867Y004254D01*
X002916Y004270D01*
X002967Y004283D01*
X003018Y004292D01*
X003070Y004297D01*
X003122Y004298D01*
X003174Y004295D01*
X003226Y004288D01*
X003277Y004277D01*
X003327Y004263D01*
X003376Y004244D01*
X003423Y004222D01*
X003468Y004197D01*
X003512Y004168D01*
X003553Y004136D01*
X003592Y004101D01*
X003627Y004063D01*
X003660Y004022D01*
X003690Y003980D01*
X003716Y003935D01*
X003739Y003888D01*
X003758Y003839D01*
X003774Y003789D01*
X003786Y003739D01*
X003794Y003687D01*
X003798Y003635D01*
X003798Y003583D01*
X003794Y003531D01*
X003786Y003479D01*
X003774Y003429D01*
X003758Y003379D01*
X003739Y003330D01*
X003716Y003283D01*
X003690Y003238D01*
X003660Y003196D01*
X003627Y003155D01*
X003592Y003117D01*
X003553Y003082D01*
X003512Y003050D01*
X003468Y003021D01*
X003423Y002996D01*
X003376Y002974D01*
X003327Y002955D01*
X003277Y002941D01*
X003226Y002930D01*
X003174Y002923D01*
X003122Y002920D01*
X003070Y002921D01*
X003018Y002926D01*
X002967Y002935D01*
X002916Y002948D01*
X002867Y002964D01*
X002818Y002984D01*
X002772Y003008D01*
X002728Y003035D01*
X002685Y003066D01*
X002645Y003099D01*
X002608Y003136D01*
X002574Y003175D01*
X002543Y003217D01*
X002514Y003261D01*
X002490Y003307D01*
X002469Y003354D01*
X002451Y003404D01*
X002438Y003454D01*
X002428Y003505D01*
X002422Y003557D01*
X002420Y003609D01*
X002420Y031168D02*
X002422Y031220D01*
X002428Y031272D01*
X002438Y031323D01*
X002451Y031373D01*
X002469Y031423D01*
X002490Y031470D01*
X002514Y031516D01*
X002543Y031560D01*
X002574Y031602D01*
X002608Y031641D01*
X002645Y031678D01*
X002685Y031711D01*
X002728Y031742D01*
X002772Y031769D01*
X002818Y031793D01*
X002867Y031813D01*
X002916Y031829D01*
X002967Y031842D01*
X003018Y031851D01*
X003070Y031856D01*
X003122Y031857D01*
X003174Y031854D01*
X003226Y031847D01*
X003277Y031836D01*
X003327Y031822D01*
X003376Y031803D01*
X003423Y031781D01*
X003468Y031756D01*
X003512Y031727D01*
X003553Y031695D01*
X003592Y031660D01*
X003627Y031622D01*
X003660Y031581D01*
X003690Y031539D01*
X003716Y031494D01*
X003739Y031447D01*
X003758Y031398D01*
X003774Y031348D01*
X003786Y031298D01*
X003794Y031246D01*
X003798Y031194D01*
X003798Y031142D01*
X003794Y031090D01*
X003786Y031038D01*
X003774Y030988D01*
X003758Y030938D01*
X003739Y030889D01*
X003716Y030842D01*
X003690Y030797D01*
X003660Y030755D01*
X003627Y030714D01*
X003592Y030676D01*
X003553Y030641D01*
X003512Y030609D01*
X003468Y030580D01*
X003423Y030555D01*
X003376Y030533D01*
X003327Y030514D01*
X003277Y030500D01*
X003226Y030489D01*
X003174Y030482D01*
X003122Y030479D01*
X003070Y030480D01*
X003018Y030485D01*
X002967Y030494D01*
X002916Y030507D01*
X002867Y030523D01*
X002818Y030543D01*
X002772Y030567D01*
X002728Y030594D01*
X002685Y030625D01*
X002645Y030658D01*
X002608Y030695D01*
X002574Y030734D01*
X002543Y030776D01*
X002514Y030820D01*
X002490Y030866D01*
X002469Y030913D01*
X002451Y030963D01*
X002438Y031013D01*
X002428Y031064D01*
X002422Y031116D01*
X002420Y031168D01*
X033916Y031168D02*
X033918Y031220D01*
X033924Y031272D01*
X033934Y031323D01*
X033947Y031373D01*
X033965Y031423D01*
X033986Y031470D01*
X034010Y031516D01*
X034039Y031560D01*
X034070Y031602D01*
X034104Y031641D01*
X034141Y031678D01*
X034181Y031711D01*
X034224Y031742D01*
X034268Y031769D01*
X034314Y031793D01*
X034363Y031813D01*
X034412Y031829D01*
X034463Y031842D01*
X034514Y031851D01*
X034566Y031856D01*
X034618Y031857D01*
X034670Y031854D01*
X034722Y031847D01*
X034773Y031836D01*
X034823Y031822D01*
X034872Y031803D01*
X034919Y031781D01*
X034964Y031756D01*
X035008Y031727D01*
X035049Y031695D01*
X035088Y031660D01*
X035123Y031622D01*
X035156Y031581D01*
X035186Y031539D01*
X035212Y031494D01*
X035235Y031447D01*
X035254Y031398D01*
X035270Y031348D01*
X035282Y031298D01*
X035290Y031246D01*
X035294Y031194D01*
X035294Y031142D01*
X035290Y031090D01*
X035282Y031038D01*
X035270Y030988D01*
X035254Y030938D01*
X035235Y030889D01*
X035212Y030842D01*
X035186Y030797D01*
X035156Y030755D01*
X035123Y030714D01*
X035088Y030676D01*
X035049Y030641D01*
X035008Y030609D01*
X034964Y030580D01*
X034919Y030555D01*
X034872Y030533D01*
X034823Y030514D01*
X034773Y030500D01*
X034722Y030489D01*
X034670Y030482D01*
X034618Y030479D01*
X034566Y030480D01*
X034514Y030485D01*
X034463Y030494D01*
X034412Y030507D01*
X034363Y030523D01*
X034314Y030543D01*
X034268Y030567D01*
X034224Y030594D01*
X034181Y030625D01*
X034141Y030658D01*
X034104Y030695D01*
X034070Y030734D01*
X034039Y030776D01*
X034010Y030820D01*
X033986Y030866D01*
X033965Y030913D01*
X033947Y030963D01*
X033934Y031013D01*
X033924Y031064D01*
X033918Y031116D01*
X033916Y031168D01*
X033916Y003609D02*
X033918Y003661D01*
X033924Y003713D01*
X033934Y003764D01*
X033947Y003814D01*
X033965Y003864D01*
X033986Y003911D01*
X034010Y003957D01*
X034039Y004001D01*
X034070Y004043D01*
X034104Y004082D01*
X034141Y004119D01*
X034181Y004152D01*
X034224Y004183D01*
X034268Y004210D01*
X034314Y004234D01*
X034363Y004254D01*
X034412Y004270D01*
X034463Y004283D01*
X034514Y004292D01*
X034566Y004297D01*
X034618Y004298D01*
X034670Y004295D01*
X034722Y004288D01*
X034773Y004277D01*
X034823Y004263D01*
X034872Y004244D01*
X034919Y004222D01*
X034964Y004197D01*
X035008Y004168D01*
X035049Y004136D01*
X035088Y004101D01*
X035123Y004063D01*
X035156Y004022D01*
X035186Y003980D01*
X035212Y003935D01*
X035235Y003888D01*
X035254Y003839D01*
X035270Y003789D01*
X035282Y003739D01*
X035290Y003687D01*
X035294Y003635D01*
X035294Y003583D01*
X035290Y003531D01*
X035282Y003479D01*
X035270Y003429D01*
X035254Y003379D01*
X035235Y003330D01*
X035212Y003283D01*
X035186Y003238D01*
X035156Y003196D01*
X035123Y003155D01*
X035088Y003117D01*
X035049Y003082D01*
X035008Y003050D01*
X034964Y003021D01*
X034919Y002996D01*
X034872Y002974D01*
X034823Y002955D01*
X034773Y002941D01*
X034722Y002930D01*
X034670Y002923D01*
X034618Y002920D01*
X034566Y002921D01*
X034514Y002926D01*
X034463Y002935D01*
X034412Y002948D01*
X034363Y002964D01*
X034314Y002984D01*
X034268Y003008D01*
X034224Y003035D01*
X034181Y003066D01*
X034141Y003099D01*
X034104Y003136D01*
X034070Y003175D01*
X034039Y003217D01*
X034010Y003261D01*
X033986Y003307D01*
X033965Y003354D01*
X033947Y003404D01*
X033934Y003454D01*
X033924Y003505D01*
X033918Y003557D01*
X033916Y003609D01*
D11*
X033736Y029030D02*
X033950Y029030D01*
X034056Y029137D01*
X034274Y029137D02*
X034274Y029244D01*
X034381Y029350D01*
X034487Y029350D01*
X034381Y029350D02*
X034274Y029457D01*
X034274Y029564D01*
X034381Y029671D01*
X034594Y029671D01*
X034701Y029564D01*
X034918Y029671D02*
X035345Y029671D01*
X035345Y029350D01*
X035132Y029457D01*
X035025Y029457D01*
X034918Y029350D01*
X034918Y029137D01*
X035025Y029030D01*
X035239Y029030D01*
X035345Y029137D01*
X035563Y029137D02*
X035563Y029564D01*
X035670Y029671D01*
X035990Y029671D01*
X035990Y029030D01*
X035670Y029030D01*
X035563Y029137D01*
X034701Y029137D02*
X034594Y029030D01*
X034381Y029030D01*
X034274Y029137D01*
X033843Y029350D02*
X033736Y029350D01*
X033629Y029244D01*
X033629Y029137D01*
X033736Y029030D01*
X033736Y029350D02*
X033629Y029457D01*
X033629Y029564D01*
X033736Y029671D01*
X033950Y029671D01*
X034056Y029564D01*
X033412Y029671D02*
X032985Y029671D01*
X032985Y029564D01*
X033412Y029137D01*
X033412Y029030D01*
X032767Y029030D02*
X032340Y029030D01*
X032554Y029030D02*
X032554Y029671D01*
X032767Y029457D01*
M02*
