G75*
G70*
%OFA0B0*%
%FSLAX24Y24*%
%IPPOS*%
%LPD*%
%AMOC8*
5,1,8,0,0,1.08239X$1,22.5*
%
%ADD10C,0.0000*%
%ADD11R,0.0015X0.0015*%
%ADD12R,0.0030X0.0015*%
%ADD13R,0.0045X0.0015*%
%ADD14R,0.0060X0.0015*%
%ADD15R,0.0195X0.0015*%
%ADD16R,0.0165X0.0015*%
%ADD17R,0.0090X0.0015*%
%ADD18R,0.0315X0.0015*%
%ADD19R,0.0300X0.0015*%
%ADD20R,0.0390X0.0015*%
%ADD21R,0.0375X0.0015*%
%ADD22R,0.0435X0.0015*%
%ADD23R,0.0420X0.0015*%
%ADD24R,0.0480X0.0015*%
%ADD25R,0.0465X0.0015*%
%ADD26R,0.0510X0.0015*%
%ADD27R,0.0555X0.0015*%
%ADD28R,0.0540X0.0015*%
%ADD29R,0.0570X0.0015*%
%ADD30R,0.0600X0.0015*%
%ADD31R,0.0240X0.0015*%
%ADD32R,0.0225X0.0015*%
%ADD33R,0.0210X0.0015*%
%ADD34R,0.0135X0.0015*%
%ADD35R,0.0180X0.0015*%
%ADD36R,0.0150X0.0015*%
%ADD37R,0.0270X0.0015*%
%ADD38R,0.0450X0.0015*%
%ADD39R,0.0525X0.0015*%
%ADD40R,0.0330X0.0015*%
%ADD41R,0.0855X0.0015*%
%ADD42R,0.0870X0.0015*%
%ADD43R,0.0405X0.0015*%
%ADD44R,0.0360X0.0015*%
%ADD45R,0.0285X0.0015*%
%ADD46R,0.0675X0.0015*%
%ADD47C,0.0070*%
%ADD48C,0.0030*%
%ADD49C,0.0060*%
%ADD50C,0.0050*%
%ADD51C,0.0040*%
%ADD52C,0.0020*%
%ADD53C,0.0080*%
%ADD54C,0.0100*%
%ADD55C,0.0240*%
D10*
X001140Y001640D02*
X001140Y033136D01*
X036573Y033136D01*
X036573Y001640D01*
X001140Y001640D01*
X002420Y003609D02*
X002422Y003661D01*
X002428Y003713D01*
X002438Y003764D01*
X002451Y003814D01*
X002469Y003864D01*
X002490Y003911D01*
X002514Y003957D01*
X002543Y004001D01*
X002574Y004043D01*
X002608Y004082D01*
X002645Y004119D01*
X002685Y004152D01*
X002728Y004183D01*
X002772Y004210D01*
X002818Y004234D01*
X002867Y004254D01*
X002916Y004270D01*
X002967Y004283D01*
X003018Y004292D01*
X003070Y004297D01*
X003122Y004298D01*
X003174Y004295D01*
X003226Y004288D01*
X003277Y004277D01*
X003327Y004263D01*
X003376Y004244D01*
X003423Y004222D01*
X003468Y004197D01*
X003512Y004168D01*
X003553Y004136D01*
X003592Y004101D01*
X003627Y004063D01*
X003660Y004022D01*
X003690Y003980D01*
X003716Y003935D01*
X003739Y003888D01*
X003758Y003839D01*
X003774Y003789D01*
X003786Y003739D01*
X003794Y003687D01*
X003798Y003635D01*
X003798Y003583D01*
X003794Y003531D01*
X003786Y003479D01*
X003774Y003429D01*
X003758Y003379D01*
X003739Y003330D01*
X003716Y003283D01*
X003690Y003238D01*
X003660Y003196D01*
X003627Y003155D01*
X003592Y003117D01*
X003553Y003082D01*
X003512Y003050D01*
X003468Y003021D01*
X003423Y002996D01*
X003376Y002974D01*
X003327Y002955D01*
X003277Y002941D01*
X003226Y002930D01*
X003174Y002923D01*
X003122Y002920D01*
X003070Y002921D01*
X003018Y002926D01*
X002967Y002935D01*
X002916Y002948D01*
X002867Y002964D01*
X002818Y002984D01*
X002772Y003008D01*
X002728Y003035D01*
X002685Y003066D01*
X002645Y003099D01*
X002608Y003136D01*
X002574Y003175D01*
X002543Y003217D01*
X002514Y003261D01*
X002490Y003307D01*
X002469Y003354D01*
X002451Y003404D01*
X002438Y003454D01*
X002428Y003505D01*
X002422Y003557D01*
X002420Y003609D01*
X002420Y031168D02*
X002422Y031220D01*
X002428Y031272D01*
X002438Y031323D01*
X002451Y031373D01*
X002469Y031423D01*
X002490Y031470D01*
X002514Y031516D01*
X002543Y031560D01*
X002574Y031602D01*
X002608Y031641D01*
X002645Y031678D01*
X002685Y031711D01*
X002728Y031742D01*
X002772Y031769D01*
X002818Y031793D01*
X002867Y031813D01*
X002916Y031829D01*
X002967Y031842D01*
X003018Y031851D01*
X003070Y031856D01*
X003122Y031857D01*
X003174Y031854D01*
X003226Y031847D01*
X003277Y031836D01*
X003327Y031822D01*
X003376Y031803D01*
X003423Y031781D01*
X003468Y031756D01*
X003512Y031727D01*
X003553Y031695D01*
X003592Y031660D01*
X003627Y031622D01*
X003660Y031581D01*
X003690Y031539D01*
X003716Y031494D01*
X003739Y031447D01*
X003758Y031398D01*
X003774Y031348D01*
X003786Y031298D01*
X003794Y031246D01*
X003798Y031194D01*
X003798Y031142D01*
X003794Y031090D01*
X003786Y031038D01*
X003774Y030988D01*
X003758Y030938D01*
X003739Y030889D01*
X003716Y030842D01*
X003690Y030797D01*
X003660Y030755D01*
X003627Y030714D01*
X003592Y030676D01*
X003553Y030641D01*
X003512Y030609D01*
X003468Y030580D01*
X003423Y030555D01*
X003376Y030533D01*
X003327Y030514D01*
X003277Y030500D01*
X003226Y030489D01*
X003174Y030482D01*
X003122Y030479D01*
X003070Y030480D01*
X003018Y030485D01*
X002967Y030494D01*
X002916Y030507D01*
X002867Y030523D01*
X002818Y030543D01*
X002772Y030567D01*
X002728Y030594D01*
X002685Y030625D01*
X002645Y030658D01*
X002608Y030695D01*
X002574Y030734D01*
X002543Y030776D01*
X002514Y030820D01*
X002490Y030866D01*
X002469Y030913D01*
X002451Y030963D01*
X002438Y031013D01*
X002428Y031064D01*
X002422Y031116D01*
X002420Y031168D01*
X033916Y031168D02*
X033918Y031220D01*
X033924Y031272D01*
X033934Y031323D01*
X033947Y031373D01*
X033965Y031423D01*
X033986Y031470D01*
X034010Y031516D01*
X034039Y031560D01*
X034070Y031602D01*
X034104Y031641D01*
X034141Y031678D01*
X034181Y031711D01*
X034224Y031742D01*
X034268Y031769D01*
X034314Y031793D01*
X034363Y031813D01*
X034412Y031829D01*
X034463Y031842D01*
X034514Y031851D01*
X034566Y031856D01*
X034618Y031857D01*
X034670Y031854D01*
X034722Y031847D01*
X034773Y031836D01*
X034823Y031822D01*
X034872Y031803D01*
X034919Y031781D01*
X034964Y031756D01*
X035008Y031727D01*
X035049Y031695D01*
X035088Y031660D01*
X035123Y031622D01*
X035156Y031581D01*
X035186Y031539D01*
X035212Y031494D01*
X035235Y031447D01*
X035254Y031398D01*
X035270Y031348D01*
X035282Y031298D01*
X035290Y031246D01*
X035294Y031194D01*
X035294Y031142D01*
X035290Y031090D01*
X035282Y031038D01*
X035270Y030988D01*
X035254Y030938D01*
X035235Y030889D01*
X035212Y030842D01*
X035186Y030797D01*
X035156Y030755D01*
X035123Y030714D01*
X035088Y030676D01*
X035049Y030641D01*
X035008Y030609D01*
X034964Y030580D01*
X034919Y030555D01*
X034872Y030533D01*
X034823Y030514D01*
X034773Y030500D01*
X034722Y030489D01*
X034670Y030482D01*
X034618Y030479D01*
X034566Y030480D01*
X034514Y030485D01*
X034463Y030494D01*
X034412Y030507D01*
X034363Y030523D01*
X034314Y030543D01*
X034268Y030567D01*
X034224Y030594D01*
X034181Y030625D01*
X034141Y030658D01*
X034104Y030695D01*
X034070Y030734D01*
X034039Y030776D01*
X034010Y030820D01*
X033986Y030866D01*
X033965Y030913D01*
X033947Y030963D01*
X033934Y031013D01*
X033924Y031064D01*
X033918Y031116D01*
X033916Y031168D01*
X033916Y003609D02*
X033918Y003661D01*
X033924Y003713D01*
X033934Y003764D01*
X033947Y003814D01*
X033965Y003864D01*
X033986Y003911D01*
X034010Y003957D01*
X034039Y004001D01*
X034070Y004043D01*
X034104Y004082D01*
X034141Y004119D01*
X034181Y004152D01*
X034224Y004183D01*
X034268Y004210D01*
X034314Y004234D01*
X034363Y004254D01*
X034412Y004270D01*
X034463Y004283D01*
X034514Y004292D01*
X034566Y004297D01*
X034618Y004298D01*
X034670Y004295D01*
X034722Y004288D01*
X034773Y004277D01*
X034823Y004263D01*
X034872Y004244D01*
X034919Y004222D01*
X034964Y004197D01*
X035008Y004168D01*
X035049Y004136D01*
X035088Y004101D01*
X035123Y004063D01*
X035156Y004022D01*
X035186Y003980D01*
X035212Y003935D01*
X035235Y003888D01*
X035254Y003839D01*
X035270Y003789D01*
X035282Y003739D01*
X035290Y003687D01*
X035294Y003635D01*
X035294Y003583D01*
X035290Y003531D01*
X035282Y003479D01*
X035270Y003429D01*
X035254Y003379D01*
X035235Y003330D01*
X035212Y003283D01*
X035186Y003238D01*
X035156Y003196D01*
X035123Y003155D01*
X035088Y003117D01*
X035049Y003082D01*
X035008Y003050D01*
X034964Y003021D01*
X034919Y002996D01*
X034872Y002974D01*
X034823Y002955D01*
X034773Y002941D01*
X034722Y002930D01*
X034670Y002923D01*
X034618Y002920D01*
X034566Y002921D01*
X034514Y002926D01*
X034463Y002935D01*
X034412Y002948D01*
X034363Y002964D01*
X034314Y002984D01*
X034268Y003008D01*
X034224Y003035D01*
X034181Y003066D01*
X034141Y003099D01*
X034104Y003136D01*
X034070Y003175D01*
X034039Y003217D01*
X034010Y003261D01*
X033986Y003307D01*
X033965Y003354D01*
X033947Y003404D01*
X033934Y003454D01*
X033924Y003505D01*
X033918Y003557D01*
X033916Y003609D01*
D11*
X025955Y015560D03*
X025955Y015695D03*
X025955Y015770D03*
X025955Y015845D03*
X026030Y015845D03*
X026030Y015875D03*
X026030Y015920D03*
X026030Y015950D03*
X026030Y015995D03*
X026030Y016025D03*
X026105Y016070D03*
X026165Y016085D03*
X026165Y016100D03*
X026180Y016145D03*
X026120Y016295D03*
X026120Y016310D03*
X026195Y016520D03*
X026210Y016535D03*
X026255Y016565D03*
X026255Y016640D03*
X026330Y016640D03*
X026330Y016655D03*
X026330Y016715D03*
X026330Y016730D03*
X026330Y016790D03*
X026330Y016805D03*
X026330Y016865D03*
X026330Y016880D03*
X026405Y016880D03*
X026405Y016865D03*
X026405Y016805D03*
X026405Y016790D03*
X026390Y016700D03*
X026330Y016580D03*
X026330Y016565D03*
X026315Y016460D03*
X026465Y016895D03*
X026465Y016925D03*
X026465Y016940D03*
X026480Y016955D03*
X026405Y016955D03*
X026405Y016940D03*
X026405Y017090D03*
X026420Y017105D03*
X026420Y017120D03*
X026435Y017150D03*
X026480Y017180D03*
X026555Y017180D03*
X026540Y017120D03*
X026645Y017735D03*
X026705Y017780D03*
X026780Y017780D03*
X026855Y017780D03*
X026930Y017780D03*
X026930Y017840D03*
X027005Y017840D03*
X027005Y017780D03*
X027080Y017780D03*
X027080Y017765D03*
X027080Y017840D03*
X027155Y017840D03*
X027155Y017780D03*
X027155Y017765D03*
X027230Y017765D03*
X027230Y017780D03*
X027230Y017840D03*
X027305Y017840D03*
X027305Y017780D03*
X027305Y017765D03*
X027380Y017765D03*
X027380Y017780D03*
X027380Y017840D03*
X027455Y017840D03*
X027530Y017840D03*
X027530Y017765D03*
X027455Y017765D03*
X027605Y017765D03*
X028280Y017795D03*
X028355Y017795D03*
X028355Y017750D03*
X028430Y017750D03*
X028430Y017795D03*
X028430Y017825D03*
X028505Y017825D03*
X028505Y017795D03*
X028580Y017795D03*
X028580Y017735D03*
X028655Y017735D03*
X028655Y017795D03*
X028730Y017795D03*
X028730Y017735D03*
X028805Y017735D03*
X028955Y017810D03*
X026540Y018935D03*
X026555Y018995D03*
X026555Y019025D03*
X026555Y019070D03*
X026555Y019100D03*
X026555Y019145D03*
X026615Y019160D03*
X026630Y019220D03*
X026555Y019220D03*
X026555Y019310D03*
X026630Y019385D03*
X026480Y019160D03*
X026480Y019145D03*
X026480Y019100D03*
X026480Y019070D03*
X026480Y019025D03*
X026480Y018995D03*
X026480Y018920D03*
X026480Y018845D03*
X026465Y018770D03*
X026345Y018770D03*
X026345Y018785D03*
X026330Y018725D03*
X026390Y018545D03*
X026330Y018440D03*
X026255Y018440D03*
X026210Y018410D03*
X026195Y018350D03*
X026180Y018305D03*
X026180Y018290D03*
X026180Y018230D03*
X026180Y018215D03*
X026180Y018155D03*
X026180Y018140D03*
X026180Y018080D03*
X026180Y018065D03*
X026180Y018005D03*
X026165Y017945D03*
X026105Y017930D03*
X026045Y017930D03*
X026030Y017915D03*
X026060Y017975D03*
X026105Y018005D03*
X026105Y018065D03*
X026105Y018080D03*
X026120Y018170D03*
X026240Y018125D03*
X026255Y018215D03*
X026255Y018230D03*
X026255Y018290D03*
X026255Y018365D03*
X026315Y018350D03*
X026315Y018335D03*
X026105Y017780D03*
X025505Y017105D03*
X025430Y017105D03*
X025355Y017105D03*
X025280Y017105D03*
X025280Y017165D03*
X025280Y017180D03*
X025355Y017180D03*
X025205Y017180D03*
X025205Y017165D03*
X025205Y017105D03*
X025130Y017105D03*
X025130Y017165D03*
X025130Y017180D03*
X025055Y017180D03*
X025055Y017165D03*
X025055Y017105D03*
X024980Y017105D03*
X024980Y017165D03*
X024980Y017180D03*
X024905Y017180D03*
X024905Y017165D03*
X024830Y017165D03*
X024230Y017195D03*
X024155Y017195D03*
X024080Y017195D03*
X024080Y017150D03*
X024080Y017120D03*
X024155Y017120D03*
X024005Y017120D03*
X024005Y017150D03*
X024005Y017195D03*
X023930Y017195D03*
X023855Y017195D03*
X023855Y017210D03*
X023780Y017210D03*
X023705Y017135D03*
X023630Y017135D03*
X023855Y017120D03*
X023930Y017120D03*
X026105Y015950D03*
X026105Y015920D03*
X026090Y015860D03*
X026030Y015770D03*
X026405Y018950D03*
D12*
X026413Y018935D03*
X026413Y018920D03*
X026398Y018875D03*
X026413Y018845D03*
X026398Y018800D03*
X026473Y018800D03*
X026473Y018785D03*
X026473Y018875D03*
X026473Y018950D03*
X026548Y019010D03*
X026548Y019160D03*
X026548Y019235D03*
X026623Y019235D03*
X026623Y019310D03*
X026398Y018725D03*
X026338Y018695D03*
X026398Y018620D03*
X026398Y018575D03*
X026398Y018560D03*
X026263Y018545D03*
X026323Y018395D03*
X026188Y018320D03*
X026248Y018200D03*
X026248Y018170D03*
X026113Y018125D03*
X026098Y017990D03*
X026173Y017990D03*
X026173Y017975D03*
X026098Y017915D03*
X026113Y017855D03*
X026098Y017840D03*
X026098Y017795D03*
X026038Y017780D03*
X026023Y017840D03*
X026038Y017855D03*
X026038Y017945D03*
X026653Y017750D03*
X026698Y017765D03*
X026773Y017765D03*
X026848Y017765D03*
X026923Y017765D03*
X026998Y017765D03*
X027073Y017735D03*
X027148Y017735D03*
X027298Y017735D03*
X027373Y017735D03*
X027448Y017735D03*
X027523Y017735D03*
X027598Y017735D03*
X027673Y017735D03*
X027748Y017735D03*
X027823Y017735D03*
X027898Y017735D03*
X027973Y017735D03*
X027973Y017750D03*
X028048Y017750D03*
X028048Y017735D03*
X028123Y017735D03*
X028123Y017750D03*
X028138Y017795D03*
X028123Y017825D03*
X028198Y017825D03*
X028213Y017795D03*
X028198Y017750D03*
X028198Y017735D03*
X028273Y017735D03*
X028273Y017750D03*
X028273Y017825D03*
X028348Y017825D03*
X028348Y017735D03*
X028423Y017735D03*
X028498Y017735D03*
X028723Y017810D03*
X028798Y017810D03*
X028873Y017810D03*
X028048Y017825D03*
X027973Y017825D03*
X026848Y017840D03*
X026773Y017840D03*
X026698Y017840D03*
X026548Y017165D03*
X026548Y017150D03*
X026488Y017105D03*
X026473Y017090D03*
X026488Y017030D03*
X026473Y017015D03*
X026473Y016970D03*
X026413Y017030D03*
X026398Y017015D03*
X026353Y016925D03*
X026338Y016895D03*
X026398Y016745D03*
X026263Y016700D03*
X026263Y016670D03*
X026323Y016550D03*
X026323Y016535D03*
X026323Y016520D03*
X026188Y016475D03*
X026188Y016445D03*
X026248Y016370D03*
X026248Y016325D03*
X026248Y016310D03*
X026113Y016250D03*
X026113Y016220D03*
X026098Y016175D03*
X026113Y016145D03*
X026098Y016100D03*
X026038Y016085D03*
X026038Y016070D03*
X026098Y016025D03*
X026113Y015995D03*
X026098Y015935D03*
X025963Y015860D03*
X025948Y015785D03*
X025948Y015710D03*
X026023Y015710D03*
X025948Y015635D03*
X026173Y016175D03*
X026473Y017165D03*
X025573Y017195D03*
X025573Y017210D03*
X025513Y017180D03*
X025498Y017165D03*
X025438Y017180D03*
X025423Y017165D03*
X025348Y017165D03*
X024388Y017195D03*
X024373Y017210D03*
X024373Y017150D03*
X024313Y017120D03*
X024298Y017150D03*
X024313Y017195D03*
X024298Y017210D03*
X024223Y017210D03*
X024223Y017150D03*
X024238Y017120D03*
X024148Y017150D03*
X024148Y017210D03*
X024073Y017210D03*
X023998Y017210D03*
X023923Y017210D03*
X023848Y017135D03*
X023773Y017135D03*
D13*
X023930Y017135D03*
X024005Y017135D03*
X024080Y017135D03*
X024155Y017135D03*
X024230Y017135D03*
X024305Y017135D03*
X024380Y017135D03*
X024380Y017120D03*
X024455Y017120D03*
X024455Y017135D03*
X024455Y017150D03*
X024455Y017195D03*
X024455Y017210D03*
X024530Y017210D03*
X024530Y017195D03*
X024530Y017150D03*
X024530Y017135D03*
X024530Y017120D03*
X024605Y017120D03*
X024605Y017150D03*
X024605Y017195D03*
X024605Y017210D03*
X024680Y017210D03*
X024680Y017195D03*
X024680Y017150D03*
X024680Y017120D03*
X024755Y017120D03*
X024755Y017150D03*
X024755Y017195D03*
X024755Y017210D03*
X024830Y017210D03*
X024830Y017195D03*
X024830Y017150D03*
X024830Y017120D03*
X024905Y017120D03*
X024905Y017150D03*
X024905Y017195D03*
X024905Y017210D03*
X024980Y017210D03*
X024980Y017195D03*
X024980Y017150D03*
X024980Y017120D03*
X025055Y017120D03*
X025055Y017150D03*
X025055Y017195D03*
X025055Y017210D03*
X025130Y017210D03*
X025130Y017195D03*
X025205Y017195D03*
X025205Y017210D03*
X025280Y017210D03*
X025280Y017195D03*
X025355Y017195D03*
X025355Y017210D03*
X025430Y017210D03*
X025430Y017195D03*
X025505Y017195D03*
X025505Y017210D03*
X025505Y017120D03*
X025430Y017120D03*
X025355Y017120D03*
X025280Y017120D03*
X025205Y017120D03*
X025130Y017120D03*
X026030Y017795D03*
X026030Y017870D03*
X026045Y017900D03*
X026105Y017870D03*
X026105Y017825D03*
X026105Y017945D03*
X026105Y018020D03*
X026105Y018095D03*
X026180Y018095D03*
X026180Y018050D03*
X026180Y018020D03*
X026180Y018170D03*
X026180Y018200D03*
X026180Y018245D03*
X026180Y018275D03*
X026195Y018335D03*
X026255Y018350D03*
X026255Y018320D03*
X026255Y018275D03*
X026255Y018260D03*
X026255Y018245D03*
X026255Y018395D03*
X026255Y018425D03*
X026255Y018470D03*
X026255Y018500D03*
X026270Y018560D03*
X026330Y018575D03*
X026330Y018545D03*
X026330Y018500D03*
X026330Y018470D03*
X026330Y018425D03*
X026330Y018410D03*
X026330Y018620D03*
X026330Y018635D03*
X026330Y018650D03*
X026330Y018710D03*
X026405Y018710D03*
X026405Y018695D03*
X026405Y018650D03*
X026405Y018635D03*
X026405Y018770D03*
X026405Y018785D03*
X026405Y018860D03*
X026480Y018860D03*
X026480Y018935D03*
X026480Y019010D03*
X026480Y019085D03*
X026555Y019085D03*
X026705Y017795D03*
X026705Y017735D03*
X026780Y017735D03*
X026780Y017795D03*
X026855Y017795D03*
X026855Y017735D03*
X026930Y017735D03*
X026930Y017795D03*
X027005Y017795D03*
X027005Y017735D03*
X027080Y017750D03*
X027080Y017795D03*
X027155Y017795D03*
X027155Y017825D03*
X027230Y017825D03*
X027230Y017795D03*
X027230Y017750D03*
X027230Y017735D03*
X027305Y017750D03*
X027305Y017795D03*
X027305Y017825D03*
X027380Y017825D03*
X027380Y017795D03*
X027380Y017750D03*
X027455Y017750D03*
X027455Y017795D03*
X027455Y017825D03*
X027530Y017825D03*
X027530Y017795D03*
X027530Y017750D03*
X027605Y017750D03*
X027605Y017795D03*
X027605Y017825D03*
X027680Y017825D03*
X027680Y017795D03*
X027680Y017750D03*
X027755Y017750D03*
X027755Y017795D03*
X027755Y017825D03*
X027830Y017825D03*
X027830Y017810D03*
X027830Y017795D03*
X027830Y017750D03*
X027905Y017750D03*
X027905Y017795D03*
X027905Y017810D03*
X027905Y017825D03*
X027980Y017810D03*
X027980Y017795D03*
X028055Y017795D03*
X028055Y017810D03*
X028130Y017810D03*
X028205Y017810D03*
X028280Y017810D03*
X028355Y017810D03*
X028430Y017810D03*
X028505Y017810D03*
X028580Y017810D03*
X028655Y017810D03*
X027155Y017750D03*
X026480Y017120D03*
X026420Y017075D03*
X026405Y017045D03*
X026480Y017045D03*
X026480Y017000D03*
X026405Y016970D03*
X026405Y016895D03*
X026405Y016850D03*
X026405Y016820D03*
X026405Y016775D03*
X026405Y016760D03*
X026330Y016775D03*
X026330Y016745D03*
X026330Y016700D03*
X026330Y016670D03*
X026330Y016625D03*
X026330Y016610D03*
X026330Y016595D03*
X026255Y016595D03*
X026255Y016625D03*
X026270Y016685D03*
X026255Y016550D03*
X026255Y016520D03*
X026255Y016475D03*
X026255Y016445D03*
X026255Y016400D03*
X026255Y016385D03*
X026180Y016385D03*
X026180Y016400D03*
X026180Y016370D03*
X026180Y016325D03*
X026180Y016310D03*
X026180Y016295D03*
X026180Y016250D03*
X026180Y016235D03*
X026180Y016220D03*
X026180Y016160D03*
X026105Y016160D03*
X026105Y016235D03*
X026105Y016085D03*
X026105Y016010D03*
X026030Y016010D03*
X026030Y015935D03*
X026030Y015860D03*
X026030Y015785D03*
X026195Y016460D03*
X026330Y016820D03*
D14*
X026338Y016850D03*
X026413Y016925D03*
X026413Y017000D03*
X026488Y017075D03*
X026488Y017150D03*
X026713Y017750D03*
X026788Y017750D03*
X026863Y017750D03*
X026938Y017750D03*
X027013Y017750D03*
X027013Y017825D03*
X027088Y017825D03*
X026938Y017825D03*
X026863Y017825D03*
X027388Y017810D03*
X027463Y017810D03*
X027538Y017810D03*
X027613Y017810D03*
X027688Y017810D03*
X027763Y017810D03*
X026338Y018485D03*
X026338Y018560D03*
X026263Y018485D03*
X026263Y018410D03*
X026263Y018335D03*
X026188Y018260D03*
X026188Y018125D03*
X026113Y018050D03*
X026113Y017975D03*
X026113Y017900D03*
X026038Y017825D03*
X025513Y017150D03*
X025438Y017150D03*
X025363Y017150D03*
X025288Y017150D03*
X025213Y017150D03*
X025138Y017150D03*
X024988Y017135D03*
X024913Y017135D03*
X024838Y017135D03*
X024763Y017135D03*
X024688Y017135D03*
X024613Y017135D03*
X026263Y016610D03*
X026263Y016535D03*
X026263Y016460D03*
D15*
X026915Y016835D03*
X027080Y016670D03*
X027335Y016820D03*
X027350Y016835D03*
X028040Y016850D03*
X028220Y016670D03*
X028475Y016820D03*
X028550Y017000D03*
X028655Y017375D03*
X028235Y017390D03*
D16*
X028205Y017360D03*
X028190Y017330D03*
X028175Y017300D03*
X028175Y017285D03*
X028175Y017270D03*
X028025Y016940D03*
X028025Y016925D03*
X028025Y016910D03*
X028025Y016895D03*
X028535Y016880D03*
X028535Y016865D03*
X028550Y016895D03*
X028550Y016910D03*
X028565Y016940D03*
X028565Y016955D03*
X028565Y016970D03*
X028670Y017315D03*
X028490Y017540D03*
X027635Y017525D03*
X027620Y017510D03*
X027620Y017495D03*
X027620Y017480D03*
X027605Y017465D03*
X027605Y017450D03*
X027605Y017435D03*
X027590Y017420D03*
X027590Y017405D03*
X027590Y017390D03*
X027575Y017375D03*
X027575Y017360D03*
X027575Y017345D03*
X027560Y017330D03*
X027560Y017315D03*
X027560Y017300D03*
X027545Y017285D03*
X027545Y017270D03*
X027545Y017255D03*
X027530Y017240D03*
X027530Y017225D03*
X027530Y017210D03*
X027515Y017195D03*
X027515Y017180D03*
X027500Y017150D03*
X027500Y017135D03*
X027485Y017120D03*
X027485Y017105D03*
X027485Y017090D03*
X027470Y017075D03*
X027470Y017060D03*
X027470Y017045D03*
X027455Y017030D03*
X027455Y017015D03*
X027455Y017000D03*
X027440Y016985D03*
X027440Y016970D03*
X027425Y016955D03*
X027425Y016940D03*
X027410Y016910D03*
X027380Y016865D03*
X026945Y017030D03*
X026945Y017045D03*
X026945Y017060D03*
X026960Y017075D03*
X026960Y017090D03*
X026960Y017105D03*
X026975Y017120D03*
X026975Y017135D03*
X026975Y017150D03*
X026990Y017165D03*
X026990Y017180D03*
X026990Y017195D03*
X027005Y017210D03*
X027005Y017225D03*
X027005Y017240D03*
X027020Y017255D03*
X027020Y017270D03*
X027035Y017300D03*
X027035Y017315D03*
X027050Y017345D03*
X027050Y017360D03*
X027065Y017390D03*
X027065Y017405D03*
X027080Y017435D03*
X027080Y017450D03*
X027095Y017480D03*
X027095Y017495D03*
X027110Y017510D03*
X027110Y017525D03*
X026930Y017015D03*
X026930Y017000D03*
X026930Y016985D03*
X026915Y016955D03*
X026915Y016940D03*
X026915Y016925D03*
X026915Y016910D03*
X026405Y016910D03*
X025985Y017105D03*
X025985Y017120D03*
X025985Y017135D03*
X026000Y017150D03*
X026000Y017165D03*
X026000Y017180D03*
X026015Y017195D03*
X026015Y017210D03*
X026030Y017240D03*
X026030Y017255D03*
X026045Y017285D03*
X026045Y017300D03*
X026060Y017315D03*
X026060Y017330D03*
X026060Y017345D03*
X026075Y017360D03*
X026075Y017375D03*
X026075Y017390D03*
X025970Y017090D03*
X025970Y017075D03*
X025970Y017060D03*
X025955Y017045D03*
X025955Y017030D03*
X025955Y017015D03*
X025940Y017000D03*
X025940Y016985D03*
X025940Y016970D03*
X025925Y016955D03*
X025925Y016940D03*
X025925Y016925D03*
X025910Y016910D03*
X025910Y016895D03*
X025910Y016880D03*
X025895Y016865D03*
X025895Y016850D03*
X025895Y016835D03*
X025880Y016820D03*
X025880Y016805D03*
X025880Y016790D03*
X025865Y016775D03*
X025865Y016760D03*
X025865Y016745D03*
X025850Y016730D03*
X025850Y016715D03*
X025850Y016700D03*
X025835Y016685D03*
X026105Y017960D03*
X026165Y018110D03*
D17*
X026323Y016760D03*
X026353Y016685D03*
D18*
X027080Y016685D03*
X028490Y017045D03*
D19*
X028228Y016685D03*
D20*
X027088Y016700D03*
D21*
X028220Y016700D03*
X028460Y017060D03*
X028280Y017180D03*
D22*
X027095Y016715D03*
D23*
X028228Y016715D03*
X028423Y017075D03*
X028303Y017165D03*
D24*
X028468Y017465D03*
X027103Y016730D03*
D25*
X028235Y016730D03*
X028385Y017105D03*
X028370Y017120D03*
X028355Y017135D03*
X028475Y017480D03*
D26*
X028243Y016745D03*
X027103Y016745D03*
D27*
X027110Y016760D03*
X028460Y017435D03*
D28*
X028243Y016760D03*
D29*
X028243Y016775D03*
X028453Y017420D03*
X027118Y016775D03*
D30*
X027118Y016790D03*
X028258Y016790D03*
D31*
X028078Y016805D03*
X028198Y017225D03*
X027313Y016805D03*
X026938Y016805D03*
D32*
X028055Y016820D03*
X028445Y016805D03*
X028535Y017015D03*
X028625Y017405D03*
X028265Y017405D03*
D33*
X028183Y017240D03*
X028048Y016835D03*
X028648Y017390D03*
X026923Y016820D03*
D34*
X026435Y016985D03*
X026450Y017060D03*
X026375Y016835D03*
X026060Y017810D03*
X026075Y017885D03*
X026135Y018035D03*
X026750Y017825D03*
D35*
X026908Y016895D03*
X026908Y016880D03*
X026908Y016865D03*
X026908Y016850D03*
X027373Y016850D03*
X027388Y016880D03*
X027403Y016895D03*
X027418Y016925D03*
X027508Y017165D03*
X028033Y016880D03*
X028033Y016865D03*
X028168Y017255D03*
X028228Y017375D03*
X028663Y017360D03*
X028663Y017345D03*
X028663Y017330D03*
X028558Y016985D03*
X028513Y016850D03*
X028498Y016835D03*
D36*
X028558Y016925D03*
X028663Y017285D03*
X028663Y017300D03*
X028198Y017345D03*
X028183Y017315D03*
X028033Y016955D03*
X027028Y017285D03*
X027043Y017330D03*
X027058Y017375D03*
X027073Y017420D03*
X027088Y017465D03*
X026923Y016970D03*
X026488Y017135D03*
X026038Y017270D03*
X026023Y017225D03*
X026188Y018185D03*
D37*
X028213Y017210D03*
X028513Y017030D03*
D38*
X028408Y017090D03*
X028333Y017150D03*
D39*
X028460Y017450D03*
X025295Y017135D03*
D40*
X028243Y017195D03*
D41*
X026135Y017525D03*
X026120Y017495D03*
X026120Y017480D03*
X026105Y017450D03*
X026105Y017435D03*
X026090Y017405D03*
D42*
X026098Y017420D03*
X026113Y017465D03*
X026128Y017510D03*
D43*
X028475Y017495D03*
D44*
X028483Y017510D03*
D45*
X028490Y017525D03*
D46*
X027005Y017810D03*
D47*
X026519Y015605D02*
X026519Y015115D01*
X026438Y015115D02*
X026601Y015115D01*
X026781Y015197D02*
X026781Y015360D01*
X026863Y015442D01*
X027027Y015442D01*
X027108Y015360D01*
X027108Y015278D01*
X026781Y015278D01*
X026781Y015197D02*
X026863Y015115D01*
X027027Y015115D01*
X027297Y015033D02*
X027624Y015033D01*
X027813Y015197D02*
X027894Y015115D01*
X028058Y015115D01*
X028140Y015197D01*
X028140Y015278D01*
X028058Y015360D01*
X027894Y015360D01*
X027813Y015442D01*
X027813Y015524D01*
X027894Y015605D01*
X028058Y015605D01*
X028140Y015524D01*
X028328Y015360D02*
X028410Y015442D01*
X028573Y015442D01*
X028655Y015360D01*
X028655Y015278D01*
X028328Y015278D01*
X028328Y015197D02*
X028328Y015360D01*
X028328Y015197D02*
X028410Y015115D01*
X028573Y015115D01*
X028844Y015115D02*
X028844Y015442D01*
X029089Y015442D01*
X029171Y015360D01*
X029171Y015115D01*
X029360Y015115D02*
X029605Y015115D01*
X029686Y015197D01*
X029605Y015278D01*
X029441Y015278D01*
X029360Y015360D01*
X029441Y015442D01*
X029686Y015442D01*
X029875Y015360D02*
X029875Y015197D01*
X029957Y015115D01*
X030120Y015115D01*
X030202Y015197D01*
X030202Y015360D01*
X030120Y015442D01*
X029957Y015442D01*
X029875Y015360D01*
X030391Y015278D02*
X030554Y015442D01*
X030636Y015442D01*
X030820Y015524D02*
X030820Y015197D01*
X030902Y015115D01*
X031066Y015115D01*
X031147Y015197D01*
X031336Y015197D02*
X031418Y015115D01*
X031581Y015115D01*
X031663Y015197D01*
X031663Y015360D01*
X031581Y015442D01*
X031418Y015442D01*
X031336Y015360D01*
X031336Y015197D01*
X031147Y015524D02*
X031066Y015605D01*
X030902Y015605D01*
X030820Y015524D01*
X030391Y015442D02*
X030391Y015115D01*
X031852Y015115D02*
X031852Y015442D01*
X032097Y015442D01*
X032179Y015360D01*
X032179Y015115D01*
X032449Y015197D02*
X032449Y015524D01*
X032367Y015442D02*
X032531Y015442D01*
X032711Y015442D02*
X032711Y015115D01*
X032711Y015278D02*
X032875Y015442D01*
X032956Y015442D01*
X033141Y015360D02*
X033141Y015197D01*
X033223Y015115D01*
X033386Y015115D01*
X033468Y015197D01*
X033468Y015360D01*
X033386Y015442D01*
X033223Y015442D01*
X033141Y015360D01*
X033657Y015115D02*
X033820Y015115D01*
X033738Y015115D02*
X033738Y015605D01*
X033657Y015605D01*
X032531Y015115D02*
X032449Y015197D01*
X026519Y015605D02*
X026438Y015605D01*
X026249Y015442D02*
X026249Y015115D01*
X026004Y015115D01*
X025922Y015197D01*
X025922Y015442D01*
X025733Y015442D02*
X025488Y015442D01*
X025406Y015360D01*
X025406Y015197D01*
X025488Y015115D01*
X025733Y015115D01*
X025733Y015605D01*
X025218Y015360D02*
X025136Y015442D01*
X024972Y015442D01*
X024891Y015360D01*
X024891Y015197D01*
X024972Y015115D01*
X025136Y015115D01*
X025218Y015197D01*
X025218Y015360D01*
X024702Y015360D02*
X024702Y015115D01*
X024538Y015115D02*
X024538Y015360D01*
X024620Y015442D01*
X024702Y015360D01*
X024538Y015360D02*
X024457Y015442D01*
X024375Y015442D01*
X024375Y015115D01*
D48*
X024195Y014905D02*
X024195Y014615D01*
X024195Y014760D02*
X024243Y014808D01*
X024340Y014808D01*
X024388Y014760D01*
X024388Y014615D01*
X024538Y014663D02*
X024538Y014857D01*
X024490Y014808D02*
X024586Y014808D01*
X024686Y014808D02*
X024783Y014808D01*
X024734Y014857D02*
X024734Y014663D01*
X024783Y014615D01*
X024883Y014615D02*
X025028Y014615D01*
X025076Y014663D01*
X025076Y014760D01*
X025028Y014808D01*
X024883Y014808D01*
X024883Y014518D01*
X025177Y014615D02*
X025322Y014615D01*
X025371Y014663D01*
X025322Y014712D01*
X025226Y014712D01*
X025177Y014760D01*
X025226Y014808D01*
X025371Y014808D01*
X025472Y014808D02*
X025472Y014760D01*
X025520Y014760D01*
X025520Y014808D01*
X025472Y014808D01*
X025472Y014663D02*
X025472Y014615D01*
X025520Y014615D01*
X025520Y014663D01*
X025472Y014663D01*
X025619Y014615D02*
X025813Y014905D01*
X026107Y014905D02*
X025914Y014615D01*
X026208Y014663D02*
X026208Y014760D01*
X026257Y014808D01*
X026402Y014808D01*
X026402Y014567D01*
X026354Y014518D01*
X026305Y014518D01*
X026257Y014615D02*
X026402Y014615D01*
X026503Y014615D02*
X026600Y014615D01*
X026551Y014615D02*
X026551Y014808D01*
X026503Y014808D01*
X026551Y014905D02*
X026551Y014954D01*
X026700Y014808D02*
X026796Y014808D01*
X026748Y014857D02*
X026748Y014663D01*
X026796Y014615D01*
X026896Y014615D02*
X026896Y014905D01*
X026944Y014808D02*
X027041Y014808D01*
X027089Y014760D01*
X027089Y014615D01*
X027191Y014663D02*
X027191Y014808D01*
X027191Y014663D02*
X027239Y014615D01*
X027384Y014615D01*
X027384Y014808D01*
X027485Y014808D02*
X027630Y014808D01*
X027679Y014760D01*
X027679Y014663D01*
X027630Y014615D01*
X027485Y014615D01*
X027485Y014905D01*
X027780Y014663D02*
X027828Y014663D01*
X027828Y014615D01*
X027780Y014615D01*
X027780Y014663D01*
X027927Y014663D02*
X027927Y014760D01*
X027976Y014808D01*
X028121Y014808D01*
X028222Y014760D02*
X028222Y014663D01*
X028270Y014615D01*
X028367Y014615D01*
X028415Y014663D01*
X028415Y014760D01*
X028367Y014808D01*
X028270Y014808D01*
X028222Y014760D01*
X028121Y014615D02*
X027976Y014615D01*
X027927Y014663D01*
X028517Y014615D02*
X028517Y014808D01*
X028565Y014808D01*
X028613Y014760D01*
X028662Y014808D01*
X028710Y014760D01*
X028710Y014615D01*
X028613Y014615D02*
X028613Y014760D01*
X028811Y014615D02*
X029005Y014905D01*
X029106Y014760D02*
X029154Y014712D01*
X029251Y014712D01*
X029299Y014663D01*
X029251Y014615D01*
X029106Y014615D01*
X029106Y014760D02*
X029154Y014808D01*
X029299Y014808D01*
X029401Y014760D02*
X029401Y014663D01*
X029449Y014615D01*
X029546Y014615D01*
X029594Y014663D01*
X029594Y014760D01*
X029546Y014808D01*
X029449Y014808D01*
X029401Y014760D01*
X029695Y014760D02*
X029744Y014712D01*
X029840Y014712D01*
X029889Y014663D01*
X029840Y014615D01*
X029695Y014615D01*
X029695Y014760D02*
X029744Y014808D01*
X029889Y014808D01*
X029990Y014760D02*
X029990Y014663D01*
X030038Y014615D01*
X030135Y014615D01*
X030183Y014663D01*
X030183Y014760D01*
X030135Y014808D01*
X030038Y014808D01*
X029990Y014760D01*
X030284Y014712D02*
X030381Y014808D01*
X030430Y014808D01*
X030530Y014808D02*
X030530Y014663D01*
X030578Y014615D01*
X030724Y014615D01*
X030724Y014808D01*
X030825Y014615D02*
X031018Y014905D01*
X031119Y014905D02*
X031313Y014905D01*
X031216Y014905D02*
X031216Y014615D01*
X031414Y014615D02*
X031414Y014808D01*
X031414Y014712D02*
X031511Y014808D01*
X031559Y014808D01*
X031708Y014808D02*
X031805Y014808D01*
X031853Y014760D01*
X031853Y014615D01*
X031708Y014615D01*
X031660Y014663D01*
X031708Y014712D01*
X031853Y014712D01*
X031954Y014808D02*
X032003Y014808D01*
X032003Y014615D01*
X032051Y014615D02*
X031954Y014615D01*
X032151Y014615D02*
X032151Y014808D01*
X032296Y014808D01*
X032344Y014760D01*
X032344Y014615D01*
X032445Y014663D02*
X032494Y014615D01*
X032590Y014615D01*
X032639Y014663D01*
X032639Y014905D01*
X032740Y014808D02*
X032837Y014808D01*
X032788Y014857D02*
X032788Y014663D01*
X032837Y014615D01*
X032936Y014615D02*
X033033Y014615D01*
X032985Y014615D02*
X032985Y014808D01*
X032936Y014808D01*
X032985Y014905D02*
X032985Y014954D01*
X033133Y014905D02*
X033181Y014905D01*
X033181Y014615D01*
X033133Y014615D02*
X033230Y014615D01*
X033329Y014615D02*
X033426Y014615D01*
X033378Y014615D02*
X033378Y014808D01*
X033329Y014808D01*
X033378Y014905D02*
X033378Y014954D01*
X033526Y014808D02*
X033719Y014808D01*
X033526Y014615D01*
X033719Y014615D01*
X033820Y014615D02*
X033917Y014615D01*
X033869Y014615D02*
X033869Y014808D01*
X033820Y014808D01*
X033869Y014905D02*
X033869Y014954D01*
X034017Y014808D02*
X034162Y014808D01*
X034210Y014760D01*
X034210Y014615D01*
X034311Y014663D02*
X034360Y014615D01*
X034505Y014615D01*
X034505Y014567D02*
X034505Y014808D01*
X034360Y014808D01*
X034311Y014760D01*
X034311Y014663D01*
X034408Y014518D02*
X034456Y014518D01*
X034505Y014567D01*
X034606Y014663D02*
X034654Y014615D01*
X034751Y014615D01*
X034800Y014663D01*
X034800Y014712D01*
X034751Y014760D01*
X034654Y014760D01*
X034606Y014808D01*
X034606Y014857D01*
X034654Y014905D01*
X034751Y014905D01*
X034800Y014857D01*
X034901Y014808D02*
X034901Y014663D01*
X034949Y014615D01*
X035094Y014615D01*
X035094Y014567D02*
X035046Y014518D01*
X034997Y014518D01*
X035094Y014567D02*
X035094Y014808D01*
X035195Y014760D02*
X035244Y014808D01*
X035389Y014808D01*
X035490Y014808D02*
X035587Y014808D01*
X035538Y014857D02*
X035538Y014663D01*
X035587Y014615D01*
X035686Y014663D02*
X035686Y014760D01*
X035735Y014808D01*
X035832Y014808D01*
X035880Y014760D01*
X035880Y014712D01*
X035686Y014712D01*
X035686Y014663D02*
X035735Y014615D01*
X035832Y014615D01*
X035981Y014615D02*
X035981Y014808D01*
X036029Y014808D01*
X036078Y014760D01*
X036126Y014808D01*
X036175Y014760D01*
X036175Y014615D01*
X036078Y014615D02*
X036078Y014760D01*
X035389Y014663D02*
X035340Y014712D01*
X035244Y014712D01*
X035195Y014760D01*
X035195Y014615D02*
X035340Y014615D01*
X035389Y014663D01*
X034017Y014615D02*
X034017Y014808D01*
X032445Y014905D02*
X032445Y014663D01*
X032003Y014905D02*
X032003Y014954D01*
X030284Y014808D02*
X030284Y014615D01*
X026944Y014808D02*
X026896Y014760D01*
X026257Y014615D02*
X026208Y014663D01*
X024586Y014615D02*
X024538Y014663D01*
D49*
X025470Y013630D02*
X025470Y010130D01*
X025480Y010130D02*
X026720Y010130D01*
X026743Y010132D01*
X026766Y010137D01*
X026788Y010146D01*
X026808Y010159D01*
X026826Y010174D01*
X026841Y010192D01*
X026854Y010212D01*
X026863Y010234D01*
X026868Y010257D01*
X026870Y010280D01*
X026870Y013480D01*
X026868Y013503D01*
X026863Y013526D01*
X026854Y013548D01*
X026841Y013568D01*
X026826Y013586D01*
X026808Y013601D01*
X026788Y013614D01*
X026766Y013623D01*
X026743Y013628D01*
X026720Y013630D01*
X026300Y013630D01*
X025900Y013630D01*
X025480Y013630D01*
X025457Y013628D01*
X025434Y013623D01*
X025412Y013614D01*
X025392Y013601D01*
X025374Y013586D01*
X025359Y013568D01*
X025346Y013548D01*
X025337Y013526D01*
X025332Y013503D01*
X025330Y013480D01*
X025330Y010280D01*
X025332Y010257D01*
X025337Y010234D01*
X025346Y010212D01*
X025359Y010192D01*
X025374Y010174D01*
X025392Y010159D01*
X025412Y010146D01*
X025434Y010137D01*
X025457Y010132D01*
X025480Y010130D01*
X028510Y007660D02*
X028810Y007660D01*
X028810Y006520D01*
X028510Y006520D01*
X028510Y007660D01*
X024960Y006580D02*
X024962Y006624D01*
X024968Y006668D01*
X024978Y006711D01*
X024991Y006753D01*
X025008Y006794D01*
X025029Y006833D01*
X025053Y006870D01*
X025080Y006905D01*
X025110Y006937D01*
X025143Y006967D01*
X025179Y006993D01*
X025216Y007017D01*
X025256Y007036D01*
X025297Y007053D01*
X025340Y007065D01*
X025383Y007074D01*
X025427Y007079D01*
X025471Y007080D01*
X025515Y007077D01*
X025559Y007070D01*
X025602Y007059D01*
X025644Y007045D01*
X025684Y007027D01*
X025723Y007005D01*
X025759Y006981D01*
X025793Y006953D01*
X025825Y006922D01*
X025854Y006888D01*
X025880Y006852D01*
X025902Y006814D01*
X025921Y006774D01*
X025936Y006732D01*
X025948Y006690D01*
X025956Y006646D01*
X025960Y006602D01*
X025960Y006558D01*
X025956Y006514D01*
X025948Y006470D01*
X025936Y006428D01*
X025921Y006386D01*
X025902Y006346D01*
X025880Y006308D01*
X025854Y006272D01*
X025825Y006238D01*
X025793Y006207D01*
X025759Y006179D01*
X025723Y006155D01*
X025684Y006133D01*
X025644Y006115D01*
X025602Y006101D01*
X025559Y006090D01*
X025515Y006083D01*
X025471Y006080D01*
X025427Y006081D01*
X025383Y006086D01*
X025340Y006095D01*
X025297Y006107D01*
X025256Y006124D01*
X025216Y006143D01*
X025179Y006167D01*
X025143Y006193D01*
X025110Y006223D01*
X025080Y006255D01*
X025053Y006290D01*
X025029Y006327D01*
X025008Y006366D01*
X024991Y006407D01*
X024978Y006449D01*
X024968Y006492D01*
X024962Y006536D01*
X024960Y006580D01*
X021610Y006520D02*
X021310Y006520D01*
X021310Y007660D01*
X021610Y007660D01*
X021610Y006520D01*
X017280Y006580D02*
X017282Y006624D01*
X017288Y006668D01*
X017298Y006711D01*
X017311Y006753D01*
X017328Y006794D01*
X017349Y006833D01*
X017373Y006870D01*
X017400Y006905D01*
X017430Y006937D01*
X017463Y006967D01*
X017499Y006993D01*
X017536Y007017D01*
X017576Y007036D01*
X017617Y007053D01*
X017660Y007065D01*
X017703Y007074D01*
X017747Y007079D01*
X017791Y007080D01*
X017835Y007077D01*
X017879Y007070D01*
X017922Y007059D01*
X017964Y007045D01*
X018004Y007027D01*
X018043Y007005D01*
X018079Y006981D01*
X018113Y006953D01*
X018145Y006922D01*
X018174Y006888D01*
X018200Y006852D01*
X018222Y006814D01*
X018241Y006774D01*
X018256Y006732D01*
X018268Y006690D01*
X018276Y006646D01*
X018280Y006602D01*
X018280Y006558D01*
X018276Y006514D01*
X018268Y006470D01*
X018256Y006428D01*
X018241Y006386D01*
X018222Y006346D01*
X018200Y006308D01*
X018174Y006272D01*
X018145Y006238D01*
X018113Y006207D01*
X018079Y006179D01*
X018043Y006155D01*
X018004Y006133D01*
X017964Y006115D01*
X017922Y006101D01*
X017879Y006090D01*
X017835Y006083D01*
X017791Y006080D01*
X017747Y006081D01*
X017703Y006086D01*
X017660Y006095D01*
X017617Y006107D01*
X017576Y006124D01*
X017536Y006143D01*
X017499Y006167D01*
X017463Y006193D01*
X017430Y006223D01*
X017400Y006255D01*
X017373Y006290D01*
X017349Y006327D01*
X017328Y006366D01*
X017311Y006407D01*
X017298Y006449D01*
X017288Y006492D01*
X017282Y006536D01*
X017280Y006580D01*
X014090Y006520D02*
X013790Y006520D01*
X013790Y007660D01*
X014090Y007660D01*
X014090Y006520D01*
X010240Y006580D02*
X010242Y006624D01*
X010248Y006668D01*
X010258Y006711D01*
X010271Y006753D01*
X010288Y006794D01*
X010309Y006833D01*
X010333Y006870D01*
X010360Y006905D01*
X010390Y006937D01*
X010423Y006967D01*
X010459Y006993D01*
X010496Y007017D01*
X010536Y007036D01*
X010577Y007053D01*
X010620Y007065D01*
X010663Y007074D01*
X010707Y007079D01*
X010751Y007080D01*
X010795Y007077D01*
X010839Y007070D01*
X010882Y007059D01*
X010924Y007045D01*
X010964Y007027D01*
X011003Y007005D01*
X011039Y006981D01*
X011073Y006953D01*
X011105Y006922D01*
X011134Y006888D01*
X011160Y006852D01*
X011182Y006814D01*
X011201Y006774D01*
X011216Y006732D01*
X011228Y006690D01*
X011236Y006646D01*
X011240Y006602D01*
X011240Y006558D01*
X011236Y006514D01*
X011228Y006470D01*
X011216Y006428D01*
X011201Y006386D01*
X011182Y006346D01*
X011160Y006308D01*
X011134Y006272D01*
X011105Y006238D01*
X011073Y006207D01*
X011039Y006179D01*
X011003Y006155D01*
X010964Y006133D01*
X010924Y006115D01*
X010882Y006101D01*
X010839Y006090D01*
X010795Y006083D01*
X010751Y006080D01*
X010707Y006081D01*
X010663Y006086D01*
X010620Y006095D01*
X010577Y006107D01*
X010536Y006124D01*
X010496Y006143D01*
X010459Y006167D01*
X010423Y006193D01*
X010390Y006223D01*
X010360Y006255D01*
X010333Y006290D01*
X010309Y006327D01*
X010288Y006366D01*
X010271Y006407D01*
X010258Y006449D01*
X010248Y006492D01*
X010242Y006536D01*
X010240Y006580D01*
X007050Y006520D02*
X006750Y006520D01*
X006750Y007660D01*
X007050Y007660D01*
X007050Y006520D01*
X010430Y009970D02*
X010430Y013470D01*
X010440Y013470D02*
X010860Y013470D01*
X011260Y013470D01*
X011680Y013470D01*
X011703Y013468D01*
X011726Y013463D01*
X011748Y013454D01*
X011768Y013441D01*
X011786Y013426D01*
X011801Y013408D01*
X011814Y013388D01*
X011823Y013366D01*
X011828Y013343D01*
X011830Y013320D01*
X011830Y010120D01*
X011828Y010097D01*
X011823Y010074D01*
X011814Y010052D01*
X011801Y010032D01*
X011786Y010014D01*
X011768Y009999D01*
X011748Y009986D01*
X011726Y009977D01*
X011703Y009972D01*
X011680Y009970D01*
X010440Y009970D01*
X010417Y009972D01*
X010394Y009977D01*
X010372Y009986D01*
X010352Y009999D01*
X010334Y010014D01*
X010319Y010032D01*
X010306Y010052D01*
X010297Y010074D01*
X010292Y010097D01*
X010290Y010120D01*
X010290Y013320D01*
X010292Y013343D01*
X010297Y013366D01*
X010306Y013388D01*
X010319Y013408D01*
X010334Y013426D01*
X010352Y013441D01*
X010372Y013454D01*
X010394Y013463D01*
X010417Y013468D01*
X010440Y013470D01*
X010860Y013470D02*
X010862Y013443D01*
X010867Y013416D01*
X010877Y013390D01*
X010889Y013366D01*
X010905Y013344D01*
X010923Y013324D01*
X010945Y013307D01*
X010968Y013292D01*
X010993Y013282D01*
X011019Y013274D01*
X011046Y013270D01*
X011074Y013270D01*
X011101Y013274D01*
X011127Y013282D01*
X011152Y013292D01*
X011175Y013307D01*
X011197Y013324D01*
X011215Y013344D01*
X011231Y013366D01*
X011243Y013390D01*
X011253Y013416D01*
X011258Y013443D01*
X011260Y013470D01*
X008100Y015970D02*
X008000Y015970D01*
X007900Y015970D01*
X008000Y015970D02*
X008000Y016070D01*
X008000Y015970D02*
X008000Y015870D01*
X007500Y016520D02*
X007502Y016583D01*
X007508Y016645D01*
X007518Y016707D01*
X007531Y016769D01*
X007549Y016829D01*
X007570Y016888D01*
X007595Y016946D01*
X007624Y017002D01*
X007656Y017056D01*
X007691Y017108D01*
X007729Y017157D01*
X007771Y017205D01*
X007815Y017249D01*
X007863Y017291D01*
X007912Y017329D01*
X007964Y017364D01*
X008018Y017396D01*
X008074Y017425D01*
X008132Y017450D01*
X008191Y017471D01*
X008251Y017489D01*
X008313Y017502D01*
X008375Y017512D01*
X008437Y017518D01*
X008500Y017520D01*
X008563Y017518D01*
X008625Y017512D01*
X008687Y017502D01*
X008749Y017489D01*
X008809Y017471D01*
X008868Y017450D01*
X008926Y017425D01*
X008982Y017396D01*
X009036Y017364D01*
X009088Y017329D01*
X009137Y017291D01*
X009185Y017249D01*
X009229Y017205D01*
X009271Y017157D01*
X009309Y017108D01*
X009344Y017056D01*
X009376Y017002D01*
X009405Y016946D01*
X009430Y016888D01*
X009451Y016829D01*
X009469Y016769D01*
X009482Y016707D01*
X009492Y016645D01*
X009498Y016583D01*
X009500Y016520D01*
X009498Y016457D01*
X009492Y016395D01*
X009482Y016333D01*
X009469Y016271D01*
X009451Y016211D01*
X009430Y016152D01*
X009405Y016094D01*
X009376Y016038D01*
X009344Y015984D01*
X009309Y015932D01*
X009271Y015883D01*
X009229Y015835D01*
X009185Y015791D01*
X009137Y015749D01*
X009088Y015711D01*
X009036Y015676D01*
X008982Y015644D01*
X008926Y015615D01*
X008868Y015590D01*
X008809Y015569D01*
X008749Y015551D01*
X008687Y015538D01*
X008625Y015528D01*
X008563Y015522D01*
X008500Y015520D01*
X008437Y015522D01*
X008375Y015528D01*
X008313Y015538D01*
X008251Y015551D01*
X008191Y015569D01*
X008132Y015590D01*
X008074Y015615D01*
X008018Y015644D01*
X007964Y015676D01*
X007912Y015711D01*
X007863Y015749D01*
X007815Y015791D01*
X007771Y015835D01*
X007729Y015883D01*
X007691Y015932D01*
X007656Y015984D01*
X007624Y016038D01*
X007595Y016094D01*
X007570Y016152D01*
X007549Y016211D01*
X007531Y016271D01*
X007518Y016333D01*
X007508Y016395D01*
X007502Y016457D01*
X007500Y016520D01*
X005440Y016860D02*
X005442Y016904D01*
X005448Y016948D01*
X005458Y016991D01*
X005471Y017033D01*
X005488Y017074D01*
X005509Y017113D01*
X005533Y017150D01*
X005560Y017185D01*
X005590Y017217D01*
X005623Y017247D01*
X005659Y017273D01*
X005696Y017297D01*
X005736Y017316D01*
X005777Y017333D01*
X005820Y017345D01*
X005863Y017354D01*
X005907Y017359D01*
X005951Y017360D01*
X005995Y017357D01*
X006039Y017350D01*
X006082Y017339D01*
X006124Y017325D01*
X006164Y017307D01*
X006203Y017285D01*
X006239Y017261D01*
X006273Y017233D01*
X006305Y017202D01*
X006334Y017168D01*
X006360Y017132D01*
X006382Y017094D01*
X006401Y017054D01*
X006416Y017012D01*
X006428Y016970D01*
X006436Y016926D01*
X006440Y016882D01*
X006440Y016838D01*
X006436Y016794D01*
X006428Y016750D01*
X006416Y016708D01*
X006401Y016666D01*
X006382Y016626D01*
X006360Y016588D01*
X006334Y016552D01*
X006305Y016518D01*
X006273Y016487D01*
X006239Y016459D01*
X006203Y016435D01*
X006164Y016413D01*
X006124Y016395D01*
X006082Y016381D01*
X006039Y016370D01*
X005995Y016363D01*
X005951Y016360D01*
X005907Y016361D01*
X005863Y016366D01*
X005820Y016375D01*
X005777Y016387D01*
X005736Y016404D01*
X005696Y016423D01*
X005659Y016447D01*
X005623Y016473D01*
X005590Y016503D01*
X005560Y016535D01*
X005533Y016570D01*
X005509Y016607D01*
X005488Y016646D01*
X005471Y016687D01*
X005458Y016729D01*
X005448Y016772D01*
X005442Y016816D01*
X005440Y016860D01*
X004109Y016638D02*
X003859Y016388D01*
X002359Y016388D01*
X002109Y016138D01*
X002109Y015638D01*
X002359Y015388D01*
X003859Y015388D01*
X004109Y015138D01*
X004109Y014638D01*
X003859Y014388D01*
X004109Y014138D01*
X004109Y013638D01*
X003859Y013388D01*
X002359Y013388D01*
X002109Y013638D01*
X002109Y014138D01*
X002359Y014388D01*
X003859Y014388D01*
X003859Y015388D02*
X004109Y015638D01*
X004109Y016138D01*
X003859Y016388D01*
X004109Y016638D02*
X004109Y017138D01*
X003859Y017388D01*
X002359Y017388D01*
X002109Y017138D01*
X002109Y016638D01*
X002359Y016388D01*
X002359Y015388D02*
X002109Y015138D01*
X002109Y014638D01*
X002359Y014388D01*
X002359Y017388D02*
X002109Y017638D01*
X002109Y018138D01*
X002359Y018388D01*
X003859Y018388D01*
X004109Y018138D01*
X004109Y017638D01*
X003859Y017388D01*
X003859Y018388D02*
X004109Y018638D01*
X004109Y019138D01*
X003859Y019388D01*
X002359Y019388D01*
X002109Y019138D01*
X002109Y018638D01*
X002359Y018388D01*
X002359Y019388D02*
X002109Y019638D01*
X002109Y020138D01*
X002359Y020388D01*
X003859Y020388D01*
X004109Y020138D01*
X004109Y019638D01*
X003859Y019388D01*
X003859Y020388D02*
X004109Y020638D01*
X004109Y021138D01*
X003859Y021388D01*
X002359Y021388D01*
X002109Y021138D01*
X002109Y020638D01*
X002359Y020388D01*
X010290Y021800D02*
X010290Y025000D01*
X010292Y025023D01*
X010297Y025046D01*
X010306Y025068D01*
X010319Y025088D01*
X010334Y025106D01*
X010352Y025121D01*
X010372Y025134D01*
X010394Y025143D01*
X010417Y025148D01*
X010440Y025150D01*
X010860Y025150D01*
X011260Y025150D01*
X011680Y025150D01*
X011703Y025148D01*
X011726Y025143D01*
X011748Y025134D01*
X011768Y025121D01*
X011786Y025106D01*
X011801Y025088D01*
X011814Y025068D01*
X011823Y025046D01*
X011828Y025023D01*
X011830Y025000D01*
X011830Y021800D01*
X011828Y021777D01*
X011823Y021754D01*
X011814Y021732D01*
X011801Y021712D01*
X011786Y021694D01*
X011768Y021679D01*
X011748Y021666D01*
X011726Y021657D01*
X011703Y021652D01*
X011680Y021650D01*
X010440Y021650D01*
X010430Y021650D02*
X010430Y025150D01*
X010860Y025150D02*
X010862Y025123D01*
X010867Y025096D01*
X010877Y025070D01*
X010889Y025046D01*
X010905Y025024D01*
X010923Y025004D01*
X010945Y024987D01*
X010968Y024972D01*
X010993Y024962D01*
X011019Y024954D01*
X011046Y024950D01*
X011074Y024950D01*
X011101Y024954D01*
X011127Y024962D01*
X011152Y024972D01*
X011175Y024987D01*
X011197Y025004D01*
X011215Y025024D01*
X011231Y025046D01*
X011243Y025070D01*
X011253Y025096D01*
X011258Y025123D01*
X011260Y025150D01*
X009130Y027460D02*
X008830Y027460D01*
X008830Y028600D01*
X009130Y028600D01*
X009130Y027460D01*
X012000Y028540D02*
X012002Y028584D01*
X012008Y028628D01*
X012018Y028671D01*
X012031Y028713D01*
X012048Y028754D01*
X012069Y028793D01*
X012093Y028830D01*
X012120Y028865D01*
X012150Y028897D01*
X012183Y028927D01*
X012219Y028953D01*
X012256Y028977D01*
X012296Y028996D01*
X012337Y029013D01*
X012380Y029025D01*
X012423Y029034D01*
X012467Y029039D01*
X012511Y029040D01*
X012555Y029037D01*
X012599Y029030D01*
X012642Y029019D01*
X012684Y029005D01*
X012724Y028987D01*
X012763Y028965D01*
X012799Y028941D01*
X012833Y028913D01*
X012865Y028882D01*
X012894Y028848D01*
X012920Y028812D01*
X012942Y028774D01*
X012961Y028734D01*
X012976Y028692D01*
X012988Y028650D01*
X012996Y028606D01*
X013000Y028562D01*
X013000Y028518D01*
X012996Y028474D01*
X012988Y028430D01*
X012976Y028388D01*
X012961Y028346D01*
X012942Y028306D01*
X012920Y028268D01*
X012894Y028232D01*
X012865Y028198D01*
X012833Y028167D01*
X012799Y028139D01*
X012763Y028115D01*
X012724Y028093D01*
X012684Y028075D01*
X012642Y028061D01*
X012599Y028050D01*
X012555Y028043D01*
X012511Y028040D01*
X012467Y028041D01*
X012423Y028046D01*
X012380Y028055D01*
X012337Y028067D01*
X012296Y028084D01*
X012256Y028103D01*
X012219Y028127D01*
X012183Y028153D01*
X012150Y028183D01*
X012120Y028215D01*
X012093Y028250D01*
X012069Y028287D01*
X012048Y028326D01*
X012031Y028367D01*
X012018Y028409D01*
X012008Y028452D01*
X012002Y028496D01*
X012000Y028540D01*
X016190Y028600D02*
X016190Y027460D01*
X016490Y027460D01*
X016490Y028600D01*
X016190Y028600D01*
X020000Y028540D02*
X020002Y028584D01*
X020008Y028628D01*
X020018Y028671D01*
X020031Y028713D01*
X020048Y028754D01*
X020069Y028793D01*
X020093Y028830D01*
X020120Y028865D01*
X020150Y028897D01*
X020183Y028927D01*
X020219Y028953D01*
X020256Y028977D01*
X020296Y028996D01*
X020337Y029013D01*
X020380Y029025D01*
X020423Y029034D01*
X020467Y029039D01*
X020511Y029040D01*
X020555Y029037D01*
X020599Y029030D01*
X020642Y029019D01*
X020684Y029005D01*
X020724Y028987D01*
X020763Y028965D01*
X020799Y028941D01*
X020833Y028913D01*
X020865Y028882D01*
X020894Y028848D01*
X020920Y028812D01*
X020942Y028774D01*
X020961Y028734D01*
X020976Y028692D01*
X020988Y028650D01*
X020996Y028606D01*
X021000Y028562D01*
X021000Y028518D01*
X020996Y028474D01*
X020988Y028430D01*
X020976Y028388D01*
X020961Y028346D01*
X020942Y028306D01*
X020920Y028268D01*
X020894Y028232D01*
X020865Y028198D01*
X020833Y028167D01*
X020799Y028139D01*
X020763Y028115D01*
X020724Y028093D01*
X020684Y028075D01*
X020642Y028061D01*
X020599Y028050D01*
X020555Y028043D01*
X020511Y028040D01*
X020467Y028041D01*
X020423Y028046D01*
X020380Y028055D01*
X020337Y028067D01*
X020296Y028084D01*
X020256Y028103D01*
X020219Y028127D01*
X020183Y028153D01*
X020150Y028183D01*
X020120Y028215D01*
X020093Y028250D01*
X020069Y028287D01*
X020048Y028326D01*
X020031Y028367D01*
X020018Y028409D01*
X020008Y028452D01*
X020002Y028496D01*
X020000Y028540D01*
X024030Y028600D02*
X024030Y027460D01*
X024330Y027460D01*
X024330Y028600D01*
X024030Y028600D01*
X027040Y028540D02*
X027042Y028584D01*
X027048Y028628D01*
X027058Y028671D01*
X027071Y028713D01*
X027088Y028754D01*
X027109Y028793D01*
X027133Y028830D01*
X027160Y028865D01*
X027190Y028897D01*
X027223Y028927D01*
X027259Y028953D01*
X027296Y028977D01*
X027336Y028996D01*
X027377Y029013D01*
X027420Y029025D01*
X027463Y029034D01*
X027507Y029039D01*
X027551Y029040D01*
X027595Y029037D01*
X027639Y029030D01*
X027682Y029019D01*
X027724Y029005D01*
X027764Y028987D01*
X027803Y028965D01*
X027839Y028941D01*
X027873Y028913D01*
X027905Y028882D01*
X027934Y028848D01*
X027960Y028812D01*
X027982Y028774D01*
X028001Y028734D01*
X028016Y028692D01*
X028028Y028650D01*
X028036Y028606D01*
X028040Y028562D01*
X028040Y028518D01*
X028036Y028474D01*
X028028Y028430D01*
X028016Y028388D01*
X028001Y028346D01*
X027982Y028306D01*
X027960Y028268D01*
X027934Y028232D01*
X027905Y028198D01*
X027873Y028167D01*
X027839Y028139D01*
X027803Y028115D01*
X027764Y028093D01*
X027724Y028075D01*
X027682Y028061D01*
X027639Y028050D01*
X027595Y028043D01*
X027551Y028040D01*
X027507Y028041D01*
X027463Y028046D01*
X027420Y028055D01*
X027377Y028067D01*
X027336Y028084D01*
X027296Y028103D01*
X027259Y028127D01*
X027223Y028153D01*
X027190Y028183D01*
X027160Y028215D01*
X027133Y028250D01*
X027109Y028287D01*
X027088Y028326D01*
X027071Y028367D01*
X027058Y028409D01*
X027048Y028452D01*
X027042Y028496D01*
X027040Y028540D01*
X026720Y025310D02*
X026300Y025310D01*
X025900Y025310D01*
X025480Y025310D01*
X025470Y025310D02*
X025470Y021810D01*
X025480Y021810D02*
X026720Y021810D01*
X026743Y021812D01*
X026766Y021817D01*
X026788Y021826D01*
X026808Y021839D01*
X026826Y021854D01*
X026841Y021872D01*
X026854Y021892D01*
X026863Y021914D01*
X026868Y021937D01*
X026870Y021960D01*
X026870Y025160D01*
X026868Y025183D01*
X026863Y025206D01*
X026854Y025228D01*
X026841Y025248D01*
X026826Y025266D01*
X026808Y025281D01*
X026788Y025294D01*
X026766Y025303D01*
X026743Y025308D01*
X026720Y025310D01*
X026300Y025310D02*
X026298Y025283D01*
X026293Y025256D01*
X026283Y025230D01*
X026271Y025206D01*
X026255Y025184D01*
X026237Y025164D01*
X026215Y025147D01*
X026192Y025132D01*
X026167Y025122D01*
X026141Y025114D01*
X026114Y025110D01*
X026086Y025110D01*
X026059Y025114D01*
X026033Y025122D01*
X026008Y025132D01*
X025985Y025147D01*
X025963Y025164D01*
X025945Y025184D01*
X025929Y025206D01*
X025917Y025230D01*
X025907Y025256D01*
X025902Y025283D01*
X025900Y025310D01*
X025480Y025310D02*
X025457Y025308D01*
X025434Y025303D01*
X025412Y025294D01*
X025392Y025281D01*
X025374Y025266D01*
X025359Y025248D01*
X025346Y025228D01*
X025337Y025206D01*
X025332Y025183D01*
X025330Y025160D01*
X025330Y021960D01*
X025332Y021937D01*
X025337Y021914D01*
X025346Y021892D01*
X025359Y021872D01*
X025374Y021854D01*
X025392Y021839D01*
X025412Y021826D01*
X025434Y021817D01*
X025457Y021812D01*
X025480Y021810D01*
X031230Y027460D02*
X031230Y028600D01*
X031530Y028600D01*
X031530Y027460D01*
X031230Y027460D01*
X017596Y019788D02*
X017294Y019486D01*
X017294Y020090D01*
X017219Y020165D01*
X017068Y020165D01*
X016917Y020014D01*
X016917Y019863D01*
X016763Y019710D02*
X016612Y019710D01*
X016461Y019559D01*
X016461Y019408D01*
X016763Y019106D01*
X016914Y019106D01*
X017065Y019257D01*
X017065Y019408D01*
X016686Y018877D02*
X016535Y018726D01*
X016610Y018802D02*
X016157Y019255D01*
X016082Y019179D02*
X016233Y019330D01*
X015750Y014580D02*
X018450Y014580D01*
X018509Y014578D01*
X018567Y014572D01*
X018626Y014563D01*
X018683Y014549D01*
X018739Y014532D01*
X018794Y014511D01*
X018848Y014487D01*
X018900Y014459D01*
X018950Y014428D01*
X018998Y014394D01*
X019043Y014357D01*
X019086Y014316D01*
X019127Y014273D01*
X019164Y014228D01*
X019198Y014180D01*
X019229Y014130D01*
X019257Y014078D01*
X019281Y014024D01*
X019302Y013969D01*
X019319Y013913D01*
X019333Y013856D01*
X019342Y013797D01*
X019348Y013739D01*
X019350Y013680D01*
X019348Y013621D01*
X019342Y013563D01*
X019333Y013504D01*
X019319Y013447D01*
X019302Y013391D01*
X019281Y013336D01*
X019257Y013282D01*
X019229Y013230D01*
X019198Y013180D01*
X019164Y013132D01*
X019127Y013087D01*
X019086Y013044D01*
X019043Y013003D01*
X018998Y012966D01*
X018950Y012932D01*
X018900Y012901D01*
X018848Y012873D01*
X018794Y012849D01*
X018739Y012828D01*
X018683Y012811D01*
X018626Y012797D01*
X018567Y012788D01*
X018509Y012782D01*
X018450Y012780D01*
X015750Y012780D01*
X015691Y012782D01*
X015633Y012788D01*
X015574Y012797D01*
X015517Y012811D01*
X015461Y012828D01*
X015406Y012849D01*
X015352Y012873D01*
X015300Y012901D01*
X015250Y012932D01*
X015202Y012966D01*
X015157Y013003D01*
X015114Y013044D01*
X015073Y013087D01*
X015036Y013132D01*
X015002Y013180D01*
X014971Y013230D01*
X014943Y013282D01*
X014919Y013336D01*
X014898Y013391D01*
X014881Y013447D01*
X014867Y013504D01*
X014858Y013563D01*
X014852Y013621D01*
X014850Y013680D01*
X014852Y013739D01*
X014858Y013797D01*
X014867Y013856D01*
X014881Y013913D01*
X014898Y013969D01*
X014919Y014024D01*
X014943Y014078D01*
X014971Y014130D01*
X015002Y014180D01*
X015036Y014228D01*
X015073Y014273D01*
X015114Y014316D01*
X015157Y014357D01*
X015202Y014394D01*
X015250Y014428D01*
X015300Y014459D01*
X015352Y014487D01*
X015406Y014511D01*
X015461Y014532D01*
X015517Y014549D01*
X015574Y014563D01*
X015633Y014572D01*
X015691Y014578D01*
X015750Y014580D01*
X010440Y021650D02*
X010417Y021652D01*
X010394Y021657D01*
X010372Y021666D01*
X010352Y021679D01*
X010334Y021694D01*
X010319Y021712D01*
X010306Y021732D01*
X010297Y021754D01*
X010292Y021777D01*
X010290Y021800D01*
X004640Y028540D02*
X004642Y028584D01*
X004648Y028628D01*
X004658Y028671D01*
X004671Y028713D01*
X004688Y028754D01*
X004709Y028793D01*
X004733Y028830D01*
X004760Y028865D01*
X004790Y028897D01*
X004823Y028927D01*
X004859Y028953D01*
X004896Y028977D01*
X004936Y028996D01*
X004977Y029013D01*
X005020Y029025D01*
X005063Y029034D01*
X005107Y029039D01*
X005151Y029040D01*
X005195Y029037D01*
X005239Y029030D01*
X005282Y029019D01*
X005324Y029005D01*
X005364Y028987D01*
X005403Y028965D01*
X005439Y028941D01*
X005473Y028913D01*
X005505Y028882D01*
X005534Y028848D01*
X005560Y028812D01*
X005582Y028774D01*
X005601Y028734D01*
X005616Y028692D01*
X005628Y028650D01*
X005636Y028606D01*
X005640Y028562D01*
X005640Y028518D01*
X005636Y028474D01*
X005628Y028430D01*
X005616Y028388D01*
X005601Y028346D01*
X005582Y028306D01*
X005560Y028268D01*
X005534Y028232D01*
X005505Y028198D01*
X005473Y028167D01*
X005439Y028139D01*
X005403Y028115D01*
X005364Y028093D01*
X005324Y028075D01*
X005282Y028061D01*
X005239Y028050D01*
X005195Y028043D01*
X005151Y028040D01*
X005107Y028041D01*
X005063Y028046D01*
X005020Y028055D01*
X004977Y028067D01*
X004936Y028084D01*
X004896Y028103D01*
X004859Y028127D01*
X004823Y028153D01*
X004790Y028183D01*
X004760Y028215D01*
X004733Y028250D01*
X004709Y028287D01*
X004688Y028326D01*
X004671Y028367D01*
X004658Y028409D01*
X004648Y028452D01*
X004642Y028496D01*
X004640Y028540D01*
X025900Y013630D02*
X025902Y013603D01*
X025907Y013576D01*
X025917Y013550D01*
X025929Y013526D01*
X025945Y013504D01*
X025963Y013484D01*
X025985Y013467D01*
X026008Y013452D01*
X026033Y013442D01*
X026059Y013434D01*
X026086Y013430D01*
X026114Y013430D01*
X026141Y013434D01*
X026167Y013442D01*
X026192Y013452D01*
X026215Y013467D01*
X026237Y013484D01*
X026255Y013504D01*
X026271Y013526D01*
X026283Y013550D01*
X026293Y013576D01*
X026298Y013603D01*
X026300Y013630D01*
X031840Y006580D02*
X031842Y006624D01*
X031848Y006668D01*
X031858Y006711D01*
X031871Y006753D01*
X031888Y006794D01*
X031909Y006833D01*
X031933Y006870D01*
X031960Y006905D01*
X031990Y006937D01*
X032023Y006967D01*
X032059Y006993D01*
X032096Y007017D01*
X032136Y007036D01*
X032177Y007053D01*
X032220Y007065D01*
X032263Y007074D01*
X032307Y007079D01*
X032351Y007080D01*
X032395Y007077D01*
X032439Y007070D01*
X032482Y007059D01*
X032524Y007045D01*
X032564Y007027D01*
X032603Y007005D01*
X032639Y006981D01*
X032673Y006953D01*
X032705Y006922D01*
X032734Y006888D01*
X032760Y006852D01*
X032782Y006814D01*
X032801Y006774D01*
X032816Y006732D01*
X032828Y006690D01*
X032836Y006646D01*
X032840Y006602D01*
X032840Y006558D01*
X032836Y006514D01*
X032828Y006470D01*
X032816Y006428D01*
X032801Y006386D01*
X032782Y006346D01*
X032760Y006308D01*
X032734Y006272D01*
X032705Y006238D01*
X032673Y006207D01*
X032639Y006179D01*
X032603Y006155D01*
X032564Y006133D01*
X032524Y006115D01*
X032482Y006101D01*
X032439Y006090D01*
X032395Y006083D01*
X032351Y006080D01*
X032307Y006081D01*
X032263Y006086D01*
X032220Y006095D01*
X032177Y006107D01*
X032136Y006124D01*
X032096Y006143D01*
X032059Y006167D01*
X032023Y006193D01*
X031990Y006223D01*
X031960Y006255D01*
X031933Y006290D01*
X031909Y006327D01*
X031888Y006366D01*
X031871Y006407D01*
X031858Y006449D01*
X031848Y006492D01*
X031842Y006536D01*
X031840Y006580D01*
D50*
X031945Y008205D02*
X031945Y008505D01*
X032020Y008665D02*
X032095Y008665D01*
X032170Y008740D01*
X032170Y008966D01*
X032320Y008966D02*
X032020Y008966D01*
X031945Y008891D01*
X031945Y008740D01*
X032020Y008665D01*
X032320Y008665D02*
X032395Y008740D01*
X032395Y008891D01*
X032320Y008966D01*
X032170Y008355D02*
X032170Y008205D01*
X032395Y008205D02*
X031945Y008205D01*
X032909Y005344D02*
X026956Y005344D01*
X026956Y003376D01*
X032909Y003376D01*
X032909Y005344D01*
X032515Y003966D02*
X032515Y003573D01*
X032712Y003769D02*
X032318Y003769D01*
X028455Y008145D02*
X028005Y008145D01*
X028005Y007995D02*
X028005Y008295D01*
X028080Y008455D02*
X028155Y008455D01*
X028230Y008530D01*
X028230Y008681D01*
X028305Y008756D01*
X028380Y008756D01*
X028455Y008681D01*
X028455Y008530D01*
X028380Y008455D01*
X028305Y008455D01*
X028230Y008530D01*
X028230Y008681D02*
X028155Y008756D01*
X028080Y008756D01*
X028005Y008681D01*
X028005Y008530D01*
X028080Y008455D01*
X025355Y008580D02*
X025280Y008505D01*
X025205Y008505D01*
X025130Y008580D01*
X025130Y008731D01*
X025205Y008806D01*
X025280Y008806D01*
X025355Y008731D01*
X025355Y008580D01*
X025130Y008580D02*
X025055Y008505D01*
X024980Y008505D01*
X024905Y008580D01*
X024905Y008731D01*
X024980Y008806D01*
X025055Y008806D01*
X025130Y008731D01*
X024905Y008345D02*
X024905Y008045D01*
X025355Y008045D01*
X025130Y008045D02*
X025130Y008195D01*
X025869Y005344D02*
X019916Y005344D01*
X019916Y003376D01*
X025869Y003376D01*
X025869Y005344D01*
X025475Y003966D02*
X025475Y003573D01*
X025672Y003769D02*
X025278Y003769D01*
X021575Y008145D02*
X021125Y008145D01*
X021125Y007995D02*
X021125Y008295D01*
X021125Y008455D02*
X021125Y008756D01*
X021200Y008756D01*
X021500Y008455D01*
X021575Y008455D01*
X018509Y005344D02*
X012556Y005344D01*
X012556Y003376D01*
X018509Y003376D01*
X018509Y005344D01*
X018115Y003966D02*
X018115Y003573D01*
X018312Y003769D02*
X017918Y003769D01*
X017835Y008045D02*
X017385Y008045D01*
X017385Y008345D01*
X017385Y008505D02*
X017385Y008806D01*
X017460Y008806D01*
X017760Y008505D01*
X017835Y008505D01*
X017610Y008195D02*
X017610Y008045D01*
X014055Y008145D02*
X013605Y008145D01*
X013605Y007995D02*
X013605Y008295D01*
X013830Y008455D02*
X013830Y008681D01*
X013905Y008756D01*
X013980Y008756D01*
X014055Y008681D01*
X014055Y008530D01*
X013980Y008455D01*
X013830Y008455D01*
X013680Y008606D01*
X013605Y008756D01*
X010795Y008731D02*
X010720Y008806D01*
X010645Y008806D01*
X010570Y008731D01*
X010570Y008505D01*
X010720Y008505D01*
X010795Y008580D01*
X010795Y008731D01*
X010570Y008505D02*
X010420Y008656D01*
X010345Y008806D01*
X010345Y008345D02*
X010345Y008045D01*
X010795Y008045D01*
X010570Y008045D02*
X010570Y008195D01*
X011309Y005344D02*
X005356Y005344D01*
X005356Y003376D01*
X011309Y003376D01*
X011309Y005344D01*
X010915Y003966D02*
X010915Y003573D01*
X011112Y003769D02*
X010718Y003769D01*
X007015Y008145D02*
X006565Y008145D01*
X006565Y007995D02*
X006565Y008295D01*
X006565Y008455D02*
X006790Y008455D01*
X006715Y008606D01*
X006715Y008681D01*
X006790Y008756D01*
X006940Y008756D01*
X007015Y008681D01*
X007015Y008530D01*
X006940Y008455D01*
X006565Y008455D02*
X006565Y008756D01*
X010385Y013595D02*
X010535Y013595D01*
X010460Y013595D02*
X010460Y014045D01*
X010385Y014045D02*
X010535Y014045D01*
X010692Y013970D02*
X010692Y013670D01*
X010767Y013595D01*
X010917Y013595D01*
X010992Y013670D01*
X011152Y013670D02*
X011227Y013595D01*
X011378Y013595D01*
X011453Y013670D01*
X011453Y013745D01*
X011378Y013820D01*
X011302Y013820D01*
X011378Y013820D02*
X011453Y013895D01*
X011453Y013970D01*
X011378Y014045D01*
X011227Y014045D01*
X011152Y013970D01*
X010992Y013970D02*
X010917Y014045D01*
X010767Y014045D01*
X010692Y013970D01*
X006815Y015484D02*
X006365Y015484D01*
X006365Y015784D01*
X006440Y015945D02*
X006365Y016020D01*
X006365Y016170D01*
X006440Y016245D01*
X006515Y016245D01*
X006590Y016170D01*
X006665Y016245D01*
X006740Y016245D01*
X006815Y016170D01*
X006815Y016020D01*
X006740Y015945D01*
X006590Y016095D02*
X006590Y016170D01*
X006590Y015634D02*
X006590Y015484D01*
X007600Y017495D02*
X007900Y017495D01*
X007975Y017570D01*
X007975Y017720D01*
X007900Y017795D01*
X007900Y017955D02*
X007975Y018030D01*
X007975Y018181D01*
X007900Y018256D01*
X007825Y018256D01*
X007750Y018181D01*
X007750Y018106D01*
X007750Y018181D02*
X007675Y018256D01*
X007600Y018256D01*
X007525Y018181D01*
X007525Y018030D01*
X007600Y017955D01*
X007600Y017795D02*
X007525Y017720D01*
X007525Y017570D01*
X007600Y017495D01*
X004834Y019186D02*
X004834Y019336D01*
X004758Y019411D01*
X004758Y019571D02*
X004458Y019571D01*
X004383Y019647D01*
X004383Y019797D01*
X004458Y019872D01*
X004758Y019872D01*
X004834Y019797D01*
X004834Y019647D01*
X004758Y019571D01*
X004458Y019411D02*
X004383Y019336D01*
X004383Y019186D01*
X004458Y019111D01*
X004758Y019111D01*
X004834Y019186D01*
X004834Y020032D02*
X004383Y020032D01*
X004834Y020332D01*
X004383Y020332D01*
X004383Y020492D02*
X004834Y020792D01*
X004383Y020792D01*
X004533Y020953D02*
X004383Y021103D01*
X004834Y021103D01*
X004834Y020953D02*
X004834Y021253D01*
X004834Y020492D02*
X004383Y020492D01*
X010385Y025275D02*
X010535Y025275D01*
X010460Y025275D02*
X010460Y025725D01*
X010385Y025725D02*
X010535Y025725D01*
X010692Y025650D02*
X010767Y025725D01*
X010917Y025725D01*
X010992Y025650D01*
X011152Y025500D02*
X011453Y025500D01*
X011378Y025275D02*
X011378Y025725D01*
X011152Y025500D01*
X010992Y025350D02*
X010917Y025275D01*
X010767Y025275D01*
X010692Y025350D01*
X010692Y025650D01*
X009315Y026244D02*
X008865Y026244D01*
X008865Y026094D02*
X008865Y026394D01*
X009090Y026555D02*
X009090Y026855D01*
X009315Y026780D02*
X008865Y026780D01*
X009090Y026555D01*
X012445Y026504D02*
X012445Y026204D01*
X012895Y026204D01*
X012670Y026204D02*
X012670Y026354D01*
X012595Y026665D02*
X012445Y026815D01*
X012895Y026815D01*
X012895Y026665D02*
X012895Y026965D01*
X016225Y026705D02*
X016675Y026705D01*
X016675Y026555D02*
X016675Y026855D01*
X016375Y026555D02*
X016225Y026705D01*
X016225Y026394D02*
X016225Y026094D01*
X016225Y026244D02*
X016675Y026244D01*
X020204Y025390D02*
X020279Y025315D01*
X020354Y025315D01*
X020429Y025390D01*
X020429Y025765D01*
X020354Y025765D02*
X020504Y025765D01*
X020664Y025765D02*
X020889Y025765D01*
X020964Y025690D01*
X020964Y025540D01*
X020889Y025465D01*
X020664Y025465D01*
X020664Y025315D02*
X020664Y025765D01*
X020670Y026204D02*
X020670Y026354D01*
X020895Y026204D02*
X020445Y026204D01*
X020445Y026504D01*
X020670Y026665D02*
X020445Y026890D01*
X020895Y026890D01*
X020670Y026965D02*
X020670Y026665D01*
X021275Y025765D02*
X021275Y025315D01*
X021125Y025315D02*
X021425Y025315D01*
X021125Y025615D02*
X021275Y025765D01*
X024225Y026254D02*
X024225Y026554D01*
X024225Y026404D02*
X024675Y026404D01*
X024675Y026715D02*
X024375Y027015D01*
X024300Y027015D01*
X024225Y026940D01*
X024225Y026790D01*
X024300Y026715D01*
X024675Y026715D02*
X024675Y027015D01*
X025425Y025885D02*
X025575Y025885D01*
X025500Y025885D02*
X025500Y025435D01*
X025425Y025435D02*
X025575Y025435D01*
X025732Y025510D02*
X025732Y025810D01*
X025807Y025885D01*
X025957Y025885D01*
X026032Y025810D01*
X026192Y025735D02*
X026342Y025885D01*
X026342Y025435D01*
X026192Y025435D02*
X026493Y025435D01*
X026032Y025510D02*
X025957Y025435D01*
X025807Y025435D01*
X025732Y025510D01*
X027325Y026204D02*
X027325Y026504D01*
X027325Y026665D02*
X027550Y026665D01*
X027475Y026815D01*
X027475Y026890D01*
X027550Y026965D01*
X027700Y026965D01*
X027775Y026890D01*
X027775Y026740D01*
X027700Y026665D01*
X027550Y026354D02*
X027550Y026204D01*
X027775Y026204D02*
X027325Y026204D01*
X027325Y026665D02*
X027325Y026965D01*
X026651Y029936D02*
X032604Y029936D01*
X032604Y031904D01*
X026651Y031904D01*
X026651Y029936D01*
X025884Y029936D02*
X025884Y031904D01*
X019931Y031904D01*
X019931Y029936D01*
X025884Y029936D01*
X027045Y031314D02*
X027045Y031707D01*
X026848Y031511D02*
X027242Y031511D01*
X031340Y026855D02*
X031415Y026855D01*
X031490Y026780D01*
X031565Y026855D01*
X031640Y026855D01*
X031715Y026780D01*
X031715Y026630D01*
X031640Y026555D01*
X031490Y026705D02*
X031490Y026780D01*
X031340Y026855D02*
X031265Y026780D01*
X031265Y026630D01*
X031340Y026555D01*
X031265Y026394D02*
X031265Y026094D01*
X031265Y026244D02*
X031715Y026244D01*
X020522Y031511D02*
X020128Y031511D01*
X020325Y031707D02*
X020325Y031314D01*
X018204Y031904D02*
X018204Y029936D01*
X012251Y029936D01*
X012251Y031904D01*
X018204Y031904D01*
X012842Y031511D02*
X012448Y031511D01*
X012645Y031707D02*
X012645Y031314D01*
X010784Y031864D02*
X010784Y029896D01*
X004831Y029896D01*
X004831Y031864D01*
X010784Y031864D01*
X005422Y031471D02*
X005028Y031471D01*
X005225Y031667D02*
X005225Y031274D01*
X005235Y026805D02*
X005160Y026805D01*
X005085Y026730D01*
X005085Y026580D01*
X005160Y026505D01*
X005085Y026344D02*
X005085Y026044D01*
X005535Y026044D01*
X005310Y026044D02*
X005310Y026194D01*
X005535Y026505D02*
X005235Y026805D01*
X005535Y026805D02*
X005535Y026505D01*
X018279Y012925D02*
X018204Y012850D01*
X018204Y012550D01*
X018279Y012475D01*
X018429Y012475D01*
X018504Y012550D01*
X018504Y012850D01*
X018429Y012925D01*
X018279Y012925D01*
X018354Y012625D02*
X018504Y012475D01*
X018665Y012475D02*
X018965Y012475D01*
X018815Y012475D02*
X018815Y012925D01*
X018665Y012775D01*
X025425Y013755D02*
X025575Y013755D01*
X025500Y013755D02*
X025500Y014205D01*
X025425Y014205D02*
X025575Y014205D01*
X025732Y014130D02*
X025732Y013830D01*
X025807Y013755D01*
X025957Y013755D01*
X026032Y013830D01*
X026192Y013830D02*
X026267Y013755D01*
X026418Y013755D01*
X026493Y013830D01*
X026493Y013980D01*
X026418Y014055D01*
X026342Y014055D01*
X026192Y013980D01*
X026192Y014205D01*
X026493Y014205D01*
X026032Y014130D02*
X025957Y014205D01*
X025807Y014205D01*
X025732Y014130D01*
D51*
X024037Y015507D02*
X024037Y015583D01*
X023961Y015660D01*
X023730Y015660D01*
X023730Y015507D01*
X023807Y015430D01*
X023961Y015430D01*
X024037Y015507D01*
X023884Y015814D02*
X023730Y015660D01*
X023577Y015507D02*
X023500Y015430D01*
X023347Y015430D01*
X023270Y015507D01*
X023270Y015814D01*
X023347Y015890D01*
X023500Y015890D01*
X023577Y015814D01*
X023884Y015814D02*
X024037Y015890D01*
X020777Y013294D02*
X020700Y013370D01*
X020546Y013370D01*
X020470Y013294D01*
X020777Y013294D02*
X020777Y013217D01*
X020470Y012910D01*
X020777Y012910D01*
X020316Y012910D02*
X020009Y012910D01*
X019856Y012910D02*
X019702Y013063D01*
X019779Y013063D02*
X019549Y013063D01*
X019549Y012910D02*
X019549Y013370D01*
X019779Y013370D01*
X019856Y013294D01*
X019856Y013140D01*
X019779Y013063D01*
X020009Y013217D02*
X020163Y013370D01*
X020163Y012910D01*
X020163Y012410D02*
X020163Y011950D01*
X020316Y011950D02*
X020009Y011950D01*
X019856Y011950D02*
X019702Y012103D01*
X019779Y012103D02*
X019549Y012103D01*
X019549Y011950D02*
X019549Y012410D01*
X019779Y012410D01*
X019856Y012334D01*
X019856Y012180D01*
X019779Y012103D01*
X020009Y012257D02*
X020163Y012410D01*
X020470Y012257D02*
X020623Y012410D01*
X020623Y011950D01*
X020470Y011950D02*
X020777Y011950D01*
X020313Y009038D02*
X020160Y009038D01*
X020083Y008961D01*
X020083Y008884D01*
X020160Y008731D01*
X019930Y008731D01*
X019930Y009038D01*
X020313Y009038D02*
X020390Y008961D01*
X020390Y008808D01*
X020313Y008731D01*
X020390Y008577D02*
X020390Y008270D01*
X020083Y008577D01*
X020006Y008577D01*
X019930Y008501D01*
X019930Y008347D01*
X020006Y008270D01*
X020006Y008117D02*
X020160Y008117D01*
X020237Y008040D01*
X020237Y007810D01*
X020390Y007810D02*
X019930Y007810D01*
X019930Y008040D01*
X020006Y008117D01*
X020237Y007963D02*
X020390Y008117D01*
X022530Y008266D02*
X022606Y008189D01*
X022530Y008266D02*
X022530Y008419D01*
X022606Y008496D01*
X022683Y008496D01*
X022990Y008189D01*
X022990Y008496D01*
X022913Y008650D02*
X022990Y008726D01*
X022990Y008880D01*
X022913Y008957D01*
X022837Y008957D01*
X022760Y008880D01*
X022760Y008803D01*
X022760Y008880D02*
X022683Y008957D01*
X022606Y008957D01*
X022530Y008880D01*
X022530Y008726D01*
X022606Y008650D01*
X022606Y008036D02*
X022760Y008036D01*
X022837Y007959D01*
X022837Y007729D01*
X022990Y007729D02*
X022530Y007729D01*
X022530Y007959D01*
X022606Y008036D01*
X022837Y007882D02*
X022990Y008036D01*
X023650Y007959D02*
X023650Y007729D01*
X024110Y007729D01*
X023957Y007729D02*
X023957Y007959D01*
X023880Y008036D01*
X023726Y008036D01*
X023650Y007959D01*
X023726Y008189D02*
X023650Y008266D01*
X023650Y008419D01*
X023726Y008496D01*
X023803Y008496D01*
X024110Y008189D01*
X024110Y008496D01*
X023880Y008650D02*
X023880Y008957D01*
X024110Y008880D02*
X023650Y008880D01*
X023880Y008650D01*
X024110Y008036D02*
X023957Y007882D01*
X024827Y009430D02*
X024750Y009507D01*
X024750Y009814D01*
X024827Y009890D01*
X024980Y009890D01*
X025057Y009814D01*
X025210Y009814D02*
X025210Y009737D01*
X025287Y009660D01*
X025517Y009660D01*
X025517Y009507D02*
X025517Y009814D01*
X025441Y009890D01*
X025287Y009890D01*
X025210Y009814D01*
X025210Y009507D02*
X025287Y009430D01*
X025441Y009430D01*
X025517Y009507D01*
X025057Y009507D02*
X024980Y009430D01*
X024827Y009430D01*
X026970Y008961D02*
X026970Y008808D01*
X027046Y008731D01*
X027123Y008731D01*
X027200Y008808D01*
X027200Y008961D01*
X027277Y009038D01*
X027353Y009038D01*
X027430Y008961D01*
X027430Y008808D01*
X027353Y008731D01*
X027277Y008731D01*
X027200Y008808D01*
X027200Y008961D02*
X027123Y009038D01*
X027046Y009038D01*
X026970Y008961D01*
X027046Y008577D02*
X026970Y008501D01*
X026970Y008347D01*
X027046Y008270D01*
X027046Y008117D02*
X027200Y008117D01*
X027277Y008040D01*
X027277Y007810D01*
X027430Y007810D02*
X026970Y007810D01*
X026970Y008040D01*
X027046Y008117D01*
X027277Y007963D02*
X027430Y008117D01*
X027430Y008270D02*
X027123Y008577D01*
X027046Y008577D01*
X027430Y008577D02*
X027430Y008270D01*
X029730Y008259D02*
X029730Y008106D01*
X029806Y008029D01*
X029806Y007876D02*
X029960Y007876D01*
X030037Y007799D01*
X030037Y007569D01*
X030190Y007569D02*
X029730Y007569D01*
X029730Y007799D01*
X029806Y007876D01*
X030037Y007722D02*
X030190Y007876D01*
X030190Y008029D02*
X029883Y008336D01*
X029806Y008336D01*
X029730Y008259D01*
X029960Y008490D02*
X029806Y008643D01*
X029730Y008797D01*
X029960Y008720D02*
X029960Y008490D01*
X030113Y008490D01*
X030190Y008566D01*
X030190Y008720D01*
X030113Y008797D01*
X030037Y008797D01*
X029960Y008720D01*
X030190Y008336D02*
X030190Y008029D01*
X030850Y008106D02*
X030926Y008029D01*
X030850Y008106D02*
X030850Y008259D01*
X030926Y008336D01*
X031003Y008336D01*
X031310Y008029D01*
X031310Y008336D01*
X031310Y008490D02*
X031233Y008490D01*
X030926Y008797D01*
X030850Y008797D01*
X030850Y008490D01*
X030926Y007876D02*
X031080Y007876D01*
X031157Y007799D01*
X031157Y007569D01*
X031310Y007569D02*
X030850Y007569D01*
X030850Y007799D01*
X030926Y007876D01*
X031157Y007722D02*
X031310Y007876D01*
X030965Y003340D02*
X030965Y002880D01*
X031118Y002803D02*
X031425Y002803D01*
X031579Y002957D02*
X031656Y002880D01*
X031809Y002880D01*
X031886Y002957D01*
X031886Y003264D01*
X031809Y003340D01*
X031656Y003340D01*
X031579Y003264D01*
X031579Y002957D01*
X032039Y002957D02*
X032039Y003340D01*
X032346Y003340D02*
X032346Y002957D01*
X032269Y002880D01*
X032116Y002880D01*
X032039Y002957D01*
X032500Y003340D02*
X032807Y003340D01*
X032653Y003340D02*
X032653Y002880D01*
X030965Y003110D02*
X030658Y003110D01*
X030658Y002880D02*
X030658Y003340D01*
X025767Y003340D02*
X025460Y003340D01*
X025613Y003340D02*
X025613Y002880D01*
X025306Y002957D02*
X025306Y003340D01*
X024999Y003340D02*
X024999Y002957D01*
X025076Y002880D01*
X025229Y002880D01*
X025306Y002957D01*
X024846Y002957D02*
X024846Y003264D01*
X024769Y003340D01*
X024616Y003340D01*
X024539Y003264D01*
X024539Y002957D01*
X024616Y002880D01*
X024769Y002880D01*
X024846Y002957D01*
X024385Y002803D02*
X024078Y002803D01*
X023925Y002957D02*
X023925Y003110D01*
X023771Y003110D01*
X023618Y002957D02*
X023695Y002880D01*
X023848Y002880D01*
X023925Y002957D01*
X023925Y003264D02*
X023848Y003340D01*
X023695Y003340D01*
X023618Y003264D01*
X023618Y002957D01*
X018407Y003340D02*
X018100Y003340D01*
X018253Y003340D02*
X018253Y002880D01*
X017946Y002957D02*
X017946Y003340D01*
X017639Y003340D02*
X017639Y002957D01*
X017716Y002880D01*
X017869Y002880D01*
X017946Y002957D01*
X017486Y002957D02*
X017486Y003264D01*
X017409Y003340D01*
X017256Y003340D01*
X017179Y003264D01*
X017179Y002957D01*
X017256Y002880D01*
X017409Y002880D01*
X017486Y002957D01*
X017025Y002803D02*
X016718Y002803D01*
X016411Y003110D02*
X016258Y003110D01*
X016258Y002880D02*
X016258Y003340D01*
X016565Y003340D01*
X016430Y007889D02*
X015970Y007889D01*
X015970Y008119D01*
X016046Y008196D01*
X016200Y008196D01*
X016277Y008119D01*
X016277Y007889D01*
X016277Y008042D02*
X016430Y008196D01*
X016430Y008349D02*
X016123Y008656D01*
X016046Y008656D01*
X015970Y008579D01*
X015970Y008426D01*
X016046Y008349D01*
X016430Y008349D02*
X016430Y008656D01*
X016430Y008810D02*
X016430Y009117D01*
X016430Y008963D02*
X015970Y008963D01*
X016123Y008810D01*
X015310Y008886D02*
X015233Y008810D01*
X014926Y009117D01*
X015233Y009117D01*
X015310Y009040D01*
X015310Y008886D01*
X015233Y008810D02*
X014926Y008810D01*
X014850Y008886D01*
X014850Y009040D01*
X014926Y009117D01*
X014926Y008656D02*
X014850Y008579D01*
X014850Y008426D01*
X014926Y008349D01*
X014926Y008196D02*
X015080Y008196D01*
X015157Y008119D01*
X015157Y007889D01*
X015310Y007889D02*
X014850Y007889D01*
X014850Y008119D01*
X014926Y008196D01*
X015157Y008042D02*
X015310Y008196D01*
X015310Y008349D02*
X015003Y008656D01*
X014926Y008656D01*
X015310Y008656D02*
X015310Y008349D01*
X012870Y008277D02*
X012717Y008123D01*
X012717Y008200D02*
X012717Y007970D01*
X012870Y007970D02*
X012410Y007970D01*
X012410Y008200D01*
X012486Y008277D01*
X012640Y008277D01*
X012717Y008200D01*
X012870Y008430D02*
X012563Y008737D01*
X012486Y008737D01*
X012410Y008661D01*
X012410Y008507D01*
X012486Y008430D01*
X012870Y008430D02*
X012870Y008737D01*
X012870Y008891D02*
X012563Y009198D01*
X012486Y009198D01*
X012410Y009121D01*
X012410Y008968D01*
X012486Y008891D01*
X012870Y008891D02*
X012870Y009198D01*
X011597Y009827D02*
X011521Y009750D01*
X011367Y009750D01*
X011290Y009827D01*
X011137Y009827D02*
X011060Y009750D01*
X010907Y009750D01*
X010830Y009827D01*
X010830Y010134D01*
X010907Y010210D01*
X011060Y010210D01*
X011137Y010134D01*
X011290Y010210D02*
X011290Y009980D01*
X011444Y010057D01*
X011521Y010057D01*
X011597Y009980D01*
X011597Y009827D01*
X011597Y010210D02*
X011290Y010210D01*
X009710Y009040D02*
X009710Y008886D01*
X009633Y008810D01*
X009557Y008810D01*
X009480Y008886D01*
X009480Y009040D01*
X009557Y009117D01*
X009633Y009117D01*
X009710Y009040D01*
X009480Y009040D02*
X009403Y009117D01*
X009326Y009117D01*
X009250Y009040D01*
X009250Y008886D01*
X009326Y008810D01*
X009403Y008810D01*
X009480Y008886D01*
X009710Y008656D02*
X009710Y008349D01*
X009710Y008196D02*
X009557Y008042D01*
X009557Y008119D02*
X009557Y007889D01*
X009710Y007889D02*
X009250Y007889D01*
X009250Y008119D01*
X009326Y008196D01*
X009480Y008196D01*
X009557Y008119D01*
X009403Y008349D02*
X009250Y008503D01*
X009710Y008503D01*
X008590Y008503D02*
X008130Y008503D01*
X008283Y008349D01*
X008206Y008196D02*
X008130Y008119D01*
X008130Y007889D01*
X008590Y007889D01*
X008437Y007889D02*
X008437Y008119D01*
X008360Y008196D01*
X008206Y008196D01*
X008437Y008042D02*
X008590Y008196D01*
X008590Y008349D02*
X008590Y008656D01*
X008590Y008810D02*
X008513Y008810D01*
X008206Y009117D01*
X008130Y009117D01*
X008130Y008810D01*
X005830Y008737D02*
X005830Y008430D01*
X005830Y008277D02*
X005677Y008123D01*
X005677Y008200D02*
X005677Y007970D01*
X005830Y007970D02*
X005370Y007970D01*
X005370Y008200D01*
X005446Y008277D01*
X005600Y008277D01*
X005677Y008200D01*
X005523Y008430D02*
X005370Y008584D01*
X005830Y008584D01*
X005753Y008891D02*
X005830Y008968D01*
X005830Y009121D01*
X005753Y009198D01*
X005446Y009198D01*
X005370Y009121D01*
X005370Y008968D01*
X005446Y008891D01*
X005523Y008891D01*
X005600Y008968D01*
X005600Y009198D01*
X009058Y003340D02*
X009058Y002880D01*
X009365Y002880D01*
X009518Y002803D02*
X009825Y002803D01*
X009979Y002957D02*
X010056Y002880D01*
X010209Y002880D01*
X010286Y002957D01*
X010286Y003264D01*
X010209Y003340D01*
X010056Y003340D01*
X009979Y003264D01*
X009979Y002957D01*
X010439Y002957D02*
X010439Y003340D01*
X010746Y003340D02*
X010746Y002957D01*
X010669Y002880D01*
X010516Y002880D01*
X010439Y002957D01*
X010900Y003340D02*
X011207Y003340D01*
X011053Y003340D02*
X011053Y002880D01*
X009365Y003340D02*
X009058Y003340D01*
X009058Y003110D02*
X009211Y003110D01*
X011470Y015030D02*
X011470Y015490D01*
X011700Y015490D01*
X011777Y015414D01*
X011777Y015260D01*
X011700Y015183D01*
X011470Y015183D01*
X011623Y015183D02*
X011777Y015030D01*
X011930Y015107D02*
X012007Y015030D01*
X012161Y015030D01*
X012237Y015107D01*
X012237Y015183D01*
X012161Y015260D01*
X012007Y015260D01*
X011930Y015337D01*
X011930Y015414D01*
X012007Y015490D01*
X012161Y015490D01*
X012237Y015414D01*
X012237Y015337D01*
X012161Y015260D01*
X012007Y015260D02*
X011930Y015183D01*
X011930Y015107D01*
X011930Y015830D02*
X011930Y015907D01*
X012237Y016214D01*
X012237Y016290D01*
X011930Y016290D01*
X011777Y016214D02*
X011777Y016060D01*
X011700Y015983D01*
X011470Y015983D01*
X011470Y015830D02*
X011470Y016290D01*
X011700Y016290D01*
X011777Y016214D01*
X011623Y015983D02*
X011777Y015830D01*
X011908Y016930D02*
X012061Y016930D01*
X012138Y017007D01*
X012138Y017314D01*
X012061Y017390D01*
X011908Y017390D01*
X011831Y017314D01*
X011831Y017237D01*
X011908Y017160D01*
X012138Y017160D01*
X011908Y016930D02*
X011831Y017007D01*
X011677Y017007D02*
X011601Y016930D01*
X011447Y016930D01*
X011370Y017007D01*
X011217Y016930D02*
X011063Y017083D01*
X011140Y017083D02*
X010910Y017083D01*
X010910Y016930D02*
X010910Y017390D01*
X011140Y017390D01*
X011217Y017314D01*
X011217Y017160D01*
X011140Y017083D01*
X011370Y017314D02*
X011447Y017390D01*
X011601Y017390D01*
X011677Y017314D01*
X011677Y017237D01*
X011601Y017160D01*
X011677Y017083D01*
X011677Y017007D01*
X011601Y017160D02*
X011524Y017160D01*
X015510Y015554D02*
X015510Y015247D01*
X015587Y015170D01*
X015740Y015170D01*
X015817Y015247D01*
X015970Y015247D02*
X016277Y015554D01*
X016277Y015630D01*
X015970Y015630D01*
X015817Y015554D02*
X015740Y015630D01*
X015587Y015630D01*
X015510Y015554D01*
X015970Y015247D02*
X015970Y015170D01*
X016949Y015187D02*
X017026Y015110D01*
X017179Y015110D01*
X017256Y015187D01*
X017410Y015187D02*
X017410Y015263D01*
X017486Y015340D01*
X017640Y015340D01*
X017717Y015263D01*
X017717Y015187D01*
X017640Y015110D01*
X017486Y015110D01*
X017410Y015187D01*
X017486Y015340D02*
X017410Y015417D01*
X017410Y015494D01*
X017486Y015570D01*
X017640Y015570D01*
X017717Y015494D01*
X017717Y015417D01*
X017640Y015340D01*
X017256Y015494D02*
X017179Y015570D01*
X017026Y015570D01*
X016949Y015494D01*
X016949Y015187D01*
X021947Y020310D02*
X022100Y020310D01*
X022177Y020387D01*
X022330Y020310D02*
X022637Y020617D01*
X022637Y020694D01*
X022561Y020770D01*
X022407Y020770D01*
X022330Y020694D01*
X022177Y020694D02*
X022100Y020770D01*
X021947Y020770D01*
X021870Y020694D01*
X021870Y020387D01*
X021947Y020310D01*
X022330Y020310D02*
X022637Y020310D01*
X023709Y019910D02*
X023709Y019450D01*
X024016Y019450D01*
X024170Y019450D02*
X024477Y019450D01*
X024323Y019450D02*
X024323Y019910D01*
X024170Y019757D01*
X024827Y021110D02*
X024750Y021187D01*
X024750Y021494D01*
X024827Y021570D01*
X024980Y021570D01*
X025057Y021494D01*
X025210Y021340D02*
X025517Y021340D01*
X025441Y021110D02*
X025441Y021570D01*
X025210Y021340D01*
X025057Y021187D02*
X024980Y021110D01*
X024827Y021110D01*
X025410Y025809D02*
X025410Y026039D01*
X025486Y026116D01*
X025640Y026116D01*
X025717Y026039D01*
X025717Y025809D01*
X025870Y025809D02*
X025410Y025809D01*
X025717Y025962D02*
X025870Y026116D01*
X025870Y026269D02*
X025870Y026576D01*
X025870Y026423D02*
X025410Y026423D01*
X025563Y026269D01*
X025486Y026730D02*
X025410Y026806D01*
X025410Y026960D01*
X025486Y027037D01*
X025563Y027037D01*
X025640Y026960D01*
X025717Y027037D01*
X025793Y027037D01*
X025870Y026960D01*
X025870Y026806D01*
X025793Y026730D01*
X025640Y026883D02*
X025640Y026960D01*
X023270Y026907D02*
X023193Y026830D01*
X023270Y026907D02*
X023270Y027061D01*
X023193Y027137D01*
X023040Y027137D01*
X022963Y027061D01*
X022963Y026984D01*
X023040Y026830D01*
X022810Y026830D01*
X022810Y027137D01*
X022310Y027061D02*
X022233Y027137D01*
X022157Y027137D01*
X022080Y027061D01*
X022080Y026830D01*
X022233Y026830D01*
X022310Y026907D01*
X022310Y027061D01*
X022080Y026830D02*
X021926Y026984D01*
X021850Y027137D01*
X021926Y026677D02*
X022080Y026677D01*
X022157Y026600D01*
X022157Y026370D01*
X022310Y026370D02*
X021850Y026370D01*
X021850Y026600D01*
X021926Y026677D01*
X022157Y026523D02*
X022310Y026677D01*
X022810Y026600D02*
X022810Y026370D01*
X023270Y026370D01*
X023117Y026370D02*
X023117Y026600D01*
X023040Y026677D01*
X022886Y026677D01*
X022810Y026600D01*
X023117Y026523D02*
X023270Y026677D01*
X017870Y026800D02*
X017410Y026800D01*
X017640Y026570D01*
X017640Y026877D01*
X017640Y026416D02*
X017717Y026339D01*
X017717Y026109D01*
X017870Y026109D02*
X017410Y026109D01*
X017410Y026339D01*
X017486Y026416D01*
X017640Y026416D01*
X017717Y026263D02*
X017870Y026416D01*
X015270Y026517D02*
X015117Y026363D01*
X015117Y026440D02*
X015117Y026210D01*
X015270Y026210D02*
X014810Y026210D01*
X014810Y026440D01*
X014886Y026517D01*
X015040Y026517D01*
X015117Y026440D01*
X015270Y026670D02*
X014963Y026977D01*
X014886Y026977D01*
X014810Y026901D01*
X014810Y026747D01*
X014886Y026670D01*
X015270Y026670D02*
X015270Y026977D01*
X014150Y026901D02*
X014150Y026747D01*
X014073Y026670D01*
X014150Y026517D02*
X013997Y026363D01*
X013997Y026440D02*
X013997Y026210D01*
X014150Y026210D02*
X013690Y026210D01*
X013690Y026440D01*
X013766Y026517D01*
X013920Y026517D01*
X013997Y026440D01*
X013766Y026670D02*
X013690Y026747D01*
X013690Y026901D01*
X013766Y026977D01*
X013843Y026977D01*
X013920Y026901D01*
X013997Y026977D01*
X014073Y026977D01*
X014150Y026901D01*
X013920Y026901D02*
X013920Y026824D01*
X010670Y026877D02*
X010670Y026570D01*
X010670Y026723D02*
X010210Y026723D01*
X010363Y026570D01*
X010286Y026416D02*
X010440Y026416D01*
X010517Y026339D01*
X010517Y026109D01*
X010670Y026109D02*
X010210Y026109D01*
X010210Y026339D01*
X010286Y026416D01*
X010517Y026263D02*
X010670Y026416D01*
X007790Y026477D02*
X007637Y026323D01*
X007637Y026400D02*
X007637Y026170D01*
X007790Y026170D02*
X007330Y026170D01*
X007330Y026400D01*
X007406Y026477D01*
X007560Y026477D01*
X007637Y026400D01*
X007713Y026630D02*
X007790Y026707D01*
X007790Y026861D01*
X007713Y026937D01*
X007406Y026937D01*
X007330Y026861D01*
X007330Y026707D01*
X007406Y026630D01*
X007483Y026630D01*
X007560Y026707D01*
X007560Y026937D01*
X006590Y026861D02*
X006590Y026708D01*
X006513Y026631D01*
X006206Y026938D01*
X006513Y026938D01*
X006590Y026861D01*
X006513Y026631D02*
X006206Y026631D01*
X006130Y026708D01*
X006130Y026861D01*
X006206Y026938D01*
X006590Y026477D02*
X006590Y026170D01*
X006590Y026017D02*
X006437Y025863D01*
X006437Y025940D02*
X006437Y025710D01*
X006590Y025710D02*
X006130Y025710D01*
X006130Y025940D01*
X006206Y026017D01*
X006360Y026017D01*
X006437Y025940D01*
X006283Y026170D02*
X006130Y026324D01*
X006590Y026324D01*
X009307Y021410D02*
X009230Y021334D01*
X009230Y021027D01*
X009307Y020950D01*
X009460Y020950D01*
X009537Y021027D01*
X009690Y020950D02*
X009997Y020950D01*
X009844Y020950D02*
X009844Y021410D01*
X009690Y021257D01*
X009537Y021334D02*
X009460Y021410D01*
X009307Y021410D01*
X010151Y021334D02*
X010151Y021027D01*
X010458Y021334D01*
X010458Y021027D01*
X010381Y020950D01*
X010228Y020950D01*
X010151Y021027D01*
X010151Y021334D02*
X010228Y021410D01*
X010381Y021410D01*
X010458Y021334D01*
X016450Y021546D02*
X016526Y021469D01*
X016833Y021469D01*
X016910Y021546D01*
X016910Y021699D01*
X016833Y021776D01*
X016910Y021930D02*
X016910Y022237D01*
X016910Y022083D02*
X016450Y022083D01*
X016603Y021930D01*
X016526Y021776D02*
X016450Y021699D01*
X016450Y021546D01*
X013007Y031863D02*
X012700Y031863D01*
X012547Y032017D02*
X012470Y031940D01*
X012240Y031940D01*
X012240Y032400D01*
X012470Y032400D01*
X012547Y032324D01*
X012547Y032247D01*
X012470Y032170D01*
X012240Y032170D01*
X012470Y032170D02*
X012547Y032093D01*
X012547Y032017D01*
X013161Y032017D02*
X013161Y032324D01*
X013238Y032400D01*
X013391Y032400D01*
X013468Y032324D01*
X013468Y032017D01*
X013391Y031940D01*
X013238Y031940D01*
X013161Y032017D01*
X013621Y032017D02*
X013698Y031940D01*
X013851Y031940D01*
X013928Y032017D01*
X013928Y032400D01*
X014082Y032400D02*
X014388Y032400D01*
X014235Y032400D02*
X014235Y031940D01*
X013621Y032017D02*
X013621Y032400D01*
X019920Y032324D02*
X019920Y032017D01*
X019997Y031940D01*
X020150Y031940D01*
X020227Y032017D01*
X020380Y031863D02*
X020687Y031863D01*
X020841Y032017D02*
X020918Y031940D01*
X021071Y031940D01*
X021148Y032017D01*
X021148Y032324D01*
X021071Y032400D01*
X020918Y032400D01*
X020841Y032324D01*
X020841Y032017D01*
X021301Y032017D02*
X021301Y032400D01*
X021608Y032400D02*
X021608Y032017D01*
X021531Y031940D01*
X021378Y031940D01*
X021301Y032017D01*
X021762Y032400D02*
X022068Y032400D01*
X021915Y032400D02*
X021915Y031940D01*
X020227Y032324D02*
X020150Y032400D01*
X019997Y032400D01*
X019920Y032324D01*
X026640Y032400D02*
X026640Y031940D01*
X026870Y031940D01*
X026947Y032017D01*
X026947Y032324D01*
X026870Y032400D01*
X026640Y032400D01*
X027100Y031863D02*
X027407Y031863D01*
X027561Y032017D02*
X027638Y031940D01*
X027791Y031940D01*
X027868Y032017D01*
X027868Y032324D01*
X027791Y032400D01*
X027638Y032400D01*
X027561Y032324D01*
X027561Y032017D01*
X028021Y032017D02*
X028021Y032400D01*
X028328Y032400D02*
X028328Y032017D01*
X028251Y031940D01*
X028098Y031940D01*
X028021Y032017D01*
X028482Y032400D02*
X028788Y032400D01*
X028635Y032400D02*
X028635Y031940D01*
X028730Y027118D02*
X028730Y026811D01*
X028960Y026811D01*
X028883Y026964D01*
X028883Y027041D01*
X028960Y027118D01*
X029113Y027118D01*
X029190Y027041D01*
X029190Y026888D01*
X029113Y026811D01*
X029190Y026657D02*
X029190Y026350D01*
X029190Y026197D02*
X029037Y026043D01*
X029037Y026120D02*
X029037Y025890D01*
X029190Y025890D02*
X028730Y025890D01*
X028730Y026120D01*
X028806Y026197D01*
X028960Y026197D01*
X029037Y026120D01*
X028883Y026350D02*
X028730Y026504D01*
X029190Y026504D01*
X029850Y026504D02*
X030310Y026504D01*
X030310Y026657D02*
X030310Y026350D01*
X030310Y026197D02*
X030157Y026043D01*
X030157Y026120D02*
X030157Y025890D01*
X030310Y025890D02*
X029850Y025890D01*
X029850Y026120D01*
X029926Y026197D01*
X030080Y026197D01*
X030157Y026120D01*
X030003Y026350D02*
X029850Y026504D01*
X030080Y026811D02*
X029850Y027041D01*
X030310Y027041D01*
X030080Y027118D02*
X030080Y026811D01*
X032610Y026877D02*
X032686Y026723D01*
X032840Y026570D01*
X032840Y026800D01*
X032917Y026877D01*
X032993Y026877D01*
X033070Y026800D01*
X033070Y026646D01*
X032993Y026570D01*
X032840Y026570D01*
X033070Y026416D02*
X033070Y026109D01*
X033070Y025956D02*
X032917Y025802D01*
X032917Y025879D02*
X032917Y025649D01*
X033070Y025649D02*
X032610Y025649D01*
X032610Y025879D01*
X032686Y025956D01*
X032840Y025956D01*
X032917Y025879D01*
X032763Y026109D02*
X032610Y026263D01*
X033070Y026263D01*
X006968Y032360D02*
X006662Y032360D01*
X006815Y032360D02*
X006815Y031900D01*
X006508Y031977D02*
X006508Y032360D01*
X006201Y032360D02*
X006201Y031977D01*
X006278Y031900D01*
X006431Y031900D01*
X006508Y031977D01*
X006048Y031977D02*
X006048Y032284D01*
X005971Y032360D01*
X005818Y032360D01*
X005741Y032284D01*
X005741Y031977D01*
X005818Y031900D01*
X005971Y031900D01*
X006048Y031977D01*
X005587Y031823D02*
X005280Y031823D01*
X005127Y031900D02*
X005127Y032207D01*
X004973Y032360D01*
X004820Y032207D01*
X004820Y031900D01*
X004820Y032130D02*
X005127Y032130D01*
D52*
X015750Y014380D02*
X018450Y014380D01*
X018501Y014378D01*
X018552Y014373D01*
X018602Y014363D01*
X018652Y014350D01*
X018700Y014334D01*
X018747Y014314D01*
X018793Y014290D01*
X018836Y014264D01*
X018878Y014234D01*
X018917Y014201D01*
X018954Y014166D01*
X018988Y014128D01*
X019019Y014087D01*
X019048Y014045D01*
X019073Y014000D01*
X019094Y013954D01*
X019113Y013906D01*
X019127Y013857D01*
X019138Y013807D01*
X019146Y013757D01*
X019150Y013706D01*
X019150Y013654D01*
X019146Y013603D01*
X019138Y013553D01*
X019127Y013503D01*
X019113Y013454D01*
X019094Y013406D01*
X019073Y013360D01*
X019048Y013315D01*
X019019Y013273D01*
X018988Y013232D01*
X018954Y013194D01*
X018917Y013159D01*
X018878Y013126D01*
X018836Y013096D01*
X018793Y013070D01*
X018747Y013046D01*
X018700Y013026D01*
X018652Y013010D01*
X018602Y012997D01*
X018552Y012987D01*
X018501Y012982D01*
X018450Y012980D01*
X015750Y012980D01*
X015699Y012982D01*
X015648Y012987D01*
X015598Y012997D01*
X015548Y013010D01*
X015500Y013026D01*
X015453Y013046D01*
X015407Y013070D01*
X015364Y013096D01*
X015322Y013126D01*
X015283Y013159D01*
X015246Y013194D01*
X015212Y013232D01*
X015181Y013273D01*
X015152Y013315D01*
X015127Y013360D01*
X015106Y013406D01*
X015087Y013454D01*
X015073Y013503D01*
X015062Y013553D01*
X015054Y013603D01*
X015050Y013654D01*
X015050Y013706D01*
X015054Y013757D01*
X015062Y013807D01*
X015073Y013857D01*
X015087Y013906D01*
X015106Y013954D01*
X015127Y014000D01*
X015152Y014045D01*
X015181Y014087D01*
X015212Y014128D01*
X015246Y014166D01*
X015283Y014201D01*
X015322Y014234D01*
X015364Y014264D01*
X015407Y014290D01*
X015453Y014314D01*
X015500Y014334D01*
X015548Y014350D01*
X015598Y014363D01*
X015648Y014373D01*
X015699Y014378D01*
X015750Y014380D01*
D53*
X016979Y017689D02*
X019429Y015239D01*
X019651Y015239D01*
X022101Y017689D01*
X022101Y017911D01*
X019651Y020361D01*
X019429Y020361D01*
X016979Y017911D01*
X016979Y017689D01*
D54*
X017202Y017800D02*
X017204Y017820D01*
X017209Y017840D01*
X017219Y017858D01*
X017231Y017875D01*
X017246Y017889D01*
X017264Y017899D01*
X017283Y017907D01*
X017303Y017911D01*
X017323Y017911D01*
X017343Y017907D01*
X017362Y017899D01*
X017380Y017889D01*
X017395Y017875D01*
X017407Y017858D01*
X017417Y017840D01*
X017422Y017820D01*
X017424Y017800D01*
X017422Y017780D01*
X017417Y017760D01*
X017407Y017742D01*
X017395Y017725D01*
X017380Y017711D01*
X017362Y017701D01*
X017343Y017693D01*
X017323Y017689D01*
X017303Y017689D01*
X017283Y017693D01*
X017264Y017701D01*
X017246Y017711D01*
X017231Y017725D01*
X017219Y017742D01*
X017209Y017760D01*
X017204Y017780D01*
X017202Y017800D01*
X016560Y023040D02*
X016560Y025040D01*
X021560Y025040D01*
X021560Y023040D01*
X016560Y023040D01*
D55*
X020500Y027940D02*
X020500Y028140D01*
X027540Y028140D02*
X027540Y027940D01*
X012500Y027940D02*
X012500Y028140D01*
X005140Y028140D02*
X005140Y027940D01*
X005940Y016460D02*
X005940Y016260D01*
X010740Y007180D02*
X010740Y006980D01*
X017780Y006980D02*
X017780Y007180D01*
X025460Y007180D02*
X025460Y006980D01*
X032340Y006980D02*
X032340Y007180D01*
M02*
