G75*
G70*
%OFA0B0*%
%FSLAX24Y24*%
%IPPOS*%
%LPD*%
%AMOC8*
5,1,8,0,0,1.08239X$1,22.5*
%
%ADD10C,0.0000*%
%ADD11C,0.0040*%
%ADD12C,0.0050*%
%ADD13R,0.0015X0.0015*%
%ADD14R,0.0030X0.0015*%
%ADD15R,0.0045X0.0015*%
%ADD16R,0.0060X0.0015*%
%ADD17R,0.0195X0.0015*%
%ADD18R,0.0165X0.0015*%
%ADD19R,0.0090X0.0015*%
%ADD20R,0.0315X0.0015*%
%ADD21R,0.0300X0.0015*%
%ADD22R,0.0390X0.0015*%
%ADD23R,0.0375X0.0015*%
%ADD24R,0.0435X0.0015*%
%ADD25R,0.0420X0.0015*%
%ADD26R,0.0480X0.0015*%
%ADD27R,0.0465X0.0015*%
%ADD28R,0.0510X0.0015*%
%ADD29R,0.0555X0.0015*%
%ADD30R,0.0540X0.0015*%
%ADD31R,0.0570X0.0015*%
%ADD32R,0.0600X0.0015*%
%ADD33R,0.0240X0.0015*%
%ADD34R,0.0225X0.0015*%
%ADD35R,0.0210X0.0015*%
%ADD36R,0.0135X0.0015*%
%ADD37R,0.0180X0.0015*%
%ADD38R,0.0150X0.0015*%
%ADD39R,0.0270X0.0015*%
%ADD40R,0.0450X0.0015*%
%ADD41R,0.0525X0.0015*%
%ADD42R,0.0330X0.0015*%
%ADD43R,0.0855X0.0015*%
%ADD44R,0.0870X0.0015*%
%ADD45R,0.0405X0.0015*%
%ADD46R,0.0360X0.0015*%
%ADD47R,0.0285X0.0015*%
%ADD48R,0.0675X0.0015*%
D10*
X001560Y003750D02*
X001560Y035246D01*
X036993Y035246D01*
X036993Y003750D01*
X001560Y003750D01*
X002840Y005719D02*
X002842Y005771D01*
X002848Y005823D01*
X002858Y005874D01*
X002871Y005924D01*
X002889Y005974D01*
X002910Y006021D01*
X002934Y006067D01*
X002963Y006111D01*
X002994Y006153D01*
X003028Y006192D01*
X003065Y006229D01*
X003105Y006262D01*
X003148Y006293D01*
X003192Y006320D01*
X003238Y006344D01*
X003287Y006364D01*
X003336Y006380D01*
X003387Y006393D01*
X003438Y006402D01*
X003490Y006407D01*
X003542Y006408D01*
X003594Y006405D01*
X003646Y006398D01*
X003697Y006387D01*
X003747Y006373D01*
X003796Y006354D01*
X003843Y006332D01*
X003888Y006307D01*
X003932Y006278D01*
X003973Y006246D01*
X004012Y006211D01*
X004047Y006173D01*
X004080Y006132D01*
X004110Y006090D01*
X004136Y006045D01*
X004159Y005998D01*
X004178Y005949D01*
X004194Y005899D01*
X004206Y005849D01*
X004214Y005797D01*
X004218Y005745D01*
X004218Y005693D01*
X004214Y005641D01*
X004206Y005589D01*
X004194Y005539D01*
X004178Y005489D01*
X004159Y005440D01*
X004136Y005393D01*
X004110Y005348D01*
X004080Y005306D01*
X004047Y005265D01*
X004012Y005227D01*
X003973Y005192D01*
X003932Y005160D01*
X003888Y005131D01*
X003843Y005106D01*
X003796Y005084D01*
X003747Y005065D01*
X003697Y005051D01*
X003646Y005040D01*
X003594Y005033D01*
X003542Y005030D01*
X003490Y005031D01*
X003438Y005036D01*
X003387Y005045D01*
X003336Y005058D01*
X003287Y005074D01*
X003238Y005094D01*
X003192Y005118D01*
X003148Y005145D01*
X003105Y005176D01*
X003065Y005209D01*
X003028Y005246D01*
X002994Y005285D01*
X002963Y005327D01*
X002934Y005371D01*
X002910Y005417D01*
X002889Y005464D01*
X002871Y005514D01*
X002858Y005564D01*
X002848Y005615D01*
X002842Y005667D01*
X002840Y005719D01*
X002840Y033278D02*
X002842Y033330D01*
X002848Y033382D01*
X002858Y033433D01*
X002871Y033483D01*
X002889Y033533D01*
X002910Y033580D01*
X002934Y033626D01*
X002963Y033670D01*
X002994Y033712D01*
X003028Y033751D01*
X003065Y033788D01*
X003105Y033821D01*
X003148Y033852D01*
X003192Y033879D01*
X003238Y033903D01*
X003287Y033923D01*
X003336Y033939D01*
X003387Y033952D01*
X003438Y033961D01*
X003490Y033966D01*
X003542Y033967D01*
X003594Y033964D01*
X003646Y033957D01*
X003697Y033946D01*
X003747Y033932D01*
X003796Y033913D01*
X003843Y033891D01*
X003888Y033866D01*
X003932Y033837D01*
X003973Y033805D01*
X004012Y033770D01*
X004047Y033732D01*
X004080Y033691D01*
X004110Y033649D01*
X004136Y033604D01*
X004159Y033557D01*
X004178Y033508D01*
X004194Y033458D01*
X004206Y033408D01*
X004214Y033356D01*
X004218Y033304D01*
X004218Y033252D01*
X004214Y033200D01*
X004206Y033148D01*
X004194Y033098D01*
X004178Y033048D01*
X004159Y032999D01*
X004136Y032952D01*
X004110Y032907D01*
X004080Y032865D01*
X004047Y032824D01*
X004012Y032786D01*
X003973Y032751D01*
X003932Y032719D01*
X003888Y032690D01*
X003843Y032665D01*
X003796Y032643D01*
X003747Y032624D01*
X003697Y032610D01*
X003646Y032599D01*
X003594Y032592D01*
X003542Y032589D01*
X003490Y032590D01*
X003438Y032595D01*
X003387Y032604D01*
X003336Y032617D01*
X003287Y032633D01*
X003238Y032653D01*
X003192Y032677D01*
X003148Y032704D01*
X003105Y032735D01*
X003065Y032768D01*
X003028Y032805D01*
X002994Y032844D01*
X002963Y032886D01*
X002934Y032930D01*
X002910Y032976D01*
X002889Y033023D01*
X002871Y033073D01*
X002858Y033123D01*
X002848Y033174D01*
X002842Y033226D01*
X002840Y033278D01*
X034336Y033278D02*
X034338Y033330D01*
X034344Y033382D01*
X034354Y033433D01*
X034367Y033483D01*
X034385Y033533D01*
X034406Y033580D01*
X034430Y033626D01*
X034459Y033670D01*
X034490Y033712D01*
X034524Y033751D01*
X034561Y033788D01*
X034601Y033821D01*
X034644Y033852D01*
X034688Y033879D01*
X034734Y033903D01*
X034783Y033923D01*
X034832Y033939D01*
X034883Y033952D01*
X034934Y033961D01*
X034986Y033966D01*
X035038Y033967D01*
X035090Y033964D01*
X035142Y033957D01*
X035193Y033946D01*
X035243Y033932D01*
X035292Y033913D01*
X035339Y033891D01*
X035384Y033866D01*
X035428Y033837D01*
X035469Y033805D01*
X035508Y033770D01*
X035543Y033732D01*
X035576Y033691D01*
X035606Y033649D01*
X035632Y033604D01*
X035655Y033557D01*
X035674Y033508D01*
X035690Y033458D01*
X035702Y033408D01*
X035710Y033356D01*
X035714Y033304D01*
X035714Y033252D01*
X035710Y033200D01*
X035702Y033148D01*
X035690Y033098D01*
X035674Y033048D01*
X035655Y032999D01*
X035632Y032952D01*
X035606Y032907D01*
X035576Y032865D01*
X035543Y032824D01*
X035508Y032786D01*
X035469Y032751D01*
X035428Y032719D01*
X035384Y032690D01*
X035339Y032665D01*
X035292Y032643D01*
X035243Y032624D01*
X035193Y032610D01*
X035142Y032599D01*
X035090Y032592D01*
X035038Y032589D01*
X034986Y032590D01*
X034934Y032595D01*
X034883Y032604D01*
X034832Y032617D01*
X034783Y032633D01*
X034734Y032653D01*
X034688Y032677D01*
X034644Y032704D01*
X034601Y032735D01*
X034561Y032768D01*
X034524Y032805D01*
X034490Y032844D01*
X034459Y032886D01*
X034430Y032930D01*
X034406Y032976D01*
X034385Y033023D01*
X034367Y033073D01*
X034354Y033123D01*
X034344Y033174D01*
X034338Y033226D01*
X034336Y033278D01*
X034336Y005719D02*
X034338Y005771D01*
X034344Y005823D01*
X034354Y005874D01*
X034367Y005924D01*
X034385Y005974D01*
X034406Y006021D01*
X034430Y006067D01*
X034459Y006111D01*
X034490Y006153D01*
X034524Y006192D01*
X034561Y006229D01*
X034601Y006262D01*
X034644Y006293D01*
X034688Y006320D01*
X034734Y006344D01*
X034783Y006364D01*
X034832Y006380D01*
X034883Y006393D01*
X034934Y006402D01*
X034986Y006407D01*
X035038Y006408D01*
X035090Y006405D01*
X035142Y006398D01*
X035193Y006387D01*
X035243Y006373D01*
X035292Y006354D01*
X035339Y006332D01*
X035384Y006307D01*
X035428Y006278D01*
X035469Y006246D01*
X035508Y006211D01*
X035543Y006173D01*
X035576Y006132D01*
X035606Y006090D01*
X035632Y006045D01*
X035655Y005998D01*
X035674Y005949D01*
X035690Y005899D01*
X035702Y005849D01*
X035710Y005797D01*
X035714Y005745D01*
X035714Y005693D01*
X035710Y005641D01*
X035702Y005589D01*
X035690Y005539D01*
X035674Y005489D01*
X035655Y005440D01*
X035632Y005393D01*
X035606Y005348D01*
X035576Y005306D01*
X035543Y005265D01*
X035508Y005227D01*
X035469Y005192D01*
X035428Y005160D01*
X035384Y005131D01*
X035339Y005106D01*
X035292Y005084D01*
X035243Y005065D01*
X035193Y005051D01*
X035142Y005040D01*
X035090Y005033D01*
X035038Y005030D01*
X034986Y005031D01*
X034934Y005036D01*
X034883Y005045D01*
X034832Y005058D01*
X034783Y005074D01*
X034734Y005094D01*
X034688Y005118D01*
X034644Y005145D01*
X034601Y005176D01*
X034561Y005209D01*
X034524Y005246D01*
X034490Y005285D01*
X034459Y005327D01*
X034430Y005371D01*
X034406Y005417D01*
X034385Y005464D01*
X034367Y005514D01*
X034354Y005564D01*
X034344Y005615D01*
X034338Y005667D01*
X034336Y005719D01*
D11*
X033506Y018577D02*
X033506Y019037D01*
X033276Y019037D01*
X033199Y018960D01*
X033199Y018807D01*
X033276Y018730D01*
X033506Y018730D01*
X033659Y018730D02*
X033736Y018807D01*
X033736Y019114D01*
X033813Y019037D02*
X033659Y019037D01*
X033966Y019037D02*
X034120Y019037D01*
X034043Y019114D02*
X034043Y018807D01*
X033966Y018730D01*
X034273Y018730D02*
X034273Y018960D01*
X034350Y019037D01*
X034503Y019037D01*
X034580Y018960D01*
X034580Y018730D02*
X034580Y019191D01*
X033045Y018960D02*
X032969Y019037D01*
X032738Y019037D01*
X032585Y019037D02*
X032585Y018960D01*
X032508Y018960D01*
X032508Y019037D01*
X032585Y019037D01*
X032585Y018807D02*
X032585Y018730D01*
X032508Y018730D01*
X032508Y018807D01*
X032585Y018807D01*
X032738Y018807D02*
X032815Y018730D01*
X033045Y018730D01*
X032969Y018884D02*
X033045Y018960D01*
X032969Y018884D02*
X032815Y018884D01*
X032738Y018807D01*
X032355Y018730D02*
X032048Y019191D01*
X031587Y019191D02*
X031894Y018730D01*
X031434Y018807D02*
X031357Y018730D01*
X031127Y018730D01*
X031127Y018654D02*
X031127Y019037D01*
X031357Y019037D01*
X031434Y018960D01*
X031434Y018807D01*
X031281Y018577D02*
X031204Y018577D01*
X031127Y018654D01*
X030974Y018730D02*
X030820Y018730D01*
X030897Y018730D02*
X030897Y019037D01*
X030974Y019037D01*
X030897Y019191D02*
X030897Y019267D01*
X030667Y019037D02*
X030513Y019037D01*
X030590Y019114D02*
X030590Y018807D01*
X030513Y018730D01*
X030360Y018730D02*
X030360Y019191D01*
X030283Y019037D02*
X030130Y019037D01*
X030053Y018960D01*
X030053Y018730D01*
X029899Y018807D02*
X029823Y018730D01*
X029592Y018730D01*
X029592Y019037D01*
X029439Y019037D02*
X029209Y019037D01*
X029132Y018960D01*
X029132Y018807D01*
X029209Y018730D01*
X029439Y018730D01*
X029439Y019191D01*
X029899Y019037D02*
X029899Y018807D01*
X030283Y019037D02*
X030360Y018960D01*
X028979Y018807D02*
X028979Y018730D01*
X028902Y018730D01*
X028902Y018807D01*
X028979Y018807D01*
X028748Y018807D02*
X028672Y018730D01*
X028441Y018730D01*
X028288Y018807D02*
X028211Y018730D01*
X028058Y018730D01*
X027981Y018807D01*
X027981Y018960D01*
X028058Y019037D01*
X028211Y019037D01*
X028288Y018960D01*
X028288Y018807D01*
X028441Y019037D02*
X028672Y019037D01*
X028748Y018960D01*
X028748Y018807D01*
X027828Y018730D02*
X027828Y019037D01*
X027751Y019037D01*
X027674Y018960D01*
X027597Y019037D01*
X027521Y018960D01*
X027521Y018730D01*
X027674Y018730D02*
X027674Y018960D01*
X027367Y018730D02*
X027060Y019191D01*
X026830Y019037D02*
X026600Y019037D01*
X026677Y018884D02*
X026830Y018884D01*
X026907Y018960D01*
X026830Y019037D01*
X026677Y018884D02*
X026600Y018807D01*
X026677Y018730D01*
X026907Y018730D01*
X026446Y018807D02*
X026370Y018730D01*
X026216Y018730D01*
X026139Y018807D01*
X026139Y018960D01*
X026216Y019037D01*
X026370Y019037D01*
X026446Y018960D01*
X026446Y018807D01*
X025986Y018730D02*
X025756Y018730D01*
X025679Y018807D01*
X025756Y018884D01*
X025909Y018884D01*
X025986Y018960D01*
X025909Y019037D01*
X025679Y019037D01*
X025526Y018960D02*
X025526Y018807D01*
X025449Y018730D01*
X025295Y018730D01*
X025219Y018807D01*
X025219Y018960D01*
X025295Y019037D01*
X025449Y019037D01*
X025526Y018960D01*
X025065Y018884D02*
X024912Y019037D01*
X024835Y019037D01*
X024682Y019037D02*
X024682Y018807D01*
X024605Y018730D01*
X024375Y018730D01*
X024375Y019037D01*
X024221Y018730D02*
X023914Y019191D01*
X023761Y019191D02*
X023454Y019191D01*
X023607Y019191D02*
X023607Y018730D01*
X023300Y018730D02*
X023300Y019037D01*
X023147Y019037D02*
X023070Y019037D01*
X023147Y019037D02*
X023300Y018884D01*
X022917Y018807D02*
X022840Y018730D01*
X022610Y018730D01*
X022610Y018960D01*
X022687Y019037D01*
X022840Y019037D01*
X022840Y018884D02*
X022610Y018884D01*
X022456Y019037D02*
X022380Y019037D01*
X022380Y018730D01*
X022456Y018730D02*
X022303Y018730D01*
X022149Y018730D02*
X022149Y019037D01*
X021919Y019037D01*
X021842Y018960D01*
X021842Y018730D01*
X021689Y018807D02*
X021612Y018730D01*
X021459Y018730D01*
X021382Y018807D01*
X021382Y019191D01*
X021229Y019037D02*
X021075Y019037D01*
X021152Y019114D02*
X021152Y018807D01*
X021075Y018730D01*
X020922Y018730D02*
X020768Y018730D01*
X020845Y018730D02*
X020845Y019037D01*
X020922Y019037D01*
X020845Y019191D02*
X020845Y019267D01*
X020615Y019191D02*
X020538Y019191D01*
X020538Y018730D01*
X020615Y018730D02*
X020461Y018730D01*
X020308Y018730D02*
X020154Y018730D01*
X020231Y018730D02*
X020231Y019037D01*
X020308Y019037D01*
X020231Y019191D02*
X020231Y019267D01*
X020001Y019037D02*
X019694Y019037D01*
X020001Y018730D01*
X019694Y018730D01*
X019541Y018730D02*
X019387Y018730D01*
X019464Y018730D02*
X019464Y019037D01*
X019541Y019037D01*
X019464Y019191D02*
X019464Y019267D01*
X019234Y019037D02*
X019003Y019037D01*
X018927Y018960D01*
X018927Y018730D01*
X018773Y018807D02*
X018696Y018730D01*
X018466Y018730D01*
X018466Y018654D02*
X018466Y019037D01*
X018696Y019037D01*
X018773Y018960D01*
X018773Y018807D01*
X018620Y018577D02*
X018543Y018577D01*
X018466Y018654D01*
X018313Y018807D02*
X018236Y018730D01*
X018083Y018730D01*
X018006Y018807D01*
X018006Y018884D01*
X018083Y018960D01*
X018236Y018960D01*
X018313Y019037D01*
X018313Y019114D01*
X018236Y019191D01*
X018083Y019191D01*
X018006Y019114D01*
X017852Y019037D02*
X017852Y018807D01*
X017776Y018730D01*
X017545Y018730D01*
X017545Y018654D02*
X017622Y018577D01*
X017699Y018577D01*
X017545Y018654D02*
X017545Y019037D01*
X017392Y018960D02*
X017315Y019037D01*
X017085Y019037D01*
X016932Y019037D02*
X016778Y019037D01*
X016855Y019114D02*
X016855Y018807D01*
X016778Y018730D01*
X016625Y018807D02*
X016625Y018960D01*
X016548Y019037D01*
X016395Y019037D01*
X016318Y018960D01*
X016318Y018884D01*
X016625Y018884D01*
X016625Y018807D02*
X016548Y018730D01*
X016395Y018730D01*
X016164Y018730D02*
X016164Y019037D01*
X016088Y019037D01*
X016011Y018960D01*
X015934Y019037D01*
X015857Y018960D01*
X015857Y018730D01*
X016011Y018730D02*
X016011Y018960D01*
X017085Y018807D02*
X017162Y018884D01*
X017315Y018884D01*
X017392Y018960D01*
X017392Y018730D02*
X017162Y018730D01*
X017085Y018807D01*
X019234Y018730D02*
X019234Y019037D01*
X021689Y019191D02*
X021689Y018807D01*
X022380Y019191D02*
X022380Y019267D01*
X022840Y018884D02*
X022917Y018807D01*
X025065Y018730D02*
X025065Y019037D01*
D12*
X025086Y019455D02*
X024883Y019455D01*
X024985Y019455D02*
X024985Y020066D01*
X025086Y020066D01*
X025389Y019862D02*
X025592Y019862D01*
X025694Y019761D01*
X025694Y019557D01*
X025592Y019455D01*
X025389Y019455D01*
X025287Y019557D01*
X025287Y019761D01*
X025389Y019862D01*
X025895Y019862D02*
X025997Y019862D01*
X026201Y019659D01*
X026201Y019862D02*
X026201Y019455D01*
X026402Y019455D02*
X026504Y019557D01*
X026504Y019964D01*
X026606Y019862D02*
X026402Y019862D01*
X026806Y019761D02*
X026806Y019455D01*
X026806Y019761D02*
X026908Y019862D01*
X027213Y019862D01*
X027213Y019455D01*
X027414Y019557D02*
X027414Y019761D01*
X027516Y019862D01*
X027719Y019862D01*
X027821Y019761D01*
X027821Y019557D01*
X027719Y019455D01*
X027516Y019455D01*
X027414Y019557D01*
X028022Y019557D02*
X028124Y019455D01*
X028327Y019455D01*
X028429Y019557D01*
X028429Y019964D01*
X028327Y020066D01*
X028124Y020066D01*
X028022Y019964D01*
X028630Y019862D02*
X028732Y019862D01*
X028935Y019659D01*
X028935Y019862D02*
X028935Y019455D01*
X029136Y019557D02*
X029136Y019761D01*
X029238Y019862D01*
X029441Y019862D01*
X029543Y019761D01*
X029543Y019557D01*
X029441Y019455D01*
X029238Y019455D01*
X029136Y019557D01*
X029745Y019455D02*
X029846Y019557D01*
X029846Y019964D01*
X029745Y019862D02*
X029948Y019862D01*
X030149Y019761D02*
X030251Y019862D01*
X030454Y019862D01*
X030556Y019761D01*
X030556Y019557D01*
X030454Y019455D01*
X030251Y019455D01*
X030149Y019557D01*
X030149Y019761D01*
X030757Y020066D02*
X030757Y019455D01*
X031164Y019455D02*
X031164Y020066D01*
X030960Y019862D01*
X030757Y020066D01*
X031364Y019354D02*
X031771Y019354D01*
X032074Y019455D02*
X032277Y019455D01*
X032379Y019557D01*
X032379Y019761D01*
X032277Y019862D01*
X032074Y019862D01*
X031972Y019761D01*
X031972Y019659D01*
X032379Y019659D01*
X032581Y019455D02*
X032784Y019455D01*
X032682Y019455D02*
X032682Y020066D01*
X032784Y020066D01*
X032985Y019862D02*
X032985Y019455D01*
X033290Y019455D01*
X033392Y019557D01*
X033392Y019862D01*
X033593Y019862D02*
X033898Y019862D01*
X034000Y019761D01*
X034000Y019557D01*
X033898Y019455D01*
X033593Y019455D01*
X033593Y020066D01*
X034200Y019761D02*
X034302Y019862D01*
X034506Y019862D01*
X034607Y019761D01*
X034607Y019557D01*
X034506Y019455D01*
X034302Y019455D01*
X034200Y019557D01*
X034200Y019761D01*
X034808Y019761D02*
X034808Y019455D01*
X035011Y019455D02*
X035011Y019761D01*
X034910Y019862D01*
X034808Y019761D01*
X035011Y019761D02*
X035113Y019862D01*
X035215Y019862D01*
X035215Y019455D01*
D13*
X033065Y021190D03*
X033065Y021325D03*
X033065Y021400D03*
X032990Y021400D03*
X032990Y021475D03*
X032990Y021505D03*
X032990Y021550D03*
X032990Y021580D03*
X032990Y021625D03*
X032990Y021655D03*
X032915Y021700D03*
X032855Y021715D03*
X032855Y021730D03*
X032840Y021775D03*
X032900Y021925D03*
X032900Y021940D03*
X032825Y022150D03*
X032810Y022165D03*
X032765Y022195D03*
X032690Y022195D03*
X032690Y022210D03*
X032690Y022270D03*
X032690Y022285D03*
X032690Y022345D03*
X032690Y022360D03*
X032690Y022420D03*
X032690Y022435D03*
X032690Y022495D03*
X032690Y022510D03*
X032615Y022510D03*
X032615Y022495D03*
X032615Y022435D03*
X032615Y022420D03*
X032630Y022330D03*
X032765Y022270D03*
X032705Y022090D03*
X032915Y021580D03*
X032915Y021550D03*
X032930Y021490D03*
X033065Y021475D03*
X032555Y022525D03*
X032555Y022555D03*
X032555Y022570D03*
X032540Y022585D03*
X032615Y022585D03*
X032615Y022570D03*
X032615Y022720D03*
X032600Y022735D03*
X032600Y022750D03*
X032585Y022780D03*
X032540Y022810D03*
X032465Y022810D03*
X032480Y022750D03*
X032375Y023365D03*
X032315Y023410D03*
X032240Y023410D03*
X032165Y023410D03*
X032090Y023410D03*
X032090Y023470D03*
X032015Y023470D03*
X032015Y023410D03*
X031940Y023410D03*
X031940Y023395D03*
X031865Y023395D03*
X031865Y023410D03*
X031865Y023470D03*
X031790Y023470D03*
X031790Y023410D03*
X031790Y023395D03*
X031715Y023395D03*
X031715Y023410D03*
X031715Y023470D03*
X031640Y023470D03*
X031640Y023410D03*
X031640Y023395D03*
X031565Y023395D03*
X031490Y023395D03*
X031415Y023395D03*
X031490Y023470D03*
X031565Y023470D03*
X031940Y023470D03*
X032780Y023755D03*
X032840Y023770D03*
X032840Y023785D03*
X032840Y023845D03*
X032840Y023860D03*
X032840Y023920D03*
X032840Y023935D03*
X032825Y023980D03*
X032765Y023995D03*
X032705Y023980D03*
X032705Y023965D03*
X032765Y023920D03*
X032765Y023860D03*
X032765Y023845D03*
X032900Y023800D03*
X032915Y023710D03*
X032915Y023695D03*
X032915Y023635D03*
X032960Y023605D03*
X032975Y023560D03*
X032990Y023545D03*
X032915Y023560D03*
X032855Y023575D03*
X032840Y023635D03*
X032840Y023695D03*
X032840Y023710D03*
X032915Y023410D03*
X032810Y024040D03*
X032765Y024070D03*
X032690Y024070D03*
X032630Y024175D03*
X032690Y024355D03*
X032675Y024400D03*
X032675Y024415D03*
X032555Y024400D03*
X032540Y024475D03*
X032540Y024550D03*
X032480Y024565D03*
X032465Y024625D03*
X032465Y024655D03*
X032465Y024700D03*
X032465Y024730D03*
X032465Y024775D03*
X032405Y024790D03*
X032390Y024850D03*
X032465Y024850D03*
X032465Y024940D03*
X032390Y025015D03*
X032540Y024790D03*
X032540Y024775D03*
X032540Y024730D03*
X032540Y024700D03*
X032540Y024655D03*
X032540Y024625D03*
X032615Y024580D03*
X030740Y023425D03*
X030665Y023425D03*
X030665Y023380D03*
X030590Y023380D03*
X030590Y023425D03*
X030590Y023455D03*
X030515Y023455D03*
X030515Y023425D03*
X030440Y023425D03*
X030440Y023365D03*
X030365Y023365D03*
X030365Y023425D03*
X030290Y023425D03*
X030290Y023365D03*
X030215Y023365D03*
X030065Y023440D03*
X033515Y022735D03*
X033590Y022735D03*
X033665Y022735D03*
X033740Y022735D03*
X033740Y022795D03*
X033740Y022810D03*
X033665Y022810D03*
X033815Y022810D03*
X033815Y022795D03*
X033815Y022735D03*
X033890Y022735D03*
X033890Y022795D03*
X033890Y022810D03*
X033965Y022810D03*
X033965Y022795D03*
X033965Y022735D03*
X034040Y022735D03*
X034040Y022795D03*
X034040Y022810D03*
X034115Y022810D03*
X034115Y022795D03*
X034190Y022795D03*
X034790Y022825D03*
X034865Y022825D03*
X034865Y022750D03*
X034940Y022750D03*
X034940Y022780D03*
X034940Y022825D03*
X035015Y022825D03*
X035015Y022780D03*
X035015Y022750D03*
X035090Y022750D03*
X035165Y022750D03*
X035165Y022825D03*
X035165Y022840D03*
X035240Y022840D03*
X035315Y022765D03*
X035390Y022765D03*
X035090Y022825D03*
D14*
X035098Y022840D03*
X035023Y022840D03*
X034948Y022840D03*
X034873Y022840D03*
X034873Y022780D03*
X034798Y022780D03*
X034783Y022750D03*
X034723Y022780D03*
X034708Y022750D03*
X034648Y022780D03*
X034633Y022825D03*
X034648Y022840D03*
X034708Y022825D03*
X034723Y022840D03*
X034798Y022840D03*
X035173Y022765D03*
X035248Y022765D03*
X033673Y022795D03*
X033598Y022795D03*
X033583Y022810D03*
X033523Y022795D03*
X033508Y022810D03*
X033448Y022825D03*
X033448Y022840D03*
X032983Y023410D03*
X032998Y023470D03*
X032983Y023485D03*
X032923Y023470D03*
X032908Y023485D03*
X032923Y023425D03*
X032923Y023545D03*
X032983Y023575D03*
X032923Y023620D03*
X032848Y023620D03*
X032848Y023605D03*
X032908Y023755D03*
X032773Y023800D03*
X032773Y023830D03*
X032833Y023950D03*
X032698Y024025D03*
X032758Y024175D03*
X032623Y024190D03*
X032623Y024205D03*
X032623Y024250D03*
X032683Y024325D03*
X032623Y024355D03*
X032623Y024430D03*
X032608Y024475D03*
X032623Y024505D03*
X032608Y024550D03*
X032608Y024565D03*
X032548Y024580D03*
X032548Y024505D03*
X032548Y024430D03*
X032548Y024415D03*
X032473Y024640D03*
X032473Y024790D03*
X032473Y024865D03*
X032398Y024865D03*
X032398Y024940D03*
X032323Y023470D03*
X032323Y023395D03*
X032368Y023380D03*
X032248Y023395D03*
X032248Y023470D03*
X032173Y023470D03*
X032173Y023395D03*
X032098Y023395D03*
X032023Y023395D03*
X031948Y023365D03*
X031873Y023365D03*
X031723Y023365D03*
X031648Y023365D03*
X031573Y023365D03*
X031498Y023365D03*
X031423Y023365D03*
X031348Y023365D03*
X031273Y023365D03*
X031198Y023365D03*
X031123Y023365D03*
X031048Y023365D03*
X031048Y023380D03*
X031048Y023455D03*
X030973Y023455D03*
X030973Y023380D03*
X030973Y023365D03*
X030898Y023365D03*
X030898Y023380D03*
X030883Y023425D03*
X030898Y023455D03*
X030823Y023455D03*
X030808Y023425D03*
X030823Y023380D03*
X030823Y023365D03*
X030748Y023365D03*
X030748Y023380D03*
X030748Y023455D03*
X030673Y023455D03*
X030673Y023365D03*
X030598Y023365D03*
X030523Y023365D03*
X030298Y023440D03*
X030223Y023440D03*
X030148Y023440D03*
X032473Y022795D03*
X032473Y022780D03*
X032533Y022735D03*
X032548Y022720D03*
X032533Y022660D03*
X032548Y022645D03*
X032548Y022600D03*
X032608Y022660D03*
X032623Y022645D03*
X032668Y022555D03*
X032683Y022525D03*
X032623Y022375D03*
X032758Y022330D03*
X032758Y022300D03*
X032698Y022180D03*
X032698Y022165D03*
X032698Y022150D03*
X032833Y022105D03*
X032833Y022075D03*
X032773Y022000D03*
X032773Y021955D03*
X032773Y021940D03*
X032908Y021880D03*
X032908Y021850D03*
X032923Y021805D03*
X032908Y021775D03*
X032923Y021730D03*
X032983Y021715D03*
X032983Y021700D03*
X032923Y021655D03*
X032908Y021625D03*
X032923Y021565D03*
X033058Y021490D03*
X033073Y021415D03*
X033073Y021340D03*
X033073Y021265D03*
X032998Y021340D03*
X032848Y021805D03*
X032548Y022795D03*
D15*
X032540Y022750D03*
X032540Y022675D03*
X032540Y022630D03*
X032615Y022600D03*
X032615Y022525D03*
X032615Y022480D03*
X032615Y022450D03*
X032615Y022405D03*
X032615Y022390D03*
X032690Y022375D03*
X032690Y022405D03*
X032690Y022450D03*
X032690Y022330D03*
X032690Y022300D03*
X032690Y022255D03*
X032690Y022240D03*
X032690Y022225D03*
X032765Y022225D03*
X032765Y022255D03*
X032750Y022315D03*
X032765Y022180D03*
X032765Y022150D03*
X032765Y022105D03*
X032765Y022075D03*
X032765Y022030D03*
X032765Y022015D03*
X032840Y022015D03*
X032840Y022000D03*
X032840Y022030D03*
X032825Y022090D03*
X032840Y021955D03*
X032840Y021940D03*
X032840Y021925D03*
X032840Y021880D03*
X032840Y021865D03*
X032840Y021850D03*
X032840Y021790D03*
X032915Y021790D03*
X032915Y021715D03*
X032915Y021640D03*
X032990Y021640D03*
X032990Y021565D03*
X032990Y021490D03*
X032990Y021415D03*
X032915Y021865D03*
X032615Y022675D03*
X032600Y022705D03*
X032315Y023365D03*
X032315Y023425D03*
X032240Y023425D03*
X032240Y023365D03*
X032165Y023365D03*
X032165Y023425D03*
X032090Y023425D03*
X032090Y023365D03*
X032015Y023365D03*
X032015Y023425D03*
X031940Y023425D03*
X031940Y023380D03*
X031865Y023380D03*
X031865Y023425D03*
X031865Y023455D03*
X031790Y023455D03*
X031790Y023425D03*
X031790Y023380D03*
X031790Y023365D03*
X031715Y023380D03*
X031715Y023425D03*
X031715Y023455D03*
X031640Y023455D03*
X031640Y023425D03*
X031640Y023380D03*
X031565Y023380D03*
X031565Y023425D03*
X031565Y023455D03*
X031490Y023455D03*
X031490Y023425D03*
X031490Y023380D03*
X031415Y023380D03*
X031415Y023425D03*
X031415Y023455D03*
X031340Y023455D03*
X031340Y023425D03*
X031340Y023380D03*
X031265Y023380D03*
X031265Y023425D03*
X031265Y023455D03*
X031190Y023455D03*
X031190Y023440D03*
X031190Y023425D03*
X031190Y023380D03*
X031115Y023380D03*
X031115Y023425D03*
X031115Y023440D03*
X031115Y023455D03*
X031040Y023440D03*
X031040Y023425D03*
X030965Y023425D03*
X030965Y023440D03*
X030890Y023440D03*
X030815Y023440D03*
X030740Y023440D03*
X030665Y023440D03*
X030590Y023440D03*
X030515Y023440D03*
X030440Y023440D03*
X030365Y023440D03*
X032615Y024265D03*
X032615Y024280D03*
X032615Y024325D03*
X032615Y024340D03*
X032615Y024400D03*
X032615Y024415D03*
X032615Y024490D03*
X032540Y024490D03*
X032540Y024565D03*
X032540Y024640D03*
X032540Y024715D03*
X032465Y024715D03*
X032690Y024340D03*
X032690Y024280D03*
X032690Y024265D03*
X032690Y024250D03*
X032690Y024205D03*
X032690Y024175D03*
X032690Y024130D03*
X032690Y024100D03*
X032690Y024055D03*
X032690Y024040D03*
X032765Y024025D03*
X032765Y024055D03*
X032765Y024100D03*
X032765Y024130D03*
X032750Y024190D03*
X032765Y023980D03*
X032765Y023950D03*
X032765Y023905D03*
X032765Y023890D03*
X032765Y023875D03*
X032840Y023875D03*
X032840Y023905D03*
X032825Y023965D03*
X032840Y023830D03*
X032840Y023800D03*
X032840Y023725D03*
X032840Y023680D03*
X032840Y023650D03*
X032915Y023650D03*
X032915Y023575D03*
X032915Y023500D03*
X032915Y023455D03*
X032990Y023425D03*
X032990Y023500D03*
X032975Y023530D03*
X032915Y023725D03*
X033515Y022840D03*
X033515Y022825D03*
X033515Y022750D03*
X033590Y022750D03*
X033665Y022750D03*
X033740Y022750D03*
X033815Y022750D03*
X033890Y022750D03*
X033965Y022750D03*
X033965Y022780D03*
X033965Y022825D03*
X033965Y022840D03*
X033890Y022840D03*
X033890Y022825D03*
X033815Y022825D03*
X033815Y022840D03*
X033740Y022840D03*
X033740Y022825D03*
X033665Y022825D03*
X033665Y022840D03*
X033590Y022840D03*
X033590Y022825D03*
X034040Y022825D03*
X034040Y022840D03*
X034040Y022780D03*
X034040Y022750D03*
X034115Y022750D03*
X034115Y022780D03*
X034115Y022825D03*
X034115Y022840D03*
X034190Y022840D03*
X034190Y022825D03*
X034190Y022780D03*
X034190Y022750D03*
X034265Y022750D03*
X034265Y022780D03*
X034265Y022825D03*
X034265Y022840D03*
X034340Y022840D03*
X034340Y022825D03*
X034340Y022780D03*
X034340Y022750D03*
X034415Y022750D03*
X034415Y022780D03*
X034415Y022825D03*
X034415Y022840D03*
X034490Y022840D03*
X034490Y022825D03*
X034490Y022780D03*
X034490Y022765D03*
X034490Y022750D03*
X034565Y022750D03*
X034565Y022765D03*
X034565Y022780D03*
X034565Y022825D03*
X034565Y022840D03*
X034640Y022765D03*
X034640Y022750D03*
X034715Y022765D03*
X034790Y022765D03*
X034865Y022765D03*
X034940Y022765D03*
X035015Y022765D03*
X035090Y022765D03*
D16*
X034408Y022765D03*
X034333Y022765D03*
X034258Y022765D03*
X034183Y022765D03*
X034108Y022765D03*
X034033Y022765D03*
X033883Y022780D03*
X033808Y022780D03*
X033733Y022780D03*
X033658Y022780D03*
X033583Y022780D03*
X033508Y022780D03*
X032983Y023455D03*
X032908Y023530D03*
X032908Y023605D03*
X032908Y023680D03*
X032833Y023755D03*
X032833Y023890D03*
X032758Y023965D03*
X032758Y024040D03*
X032758Y024115D03*
X032683Y024115D03*
X032683Y024190D03*
X032308Y023380D03*
X032233Y023380D03*
X032158Y023380D03*
X032158Y023455D03*
X032083Y023455D03*
X032083Y023380D03*
X032008Y023380D03*
X032008Y023455D03*
X031933Y023455D03*
X031633Y023440D03*
X031558Y023440D03*
X031483Y023440D03*
X031408Y023440D03*
X031333Y023440D03*
X031258Y023440D03*
X032533Y022780D03*
X032533Y022705D03*
X032608Y022630D03*
X032608Y022555D03*
X032683Y022480D03*
X032758Y022240D03*
X032758Y022165D03*
X032758Y022090D03*
D17*
X032105Y022465D03*
X031940Y022300D03*
X031685Y022450D03*
X031670Y022465D03*
X030980Y022480D03*
X030800Y022300D03*
X030545Y022450D03*
X030470Y022630D03*
X030365Y023005D03*
X030785Y023020D03*
D18*
X030815Y022990D03*
X030830Y022960D03*
X030845Y022930D03*
X030845Y022915D03*
X030845Y022900D03*
X030995Y022570D03*
X030995Y022555D03*
X030995Y022540D03*
X030995Y022525D03*
X030485Y022510D03*
X030485Y022495D03*
X030470Y022525D03*
X030470Y022540D03*
X030455Y022570D03*
X030455Y022585D03*
X030455Y022600D03*
X030350Y022945D03*
X030530Y023170D03*
X031385Y023155D03*
X031400Y023140D03*
X031400Y023125D03*
X031400Y023110D03*
X031415Y023095D03*
X031415Y023080D03*
X031415Y023065D03*
X031430Y023050D03*
X031430Y023035D03*
X031430Y023020D03*
X031445Y023005D03*
X031445Y022990D03*
X031445Y022975D03*
X031460Y022960D03*
X031460Y022945D03*
X031460Y022930D03*
X031475Y022915D03*
X031475Y022900D03*
X031475Y022885D03*
X031490Y022870D03*
X031490Y022855D03*
X031490Y022840D03*
X031505Y022825D03*
X031505Y022810D03*
X031520Y022780D03*
X031520Y022765D03*
X031535Y022750D03*
X031535Y022735D03*
X031535Y022720D03*
X031550Y022705D03*
X031550Y022690D03*
X031550Y022675D03*
X031565Y022660D03*
X031565Y022645D03*
X031565Y022630D03*
X031580Y022615D03*
X031580Y022600D03*
X031595Y022585D03*
X031595Y022570D03*
X031610Y022540D03*
X031640Y022495D03*
X032075Y022660D03*
X032075Y022675D03*
X032075Y022690D03*
X032060Y022705D03*
X032060Y022720D03*
X032060Y022735D03*
X032045Y022750D03*
X032045Y022765D03*
X032045Y022780D03*
X032030Y022795D03*
X032030Y022810D03*
X032030Y022825D03*
X032015Y022840D03*
X032015Y022855D03*
X032015Y022870D03*
X032000Y022885D03*
X032000Y022900D03*
X031985Y022930D03*
X031985Y022945D03*
X031970Y022975D03*
X031970Y022990D03*
X031955Y023020D03*
X031955Y023035D03*
X031940Y023065D03*
X031940Y023080D03*
X031925Y023110D03*
X031925Y023125D03*
X031910Y023140D03*
X031910Y023155D03*
X032090Y022645D03*
X032090Y022630D03*
X032090Y022615D03*
X032105Y022585D03*
X032105Y022570D03*
X032105Y022555D03*
X032105Y022540D03*
X032615Y022540D03*
X033035Y022735D03*
X033035Y022750D03*
X033035Y022765D03*
X033020Y022780D03*
X033020Y022795D03*
X033020Y022810D03*
X033005Y022825D03*
X033005Y022840D03*
X032990Y022870D03*
X032990Y022885D03*
X032975Y022915D03*
X032975Y022930D03*
X032960Y022945D03*
X032960Y022960D03*
X032960Y022975D03*
X032945Y022990D03*
X032945Y023005D03*
X032945Y023020D03*
X033050Y022720D03*
X033050Y022705D03*
X033050Y022690D03*
X033065Y022675D03*
X033065Y022660D03*
X033065Y022645D03*
X033080Y022630D03*
X033080Y022615D03*
X033080Y022600D03*
X033095Y022585D03*
X033095Y022570D03*
X033095Y022555D03*
X033110Y022540D03*
X033110Y022525D03*
X033110Y022510D03*
X033125Y022495D03*
X033125Y022480D03*
X033125Y022465D03*
X033140Y022450D03*
X033140Y022435D03*
X033140Y022420D03*
X033155Y022405D03*
X033155Y022390D03*
X033155Y022375D03*
X033170Y022360D03*
X033170Y022345D03*
X033170Y022330D03*
X033185Y022315D03*
X032915Y023590D03*
X032855Y023740D03*
D19*
X032698Y022390D03*
X032668Y022315D03*
D20*
X031940Y022315D03*
X030530Y022675D03*
D21*
X030793Y022315D03*
D22*
X031933Y022330D03*
D23*
X030800Y022330D03*
X030560Y022690D03*
X030740Y022810D03*
D24*
X031925Y022345D03*
D25*
X030793Y022345D03*
X030598Y022705D03*
X030718Y022795D03*
D26*
X030553Y023095D03*
X031918Y022360D03*
D27*
X030785Y022360D03*
X030635Y022735D03*
X030650Y022750D03*
X030665Y022765D03*
X030545Y023110D03*
D28*
X030778Y022375D03*
X031918Y022375D03*
D29*
X031910Y022390D03*
X030560Y023065D03*
D30*
X030778Y022390D03*
D31*
X030778Y022405D03*
X030568Y023050D03*
X031903Y022405D03*
D32*
X031903Y022420D03*
X030763Y022420D03*
D33*
X030943Y022435D03*
X030823Y022855D03*
X031708Y022435D03*
X032083Y022435D03*
D34*
X030965Y022450D03*
X030575Y022435D03*
X030485Y022645D03*
X030395Y023035D03*
X030755Y023035D03*
D35*
X030838Y022870D03*
X030373Y023020D03*
X030973Y022465D03*
X032098Y022450D03*
D36*
X032585Y022615D03*
X032570Y022690D03*
X032645Y022465D03*
X032960Y023440D03*
X032945Y023515D03*
X032885Y023665D03*
X032270Y023455D03*
D37*
X032113Y022525D03*
X032113Y022510D03*
X032113Y022495D03*
X032113Y022480D03*
X031648Y022480D03*
X031633Y022510D03*
X031618Y022525D03*
X031603Y022555D03*
X031513Y022795D03*
X030988Y022510D03*
X030988Y022495D03*
X030853Y022885D03*
X030793Y023005D03*
X030358Y022990D03*
X030358Y022975D03*
X030358Y022960D03*
X030463Y022615D03*
X030508Y022480D03*
X030523Y022465D03*
D38*
X030463Y022555D03*
X030358Y022915D03*
X030358Y022930D03*
X030823Y022975D03*
X030838Y022945D03*
X030988Y022585D03*
X031993Y022915D03*
X031978Y022960D03*
X031963Y023005D03*
X031948Y023050D03*
X031933Y023095D03*
X032098Y022600D03*
X032533Y022765D03*
X032983Y022900D03*
X032998Y022855D03*
X032833Y023815D03*
D39*
X030808Y022840D03*
X030508Y022660D03*
D40*
X030613Y022720D03*
X030688Y022780D03*
D41*
X030560Y023080D03*
X033725Y022765D03*
D42*
X030778Y022825D03*
D43*
X032885Y023155D03*
X032900Y023125D03*
X032900Y023110D03*
X032915Y023080D03*
X032915Y023065D03*
X032930Y023035D03*
D44*
X032923Y023050D03*
X032908Y023095D03*
X032893Y023140D03*
D45*
X030545Y023125D03*
D46*
X030538Y023140D03*
D47*
X030530Y023155D03*
D48*
X032015Y023440D03*
M02*
