G75*
G70*
%OFA0B0*%
%FSLAX24Y24*%
%IPPOS*%
%LPD*%
%AMOC8*
5,1,8,0,0,1.08239X$1,22.5*
%
%ADD10R,0.0096X0.0012*%
%ADD11R,0.0132X0.0012*%
%ADD12R,0.0012X0.0012*%
%ADD13R,0.0168X0.0012*%
%ADD14R,0.0012X0.0012*%
%ADD15R,0.0192X0.0012*%
%ADD16R,0.0192X0.0012*%
%ADD17R,0.0228X0.0012*%
%ADD18R,0.0012X0.0012*%
%ADD19R,0.0240X0.0012*%
%ADD20R,0.0084X0.0012*%
%ADD21R,0.0132X0.0012*%
%ADD22R,0.0072X0.0012*%
%ADD23R,0.0084X0.0012*%
%ADD24R,0.0120X0.0012*%
%ADD25R,0.0096X0.0012*%
%ADD26R,0.0120X0.0012*%
%ADD27R,0.0108X0.0012*%
%ADD28R,0.0024X0.0012*%
%ADD29R,0.0108X0.0012*%
%ADD30R,0.0072X0.0012*%
%ADD31R,0.0276X0.0012*%
%ADD32R,0.0096X0.0012*%
%ADD33R,0.0216X0.0012*%
%ADD34R,0.0096X0.0012*%
%ADD35R,0.0144X0.0012*%
%ADD36R,0.0312X0.0012*%
%ADD37R,0.0132X0.0012*%
%ADD38R,0.0252X0.0012*%
%ADD39R,0.0192X0.0012*%
%ADD40R,0.0348X0.0012*%
%ADD41R,0.0276X0.0012*%
%ADD42R,0.0360X0.0012*%
%ADD43R,0.0324X0.0012*%
%ADD44R,0.0288X0.0012*%
%ADD45R,0.0372X0.0012*%
%ADD46R,0.0300X0.0012*%
%ADD47R,0.0276X0.0012*%
%ADD48R,0.0024X0.0012*%
%ADD49R,0.0384X0.0012*%
%ADD50R,0.0324X0.0012*%
%ADD51R,0.0288X0.0012*%
%ADD52R,0.0396X0.0012*%
%ADD53R,0.0336X0.0012*%
%ADD54R,0.0180X0.0012*%
%ADD55R,0.0156X0.0012*%
%ADD56R,0.0144X0.0012*%
%ADD57R,0.0108X0.0012*%
%ADD58R,0.0024X0.0012*%
%ADD59R,0.0156X0.0012*%
%ADD60R,0.0108X0.0012*%
%ADD61R,0.0144X0.0012*%
%ADD62R,0.0036X0.0012*%
%ADD63R,0.0024X0.0012*%
%ADD64R,0.0012X0.0012*%
%ADD65R,0.0144X0.0012*%
%ADD66R,0.0132X0.0012*%
%ADD67R,0.0372X0.0012*%
%ADD68R,0.0216X0.0012*%
%ADD69R,0.0204X0.0012*%
%ADD70R,0.0204X0.0012*%
%ADD71R,0.0036X0.0012*%
%ADD72R,0.0228X0.0012*%
%ADD73R,0.0036X0.0012*%
%ADD74R,0.0048X0.0012*%
%ADD75R,0.0264X0.0012*%
%ADD76R,0.0036X0.0012*%
%ADD77R,0.0216X0.0012*%
%ADD78R,0.0168X0.0012*%
%ADD79R,0.0384X0.0012*%
%ADD80R,0.0552X0.0012*%
%ADD81R,0.0540X0.0012*%
%ADD82R,0.0228X0.0012*%
%ADD83R,0.0180X0.0012*%
%ADD84R,0.0060X0.0012*%
%ADD85R,0.0072X0.0012*%
%ADD86R,0.0048X0.0012*%
%ADD87R,0.0060X0.0012*%
%ADD88R,0.0360X0.0012*%
%ADD89R,0.0048X0.0012*%
%ADD90R,0.0048X0.0012*%
%ADD91R,0.0228X0.0012*%
%ADD92R,0.0336X0.0012*%
%ADD93R,0.0216X0.0012*%
%ADD94R,0.0432X0.0012*%
%ADD95R,0.0492X0.0012*%
%ADD96R,0.0504X0.0012*%
%ADD97R,0.0528X0.0012*%
%ADD98R,0.0456X0.0012*%
%ADD99R,0.0492X0.0012*%
%ADD100R,0.0564X0.0012*%
%ADD101R,0.0516X0.0012*%
%ADD102R,0.0576X0.0012*%
%ADD103R,0.0528X0.0012*%
%ADD104R,0.0600X0.0012*%
%ADD105R,0.0564X0.0012*%
%ADD106R,0.0396X0.0012*%
%ADD107R,0.0264X0.0012*%
%ADD108R,0.0252X0.0012*%
%ADD109R,0.0240X0.0012*%
%ADD110R,0.0168X0.0012*%
%ADD111R,0.0072X0.0012*%
%ADD112R,0.0156X0.0012*%
%ADD113R,0.0156X0.0012*%
%ADD114R,0.0408X0.0012*%
%ADD115R,0.0420X0.0012*%
%ADD116R,0.0432X0.0012*%
%ADD117R,0.0324X0.0012*%
%ADD118R,0.0204X0.0012*%
%ADD119R,0.0792X0.0012*%
%ADD120R,0.0576X0.0012*%
%ADD121R,0.0816X0.0012*%
%ADD122R,0.0576X0.0012*%
%ADD123R,0.0816X0.0012*%
%ADD124R,0.0576X0.0012*%
%ADD125R,0.0552X0.0012*%
%ADD126R,0.0816X0.0012*%
%ADD127R,0.0528X0.0012*%
%ADD128R,0.0504X0.0012*%
%ADD129R,0.0480X0.0012*%
%ADD130R,0.0300X0.0012*%
%ADD131R,0.0672X0.0012*%
%ADD132C,0.0040*%
%ADD133C,0.0060*%
%ADD134C,0.0050*%
%ADD135R,0.0150X0.0200*%
%ADD136R,0.0200X0.0150*%
%ADD137R,0.0200X0.1000*%
%ADD138R,0.0750X0.0300*%
%ADD139C,0.0020*%
%ADD140C,0.0100*%
%ADD141C,0.0030*%
%ADD142R,0.0250X0.0900*%
%ADD143R,0.0900X0.0250*%
%ADD144R,0.0240X0.0340*%
%ADD145C,0.0449*%
D10*
X033710Y007559D03*
X033890Y007679D03*
X035726Y008159D03*
D11*
X035720Y008147D03*
X035744Y008039D03*
X035744Y008027D03*
X035732Y008003D03*
X035732Y007991D03*
X035720Y007979D03*
X035720Y007967D03*
X035696Y007907D03*
X035684Y007871D03*
X035660Y007811D03*
X035660Y007799D03*
X035480Y007907D03*
X035492Y007931D03*
X035492Y007943D03*
X035504Y007979D03*
X035516Y008003D03*
X035540Y008051D03*
X035432Y007787D03*
X035216Y007871D03*
X035192Y007847D03*
X035012Y007859D03*
X035012Y007871D03*
X035012Y007883D03*
X035012Y007907D03*
X035024Y007931D03*
X035024Y007943D03*
X034724Y007943D03*
X034712Y007907D03*
X034676Y007811D03*
X034436Y007943D03*
X034304Y008099D03*
X034052Y008099D03*
X034040Y008063D03*
X034016Y008003D03*
X034016Y007991D03*
X033992Y007931D03*
X033944Y007787D03*
X033764Y007859D03*
X033764Y007871D03*
X033764Y007883D03*
X033800Y007991D03*
X033812Y008027D03*
X033824Y008063D03*
X033836Y008087D03*
X033692Y007667D03*
X033692Y007643D03*
X033716Y007571D03*
X034232Y007763D03*
X033296Y008099D03*
X033284Y008111D03*
X033284Y008123D03*
X033296Y008171D03*
X032960Y008891D03*
X032972Y008927D03*
X032972Y008939D03*
X032552Y009479D03*
X032552Y009491D03*
X032612Y009647D03*
X035972Y008063D03*
X035960Y008027D03*
X035936Y007967D03*
X035900Y007859D03*
D12*
X035396Y007763D03*
X034664Y008003D03*
X032936Y008639D03*
X032984Y008771D03*
X033032Y008903D03*
X032780Y008507D03*
X032756Y008507D03*
X032780Y008423D03*
X032696Y008339D03*
X032780Y008231D03*
X032780Y008219D03*
X032744Y008123D03*
X032744Y008111D03*
X032672Y008087D03*
X032672Y008039D03*
X032672Y008003D03*
X032672Y007931D03*
X032600Y007859D03*
X032576Y007859D03*
X032540Y007871D03*
X032552Y007907D03*
X032564Y007979D03*
X032624Y007811D03*
X032624Y007799D03*
X032504Y007763D03*
X032516Y007691D03*
X032504Y007679D03*
X032552Y007643D03*
X032552Y007631D03*
X032516Y007583D03*
X032636Y008159D03*
X031952Y008951D03*
X031616Y008939D03*
X031604Y008963D03*
X031532Y008939D03*
X031520Y008963D03*
X031520Y008879D03*
X031604Y008879D03*
X031436Y008879D03*
X031400Y008891D03*
X031400Y008927D03*
X031436Y008963D03*
X031316Y008891D03*
X031292Y008891D03*
X031100Y008891D03*
X031016Y008891D03*
X031016Y008927D03*
X030932Y008927D03*
X030932Y008891D03*
X030644Y008879D03*
X030644Y008939D03*
X030560Y008939D03*
X030512Y008903D03*
X030464Y008867D03*
X032732Y009791D03*
X032732Y009803D03*
X032780Y009923D03*
X032780Y010031D03*
X032792Y010067D03*
X032756Y010079D03*
X032720Y010043D03*
X032732Y010163D03*
X032756Y010163D03*
X032780Y010163D03*
X032840Y010163D03*
X032864Y010163D03*
X032864Y010187D03*
X032864Y010247D03*
X032804Y010247D03*
X032780Y010247D03*
X032804Y010331D03*
X032912Y010307D03*
X032960Y010427D03*
X032960Y010439D03*
X032960Y010451D03*
X032972Y010499D03*
X032924Y010499D03*
X032924Y010547D03*
X032972Y010607D03*
X032960Y010619D03*
X033020Y010643D03*
X032972Y010691D03*
X033020Y010727D03*
X032852Y010487D03*
X033140Y009443D03*
X033176Y009443D03*
X033212Y009443D03*
X033272Y009443D03*
X034052Y009527D03*
X034136Y009527D03*
X034136Y009479D03*
X034220Y009479D03*
X034244Y009527D03*
X034364Y009527D03*
X034412Y009527D03*
X034412Y009479D03*
X034496Y009479D03*
X034496Y009527D03*
X034544Y009527D03*
X034580Y009527D03*
X034580Y009503D03*
X034664Y009503D03*
X034712Y009527D03*
X035012Y009491D03*
D13*
X035066Y008003D03*
X033794Y007799D03*
X033722Y007583D03*
X033494Y007871D03*
X033326Y008207D03*
X032042Y008963D03*
D14*
X031532Y008855D03*
X032672Y008255D03*
X032672Y007955D03*
X032600Y007775D03*
X032576Y007775D03*
X032516Y007775D03*
X032552Y007715D03*
X032504Y007595D03*
X032912Y008915D03*
X033032Y008915D03*
X034676Y009515D03*
X032912Y010295D03*
X032924Y010415D03*
X032840Y010415D03*
X032852Y010475D03*
X032960Y010535D03*
X032960Y010595D03*
X032972Y010775D03*
X033056Y010775D03*
X032696Y010055D03*
X032672Y009755D03*
X030596Y008915D03*
D15*
X033794Y008615D03*
X033722Y007595D03*
D16*
X033722Y007607D03*
X034634Y008963D03*
X035714Y008123D03*
D17*
X035084Y007799D03*
X034760Y008051D03*
X034760Y008063D03*
X033740Y007619D03*
X032360Y008507D03*
X032396Y008603D03*
X032456Y008771D03*
X033416Y008699D03*
X033416Y008687D03*
X033416Y008663D03*
X033416Y008651D03*
X033416Y008639D03*
X033440Y008783D03*
X033452Y008819D03*
X033500Y008951D03*
X034664Y009107D03*
X034676Y009119D03*
X035000Y008711D03*
X034976Y008663D03*
X034964Y008651D03*
D18*
X035048Y009467D03*
X034928Y009491D03*
X034628Y009479D03*
X034628Y009527D03*
X034328Y009527D03*
X032888Y010247D03*
X032888Y010331D03*
X033008Y010559D03*
X033008Y010571D03*
X033008Y010823D03*
X032708Y010067D03*
X032768Y009911D03*
X032648Y009911D03*
X031208Y008927D03*
X030848Y008927D03*
X030848Y008891D03*
X030548Y008867D03*
X032588Y008039D03*
X032588Y008003D03*
X032588Y007931D03*
X032588Y007919D03*
X032588Y007847D03*
X032588Y007763D03*
X032468Y007631D03*
X032828Y008351D03*
X032888Y008507D03*
X032768Y008531D03*
X035648Y007763D03*
D19*
X034754Y008027D03*
X034754Y008039D03*
X034442Y008159D03*
X033746Y007631D03*
X033422Y008627D03*
X031910Y008843D03*
X034946Y008627D03*
X034958Y008639D03*
X034994Y008807D03*
D20*
X033836Y007643D03*
X032720Y010031D03*
D21*
X033284Y008135D03*
X033692Y007655D03*
X033944Y007775D03*
X033980Y007895D03*
X034004Y007955D03*
X035012Y007895D03*
X035456Y007835D03*
X035672Y007835D03*
X035696Y007895D03*
X035912Y007895D03*
X035972Y008075D03*
D22*
X033854Y007655D03*
X032762Y008375D03*
X032930Y008795D03*
X032042Y008915D03*
X031826Y008855D03*
X033482Y009515D03*
X033566Y009515D03*
X033650Y009515D03*
X033734Y009515D03*
X032714Y009935D03*
X032702Y009995D03*
D23*
X035564Y008159D03*
X033872Y007667D03*
D24*
X033926Y007739D03*
X033938Y007763D03*
X033950Y007799D03*
X033986Y007907D03*
X033986Y007919D03*
X033998Y007943D03*
X034010Y007967D03*
X034010Y007979D03*
X034034Y008039D03*
X034034Y008051D03*
X034046Y008087D03*
X034058Y008111D03*
X034058Y008123D03*
X034070Y008147D03*
X033854Y008147D03*
X033842Y008111D03*
X033842Y008099D03*
X033818Y008051D03*
X033818Y008039D03*
X033806Y008003D03*
X033794Y007979D03*
X033794Y007967D03*
X033782Y007943D03*
X033782Y007931D03*
X033770Y007919D03*
X033770Y007907D03*
X033710Y007727D03*
X033698Y007703D03*
X033698Y007691D03*
X033698Y007679D03*
X034286Y008087D03*
X034454Y007931D03*
X034430Y007847D03*
X034670Y007799D03*
X034670Y007787D03*
X034682Y007823D03*
X034694Y007859D03*
X034694Y007871D03*
X034706Y007883D03*
X034718Y007919D03*
X034718Y007931D03*
X034730Y007967D03*
X034730Y007979D03*
X034742Y007991D03*
X034778Y008099D03*
X034778Y008111D03*
X035054Y008027D03*
X035066Y008039D03*
X035066Y008051D03*
X035078Y008063D03*
X035102Y008087D03*
X035282Y008099D03*
X035294Y008063D03*
X035222Y007883D03*
X035210Y007859D03*
X035018Y007847D03*
X035018Y007919D03*
X035438Y007799D03*
X035450Y007811D03*
X035450Y007823D03*
X035462Y007847D03*
X035462Y007859D03*
X035474Y007883D03*
X035486Y007919D03*
X035498Y007967D03*
X035510Y007991D03*
X035522Y008027D03*
X035534Y008039D03*
X035702Y007919D03*
X035690Y007883D03*
X035678Y007859D03*
X035678Y007847D03*
X035666Y007823D03*
X035654Y007787D03*
X035870Y007787D03*
X035870Y007799D03*
X035882Y007811D03*
X035894Y007847D03*
X035906Y007871D03*
X035906Y007883D03*
X035918Y007907D03*
X035918Y007919D03*
X035918Y007931D03*
X035930Y007943D03*
X035942Y007979D03*
X035942Y007991D03*
X035966Y008039D03*
X035966Y008051D03*
X033158Y009467D03*
D25*
X033902Y007703D03*
X033902Y007691D03*
D26*
X033710Y007715D03*
X033770Y007895D03*
X033806Y008015D03*
X033830Y008075D03*
X033854Y008135D03*
X034046Y008075D03*
X034022Y008015D03*
X034070Y008135D03*
X034706Y007895D03*
X034682Y007835D03*
X034730Y007955D03*
X034766Y008075D03*
X034790Y008135D03*
X035090Y008075D03*
X035282Y008015D03*
X035294Y008075D03*
X035522Y008015D03*
X035498Y007955D03*
X035474Y007895D03*
X035438Y007775D03*
X035654Y007775D03*
X035714Y007955D03*
X035738Y008015D03*
X035930Y007955D03*
X035954Y008015D03*
X035894Y007835D03*
X035558Y008135D03*
D27*
X033908Y007715D03*
D28*
X032786Y008243D03*
X032750Y008171D03*
X032666Y008123D03*
X032630Y008051D03*
X032630Y007991D03*
X032630Y007967D03*
X032666Y007943D03*
X032630Y007907D03*
X032630Y007883D03*
X032546Y007883D03*
X032546Y007811D03*
X032546Y007799D03*
X032546Y007727D03*
X032678Y008267D03*
X032678Y008279D03*
X032690Y008291D03*
X032726Y008387D03*
X032726Y008399D03*
X032726Y008411D03*
X032870Y008483D03*
X032918Y008603D03*
X032810Y008639D03*
X032858Y008783D03*
X032690Y009683D03*
X032606Y009791D03*
X032606Y009803D03*
X032798Y009983D03*
X032810Y010031D03*
X032810Y010163D03*
X032870Y010199D03*
X032918Y010319D03*
X032918Y010331D03*
X032930Y010379D03*
X032930Y010463D03*
X032966Y010523D03*
X032930Y010559D03*
X032930Y010643D03*
X032846Y010379D03*
X032810Y010343D03*
X034106Y009479D03*
X034190Y009479D03*
X034190Y009527D03*
X034238Y009491D03*
X034538Y009479D03*
X034586Y009491D03*
X034670Y009491D03*
X034706Y009467D03*
X034706Y009551D03*
X034790Y009551D03*
X034838Y009503D03*
X034838Y009491D03*
X034886Y009539D03*
X034970Y009539D03*
X034970Y009551D03*
X035006Y009503D03*
X034970Y009467D03*
X035090Y009503D03*
X035618Y007763D03*
X031226Y008939D03*
X031178Y008927D03*
X031178Y008891D03*
X031058Y008879D03*
X031058Y008939D03*
X031058Y008963D03*
X030890Y008951D03*
X030890Y008939D03*
X030890Y008879D03*
X030890Y008867D03*
X030806Y008867D03*
X030806Y008879D03*
X030806Y008939D03*
X030806Y008951D03*
X030686Y008903D03*
X030638Y008867D03*
X030638Y008951D03*
D29*
X032720Y009983D03*
X033860Y008159D03*
X034076Y008159D03*
X033932Y007751D03*
X033920Y007727D03*
X034436Y007859D03*
X034460Y007907D03*
X034460Y007919D03*
X034772Y008087D03*
X034784Y008123D03*
X034796Y008147D03*
X034796Y008159D03*
X035552Y008123D03*
X035564Y008147D03*
D30*
X033698Y007739D03*
X032978Y008903D03*
X031778Y008891D03*
X031658Y008879D03*
X031598Y008891D03*
X031658Y008963D03*
D31*
X033452Y008015D03*
X033272Y007775D03*
X034412Y008135D03*
D32*
X034274Y008015D03*
X033782Y007775D03*
X032582Y009635D03*
D33*
X032534Y008975D03*
X032462Y008795D03*
X032402Y008615D03*
X032354Y008495D03*
X031982Y008855D03*
X033422Y008735D03*
X033482Y008915D03*
X033554Y009095D03*
X033602Y009215D03*
X034982Y008675D03*
X034394Y007955D03*
X034262Y007775D03*
D34*
X034670Y007775D03*
X035870Y007775D03*
D35*
X035078Y007775D03*
X034406Y007835D03*
X033998Y009035D03*
X032630Y009695D03*
X032666Y009815D03*
D36*
X033506Y008279D03*
X033290Y007787D03*
D37*
X033788Y007787D03*
X034028Y008027D03*
X033848Y008123D03*
X034688Y007847D03*
X035108Y008099D03*
X035288Y008087D03*
X035288Y008051D03*
X035288Y008039D03*
X035288Y008027D03*
X035468Y007871D03*
X035708Y007931D03*
X035708Y007943D03*
X035888Y007823D03*
X035948Y008003D03*
X035948Y008159D03*
D38*
X035096Y007811D03*
X034424Y008147D03*
X034280Y007787D03*
X034976Y008819D03*
X034700Y009131D03*
X032000Y008939D03*
D39*
X032018Y008903D03*
X035078Y007787D03*
D40*
X033488Y008267D03*
X033308Y007799D03*
D41*
X033404Y008051D03*
X033524Y008291D03*
X034292Y007799D03*
X035204Y008111D03*
D42*
X035150Y007967D03*
X033326Y007811D03*
D43*
X033860Y007811D03*
X033860Y007823D03*
D44*
X034310Y007811D03*
X034394Y008111D03*
X033434Y008027D03*
X033422Y008039D03*
X031970Y008891D03*
D45*
X033464Y008243D03*
X033332Y007823D03*
X035156Y007979D03*
X035156Y007991D03*
D46*
X034316Y007823D03*
X033548Y008483D03*
X033668Y009479D03*
D47*
X034916Y008603D03*
X034400Y008123D03*
X035096Y007823D03*
D48*
X032834Y008375D03*
X032594Y008015D03*
X032582Y007835D03*
X032102Y008915D03*
X031142Y008855D03*
X030974Y008855D03*
X030722Y008855D03*
X032654Y009935D03*
X032774Y009935D03*
X032762Y010235D03*
X032882Y010535D03*
X033014Y010655D03*
X034622Y009455D03*
X034754Y009515D03*
X034922Y009515D03*
D49*
X033350Y007835D03*
D50*
X033860Y007835D03*
D51*
X035102Y007835D03*
D52*
X033560Y008507D03*
X033356Y007847D03*
X033308Y009479D03*
D53*
X033866Y007847D03*
D54*
X033512Y008003D03*
X033476Y007859D03*
X033812Y008627D03*
X031592Y008927D03*
D55*
X033500Y007883D03*
X033956Y007859D03*
X035216Y008159D03*
X035756Y008063D03*
X035960Y008087D03*
X033920Y008807D03*
X033920Y008819D03*
X033908Y008783D03*
X033896Y008771D03*
X033896Y008759D03*
X033896Y008747D03*
X033860Y008687D03*
X033848Y008663D03*
X033836Y008651D03*
X033968Y008951D03*
X033968Y008963D03*
X033980Y008987D03*
X034016Y009083D03*
X034028Y009107D03*
X034028Y009119D03*
X034040Y009143D03*
X034076Y009239D03*
X034076Y009251D03*
D56*
X034082Y009263D03*
X034034Y009131D03*
X033962Y008939D03*
X033962Y008927D03*
X032942Y008843D03*
X032894Y008711D03*
X032834Y008543D03*
X033302Y008183D03*
X033302Y008087D03*
X033542Y007979D03*
X033542Y007967D03*
X033962Y007871D03*
X033974Y007883D03*
X035942Y008147D03*
X032594Y009587D03*
X032594Y009599D03*
X032594Y009611D03*
X032582Y009563D03*
X032642Y009731D03*
X032642Y009743D03*
X032654Y009779D03*
X032702Y009899D03*
D57*
X034268Y008063D03*
X034268Y008051D03*
X034268Y008039D03*
X034268Y008027D03*
X034448Y007883D03*
X034448Y007871D03*
X034748Y008003D03*
D58*
X032990Y008795D03*
X032870Y008795D03*
X032630Y008135D03*
X032630Y008075D03*
X032630Y007895D03*
X032546Y007895D03*
X031226Y008855D03*
X031058Y008855D03*
X030890Y008855D03*
X030806Y008855D03*
X032750Y009875D03*
X032810Y010355D03*
X032930Y010475D03*
X032930Y010655D03*
X034706Y009455D03*
X034838Y009515D03*
D59*
X034064Y009215D03*
X033932Y008855D03*
X033884Y008735D03*
X033512Y007895D03*
X035564Y008075D03*
X032564Y009515D03*
D60*
X034280Y008075D03*
X034460Y007895D03*
D61*
X034298Y008003D03*
X035270Y008003D03*
X035546Y008063D03*
X035750Y008051D03*
X033926Y008831D03*
X033938Y008867D03*
X033950Y008891D03*
X033950Y008903D03*
X033986Y008999D03*
X034010Y009059D03*
X034010Y009071D03*
X034046Y009167D03*
X032930Y008807D03*
X032918Y008759D03*
X032870Y008627D03*
X033290Y008159D03*
X033290Y008147D03*
X033530Y007991D03*
X033530Y007943D03*
X033530Y007931D03*
X033530Y007919D03*
X033518Y007907D03*
X032558Y009503D03*
X032570Y009527D03*
X032570Y009539D03*
X032570Y009551D03*
X032606Y009623D03*
X032618Y009659D03*
X032630Y009707D03*
D62*
X032756Y009959D03*
X032756Y010043D03*
X032720Y010079D03*
X032720Y010091D03*
X032720Y010103D03*
X032756Y010127D03*
X032840Y010127D03*
X032840Y010139D03*
X032768Y010223D03*
X032840Y010319D03*
X032876Y010283D03*
X032888Y010259D03*
X032888Y010343D03*
X032876Y010367D03*
X032840Y010403D03*
X032888Y010427D03*
X033776Y009539D03*
X033860Y009539D03*
X034016Y009527D03*
X034028Y009539D03*
X034100Y009527D03*
X034196Y009539D03*
X034196Y009467D03*
X034280Y009479D03*
X034280Y009539D03*
X034280Y009563D03*
X034496Y009491D03*
X034796Y009467D03*
X034796Y009539D03*
X034880Y009551D03*
X034880Y009467D03*
X033008Y008867D03*
X032960Y008747D03*
X032948Y008723D03*
X032816Y008651D03*
X032840Y008603D03*
X032840Y008519D03*
X032828Y008423D03*
X032756Y008351D03*
X032756Y008279D03*
X032756Y008267D03*
X032708Y008219D03*
X032756Y008183D03*
X032708Y008159D03*
X032660Y008171D03*
X032708Y008063D03*
X032636Y007979D03*
X032588Y007943D03*
X033356Y008003D03*
X031616Y008903D03*
X031568Y008939D03*
X031400Y008939D03*
X031316Y008939D03*
X031316Y008963D03*
X031268Y008903D03*
X031316Y008879D03*
X031100Y008903D03*
X031016Y008903D03*
X030980Y008867D03*
X030980Y008951D03*
X030848Y008903D03*
D63*
X030974Y008879D03*
X030974Y008939D03*
X030974Y008963D03*
X031094Y008927D03*
X031142Y008939D03*
X031142Y008963D03*
X031142Y008879D03*
X031262Y008891D03*
X030722Y008879D03*
X030722Y008867D03*
X030722Y008939D03*
X030722Y008951D03*
X030602Y008903D03*
X032054Y008843D03*
X032762Y008519D03*
X032822Y008663D03*
X032942Y008663D03*
X032822Y008363D03*
X032822Y008339D03*
X032642Y008147D03*
X032714Y008051D03*
X032594Y008027D03*
X034322Y007943D03*
X034454Y009479D03*
X034454Y009527D03*
X034322Y009491D03*
X034274Y009527D03*
X034154Y009491D03*
X034622Y009467D03*
X034622Y009539D03*
X034622Y009551D03*
X034754Y009503D03*
X034754Y009491D03*
X034922Y009503D03*
X035054Y009539D03*
X032882Y010451D03*
X032882Y010511D03*
X032882Y010523D03*
X032834Y010331D03*
X032834Y010247D03*
X032762Y010211D03*
X032822Y010067D03*
X032654Y009923D03*
D64*
X032588Y009755D03*
X032828Y010055D03*
X032888Y010415D03*
X032588Y007955D03*
D65*
X033314Y008195D03*
X033542Y007955D03*
X033914Y008795D03*
X034022Y009095D03*
X032582Y009575D03*
D66*
X032948Y008855D03*
X033788Y007955D03*
X035048Y008015D03*
D67*
X035144Y007955D03*
X034760Y008915D03*
D68*
X034646Y008951D03*
X034646Y009083D03*
X035006Y008783D03*
X035006Y008723D03*
X034370Y007967D03*
X033770Y008603D03*
X033446Y008807D03*
X033458Y008831D03*
X033458Y008843D03*
X033470Y008867D03*
X033470Y008879D03*
X033506Y008963D03*
X033518Y008987D03*
X033518Y008999D03*
X033518Y009011D03*
X033530Y009023D03*
X033566Y009119D03*
X033566Y009131D03*
X033566Y009143D03*
X033578Y009167D03*
X033590Y009179D03*
X033590Y009191D03*
X033590Y009203D03*
X032570Y009083D03*
X032570Y009071D03*
X032558Y009059D03*
X032558Y009047D03*
X032546Y009023D03*
X032546Y009011D03*
X032510Y008927D03*
X032498Y008903D03*
X032498Y008891D03*
X032498Y008879D03*
X032486Y008867D03*
X032486Y008843D03*
X032450Y008759D03*
X032450Y008747D03*
X032438Y008723D03*
X032438Y008711D03*
X032426Y008699D03*
X032426Y008687D03*
X032390Y008591D03*
X032390Y008579D03*
X032378Y008567D03*
X032378Y008543D03*
X032366Y008531D03*
X032366Y008519D03*
D69*
X034364Y007979D03*
X035012Y008747D03*
X035012Y008759D03*
X035012Y008771D03*
D70*
X034628Y008987D03*
X034628Y008999D03*
X034628Y009011D03*
X034628Y009023D03*
X034640Y009071D03*
X033608Y009263D03*
X033548Y009083D03*
X033536Y009047D03*
X032348Y008471D03*
X034340Y007991D03*
X035216Y008147D03*
X035936Y008123D03*
D71*
X034544Y009455D03*
X034412Y009515D03*
X034244Y009515D03*
X034112Y009455D03*
X033944Y009455D03*
X033692Y009455D03*
X032804Y010175D03*
X031652Y008855D03*
X031484Y008855D03*
X031184Y008915D03*
X030932Y008915D03*
X030764Y008915D03*
X032672Y008195D03*
X032672Y008015D03*
X032864Y008495D03*
X032912Y008615D03*
D72*
X034748Y008015D03*
D73*
X032864Y008471D03*
X032744Y008423D03*
X032792Y008303D03*
X032672Y008183D03*
X032672Y008111D03*
X032672Y008099D03*
X032672Y008027D03*
X032864Y008771D03*
X032912Y008903D03*
X032564Y009683D03*
X032672Y009959D03*
X032792Y010007D03*
X032804Y010091D03*
X032804Y010259D03*
X032924Y010403D03*
X032924Y010487D03*
X032972Y010511D03*
X032924Y010571D03*
X033692Y009539D03*
X033944Y009539D03*
X034112Y009539D03*
X034112Y009551D03*
X034112Y009467D03*
X034364Y009479D03*
X034412Y009491D03*
X034364Y009539D03*
X034364Y009563D03*
X034544Y009551D03*
X034544Y009539D03*
X034544Y009467D03*
X034712Y009539D03*
X031652Y008939D03*
X031484Y008939D03*
X031232Y008963D03*
X031184Y008903D03*
X031232Y008879D03*
X030932Y008903D03*
X030764Y008903D03*
D74*
X031142Y008867D03*
X031226Y008867D03*
X031274Y008927D03*
X031310Y008951D03*
X031394Y008963D03*
X031442Y008903D03*
X031442Y008891D03*
X031394Y008879D03*
X031526Y008903D03*
X031562Y008879D03*
X031574Y008951D03*
X031562Y008963D03*
X031706Y008903D03*
X031742Y008867D03*
X031742Y008939D03*
X031742Y008951D03*
X031826Y008951D03*
X031910Y008951D03*
X031910Y008867D03*
X031826Y008867D03*
X031226Y008951D03*
X031142Y008951D03*
X032570Y009671D03*
X032702Y009767D03*
X032630Y009827D03*
X032630Y009839D03*
X032642Y009851D03*
X032714Y009923D03*
X032750Y009887D03*
X032714Y010007D03*
X032750Y010067D03*
X032786Y010019D03*
X032762Y010139D03*
X032750Y010151D03*
X032834Y010151D03*
X032846Y010211D03*
X032846Y010223D03*
X032882Y010271D03*
X032846Y010307D03*
X032846Y010391D03*
X032882Y010439D03*
X032930Y010391D03*
X033482Y009503D03*
X033566Y009503D03*
X033614Y009539D03*
X033650Y009503D03*
X033650Y009491D03*
X033734Y009491D03*
X033734Y009503D03*
X033770Y009467D03*
X033854Y009467D03*
X033902Y009503D03*
X033854Y009551D03*
X033770Y009551D03*
X033986Y009503D03*
X033986Y009491D03*
X034022Y009467D03*
X034070Y009491D03*
X034070Y009503D03*
X034022Y009551D03*
X034034Y009563D03*
X034154Y009503D03*
X034202Y009551D03*
X034202Y009563D03*
X034286Y009551D03*
X034322Y009503D03*
X034286Y009467D03*
X034370Y009467D03*
X034454Y009467D03*
X034454Y009539D03*
X034454Y009551D03*
X034370Y009551D03*
X033002Y008879D03*
X032894Y008831D03*
X032930Y008783D03*
X032846Y008699D03*
X032846Y008687D03*
X032906Y008591D03*
X032882Y008567D03*
X032834Y008447D03*
X032750Y008447D03*
X032750Y008363D03*
X032714Y008327D03*
X032714Y008303D03*
X032714Y008243D03*
X032714Y008231D03*
X032762Y008207D03*
X032714Y008147D03*
X032630Y008063D03*
X033506Y008459D03*
D75*
X033386Y008063D03*
X035210Y008123D03*
D76*
X032960Y008735D03*
X032840Y008435D03*
X032756Y008435D03*
X032756Y008195D03*
X032708Y008135D03*
X032708Y008075D03*
X031568Y008855D03*
X031400Y008855D03*
X031316Y008855D03*
X031100Y008915D03*
X031016Y008915D03*
X030848Y008915D03*
X030680Y008915D03*
X032660Y009635D03*
X032708Y009755D03*
X032840Y010235D03*
X032840Y010295D03*
X033776Y009455D03*
X033860Y009455D03*
X034028Y009455D03*
X034160Y009515D03*
X034196Y009455D03*
X034280Y009455D03*
X034328Y009515D03*
X034496Y009515D03*
X034580Y009515D03*
X034796Y009455D03*
D77*
X033578Y009155D03*
X033530Y009035D03*
X033506Y008975D03*
X033446Y008795D03*
X032558Y009035D03*
X032510Y008915D03*
X032486Y008855D03*
X032438Y008735D03*
X032378Y008555D03*
X033350Y008075D03*
X035006Y008735D03*
X035006Y008795D03*
D78*
X035714Y008135D03*
X035762Y008075D03*
D79*
X035678Y008087D03*
X033458Y008231D03*
X033446Y008219D03*
D80*
X034682Y008531D03*
X035762Y008099D03*
D81*
X035768Y008111D03*
X034916Y009203D03*
X033584Y008579D03*
D82*
X033416Y008675D03*
X033464Y008855D03*
X032420Y008675D03*
X033236Y009515D03*
X034652Y009095D03*
X035216Y008135D03*
D83*
X035936Y008135D03*
D84*
X035228Y008171D03*
X034724Y008819D03*
X033584Y008459D03*
X032924Y008687D03*
X032924Y008699D03*
X032876Y008723D03*
X032888Y008651D03*
X032876Y008639D03*
X032804Y008579D03*
X032840Y008531D03*
X032840Y008459D03*
X032792Y008471D03*
X032768Y008459D03*
X032792Y008411D03*
X032756Y008339D03*
X032756Y008291D03*
X032900Y008819D03*
X032936Y008867D03*
X032972Y008831D03*
X032972Y008819D03*
X033308Y009503D03*
X033356Y009551D03*
X033392Y009503D03*
X033440Y009467D03*
X033476Y009491D03*
X033524Y009467D03*
X033560Y009491D03*
X033608Y009467D03*
X033692Y009467D03*
X033692Y009551D03*
X033608Y009551D03*
X033524Y009551D03*
X033524Y009539D03*
X033440Y009551D03*
X033896Y009491D03*
X033944Y009527D03*
X034028Y009479D03*
X034412Y009503D03*
X034496Y009503D03*
X032756Y009971D03*
X032708Y010019D03*
X032708Y009911D03*
X032672Y009887D03*
X032720Y009839D03*
X032708Y009827D03*
X032672Y009803D03*
X032672Y009791D03*
X032672Y009719D03*
X032072Y008879D03*
X031784Y008903D03*
X031688Y008891D03*
X031568Y008867D03*
X031484Y008867D03*
X031484Y008951D03*
X031400Y008951D03*
X031400Y008867D03*
X031316Y008867D03*
D85*
X031454Y008927D03*
X031514Y008891D03*
X031742Y008879D03*
X031826Y008879D03*
X031874Y008903D03*
X031910Y008879D03*
X031994Y008879D03*
X032006Y008867D03*
X032006Y008951D03*
X032090Y008951D03*
X031910Y008963D03*
X031826Y008963D03*
X031826Y008939D03*
X031742Y008963D03*
X032834Y008591D03*
X032882Y008579D03*
X032882Y008663D03*
X032882Y008747D03*
X032930Y008771D03*
X032930Y008879D03*
X032834Y008507D03*
X033146Y009503D03*
X033230Y009503D03*
X033266Y009467D03*
X033350Y009467D03*
X033434Y009539D03*
X033602Y009527D03*
X033686Y009527D03*
X033770Y009527D03*
X033854Y009527D03*
X033866Y009563D03*
X033950Y009563D03*
X033950Y009479D03*
X033866Y009479D03*
X032750Y009947D03*
X032714Y009851D03*
X032666Y009863D03*
X032630Y009767D03*
X032594Y009719D03*
X032630Y009683D03*
X032642Y009671D03*
X035954Y008171D03*
D86*
X034238Y009503D03*
X034118Y009563D03*
X033938Y009551D03*
X033938Y009467D03*
X033818Y009491D03*
X033818Y009503D03*
X032738Y009863D03*
X032678Y009947D03*
X032678Y009971D03*
X032798Y010079D03*
X032798Y010103D03*
X032798Y010187D03*
X032798Y010199D03*
X032798Y010271D03*
X032798Y010283D03*
X032078Y008867D03*
X031658Y008867D03*
X031658Y008951D03*
X031478Y008963D03*
X031478Y008879D03*
X031358Y008891D03*
X031358Y008903D03*
X031358Y008927D03*
X031058Y008951D03*
X031058Y008867D03*
X032678Y008207D03*
X032798Y008327D03*
X032798Y008387D03*
X032798Y008399D03*
X032798Y008483D03*
X032798Y008567D03*
D87*
X032840Y008615D03*
X032840Y008675D03*
X032888Y008735D03*
X032876Y008555D03*
X032792Y008495D03*
X032756Y008255D03*
X031868Y008915D03*
X031784Y008915D03*
X031700Y008915D03*
X031616Y008915D03*
X031520Y008915D03*
X031436Y008915D03*
X032672Y009875D03*
X032756Y010055D03*
X032804Y010115D03*
X033440Y009455D03*
X033524Y009455D03*
X033812Y009515D03*
X033896Y009515D03*
D88*
X033554Y008495D03*
X033470Y008255D03*
D89*
X032714Y008315D03*
X031742Y008855D03*
X031274Y008915D03*
X032630Y009755D03*
X032786Y009995D03*
X032882Y010355D03*
X033614Y009455D03*
X033986Y009515D03*
X034070Y009515D03*
X034370Y009455D03*
X034454Y009455D03*
D90*
X032738Y010115D03*
X031358Y008915D03*
X032798Y008555D03*
X032798Y008315D03*
D91*
X033548Y008471D03*
X034988Y008687D03*
D92*
X034574Y008471D03*
D93*
X034994Y008699D03*
X034634Y009047D03*
X034634Y009059D03*
X033614Y009251D03*
X033602Y009239D03*
X033602Y009227D03*
X033554Y009107D03*
X033542Y009071D03*
X033542Y009059D03*
X033494Y008939D03*
X033494Y008927D03*
X033482Y008903D03*
X033482Y008891D03*
X033434Y008771D03*
X033434Y008759D03*
X033434Y008747D03*
X033422Y008723D03*
X033422Y008711D03*
X032522Y008939D03*
X032522Y008951D03*
X032522Y008963D03*
X032534Y008987D03*
X032534Y008999D03*
X032582Y009107D03*
X032582Y009119D03*
X032582Y009131D03*
X032474Y008831D03*
X032474Y008819D03*
X032474Y008807D03*
X032462Y008783D03*
X032414Y008663D03*
X032414Y008651D03*
X032414Y008639D03*
X032402Y008627D03*
X032354Y008483D03*
D94*
X031910Y008927D03*
X033566Y008519D03*
X034610Y008483D03*
X034874Y008843D03*
X034982Y009251D03*
D95*
X034640Y008495D03*
D96*
X034658Y008507D03*
D97*
X034670Y008519D03*
D98*
X033566Y008531D03*
D99*
X033572Y008543D03*
D100*
X034700Y008543D03*
D101*
X033572Y008555D03*
D102*
X034706Y008555D03*
D103*
X033578Y008567D03*
D104*
X034718Y008567D03*
X034730Y008579D03*
D105*
X033584Y008591D03*
X034892Y009179D03*
D106*
X034784Y008903D03*
X034844Y008591D03*
D107*
X034682Y008939D03*
X033434Y008603D03*
X033254Y009539D03*
D108*
X033428Y008615D03*
D109*
X034934Y008615D03*
D110*
X033818Y008639D03*
X033218Y009551D03*
D111*
X033398Y009515D03*
X032978Y008915D03*
X032918Y008675D03*
X031958Y008915D03*
D112*
X033848Y008675D03*
X033956Y008915D03*
X033980Y008975D03*
X034040Y009155D03*
D113*
X034052Y009179D03*
X034052Y009191D03*
X034064Y009203D03*
X034064Y009227D03*
X034004Y009047D03*
X033992Y009023D03*
X033992Y009011D03*
X033944Y008879D03*
X033932Y008843D03*
X033884Y008723D03*
X033872Y008711D03*
X033872Y008699D03*
D114*
X034802Y008891D03*
X034814Y008879D03*
X034886Y008831D03*
D115*
X034856Y008855D03*
D116*
X034838Y008867D03*
X033338Y009527D03*
D117*
X033272Y009491D03*
X034724Y008927D03*
D118*
X034628Y008975D03*
X034628Y009035D03*
X032576Y009095D03*
D119*
X032594Y009143D03*
D120*
X034862Y009143D03*
D121*
X032594Y009155D03*
D122*
X034874Y009155D03*
D123*
X032630Y009239D03*
X032630Y009251D03*
X032630Y009263D03*
X032618Y009227D03*
X032618Y009203D03*
X032606Y009191D03*
X032606Y009179D03*
X032606Y009167D03*
D124*
X034886Y009167D03*
D125*
X034898Y009191D03*
D126*
X032618Y009215D03*
D127*
X034922Y009215D03*
D128*
X034934Y009227D03*
D129*
X034958Y009239D03*
D130*
X033248Y009455D03*
D131*
X033482Y009563D03*
D132*
X006139Y002926D02*
X006139Y002465D01*
X006446Y002542D02*
X006446Y002926D01*
X006292Y002926D02*
X005986Y002926D01*
X006446Y002542D02*
X006523Y002465D01*
X006676Y002465D01*
X006753Y002542D01*
X006753Y002926D01*
X006906Y002849D02*
X006906Y002772D01*
X006983Y002696D01*
X007136Y002696D01*
X007213Y002619D01*
X007213Y002542D01*
X007136Y002465D01*
X006983Y002465D01*
X006906Y002542D01*
X006906Y002849D02*
X006983Y002926D01*
X007136Y002926D01*
X007213Y002849D01*
X007367Y002389D02*
X007674Y002389D01*
X007827Y002465D02*
X007827Y002926D01*
X007980Y002772D01*
X008134Y002926D01*
X008134Y002465D01*
X008287Y002542D02*
X008287Y002849D01*
X008364Y002926D01*
X008518Y002926D01*
X008594Y002849D01*
X008594Y002542D01*
X008518Y002465D01*
X008364Y002465D01*
X008287Y002542D01*
X008748Y002465D02*
X008978Y002465D01*
X009055Y002542D01*
X009055Y002849D01*
X008978Y002926D01*
X008748Y002926D01*
X008748Y002465D01*
X009208Y002542D02*
X009208Y002926D01*
X009515Y002926D02*
X009515Y002542D01*
X009438Y002465D01*
X009285Y002465D01*
X009208Y002542D01*
X009668Y002465D02*
X009668Y002926D01*
X009668Y002465D02*
X009975Y002465D01*
X010129Y002465D02*
X010436Y002465D01*
X010589Y002389D02*
X010896Y002389D01*
X011049Y002542D02*
X011126Y002465D01*
X011280Y002465D01*
X011356Y002542D01*
X011356Y002619D01*
X011280Y002696D01*
X011126Y002696D01*
X011049Y002772D01*
X011049Y002849D01*
X011126Y002926D01*
X011280Y002926D01*
X011356Y002849D01*
X011510Y002926D02*
X011510Y002542D01*
X011587Y002465D01*
X011740Y002465D01*
X011817Y002542D01*
X011817Y002926D01*
X011970Y002926D02*
X012200Y002926D01*
X012277Y002849D01*
X012277Y002696D01*
X012200Y002619D01*
X011970Y002619D01*
X011970Y002465D02*
X011970Y002926D01*
X012431Y002926D02*
X012431Y002465D01*
X012431Y002619D02*
X012661Y002619D01*
X012737Y002696D01*
X012737Y002849D01*
X012661Y002926D01*
X012431Y002926D01*
X012891Y002926D02*
X012891Y002465D01*
X013198Y002465D01*
X013505Y002465D02*
X013505Y002696D01*
X013658Y002849D01*
X013658Y002926D01*
X013505Y002696D02*
X013351Y002849D01*
X013351Y002926D01*
X010436Y002926D02*
X010129Y002926D01*
X010129Y002465D01*
X010129Y002696D02*
X010282Y002696D01*
X010589Y007889D02*
X010896Y007889D01*
X011049Y008042D02*
X011126Y007965D01*
X011280Y007965D01*
X011356Y008042D01*
X011356Y008119D01*
X011280Y008196D01*
X011126Y008196D01*
X011049Y008272D01*
X011049Y008349D01*
X011126Y008426D01*
X011280Y008426D01*
X011356Y008349D01*
X011510Y008426D02*
X011510Y008042D01*
X011587Y007965D01*
X011740Y007965D01*
X011817Y008042D01*
X011817Y008426D01*
X011970Y008426D02*
X012200Y008426D01*
X012277Y008349D01*
X012277Y008196D01*
X012200Y008119D01*
X011970Y008119D01*
X011970Y007965D02*
X011970Y008426D01*
X012431Y008426D02*
X012431Y007965D01*
X012431Y008119D02*
X012661Y008119D01*
X012737Y008196D01*
X012737Y008349D01*
X012661Y008426D01*
X012431Y008426D01*
X012891Y008426D02*
X012891Y007965D01*
X013198Y007965D01*
X013505Y007965D02*
X013505Y008196D01*
X013658Y008349D01*
X013658Y008426D01*
X013505Y008196D02*
X013351Y008349D01*
X013351Y008426D01*
X010436Y008426D02*
X010129Y008426D01*
X010129Y007965D01*
X010436Y007965D01*
X010282Y008196D02*
X010129Y008196D01*
X009975Y007965D02*
X009668Y007965D01*
X009668Y008426D01*
X009515Y008426D02*
X009515Y008042D01*
X009438Y007965D01*
X009285Y007965D01*
X009208Y008042D01*
X009208Y008426D01*
X009055Y008349D02*
X008978Y008426D01*
X008748Y008426D01*
X008748Y007965D01*
X008978Y007965D01*
X009055Y008042D01*
X009055Y008349D01*
X008594Y008349D02*
X008594Y008042D01*
X008518Y007965D01*
X008364Y007965D01*
X008287Y008042D01*
X008287Y008349D01*
X008364Y008426D01*
X008518Y008426D01*
X008594Y008349D01*
X008134Y008426D02*
X008134Y007965D01*
X007827Y007965D02*
X007827Y008426D01*
X007980Y008272D01*
X008134Y008426D01*
X007674Y007889D02*
X007367Y007889D01*
X007213Y008042D02*
X007136Y007965D01*
X006983Y007965D01*
X006906Y008042D01*
X006753Y008042D02*
X006753Y008426D01*
X006906Y008349D02*
X006906Y008272D01*
X006983Y008196D01*
X007136Y008196D01*
X007213Y008119D01*
X007213Y008042D01*
X007213Y008349D02*
X007136Y008426D01*
X006983Y008426D01*
X006906Y008349D01*
X006753Y008042D02*
X006676Y007965D01*
X006523Y007965D01*
X006446Y008042D01*
X006446Y008426D01*
X006292Y008426D02*
X005986Y008426D01*
X006139Y008426D02*
X006139Y007965D01*
X020986Y008426D02*
X021292Y008426D01*
X021139Y008426D02*
X021139Y007965D01*
X021446Y008042D02*
X021446Y008426D01*
X021753Y008426D02*
X021753Y008042D01*
X021676Y007965D01*
X021523Y007965D01*
X021446Y008042D01*
X021906Y008042D02*
X021983Y007965D01*
X022136Y007965D01*
X022213Y008042D01*
X022213Y008119D01*
X022136Y008196D01*
X021983Y008196D01*
X021906Y008272D01*
X021906Y008349D01*
X021983Y008426D01*
X022136Y008426D01*
X022213Y008349D01*
X022367Y007889D02*
X022674Y007889D01*
X022827Y007965D02*
X022827Y008426D01*
X022980Y008272D01*
X023134Y008426D01*
X023134Y007965D01*
X023287Y008042D02*
X023287Y008349D01*
X023364Y008426D01*
X023518Y008426D01*
X023594Y008349D01*
X023594Y008042D01*
X023518Y007965D01*
X023364Y007965D01*
X023287Y008042D01*
X023748Y007965D02*
X023978Y007965D01*
X024055Y008042D01*
X024055Y008349D01*
X023978Y008426D01*
X023748Y008426D01*
X023748Y007965D01*
X024208Y008042D02*
X024208Y008426D01*
X024515Y008426D02*
X024515Y008042D01*
X024438Y007965D01*
X024285Y007965D01*
X024208Y008042D01*
X024668Y007965D02*
X024668Y008426D01*
X024668Y007965D02*
X024975Y007965D01*
X025129Y007965D02*
X025436Y007965D01*
X025589Y007889D02*
X025896Y007889D01*
X026049Y008042D02*
X026126Y007965D01*
X026280Y007965D01*
X026356Y008042D01*
X026356Y008119D01*
X026280Y008196D01*
X026126Y008196D01*
X026049Y008272D01*
X026049Y008349D01*
X026126Y008426D01*
X026280Y008426D01*
X026356Y008349D01*
X026510Y008426D02*
X026510Y008042D01*
X026587Y007965D01*
X026740Y007965D01*
X026817Y008042D01*
X026817Y008426D01*
X026970Y008426D02*
X027200Y008426D01*
X027277Y008349D01*
X027277Y008196D01*
X027200Y008119D01*
X026970Y008119D01*
X026970Y007965D02*
X026970Y008426D01*
X027431Y008426D02*
X027431Y007965D01*
X027431Y008119D02*
X027661Y008119D01*
X027737Y008196D01*
X027737Y008349D01*
X027661Y008426D01*
X027431Y008426D01*
X027891Y008426D02*
X027891Y007965D01*
X028198Y007965D01*
X028505Y007965D02*
X028505Y008196D01*
X028658Y008349D01*
X028658Y008426D01*
X028505Y008196D02*
X028351Y008349D01*
X028351Y008426D01*
X025436Y008426D02*
X025129Y008426D01*
X025129Y007965D01*
X025129Y008196D02*
X025282Y008196D01*
X030176Y004856D02*
X030482Y004856D01*
X030329Y004856D02*
X030329Y004395D01*
X030636Y004395D02*
X030636Y004702D01*
X030636Y004549D02*
X030789Y004702D01*
X030866Y004702D01*
X031096Y004702D02*
X031250Y004702D01*
X031326Y004626D01*
X031326Y004395D01*
X031096Y004395D01*
X031020Y004472D01*
X031096Y004549D01*
X031326Y004549D01*
X031480Y004702D02*
X031557Y004702D01*
X031557Y004395D01*
X031633Y004395D02*
X031480Y004395D01*
X031787Y004395D02*
X031787Y004702D01*
X032017Y004702D01*
X032094Y004626D01*
X032094Y004395D01*
X032247Y004472D02*
X032247Y004856D01*
X032554Y004856D02*
X032554Y004472D01*
X032477Y004395D01*
X032324Y004395D01*
X032247Y004472D01*
X032708Y004702D02*
X032861Y004702D01*
X032784Y004779D02*
X032784Y004472D01*
X032861Y004395D01*
X033014Y004395D02*
X033168Y004395D01*
X033091Y004395D02*
X033091Y004702D01*
X033014Y004702D01*
X033091Y004856D02*
X033091Y004933D01*
X033321Y004856D02*
X033398Y004856D01*
X033398Y004395D01*
X033321Y004395D02*
X033475Y004395D01*
X033628Y004395D02*
X033782Y004395D01*
X033705Y004395D02*
X033705Y004702D01*
X033628Y004702D01*
X033705Y004856D02*
X033705Y004933D01*
X033935Y004702D02*
X034242Y004702D01*
X033935Y004395D01*
X034242Y004395D01*
X034395Y004395D02*
X034549Y004395D01*
X034472Y004395D02*
X034472Y004702D01*
X034395Y004702D01*
X034472Y004856D02*
X034472Y004933D01*
X034702Y004702D02*
X034932Y004702D01*
X035009Y004626D01*
X035009Y004395D01*
X035163Y004472D02*
X035239Y004395D01*
X035470Y004395D01*
X035470Y004319D02*
X035470Y004702D01*
X035239Y004702D01*
X035163Y004626D01*
X035163Y004472D01*
X035316Y004242D02*
X035393Y004242D01*
X035470Y004319D01*
X035623Y004472D02*
X035700Y004395D01*
X035853Y004395D01*
X035930Y004472D01*
X035930Y004549D01*
X035853Y004626D01*
X035700Y004626D01*
X035623Y004702D01*
X035623Y004779D01*
X035700Y004856D01*
X035853Y004856D01*
X035930Y004779D01*
X036083Y004702D02*
X036083Y004472D01*
X036160Y004395D01*
X036390Y004395D01*
X036390Y004319D02*
X036314Y004242D01*
X036237Y004242D01*
X036390Y004319D02*
X036390Y004702D01*
X036544Y004626D02*
X036620Y004702D01*
X036851Y004702D01*
X037004Y004702D02*
X037158Y004702D01*
X037081Y004779D02*
X037081Y004472D01*
X037158Y004395D01*
X037311Y004472D02*
X037311Y004626D01*
X037388Y004702D01*
X037541Y004702D01*
X037618Y004626D01*
X037618Y004549D01*
X037311Y004549D01*
X037311Y004472D02*
X037388Y004395D01*
X037541Y004395D01*
X037771Y004395D02*
X037771Y004702D01*
X037848Y004702D01*
X037925Y004626D01*
X038001Y004702D01*
X038078Y004626D01*
X038078Y004395D01*
X037925Y004395D02*
X037925Y004626D01*
X037925Y004056D02*
X038078Y003902D01*
X038078Y003595D01*
X038078Y003826D02*
X037771Y003826D01*
X037771Y003902D02*
X037925Y004056D01*
X037771Y003902D02*
X037771Y003595D01*
X037618Y003595D02*
X037541Y003595D01*
X037541Y003672D01*
X037618Y003672D01*
X037618Y003595D01*
X037388Y003902D02*
X037234Y003595D01*
X037081Y003902D01*
X036927Y003826D02*
X036927Y003749D01*
X036621Y003749D01*
X036621Y003672D02*
X036621Y003826D01*
X036697Y003902D01*
X036851Y003902D01*
X036927Y003826D01*
X036851Y003595D02*
X036697Y003595D01*
X036621Y003672D01*
X036467Y003595D02*
X036314Y003749D01*
X036390Y003749D02*
X036160Y003749D01*
X036160Y003595D02*
X036160Y004056D01*
X036390Y004056D01*
X036467Y003979D01*
X036467Y003826D01*
X036390Y003749D01*
X036544Y004395D02*
X036774Y004395D01*
X036851Y004472D01*
X036774Y004549D01*
X036620Y004549D01*
X036544Y004626D01*
X035546Y004056D02*
X035546Y003595D01*
X035316Y003595D01*
X035239Y003672D01*
X035239Y003826D01*
X035316Y003902D01*
X035546Y003902D01*
X035086Y003902D02*
X035009Y003902D01*
X034856Y003749D01*
X034856Y003902D02*
X034856Y003595D01*
X034702Y003595D02*
X034472Y003595D01*
X034395Y003672D01*
X034472Y003749D01*
X034702Y003749D01*
X034702Y003826D02*
X034702Y003595D01*
X034702Y003826D02*
X034626Y003902D01*
X034472Y003902D01*
X034242Y003826D02*
X034165Y003902D01*
X034012Y003902D01*
X033935Y003826D01*
X033935Y003672D01*
X034012Y003595D01*
X034165Y003595D01*
X034242Y003672D01*
X034242Y003826D01*
X033782Y003902D02*
X033705Y003826D01*
X033475Y003826D01*
X033321Y003902D02*
X033168Y003902D01*
X033245Y003979D02*
X033245Y003672D01*
X033321Y003595D01*
X033475Y003595D02*
X033705Y003595D01*
X033782Y003672D01*
X033782Y003749D01*
X033705Y003826D01*
X033782Y003902D02*
X033782Y003979D01*
X033705Y004056D01*
X033475Y004056D01*
X033475Y003595D01*
X033014Y003749D02*
X032708Y003749D01*
X032708Y003672D02*
X032708Y003826D01*
X032784Y003902D01*
X032938Y003902D01*
X033014Y003826D01*
X033014Y003749D01*
X032938Y003595D02*
X032784Y003595D01*
X032708Y003672D01*
X032554Y003595D02*
X032554Y003826D01*
X032477Y003902D01*
X032247Y003902D01*
X032247Y003595D01*
X032094Y003902D02*
X032017Y003902D01*
X031864Y003749D01*
X031864Y003902D02*
X031864Y003595D01*
X031710Y003749D02*
X031403Y003749D01*
X031403Y003672D02*
X031403Y003826D01*
X031480Y003902D01*
X031633Y003902D01*
X031710Y003826D01*
X031710Y003749D01*
X031633Y003595D02*
X031480Y003595D01*
X031403Y003672D01*
X031250Y003595D02*
X031250Y003826D01*
X031173Y003902D01*
X031020Y003902D01*
X030943Y003826D01*
X030789Y003902D02*
X030636Y003902D01*
X030713Y003979D02*
X030713Y003672D01*
X030789Y003595D01*
X030943Y003595D02*
X030943Y004056D01*
X030482Y004056D02*
X030176Y004056D01*
X030176Y003595D01*
X030482Y003595D01*
X030329Y003826D02*
X030176Y003826D01*
X031557Y004856D02*
X031557Y004933D01*
X034702Y004702D02*
X034702Y004395D01*
X034996Y001976D02*
X034996Y001515D01*
X035226Y001515D01*
X035303Y001592D01*
X035303Y001746D01*
X035226Y001822D01*
X034996Y001822D01*
X034843Y001822D02*
X034843Y001515D01*
X034612Y001515D01*
X034536Y001592D01*
X034536Y001822D01*
X034382Y001746D02*
X034382Y001515D01*
X034382Y001746D02*
X034306Y001822D01*
X034152Y001822D01*
X034075Y001746D01*
X033922Y001822D02*
X033769Y001822D01*
X033845Y001899D02*
X033845Y001592D01*
X033922Y001515D01*
X034075Y001515D02*
X034075Y001976D01*
X033538Y001976D02*
X033538Y002053D01*
X033538Y001822D02*
X033462Y001822D01*
X033538Y001822D02*
X033538Y001515D01*
X033462Y001515D02*
X033615Y001515D01*
X033308Y001515D02*
X033078Y001515D01*
X033001Y001592D01*
X033001Y001746D01*
X033078Y001822D01*
X033308Y001822D01*
X033308Y001439D01*
X033231Y001362D01*
X033155Y001362D01*
X032541Y001515D02*
X032848Y001976D01*
X032387Y001976D02*
X032081Y001515D01*
X031927Y001515D02*
X031850Y001515D01*
X031850Y001592D01*
X031927Y001592D01*
X031927Y001515D01*
X031927Y001746D02*
X031850Y001746D01*
X031850Y001822D01*
X031927Y001822D01*
X031927Y001746D01*
X031697Y001822D02*
X031467Y001822D01*
X031390Y001746D01*
X031467Y001669D01*
X031620Y001669D01*
X031697Y001592D01*
X031620Y001515D01*
X031390Y001515D01*
X031237Y001592D02*
X031160Y001515D01*
X030930Y001515D01*
X030930Y001362D02*
X030930Y001822D01*
X031160Y001822D01*
X031237Y001746D01*
X031237Y001592D01*
X030776Y001515D02*
X030700Y001592D01*
X030700Y001899D01*
X030623Y001822D02*
X030776Y001822D01*
X030469Y001822D02*
X030316Y001822D01*
X030393Y001899D02*
X030393Y001592D01*
X030469Y001515D01*
X030162Y001515D02*
X030162Y001746D01*
X030086Y001822D01*
X029932Y001822D01*
X029856Y001746D01*
X029856Y001976D02*
X029856Y001515D01*
X028505Y002465D02*
X028505Y002696D01*
X028658Y002849D01*
X028658Y002926D01*
X028505Y002696D02*
X028351Y002849D01*
X028351Y002926D01*
X027891Y002926D02*
X027891Y002465D01*
X028198Y002465D01*
X027737Y002696D02*
X027661Y002619D01*
X027431Y002619D01*
X027431Y002465D02*
X027431Y002926D01*
X027661Y002926D01*
X027737Y002849D01*
X027737Y002696D01*
X027277Y002696D02*
X027200Y002619D01*
X026970Y002619D01*
X026970Y002465D02*
X026970Y002926D01*
X027200Y002926D01*
X027277Y002849D01*
X027277Y002696D01*
X026817Y002542D02*
X026817Y002926D01*
X026510Y002926D02*
X026510Y002542D01*
X026587Y002465D01*
X026740Y002465D01*
X026817Y002542D01*
X026356Y002542D02*
X026280Y002465D01*
X026126Y002465D01*
X026049Y002542D01*
X026126Y002696D02*
X026280Y002696D01*
X026356Y002619D01*
X026356Y002542D01*
X026126Y002696D02*
X026049Y002772D01*
X026049Y002849D01*
X026126Y002926D01*
X026280Y002926D01*
X026356Y002849D01*
X025896Y002389D02*
X025589Y002389D01*
X025436Y002465D02*
X025129Y002465D01*
X025129Y002926D01*
X025436Y002926D01*
X025282Y002696D02*
X025129Y002696D01*
X024975Y002465D02*
X024668Y002465D01*
X024668Y002926D01*
X024515Y002926D02*
X024515Y002542D01*
X024438Y002465D01*
X024285Y002465D01*
X024208Y002542D01*
X024208Y002926D01*
X024055Y002849D02*
X023978Y002926D01*
X023748Y002926D01*
X023748Y002465D01*
X023978Y002465D01*
X024055Y002542D01*
X024055Y002849D01*
X023594Y002849D02*
X023594Y002542D01*
X023518Y002465D01*
X023364Y002465D01*
X023287Y002542D01*
X023287Y002849D01*
X023364Y002926D01*
X023518Y002926D01*
X023594Y002849D01*
X023134Y002926D02*
X023134Y002465D01*
X022827Y002465D02*
X022827Y002926D01*
X022980Y002772D01*
X023134Y002926D01*
X022674Y002389D02*
X022367Y002389D01*
X022213Y002542D02*
X022136Y002465D01*
X021983Y002465D01*
X021906Y002542D01*
X021753Y002542D02*
X021753Y002926D01*
X021906Y002849D02*
X021906Y002772D01*
X021983Y002696D01*
X022136Y002696D01*
X022213Y002619D01*
X022213Y002542D01*
X022213Y002849D02*
X022136Y002926D01*
X021983Y002926D01*
X021906Y002849D01*
X021753Y002542D02*
X021676Y002465D01*
X021523Y002465D01*
X021446Y002542D01*
X021446Y002926D01*
X021292Y002926D02*
X020986Y002926D01*
X021139Y002926D02*
X021139Y002465D01*
X035456Y001592D02*
X035533Y001592D01*
X035533Y001515D01*
X035456Y001515D01*
X035456Y001592D01*
X035687Y001592D02*
X035763Y001515D01*
X035994Y001515D01*
X036147Y001592D02*
X036224Y001515D01*
X036377Y001515D01*
X036454Y001592D01*
X036454Y001746D01*
X036377Y001822D01*
X036224Y001822D01*
X036147Y001746D01*
X036147Y001592D01*
X035994Y001822D02*
X035763Y001822D01*
X035687Y001746D01*
X035687Y001592D01*
X036607Y001515D02*
X036607Y001822D01*
X036684Y001822D01*
X036761Y001746D01*
X036838Y001822D01*
X036914Y001746D01*
X036914Y001515D01*
X036761Y001515D02*
X036761Y001746D01*
X037068Y001515D02*
X037375Y001976D01*
X037605Y001822D02*
X037835Y001822D01*
X037758Y001669D02*
X037605Y001669D01*
X037528Y001746D01*
X037605Y001822D01*
X037758Y001669D02*
X037835Y001592D01*
X037758Y001515D01*
X037528Y001515D01*
X037988Y001592D02*
X038065Y001515D01*
X038219Y001515D01*
X038295Y001592D01*
X038295Y001746D01*
X038219Y001822D01*
X038065Y001822D01*
X037988Y001746D01*
X037988Y001592D01*
X038449Y001515D02*
X038679Y001515D01*
X038756Y001592D01*
X038679Y001669D01*
X038525Y001669D01*
X038449Y001746D01*
X038525Y001822D01*
X038756Y001822D01*
X038909Y001746D02*
X038909Y001592D01*
X038986Y001515D01*
X039139Y001515D01*
X039216Y001592D01*
X039216Y001746D01*
X039139Y001822D01*
X038986Y001822D01*
X038909Y001746D01*
X039369Y001822D02*
X039369Y001515D01*
X039369Y001669D02*
X039523Y001822D01*
X039600Y001822D01*
X039753Y001822D02*
X039753Y001592D01*
X039830Y001515D01*
X040060Y001515D01*
X040060Y001822D01*
X040213Y001515D02*
X040520Y001976D01*
X040674Y001976D02*
X040981Y001976D01*
X040827Y001976D02*
X040827Y001515D01*
X041134Y001515D02*
X041134Y001822D01*
X041134Y001669D02*
X041288Y001822D01*
X041364Y001822D01*
X041594Y001822D02*
X041748Y001822D01*
X041825Y001746D01*
X041825Y001515D01*
X041594Y001515D01*
X041518Y001592D01*
X041594Y001669D01*
X041825Y001669D01*
X041978Y001822D02*
X042055Y001822D01*
X042055Y001515D01*
X041978Y001515D02*
X042132Y001515D01*
X042285Y001515D02*
X042285Y001822D01*
X042515Y001822D01*
X042592Y001746D01*
X042592Y001515D01*
X042745Y001592D02*
X042822Y001515D01*
X042976Y001515D01*
X043052Y001592D01*
X043052Y001976D01*
X043206Y001822D02*
X043359Y001822D01*
X043282Y001899D02*
X043282Y001592D01*
X043359Y001515D01*
X043513Y001515D02*
X043666Y001515D01*
X043589Y001515D02*
X043589Y001822D01*
X043513Y001822D01*
X043589Y001976D02*
X043589Y002053D01*
X043820Y001976D02*
X043896Y001976D01*
X043896Y001515D01*
X043820Y001515D02*
X043973Y001515D01*
X044126Y001515D02*
X044280Y001515D01*
X044203Y001515D02*
X044203Y001822D01*
X044126Y001822D01*
X044203Y001976D02*
X044203Y002053D01*
X044433Y001822D02*
X044740Y001822D01*
X044433Y001515D01*
X044740Y001515D01*
X044894Y001515D02*
X045047Y001515D01*
X044970Y001515D02*
X044970Y001822D01*
X044894Y001822D01*
X044970Y001976D02*
X044970Y002053D01*
X045201Y001822D02*
X045431Y001822D01*
X045507Y001746D01*
X045507Y001515D01*
X045661Y001592D02*
X045738Y001515D01*
X045968Y001515D01*
X045968Y001439D02*
X045968Y001822D01*
X045738Y001822D01*
X045661Y001746D01*
X045661Y001592D01*
X045814Y001362D02*
X045891Y001362D01*
X045968Y001439D01*
X046121Y001592D02*
X046198Y001515D01*
X046351Y001515D01*
X046428Y001592D01*
X046428Y001669D01*
X046351Y001746D01*
X046198Y001746D01*
X046121Y001822D01*
X046121Y001899D01*
X046198Y001976D01*
X046351Y001976D01*
X046428Y001899D01*
X046582Y001822D02*
X046582Y001592D01*
X046658Y001515D01*
X046889Y001515D01*
X046889Y001439D02*
X046889Y001822D01*
X047042Y001746D02*
X047119Y001822D01*
X047349Y001822D01*
X047502Y001822D02*
X047656Y001822D01*
X047579Y001899D02*
X047579Y001592D01*
X047656Y001515D01*
X047809Y001592D02*
X047809Y001746D01*
X047886Y001822D01*
X048039Y001822D01*
X048116Y001746D01*
X048116Y001669D01*
X047809Y001669D01*
X047809Y001592D02*
X047886Y001515D01*
X048039Y001515D01*
X048270Y001515D02*
X048270Y001822D01*
X048346Y001822D01*
X048423Y001746D01*
X048500Y001822D01*
X048576Y001746D01*
X048576Y001515D01*
X048423Y001515D02*
X048423Y001746D01*
X047349Y001592D02*
X047272Y001669D01*
X047119Y001669D01*
X047042Y001746D01*
X047042Y001515D02*
X047272Y001515D01*
X047349Y001592D01*
X046889Y001439D02*
X046812Y001362D01*
X046735Y001362D01*
X045201Y001515D02*
X045201Y001822D01*
X045228Y002465D02*
X044998Y002465D01*
X044998Y002926D01*
X045228Y002926D01*
X045305Y002849D01*
X045305Y002542D01*
X045228Y002465D01*
X045458Y002542D02*
X045535Y002465D01*
X045688Y002465D01*
X045765Y002542D01*
X045765Y002926D01*
X045918Y002926D02*
X045918Y002465D01*
X046225Y002465D01*
X046379Y002465D02*
X046686Y002465D01*
X046839Y002389D02*
X047146Y002389D01*
X047299Y002542D02*
X047376Y002465D01*
X047530Y002465D01*
X047606Y002542D01*
X047606Y002619D01*
X047530Y002696D01*
X047376Y002696D01*
X047299Y002772D01*
X047299Y002849D01*
X047376Y002926D01*
X047530Y002926D01*
X047606Y002849D01*
X047760Y002926D02*
X047760Y002542D01*
X047837Y002465D01*
X047990Y002465D01*
X048067Y002542D01*
X048067Y002926D01*
X048220Y002926D02*
X048450Y002926D01*
X048527Y002849D01*
X048527Y002696D01*
X048450Y002619D01*
X048220Y002619D01*
X048220Y002465D02*
X048220Y002926D01*
X048681Y002926D02*
X048681Y002465D01*
X048681Y002619D02*
X048911Y002619D01*
X048987Y002696D01*
X048987Y002849D01*
X048911Y002926D01*
X048681Y002926D01*
X049141Y002926D02*
X049141Y002465D01*
X049448Y002465D01*
X049755Y002465D02*
X049755Y002696D01*
X049908Y002849D01*
X049908Y002926D01*
X049755Y002696D02*
X049601Y002849D01*
X049601Y002926D01*
X046686Y002926D02*
X046379Y002926D01*
X046379Y002465D01*
X046379Y002696D02*
X046532Y002696D01*
X045458Y002542D02*
X045458Y002926D01*
X044844Y002849D02*
X044844Y002542D01*
X044768Y002465D01*
X044614Y002465D01*
X044537Y002542D01*
X044537Y002849D01*
X044614Y002926D01*
X044768Y002926D01*
X044844Y002849D01*
X044384Y002926D02*
X044384Y002465D01*
X044077Y002465D02*
X044077Y002926D01*
X044230Y002772D01*
X044384Y002926D01*
X043924Y002389D02*
X043617Y002389D01*
X043463Y002542D02*
X043386Y002465D01*
X043233Y002465D01*
X043156Y002542D01*
X043003Y002542D02*
X043003Y002926D01*
X043156Y002849D02*
X043156Y002772D01*
X043233Y002696D01*
X043386Y002696D01*
X043463Y002619D01*
X043463Y002542D01*
X043463Y002849D02*
X043386Y002926D01*
X043233Y002926D01*
X043156Y002849D01*
X043003Y002542D02*
X042926Y002465D01*
X042773Y002465D01*
X042696Y002542D01*
X042696Y002926D01*
X042542Y002926D02*
X042236Y002926D01*
X042389Y002926D02*
X042389Y002465D01*
X042055Y002053D02*
X042055Y001976D01*
X042745Y001976D02*
X042745Y001592D01*
X043617Y007409D02*
X043924Y007409D01*
X044077Y007485D02*
X044077Y007946D01*
X044230Y007792D01*
X044384Y007946D01*
X044384Y007485D01*
X044537Y007562D02*
X044614Y007485D01*
X044768Y007485D01*
X044844Y007562D01*
X044844Y007869D01*
X044768Y007946D01*
X044614Y007946D01*
X044537Y007869D01*
X044537Y007562D01*
X044998Y007485D02*
X045228Y007485D01*
X045305Y007562D01*
X045305Y007869D01*
X045228Y007946D01*
X044998Y007946D01*
X044998Y007485D01*
X045458Y007562D02*
X045535Y007485D01*
X045688Y007485D01*
X045765Y007562D01*
X045765Y007946D01*
X045918Y007946D02*
X045918Y007485D01*
X046225Y007485D01*
X046379Y007485D02*
X046686Y007485D01*
X046839Y007409D02*
X047146Y007409D01*
X047299Y007562D02*
X047376Y007485D01*
X047530Y007485D01*
X047606Y007562D01*
X047606Y007639D01*
X047530Y007716D01*
X047376Y007716D01*
X047299Y007792D01*
X047299Y007869D01*
X047376Y007946D01*
X047530Y007946D01*
X047606Y007869D01*
X047760Y007946D02*
X047760Y007562D01*
X047837Y007485D01*
X047990Y007485D01*
X048067Y007562D01*
X048067Y007946D01*
X048220Y007946D02*
X048450Y007946D01*
X048527Y007869D01*
X048527Y007716D01*
X048450Y007639D01*
X048220Y007639D01*
X048220Y007485D02*
X048220Y007946D01*
X048681Y007946D02*
X048911Y007946D01*
X048987Y007869D01*
X048987Y007716D01*
X048911Y007639D01*
X048681Y007639D01*
X048681Y007485D02*
X048681Y007946D01*
X049141Y007946D02*
X049141Y007485D01*
X049448Y007485D01*
X049755Y007485D02*
X049755Y007716D01*
X049908Y007869D01*
X049908Y007946D01*
X049755Y007716D02*
X049601Y007869D01*
X049601Y007946D01*
X046686Y007946D02*
X046379Y007946D01*
X046379Y007485D01*
X046379Y007716D02*
X046532Y007716D01*
X045458Y007562D02*
X045458Y007946D01*
X043463Y007869D02*
X043386Y007946D01*
X043233Y007946D01*
X043156Y007869D01*
X043156Y007792D01*
X043233Y007716D01*
X043386Y007716D01*
X043463Y007639D01*
X043463Y007562D01*
X043386Y007485D01*
X043233Y007485D01*
X043156Y007562D01*
X043003Y007562D02*
X042926Y007485D01*
X042773Y007485D01*
X042696Y007562D01*
X042696Y007946D01*
X042542Y007946D02*
X042236Y007946D01*
X042389Y007946D02*
X042389Y007485D01*
X043003Y007562D02*
X043003Y007946D01*
X054736Y008426D02*
X055042Y008426D01*
X054889Y008426D02*
X054889Y007965D01*
X055196Y008042D02*
X055273Y007965D01*
X055426Y007965D01*
X055503Y008042D01*
X055503Y008426D01*
X055656Y008349D02*
X055656Y008272D01*
X055733Y008196D01*
X055886Y008196D01*
X055963Y008119D01*
X055963Y008042D01*
X055886Y007965D01*
X055733Y007965D01*
X055656Y008042D01*
X055656Y008349D02*
X055733Y008426D01*
X055886Y008426D01*
X055963Y008349D01*
X056117Y007889D02*
X056424Y007889D01*
X056577Y007965D02*
X056577Y008426D01*
X056730Y008272D01*
X056884Y008426D01*
X056884Y007965D01*
X057037Y008042D02*
X057114Y007965D01*
X057268Y007965D01*
X057344Y008042D01*
X057344Y008349D01*
X057268Y008426D01*
X057114Y008426D01*
X057037Y008349D01*
X057037Y008042D01*
X057498Y007965D02*
X057498Y008426D01*
X057728Y008426D01*
X057805Y008349D01*
X057805Y008042D01*
X057728Y007965D01*
X057498Y007965D01*
X057958Y008042D02*
X058035Y007965D01*
X058188Y007965D01*
X058265Y008042D01*
X058265Y008426D01*
X058418Y008426D02*
X058418Y007965D01*
X058725Y007965D01*
X058879Y007965D02*
X058879Y008426D01*
X059186Y008426D01*
X059032Y008196D02*
X058879Y008196D01*
X058879Y007965D02*
X059186Y007965D01*
X059339Y007889D02*
X059646Y007889D01*
X059799Y008042D02*
X059876Y007965D01*
X060030Y007965D01*
X060106Y008042D01*
X060106Y008119D01*
X060030Y008196D01*
X059876Y008196D01*
X059799Y008272D01*
X059799Y008349D01*
X059876Y008426D01*
X060030Y008426D01*
X060106Y008349D01*
X060260Y008426D02*
X060260Y008042D01*
X060337Y007965D01*
X060490Y007965D01*
X060567Y008042D01*
X060567Y008426D01*
X060720Y008426D02*
X060950Y008426D01*
X061027Y008349D01*
X061027Y008196D01*
X060950Y008119D01*
X060720Y008119D01*
X060720Y007965D02*
X060720Y008426D01*
X061181Y008426D02*
X061181Y007965D01*
X061181Y008119D02*
X061411Y008119D01*
X061487Y008196D01*
X061487Y008349D01*
X061411Y008426D01*
X061181Y008426D01*
X061641Y008426D02*
X061641Y007965D01*
X061948Y007965D01*
X062255Y007965D02*
X062255Y008196D01*
X062408Y008349D01*
X062408Y008426D01*
X062255Y008196D02*
X062101Y008349D01*
X062101Y008426D01*
X057958Y008426D02*
X057958Y008042D01*
X055196Y008042D02*
X055196Y008426D01*
X055196Y001966D02*
X055196Y001582D01*
X055273Y001505D01*
X055426Y001505D01*
X055503Y001582D01*
X055503Y001966D01*
X055656Y001889D02*
X055656Y001812D01*
X055733Y001736D01*
X055886Y001736D01*
X055963Y001659D01*
X055963Y001582D01*
X055886Y001505D01*
X055733Y001505D01*
X055656Y001582D01*
X055656Y001889D02*
X055733Y001966D01*
X055886Y001966D01*
X055963Y001889D01*
X056577Y001966D02*
X056730Y001812D01*
X056884Y001966D01*
X056884Y001505D01*
X057037Y001582D02*
X057114Y001505D01*
X057268Y001505D01*
X057344Y001582D01*
X057344Y001889D01*
X057268Y001966D01*
X057114Y001966D01*
X057037Y001889D01*
X057037Y001582D01*
X056577Y001505D02*
X056577Y001966D01*
X056424Y001429D02*
X056117Y001429D01*
X055042Y001966D02*
X054736Y001966D01*
X054889Y001966D02*
X054889Y001505D01*
X057498Y001505D02*
X057728Y001505D01*
X057805Y001582D01*
X057805Y001889D01*
X057728Y001966D01*
X057498Y001966D01*
X057498Y001505D01*
X057958Y001582D02*
X058035Y001505D01*
X058188Y001505D01*
X058265Y001582D01*
X058265Y001966D01*
X058418Y001966D02*
X058418Y001505D01*
X058725Y001505D01*
X058879Y001505D02*
X058879Y001966D01*
X059186Y001966D01*
X059032Y001736D02*
X058879Y001736D01*
X058879Y001505D02*
X059186Y001505D01*
X059339Y001429D02*
X059646Y001429D01*
X059799Y001582D02*
X059876Y001505D01*
X060030Y001505D01*
X060106Y001582D01*
X060106Y001659D01*
X060030Y001736D01*
X059876Y001736D01*
X059799Y001812D01*
X059799Y001889D01*
X059876Y001966D01*
X060030Y001966D01*
X060106Y001889D01*
X060260Y001966D02*
X060260Y001582D01*
X060337Y001505D01*
X060490Y001505D01*
X060567Y001582D01*
X060567Y001966D01*
X060720Y001966D02*
X060950Y001966D01*
X061027Y001889D01*
X061027Y001736D01*
X060950Y001659D01*
X060720Y001659D01*
X060720Y001505D02*
X060720Y001966D01*
X061181Y001966D02*
X061181Y001505D01*
X061181Y001659D02*
X061411Y001659D01*
X061487Y001736D01*
X061487Y001889D01*
X061411Y001966D01*
X061181Y001966D01*
X061641Y001966D02*
X061641Y001505D01*
X061948Y001505D01*
X062255Y001505D02*
X062255Y001736D01*
X062408Y001889D01*
X062408Y001966D01*
X062255Y001736D02*
X062101Y001889D01*
X062101Y001966D01*
X057958Y001966D02*
X057958Y001582D01*
X004417Y032591D02*
X004417Y032745D01*
X004340Y032821D01*
X003956Y032821D01*
X004033Y032975D02*
X003956Y033052D01*
X003956Y033205D01*
X004033Y033282D01*
X004110Y033435D02*
X003956Y033589D01*
X004417Y033589D01*
X004417Y033742D02*
X004417Y033435D01*
X004340Y033282D02*
X004263Y033282D01*
X004186Y033205D01*
X004186Y033052D01*
X004110Y032975D01*
X004033Y032975D01*
X003879Y033128D02*
X004493Y033128D01*
X004417Y033052D02*
X004417Y033205D01*
X004340Y033282D01*
X004417Y033052D02*
X004340Y032975D01*
X004417Y032591D02*
X004340Y032514D01*
X003956Y032514D01*
D133*
X007976Y026235D02*
X007976Y025235D01*
X009576Y025235D01*
X009576Y026235D01*
X007976Y026235D01*
X008376Y025985D02*
X008776Y025735D01*
X008776Y025985D01*
X008776Y025735D02*
X008176Y025735D01*
X008376Y025485D02*
X008776Y025735D01*
X008776Y025485D01*
X008776Y025735D02*
X009026Y025735D01*
X008376Y025485D02*
X008376Y025985D01*
X008116Y024695D02*
X007966Y024695D01*
X007916Y024645D01*
X006516Y024645D01*
X006466Y024695D01*
X006316Y024695D01*
X006299Y024693D01*
X006282Y024689D01*
X006266Y024682D01*
X006252Y024672D01*
X006239Y024659D01*
X006229Y024645D01*
X006222Y024629D01*
X006218Y024612D01*
X006216Y024595D01*
X006216Y023995D01*
X006218Y023978D01*
X006222Y023961D01*
X006229Y023945D01*
X006239Y023931D01*
X006252Y023918D01*
X006266Y023908D01*
X006282Y023901D01*
X006299Y023897D01*
X006316Y023895D01*
X006466Y023895D01*
X006516Y023945D01*
X007916Y023945D01*
X007966Y023895D01*
X008116Y023895D01*
X008133Y023897D01*
X008150Y023901D01*
X008166Y023908D01*
X008180Y023918D01*
X008193Y023931D01*
X008203Y023945D01*
X008210Y023961D01*
X008214Y023978D01*
X008216Y023995D01*
X008216Y024595D01*
X008214Y024612D01*
X008210Y024629D01*
X008203Y024645D01*
X008193Y024659D01*
X008180Y024672D01*
X008166Y024682D01*
X008150Y024689D01*
X008133Y024693D01*
X008116Y024695D01*
X008166Y022795D02*
X006066Y022795D01*
X006066Y021795D01*
X008166Y021795D01*
X008166Y021945D01*
X008166Y022645D01*
X008316Y022645D01*
X008316Y022545D02*
X008316Y022045D01*
X008316Y021945D02*
X008166Y021945D01*
X008416Y022095D02*
X008416Y022495D01*
X008516Y022395D02*
X008516Y022195D01*
X008316Y021945D02*
X008353Y021947D01*
X008389Y021953D01*
X008424Y021962D01*
X008458Y021975D01*
X008491Y021992D01*
X008522Y022012D01*
X008550Y022035D01*
X008576Y022061D01*
X008599Y022089D01*
X008619Y022120D01*
X008636Y022153D01*
X008649Y022187D01*
X008658Y022222D01*
X008664Y022258D01*
X008666Y022295D01*
X008664Y022332D01*
X008658Y022368D01*
X008649Y022403D01*
X008636Y022437D01*
X008619Y022470D01*
X008599Y022501D01*
X008576Y022529D01*
X008550Y022555D01*
X008522Y022578D01*
X008491Y022598D01*
X008458Y022615D01*
X008424Y022628D01*
X008389Y022637D01*
X008353Y022643D01*
X008316Y022645D01*
X008166Y022645D02*
X008166Y022795D01*
X008116Y021195D02*
X007966Y021195D01*
X007916Y021145D01*
X006516Y021145D01*
X006466Y021195D01*
X006316Y021195D01*
X006299Y021193D01*
X006282Y021189D01*
X006266Y021182D01*
X006252Y021172D01*
X006239Y021159D01*
X006229Y021145D01*
X006222Y021129D01*
X006218Y021112D01*
X006216Y021095D01*
X006216Y020495D01*
X006218Y020478D01*
X006222Y020461D01*
X006229Y020445D01*
X006239Y020431D01*
X006252Y020418D01*
X006266Y020408D01*
X006282Y020401D01*
X006299Y020397D01*
X006316Y020395D01*
X006466Y020395D01*
X006516Y020445D01*
X007916Y020445D01*
X007966Y020395D01*
X008116Y020395D01*
X008133Y020397D01*
X008150Y020401D01*
X008166Y020408D01*
X008180Y020418D01*
X008193Y020431D01*
X008203Y020445D01*
X008210Y020461D01*
X008214Y020478D01*
X008216Y020495D01*
X008216Y021095D01*
X008214Y021112D01*
X008210Y021129D01*
X008203Y021145D01*
X008193Y021159D01*
X008180Y021172D01*
X008166Y021182D01*
X008150Y021189D01*
X008133Y021193D01*
X008116Y021195D01*
X008166Y019295D02*
X006066Y019295D01*
X006066Y018295D01*
X008166Y018295D01*
X008166Y018445D01*
X008166Y019145D01*
X008316Y019145D01*
X008316Y019045D02*
X008316Y018545D01*
X008316Y018445D02*
X008166Y018445D01*
X008416Y018595D02*
X008416Y018995D01*
X008516Y018895D02*
X008516Y018695D01*
X008316Y018445D02*
X008353Y018447D01*
X008389Y018453D01*
X008424Y018462D01*
X008458Y018475D01*
X008491Y018492D01*
X008522Y018512D01*
X008550Y018535D01*
X008576Y018561D01*
X008599Y018589D01*
X008619Y018620D01*
X008636Y018653D01*
X008649Y018687D01*
X008658Y018722D01*
X008664Y018758D01*
X008666Y018795D01*
X008664Y018832D01*
X008658Y018868D01*
X008649Y018903D01*
X008636Y018937D01*
X008619Y018970D01*
X008599Y019001D01*
X008576Y019029D01*
X008550Y019055D01*
X008522Y019078D01*
X008491Y019098D01*
X008458Y019115D01*
X008424Y019128D01*
X008389Y019137D01*
X008353Y019143D01*
X008316Y019145D01*
X008166Y019145D02*
X008166Y019295D01*
X012146Y021695D02*
X012446Y021695D01*
X012296Y021845D02*
X012296Y021545D01*
X012796Y022745D02*
X012796Y022845D01*
X012346Y022845D01*
X012346Y023095D01*
X013246Y023095D01*
X013246Y022845D01*
X012796Y022845D01*
X010796Y023195D02*
X010798Y023293D01*
X010806Y023391D01*
X010818Y023488D01*
X010834Y023585D01*
X010856Y023681D01*
X010882Y023776D01*
X010913Y023869D01*
X010948Y023960D01*
X010988Y024050D01*
X011032Y024138D01*
X011081Y024223D01*
X011133Y024306D01*
X011190Y024386D01*
X011250Y024464D01*
X011314Y024538D01*
X011382Y024609D01*
X011453Y024677D01*
X011527Y024741D01*
X011605Y024801D01*
X011685Y024858D01*
X011768Y024910D01*
X011853Y024959D01*
X011941Y025003D01*
X012031Y025043D01*
X012122Y025078D01*
X012215Y025109D01*
X012310Y025135D01*
X012406Y025157D01*
X012503Y025173D01*
X012600Y025185D01*
X012698Y025193D01*
X012796Y025195D01*
X012894Y025193D01*
X012992Y025185D01*
X013089Y025173D01*
X013186Y025157D01*
X013282Y025135D01*
X013377Y025109D01*
X013470Y025078D01*
X013561Y025043D01*
X013651Y025003D01*
X013739Y024959D01*
X013824Y024910D01*
X013907Y024858D01*
X013987Y024801D01*
X014065Y024741D01*
X014139Y024677D01*
X014210Y024609D01*
X014278Y024538D01*
X014342Y024464D01*
X014402Y024386D01*
X014459Y024306D01*
X014511Y024223D01*
X014560Y024138D01*
X014604Y024050D01*
X014644Y023960D01*
X014679Y023869D01*
X014710Y023776D01*
X014736Y023681D01*
X014758Y023585D01*
X014774Y023488D01*
X014786Y023391D01*
X014794Y023293D01*
X014796Y023195D01*
X014794Y023097D01*
X014786Y022999D01*
X014774Y022902D01*
X014758Y022805D01*
X014736Y022709D01*
X014710Y022614D01*
X014679Y022521D01*
X014644Y022430D01*
X014604Y022340D01*
X014560Y022252D01*
X014511Y022167D01*
X014459Y022084D01*
X014402Y022004D01*
X014342Y021926D01*
X014278Y021852D01*
X014210Y021781D01*
X014139Y021713D01*
X014065Y021649D01*
X013987Y021589D01*
X013907Y021532D01*
X013824Y021480D01*
X013739Y021431D01*
X013651Y021387D01*
X013561Y021347D01*
X013470Y021312D01*
X013377Y021281D01*
X013282Y021255D01*
X013186Y021233D01*
X013089Y021217D01*
X012992Y021205D01*
X012894Y021197D01*
X012796Y021195D01*
X012698Y021197D01*
X012600Y021205D01*
X012503Y021217D01*
X012406Y021233D01*
X012310Y021255D01*
X012215Y021281D01*
X012122Y021312D01*
X012031Y021347D01*
X011941Y021387D01*
X011853Y021431D01*
X011768Y021480D01*
X011685Y021532D01*
X011605Y021589D01*
X011527Y021649D01*
X011453Y021713D01*
X011382Y021781D01*
X011314Y021852D01*
X011250Y021926D01*
X011190Y022004D01*
X011133Y022084D01*
X011081Y022167D01*
X011032Y022252D01*
X010988Y022340D01*
X010948Y022430D01*
X010913Y022521D01*
X010882Y022614D01*
X010856Y022709D01*
X010834Y022805D01*
X010818Y022902D01*
X010806Y022999D01*
X010798Y023097D01*
X010796Y023195D01*
X012796Y023445D02*
X012796Y023645D01*
X016056Y021855D02*
X016056Y020855D01*
X017656Y020855D01*
X017656Y021855D01*
X016056Y021855D01*
X016856Y021605D02*
X016856Y021355D01*
X016856Y021105D01*
X016856Y021355D02*
X017256Y021605D01*
X017256Y021105D01*
X016856Y021355D01*
X017456Y021355D01*
X016856Y021355D02*
X016606Y021355D01*
X020066Y021195D02*
X020066Y020195D01*
X022166Y020195D01*
X022166Y020345D01*
X022166Y021045D01*
X022316Y021045D01*
X022316Y020945D02*
X022316Y020445D01*
X022316Y020345D02*
X022166Y020345D01*
X022416Y020495D02*
X022416Y020895D01*
X022516Y020795D02*
X022516Y020595D01*
X022316Y020345D02*
X022353Y020347D01*
X022389Y020353D01*
X022424Y020362D01*
X022458Y020375D01*
X022491Y020392D01*
X022522Y020412D01*
X022550Y020435D01*
X022576Y020461D01*
X022599Y020489D01*
X022619Y020520D01*
X022636Y020553D01*
X022649Y020587D01*
X022658Y020622D01*
X022664Y020658D01*
X022666Y020695D01*
X022664Y020732D01*
X022658Y020768D01*
X022649Y020803D01*
X022636Y020837D01*
X022619Y020870D01*
X022599Y020901D01*
X022576Y020929D01*
X022550Y020955D01*
X022522Y020978D01*
X022491Y020998D01*
X022458Y021015D01*
X022424Y021028D01*
X022389Y021037D01*
X022353Y021043D01*
X022316Y021045D01*
X022166Y021045D02*
X022166Y021195D01*
X020066Y021195D01*
X020316Y019095D02*
X020466Y019095D01*
X020516Y019045D01*
X021916Y019045D01*
X021966Y019095D01*
X022116Y019095D01*
X022133Y019093D01*
X022150Y019089D01*
X022166Y019082D01*
X022180Y019072D01*
X022193Y019059D01*
X022203Y019045D01*
X022210Y019029D01*
X022214Y019012D01*
X022216Y018995D01*
X022216Y018395D01*
X022214Y018378D01*
X022210Y018361D01*
X022203Y018345D01*
X022193Y018331D01*
X022180Y018318D01*
X022166Y018308D01*
X022150Y018301D01*
X022133Y018297D01*
X022116Y018295D01*
X021966Y018295D01*
X021916Y018345D01*
X020516Y018345D01*
X020466Y018295D01*
X020316Y018295D01*
X020299Y018297D01*
X020282Y018301D01*
X020266Y018308D01*
X020252Y018318D01*
X020239Y018331D01*
X020229Y018345D01*
X020222Y018361D01*
X020218Y018378D01*
X020216Y018395D01*
X020216Y018995D01*
X020218Y019012D01*
X020222Y019029D01*
X020229Y019045D01*
X020239Y019059D01*
X020252Y019072D01*
X020266Y019082D01*
X020282Y019089D01*
X020299Y019093D01*
X020316Y019095D01*
X017866Y017385D02*
X017866Y017235D01*
X017816Y017185D01*
X017816Y015285D01*
X017866Y015235D01*
X017866Y015085D01*
X017864Y015068D01*
X017860Y015051D01*
X017853Y015035D01*
X017843Y015021D01*
X017830Y015008D01*
X017816Y014998D01*
X017800Y014991D01*
X017783Y014987D01*
X017766Y014985D01*
X017066Y014985D01*
X017049Y014987D01*
X017032Y014991D01*
X017016Y014998D01*
X017002Y015008D01*
X016989Y015021D01*
X016979Y015035D01*
X016972Y015051D01*
X016968Y015068D01*
X016966Y015085D01*
X016966Y015235D01*
X017016Y015285D01*
X017016Y017185D01*
X016966Y017235D01*
X016966Y017385D01*
X016968Y017402D01*
X016972Y017419D01*
X016979Y017435D01*
X016989Y017449D01*
X017002Y017462D01*
X017016Y017472D01*
X017032Y017479D01*
X017049Y017483D01*
X017066Y017485D01*
X017766Y017485D01*
X017783Y017483D01*
X017800Y017479D01*
X017816Y017472D01*
X017830Y017462D01*
X017843Y017449D01*
X017853Y017435D01*
X017860Y017419D01*
X017864Y017402D01*
X017866Y017385D01*
X020066Y017195D02*
X020066Y016195D01*
X022166Y016195D01*
X022166Y016345D01*
X022166Y017045D01*
X022316Y017045D01*
X022316Y016945D02*
X022316Y016445D01*
X022316Y016345D02*
X022166Y016345D01*
X022416Y016495D02*
X022416Y016895D01*
X022516Y016795D02*
X022516Y016595D01*
X022316Y016345D02*
X022353Y016347D01*
X022389Y016353D01*
X022424Y016362D01*
X022458Y016375D01*
X022491Y016392D01*
X022522Y016412D01*
X022550Y016435D01*
X022576Y016461D01*
X022599Y016489D01*
X022619Y016520D01*
X022636Y016553D01*
X022649Y016587D01*
X022658Y016622D01*
X022664Y016658D01*
X022666Y016695D01*
X022664Y016732D01*
X022658Y016768D01*
X022649Y016803D01*
X022636Y016837D01*
X022619Y016870D01*
X022599Y016901D01*
X022576Y016929D01*
X022550Y016955D01*
X022522Y016978D01*
X022491Y016998D01*
X022458Y017015D01*
X022424Y017028D01*
X022389Y017037D01*
X022353Y017043D01*
X022316Y017045D01*
X022166Y017045D02*
X022166Y017195D01*
X020066Y017195D01*
X023816Y017675D02*
X023816Y017825D01*
X023818Y017842D01*
X023822Y017859D01*
X023829Y017875D01*
X023839Y017889D01*
X023852Y017902D01*
X023866Y017912D01*
X023882Y017919D01*
X023899Y017923D01*
X023916Y017925D01*
X024516Y017925D01*
X024533Y017923D01*
X024550Y017919D01*
X024566Y017912D01*
X024580Y017902D01*
X024593Y017889D01*
X024603Y017875D01*
X024610Y017859D01*
X024614Y017842D01*
X024616Y017825D01*
X024616Y017675D01*
X024566Y017625D01*
X024566Y016225D01*
X024616Y016175D01*
X024616Y016025D01*
X024614Y016008D01*
X024610Y015991D01*
X024603Y015975D01*
X024593Y015961D01*
X024580Y015948D01*
X024566Y015938D01*
X024550Y015931D01*
X024533Y015927D01*
X024516Y015925D01*
X023916Y015925D01*
X023899Y015927D01*
X023882Y015931D01*
X023866Y015938D01*
X023852Y015948D01*
X023839Y015961D01*
X023829Y015975D01*
X023822Y015991D01*
X023818Y016008D01*
X023816Y016025D01*
X023816Y016175D01*
X023866Y016225D01*
X023866Y017625D01*
X023816Y017675D01*
X015366Y013435D02*
X015066Y013435D01*
X015216Y013285D02*
X015216Y013585D01*
X014166Y013935D02*
X014066Y013935D01*
X014066Y013485D01*
X013816Y013485D01*
X013816Y014385D01*
X014066Y014385D01*
X014066Y013935D01*
X011716Y013935D02*
X011718Y014033D01*
X011726Y014131D01*
X011738Y014228D01*
X011754Y014325D01*
X011776Y014421D01*
X011802Y014516D01*
X011833Y014609D01*
X011868Y014700D01*
X011908Y014790D01*
X011952Y014878D01*
X012001Y014963D01*
X012053Y015046D01*
X012110Y015126D01*
X012170Y015204D01*
X012234Y015278D01*
X012302Y015349D01*
X012373Y015417D01*
X012447Y015481D01*
X012525Y015541D01*
X012605Y015598D01*
X012688Y015650D01*
X012773Y015699D01*
X012861Y015743D01*
X012951Y015783D01*
X013042Y015818D01*
X013135Y015849D01*
X013230Y015875D01*
X013326Y015897D01*
X013423Y015913D01*
X013520Y015925D01*
X013618Y015933D01*
X013716Y015935D01*
X013814Y015933D01*
X013912Y015925D01*
X014009Y015913D01*
X014106Y015897D01*
X014202Y015875D01*
X014297Y015849D01*
X014390Y015818D01*
X014481Y015783D01*
X014571Y015743D01*
X014659Y015699D01*
X014744Y015650D01*
X014827Y015598D01*
X014907Y015541D01*
X014985Y015481D01*
X015059Y015417D01*
X015130Y015349D01*
X015198Y015278D01*
X015262Y015204D01*
X015322Y015126D01*
X015379Y015046D01*
X015431Y014963D01*
X015480Y014878D01*
X015524Y014790D01*
X015564Y014700D01*
X015599Y014609D01*
X015630Y014516D01*
X015656Y014421D01*
X015678Y014325D01*
X015694Y014228D01*
X015706Y014131D01*
X015714Y014033D01*
X015716Y013935D01*
X015714Y013837D01*
X015706Y013739D01*
X015694Y013642D01*
X015678Y013545D01*
X015656Y013449D01*
X015630Y013354D01*
X015599Y013261D01*
X015564Y013170D01*
X015524Y013080D01*
X015480Y012992D01*
X015431Y012907D01*
X015379Y012824D01*
X015322Y012744D01*
X015262Y012666D01*
X015198Y012592D01*
X015130Y012521D01*
X015059Y012453D01*
X014985Y012389D01*
X014907Y012329D01*
X014827Y012272D01*
X014744Y012220D01*
X014659Y012171D01*
X014571Y012127D01*
X014481Y012087D01*
X014390Y012052D01*
X014297Y012021D01*
X014202Y011995D01*
X014106Y011973D01*
X014009Y011957D01*
X013912Y011945D01*
X013814Y011937D01*
X013716Y011935D01*
X013618Y011937D01*
X013520Y011945D01*
X013423Y011957D01*
X013326Y011973D01*
X013230Y011995D01*
X013135Y012021D01*
X013042Y012052D01*
X012951Y012087D01*
X012861Y012127D01*
X012773Y012171D01*
X012688Y012220D01*
X012605Y012272D01*
X012525Y012329D01*
X012447Y012389D01*
X012373Y012453D01*
X012302Y012521D01*
X012234Y012592D01*
X012170Y012666D01*
X012110Y012744D01*
X012053Y012824D01*
X012001Y012907D01*
X011952Y012992D01*
X011908Y013080D01*
X011868Y013170D01*
X011833Y013261D01*
X011802Y013354D01*
X011776Y013449D01*
X011754Y013545D01*
X011738Y013642D01*
X011726Y013739D01*
X011718Y013837D01*
X011716Y013935D01*
X013266Y013935D02*
X013466Y013935D01*
X013216Y010695D02*
X013716Y010695D01*
X013966Y010445D01*
X013966Y008945D01*
X013716Y008695D01*
X013216Y008695D01*
X012966Y008945D01*
X012966Y010445D01*
X013216Y010695D01*
X012966Y010445D02*
X012716Y010695D01*
X012216Y010695D01*
X011966Y010445D01*
X011966Y008945D01*
X012216Y008695D01*
X012716Y008695D01*
X012966Y008945D01*
X011966Y008945D02*
X011716Y008695D01*
X011216Y008695D01*
X010966Y008945D01*
X010966Y010445D01*
X011216Y010695D01*
X011716Y010695D01*
X011966Y010445D01*
X010966Y010445D02*
X010716Y010695D01*
X010216Y010695D01*
X009966Y010445D01*
X009966Y008945D01*
X010216Y008695D01*
X010716Y008695D01*
X010966Y008945D01*
X009966Y008945D02*
X009716Y008695D01*
X009216Y008695D01*
X008966Y008945D01*
X008966Y010445D01*
X009216Y010695D01*
X009716Y010695D01*
X009966Y010445D01*
X008966Y010445D02*
X008716Y010695D01*
X008216Y010695D01*
X007966Y010445D01*
X007966Y008945D01*
X008216Y008695D01*
X008716Y008695D01*
X008966Y008945D01*
X007966Y008945D02*
X007716Y008695D01*
X007216Y008695D01*
X006966Y008945D01*
X006966Y010445D01*
X007216Y010695D01*
X007716Y010695D01*
X007966Y010445D01*
X006966Y010445D02*
X006716Y010695D01*
X006216Y010695D01*
X005966Y010445D01*
X005966Y008945D01*
X006216Y008695D01*
X006716Y008695D01*
X006966Y008945D01*
X007216Y005195D02*
X007716Y005195D01*
X007966Y004945D01*
X007966Y003445D01*
X008216Y003195D01*
X008716Y003195D01*
X008966Y003445D01*
X008966Y004945D01*
X009216Y005195D01*
X009716Y005195D01*
X009966Y004945D01*
X009966Y003445D01*
X010216Y003195D01*
X010716Y003195D01*
X010966Y003445D01*
X010966Y004945D01*
X011216Y005195D01*
X011716Y005195D01*
X011966Y004945D01*
X011966Y003445D01*
X012216Y003195D01*
X012716Y003195D01*
X012966Y003445D01*
X013216Y003195D01*
X013716Y003195D01*
X013966Y003445D01*
X013966Y004945D01*
X013716Y005195D01*
X013216Y005195D01*
X012966Y004945D01*
X012966Y003445D01*
X011966Y003445D02*
X011716Y003195D01*
X011216Y003195D01*
X010966Y003445D01*
X009966Y003445D02*
X009716Y003195D01*
X009216Y003195D01*
X008966Y003445D01*
X007966Y003445D02*
X007716Y003195D01*
X007216Y003195D01*
X006966Y003445D01*
X006966Y004945D01*
X007216Y005195D01*
X006966Y004945D02*
X006716Y005195D01*
X006216Y005195D01*
X005966Y004945D01*
X005966Y003445D01*
X006216Y003195D01*
X006716Y003195D01*
X006966Y003445D01*
X007966Y004945D02*
X008216Y005195D01*
X008716Y005195D01*
X008966Y004945D01*
X009966Y004945D02*
X010216Y005195D01*
X010716Y005195D01*
X010966Y004945D01*
X011966Y004945D02*
X012216Y005195D01*
X012716Y005195D01*
X012966Y004945D01*
X020966Y004945D02*
X020966Y003445D01*
X021216Y003195D01*
X021716Y003195D01*
X021966Y003445D01*
X021966Y004945D01*
X022216Y005195D01*
X022716Y005195D01*
X022966Y004945D01*
X022966Y003445D01*
X023216Y003195D01*
X023716Y003195D01*
X023966Y003445D01*
X023966Y004945D01*
X024216Y005195D01*
X024716Y005195D01*
X024966Y004945D01*
X024966Y003445D01*
X025216Y003195D01*
X025716Y003195D01*
X025966Y003445D01*
X025966Y004945D01*
X026216Y005195D01*
X026716Y005195D01*
X026966Y004945D01*
X026966Y003445D01*
X027216Y003195D01*
X027716Y003195D01*
X027966Y003445D01*
X028216Y003195D01*
X028716Y003195D01*
X028966Y003445D01*
X028966Y004945D01*
X028716Y005195D01*
X028216Y005195D01*
X027966Y004945D01*
X027966Y003445D01*
X026966Y003445D02*
X026716Y003195D01*
X026216Y003195D01*
X025966Y003445D01*
X024966Y003445D02*
X024716Y003195D01*
X024216Y003195D01*
X023966Y003445D01*
X022966Y003445D02*
X022716Y003195D01*
X022216Y003195D01*
X021966Y003445D01*
X021966Y004945D02*
X021716Y005195D01*
X021216Y005195D01*
X020966Y004945D01*
X022966Y004945D02*
X023216Y005195D01*
X023716Y005195D01*
X023966Y004945D01*
X024966Y004945D02*
X025216Y005195D01*
X025716Y005195D01*
X025966Y004945D01*
X026966Y004945D02*
X027216Y005195D01*
X027716Y005195D01*
X027966Y004945D01*
X028216Y008695D02*
X027966Y008945D01*
X027966Y010445D01*
X028216Y010695D01*
X028716Y010695D01*
X028966Y010445D01*
X028966Y008945D01*
X028716Y008695D01*
X028216Y008695D01*
X027966Y008945D02*
X027716Y008695D01*
X027216Y008695D01*
X026966Y008945D01*
X026966Y010445D01*
X027216Y010695D01*
X027716Y010695D01*
X027966Y010445D01*
X026966Y010445D02*
X026716Y010695D01*
X026216Y010695D01*
X025966Y010445D01*
X025966Y008945D01*
X026216Y008695D01*
X026716Y008695D01*
X026966Y008945D01*
X025966Y008945D02*
X025716Y008695D01*
X025216Y008695D01*
X024966Y008945D01*
X024966Y010445D01*
X025216Y010695D01*
X025716Y010695D01*
X025966Y010445D01*
X024966Y010445D02*
X024716Y010695D01*
X024216Y010695D01*
X023966Y010445D01*
X023966Y008945D01*
X024216Y008695D01*
X024716Y008695D01*
X024966Y008945D01*
X023966Y008945D02*
X023716Y008695D01*
X023216Y008695D01*
X022966Y008945D01*
X022966Y010445D01*
X023216Y010695D01*
X023716Y010695D01*
X023966Y010445D01*
X022966Y010445D02*
X022716Y010695D01*
X022216Y010695D01*
X021966Y010445D01*
X021966Y008945D01*
X022216Y008695D01*
X022716Y008695D01*
X022966Y008945D01*
X021966Y008945D02*
X021716Y008695D01*
X021216Y008695D01*
X020966Y008945D01*
X020966Y010445D01*
X021216Y010695D01*
X021716Y010695D01*
X021966Y010445D01*
X005366Y014295D02*
X005066Y014295D01*
X005216Y014145D02*
X005216Y014445D01*
X004166Y014795D02*
X004066Y014795D01*
X004066Y014345D01*
X003816Y014345D01*
X003816Y015245D01*
X004066Y015245D01*
X004066Y014795D01*
X001716Y014795D02*
X001718Y014893D01*
X001726Y014991D01*
X001738Y015088D01*
X001754Y015185D01*
X001776Y015281D01*
X001802Y015376D01*
X001833Y015469D01*
X001868Y015560D01*
X001908Y015650D01*
X001952Y015738D01*
X002001Y015823D01*
X002053Y015906D01*
X002110Y015986D01*
X002170Y016064D01*
X002234Y016138D01*
X002302Y016209D01*
X002373Y016277D01*
X002447Y016341D01*
X002525Y016401D01*
X002605Y016458D01*
X002688Y016510D01*
X002773Y016559D01*
X002861Y016603D01*
X002951Y016643D01*
X003042Y016678D01*
X003135Y016709D01*
X003230Y016735D01*
X003326Y016757D01*
X003423Y016773D01*
X003520Y016785D01*
X003618Y016793D01*
X003716Y016795D01*
X003814Y016793D01*
X003912Y016785D01*
X004009Y016773D01*
X004106Y016757D01*
X004202Y016735D01*
X004297Y016709D01*
X004390Y016678D01*
X004481Y016643D01*
X004571Y016603D01*
X004659Y016559D01*
X004744Y016510D01*
X004827Y016458D01*
X004907Y016401D01*
X004985Y016341D01*
X005059Y016277D01*
X005130Y016209D01*
X005198Y016138D01*
X005262Y016064D01*
X005322Y015986D01*
X005379Y015906D01*
X005431Y015823D01*
X005480Y015738D01*
X005524Y015650D01*
X005564Y015560D01*
X005599Y015469D01*
X005630Y015376D01*
X005656Y015281D01*
X005678Y015185D01*
X005694Y015088D01*
X005706Y014991D01*
X005714Y014893D01*
X005716Y014795D01*
X005714Y014697D01*
X005706Y014599D01*
X005694Y014502D01*
X005678Y014405D01*
X005656Y014309D01*
X005630Y014214D01*
X005599Y014121D01*
X005564Y014030D01*
X005524Y013940D01*
X005480Y013852D01*
X005431Y013767D01*
X005379Y013684D01*
X005322Y013604D01*
X005262Y013526D01*
X005198Y013452D01*
X005130Y013381D01*
X005059Y013313D01*
X004985Y013249D01*
X004907Y013189D01*
X004827Y013132D01*
X004744Y013080D01*
X004659Y013031D01*
X004571Y012987D01*
X004481Y012947D01*
X004390Y012912D01*
X004297Y012881D01*
X004202Y012855D01*
X004106Y012833D01*
X004009Y012817D01*
X003912Y012805D01*
X003814Y012797D01*
X003716Y012795D01*
X003618Y012797D01*
X003520Y012805D01*
X003423Y012817D01*
X003326Y012833D01*
X003230Y012855D01*
X003135Y012881D01*
X003042Y012912D01*
X002951Y012947D01*
X002861Y012987D01*
X002773Y013031D01*
X002688Y013080D01*
X002605Y013132D01*
X002525Y013189D01*
X002447Y013249D01*
X002373Y013313D01*
X002302Y013381D01*
X002234Y013452D01*
X002170Y013526D01*
X002110Y013604D01*
X002053Y013684D01*
X002001Y013767D01*
X001952Y013852D01*
X001908Y013940D01*
X001868Y014030D01*
X001833Y014121D01*
X001802Y014214D01*
X001776Y014309D01*
X001754Y014405D01*
X001738Y014502D01*
X001726Y014599D01*
X001718Y014697D01*
X001716Y014795D01*
X003266Y014795D02*
X003466Y014795D01*
X003566Y021045D02*
X002866Y021045D01*
X002849Y021047D01*
X002832Y021051D01*
X002816Y021058D01*
X002802Y021068D01*
X002789Y021081D01*
X002779Y021095D01*
X002772Y021111D01*
X002768Y021128D01*
X002766Y021145D01*
X002766Y021295D01*
X002816Y021345D01*
X002816Y023245D01*
X002766Y023295D01*
X002766Y023445D01*
X002768Y023462D01*
X002772Y023479D01*
X002779Y023495D01*
X002789Y023509D01*
X002802Y023522D01*
X002816Y023532D01*
X002832Y023539D01*
X002849Y023543D01*
X002866Y023545D01*
X003566Y023545D01*
X003583Y023543D01*
X003600Y023539D01*
X003616Y023532D01*
X003630Y023522D01*
X003643Y023509D01*
X003653Y023495D01*
X003660Y023479D01*
X003664Y023462D01*
X003666Y023445D01*
X003666Y023295D01*
X003616Y023245D01*
X003616Y021345D01*
X003666Y021295D01*
X003666Y021145D01*
X003664Y021128D01*
X003660Y021111D01*
X003653Y021095D01*
X003643Y021081D01*
X003630Y021068D01*
X003616Y021058D01*
X003600Y021051D01*
X003583Y021047D01*
X003566Y021045D01*
X018086Y024345D02*
X018086Y024495D01*
X018136Y024545D01*
X018136Y026445D01*
X018086Y026495D01*
X018086Y026645D01*
X018088Y026662D01*
X018092Y026679D01*
X018099Y026695D01*
X018109Y026709D01*
X018122Y026722D01*
X018136Y026732D01*
X018152Y026739D01*
X018169Y026743D01*
X018186Y026745D01*
X018886Y026745D01*
X018903Y026743D01*
X018920Y026739D01*
X018936Y026732D01*
X018950Y026722D01*
X018963Y026709D01*
X018973Y026695D01*
X018980Y026679D01*
X018984Y026662D01*
X018986Y026645D01*
X018986Y026495D01*
X018936Y026445D01*
X018936Y024545D01*
X018986Y024495D01*
X018986Y024345D01*
X018984Y024328D01*
X018980Y024311D01*
X018973Y024295D01*
X018963Y024281D01*
X018950Y024268D01*
X018936Y024258D01*
X018920Y024251D01*
X018903Y024247D01*
X018886Y024245D01*
X018186Y024245D01*
X018169Y024247D01*
X018152Y024251D01*
X018136Y024258D01*
X018122Y024268D01*
X018109Y024281D01*
X018099Y024295D01*
X018092Y024311D01*
X018088Y024328D01*
X018086Y024345D01*
X020066Y025115D02*
X022166Y025115D01*
X022166Y025265D01*
X022166Y025965D01*
X022316Y025965D01*
X022316Y025865D02*
X022316Y025365D01*
X022316Y025265D02*
X022166Y025265D01*
X022416Y025415D02*
X022416Y025815D01*
X022516Y025715D02*
X022516Y025515D01*
X022316Y025265D02*
X022353Y025267D01*
X022389Y025273D01*
X022424Y025282D01*
X022458Y025295D01*
X022491Y025312D01*
X022522Y025332D01*
X022550Y025355D01*
X022576Y025381D01*
X022599Y025409D01*
X022619Y025440D01*
X022636Y025473D01*
X022649Y025507D01*
X022658Y025542D01*
X022664Y025578D01*
X022666Y025615D01*
X022664Y025652D01*
X022658Y025688D01*
X022649Y025723D01*
X022636Y025757D01*
X022619Y025790D01*
X022599Y025821D01*
X022576Y025849D01*
X022550Y025875D01*
X022522Y025898D01*
X022491Y025918D01*
X022458Y025935D01*
X022424Y025948D01*
X022389Y025957D01*
X022353Y025963D01*
X022316Y025965D01*
X022166Y025965D02*
X022166Y026115D01*
X020066Y026115D01*
X020066Y025115D01*
X023816Y025035D02*
X023816Y025185D01*
X023866Y025235D01*
X023866Y026635D01*
X023816Y026685D01*
X023816Y026835D01*
X023818Y026852D01*
X023822Y026869D01*
X023829Y026885D01*
X023839Y026899D01*
X023852Y026912D01*
X023866Y026922D01*
X023882Y026929D01*
X023899Y026933D01*
X023916Y026935D01*
X024516Y026935D01*
X024533Y026933D01*
X024550Y026929D01*
X024566Y026922D01*
X024580Y026912D01*
X024593Y026899D01*
X024603Y026885D01*
X024610Y026869D01*
X024614Y026852D01*
X024616Y026835D01*
X024616Y026685D01*
X024566Y026635D01*
X024566Y025235D01*
X024616Y025185D01*
X024616Y025035D01*
X024614Y025018D01*
X024610Y025001D01*
X024603Y024985D01*
X024593Y024971D01*
X024580Y024958D01*
X024566Y024948D01*
X024550Y024941D01*
X024533Y024937D01*
X024516Y024935D01*
X023916Y024935D01*
X023899Y024937D01*
X023882Y024941D01*
X023866Y024948D01*
X023852Y024958D01*
X023839Y024971D01*
X023829Y024985D01*
X023822Y025001D01*
X023818Y025018D01*
X023816Y025035D01*
X021956Y027035D02*
X021806Y027035D01*
X021756Y027085D01*
X020356Y027085D01*
X020306Y027035D01*
X020156Y027035D01*
X020139Y027037D01*
X020122Y027041D01*
X020106Y027048D01*
X020092Y027058D01*
X020079Y027071D01*
X020069Y027085D01*
X020062Y027101D01*
X020058Y027118D01*
X020056Y027135D01*
X020056Y027735D01*
X020058Y027752D01*
X020062Y027769D01*
X020069Y027785D01*
X020079Y027799D01*
X020092Y027812D01*
X020106Y027822D01*
X020122Y027829D01*
X020139Y027833D01*
X020156Y027835D01*
X020306Y027835D01*
X020356Y027785D01*
X021756Y027785D01*
X021806Y027835D01*
X021956Y027835D01*
X021973Y027833D01*
X021990Y027829D01*
X022006Y027822D01*
X022020Y027812D01*
X022033Y027799D01*
X022043Y027785D01*
X022050Y027769D01*
X022054Y027752D01*
X022056Y027735D01*
X022056Y027135D01*
X022054Y027118D01*
X022050Y027101D01*
X022043Y027085D01*
X022033Y027071D01*
X022020Y027058D01*
X022006Y027048D01*
X021990Y027041D01*
X021973Y027037D01*
X021956Y027035D01*
X022166Y028275D02*
X020066Y028275D01*
X020066Y029275D01*
X022166Y029275D01*
X022166Y029125D01*
X022166Y028425D01*
X022166Y028275D01*
X022166Y028425D02*
X022316Y028425D01*
X022316Y028525D02*
X022316Y029025D01*
X022316Y029125D02*
X022166Y029125D01*
X022416Y028975D02*
X022416Y028575D01*
X022516Y028675D02*
X022516Y028875D01*
X022316Y029125D02*
X022353Y029123D01*
X022389Y029117D01*
X022424Y029108D01*
X022458Y029095D01*
X022491Y029078D01*
X022522Y029058D01*
X022550Y029035D01*
X022576Y029009D01*
X022599Y028981D01*
X022619Y028950D01*
X022636Y028917D01*
X022649Y028883D01*
X022658Y028848D01*
X022664Y028812D01*
X022666Y028775D01*
X022664Y028738D01*
X022658Y028702D01*
X022649Y028667D01*
X022636Y028633D01*
X022619Y028600D01*
X022599Y028569D01*
X022576Y028541D01*
X022550Y028515D01*
X022522Y028492D01*
X022491Y028472D01*
X022458Y028455D01*
X022424Y028442D01*
X022389Y028433D01*
X022353Y028427D01*
X022316Y028425D01*
X022776Y030595D02*
X021176Y030595D01*
X021176Y031595D01*
X022776Y031595D01*
X022776Y030595D01*
X022376Y030845D02*
X021976Y031095D01*
X021976Y030845D01*
X021976Y031095D02*
X021976Y031345D01*
X021976Y031095D02*
X022376Y031345D01*
X022376Y030845D01*
X022576Y031095D02*
X021976Y031095D01*
X021726Y031095D01*
X038746Y022769D02*
X038746Y022475D01*
X038746Y022696D02*
X039039Y022696D01*
X039039Y022769D02*
X039039Y022475D01*
X039206Y022622D02*
X039353Y022475D01*
X039500Y022622D01*
X039500Y022916D01*
X039666Y022916D02*
X039886Y022916D01*
X039960Y022842D01*
X039960Y022696D01*
X039886Y022622D01*
X039666Y022622D01*
X039666Y022475D02*
X039666Y022916D01*
X039813Y022622D02*
X039960Y022475D01*
X040127Y022696D02*
X040420Y022696D01*
X040587Y022916D02*
X040734Y022916D01*
X040660Y022916D02*
X040660Y022475D01*
X040587Y022475D02*
X040734Y022475D01*
X040894Y022549D02*
X040967Y022475D01*
X041114Y022475D01*
X041187Y022549D01*
X041187Y022622D01*
X041114Y022696D01*
X040967Y022696D01*
X040894Y022769D01*
X040894Y022842D01*
X040967Y022916D01*
X041114Y022916D01*
X041187Y022842D01*
X041354Y022916D02*
X041354Y022475D01*
X041354Y022622D02*
X041574Y022622D01*
X041648Y022696D01*
X041648Y022842D01*
X041574Y022916D01*
X041354Y022916D01*
X041815Y022696D02*
X042108Y022696D01*
X042275Y022696D02*
X042495Y022696D01*
X042569Y022622D01*
X042569Y022549D01*
X042495Y022475D01*
X042348Y022475D01*
X042275Y022549D01*
X042275Y022696D01*
X042422Y022842D01*
X042569Y022916D01*
X042735Y022916D02*
X042735Y022622D01*
X042882Y022475D01*
X043029Y022622D01*
X043029Y022916D01*
X043196Y022916D02*
X043196Y022475D01*
X043489Y022475D01*
X043656Y022475D02*
X043656Y022916D01*
X043876Y022916D01*
X043950Y022842D01*
X043950Y022696D01*
X043876Y022622D01*
X043656Y022622D01*
X043803Y022622D02*
X043950Y022475D01*
X044263Y022475D02*
X044263Y022916D01*
X044116Y022916D02*
X044410Y022916D01*
X043489Y022916D02*
X043196Y022916D01*
X043196Y022696D02*
X043342Y022696D01*
X045418Y021816D02*
X045418Y021575D01*
X049216Y017778D01*
X053133Y021695D01*
X049216Y025613D01*
X045418Y021816D01*
X045722Y021695D02*
X045724Y021724D01*
X045730Y021753D01*
X045739Y021781D01*
X045753Y021807D01*
X045769Y021831D01*
X045789Y021853D01*
X045812Y021872D01*
X045836Y021888D01*
X045863Y021900D01*
X045891Y021909D01*
X045920Y021914D01*
X045949Y021915D01*
X045979Y021912D01*
X046007Y021905D01*
X046035Y021895D01*
X046060Y021880D01*
X046084Y021863D01*
X046105Y021843D01*
X046123Y021820D01*
X046138Y021794D01*
X046150Y021767D01*
X046158Y021739D01*
X046162Y021710D01*
X046162Y021680D01*
X046158Y021651D01*
X046150Y021623D01*
X046138Y021596D01*
X046123Y021570D01*
X046105Y021547D01*
X046084Y021527D01*
X046060Y021510D01*
X046035Y021495D01*
X046007Y021485D01*
X045979Y021478D01*
X045949Y021475D01*
X045920Y021476D01*
X045891Y021481D01*
X045863Y021490D01*
X045836Y021502D01*
X045812Y021518D01*
X045789Y021537D01*
X045769Y021559D01*
X045753Y021583D01*
X045739Y021609D01*
X045730Y021637D01*
X045724Y021666D01*
X045722Y021695D01*
X041116Y024295D02*
X040966Y024295D01*
X040916Y024345D01*
X039516Y024345D01*
X039466Y024295D01*
X039316Y024295D01*
X039299Y024297D01*
X039282Y024301D01*
X039266Y024308D01*
X039252Y024318D01*
X039239Y024331D01*
X039229Y024345D01*
X039222Y024361D01*
X039218Y024378D01*
X039216Y024395D01*
X039216Y024995D01*
X039218Y025012D01*
X039222Y025029D01*
X039229Y025045D01*
X039239Y025059D01*
X039252Y025072D01*
X039266Y025082D01*
X039282Y025089D01*
X039299Y025093D01*
X039316Y025095D01*
X039466Y025095D01*
X039516Y025045D01*
X040916Y025045D01*
X040966Y025095D01*
X041116Y025095D01*
X041133Y025093D01*
X041150Y025089D01*
X041166Y025082D01*
X041180Y025072D01*
X041193Y025059D01*
X041203Y025045D01*
X041210Y025029D01*
X041214Y025012D01*
X041216Y024995D01*
X041216Y024395D01*
X041214Y024378D01*
X041210Y024361D01*
X041203Y024345D01*
X041193Y024331D01*
X041180Y024318D01*
X041166Y024308D01*
X041150Y024301D01*
X041133Y024297D01*
X041116Y024295D01*
X041116Y025335D02*
X040966Y025335D01*
X040916Y025385D01*
X039516Y025385D01*
X039466Y025335D01*
X039316Y025335D01*
X039299Y025337D01*
X039282Y025341D01*
X039266Y025348D01*
X039252Y025358D01*
X039239Y025371D01*
X039229Y025385D01*
X039222Y025401D01*
X039218Y025418D01*
X039216Y025435D01*
X039216Y026035D01*
X039218Y026052D01*
X039222Y026069D01*
X039229Y026085D01*
X039239Y026099D01*
X039252Y026112D01*
X039266Y026122D01*
X039282Y026129D01*
X039299Y026133D01*
X039316Y026135D01*
X039466Y026135D01*
X039516Y026085D01*
X040916Y026085D01*
X040966Y026135D01*
X041116Y026135D01*
X041133Y026133D01*
X041150Y026129D01*
X041166Y026122D01*
X041180Y026112D01*
X041193Y026099D01*
X041203Y026085D01*
X041210Y026069D01*
X041214Y026052D01*
X041216Y026035D01*
X041216Y025435D01*
X041214Y025418D01*
X041210Y025401D01*
X041203Y025385D01*
X041193Y025371D01*
X041180Y025358D01*
X041166Y025348D01*
X041150Y025341D01*
X041133Y025337D01*
X041116Y025335D01*
X041116Y026255D02*
X040966Y026255D01*
X040916Y026305D01*
X039516Y026305D01*
X039466Y026255D01*
X039316Y026255D01*
X039299Y026257D01*
X039282Y026261D01*
X039266Y026268D01*
X039252Y026278D01*
X039239Y026291D01*
X039229Y026305D01*
X039222Y026321D01*
X039218Y026338D01*
X039216Y026355D01*
X039216Y026955D01*
X039218Y026972D01*
X039222Y026989D01*
X039229Y027005D01*
X039239Y027019D01*
X039252Y027032D01*
X039266Y027042D01*
X039282Y027049D01*
X039299Y027053D01*
X039316Y027055D01*
X039466Y027055D01*
X039516Y027005D01*
X040916Y027005D01*
X040966Y027055D01*
X041116Y027055D01*
X041133Y027053D01*
X041150Y027049D01*
X041166Y027042D01*
X041180Y027032D01*
X041193Y027019D01*
X041203Y027005D01*
X041210Y026989D01*
X041214Y026972D01*
X041216Y026955D01*
X041216Y026355D01*
X041214Y026338D01*
X041210Y026321D01*
X041203Y026305D01*
X041193Y026291D01*
X041180Y026278D01*
X041166Y026268D01*
X041150Y026261D01*
X041133Y026257D01*
X041116Y026255D01*
X041116Y027295D02*
X040966Y027295D01*
X040916Y027345D01*
X039516Y027345D01*
X039466Y027295D01*
X039316Y027295D01*
X039299Y027297D01*
X039282Y027301D01*
X039266Y027308D01*
X039252Y027318D01*
X039239Y027331D01*
X039229Y027345D01*
X039222Y027361D01*
X039218Y027378D01*
X039216Y027395D01*
X039216Y027995D01*
X039218Y028012D01*
X039222Y028029D01*
X039229Y028045D01*
X039239Y028059D01*
X039252Y028072D01*
X039266Y028082D01*
X039282Y028089D01*
X039299Y028093D01*
X039316Y028095D01*
X039466Y028095D01*
X039516Y028045D01*
X040916Y028045D01*
X040966Y028095D01*
X041116Y028095D01*
X041133Y028093D01*
X041150Y028089D01*
X041166Y028082D01*
X041180Y028072D01*
X041193Y028059D01*
X041203Y028045D01*
X041210Y028029D01*
X041214Y028012D01*
X041216Y027995D01*
X041216Y027395D01*
X041214Y027378D01*
X041210Y027361D01*
X041203Y027345D01*
X041193Y027331D01*
X041180Y027318D01*
X041166Y027308D01*
X041150Y027301D01*
X041133Y027297D01*
X041116Y027295D01*
X041116Y028295D02*
X040966Y028295D01*
X040916Y028345D01*
X039516Y028345D01*
X039466Y028295D01*
X039316Y028295D01*
X039299Y028297D01*
X039282Y028301D01*
X039266Y028308D01*
X039252Y028318D01*
X039239Y028331D01*
X039229Y028345D01*
X039222Y028361D01*
X039218Y028378D01*
X039216Y028395D01*
X039216Y028995D01*
X039218Y029012D01*
X039222Y029029D01*
X039229Y029045D01*
X039239Y029059D01*
X039252Y029072D01*
X039266Y029082D01*
X039282Y029089D01*
X039299Y029093D01*
X039316Y029095D01*
X039466Y029095D01*
X039516Y029045D01*
X040916Y029045D01*
X040966Y029095D01*
X041116Y029095D01*
X041133Y029093D01*
X041150Y029089D01*
X041166Y029082D01*
X041180Y029072D01*
X041193Y029059D01*
X041203Y029045D01*
X041210Y029029D01*
X041214Y029012D01*
X041216Y028995D01*
X041216Y028395D01*
X041214Y028378D01*
X041210Y028361D01*
X041203Y028345D01*
X041193Y028331D01*
X041180Y028318D01*
X041166Y028308D01*
X041150Y028301D01*
X041133Y028297D01*
X041116Y028295D01*
X047076Y027915D02*
X047076Y026215D01*
X047078Y026198D01*
X047082Y026181D01*
X047089Y026165D01*
X047099Y026151D01*
X047112Y026138D01*
X047126Y026128D01*
X047142Y026121D01*
X047159Y026117D01*
X047176Y026115D01*
X048176Y026115D01*
X048193Y026117D01*
X048210Y026121D01*
X048226Y026128D01*
X048240Y026138D01*
X048253Y026151D01*
X048263Y026165D01*
X048270Y026181D01*
X048274Y026198D01*
X048276Y026215D01*
X048276Y027915D01*
X048274Y027932D01*
X048270Y027949D01*
X048263Y027965D01*
X048253Y027979D01*
X048240Y027992D01*
X048226Y028002D01*
X048210Y028009D01*
X048193Y028013D01*
X048176Y028015D01*
X047176Y028015D01*
X047159Y028013D01*
X047142Y028009D01*
X047126Y028002D01*
X047112Y027992D01*
X047099Y027979D01*
X047089Y027965D01*
X047082Y027949D01*
X047078Y027932D01*
X047076Y027915D01*
X047676Y027215D02*
X047676Y027165D01*
X047676Y026965D02*
X047676Y026915D01*
X048966Y030695D02*
X048716Y030945D01*
X048716Y032445D01*
X048966Y032695D01*
X049466Y032695D01*
X049716Y032445D01*
X049716Y030945D01*
X049466Y030695D01*
X048966Y030695D01*
X049716Y030945D02*
X049966Y030695D01*
X050466Y030695D01*
X050716Y030945D01*
X050716Y032445D01*
X050966Y032695D01*
X051466Y032695D01*
X051716Y032445D01*
X051716Y030945D01*
X051466Y030695D01*
X050966Y030695D01*
X050716Y030945D01*
X051716Y030945D02*
X051966Y030695D01*
X052466Y030695D01*
X052716Y030945D01*
X052716Y032445D01*
X052466Y032695D01*
X051966Y032695D01*
X051716Y032445D01*
X050716Y032445D02*
X050466Y032695D01*
X049966Y032695D01*
X049716Y032445D01*
X052716Y032445D02*
X052966Y032695D01*
X053466Y032695D01*
X053716Y032445D01*
X053716Y030945D01*
X053466Y030695D01*
X052966Y030695D01*
X052716Y030945D01*
X053716Y030945D02*
X053966Y030695D01*
X054466Y030695D01*
X054716Y030945D01*
X054716Y032445D01*
X054466Y032695D01*
X053966Y032695D01*
X053716Y032445D01*
X054716Y032445D02*
X054966Y032695D01*
X055466Y032695D01*
X055716Y032445D01*
X055716Y030945D01*
X055466Y030695D01*
X054966Y030695D01*
X054716Y030945D01*
X055716Y030945D02*
X055966Y030695D01*
X056466Y030695D01*
X056716Y030945D01*
X056716Y032445D01*
X056466Y032695D01*
X055966Y032695D01*
X055716Y032445D01*
X056716Y032445D02*
X056966Y032695D01*
X057466Y032695D01*
X057716Y032445D01*
X057716Y030945D01*
X057466Y030695D01*
X056966Y030695D01*
X056716Y030945D01*
X057716Y030945D02*
X057966Y030695D01*
X058466Y030695D01*
X058716Y030945D01*
X058716Y032445D01*
X058466Y032695D01*
X057966Y032695D01*
X057716Y032445D01*
X059756Y027095D02*
X059906Y027095D01*
X059956Y027045D01*
X061356Y027045D01*
X061406Y027095D01*
X061556Y027095D01*
X061573Y027093D01*
X061590Y027089D01*
X061606Y027082D01*
X061620Y027072D01*
X061633Y027059D01*
X061643Y027045D01*
X061650Y027029D01*
X061654Y027012D01*
X061656Y026995D01*
X061656Y026395D01*
X061654Y026378D01*
X061650Y026361D01*
X061643Y026345D01*
X061633Y026331D01*
X061620Y026318D01*
X061606Y026308D01*
X061590Y026301D01*
X061573Y026297D01*
X061556Y026295D01*
X061406Y026295D01*
X061356Y026345D01*
X059956Y026345D01*
X059906Y026295D01*
X059756Y026295D01*
X059739Y026297D01*
X059722Y026301D01*
X059706Y026308D01*
X059692Y026318D01*
X059679Y026331D01*
X059669Y026345D01*
X059662Y026361D01*
X059658Y026378D01*
X059656Y026395D01*
X059656Y026995D01*
X059658Y027012D01*
X059662Y027029D01*
X059669Y027045D01*
X059679Y027059D01*
X059692Y027072D01*
X059706Y027082D01*
X059722Y027089D01*
X059739Y027093D01*
X059756Y027095D01*
X059756Y025755D02*
X059906Y025755D01*
X059956Y025705D01*
X061356Y025705D01*
X061406Y025755D01*
X061556Y025755D01*
X061573Y025753D01*
X061590Y025749D01*
X061606Y025742D01*
X061620Y025732D01*
X061633Y025719D01*
X061643Y025705D01*
X061650Y025689D01*
X061654Y025672D01*
X061656Y025655D01*
X061656Y025055D01*
X061654Y025038D01*
X061650Y025021D01*
X061643Y025005D01*
X061633Y024991D01*
X061620Y024978D01*
X061606Y024968D01*
X061590Y024961D01*
X061573Y024957D01*
X061556Y024955D01*
X061406Y024955D01*
X061356Y025005D01*
X059956Y025005D01*
X059906Y024955D01*
X059756Y024955D01*
X059739Y024957D01*
X059722Y024961D01*
X059706Y024968D01*
X059692Y024978D01*
X059679Y024991D01*
X059669Y025005D01*
X059662Y025021D01*
X059658Y025038D01*
X059656Y025055D01*
X059656Y025655D01*
X059658Y025672D01*
X059662Y025689D01*
X059669Y025705D01*
X059679Y025719D01*
X059692Y025732D01*
X059706Y025742D01*
X059722Y025749D01*
X059739Y025753D01*
X059756Y025755D01*
X059756Y024095D02*
X059906Y024095D01*
X059956Y024045D01*
X061356Y024045D01*
X061406Y024095D01*
X061556Y024095D01*
X061573Y024093D01*
X061590Y024089D01*
X061606Y024082D01*
X061620Y024072D01*
X061633Y024059D01*
X061643Y024045D01*
X061650Y024029D01*
X061654Y024012D01*
X061656Y023995D01*
X061656Y023395D01*
X061654Y023378D01*
X061650Y023361D01*
X061643Y023345D01*
X061633Y023331D01*
X061620Y023318D01*
X061606Y023308D01*
X061590Y023301D01*
X061573Y023297D01*
X061556Y023295D01*
X061406Y023295D01*
X061356Y023345D01*
X059956Y023345D01*
X059906Y023295D01*
X059756Y023295D01*
X059739Y023297D01*
X059722Y023301D01*
X059706Y023308D01*
X059692Y023318D01*
X059679Y023331D01*
X059669Y023345D01*
X059662Y023361D01*
X059658Y023378D01*
X059656Y023395D01*
X059656Y023995D01*
X059658Y024012D01*
X059662Y024029D01*
X059669Y024045D01*
X059679Y024059D01*
X059692Y024072D01*
X059706Y024082D01*
X059722Y024089D01*
X059739Y024093D01*
X059756Y024095D01*
X059756Y022595D02*
X059906Y022595D01*
X059956Y022545D01*
X061356Y022545D01*
X061406Y022595D01*
X061556Y022595D01*
X061573Y022593D01*
X061590Y022589D01*
X061606Y022582D01*
X061620Y022572D01*
X061633Y022559D01*
X061643Y022545D01*
X061650Y022529D01*
X061654Y022512D01*
X061656Y022495D01*
X061656Y021895D01*
X061654Y021878D01*
X061650Y021861D01*
X061643Y021845D01*
X061633Y021831D01*
X061620Y021818D01*
X061606Y021808D01*
X061590Y021801D01*
X061573Y021797D01*
X061556Y021795D01*
X061406Y021795D01*
X061356Y021845D01*
X059956Y021845D01*
X059906Y021795D01*
X059756Y021795D01*
X059739Y021797D01*
X059722Y021801D01*
X059706Y021808D01*
X059692Y021818D01*
X059679Y021831D01*
X059669Y021845D01*
X059662Y021861D01*
X059658Y021878D01*
X059656Y021895D01*
X059656Y022495D01*
X059658Y022512D01*
X059662Y022529D01*
X059669Y022545D01*
X059679Y022559D01*
X059692Y022572D01*
X059706Y022582D01*
X059722Y022589D01*
X059739Y022593D01*
X059756Y022595D01*
X062916Y022295D02*
X062916Y022095D01*
X063016Y021995D02*
X063016Y022395D01*
X063116Y022445D02*
X063116Y021945D01*
X063116Y021845D02*
X063266Y021845D01*
X063266Y022545D01*
X063266Y022695D01*
X065366Y022695D01*
X065366Y021695D01*
X063266Y021695D01*
X063266Y021845D01*
X063116Y021845D02*
X063079Y021847D01*
X063043Y021853D01*
X063008Y021862D01*
X062974Y021875D01*
X062941Y021892D01*
X062910Y021912D01*
X062882Y021935D01*
X062856Y021961D01*
X062833Y021989D01*
X062813Y022020D01*
X062796Y022053D01*
X062783Y022087D01*
X062774Y022122D01*
X062768Y022158D01*
X062766Y022195D01*
X062768Y022232D01*
X062774Y022268D01*
X062783Y022303D01*
X062796Y022337D01*
X062813Y022370D01*
X062833Y022401D01*
X062856Y022429D01*
X062882Y022455D01*
X062910Y022478D01*
X062941Y022498D01*
X062974Y022515D01*
X063008Y022528D01*
X063043Y022537D01*
X063079Y022543D01*
X063116Y022545D01*
X063266Y022545D01*
X063266Y023195D02*
X063266Y023345D01*
X063266Y024045D01*
X063266Y024195D01*
X065366Y024195D01*
X065366Y023195D01*
X063266Y023195D01*
X063266Y023345D02*
X063116Y023345D01*
X063116Y023445D02*
X063116Y023945D01*
X063116Y024045D02*
X063266Y024045D01*
X063016Y023895D02*
X063016Y023495D01*
X062916Y023595D02*
X062916Y023795D01*
X063116Y024045D02*
X063079Y024043D01*
X063043Y024037D01*
X063008Y024028D01*
X062974Y024015D01*
X062941Y023998D01*
X062910Y023978D01*
X062882Y023955D01*
X062856Y023929D01*
X062833Y023901D01*
X062813Y023870D01*
X062796Y023837D01*
X062783Y023803D01*
X062774Y023768D01*
X062768Y023732D01*
X062766Y023695D01*
X062768Y023658D01*
X062774Y023622D01*
X062783Y023587D01*
X062796Y023553D01*
X062813Y023520D01*
X062833Y023489D01*
X062856Y023461D01*
X062882Y023435D01*
X062910Y023412D01*
X062941Y023392D01*
X062974Y023375D01*
X063008Y023362D01*
X063043Y023353D01*
X063079Y023347D01*
X063116Y023345D01*
X063266Y024695D02*
X063266Y024845D01*
X063266Y025545D01*
X063266Y025695D01*
X065366Y025695D01*
X065366Y024695D01*
X063266Y024695D01*
X063266Y024845D02*
X063116Y024845D01*
X063116Y024945D02*
X063116Y025445D01*
X063116Y025545D02*
X063266Y025545D01*
X063016Y025395D02*
X063016Y024995D01*
X062916Y025095D02*
X062916Y025295D01*
X063116Y025545D02*
X063079Y025543D01*
X063043Y025537D01*
X063008Y025528D01*
X062974Y025515D01*
X062941Y025498D01*
X062910Y025478D01*
X062882Y025455D01*
X062856Y025429D01*
X062833Y025401D01*
X062813Y025370D01*
X062796Y025337D01*
X062783Y025303D01*
X062774Y025268D01*
X062768Y025232D01*
X062766Y025195D01*
X062768Y025158D01*
X062774Y025122D01*
X062783Y025087D01*
X062796Y025053D01*
X062813Y025020D01*
X062833Y024989D01*
X062856Y024961D01*
X062882Y024935D01*
X062910Y024912D01*
X062941Y024892D01*
X062974Y024875D01*
X063008Y024862D01*
X063043Y024853D01*
X063079Y024847D01*
X063116Y024845D01*
X063266Y026195D02*
X063266Y026345D01*
X063266Y027045D01*
X063266Y027195D01*
X065366Y027195D01*
X065366Y026195D01*
X063266Y026195D01*
X063266Y026345D02*
X063116Y026345D01*
X063116Y026445D02*
X063116Y026945D01*
X063116Y027045D02*
X063266Y027045D01*
X063016Y026895D02*
X063016Y026495D01*
X062916Y026595D02*
X062916Y026795D01*
X063116Y027045D02*
X063079Y027043D01*
X063043Y027037D01*
X063008Y027028D01*
X062974Y027015D01*
X062941Y026998D01*
X062910Y026978D01*
X062882Y026955D01*
X062856Y026929D01*
X062833Y026901D01*
X062813Y026870D01*
X062796Y026837D01*
X062783Y026803D01*
X062774Y026768D01*
X062768Y026732D01*
X062766Y026695D01*
X062768Y026658D01*
X062774Y026622D01*
X062783Y026587D01*
X062796Y026553D01*
X062813Y026520D01*
X062833Y026489D01*
X062856Y026461D01*
X062882Y026435D01*
X062910Y026412D01*
X062941Y026392D01*
X062974Y026375D01*
X063008Y026362D01*
X063043Y026353D01*
X063079Y026347D01*
X063116Y026345D01*
X057286Y017955D02*
X055586Y017955D01*
X055569Y017953D01*
X055552Y017949D01*
X055536Y017942D01*
X055522Y017932D01*
X055509Y017919D01*
X055499Y017905D01*
X055492Y017889D01*
X055488Y017872D01*
X055486Y017855D01*
X055486Y016855D01*
X055488Y016838D01*
X055492Y016821D01*
X055499Y016805D01*
X055509Y016791D01*
X055522Y016778D01*
X055536Y016768D01*
X055552Y016761D01*
X055569Y016757D01*
X055586Y016755D01*
X057286Y016755D01*
X057303Y016757D01*
X057320Y016761D01*
X057336Y016768D01*
X057350Y016778D01*
X057363Y016791D01*
X057373Y016805D01*
X057380Y016821D01*
X057384Y016838D01*
X057386Y016855D01*
X057386Y017855D01*
X057384Y017872D01*
X057380Y017889D01*
X057373Y017905D01*
X057363Y017919D01*
X057350Y017932D01*
X057336Y017942D01*
X057320Y017949D01*
X057303Y017953D01*
X057286Y017955D01*
X056586Y017355D02*
X056536Y017355D01*
X056336Y017355D02*
X056286Y017355D01*
X055326Y017815D02*
X055326Y016815D01*
X055324Y016798D01*
X055320Y016781D01*
X055313Y016765D01*
X055303Y016751D01*
X055290Y016738D01*
X055276Y016728D01*
X055260Y016721D01*
X055243Y016717D01*
X055226Y016715D01*
X053526Y016715D01*
X053509Y016717D01*
X053492Y016721D01*
X053476Y016728D01*
X053462Y016738D01*
X053449Y016751D01*
X053439Y016765D01*
X053432Y016781D01*
X053428Y016798D01*
X053426Y016815D01*
X053426Y017815D01*
X053428Y017832D01*
X053432Y017849D01*
X053439Y017865D01*
X053449Y017879D01*
X053462Y017892D01*
X053476Y017902D01*
X053492Y017909D01*
X053509Y017913D01*
X053526Y017915D01*
X055226Y017915D01*
X055243Y017913D01*
X055260Y017909D01*
X055276Y017902D01*
X055290Y017892D01*
X055303Y017879D01*
X055313Y017865D01*
X055320Y017849D01*
X055324Y017832D01*
X055326Y017815D01*
X054526Y017315D02*
X054476Y017315D01*
X054276Y017315D02*
X054226Y017315D01*
X054406Y016575D02*
X057106Y016575D01*
X057165Y016573D01*
X057223Y016567D01*
X057282Y016558D01*
X057339Y016544D01*
X057395Y016527D01*
X057450Y016506D01*
X057504Y016482D01*
X057556Y016454D01*
X057606Y016423D01*
X057654Y016389D01*
X057699Y016352D01*
X057742Y016311D01*
X057783Y016268D01*
X057820Y016223D01*
X057854Y016175D01*
X057885Y016125D01*
X057913Y016073D01*
X057937Y016019D01*
X057958Y015964D01*
X057975Y015908D01*
X057989Y015851D01*
X057998Y015792D01*
X058004Y015734D01*
X058006Y015675D01*
X058004Y015616D01*
X057998Y015558D01*
X057989Y015499D01*
X057975Y015442D01*
X057958Y015386D01*
X057937Y015331D01*
X057913Y015277D01*
X057885Y015225D01*
X057854Y015175D01*
X057820Y015127D01*
X057783Y015082D01*
X057742Y015039D01*
X057699Y014998D01*
X057654Y014961D01*
X057606Y014927D01*
X057556Y014896D01*
X057504Y014868D01*
X057450Y014844D01*
X057395Y014823D01*
X057339Y014806D01*
X057282Y014792D01*
X057223Y014783D01*
X057165Y014777D01*
X057106Y014775D01*
X054406Y014775D01*
X054347Y014777D01*
X054289Y014783D01*
X054230Y014792D01*
X054173Y014806D01*
X054117Y014823D01*
X054062Y014844D01*
X054008Y014868D01*
X053956Y014896D01*
X053906Y014927D01*
X053858Y014961D01*
X053813Y014998D01*
X053770Y015039D01*
X053729Y015082D01*
X053692Y015127D01*
X053658Y015175D01*
X053627Y015225D01*
X053599Y015277D01*
X053575Y015331D01*
X053554Y015386D01*
X053537Y015442D01*
X053523Y015499D01*
X053514Y015558D01*
X053508Y015616D01*
X053506Y015675D01*
X053508Y015734D01*
X053514Y015792D01*
X053523Y015851D01*
X053537Y015908D01*
X053554Y015964D01*
X053575Y016019D01*
X053599Y016073D01*
X053627Y016125D01*
X053658Y016175D01*
X053692Y016223D01*
X053729Y016268D01*
X053770Y016311D01*
X053813Y016352D01*
X053858Y016389D01*
X053906Y016423D01*
X053956Y016454D01*
X054008Y016482D01*
X054062Y016506D01*
X054117Y016527D01*
X054173Y016544D01*
X054230Y016558D01*
X054289Y016567D01*
X054347Y016573D01*
X054406Y016575D01*
X051286Y016235D02*
X051286Y017235D01*
X051284Y017252D01*
X051280Y017269D01*
X051273Y017285D01*
X051263Y017299D01*
X051250Y017312D01*
X051236Y017322D01*
X051220Y017329D01*
X051203Y017333D01*
X051186Y017335D01*
X049486Y017335D01*
X049469Y017333D01*
X049452Y017329D01*
X049436Y017322D01*
X049422Y017312D01*
X049409Y017299D01*
X049399Y017285D01*
X049392Y017269D01*
X049388Y017252D01*
X049386Y017235D01*
X049386Y016235D01*
X049388Y016218D01*
X049392Y016201D01*
X049399Y016185D01*
X049409Y016171D01*
X049422Y016158D01*
X049436Y016148D01*
X049452Y016141D01*
X049469Y016137D01*
X049486Y016135D01*
X051186Y016135D01*
X051203Y016137D01*
X051220Y016141D01*
X051236Y016148D01*
X051250Y016158D01*
X051263Y016171D01*
X051273Y016185D01*
X051280Y016201D01*
X051284Y016218D01*
X051286Y016235D01*
X050486Y016735D02*
X050436Y016735D01*
X050236Y016735D02*
X050186Y016735D01*
X049966Y010695D02*
X049466Y010695D01*
X049216Y010445D01*
X049216Y008945D01*
X049466Y008695D01*
X049966Y008695D01*
X050216Y008945D01*
X050216Y010445D01*
X049966Y010695D01*
X049216Y010445D02*
X048966Y010695D01*
X048466Y010695D01*
X048216Y010445D01*
X048216Y008945D01*
X048466Y008695D01*
X048966Y008695D01*
X049216Y008945D01*
X048216Y008945D02*
X047966Y008695D01*
X047466Y008695D01*
X047216Y008945D01*
X047216Y010445D01*
X047466Y010695D01*
X047966Y010695D01*
X048216Y010445D01*
X047216Y010445D02*
X046966Y010695D01*
X046466Y010695D01*
X046216Y010445D01*
X046216Y008945D01*
X046466Y008695D01*
X046966Y008695D01*
X047216Y008945D01*
X046216Y008945D02*
X045966Y008695D01*
X045466Y008695D01*
X045216Y008945D01*
X045216Y010445D01*
X045466Y010695D01*
X045966Y010695D01*
X046216Y010445D01*
X045216Y010445D02*
X044966Y010695D01*
X044466Y010695D01*
X044216Y010445D01*
X044216Y008945D01*
X044466Y008695D01*
X044966Y008695D01*
X045216Y008945D01*
X044216Y008945D02*
X043966Y008695D01*
X043466Y008695D01*
X043216Y008945D01*
X043216Y010445D01*
X043466Y010695D01*
X043966Y010695D01*
X044216Y010445D01*
X043216Y010445D02*
X042966Y010695D01*
X042466Y010695D01*
X042216Y010445D01*
X042216Y008945D01*
X042466Y008695D01*
X042966Y008695D01*
X043216Y008945D01*
X043466Y005195D02*
X043966Y005195D01*
X044216Y004945D01*
X044216Y003445D01*
X044466Y003195D01*
X044966Y003195D01*
X045216Y003445D01*
X045216Y004945D01*
X045466Y005195D01*
X045966Y005195D01*
X046216Y004945D01*
X046216Y003445D01*
X046466Y003195D01*
X046966Y003195D01*
X047216Y003445D01*
X047216Y004945D01*
X047466Y005195D01*
X047966Y005195D01*
X048216Y004945D01*
X048216Y003445D01*
X048466Y003195D01*
X048966Y003195D01*
X049216Y003445D01*
X049466Y003195D01*
X049966Y003195D01*
X050216Y003445D01*
X050216Y004945D01*
X049966Y005195D01*
X049466Y005195D01*
X049216Y004945D01*
X049216Y003445D01*
X048216Y003445D02*
X047966Y003195D01*
X047466Y003195D01*
X047216Y003445D01*
X046216Y003445D02*
X045966Y003195D01*
X045466Y003195D01*
X045216Y003445D01*
X044216Y003445D02*
X043966Y003195D01*
X043466Y003195D01*
X043216Y003445D01*
X043216Y004945D01*
X043466Y005195D01*
X043216Y004945D02*
X042966Y005195D01*
X042466Y005195D01*
X042216Y004945D01*
X042216Y003445D01*
X042466Y003195D01*
X042966Y003195D01*
X043216Y003445D01*
X044216Y004945D02*
X044466Y005195D01*
X044966Y005195D01*
X045216Y004945D01*
X046216Y004945D02*
X046466Y005195D01*
X046966Y005195D01*
X047216Y004945D01*
X048216Y004945D02*
X048466Y005195D01*
X048966Y005195D01*
X049216Y004945D01*
X054716Y004945D02*
X054716Y003445D01*
X054966Y003195D01*
X055466Y003195D01*
X055716Y003445D01*
X055716Y004945D01*
X055966Y005195D01*
X056466Y005195D01*
X056716Y004945D01*
X056716Y003445D01*
X056966Y003195D01*
X057466Y003195D01*
X057716Y003445D01*
X057716Y004945D01*
X057966Y005195D01*
X058466Y005195D01*
X058716Y004945D01*
X058716Y003445D01*
X058966Y003195D01*
X059466Y003195D01*
X059716Y003445D01*
X059716Y004945D01*
X059966Y005195D01*
X060466Y005195D01*
X060716Y004945D01*
X060716Y003445D01*
X060966Y003195D01*
X061466Y003195D01*
X061716Y003445D01*
X061966Y003195D01*
X062466Y003195D01*
X062716Y003445D01*
X062716Y004945D01*
X062466Y005195D01*
X061966Y005195D01*
X061716Y004945D01*
X061716Y003445D01*
X060716Y003445D02*
X060466Y003195D01*
X059966Y003195D01*
X059716Y003445D01*
X058716Y003445D02*
X058466Y003195D01*
X057966Y003195D01*
X057716Y003445D01*
X056716Y003445D02*
X056466Y003195D01*
X055966Y003195D01*
X055716Y003445D01*
X055716Y004945D02*
X055466Y005195D01*
X054966Y005195D01*
X054716Y004945D01*
X056716Y004945D02*
X056966Y005195D01*
X057466Y005195D01*
X057716Y004945D01*
X058716Y004945D02*
X058966Y005195D01*
X059466Y005195D01*
X059716Y004945D01*
X060716Y004945D02*
X060966Y005195D01*
X061466Y005195D01*
X061716Y004945D01*
X061966Y008695D02*
X062466Y008695D01*
X062716Y008945D01*
X062716Y010445D01*
X062466Y010695D01*
X061966Y010695D01*
X061716Y010445D01*
X061716Y008945D01*
X061966Y008695D01*
X061716Y008945D02*
X061466Y008695D01*
X060966Y008695D01*
X060716Y008945D01*
X060716Y010445D01*
X060966Y010695D01*
X061466Y010695D01*
X061716Y010445D01*
X060716Y010445D02*
X060466Y010695D01*
X059966Y010695D01*
X059716Y010445D01*
X059716Y008945D01*
X059966Y008695D01*
X060466Y008695D01*
X060716Y008945D01*
X059716Y008945D02*
X059466Y008695D01*
X058966Y008695D01*
X058716Y008945D01*
X058716Y010445D01*
X058966Y010695D01*
X059466Y010695D01*
X059716Y010445D01*
X058716Y010445D02*
X058466Y010695D01*
X057966Y010695D01*
X057716Y010445D01*
X057716Y008945D01*
X057966Y008695D01*
X058466Y008695D01*
X058716Y008945D01*
X057716Y008945D02*
X057466Y008695D01*
X056966Y008695D01*
X056716Y008945D01*
X056716Y010445D01*
X056966Y010695D01*
X057466Y010695D01*
X057716Y010445D01*
X056716Y010445D02*
X056466Y010695D01*
X055966Y010695D01*
X055716Y010445D01*
X055716Y008945D01*
X055966Y008695D01*
X056466Y008695D01*
X056716Y008945D01*
X055716Y008945D02*
X055466Y008695D01*
X054966Y008695D01*
X054716Y008945D01*
X054716Y010445D01*
X054966Y010695D01*
X055466Y010695D01*
X055716Y010445D01*
X039206Y022622D02*
X039206Y022916D01*
X039039Y022769D02*
X038892Y022916D01*
X038746Y022769D01*
D134*
X039576Y024410D02*
X039876Y024410D01*
X039726Y024410D02*
X039726Y024861D01*
X039576Y024711D01*
X040037Y024786D02*
X040112Y024861D01*
X040262Y024861D01*
X040337Y024786D01*
X040037Y024485D01*
X040112Y024410D01*
X040262Y024410D01*
X040337Y024485D01*
X040337Y024786D01*
X040497Y024861D02*
X040497Y024410D01*
X040497Y024561D02*
X040722Y024711D01*
X040497Y024561D02*
X040722Y024410D01*
X040037Y024485D02*
X040037Y024786D01*
X040061Y025570D02*
X040061Y025645D01*
X040361Y025946D01*
X040361Y026021D01*
X040061Y026021D01*
X039826Y026021D02*
X039601Y025796D01*
X039901Y025796D01*
X039826Y026021D02*
X039826Y025570D01*
X040521Y025645D02*
X040521Y025871D01*
X040521Y025645D02*
X040596Y025570D01*
X040822Y025570D01*
X040822Y025871D01*
X040722Y026370D02*
X040497Y026521D01*
X040722Y026671D01*
X040497Y026821D02*
X040497Y026370D01*
X040337Y026445D02*
X040337Y026746D01*
X040037Y026445D01*
X040112Y026370D01*
X040262Y026370D01*
X040337Y026445D01*
X040037Y026445D02*
X040037Y026746D01*
X040112Y026821D01*
X040262Y026821D01*
X040337Y026746D01*
X039876Y026370D02*
X039576Y026370D01*
X039726Y026370D02*
X039726Y026821D01*
X039576Y026671D01*
X039725Y027410D02*
X039725Y027861D01*
X039499Y027636D01*
X039800Y027636D01*
X039960Y027485D02*
X039960Y027410D01*
X039960Y027485D02*
X040260Y027786D01*
X040260Y027861D01*
X039960Y027861D01*
X040420Y027711D02*
X040420Y027485D01*
X040495Y027410D01*
X040720Y027410D01*
X040720Y027711D01*
X040722Y028410D02*
X040497Y028561D01*
X040722Y028711D01*
X040497Y028861D02*
X040497Y028410D01*
X040337Y028485D02*
X040337Y028786D01*
X040037Y028485D01*
X040112Y028410D01*
X040262Y028410D01*
X040337Y028485D01*
X040037Y028485D02*
X040037Y028786D01*
X040112Y028861D01*
X040262Y028861D01*
X040337Y028786D01*
X039876Y028410D02*
X039576Y028410D01*
X039726Y028410D02*
X039726Y028861D01*
X039576Y028711D01*
X038040Y028661D02*
X038040Y028585D01*
X037965Y028510D01*
X037815Y028510D01*
X037740Y028585D01*
X037580Y028510D02*
X037280Y028510D01*
X037430Y028510D02*
X037430Y028961D01*
X037280Y028811D01*
X037120Y028886D02*
X037120Y028736D01*
X037045Y028661D01*
X036819Y028661D01*
X036819Y028510D02*
X036819Y028961D01*
X037045Y028961D01*
X037120Y028886D01*
X036970Y028661D02*
X037120Y028510D01*
X037740Y028886D02*
X037815Y028961D01*
X037965Y028961D01*
X038040Y028886D01*
X038040Y028811D01*
X037965Y028736D01*
X038040Y028661D01*
X037965Y028736D02*
X037890Y028736D01*
X037815Y027961D02*
X037740Y027886D01*
X037815Y027961D02*
X037965Y027961D01*
X038040Y027886D01*
X038040Y027811D01*
X037740Y027510D01*
X038040Y027510D01*
X037580Y027510D02*
X037280Y027510D01*
X037280Y027961D01*
X037280Y026921D02*
X037505Y026921D01*
X037580Y026846D01*
X037580Y026696D01*
X037505Y026621D01*
X037280Y026621D01*
X037430Y026621D02*
X037580Y026470D01*
X037740Y026545D02*
X037740Y026621D01*
X037815Y026696D01*
X037965Y026696D01*
X038040Y026621D01*
X038040Y026545D01*
X037965Y026470D01*
X037815Y026470D01*
X037740Y026545D01*
X037815Y026696D02*
X037740Y026771D01*
X037740Y026846D01*
X037815Y026921D01*
X037965Y026921D01*
X038040Y026846D01*
X038040Y026771D01*
X037965Y026696D01*
X037280Y026470D02*
X037280Y026921D01*
X037321Y026081D02*
X037321Y025630D01*
X037621Y025630D01*
X037781Y025630D02*
X038081Y025630D01*
X037931Y025630D02*
X037931Y026081D01*
X037781Y025931D01*
X037740Y024961D02*
X038040Y024961D01*
X038040Y024886D01*
X037740Y024585D01*
X037740Y024510D01*
X037580Y024510D02*
X037430Y024661D01*
X037505Y024661D02*
X037280Y024661D01*
X037280Y024510D02*
X037280Y024961D01*
X037505Y024961D01*
X037580Y024886D01*
X037580Y024736D01*
X037505Y024661D01*
X032861Y026762D02*
X032861Y035030D01*
X026759Y035030D01*
X026759Y026762D01*
X032861Y026762D01*
X024381Y026466D02*
X024381Y026316D01*
X024306Y026241D01*
X024005Y026541D01*
X024306Y026541D01*
X024381Y026466D01*
X024306Y026241D02*
X024005Y026241D01*
X023930Y026316D01*
X023930Y026466D01*
X024005Y026541D01*
X024005Y026081D02*
X023930Y026006D01*
X023930Y025856D01*
X024005Y025781D01*
X024306Y025781D01*
X024005Y026081D01*
X024306Y026081D01*
X024381Y026006D01*
X024381Y025856D01*
X024306Y025781D01*
X024306Y025621D02*
X024381Y025546D01*
X024381Y025395D01*
X024306Y025320D01*
X024155Y025320D02*
X024080Y025471D01*
X024080Y025546D01*
X024155Y025621D01*
X024306Y025621D01*
X024155Y025320D02*
X023930Y025320D01*
X023930Y025621D01*
X023681Y025571D02*
X023230Y025571D01*
X023380Y025421D01*
X023305Y025261D02*
X023455Y025261D01*
X023530Y025186D01*
X023530Y024960D01*
X023530Y025111D02*
X023681Y025261D01*
X023681Y025421D02*
X023681Y025721D01*
X023681Y025881D02*
X023681Y026181D01*
X023681Y026031D02*
X023230Y026031D01*
X023380Y025881D01*
X023305Y025261D02*
X023230Y025186D01*
X023230Y024960D01*
X023681Y024960D01*
X021845Y026450D02*
X021845Y026901D01*
X021620Y026676D01*
X021920Y026676D01*
X021460Y026676D02*
X021385Y026601D01*
X021160Y026601D01*
X021310Y026601D02*
X021460Y026450D01*
X021460Y026676D02*
X021460Y026826D01*
X021385Y026901D01*
X021160Y026901D01*
X021160Y026450D01*
X021025Y027150D02*
X020875Y027150D01*
X020800Y027225D01*
X021100Y027526D01*
X021100Y027225D01*
X021025Y027150D01*
X020800Y027225D02*
X020800Y027526D01*
X020875Y027601D01*
X021025Y027601D01*
X021100Y027526D01*
X021260Y027526D02*
X021260Y027225D01*
X021560Y027526D01*
X021560Y027225D01*
X021485Y027150D01*
X021335Y027150D01*
X021260Y027225D01*
X021260Y027526D02*
X021335Y027601D01*
X021485Y027601D01*
X021560Y027526D01*
X020640Y027601D02*
X020339Y027601D01*
X020339Y027376D01*
X020490Y027451D01*
X020565Y027451D01*
X020640Y027376D01*
X020640Y027225D01*
X020565Y027150D01*
X020414Y027150D01*
X020339Y027225D01*
X019655Y028250D02*
X019505Y028250D01*
X019430Y028325D01*
X019270Y028325D02*
X019270Y028626D01*
X019195Y028701D01*
X018970Y028701D01*
X018970Y028250D01*
X019195Y028250D01*
X019270Y028325D01*
X019430Y028626D02*
X019505Y028701D01*
X019655Y028701D01*
X019730Y028626D01*
X019730Y028551D01*
X019655Y028476D01*
X019730Y028401D01*
X019730Y028325D01*
X019655Y028250D01*
X019655Y028476D02*
X019580Y028476D01*
X016555Y029262D02*
X013208Y029262D01*
X013208Y026168D01*
X016555Y026168D01*
X016555Y029262D01*
X021201Y031770D02*
X021426Y031770D01*
X021501Y031845D01*
X021501Y032146D01*
X021426Y032221D01*
X021201Y032221D01*
X021201Y031770D01*
X021661Y031845D02*
X021661Y031921D01*
X021736Y031996D01*
X021886Y031996D01*
X021961Y031921D01*
X021961Y031845D01*
X021886Y031770D01*
X021736Y031770D01*
X021661Y031845D01*
X021736Y031996D02*
X021661Y032071D01*
X021661Y032146D01*
X021736Y032221D01*
X021886Y032221D01*
X021961Y032146D01*
X021961Y032071D01*
X021886Y031996D01*
X023216Y034243D02*
X023216Y012195D01*
X036011Y012195D01*
X036011Y034243D01*
X023216Y034243D01*
X017357Y034239D02*
X004908Y034239D01*
X004908Y034287D02*
X017357Y034287D01*
X017357Y034336D02*
X004908Y034336D01*
X004908Y034384D02*
X017357Y034384D01*
X017357Y034433D02*
X004908Y034433D01*
X004908Y034482D02*
X017357Y034482D01*
X017357Y034530D02*
X004908Y034530D01*
X004908Y034579D02*
X017357Y034579D01*
X017357Y034627D02*
X004908Y034627D01*
X004908Y034676D02*
X017357Y034676D01*
X017357Y034724D02*
X004908Y034724D01*
X004908Y034773D02*
X017357Y034773D01*
X017357Y034821D02*
X004908Y034821D01*
X004908Y034870D02*
X017357Y034870D01*
X017357Y034918D02*
X004908Y034918D01*
X004908Y034967D02*
X017357Y034967D01*
X017357Y035016D02*
X004908Y035016D01*
X004908Y035064D02*
X017357Y035064D01*
X017357Y035113D02*
X004908Y035113D01*
X004908Y035161D02*
X017357Y035161D01*
X017357Y035210D02*
X004908Y035210D01*
X004908Y035258D02*
X017357Y035258D01*
X017357Y035307D02*
X004908Y035307D01*
X004908Y035355D02*
X017357Y035355D01*
X017357Y035404D02*
X004908Y035404D01*
X004908Y035452D02*
X017357Y035452D01*
X017357Y035501D02*
X004908Y035501D01*
X004908Y035550D02*
X017357Y035550D01*
X017357Y035598D02*
X004908Y035598D01*
X004908Y035647D02*
X017357Y035647D01*
X017357Y035695D02*
X004908Y035695D01*
X004908Y035744D02*
X017357Y035744D01*
X017357Y035792D02*
X004908Y035792D01*
X004908Y035841D02*
X017357Y035841D01*
X017357Y035889D02*
X004908Y035889D01*
X004908Y035938D02*
X017357Y035938D01*
X017357Y035986D02*
X004908Y035986D01*
X004908Y036035D02*
X017357Y036035D01*
X017357Y036084D02*
X004908Y036084D01*
X004908Y036132D02*
X017357Y036132D01*
X017357Y036181D02*
X004908Y036181D01*
X004908Y036229D02*
X017357Y036229D01*
X017357Y036278D02*
X004908Y036278D01*
X004908Y036326D02*
X017357Y036326D01*
X017357Y036375D02*
X004908Y036375D01*
X004908Y036423D02*
X017357Y036423D01*
X017357Y036472D02*
X004908Y036472D01*
X004908Y036520D02*
X017357Y036520D01*
X017357Y036569D02*
X004908Y036569D01*
X004908Y036617D02*
X017357Y036617D01*
X017357Y036666D02*
X004908Y036666D01*
X004908Y036691D02*
X004908Y032990D01*
X017357Y032990D01*
X017357Y036691D01*
X004908Y036691D01*
X004908Y034190D02*
X017357Y034190D01*
X017357Y034142D02*
X004908Y034142D01*
X004908Y034093D02*
X017357Y034093D01*
X017357Y034045D02*
X004908Y034045D01*
X004908Y033996D02*
X017357Y033996D01*
X017357Y033948D02*
X004908Y033948D01*
X004908Y033899D02*
X017357Y033899D01*
X017357Y033851D02*
X004908Y033851D01*
X004908Y033802D02*
X017357Y033802D01*
X017357Y033753D02*
X004908Y033753D01*
X004908Y033705D02*
X017357Y033705D01*
X017357Y033656D02*
X004908Y033656D01*
X004908Y033608D02*
X017357Y033608D01*
X017357Y033559D02*
X004908Y033559D01*
X004908Y033511D02*
X017357Y033511D01*
X017357Y033462D02*
X004908Y033462D01*
X004908Y033414D02*
X017357Y033414D01*
X017357Y033365D02*
X004908Y033365D01*
X004908Y033317D02*
X017357Y033317D01*
X017357Y033268D02*
X004908Y033268D01*
X004908Y033219D02*
X017357Y033219D01*
X017357Y033171D02*
X004908Y033171D01*
X004908Y033122D02*
X017357Y033122D01*
X017357Y033074D02*
X004908Y033074D01*
X004908Y033025D02*
X017357Y033025D01*
X017400Y026560D02*
X017400Y026260D01*
X017625Y026260D01*
X017550Y026410D01*
X017550Y026485D01*
X017625Y026560D01*
X017776Y026560D01*
X017851Y026485D01*
X017851Y026335D01*
X017776Y026260D01*
X017776Y026100D02*
X017700Y026100D01*
X017625Y026025D01*
X017625Y025875D01*
X017550Y025800D01*
X017475Y025800D01*
X017400Y025875D01*
X017400Y026025D01*
X017475Y026100D01*
X017325Y025950D02*
X017926Y025950D01*
X017851Y026025D02*
X017776Y026100D01*
X017851Y026025D02*
X017851Y025875D01*
X017776Y025800D01*
X017776Y025640D02*
X017400Y025640D01*
X017400Y025339D02*
X017776Y025339D01*
X017851Y025414D01*
X017851Y025564D01*
X017776Y025640D01*
X019149Y024901D02*
X019375Y024901D01*
X019450Y024826D01*
X019450Y024525D01*
X019375Y024450D01*
X019149Y024450D01*
X019149Y024901D01*
X019610Y024751D02*
X019760Y024901D01*
X019760Y024450D01*
X019610Y024450D02*
X019910Y024450D01*
X020070Y024450D02*
X020370Y024751D01*
X020370Y024826D01*
X020295Y024901D01*
X020145Y024901D01*
X020070Y024826D01*
X020070Y024450D02*
X020370Y024450D01*
X016841Y022406D02*
X016766Y022481D01*
X016616Y022481D01*
X016541Y022406D01*
X016541Y022331D01*
X016616Y022256D01*
X016841Y022256D01*
X016841Y022406D02*
X016841Y022105D01*
X016766Y022030D01*
X016616Y022030D01*
X016541Y022105D01*
X016381Y022105D02*
X016381Y022406D01*
X016306Y022481D01*
X016081Y022481D01*
X016081Y022030D01*
X016306Y022030D01*
X016381Y022105D01*
X014041Y022216D02*
X013590Y022216D01*
X013815Y021990D01*
X013815Y022291D01*
X013966Y022451D02*
X014041Y022451D01*
X013966Y022451D02*
X013665Y022751D01*
X013590Y022751D01*
X013590Y022451D01*
X013665Y022911D02*
X013590Y022986D01*
X013590Y023136D01*
X013665Y023211D01*
X013966Y022911D01*
X014041Y022986D01*
X014041Y023136D01*
X013966Y023211D01*
X013665Y023211D01*
X013740Y023371D02*
X013966Y023371D01*
X014041Y023447D01*
X014041Y023672D01*
X013740Y023672D01*
X013665Y022911D02*
X013966Y022911D01*
X011691Y025145D02*
X011616Y025070D01*
X011315Y025070D01*
X011240Y025145D01*
X011240Y025296D01*
X011315Y025371D01*
X011465Y025531D02*
X011465Y025756D01*
X011540Y025831D01*
X011616Y025831D01*
X011691Y025756D01*
X011691Y025606D01*
X011616Y025531D01*
X011465Y025531D01*
X011315Y025681D01*
X011240Y025831D01*
X011616Y025371D02*
X011691Y025296D01*
X011691Y025145D01*
X009920Y025061D02*
X009920Y024986D01*
X009620Y024685D01*
X009620Y024610D01*
X009460Y024685D02*
X009460Y024986D01*
X009385Y025061D01*
X009160Y025061D01*
X009160Y024610D01*
X009385Y024610D01*
X009460Y024685D01*
X009620Y025061D02*
X009920Y025061D01*
X008080Y023686D02*
X007780Y023385D01*
X007855Y023310D01*
X008005Y023310D01*
X008080Y023385D01*
X008080Y023686D01*
X008005Y023761D01*
X007855Y023761D01*
X007780Y023686D01*
X007780Y023385D01*
X007620Y023310D02*
X007320Y023310D01*
X007470Y023310D02*
X007470Y023761D01*
X007320Y023611D01*
X007160Y023686D02*
X007160Y023536D01*
X007085Y023461D01*
X006859Y023461D01*
X007010Y023461D02*
X007160Y023310D01*
X006859Y023310D02*
X006859Y023761D01*
X007085Y023761D01*
X007160Y023686D01*
X007187Y024010D02*
X007187Y024461D01*
X007037Y024311D01*
X007037Y024010D02*
X007337Y024010D01*
X007497Y024010D02*
X007497Y024461D01*
X007722Y024311D02*
X007497Y024161D01*
X007722Y024010D01*
X005442Y025816D02*
X005442Y029163D01*
X002348Y029163D01*
X002348Y025816D01*
X005442Y025816D01*
X004291Y023285D02*
X003840Y023285D01*
X004065Y023060D01*
X004065Y023360D01*
X004140Y022900D02*
X004065Y022825D01*
X004065Y022675D01*
X003990Y022600D01*
X003915Y022600D01*
X003840Y022675D01*
X003840Y022825D01*
X003915Y022900D01*
X003765Y022750D02*
X004366Y022750D01*
X004291Y022825D02*
X004216Y022900D01*
X004140Y022900D01*
X004291Y022825D02*
X004291Y022675D01*
X004216Y022600D01*
X004216Y022440D02*
X003840Y022440D01*
X003840Y022139D02*
X004216Y022139D01*
X004291Y022214D01*
X004291Y022364D01*
X004216Y022440D01*
X004509Y022221D02*
X004735Y022221D01*
X004810Y022146D01*
X004810Y021845D01*
X004735Y021770D01*
X004509Y021770D01*
X004509Y022221D01*
X004970Y022071D02*
X005120Y022221D01*
X005120Y021770D01*
X004970Y021770D02*
X005270Y021770D01*
X005430Y021770D02*
X005730Y021770D01*
X005580Y021770D02*
X005580Y022221D01*
X005430Y022071D01*
X006601Y020931D02*
X006751Y021081D01*
X006751Y020630D01*
X006601Y020630D02*
X006901Y020630D01*
X007061Y020630D02*
X007061Y021081D01*
X007286Y020931D02*
X007061Y020781D01*
X007286Y020630D01*
X007246Y020341D02*
X007096Y020341D01*
X007021Y020266D01*
X006861Y020266D02*
X006861Y020116D01*
X006786Y020041D01*
X006561Y020041D01*
X006711Y020041D02*
X006861Y019890D01*
X007021Y019890D02*
X007321Y020191D01*
X007321Y020266D01*
X007246Y020341D01*
X006861Y020266D02*
X006786Y020341D01*
X006561Y020341D01*
X006561Y019890D01*
X007021Y019890D02*
X007321Y019890D01*
X005580Y018721D02*
X005430Y018571D01*
X005270Y018646D02*
X005195Y018721D01*
X004970Y018721D01*
X004970Y018270D01*
X005195Y018270D01*
X005270Y018345D01*
X005270Y018646D01*
X005580Y018721D02*
X005580Y018270D01*
X005430Y018270D02*
X005730Y018270D01*
X004810Y015891D02*
X004810Y015590D01*
X004585Y015590D01*
X004510Y015665D01*
X004510Y015891D01*
X004350Y015966D02*
X004050Y015665D01*
X004125Y015590D01*
X004275Y015590D01*
X004350Y015665D01*
X004350Y015966D01*
X004275Y016041D01*
X004125Y016041D01*
X004050Y015966D01*
X004050Y015665D01*
X003890Y015966D02*
X003589Y015665D01*
X003589Y015590D01*
X003354Y015590D02*
X003354Y016041D01*
X003129Y015816D01*
X003429Y015816D01*
X003589Y016041D02*
X003890Y016041D01*
X003890Y015966D01*
X002370Y012891D02*
X002070Y012891D01*
X002070Y012666D01*
X002220Y012741D01*
X002295Y012741D01*
X002370Y012666D01*
X002370Y012515D01*
X002295Y012440D01*
X002145Y012440D01*
X002070Y012515D01*
X001910Y012515D02*
X001835Y012440D01*
X001685Y012440D01*
X001610Y012515D01*
X001610Y012816D01*
X001685Y012891D01*
X001835Y012891D01*
X001910Y012816D01*
X005991Y011346D02*
X005991Y011271D01*
X006066Y011196D01*
X006216Y011196D01*
X006291Y011121D01*
X006291Y011045D01*
X006216Y010970D01*
X006066Y010970D01*
X005991Y011045D01*
X005991Y011346D02*
X006066Y011421D01*
X006216Y011421D01*
X006291Y011346D01*
X006451Y011421D02*
X006451Y011045D01*
X006526Y010970D01*
X006676Y010970D01*
X006751Y011045D01*
X006751Y011421D01*
X006911Y011421D02*
X006911Y010970D01*
X006911Y011121D02*
X007136Y011121D01*
X007212Y011196D01*
X007212Y011346D01*
X007136Y011421D01*
X006911Y011421D01*
X007372Y010895D02*
X007672Y010895D01*
X007832Y010970D02*
X008132Y010970D01*
X007982Y010970D02*
X007982Y011421D01*
X007832Y011271D01*
X010970Y012455D02*
X011045Y012380D01*
X011195Y012380D01*
X011270Y012455D01*
X011430Y012455D02*
X011430Y012380D01*
X011430Y012455D02*
X011730Y012756D01*
X011730Y012831D01*
X011430Y012831D01*
X011270Y012756D02*
X011195Y012831D01*
X011045Y012831D01*
X010970Y012756D01*
X010970Y012455D01*
X013354Y014730D02*
X013354Y015181D01*
X013129Y014956D01*
X013429Y014956D01*
X013589Y014805D02*
X013589Y014730D01*
X013589Y014805D02*
X013890Y015106D01*
X013890Y015181D01*
X013589Y015181D01*
X014050Y015106D02*
X014050Y014805D01*
X014350Y015106D01*
X014350Y014805D01*
X014275Y014730D01*
X014125Y014730D01*
X014050Y014805D01*
X014050Y015106D02*
X014125Y015181D01*
X014275Y015181D01*
X014350Y015106D01*
X014510Y015031D02*
X014510Y014805D01*
X014585Y014730D01*
X014810Y014730D01*
X014810Y015031D01*
X016280Y015439D02*
X016656Y015439D01*
X016731Y015514D01*
X016731Y015664D01*
X016656Y015740D01*
X016280Y015740D01*
X016355Y015900D02*
X016280Y015975D01*
X016280Y016125D01*
X016355Y016200D01*
X016505Y016125D02*
X016505Y015975D01*
X016430Y015900D01*
X016355Y015900D01*
X016205Y016050D02*
X016806Y016050D01*
X016731Y015975D02*
X016731Y016125D01*
X016656Y016200D01*
X016580Y016200D01*
X016505Y016125D01*
X016505Y016360D02*
X016505Y016585D01*
X016580Y016660D01*
X016656Y016660D01*
X016731Y016585D01*
X016731Y016435D01*
X016656Y016360D01*
X016505Y016360D01*
X016355Y016510D01*
X016280Y016660D01*
X016731Y015975D02*
X016656Y015900D01*
X018509Y016170D02*
X018735Y016170D01*
X018810Y016245D01*
X018810Y016546D01*
X018735Y016621D01*
X018509Y016621D01*
X018509Y016170D01*
X018970Y016170D02*
X019270Y016170D01*
X019120Y016170D02*
X019120Y016621D01*
X018970Y016471D01*
X019430Y016546D02*
X019505Y016621D01*
X019655Y016621D01*
X019730Y016546D01*
X019730Y016471D01*
X019655Y016396D01*
X019730Y016321D01*
X019730Y016245D01*
X019655Y016170D01*
X019505Y016170D01*
X019430Y016245D01*
X019580Y016396D02*
X019655Y016396D01*
X020859Y017710D02*
X020859Y018161D01*
X021085Y018161D01*
X021160Y018086D01*
X021160Y017936D01*
X021085Y017861D01*
X020859Y017861D01*
X021010Y017861D02*
X021160Y017710D01*
X021320Y017710D02*
X021620Y017710D01*
X021470Y017710D02*
X021470Y018161D01*
X021320Y018011D01*
X021185Y018410D02*
X021035Y018410D01*
X020960Y018485D01*
X020800Y018485D02*
X020725Y018410D01*
X020574Y018410D01*
X020499Y018485D01*
X020650Y018636D02*
X020725Y018636D01*
X020800Y018561D01*
X020800Y018485D01*
X020725Y018636D02*
X020800Y018711D01*
X020800Y018786D01*
X020725Y018861D01*
X020574Y018861D01*
X020499Y018786D01*
X020960Y018786D02*
X021035Y018861D01*
X021185Y018861D01*
X021260Y018786D01*
X021260Y018711D01*
X021185Y018636D01*
X021260Y018561D01*
X021260Y018485D01*
X021185Y018410D01*
X021185Y018636D02*
X021110Y018636D01*
X021420Y018786D02*
X021495Y018861D01*
X021645Y018861D01*
X021720Y018786D01*
X021420Y018485D01*
X021495Y018410D01*
X021645Y018410D01*
X021720Y018485D01*
X021720Y018786D01*
X021420Y018786D02*
X021420Y018485D01*
X021780Y018086D02*
X021855Y018161D01*
X022005Y018161D01*
X022080Y018086D01*
X022080Y018011D01*
X021780Y017710D01*
X022080Y017710D01*
X023930Y017456D02*
X024005Y017531D01*
X024306Y017231D01*
X024381Y017306D01*
X024381Y017456D01*
X024306Y017531D01*
X024005Y017531D01*
X023930Y017456D02*
X023930Y017306D01*
X024005Y017231D01*
X024306Y017231D01*
X024306Y017071D02*
X024381Y016996D01*
X024381Y016846D01*
X024306Y016771D01*
X024306Y016611D02*
X024381Y016536D01*
X024381Y016385D01*
X024306Y016310D01*
X024155Y016461D02*
X024155Y016536D01*
X024230Y016611D01*
X024306Y016611D01*
X024155Y016536D02*
X024080Y016611D01*
X024005Y016611D01*
X023930Y016536D01*
X023930Y016385D01*
X024005Y016310D01*
X023681Y016251D02*
X023530Y016101D01*
X023530Y016176D02*
X023530Y015950D01*
X023681Y015950D02*
X023230Y015950D01*
X023230Y016176D01*
X023305Y016251D01*
X023455Y016251D01*
X023530Y016176D01*
X023455Y016411D02*
X023455Y016636D01*
X023530Y016711D01*
X023606Y016711D01*
X023681Y016636D01*
X023681Y016486D01*
X023606Y016411D01*
X023455Y016411D01*
X023305Y016561D01*
X023230Y016711D01*
X023930Y016846D02*
X023930Y016996D01*
X024005Y017071D01*
X024080Y017071D01*
X024155Y016996D01*
X024230Y017071D01*
X024306Y017071D01*
X024155Y016996D02*
X024155Y016921D01*
X024005Y016771D02*
X023930Y016846D01*
X019730Y020245D02*
X019655Y020170D01*
X019505Y020170D01*
X019430Y020245D01*
X019430Y020396D02*
X019580Y020471D01*
X019655Y020471D01*
X019730Y020396D01*
X019730Y020245D01*
X019430Y020396D02*
X019430Y020621D01*
X019730Y020621D01*
X019270Y020546D02*
X019195Y020621D01*
X018970Y020621D01*
X018970Y020170D01*
X019195Y020170D01*
X019270Y020245D01*
X019270Y020546D01*
X014635Y019662D02*
X011288Y019662D01*
X011288Y016568D01*
X014635Y016568D01*
X014635Y019662D01*
X021066Y011421D02*
X020991Y011346D01*
X020991Y011271D01*
X021066Y011196D01*
X021216Y011196D01*
X021291Y011121D01*
X021291Y011045D01*
X021216Y010970D01*
X021066Y010970D01*
X020991Y011045D01*
X021066Y011421D02*
X021216Y011421D01*
X021291Y011346D01*
X021451Y011421D02*
X021451Y011045D01*
X021526Y010970D01*
X021676Y010970D01*
X021751Y011045D01*
X021751Y011421D01*
X021911Y011421D02*
X021911Y010970D01*
X021911Y011121D02*
X022136Y011121D01*
X022212Y011196D01*
X022212Y011346D01*
X022136Y011421D01*
X021911Y011421D01*
X022372Y010895D02*
X022672Y010895D01*
X022832Y011045D02*
X022907Y010970D01*
X023057Y010970D01*
X023132Y011045D01*
X023132Y011121D01*
X023057Y011196D01*
X022982Y011196D01*
X023057Y011196D02*
X023132Y011271D01*
X023132Y011346D01*
X023057Y011421D01*
X022907Y011421D01*
X022832Y011346D01*
X023057Y005921D02*
X022832Y005696D01*
X023132Y005696D01*
X023057Y005921D02*
X023057Y005470D01*
X022672Y005395D02*
X022372Y005395D01*
X022136Y005621D02*
X021911Y005621D01*
X021911Y005470D02*
X021911Y005921D01*
X022136Y005921D01*
X022212Y005846D01*
X022212Y005696D01*
X022136Y005621D01*
X021751Y005545D02*
X021751Y005921D01*
X021451Y005921D02*
X021451Y005545D01*
X021526Y005470D01*
X021676Y005470D01*
X021751Y005545D01*
X021291Y005545D02*
X021216Y005470D01*
X021066Y005470D01*
X020991Y005545D01*
X021066Y005696D02*
X021216Y005696D01*
X021291Y005621D01*
X021291Y005545D01*
X021066Y005696D02*
X020991Y005771D01*
X020991Y005846D01*
X021066Y005921D01*
X021216Y005921D01*
X021291Y005846D01*
X008132Y005846D02*
X008057Y005921D01*
X007907Y005921D01*
X007832Y005846D01*
X008132Y005846D02*
X008132Y005771D01*
X007832Y005470D01*
X008132Y005470D01*
X007672Y005395D02*
X007372Y005395D01*
X007136Y005621D02*
X006911Y005621D01*
X006911Y005470D02*
X006911Y005921D01*
X007136Y005921D01*
X007212Y005846D01*
X007212Y005696D01*
X007136Y005621D01*
X006751Y005545D02*
X006751Y005921D01*
X006451Y005921D02*
X006451Y005545D01*
X006526Y005470D01*
X006676Y005470D01*
X006751Y005545D01*
X006291Y005545D02*
X006216Y005470D01*
X006066Y005470D01*
X005991Y005545D01*
X006066Y005696D02*
X006216Y005696D01*
X006291Y005621D01*
X006291Y005545D01*
X006066Y005696D02*
X005991Y005771D01*
X005991Y005846D01*
X006066Y005921D01*
X006216Y005921D01*
X006291Y005846D01*
X040501Y019385D02*
X040576Y019310D01*
X040651Y019310D01*
X040726Y019385D01*
X040726Y019761D01*
X040651Y019761D02*
X040801Y019761D01*
X040961Y019761D02*
X041186Y019761D01*
X041261Y019686D01*
X041261Y019536D01*
X041186Y019461D01*
X040961Y019461D01*
X040961Y019310D02*
X040961Y019761D01*
X041421Y019686D02*
X041496Y019761D01*
X041646Y019761D01*
X041722Y019686D01*
X041722Y019611D01*
X041421Y019310D01*
X041722Y019310D01*
X047639Y016876D02*
X047639Y016575D01*
X047939Y016876D01*
X047939Y016575D01*
X047864Y016500D01*
X047714Y016500D01*
X047639Y016575D01*
X047639Y016876D02*
X047714Y016951D01*
X047864Y016951D01*
X047939Y016876D01*
X048100Y016575D02*
X048175Y016575D01*
X048175Y016500D01*
X048100Y016500D01*
X048100Y016575D01*
X048330Y016500D02*
X048630Y016500D01*
X048480Y016500D02*
X048480Y016951D01*
X048330Y016801D01*
X048790Y016801D02*
X048790Y016575D01*
X048865Y016500D01*
X049090Y016500D01*
X049090Y016801D01*
X050090Y015936D02*
X050090Y015635D01*
X050165Y015560D01*
X050315Y015560D01*
X050390Y015635D01*
X050550Y015635D02*
X050625Y015560D01*
X050775Y015560D01*
X050850Y015635D01*
X050850Y015711D01*
X050775Y015786D01*
X050700Y015786D01*
X050775Y015786D02*
X050850Y015861D01*
X050850Y015936D01*
X050775Y016011D01*
X050625Y016011D01*
X050550Y015936D01*
X050390Y015936D02*
X050315Y016011D01*
X050165Y016011D01*
X050090Y015936D01*
X052151Y016780D02*
X052451Y017081D01*
X052451Y017156D01*
X052376Y017231D01*
X052226Y017231D01*
X052151Y017156D01*
X052151Y016780D02*
X052451Y016780D01*
X052611Y016780D02*
X052911Y017081D01*
X052911Y017156D01*
X052836Y017231D01*
X052686Y017231D01*
X052611Y017156D01*
X052611Y016780D02*
X052911Y016780D01*
X053071Y016780D02*
X053296Y016780D01*
X053372Y016855D01*
X053372Y017006D01*
X053296Y017081D01*
X053071Y017081D01*
X053071Y016630D01*
X053826Y018040D02*
X053976Y018040D01*
X054051Y018115D01*
X054211Y018040D02*
X054511Y018040D01*
X054361Y018040D02*
X054361Y018491D01*
X054211Y018341D01*
X054051Y018416D02*
X053976Y018491D01*
X053826Y018491D01*
X053751Y018416D01*
X053751Y018115D01*
X053826Y018040D01*
X055710Y018175D02*
X055785Y018100D01*
X055935Y018100D01*
X056010Y018175D01*
X056170Y018100D02*
X056470Y018401D01*
X056470Y018476D01*
X056395Y018551D01*
X056245Y018551D01*
X056170Y018476D01*
X056010Y018476D02*
X055935Y018551D01*
X055785Y018551D01*
X055710Y018476D01*
X055710Y018175D01*
X056170Y018100D02*
X056470Y018100D01*
X057489Y017176D02*
X057564Y017251D01*
X057715Y017251D01*
X057790Y017176D01*
X057790Y017101D01*
X057489Y016800D01*
X057790Y016800D01*
X057950Y016800D02*
X058250Y017101D01*
X058250Y017176D01*
X058175Y017251D01*
X058025Y017251D01*
X057950Y017176D01*
X057950Y016800D02*
X058250Y016800D01*
X058410Y016800D02*
X058635Y016800D01*
X058710Y016875D01*
X058710Y017026D01*
X058635Y017101D01*
X058410Y017101D01*
X058410Y016650D01*
X057470Y014601D02*
X057470Y014150D01*
X057320Y014150D02*
X057620Y014150D01*
X057320Y014451D02*
X057470Y014601D01*
X057160Y014526D02*
X057160Y014225D01*
X057085Y014150D01*
X056935Y014150D01*
X056860Y014225D01*
X056860Y014526D01*
X056935Y014601D01*
X057085Y014601D01*
X057160Y014526D01*
X057010Y014301D02*
X057160Y014150D01*
X056180Y014030D02*
X056180Y014481D01*
X056030Y014331D01*
X055880Y014481D01*
X055880Y014030D01*
X055720Y014105D02*
X055645Y014030D01*
X055495Y014030D01*
X055420Y014105D01*
X055720Y014406D01*
X055720Y014105D01*
X055420Y014105D02*
X055420Y014406D01*
X055495Y014481D01*
X055645Y014481D01*
X055720Y014406D01*
X055260Y014406D02*
X054959Y014105D01*
X055034Y014030D01*
X055184Y014030D01*
X055260Y014105D01*
X055260Y014406D01*
X055184Y014481D01*
X055034Y014481D01*
X054959Y014406D01*
X054959Y014105D01*
X054799Y014105D02*
X054724Y014030D01*
X054574Y014030D01*
X054499Y014105D01*
X054799Y014406D01*
X054799Y014105D01*
X054499Y014105D02*
X054499Y014406D01*
X054574Y014481D01*
X054724Y014481D01*
X054799Y014406D01*
X054344Y014105D02*
X054344Y014030D01*
X054269Y014030D01*
X054269Y014105D01*
X054344Y014105D01*
X054109Y014105D02*
X054034Y014030D01*
X053883Y014030D01*
X053808Y014105D01*
X053808Y014256D02*
X053959Y014331D01*
X054034Y014331D01*
X054109Y014256D01*
X054109Y014105D01*
X053808Y014256D02*
X053808Y014481D01*
X054109Y014481D01*
X053648Y014406D02*
X053573Y014481D01*
X053423Y014481D01*
X053348Y014406D01*
X053648Y014406D02*
X053648Y014331D01*
X053348Y014030D01*
X053648Y014030D01*
X054816Y011421D02*
X054741Y011346D01*
X054741Y011271D01*
X054816Y011196D01*
X054966Y011196D01*
X055041Y011121D01*
X055041Y011045D01*
X054966Y010970D01*
X054816Y010970D01*
X054741Y011045D01*
X054816Y011421D02*
X054966Y011421D01*
X055041Y011346D01*
X055201Y011421D02*
X055201Y011045D01*
X055276Y010970D01*
X055426Y010970D01*
X055501Y011045D01*
X055501Y011421D01*
X055661Y011421D02*
X055886Y011421D01*
X055962Y011346D01*
X055962Y011196D01*
X055886Y011121D01*
X055661Y011121D01*
X055661Y010970D02*
X055661Y011421D01*
X056122Y010895D02*
X056422Y010895D01*
X056582Y010970D02*
X056582Y011045D01*
X056882Y011346D01*
X056882Y011421D01*
X056582Y011421D01*
X056657Y005921D02*
X056807Y005921D01*
X056882Y005846D01*
X056882Y005771D01*
X056807Y005696D01*
X056657Y005696D01*
X056582Y005771D01*
X056582Y005846D01*
X056657Y005921D01*
X056657Y005696D02*
X056582Y005621D01*
X056582Y005545D01*
X056657Y005470D01*
X056807Y005470D01*
X056882Y005545D01*
X056882Y005621D01*
X056807Y005696D01*
X056422Y005395D02*
X056122Y005395D01*
X055886Y005621D02*
X055962Y005696D01*
X055962Y005846D01*
X055886Y005921D01*
X055661Y005921D01*
X055661Y005470D01*
X055661Y005621D02*
X055886Y005621D01*
X055501Y005545D02*
X055501Y005921D01*
X055201Y005921D02*
X055201Y005545D01*
X055276Y005470D01*
X055426Y005470D01*
X055501Y005545D01*
X055041Y005545D02*
X054966Y005470D01*
X054816Y005470D01*
X054741Y005545D01*
X054816Y005696D02*
X054741Y005771D01*
X054741Y005846D01*
X054816Y005921D01*
X054966Y005921D01*
X055041Y005846D01*
X054966Y005696D02*
X055041Y005621D01*
X055041Y005545D01*
X054966Y005696D02*
X054816Y005696D01*
X044382Y005621D02*
X044307Y005696D01*
X044082Y005696D01*
X044082Y005545D01*
X044157Y005470D01*
X044307Y005470D01*
X044382Y005545D01*
X044382Y005621D01*
X044232Y005846D02*
X044082Y005696D01*
X044232Y005846D02*
X044382Y005921D01*
X043922Y005395D02*
X043622Y005395D01*
X043386Y005621D02*
X043161Y005621D01*
X043161Y005470D02*
X043161Y005921D01*
X043386Y005921D01*
X043462Y005846D01*
X043462Y005696D01*
X043386Y005621D01*
X043001Y005545D02*
X043001Y005921D01*
X042701Y005921D02*
X042701Y005545D01*
X042776Y005470D01*
X042926Y005470D01*
X043001Y005545D01*
X042541Y005545D02*
X042466Y005470D01*
X042316Y005470D01*
X042241Y005545D01*
X042316Y005696D02*
X042466Y005696D01*
X042541Y005621D01*
X042541Y005545D01*
X042316Y005696D02*
X042241Y005771D01*
X042241Y005846D01*
X042316Y005921D01*
X042466Y005921D01*
X042541Y005846D01*
X042466Y010970D02*
X042316Y010970D01*
X042241Y011045D01*
X042316Y011196D02*
X042466Y011196D01*
X042541Y011121D01*
X042541Y011045D01*
X042466Y010970D01*
X042701Y011045D02*
X042776Y010970D01*
X042926Y010970D01*
X043001Y011045D01*
X043001Y011421D01*
X043161Y011421D02*
X043161Y010970D01*
X043161Y011121D02*
X043386Y011121D01*
X043462Y011196D01*
X043462Y011346D01*
X043386Y011421D01*
X043161Y011421D01*
X042701Y011421D02*
X042701Y011045D01*
X042541Y011346D02*
X042466Y011421D01*
X042316Y011421D01*
X042241Y011346D01*
X042241Y011271D01*
X042316Y011196D01*
X043622Y010895D02*
X043922Y010895D01*
X044082Y011045D02*
X044157Y010970D01*
X044307Y010970D01*
X044382Y011045D01*
X044382Y011196D01*
X044307Y011271D01*
X044232Y011271D01*
X044082Y011196D01*
X044082Y011421D01*
X044382Y011421D01*
X060041Y022105D02*
X060116Y022030D01*
X060266Y022030D01*
X060341Y022105D01*
X060341Y022181D01*
X060266Y022256D01*
X060191Y022256D01*
X060266Y022256D02*
X060341Y022331D01*
X060341Y022406D01*
X060266Y022481D01*
X060116Y022481D01*
X060041Y022406D01*
X059981Y022730D02*
X059831Y022881D01*
X059906Y022881D02*
X059681Y022881D01*
X059681Y022730D02*
X059681Y023181D01*
X059906Y023181D01*
X059981Y023106D01*
X059981Y022956D01*
X059906Y022881D01*
X060141Y022805D02*
X060216Y022730D01*
X060366Y022730D01*
X060441Y022805D01*
X060441Y023106D01*
X060366Y023181D01*
X060216Y023181D01*
X060141Y023106D01*
X060141Y023031D01*
X060216Y022956D01*
X060441Y022956D01*
X060576Y023530D02*
X060501Y023605D01*
X060576Y023530D02*
X060726Y023530D01*
X060801Y023605D01*
X060801Y023681D01*
X060726Y023756D01*
X060651Y023756D01*
X060726Y023756D02*
X060801Y023831D01*
X060801Y023906D01*
X060726Y023981D01*
X060576Y023981D01*
X060501Y023906D01*
X060341Y023906D02*
X060341Y023831D01*
X060266Y023756D01*
X060341Y023681D01*
X060341Y023605D01*
X060266Y023530D01*
X060116Y023530D01*
X060041Y023605D01*
X060191Y023756D02*
X060266Y023756D01*
X060341Y023906D02*
X060266Y023981D01*
X060116Y023981D01*
X060041Y023906D01*
X059981Y024230D02*
X059831Y024381D01*
X059906Y024381D02*
X059681Y024381D01*
X059681Y024230D02*
X059681Y024681D01*
X059906Y024681D01*
X059981Y024606D01*
X059981Y024456D01*
X059906Y024381D01*
X060141Y024456D02*
X060291Y024531D01*
X060366Y024531D01*
X060441Y024456D01*
X060441Y024305D01*
X060366Y024230D01*
X060216Y024230D01*
X060141Y024305D01*
X060141Y024456D02*
X060141Y024681D01*
X060441Y024681D01*
X060576Y025190D02*
X060501Y025265D01*
X060576Y025190D02*
X060726Y025190D01*
X060801Y025265D01*
X060801Y025341D01*
X060726Y025416D01*
X060651Y025416D01*
X060726Y025416D02*
X060801Y025491D01*
X060801Y025566D01*
X060726Y025641D01*
X060576Y025641D01*
X060501Y025566D01*
X060341Y025566D02*
X060341Y025491D01*
X060266Y025416D01*
X060341Y025341D01*
X060341Y025265D01*
X060266Y025190D01*
X060116Y025190D01*
X060041Y025265D01*
X060191Y025416D02*
X060266Y025416D01*
X060341Y025566D02*
X060266Y025641D01*
X060116Y025641D01*
X060041Y025566D01*
X059981Y025890D02*
X059831Y026041D01*
X059906Y026041D02*
X059681Y026041D01*
X059681Y025890D02*
X059681Y026341D01*
X059906Y026341D01*
X059981Y026266D01*
X059981Y026116D01*
X059906Y026041D01*
X060141Y025965D02*
X060216Y025890D01*
X060366Y025890D01*
X060441Y025965D01*
X060441Y026041D01*
X060366Y026116D01*
X060291Y026116D01*
X060366Y026116D02*
X060441Y026191D01*
X060441Y026266D01*
X060366Y026341D01*
X060216Y026341D01*
X060141Y026266D01*
X060116Y026530D02*
X060041Y026605D01*
X060116Y026530D02*
X060266Y026530D01*
X060341Y026605D01*
X060341Y026681D01*
X060266Y026756D01*
X060191Y026756D01*
X060266Y026756D02*
X060341Y026831D01*
X060341Y026906D01*
X060266Y026981D01*
X060116Y026981D01*
X060041Y026906D01*
X059981Y027230D02*
X059831Y027381D01*
X059906Y027381D02*
X059681Y027381D01*
X059681Y027230D02*
X059681Y027681D01*
X059906Y027681D01*
X059981Y027606D01*
X059981Y027456D01*
X059906Y027381D01*
X060141Y027531D02*
X060291Y027681D01*
X060291Y027230D01*
X060141Y027230D02*
X060441Y027230D01*
X060576Y026981D02*
X060726Y026981D01*
X060801Y026906D01*
X060801Y026831D01*
X060726Y026756D01*
X060801Y026681D01*
X060801Y026605D01*
X060726Y026530D01*
X060576Y026530D01*
X060501Y026605D01*
X060651Y026756D02*
X060726Y026756D01*
X060501Y026906D02*
X060576Y026981D01*
X060961Y026906D02*
X060961Y026605D01*
X061262Y026906D01*
X061262Y026605D01*
X061186Y026530D01*
X061036Y026530D01*
X060961Y026605D01*
X060961Y026906D02*
X061036Y026981D01*
X061186Y026981D01*
X061262Y026906D01*
X061186Y025641D02*
X061262Y025566D01*
X060961Y025265D01*
X061036Y025190D01*
X061186Y025190D01*
X061262Y025265D01*
X061262Y025566D01*
X061186Y025641D02*
X061036Y025641D01*
X060961Y025566D01*
X060961Y025265D01*
X061036Y023981D02*
X061186Y023981D01*
X061262Y023906D01*
X060961Y023605D01*
X061036Y023530D01*
X061186Y023530D01*
X061262Y023605D01*
X061262Y023906D01*
X061036Y023981D02*
X060961Y023906D01*
X060961Y023605D01*
X061036Y022481D02*
X061186Y022481D01*
X061262Y022406D01*
X060961Y022105D01*
X061036Y022030D01*
X061186Y022030D01*
X061262Y022105D01*
X061262Y022406D01*
X061036Y022481D02*
X060961Y022406D01*
X060961Y022105D01*
X060801Y022105D02*
X060801Y022181D01*
X060726Y022256D01*
X060651Y022256D01*
X060726Y022256D02*
X060801Y022331D01*
X060801Y022406D01*
X060726Y022481D01*
X060576Y022481D01*
X060501Y022406D01*
X060501Y022105D02*
X060576Y022030D01*
X060726Y022030D01*
X060801Y022105D01*
X065591Y022270D02*
X065816Y022270D01*
X065891Y022345D01*
X065891Y022646D01*
X065816Y022721D01*
X065591Y022721D01*
X065591Y022270D01*
X066051Y022270D02*
X066351Y022270D01*
X066201Y022270D02*
X066201Y022721D01*
X066051Y022571D01*
X066511Y022646D02*
X066511Y022345D01*
X066812Y022646D01*
X066812Y022345D01*
X066736Y022270D01*
X066586Y022270D01*
X066511Y022345D01*
X066511Y022646D02*
X066586Y022721D01*
X066736Y022721D01*
X066812Y022646D01*
X066276Y023770D02*
X066351Y023845D01*
X066351Y023921D01*
X066276Y023996D01*
X066051Y023996D01*
X066051Y023845D01*
X066126Y023770D01*
X066276Y023770D01*
X066051Y023996D02*
X066201Y024146D01*
X066351Y024221D01*
X065891Y024146D02*
X065816Y024221D01*
X065591Y024221D01*
X065591Y023770D01*
X065816Y023770D01*
X065891Y023845D01*
X065891Y024146D01*
X065816Y025270D02*
X065591Y025270D01*
X065591Y025721D01*
X065816Y025721D01*
X065891Y025646D01*
X065891Y025345D01*
X065816Y025270D01*
X066051Y025496D02*
X066351Y025496D01*
X066276Y025721D02*
X066051Y025496D01*
X066276Y025270D02*
X066276Y025721D01*
X066351Y026770D02*
X066051Y026770D01*
X066351Y027071D01*
X066351Y027146D01*
X066276Y027221D01*
X066126Y027221D01*
X066051Y027146D01*
X065891Y027146D02*
X065816Y027221D01*
X065591Y027221D01*
X065591Y026770D01*
X065816Y026770D01*
X065891Y026845D01*
X065891Y027146D01*
X058580Y029970D02*
X058280Y029970D01*
X058430Y029970D02*
X058430Y030421D01*
X058280Y030271D01*
X058120Y030346D02*
X058045Y030421D01*
X057820Y030421D01*
X057820Y029970D01*
X057820Y030121D02*
X058045Y030121D01*
X058120Y030196D01*
X058120Y030346D01*
X057660Y030421D02*
X057510Y030421D01*
X057585Y030421D02*
X057585Y030045D01*
X057510Y029970D01*
X057434Y029970D01*
X057359Y030045D01*
X048851Y027892D02*
X048851Y027666D01*
X048776Y027591D01*
X048550Y027591D01*
X048550Y027892D02*
X048851Y027892D01*
X048851Y027431D02*
X048851Y027131D01*
X048851Y027281D02*
X048400Y027281D01*
X048550Y027131D01*
X048776Y026976D02*
X048851Y026976D01*
X048851Y026901D01*
X048776Y026901D01*
X048776Y026976D01*
X048776Y026741D02*
X048851Y026666D01*
X048851Y026515D01*
X048776Y026440D01*
X048475Y026741D01*
X048776Y026741D01*
X048776Y026440D02*
X048475Y026440D01*
X048400Y026515D01*
X048400Y026666D01*
X048475Y026741D01*
X046951Y026666D02*
X046951Y026515D01*
X046876Y026440D01*
X046575Y026440D01*
X046500Y026515D01*
X046500Y026666D01*
X046575Y026741D01*
X046725Y026901D02*
X046725Y027201D01*
X046500Y027126D02*
X046951Y027126D01*
X046725Y026901D02*
X046500Y027126D01*
X046876Y026741D02*
X046951Y026666D01*
D135*
X041291Y026655D03*
X041291Y027695D03*
X041291Y028695D03*
X039141Y028695D03*
X039141Y027695D03*
X039141Y026655D03*
X039141Y025735D03*
X039141Y024695D03*
X041291Y024695D03*
X041291Y025735D03*
X059581Y025355D03*
X061731Y025355D03*
X061731Y026695D03*
X059581Y026695D03*
X059581Y023695D03*
X061731Y023695D03*
X061731Y022195D03*
X059581Y022195D03*
X022291Y018695D03*
X020141Y018695D03*
X008291Y020795D03*
X006141Y020795D03*
X006141Y024295D03*
X008291Y024295D03*
X019981Y027435D03*
X022131Y027435D03*
D136*
X024216Y027010D03*
X024216Y024860D03*
X024216Y018000D03*
X024216Y015850D03*
D137*
X016306Y021355D03*
X009326Y025735D03*
X021426Y031095D03*
D138*
X020801Y031095D03*
X023151Y031095D03*
X009951Y025735D03*
X007601Y025735D03*
X015681Y021355D03*
X018031Y021355D03*
D139*
X054406Y016375D02*
X057106Y016375D01*
X057157Y016373D01*
X057208Y016368D01*
X057258Y016358D01*
X057308Y016345D01*
X057356Y016329D01*
X057403Y016309D01*
X057449Y016285D01*
X057492Y016259D01*
X057534Y016229D01*
X057573Y016196D01*
X057610Y016161D01*
X057644Y016123D01*
X057675Y016082D01*
X057704Y016040D01*
X057729Y015995D01*
X057750Y015949D01*
X057769Y015901D01*
X057783Y015852D01*
X057794Y015802D01*
X057802Y015752D01*
X057806Y015701D01*
X057806Y015649D01*
X057802Y015598D01*
X057794Y015548D01*
X057783Y015498D01*
X057769Y015449D01*
X057750Y015401D01*
X057729Y015355D01*
X057704Y015310D01*
X057675Y015268D01*
X057644Y015227D01*
X057610Y015189D01*
X057573Y015154D01*
X057534Y015121D01*
X057492Y015091D01*
X057449Y015065D01*
X057403Y015041D01*
X057356Y015021D01*
X057308Y015005D01*
X057258Y014992D01*
X057208Y014982D01*
X057157Y014977D01*
X057106Y014975D01*
X054406Y014975D01*
X054355Y014977D01*
X054304Y014982D01*
X054254Y014992D01*
X054204Y015005D01*
X054156Y015021D01*
X054109Y015041D01*
X054063Y015065D01*
X054020Y015091D01*
X053978Y015121D01*
X053939Y015154D01*
X053902Y015189D01*
X053868Y015227D01*
X053837Y015268D01*
X053808Y015310D01*
X053783Y015355D01*
X053762Y015401D01*
X053743Y015449D01*
X053729Y015498D01*
X053718Y015548D01*
X053710Y015598D01*
X053706Y015649D01*
X053706Y015701D01*
X053710Y015752D01*
X053718Y015802D01*
X053729Y015852D01*
X053743Y015901D01*
X053762Y015949D01*
X053783Y015995D01*
X053808Y016040D01*
X053837Y016082D01*
X053868Y016123D01*
X053902Y016161D01*
X053939Y016196D01*
X053978Y016229D01*
X054020Y016259D01*
X054063Y016285D01*
X054109Y016309D01*
X054156Y016329D01*
X054204Y016345D01*
X054254Y016358D01*
X054304Y016368D01*
X054355Y016373D01*
X054406Y016375D01*
D140*
X054476Y017015D02*
X054476Y017315D01*
X054476Y017615D01*
X054276Y017615D02*
X054276Y017315D01*
X054276Y017015D01*
X056336Y017055D02*
X056336Y017355D01*
X056336Y017655D01*
X056536Y017655D02*
X056536Y017355D01*
X056536Y017055D01*
X050436Y017035D02*
X050436Y016735D01*
X050436Y016435D01*
X050236Y016435D02*
X050236Y016735D01*
X050236Y017035D01*
X041716Y020195D02*
X038716Y020195D01*
X038716Y022195D01*
X041716Y022195D01*
X041716Y020195D01*
X047376Y026965D02*
X047676Y026965D01*
X047976Y026965D01*
X047976Y027165D02*
X047676Y027165D01*
X047376Y027165D01*
D141*
X045406Y023387D02*
X045667Y023125D01*
X045580Y023038D02*
X045755Y023213D01*
X045406Y023213D02*
X045406Y023387D01*
X045276Y023170D02*
X045189Y023170D01*
X045101Y023083D01*
X045102Y022996D01*
X045276Y022821D01*
X045363Y022821D01*
X045451Y022909D01*
X045451Y022996D01*
X045233Y022691D02*
X045146Y022604D01*
X045190Y022648D02*
X044928Y022909D01*
X044884Y022866D02*
X044972Y022953D01*
X047493Y020904D02*
X047668Y021079D01*
X047797Y021121D02*
X047972Y020946D01*
X048059Y020946D01*
X048146Y021034D01*
X048146Y021121D01*
X048059Y021208D01*
X047972Y021121D01*
X047972Y021296D02*
X047884Y021296D01*
X047797Y021208D01*
X047797Y021121D01*
X047711Y020861D02*
X047624Y020773D01*
X047755Y020642D02*
X047930Y020817D01*
X047755Y020642D02*
X047493Y020904D01*
X047407Y020818D02*
X047669Y020557D01*
X047495Y020382D02*
X047233Y020644D01*
X047407Y020644D01*
X047407Y020818D01*
X048101Y021338D02*
X048101Y021512D01*
X048276Y021512D01*
X048450Y021338D01*
X048493Y021467D02*
X048580Y021467D01*
X048667Y021555D01*
X048667Y021642D01*
X048623Y021685D01*
X048536Y021685D01*
X048405Y021555D01*
X048493Y021467D01*
X048405Y021555D02*
X048405Y021729D01*
X048449Y021860D01*
X048666Y021815D02*
X048840Y021989D01*
X048926Y022075D02*
X049101Y022250D01*
X049186Y022336D02*
X049361Y022510D01*
X049317Y022554D02*
X049492Y022379D01*
X049317Y022205D02*
X049143Y022379D01*
X049143Y022554D01*
X049317Y022554D01*
X048666Y022077D02*
X048666Y021815D01*
X048927Y021815D02*
X048666Y022077D01*
X048319Y021469D02*
X048145Y021294D01*
X048101Y021338D02*
X048276Y021163D01*
D142*
X013491Y013935D03*
X003491Y014795D03*
D143*
X012796Y023420D03*
D144*
X018536Y024075D03*
X018536Y026915D03*
X003216Y023715D03*
X003216Y020875D03*
X017416Y017655D03*
X017416Y014815D03*
D145*
X016589Y031415D02*
X016589Y037163D01*
X015030Y037163D02*
X015030Y031415D01*
X013471Y031415D02*
X013471Y037163D01*
X011912Y037163D02*
X011912Y031415D01*
X010353Y031415D02*
X010353Y037163D01*
X008794Y037163D02*
X008794Y031415D01*
X007235Y031415D02*
X007235Y037163D01*
X005676Y037163D02*
X005676Y031415D01*
M02*
