%
M48
M72
T01C0.0157
T02C0.0197
T03C0.0200
T04C0.0236
T05C0.0240
T06C0.0315
T07C0.0320
T08C0.0354
T09C0.0400
T10C0.0440
T11C0.0591
T12C0.0787
T13C0.1260
%
T01
X19436Y8855
X26936Y6775
X37596Y8995
X42496Y12335
X45516Y12695
X47116Y12695
X48216Y13975
X47896Y14295
X46176Y14615
X44236Y15095
X43596Y15735
X43276Y14935
X41496Y13975
X41036Y14935
X39256Y14215
X38836Y14615
X44716Y16535
X46956Y17175
X49196Y17495
X50296Y17655
X51596Y17335
X53196Y15255
X47116Y18455
X45516Y19415
X47756Y19735
X48076Y20535
X49676Y21015
X50316Y21495
X48396Y22135
X47436Y23235
X46936Y22735
X46836Y21375
X44976Y23315
X45456Y23875
X47596Y25175
X48876Y24375
X48876Y23735
X51336Y24635
X49036Y25815
X49616Y28535
X50376Y28635
X48816Y29915
X48336Y30235
X45936Y30315
X44856Y29915
X43276Y28535
X37356Y23735
X37516Y23095
X29196Y22455
X32556Y16855
X32716Y16215
X45516Y8215
X48256Y6855
X53436Y21355
X54156Y23415
X55136Y23815
T02
X54956Y22935
X54476Y22455
X54956Y21975
X54476Y21655
X53836Y20535
X53356Y20535
X53356Y20055
X52396Y19575
X52396Y19095
X51916Y19095
X50156Y19415
X49516Y19415
X49676Y20055
X51596Y25495
X51596Y25975
X50956Y25815
X50956Y26295
X48396Y28535
X60556Y15575
X64556Y10455
X63436Y9175
X61676Y6855
X60716Y6535
X62796Y6135
X57996Y6535
X57436Y6135
X57356Y6855
X50476Y8375
X49196Y6535
X49756Y6135
X47756Y6615
X47436Y6135
X45356Y6135
X44876Y6455
X44396Y6775
X38156Y10615
X37676Y10935
X37676Y12375
X38156Y12695
X37196Y12695
X36716Y12375
X27436Y6455
X26636Y6135
X26156Y6455
X24396Y6135
X23916Y6455
X23436Y6775
X18636Y8535
X16236Y8375
X15916Y6775
X16396Y6455
X14796Y6615
X13516Y6775
X12396Y6615
X11916Y6295
X15756Y11015
X57516Y2455
T03
X51676Y11455
X34116Y18655
T04
X26956Y10935
X54156Y4695
X56236Y2935
T05
X56756Y15675
X54756Y15675
T06
X31940Y13786
X30940Y13786
X30940Y12786
X31940Y12786
X29940Y12786
X28940Y12786
X28940Y13786
X29940Y13786
X27940Y13786
X27940Y12786
T07
X24216Y15425
X21716Y16695
X20716Y16695
X19716Y18695
X17416Y18235
X20716Y20695
X21716Y20695
X22716Y18695
X24216Y18425
X17416Y14235
X7716Y18795
X6716Y18795
X5716Y20795
X6716Y22295
X7716Y22295
X8716Y20795
X3216Y20295
X3216Y24295
X5716Y24295
X8716Y24295
X18536Y23495
X20716Y25615
X21716Y25615
X24216Y24435
X24216Y27435
X22556Y27435
X21716Y28775
X20716Y28775
X19556Y27435
X18536Y27495
X38716Y27695
X38716Y26655
X38716Y25735
X38716Y24695
X41716Y24695
X41716Y25735
X41716Y26655
X41716Y27695
X41716Y28695
X38716Y28695
X47676Y27565
X47676Y26565
X59156Y26695
X59156Y25355
X59156Y23695
X59156Y22195
X62156Y22195
X63716Y22195
X64716Y22195
X64716Y23695
X63716Y23695
X62156Y23695
X62156Y25355
X63716Y25195
X64716Y25195
X64716Y26695
X63716Y26695
X62156Y26695
X56936Y17355
X55936Y17355
X54876Y17315
X53876Y17315
X50836Y16735
X49836Y16735
T08
X53716Y10195
X53716Y5535
X39216Y5535
X39216Y10195
X20216Y11195
X19716Y5535
T09
X21466Y4695
X22466Y4695
X23466Y4695
X24466Y4695
X25466Y4695
X26466Y4695
X27466Y4695
X28466Y4695
X28466Y3695
X27466Y3695
X26466Y3695
X25466Y3695
X24466Y3695
X23466Y3695
X22466Y3695
X21466Y3695
X13466Y3695
X12466Y3695
X11466Y3695
X10466Y3695
X9466Y3695
X8466Y3695
X7466Y3695
X6466Y3695
X6466Y4695
X7466Y4695
X8466Y4695
X9466Y4695
X10466Y4695
X11466Y4695
X12466Y4695
X13466Y4695
X13466Y9195
X12466Y9195
X11466Y9195
X10466Y9195
X9466Y9195
X8466Y9195
X7466Y9195
X6466Y9195
X6466Y10195
X7466Y10195
X8466Y10195
X9466Y10195
X10466Y10195
X11466Y10195
X12466Y10195
X13466Y10195
X12716Y13935
X14716Y13935
X21466Y10195
X22466Y10195
X23466Y10195
X24466Y10195
X25466Y10195
X26466Y10195
X27466Y10195
X28466Y10195
X28466Y9195
X27466Y9195
X26466Y9195
X25466Y9195
X24466Y9195
X23466Y9195
X22466Y9195
X21466Y9195
X4716Y14795
X2716Y14795
X12796Y22195
X12796Y24195
X39216Y21695
X40216Y21695
X40216Y20695
X39216Y20695
X41216Y20695
X41216Y21695
X49216Y31195
X50216Y31195
X51216Y31195
X52216Y31195
X53216Y31195
X54216Y31195
X55216Y31195
X56216Y31195
X57216Y31195
X58216Y31195
X58216Y32195
X57216Y32195
X56216Y32195
X55216Y32195
X54216Y32195
X53216Y32195
X52216Y32195
X51216Y32195
X50216Y32195
X49216Y32195
X48716Y10195
X49716Y10195
X49716Y9195
X48716Y9195
X47716Y9195
X46716Y9195
X45716Y9195
X44716Y9195
X43716Y9195
X42716Y9195
X42716Y10195
X43716Y10195
X44716Y10195
X45716Y10195
X46716Y10195
X47716Y10195
X55216Y10195
X56216Y10195
X57216Y10195
X58216Y10195
X59216Y10195
X60216Y10195
X61216Y10195
X62216Y10195
X62216Y9195
X61216Y9195
X60216Y9195
X59216Y9195
X58216Y9195
X57216Y9195
X56216Y9195
X55216Y9195
X55216Y4695
X56216Y4695
X57216Y4695
X58216Y4695
X59216Y4695
X60216Y4695
X61216Y4695
X62216Y4695
X62216Y3695
X61216Y3695
X60216Y3695
X59216Y3695
X58216Y3695
X57216Y3695
X56216Y3695
X55216Y3695
X49716Y3695
X48716Y3695
X47716Y3695
X46716Y3695
X45716Y3695
X44716Y3695
X43716Y3695
X42716Y3695
X42716Y4695
X43716Y4695
X44716Y4695
X45716Y4695
X46716Y4695
X47716Y4695
X48716Y4695
X49716Y4695
T10
X18856Y21355
X14856Y21355
X10776Y25735
X6776Y25735
X19976Y31095
X23976Y31095
T11
X16589Y31415
X15030Y31415
X13471Y31415
X11912Y31415
X10353Y31415
X8794Y31415
X7235Y31415
X5676Y31415
X4675Y28375
X3116Y28375
X13996Y28494
X13996Y26935
X12076Y18894
X12076Y17335
T12
X24397Y13573
X35027Y13573
X35027Y32668
X24397Y32668
T13
X2684Y2664
X2684Y32191
X65676Y32191
X65676Y2664
M30
