G75*
G70*
%OFA0B0*%
%FSLAX24Y24*%
%IPPOS*%
%LPD*%
%AMOC8*
5,1,8,0,0,1.08239X$1,22.5*
%
%ADD10C,0.0000*%
D10*
X000716Y000695D02*
X000716Y034160D01*
X067645Y034160D01*
X067645Y000695D01*
X000716Y000695D01*
X002054Y002664D02*
X002056Y002714D01*
X002062Y002764D01*
X002072Y002813D01*
X002086Y002861D01*
X002103Y002908D01*
X002124Y002953D01*
X002149Y002997D01*
X002177Y003038D01*
X002209Y003077D01*
X002243Y003114D01*
X002280Y003148D01*
X002320Y003178D01*
X002362Y003205D01*
X002406Y003229D01*
X002452Y003250D01*
X002499Y003266D01*
X002547Y003279D01*
X002597Y003288D01*
X002646Y003293D01*
X002697Y003294D01*
X002747Y003291D01*
X002796Y003284D01*
X002845Y003273D01*
X002893Y003258D01*
X002939Y003240D01*
X002984Y003218D01*
X003027Y003192D01*
X003068Y003163D01*
X003107Y003131D01*
X003143Y003096D01*
X003175Y003058D01*
X003205Y003018D01*
X003232Y002975D01*
X003255Y002931D01*
X003274Y002885D01*
X003290Y002837D01*
X003302Y002788D01*
X003310Y002739D01*
X003314Y002689D01*
X003314Y002639D01*
X003310Y002589D01*
X003302Y002540D01*
X003290Y002491D01*
X003274Y002443D01*
X003255Y002397D01*
X003232Y002353D01*
X003205Y002310D01*
X003175Y002270D01*
X003143Y002232D01*
X003107Y002197D01*
X003068Y002165D01*
X003027Y002136D01*
X002984Y002110D01*
X002939Y002088D01*
X002893Y002070D01*
X002845Y002055D01*
X002796Y002044D01*
X002747Y002037D01*
X002697Y002034D01*
X002646Y002035D01*
X002597Y002040D01*
X002547Y002049D01*
X002499Y002062D01*
X002452Y002078D01*
X002406Y002099D01*
X002362Y002123D01*
X002320Y002150D01*
X002280Y002180D01*
X002243Y002214D01*
X002209Y002251D01*
X002177Y002290D01*
X002149Y002331D01*
X002124Y002375D01*
X002103Y002420D01*
X002086Y002467D01*
X002072Y002515D01*
X002062Y002564D01*
X002056Y002614D01*
X002054Y002664D01*
X024003Y013573D02*
X024005Y013612D01*
X024011Y013651D01*
X024021Y013689D01*
X024034Y013726D01*
X024051Y013761D01*
X024071Y013795D01*
X024095Y013826D01*
X024122Y013855D01*
X024151Y013881D01*
X024183Y013904D01*
X024217Y013924D01*
X024253Y013940D01*
X024290Y013952D01*
X024329Y013961D01*
X024368Y013966D01*
X024407Y013967D01*
X024446Y013964D01*
X024485Y013957D01*
X024522Y013946D01*
X024559Y013932D01*
X024594Y013914D01*
X024627Y013893D01*
X024658Y013868D01*
X024686Y013841D01*
X024711Y013811D01*
X024733Y013778D01*
X024752Y013744D01*
X024767Y013708D01*
X024779Y013670D01*
X024787Y013632D01*
X024791Y013593D01*
X024791Y013553D01*
X024787Y013514D01*
X024779Y013476D01*
X024767Y013438D01*
X024752Y013402D01*
X024733Y013368D01*
X024711Y013335D01*
X024686Y013305D01*
X024658Y013278D01*
X024627Y013253D01*
X024594Y013232D01*
X024559Y013214D01*
X024522Y013200D01*
X024485Y013189D01*
X024446Y013182D01*
X024407Y013179D01*
X024368Y013180D01*
X024329Y013185D01*
X024290Y013194D01*
X024253Y013206D01*
X024217Y013222D01*
X024183Y013242D01*
X024151Y013265D01*
X024122Y013291D01*
X024095Y013320D01*
X024071Y013351D01*
X024051Y013385D01*
X024034Y013420D01*
X024021Y013457D01*
X024011Y013495D01*
X024005Y013534D01*
X024003Y013573D01*
X034633Y013573D02*
X034635Y013612D01*
X034641Y013651D01*
X034651Y013689D01*
X034664Y013726D01*
X034681Y013761D01*
X034701Y013795D01*
X034725Y013826D01*
X034752Y013855D01*
X034781Y013881D01*
X034813Y013904D01*
X034847Y013924D01*
X034883Y013940D01*
X034920Y013952D01*
X034959Y013961D01*
X034998Y013966D01*
X035037Y013967D01*
X035076Y013964D01*
X035115Y013957D01*
X035152Y013946D01*
X035189Y013932D01*
X035224Y013914D01*
X035257Y013893D01*
X035288Y013868D01*
X035316Y013841D01*
X035341Y013811D01*
X035363Y013778D01*
X035382Y013744D01*
X035397Y013708D01*
X035409Y013670D01*
X035417Y013632D01*
X035421Y013593D01*
X035421Y013553D01*
X035417Y013514D01*
X035409Y013476D01*
X035397Y013438D01*
X035382Y013402D01*
X035363Y013368D01*
X035341Y013335D01*
X035316Y013305D01*
X035288Y013278D01*
X035257Y013253D01*
X035224Y013232D01*
X035189Y013214D01*
X035152Y013200D01*
X035115Y013189D01*
X035076Y013182D01*
X035037Y013179D01*
X034998Y013180D01*
X034959Y013185D01*
X034920Y013194D01*
X034883Y013206D01*
X034847Y013222D01*
X034813Y013242D01*
X034781Y013265D01*
X034752Y013291D01*
X034725Y013320D01*
X034701Y013351D01*
X034681Y013385D01*
X034664Y013420D01*
X034651Y013457D01*
X034641Y013495D01*
X034635Y013534D01*
X034633Y013573D01*
X065046Y002664D02*
X065048Y002714D01*
X065054Y002764D01*
X065064Y002813D01*
X065078Y002861D01*
X065095Y002908D01*
X065116Y002953D01*
X065141Y002997D01*
X065169Y003038D01*
X065201Y003077D01*
X065235Y003114D01*
X065272Y003148D01*
X065312Y003178D01*
X065354Y003205D01*
X065398Y003229D01*
X065444Y003250D01*
X065491Y003266D01*
X065539Y003279D01*
X065589Y003288D01*
X065638Y003293D01*
X065689Y003294D01*
X065739Y003291D01*
X065788Y003284D01*
X065837Y003273D01*
X065885Y003258D01*
X065931Y003240D01*
X065976Y003218D01*
X066019Y003192D01*
X066060Y003163D01*
X066099Y003131D01*
X066135Y003096D01*
X066167Y003058D01*
X066197Y003018D01*
X066224Y002975D01*
X066247Y002931D01*
X066266Y002885D01*
X066282Y002837D01*
X066294Y002788D01*
X066302Y002739D01*
X066306Y002689D01*
X066306Y002639D01*
X066302Y002589D01*
X066294Y002540D01*
X066282Y002491D01*
X066266Y002443D01*
X066247Y002397D01*
X066224Y002353D01*
X066197Y002310D01*
X066167Y002270D01*
X066135Y002232D01*
X066099Y002197D01*
X066060Y002165D01*
X066019Y002136D01*
X065976Y002110D01*
X065931Y002088D01*
X065885Y002070D01*
X065837Y002055D01*
X065788Y002044D01*
X065739Y002037D01*
X065689Y002034D01*
X065638Y002035D01*
X065589Y002040D01*
X065539Y002049D01*
X065491Y002062D01*
X065444Y002078D01*
X065398Y002099D01*
X065354Y002123D01*
X065312Y002150D01*
X065272Y002180D01*
X065235Y002214D01*
X065201Y002251D01*
X065169Y002290D01*
X065141Y002331D01*
X065116Y002375D01*
X065095Y002420D01*
X065078Y002467D01*
X065064Y002515D01*
X065054Y002564D01*
X065048Y002614D01*
X065046Y002664D01*
X065046Y032191D02*
X065048Y032241D01*
X065054Y032291D01*
X065064Y032340D01*
X065078Y032388D01*
X065095Y032435D01*
X065116Y032480D01*
X065141Y032524D01*
X065169Y032565D01*
X065201Y032604D01*
X065235Y032641D01*
X065272Y032675D01*
X065312Y032705D01*
X065354Y032732D01*
X065398Y032756D01*
X065444Y032777D01*
X065491Y032793D01*
X065539Y032806D01*
X065589Y032815D01*
X065638Y032820D01*
X065689Y032821D01*
X065739Y032818D01*
X065788Y032811D01*
X065837Y032800D01*
X065885Y032785D01*
X065931Y032767D01*
X065976Y032745D01*
X066019Y032719D01*
X066060Y032690D01*
X066099Y032658D01*
X066135Y032623D01*
X066167Y032585D01*
X066197Y032545D01*
X066224Y032502D01*
X066247Y032458D01*
X066266Y032412D01*
X066282Y032364D01*
X066294Y032315D01*
X066302Y032266D01*
X066306Y032216D01*
X066306Y032166D01*
X066302Y032116D01*
X066294Y032067D01*
X066282Y032018D01*
X066266Y031970D01*
X066247Y031924D01*
X066224Y031880D01*
X066197Y031837D01*
X066167Y031797D01*
X066135Y031759D01*
X066099Y031724D01*
X066060Y031692D01*
X066019Y031663D01*
X065976Y031637D01*
X065931Y031615D01*
X065885Y031597D01*
X065837Y031582D01*
X065788Y031571D01*
X065739Y031564D01*
X065689Y031561D01*
X065638Y031562D01*
X065589Y031567D01*
X065539Y031576D01*
X065491Y031589D01*
X065444Y031605D01*
X065398Y031626D01*
X065354Y031650D01*
X065312Y031677D01*
X065272Y031707D01*
X065235Y031741D01*
X065201Y031778D01*
X065169Y031817D01*
X065141Y031858D01*
X065116Y031902D01*
X065095Y031947D01*
X065078Y031994D01*
X065064Y032042D01*
X065054Y032091D01*
X065048Y032141D01*
X065046Y032191D01*
X034633Y032668D02*
X034635Y032707D01*
X034641Y032746D01*
X034651Y032784D01*
X034664Y032821D01*
X034681Y032856D01*
X034701Y032890D01*
X034725Y032921D01*
X034752Y032950D01*
X034781Y032976D01*
X034813Y032999D01*
X034847Y033019D01*
X034883Y033035D01*
X034920Y033047D01*
X034959Y033056D01*
X034998Y033061D01*
X035037Y033062D01*
X035076Y033059D01*
X035115Y033052D01*
X035152Y033041D01*
X035189Y033027D01*
X035224Y033009D01*
X035257Y032988D01*
X035288Y032963D01*
X035316Y032936D01*
X035341Y032906D01*
X035363Y032873D01*
X035382Y032839D01*
X035397Y032803D01*
X035409Y032765D01*
X035417Y032727D01*
X035421Y032688D01*
X035421Y032648D01*
X035417Y032609D01*
X035409Y032571D01*
X035397Y032533D01*
X035382Y032497D01*
X035363Y032463D01*
X035341Y032430D01*
X035316Y032400D01*
X035288Y032373D01*
X035257Y032348D01*
X035224Y032327D01*
X035189Y032309D01*
X035152Y032295D01*
X035115Y032284D01*
X035076Y032277D01*
X035037Y032274D01*
X034998Y032275D01*
X034959Y032280D01*
X034920Y032289D01*
X034883Y032301D01*
X034847Y032317D01*
X034813Y032337D01*
X034781Y032360D01*
X034752Y032386D01*
X034725Y032415D01*
X034701Y032446D01*
X034681Y032480D01*
X034664Y032515D01*
X034651Y032552D01*
X034641Y032590D01*
X034635Y032629D01*
X034633Y032668D01*
X024003Y032668D02*
X024005Y032707D01*
X024011Y032746D01*
X024021Y032784D01*
X024034Y032821D01*
X024051Y032856D01*
X024071Y032890D01*
X024095Y032921D01*
X024122Y032950D01*
X024151Y032976D01*
X024183Y032999D01*
X024217Y033019D01*
X024253Y033035D01*
X024290Y033047D01*
X024329Y033056D01*
X024368Y033061D01*
X024407Y033062D01*
X024446Y033059D01*
X024485Y033052D01*
X024522Y033041D01*
X024559Y033027D01*
X024594Y033009D01*
X024627Y032988D01*
X024658Y032963D01*
X024686Y032936D01*
X024711Y032906D01*
X024733Y032873D01*
X024752Y032839D01*
X024767Y032803D01*
X024779Y032765D01*
X024787Y032727D01*
X024791Y032688D01*
X024791Y032648D01*
X024787Y032609D01*
X024779Y032571D01*
X024767Y032533D01*
X024752Y032497D01*
X024733Y032463D01*
X024711Y032430D01*
X024686Y032400D01*
X024658Y032373D01*
X024627Y032348D01*
X024594Y032327D01*
X024559Y032309D01*
X024522Y032295D01*
X024485Y032284D01*
X024446Y032277D01*
X024407Y032274D01*
X024368Y032275D01*
X024329Y032280D01*
X024290Y032289D01*
X024253Y032301D01*
X024217Y032317D01*
X024183Y032337D01*
X024151Y032360D01*
X024122Y032386D01*
X024095Y032415D01*
X024071Y032446D01*
X024051Y032480D01*
X024034Y032515D01*
X024021Y032552D01*
X024011Y032590D01*
X024005Y032629D01*
X024003Y032668D01*
X002054Y032191D02*
X002056Y032241D01*
X002062Y032291D01*
X002072Y032340D01*
X002086Y032388D01*
X002103Y032435D01*
X002124Y032480D01*
X002149Y032524D01*
X002177Y032565D01*
X002209Y032604D01*
X002243Y032641D01*
X002280Y032675D01*
X002320Y032705D01*
X002362Y032732D01*
X002406Y032756D01*
X002452Y032777D01*
X002499Y032793D01*
X002547Y032806D01*
X002597Y032815D01*
X002646Y032820D01*
X002697Y032821D01*
X002747Y032818D01*
X002796Y032811D01*
X002845Y032800D01*
X002893Y032785D01*
X002939Y032767D01*
X002984Y032745D01*
X003027Y032719D01*
X003068Y032690D01*
X003107Y032658D01*
X003143Y032623D01*
X003175Y032585D01*
X003205Y032545D01*
X003232Y032502D01*
X003255Y032458D01*
X003274Y032412D01*
X003290Y032364D01*
X003302Y032315D01*
X003310Y032266D01*
X003314Y032216D01*
X003314Y032166D01*
X003310Y032116D01*
X003302Y032067D01*
X003290Y032018D01*
X003274Y031970D01*
X003255Y031924D01*
X003232Y031880D01*
X003205Y031837D01*
X003175Y031797D01*
X003143Y031759D01*
X003107Y031724D01*
X003068Y031692D01*
X003027Y031663D01*
X002984Y031637D01*
X002939Y031615D01*
X002893Y031597D01*
X002845Y031582D01*
X002796Y031571D01*
X002747Y031564D01*
X002697Y031561D01*
X002646Y031562D01*
X002597Y031567D01*
X002547Y031576D01*
X002499Y031589D01*
X002452Y031605D01*
X002406Y031626D01*
X002362Y031650D01*
X002320Y031677D01*
X002280Y031707D01*
X002243Y031741D01*
X002209Y031778D01*
X002177Y031817D01*
X002149Y031858D01*
X002124Y031902D01*
X002103Y031947D01*
X002086Y031994D01*
X002072Y032042D01*
X002062Y032091D01*
X002056Y032141D01*
X002054Y032191D01*
M02*
