G75*
G70*
%OFA0B0*%
%FSLAX24Y24*%
%IPPOS*%
%LPD*%
%AMOC8*
5,1,8,0,0,1.08239X$1,22.5*
%
%ADD10C,0.0000*%
%ADD11R,0.0630X0.0472*%
%ADD12R,0.0394X0.0433*%
%ADD13R,0.0433X0.0394*%
%ADD14R,0.0138X0.0472*%
%ADD15R,0.0494X0.0276*%
D10*
X000900Y000980D02*
X000900Y010035D01*
X006018Y010035D01*
X006018Y000980D01*
X000900Y000980D01*
D11*
X001578Y001568D03*
X001578Y002434D03*
X005382Y008649D03*
X005382Y009516D03*
D12*
X004635Y005940D03*
X003965Y005940D03*
X002955Y007620D03*
X002955Y008140D03*
X002285Y008140D03*
X002285Y007620D03*
X002165Y003780D03*
X002165Y003260D03*
X002325Y002740D03*
X002835Y003260D03*
X002995Y002740D03*
X002835Y003780D03*
D13*
X003620Y002115D03*
X003620Y001445D03*
X003965Y005220D03*
X004635Y005220D03*
X001860Y008885D03*
X001860Y009555D03*
X001540Y008195D03*
X001540Y007525D03*
D14*
X002196Y006852D03*
X002452Y006852D03*
X002708Y006852D03*
X002964Y006852D03*
X002964Y004548D03*
X002708Y004548D03*
X002452Y004548D03*
X002196Y004548D03*
D15*
X003726Y004332D03*
X003726Y003860D03*
X003726Y003388D03*
X004474Y003388D03*
X004474Y003860D03*
X004474Y004332D03*
X004514Y006908D03*
X004514Y007380D03*
X004514Y007852D03*
X003766Y007852D03*
X003766Y007380D03*
X003766Y006908D03*
M02*
