G75*
G70*
%OFA0B0*%
%FSLAX24Y24*%
%IPPOS*%
%LPD*%
%AMOC8*
5,1,8,0,0,1.08239X$1,22.5*
%
%ADD10C,0.0000*%
%ADD11C,0.0020*%
%ADD12R,0.0015X0.0015*%
%ADD13R,0.0015X0.0030*%
%ADD14R,0.0015X0.0045*%
%ADD15R,0.0015X0.0060*%
%ADD16R,0.0015X0.0195*%
%ADD17R,0.0015X0.0165*%
%ADD18R,0.0015X0.0090*%
%ADD19R,0.0015X0.0315*%
%ADD20R,0.0015X0.0300*%
%ADD21R,0.0015X0.0390*%
%ADD22R,0.0015X0.0375*%
%ADD23R,0.0015X0.0435*%
%ADD24R,0.0015X0.0420*%
%ADD25R,0.0015X0.0480*%
%ADD26R,0.0015X0.0465*%
%ADD27R,0.0015X0.0510*%
%ADD28R,0.0015X0.0555*%
%ADD29R,0.0015X0.0540*%
%ADD30R,0.0015X0.0570*%
%ADD31R,0.0015X0.0600*%
%ADD32R,0.0015X0.0240*%
%ADD33R,0.0015X0.0225*%
%ADD34R,0.0015X0.0210*%
%ADD35R,0.0015X0.0135*%
%ADD36R,0.0015X0.0180*%
%ADD37R,0.0015X0.0150*%
%ADD38R,0.0015X0.0270*%
%ADD39R,0.0015X0.0450*%
%ADD40R,0.0015X0.0525*%
%ADD41R,0.0015X0.0330*%
%ADD42R,0.0015X0.0855*%
%ADD43R,0.0015X0.0870*%
%ADD44R,0.0015X0.0405*%
%ADD45R,0.0015X0.0360*%
%ADD46R,0.0015X0.0285*%
%ADD47R,0.0015X0.0675*%
%ADD48C,0.0050*%
D10*
X000900Y000980D02*
X000900Y010035D01*
X006018Y010035D01*
X006018Y000980D01*
X000900Y000980D01*
D11*
X001930Y006880D02*
X001930Y007027D01*
X001930Y006954D02*
X001710Y006954D01*
X001710Y007101D02*
X001857Y007101D01*
X001783Y007101D02*
X001857Y007175D01*
X001857Y007211D01*
X001857Y007285D02*
X001820Y007322D01*
X001820Y007396D01*
X001783Y007432D01*
X001747Y007432D01*
X001710Y007396D01*
X001710Y007322D01*
X001747Y007285D01*
X001857Y007285D02*
X001893Y007285D01*
X001930Y007322D01*
X001930Y007396D01*
X001893Y007432D01*
X001820Y007506D02*
X001857Y007543D01*
X001857Y007617D01*
X001820Y007653D01*
X001783Y007653D01*
X001783Y007506D01*
X001747Y007506D02*
X001820Y007506D01*
X001747Y007506D02*
X001710Y007543D01*
X001710Y007617D01*
X001710Y007727D02*
X001857Y007727D01*
X001857Y007838D01*
X001820Y007874D01*
X001710Y007874D01*
X001710Y007948D02*
X001710Y008059D01*
X001747Y008095D01*
X001783Y008059D01*
X001783Y007985D01*
X001820Y007948D01*
X001857Y007985D01*
X001857Y008095D01*
X001820Y008169D02*
X001747Y008169D01*
X001710Y008206D01*
X001710Y008280D01*
X001747Y008316D01*
X001820Y008316D01*
X001857Y008280D01*
X001857Y008206D01*
X001820Y008169D01*
X001783Y008390D02*
X001857Y008464D01*
X001857Y008500D01*
X001857Y008390D02*
X001710Y008390D01*
X001710Y008796D02*
X001930Y008796D01*
X001930Y008906D01*
X001893Y008942D01*
X001820Y008942D01*
X001783Y008906D01*
X001783Y008796D01*
X001783Y008869D02*
X001710Y008942D01*
X001747Y009017D02*
X001710Y009053D01*
X001710Y009127D01*
X001783Y009163D02*
X001783Y009017D01*
X001747Y009017D02*
X001820Y009017D01*
X001857Y009053D01*
X001857Y009127D01*
X001820Y009163D01*
X001783Y009163D01*
X001857Y009238D02*
X001710Y009311D01*
X001857Y009384D01*
X001747Y009459D02*
X001747Y009495D01*
X001710Y009495D01*
X001710Y009459D01*
X001747Y009459D01*
X001747Y009569D02*
X001710Y009606D01*
X001710Y009679D01*
X001747Y009716D01*
X001747Y009569D02*
X001893Y009569D01*
X001930Y009606D01*
X001930Y009679D01*
X001893Y009716D01*
D12*
X004195Y006325D03*
X004195Y006250D03*
X004255Y006250D03*
X004255Y006175D03*
X004195Y006175D03*
X004195Y006100D03*
X004255Y006100D03*
X004255Y006025D03*
X004285Y006025D03*
X004285Y005950D03*
X004255Y005950D03*
X004210Y005950D03*
X004210Y005875D03*
X004255Y005875D03*
X004255Y005800D03*
X004270Y006475D03*
X004225Y005125D03*
X004225Y005050D03*
X004225Y004975D03*
X004225Y004900D03*
X004240Y004900D03*
X004300Y004900D03*
X004300Y004825D03*
X004240Y004825D03*
X004225Y004825D03*
X004225Y004750D03*
X004240Y004750D03*
X004300Y004750D03*
X004300Y004675D03*
X004240Y004675D03*
X004225Y004675D03*
X004225Y004600D03*
X004240Y004600D03*
X004300Y004600D03*
X004300Y004525D03*
X004240Y004525D03*
X004240Y004450D03*
X004300Y004450D03*
X004240Y004375D03*
X004240Y004300D03*
X004240Y004225D03*
X004195Y004165D03*
X004405Y003685D03*
X004390Y003625D03*
X004390Y003565D03*
X004375Y003550D03*
X004435Y003580D03*
X004465Y003625D03*
X004525Y003625D03*
X004540Y003625D03*
X004540Y003700D03*
X004525Y003700D03*
X004465Y003700D03*
X004585Y003760D03*
X004600Y003700D03*
X004615Y003700D03*
X004675Y003700D03*
X004690Y003700D03*
X004750Y003700D03*
X004765Y003700D03*
X004810Y003715D03*
X004825Y003775D03*
X004810Y003835D03*
X004795Y003835D03*
X004750Y003775D03*
X004690Y003775D03*
X004675Y003775D03*
X004630Y003640D03*
X004870Y003730D03*
X004900Y003775D03*
X004900Y003850D03*
X005005Y003910D03*
X005185Y003850D03*
X005230Y003865D03*
X005245Y003865D03*
X005230Y003985D03*
X005305Y004000D03*
X005380Y004000D03*
X005395Y004060D03*
X005455Y004075D03*
X005485Y004075D03*
X005530Y004075D03*
X005560Y004075D03*
X005605Y004075D03*
X005620Y004135D03*
X005680Y004150D03*
X005680Y004075D03*
X005770Y004075D03*
X005845Y004150D03*
X005620Y004000D03*
X005605Y004000D03*
X005560Y004000D03*
X005530Y004000D03*
X005485Y004000D03*
X005455Y004000D03*
X005410Y003925D03*
X004300Y004975D03*
X004300Y005050D03*
X003640Y004075D03*
X003580Y004060D03*
X003640Y004000D03*
X003610Y003955D03*
X003580Y003940D03*
X003565Y003940D03*
X003550Y003925D03*
X003415Y003925D03*
X003400Y003925D03*
X003400Y003985D03*
X003385Y003985D03*
X003355Y003985D03*
X003340Y003925D03*
X003325Y003925D03*
X003265Y003925D03*
X003250Y003925D03*
X003250Y003850D03*
X003265Y003850D03*
X003325Y003850D03*
X003340Y003850D03*
X003415Y004000D03*
X003190Y003850D03*
X003175Y003850D03*
X003115Y003850D03*
X003100Y003850D03*
X003040Y003850D03*
X003025Y003850D03*
X003025Y003775D03*
X002995Y003730D03*
X002980Y003715D03*
X002920Y003835D03*
X002770Y003640D03*
X002755Y003640D03*
X002605Y003700D03*
X002560Y003685D03*
X002545Y003685D03*
X002530Y003625D03*
X002485Y003550D03*
X002455Y003550D03*
X002410Y003550D03*
X002380Y003550D03*
X002335Y003550D03*
X002305Y003550D03*
X002320Y003610D03*
X002380Y003625D03*
X002410Y003625D03*
X002305Y003475D03*
X002230Y003475D03*
X002230Y003550D03*
X002155Y003475D03*
X002020Y003475D03*
X003100Y003775D03*
X003160Y003910D03*
X003565Y003025D03*
X003565Y002950D03*
X003565Y002875D03*
X003565Y002800D03*
X003625Y002800D03*
X003640Y002800D03*
X003640Y002725D03*
X003625Y002725D03*
X003565Y002725D03*
X003565Y002650D03*
X003625Y002650D03*
X003640Y002650D03*
X003640Y002575D03*
X003625Y002575D03*
X003565Y002575D03*
X003565Y002500D03*
X003625Y002500D03*
X003640Y002500D03*
X003640Y002425D03*
X003625Y002425D03*
X003625Y002350D03*
X003640Y002875D03*
X004240Y003625D03*
X003655Y001750D03*
X003655Y001675D03*
X003655Y001600D03*
X003610Y001600D03*
X003580Y001600D03*
X003580Y001525D03*
X003610Y001525D03*
X003655Y001525D03*
X003655Y001450D03*
X003655Y001375D03*
X003670Y001375D03*
X003670Y001300D03*
X003595Y001225D03*
X003595Y001150D03*
X003580Y001375D03*
X003580Y001450D03*
X003580Y001675D03*
D13*
X003610Y001668D03*
X003670Y001668D03*
X003670Y001743D03*
X003610Y001743D03*
X003580Y001758D03*
X003610Y001818D03*
X003580Y001833D03*
X003610Y001893D03*
X003655Y001908D03*
X003670Y001893D03*
X003655Y001833D03*
X003670Y001818D03*
X003670Y001593D03*
X003670Y001518D03*
X003670Y001443D03*
X003595Y001368D03*
X003595Y001293D03*
X003625Y002868D03*
X003625Y002943D03*
X003640Y002958D03*
X003625Y003018D03*
X003640Y003033D03*
X003655Y003093D03*
X003670Y003093D03*
X003355Y003858D03*
X003385Y003873D03*
X003475Y003918D03*
X003490Y003933D03*
X003475Y003993D03*
X003490Y004008D03*
X003430Y003993D03*
X003550Y003993D03*
X003565Y004008D03*
X003625Y003993D03*
X003625Y004068D03*
X003610Y004068D03*
X003205Y003918D03*
X003160Y003783D03*
X003130Y003783D03*
X003010Y003843D03*
X002995Y003843D03*
X002980Y003843D03*
X002935Y003708D03*
X002905Y003708D03*
X002830Y003768D03*
X002785Y003768D03*
X002770Y003768D03*
X002710Y003633D03*
X002680Y003633D03*
X002635Y003618D03*
X002605Y003633D03*
X002560Y003618D03*
X002545Y003558D03*
X002530Y003558D03*
X002485Y003618D03*
X002455Y003633D03*
X002395Y003618D03*
X002320Y003483D03*
X002245Y003468D03*
X002170Y003468D03*
X002170Y003543D03*
X002095Y003468D03*
X002635Y003693D03*
X004210Y004173D03*
X004225Y004218D03*
X004225Y004293D03*
X004225Y004368D03*
X004225Y004443D03*
X004225Y004518D03*
X004195Y004593D03*
X004195Y004668D03*
X004195Y004818D03*
X004195Y004893D03*
X004195Y004968D03*
X004195Y005043D03*
X004195Y005118D03*
X004195Y005193D03*
X004195Y005268D03*
X004195Y005343D03*
X004195Y005418D03*
X004195Y005493D03*
X004210Y005493D03*
X004210Y005568D03*
X004195Y005568D03*
X004195Y005643D03*
X004210Y005643D03*
X004255Y005658D03*
X004285Y005643D03*
X004285Y005718D03*
X004255Y005733D03*
X004210Y005718D03*
X004195Y005718D03*
X004195Y005793D03*
X004210Y005793D03*
X004285Y005793D03*
X004285Y005868D03*
X004195Y005868D03*
X004195Y005943D03*
X004195Y006018D03*
X004270Y006243D03*
X004270Y006318D03*
X004270Y006393D03*
X004285Y005568D03*
X004285Y005493D03*
X004300Y004368D03*
X004300Y004293D03*
X004300Y004218D03*
X004630Y003768D03*
X004660Y003768D03*
X004780Y003708D03*
X004855Y003843D03*
X005005Y003783D03*
X005020Y003918D03*
X005035Y003918D03*
X005080Y003918D03*
X005155Y003858D03*
X005185Y003918D03*
X005260Y003918D03*
X005305Y003933D03*
X005335Y003918D03*
X005380Y003933D03*
X005395Y003933D03*
X005410Y003993D03*
X005335Y003993D03*
X005260Y003993D03*
X005245Y003993D03*
X005550Y003908D03*
X005620Y004068D03*
X005695Y004068D03*
X005695Y004143D03*
X005770Y004143D03*
X004585Y003633D03*
X004450Y003618D03*
X004450Y003693D03*
X004435Y003693D03*
X004375Y003618D03*
X004315Y003633D03*
X004300Y003618D03*
X004255Y003618D03*
X004240Y003558D03*
X004300Y003543D03*
X004315Y003558D03*
X004405Y003558D03*
D14*
X004360Y003565D03*
X004330Y003550D03*
X004330Y003625D03*
X004285Y003625D03*
X004255Y003550D03*
X004405Y003625D03*
X004480Y003625D03*
X004480Y003700D03*
X004510Y003700D03*
X004555Y003700D03*
X004555Y003625D03*
X004630Y003700D03*
X004660Y003700D03*
X004705Y003700D03*
X004735Y003700D03*
X004795Y003715D03*
X004780Y003775D03*
X004810Y003775D03*
X004855Y003775D03*
X004885Y003775D03*
X004930Y003775D03*
X004960Y003775D03*
X005020Y003790D03*
X005005Y003850D03*
X005035Y003850D03*
X005080Y003850D03*
X005095Y003850D03*
X005110Y003850D03*
X005170Y003850D03*
X005170Y003925D03*
X005155Y003925D03*
X005110Y003925D03*
X005095Y003925D03*
X005230Y003925D03*
X005245Y003925D03*
X005320Y003925D03*
X005320Y004000D03*
X005395Y004000D03*
X005470Y004000D03*
X005545Y004000D03*
X005545Y004075D03*
X004960Y003850D03*
X004930Y003850D03*
X004885Y003850D03*
X004870Y003850D03*
X004735Y003775D03*
X004720Y003775D03*
X004705Y003775D03*
X004255Y004225D03*
X004195Y004225D03*
X004195Y004300D03*
X004255Y004300D03*
X004255Y004375D03*
X004195Y004375D03*
X004195Y004450D03*
X004255Y004450D03*
X004255Y004525D03*
X004195Y004525D03*
X004210Y004600D03*
X004255Y004600D03*
X004255Y004675D03*
X004285Y004675D03*
X004285Y004750D03*
X004255Y004750D03*
X004210Y004750D03*
X004195Y004750D03*
X004210Y004675D03*
X004210Y004825D03*
X004255Y004825D03*
X004285Y004825D03*
X004285Y004900D03*
X004255Y004900D03*
X004210Y004900D03*
X004210Y004975D03*
X004255Y004975D03*
X004285Y004975D03*
X004285Y005050D03*
X004255Y005050D03*
X004210Y005050D03*
X004210Y005125D03*
X004255Y005125D03*
X004285Y005125D03*
X004285Y005200D03*
X004255Y005200D03*
X004210Y005200D03*
X004210Y005275D03*
X004255Y005275D03*
X004285Y005275D03*
X004285Y005350D03*
X004270Y005350D03*
X004255Y005350D03*
X004210Y005350D03*
X004210Y005425D03*
X004255Y005425D03*
X004270Y005425D03*
X004285Y005425D03*
X004270Y005500D03*
X004255Y005500D03*
X004255Y005575D03*
X004270Y005575D03*
X004270Y005650D03*
X004270Y005725D03*
X004270Y005800D03*
X004270Y005875D03*
X004270Y005950D03*
X004270Y006025D03*
X004270Y006100D03*
X004270Y006175D03*
X003580Y004000D03*
X003535Y003940D03*
X003505Y003925D03*
X003505Y004000D03*
X003460Y004000D03*
X003430Y003925D03*
X003355Y003925D03*
X003310Y003925D03*
X003280Y003925D03*
X003235Y003925D03*
X003220Y003925D03*
X003205Y003850D03*
X003235Y003850D03*
X003280Y003850D03*
X003160Y003850D03*
X003130Y003850D03*
X003085Y003850D03*
X003070Y003850D03*
X003055Y003850D03*
X003055Y003775D03*
X003085Y003775D03*
X003145Y003790D03*
X003010Y003775D03*
X002980Y003775D03*
X002935Y003775D03*
X002905Y003775D03*
X002860Y003775D03*
X002845Y003775D03*
X002845Y003700D03*
X002860Y003700D03*
X002830Y003700D03*
X002785Y003700D03*
X002770Y003700D03*
X002755Y003700D03*
X002710Y003700D03*
X002695Y003700D03*
X002680Y003700D03*
X002620Y003700D03*
X002620Y003625D03*
X002545Y003625D03*
X002470Y003625D03*
X002470Y003550D03*
X002395Y003550D03*
X002320Y003550D03*
X002245Y003550D03*
X002695Y003625D03*
X002920Y003715D03*
X003580Y003025D03*
X003580Y002950D03*
X003580Y002875D03*
X003580Y002800D03*
X003580Y002725D03*
X003580Y002650D03*
X003580Y002575D03*
X003610Y002575D03*
X003655Y002575D03*
X003670Y002575D03*
X003670Y002500D03*
X003655Y002500D03*
X003610Y002500D03*
X003580Y002500D03*
X003580Y002425D03*
X003610Y002425D03*
X003655Y002425D03*
X003670Y002425D03*
X003670Y002350D03*
X003655Y002350D03*
X003610Y002350D03*
X003580Y002350D03*
X003580Y002275D03*
X003610Y002275D03*
X003655Y002275D03*
X003670Y002275D03*
X003670Y002200D03*
X003655Y002200D03*
X003610Y002200D03*
X003580Y002200D03*
X003580Y002125D03*
X003610Y002125D03*
X003655Y002125D03*
X003670Y002125D03*
X003670Y002050D03*
X003655Y002050D03*
X003610Y002050D03*
X003595Y002050D03*
X003580Y002050D03*
X003580Y001975D03*
X003595Y001975D03*
X003610Y001975D03*
X003655Y001975D03*
X003670Y001975D03*
X003595Y001900D03*
X003580Y001900D03*
X003595Y001825D03*
X003595Y001750D03*
X003595Y001675D03*
X003595Y001600D03*
X003595Y001525D03*
X003595Y001450D03*
X003655Y002650D03*
X003670Y002650D03*
X003670Y002725D03*
X003655Y002725D03*
X003655Y002800D03*
X003670Y002800D03*
X003670Y002875D03*
X003655Y002875D03*
X003655Y002950D03*
X003670Y002950D03*
X003670Y003025D03*
X003655Y003025D03*
D15*
X003610Y003033D03*
X003610Y002958D03*
X003610Y002883D03*
X003610Y002808D03*
X003610Y002733D03*
X003610Y002658D03*
X003595Y002508D03*
X003595Y002433D03*
X003595Y002358D03*
X003595Y002283D03*
X003595Y002208D03*
X003595Y002133D03*
X004285Y003558D03*
X004360Y003633D03*
X004435Y003633D03*
X004510Y003633D03*
X004585Y003708D03*
X004720Y003708D03*
X004795Y003783D03*
X004870Y003783D03*
X004945Y003783D03*
X004945Y003858D03*
X005020Y003858D03*
X004285Y004383D03*
X004285Y004458D03*
X004285Y004533D03*
X004285Y004608D03*
X004210Y004533D03*
X004210Y004458D03*
X004210Y004383D03*
X004210Y004308D03*
X004210Y004233D03*
X004270Y004908D03*
X004270Y004983D03*
X004270Y005058D03*
X004270Y005133D03*
X004270Y005208D03*
X004270Y005283D03*
X003610Y004008D03*
X003535Y004008D03*
X003460Y003933D03*
X003385Y003933D03*
X003310Y003858D03*
X003070Y003783D03*
X002995Y003783D03*
X002920Y003783D03*
D16*
X003295Y004435D03*
X003130Y004600D03*
X003280Y004855D03*
X003295Y004870D03*
X003310Y005560D03*
X003130Y005740D03*
X003280Y005995D03*
X003460Y006070D03*
X003835Y006175D03*
X003850Y005755D03*
D17*
X003820Y005725D03*
X003790Y005710D03*
X003760Y005695D03*
X003745Y005695D03*
X003730Y005695D03*
X004000Y006010D03*
X003775Y006190D03*
X003430Y006085D03*
X003415Y006085D03*
X003400Y006085D03*
X003370Y006070D03*
X003355Y006070D03*
X003340Y006055D03*
X003325Y006055D03*
X003355Y005545D03*
X003370Y005545D03*
X003385Y005545D03*
X003400Y005545D03*
X003640Y005035D03*
X003655Y005035D03*
X003670Y005050D03*
X003685Y005050D03*
X003700Y005050D03*
X003715Y005065D03*
X003730Y005065D03*
X003745Y005065D03*
X003760Y005080D03*
X003775Y005080D03*
X003790Y005080D03*
X003805Y005095D03*
X003820Y005095D03*
X003835Y005095D03*
X003850Y005110D03*
X003865Y005110D03*
X003880Y005110D03*
X003895Y005125D03*
X003910Y005125D03*
X003925Y005125D03*
X003940Y005140D03*
X003955Y005140D03*
X003970Y005140D03*
X003985Y005155D03*
X003610Y005020D03*
X003595Y005020D03*
X003580Y005005D03*
X003565Y005005D03*
X003550Y005005D03*
X003535Y004990D03*
X003520Y004990D03*
X003505Y004990D03*
X003490Y004975D03*
X003475Y004975D03*
X003460Y004975D03*
X003445Y004960D03*
X003430Y004960D03*
X003415Y004945D03*
X003400Y004945D03*
X003370Y004930D03*
X003325Y004900D03*
X003535Y004480D03*
X003550Y004480D03*
X003565Y004480D03*
X003580Y004495D03*
X003595Y004495D03*
X003610Y004495D03*
X003625Y004510D03*
X003640Y004510D03*
X003655Y004510D03*
X003670Y004525D03*
X003685Y004525D03*
X003700Y004525D03*
X003715Y004540D03*
X003730Y004540D03*
X003760Y004555D03*
X003775Y004555D03*
X003805Y004570D03*
X003820Y004570D03*
X003850Y004585D03*
X003865Y004585D03*
X003895Y004600D03*
X003910Y004600D03*
X003940Y004615D03*
X003955Y004615D03*
X003970Y004630D03*
X003985Y004630D03*
X003520Y004465D03*
X003505Y004465D03*
X003490Y004465D03*
X003475Y004450D03*
X003460Y004450D03*
X003445Y004450D03*
X003415Y004435D03*
X003400Y004435D03*
X003385Y004435D03*
X003370Y004435D03*
X003370Y003925D03*
X003565Y003505D03*
X003580Y003505D03*
X003595Y003505D03*
X003610Y003520D03*
X003625Y003520D03*
X003640Y003520D03*
X003655Y003535D03*
X003670Y003535D03*
X003700Y003550D03*
X003715Y003550D03*
X003745Y003565D03*
X003760Y003565D03*
X003775Y003580D03*
X003790Y003580D03*
X003805Y003580D03*
X003820Y003595D03*
X003835Y003595D03*
X003850Y003595D03*
X003550Y003490D03*
X003535Y003490D03*
X003520Y003490D03*
X003505Y003475D03*
X003490Y003475D03*
X003475Y003475D03*
X003460Y003460D03*
X003445Y003460D03*
X003430Y003460D03*
X003415Y003445D03*
X003400Y003445D03*
X003385Y003445D03*
X003370Y003430D03*
X003355Y003430D03*
X003340Y003430D03*
X003325Y003415D03*
X003310Y003415D03*
X003295Y003415D03*
X003280Y003400D03*
X003265Y003400D03*
X003250Y003400D03*
X003235Y003385D03*
X003220Y003385D03*
X003205Y003385D03*
X003190Y003370D03*
X003175Y003370D03*
X003160Y003370D03*
X003145Y003355D03*
X004420Y003625D03*
X004570Y003685D03*
D18*
X003220Y003843D03*
X003145Y003873D03*
D19*
X003145Y004600D03*
X003505Y006010D03*
D20*
X003145Y005748D03*
D21*
X003160Y004608D03*
D22*
X003160Y005740D03*
X003520Y005980D03*
X003640Y005800D03*
D23*
X003175Y004615D03*
D24*
X003175Y005748D03*
X003535Y005943D03*
X003625Y005823D03*
D25*
X003925Y005988D03*
X003190Y004623D03*
D26*
X003190Y005755D03*
X003565Y005905D03*
X003580Y005890D03*
X003595Y005875D03*
X003940Y005995D03*
D27*
X003205Y005763D03*
X003205Y004623D03*
D28*
X003220Y004630D03*
X003895Y005980D03*
D29*
X003220Y005763D03*
D30*
X003235Y005763D03*
X003880Y005973D03*
X003235Y004638D03*
D31*
X003250Y004638D03*
X003250Y005778D03*
D32*
X003265Y005598D03*
X003685Y005718D03*
X003265Y004833D03*
X003265Y004458D03*
D33*
X003280Y005575D03*
X003265Y005965D03*
X003475Y006055D03*
X003865Y006145D03*
X003865Y005785D03*
D34*
X003700Y005703D03*
X003850Y006168D03*
X003295Y005568D03*
X003280Y004443D03*
D35*
X003445Y003955D03*
X003520Y003970D03*
X003295Y003895D03*
X004270Y003580D03*
X004345Y003595D03*
X004495Y003655D03*
X004285Y004270D03*
D36*
X003625Y005028D03*
X003385Y004938D03*
X003355Y004923D03*
X003340Y004908D03*
X003310Y004893D03*
X003310Y004428D03*
X003325Y004428D03*
X003340Y004428D03*
X003355Y004428D03*
X003340Y005553D03*
X003325Y005553D03*
X003715Y005688D03*
X003835Y005748D03*
X003820Y006183D03*
X003805Y006183D03*
X003790Y006183D03*
X003445Y006078D03*
X003310Y006033D03*
X003295Y006018D03*
D37*
X003385Y006078D03*
X003745Y006183D03*
X003760Y006183D03*
X003805Y005718D03*
X003775Y005703D03*
X003415Y005553D03*
X003880Y004593D03*
X003925Y004608D03*
X003835Y004578D03*
X003790Y004563D03*
X003745Y004548D03*
X003430Y004443D03*
X003595Y004008D03*
X003730Y003558D03*
X003685Y003543D03*
X004645Y003708D03*
D38*
X003670Y005733D03*
X003490Y006033D03*
D39*
X003550Y005928D03*
X003610Y005853D03*
D40*
X003910Y005980D03*
X003595Y002815D03*
D41*
X003655Y005763D03*
D42*
X003985Y003655D03*
X003955Y003640D03*
X003940Y003640D03*
X003910Y003625D03*
X003895Y003625D03*
X003865Y003610D03*
D43*
X003880Y003618D03*
X003925Y003633D03*
X003970Y003648D03*
D44*
X003955Y005995D03*
D45*
X003970Y006003D03*
D46*
X003985Y006010D03*
D47*
X004270Y004525D03*
D48*
X004131Y002522D02*
X003186Y002522D01*
X003029Y002364D01*
X003029Y001065D01*
X004131Y001065D01*
X004131Y002482D01*
X003732Y008375D02*
X002787Y008375D01*
X002787Y008414D02*
X002787Y009831D01*
X003890Y009831D01*
X003890Y008532D01*
X003732Y008375D01*
M02*
