G75*
G70*
%OFA0B0*%
%FSLAX24Y24*%
%IPPOS*%
%LPD*%
%AMOC8*
5,1,8,0,0,1.08239X$1,22.5*
%
%ADD10C,0.0000*%
%ADD11R,0.0886X0.0886*%
%ADD12C,0.0886*%
%ADD13C,0.1142*%
%ADD14OC8,0.0600*%
%ADD15OC8,0.0480*%
%ADD16C,0.0480*%
%ADD17C,0.0160*%
%ADD18R,0.1181X0.1181*%
%ADD19C,0.0500*%
%ADD20C,0.1000*%
D10*
X000180Y000680D02*
X000180Y020365D01*
X033550Y020365D01*
X033550Y000680D01*
X000180Y000680D01*
X001089Y001680D02*
X001091Y001728D01*
X001097Y001776D01*
X001107Y001823D01*
X001120Y001869D01*
X001138Y001914D01*
X001158Y001958D01*
X001183Y002000D01*
X001211Y002039D01*
X001241Y002076D01*
X001275Y002110D01*
X001312Y002142D01*
X001350Y002171D01*
X001391Y002196D01*
X001434Y002218D01*
X001479Y002236D01*
X001525Y002250D01*
X001572Y002261D01*
X001620Y002268D01*
X001668Y002271D01*
X001716Y002270D01*
X001764Y002265D01*
X001812Y002256D01*
X001858Y002244D01*
X001903Y002227D01*
X001947Y002207D01*
X001989Y002184D01*
X002029Y002157D01*
X002067Y002127D01*
X002102Y002094D01*
X002134Y002058D01*
X002164Y002020D01*
X002190Y001979D01*
X002212Y001936D01*
X002232Y001892D01*
X002247Y001847D01*
X002259Y001800D01*
X002267Y001752D01*
X002271Y001704D01*
X002271Y001656D01*
X002267Y001608D01*
X002259Y001560D01*
X002247Y001513D01*
X002232Y001468D01*
X002212Y001424D01*
X002190Y001381D01*
X002164Y001340D01*
X002134Y001302D01*
X002102Y001266D01*
X002067Y001233D01*
X002029Y001203D01*
X001989Y001176D01*
X001947Y001153D01*
X001903Y001133D01*
X001858Y001116D01*
X001812Y001104D01*
X001764Y001095D01*
X001716Y001090D01*
X001668Y001089D01*
X001620Y001092D01*
X001572Y001099D01*
X001525Y001110D01*
X001479Y001124D01*
X001434Y001142D01*
X001391Y001164D01*
X001350Y001189D01*
X001312Y001218D01*
X001275Y001250D01*
X001241Y001284D01*
X001211Y001321D01*
X001183Y001360D01*
X001158Y001402D01*
X001138Y001446D01*
X001120Y001491D01*
X001107Y001537D01*
X001097Y001584D01*
X001091Y001632D01*
X001089Y001680D01*
X001089Y019180D02*
X001091Y019228D01*
X001097Y019276D01*
X001107Y019323D01*
X001120Y019369D01*
X001138Y019414D01*
X001158Y019458D01*
X001183Y019500D01*
X001211Y019539D01*
X001241Y019576D01*
X001275Y019610D01*
X001312Y019642D01*
X001350Y019671D01*
X001391Y019696D01*
X001434Y019718D01*
X001479Y019736D01*
X001525Y019750D01*
X001572Y019761D01*
X001620Y019768D01*
X001668Y019771D01*
X001716Y019770D01*
X001764Y019765D01*
X001812Y019756D01*
X001858Y019744D01*
X001903Y019727D01*
X001947Y019707D01*
X001989Y019684D01*
X002029Y019657D01*
X002067Y019627D01*
X002102Y019594D01*
X002134Y019558D01*
X002164Y019520D01*
X002190Y019479D01*
X002212Y019436D01*
X002232Y019392D01*
X002247Y019347D01*
X002259Y019300D01*
X002267Y019252D01*
X002271Y019204D01*
X002271Y019156D01*
X002267Y019108D01*
X002259Y019060D01*
X002247Y019013D01*
X002232Y018968D01*
X002212Y018924D01*
X002190Y018881D01*
X002164Y018840D01*
X002134Y018802D01*
X002102Y018766D01*
X002067Y018733D01*
X002029Y018703D01*
X001989Y018676D01*
X001947Y018653D01*
X001903Y018633D01*
X001858Y018616D01*
X001812Y018604D01*
X001764Y018595D01*
X001716Y018590D01*
X001668Y018589D01*
X001620Y018592D01*
X001572Y018599D01*
X001525Y018610D01*
X001479Y018624D01*
X001434Y018642D01*
X001391Y018664D01*
X001350Y018689D01*
X001312Y018718D01*
X001275Y018750D01*
X001241Y018784D01*
X001211Y018821D01*
X001183Y018860D01*
X001158Y018902D01*
X001138Y018946D01*
X001120Y018991D01*
X001107Y019037D01*
X001097Y019084D01*
X001091Y019132D01*
X001089Y019180D01*
X031589Y019180D02*
X031591Y019228D01*
X031597Y019276D01*
X031607Y019323D01*
X031620Y019369D01*
X031638Y019414D01*
X031658Y019458D01*
X031683Y019500D01*
X031711Y019539D01*
X031741Y019576D01*
X031775Y019610D01*
X031812Y019642D01*
X031850Y019671D01*
X031891Y019696D01*
X031934Y019718D01*
X031979Y019736D01*
X032025Y019750D01*
X032072Y019761D01*
X032120Y019768D01*
X032168Y019771D01*
X032216Y019770D01*
X032264Y019765D01*
X032312Y019756D01*
X032358Y019744D01*
X032403Y019727D01*
X032447Y019707D01*
X032489Y019684D01*
X032529Y019657D01*
X032567Y019627D01*
X032602Y019594D01*
X032634Y019558D01*
X032664Y019520D01*
X032690Y019479D01*
X032712Y019436D01*
X032732Y019392D01*
X032747Y019347D01*
X032759Y019300D01*
X032767Y019252D01*
X032771Y019204D01*
X032771Y019156D01*
X032767Y019108D01*
X032759Y019060D01*
X032747Y019013D01*
X032732Y018968D01*
X032712Y018924D01*
X032690Y018881D01*
X032664Y018840D01*
X032634Y018802D01*
X032602Y018766D01*
X032567Y018733D01*
X032529Y018703D01*
X032489Y018676D01*
X032447Y018653D01*
X032403Y018633D01*
X032358Y018616D01*
X032312Y018604D01*
X032264Y018595D01*
X032216Y018590D01*
X032168Y018589D01*
X032120Y018592D01*
X032072Y018599D01*
X032025Y018610D01*
X031979Y018624D01*
X031934Y018642D01*
X031891Y018664D01*
X031850Y018689D01*
X031812Y018718D01*
X031775Y018750D01*
X031741Y018784D01*
X031711Y018821D01*
X031683Y018860D01*
X031658Y018902D01*
X031638Y018946D01*
X031620Y018991D01*
X031607Y019037D01*
X031597Y019084D01*
X031591Y019132D01*
X031589Y019180D01*
X031589Y001680D02*
X031591Y001728D01*
X031597Y001776D01*
X031607Y001823D01*
X031620Y001869D01*
X031638Y001914D01*
X031658Y001958D01*
X031683Y002000D01*
X031711Y002039D01*
X031741Y002076D01*
X031775Y002110D01*
X031812Y002142D01*
X031850Y002171D01*
X031891Y002196D01*
X031934Y002218D01*
X031979Y002236D01*
X032025Y002250D01*
X032072Y002261D01*
X032120Y002268D01*
X032168Y002271D01*
X032216Y002270D01*
X032264Y002265D01*
X032312Y002256D01*
X032358Y002244D01*
X032403Y002227D01*
X032447Y002207D01*
X032489Y002184D01*
X032529Y002157D01*
X032567Y002127D01*
X032602Y002094D01*
X032634Y002058D01*
X032664Y002020D01*
X032690Y001979D01*
X032712Y001936D01*
X032732Y001892D01*
X032747Y001847D01*
X032759Y001800D01*
X032767Y001752D01*
X032771Y001704D01*
X032771Y001656D01*
X032767Y001608D01*
X032759Y001560D01*
X032747Y001513D01*
X032732Y001468D01*
X032712Y001424D01*
X032690Y001381D01*
X032664Y001340D01*
X032634Y001302D01*
X032602Y001266D01*
X032567Y001233D01*
X032529Y001203D01*
X032489Y001176D01*
X032447Y001153D01*
X032403Y001133D01*
X032358Y001116D01*
X032312Y001104D01*
X032264Y001095D01*
X032216Y001090D01*
X032168Y001089D01*
X032120Y001092D01*
X032072Y001099D01*
X032025Y001110D01*
X031979Y001124D01*
X031934Y001142D01*
X031891Y001164D01*
X031850Y001189D01*
X031812Y001218D01*
X031775Y001250D01*
X031741Y001284D01*
X031711Y001321D01*
X031683Y001360D01*
X031658Y001402D01*
X031638Y001446D01*
X031620Y001491D01*
X031607Y001537D01*
X031597Y001584D01*
X031591Y001632D01*
X031589Y001680D01*
D11*
X005680Y017680D03*
D12*
X007239Y017680D03*
X008798Y017680D03*
X010357Y017680D03*
X011916Y017680D03*
X013475Y017680D03*
X015034Y017680D03*
X016593Y017680D03*
D13*
X017200Y008719D03*
X018853Y008719D03*
X020507Y008719D03*
X022160Y008719D03*
X023814Y008719D03*
X025467Y008719D03*
X027121Y008719D03*
X028774Y008719D03*
X028774Y006554D03*
X027121Y006554D03*
X025467Y006554D03*
X023814Y006554D03*
X022160Y006554D03*
X020507Y006554D03*
X018853Y006554D03*
X017200Y006554D03*
X015546Y006554D03*
X013893Y006554D03*
X012239Y006554D03*
X010586Y006554D03*
X010586Y008719D03*
X012239Y008719D03*
X013893Y008719D03*
X015546Y008719D03*
D14*
X010680Y011430D03*
X006180Y015180D03*
X001680Y011430D03*
X015180Y015180D03*
X030180Y013180D03*
X031180Y009180D03*
X031180Y003180D03*
X030180Y019180D03*
D15*
X030680Y011430D03*
X027680Y011430D03*
X017180Y012680D03*
X017180Y009680D03*
X001180Y014680D03*
X001180Y017680D03*
D16*
X003180Y017440D02*
X003180Y017920D01*
X004180Y017920D02*
X004180Y017440D01*
X016440Y015180D02*
X016920Y015180D01*
X016920Y014180D02*
X016440Y014180D01*
X031690Y012680D02*
X032170Y012680D01*
X032170Y011680D02*
X031690Y011680D01*
D17*
X031378Y011934D02*
X026431Y011934D01*
X026431Y012092D02*
X033270Y012092D01*
X033270Y011934D02*
X032482Y011934D01*
X032509Y011907D02*
X032397Y012019D01*
X032250Y012080D01*
X031610Y012080D01*
X031463Y012019D01*
X031351Y011907D01*
X031290Y011760D01*
X031290Y011600D01*
X031351Y011453D01*
X031463Y011341D01*
X031610Y011280D01*
X032250Y011280D01*
X032397Y011341D01*
X032509Y011453D01*
X032570Y011600D01*
X032570Y011760D01*
X032509Y011907D01*
X032564Y011775D02*
X033270Y011775D01*
X033270Y011617D02*
X032570Y011617D01*
X032511Y011458D02*
X033270Y011458D01*
X033270Y011300D02*
X032297Y011300D01*
X031563Y011300D02*
X031080Y011300D01*
X031080Y011264D02*
X030846Y011030D01*
X030514Y011030D01*
X030280Y011264D01*
X030280Y011596D01*
X030514Y011830D01*
X030846Y011830D01*
X031080Y011596D01*
X031080Y011264D01*
X030957Y011141D02*
X033270Y011141D01*
X033270Y010983D02*
X026390Y010983D01*
X026431Y011023D02*
X026431Y012337D01*
X026337Y012431D01*
X025023Y012431D01*
X024930Y012337D01*
X024837Y012431D01*
X023523Y012431D01*
X023430Y012337D01*
X023337Y012431D01*
X022023Y012431D01*
X021930Y012337D01*
X021837Y012431D01*
X020523Y012431D01*
X020430Y012337D01*
X020337Y012431D01*
X019023Y012431D01*
X018929Y012337D01*
X018929Y011023D01*
X019023Y010929D01*
X020337Y010929D01*
X020430Y011023D01*
X020523Y010929D01*
X021837Y010929D01*
X021930Y011023D01*
X022023Y010929D01*
X023337Y010929D01*
X023430Y011023D01*
X023523Y010929D01*
X024837Y010929D01*
X024930Y011023D01*
X025023Y010929D01*
X026337Y010929D01*
X026431Y011023D01*
X026431Y011141D02*
X027403Y011141D01*
X027514Y011030D02*
X027280Y011264D01*
X027280Y011596D01*
X027514Y011830D01*
X027846Y011830D01*
X028080Y011596D01*
X028080Y011264D01*
X027846Y011030D01*
X027514Y011030D01*
X027280Y011300D02*
X026431Y011300D01*
X026431Y011458D02*
X027280Y011458D01*
X027301Y011617D02*
X026431Y011617D01*
X026431Y011775D02*
X027459Y011775D01*
X027901Y011775D02*
X030459Y011775D01*
X030301Y011617D02*
X028059Y011617D01*
X028080Y011458D02*
X030280Y011458D01*
X030280Y011300D02*
X028080Y011300D01*
X027957Y011141D02*
X030403Y011141D01*
X031080Y011458D02*
X031349Y011458D01*
X031290Y011617D02*
X031059Y011617D01*
X030901Y011775D02*
X031296Y011775D01*
X031501Y012326D02*
X031573Y012295D01*
X031651Y012280D01*
X031930Y012280D01*
X032209Y012280D01*
X032287Y012295D01*
X032359Y012326D01*
X032425Y012369D01*
X032481Y012425D01*
X032524Y012491D01*
X032555Y012563D01*
X032570Y012641D01*
X032570Y012680D01*
X032570Y012719D01*
X032555Y012797D01*
X032524Y012869D01*
X032481Y012935D01*
X032425Y012991D01*
X032359Y013034D01*
X032287Y013065D01*
X032209Y013080D01*
X031930Y013080D01*
X031930Y012680D01*
X031930Y012680D01*
X032570Y012680D01*
X031930Y012680D01*
X031930Y012680D01*
X031930Y013080D01*
X031651Y013080D01*
X031573Y013065D01*
X031501Y013034D01*
X031435Y012991D01*
X031379Y012935D01*
X031336Y012869D01*
X031305Y012797D01*
X031290Y012719D01*
X031290Y012680D01*
X031930Y012680D01*
X031930Y012280D01*
X031930Y012680D01*
X031930Y012680D01*
X031930Y012680D01*
X031290Y012680D01*
X031290Y012641D01*
X031305Y012563D01*
X031336Y012491D01*
X031379Y012425D01*
X031435Y012369D01*
X031501Y012326D01*
X031395Y012409D02*
X026358Y012409D01*
X026431Y012251D02*
X033270Y012251D01*
X033270Y012409D02*
X032465Y012409D01*
X032555Y012568D02*
X033270Y012568D01*
X033270Y012726D02*
X032569Y012726D01*
X032514Y012885D02*
X033270Y012885D01*
X033270Y013043D02*
X032339Y013043D01*
X031930Y013043D02*
X031930Y013043D01*
X031930Y012885D02*
X031930Y012885D01*
X031930Y012726D02*
X031930Y012726D01*
X031930Y012568D02*
X031930Y012568D01*
X031930Y012409D02*
X031930Y012409D01*
X031305Y012568D02*
X017580Y012568D01*
X017580Y012514D02*
X017346Y012280D01*
X017014Y012280D01*
X016780Y012514D01*
X016780Y012846D01*
X017014Y013080D01*
X017346Y013080D01*
X017580Y012846D01*
X017580Y012514D01*
X017475Y012409D02*
X019002Y012409D01*
X018929Y012251D02*
X015931Y012251D01*
X015931Y012409D02*
X016885Y012409D01*
X016780Y012568D02*
X015931Y012568D01*
X015931Y012726D02*
X016780Y012726D01*
X016819Y012885D02*
X015931Y012885D01*
X015931Y013043D02*
X016977Y013043D01*
X017383Y013043D02*
X018929Y013043D01*
X018929Y013023D02*
X019023Y012929D01*
X020337Y012929D01*
X020430Y013023D01*
X020523Y012929D01*
X021837Y012929D01*
X021930Y013023D01*
X022023Y012929D01*
X023337Y012929D01*
X023430Y013023D01*
X023523Y012929D01*
X024837Y012929D01*
X024930Y013023D01*
X025023Y012929D01*
X026337Y012929D01*
X026431Y013023D01*
X026431Y014337D01*
X026337Y014431D01*
X025023Y014431D01*
X024930Y014337D01*
X024837Y014431D01*
X023523Y014431D01*
X023430Y014337D01*
X023337Y014431D01*
X022023Y014431D01*
X021930Y014337D01*
X021837Y014431D01*
X020523Y014431D01*
X020430Y014337D01*
X020337Y014431D01*
X019023Y014431D01*
X018929Y014337D01*
X018929Y013023D01*
X018929Y013202D02*
X015931Y013202D01*
X015931Y013337D02*
X015837Y013431D01*
X014523Y013431D01*
X014430Y013337D01*
X014337Y013431D01*
X013023Y013431D01*
X012930Y013337D01*
X012837Y013431D01*
X011523Y013431D01*
X011429Y013337D01*
X011429Y012023D01*
X011523Y011929D01*
X012837Y011929D01*
X012930Y012023D01*
X013023Y011929D01*
X014337Y011929D01*
X014430Y012023D01*
X014523Y011929D01*
X015837Y011929D01*
X015931Y012023D01*
X015931Y013337D01*
X015907Y013360D02*
X018929Y013360D01*
X018929Y013519D02*
X000460Y013519D01*
X000460Y013677D02*
X018929Y013677D01*
X018929Y013836D02*
X017134Y013836D01*
X017147Y013841D02*
X017259Y013953D01*
X017320Y014100D01*
X017320Y014260D01*
X017259Y014407D01*
X017147Y014519D01*
X017000Y014580D01*
X016360Y014580D01*
X016213Y014519D01*
X016101Y014407D01*
X016040Y014260D01*
X016040Y014100D01*
X016101Y013953D01*
X016213Y013841D01*
X016360Y013780D01*
X017000Y013780D01*
X017147Y013841D01*
X017276Y013994D02*
X018929Y013994D01*
X018929Y014153D02*
X017320Y014153D01*
X017299Y014311D02*
X018929Y014311D01*
X017196Y014470D02*
X033270Y014470D01*
X033270Y014628D02*
X001580Y014628D01*
X001580Y014514D02*
X001346Y014280D01*
X001014Y014280D01*
X000780Y014514D01*
X000780Y014846D01*
X001014Y015080D01*
X001346Y015080D01*
X001580Y014846D01*
X001580Y014514D01*
X001535Y014470D02*
X016164Y014470D01*
X016061Y014311D02*
X001377Y014311D01*
X000983Y014311D02*
X000460Y014311D01*
X000460Y014153D02*
X016040Y014153D01*
X016084Y013994D02*
X000460Y013994D01*
X000460Y013836D02*
X016226Y013836D01*
X015371Y014720D02*
X014989Y014720D01*
X014720Y014989D01*
X014720Y015371D01*
X014989Y015640D01*
X015371Y015640D01*
X015640Y015371D01*
X015640Y014989D01*
X015371Y014720D01*
X015437Y014787D02*
X016368Y014787D01*
X016401Y014780D02*
X016680Y014780D01*
X016959Y014780D01*
X017037Y014795D01*
X017109Y014826D01*
X017175Y014869D01*
X017231Y014925D01*
X017274Y014991D01*
X017305Y015063D01*
X017320Y015141D01*
X017320Y015180D01*
X017320Y015219D01*
X017305Y015297D01*
X017274Y015369D01*
X017231Y015435D01*
X017175Y015491D01*
X017109Y015534D01*
X017037Y015565D01*
X016959Y015580D01*
X016680Y015580D01*
X016680Y015180D01*
X016680Y015180D01*
X017320Y015180D01*
X016680Y015180D01*
X016680Y015180D01*
X016680Y015580D01*
X016401Y015580D01*
X016323Y015565D01*
X016251Y015534D01*
X016185Y015491D01*
X016129Y015435D01*
X016086Y015369D01*
X016055Y015297D01*
X016040Y015219D01*
X016040Y015180D01*
X016680Y015180D01*
X016680Y014780D01*
X016680Y015180D01*
X016680Y015180D01*
X016680Y015180D01*
X016040Y015180D01*
X016040Y015141D01*
X016055Y015063D01*
X016086Y014991D01*
X016129Y014925D01*
X016185Y014869D01*
X016251Y014826D01*
X016323Y014795D01*
X016401Y014780D01*
X016680Y014787D02*
X016680Y014787D01*
X016680Y014945D02*
X016680Y014945D01*
X016680Y015104D02*
X016680Y015104D01*
X016680Y015262D02*
X016680Y015262D01*
X016680Y015421D02*
X016680Y015421D01*
X016680Y015579D02*
X016680Y015579D01*
X016396Y015579D02*
X015432Y015579D01*
X015590Y015421D02*
X016120Y015421D01*
X016048Y015262D02*
X015640Y015262D01*
X015640Y015104D02*
X016047Y015104D01*
X016116Y014945D02*
X015596Y014945D01*
X014923Y014787D02*
X006437Y014787D01*
X006371Y014720D02*
X006640Y014989D01*
X006640Y015160D01*
X006200Y015160D01*
X006200Y015200D01*
X006640Y015200D01*
X006640Y015371D01*
X006371Y015640D01*
X006200Y015640D01*
X006200Y015200D01*
X006160Y015200D01*
X006160Y015640D01*
X005989Y015640D01*
X005720Y015371D01*
X005720Y015200D01*
X006160Y015200D01*
X006160Y015160D01*
X006200Y015160D01*
X006200Y014720D01*
X006371Y014720D01*
X006200Y014787D02*
X006160Y014787D01*
X006160Y014720D02*
X005989Y014720D01*
X005720Y014989D01*
X005720Y015160D01*
X006160Y015160D01*
X006160Y014720D01*
X006160Y014945D02*
X006200Y014945D01*
X006200Y015104D02*
X006160Y015104D01*
X006160Y015262D02*
X006200Y015262D01*
X006200Y015421D02*
X006160Y015421D01*
X006160Y015579D02*
X006200Y015579D01*
X006432Y015579D02*
X014928Y015579D01*
X014770Y015421D02*
X006590Y015421D01*
X006640Y015262D02*
X014720Y015262D01*
X014720Y015104D02*
X006640Y015104D01*
X006596Y014945D02*
X014764Y014945D01*
X014453Y013360D02*
X014407Y013360D01*
X012953Y013360D02*
X012907Y013360D01*
X011453Y013360D02*
X000460Y013360D01*
X000460Y013202D02*
X011429Y013202D01*
X011429Y013043D02*
X000460Y013043D01*
X000460Y012885D02*
X011429Y012885D01*
X011429Y012726D02*
X000460Y012726D01*
X000460Y012568D02*
X011429Y012568D01*
X011429Y012409D02*
X000460Y012409D01*
X000460Y012251D02*
X011429Y012251D01*
X011429Y012092D02*
X000460Y012092D01*
X000460Y011934D02*
X011519Y011934D01*
X010986Y011775D02*
X018929Y011775D01*
X018929Y011617D02*
X011140Y011617D01*
X011140Y011621D02*
X010871Y011890D01*
X010489Y011890D01*
X010220Y011621D01*
X010220Y011239D01*
X010489Y010970D01*
X010871Y010970D01*
X011140Y011239D01*
X011140Y011621D01*
X011140Y011458D02*
X018929Y011458D01*
X018929Y011300D02*
X015931Y011300D01*
X015931Y011337D02*
X015837Y011431D01*
X014523Y011431D01*
X014430Y011337D01*
X014337Y011431D01*
X013023Y011431D01*
X012930Y011337D01*
X012837Y011431D01*
X011523Y011431D01*
X011429Y011337D01*
X011429Y010023D01*
X011523Y009929D01*
X012837Y009929D01*
X012930Y010023D01*
X013023Y009929D01*
X014337Y009929D01*
X014430Y010023D01*
X014523Y009929D01*
X015837Y009929D01*
X015931Y010023D01*
X015931Y011337D01*
X015931Y011141D02*
X018929Y011141D01*
X018970Y010983D02*
X015931Y010983D01*
X015931Y010824D02*
X033270Y010824D01*
X033270Y010666D02*
X015931Y010666D01*
X015931Y010507D02*
X033270Y010507D01*
X033270Y010349D02*
X015931Y010349D01*
X015931Y010190D02*
X033270Y010190D01*
X033270Y010032D02*
X017394Y010032D01*
X017346Y010080D02*
X017580Y009846D01*
X017580Y009514D01*
X017466Y009400D01*
X017614Y009339D01*
X017819Y009133D01*
X017931Y008865D01*
X017931Y008574D01*
X017819Y008305D01*
X017614Y008100D01*
X017590Y008090D01*
X018482Y008090D01*
X018446Y008110D01*
X018370Y008169D01*
X018303Y008236D01*
X018244Y008312D01*
X018196Y008395D01*
X018160Y008484D01*
X018135Y008576D01*
X018127Y008639D01*
X018773Y008639D01*
X018773Y008799D01*
X018127Y008799D01*
X018135Y008862D01*
X018160Y008955D01*
X018196Y009043D01*
X018244Y009126D01*
X018303Y009202D01*
X018370Y009270D01*
X018446Y009328D01*
X018529Y009376D01*
X018618Y009413D01*
X018710Y009438D01*
X018773Y009446D01*
X018773Y008799D01*
X018933Y008799D01*
X019580Y008799D01*
X019572Y008862D01*
X019547Y008955D01*
X019510Y009043D01*
X019462Y009126D01*
X019404Y009202D01*
X019336Y009270D01*
X019260Y009328D01*
X019177Y009376D01*
X019089Y009413D01*
X018996Y009438D01*
X018933Y009446D01*
X018933Y008799D01*
X018933Y008639D01*
X019580Y008639D01*
X019572Y008576D01*
X019547Y008484D01*
X019510Y008395D01*
X019462Y008312D01*
X019404Y008236D01*
X019336Y008169D01*
X019260Y008110D01*
X019225Y008090D01*
X019462Y008090D01*
X019613Y008028D01*
X020357Y007283D01*
X020361Y007285D01*
X020652Y007285D01*
X020921Y007174D01*
X021126Y006968D01*
X021238Y006699D01*
X021238Y006409D01*
X021126Y006140D01*
X020963Y005977D01*
X021350Y005590D01*
X022510Y005590D01*
X023155Y006235D01*
X023083Y006409D01*
X023083Y006699D01*
X023194Y006968D01*
X023400Y007174D01*
X023668Y007285D01*
X023959Y007285D01*
X024228Y007174D01*
X024433Y006968D01*
X024545Y006699D01*
X024545Y006409D01*
X024433Y006140D01*
X024228Y005934D01*
X023959Y005823D01*
X023903Y005823D01*
X022912Y004832D01*
X022762Y004770D01*
X021098Y004770D01*
X020948Y004832D01*
X020832Y004948D01*
X020832Y004948D01*
X020275Y005506D01*
X020275Y005506D01*
X020159Y005621D01*
X020097Y005772D01*
X020097Y005933D01*
X020093Y005934D01*
X019887Y006140D01*
X019776Y006409D01*
X019776Y006699D01*
X019778Y006703D01*
X019211Y007270D01*
X019005Y007270D01*
X019089Y007248D01*
X019177Y007211D01*
X019260Y007163D01*
X019336Y007105D01*
X019404Y007037D01*
X019462Y006961D01*
X019510Y006878D01*
X019547Y006789D01*
X019572Y006697D01*
X019580Y006634D01*
X018933Y006634D01*
X018933Y006474D01*
X018933Y005827D01*
X018996Y005836D01*
X019089Y005860D01*
X019177Y005897D01*
X019260Y005945D01*
X019336Y006003D01*
X019404Y006071D01*
X019462Y006147D01*
X019510Y006230D01*
X019547Y006319D01*
X019572Y006411D01*
X019580Y006474D01*
X018933Y006474D01*
X018773Y006474D01*
X018127Y006474D01*
X018135Y006411D01*
X018160Y006319D01*
X018196Y006230D01*
X018244Y006147D01*
X018303Y006071D01*
X018370Y006003D01*
X018446Y005945D01*
X018529Y005897D01*
X018618Y005860D01*
X018710Y005836D01*
X018773Y005827D01*
X018773Y006474D01*
X018773Y006634D01*
X018127Y006634D01*
X018135Y006697D01*
X018160Y006789D01*
X018196Y006878D01*
X018244Y006961D01*
X018303Y007037D01*
X018370Y007105D01*
X018446Y007163D01*
X018529Y007211D01*
X018618Y007248D01*
X018701Y007270D01*
X017381Y007270D01*
X017614Y007174D01*
X017819Y006968D01*
X017931Y006699D01*
X017931Y006409D01*
X017819Y006140D01*
X017614Y005934D01*
X017345Y005823D01*
X017054Y005823D01*
X016786Y005934D01*
X016580Y006140D01*
X016469Y006409D01*
X016469Y006699D01*
X016580Y006968D01*
X016786Y007174D01*
X017018Y007270D01*
X016098Y007270D01*
X015948Y007332D01*
X015832Y007448D01*
X015215Y008066D01*
X015132Y008100D01*
X014927Y008305D01*
X014815Y008574D01*
X014815Y008865D01*
X014927Y009133D01*
X015132Y009339D01*
X015401Y009450D01*
X015692Y009450D01*
X015960Y009339D01*
X016166Y009133D01*
X016277Y008865D01*
X016277Y008574D01*
X016166Y008305D01*
X016150Y008290D01*
X016350Y008090D01*
X016809Y008090D01*
X016786Y008100D01*
X016580Y008305D01*
X016469Y008574D01*
X016469Y008865D01*
X016580Y009133D01*
X016786Y009339D01*
X016906Y009389D01*
X016780Y009514D01*
X016780Y009846D01*
X017014Y010080D01*
X017346Y010080D01*
X017553Y009873D02*
X033270Y009873D01*
X033270Y009715D02*
X017580Y009715D01*
X017580Y009556D02*
X030905Y009556D01*
X030989Y009640D02*
X030720Y009371D01*
X030720Y009200D01*
X031160Y009200D01*
X031160Y009640D01*
X030989Y009640D01*
X031160Y009556D02*
X031200Y009556D01*
X031200Y009640D02*
X031200Y009200D01*
X031160Y009200D01*
X031160Y009160D01*
X030720Y009160D01*
X030720Y008989D01*
X030989Y008720D01*
X031160Y008720D01*
X031160Y009160D01*
X031200Y009160D01*
X031200Y009200D01*
X031640Y009200D01*
X031640Y009371D01*
X031371Y009640D01*
X031200Y009640D01*
X031200Y009398D02*
X031160Y009398D01*
X031160Y009239D02*
X031200Y009239D01*
X031200Y009160D02*
X031640Y009160D01*
X031640Y008989D01*
X031371Y008720D01*
X031200Y008720D01*
X031200Y009160D01*
X031200Y009081D02*
X031160Y009081D01*
X031160Y008922D02*
X031200Y008922D01*
X031200Y008764D02*
X031160Y008764D01*
X030946Y008764D02*
X029505Y008764D01*
X029505Y008865D02*
X029505Y008574D01*
X029394Y008305D01*
X029188Y008100D01*
X028920Y007989D01*
X028629Y007989D01*
X028360Y008100D01*
X028155Y008305D01*
X028044Y008574D01*
X028044Y008865D01*
X028155Y009133D01*
X028360Y009339D01*
X028629Y009450D01*
X028920Y009450D01*
X029188Y009339D01*
X029394Y009133D01*
X029505Y008865D01*
X029482Y008922D02*
X030787Y008922D01*
X030720Y009081D02*
X029416Y009081D01*
X029288Y009239D02*
X030720Y009239D01*
X030747Y009398D02*
X029047Y009398D01*
X028502Y009398D02*
X027394Y009398D01*
X027266Y009450D02*
X026976Y009450D01*
X026707Y009339D01*
X026501Y009133D01*
X026390Y008865D01*
X026390Y008574D01*
X026501Y008305D01*
X026707Y008100D01*
X026976Y007989D01*
X027266Y007989D01*
X027535Y008100D01*
X027741Y008305D01*
X027852Y008574D01*
X027852Y008865D01*
X027741Y009133D01*
X027535Y009339D01*
X027266Y009450D01*
X026848Y009398D02*
X025740Y009398D01*
X025703Y009413D02*
X025610Y009438D01*
X025547Y009446D01*
X025547Y008799D01*
X025387Y008799D01*
X025387Y008639D01*
X025547Y008639D01*
X025547Y007993D01*
X025610Y008001D01*
X025703Y008026D01*
X025791Y008062D01*
X025874Y008110D01*
X025950Y008169D01*
X026018Y008236D01*
X026076Y008312D01*
X026124Y008395D01*
X026161Y008484D01*
X026186Y008576D01*
X026194Y008639D01*
X025547Y008639D01*
X025547Y008799D01*
X026194Y008799D01*
X026186Y008862D01*
X026161Y008955D01*
X026124Y009043D01*
X026076Y009126D01*
X026018Y009202D01*
X025950Y009270D01*
X025874Y009328D01*
X025791Y009376D01*
X025703Y009413D01*
X025547Y009398D02*
X025387Y009398D01*
X025387Y009446D02*
X025325Y009438D01*
X025232Y009413D01*
X025143Y009376D01*
X025060Y009328D01*
X024984Y009270D01*
X024917Y009202D01*
X024858Y009126D01*
X024811Y009043D01*
X024774Y008955D01*
X024749Y008862D01*
X024741Y008799D01*
X025387Y008799D01*
X025387Y009446D01*
X025195Y009398D02*
X024087Y009398D01*
X024049Y009413D02*
X023957Y009438D01*
X023894Y009446D01*
X023894Y008799D01*
X024540Y008799D01*
X024532Y008862D01*
X024507Y008955D01*
X024471Y009043D01*
X024423Y009126D01*
X024365Y009202D01*
X024297Y009270D01*
X024221Y009328D01*
X024138Y009376D01*
X024049Y009413D01*
X023894Y009398D02*
X023734Y009398D01*
X023734Y009446D02*
X023671Y009438D01*
X023578Y009413D01*
X023490Y009376D01*
X023407Y009328D01*
X023331Y009270D01*
X023263Y009202D01*
X023205Y009126D01*
X023157Y009043D01*
X023120Y008955D01*
X023095Y008862D01*
X023087Y008799D01*
X023734Y008799D01*
X023734Y008639D01*
X023894Y008639D01*
X023894Y007993D01*
X023957Y008001D01*
X024049Y008026D01*
X024138Y008062D01*
X024221Y008110D01*
X024297Y008169D01*
X024365Y008236D01*
X024423Y008312D01*
X024471Y008395D01*
X024507Y008484D01*
X024532Y008576D01*
X024540Y008639D01*
X023894Y008639D01*
X023894Y008799D01*
X023734Y008799D01*
X023734Y009446D01*
X023541Y009398D02*
X022433Y009398D01*
X022396Y009413D02*
X022303Y009438D01*
X022240Y009446D01*
X022240Y008799D01*
X022887Y008799D01*
X022879Y008862D01*
X022854Y008955D01*
X022817Y009043D01*
X022769Y009126D01*
X022711Y009202D01*
X022643Y009270D01*
X022567Y009328D01*
X022484Y009376D01*
X022396Y009413D01*
X022240Y009398D02*
X022080Y009398D01*
X022080Y009446D02*
X022017Y009438D01*
X021925Y009413D01*
X021836Y009376D01*
X021753Y009328D01*
X021677Y009270D01*
X021610Y009202D01*
X021551Y009126D01*
X021503Y009043D01*
X021467Y008955D01*
X021442Y008862D01*
X021434Y008799D01*
X022080Y008799D01*
X022080Y008639D01*
X022240Y008639D01*
X022240Y007993D01*
X022303Y008001D01*
X022396Y008026D01*
X022484Y008062D01*
X022567Y008110D01*
X022643Y008169D01*
X022711Y008236D01*
X022769Y008312D01*
X022817Y008395D01*
X022854Y008484D01*
X022879Y008576D01*
X022887Y008639D01*
X022240Y008639D01*
X022240Y008799D01*
X022080Y008799D01*
X022080Y009446D01*
X021888Y009398D02*
X020779Y009398D01*
X020742Y009413D02*
X020650Y009438D01*
X020587Y009446D01*
X020587Y008799D01*
X021233Y008799D01*
X021225Y008862D01*
X021200Y008955D01*
X021164Y009043D01*
X021116Y009126D01*
X021057Y009202D01*
X020990Y009270D01*
X020914Y009328D01*
X020831Y009376D01*
X020742Y009413D01*
X020587Y009398D02*
X020427Y009398D01*
X020427Y009446D02*
X020364Y009438D01*
X020271Y009413D01*
X020183Y009376D01*
X020100Y009328D01*
X020024Y009270D01*
X019956Y009202D01*
X019898Y009126D01*
X019850Y009043D01*
X019813Y008955D01*
X019788Y008862D01*
X019780Y008799D01*
X020427Y008799D01*
X020427Y008639D01*
X020587Y008639D01*
X020587Y007993D01*
X020650Y008001D01*
X020742Y008026D01*
X020831Y008062D01*
X020914Y008110D01*
X020990Y008169D01*
X021057Y008236D01*
X021116Y008312D01*
X021164Y008395D01*
X021200Y008484D01*
X021225Y008576D01*
X021233Y008639D01*
X020587Y008639D01*
X020587Y008799D01*
X020427Y008799D01*
X020427Y009446D01*
X020234Y009398D02*
X019126Y009398D01*
X018933Y009398D02*
X018773Y009398D01*
X018773Y009239D02*
X018933Y009239D01*
X018933Y009081D02*
X018773Y009081D01*
X018773Y008922D02*
X018933Y008922D01*
X018933Y008764D02*
X020427Y008764D01*
X020427Y008639D02*
X019780Y008639D01*
X019788Y008576D01*
X019813Y008484D01*
X019850Y008395D01*
X019898Y008312D01*
X019956Y008236D01*
X020024Y008169D01*
X020100Y008110D01*
X020183Y008062D01*
X020271Y008026D01*
X020364Y008001D01*
X020427Y007993D01*
X020427Y008639D01*
X020427Y008605D02*
X020587Y008605D01*
X020587Y008447D02*
X020427Y008447D01*
X020427Y008288D02*
X020587Y008288D01*
X020587Y008130D02*
X020427Y008130D01*
X020075Y008130D02*
X019285Y008130D01*
X019443Y008288D02*
X019917Y008288D01*
X019829Y008447D02*
X019531Y008447D01*
X019575Y008605D02*
X019785Y008605D01*
X019804Y008922D02*
X019556Y008922D01*
X019489Y009081D02*
X019871Y009081D01*
X019993Y009239D02*
X019367Y009239D01*
X018581Y009398D02*
X017472Y009398D01*
X017714Y009239D02*
X018339Y009239D01*
X018218Y009081D02*
X017841Y009081D01*
X017907Y008922D02*
X018151Y008922D01*
X017931Y008764D02*
X018773Y008764D01*
X018175Y008447D02*
X017878Y008447D01*
X017931Y008605D02*
X018131Y008605D01*
X018263Y008288D02*
X017802Y008288D01*
X017643Y008130D02*
X018421Y008130D01*
X019670Y007971D02*
X033270Y007971D01*
X033270Y007813D02*
X019828Y007813D01*
X019987Y007654D02*
X033270Y007654D01*
X033270Y007496D02*
X020145Y007496D01*
X020304Y007337D02*
X027042Y007337D01*
X027049Y007340D02*
X026806Y007240D01*
X026764Y007197D01*
X026707Y007174D01*
X026501Y006968D01*
X026390Y006699D01*
X026390Y006409D01*
X026501Y006140D01*
X026520Y006121D01*
X026520Y005953D01*
X024907Y004340D01*
X013453Y004340D01*
X011883Y005910D01*
X012094Y005823D01*
X012384Y005823D01*
X012653Y005934D01*
X012859Y006140D01*
X012970Y006409D01*
X012970Y006699D01*
X012859Y006968D01*
X012653Y007174D01*
X012384Y007285D01*
X012094Y007285D01*
X011825Y007174D01*
X011619Y006968D01*
X011508Y006699D01*
X011508Y006409D01*
X011595Y006198D01*
X011316Y006477D01*
X011316Y006699D01*
X011205Y006968D01*
X011000Y007174D01*
X010731Y007285D01*
X010440Y007285D01*
X010172Y007174D01*
X009966Y006968D01*
X009855Y006699D01*
X009855Y006409D01*
X009926Y006238D01*
X009926Y006143D01*
X010026Y005901D01*
X012620Y003306D01*
X012806Y003120D01*
X013049Y003020D01*
X025311Y003020D01*
X025554Y003120D01*
X027554Y005120D01*
X027740Y005306D01*
X027840Y005549D01*
X027840Y006020D01*
X028275Y006020D01*
X028360Y005934D01*
X028629Y005823D01*
X028920Y005823D01*
X029188Y005934D01*
X029394Y006140D01*
X029505Y006409D01*
X029505Y006699D01*
X029394Y006968D01*
X029188Y007174D01*
X028920Y007285D01*
X028913Y007285D01*
X028780Y007340D01*
X027049Y007340D01*
X026719Y007179D02*
X025847Y007179D01*
X025874Y007163D02*
X025791Y007211D01*
X025703Y007248D01*
X025610Y007272D01*
X025547Y007281D01*
X025547Y006634D01*
X025387Y006634D01*
X025387Y006474D01*
X024741Y006474D01*
X024749Y006411D01*
X024774Y006319D01*
X024811Y006230D01*
X024858Y006147D01*
X024917Y006071D01*
X024984Y006003D01*
X025060Y005945D01*
X025143Y005897D01*
X025232Y005860D01*
X025325Y005836D01*
X025387Y005827D01*
X025387Y006474D01*
X025547Y006474D01*
X025547Y005827D01*
X025610Y005836D01*
X025703Y005860D01*
X025791Y005897D01*
X025874Y005945D01*
X025950Y006003D01*
X026018Y006071D01*
X026076Y006147D01*
X026124Y006230D01*
X026161Y006319D01*
X026186Y006411D01*
X026194Y006474D01*
X025547Y006474D01*
X025547Y006634D01*
X026194Y006634D01*
X026186Y006697D01*
X026161Y006789D01*
X026124Y006878D01*
X026076Y006961D01*
X026018Y007037D01*
X025950Y007105D01*
X025874Y007163D01*
X026031Y007020D02*
X026553Y007020D01*
X026457Y006862D02*
X026131Y006862D01*
X026184Y006703D02*
X026392Y006703D01*
X026390Y006545D02*
X025547Y006545D01*
X025547Y006703D02*
X025387Y006703D01*
X025387Y006634D02*
X025387Y007281D01*
X025325Y007272D01*
X025232Y007248D01*
X025143Y007211D01*
X025060Y007163D01*
X024984Y007105D01*
X024917Y007037D01*
X024858Y006961D01*
X024811Y006878D01*
X024774Y006789D01*
X024749Y006697D01*
X024741Y006634D01*
X025387Y006634D01*
X025387Y006545D02*
X024545Y006545D01*
X024543Y006703D02*
X024751Y006703D01*
X024804Y006862D02*
X024478Y006862D01*
X024381Y007020D02*
X024904Y007020D01*
X025087Y007179D02*
X024216Y007179D01*
X023412Y007179D02*
X022540Y007179D01*
X022567Y007163D02*
X022484Y007211D01*
X022396Y007248D01*
X022303Y007272D01*
X022240Y007281D01*
X022240Y006634D01*
X022080Y006634D01*
X022080Y006474D01*
X021434Y006474D01*
X021442Y006411D01*
X021467Y006319D01*
X021503Y006230D01*
X021551Y006147D01*
X021610Y006071D01*
X021677Y006003D01*
X021753Y005945D01*
X021836Y005897D01*
X021925Y005860D01*
X022017Y005836D01*
X022080Y005827D01*
X022080Y006474D01*
X022240Y006474D01*
X022240Y005827D01*
X022303Y005836D01*
X022396Y005860D01*
X022484Y005897D01*
X022567Y005945D01*
X022643Y006003D01*
X022711Y006071D01*
X022769Y006147D01*
X022817Y006230D01*
X022854Y006319D01*
X022879Y006411D01*
X022887Y006474D01*
X022240Y006474D01*
X022240Y006634D01*
X022887Y006634D01*
X022879Y006697D01*
X022854Y006789D01*
X022817Y006878D01*
X022769Y006961D01*
X022711Y007037D01*
X022643Y007105D01*
X022567Y007163D01*
X022724Y007020D02*
X023246Y007020D01*
X023150Y006862D02*
X022824Y006862D01*
X022877Y006703D02*
X023084Y006703D01*
X023083Y006545D02*
X022240Y006545D01*
X022240Y006703D02*
X022080Y006703D01*
X022080Y006634D02*
X022080Y007281D01*
X022017Y007272D01*
X021925Y007248D01*
X021836Y007211D01*
X021753Y007163D01*
X021677Y007105D01*
X021610Y007037D01*
X021551Y006961D01*
X021503Y006878D01*
X021467Y006789D01*
X021442Y006697D01*
X021434Y006634D01*
X022080Y006634D01*
X022080Y006545D02*
X021238Y006545D01*
X021236Y006703D02*
X021444Y006703D01*
X021497Y006862D02*
X021170Y006862D01*
X021074Y007020D02*
X021597Y007020D01*
X021780Y007179D02*
X020909Y007179D01*
X019777Y006703D02*
X019570Y006703D01*
X019619Y006862D02*
X019517Y006862D01*
X019461Y007020D02*
X019417Y007020D01*
X019302Y007179D02*
X019233Y007179D01*
X018473Y007179D02*
X017602Y007179D01*
X017767Y007020D02*
X018290Y007020D01*
X018190Y006862D02*
X017863Y006862D01*
X017929Y006703D02*
X018137Y006703D01*
X017931Y006545D02*
X018773Y006545D01*
X018773Y006386D02*
X018933Y006386D01*
X018933Y006228D02*
X018773Y006228D01*
X018773Y006069D02*
X018933Y006069D01*
X018933Y005911D02*
X018773Y005911D01*
X018506Y005911D02*
X017556Y005911D01*
X017748Y006069D02*
X018305Y006069D01*
X018198Y006228D02*
X017856Y006228D01*
X017921Y006386D02*
X018142Y006386D01*
X018933Y006545D02*
X019776Y006545D01*
X019785Y006386D02*
X019565Y006386D01*
X019509Y006228D02*
X019851Y006228D01*
X019958Y006069D02*
X019402Y006069D01*
X019200Y005911D02*
X020097Y005911D01*
X020105Y005752D02*
X012041Y005752D01*
X012200Y005594D02*
X020187Y005594D01*
X020345Y005435D02*
X012358Y005435D01*
X012517Y005277D02*
X020504Y005277D01*
X020662Y005118D02*
X012675Y005118D01*
X012834Y004960D02*
X020821Y004960D01*
X021024Y004801D02*
X012992Y004801D01*
X013151Y004643D02*
X025209Y004643D01*
X025368Y004801D02*
X022836Y004801D01*
X023039Y004960D02*
X025526Y004960D01*
X025685Y005118D02*
X023198Y005118D01*
X023356Y005277D02*
X025843Y005277D01*
X026002Y005435D02*
X023515Y005435D01*
X023673Y005594D02*
X026160Y005594D01*
X026319Y005752D02*
X023832Y005752D01*
X024170Y005911D02*
X025120Y005911D01*
X024919Y006069D02*
X024362Y006069D01*
X024470Y006228D02*
X024812Y006228D01*
X024756Y006386D02*
X024535Y006386D01*
X025387Y006386D02*
X025547Y006386D01*
X025547Y006228D02*
X025387Y006228D01*
X025387Y006069D02*
X025547Y006069D01*
X025547Y005911D02*
X025387Y005911D01*
X025815Y005911D02*
X026477Y005911D01*
X026520Y006069D02*
X026016Y006069D01*
X026123Y006228D02*
X026465Y006228D01*
X026399Y006386D02*
X026179Y006386D01*
X025547Y006862D02*
X025387Y006862D01*
X025387Y007020D02*
X025547Y007020D01*
X025547Y007179D02*
X025387Y007179D01*
X025387Y007993D02*
X025387Y008639D01*
X024741Y008639D01*
X024749Y008576D01*
X024774Y008484D01*
X024811Y008395D01*
X024858Y008312D01*
X024917Y008236D01*
X024984Y008169D01*
X025060Y008110D01*
X025143Y008062D01*
X025232Y008026D01*
X025325Y008001D01*
X025387Y007993D01*
X025387Y008130D02*
X025547Y008130D01*
X025547Y008288D02*
X025387Y008288D01*
X025387Y008447D02*
X025547Y008447D01*
X025547Y008605D02*
X025387Y008605D01*
X025387Y008764D02*
X023894Y008764D01*
X023894Y008922D02*
X023734Y008922D01*
X023734Y008764D02*
X022240Y008764D01*
X022240Y008922D02*
X022080Y008922D01*
X022080Y008764D02*
X020587Y008764D01*
X020587Y008922D02*
X020427Y008922D01*
X020427Y009081D02*
X020587Y009081D01*
X020587Y009239D02*
X020427Y009239D01*
X021021Y009239D02*
X021646Y009239D01*
X021525Y009081D02*
X021142Y009081D01*
X021209Y008922D02*
X021458Y008922D01*
X021434Y008639D02*
X021442Y008576D01*
X021467Y008484D01*
X021503Y008395D01*
X021551Y008312D01*
X021610Y008236D01*
X021677Y008169D01*
X021753Y008110D01*
X021836Y008062D01*
X021925Y008026D01*
X022017Y008001D01*
X022080Y007993D01*
X022080Y008639D01*
X021434Y008639D01*
X021438Y008605D02*
X021229Y008605D01*
X021185Y008447D02*
X021482Y008447D01*
X021570Y008288D02*
X021097Y008288D01*
X020939Y008130D02*
X021728Y008130D01*
X022080Y008130D02*
X022240Y008130D01*
X022240Y008288D02*
X022080Y008288D01*
X022080Y008447D02*
X022240Y008447D01*
X022240Y008605D02*
X022080Y008605D01*
X022080Y009081D02*
X022240Y009081D01*
X022240Y009239D02*
X022080Y009239D01*
X022674Y009239D02*
X023300Y009239D01*
X023178Y009081D02*
X022796Y009081D01*
X022863Y008922D02*
X023112Y008922D01*
X023087Y008639D02*
X023095Y008576D01*
X023120Y008484D01*
X023157Y008395D01*
X023205Y008312D01*
X023263Y008236D01*
X023331Y008169D01*
X023407Y008110D01*
X023490Y008062D01*
X023578Y008026D01*
X023671Y008001D01*
X023734Y007993D01*
X023734Y008639D01*
X023087Y008639D01*
X023092Y008605D02*
X022882Y008605D01*
X022838Y008447D02*
X023136Y008447D01*
X023224Y008288D02*
X022751Y008288D01*
X022592Y008130D02*
X023382Y008130D01*
X023734Y008130D02*
X023894Y008130D01*
X023894Y008288D02*
X023734Y008288D01*
X023734Y008447D02*
X023894Y008447D01*
X023894Y008605D02*
X023734Y008605D01*
X023734Y009081D02*
X023894Y009081D01*
X023894Y009239D02*
X023734Y009239D01*
X024328Y009239D02*
X024953Y009239D01*
X024832Y009081D02*
X024449Y009081D01*
X024516Y008922D02*
X024765Y008922D01*
X024745Y008605D02*
X024536Y008605D01*
X024492Y008447D02*
X024789Y008447D01*
X024877Y008288D02*
X024404Y008288D01*
X024246Y008130D02*
X025036Y008130D01*
X025547Y008764D02*
X026390Y008764D01*
X026390Y008605D02*
X026190Y008605D01*
X026145Y008447D02*
X026443Y008447D01*
X026519Y008288D02*
X026058Y008288D01*
X025899Y008130D02*
X026677Y008130D01*
X027565Y008130D02*
X028331Y008130D01*
X028172Y008288D02*
X027723Y008288D01*
X027799Y008447D02*
X028096Y008447D01*
X028044Y008605D02*
X027852Y008605D01*
X027852Y008764D02*
X028044Y008764D01*
X028067Y008922D02*
X027828Y008922D01*
X027762Y009081D02*
X028133Y009081D01*
X028261Y009239D02*
X027635Y009239D01*
X026607Y009239D02*
X025981Y009239D01*
X026103Y009081D02*
X026479Y009081D01*
X026414Y008922D02*
X026170Y008922D01*
X025547Y008922D02*
X025387Y008922D01*
X025387Y009081D02*
X025547Y009081D01*
X025547Y009239D02*
X025387Y009239D01*
X024970Y010983D02*
X024890Y010983D01*
X023470Y010983D02*
X023390Y010983D01*
X021970Y010983D02*
X021890Y010983D01*
X020470Y010983D02*
X020390Y010983D01*
X018929Y011934D02*
X015841Y011934D01*
X015931Y012092D02*
X018929Y012092D01*
X017580Y012726D02*
X029983Y012726D01*
X029989Y012720D02*
X030371Y012720D01*
X030640Y012989D01*
X030640Y013371D01*
X030371Y013640D01*
X029989Y013640D01*
X029720Y013371D01*
X029720Y012989D01*
X029989Y012720D01*
X029825Y012885D02*
X017541Y012885D01*
X020358Y012409D02*
X020502Y012409D01*
X021858Y012409D02*
X022002Y012409D01*
X023358Y012409D02*
X023502Y012409D01*
X024858Y012409D02*
X025002Y012409D01*
X026431Y013043D02*
X029720Y013043D01*
X029720Y013202D02*
X026431Y013202D01*
X026431Y013360D02*
X029720Y013360D01*
X029868Y013519D02*
X026431Y013519D01*
X026431Y013677D02*
X033270Y013677D01*
X033270Y013519D02*
X030492Y013519D01*
X030640Y013360D02*
X033270Y013360D01*
X033270Y013202D02*
X030640Y013202D01*
X030640Y013043D02*
X031521Y013043D01*
X031346Y012885D02*
X030535Y012885D01*
X030377Y012726D02*
X031291Y012726D01*
X033270Y013836D02*
X026431Y013836D01*
X026431Y013994D02*
X033270Y013994D01*
X033270Y014153D02*
X026431Y014153D01*
X026431Y014311D02*
X033270Y014311D01*
X033270Y014787D02*
X016992Y014787D01*
X017244Y014945D02*
X033270Y014945D01*
X033270Y015104D02*
X017313Y015104D01*
X017312Y015262D02*
X033270Y015262D01*
X033270Y015421D02*
X017240Y015421D01*
X016964Y015579D02*
X033270Y015579D01*
X033270Y015738D02*
X000460Y015738D01*
X000460Y015896D02*
X033270Y015896D01*
X033270Y016055D02*
X000460Y016055D01*
X000460Y016213D02*
X033270Y016213D01*
X033270Y016372D02*
X000460Y016372D01*
X000460Y016530D02*
X033270Y016530D01*
X033270Y016689D02*
X000460Y016689D01*
X000460Y016847D02*
X033270Y016847D01*
X033270Y017006D02*
X000460Y017006D01*
X000460Y017164D02*
X002890Y017164D01*
X002841Y017213D02*
X002953Y017101D01*
X003100Y017040D01*
X003260Y017040D01*
X003407Y017101D01*
X003519Y017213D01*
X003580Y017360D01*
X003580Y018000D01*
X003519Y018147D01*
X003407Y018259D01*
X003260Y018320D01*
X003100Y018320D01*
X002953Y018259D01*
X002841Y018147D01*
X002780Y018000D01*
X002780Y017360D01*
X002841Y017213D01*
X002796Y017323D02*
X001388Y017323D01*
X001346Y017280D02*
X001580Y017514D01*
X001580Y017846D01*
X001346Y018080D01*
X001014Y018080D01*
X000780Y017846D01*
X000780Y017514D01*
X001014Y017280D01*
X001346Y017280D01*
X001547Y017481D02*
X002780Y017481D01*
X002780Y017640D02*
X001580Y017640D01*
X001580Y017798D02*
X002780Y017798D01*
X002780Y017957D02*
X001469Y017957D01*
X000891Y017957D02*
X000460Y017957D01*
X000460Y018115D02*
X002828Y018115D01*
X002988Y018274D02*
X000460Y018274D01*
X000460Y018432D02*
X001211Y018432D01*
X001187Y018442D02*
X001507Y018309D01*
X001853Y018309D01*
X002173Y018442D01*
X002418Y018687D01*
X002551Y019007D01*
X002551Y019353D01*
X002418Y019673D01*
X002173Y019918D01*
X001853Y020051D01*
X001507Y020051D01*
X001187Y019918D01*
X000942Y019673D01*
X000809Y019353D01*
X000809Y019007D01*
X000942Y018687D01*
X001187Y018442D01*
X001038Y018591D02*
X000460Y018591D01*
X000460Y018749D02*
X000916Y018749D01*
X000851Y018908D02*
X000460Y018908D01*
X000460Y019066D02*
X000809Y019066D01*
X000809Y019225D02*
X000460Y019225D01*
X000460Y019383D02*
X000822Y019383D01*
X000887Y019542D02*
X000460Y019542D01*
X000460Y019700D02*
X000969Y019700D01*
X001127Y019859D02*
X000460Y019859D01*
X000460Y020017D02*
X001426Y020017D01*
X001934Y020017D02*
X031926Y020017D01*
X032007Y020051D02*
X031687Y019918D01*
X031442Y019673D01*
X031309Y019353D01*
X031309Y019007D01*
X031442Y018687D01*
X031687Y018442D01*
X032007Y018309D01*
X032353Y018309D01*
X032673Y018442D01*
X032918Y018687D01*
X033051Y019007D01*
X033051Y019353D01*
X032918Y019673D01*
X032673Y019918D01*
X032353Y020051D01*
X032007Y020051D01*
X031627Y019859D02*
X002233Y019859D01*
X002391Y019700D02*
X031469Y019700D01*
X031387Y019542D02*
X030469Y019542D01*
X030371Y019640D02*
X030200Y019640D01*
X030200Y019200D01*
X030160Y019200D01*
X030160Y019640D01*
X029989Y019640D01*
X029720Y019371D01*
X029720Y019200D01*
X030160Y019200D01*
X030160Y019160D01*
X029720Y019160D01*
X029720Y018989D01*
X029989Y018720D01*
X030160Y018720D01*
X030160Y019160D01*
X030200Y019160D01*
X030200Y019200D01*
X030640Y019200D01*
X030640Y019371D01*
X030371Y019640D01*
X030200Y019542D02*
X030160Y019542D01*
X030160Y019383D02*
X030200Y019383D01*
X030200Y019225D02*
X030160Y019225D01*
X030200Y019160D02*
X030640Y019160D01*
X030640Y018989D01*
X030371Y018720D01*
X030200Y018720D01*
X030200Y019160D01*
X030200Y019066D02*
X030160Y019066D01*
X030160Y018908D02*
X030200Y018908D01*
X030200Y018749D02*
X030160Y018749D01*
X029960Y018749D02*
X002444Y018749D01*
X002509Y018908D02*
X029802Y018908D01*
X029720Y019066D02*
X002551Y019066D01*
X002551Y019225D02*
X029720Y019225D01*
X029732Y019383D02*
X002538Y019383D01*
X002473Y019542D02*
X029891Y019542D01*
X030628Y019383D02*
X031322Y019383D01*
X031309Y019225D02*
X030640Y019225D01*
X030640Y019066D02*
X031309Y019066D01*
X031351Y018908D02*
X030558Y018908D01*
X030400Y018749D02*
X031416Y018749D01*
X031538Y018591D02*
X002322Y018591D01*
X002149Y018432D02*
X031711Y018432D01*
X032649Y018432D02*
X033270Y018432D01*
X033270Y018274D02*
X016736Y018274D01*
X016713Y018283D02*
X016473Y018283D01*
X016252Y018191D01*
X016082Y018022D01*
X015990Y017800D01*
X015990Y017560D01*
X016082Y017338D01*
X016252Y017169D01*
X016473Y017077D01*
X016713Y017077D01*
X016935Y017169D01*
X017105Y017338D01*
X017196Y017560D01*
X017196Y017800D01*
X017105Y018022D01*
X016935Y018191D01*
X016713Y018283D01*
X016451Y018274D02*
X015177Y018274D01*
X015154Y018283D02*
X014914Y018283D01*
X014693Y018191D01*
X014523Y018022D01*
X014431Y017800D01*
X014431Y017560D01*
X014523Y017338D01*
X014693Y017169D01*
X014914Y017077D01*
X015154Y017077D01*
X015376Y017169D01*
X015545Y017338D01*
X015637Y017560D01*
X015637Y017800D01*
X015545Y018022D01*
X015376Y018191D01*
X015154Y018283D01*
X014892Y018274D02*
X013618Y018274D01*
X013595Y018283D02*
X013355Y018283D01*
X013134Y018191D01*
X012964Y018022D01*
X012872Y017800D01*
X012872Y017560D01*
X012964Y017338D01*
X013134Y017169D01*
X013355Y017077D01*
X013595Y017077D01*
X013817Y017169D01*
X013986Y017338D01*
X014078Y017560D01*
X014078Y017800D01*
X013986Y018022D01*
X013817Y018191D01*
X013595Y018283D01*
X013333Y018274D02*
X012059Y018274D01*
X012036Y018283D02*
X011796Y018283D01*
X011575Y018191D01*
X011405Y018022D01*
X011313Y017800D01*
X011313Y017560D01*
X011405Y017338D01*
X011575Y017169D01*
X011796Y017077D01*
X012036Y017077D01*
X012258Y017169D01*
X012427Y017338D01*
X012519Y017560D01*
X012519Y017800D01*
X012427Y018022D01*
X012258Y018191D01*
X012036Y018283D01*
X011774Y018274D02*
X010464Y018274D01*
X010498Y018268D02*
X010425Y018280D01*
X010425Y017748D01*
X010290Y017748D01*
X010290Y018280D01*
X010216Y018268D01*
X010126Y018239D01*
X010041Y018196D01*
X009964Y018140D01*
X009897Y018073D01*
X009842Y017996D01*
X009798Y017911D01*
X009769Y017821D01*
X009757Y017748D01*
X010290Y017748D01*
X010290Y017612D01*
X010425Y017612D01*
X010425Y017080D01*
X010498Y017092D01*
X010589Y017121D01*
X010673Y017164D01*
X010750Y017220D01*
X010817Y017287D01*
X010873Y017364D01*
X010916Y017449D01*
X010945Y017539D01*
X010957Y017612D01*
X010425Y017612D01*
X010425Y017748D01*
X010957Y017748D01*
X010945Y017821D01*
X010916Y017911D01*
X010873Y017996D01*
X010817Y018073D01*
X010750Y018140D01*
X010673Y018196D01*
X010589Y018239D01*
X010498Y018268D01*
X010425Y018274D02*
X010290Y018274D01*
X010250Y018274D02*
X008905Y018274D01*
X008939Y018268D02*
X008866Y018280D01*
X008866Y017748D01*
X008730Y017748D01*
X008730Y017612D01*
X008198Y017612D01*
X008210Y017539D01*
X008239Y017449D01*
X008282Y017364D01*
X008338Y017287D01*
X008405Y017220D01*
X008482Y017164D01*
X008567Y017121D01*
X008657Y017092D01*
X008730Y017080D01*
X008730Y017612D01*
X008866Y017612D01*
X008866Y017080D01*
X008939Y017092D01*
X009030Y017121D01*
X009114Y017164D01*
X009191Y017220D01*
X009258Y017287D01*
X009314Y017364D01*
X009357Y017449D01*
X009386Y017539D01*
X009398Y017612D01*
X008866Y017612D01*
X008866Y017748D01*
X009398Y017748D01*
X009386Y017821D01*
X009357Y017911D01*
X009314Y017996D01*
X009258Y018073D01*
X009191Y018140D01*
X009114Y018196D01*
X009030Y018239D01*
X008939Y018268D01*
X008866Y018274D02*
X008730Y018274D01*
X008730Y018280D02*
X008657Y018268D01*
X008567Y018239D01*
X008482Y018196D01*
X008405Y018140D01*
X008338Y018073D01*
X008282Y017996D01*
X008239Y017911D01*
X008210Y017821D01*
X008198Y017748D01*
X008730Y017748D01*
X008730Y018280D01*
X008691Y018274D02*
X007346Y018274D01*
X007380Y018268D02*
X007307Y018280D01*
X007307Y017748D01*
X007171Y017748D01*
X007171Y017612D01*
X007307Y017612D01*
X007307Y017748D01*
X007839Y017748D01*
X007827Y017821D01*
X007798Y017911D01*
X007755Y017996D01*
X007699Y018073D01*
X007632Y018140D01*
X007555Y018196D01*
X007470Y018239D01*
X007380Y018268D01*
X007307Y018274D02*
X007171Y018274D01*
X007171Y018280D02*
X007098Y018268D01*
X007008Y018239D01*
X006923Y018196D01*
X006846Y018140D01*
X006779Y018073D01*
X006723Y017996D01*
X006680Y017911D01*
X006651Y017821D01*
X006639Y017748D01*
X007171Y017748D01*
X007171Y018280D01*
X007132Y018274D02*
X006179Y018274D01*
X006185Y018272D02*
X006144Y018283D01*
X005748Y018283D01*
X005748Y017748D01*
X006283Y017748D01*
X006283Y018144D01*
X006272Y018185D01*
X006251Y018221D01*
X006221Y018251D01*
X006185Y018272D01*
X006283Y018115D02*
X006821Y018115D01*
X006703Y017957D02*
X006283Y017957D01*
X006283Y017798D02*
X006647Y017798D01*
X006639Y017612D02*
X006651Y017539D01*
X006680Y017449D01*
X006723Y017364D01*
X006779Y017287D01*
X006846Y017220D01*
X006923Y017164D01*
X007008Y017121D01*
X007098Y017092D01*
X007171Y017080D01*
X007171Y017612D01*
X006639Y017612D01*
X006670Y017481D02*
X006283Y017481D01*
X006283Y017612D02*
X005748Y017612D01*
X005748Y017748D01*
X005612Y017748D01*
X005612Y017612D01*
X005748Y017612D01*
X005748Y017077D01*
X006144Y017077D01*
X006185Y017088D01*
X006221Y017109D01*
X006251Y017139D01*
X006272Y017175D01*
X006283Y017216D01*
X006283Y017612D01*
X005748Y017640D02*
X007171Y017640D01*
X007307Y017640D02*
X008730Y017640D01*
X008866Y017640D02*
X010290Y017640D01*
X010290Y017612D02*
X009757Y017612D01*
X009769Y017539D01*
X009798Y017449D01*
X009842Y017364D01*
X009897Y017287D01*
X009964Y017220D01*
X010041Y017164D01*
X010126Y017121D01*
X010216Y017092D01*
X010290Y017080D01*
X010290Y017612D01*
X010290Y017481D02*
X010425Y017481D01*
X010425Y017323D02*
X010290Y017323D01*
X010290Y017164D02*
X010425Y017164D01*
X010673Y017164D02*
X011586Y017164D01*
X011421Y017323D02*
X010843Y017323D01*
X010926Y017481D02*
X011346Y017481D01*
X011313Y017640D02*
X010425Y017640D01*
X010425Y017798D02*
X010290Y017798D01*
X010290Y017957D02*
X010425Y017957D01*
X010425Y018115D02*
X010290Y018115D01*
X009940Y018115D02*
X009216Y018115D01*
X009334Y017957D02*
X009821Y017957D01*
X009765Y017798D02*
X009390Y017798D01*
X009367Y017481D02*
X009788Y017481D01*
X009872Y017323D02*
X009284Y017323D01*
X009113Y017164D02*
X010042Y017164D01*
X010949Y017798D02*
X011313Y017798D01*
X011378Y017957D02*
X010893Y017957D01*
X010775Y018115D02*
X011499Y018115D01*
X012334Y018115D02*
X013058Y018115D01*
X012937Y017957D02*
X012454Y017957D01*
X012519Y017798D02*
X012872Y017798D01*
X012872Y017640D02*
X012519Y017640D01*
X012486Y017481D02*
X012905Y017481D01*
X012980Y017323D02*
X012411Y017323D01*
X012246Y017164D02*
X013145Y017164D01*
X013805Y017164D02*
X014705Y017164D01*
X014539Y017323D02*
X013970Y017323D01*
X014045Y017481D02*
X014464Y017481D01*
X014431Y017640D02*
X014078Y017640D01*
X014078Y017798D02*
X014431Y017798D01*
X014496Y017957D02*
X014013Y017957D01*
X013893Y018115D02*
X014617Y018115D01*
X015452Y018115D02*
X016176Y018115D01*
X016055Y017957D02*
X015572Y017957D01*
X015637Y017798D02*
X015990Y017798D01*
X015990Y017640D02*
X015637Y017640D01*
X015605Y017481D02*
X016023Y017481D01*
X016098Y017323D02*
X015530Y017323D01*
X015364Y017164D02*
X016264Y017164D01*
X016923Y017164D02*
X033270Y017164D01*
X033270Y017323D02*
X017089Y017323D01*
X017164Y017481D02*
X033270Y017481D01*
X033270Y017640D02*
X017196Y017640D01*
X017196Y017798D02*
X033270Y017798D01*
X033270Y017957D02*
X017131Y017957D01*
X017011Y018115D02*
X033270Y018115D01*
X033270Y018591D02*
X032822Y018591D01*
X032944Y018749D02*
X033270Y018749D01*
X033270Y018908D02*
X033009Y018908D01*
X033051Y019066D02*
X033270Y019066D01*
X033270Y019225D02*
X033051Y019225D01*
X033038Y019383D02*
X033270Y019383D01*
X033270Y019542D02*
X032973Y019542D01*
X032891Y019700D02*
X033270Y019700D01*
X033270Y019859D02*
X032733Y019859D01*
X032434Y020017D02*
X033270Y020017D01*
X033270Y020085D02*
X033270Y000960D01*
X032691Y000960D01*
X032918Y001187D01*
X033051Y001507D01*
X033051Y001853D01*
X032918Y002173D01*
X032673Y002418D01*
X032353Y002551D01*
X032007Y002551D01*
X031687Y002418D01*
X031442Y002173D01*
X031309Y001853D01*
X031309Y001507D01*
X031442Y001187D01*
X031669Y000960D01*
X002191Y000960D01*
X002418Y001187D01*
X002551Y001507D01*
X002551Y001853D01*
X002418Y002173D01*
X002173Y002418D01*
X001853Y002551D01*
X001507Y002551D01*
X001187Y002418D01*
X000942Y002173D01*
X000809Y001853D01*
X000809Y001507D01*
X000942Y001187D01*
X001169Y000960D01*
X000460Y000960D01*
X000460Y020085D01*
X033270Y020085D01*
X016966Y010032D02*
X015931Y010032D01*
X016807Y009873D02*
X000460Y009873D01*
X000460Y009715D02*
X016780Y009715D01*
X016780Y009556D02*
X000460Y009556D01*
X000460Y009398D02*
X010313Y009398D01*
X010350Y009413D02*
X010262Y009376D01*
X010179Y009328D01*
X010103Y009270D01*
X010035Y009202D01*
X009977Y009126D01*
X009929Y009043D01*
X009892Y008955D01*
X009867Y008862D01*
X009859Y008799D01*
X010506Y008799D01*
X010506Y009446D01*
X010443Y009438D01*
X010350Y009413D01*
X010506Y009398D02*
X010666Y009398D01*
X010666Y009446D02*
X010728Y009438D01*
X010821Y009413D01*
X010909Y009376D01*
X010992Y009328D01*
X011068Y009270D01*
X011136Y009202D01*
X011195Y009126D01*
X011242Y009043D01*
X011279Y008955D01*
X011304Y008862D01*
X011312Y008799D01*
X010666Y008799D01*
X010666Y008639D01*
X011312Y008639D01*
X011304Y008576D01*
X011279Y008484D01*
X011242Y008395D01*
X011195Y008312D01*
X011136Y008236D01*
X011068Y008169D01*
X010992Y008110D01*
X010909Y008062D01*
X010821Y008026D01*
X010728Y008001D01*
X010666Y007993D01*
X010666Y008639D01*
X010506Y008639D01*
X010506Y007993D01*
X010443Y008001D01*
X010350Y008026D01*
X010262Y008062D01*
X010179Y008110D01*
X010103Y008169D01*
X010035Y008236D01*
X009977Y008312D01*
X009929Y008395D01*
X009892Y008484D01*
X009867Y008576D01*
X009859Y008639D01*
X010506Y008639D01*
X010506Y008799D01*
X010666Y008799D01*
X010666Y009446D01*
X010858Y009398D02*
X011966Y009398D01*
X012094Y009450D02*
X011825Y009339D01*
X011619Y009133D01*
X011508Y008865D01*
X011508Y008574D01*
X011619Y008305D01*
X011825Y008100D01*
X012094Y007989D01*
X012384Y007989D01*
X012653Y008100D01*
X012859Y008305D01*
X012970Y008574D01*
X012970Y008865D01*
X012859Y009133D01*
X012653Y009339D01*
X012384Y009450D01*
X012094Y009450D01*
X011725Y009239D02*
X011099Y009239D01*
X011221Y009081D02*
X011598Y009081D01*
X011532Y008922D02*
X011288Y008922D01*
X011508Y008764D02*
X010666Y008764D01*
X010666Y008922D02*
X010506Y008922D01*
X010506Y008764D02*
X000460Y008764D01*
X000460Y008922D02*
X009883Y008922D01*
X009950Y009081D02*
X000460Y009081D01*
X000460Y009239D02*
X010072Y009239D01*
X010506Y009239D02*
X010666Y009239D01*
X010666Y009081D02*
X010506Y009081D01*
X010506Y008605D02*
X010666Y008605D01*
X010666Y008447D02*
X010506Y008447D01*
X010506Y008288D02*
X010666Y008288D01*
X010666Y008130D02*
X010506Y008130D01*
X010154Y008130D02*
X008431Y008130D01*
X008431Y008288D02*
X009995Y008288D01*
X009907Y008447D02*
X000460Y008447D01*
X000460Y008605D02*
X009863Y008605D01*
X011017Y008130D02*
X011795Y008130D01*
X011637Y008288D02*
X011176Y008288D01*
X011264Y008447D02*
X011561Y008447D01*
X011508Y008605D02*
X011308Y008605D01*
X012512Y009398D02*
X013620Y009398D01*
X013747Y009450D02*
X013479Y009339D01*
X013273Y009133D01*
X013162Y008865D01*
X013162Y008574D01*
X013273Y008305D01*
X013479Y008100D01*
X013747Y007989D01*
X014038Y007989D01*
X014307Y008100D01*
X014512Y008305D01*
X014623Y008574D01*
X014623Y008865D01*
X014512Y009133D01*
X014307Y009339D01*
X014038Y009450D01*
X013747Y009450D01*
X014165Y009398D02*
X015273Y009398D01*
X015032Y009239D02*
X014407Y009239D01*
X014534Y009081D02*
X014905Y009081D01*
X014839Y008922D02*
X014600Y008922D01*
X014623Y008764D02*
X014815Y008764D01*
X014815Y008605D02*
X014623Y008605D01*
X014571Y008447D02*
X014868Y008447D01*
X014944Y008288D02*
X014495Y008288D01*
X014336Y008130D02*
X015102Y008130D01*
X015309Y007971D02*
X008431Y007971D01*
X008431Y007813D02*
X015468Y007813D01*
X015626Y007654D02*
X008431Y007654D01*
X008431Y007496D02*
X015785Y007496D01*
X015943Y007337D02*
X008431Y007337D01*
X008431Y007179D02*
X010183Y007179D01*
X010018Y007020D02*
X008427Y007020D01*
X008431Y007023D02*
X008431Y008337D01*
X008337Y008431D01*
X007023Y008431D01*
X006930Y008337D01*
X006837Y008431D01*
X005523Y008431D01*
X005430Y008337D01*
X005337Y008431D01*
X004023Y008431D01*
X003930Y008337D01*
X003837Y008431D01*
X002523Y008431D01*
X002430Y008337D01*
X002337Y008431D01*
X001023Y008431D01*
X000929Y008337D01*
X000929Y007023D01*
X001023Y006929D01*
X002337Y006929D01*
X002430Y007023D01*
X002523Y006929D01*
X003837Y006929D01*
X003930Y007023D01*
X004023Y006929D01*
X005337Y006929D01*
X005430Y007023D01*
X005523Y006929D01*
X006837Y006929D01*
X006930Y007023D01*
X007023Y006929D01*
X008337Y006929D01*
X008431Y007023D01*
X008337Y006431D02*
X007023Y006431D01*
X006930Y006337D01*
X006837Y006431D01*
X005523Y006431D01*
X005430Y006337D01*
X005337Y006431D01*
X004023Y006431D01*
X003930Y006337D01*
X003837Y006431D01*
X002523Y006431D01*
X002430Y006337D01*
X002337Y006431D01*
X001023Y006431D01*
X000929Y006337D01*
X000929Y005023D01*
X001023Y004929D01*
X002337Y004929D01*
X002430Y005023D01*
X002523Y004929D01*
X003837Y004929D01*
X003930Y005023D01*
X004023Y004929D01*
X005337Y004929D01*
X005430Y005023D01*
X005523Y004929D01*
X006837Y004929D01*
X006930Y005023D01*
X007023Y004929D01*
X008337Y004929D01*
X008431Y005023D01*
X008431Y006337D01*
X008337Y006431D01*
X008381Y006386D02*
X009864Y006386D01*
X009855Y006545D02*
X000460Y006545D01*
X000460Y006703D02*
X009856Y006703D01*
X009922Y006862D02*
X000460Y006862D01*
X000460Y007020D02*
X000933Y007020D01*
X000929Y007179D02*
X000460Y007179D01*
X000460Y007337D02*
X000929Y007337D01*
X000929Y007496D02*
X000460Y007496D01*
X000460Y007654D02*
X000929Y007654D01*
X000929Y007813D02*
X000460Y007813D01*
X000460Y007971D02*
X000929Y007971D01*
X000929Y008130D02*
X000460Y008130D01*
X000460Y008288D02*
X000929Y008288D01*
X002427Y007020D02*
X002433Y007020D01*
X002479Y006386D02*
X002381Y006386D01*
X000979Y006386D02*
X000460Y006386D01*
X000460Y006228D02*
X000929Y006228D01*
X000929Y006069D02*
X000460Y006069D01*
X000460Y005911D02*
X000929Y005911D01*
X000929Y005752D02*
X000460Y005752D01*
X000460Y005594D02*
X000929Y005594D01*
X000929Y005435D02*
X000460Y005435D01*
X000460Y005277D02*
X000929Y005277D01*
X000929Y005118D02*
X000460Y005118D01*
X000460Y004960D02*
X000993Y004960D01*
X000460Y004801D02*
X011126Y004801D01*
X011284Y004643D02*
X000460Y004643D01*
X000460Y004484D02*
X011443Y004484D01*
X011601Y004326D02*
X000460Y004326D01*
X000460Y004167D02*
X011760Y004167D01*
X011918Y004009D02*
X000460Y004009D01*
X000460Y003850D02*
X012077Y003850D01*
X012235Y003692D02*
X000460Y003692D01*
X000460Y003533D02*
X012394Y003533D01*
X012552Y003375D02*
X000460Y003375D01*
X000460Y003216D02*
X012711Y003216D01*
X012958Y003058D02*
X000460Y003058D01*
X000460Y002899D02*
X030810Y002899D01*
X030720Y002989D02*
X030989Y002720D01*
X031371Y002720D01*
X031640Y002989D01*
X031640Y003371D01*
X031371Y003640D01*
X030989Y003640D01*
X030720Y003371D01*
X030720Y002989D01*
X030720Y003058D02*
X025402Y003058D01*
X025649Y003216D02*
X030720Y003216D01*
X030724Y003375D02*
X025808Y003375D01*
X025966Y003533D02*
X030882Y003533D01*
X031478Y003533D02*
X033270Y003533D01*
X033270Y003375D02*
X031636Y003375D01*
X031640Y003216D02*
X033270Y003216D01*
X033270Y003058D02*
X031640Y003058D01*
X031550Y002899D02*
X033270Y002899D01*
X033270Y002741D02*
X031391Y002741D01*
X030969Y002741D02*
X000460Y002741D01*
X000460Y002582D02*
X033270Y002582D01*
X033270Y002424D02*
X032660Y002424D01*
X032826Y002265D02*
X033270Y002265D01*
X033270Y002107D02*
X032946Y002107D01*
X033011Y001948D02*
X033270Y001948D01*
X033270Y001790D02*
X033051Y001790D01*
X033051Y001631D02*
X033270Y001631D01*
X033270Y001473D02*
X033036Y001473D01*
X032971Y001314D02*
X033270Y001314D01*
X033270Y001156D02*
X032887Y001156D01*
X032728Y000997D02*
X033270Y000997D01*
X031632Y000997D02*
X002228Y000997D01*
X002387Y001156D02*
X031473Y001156D01*
X031389Y001314D02*
X002471Y001314D01*
X002536Y001473D02*
X031324Y001473D01*
X031309Y001631D02*
X002551Y001631D01*
X002551Y001790D02*
X031309Y001790D01*
X031349Y001948D02*
X002511Y001948D01*
X002446Y002107D02*
X031414Y002107D01*
X031534Y002265D02*
X002326Y002265D01*
X002160Y002424D02*
X031700Y002424D01*
X033270Y003692D02*
X026125Y003692D01*
X026283Y003850D02*
X033270Y003850D01*
X033270Y004009D02*
X026442Y004009D01*
X026600Y004167D02*
X033270Y004167D01*
X033270Y004326D02*
X026759Y004326D01*
X026917Y004484D02*
X033270Y004484D01*
X033270Y004643D02*
X027076Y004643D01*
X027234Y004801D02*
X033270Y004801D01*
X033270Y004960D02*
X027393Y004960D01*
X027551Y005118D02*
X033270Y005118D01*
X033270Y005277D02*
X027710Y005277D01*
X027793Y005435D02*
X033270Y005435D01*
X033270Y005594D02*
X027840Y005594D01*
X027840Y005752D02*
X033270Y005752D01*
X033270Y005911D02*
X029131Y005911D01*
X029323Y006069D02*
X033270Y006069D01*
X033270Y006228D02*
X029430Y006228D01*
X029496Y006386D02*
X033270Y006386D01*
X033270Y006545D02*
X029505Y006545D01*
X029504Y006703D02*
X033270Y006703D01*
X033270Y006862D02*
X029438Y006862D01*
X029342Y007020D02*
X033270Y007020D01*
X033270Y007179D02*
X029177Y007179D01*
X028787Y007337D02*
X033270Y007337D01*
X033270Y008130D02*
X029218Y008130D01*
X029377Y008288D02*
X033270Y008288D01*
X033270Y008447D02*
X029453Y008447D01*
X029505Y008605D02*
X033270Y008605D01*
X033270Y008764D02*
X031414Y008764D01*
X031573Y008922D02*
X033270Y008922D01*
X033270Y009081D02*
X031640Y009081D01*
X031640Y009239D02*
X033270Y009239D01*
X033270Y009398D02*
X031613Y009398D01*
X031455Y009556D02*
X033270Y009556D01*
X028418Y005911D02*
X027840Y005911D01*
X025051Y004484D02*
X013309Y004484D01*
X010967Y004960D02*
X008367Y004960D01*
X008431Y005118D02*
X010809Y005118D01*
X010650Y005277D02*
X008431Y005277D01*
X008431Y005435D02*
X010492Y005435D01*
X010333Y005594D02*
X008431Y005594D01*
X008431Y005752D02*
X010175Y005752D01*
X010022Y005911D02*
X008431Y005911D01*
X008431Y006069D02*
X009956Y006069D01*
X009926Y006228D02*
X008431Y006228D01*
X006979Y006386D02*
X006881Y006386D01*
X006927Y007020D02*
X006933Y007020D01*
X005433Y007020D02*
X005427Y007020D01*
X005381Y006386D02*
X005479Y006386D01*
X003979Y006386D02*
X003881Y006386D01*
X003927Y007020D02*
X003933Y007020D01*
X003993Y004960D02*
X003867Y004960D01*
X002493Y004960D02*
X002367Y004960D01*
X005367Y004960D02*
X005493Y004960D01*
X006867Y004960D02*
X006993Y004960D01*
X010988Y007179D02*
X011837Y007179D01*
X011671Y007020D02*
X011153Y007020D01*
X011249Y006862D02*
X011575Y006862D01*
X011510Y006703D02*
X011315Y006703D01*
X011316Y006545D02*
X011508Y006545D01*
X011518Y006386D02*
X011407Y006386D01*
X011566Y006228D02*
X011583Y006228D01*
X012595Y005911D02*
X013536Y005911D01*
X013479Y005934D02*
X013747Y005823D01*
X014038Y005823D01*
X014307Y005934D01*
X014512Y006140D01*
X014623Y006409D01*
X014623Y006699D01*
X014512Y006968D01*
X014307Y007174D01*
X014038Y007285D01*
X013747Y007285D01*
X013479Y007174D01*
X013273Y006968D01*
X013162Y006699D01*
X013162Y006409D01*
X013273Y006140D01*
X013479Y005934D01*
X013344Y006069D02*
X012788Y006069D01*
X012895Y006228D02*
X013237Y006228D01*
X013171Y006386D02*
X012961Y006386D01*
X012970Y006545D02*
X013162Y006545D01*
X013163Y006703D02*
X012968Y006703D01*
X012903Y006862D02*
X013229Y006862D01*
X013325Y007020D02*
X012807Y007020D01*
X012641Y007179D02*
X013490Y007179D01*
X014295Y007179D02*
X015144Y007179D01*
X015132Y007174D02*
X014927Y006968D01*
X014815Y006699D01*
X014815Y006409D01*
X014927Y006140D01*
X015132Y005934D01*
X015401Y005823D01*
X015692Y005823D01*
X015960Y005934D01*
X016166Y006140D01*
X016277Y006409D01*
X016277Y006699D01*
X016166Y006968D01*
X015960Y007174D01*
X015692Y007285D01*
X015401Y007285D01*
X015132Y007174D01*
X014979Y007020D02*
X014460Y007020D01*
X014556Y006862D02*
X014882Y006862D01*
X014817Y006703D02*
X014622Y006703D01*
X014623Y006545D02*
X014815Y006545D01*
X014825Y006386D02*
X014614Y006386D01*
X014548Y006228D02*
X014890Y006228D01*
X014998Y006069D02*
X014441Y006069D01*
X014249Y005911D02*
X015190Y005911D01*
X015902Y005911D02*
X016843Y005911D01*
X016651Y006069D02*
X016095Y006069D01*
X016202Y006228D02*
X016544Y006228D01*
X016478Y006386D02*
X016268Y006386D01*
X016277Y006545D02*
X016469Y006545D01*
X016470Y006703D02*
X016276Y006703D01*
X016210Y006862D02*
X016536Y006862D01*
X016632Y007020D02*
X016114Y007020D01*
X015948Y007179D02*
X016798Y007179D01*
X016756Y008130D02*
X016310Y008130D01*
X016152Y008288D02*
X016597Y008288D01*
X016522Y008447D02*
X016224Y008447D01*
X016277Y008605D02*
X016469Y008605D01*
X016469Y008764D02*
X016277Y008764D01*
X016253Y008922D02*
X016493Y008922D01*
X016558Y009081D02*
X016188Y009081D01*
X016060Y009239D02*
X016686Y009239D01*
X016897Y009398D02*
X015819Y009398D01*
X013379Y009239D02*
X012753Y009239D01*
X012881Y009081D02*
X013251Y009081D01*
X013185Y008922D02*
X012946Y008922D01*
X012970Y008764D02*
X013162Y008764D01*
X013162Y008605D02*
X012970Y008605D01*
X012917Y008447D02*
X013215Y008447D01*
X013290Y008288D02*
X012841Y008288D01*
X012683Y008130D02*
X013449Y008130D01*
X011429Y010032D02*
X000460Y010032D01*
X000460Y010190D02*
X011429Y010190D01*
X011429Y010349D02*
X000460Y010349D01*
X000460Y010507D02*
X011429Y010507D01*
X011429Y010666D02*
X000460Y010666D01*
X000460Y010824D02*
X011429Y010824D01*
X011429Y010983D02*
X010883Y010983D01*
X011042Y011141D02*
X011429Y011141D01*
X011429Y011300D02*
X011140Y011300D01*
X010477Y010983D02*
X001883Y010983D01*
X001871Y010970D02*
X002140Y011239D01*
X002140Y011410D01*
X001700Y011410D01*
X001700Y011450D01*
X002140Y011450D01*
X002140Y011621D01*
X001871Y011890D01*
X001700Y011890D01*
X001700Y011450D01*
X001660Y011450D01*
X001660Y011890D01*
X001489Y011890D01*
X001220Y011621D01*
X001220Y011450D01*
X001660Y011450D01*
X001660Y011410D01*
X001700Y011410D01*
X001700Y010970D01*
X001871Y010970D01*
X001700Y010983D02*
X001660Y010983D01*
X001660Y010970D02*
X001660Y011410D01*
X001220Y011410D01*
X001220Y011239D01*
X001489Y010970D01*
X001660Y010970D01*
X001660Y011141D02*
X001700Y011141D01*
X001700Y011300D02*
X001660Y011300D01*
X001660Y011458D02*
X001700Y011458D01*
X001700Y011617D02*
X001660Y011617D01*
X001660Y011775D02*
X001700Y011775D01*
X001986Y011775D02*
X010374Y011775D01*
X010220Y011617D02*
X002140Y011617D01*
X002140Y011458D02*
X010220Y011458D01*
X010220Y011300D02*
X002140Y011300D01*
X002042Y011141D02*
X010318Y011141D01*
X012841Y011934D02*
X013019Y011934D01*
X014341Y011934D02*
X014519Y011934D01*
X022080Y007179D02*
X022240Y007179D01*
X022240Y007020D02*
X022080Y007020D01*
X022080Y006862D02*
X022240Y006862D01*
X022240Y006386D02*
X022080Y006386D01*
X022080Y006228D02*
X022240Y006228D01*
X022240Y006069D02*
X022080Y006069D01*
X022080Y005911D02*
X022240Y005911D01*
X022507Y005911D02*
X022831Y005911D01*
X022709Y006069D02*
X022989Y006069D01*
X023148Y006228D02*
X022816Y006228D01*
X022872Y006386D02*
X023092Y006386D01*
X022672Y005752D02*
X021188Y005752D01*
X021346Y005594D02*
X022514Y005594D01*
X021813Y005911D02*
X021029Y005911D01*
X021055Y006069D02*
X021612Y006069D01*
X021505Y006228D02*
X021163Y006228D01*
X021228Y006386D02*
X021449Y006386D01*
X005923Y014787D02*
X001580Y014787D01*
X001481Y014945D02*
X005764Y014945D01*
X005720Y015104D02*
X000460Y015104D01*
X000460Y015262D02*
X005720Y015262D01*
X005770Y015421D02*
X000460Y015421D01*
X000460Y015579D02*
X005928Y015579D01*
X005612Y017077D02*
X005216Y017077D01*
X005175Y017088D01*
X005139Y017109D01*
X005109Y017139D01*
X005088Y017175D01*
X005077Y017216D01*
X005077Y017612D01*
X005612Y017612D01*
X005612Y017077D01*
X005612Y017164D02*
X005748Y017164D01*
X005748Y017323D02*
X005612Y017323D01*
X005612Y017481D02*
X005748Y017481D01*
X005612Y017640D02*
X004580Y017640D01*
X004580Y017680D02*
X004180Y017680D01*
X004580Y017680D01*
X004580Y017959D01*
X004565Y018037D01*
X004534Y018109D01*
X004491Y018175D01*
X004435Y018231D01*
X004369Y018274D01*
X004297Y018305D01*
X004219Y018320D01*
X004180Y018320D01*
X004180Y017680D01*
X004180Y017680D01*
X004180Y017680D01*
X004180Y017040D01*
X004219Y017040D01*
X004297Y017055D01*
X004369Y017086D01*
X004435Y017129D01*
X004491Y017185D01*
X004534Y017251D01*
X004565Y017323D01*
X004580Y017401D01*
X004580Y017680D01*
X004580Y017798D02*
X005077Y017798D01*
X005077Y017748D02*
X005612Y017748D01*
X005612Y018283D01*
X005216Y018283D01*
X005175Y018272D01*
X005139Y018251D01*
X005109Y018221D01*
X005088Y018185D01*
X005077Y018144D01*
X005077Y017748D01*
X005077Y017957D02*
X004580Y017957D01*
X004531Y018115D02*
X005077Y018115D01*
X005181Y018274D02*
X004371Y018274D01*
X004180Y018274D02*
X004180Y018274D01*
X004180Y018320D02*
X004141Y018320D01*
X004063Y018305D01*
X003991Y018274D01*
X003925Y018231D01*
X003869Y018175D01*
X003826Y018109D01*
X003795Y018037D01*
X003780Y017959D01*
X003780Y017680D01*
X004180Y017680D01*
X004180Y017680D01*
X004180Y017680D01*
X004180Y018320D01*
X003989Y018274D02*
X003372Y018274D01*
X003532Y018115D02*
X003829Y018115D01*
X003780Y017957D02*
X003580Y017957D01*
X003580Y017798D02*
X003780Y017798D01*
X003780Y017680D02*
X003780Y017401D01*
X003795Y017323D01*
X003826Y017251D01*
X003869Y017185D01*
X003925Y017129D01*
X003991Y017086D01*
X004063Y017055D01*
X004141Y017040D01*
X004180Y017040D01*
X004180Y017680D01*
X003780Y017680D01*
X003780Y017640D02*
X003580Y017640D01*
X003580Y017481D02*
X003780Y017481D01*
X003796Y017323D02*
X003564Y017323D01*
X003470Y017164D02*
X003890Y017164D01*
X004180Y017164D02*
X004180Y017164D01*
X004180Y017323D02*
X004180Y017323D01*
X004180Y017481D02*
X004180Y017481D01*
X004180Y017640D02*
X004180Y017640D01*
X004180Y017798D02*
X004180Y017798D01*
X004180Y017957D02*
X004180Y017957D01*
X004180Y018115D02*
X004180Y018115D01*
X004580Y017481D02*
X005077Y017481D01*
X005077Y017323D02*
X004564Y017323D01*
X004470Y017164D02*
X005095Y017164D01*
X005612Y017798D02*
X005748Y017798D01*
X005748Y017957D02*
X005612Y017957D01*
X005612Y018115D02*
X005748Y018115D01*
X005748Y018274D02*
X005612Y018274D01*
X006283Y017323D02*
X006754Y017323D01*
X006924Y017164D02*
X006265Y017164D01*
X007171Y017164D02*
X007307Y017164D01*
X007307Y017080D02*
X007380Y017092D01*
X007470Y017121D01*
X007555Y017164D01*
X007632Y017220D01*
X007699Y017287D01*
X007755Y017364D01*
X007798Y017449D01*
X007827Y017539D01*
X007839Y017612D01*
X007307Y017612D01*
X007307Y017080D01*
X007307Y017323D02*
X007171Y017323D01*
X007171Y017481D02*
X007307Y017481D01*
X007307Y017798D02*
X007171Y017798D01*
X007171Y017957D02*
X007307Y017957D01*
X007307Y018115D02*
X007171Y018115D01*
X007657Y018115D02*
X008380Y018115D01*
X008262Y017957D02*
X007775Y017957D01*
X007831Y017798D02*
X008206Y017798D01*
X008229Y017481D02*
X007808Y017481D01*
X007725Y017323D02*
X008313Y017323D01*
X008483Y017164D02*
X007554Y017164D01*
X008730Y017164D02*
X008866Y017164D01*
X008866Y017323D02*
X008730Y017323D01*
X008730Y017481D02*
X008866Y017481D01*
X008866Y017798D02*
X008730Y017798D01*
X008730Y017957D02*
X008866Y017957D01*
X008866Y018115D02*
X008730Y018115D01*
X000972Y017323D02*
X000460Y017323D01*
X000460Y017481D02*
X000813Y017481D01*
X000780Y017640D02*
X000460Y017640D01*
X000460Y017798D02*
X000780Y017798D01*
X000879Y014945D02*
X000460Y014945D01*
X000460Y014787D02*
X000780Y014787D01*
X000780Y014628D02*
X000460Y014628D01*
X000460Y014470D02*
X000825Y014470D01*
X000460Y011775D02*
X001374Y011775D01*
X001220Y011617D02*
X000460Y011617D01*
X000460Y011458D02*
X001220Y011458D01*
X001220Y011300D02*
X000460Y011300D01*
X000460Y011141D02*
X001318Y011141D01*
X001477Y010983D02*
X000460Y010983D01*
X000460Y002424D02*
X001200Y002424D01*
X001034Y002265D02*
X000460Y002265D01*
X000460Y002107D02*
X000914Y002107D01*
X000849Y001948D02*
X000460Y001948D01*
X000460Y001790D02*
X000809Y001790D01*
X000809Y001631D02*
X000460Y001631D01*
X000460Y001473D02*
X000824Y001473D01*
X000889Y001314D02*
X000460Y001314D01*
X000460Y001156D02*
X000973Y001156D01*
X001132Y000997D02*
X000460Y000997D01*
D18*
X001680Y005680D03*
X003180Y005680D03*
X004680Y005680D03*
X006180Y005680D03*
X007680Y005680D03*
X007680Y007680D03*
X006180Y007680D03*
X004680Y007680D03*
X003180Y007680D03*
X001680Y007680D03*
X012180Y010680D03*
X013680Y010680D03*
X015180Y010680D03*
X015180Y012680D03*
X013680Y012680D03*
X012180Y012680D03*
X019680Y011680D03*
X021180Y011680D03*
X022680Y011680D03*
X024180Y011680D03*
X025680Y011680D03*
X025680Y013680D03*
X024180Y013680D03*
X022680Y013680D03*
X021180Y013680D03*
X019680Y013680D03*
X020680Y015680D03*
X022180Y015680D03*
X023680Y015680D03*
X025180Y015680D03*
X026680Y015680D03*
X028180Y015680D03*
X028180Y017680D03*
X026680Y017680D03*
X025180Y017680D03*
X023680Y017680D03*
X022180Y017680D03*
X020680Y017680D03*
D19*
X015546Y008719D02*
X015546Y008314D01*
X016180Y007680D01*
X019381Y007680D01*
X020507Y006554D01*
X020507Y005853D01*
X021180Y005180D01*
X022680Y005180D01*
X023680Y006180D01*
X023680Y006420D01*
X023814Y006554D01*
X027121Y006554D02*
X028774Y006554D01*
D20*
X028649Y006680D01*
X027180Y006680D01*
X027180Y005680D01*
X025180Y003680D01*
X013180Y003680D01*
X010586Y006274D01*
X010586Y006554D01*
M02*
