G75*
G70*
%OFA0B0*%
%FSLAX24Y24*%
%IPPOS*%
%LPD*%
%AMOC8*
5,1,8,0,0,1.08239X$1,22.5*
%
%ADD10C,0.0000*%
%ADD11C,0.0060*%
%ADD12C,0.0449*%
%ADD13C,0.0050*%
%ADD14C,0.0040*%
%ADD15C,0.0100*%
%ADD16R,0.0060X0.0320*%
%ADD17R,0.0320X0.0160*%
D10*
X000180Y000680D02*
X000180Y020365D01*
X033550Y020365D01*
X033550Y000680D01*
X000180Y000680D01*
X001089Y001680D02*
X001091Y001728D01*
X001097Y001776D01*
X001107Y001823D01*
X001120Y001869D01*
X001138Y001914D01*
X001158Y001958D01*
X001183Y002000D01*
X001211Y002039D01*
X001241Y002076D01*
X001275Y002110D01*
X001312Y002142D01*
X001350Y002171D01*
X001391Y002196D01*
X001434Y002218D01*
X001479Y002236D01*
X001525Y002250D01*
X001572Y002261D01*
X001620Y002268D01*
X001668Y002271D01*
X001716Y002270D01*
X001764Y002265D01*
X001812Y002256D01*
X001858Y002244D01*
X001903Y002227D01*
X001947Y002207D01*
X001989Y002184D01*
X002029Y002157D01*
X002067Y002127D01*
X002102Y002094D01*
X002134Y002058D01*
X002164Y002020D01*
X002190Y001979D01*
X002212Y001936D01*
X002232Y001892D01*
X002247Y001847D01*
X002259Y001800D01*
X002267Y001752D01*
X002271Y001704D01*
X002271Y001656D01*
X002267Y001608D01*
X002259Y001560D01*
X002247Y001513D01*
X002232Y001468D01*
X002212Y001424D01*
X002190Y001381D01*
X002164Y001340D01*
X002134Y001302D01*
X002102Y001266D01*
X002067Y001233D01*
X002029Y001203D01*
X001989Y001176D01*
X001947Y001153D01*
X001903Y001133D01*
X001858Y001116D01*
X001812Y001104D01*
X001764Y001095D01*
X001716Y001090D01*
X001668Y001089D01*
X001620Y001092D01*
X001572Y001099D01*
X001525Y001110D01*
X001479Y001124D01*
X001434Y001142D01*
X001391Y001164D01*
X001350Y001189D01*
X001312Y001218D01*
X001275Y001250D01*
X001241Y001284D01*
X001211Y001321D01*
X001183Y001360D01*
X001158Y001402D01*
X001138Y001446D01*
X001120Y001491D01*
X001107Y001537D01*
X001097Y001584D01*
X001091Y001632D01*
X001089Y001680D01*
X001089Y019180D02*
X001091Y019228D01*
X001097Y019276D01*
X001107Y019323D01*
X001120Y019369D01*
X001138Y019414D01*
X001158Y019458D01*
X001183Y019500D01*
X001211Y019539D01*
X001241Y019576D01*
X001275Y019610D01*
X001312Y019642D01*
X001350Y019671D01*
X001391Y019696D01*
X001434Y019718D01*
X001479Y019736D01*
X001525Y019750D01*
X001572Y019761D01*
X001620Y019768D01*
X001668Y019771D01*
X001716Y019770D01*
X001764Y019765D01*
X001812Y019756D01*
X001858Y019744D01*
X001903Y019727D01*
X001947Y019707D01*
X001989Y019684D01*
X002029Y019657D01*
X002067Y019627D01*
X002102Y019594D01*
X002134Y019558D01*
X002164Y019520D01*
X002190Y019479D01*
X002212Y019436D01*
X002232Y019392D01*
X002247Y019347D01*
X002259Y019300D01*
X002267Y019252D01*
X002271Y019204D01*
X002271Y019156D01*
X002267Y019108D01*
X002259Y019060D01*
X002247Y019013D01*
X002232Y018968D01*
X002212Y018924D01*
X002190Y018881D01*
X002164Y018840D01*
X002134Y018802D01*
X002102Y018766D01*
X002067Y018733D01*
X002029Y018703D01*
X001989Y018676D01*
X001947Y018653D01*
X001903Y018633D01*
X001858Y018616D01*
X001812Y018604D01*
X001764Y018595D01*
X001716Y018590D01*
X001668Y018589D01*
X001620Y018592D01*
X001572Y018599D01*
X001525Y018610D01*
X001479Y018624D01*
X001434Y018642D01*
X001391Y018664D01*
X001350Y018689D01*
X001312Y018718D01*
X001275Y018750D01*
X001241Y018784D01*
X001211Y018821D01*
X001183Y018860D01*
X001158Y018902D01*
X001138Y018946D01*
X001120Y018991D01*
X001107Y019037D01*
X001097Y019084D01*
X001091Y019132D01*
X001089Y019180D01*
X031589Y019180D02*
X031591Y019228D01*
X031597Y019276D01*
X031607Y019323D01*
X031620Y019369D01*
X031638Y019414D01*
X031658Y019458D01*
X031683Y019500D01*
X031711Y019539D01*
X031741Y019576D01*
X031775Y019610D01*
X031812Y019642D01*
X031850Y019671D01*
X031891Y019696D01*
X031934Y019718D01*
X031979Y019736D01*
X032025Y019750D01*
X032072Y019761D01*
X032120Y019768D01*
X032168Y019771D01*
X032216Y019770D01*
X032264Y019765D01*
X032312Y019756D01*
X032358Y019744D01*
X032403Y019727D01*
X032447Y019707D01*
X032489Y019684D01*
X032529Y019657D01*
X032567Y019627D01*
X032602Y019594D01*
X032634Y019558D01*
X032664Y019520D01*
X032690Y019479D01*
X032712Y019436D01*
X032732Y019392D01*
X032747Y019347D01*
X032759Y019300D01*
X032767Y019252D01*
X032771Y019204D01*
X032771Y019156D01*
X032767Y019108D01*
X032759Y019060D01*
X032747Y019013D01*
X032732Y018968D01*
X032712Y018924D01*
X032690Y018881D01*
X032664Y018840D01*
X032634Y018802D01*
X032602Y018766D01*
X032567Y018733D01*
X032529Y018703D01*
X032489Y018676D01*
X032447Y018653D01*
X032403Y018633D01*
X032358Y018616D01*
X032312Y018604D01*
X032264Y018595D01*
X032216Y018590D01*
X032168Y018589D01*
X032120Y018592D01*
X032072Y018599D01*
X032025Y018610D01*
X031979Y018624D01*
X031934Y018642D01*
X031891Y018664D01*
X031850Y018689D01*
X031812Y018718D01*
X031775Y018750D01*
X031741Y018784D01*
X031711Y018821D01*
X031683Y018860D01*
X031658Y018902D01*
X031638Y018946D01*
X031620Y018991D01*
X031607Y019037D01*
X031597Y019084D01*
X031591Y019132D01*
X031589Y019180D01*
X031589Y001680D02*
X031591Y001728D01*
X031597Y001776D01*
X031607Y001823D01*
X031620Y001869D01*
X031638Y001914D01*
X031658Y001958D01*
X031683Y002000D01*
X031711Y002039D01*
X031741Y002076D01*
X031775Y002110D01*
X031812Y002142D01*
X031850Y002171D01*
X031891Y002196D01*
X031934Y002218D01*
X031979Y002236D01*
X032025Y002250D01*
X032072Y002261D01*
X032120Y002268D01*
X032168Y002271D01*
X032216Y002270D01*
X032264Y002265D01*
X032312Y002256D01*
X032358Y002244D01*
X032403Y002227D01*
X032447Y002207D01*
X032489Y002184D01*
X032529Y002157D01*
X032567Y002127D01*
X032602Y002094D01*
X032634Y002058D01*
X032664Y002020D01*
X032690Y001979D01*
X032712Y001936D01*
X032732Y001892D01*
X032747Y001847D01*
X032759Y001800D01*
X032767Y001752D01*
X032771Y001704D01*
X032771Y001656D01*
X032767Y001608D01*
X032759Y001560D01*
X032747Y001513D01*
X032732Y001468D01*
X032712Y001424D01*
X032690Y001381D01*
X032664Y001340D01*
X032634Y001302D01*
X032602Y001266D01*
X032567Y001233D01*
X032529Y001203D01*
X032489Y001176D01*
X032447Y001153D01*
X032403Y001133D01*
X032358Y001116D01*
X032312Y001104D01*
X032264Y001095D01*
X032216Y001090D01*
X032168Y001089D01*
X032120Y001092D01*
X032072Y001099D01*
X032025Y001110D01*
X031979Y001124D01*
X031934Y001142D01*
X031891Y001164D01*
X031850Y001189D01*
X031812Y001218D01*
X031775Y001250D01*
X031741Y001284D01*
X031711Y001321D01*
X031683Y001360D01*
X031658Y001402D01*
X031638Y001446D01*
X031620Y001491D01*
X031607Y001537D01*
X031597Y001584D01*
X031591Y001632D01*
X031589Y001680D01*
D11*
X031930Y003780D02*
X030430Y003780D01*
X030413Y003782D01*
X030396Y003786D01*
X030380Y003793D01*
X030366Y003803D01*
X030353Y003816D01*
X030343Y003830D01*
X030336Y003846D01*
X030332Y003863D01*
X030330Y003880D01*
X030330Y004230D01*
X030380Y004280D01*
X030380Y008080D01*
X030330Y008130D01*
X030330Y008480D01*
X030332Y008497D01*
X030336Y008514D01*
X030343Y008530D01*
X030353Y008544D01*
X030366Y008557D01*
X030380Y008567D01*
X030396Y008574D01*
X030413Y008578D01*
X030430Y008580D01*
X031930Y008580D01*
X031947Y008578D01*
X031964Y008574D01*
X031980Y008567D01*
X031994Y008557D01*
X032007Y008544D01*
X032017Y008530D01*
X032024Y008514D01*
X032028Y008497D01*
X032030Y008480D01*
X032030Y008130D01*
X031980Y008080D01*
X031980Y004280D01*
X032030Y004230D01*
X032030Y003880D01*
X032028Y003863D01*
X032024Y003846D01*
X032017Y003830D01*
X032007Y003816D01*
X031994Y003803D01*
X031980Y003793D01*
X031964Y003786D01*
X031947Y003782D01*
X031930Y003780D01*
X031830Y010880D02*
X032030Y010880D01*
X032130Y010980D02*
X031730Y010980D01*
X031680Y011080D02*
X032180Y011080D01*
X032280Y011080D02*
X032280Y011230D01*
X031580Y011230D01*
X031430Y011230D01*
X031430Y013330D01*
X032430Y013330D01*
X032430Y011230D01*
X032280Y011230D01*
X032280Y011080D02*
X032278Y011043D01*
X032272Y011007D01*
X032263Y010972D01*
X032250Y010938D01*
X032233Y010905D01*
X032213Y010874D01*
X032190Y010846D01*
X032164Y010820D01*
X032136Y010797D01*
X032105Y010777D01*
X032072Y010760D01*
X032038Y010747D01*
X032003Y010738D01*
X031967Y010732D01*
X031930Y010730D01*
X031893Y010732D01*
X031857Y010738D01*
X031822Y010747D01*
X031788Y010760D01*
X031755Y010777D01*
X031724Y010797D01*
X031696Y010820D01*
X031670Y010846D01*
X031647Y010874D01*
X031627Y010905D01*
X031610Y010938D01*
X031597Y010972D01*
X031588Y011007D01*
X031582Y011043D01*
X031580Y011080D01*
X031580Y011230D01*
X030430Y011080D02*
X030428Y011063D01*
X030424Y011046D01*
X030417Y011030D01*
X030407Y011016D01*
X030394Y011003D01*
X030380Y010993D01*
X030364Y010986D01*
X030347Y010982D01*
X030330Y010980D01*
X030180Y010980D01*
X030130Y011030D01*
X028230Y011030D01*
X028180Y010980D01*
X028030Y010980D01*
X028013Y010982D01*
X027996Y010986D01*
X027980Y010993D01*
X027966Y011003D01*
X027953Y011016D01*
X027943Y011030D01*
X027936Y011046D01*
X027932Y011063D01*
X027930Y011080D01*
X027930Y011780D02*
X027932Y011797D01*
X027936Y011814D01*
X027943Y011830D01*
X027953Y011844D01*
X027966Y011857D01*
X027980Y011867D01*
X027996Y011874D01*
X028013Y011878D01*
X028030Y011880D01*
X028180Y011880D01*
X028230Y011830D01*
X030130Y011830D01*
X030180Y011880D01*
X030330Y011880D01*
X030347Y011878D01*
X030364Y011874D01*
X030380Y011867D01*
X030394Y011857D01*
X030407Y011844D01*
X030417Y011830D01*
X030424Y011814D01*
X030428Y011797D01*
X030430Y011780D01*
X030930Y013780D02*
X029430Y013780D01*
X029413Y013782D01*
X029396Y013786D01*
X029380Y013793D01*
X029366Y013803D01*
X029353Y013816D01*
X029343Y013830D01*
X029336Y013846D01*
X029332Y013863D01*
X029330Y013880D01*
X029330Y014230D01*
X029380Y014280D01*
X029380Y018080D01*
X029330Y018130D01*
X029330Y018480D01*
X029332Y018497D01*
X029336Y018514D01*
X029343Y018530D01*
X029353Y018544D01*
X029366Y018557D01*
X029380Y018567D01*
X029396Y018574D01*
X029413Y018578D01*
X029430Y018580D01*
X030930Y018580D01*
X030947Y018578D01*
X030964Y018574D01*
X030980Y018567D01*
X030994Y018557D01*
X031007Y018544D01*
X031017Y018530D01*
X031024Y018514D01*
X031028Y018497D01*
X031030Y018480D01*
X031030Y018130D01*
X030980Y018080D01*
X030980Y014280D01*
X031030Y014230D01*
X031030Y013880D01*
X031028Y013863D01*
X031024Y013846D01*
X031017Y013830D01*
X031007Y013816D01*
X030994Y013803D01*
X030980Y013793D01*
X030964Y013786D01*
X030947Y013782D01*
X030930Y013780D01*
X021926Y018817D02*
X021819Y018710D01*
X021499Y018710D01*
X021499Y019351D01*
X021819Y019351D01*
X021926Y019244D01*
X021926Y018817D01*
X021282Y018710D02*
X021282Y019351D01*
X020855Y019351D02*
X021282Y018710D01*
X020855Y018710D02*
X020855Y019351D01*
X020637Y019244D02*
X020530Y019351D01*
X020317Y019351D01*
X020210Y019244D01*
X020210Y018817D01*
X020317Y018710D01*
X020530Y018710D01*
X020637Y018817D01*
X020637Y019030D01*
X020424Y019030D01*
X017180Y015830D02*
X016180Y015830D01*
X016180Y013730D01*
X016330Y013730D01*
X017030Y013730D01*
X017030Y013580D01*
X016930Y013580D02*
X016430Y013580D01*
X016330Y013580D02*
X016330Y013730D01*
X016480Y013480D02*
X016880Y013480D01*
X016780Y013380D02*
X016580Y013380D01*
X016330Y013580D02*
X016332Y013543D01*
X016338Y013507D01*
X016347Y013472D01*
X016360Y013438D01*
X016377Y013405D01*
X016397Y013374D01*
X016420Y013346D01*
X016446Y013320D01*
X016474Y013297D01*
X016505Y013277D01*
X016538Y013260D01*
X016572Y013247D01*
X016607Y013238D01*
X016643Y013232D01*
X016680Y013230D01*
X016717Y013232D01*
X016753Y013238D01*
X016788Y013247D01*
X016822Y013260D01*
X016855Y013277D01*
X016886Y013297D01*
X016914Y013320D01*
X016940Y013346D01*
X016963Y013374D01*
X016983Y013405D01*
X017000Y013438D01*
X017013Y013472D01*
X017022Y013507D01*
X017028Y013543D01*
X017030Y013580D01*
X017030Y013730D02*
X017180Y013730D01*
X017180Y015830D01*
X017710Y015244D02*
X017817Y015351D01*
X018030Y015351D01*
X018137Y015244D01*
X018137Y015137D01*
X018030Y015030D01*
X018137Y014924D01*
X018137Y014817D01*
X018030Y014710D01*
X017817Y014710D01*
X017710Y014817D01*
X017924Y015030D02*
X018030Y015030D01*
X018355Y014817D02*
X018461Y014817D01*
X018461Y014710D01*
X018355Y014710D01*
X018355Y014817D01*
X018677Y014817D02*
X018784Y014710D01*
X018997Y014710D01*
X019104Y014817D01*
X019104Y014924D01*
X018997Y015030D01*
X018890Y015030D01*
X018997Y015030D02*
X019104Y015137D01*
X019104Y015244D01*
X018997Y015351D01*
X018784Y015351D01*
X018677Y015244D01*
X019321Y015351D02*
X019321Y014924D01*
X019535Y014710D01*
X019748Y014924D01*
X019748Y015351D01*
X014680Y016830D02*
X014680Y013530D01*
X014678Y013507D01*
X014673Y013484D01*
X014664Y013462D01*
X014651Y013442D01*
X014636Y013424D01*
X014618Y013409D01*
X014598Y013396D01*
X014576Y013387D01*
X014553Y013382D01*
X014530Y013380D01*
X014180Y013380D01*
X014080Y013480D01*
X007280Y013480D01*
X007180Y013380D01*
X006830Y013380D01*
X006807Y013382D01*
X006784Y013387D01*
X006762Y013396D01*
X006742Y013409D01*
X006724Y013424D01*
X006709Y013442D01*
X006696Y013462D01*
X006687Y013484D01*
X006682Y013507D01*
X006680Y013530D01*
X006680Y016830D01*
X006682Y016853D01*
X006687Y016876D01*
X006696Y016898D01*
X006709Y016918D01*
X006724Y016936D01*
X006742Y016951D01*
X006762Y016964D01*
X006784Y016973D01*
X006807Y016978D01*
X006830Y016980D01*
X007180Y016980D01*
X007280Y016880D01*
X014080Y016880D01*
X014180Y016980D01*
X014530Y016980D01*
X014553Y016978D01*
X014576Y016973D01*
X014598Y016964D01*
X014618Y016951D01*
X014636Y016936D01*
X014651Y016918D01*
X014664Y016898D01*
X014673Y016876D01*
X014678Y016853D01*
X014680Y016830D01*
X010180Y013080D02*
X010180Y009780D01*
X010178Y009757D01*
X010173Y009734D01*
X010164Y009712D01*
X010151Y009692D01*
X010136Y009674D01*
X010118Y009659D01*
X010098Y009646D01*
X010076Y009637D01*
X010053Y009632D01*
X010030Y009630D01*
X009680Y009630D01*
X009580Y009730D01*
X002780Y009730D01*
X002680Y009630D01*
X002330Y009630D01*
X002307Y009632D01*
X002284Y009637D01*
X002262Y009646D01*
X002242Y009659D01*
X002224Y009674D01*
X002209Y009692D01*
X002196Y009712D01*
X002187Y009734D01*
X002182Y009757D01*
X002180Y009780D01*
X002180Y013080D01*
X002182Y013103D01*
X002187Y013126D01*
X002196Y013148D01*
X002209Y013168D01*
X002224Y013186D01*
X002242Y013201D01*
X002262Y013214D01*
X002284Y013223D01*
X002307Y013228D01*
X002330Y013230D01*
X002680Y013230D01*
X002780Y013130D01*
X009580Y013130D01*
X009680Y013230D01*
X010030Y013230D01*
X010053Y013228D01*
X010076Y013223D01*
X010098Y013214D01*
X010118Y013201D01*
X010136Y013186D01*
X010151Y013168D01*
X010164Y013148D01*
X010173Y013126D01*
X010178Y013103D01*
X010180Y013080D01*
X010460Y012851D02*
X010460Y012530D01*
X010674Y012637D01*
X010780Y012637D01*
X010887Y012530D01*
X010887Y012317D01*
X010780Y012210D01*
X010567Y012210D01*
X010460Y012317D01*
X011105Y012424D02*
X011318Y012210D01*
X011532Y012424D01*
X011532Y012851D01*
X011105Y012851D02*
X011105Y012424D01*
X010887Y012851D02*
X010460Y012851D01*
X016730Y012330D02*
X016730Y012180D01*
X016780Y012130D01*
X016780Y010230D01*
X016730Y010180D01*
X016730Y010030D01*
X016732Y010013D01*
X016736Y009996D01*
X016743Y009980D01*
X016753Y009966D01*
X016766Y009953D01*
X016780Y009943D01*
X016796Y009936D01*
X016813Y009932D01*
X016830Y009930D01*
X017530Y009930D02*
X017547Y009932D01*
X017564Y009936D01*
X017580Y009943D01*
X017594Y009953D01*
X017607Y009966D01*
X017617Y009980D01*
X017624Y009996D01*
X017628Y010013D01*
X017630Y010030D01*
X017630Y010180D01*
X017580Y010230D01*
X017580Y012130D01*
X017630Y012180D01*
X017630Y012330D01*
X017628Y012347D01*
X017624Y012364D01*
X017617Y012380D01*
X017607Y012394D01*
X017594Y012407D01*
X017580Y012417D01*
X017564Y012424D01*
X017547Y012428D01*
X017530Y012430D01*
X016830Y012430D02*
X016813Y012428D01*
X016796Y012424D01*
X016780Y012417D01*
X016766Y012407D01*
X016753Y012394D01*
X016743Y012380D01*
X016736Y012364D01*
X016732Y012347D01*
X016730Y012330D01*
X004830Y017180D02*
X004830Y018180D01*
X002730Y018180D01*
X002730Y018030D01*
X002730Y017330D01*
X002580Y017330D01*
X002580Y017430D02*
X002580Y017930D01*
X002580Y018030D02*
X002730Y018030D01*
X002480Y017880D02*
X002480Y017480D01*
X002380Y017580D02*
X002380Y017780D01*
X002580Y018030D02*
X002543Y018028D01*
X002507Y018022D01*
X002472Y018013D01*
X002438Y018000D01*
X002405Y017983D01*
X002374Y017963D01*
X002346Y017940D01*
X002320Y017914D01*
X002297Y017886D01*
X002277Y017855D01*
X002260Y017822D01*
X002247Y017788D01*
X002238Y017753D01*
X002232Y017717D01*
X002230Y017680D01*
X002232Y017643D01*
X002238Y017607D01*
X002247Y017572D01*
X002260Y017538D01*
X002277Y017505D01*
X002297Y017474D01*
X002320Y017446D01*
X002346Y017420D01*
X002374Y017397D01*
X002405Y017377D01*
X002438Y017360D01*
X002472Y017347D01*
X002507Y017338D01*
X002543Y017332D01*
X002580Y017330D01*
X002730Y017330D02*
X002730Y017180D01*
X004830Y017180D01*
X001630Y017180D02*
X001580Y017130D01*
X001580Y015230D01*
X001630Y015180D01*
X001630Y015030D01*
X001628Y015013D01*
X001624Y014996D01*
X001617Y014980D01*
X001607Y014966D01*
X001594Y014953D01*
X001580Y014943D01*
X001564Y014936D01*
X001547Y014932D01*
X001530Y014930D01*
X000830Y014930D02*
X000813Y014932D01*
X000796Y014936D01*
X000780Y014943D01*
X000766Y014953D01*
X000753Y014966D01*
X000743Y014980D01*
X000736Y014996D01*
X000732Y015013D01*
X000730Y015030D01*
X000730Y015180D01*
X000780Y015230D01*
X000780Y017130D01*
X000730Y017180D01*
X000730Y017330D01*
X000732Y017347D01*
X000736Y017364D01*
X000743Y017380D01*
X000753Y017394D01*
X000766Y017407D01*
X000780Y017417D01*
X000796Y017424D01*
X000813Y017428D01*
X000830Y017430D01*
X001530Y017430D02*
X001547Y017428D01*
X001564Y017424D01*
X001580Y017417D01*
X001594Y017407D01*
X001607Y017394D01*
X001617Y017380D01*
X001624Y017364D01*
X001628Y017347D01*
X001630Y017330D01*
X001630Y017180D01*
X001424Y009351D02*
X001424Y008710D01*
X001637Y008710D02*
X001210Y008710D01*
X001210Y009137D02*
X001424Y009351D01*
X001855Y009244D02*
X001961Y009351D01*
X002175Y009351D01*
X002282Y009244D01*
X002282Y009137D01*
X001855Y008710D01*
X002282Y008710D01*
X002499Y008924D02*
X002713Y008710D01*
X002926Y008924D01*
X002926Y009351D01*
X002499Y009351D02*
X002499Y008924D01*
X010710Y002351D02*
X011030Y002351D01*
X011137Y002244D01*
X011137Y001817D01*
X011030Y001710D01*
X010710Y001710D01*
X010710Y002351D01*
X011355Y002030D02*
X011782Y002030D01*
X011999Y001924D02*
X012106Y002030D01*
X012319Y002030D01*
X012426Y001924D01*
X012426Y001817D01*
X012319Y001710D01*
X012106Y001710D01*
X011999Y001817D01*
X011999Y001924D01*
X012106Y002030D02*
X011999Y002137D01*
X011999Y002244D01*
X012106Y002351D01*
X012319Y002351D01*
X012426Y002244D01*
X012426Y002137D01*
X012319Y002030D01*
X012644Y002244D02*
X012750Y002351D01*
X012964Y002351D01*
X013071Y002244D01*
X013071Y002137D01*
X012644Y001710D01*
X013071Y001710D01*
X013288Y002030D02*
X013715Y002030D01*
X013933Y002030D02*
X013933Y002351D01*
X014360Y002351D01*
X014253Y002137D02*
X014360Y002030D01*
X014360Y001817D01*
X014253Y001710D01*
X014040Y001710D01*
X013933Y001817D01*
X013933Y002030D02*
X014146Y002137D01*
X014253Y002137D01*
X013608Y002351D02*
X013608Y001710D01*
X013288Y002030D02*
X013608Y002351D01*
X011675Y002351D02*
X011675Y001710D01*
X011355Y002030D02*
X011675Y002351D01*
D12*
X011916Y017680D02*
X011916Y023428D01*
X010357Y023428D02*
X010357Y017680D01*
X008798Y017680D02*
X008798Y023428D01*
X007239Y023428D02*
X007239Y017680D01*
X005680Y017680D02*
X005680Y023428D01*
X013475Y023428D02*
X013475Y017680D01*
X015034Y017680D02*
X015034Y023428D01*
X016593Y023428D02*
X016593Y017680D01*
D13*
X017230Y016816D02*
X017155Y016741D01*
X017155Y016590D01*
X017230Y016515D01*
X017230Y016355D02*
X017155Y016280D01*
X017155Y016055D01*
X017605Y016055D01*
X017605Y016280D01*
X017530Y016355D01*
X017230Y016355D01*
X017605Y016515D02*
X017305Y016816D01*
X017230Y016816D01*
X017605Y016816D02*
X017605Y016515D01*
X017361Y019255D02*
X017361Y022956D01*
X004912Y022956D01*
X004912Y019255D01*
X017361Y019255D01*
X017361Y019256D02*
X004912Y019256D01*
X004912Y019304D02*
X017361Y019304D01*
X017361Y019353D02*
X004912Y019353D01*
X004912Y019401D02*
X017361Y019401D01*
X017361Y019450D02*
X004912Y019450D01*
X004912Y019498D02*
X017361Y019498D01*
X017361Y019547D02*
X004912Y019547D01*
X004912Y019595D02*
X017361Y019595D01*
X017361Y019644D02*
X004912Y019644D01*
X004912Y019692D02*
X017361Y019692D01*
X017361Y019741D02*
X004912Y019741D01*
X004912Y019789D02*
X017361Y019789D01*
X017361Y019838D02*
X004912Y019838D01*
X004912Y019886D02*
X017361Y019886D01*
X017361Y019935D02*
X004912Y019935D01*
X004912Y019983D02*
X017361Y019983D01*
X017361Y020032D02*
X004912Y020032D01*
X004912Y020080D02*
X017361Y020080D01*
X017361Y020129D02*
X004912Y020129D01*
X004912Y020177D02*
X017361Y020177D01*
X017361Y020226D02*
X004912Y020226D01*
X004912Y020274D02*
X017361Y020274D01*
X017361Y020323D02*
X004912Y020323D01*
X004912Y020371D02*
X017361Y020371D01*
X017361Y020420D02*
X004912Y020420D01*
X004912Y020468D02*
X017361Y020468D01*
X017361Y020517D02*
X004912Y020517D01*
X004912Y020565D02*
X017361Y020565D01*
X017361Y020614D02*
X004912Y020614D01*
X004912Y020662D02*
X017361Y020662D01*
X017361Y020711D02*
X004912Y020711D01*
X004912Y020759D02*
X017361Y020759D01*
X017361Y020808D02*
X004912Y020808D01*
X004912Y020856D02*
X017361Y020856D01*
X017361Y020905D02*
X004912Y020905D01*
X004912Y020953D02*
X017361Y020953D01*
X017361Y021002D02*
X004912Y021002D01*
X004912Y021050D02*
X017361Y021050D01*
X017361Y021099D02*
X004912Y021099D01*
X004912Y021147D02*
X017361Y021147D01*
X017361Y021196D02*
X004912Y021196D01*
X004912Y021244D02*
X017361Y021244D01*
X017361Y021293D02*
X004912Y021293D01*
X004912Y021341D02*
X017361Y021341D01*
X017361Y021390D02*
X004912Y021390D01*
X004912Y021438D02*
X017361Y021438D01*
X017361Y021487D02*
X004912Y021487D01*
X004912Y021535D02*
X017361Y021535D01*
X017361Y021584D02*
X004912Y021584D01*
X004912Y021632D02*
X017361Y021632D01*
X017361Y021681D02*
X004912Y021681D01*
X004912Y021729D02*
X017361Y021729D01*
X017361Y021778D02*
X004912Y021778D01*
X004912Y021826D02*
X017361Y021826D01*
X017361Y021875D02*
X004912Y021875D01*
X004912Y021923D02*
X017361Y021923D01*
X017361Y021972D02*
X004912Y021972D01*
X004912Y022020D02*
X017361Y022020D01*
X017361Y022069D02*
X004912Y022069D01*
X004912Y022117D02*
X017361Y022117D01*
X017361Y022166D02*
X004912Y022166D01*
X004912Y022214D02*
X017361Y022214D01*
X017361Y022263D02*
X004912Y022263D01*
X004912Y022311D02*
X017361Y022311D01*
X017361Y022360D02*
X004912Y022360D01*
X004912Y022408D02*
X017361Y022408D01*
X017361Y022457D02*
X004912Y022457D01*
X004912Y022505D02*
X017361Y022505D01*
X017361Y022554D02*
X004912Y022554D01*
X004912Y022602D02*
X017361Y022602D01*
X017361Y022651D02*
X004912Y022651D01*
X004912Y022699D02*
X017361Y022699D01*
X017361Y022748D02*
X004912Y022748D01*
X004912Y022796D02*
X017361Y022796D01*
X017361Y022845D02*
X004912Y022845D01*
X004912Y022893D02*
X017361Y022893D01*
X017361Y022942D02*
X004912Y022942D01*
X002205Y017045D02*
X002205Y016745D01*
X002205Y016895D02*
X001755Y016895D01*
X001905Y016745D01*
X001980Y016584D02*
X002055Y016509D01*
X002055Y016284D01*
X002205Y016284D02*
X001755Y016284D01*
X001755Y016509D01*
X001830Y016584D01*
X001980Y016584D01*
X002055Y016434D02*
X002205Y016584D01*
X003055Y016705D02*
X003055Y016255D01*
X003280Y016255D01*
X003355Y016330D01*
X003355Y016630D01*
X003280Y016705D01*
X003055Y016705D01*
X003515Y016555D02*
X003666Y016705D01*
X003666Y016255D01*
X003816Y016255D02*
X003515Y016255D01*
X005705Y016215D02*
X005705Y016665D01*
X005930Y016665D01*
X006005Y016590D01*
X006005Y016440D01*
X005930Y016365D01*
X005705Y016365D01*
X005855Y016365D02*
X006005Y016215D01*
X006165Y016440D02*
X006466Y016440D01*
X006391Y016215D02*
X006391Y016665D01*
X006165Y016440D01*
X002966Y013915D02*
X002665Y013915D01*
X002665Y013690D01*
X002816Y013765D01*
X002891Y013765D01*
X002966Y013690D01*
X002966Y013540D01*
X002891Y013465D01*
X002740Y013465D01*
X002665Y013540D01*
X002505Y013465D02*
X002355Y013615D01*
X002430Y013615D02*
X002205Y013615D01*
X002205Y013465D02*
X002205Y013915D01*
X002430Y013915D01*
X002505Y013840D01*
X002505Y013690D01*
X002430Y013615D01*
X017755Y011970D02*
X017755Y011820D01*
X017830Y011745D01*
X017830Y011584D02*
X017755Y011509D01*
X017755Y011284D01*
X018205Y011284D01*
X018055Y011284D02*
X018055Y011509D01*
X017980Y011584D01*
X017830Y011584D01*
X018055Y011434D02*
X018205Y011584D01*
X018205Y011745D02*
X017905Y012045D01*
X017830Y012045D01*
X017755Y011970D01*
X018205Y012045D02*
X018205Y011745D01*
X028284Y011905D02*
X028284Y012355D01*
X028509Y012355D01*
X028584Y012280D01*
X028584Y012130D01*
X028509Y012055D01*
X028284Y012055D01*
X028434Y012055D02*
X028584Y011905D01*
X028745Y011980D02*
X028820Y011905D01*
X028970Y011905D01*
X029045Y011980D01*
X029045Y012055D01*
X028970Y012130D01*
X028895Y012130D01*
X028970Y012130D02*
X029045Y012205D01*
X029045Y012280D01*
X028970Y012355D01*
X028820Y012355D01*
X028745Y012280D01*
X031405Y013555D02*
X031405Y013780D01*
X031480Y013855D01*
X031780Y013855D01*
X031855Y013780D01*
X031855Y013555D01*
X031405Y013555D01*
X031480Y014015D02*
X031405Y014090D01*
X031405Y014241D01*
X031480Y014316D01*
X031555Y014316D01*
X031630Y014241D01*
X031705Y014316D01*
X031780Y014316D01*
X031855Y014241D01*
X031855Y014090D01*
X031780Y014015D01*
X031630Y014166D02*
X031630Y014241D01*
X029145Y014265D02*
X029070Y014265D01*
X028770Y014566D01*
X028695Y014566D01*
X028695Y014265D01*
X028770Y014105D02*
X028920Y014105D01*
X028995Y014030D01*
X028995Y013805D01*
X029145Y013805D02*
X028695Y013805D01*
X028695Y014030D01*
X028770Y014105D01*
X028995Y013955D02*
X029145Y014105D01*
X030195Y003566D02*
X030270Y003416D01*
X030420Y003265D01*
X030420Y003491D01*
X030495Y003566D01*
X030570Y003566D01*
X030645Y003491D01*
X030645Y003340D01*
X030570Y003265D01*
X030420Y003265D01*
X030420Y003105D02*
X030495Y003030D01*
X030495Y002805D01*
X030645Y002805D02*
X030195Y002805D01*
X030195Y003030D01*
X030270Y003105D01*
X030420Y003105D01*
X030495Y002955D02*
X030645Y003105D01*
D14*
X026411Y019672D02*
X026257Y019672D01*
X026181Y019749D01*
X026181Y019826D01*
X026257Y019903D01*
X026411Y019903D01*
X026487Y019826D01*
X026487Y019749D01*
X026411Y019672D01*
X026411Y019903D02*
X026487Y019979D01*
X026487Y020056D01*
X026411Y020133D01*
X026257Y020133D01*
X026181Y020056D01*
X026181Y019979D01*
X026257Y019903D01*
X026027Y019903D02*
X025720Y019903D01*
X025567Y019903D02*
X025260Y019903D01*
X025106Y019826D02*
X025106Y020133D01*
X025260Y020133D02*
X025260Y019672D01*
X025106Y019826D02*
X024953Y019672D01*
X024799Y019826D01*
X024799Y020133D01*
X024646Y020133D02*
X024339Y020133D01*
X024492Y020133D02*
X024492Y019672D01*
X024185Y019672D02*
X023879Y019672D01*
X023879Y020133D01*
X024185Y020133D01*
X024032Y019903D02*
X023879Y019903D01*
X023725Y020133D02*
X023418Y019826D01*
X023495Y019903D02*
X023725Y019672D01*
X023418Y019672D02*
X023418Y020133D01*
X023265Y020056D02*
X023188Y020133D01*
X023035Y020133D01*
X022958Y020056D01*
X022958Y019749D01*
X023035Y019672D01*
X023188Y019672D01*
X023265Y019749D01*
X022804Y019749D02*
X022728Y019672D01*
X022574Y019672D01*
X022497Y019749D01*
X022497Y020056D01*
X022574Y020133D01*
X022728Y020133D01*
X022804Y020056D01*
X022804Y019749D01*
X022344Y019749D02*
X022267Y019672D01*
X022114Y019672D01*
X022037Y019749D01*
X022114Y019903D02*
X022267Y019903D01*
X022344Y019826D01*
X022344Y019749D01*
X022114Y019903D02*
X022037Y019979D01*
X022037Y020056D01*
X022114Y020133D01*
X022267Y020133D01*
X022344Y020056D01*
X021884Y019596D02*
X021577Y019596D01*
X021423Y019672D02*
X021270Y019826D01*
X021346Y019826D02*
X021116Y019826D01*
X021116Y019672D02*
X021116Y020133D01*
X021346Y020133D01*
X021423Y020056D01*
X021423Y019903D01*
X021346Y019826D01*
X020963Y019672D02*
X020656Y019672D01*
X020656Y020133D01*
X020963Y020133D01*
X020809Y019903D02*
X020656Y019903D01*
X020502Y020133D02*
X020502Y019672D01*
X020349Y019826D01*
X020195Y019672D01*
X020195Y020133D01*
X020042Y020056D02*
X020042Y019749D01*
X019965Y019672D01*
X019812Y019672D01*
X019735Y019749D01*
X019735Y020056D01*
X019812Y020133D01*
X019965Y020133D01*
X020042Y020056D01*
X019582Y020056D02*
X019582Y019903D01*
X019505Y019826D01*
X019275Y019826D01*
X019275Y019672D02*
X019275Y020133D01*
X019505Y020133D01*
X019582Y020056D01*
X019121Y019596D02*
X018814Y019596D01*
X018661Y019749D02*
X018584Y019672D01*
X018431Y019672D01*
X018354Y019749D01*
X018200Y019749D02*
X018200Y020133D01*
X018354Y020056D02*
X018354Y019979D01*
X018431Y019903D01*
X018584Y019903D01*
X018661Y019826D01*
X018661Y019749D01*
X018661Y020056D02*
X018584Y020133D01*
X018431Y020133D01*
X018354Y020056D01*
X018200Y019749D02*
X018124Y019672D01*
X017970Y019672D01*
X017893Y019749D01*
X017893Y020133D01*
X017740Y020133D02*
X017433Y020133D01*
X017587Y020133D02*
X017587Y019672D01*
X025567Y019672D02*
X025567Y020133D01*
D15*
X025900Y006019D02*
X026688Y006019D01*
X027554Y006019D02*
X028341Y006019D01*
X029129Y006019D02*
X029877Y006019D01*
X029877Y001082D01*
X009483Y001082D01*
X009483Y006019D01*
X010231Y006019D01*
X011019Y006019D02*
X011806Y006019D01*
X012672Y006019D02*
X013460Y006019D01*
X014365Y006019D02*
X015152Y006019D01*
X015979Y006019D02*
X016767Y006019D01*
X017633Y006019D02*
X018420Y006019D01*
X019286Y006019D02*
X020074Y006019D01*
X020940Y006019D02*
X021727Y006019D01*
X022593Y006019D02*
X023381Y006019D01*
X024247Y006019D02*
X025034Y006019D01*
X020349Y002318D02*
X019011Y002318D01*
X019011Y001924D01*
X020349Y001924D01*
X020349Y002318D01*
X020349Y001137D01*
X019011Y001137D02*
X019011Y002318D01*
X020349Y002318D01*
X020349Y002256D02*
X019011Y002256D01*
X019011Y002158D02*
X020349Y002158D01*
X020349Y002059D02*
X019011Y002059D01*
X019011Y001961D02*
X020349Y001961D01*
D16*
X010210Y011430D03*
X006650Y015180D03*
X002150Y011430D03*
X014710Y015180D03*
D17*
X030180Y013700D03*
X030180Y018660D03*
X031180Y008660D03*
X031180Y003700D03*
M02*
