G75*
G70*
%OFA0B0*%
%FSLAX24Y24*%
%IPPOS*%
%LPD*%
%AMOC8*
5,1,8,0,0,1.08239X$1,22.5*
%
%ADD10C,0.0000*%
%ADD11C,0.1241*%
%ADD12R,0.0946X0.0946*%
%ADD13C,0.0946*%
%ADD14C,0.1202*%
%ADD15OC8,0.0660*%
%ADD16OC8,0.0540*%
%ADD17C,0.0540*%
%ADD18R,0.1241X0.1241*%
D10*
X000180Y000680D02*
X000180Y020365D01*
X033550Y020365D01*
X033550Y000680D01*
X000180Y000680D01*
X001089Y001680D02*
X001091Y001728D01*
X001097Y001776D01*
X001107Y001823D01*
X001120Y001869D01*
X001138Y001914D01*
X001158Y001958D01*
X001183Y002000D01*
X001211Y002039D01*
X001241Y002076D01*
X001275Y002110D01*
X001312Y002142D01*
X001350Y002171D01*
X001391Y002196D01*
X001434Y002218D01*
X001479Y002236D01*
X001525Y002250D01*
X001572Y002261D01*
X001620Y002268D01*
X001668Y002271D01*
X001716Y002270D01*
X001764Y002265D01*
X001812Y002256D01*
X001858Y002244D01*
X001903Y002227D01*
X001947Y002207D01*
X001989Y002184D01*
X002029Y002157D01*
X002067Y002127D01*
X002102Y002094D01*
X002134Y002058D01*
X002164Y002020D01*
X002190Y001979D01*
X002212Y001936D01*
X002232Y001892D01*
X002247Y001847D01*
X002259Y001800D01*
X002267Y001752D01*
X002271Y001704D01*
X002271Y001656D01*
X002267Y001608D01*
X002259Y001560D01*
X002247Y001513D01*
X002232Y001468D01*
X002212Y001424D01*
X002190Y001381D01*
X002164Y001340D01*
X002134Y001302D01*
X002102Y001266D01*
X002067Y001233D01*
X002029Y001203D01*
X001989Y001176D01*
X001947Y001153D01*
X001903Y001133D01*
X001858Y001116D01*
X001812Y001104D01*
X001764Y001095D01*
X001716Y001090D01*
X001668Y001089D01*
X001620Y001092D01*
X001572Y001099D01*
X001525Y001110D01*
X001479Y001124D01*
X001434Y001142D01*
X001391Y001164D01*
X001350Y001189D01*
X001312Y001218D01*
X001275Y001250D01*
X001241Y001284D01*
X001211Y001321D01*
X001183Y001360D01*
X001158Y001402D01*
X001138Y001446D01*
X001120Y001491D01*
X001107Y001537D01*
X001097Y001584D01*
X001091Y001632D01*
X001089Y001680D01*
X001089Y019180D02*
X001091Y019228D01*
X001097Y019276D01*
X001107Y019323D01*
X001120Y019369D01*
X001138Y019414D01*
X001158Y019458D01*
X001183Y019500D01*
X001211Y019539D01*
X001241Y019576D01*
X001275Y019610D01*
X001312Y019642D01*
X001350Y019671D01*
X001391Y019696D01*
X001434Y019718D01*
X001479Y019736D01*
X001525Y019750D01*
X001572Y019761D01*
X001620Y019768D01*
X001668Y019771D01*
X001716Y019770D01*
X001764Y019765D01*
X001812Y019756D01*
X001858Y019744D01*
X001903Y019727D01*
X001947Y019707D01*
X001989Y019684D01*
X002029Y019657D01*
X002067Y019627D01*
X002102Y019594D01*
X002134Y019558D01*
X002164Y019520D01*
X002190Y019479D01*
X002212Y019436D01*
X002232Y019392D01*
X002247Y019347D01*
X002259Y019300D01*
X002267Y019252D01*
X002271Y019204D01*
X002271Y019156D01*
X002267Y019108D01*
X002259Y019060D01*
X002247Y019013D01*
X002232Y018968D01*
X002212Y018924D01*
X002190Y018881D01*
X002164Y018840D01*
X002134Y018802D01*
X002102Y018766D01*
X002067Y018733D01*
X002029Y018703D01*
X001989Y018676D01*
X001947Y018653D01*
X001903Y018633D01*
X001858Y018616D01*
X001812Y018604D01*
X001764Y018595D01*
X001716Y018590D01*
X001668Y018589D01*
X001620Y018592D01*
X001572Y018599D01*
X001525Y018610D01*
X001479Y018624D01*
X001434Y018642D01*
X001391Y018664D01*
X001350Y018689D01*
X001312Y018718D01*
X001275Y018750D01*
X001241Y018784D01*
X001211Y018821D01*
X001183Y018860D01*
X001158Y018902D01*
X001138Y018946D01*
X001120Y018991D01*
X001107Y019037D01*
X001097Y019084D01*
X001091Y019132D01*
X001089Y019180D01*
X031589Y019180D02*
X031591Y019228D01*
X031597Y019276D01*
X031607Y019323D01*
X031620Y019369D01*
X031638Y019414D01*
X031658Y019458D01*
X031683Y019500D01*
X031711Y019539D01*
X031741Y019576D01*
X031775Y019610D01*
X031812Y019642D01*
X031850Y019671D01*
X031891Y019696D01*
X031934Y019718D01*
X031979Y019736D01*
X032025Y019750D01*
X032072Y019761D01*
X032120Y019768D01*
X032168Y019771D01*
X032216Y019770D01*
X032264Y019765D01*
X032312Y019756D01*
X032358Y019744D01*
X032403Y019727D01*
X032447Y019707D01*
X032489Y019684D01*
X032529Y019657D01*
X032567Y019627D01*
X032602Y019594D01*
X032634Y019558D01*
X032664Y019520D01*
X032690Y019479D01*
X032712Y019436D01*
X032732Y019392D01*
X032747Y019347D01*
X032759Y019300D01*
X032767Y019252D01*
X032771Y019204D01*
X032771Y019156D01*
X032767Y019108D01*
X032759Y019060D01*
X032747Y019013D01*
X032732Y018968D01*
X032712Y018924D01*
X032690Y018881D01*
X032664Y018840D01*
X032634Y018802D01*
X032602Y018766D01*
X032567Y018733D01*
X032529Y018703D01*
X032489Y018676D01*
X032447Y018653D01*
X032403Y018633D01*
X032358Y018616D01*
X032312Y018604D01*
X032264Y018595D01*
X032216Y018590D01*
X032168Y018589D01*
X032120Y018592D01*
X032072Y018599D01*
X032025Y018610D01*
X031979Y018624D01*
X031934Y018642D01*
X031891Y018664D01*
X031850Y018689D01*
X031812Y018718D01*
X031775Y018750D01*
X031741Y018784D01*
X031711Y018821D01*
X031683Y018860D01*
X031658Y018902D01*
X031638Y018946D01*
X031620Y018991D01*
X031607Y019037D01*
X031597Y019084D01*
X031591Y019132D01*
X031589Y019180D01*
X031589Y001680D02*
X031591Y001728D01*
X031597Y001776D01*
X031607Y001823D01*
X031620Y001869D01*
X031638Y001914D01*
X031658Y001958D01*
X031683Y002000D01*
X031711Y002039D01*
X031741Y002076D01*
X031775Y002110D01*
X031812Y002142D01*
X031850Y002171D01*
X031891Y002196D01*
X031934Y002218D01*
X031979Y002236D01*
X032025Y002250D01*
X032072Y002261D01*
X032120Y002268D01*
X032168Y002271D01*
X032216Y002270D01*
X032264Y002265D01*
X032312Y002256D01*
X032358Y002244D01*
X032403Y002227D01*
X032447Y002207D01*
X032489Y002184D01*
X032529Y002157D01*
X032567Y002127D01*
X032602Y002094D01*
X032634Y002058D01*
X032664Y002020D01*
X032690Y001979D01*
X032712Y001936D01*
X032732Y001892D01*
X032747Y001847D01*
X032759Y001800D01*
X032767Y001752D01*
X032771Y001704D01*
X032771Y001656D01*
X032767Y001608D01*
X032759Y001560D01*
X032747Y001513D01*
X032732Y001468D01*
X032712Y001424D01*
X032690Y001381D01*
X032664Y001340D01*
X032634Y001302D01*
X032602Y001266D01*
X032567Y001233D01*
X032529Y001203D01*
X032489Y001176D01*
X032447Y001153D01*
X032403Y001133D01*
X032358Y001116D01*
X032312Y001104D01*
X032264Y001095D01*
X032216Y001090D01*
X032168Y001089D01*
X032120Y001092D01*
X032072Y001099D01*
X032025Y001110D01*
X031979Y001124D01*
X031934Y001142D01*
X031891Y001164D01*
X031850Y001189D01*
X031812Y001218D01*
X031775Y001250D01*
X031741Y001284D01*
X031711Y001321D01*
X031683Y001360D01*
X031658Y001402D01*
X031638Y001446D01*
X031620Y001491D01*
X031607Y001537D01*
X031597Y001584D01*
X031591Y001632D01*
X031589Y001680D01*
D11*
X032180Y001680D03*
X032180Y019180D03*
X001680Y019180D03*
X001680Y001680D03*
D12*
X005680Y017680D03*
D13*
X007239Y017680D03*
X008798Y017680D03*
X010357Y017680D03*
X011916Y017680D03*
X013475Y017680D03*
X015034Y017680D03*
X016593Y017680D03*
D14*
X017200Y008719D03*
X018853Y008719D03*
X020507Y008719D03*
X022160Y008719D03*
X023814Y008719D03*
X025467Y008719D03*
X027121Y008719D03*
X028774Y008719D03*
X028774Y006554D03*
X027121Y006554D03*
X025467Y006554D03*
X023814Y006554D03*
X022160Y006554D03*
X020507Y006554D03*
X018853Y006554D03*
X017200Y006554D03*
X015546Y006554D03*
X013893Y006554D03*
X012239Y006554D03*
X010586Y006554D03*
X010586Y008719D03*
X012239Y008719D03*
X013893Y008719D03*
X015546Y008719D03*
D15*
X010680Y011430D03*
X006180Y015180D03*
X001680Y011430D03*
X015180Y015180D03*
X030180Y013180D03*
X031180Y009180D03*
X031180Y003180D03*
X030180Y019180D03*
D16*
X030680Y011430D03*
X027680Y011430D03*
X017180Y012680D03*
X017180Y009680D03*
X001180Y014680D03*
X001180Y017680D03*
D17*
X003180Y017440D02*
X003180Y017920D01*
X004180Y017920D02*
X004180Y017440D01*
X016440Y015180D02*
X016920Y015180D01*
X016920Y014180D02*
X016440Y014180D01*
X031690Y012680D02*
X032170Y012680D01*
X032170Y011680D02*
X031690Y011680D01*
D18*
X025680Y011680D03*
X024180Y011680D03*
X022680Y011680D03*
X021180Y011680D03*
X019680Y011680D03*
X019680Y013680D03*
X021180Y013680D03*
X022680Y013680D03*
X024180Y013680D03*
X025680Y013680D03*
X025180Y015680D03*
X023680Y015680D03*
X022180Y015680D03*
X020680Y015680D03*
X020680Y017680D03*
X022180Y017680D03*
X023680Y017680D03*
X025180Y017680D03*
X026680Y017680D03*
X028180Y017680D03*
X028180Y015680D03*
X026680Y015680D03*
X015180Y012680D03*
X013680Y012680D03*
X012180Y012680D03*
X012180Y010680D03*
X013680Y010680D03*
X015180Y010680D03*
X007680Y007680D03*
X006180Y007680D03*
X004680Y007680D03*
X003180Y007680D03*
X001680Y007680D03*
X001680Y005680D03*
X003180Y005680D03*
X004680Y005680D03*
X006180Y005680D03*
X007680Y005680D03*
M02*
