G75*
G70*
%OFA0B0*%
%FSLAX24Y24*%
%IPPOS*%
%LPD*%
%AMOC8*
5,1,8,0,0,1.08239X$1,22.5*
%
%ADD10C,0.0000*%
%ADD11R,0.0886X0.0886*%
%ADD12C,0.0886*%
%ADD13C,0.1142*%
%ADD14OC8,0.0600*%
%ADD15OC8,0.0480*%
%ADD16C,0.0480*%
%ADD17R,0.1181X0.1181*%
%ADD18C,0.0160*%
%ADD19C,0.0500*%
%ADD20C,0.1000*%
D10*
X000180Y000680D02*
X000180Y020365D01*
X033550Y020365D01*
X033550Y000680D01*
X000180Y000680D01*
X001089Y001680D02*
X001091Y001728D01*
X001097Y001776D01*
X001107Y001823D01*
X001120Y001869D01*
X001138Y001914D01*
X001158Y001958D01*
X001183Y002000D01*
X001211Y002039D01*
X001241Y002076D01*
X001275Y002110D01*
X001312Y002142D01*
X001350Y002171D01*
X001391Y002196D01*
X001434Y002218D01*
X001479Y002236D01*
X001525Y002250D01*
X001572Y002261D01*
X001620Y002268D01*
X001668Y002271D01*
X001716Y002270D01*
X001764Y002265D01*
X001812Y002256D01*
X001858Y002244D01*
X001903Y002227D01*
X001947Y002207D01*
X001989Y002184D01*
X002029Y002157D01*
X002067Y002127D01*
X002102Y002094D01*
X002134Y002058D01*
X002164Y002020D01*
X002190Y001979D01*
X002212Y001936D01*
X002232Y001892D01*
X002247Y001847D01*
X002259Y001800D01*
X002267Y001752D01*
X002271Y001704D01*
X002271Y001656D01*
X002267Y001608D01*
X002259Y001560D01*
X002247Y001513D01*
X002232Y001468D01*
X002212Y001424D01*
X002190Y001381D01*
X002164Y001340D01*
X002134Y001302D01*
X002102Y001266D01*
X002067Y001233D01*
X002029Y001203D01*
X001989Y001176D01*
X001947Y001153D01*
X001903Y001133D01*
X001858Y001116D01*
X001812Y001104D01*
X001764Y001095D01*
X001716Y001090D01*
X001668Y001089D01*
X001620Y001092D01*
X001572Y001099D01*
X001525Y001110D01*
X001479Y001124D01*
X001434Y001142D01*
X001391Y001164D01*
X001350Y001189D01*
X001312Y001218D01*
X001275Y001250D01*
X001241Y001284D01*
X001211Y001321D01*
X001183Y001360D01*
X001158Y001402D01*
X001138Y001446D01*
X001120Y001491D01*
X001107Y001537D01*
X001097Y001584D01*
X001091Y001632D01*
X001089Y001680D01*
X001089Y019180D02*
X001091Y019228D01*
X001097Y019276D01*
X001107Y019323D01*
X001120Y019369D01*
X001138Y019414D01*
X001158Y019458D01*
X001183Y019500D01*
X001211Y019539D01*
X001241Y019576D01*
X001275Y019610D01*
X001312Y019642D01*
X001350Y019671D01*
X001391Y019696D01*
X001434Y019718D01*
X001479Y019736D01*
X001525Y019750D01*
X001572Y019761D01*
X001620Y019768D01*
X001668Y019771D01*
X001716Y019770D01*
X001764Y019765D01*
X001812Y019756D01*
X001858Y019744D01*
X001903Y019727D01*
X001947Y019707D01*
X001989Y019684D01*
X002029Y019657D01*
X002067Y019627D01*
X002102Y019594D01*
X002134Y019558D01*
X002164Y019520D01*
X002190Y019479D01*
X002212Y019436D01*
X002232Y019392D01*
X002247Y019347D01*
X002259Y019300D01*
X002267Y019252D01*
X002271Y019204D01*
X002271Y019156D01*
X002267Y019108D01*
X002259Y019060D01*
X002247Y019013D01*
X002232Y018968D01*
X002212Y018924D01*
X002190Y018881D01*
X002164Y018840D01*
X002134Y018802D01*
X002102Y018766D01*
X002067Y018733D01*
X002029Y018703D01*
X001989Y018676D01*
X001947Y018653D01*
X001903Y018633D01*
X001858Y018616D01*
X001812Y018604D01*
X001764Y018595D01*
X001716Y018590D01*
X001668Y018589D01*
X001620Y018592D01*
X001572Y018599D01*
X001525Y018610D01*
X001479Y018624D01*
X001434Y018642D01*
X001391Y018664D01*
X001350Y018689D01*
X001312Y018718D01*
X001275Y018750D01*
X001241Y018784D01*
X001211Y018821D01*
X001183Y018860D01*
X001158Y018902D01*
X001138Y018946D01*
X001120Y018991D01*
X001107Y019037D01*
X001097Y019084D01*
X001091Y019132D01*
X001089Y019180D01*
X031589Y019180D02*
X031591Y019228D01*
X031597Y019276D01*
X031607Y019323D01*
X031620Y019369D01*
X031638Y019414D01*
X031658Y019458D01*
X031683Y019500D01*
X031711Y019539D01*
X031741Y019576D01*
X031775Y019610D01*
X031812Y019642D01*
X031850Y019671D01*
X031891Y019696D01*
X031934Y019718D01*
X031979Y019736D01*
X032025Y019750D01*
X032072Y019761D01*
X032120Y019768D01*
X032168Y019771D01*
X032216Y019770D01*
X032264Y019765D01*
X032312Y019756D01*
X032358Y019744D01*
X032403Y019727D01*
X032447Y019707D01*
X032489Y019684D01*
X032529Y019657D01*
X032567Y019627D01*
X032602Y019594D01*
X032634Y019558D01*
X032664Y019520D01*
X032690Y019479D01*
X032712Y019436D01*
X032732Y019392D01*
X032747Y019347D01*
X032759Y019300D01*
X032767Y019252D01*
X032771Y019204D01*
X032771Y019156D01*
X032767Y019108D01*
X032759Y019060D01*
X032747Y019013D01*
X032732Y018968D01*
X032712Y018924D01*
X032690Y018881D01*
X032664Y018840D01*
X032634Y018802D01*
X032602Y018766D01*
X032567Y018733D01*
X032529Y018703D01*
X032489Y018676D01*
X032447Y018653D01*
X032403Y018633D01*
X032358Y018616D01*
X032312Y018604D01*
X032264Y018595D01*
X032216Y018590D01*
X032168Y018589D01*
X032120Y018592D01*
X032072Y018599D01*
X032025Y018610D01*
X031979Y018624D01*
X031934Y018642D01*
X031891Y018664D01*
X031850Y018689D01*
X031812Y018718D01*
X031775Y018750D01*
X031741Y018784D01*
X031711Y018821D01*
X031683Y018860D01*
X031658Y018902D01*
X031638Y018946D01*
X031620Y018991D01*
X031607Y019037D01*
X031597Y019084D01*
X031591Y019132D01*
X031589Y019180D01*
X031589Y001680D02*
X031591Y001728D01*
X031597Y001776D01*
X031607Y001823D01*
X031620Y001869D01*
X031638Y001914D01*
X031658Y001958D01*
X031683Y002000D01*
X031711Y002039D01*
X031741Y002076D01*
X031775Y002110D01*
X031812Y002142D01*
X031850Y002171D01*
X031891Y002196D01*
X031934Y002218D01*
X031979Y002236D01*
X032025Y002250D01*
X032072Y002261D01*
X032120Y002268D01*
X032168Y002271D01*
X032216Y002270D01*
X032264Y002265D01*
X032312Y002256D01*
X032358Y002244D01*
X032403Y002227D01*
X032447Y002207D01*
X032489Y002184D01*
X032529Y002157D01*
X032567Y002127D01*
X032602Y002094D01*
X032634Y002058D01*
X032664Y002020D01*
X032690Y001979D01*
X032712Y001936D01*
X032732Y001892D01*
X032747Y001847D01*
X032759Y001800D01*
X032767Y001752D01*
X032771Y001704D01*
X032771Y001656D01*
X032767Y001608D01*
X032759Y001560D01*
X032747Y001513D01*
X032732Y001468D01*
X032712Y001424D01*
X032690Y001381D01*
X032664Y001340D01*
X032634Y001302D01*
X032602Y001266D01*
X032567Y001233D01*
X032529Y001203D01*
X032489Y001176D01*
X032447Y001153D01*
X032403Y001133D01*
X032358Y001116D01*
X032312Y001104D01*
X032264Y001095D01*
X032216Y001090D01*
X032168Y001089D01*
X032120Y001092D01*
X032072Y001099D01*
X032025Y001110D01*
X031979Y001124D01*
X031934Y001142D01*
X031891Y001164D01*
X031850Y001189D01*
X031812Y001218D01*
X031775Y001250D01*
X031741Y001284D01*
X031711Y001321D01*
X031683Y001360D01*
X031658Y001402D01*
X031638Y001446D01*
X031620Y001491D01*
X031607Y001537D01*
X031597Y001584D01*
X031591Y001632D01*
X031589Y001680D01*
D11*
X005680Y017680D03*
D12*
X007239Y017680D03*
X008798Y017680D03*
X010357Y017680D03*
X011916Y017680D03*
X013475Y017680D03*
X015034Y017680D03*
X016593Y017680D03*
D13*
X017200Y008719D03*
X018853Y008719D03*
X020507Y008719D03*
X022160Y008719D03*
X023814Y008719D03*
X025467Y008719D03*
X027121Y008719D03*
X028774Y008719D03*
X028774Y006554D03*
X027121Y006554D03*
X025467Y006554D03*
X023814Y006554D03*
X022160Y006554D03*
X020507Y006554D03*
X018853Y006554D03*
X017200Y006554D03*
X015546Y006554D03*
X013893Y006554D03*
X012239Y006554D03*
X010586Y006554D03*
X010586Y008719D03*
X012239Y008719D03*
X013893Y008719D03*
X015546Y008719D03*
D14*
X010680Y011430D03*
X006180Y015180D03*
X001680Y011430D03*
X015180Y015180D03*
X030180Y013180D03*
X031180Y009180D03*
X031180Y003180D03*
X030180Y019180D03*
D15*
X030680Y011430D03*
X027680Y011430D03*
X017180Y012680D03*
X017180Y009680D03*
X001180Y014680D03*
X001180Y017680D03*
D16*
X003180Y017440D02*
X003180Y017920D01*
X004180Y017920D02*
X004180Y017440D01*
X016440Y015180D02*
X016920Y015180D01*
X016920Y014180D02*
X016440Y014180D01*
X031690Y012680D02*
X032170Y012680D01*
X032170Y011680D02*
X031690Y011680D01*
D17*
X025680Y011680D03*
X024180Y011680D03*
X022680Y011680D03*
X021180Y011680D03*
X019680Y011680D03*
X019680Y013680D03*
X021180Y013680D03*
X022680Y013680D03*
X024180Y013680D03*
X025680Y013680D03*
X025180Y015680D03*
X023680Y015680D03*
X022180Y015680D03*
X020680Y015680D03*
X020680Y017680D03*
X022180Y017680D03*
X023680Y017680D03*
X025180Y017680D03*
X026680Y017680D03*
X028180Y017680D03*
X028180Y015680D03*
X026680Y015680D03*
X015180Y012680D03*
X013680Y012680D03*
X012180Y012680D03*
X012180Y010680D03*
X013680Y010680D03*
X015180Y010680D03*
X007680Y007680D03*
X006180Y007680D03*
X004680Y007680D03*
X003180Y007680D03*
X001680Y007680D03*
X001680Y005680D03*
X003180Y005680D03*
X004680Y005680D03*
X006180Y005680D03*
X007680Y005680D03*
D18*
X009680Y005680D02*
X011430Y005680D01*
X011430Y007680D01*
X014680Y007680D01*
X014680Y001680D01*
X002551Y001680D01*
X002551Y001853D01*
X002418Y002173D01*
X002173Y002418D01*
X001853Y002551D01*
X001507Y002551D01*
X001187Y002418D01*
X000942Y002173D01*
X000809Y001853D01*
X000809Y001680D01*
X000680Y001680D01*
X000680Y016680D01*
X011180Y016680D01*
X011180Y018180D01*
X011579Y018180D01*
X011523Y018140D01*
X011456Y018073D01*
X011401Y017996D01*
X011357Y017911D01*
X011328Y017821D01*
X011317Y017748D01*
X011849Y017748D01*
X011849Y017612D01*
X011984Y017612D01*
X011984Y017080D01*
X012057Y017092D01*
X012148Y017121D01*
X012232Y017164D01*
X012309Y017220D01*
X012376Y017287D01*
X012432Y017364D01*
X012475Y017449D01*
X012504Y017539D01*
X012516Y017612D01*
X011984Y017612D01*
X011984Y017748D01*
X012516Y017748D01*
X012504Y017821D01*
X012475Y017911D01*
X012432Y017996D01*
X012376Y018073D01*
X012309Y018140D01*
X012254Y018180D01*
X013138Y018180D01*
X013083Y018140D01*
X013015Y018073D01*
X012960Y017996D01*
X012917Y017911D01*
X012887Y017821D01*
X012876Y017748D01*
X013408Y017748D01*
X013408Y017612D01*
X013543Y017612D01*
X013543Y017080D01*
X013616Y017092D01*
X013707Y017121D01*
X013791Y017164D01*
X013930Y017164D01*
X013868Y017220D02*
X013930Y017282D01*
X013930Y013680D01*
X009680Y013680D01*
X009680Y005680D01*
X009680Y005752D02*
X000680Y005752D01*
X000680Y005594D02*
X014680Y005594D01*
X014680Y005752D02*
X011430Y005752D01*
X011430Y005911D02*
X011892Y005911D01*
X011915Y005897D02*
X012004Y005860D01*
X012096Y005836D01*
X012159Y005827D01*
X012159Y006474D01*
X011512Y006474D01*
X011521Y006411D01*
X011545Y006319D01*
X011582Y006230D01*
X011630Y006147D01*
X011688Y006071D01*
X011756Y006003D01*
X011832Y005945D01*
X011915Y005897D01*
X012159Y005911D02*
X012319Y005911D01*
X012319Y005827D02*
X012382Y005836D01*
X012474Y005860D01*
X012563Y005897D01*
X012646Y005945D01*
X012722Y006003D01*
X012790Y006071D01*
X012848Y006147D01*
X012896Y006230D01*
X012933Y006319D01*
X012957Y006411D01*
X012966Y006474D01*
X012319Y006474D01*
X012319Y005827D01*
X012319Y006069D02*
X012159Y006069D01*
X012159Y006228D02*
X012319Y006228D01*
X012319Y006386D02*
X012159Y006386D01*
X012159Y006474D02*
X012319Y006474D01*
X012319Y006634D01*
X012159Y006634D01*
X012159Y006474D01*
X012159Y006545D02*
X011430Y006545D01*
X011512Y006634D02*
X012159Y006634D01*
X012159Y007281D01*
X012096Y007272D01*
X012004Y007248D01*
X011915Y007211D01*
X011832Y007163D01*
X011756Y007105D01*
X011688Y007037D01*
X011630Y006961D01*
X011582Y006878D01*
X011545Y006789D01*
X011521Y006697D01*
X011512Y006634D01*
X011522Y006703D02*
X011430Y006703D01*
X011430Y006862D02*
X011575Y006862D01*
X011675Y007020D02*
X011430Y007020D01*
X011430Y007179D02*
X011859Y007179D01*
X012159Y007179D02*
X012319Y007179D01*
X012319Y007281D02*
X012382Y007272D01*
X012474Y007248D01*
X012563Y007211D01*
X012646Y007163D01*
X012722Y007105D01*
X012790Y007037D01*
X012848Y006961D01*
X012896Y006878D01*
X012933Y006789D01*
X012957Y006697D01*
X012966Y006634D01*
X012319Y006634D01*
X012319Y007281D01*
X012319Y007020D02*
X012159Y007020D01*
X012159Y006862D02*
X012319Y006862D01*
X012319Y006703D02*
X012159Y006703D01*
X012319Y006545D02*
X013813Y006545D01*
X013813Y006474D02*
X013166Y006474D01*
X013174Y006411D01*
X013199Y006319D01*
X013236Y006230D01*
X013284Y006147D01*
X013342Y006071D01*
X013410Y006003D01*
X013486Y005945D01*
X013569Y005897D01*
X013657Y005860D01*
X013750Y005836D01*
X013813Y005827D01*
X013813Y006474D01*
X013973Y006474D01*
X013973Y006634D01*
X014619Y006634D01*
X014611Y006697D01*
X014586Y006789D01*
X014549Y006878D01*
X014502Y006961D01*
X014443Y007037D01*
X014376Y007105D01*
X014300Y007163D01*
X014217Y007211D01*
X014128Y007248D01*
X014035Y007272D01*
X013973Y007281D01*
X013973Y006634D01*
X013813Y006634D01*
X013813Y007281D01*
X013750Y007272D01*
X013657Y007248D01*
X013569Y007211D01*
X013486Y007163D01*
X013410Y007105D01*
X013342Y007037D01*
X013284Y006961D01*
X013236Y006878D01*
X013199Y006789D01*
X013174Y006697D01*
X013166Y006634D01*
X013813Y006634D01*
X013813Y006474D01*
X013813Y006386D02*
X013973Y006386D01*
X013973Y006474D02*
X013973Y005827D01*
X014035Y005836D01*
X014128Y005860D01*
X014217Y005897D01*
X014300Y005945D01*
X014376Y006003D01*
X014443Y006071D01*
X014502Y006147D01*
X014549Y006230D01*
X014586Y006319D01*
X014611Y006411D01*
X014619Y006474D01*
X013973Y006474D01*
X013973Y006545D02*
X014680Y006545D01*
X014680Y006703D02*
X014609Y006703D01*
X014556Y006862D02*
X014680Y006862D01*
X014680Y007020D02*
X014456Y007020D01*
X014273Y007179D02*
X014680Y007179D01*
X014680Y007337D02*
X011430Y007337D01*
X011430Y007496D02*
X014680Y007496D01*
X014680Y007654D02*
X011430Y007654D01*
X011430Y008180D02*
X011430Y009680D01*
X010180Y009680D01*
X010180Y013180D01*
X014430Y013180D01*
X014430Y018180D01*
X015680Y018180D01*
X015680Y013180D01*
X016430Y013180D01*
X016430Y008180D01*
X011430Y008180D01*
X011430Y008288D02*
X016430Y008288D01*
X016430Y008447D02*
X011430Y008447D01*
X011430Y008605D02*
X016430Y008605D01*
X016430Y008764D02*
X011430Y008764D01*
X011430Y008922D02*
X016430Y008922D01*
X016430Y009081D02*
X011430Y009081D01*
X011430Y009239D02*
X016430Y009239D01*
X016430Y009398D02*
X011430Y009398D01*
X011430Y009556D02*
X016430Y009556D01*
X016430Y009715D02*
X010180Y009715D01*
X010180Y009873D02*
X016430Y009873D01*
X016430Y010032D02*
X010180Y010032D01*
X010180Y010190D02*
X016430Y010190D01*
X016430Y010349D02*
X010180Y010349D01*
X010180Y010507D02*
X016430Y010507D01*
X016430Y010666D02*
X010180Y010666D01*
X010180Y010824D02*
X016430Y010824D01*
X016430Y010983D02*
X010180Y010983D01*
X010180Y011141D02*
X016430Y011141D01*
X016430Y011300D02*
X010180Y011300D01*
X010180Y011458D02*
X016430Y011458D01*
X016430Y011617D02*
X010180Y011617D01*
X010180Y011775D02*
X016430Y011775D01*
X016430Y011934D02*
X010180Y011934D01*
X010180Y012092D02*
X016430Y012092D01*
X016430Y012251D02*
X010180Y012251D01*
X010180Y012409D02*
X016430Y012409D01*
X016430Y012568D02*
X010180Y012568D01*
X010180Y012726D02*
X016430Y012726D01*
X016430Y012885D02*
X010180Y012885D01*
X010180Y013043D02*
X016430Y013043D01*
X015680Y013202D02*
X014430Y013202D01*
X014430Y013360D02*
X015680Y013360D01*
X015680Y013519D02*
X014430Y013519D01*
X014430Y013677D02*
X015680Y013677D01*
X015680Y013836D02*
X014430Y013836D01*
X014430Y013994D02*
X015680Y013994D01*
X015680Y014153D02*
X014430Y014153D01*
X014430Y014311D02*
X015680Y014311D01*
X015680Y014470D02*
X014430Y014470D01*
X014430Y014628D02*
X015680Y014628D01*
X015680Y014787D02*
X014430Y014787D01*
X014430Y014945D02*
X015680Y014945D01*
X015680Y015104D02*
X014430Y015104D01*
X014430Y015262D02*
X015680Y015262D01*
X015680Y015421D02*
X014430Y015421D01*
X014430Y015579D02*
X015680Y015579D01*
X015680Y015738D02*
X014430Y015738D01*
X014430Y015896D02*
X015680Y015896D01*
X015680Y016055D02*
X014430Y016055D01*
X014430Y016213D02*
X015680Y016213D01*
X015680Y016372D02*
X014430Y016372D01*
X014430Y016530D02*
X015680Y016530D01*
X015680Y016689D02*
X014430Y016689D01*
X014430Y016847D02*
X015680Y016847D01*
X015680Y017006D02*
X014430Y017006D01*
X014430Y017164D02*
X015680Y017164D01*
X015680Y017323D02*
X014430Y017323D01*
X014430Y017481D02*
X015680Y017481D01*
X015680Y017640D02*
X014430Y017640D01*
X014430Y017798D02*
X015680Y017798D01*
X015680Y017957D02*
X014430Y017957D01*
X014430Y018115D02*
X015680Y018115D01*
X016526Y017612D02*
X016661Y017612D01*
X016661Y017080D01*
X016735Y017092D01*
X016825Y017121D01*
X016909Y017164D01*
X019680Y017164D01*
X019680Y017006D02*
X016430Y017006D01*
X016452Y017092D02*
X016526Y017080D01*
X016526Y017612D01*
X016526Y017481D02*
X016661Y017481D01*
X016661Y017612D02*
X016661Y017748D01*
X017193Y017748D01*
X017181Y017821D01*
X017152Y017911D01*
X017109Y017996D01*
X017053Y018073D01*
X016986Y018140D01*
X016931Y018180D01*
X019680Y018180D01*
X019680Y014680D01*
X029680Y014680D01*
X029680Y005930D01*
X029155Y005930D01*
X029181Y005945D01*
X029257Y006003D01*
X029325Y006071D01*
X029383Y006147D01*
X029431Y006230D01*
X029468Y006319D01*
X029493Y006411D01*
X029501Y006474D01*
X028854Y006474D01*
X028854Y006634D01*
X028694Y006634D01*
X028694Y007281D01*
X028632Y007272D01*
X028539Y007248D01*
X028451Y007211D01*
X028368Y007163D01*
X028292Y007105D01*
X028224Y007037D01*
X028180Y006980D01*
X028180Y008294D01*
X028224Y008236D01*
X028292Y008169D01*
X028368Y008110D01*
X028451Y008062D01*
X028539Y008026D01*
X028632Y008001D01*
X028694Y007993D01*
X028694Y008639D01*
X028854Y008639D01*
X028854Y007993D01*
X028917Y008001D01*
X029010Y008026D01*
X029098Y008062D01*
X029181Y008110D01*
X029257Y008169D01*
X029325Y008236D01*
X029383Y008312D01*
X029431Y008395D01*
X029468Y008484D01*
X029493Y008576D01*
X029501Y008639D01*
X028854Y008639D01*
X028854Y008799D01*
X028694Y008799D01*
X028694Y009446D01*
X028632Y009438D01*
X028539Y009413D01*
X028451Y009376D01*
X028368Y009328D01*
X028292Y009270D01*
X028224Y009202D01*
X028180Y009145D01*
X028180Y009930D01*
X017680Y009930D01*
X017680Y015930D01*
X016430Y015930D01*
X016430Y017099D01*
X016452Y017092D01*
X016526Y017164D02*
X016661Y017164D01*
X016661Y017323D02*
X016526Y017323D01*
X016909Y017164D02*
X016986Y017220D01*
X017053Y017287D01*
X017109Y017364D01*
X017152Y017449D01*
X017181Y017539D01*
X017193Y017612D01*
X016661Y017612D01*
X016661Y017640D02*
X019680Y017640D01*
X019680Y017798D02*
X017185Y017798D01*
X017129Y017957D02*
X019680Y017957D01*
X019680Y018115D02*
X017011Y018115D01*
X017163Y017481D02*
X019680Y017481D01*
X019680Y017323D02*
X017079Y017323D01*
X016430Y016847D02*
X019680Y016847D01*
X019680Y016689D02*
X016430Y016689D01*
X016430Y016530D02*
X019680Y016530D01*
X019680Y016372D02*
X016430Y016372D01*
X016430Y016213D02*
X019680Y016213D01*
X019680Y016055D02*
X016430Y016055D01*
X017680Y015896D02*
X019680Y015896D01*
X019680Y015738D02*
X017680Y015738D01*
X017680Y015579D02*
X019680Y015579D01*
X019680Y015421D02*
X017680Y015421D01*
X017680Y015262D02*
X019680Y015262D01*
X019680Y015104D02*
X017680Y015104D01*
X017680Y014945D02*
X019680Y014945D01*
X019680Y014787D02*
X017680Y014787D01*
X017680Y014628D02*
X029680Y014628D01*
X029680Y014470D02*
X017680Y014470D01*
X017680Y014311D02*
X029680Y014311D01*
X029680Y014153D02*
X017680Y014153D01*
X017680Y013994D02*
X029680Y013994D01*
X029680Y013836D02*
X017680Y013836D01*
X017680Y013677D02*
X029680Y013677D01*
X029680Y013519D02*
X017680Y013519D01*
X017680Y013360D02*
X029680Y013360D01*
X029680Y013202D02*
X017680Y013202D01*
X017680Y013043D02*
X029680Y013043D01*
X029680Y012885D02*
X017680Y012885D01*
X017680Y012726D02*
X029680Y012726D01*
X029680Y012568D02*
X017680Y012568D01*
X017680Y012409D02*
X029680Y012409D01*
X029680Y012251D02*
X017680Y012251D01*
X017680Y012092D02*
X029680Y012092D01*
X029680Y011934D02*
X017680Y011934D01*
X017680Y011775D02*
X027459Y011775D01*
X027514Y011830D02*
X027280Y011596D01*
X027280Y011430D01*
X027680Y011430D01*
X028080Y011430D01*
X028080Y011596D01*
X027846Y011830D01*
X027680Y011830D01*
X027680Y011430D01*
X027680Y011430D01*
X027680Y011430D01*
X028080Y011430D01*
X028080Y011264D01*
X027846Y011030D01*
X027680Y011030D01*
X027680Y011430D01*
X027680Y011430D01*
X027680Y011430D01*
X027680Y011830D01*
X027514Y011830D01*
X027680Y011775D02*
X027680Y011775D01*
X027680Y011617D02*
X027680Y011617D01*
X027680Y011458D02*
X027680Y011458D01*
X027680Y011430D02*
X027280Y011430D01*
X027280Y011264D01*
X027514Y011030D01*
X027680Y011030D01*
X027680Y011430D01*
X027680Y011300D02*
X027680Y011300D01*
X027680Y011141D02*
X027680Y011141D01*
X027957Y011141D02*
X029680Y011141D01*
X029680Y010983D02*
X017680Y010983D01*
X017680Y011141D02*
X027403Y011141D01*
X027280Y011300D02*
X017680Y011300D01*
X017680Y011458D02*
X027280Y011458D01*
X027301Y011617D02*
X017680Y011617D01*
X017680Y010824D02*
X029680Y010824D01*
X029680Y010666D02*
X017680Y010666D01*
X017680Y010507D02*
X029680Y010507D01*
X029680Y010349D02*
X017680Y010349D01*
X017680Y010190D02*
X029680Y010190D01*
X029680Y010032D02*
X017680Y010032D01*
X013973Y007179D02*
X013813Y007179D01*
X013813Y007020D02*
X013973Y007020D01*
X013973Y006862D02*
X013813Y006862D01*
X013813Y006703D02*
X013973Y006703D01*
X013329Y007020D02*
X012803Y007020D01*
X012903Y006862D02*
X013229Y006862D01*
X013176Y006703D02*
X012956Y006703D01*
X012951Y006386D02*
X013181Y006386D01*
X013237Y006228D02*
X012894Y006228D01*
X012788Y006069D02*
X013344Y006069D01*
X013545Y005911D02*
X012586Y005911D01*
X011690Y006069D02*
X011430Y006069D01*
X011430Y006228D02*
X011584Y006228D01*
X011527Y006386D02*
X011430Y006386D01*
X012619Y007179D02*
X013513Y007179D01*
X013813Y006228D02*
X013973Y006228D01*
X013973Y006069D02*
X013813Y006069D01*
X013813Y005911D02*
X013973Y005911D01*
X014240Y005911D02*
X014680Y005911D01*
X014680Y006069D02*
X014441Y006069D01*
X014548Y006228D02*
X014680Y006228D01*
X014680Y006386D02*
X014604Y006386D01*
X014680Y005435D02*
X000680Y005435D01*
X000680Y005277D02*
X014680Y005277D01*
X014680Y005118D02*
X000680Y005118D01*
X000680Y004960D02*
X014680Y004960D01*
X014680Y004801D02*
X000680Y004801D01*
X000680Y004643D02*
X014680Y004643D01*
X014680Y004484D02*
X000680Y004484D01*
X000680Y004326D02*
X014680Y004326D01*
X014680Y004167D02*
X000680Y004167D01*
X000680Y004009D02*
X014680Y004009D01*
X014680Y003850D02*
X000680Y003850D01*
X000680Y003692D02*
X014680Y003692D01*
X014680Y003533D02*
X000680Y003533D01*
X000680Y003375D02*
X014680Y003375D01*
X014680Y003216D02*
X000680Y003216D01*
X000680Y003058D02*
X014680Y003058D01*
X014680Y002899D02*
X000680Y002899D01*
X000680Y002741D02*
X014680Y002741D01*
X014680Y002582D02*
X000680Y002582D01*
X000680Y002424D02*
X001200Y002424D01*
X001034Y002265D02*
X000680Y002265D01*
X000680Y002107D02*
X000914Y002107D01*
X000849Y001948D02*
X000680Y001948D01*
X000680Y001790D02*
X000809Y001790D01*
X002160Y002424D02*
X014680Y002424D01*
X014680Y002265D02*
X002326Y002265D01*
X002446Y002107D02*
X014680Y002107D01*
X014680Y001948D02*
X002511Y001948D01*
X002551Y001790D02*
X014680Y001790D01*
X009680Y005911D02*
X000680Y005911D01*
X000680Y006069D02*
X009680Y006069D01*
X009680Y006228D02*
X000680Y006228D01*
X000680Y006386D02*
X009680Y006386D01*
X009680Y006545D02*
X000680Y006545D01*
X000680Y006703D02*
X009680Y006703D01*
X009680Y006862D02*
X000680Y006862D01*
X000680Y007020D02*
X009680Y007020D01*
X009680Y007179D02*
X000680Y007179D01*
X000680Y007337D02*
X009680Y007337D01*
X009680Y007496D02*
X000680Y007496D01*
X000680Y007654D02*
X009680Y007654D01*
X009680Y007813D02*
X000680Y007813D01*
X000680Y007971D02*
X009680Y007971D01*
X009680Y008130D02*
X000680Y008130D01*
X000680Y008288D02*
X009680Y008288D01*
X009680Y008447D02*
X000680Y008447D01*
X000680Y008605D02*
X009680Y008605D01*
X009680Y008764D02*
X000680Y008764D01*
X000680Y008922D02*
X009680Y008922D01*
X009680Y009081D02*
X000680Y009081D01*
X000680Y009239D02*
X009680Y009239D01*
X009680Y009398D02*
X000680Y009398D01*
X000680Y009556D02*
X009680Y009556D01*
X009680Y009715D02*
X000680Y009715D01*
X000680Y009873D02*
X009680Y009873D01*
X009680Y010032D02*
X000680Y010032D01*
X000680Y010190D02*
X009680Y010190D01*
X009680Y010349D02*
X000680Y010349D01*
X000680Y010507D02*
X009680Y010507D01*
X009680Y010666D02*
X000680Y010666D01*
X000680Y010824D02*
X009680Y010824D01*
X009680Y010983D02*
X001883Y010983D01*
X001871Y010970D02*
X002140Y011239D01*
X002140Y011621D01*
X001871Y011890D01*
X001489Y011890D01*
X001220Y011621D01*
X001220Y011239D01*
X001489Y010970D01*
X001871Y010970D01*
X002042Y011141D02*
X009680Y011141D01*
X009680Y011300D02*
X002140Y011300D01*
X002140Y011458D02*
X009680Y011458D01*
X009680Y011617D02*
X002140Y011617D01*
X001986Y011775D02*
X009680Y011775D01*
X009680Y011934D02*
X000680Y011934D01*
X000680Y012092D02*
X009680Y012092D01*
X009680Y012251D02*
X000680Y012251D01*
X000680Y012409D02*
X009680Y012409D01*
X009680Y012568D02*
X000680Y012568D01*
X000680Y012726D02*
X009680Y012726D01*
X009680Y012885D02*
X000680Y012885D01*
X000680Y013043D02*
X009680Y013043D01*
X009680Y013202D02*
X000680Y013202D01*
X000680Y013360D02*
X009680Y013360D01*
X009680Y013519D02*
X000680Y013519D01*
X000680Y013677D02*
X009680Y013677D01*
X006640Y014989D02*
X006640Y015371D01*
X006371Y015640D01*
X005989Y015640D01*
X005720Y015371D01*
X005720Y014989D01*
X005989Y014720D01*
X006371Y014720D01*
X006640Y014989D01*
X006596Y014945D02*
X013930Y014945D01*
X013930Y014787D02*
X006437Y014787D01*
X006640Y015104D02*
X013930Y015104D01*
X013930Y015262D02*
X006640Y015262D01*
X006590Y015421D02*
X013930Y015421D01*
X013930Y015579D02*
X006432Y015579D01*
X005928Y015579D02*
X000680Y015579D01*
X000680Y015421D02*
X005770Y015421D01*
X005720Y015262D02*
X000680Y015262D01*
X000680Y015104D02*
X005720Y015104D01*
X005764Y014945D02*
X001481Y014945D01*
X001580Y014846D02*
X001346Y015080D01*
X001180Y015080D01*
X001180Y014680D01*
X001180Y014680D01*
X001580Y014680D01*
X001580Y014846D01*
X001580Y014787D02*
X005923Y014787D01*
X001580Y014680D02*
X001180Y014680D01*
X001180Y014680D01*
X001180Y014680D01*
X000780Y014680D01*
X000780Y014846D01*
X001014Y015080D01*
X001180Y015080D01*
X001180Y014680D01*
X001180Y014280D01*
X001346Y014280D01*
X001580Y014514D01*
X001580Y014680D01*
X001580Y014628D02*
X013930Y014628D01*
X013930Y014470D02*
X001535Y014470D01*
X001377Y014311D02*
X013930Y014311D01*
X013930Y014153D02*
X000680Y014153D01*
X000680Y014311D02*
X000983Y014311D01*
X001014Y014280D02*
X000780Y014514D01*
X000780Y014680D01*
X001180Y014680D01*
X001180Y014680D01*
X001180Y014280D01*
X001014Y014280D01*
X001180Y014311D02*
X001180Y014311D01*
X001180Y014470D02*
X001180Y014470D01*
X001180Y014628D02*
X001180Y014628D01*
X001180Y014787D02*
X001180Y014787D01*
X001180Y014945D02*
X001180Y014945D01*
X000879Y014945D02*
X000680Y014945D01*
X000680Y014787D02*
X000780Y014787D01*
X000780Y014628D02*
X000680Y014628D01*
X000680Y014470D02*
X000825Y014470D01*
X000680Y013994D02*
X013930Y013994D01*
X013930Y013836D02*
X000680Y013836D01*
X000680Y015738D02*
X013930Y015738D01*
X013930Y015896D02*
X000680Y015896D01*
X000680Y016055D02*
X013930Y016055D01*
X013930Y016213D02*
X000680Y016213D01*
X000680Y016372D02*
X013930Y016372D01*
X013930Y016530D02*
X000680Y016530D01*
X000680Y011775D02*
X001374Y011775D01*
X001220Y011617D02*
X000680Y011617D01*
X000680Y011458D02*
X001220Y011458D01*
X001220Y011300D02*
X000680Y011300D01*
X000680Y011141D02*
X001318Y011141D01*
X001477Y010983D02*
X000680Y010983D01*
X011180Y016689D02*
X013930Y016689D01*
X013930Y016847D02*
X011180Y016847D01*
X011180Y017006D02*
X013930Y017006D01*
X013791Y017164D02*
X013868Y017220D01*
X013543Y017164D02*
X013408Y017164D01*
X013408Y017080D02*
X013408Y017612D01*
X012876Y017612D01*
X012887Y017539D01*
X012917Y017449D01*
X012960Y017364D01*
X013015Y017287D01*
X013083Y017220D01*
X013159Y017164D01*
X013244Y017121D01*
X013334Y017092D01*
X013408Y017080D01*
X013408Y017323D02*
X013543Y017323D01*
X013543Y017481D02*
X013408Y017481D01*
X013408Y017640D02*
X011984Y017640D01*
X011849Y017640D02*
X011180Y017640D01*
X011317Y017612D02*
X011328Y017539D01*
X011357Y017449D01*
X011401Y017364D01*
X011456Y017287D01*
X011523Y017220D01*
X011600Y017164D01*
X011685Y017121D01*
X011775Y017092D01*
X011849Y017080D01*
X011849Y017612D01*
X011317Y017612D01*
X011347Y017481D02*
X011180Y017481D01*
X011180Y017323D02*
X011431Y017323D01*
X011601Y017164D02*
X011180Y017164D01*
X011180Y017798D02*
X011324Y017798D01*
X011380Y017957D02*
X011180Y017957D01*
X011180Y018115D02*
X011499Y018115D01*
X012334Y018115D02*
X013058Y018115D01*
X012940Y017957D02*
X012452Y017957D01*
X012508Y017798D02*
X012884Y017798D01*
X012906Y017481D02*
X012486Y017481D01*
X012402Y017323D02*
X012990Y017323D01*
X013160Y017164D02*
X012232Y017164D01*
X011984Y017164D02*
X011849Y017164D01*
X011849Y017323D02*
X011984Y017323D01*
X011984Y017481D02*
X011849Y017481D01*
X027901Y011775D02*
X029680Y011775D01*
X029680Y011617D02*
X028059Y011617D01*
X028080Y011458D02*
X029680Y011458D01*
X029680Y011300D02*
X028080Y011300D01*
X028180Y009873D02*
X029680Y009873D01*
X029680Y009715D02*
X028180Y009715D01*
X028180Y009556D02*
X029680Y009556D01*
X029680Y009398D02*
X029047Y009398D01*
X029010Y009413D02*
X028917Y009438D01*
X028854Y009446D01*
X028854Y008799D01*
X029501Y008799D01*
X029493Y008862D01*
X029468Y008955D01*
X029431Y009043D01*
X029383Y009126D01*
X029325Y009202D01*
X029257Y009270D01*
X029181Y009328D01*
X029098Y009376D01*
X029010Y009413D01*
X028854Y009398D02*
X028694Y009398D01*
X028694Y009239D02*
X028854Y009239D01*
X028854Y009081D02*
X028694Y009081D01*
X028694Y008922D02*
X028854Y008922D01*
X028854Y008764D02*
X029680Y008764D01*
X029680Y008922D02*
X029477Y008922D01*
X029410Y009081D02*
X029680Y009081D01*
X029680Y009239D02*
X029288Y009239D01*
X029497Y008605D02*
X029680Y008605D01*
X029680Y008447D02*
X029453Y008447D01*
X029365Y008288D02*
X029680Y008288D01*
X029680Y008130D02*
X029206Y008130D01*
X028854Y008130D02*
X028694Y008130D01*
X028694Y008288D02*
X028854Y008288D01*
X028854Y008447D02*
X028694Y008447D01*
X028694Y008605D02*
X028854Y008605D01*
X028343Y008130D02*
X028180Y008130D01*
X028180Y008288D02*
X028184Y008288D01*
X028180Y007971D02*
X029680Y007971D01*
X029680Y007813D02*
X028180Y007813D01*
X028180Y007654D02*
X029680Y007654D01*
X029680Y007496D02*
X028180Y007496D01*
X028180Y007337D02*
X029680Y007337D01*
X029680Y007179D02*
X029155Y007179D01*
X029181Y007163D02*
X029098Y007211D01*
X029010Y007248D01*
X028917Y007272D01*
X028854Y007281D01*
X028854Y006634D01*
X029501Y006634D01*
X029493Y006697D01*
X029468Y006789D01*
X029431Y006878D01*
X029383Y006961D01*
X029325Y007037D01*
X029257Y007105D01*
X029181Y007163D01*
X029338Y007020D02*
X029680Y007020D01*
X029680Y006862D02*
X029438Y006862D01*
X029491Y006703D02*
X029680Y006703D01*
X029680Y006545D02*
X028854Y006545D01*
X028854Y006703D02*
X028694Y006703D01*
X028694Y006862D02*
X028854Y006862D01*
X028854Y007020D02*
X028694Y007020D01*
X028694Y007179D02*
X028854Y007179D01*
X028394Y007179D02*
X028180Y007179D01*
X028180Y007020D02*
X028211Y007020D01*
X029430Y006228D02*
X029680Y006228D01*
X029680Y006386D02*
X029486Y006386D01*
X029323Y006069D02*
X029680Y006069D01*
X028261Y009239D02*
X028180Y009239D01*
X028180Y009398D02*
X028502Y009398D01*
D19*
X030680Y011430D02*
X031680Y011430D01*
X031680Y011680D01*
X031930Y011680D01*
X032180Y011680D01*
X017180Y012680D02*
X017180Y014180D01*
X016680Y014180D01*
X015180Y017680D02*
X015034Y017680D01*
X003180Y017680D02*
X001180Y017680D01*
X016180Y009680D02*
X017180Y009680D01*
D20*
X013180Y003180D02*
X031180Y003180D01*
X030180Y013180D02*
X028680Y013180D01*
M02*
