%
M48
M72
T01C0.0157
T02C0.0197
T03C0.0236
T04C0.0240
T05C0.0315
T06C0.0320
T07C0.0400
T08C0.0512
T09C0.1260
%
T01
X6740Y6060
X9740Y7740
X13260Y8420
X6260Y13260
X5060Y13700
X5380Y14700
X4900Y15100
X5380Y16100
X6180Y16620
X4620Y18700
X9460Y16620
X9900Y17100
X14460Y18100
X14820Y16700
X13500Y26260
X5980Y27380
X27980Y25900
X27980Y21140
X28180Y17900
X28700Y13100
X30820Y31300
T02
X27300Y29060
X27860Y27060
X27460Y23500
X22260Y22260
X18260Y20500
X15060Y20340
X12500Y22260
X11260Y23180
X8340Y23060
X3540Y25140
X8500Y29020
X11380Y29020
X12660Y32180
X18900Y32180
X22260Y27700
X22260Y16980
X27860Y16660
X28500Y12140
X28180Y11300
X25300Y6740
X22900Y5780
X23860Y2740
X28660Y6420
X29140Y2740
X22580Y11060
X14100Y15380
X8180Y8660
X6100Y10900
X3380Y11540
X4660Y7380
X5300Y3540
X9140Y3540
X9140Y5300
X13300Y5460
X13300Y3540
X16340Y2740
X5140Y32020
T03
X8980Y27060
X4980Y21780
X9140Y21140
T04
X9040Y12025
X11040Y12025
T05
X11240Y7460
X12240Y7460
X13240Y7460
X14240Y7460
X15240Y7460
X10240Y7460
X9240Y7460
X8240Y7460
X7240Y7460
X6240Y7460
X23280Y7540
X24280Y7540
X25280Y7540
X26280Y7540
X27280Y7540
X28280Y7540
X29280Y7540
X30280Y7540
X31280Y7540
X32280Y7540
X32200Y12820
X31200Y12820
X30200Y12820
X29200Y12820
X28200Y12820
X27200Y12820
X26200Y12820
X25200Y12820
X24200Y12820
X23200Y12820
X23120Y18660
X24120Y18660
X25120Y18660
X26120Y18660
X27120Y18660
X28120Y18660
X29120Y18660
X30120Y18660
X31120Y18660
X32120Y18660
X31960Y24020
X30960Y24020
X29960Y24020
X28960Y24020
X27960Y24020
X26960Y24020
X25960Y24020
X24960Y24020
X23960Y24020
X22960Y24020
X22800Y29620
X23800Y29620
X24800Y29620
X25800Y29620
X26800Y29620
X27800Y29620
X28800Y29620
X29800Y29620
X30800Y29620
X31800Y29620
X15880Y29620
X14880Y29620
X13880Y29620
X12880Y29620
X11880Y29620
X10880Y29620
X9880Y29620
X8880Y29620
X7880Y29620
X6880Y29620
X6740Y23780
X7740Y23780
X8740Y23780
X9740Y23780
X10740Y23780
X11740Y23780
X12740Y23780
X13740Y23780
X14740Y23780
X15740Y23780
T06
X16120Y25660
X16040Y27700
X15040Y27700
X13120Y25660
X11880Y25660
X9880Y25660
X8370Y25695
X6370Y25695
X4340Y26960
X4340Y27960
X2580Y27960
X2580Y26960
X2680Y23460
X2680Y22460
X4480Y22460
X4480Y23460
X7520Y19540
X8520Y19540
X7170Y12365
X5170Y12365
X5130Y9315
X4040Y9300
X3040Y9300
X2420Y6360
X2420Y5360
X4340Y5360
X4340Y6360
X7130Y9315
X9020Y9460
X11020Y9460
X12280Y9460
X15280Y9460
X15060Y11200
X15060Y12200
X17700Y12120
X17700Y11120
X23320Y9060
X26320Y9060
X27340Y9060
X29340Y9060
X30635Y8945
X30920Y10740
X29920Y10740
X32635Y8945
X33300Y10240
X33300Y11240
X35060Y11240
X35060Y10240
X34980Y6120
X34980Y5120
X33300Y5120
X33300Y6120
X30600Y5460
X29600Y5460
X30355Y14270
X29100Y14340
X27100Y14340
X26080Y14340
X23080Y14340
X22920Y20260
X25920Y20260
X26940Y20260
X28940Y20260
X30095Y20255
X29760Y21940
X30760Y21940
X32095Y20255
X33300Y21520
X33300Y22520
X35060Y22520
X35060Y21520
X32160Y25470
X30160Y25470
X29100Y25540
X27100Y25540
X26015Y25555
X23015Y25555
X23125Y31190
X26125Y31190
X27180Y31220
X29180Y31220
X30305Y31130
X32305Y31130
X33220Y28520
X33220Y27520
X34980Y27520
X34980Y28520
X30600Y27540
X29600Y27540
X33220Y17000
X33220Y16000
X35060Y16000
X35060Y17000
X32355Y14270
X30920Y16340
X29920Y16340
X16105Y31320
X13105Y31320
X11800Y31320
X9800Y31320
X8325Y31335
X6325Y31335
T07
X3609Y20708
X3609Y19708
X3609Y18708
X3609Y17708
X3609Y16708
X3609Y15708
X3609Y14708
X3609Y13708
X2609Y13708
X2609Y14708
X2609Y15708
X2609Y16708
X2609Y17708
X2609Y18708
X2609Y19708
X2609Y20708
X16880Y19140
X17880Y19140
X17880Y18140
X17880Y17140
X16880Y17140
X16880Y18140
X16880Y16140
X17880Y16140
X17880Y15140
X16880Y15140
T08
X20740Y13884
X20740Y12900
X20740Y8364
X20740Y7380
X17620Y7436
X17620Y8420
X20820Y18660
X20820Y19644
X20740Y24180
X20740Y25164
X18100Y25140
X18100Y24156
X18180Y29436
X18180Y30420
X20740Y30444
X20740Y29460
T09
X3109Y3429
X3109Y30988
X34605Y30988
X34605Y3429
M30
