%
M48
M72
T01C0.0138
T02C0.0157
T03C0.0177
T04C0.0197
T05C0.0315
%
T01
X3860Y5660
X4100Y6500
X4420Y7980
T02
X3540Y6420
X3140Y6020
X2820Y6260
X2180Y5540
X3420Y5300
X4660Y4740
X4980Y4020
X4420Y2660
X3860Y3060
X5540Y7540
T03
X5540Y6620
X5540Y6120
X5540Y5620
X5540Y5120
X5540Y4620
X1380Y4620
X1380Y5120
X1380Y5620
X1380Y6120
X1380Y6620
T04
X1540Y3620
X3820Y3860
X3060Y8740
X1380Y8740
T05
X2512Y8729
X2512Y9438
X4165Y9438
X4165Y8729
X4406Y2167
X4406Y1459
X2753Y1459
X2753Y2167
M30
