G75*
G70*
%OFA0B0*%
%FSLAX24Y24*%
%IPPOS*%
%LPD*%
%AMOC8*
5,1,8,0,0,1.08239X$1,22.5*
%
%ADD10C,0.0000*%
%ADD11R,0.0515X0.0515*%
%ADD12R,0.0630X0.0472*%
%ADD13R,0.0394X0.0433*%
%ADD14R,0.0433X0.0394*%
%ADD15R,0.0138X0.0472*%
%ADD16R,0.0494X0.0276*%
%ADD17C,0.0377*%
%ADD18C,0.0120*%
%ADD19C,0.0277*%
%ADD20C,0.0258*%
%ADD21C,0.0060*%
%ADD22C,0.0100*%
%ADD23C,0.0160*%
%ADD24C,0.0150*%
%ADD25C,0.0317*%
%ADD26C,0.0080*%
D10*
X000900Y000980D02*
X000900Y010035D01*
X006018Y010035D01*
X006018Y000980D01*
X000900Y000980D01*
D11*
X002753Y001459D03*
X002753Y002167D03*
X004406Y002167D03*
X004406Y001459D03*
X004165Y008729D03*
X004165Y009438D03*
X002512Y009438D03*
X002512Y008729D03*
D12*
X005382Y008649D03*
X005382Y009516D03*
X001578Y002434D03*
X001578Y001568D03*
D13*
X002325Y002740D03*
X002165Y003260D03*
X002165Y003780D03*
X002835Y003780D03*
X002835Y003260D03*
X002995Y002740D03*
X003965Y005940D03*
X004635Y005940D03*
X002955Y007620D03*
X002955Y008140D03*
X002285Y008140D03*
X002285Y007620D03*
D14*
X001540Y007525D03*
X001540Y008195D03*
X001860Y008885D03*
X001860Y009555D03*
X003965Y005220D03*
X004635Y005220D03*
X005220Y003075D03*
X005220Y002405D03*
X003620Y002115D03*
X003620Y001445D03*
D15*
X002964Y004548D03*
X002708Y004548D03*
X002452Y004548D03*
X002196Y004548D03*
X002196Y006852D03*
X002452Y006852D03*
X002708Y006852D03*
X002964Y006852D03*
D16*
X003766Y006908D03*
X003766Y007380D03*
X003766Y007852D03*
X004514Y007852D03*
X004514Y007380D03*
X004514Y006908D03*
X004474Y004332D03*
X004474Y003860D03*
X004474Y003388D03*
X003726Y003388D03*
X003726Y003860D03*
X003726Y004332D03*
D17*
X005351Y004620D02*
X005729Y004620D01*
X005729Y005120D02*
X005351Y005120D01*
X005351Y005620D02*
X005729Y005620D01*
X005729Y006120D02*
X005351Y006120D01*
X005351Y006620D02*
X005729Y006620D01*
X001569Y006620D02*
X001191Y006620D01*
X001191Y006120D02*
X001569Y006120D01*
X001569Y005620D02*
X001191Y005620D01*
X001191Y005120D02*
X001569Y005120D01*
X001569Y004620D02*
X001191Y004620D01*
D18*
X001500Y004260D02*
X001220Y004020D01*
X001220Y003700D01*
X001500Y004260D02*
X001740Y004260D01*
X001940Y004420D01*
X002180Y004340D02*
X002180Y004532D01*
X002196Y004548D01*
X001620Y005620D02*
X001860Y005860D01*
X002980Y005860D01*
X003140Y006020D01*
X002820Y006260D02*
X002720Y006120D01*
X001380Y006120D01*
X001380Y005620D02*
X001620Y005620D01*
X002452Y006852D02*
X002452Y007108D01*
X002964Y006852D02*
X002964Y007460D01*
X002964Y007524D01*
X002980Y007540D01*
X003402Y009438D02*
X002980Y009860D01*
X002045Y009860D01*
X003402Y009438D02*
X004165Y009438D01*
X004660Y004740D02*
X004474Y004554D01*
X004474Y004332D01*
X004474Y003388D02*
X004420Y003334D01*
X004420Y002660D01*
X003860Y003060D02*
X003860Y003220D01*
X003700Y003380D01*
D19*
X003860Y003060D03*
X004420Y002660D03*
X004980Y004020D03*
X004660Y004740D03*
X003540Y006420D03*
X003140Y006020D03*
X002820Y006260D03*
X002180Y005540D03*
X003420Y005300D03*
X005540Y007540D03*
D20*
X004420Y007980D03*
X004100Y006500D03*
X003860Y005660D03*
D21*
X003720Y004340D02*
X003200Y004340D01*
X003200Y004320D01*
X003080Y004200D01*
X002840Y004200D01*
X002720Y004320D01*
X002708Y004548D01*
X002160Y003860D02*
X002165Y003780D01*
X002180Y003820D01*
X002240Y003300D02*
X002165Y003260D01*
X002835Y003260D02*
X002920Y003300D01*
X002920Y003120D01*
X003000Y003040D01*
X003000Y002780D01*
X002995Y002740D01*
X003700Y003380D02*
X003720Y003400D01*
X003726Y003388D01*
X003740Y003860D02*
X003726Y003860D01*
X003740Y003860D01*
X003726Y004015D02*
X003740Y004020D01*
X003726Y004332D02*
X003720Y004340D01*
X004500Y006900D02*
X004480Y006920D01*
X004514Y006908D01*
X004514Y007852D02*
X004460Y007860D01*
X004420Y007860D01*
X003780Y007380D02*
X003766Y007380D01*
X003780Y007380D01*
X003020Y007460D02*
X002964Y007460D01*
X002964Y007524D02*
X002960Y007580D01*
X002960Y007620D01*
X002955Y007620D01*
X002980Y007560D01*
X003000Y007580D01*
X003000Y007640D01*
X003020Y007660D01*
X003020Y007680D01*
X003060Y007700D01*
X002285Y008140D02*
X002280Y008160D01*
X002280Y008200D01*
X001540Y008200D01*
X001540Y008195D01*
X002280Y008140D02*
X002285Y008140D01*
D22*
X001860Y008885D02*
X001445Y008805D01*
X001380Y008740D01*
X001315Y008805D02*
X001300Y008820D01*
X001315Y008805D02*
X001860Y008885D01*
X001860Y009460D02*
X001860Y009555D01*
X001940Y009635D01*
X001940Y009780D01*
X002020Y009860D01*
X002045Y009860D01*
X001860Y009620D02*
X001860Y009555D01*
X001845Y009475D02*
X001860Y009460D01*
X001845Y009475D02*
X001395Y009475D01*
X001060Y009140D01*
X001060Y007220D01*
X001140Y007140D01*
X001860Y007140D01*
X001980Y007260D01*
X002300Y007260D01*
X002452Y007108D01*
X003060Y007700D02*
X003220Y007700D01*
X003372Y007852D01*
X003766Y007852D01*
X003766Y006908D02*
X003772Y006908D01*
X004100Y006580D01*
X004100Y006500D01*
X004500Y006500D02*
X003965Y005965D01*
X003965Y005940D01*
X003885Y005620D01*
X003860Y005660D01*
X004500Y006500D02*
X004500Y006900D01*
X004980Y007060D02*
X004980Y007140D01*
X004420Y007860D02*
X004420Y007980D01*
X004740Y008300D02*
X004820Y008300D01*
X003060Y008740D02*
X002955Y008635D01*
X002955Y008140D01*
X001380Y005120D02*
X001410Y005090D01*
X001580Y004060D02*
X001860Y004060D01*
X002180Y004340D01*
X001580Y004060D02*
X001540Y004020D01*
X001540Y003620D01*
X002980Y004820D02*
X002960Y004880D01*
X002964Y004896D01*
D23*
X003146Y005075D02*
X003116Y005104D01*
X003116Y005104D01*
X003044Y005176D01*
X002951Y005215D01*
X002706Y005215D01*
X002636Y005284D01*
X002564Y005356D01*
X002471Y005395D01*
X001865Y005395D01*
X001881Y005411D01*
X001937Y005547D01*
X001937Y005598D01*
X001959Y005620D01*
X003028Y005620D01*
X003116Y005657D01*
X003161Y005701D01*
X003203Y005701D01*
X003321Y005750D01*
X003410Y005839D01*
X003459Y005957D01*
X003459Y006083D01*
X003410Y006201D01*
X003321Y006290D01*
X003203Y006339D01*
X003132Y006339D01*
X003092Y006435D01*
X003107Y006435D01*
X003213Y006541D01*
X003213Y007162D01*
X003204Y007171D01*
X003204Y007223D01*
X003226Y007223D01*
X003331Y007329D01*
X003331Y007486D01*
X003339Y007494D01*
X003339Y007380D01*
X003339Y007219D01*
X003351Y007173D01*
X003366Y007147D01*
X003339Y007120D01*
X003339Y006695D01*
X003445Y006590D01*
X003765Y006590D01*
X003792Y006563D01*
X003791Y006561D01*
X003791Y006439D01*
X003833Y006337D01*
X003694Y006337D01*
X003589Y006231D01*
X003589Y005812D01*
X003551Y005721D01*
X003551Y005599D01*
X003591Y005503D01*
X003581Y005486D01*
X003569Y005441D01*
X003569Y005238D01*
X003947Y005238D01*
X003947Y005202D01*
X003569Y005202D01*
X003569Y005075D01*
X003146Y005075D01*
X003120Y005101D02*
X003569Y005101D01*
X003569Y005260D02*
X002661Y005260D01*
X003285Y005735D02*
X003557Y005735D01*
X003560Y005577D02*
X001937Y005577D01*
X001884Y005418D02*
X003569Y005418D01*
X003589Y005894D02*
X003433Y005894D01*
X003459Y006052D02*
X003589Y006052D01*
X003589Y006211D02*
X003400Y006211D01*
X003199Y006528D02*
X003791Y006528D01*
X003820Y006369D02*
X003120Y006369D01*
X003213Y006686D02*
X003348Y006686D01*
X003339Y006845D02*
X003213Y006845D01*
X003213Y007003D02*
X003339Y007003D01*
X003358Y007162D02*
X003213Y007162D01*
X003323Y007320D02*
X003339Y007320D01*
X003339Y007380D02*
X003766Y007380D01*
X004087Y007380D01*
X003766Y007380D01*
X003766Y007380D01*
X003766Y007380D01*
X003766Y007535D01*
X003766Y007380D01*
X003766Y007225D01*
X003766Y007380D01*
X003766Y007380D01*
X003766Y007380D01*
X003339Y007380D01*
X003331Y007479D02*
X003339Y007479D01*
X003766Y007479D02*
X003766Y007479D01*
X003766Y007535D02*
X003766Y007535D01*
X003766Y007320D02*
X003766Y007320D01*
X003766Y007225D02*
X003766Y007225D01*
X004087Y007380D02*
X004087Y007380D01*
X003205Y008529D02*
X003205Y008714D01*
X002949Y008970D01*
X002949Y008397D01*
X002936Y008384D01*
X002936Y008158D01*
X002973Y008158D01*
X002973Y008537D01*
X003175Y008537D01*
X003205Y008529D01*
X003205Y008588D02*
X002949Y008588D01*
X002949Y008430D02*
X002973Y008430D01*
X002973Y008271D02*
X002936Y008271D01*
X002949Y008747D02*
X003173Y008747D01*
X003014Y008905D02*
X002949Y008905D01*
X001842Y008904D02*
X001842Y008867D01*
X001463Y008867D01*
X001463Y008665D01*
X001476Y008619D01*
X001499Y008578D01*
X001506Y008571D01*
X001290Y008571D01*
X001290Y009045D01*
X001490Y009245D01*
X001502Y009245D01*
X001527Y009220D01*
X001499Y009193D01*
X001476Y009152D01*
X001463Y009106D01*
X001463Y008904D01*
X001842Y008904D01*
X001525Y009222D02*
X001467Y009222D01*
X001463Y009064D02*
X001309Y009064D01*
X001290Y008905D02*
X001463Y008905D01*
X001463Y008747D02*
X001290Y008747D01*
X001290Y008588D02*
X001494Y008588D01*
X001798Y006910D02*
X001947Y006910D01*
X001947Y006852D01*
X002196Y006852D01*
X002196Y006852D01*
X001947Y006852D01*
X001947Y006592D01*
X001960Y006546D01*
X001983Y006505D01*
X002017Y006471D01*
X002058Y006448D01*
X002104Y006435D01*
X002196Y006435D01*
X002196Y006852D01*
X002196Y006852D01*
X002196Y006435D01*
X002289Y006435D01*
X002304Y006440D01*
X002309Y006435D01*
X002548Y006435D01*
X002516Y006360D01*
X001850Y006360D01*
X001840Y006370D01*
X001855Y006385D01*
X001895Y006445D01*
X001923Y006512D01*
X001937Y006584D01*
X001937Y006620D01*
X001937Y006656D01*
X001923Y006728D01*
X001895Y006795D01*
X001855Y006855D01*
X001804Y006906D01*
X001798Y006910D01*
X001862Y006845D02*
X001947Y006845D01*
X001931Y006686D02*
X001947Y006686D01*
X001937Y006620D02*
X001380Y006620D01*
X001380Y006620D01*
X001937Y006620D01*
X001926Y006528D02*
X001970Y006528D01*
X001841Y006369D02*
X002520Y006369D01*
X002196Y006528D02*
X002196Y006528D01*
X002196Y006686D02*
X002196Y006686D01*
X002196Y006845D02*
X002196Y006845D01*
X003299Y004122D02*
X003290Y004113D01*
X003208Y004031D01*
X003211Y004020D01*
X003211Y003798D01*
X002853Y003798D01*
X002853Y003762D01*
X003211Y003762D01*
X003211Y003137D01*
X003266Y003137D01*
X003371Y003031D01*
X003371Y002489D01*
X003380Y002491D01*
X003602Y002491D01*
X003602Y002133D01*
X003638Y002133D01*
X003638Y002491D01*
X003860Y002491D01*
X003906Y002479D01*
X003947Y002456D01*
X003969Y002434D01*
X003969Y002499D01*
X004074Y002605D01*
X004101Y002605D01*
X004101Y002723D01*
X004150Y002841D01*
X004180Y002871D01*
X004180Y003070D01*
X004179Y003070D01*
X004179Y002997D01*
X004130Y002879D01*
X004041Y002790D01*
X003923Y002741D01*
X003797Y002741D01*
X003679Y002790D01*
X003590Y002879D01*
X003541Y002997D01*
X003541Y003070D01*
X003405Y003070D01*
X003299Y003175D01*
X003299Y003600D01*
X003326Y003627D01*
X003311Y003653D01*
X003299Y003699D01*
X003299Y003860D01*
X003726Y003860D01*
X004047Y003860D01*
X003726Y003860D01*
X003726Y003860D01*
X003726Y003860D01*
X003726Y004015D01*
X003726Y003860D01*
X003726Y003705D01*
X003726Y003860D01*
X003726Y003860D01*
X003726Y003860D01*
X003299Y003860D01*
X003299Y004021D01*
X003311Y004067D01*
X003326Y004093D01*
X003299Y004120D01*
X003299Y004122D01*
X003299Y003992D02*
X003211Y003992D01*
X003211Y003833D02*
X003299Y003833D01*
X003306Y003675D02*
X003211Y003675D01*
X003211Y003516D02*
X003299Y003516D01*
X003299Y003358D02*
X003211Y003358D01*
X003211Y003199D02*
X003299Y003199D01*
X003362Y003041D02*
X003541Y003041D01*
X003589Y002882D02*
X003371Y002882D01*
X003371Y002724D02*
X004101Y002724D01*
X004035Y002565D02*
X003371Y002565D01*
X003226Y002343D02*
X003223Y002335D01*
X003223Y002133D01*
X003602Y002133D01*
X003602Y002096D01*
X003223Y002096D01*
X003223Y001894D01*
X003236Y001848D01*
X003259Y001807D01*
X003287Y001780D01*
X003223Y001717D01*
X003223Y001700D01*
X003190Y001700D01*
X003190Y001791D01*
X003168Y001813D01*
X003190Y001835D01*
X003190Y002343D01*
X003226Y002343D01*
X003223Y002248D02*
X003190Y002248D01*
X003190Y002090D02*
X003223Y002090D01*
X003223Y001931D02*
X003190Y001931D01*
X003190Y001773D02*
X003279Y001773D01*
X003602Y002248D02*
X003638Y002248D01*
X003638Y002407D02*
X003602Y002407D01*
X004131Y002882D02*
X004180Y002882D01*
X004179Y003041D02*
X004180Y003041D01*
X004420Y002660D02*
X004740Y002660D01*
X004995Y002405D01*
X005220Y002405D01*
X005220Y003075D02*
X005220Y003780D01*
X004980Y004020D01*
X005540Y004020D02*
X005540Y003620D01*
X005780Y003380D01*
X005780Y002020D01*
X005300Y001540D01*
X005060Y001540D01*
X004560Y002040D01*
X004420Y002180D01*
X003726Y003705D02*
X003726Y003705D01*
X003726Y003833D02*
X003726Y003833D01*
X003726Y003992D02*
X003726Y003992D01*
X003726Y004015D02*
X003726Y004015D01*
X004047Y003860D02*
X004047Y003860D01*
X005540Y006620D02*
X005540Y006989D01*
X005315Y006989D01*
X005244Y006974D01*
X005235Y006971D01*
X005235Y008086D01*
X005239Y008122D01*
X005235Y008136D01*
X005235Y008151D01*
X005221Y008185D01*
X005211Y008220D01*
X005202Y008231D01*
X005201Y008233D01*
X005772Y008233D01*
X005838Y008300D01*
X005838Y006974D01*
X005836Y006974D01*
X005765Y006989D01*
X005540Y006989D01*
X005540Y006620D01*
X005540Y006620D01*
X005540Y006686D02*
X005540Y006686D01*
X005540Y006845D02*
X005540Y006845D01*
X005838Y007003D02*
X005235Y007003D01*
X005235Y007162D02*
X005838Y007162D01*
X005838Y007320D02*
X005235Y007320D01*
X005235Y007479D02*
X005838Y007479D01*
X005838Y007637D02*
X005235Y007637D01*
X005235Y007796D02*
X005838Y007796D01*
X005838Y007954D02*
X005235Y007954D01*
X005238Y008113D02*
X005838Y008113D01*
X005838Y008271D02*
X005810Y008271D01*
D24*
X005382Y008649D02*
X005129Y008649D01*
X004740Y008300D01*
X003460Y008300D01*
X003460Y008820D01*
X002820Y009460D01*
X002529Y009460D01*
X002512Y009438D01*
X004165Y008729D02*
X004289Y008769D01*
X004980Y009460D01*
X005327Y009460D01*
X005382Y009516D01*
X004820Y008300D02*
X004980Y008100D01*
X004980Y007380D01*
X004514Y007380D01*
X004980Y007380D02*
X004980Y007140D01*
X004980Y007060D02*
X004980Y005940D01*
X004635Y005940D01*
X004635Y005220D01*
X004235Y004820D01*
X002980Y004820D01*
X002964Y004896D02*
X002900Y004960D01*
X002600Y004960D01*
X002420Y005140D01*
X001940Y005140D01*
X001940Y004420D01*
X001940Y005140D02*
X001460Y005140D01*
X001410Y005090D01*
X001380Y005060D01*
X001220Y003700D02*
X001220Y003060D01*
X001578Y002702D01*
X001578Y002434D01*
X001578Y001568D02*
X001606Y001540D01*
X002020Y001540D01*
X002647Y002167D01*
X002753Y002167D01*
X002753Y001459D02*
X002766Y001445D01*
X003620Y001445D01*
X004406Y002167D02*
X004560Y002040D01*
X004580Y002100D02*
X004474Y002100D01*
X004406Y002167D01*
X004474Y003860D02*
X004820Y003860D01*
X004980Y004020D01*
X004980Y004980D01*
X004820Y005140D01*
X004635Y005220D01*
X004980Y005100D02*
X004980Y004980D01*
X004980Y005100D02*
X005000Y005120D01*
X005540Y005120D01*
X005540Y004620D02*
X005540Y004020D01*
X003540Y006420D02*
X003300Y006660D01*
X002964Y004896D02*
X002964Y004548D01*
D25*
X003820Y003860D03*
X001540Y003620D03*
X001380Y008740D03*
X003060Y008740D03*
D26*
X002580Y008140D02*
X002620Y008100D01*
X002620Y007220D01*
X002700Y007140D01*
X002700Y006860D01*
X002708Y006852D01*
X002191Y007525D02*
X002285Y007620D01*
X002191Y007525D02*
X001540Y007525D01*
X002285Y008140D02*
X002580Y008140D01*
X002452Y004548D02*
X002452Y004332D01*
X002180Y004060D01*
X002180Y003875D01*
X002165Y003780D01*
X002245Y003780D01*
X002180Y003780D02*
X002180Y003820D01*
X002180Y003860D01*
X002180Y003780D02*
X002165Y003765D01*
X002165Y003260D01*
X002500Y002955D02*
X002325Y002740D01*
X002500Y002955D02*
X002500Y004100D01*
X002600Y004200D01*
X002840Y004200D01*
X003700Y004020D02*
X004020Y003860D01*
X003820Y003860D01*
X003740Y004020D02*
X003700Y004020D01*
M02*
