G75*
G70*
%OFA0B0*%
%FSLAX24Y24*%
%IPPOS*%
%LPD*%
%AMOC8*
5,1,8,0,0,1.08239X$1,22.5*
%
%ADD10C,0.0000*%
%ADD11R,0.0394X0.0433*%
%ADD12R,0.0433X0.0394*%
%ADD13R,0.0591X0.0197*%
%ADD14R,0.0197X0.0591*%
%ADD15R,0.0748X0.1339*%
%ADD16R,0.0800X0.0260*%
%ADD17R,0.0350X0.0310*%
D10*
X001140Y001640D02*
X001140Y033136D01*
X036573Y033136D01*
X036573Y001640D01*
X001140Y001640D01*
X002420Y003609D02*
X002422Y003661D01*
X002428Y003713D01*
X002438Y003764D01*
X002451Y003814D01*
X002469Y003864D01*
X002490Y003911D01*
X002514Y003957D01*
X002543Y004001D01*
X002574Y004043D01*
X002608Y004082D01*
X002645Y004119D01*
X002685Y004152D01*
X002728Y004183D01*
X002772Y004210D01*
X002818Y004234D01*
X002867Y004254D01*
X002916Y004270D01*
X002967Y004283D01*
X003018Y004292D01*
X003070Y004297D01*
X003122Y004298D01*
X003174Y004295D01*
X003226Y004288D01*
X003277Y004277D01*
X003327Y004263D01*
X003376Y004244D01*
X003423Y004222D01*
X003468Y004197D01*
X003512Y004168D01*
X003553Y004136D01*
X003592Y004101D01*
X003627Y004063D01*
X003660Y004022D01*
X003690Y003980D01*
X003716Y003935D01*
X003739Y003888D01*
X003758Y003839D01*
X003774Y003789D01*
X003786Y003739D01*
X003794Y003687D01*
X003798Y003635D01*
X003798Y003583D01*
X003794Y003531D01*
X003786Y003479D01*
X003774Y003429D01*
X003758Y003379D01*
X003739Y003330D01*
X003716Y003283D01*
X003690Y003238D01*
X003660Y003196D01*
X003627Y003155D01*
X003592Y003117D01*
X003553Y003082D01*
X003512Y003050D01*
X003468Y003021D01*
X003423Y002996D01*
X003376Y002974D01*
X003327Y002955D01*
X003277Y002941D01*
X003226Y002930D01*
X003174Y002923D01*
X003122Y002920D01*
X003070Y002921D01*
X003018Y002926D01*
X002967Y002935D01*
X002916Y002948D01*
X002867Y002964D01*
X002818Y002984D01*
X002772Y003008D01*
X002728Y003035D01*
X002685Y003066D01*
X002645Y003099D01*
X002608Y003136D01*
X002574Y003175D01*
X002543Y003217D01*
X002514Y003261D01*
X002490Y003307D01*
X002469Y003354D01*
X002451Y003404D01*
X002438Y003454D01*
X002428Y003505D01*
X002422Y003557D01*
X002420Y003609D01*
X002420Y031168D02*
X002422Y031220D01*
X002428Y031272D01*
X002438Y031323D01*
X002451Y031373D01*
X002469Y031423D01*
X002490Y031470D01*
X002514Y031516D01*
X002543Y031560D01*
X002574Y031602D01*
X002608Y031641D01*
X002645Y031678D01*
X002685Y031711D01*
X002728Y031742D01*
X002772Y031769D01*
X002818Y031793D01*
X002867Y031813D01*
X002916Y031829D01*
X002967Y031842D01*
X003018Y031851D01*
X003070Y031856D01*
X003122Y031857D01*
X003174Y031854D01*
X003226Y031847D01*
X003277Y031836D01*
X003327Y031822D01*
X003376Y031803D01*
X003423Y031781D01*
X003468Y031756D01*
X003512Y031727D01*
X003553Y031695D01*
X003592Y031660D01*
X003627Y031622D01*
X003660Y031581D01*
X003690Y031539D01*
X003716Y031494D01*
X003739Y031447D01*
X003758Y031398D01*
X003774Y031348D01*
X003786Y031298D01*
X003794Y031246D01*
X003798Y031194D01*
X003798Y031142D01*
X003794Y031090D01*
X003786Y031038D01*
X003774Y030988D01*
X003758Y030938D01*
X003739Y030889D01*
X003716Y030842D01*
X003690Y030797D01*
X003660Y030755D01*
X003627Y030714D01*
X003592Y030676D01*
X003553Y030641D01*
X003512Y030609D01*
X003468Y030580D01*
X003423Y030555D01*
X003376Y030533D01*
X003327Y030514D01*
X003277Y030500D01*
X003226Y030489D01*
X003174Y030482D01*
X003122Y030479D01*
X003070Y030480D01*
X003018Y030485D01*
X002967Y030494D01*
X002916Y030507D01*
X002867Y030523D01*
X002818Y030543D01*
X002772Y030567D01*
X002728Y030594D01*
X002685Y030625D01*
X002645Y030658D01*
X002608Y030695D01*
X002574Y030734D01*
X002543Y030776D01*
X002514Y030820D01*
X002490Y030866D01*
X002469Y030913D01*
X002451Y030963D01*
X002438Y031013D01*
X002428Y031064D01*
X002422Y031116D01*
X002420Y031168D01*
X033916Y031168D02*
X033918Y031220D01*
X033924Y031272D01*
X033934Y031323D01*
X033947Y031373D01*
X033965Y031423D01*
X033986Y031470D01*
X034010Y031516D01*
X034039Y031560D01*
X034070Y031602D01*
X034104Y031641D01*
X034141Y031678D01*
X034181Y031711D01*
X034224Y031742D01*
X034268Y031769D01*
X034314Y031793D01*
X034363Y031813D01*
X034412Y031829D01*
X034463Y031842D01*
X034514Y031851D01*
X034566Y031856D01*
X034618Y031857D01*
X034670Y031854D01*
X034722Y031847D01*
X034773Y031836D01*
X034823Y031822D01*
X034872Y031803D01*
X034919Y031781D01*
X034964Y031756D01*
X035008Y031727D01*
X035049Y031695D01*
X035088Y031660D01*
X035123Y031622D01*
X035156Y031581D01*
X035186Y031539D01*
X035212Y031494D01*
X035235Y031447D01*
X035254Y031398D01*
X035270Y031348D01*
X035282Y031298D01*
X035290Y031246D01*
X035294Y031194D01*
X035294Y031142D01*
X035290Y031090D01*
X035282Y031038D01*
X035270Y030988D01*
X035254Y030938D01*
X035235Y030889D01*
X035212Y030842D01*
X035186Y030797D01*
X035156Y030755D01*
X035123Y030714D01*
X035088Y030676D01*
X035049Y030641D01*
X035008Y030609D01*
X034964Y030580D01*
X034919Y030555D01*
X034872Y030533D01*
X034823Y030514D01*
X034773Y030500D01*
X034722Y030489D01*
X034670Y030482D01*
X034618Y030479D01*
X034566Y030480D01*
X034514Y030485D01*
X034463Y030494D01*
X034412Y030507D01*
X034363Y030523D01*
X034314Y030543D01*
X034268Y030567D01*
X034224Y030594D01*
X034181Y030625D01*
X034141Y030658D01*
X034104Y030695D01*
X034070Y030734D01*
X034039Y030776D01*
X034010Y030820D01*
X033986Y030866D01*
X033965Y030913D01*
X033947Y030963D01*
X033934Y031013D01*
X033924Y031064D01*
X033918Y031116D01*
X033916Y031168D01*
X033916Y003609D02*
X033918Y003661D01*
X033924Y003713D01*
X033934Y003764D01*
X033947Y003814D01*
X033965Y003864D01*
X033986Y003911D01*
X034010Y003957D01*
X034039Y004001D01*
X034070Y004043D01*
X034104Y004082D01*
X034141Y004119D01*
X034181Y004152D01*
X034224Y004183D01*
X034268Y004210D01*
X034314Y004234D01*
X034363Y004254D01*
X034412Y004270D01*
X034463Y004283D01*
X034514Y004292D01*
X034566Y004297D01*
X034618Y004298D01*
X034670Y004295D01*
X034722Y004288D01*
X034773Y004277D01*
X034823Y004263D01*
X034872Y004244D01*
X034919Y004222D01*
X034964Y004197D01*
X035008Y004168D01*
X035049Y004136D01*
X035088Y004101D01*
X035123Y004063D01*
X035156Y004022D01*
X035186Y003980D01*
X035212Y003935D01*
X035235Y003888D01*
X035254Y003839D01*
X035270Y003789D01*
X035282Y003739D01*
X035290Y003687D01*
X035294Y003635D01*
X035294Y003583D01*
X035290Y003531D01*
X035282Y003479D01*
X035270Y003429D01*
X035254Y003379D01*
X035235Y003330D01*
X035212Y003283D01*
X035186Y003238D01*
X035156Y003196D01*
X035123Y003155D01*
X035088Y003117D01*
X035049Y003082D01*
X035008Y003050D01*
X034964Y003021D01*
X034919Y002996D01*
X034872Y002974D01*
X034823Y002955D01*
X034773Y002941D01*
X034722Y002930D01*
X034670Y002923D01*
X034618Y002920D01*
X034566Y002921D01*
X034514Y002926D01*
X034463Y002935D01*
X034412Y002948D01*
X034363Y002964D01*
X034314Y002984D01*
X034268Y003008D01*
X034224Y003035D01*
X034181Y003066D01*
X034141Y003099D01*
X034104Y003136D01*
X034070Y003175D01*
X034039Y003217D01*
X034010Y003261D01*
X033986Y003307D01*
X033965Y003354D01*
X033947Y003404D01*
X033934Y003454D01*
X033924Y003505D01*
X033918Y003557D01*
X033916Y003609D01*
D11*
X021795Y012200D03*
X021125Y012200D03*
X021125Y013320D03*
X021795Y013320D03*
X016980Y020345D03*
X016980Y021015D03*
X013235Y016980D03*
X012565Y016980D03*
X012645Y016040D03*
X013315Y016040D03*
X013315Y015240D03*
X012645Y015240D03*
D12*
X015885Y014900D03*
X016555Y014900D03*
X017265Y014880D03*
X017935Y014880D03*
X021885Y015640D03*
X022555Y015640D03*
X022245Y019880D03*
X022915Y019880D03*
X025925Y021320D03*
X026595Y021320D03*
X025620Y027705D03*
X025620Y028375D03*
X022900Y028375D03*
X022900Y027705D03*
X021940Y027705D03*
X021940Y028375D03*
X017620Y028375D03*
X017620Y027705D03*
X015060Y027705D03*
X015060Y028375D03*
X013940Y028375D03*
X013940Y027705D03*
X010260Y027705D03*
X010260Y028375D03*
X007580Y028335D03*
X007580Y027665D03*
X006380Y027685D03*
X006380Y028355D03*
X010885Y021320D03*
X011555Y021320D03*
X011395Y009480D03*
X010725Y009480D03*
X009140Y007415D03*
X009140Y006745D03*
X008180Y006745D03*
X008180Y007415D03*
X005620Y007415D03*
X005620Y006745D03*
X012660Y006745D03*
X012660Y007415D03*
X015220Y007415D03*
X015220Y006745D03*
X016180Y006745D03*
X016180Y007415D03*
X020180Y007415D03*
X020180Y006745D03*
X022740Y006745D03*
X022740Y007415D03*
X023860Y007415D03*
X023860Y006745D03*
X027380Y006745D03*
X027380Y007415D03*
X026595Y009640D03*
X025925Y009640D03*
X029940Y007415D03*
X029940Y006745D03*
X030900Y006745D03*
X030900Y007415D03*
X030100Y027705D03*
X030100Y028375D03*
X028980Y028375D03*
X028980Y027705D03*
X032820Y027705D03*
X032820Y028375D03*
D13*
G36*
X022322Y018663D02*
X021906Y018247D01*
X021768Y018385D01*
X022184Y018801D01*
X022322Y018663D01*
G37*
G36*
X022545Y018440D02*
X022129Y018024D01*
X021991Y018162D01*
X022407Y018578D01*
X022545Y018440D01*
G37*
G36*
X022100Y018886D02*
X021684Y018470D01*
X021546Y018608D01*
X021962Y019024D01*
X022100Y018886D01*
G37*
G36*
X021877Y019108D02*
X021461Y018692D01*
X021323Y018830D01*
X021739Y019246D01*
X021877Y019108D01*
G37*
G36*
X021654Y019331D02*
X021238Y018915D01*
X021100Y019053D01*
X021516Y019469D01*
X021654Y019331D01*
G37*
G36*
X021432Y019554D02*
X021016Y019138D01*
X020878Y019276D01*
X021294Y019692D01*
X021432Y019554D01*
G37*
G36*
X021209Y019776D02*
X020793Y019360D01*
X020655Y019498D01*
X021071Y019914D01*
X021209Y019776D01*
G37*
G36*
X020986Y019999D02*
X020570Y019583D01*
X020432Y019721D01*
X020848Y020137D01*
X020986Y019999D01*
G37*
G36*
X020764Y020222D02*
X020348Y019806D01*
X020210Y019944D01*
X020626Y020360D01*
X020764Y020222D01*
G37*
G36*
X020541Y020444D02*
X020125Y020028D01*
X019987Y020166D01*
X020403Y020582D01*
X020541Y020444D01*
G37*
G36*
X020318Y020667D02*
X019902Y020251D01*
X019764Y020389D01*
X020180Y020805D01*
X020318Y020667D01*
G37*
G36*
X017089Y017438D02*
X016673Y017022D01*
X016535Y017160D01*
X016951Y017576D01*
X017089Y017438D01*
G37*
G36*
X017312Y017215D02*
X016896Y016799D01*
X016758Y016937D01*
X017174Y017353D01*
X017312Y017215D01*
G37*
G36*
X017534Y016992D02*
X017118Y016576D01*
X016980Y016714D01*
X017396Y017130D01*
X017534Y016992D01*
G37*
G36*
X017757Y016770D02*
X017341Y016354D01*
X017203Y016492D01*
X017619Y016908D01*
X017757Y016770D01*
G37*
G36*
X017980Y016547D02*
X017564Y016131D01*
X017426Y016269D01*
X017842Y016685D01*
X017980Y016547D01*
G37*
G36*
X018202Y016324D02*
X017786Y015908D01*
X017648Y016046D01*
X018064Y016462D01*
X018202Y016324D01*
G37*
G36*
X018425Y016102D02*
X018009Y015686D01*
X017871Y015824D01*
X018287Y016240D01*
X018425Y016102D01*
G37*
G36*
X018648Y015879D02*
X018232Y015463D01*
X018094Y015601D01*
X018510Y016017D01*
X018648Y015879D01*
G37*
G36*
X018870Y015656D02*
X018454Y015240D01*
X018316Y015378D01*
X018732Y015794D01*
X018870Y015656D01*
G37*
G36*
X019093Y015434D02*
X018677Y015018D01*
X018539Y015156D01*
X018955Y015572D01*
X019093Y015434D01*
G37*
G36*
X019316Y015211D02*
X018900Y014795D01*
X018762Y014933D01*
X019178Y015349D01*
X019316Y015211D01*
G37*
D14*
G36*
X020318Y014933D02*
X020180Y014795D01*
X019764Y015211D01*
X019902Y015349D01*
X020318Y014933D01*
G37*
G36*
X020541Y015156D02*
X020403Y015018D01*
X019987Y015434D01*
X020125Y015572D01*
X020541Y015156D01*
G37*
G36*
X020764Y015378D02*
X020626Y015240D01*
X020210Y015656D01*
X020348Y015794D01*
X020764Y015378D01*
G37*
G36*
X020986Y015601D02*
X020848Y015463D01*
X020432Y015879D01*
X020570Y016017D01*
X020986Y015601D01*
G37*
G36*
X021209Y015824D02*
X021071Y015686D01*
X020655Y016102D01*
X020793Y016240D01*
X021209Y015824D01*
G37*
G36*
X021432Y016046D02*
X021294Y015908D01*
X020878Y016324D01*
X021016Y016462D01*
X021432Y016046D01*
G37*
G36*
X021654Y016269D02*
X021516Y016131D01*
X021100Y016547D01*
X021238Y016685D01*
X021654Y016269D01*
G37*
G36*
X021877Y016492D02*
X021739Y016354D01*
X021323Y016770D01*
X021461Y016908D01*
X021877Y016492D01*
G37*
G36*
X022100Y016714D02*
X021962Y016576D01*
X021546Y016992D01*
X021684Y017130D01*
X022100Y016714D01*
G37*
G36*
X022322Y016937D02*
X022184Y016799D01*
X021768Y017215D01*
X021906Y017353D01*
X022322Y016937D01*
G37*
G36*
X022545Y017160D02*
X022407Y017022D01*
X021991Y017438D01*
X022129Y017576D01*
X022545Y017160D01*
G37*
G36*
X019316Y020389D02*
X019178Y020251D01*
X018762Y020667D01*
X018900Y020805D01*
X019316Y020389D01*
G37*
G36*
X019093Y020166D02*
X018955Y020028D01*
X018539Y020444D01*
X018677Y020582D01*
X019093Y020166D01*
G37*
G36*
X018870Y019944D02*
X018732Y019806D01*
X018316Y020222D01*
X018454Y020360D01*
X018870Y019944D01*
G37*
G36*
X018648Y019721D02*
X018510Y019583D01*
X018094Y019999D01*
X018232Y020137D01*
X018648Y019721D01*
G37*
G36*
X018425Y019498D02*
X018287Y019360D01*
X017871Y019776D01*
X018009Y019914D01*
X018425Y019498D01*
G37*
G36*
X018202Y019276D02*
X018064Y019138D01*
X017648Y019554D01*
X017786Y019692D01*
X018202Y019276D01*
G37*
G36*
X017980Y019053D02*
X017842Y018915D01*
X017426Y019331D01*
X017564Y019469D01*
X017980Y019053D01*
G37*
G36*
X017757Y018830D02*
X017619Y018692D01*
X017203Y019108D01*
X017341Y019246D01*
X017757Y018830D01*
G37*
G36*
X017534Y018608D02*
X017396Y018470D01*
X016980Y018886D01*
X017118Y019024D01*
X017534Y018608D01*
G37*
G36*
X017312Y018385D02*
X017174Y018247D01*
X016758Y018663D01*
X016896Y018801D01*
X017312Y018385D01*
G37*
G36*
X017089Y018162D02*
X016951Y018024D01*
X016535Y018440D01*
X016673Y018578D01*
X017089Y018162D01*
G37*
D15*
X023412Y018600D03*
X024948Y018600D03*
D16*
X024890Y022060D03*
X024890Y022560D03*
X024890Y023060D03*
X024890Y023560D03*
X024890Y024060D03*
X024890Y024560D03*
X024890Y025060D03*
X027310Y025060D03*
X027310Y024560D03*
X027310Y024060D03*
X027310Y023560D03*
X027310Y023060D03*
X027310Y022560D03*
X027310Y022060D03*
X027310Y013380D03*
X027310Y012880D03*
X027310Y012380D03*
X027310Y011880D03*
X027310Y011380D03*
X027310Y010880D03*
X027310Y010380D03*
X024890Y010380D03*
X024890Y010880D03*
X024890Y011380D03*
X024890Y011880D03*
X024890Y012380D03*
X024890Y012880D03*
X024890Y013380D03*
X012270Y013220D03*
X012270Y012720D03*
X012270Y012220D03*
X012270Y011720D03*
X012270Y011220D03*
X012270Y010720D03*
X012270Y010220D03*
X009850Y010220D03*
X009850Y010720D03*
X009850Y011220D03*
X009850Y011720D03*
X009850Y012220D03*
X009850Y012720D03*
X009850Y013220D03*
X009850Y021900D03*
X009850Y022400D03*
X009850Y022900D03*
X009850Y023400D03*
X009850Y023900D03*
X009850Y024400D03*
X009850Y024900D03*
X012270Y024900D03*
X012270Y024400D03*
X012270Y023900D03*
X012270Y023400D03*
X012270Y022900D03*
X012270Y022400D03*
X012270Y021900D03*
D17*
X009380Y027650D03*
X009380Y028410D03*
X008580Y028030D03*
X015940Y028030D03*
X016740Y027650D03*
X016740Y028410D03*
X023780Y028030D03*
X024580Y027650D03*
X024580Y028410D03*
X030980Y028030D03*
X031780Y027650D03*
X031780Y028410D03*
X028260Y007470D03*
X028260Y006710D03*
X029060Y007090D03*
X021860Y007090D03*
X021060Y006710D03*
X021060Y007470D03*
X014340Y007090D03*
X013540Y006710D03*
X013540Y007470D03*
X007300Y007090D03*
X006500Y006710D03*
X006500Y007470D03*
M02*
