G75*
G70*
%OFA0B0*%
%FSLAX24Y24*%
%IPPOS*%
%LPD*%
%AMOC8*
5,1,8,0,0,1.08239X$1,22.5*
%
%ADD10C,0.0000*%
%ADD11C,0.0060*%
%ADD12C,0.0040*%
%ADD13C,0.0020*%
%ADD14C,0.0050*%
%ADD15R,0.0200X0.0050*%
%ADD16C,0.0080*%
%ADD17C,0.0100*%
D10*
X002542Y004117D02*
X002542Y035613D01*
X037975Y035613D01*
X037975Y004117D01*
X002542Y004117D01*
X003822Y006086D02*
X003824Y006138D01*
X003830Y006190D01*
X003840Y006241D01*
X003853Y006291D01*
X003871Y006341D01*
X003892Y006388D01*
X003916Y006434D01*
X003945Y006478D01*
X003976Y006520D01*
X004010Y006559D01*
X004047Y006596D01*
X004087Y006629D01*
X004130Y006660D01*
X004174Y006687D01*
X004220Y006711D01*
X004269Y006731D01*
X004318Y006747D01*
X004369Y006760D01*
X004420Y006769D01*
X004472Y006774D01*
X004524Y006775D01*
X004576Y006772D01*
X004628Y006765D01*
X004679Y006754D01*
X004729Y006740D01*
X004778Y006721D01*
X004825Y006699D01*
X004870Y006674D01*
X004914Y006645D01*
X004955Y006613D01*
X004994Y006578D01*
X005029Y006540D01*
X005062Y006499D01*
X005092Y006457D01*
X005118Y006412D01*
X005141Y006365D01*
X005160Y006316D01*
X005176Y006266D01*
X005188Y006216D01*
X005196Y006164D01*
X005200Y006112D01*
X005200Y006060D01*
X005196Y006008D01*
X005188Y005956D01*
X005176Y005906D01*
X005160Y005856D01*
X005141Y005807D01*
X005118Y005760D01*
X005092Y005715D01*
X005062Y005673D01*
X005029Y005632D01*
X004994Y005594D01*
X004955Y005559D01*
X004914Y005527D01*
X004870Y005498D01*
X004825Y005473D01*
X004778Y005451D01*
X004729Y005432D01*
X004679Y005418D01*
X004628Y005407D01*
X004576Y005400D01*
X004524Y005397D01*
X004472Y005398D01*
X004420Y005403D01*
X004369Y005412D01*
X004318Y005425D01*
X004269Y005441D01*
X004220Y005461D01*
X004174Y005485D01*
X004130Y005512D01*
X004087Y005543D01*
X004047Y005576D01*
X004010Y005613D01*
X003976Y005652D01*
X003945Y005694D01*
X003916Y005738D01*
X003892Y005784D01*
X003871Y005831D01*
X003853Y005881D01*
X003840Y005931D01*
X003830Y005982D01*
X003824Y006034D01*
X003822Y006086D01*
X003822Y033645D02*
X003824Y033697D01*
X003830Y033749D01*
X003840Y033800D01*
X003853Y033850D01*
X003871Y033900D01*
X003892Y033947D01*
X003916Y033993D01*
X003945Y034037D01*
X003976Y034079D01*
X004010Y034118D01*
X004047Y034155D01*
X004087Y034188D01*
X004130Y034219D01*
X004174Y034246D01*
X004220Y034270D01*
X004269Y034290D01*
X004318Y034306D01*
X004369Y034319D01*
X004420Y034328D01*
X004472Y034333D01*
X004524Y034334D01*
X004576Y034331D01*
X004628Y034324D01*
X004679Y034313D01*
X004729Y034299D01*
X004778Y034280D01*
X004825Y034258D01*
X004870Y034233D01*
X004914Y034204D01*
X004955Y034172D01*
X004994Y034137D01*
X005029Y034099D01*
X005062Y034058D01*
X005092Y034016D01*
X005118Y033971D01*
X005141Y033924D01*
X005160Y033875D01*
X005176Y033825D01*
X005188Y033775D01*
X005196Y033723D01*
X005200Y033671D01*
X005200Y033619D01*
X005196Y033567D01*
X005188Y033515D01*
X005176Y033465D01*
X005160Y033415D01*
X005141Y033366D01*
X005118Y033319D01*
X005092Y033274D01*
X005062Y033232D01*
X005029Y033191D01*
X004994Y033153D01*
X004955Y033118D01*
X004914Y033086D01*
X004870Y033057D01*
X004825Y033032D01*
X004778Y033010D01*
X004729Y032991D01*
X004679Y032977D01*
X004628Y032966D01*
X004576Y032959D01*
X004524Y032956D01*
X004472Y032957D01*
X004420Y032962D01*
X004369Y032971D01*
X004318Y032984D01*
X004269Y033000D01*
X004220Y033020D01*
X004174Y033044D01*
X004130Y033071D01*
X004087Y033102D01*
X004047Y033135D01*
X004010Y033172D01*
X003976Y033211D01*
X003945Y033253D01*
X003916Y033297D01*
X003892Y033343D01*
X003871Y033390D01*
X003853Y033440D01*
X003840Y033490D01*
X003830Y033541D01*
X003824Y033593D01*
X003822Y033645D01*
X035318Y033645D02*
X035320Y033697D01*
X035326Y033749D01*
X035336Y033800D01*
X035349Y033850D01*
X035367Y033900D01*
X035388Y033947D01*
X035412Y033993D01*
X035441Y034037D01*
X035472Y034079D01*
X035506Y034118D01*
X035543Y034155D01*
X035583Y034188D01*
X035626Y034219D01*
X035670Y034246D01*
X035716Y034270D01*
X035765Y034290D01*
X035814Y034306D01*
X035865Y034319D01*
X035916Y034328D01*
X035968Y034333D01*
X036020Y034334D01*
X036072Y034331D01*
X036124Y034324D01*
X036175Y034313D01*
X036225Y034299D01*
X036274Y034280D01*
X036321Y034258D01*
X036366Y034233D01*
X036410Y034204D01*
X036451Y034172D01*
X036490Y034137D01*
X036525Y034099D01*
X036558Y034058D01*
X036588Y034016D01*
X036614Y033971D01*
X036637Y033924D01*
X036656Y033875D01*
X036672Y033825D01*
X036684Y033775D01*
X036692Y033723D01*
X036696Y033671D01*
X036696Y033619D01*
X036692Y033567D01*
X036684Y033515D01*
X036672Y033465D01*
X036656Y033415D01*
X036637Y033366D01*
X036614Y033319D01*
X036588Y033274D01*
X036558Y033232D01*
X036525Y033191D01*
X036490Y033153D01*
X036451Y033118D01*
X036410Y033086D01*
X036366Y033057D01*
X036321Y033032D01*
X036274Y033010D01*
X036225Y032991D01*
X036175Y032977D01*
X036124Y032966D01*
X036072Y032959D01*
X036020Y032956D01*
X035968Y032957D01*
X035916Y032962D01*
X035865Y032971D01*
X035814Y032984D01*
X035765Y033000D01*
X035716Y033020D01*
X035670Y033044D01*
X035626Y033071D01*
X035583Y033102D01*
X035543Y033135D01*
X035506Y033172D01*
X035472Y033211D01*
X035441Y033253D01*
X035412Y033297D01*
X035388Y033343D01*
X035367Y033390D01*
X035349Y033440D01*
X035336Y033490D01*
X035326Y033541D01*
X035320Y033593D01*
X035318Y033645D01*
X035318Y006086D02*
X035320Y006138D01*
X035326Y006190D01*
X035336Y006241D01*
X035349Y006291D01*
X035367Y006341D01*
X035388Y006388D01*
X035412Y006434D01*
X035441Y006478D01*
X035472Y006520D01*
X035506Y006559D01*
X035543Y006596D01*
X035583Y006629D01*
X035626Y006660D01*
X035670Y006687D01*
X035716Y006711D01*
X035765Y006731D01*
X035814Y006747D01*
X035865Y006760D01*
X035916Y006769D01*
X035968Y006774D01*
X036020Y006775D01*
X036072Y006772D01*
X036124Y006765D01*
X036175Y006754D01*
X036225Y006740D01*
X036274Y006721D01*
X036321Y006699D01*
X036366Y006674D01*
X036410Y006645D01*
X036451Y006613D01*
X036490Y006578D01*
X036525Y006540D01*
X036558Y006499D01*
X036588Y006457D01*
X036614Y006412D01*
X036637Y006365D01*
X036656Y006316D01*
X036672Y006266D01*
X036684Y006216D01*
X036692Y006164D01*
X036696Y006112D01*
X036696Y006060D01*
X036692Y006008D01*
X036684Y005956D01*
X036672Y005906D01*
X036656Y005856D01*
X036637Y005807D01*
X036614Y005760D01*
X036588Y005715D01*
X036558Y005673D01*
X036525Y005632D01*
X036490Y005594D01*
X036451Y005559D01*
X036410Y005527D01*
X036366Y005498D01*
X036321Y005473D01*
X036274Y005451D01*
X036225Y005432D01*
X036175Y005418D01*
X036124Y005407D01*
X036072Y005400D01*
X036020Y005397D01*
X035968Y005398D01*
X035916Y005403D01*
X035865Y005412D01*
X035814Y005425D01*
X035765Y005441D01*
X035716Y005461D01*
X035670Y005485D01*
X035626Y005512D01*
X035583Y005543D01*
X035543Y005576D01*
X035506Y005613D01*
X035472Y005652D01*
X035441Y005694D01*
X035412Y005738D01*
X035388Y005784D01*
X035367Y005831D01*
X035349Y005881D01*
X035336Y005931D01*
X035326Y005982D01*
X035320Y006034D01*
X035318Y006086D01*
D11*
X035182Y004948D02*
X034968Y004841D01*
X034755Y004627D01*
X035075Y004627D01*
X035182Y004521D01*
X035182Y004414D01*
X035075Y004307D01*
X034862Y004307D01*
X034755Y004414D01*
X034755Y004627D01*
X034537Y004414D02*
X034431Y004307D01*
X034217Y004307D01*
X034110Y004414D01*
X034537Y004841D01*
X034537Y004414D01*
X034110Y004414D02*
X034110Y004841D01*
X034217Y004948D01*
X034431Y004948D01*
X034537Y004841D01*
X033893Y004948D02*
X033679Y004841D01*
X033466Y004627D01*
X033786Y004627D01*
X033893Y004521D01*
X033893Y004414D01*
X033786Y004307D01*
X033573Y004307D01*
X033466Y004414D01*
X033466Y004627D01*
X033248Y004307D02*
X032821Y004307D01*
X033035Y004307D02*
X033035Y004948D01*
X032821Y004734D01*
X032604Y004521D02*
X032497Y004627D01*
X032177Y004627D01*
X032177Y004414D01*
X032284Y004307D01*
X032497Y004307D01*
X032604Y004414D01*
X032604Y004521D01*
X032390Y004841D02*
X032177Y004627D01*
X032390Y004841D02*
X032604Y004948D01*
X031959Y004841D02*
X031959Y004414D01*
X031852Y004307D01*
X031532Y004307D01*
X031532Y004948D01*
X031852Y004948D01*
X031959Y004841D01*
X031341Y006473D02*
X029714Y004846D01*
X023350Y011210D01*
X023881Y011741D01*
X023880Y011740D02*
X023909Y011714D01*
X023941Y011690D01*
X023974Y011670D01*
X024010Y011653D01*
X024047Y011640D01*
X024085Y011631D01*
X024124Y011625D01*
X024163Y011623D01*
X024202Y011625D01*
X024241Y011631D01*
X024279Y011640D01*
X024316Y011653D01*
X024352Y011670D01*
X024385Y011690D01*
X024417Y011714D01*
X024446Y011740D01*
X024472Y011769D01*
X024496Y011801D01*
X024516Y011834D01*
X024533Y011870D01*
X024546Y011907D01*
X024555Y011945D01*
X024561Y011984D01*
X024563Y012023D01*
X024561Y012062D01*
X024555Y012101D01*
X024546Y012139D01*
X024533Y012176D01*
X024516Y012212D01*
X024496Y012245D01*
X024472Y012277D01*
X024446Y012306D01*
X024977Y012837D01*
X031341Y006473D01*
X029320Y012208D02*
X030947Y013835D01*
X024583Y020199D01*
X024053Y019668D01*
X024053Y019669D02*
X024079Y019640D01*
X024103Y019608D01*
X024123Y019575D01*
X024140Y019539D01*
X024153Y019502D01*
X024162Y019464D01*
X024168Y019425D01*
X024170Y019386D01*
X024168Y019347D01*
X024162Y019308D01*
X024153Y019270D01*
X024140Y019233D01*
X024123Y019197D01*
X024103Y019164D01*
X024079Y019132D01*
X024053Y019103D01*
X024024Y019077D01*
X023992Y019053D01*
X023959Y019033D01*
X023923Y019016D01*
X023886Y019003D01*
X023848Y018994D01*
X023809Y018988D01*
X023770Y018986D01*
X023731Y018988D01*
X023692Y018994D01*
X023654Y019003D01*
X023617Y019016D01*
X023581Y019033D01*
X023548Y019053D01*
X023516Y019077D01*
X023487Y019103D01*
X022956Y018572D01*
X029320Y012208D01*
X029714Y019531D02*
X031341Y021158D01*
X024977Y027522D01*
X024446Y026991D01*
X024472Y026962D01*
X024496Y026930D01*
X024516Y026897D01*
X024533Y026861D01*
X024546Y026824D01*
X024555Y026786D01*
X024561Y026747D01*
X024563Y026708D01*
X024561Y026669D01*
X024555Y026630D01*
X024546Y026592D01*
X024533Y026555D01*
X024516Y026519D01*
X024496Y026486D01*
X024472Y026454D01*
X024446Y026425D01*
X024417Y026399D01*
X024385Y026375D01*
X024352Y026355D01*
X024316Y026338D01*
X024279Y026325D01*
X024241Y026316D01*
X024202Y026310D01*
X024163Y026308D01*
X024124Y026310D01*
X024085Y026316D01*
X024047Y026325D01*
X024010Y026338D01*
X023974Y026355D01*
X023941Y026375D01*
X023909Y026399D01*
X023880Y026425D01*
X023881Y026426D02*
X023350Y025895D01*
X029714Y019531D01*
X029714Y026894D02*
X031341Y028520D01*
X024977Y034884D01*
X024446Y034353D01*
X024446Y034354D02*
X024472Y034325D01*
X024496Y034293D01*
X024516Y034260D01*
X024533Y034224D01*
X024546Y034187D01*
X024555Y034149D01*
X024561Y034110D01*
X024563Y034071D01*
X024561Y034032D01*
X024555Y033993D01*
X024546Y033955D01*
X024533Y033918D01*
X024516Y033882D01*
X024496Y033849D01*
X024472Y033817D01*
X024446Y033788D01*
X024417Y033762D01*
X024385Y033738D01*
X024352Y033718D01*
X024316Y033701D01*
X024279Y033688D01*
X024241Y033679D01*
X024202Y033673D01*
X024163Y033671D01*
X024124Y033673D01*
X024085Y033679D01*
X024047Y033688D01*
X024010Y033701D01*
X023974Y033718D01*
X023941Y033738D01*
X023909Y033762D01*
X023880Y033788D01*
X023881Y033788D02*
X023350Y033257D01*
X029714Y026894D01*
X021034Y023137D02*
X017626Y026546D01*
X017625Y026546D02*
X017607Y026561D01*
X017587Y026574D01*
X017565Y026583D01*
X017542Y026588D01*
X017519Y026590D01*
X017496Y026588D01*
X017473Y026583D01*
X017451Y026574D01*
X017431Y026561D01*
X017413Y026546D01*
X016834Y025966D01*
X016126Y025259D01*
X015547Y024679D01*
X015532Y024661D01*
X015519Y024641D01*
X015510Y024619D01*
X015505Y024596D01*
X015503Y024573D01*
X015505Y024550D01*
X015510Y024527D01*
X015519Y024505D01*
X015532Y024485D01*
X015547Y024467D01*
X018955Y021058D01*
X018955Y021059D02*
X018973Y021044D01*
X018993Y021031D01*
X019015Y021022D01*
X019038Y021017D01*
X019061Y021015D01*
X019084Y021017D01*
X019107Y021022D01*
X019129Y021031D01*
X019149Y021044D01*
X019167Y021059D01*
X019167Y021058D02*
X021034Y022925D01*
X021049Y022943D01*
X021062Y022963D01*
X021071Y022985D01*
X021076Y023008D01*
X021078Y023031D01*
X021076Y023054D01*
X021071Y023077D01*
X021062Y023099D01*
X021049Y023119D01*
X021034Y023137D01*
X016834Y025966D02*
X016863Y025933D01*
X016890Y025899D01*
X016913Y025862D01*
X016933Y025823D01*
X016950Y025783D01*
X016963Y025741D01*
X016972Y025699D01*
X016978Y025656D01*
X016980Y025612D01*
X016978Y025568D01*
X016972Y025525D01*
X016963Y025483D01*
X016950Y025441D01*
X016933Y025401D01*
X016913Y025362D01*
X016890Y025325D01*
X016863Y025291D01*
X016834Y025258D01*
X016801Y025229D01*
X016767Y025202D01*
X016730Y025179D01*
X016691Y025159D01*
X016651Y025142D01*
X016609Y025129D01*
X016567Y025120D01*
X016524Y025114D01*
X016480Y025112D01*
X016436Y025114D01*
X016393Y025120D01*
X016351Y025129D01*
X016309Y025142D01*
X016269Y025159D01*
X016230Y025179D01*
X016193Y025202D01*
X016159Y025229D01*
X016126Y025258D01*
X011766Y025686D02*
X009066Y025686D01*
X009007Y025684D01*
X008949Y025678D01*
X008890Y025669D01*
X008833Y025655D01*
X008777Y025638D01*
X008722Y025617D01*
X008668Y025593D01*
X008616Y025565D01*
X008566Y025534D01*
X008518Y025500D01*
X008473Y025463D01*
X008430Y025422D01*
X008389Y025379D01*
X008352Y025334D01*
X008318Y025286D01*
X008287Y025236D01*
X008259Y025184D01*
X008235Y025130D01*
X008214Y025075D01*
X008197Y025019D01*
X008183Y024962D01*
X008174Y024903D01*
X008168Y024845D01*
X008166Y024786D01*
X008168Y024727D01*
X008174Y024669D01*
X008183Y024610D01*
X008197Y024553D01*
X008214Y024497D01*
X008235Y024442D01*
X008259Y024388D01*
X008287Y024336D01*
X008318Y024286D01*
X008352Y024238D01*
X008389Y024193D01*
X008430Y024150D01*
X008473Y024109D01*
X008518Y024072D01*
X008566Y024038D01*
X008616Y024007D01*
X008668Y023979D01*
X008722Y023955D01*
X008777Y023934D01*
X008833Y023917D01*
X008890Y023903D01*
X008949Y023894D01*
X009007Y023888D01*
X009066Y023886D01*
X011766Y023886D01*
X011825Y023888D01*
X011883Y023894D01*
X011942Y023903D01*
X011999Y023917D01*
X012055Y023934D01*
X012110Y023955D01*
X012164Y023979D01*
X012216Y024007D01*
X012266Y024038D01*
X012314Y024072D01*
X012359Y024109D01*
X012402Y024150D01*
X012443Y024193D01*
X012480Y024238D01*
X012514Y024286D01*
X012545Y024336D01*
X012573Y024388D01*
X012597Y024442D01*
X012618Y024497D01*
X012635Y024553D01*
X012649Y024610D01*
X012658Y024669D01*
X012664Y024727D01*
X012666Y024786D01*
X012664Y024845D01*
X012658Y024903D01*
X012649Y024962D01*
X012635Y025019D01*
X012618Y025075D01*
X012597Y025130D01*
X012573Y025184D01*
X012545Y025236D01*
X012514Y025286D01*
X012480Y025334D01*
X012443Y025379D01*
X012402Y025422D01*
X012359Y025463D01*
X012314Y025500D01*
X012266Y025534D01*
X012216Y025565D01*
X012164Y025593D01*
X012110Y025617D01*
X012055Y025638D01*
X011999Y025655D01*
X011942Y025669D01*
X011883Y025678D01*
X011825Y025684D01*
X011766Y025686D01*
X009416Y029708D02*
X009418Y029771D01*
X009424Y029833D01*
X009434Y029895D01*
X009447Y029957D01*
X009465Y030017D01*
X009486Y030076D01*
X009511Y030134D01*
X009540Y030190D01*
X009572Y030244D01*
X009607Y030296D01*
X009645Y030345D01*
X009687Y030393D01*
X009731Y030437D01*
X009779Y030479D01*
X009828Y030517D01*
X009880Y030552D01*
X009934Y030584D01*
X009990Y030613D01*
X010048Y030638D01*
X010107Y030659D01*
X010167Y030677D01*
X010229Y030690D01*
X010291Y030700D01*
X010353Y030706D01*
X010416Y030708D01*
X010479Y030706D01*
X010541Y030700D01*
X010603Y030690D01*
X010665Y030677D01*
X010725Y030659D01*
X010784Y030638D01*
X010842Y030613D01*
X010898Y030584D01*
X010952Y030552D01*
X011004Y030517D01*
X011053Y030479D01*
X011101Y030437D01*
X011145Y030393D01*
X011187Y030345D01*
X011225Y030296D01*
X011260Y030244D01*
X011292Y030190D01*
X011321Y030134D01*
X011346Y030076D01*
X011367Y030017D01*
X011385Y029957D01*
X011398Y029895D01*
X011408Y029833D01*
X011414Y029771D01*
X011416Y029708D01*
X011414Y029645D01*
X011408Y029583D01*
X011398Y029521D01*
X011385Y029459D01*
X011367Y029399D01*
X011346Y029340D01*
X011321Y029282D01*
X011292Y029226D01*
X011260Y029172D01*
X011225Y029120D01*
X011187Y029071D01*
X011145Y029023D01*
X011101Y028979D01*
X011053Y028937D01*
X011004Y028899D01*
X010952Y028864D01*
X010898Y028832D01*
X010842Y028803D01*
X010784Y028778D01*
X010725Y028757D01*
X010665Y028739D01*
X010603Y028726D01*
X010541Y028716D01*
X010479Y028710D01*
X010416Y028708D01*
X010353Y028710D01*
X010291Y028716D01*
X010229Y028726D01*
X010167Y028739D01*
X010107Y028757D01*
X010048Y028778D01*
X009990Y028803D01*
X009934Y028832D01*
X009880Y028864D01*
X009828Y028899D01*
X009779Y028937D01*
X009731Y028979D01*
X009687Y029023D01*
X009645Y029071D01*
X009607Y029120D01*
X009572Y029172D01*
X009540Y029226D01*
X009511Y029282D01*
X009486Y029340D01*
X009465Y029399D01*
X009447Y029459D01*
X009434Y029521D01*
X009424Y029583D01*
X009418Y029645D01*
X009416Y029708D01*
X010816Y030208D02*
X011116Y030208D01*
X010966Y030058D02*
X010966Y030358D01*
X015547Y032341D02*
X018955Y028932D01*
X018955Y028933D02*
X018973Y028918D01*
X018993Y028905D01*
X019015Y028896D01*
X019038Y028891D01*
X019061Y028889D01*
X019084Y028891D01*
X019107Y028896D01*
X019129Y028905D01*
X019149Y028918D01*
X019167Y028933D01*
X019167Y028932D02*
X021034Y030799D01*
X021049Y030817D01*
X021062Y030837D01*
X021071Y030859D01*
X021076Y030882D01*
X021078Y030905D01*
X021076Y030928D01*
X021071Y030951D01*
X021062Y030973D01*
X021049Y030993D01*
X021034Y031011D01*
X017626Y034420D01*
X017625Y034420D02*
X017607Y034435D01*
X017587Y034448D01*
X017565Y034457D01*
X017542Y034462D01*
X017519Y034464D01*
X017496Y034462D01*
X017473Y034457D01*
X017451Y034448D01*
X017431Y034435D01*
X017413Y034420D01*
X016834Y033840D01*
X016126Y033133D01*
X015547Y032553D01*
X015532Y032535D01*
X015519Y032515D01*
X015510Y032493D01*
X015505Y032470D01*
X015503Y032447D01*
X015505Y032424D01*
X015510Y032401D01*
X015519Y032379D01*
X015532Y032359D01*
X015547Y032341D01*
X016126Y033132D02*
X016159Y033103D01*
X016193Y033076D01*
X016230Y033053D01*
X016269Y033033D01*
X016309Y033016D01*
X016351Y033003D01*
X016393Y032994D01*
X016436Y032988D01*
X016480Y032986D01*
X016524Y032988D01*
X016567Y032994D01*
X016609Y033003D01*
X016651Y033016D01*
X016691Y033033D01*
X016730Y033053D01*
X016767Y033076D01*
X016801Y033103D01*
X016834Y033132D01*
X016863Y033165D01*
X016890Y033199D01*
X016913Y033236D01*
X016933Y033275D01*
X016950Y033315D01*
X016963Y033357D01*
X016972Y033399D01*
X016978Y033442D01*
X016980Y033486D01*
X016978Y033530D01*
X016972Y033573D01*
X016963Y033615D01*
X016950Y033657D01*
X016933Y033697D01*
X016913Y033736D01*
X016890Y033773D01*
X016863Y033807D01*
X016834Y033840D01*
X005708Y023615D02*
X005708Y023115D01*
X005458Y022865D01*
X003958Y022865D01*
X003708Y022615D01*
X003708Y022115D01*
X003958Y021865D01*
X005458Y021865D01*
X005708Y021615D01*
X005708Y021115D01*
X005458Y020865D01*
X003958Y020865D01*
X003708Y020615D01*
X003708Y020115D01*
X003958Y019865D01*
X005458Y019865D01*
X005708Y019615D01*
X005708Y019115D01*
X005458Y018865D01*
X003958Y018865D01*
X003708Y018615D01*
X003708Y018115D01*
X003958Y017865D01*
X005458Y017865D01*
X005708Y017615D01*
X005708Y017115D01*
X005458Y016865D01*
X005708Y016615D01*
X005708Y016115D01*
X005458Y015865D01*
X003958Y015865D01*
X003708Y016115D01*
X003708Y016615D01*
X003958Y016865D01*
X005458Y016865D01*
X005458Y017865D02*
X005708Y018115D01*
X005708Y018615D01*
X005458Y018865D01*
X005458Y019865D02*
X005708Y020115D01*
X005708Y020615D01*
X005458Y020865D01*
X005458Y021865D02*
X005708Y022115D01*
X005708Y022615D01*
X005458Y022865D01*
X005708Y023615D02*
X005458Y023865D01*
X003958Y023865D01*
X003708Y023615D01*
X003708Y023115D01*
X003958Y022865D01*
X003958Y021865D02*
X003708Y021615D01*
X003708Y021115D01*
X003958Y020865D01*
X003958Y019865D02*
X003708Y019615D01*
X003708Y019115D01*
X003958Y018865D01*
X003958Y017865D02*
X003708Y017615D01*
X003708Y017115D01*
X003958Y016865D01*
X010223Y021270D02*
X010374Y021119D01*
X010298Y021195D02*
X010751Y021648D01*
X010675Y021723D02*
X010826Y021572D01*
X010904Y021344D02*
X010602Y021042D01*
X010602Y020891D01*
X010753Y020740D01*
X010904Y020740D01*
X010982Y020511D02*
X011284Y020209D01*
X011133Y020360D02*
X011586Y020813D01*
X011284Y020813D01*
X011206Y021042D02*
X011206Y021193D01*
X011055Y021344D01*
X010904Y021344D01*
X015547Y016805D02*
X016126Y017385D01*
X016834Y018092D01*
X017413Y018672D01*
X017431Y018687D01*
X017451Y018700D01*
X017473Y018709D01*
X017496Y018714D01*
X017519Y018716D01*
X017542Y018714D01*
X017565Y018709D01*
X017587Y018700D01*
X017607Y018687D01*
X017625Y018672D01*
X017626Y018672D02*
X021034Y015263D01*
X021049Y015245D01*
X021062Y015225D01*
X021071Y015203D01*
X021076Y015180D01*
X021078Y015157D01*
X021076Y015134D01*
X021071Y015111D01*
X021062Y015089D01*
X021049Y015069D01*
X021034Y015051D01*
X019167Y013184D01*
X019167Y013185D02*
X019149Y013170D01*
X019129Y013157D01*
X019107Y013148D01*
X019084Y013143D01*
X019061Y013141D01*
X019038Y013143D01*
X019015Y013148D01*
X018993Y013157D01*
X018973Y013170D01*
X018955Y013185D01*
X018955Y013184D02*
X015547Y016593D01*
X015532Y016611D01*
X015519Y016631D01*
X015510Y016653D01*
X015505Y016676D01*
X015503Y016699D01*
X015505Y016722D01*
X015510Y016745D01*
X015519Y016767D01*
X015532Y016787D01*
X015547Y016805D01*
X016126Y017384D02*
X016159Y017355D01*
X016193Y017328D01*
X016230Y017305D01*
X016269Y017285D01*
X016309Y017268D01*
X016351Y017255D01*
X016393Y017246D01*
X016436Y017240D01*
X016480Y017238D01*
X016524Y017240D01*
X016567Y017246D01*
X016609Y017255D01*
X016651Y017268D01*
X016691Y017285D01*
X016730Y017305D01*
X016767Y017328D01*
X016801Y017355D01*
X016834Y017384D01*
X016863Y017417D01*
X016890Y017451D01*
X016913Y017488D01*
X016933Y017527D01*
X016950Y017567D01*
X016963Y017609D01*
X016972Y017651D01*
X016978Y017694D01*
X016980Y017738D01*
X016978Y017782D01*
X016972Y017825D01*
X016963Y017867D01*
X016950Y017909D01*
X016933Y017949D01*
X016913Y017988D01*
X016890Y018025D01*
X016863Y018059D01*
X016834Y018092D01*
X017413Y010798D02*
X016834Y010218D01*
X016126Y009511D01*
X015547Y008931D01*
X015532Y008913D01*
X015519Y008893D01*
X015510Y008871D01*
X015505Y008848D01*
X015503Y008825D01*
X015505Y008802D01*
X015510Y008779D01*
X015519Y008757D01*
X015532Y008737D01*
X015547Y008719D01*
X018955Y005310D01*
X018955Y005311D02*
X018973Y005296D01*
X018993Y005283D01*
X019015Y005274D01*
X019038Y005269D01*
X019061Y005267D01*
X019084Y005269D01*
X019107Y005274D01*
X019129Y005283D01*
X019149Y005296D01*
X019167Y005311D01*
X019167Y005310D02*
X021034Y007177D01*
X021049Y007195D01*
X021062Y007215D01*
X021071Y007237D01*
X021076Y007260D01*
X021078Y007283D01*
X021076Y007306D01*
X021071Y007329D01*
X021062Y007351D01*
X021049Y007371D01*
X021034Y007389D01*
X017626Y010798D01*
X017625Y010798D02*
X017607Y010813D01*
X017587Y010826D01*
X017565Y010835D01*
X017542Y010840D01*
X017519Y010842D01*
X017496Y010840D01*
X017473Y010835D01*
X017451Y010826D01*
X017431Y010813D01*
X017413Y010798D01*
X016834Y010218D02*
X016863Y010185D01*
X016890Y010151D01*
X016913Y010114D01*
X016933Y010075D01*
X016950Y010035D01*
X016963Y009993D01*
X016972Y009951D01*
X016978Y009908D01*
X016980Y009864D01*
X016978Y009820D01*
X016972Y009777D01*
X016963Y009735D01*
X016950Y009693D01*
X016933Y009653D01*
X016913Y009614D01*
X016890Y009577D01*
X016863Y009543D01*
X016834Y009510D01*
X016801Y009481D01*
X016767Y009454D01*
X016730Y009431D01*
X016691Y009411D01*
X016651Y009394D01*
X016609Y009381D01*
X016567Y009372D01*
X016524Y009366D01*
X016480Y009364D01*
X016436Y009366D01*
X016393Y009372D01*
X016351Y009381D01*
X016309Y009394D01*
X016269Y009411D01*
X016230Y009431D01*
X016193Y009454D01*
X016159Y009481D01*
X016126Y009510D01*
D12*
X015149Y010819D02*
X015257Y010927D01*
X015257Y011036D01*
X015366Y011144D02*
X015474Y011144D01*
X015583Y011253D01*
X015583Y011361D01*
X015529Y011416D01*
X015420Y011416D01*
X015257Y011253D01*
X015366Y011144D01*
X015257Y011253D02*
X015257Y011470D01*
X015312Y011633D01*
X015040Y011253D02*
X014932Y011253D01*
X014823Y011144D01*
X014823Y011036D01*
X015040Y010819D01*
X015149Y010819D01*
X012038Y014390D02*
X011885Y014390D01*
X011808Y014466D01*
X012115Y014773D01*
X012115Y014466D01*
X012038Y014390D01*
X011808Y014466D02*
X011808Y014773D01*
X011885Y014850D01*
X012038Y014850D01*
X012115Y014773D01*
X011655Y014390D02*
X011348Y014390D01*
X011501Y014390D02*
X011501Y014850D01*
X011348Y014696D01*
X011194Y014620D02*
X011118Y014543D01*
X010887Y014543D01*
X010887Y014390D02*
X010887Y014850D01*
X011118Y014850D01*
X011194Y014773D01*
X011194Y014620D01*
X011041Y014543D02*
X011194Y014390D01*
X009352Y014733D02*
X009045Y014426D01*
X009045Y014350D01*
X008891Y014350D02*
X008738Y014503D01*
X008815Y014503D02*
X008584Y014503D01*
X008584Y014350D02*
X008584Y014810D01*
X008815Y014810D01*
X008891Y014733D01*
X008891Y014580D01*
X008815Y014503D01*
X009045Y014810D02*
X009352Y014810D01*
X009352Y014733D01*
X007631Y016480D02*
X007522Y016371D01*
X007414Y016371D01*
X007305Y016480D01*
X007305Y016588D01*
X007197Y016697D02*
X007088Y016697D01*
X006980Y016805D01*
X006980Y016914D01*
X007197Y017131D01*
X007305Y017131D01*
X007414Y017022D01*
X007414Y016914D01*
X007577Y016860D02*
X007414Y016697D01*
X007577Y016643D01*
X007631Y016588D01*
X007631Y016480D01*
X007794Y016643D02*
X007577Y016860D01*
X013349Y016380D02*
X013675Y016054D01*
X013892Y016271D01*
X014000Y016380D02*
X014217Y016597D01*
X014109Y016488D02*
X013783Y016814D01*
X013783Y016597D01*
X015520Y018373D02*
X015629Y018373D01*
X015737Y018481D01*
X015737Y018590D01*
X015846Y018698D02*
X015900Y018644D01*
X015846Y018698D02*
X015846Y019132D01*
X015792Y019187D01*
X015574Y018970D01*
X015520Y018807D02*
X015412Y018807D01*
X015303Y018698D01*
X015303Y018590D01*
X015520Y018373D01*
X013367Y022760D02*
X013693Y023085D01*
X013367Y023085D01*
X013584Y022868D01*
X013150Y023085D02*
X013042Y023085D01*
X012933Y023194D01*
X012933Y023302D01*
X013150Y023519D01*
X013259Y023519D01*
X013367Y023411D01*
X013367Y023302D01*
X015520Y026247D02*
X015629Y026247D01*
X015737Y026355D01*
X015737Y026464D01*
X015846Y026572D02*
X015792Y026627D01*
X015792Y026735D01*
X015900Y026844D01*
X016009Y026844D01*
X016063Y026789D01*
X016063Y026681D01*
X015954Y026572D01*
X015846Y026572D01*
X015792Y026735D02*
X015683Y026735D01*
X015629Y026789D01*
X015629Y026898D01*
X015737Y027006D01*
X015846Y027006D01*
X015900Y026952D01*
X015900Y026844D01*
X015520Y026681D02*
X015412Y026681D01*
X015303Y026572D01*
X015303Y026464D01*
X015520Y026247D01*
X011714Y027502D02*
X011407Y027502D01*
X011560Y027502D02*
X011560Y027962D01*
X011407Y027809D01*
X011253Y027885D02*
X011177Y027962D01*
X011023Y027962D01*
X010947Y027885D01*
X010947Y027578D01*
X011023Y027502D01*
X011177Y027502D01*
X011253Y027578D01*
X009352Y027502D02*
X009045Y027502D01*
X009352Y027809D01*
X009352Y027885D01*
X009275Y027962D01*
X009121Y027962D01*
X009045Y027885D01*
X008891Y027885D02*
X008815Y027962D01*
X008661Y027962D01*
X008584Y027885D01*
X008584Y027578D01*
X008661Y027502D01*
X008815Y027502D01*
X008891Y027578D01*
X007544Y023382D02*
X007599Y023327D01*
X007599Y023219D01*
X007707Y023219D01*
X007761Y023165D01*
X007761Y023056D01*
X007653Y022948D01*
X007544Y022948D01*
X007436Y022839D02*
X007436Y022731D01*
X007327Y022622D01*
X007219Y022622D01*
X007002Y022839D01*
X007002Y022948D01*
X007110Y023056D01*
X007219Y023056D01*
X007327Y023165D02*
X007327Y023273D01*
X007436Y023382D01*
X007544Y023382D01*
X007599Y023219D02*
X007544Y023165D01*
X015520Y034121D02*
X015303Y034338D01*
X015303Y034446D01*
X015412Y034555D01*
X015520Y034555D01*
X015629Y034663D02*
X015683Y034609D01*
X015792Y034609D01*
X015954Y034772D01*
X015846Y034880D02*
X016063Y034663D01*
X016063Y034555D01*
X015954Y034446D01*
X015846Y034446D01*
X015737Y034338D02*
X015737Y034229D01*
X015629Y034121D01*
X015520Y034121D01*
X015629Y034663D02*
X015629Y034772D01*
X015737Y034880D01*
X015846Y034880D01*
X033016Y009613D02*
X032939Y009536D01*
X032939Y009383D01*
X033016Y009306D01*
X033092Y009306D01*
X033169Y009383D01*
X033169Y009613D01*
X033016Y009613D02*
X033323Y009613D01*
X033399Y009536D01*
X033399Y009383D01*
X033323Y009306D01*
X033323Y009152D02*
X033246Y009152D01*
X033169Y009076D01*
X033169Y008922D01*
X033092Y008845D01*
X033016Y008845D01*
X032939Y008922D01*
X032939Y009076D01*
X033016Y009152D01*
X032862Y008999D02*
X033476Y008999D01*
X033399Y009076D02*
X033323Y009152D01*
X033399Y009076D02*
X033399Y008922D01*
X033323Y008845D01*
X033323Y008692D02*
X032939Y008692D01*
X032939Y008385D02*
X033323Y008385D01*
X033399Y008462D01*
X033399Y008615D01*
X033323Y008692D01*
D13*
X019153Y005310D02*
X015547Y008917D01*
X019153Y013184D02*
X015547Y016791D01*
X019153Y021058D02*
X015547Y024665D01*
X011766Y024086D02*
X011817Y024088D01*
X011868Y024093D01*
X011918Y024103D01*
X011968Y024116D01*
X012016Y024132D01*
X012063Y024152D01*
X012109Y024176D01*
X012152Y024202D01*
X012194Y024232D01*
X012233Y024265D01*
X012270Y024300D01*
X012304Y024338D01*
X012335Y024379D01*
X012364Y024421D01*
X012389Y024466D01*
X012410Y024512D01*
X012429Y024560D01*
X012443Y024609D01*
X012454Y024659D01*
X012462Y024709D01*
X012466Y024760D01*
X012466Y024812D01*
X012462Y024863D01*
X012454Y024913D01*
X012443Y024963D01*
X012429Y025012D01*
X012410Y025060D01*
X012389Y025106D01*
X012364Y025151D01*
X012335Y025193D01*
X012304Y025234D01*
X012270Y025272D01*
X012233Y025307D01*
X012194Y025340D01*
X012152Y025370D01*
X012109Y025396D01*
X012063Y025420D01*
X012016Y025440D01*
X011968Y025456D01*
X011918Y025469D01*
X011868Y025479D01*
X011817Y025484D01*
X011766Y025486D01*
X009066Y025486D01*
X009015Y025484D01*
X008964Y025479D01*
X008914Y025469D01*
X008864Y025456D01*
X008816Y025440D01*
X008769Y025420D01*
X008723Y025396D01*
X008680Y025370D01*
X008638Y025340D01*
X008599Y025307D01*
X008562Y025272D01*
X008528Y025234D01*
X008497Y025193D01*
X008468Y025151D01*
X008443Y025106D01*
X008422Y025060D01*
X008403Y025012D01*
X008389Y024963D01*
X008378Y024913D01*
X008370Y024863D01*
X008366Y024812D01*
X008366Y024760D01*
X008370Y024709D01*
X008378Y024659D01*
X008389Y024609D01*
X008403Y024560D01*
X008422Y024512D01*
X008443Y024466D01*
X008468Y024421D01*
X008497Y024379D01*
X008528Y024338D01*
X008562Y024300D01*
X008599Y024265D01*
X008638Y024232D01*
X008680Y024202D01*
X008723Y024176D01*
X008769Y024152D01*
X008816Y024132D01*
X008864Y024116D01*
X008914Y024103D01*
X008964Y024093D01*
X009015Y024088D01*
X009066Y024086D01*
X011766Y024086D01*
X019153Y028932D02*
X015547Y032539D01*
D14*
X015373Y032613D02*
X015480Y032719D01*
X015480Y032825D01*
X015214Y033091D01*
X015381Y033151D02*
X015381Y033257D01*
X015487Y033363D01*
X015593Y033363D01*
X015646Y033204D02*
X015540Y033098D01*
X015434Y033098D01*
X015381Y033151D01*
X015381Y033363D02*
X015805Y032939D01*
X015805Y033045D02*
X015805Y033151D01*
X015752Y033204D01*
X015646Y033204D01*
X015805Y033045D02*
X015699Y032939D01*
X015593Y032939D01*
X015373Y032613D02*
X015267Y032613D01*
X015002Y032878D01*
X015653Y033530D02*
X015865Y033742D01*
X015918Y033689D01*
X015918Y033264D01*
X015971Y033211D01*
X010238Y031131D02*
X009937Y030831D01*
X010013Y030756D01*
X010163Y030756D01*
X010238Y030831D01*
X010238Y031131D01*
X010163Y031206D01*
X010013Y031206D01*
X009937Y031131D01*
X009937Y030831D01*
X009777Y030756D02*
X009477Y030756D01*
X009627Y030756D02*
X009627Y031206D01*
X009477Y031056D01*
X009317Y031131D02*
X009242Y031206D01*
X009092Y031206D01*
X009017Y031131D01*
X009017Y030831D01*
X009092Y030756D01*
X009242Y030756D01*
X009317Y030831D01*
X009591Y029900D02*
X009591Y029673D01*
X009591Y029787D02*
X009931Y029787D01*
X009931Y029428D02*
X009591Y029428D01*
X009591Y029541D02*
X009591Y029314D01*
X008921Y026272D02*
X008921Y026197D01*
X008621Y025896D01*
X008621Y025821D01*
X008461Y025821D02*
X008311Y025971D01*
X008461Y025896D02*
X008386Y025821D01*
X008235Y025821D01*
X008160Y025896D01*
X008160Y026197D01*
X008235Y026272D01*
X008386Y026272D01*
X008461Y026197D01*
X008461Y025896D01*
X008621Y026272D02*
X008921Y026272D01*
X006357Y023730D02*
X006433Y023655D01*
X006433Y023505D01*
X006357Y023430D01*
X006057Y023730D01*
X006357Y023730D01*
X006057Y023730D02*
X005982Y023655D01*
X005982Y023505D01*
X006057Y023430D01*
X006357Y023430D01*
X006433Y023270D02*
X006433Y022969D01*
X006433Y023119D02*
X005982Y023119D01*
X006132Y022969D01*
X006057Y022809D02*
X005982Y022734D01*
X005982Y022584D01*
X006057Y022509D01*
X006132Y022509D01*
X006207Y022584D01*
X006207Y022734D01*
X006282Y022809D01*
X006357Y022809D01*
X006433Y022734D01*
X006433Y022584D01*
X006357Y022509D01*
X006357Y022349D02*
X005982Y022349D01*
X005982Y022048D02*
X006357Y022048D01*
X006433Y022124D01*
X006433Y022274D01*
X006357Y022349D01*
X006508Y022659D02*
X005907Y022659D01*
X015002Y025004D02*
X015267Y024739D01*
X015373Y024739D01*
X015480Y024845D01*
X015480Y024951D01*
X015214Y025217D01*
X015381Y025277D02*
X015381Y025383D01*
X015487Y025489D01*
X015593Y025489D01*
X015646Y025330D02*
X015540Y025224D01*
X015434Y025224D01*
X015381Y025277D01*
X015381Y025489D02*
X015805Y025065D01*
X015805Y025171D02*
X015805Y025277D01*
X015752Y025330D01*
X015646Y025330D01*
X015805Y025171D02*
X015699Y025065D01*
X015593Y025065D01*
X015918Y025390D02*
X016025Y025390D01*
X016131Y025496D01*
X016131Y025602D01*
X016025Y025709D01*
X015918Y025709D01*
X015865Y025655D01*
X015812Y025496D01*
X015653Y025655D01*
X015865Y025868D01*
X022926Y026284D02*
X023191Y026019D01*
X023297Y026019D01*
X023403Y026125D01*
X023403Y026231D01*
X023138Y026497D01*
X023304Y026557D02*
X023304Y026663D01*
X023410Y026769D01*
X023517Y026769D01*
X023570Y026610D02*
X023464Y026504D01*
X023357Y026504D01*
X023304Y026557D01*
X023304Y026769D02*
X023729Y026345D01*
X023623Y026345D02*
X023729Y026451D01*
X023729Y026557D01*
X023676Y026610D01*
X023570Y026610D01*
X023736Y026776D02*
X023895Y026936D01*
X024001Y026936D01*
X024054Y026882D01*
X024054Y026776D01*
X023948Y026670D01*
X023842Y026670D01*
X023736Y026776D01*
X023736Y026989D01*
X023789Y027148D01*
X023623Y026345D02*
X023517Y026345D01*
X023448Y019772D02*
X023342Y019772D01*
X023236Y019666D01*
X023236Y019560D01*
X023123Y019446D02*
X023017Y019446D01*
X022911Y019340D01*
X022911Y019234D01*
X022964Y019181D01*
X023070Y019181D01*
X023176Y019287D01*
X023282Y019287D01*
X023335Y019234D01*
X023335Y019128D01*
X023229Y019022D01*
X023123Y019022D01*
X023010Y018909D02*
X022744Y019174D01*
X022532Y018962D02*
X022797Y018696D01*
X022904Y018696D01*
X023010Y018802D01*
X023010Y018909D01*
X023335Y019022D02*
X022911Y019446D01*
X023502Y019294D02*
X023502Y019719D01*
X023448Y019772D01*
X023714Y019507D02*
X023502Y019294D01*
X016131Y017622D02*
X015812Y017941D01*
X015812Y017622D01*
X016025Y017835D01*
X015752Y017456D02*
X015646Y017456D01*
X015540Y017350D01*
X015434Y017350D01*
X015381Y017403D01*
X015381Y017509D01*
X015487Y017615D01*
X015593Y017615D01*
X015381Y017615D02*
X015805Y017191D01*
X015805Y017297D02*
X015805Y017403D01*
X015752Y017456D01*
X015805Y017297D02*
X015699Y017191D01*
X015593Y017191D01*
X015480Y017077D02*
X015214Y017343D01*
X015002Y017130D02*
X015267Y016865D01*
X015373Y016865D01*
X015480Y016971D01*
X015480Y017077D01*
X022926Y011599D02*
X023191Y011334D01*
X023297Y011334D01*
X023403Y011440D01*
X023403Y011546D01*
X023138Y011812D01*
X023304Y011872D02*
X023304Y011978D01*
X023410Y012084D01*
X023517Y012084D01*
X023570Y011925D02*
X023464Y011819D01*
X023357Y011819D01*
X023304Y011872D01*
X023304Y012084D02*
X023729Y011660D01*
X023623Y011660D02*
X023729Y011766D01*
X023729Y011872D01*
X023676Y011925D01*
X023570Y011925D01*
X023683Y012144D02*
X023683Y012357D01*
X024001Y012038D01*
X023895Y011932D02*
X024108Y012144D01*
X023623Y011660D02*
X023517Y011660D01*
X016131Y009854D02*
X016131Y009748D01*
X016025Y009642D01*
X015918Y009642D01*
X015805Y009529D02*
X015805Y009423D01*
X015699Y009317D01*
X015593Y009317D01*
X015480Y009203D02*
X015214Y009469D01*
X015381Y009529D02*
X015381Y009635D01*
X015487Y009741D01*
X015593Y009741D01*
X015706Y009854D02*
X015706Y009961D01*
X015812Y010067D01*
X015918Y010067D01*
X015971Y010014D01*
X015971Y009907D01*
X016078Y009907D01*
X016131Y009854D01*
X015971Y009907D02*
X015918Y009854D01*
X015752Y009582D02*
X015646Y009582D01*
X015540Y009476D01*
X015434Y009476D01*
X015381Y009529D01*
X015381Y009741D02*
X015805Y009317D01*
X015805Y009529D02*
X015752Y009582D01*
X015480Y009203D02*
X015480Y009097D01*
X015373Y008991D01*
X015267Y008991D01*
X015002Y009256D01*
X009162Y008673D02*
X009087Y008748D01*
X008937Y008748D01*
X008862Y008673D01*
X008702Y008673D02*
X008702Y008523D01*
X008627Y008448D01*
X008402Y008448D01*
X008402Y008298D02*
X008402Y008748D01*
X008627Y008748D01*
X008702Y008673D01*
X008862Y008298D02*
X009162Y008598D01*
X009162Y008673D01*
X009162Y008298D02*
X008862Y008298D01*
X008166Y008373D02*
X008166Y008748D01*
X008091Y008748D02*
X008241Y008748D01*
X008166Y008373D02*
X008091Y008298D01*
X008016Y008298D01*
X007941Y008373D01*
X023191Y033381D02*
X023297Y033381D01*
X023403Y033487D01*
X023403Y033594D01*
X023138Y033859D01*
X023304Y033919D02*
X023304Y034025D01*
X023410Y034131D01*
X023517Y034131D01*
X023630Y034245D02*
X023683Y034192D01*
X023789Y034192D01*
X023895Y034298D01*
X024001Y034298D01*
X024054Y034245D01*
X024054Y034139D01*
X023948Y034032D01*
X023842Y034032D01*
X023789Y034085D01*
X023789Y034192D01*
X023895Y034298D02*
X023895Y034404D01*
X023842Y034457D01*
X023736Y034457D01*
X023630Y034351D01*
X023630Y034245D01*
X023676Y033972D02*
X023570Y033972D01*
X023464Y033866D01*
X023357Y033866D01*
X023304Y033919D01*
X023304Y034131D02*
X023729Y033707D01*
X023729Y033813D02*
X023729Y033919D01*
X023676Y033972D01*
X023729Y033813D02*
X023623Y033707D01*
X023517Y033707D01*
X023191Y033381D02*
X022926Y033647D01*
D15*
G36*
X020638Y031408D02*
X020497Y031549D01*
X020532Y031584D01*
X020673Y031443D01*
X020638Y031408D01*
G37*
G36*
X020991Y031054D02*
X020850Y031195D01*
X020885Y031230D01*
X021026Y031089D01*
X020991Y031054D01*
G37*
G36*
X020284Y031761D02*
X020143Y031902D01*
X020178Y031937D01*
X020319Y031796D01*
X020284Y031761D01*
G37*
G36*
X019931Y032115D02*
X019790Y032256D01*
X019825Y032291D01*
X019966Y032150D01*
X019931Y032115D01*
G37*
G36*
X019577Y032468D02*
X019436Y032609D01*
X019471Y032644D01*
X019612Y032503D01*
X019577Y032468D01*
G37*
G36*
X019224Y032822D02*
X019083Y032963D01*
X019118Y032998D01*
X019259Y032857D01*
X019224Y032822D01*
G37*
G36*
X018870Y033176D02*
X018729Y033317D01*
X018764Y033352D01*
X018905Y033211D01*
X018870Y033176D01*
G37*
G36*
X018516Y033529D02*
X018375Y033670D01*
X018410Y033705D01*
X018551Y033564D01*
X018516Y033529D01*
G37*
G36*
X018163Y033883D02*
X018022Y034024D01*
X018057Y034059D01*
X018198Y033918D01*
X018163Y033883D01*
G37*
G36*
X017809Y034236D02*
X017668Y034377D01*
X017703Y034412D01*
X017844Y034271D01*
X017809Y034236D01*
G37*
G36*
X015695Y032122D02*
X015554Y032263D01*
X015589Y032298D01*
X015730Y032157D01*
X015695Y032122D01*
G37*
G36*
X016049Y031768D02*
X015908Y031909D01*
X015943Y031944D01*
X016084Y031803D01*
X016049Y031768D01*
G37*
G36*
X016402Y031415D02*
X016261Y031556D01*
X016296Y031591D01*
X016437Y031450D01*
X016402Y031415D01*
G37*
G36*
X016756Y031061D02*
X016615Y031202D01*
X016650Y031237D01*
X016791Y031096D01*
X016756Y031061D01*
G37*
G36*
X017109Y030708D02*
X016968Y030849D01*
X017003Y030884D01*
X017144Y030743D01*
X017109Y030708D01*
G37*
G36*
X017463Y030354D02*
X017322Y030495D01*
X017357Y030530D01*
X017498Y030389D01*
X017463Y030354D01*
G37*
G36*
X017816Y030001D02*
X017675Y030142D01*
X017710Y030177D01*
X017851Y030036D01*
X017816Y030001D01*
G37*
G36*
X018170Y029647D02*
X018029Y029788D01*
X018064Y029823D01*
X018205Y029682D01*
X018170Y029647D01*
G37*
G36*
X018524Y029294D02*
X018383Y029435D01*
X018418Y029470D01*
X018559Y029329D01*
X018524Y029294D01*
G37*
G36*
X018877Y028940D02*
X018736Y029081D01*
X018771Y029116D01*
X018912Y028975D01*
X018877Y028940D01*
G37*
G36*
X017809Y026362D02*
X017668Y026503D01*
X017703Y026538D01*
X017844Y026397D01*
X017809Y026362D01*
G37*
G36*
X018163Y026009D02*
X018022Y026150D01*
X018057Y026185D01*
X018198Y026044D01*
X018163Y026009D01*
G37*
G36*
X018516Y025655D02*
X018375Y025796D01*
X018410Y025831D01*
X018551Y025690D01*
X018516Y025655D01*
G37*
G36*
X018870Y025302D02*
X018729Y025443D01*
X018764Y025478D01*
X018905Y025337D01*
X018870Y025302D01*
G37*
G36*
X019224Y024948D02*
X019083Y025089D01*
X019118Y025124D01*
X019259Y024983D01*
X019224Y024948D01*
G37*
G36*
X019577Y024594D02*
X019436Y024735D01*
X019471Y024770D01*
X019612Y024629D01*
X019577Y024594D01*
G37*
G36*
X019931Y024241D02*
X019790Y024382D01*
X019825Y024417D01*
X019966Y024276D01*
X019931Y024241D01*
G37*
G36*
X020284Y023887D02*
X020143Y024028D01*
X020178Y024063D01*
X020319Y023922D01*
X020284Y023887D01*
G37*
G36*
X020638Y023534D02*
X020497Y023675D01*
X020532Y023710D01*
X020673Y023569D01*
X020638Y023534D01*
G37*
G36*
X020991Y023180D02*
X020850Y023321D01*
X020885Y023356D01*
X021026Y023215D01*
X020991Y023180D01*
G37*
G36*
X018877Y021066D02*
X018736Y021207D01*
X018771Y021242D01*
X018912Y021101D01*
X018877Y021066D01*
G37*
G36*
X018524Y021419D02*
X018383Y021560D01*
X018418Y021595D01*
X018559Y021454D01*
X018524Y021419D01*
G37*
G36*
X018170Y021773D02*
X018029Y021914D01*
X018064Y021949D01*
X018205Y021808D01*
X018170Y021773D01*
G37*
G36*
X017816Y022127D02*
X017675Y022268D01*
X017710Y022303D01*
X017851Y022162D01*
X017816Y022127D01*
G37*
G36*
X017463Y022480D02*
X017322Y022621D01*
X017357Y022656D01*
X017498Y022515D01*
X017463Y022480D01*
G37*
G36*
X017109Y022834D02*
X016968Y022975D01*
X017003Y023010D01*
X017144Y022869D01*
X017109Y022834D01*
G37*
G36*
X016756Y023187D02*
X016615Y023328D01*
X016650Y023363D01*
X016791Y023222D01*
X016756Y023187D01*
G37*
G36*
X016402Y023541D02*
X016261Y023682D01*
X016296Y023717D01*
X016437Y023576D01*
X016402Y023541D01*
G37*
G36*
X016049Y023894D02*
X015908Y024035D01*
X015943Y024070D01*
X016084Y023929D01*
X016049Y023894D01*
G37*
G36*
X015695Y024248D02*
X015554Y024389D01*
X015589Y024424D01*
X015730Y024283D01*
X015695Y024248D01*
G37*
G36*
X017809Y018488D02*
X017668Y018629D01*
X017703Y018664D01*
X017844Y018523D01*
X017809Y018488D01*
G37*
G36*
X018163Y018135D02*
X018022Y018276D01*
X018057Y018311D01*
X018198Y018170D01*
X018163Y018135D01*
G37*
G36*
X018516Y017781D02*
X018375Y017922D01*
X018410Y017957D01*
X018551Y017816D01*
X018516Y017781D01*
G37*
G36*
X018870Y017427D02*
X018729Y017568D01*
X018764Y017603D01*
X018905Y017462D01*
X018870Y017427D01*
G37*
G36*
X019224Y017074D02*
X019083Y017215D01*
X019118Y017250D01*
X019259Y017109D01*
X019224Y017074D01*
G37*
G36*
X019577Y016720D02*
X019436Y016861D01*
X019471Y016896D01*
X019612Y016755D01*
X019577Y016720D01*
G37*
G36*
X019931Y016367D02*
X019790Y016508D01*
X019825Y016543D01*
X019966Y016402D01*
X019931Y016367D01*
G37*
G36*
X020284Y016013D02*
X020143Y016154D01*
X020178Y016189D01*
X020319Y016048D01*
X020284Y016013D01*
G37*
G36*
X020638Y015660D02*
X020497Y015801D01*
X020532Y015836D01*
X020673Y015695D01*
X020638Y015660D01*
G37*
G36*
X020991Y015306D02*
X020850Y015447D01*
X020885Y015482D01*
X021026Y015341D01*
X020991Y015306D01*
G37*
G36*
X018877Y013192D02*
X018736Y013333D01*
X018771Y013368D01*
X018912Y013227D01*
X018877Y013192D01*
G37*
G36*
X018524Y013545D02*
X018383Y013686D01*
X018418Y013721D01*
X018559Y013580D01*
X018524Y013545D01*
G37*
G36*
X018170Y013899D02*
X018029Y014040D01*
X018064Y014075D01*
X018205Y013934D01*
X018170Y013899D01*
G37*
G36*
X017816Y014253D02*
X017675Y014394D01*
X017710Y014429D01*
X017851Y014288D01*
X017816Y014253D01*
G37*
G36*
X017463Y014606D02*
X017322Y014747D01*
X017357Y014782D01*
X017498Y014641D01*
X017463Y014606D01*
G37*
G36*
X017109Y014960D02*
X016968Y015101D01*
X017003Y015136D01*
X017144Y014995D01*
X017109Y014960D01*
G37*
G36*
X016756Y015313D02*
X016615Y015454D01*
X016650Y015489D01*
X016791Y015348D01*
X016756Y015313D01*
G37*
G36*
X016402Y015667D02*
X016261Y015808D01*
X016296Y015843D01*
X016437Y015702D01*
X016402Y015667D01*
G37*
G36*
X016049Y016020D02*
X015908Y016161D01*
X015943Y016196D01*
X016084Y016055D01*
X016049Y016020D01*
G37*
G36*
X015695Y016374D02*
X015554Y016515D01*
X015589Y016550D01*
X015730Y016409D01*
X015695Y016374D01*
G37*
G36*
X017809Y010614D02*
X017668Y010755D01*
X017703Y010790D01*
X017844Y010649D01*
X017809Y010614D01*
G37*
G36*
X018163Y010261D02*
X018022Y010402D01*
X018057Y010437D01*
X018198Y010296D01*
X018163Y010261D01*
G37*
G36*
X018516Y009907D02*
X018375Y010048D01*
X018410Y010083D01*
X018551Y009942D01*
X018516Y009907D01*
G37*
G36*
X018870Y009553D02*
X018729Y009694D01*
X018764Y009729D01*
X018905Y009588D01*
X018870Y009553D01*
G37*
G36*
X019224Y009200D02*
X019083Y009341D01*
X019118Y009376D01*
X019259Y009235D01*
X019224Y009200D01*
G37*
G36*
X019577Y008846D02*
X019436Y008987D01*
X019471Y009022D01*
X019612Y008881D01*
X019577Y008846D01*
G37*
G36*
X019931Y008493D02*
X019790Y008634D01*
X019825Y008669D01*
X019966Y008528D01*
X019931Y008493D01*
G37*
G36*
X020284Y008139D02*
X020143Y008280D01*
X020178Y008315D01*
X020319Y008174D01*
X020284Y008139D01*
G37*
G36*
X020638Y007786D02*
X020497Y007927D01*
X020532Y007962D01*
X020673Y007821D01*
X020638Y007786D01*
G37*
G36*
X020991Y007432D02*
X020850Y007573D01*
X020885Y007608D01*
X021026Y007467D01*
X020991Y007432D01*
G37*
G36*
X018877Y005318D02*
X018736Y005459D01*
X018771Y005494D01*
X018912Y005353D01*
X018877Y005318D01*
G37*
G36*
X018524Y005671D02*
X018383Y005812D01*
X018418Y005847D01*
X018559Y005706D01*
X018524Y005671D01*
G37*
G36*
X018170Y006025D02*
X018029Y006166D01*
X018064Y006201D01*
X018205Y006060D01*
X018170Y006025D01*
G37*
G36*
X017816Y006379D02*
X017675Y006520D01*
X017710Y006555D01*
X017851Y006414D01*
X017816Y006379D01*
G37*
G36*
X017463Y006732D02*
X017322Y006873D01*
X017357Y006908D01*
X017498Y006767D01*
X017463Y006732D01*
G37*
G36*
X017109Y007086D02*
X016968Y007227D01*
X017003Y007262D01*
X017144Y007121D01*
X017109Y007086D01*
G37*
G36*
X016756Y007439D02*
X016615Y007580D01*
X016650Y007615D01*
X016791Y007474D01*
X016756Y007439D01*
G37*
G36*
X016402Y007793D02*
X016261Y007934D01*
X016296Y007969D01*
X016437Y007828D01*
X016402Y007793D01*
G37*
G36*
X016049Y008146D02*
X015908Y008287D01*
X015943Y008322D01*
X016084Y008181D01*
X016049Y008146D01*
G37*
G36*
X015695Y008500D02*
X015554Y008641D01*
X015589Y008676D01*
X015730Y008535D01*
X015695Y008500D01*
G37*
D16*
X010528Y017304D02*
X010305Y017304D01*
X007855Y019754D01*
X007855Y019976D01*
X010305Y022426D01*
X010528Y022426D01*
X012977Y019976D01*
X012977Y019754D01*
X010528Y017304D01*
X033566Y012106D02*
X033566Y010624D01*
X034176Y010624D01*
X034176Y012106D01*
X033566Y012106D01*
X033566Y027624D01*
X034176Y027624D01*
X034176Y029106D01*
X033566Y029106D01*
X033566Y031302D01*
X036873Y031302D01*
X036873Y029203D01*
X036755Y029203D01*
X036755Y028621D01*
X036873Y028621D01*
X036873Y020606D01*
X036873Y019124D01*
X036873Y011203D01*
X036755Y011203D01*
X036755Y010621D01*
X036873Y010621D01*
X036873Y008428D01*
X033566Y008428D01*
X033566Y010624D01*
X033930Y010621D02*
X033930Y008871D01*
X036509Y008871D01*
X036509Y019124D01*
X036263Y019124D02*
X036873Y019124D01*
X036263Y019124D02*
X036263Y020606D01*
X036873Y020606D01*
X036509Y020606D02*
X036509Y030859D01*
X033930Y030859D01*
X033930Y029109D01*
X033566Y029106D02*
X033566Y027624D01*
X033930Y027623D02*
X033930Y012107D01*
D17*
X012916Y011023D02*
X012916Y009023D01*
X007916Y009023D01*
X007916Y011023D01*
X012916Y011023D01*
X010305Y022092D02*
X010307Y022112D01*
X010312Y022132D01*
X010322Y022150D01*
X010334Y022167D01*
X010349Y022181D01*
X010367Y022191D01*
X010386Y022199D01*
X010406Y022203D01*
X010426Y022203D01*
X010446Y022199D01*
X010465Y022191D01*
X010483Y022181D01*
X010498Y022167D01*
X010510Y022150D01*
X010520Y022132D01*
X010525Y022112D01*
X010527Y022092D01*
X010525Y022072D01*
X010520Y022052D01*
X010510Y022034D01*
X010498Y022017D01*
X010483Y022003D01*
X010465Y021993D01*
X010446Y021985D01*
X010426Y021981D01*
X010406Y021981D01*
X010386Y021985D01*
X010367Y021993D01*
X010349Y022003D01*
X010334Y022017D01*
X010322Y022034D01*
X010312Y022052D01*
X010307Y022072D01*
X010305Y022092D01*
M02*
