%
M48
M72
T01C0.0120
T02C0.0197
T03C0.0236
T04C0.0240
T05C0.0320
T06C0.0394
T07C0.0400
T08C0.1378
%
T01
X13042Y10917
X10142Y12717
X9542Y15017
X9242Y15217
X9842Y15317
X11342Y15017
X13342Y16517
X12542Y18017
X13342Y19917
X12142Y22517
X10942Y23717
X10442Y22517
X10542Y22217
X9642Y21617
X9642Y21217
X9142Y20717
X8742Y19917
X7642Y20017
X7342Y19017
X7742Y21717
X8342Y21717
X9042Y22717
X13042Y24217
X13542Y25217
X22842Y31617
X23142Y31617
X24742Y30317
X28842Y25317
X33942Y26917
X34142Y18317
X30542Y15917
X29142Y17317
X25642Y14217
X28442Y12717
X29542Y11017
X20942Y14417
X19942Y13217
X18642Y13617
X18542Y9717
T02
X17897Y12385
X17503Y12778
X17109Y13172
X16715Y13566
X16322Y13960
X15928Y14353
X15534Y14747
X15141Y15141
X14747Y15534
X13960Y18290
X12778Y18290
X9456Y20930
X11056Y21330
X9296Y18930
X14747Y23408
X15141Y23015
X15534Y22621
X15141Y22227
X15534Y21834
X15928Y22227
X16322Y21834
X16715Y21440
X16322Y21046
X16715Y20652
X17109Y20259
X17503Y20652
X17897Y20259
X17503Y19865
X17897Y19471
X17109Y21046
X15928Y21440
X19056Y24370
X19856Y22450
X22896Y22290
X25936Y24530
X22416Y27250
X24983Y28920
X21046Y32857
X17456Y32370
X15534Y30495
X15141Y30889
X14747Y31282
X13456Y30770
X15928Y30101
X16322Y29708
X16715Y29314
X17109Y28920
X17503Y28526
X17897Y28133
X10096Y26130
X5296Y27090
X5296Y30770
X7376Y33650
X21456Y19570
X26256Y16690
X21936Y14930
X21616Y12050
X23536Y6610
X20016Y5490
X17897Y4744
X17503Y4511
X17109Y4904
X16715Y5298
X16322Y5692
X15928Y6086
X15534Y6479
X15141Y6873
X14747Y7267
X30096Y21010
X31536Y12690
T03
X18684Y15141
X13936Y15570
X14096Y13490
X10576Y13490
X8448Y16322
X10416Y18290
X5936Y14290
X5616Y9810
X8656Y6130
X12816Y6130
T04
X11416Y24786
X9416Y24786
T05
X10416Y29208
X10416Y30208
X23456Y32656
X24163Y31949
X24870Y31242
X25578Y30535
X26285Y29828
X26992Y29121
X27699Y28414
X28406Y27707
X29113Y27000
X27699Y25294
X28406Y24587
X29113Y23880
X29820Y23173
X30527Y22466
X31234Y21759
X29113Y19637
X28406Y20344
X27699Y21052
X26992Y21759
X26285Y22466
X25578Y23173
X24870Y23880
X24163Y24587
X23456Y25294
X25578Y27416
X26285Y26708
X26992Y26001
X30527Y29828
X31234Y29121
X29820Y30535
X29113Y31242
X28406Y31949
X27699Y32656
X26992Y33364
X26285Y34071
X25578Y34778
X25184Y20093
X25891Y19386
X26598Y18678
X27305Y17971
X28012Y17264
X28719Y16557
X29427Y15850
X30134Y15143
X30841Y14436
X28719Y12315
X28012Y13022
X27305Y13729
X26598Y14436
X25891Y15143
X25184Y15850
X24477Y16557
X23770Y17264
X23063Y17971
X25578Y12731
X26285Y12023
X26992Y11316
X27699Y10609
X28406Y9902
X29113Y9195
X29820Y8488
X30527Y7781
X31234Y7074
X29113Y4952
X28406Y5659
X27699Y6367
X26992Y7074
X26285Y7781
X25578Y8488
X24870Y9195
X24163Y9902
X23456Y10609
T06
X34719Y10365
X34719Y11365
X34719Y12365
X34719Y13365
X34719Y14365
X34719Y15365
X34719Y16365
X34719Y17365
X34719Y18365
X34719Y19365
X34719Y20365
X34719Y21365
X34719Y22365
X34719Y23365
X34719Y24365
X34719Y25365
X34719Y26365
X34719Y27365
X34719Y28365
X34719Y29365
X35719Y29365
X35719Y28365
X35719Y27365
X35719Y26365
X35719Y25365
X35719Y24365
X35719Y23365
X35719Y22365
X35719Y21365
X35719Y20365
X35719Y19365
X35719Y18365
X35719Y17365
X35719Y16365
X35719Y15365
X35719Y14365
X35719Y13365
X35719Y12365
X35719Y11365
X35719Y10365
T07
X12416Y10523
X11416Y10523
X10416Y10523
X10416Y9523
X11416Y9523
X12416Y9523
X9416Y9523
X9416Y10523
X8416Y10523
X8416Y9523
X5208Y16365
X5208Y17365
X5208Y18365
X5208Y19365
X5208Y20365
X5208Y21365
X5208Y22365
X5208Y23365
X4208Y23365
X4208Y22365
X4208Y21365
X4208Y20365
X4208Y19365
X4208Y18365
X4208Y17365
X4208Y16365
T08
X4511Y6086
X4511Y33645
X36007Y33645
X36007Y6086
M30
