G75*
G70*
%OFA0B0*%
%FSLAX24Y24*%
%IPPOS*%
%LPD*%
%AMOC8*
5,1,8,0,0,1.08239X$1,22.5*
%
%ADD10C,0.0000*%
%ADD11C,0.1418*%
%ADD12R,0.0434X0.0473*%
%ADD13C,0.0480*%
%ADD14R,0.0473X0.0434*%
%ADD15R,0.0512X0.0670*%
%ADD16C,0.0560*%
%ADD17R,0.0300X0.0840*%
%ADD18R,0.0631X0.0237*%
%ADD19R,0.0237X0.0631*%
%ADD20C,0.0634*%
%ADD21OC8,0.0640*%
%ADD22R,0.0640X0.0640*%
%ADD23OC8,0.0560*%
%ADD24C,0.0560*%
D10*
X002542Y004117D02*
X002542Y035613D01*
X037975Y035613D01*
X037975Y004117D01*
X002542Y004117D01*
X003822Y006086D02*
X003824Y006138D01*
X003830Y006190D01*
X003840Y006241D01*
X003853Y006291D01*
X003871Y006341D01*
X003892Y006388D01*
X003916Y006434D01*
X003945Y006478D01*
X003976Y006520D01*
X004010Y006559D01*
X004047Y006596D01*
X004087Y006629D01*
X004130Y006660D01*
X004174Y006687D01*
X004220Y006711D01*
X004269Y006731D01*
X004318Y006747D01*
X004369Y006760D01*
X004420Y006769D01*
X004472Y006774D01*
X004524Y006775D01*
X004576Y006772D01*
X004628Y006765D01*
X004679Y006754D01*
X004729Y006740D01*
X004778Y006721D01*
X004825Y006699D01*
X004870Y006674D01*
X004914Y006645D01*
X004955Y006613D01*
X004994Y006578D01*
X005029Y006540D01*
X005062Y006499D01*
X005092Y006457D01*
X005118Y006412D01*
X005141Y006365D01*
X005160Y006316D01*
X005176Y006266D01*
X005188Y006216D01*
X005196Y006164D01*
X005200Y006112D01*
X005200Y006060D01*
X005196Y006008D01*
X005188Y005956D01*
X005176Y005906D01*
X005160Y005856D01*
X005141Y005807D01*
X005118Y005760D01*
X005092Y005715D01*
X005062Y005673D01*
X005029Y005632D01*
X004994Y005594D01*
X004955Y005559D01*
X004914Y005527D01*
X004870Y005498D01*
X004825Y005473D01*
X004778Y005451D01*
X004729Y005432D01*
X004679Y005418D01*
X004628Y005407D01*
X004576Y005400D01*
X004524Y005397D01*
X004472Y005398D01*
X004420Y005403D01*
X004369Y005412D01*
X004318Y005425D01*
X004269Y005441D01*
X004220Y005461D01*
X004174Y005485D01*
X004130Y005512D01*
X004087Y005543D01*
X004047Y005576D01*
X004010Y005613D01*
X003976Y005652D01*
X003945Y005694D01*
X003916Y005738D01*
X003892Y005784D01*
X003871Y005831D01*
X003853Y005881D01*
X003840Y005931D01*
X003830Y005982D01*
X003824Y006034D01*
X003822Y006086D01*
X003822Y033645D02*
X003824Y033697D01*
X003830Y033749D01*
X003840Y033800D01*
X003853Y033850D01*
X003871Y033900D01*
X003892Y033947D01*
X003916Y033993D01*
X003945Y034037D01*
X003976Y034079D01*
X004010Y034118D01*
X004047Y034155D01*
X004087Y034188D01*
X004130Y034219D01*
X004174Y034246D01*
X004220Y034270D01*
X004269Y034290D01*
X004318Y034306D01*
X004369Y034319D01*
X004420Y034328D01*
X004472Y034333D01*
X004524Y034334D01*
X004576Y034331D01*
X004628Y034324D01*
X004679Y034313D01*
X004729Y034299D01*
X004778Y034280D01*
X004825Y034258D01*
X004870Y034233D01*
X004914Y034204D01*
X004955Y034172D01*
X004994Y034137D01*
X005029Y034099D01*
X005062Y034058D01*
X005092Y034016D01*
X005118Y033971D01*
X005141Y033924D01*
X005160Y033875D01*
X005176Y033825D01*
X005188Y033775D01*
X005196Y033723D01*
X005200Y033671D01*
X005200Y033619D01*
X005196Y033567D01*
X005188Y033515D01*
X005176Y033465D01*
X005160Y033415D01*
X005141Y033366D01*
X005118Y033319D01*
X005092Y033274D01*
X005062Y033232D01*
X005029Y033191D01*
X004994Y033153D01*
X004955Y033118D01*
X004914Y033086D01*
X004870Y033057D01*
X004825Y033032D01*
X004778Y033010D01*
X004729Y032991D01*
X004679Y032977D01*
X004628Y032966D01*
X004576Y032959D01*
X004524Y032956D01*
X004472Y032957D01*
X004420Y032962D01*
X004369Y032971D01*
X004318Y032984D01*
X004269Y033000D01*
X004220Y033020D01*
X004174Y033044D01*
X004130Y033071D01*
X004087Y033102D01*
X004047Y033135D01*
X004010Y033172D01*
X003976Y033211D01*
X003945Y033253D01*
X003916Y033297D01*
X003892Y033343D01*
X003871Y033390D01*
X003853Y033440D01*
X003840Y033490D01*
X003830Y033541D01*
X003824Y033593D01*
X003822Y033645D01*
X035318Y033645D02*
X035320Y033697D01*
X035326Y033749D01*
X035336Y033800D01*
X035349Y033850D01*
X035367Y033900D01*
X035388Y033947D01*
X035412Y033993D01*
X035441Y034037D01*
X035472Y034079D01*
X035506Y034118D01*
X035543Y034155D01*
X035583Y034188D01*
X035626Y034219D01*
X035670Y034246D01*
X035716Y034270D01*
X035765Y034290D01*
X035814Y034306D01*
X035865Y034319D01*
X035916Y034328D01*
X035968Y034333D01*
X036020Y034334D01*
X036072Y034331D01*
X036124Y034324D01*
X036175Y034313D01*
X036225Y034299D01*
X036274Y034280D01*
X036321Y034258D01*
X036366Y034233D01*
X036410Y034204D01*
X036451Y034172D01*
X036490Y034137D01*
X036525Y034099D01*
X036558Y034058D01*
X036588Y034016D01*
X036614Y033971D01*
X036637Y033924D01*
X036656Y033875D01*
X036672Y033825D01*
X036684Y033775D01*
X036692Y033723D01*
X036696Y033671D01*
X036696Y033619D01*
X036692Y033567D01*
X036684Y033515D01*
X036672Y033465D01*
X036656Y033415D01*
X036637Y033366D01*
X036614Y033319D01*
X036588Y033274D01*
X036558Y033232D01*
X036525Y033191D01*
X036490Y033153D01*
X036451Y033118D01*
X036410Y033086D01*
X036366Y033057D01*
X036321Y033032D01*
X036274Y033010D01*
X036225Y032991D01*
X036175Y032977D01*
X036124Y032966D01*
X036072Y032959D01*
X036020Y032956D01*
X035968Y032957D01*
X035916Y032962D01*
X035865Y032971D01*
X035814Y032984D01*
X035765Y033000D01*
X035716Y033020D01*
X035670Y033044D01*
X035626Y033071D01*
X035583Y033102D01*
X035543Y033135D01*
X035506Y033172D01*
X035472Y033211D01*
X035441Y033253D01*
X035412Y033297D01*
X035388Y033343D01*
X035367Y033390D01*
X035349Y033440D01*
X035336Y033490D01*
X035326Y033541D01*
X035320Y033593D01*
X035318Y033645D01*
X035318Y006086D02*
X035320Y006138D01*
X035326Y006190D01*
X035336Y006241D01*
X035349Y006291D01*
X035367Y006341D01*
X035388Y006388D01*
X035412Y006434D01*
X035441Y006478D01*
X035472Y006520D01*
X035506Y006559D01*
X035543Y006596D01*
X035583Y006629D01*
X035626Y006660D01*
X035670Y006687D01*
X035716Y006711D01*
X035765Y006731D01*
X035814Y006747D01*
X035865Y006760D01*
X035916Y006769D01*
X035968Y006774D01*
X036020Y006775D01*
X036072Y006772D01*
X036124Y006765D01*
X036175Y006754D01*
X036225Y006740D01*
X036274Y006721D01*
X036321Y006699D01*
X036366Y006674D01*
X036410Y006645D01*
X036451Y006613D01*
X036490Y006578D01*
X036525Y006540D01*
X036558Y006499D01*
X036588Y006457D01*
X036614Y006412D01*
X036637Y006365D01*
X036656Y006316D01*
X036672Y006266D01*
X036684Y006216D01*
X036692Y006164D01*
X036696Y006112D01*
X036696Y006060D01*
X036692Y006008D01*
X036684Y005956D01*
X036672Y005906D01*
X036656Y005856D01*
X036637Y005807D01*
X036614Y005760D01*
X036588Y005715D01*
X036558Y005673D01*
X036525Y005632D01*
X036490Y005594D01*
X036451Y005559D01*
X036410Y005527D01*
X036366Y005498D01*
X036321Y005473D01*
X036274Y005451D01*
X036225Y005432D01*
X036175Y005418D01*
X036124Y005407D01*
X036072Y005400D01*
X036020Y005397D01*
X035968Y005398D01*
X035916Y005403D01*
X035865Y005412D01*
X035814Y005425D01*
X035765Y005441D01*
X035716Y005461D01*
X035670Y005485D01*
X035626Y005512D01*
X035583Y005543D01*
X035543Y005576D01*
X035506Y005613D01*
X035472Y005652D01*
X035441Y005694D01*
X035412Y005738D01*
X035388Y005784D01*
X035367Y005831D01*
X035349Y005881D01*
X035336Y005931D01*
X035326Y005982D01*
X035320Y006034D01*
X035318Y006086D01*
D11*
X036007Y006086D03*
X036007Y033645D03*
X004511Y033645D03*
X004511Y006086D03*
D12*
X008900Y013960D03*
X009570Y013960D03*
X011263Y013960D03*
X011932Y013960D03*
D13*
X011416Y024566D02*
X011416Y025006D01*
X009416Y025006D02*
X009416Y024566D01*
D14*
G36*
X007774Y022648D02*
X008107Y022981D01*
X008414Y022674D01*
X008081Y022341D01*
X007774Y022648D01*
G37*
G36*
X007301Y022174D02*
X007634Y022507D01*
X007941Y022200D01*
X007608Y021867D01*
X007301Y022174D01*
G37*
G36*
X007634Y017223D02*
X007301Y017556D01*
X007608Y017863D01*
X007941Y017530D01*
X007634Y017223D01*
G37*
G36*
X008107Y016749D02*
X007774Y017082D01*
X008081Y017389D01*
X008414Y017056D01*
X008107Y016749D01*
G37*
G36*
X013119Y022587D02*
X013452Y022254D01*
X013145Y021947D01*
X012812Y022280D01*
X013119Y022587D01*
G37*
G36*
X012646Y023061D02*
X012979Y022728D01*
X012672Y022421D01*
X012339Y022754D01*
X012646Y023061D01*
G37*
G36*
X016011Y025941D02*
X015678Y025608D01*
X015371Y025915D01*
X015704Y026248D01*
X016011Y025941D01*
G37*
G36*
X016485Y026414D02*
X016152Y026081D01*
X015845Y026388D01*
X016178Y026721D01*
X016485Y026414D01*
G37*
X011932Y026952D03*
X011263Y026952D03*
X009570Y026952D03*
X008900Y026952D03*
G36*
X016011Y033815D02*
X015678Y033482D01*
X015371Y033789D01*
X015704Y034122D01*
X016011Y033815D01*
G37*
G36*
X016485Y034288D02*
X016152Y033955D01*
X015845Y034262D01*
X016178Y034595D01*
X016485Y034288D01*
G37*
G36*
X016485Y018540D02*
X016152Y018207D01*
X015845Y018514D01*
X016178Y018847D01*
X016485Y018540D01*
G37*
G36*
X016011Y018067D02*
X015678Y017734D01*
X015371Y018041D01*
X015704Y018374D01*
X016011Y018067D01*
G37*
G36*
X016005Y010986D02*
X015672Y010653D01*
X015365Y010960D01*
X015698Y011293D01*
X016005Y010986D01*
G37*
G36*
X015531Y010513D02*
X015198Y010180D01*
X014891Y010487D01*
X015224Y010820D01*
X015531Y010513D01*
G37*
D15*
G36*
X012975Y016833D02*
X012613Y016471D01*
X012141Y016943D01*
X012503Y017305D01*
X012975Y016833D01*
G37*
G36*
X013810Y017669D02*
X013448Y017307D01*
X012976Y017779D01*
X013338Y018141D01*
X013810Y017669D01*
G37*
D16*
X022879Y017788D02*
X023246Y018155D01*
X023954Y017448D02*
X023586Y017080D01*
X024293Y016373D02*
X024661Y016741D01*
X025368Y016034D02*
X025000Y015666D01*
X025707Y014959D02*
X026075Y015327D01*
X026782Y014620D02*
X026414Y014252D01*
X027121Y013545D02*
X027489Y013913D01*
X028196Y013205D02*
X027828Y012838D01*
X028536Y012131D02*
X028903Y012498D01*
X027176Y011500D02*
X026808Y011132D01*
X027515Y010425D02*
X027883Y010793D01*
X028590Y010086D02*
X028222Y009718D01*
X028929Y009011D02*
X029297Y009379D01*
X030004Y008672D02*
X029636Y008304D01*
X030343Y007597D02*
X030711Y007965D01*
X031418Y007257D02*
X031051Y006890D01*
X029297Y005136D02*
X028929Y004768D01*
X028222Y005476D02*
X028590Y005843D01*
X027883Y006550D02*
X027515Y006183D01*
X026808Y006890D02*
X027176Y007257D01*
X026469Y007965D02*
X026101Y007597D01*
X025394Y008304D02*
X025761Y008672D01*
X025054Y009379D02*
X024687Y009011D01*
X023980Y009718D02*
X024347Y010086D01*
X023640Y010793D02*
X023272Y010425D01*
X025394Y012547D02*
X025761Y012914D01*
X026469Y012207D02*
X026101Y011840D01*
X029950Y014959D02*
X030317Y015327D01*
X029610Y016034D02*
X029243Y015666D01*
X028536Y016373D02*
X028903Y016741D01*
X028196Y017448D02*
X027828Y017080D01*
X027121Y017788D02*
X027489Y018155D01*
X026782Y018862D02*
X026414Y018495D01*
X025707Y019202D02*
X026075Y019569D01*
X025368Y020277D02*
X025000Y019909D01*
X026808Y021575D02*
X027176Y021943D01*
X026469Y022650D02*
X026101Y022282D01*
X025394Y022989D02*
X025761Y023357D01*
X025054Y024064D02*
X024687Y023696D01*
X023980Y024403D02*
X024347Y024771D01*
X023640Y025478D02*
X023272Y025110D01*
X025394Y027232D02*
X025761Y027599D01*
X026469Y026892D02*
X026101Y026525D01*
X026808Y025817D02*
X027176Y026185D01*
X027883Y025478D02*
X027515Y025110D01*
X028222Y024403D02*
X028590Y024771D01*
X029297Y024064D02*
X028929Y023696D01*
X029636Y022989D02*
X030004Y023357D01*
X030711Y022650D02*
X030343Y022282D01*
X031051Y021575D02*
X031418Y021943D01*
X029297Y019821D02*
X028929Y019454D01*
X028222Y020161D02*
X028590Y020528D01*
X027883Y021235D02*
X027515Y020868D01*
X028929Y026816D02*
X029297Y027183D01*
X028590Y027891D02*
X028222Y027523D01*
X027515Y028230D02*
X027883Y028598D01*
X027176Y029305D02*
X026808Y028937D01*
X026101Y029644D02*
X026469Y030012D01*
X025761Y030719D02*
X025394Y030351D01*
X024687Y031058D02*
X025054Y031426D01*
X024347Y032133D02*
X023980Y031765D01*
X023272Y032473D02*
X023640Y032840D01*
X025394Y034594D02*
X025761Y034962D01*
X026469Y034254D02*
X026101Y033887D01*
X026808Y033180D02*
X027176Y033547D01*
X027883Y032840D02*
X027515Y032473D01*
X028222Y031765D02*
X028590Y032133D01*
X029297Y031426D02*
X028929Y031058D01*
X029636Y030351D02*
X030004Y030719D01*
X030711Y030012D02*
X030343Y029644D01*
X031051Y028937D02*
X031418Y029305D01*
X031025Y014620D02*
X030657Y014252D01*
D17*
G36*
X021091Y015334D02*
X020878Y015547D01*
X021471Y016140D01*
X021684Y015927D01*
X021091Y015334D01*
G37*
G36*
X020738Y015688D02*
X020525Y015901D01*
X021118Y016494D01*
X021331Y016281D01*
X020738Y015688D01*
G37*
G36*
X020384Y016041D02*
X020171Y016254D01*
X020764Y016847D01*
X020977Y016634D01*
X020384Y016041D01*
G37*
G36*
X020031Y016395D02*
X019818Y016608D01*
X020411Y017201D01*
X020624Y016988D01*
X020031Y016395D01*
G37*
G36*
X019677Y016748D02*
X019464Y016961D01*
X020057Y017554D01*
X020270Y017341D01*
X019677Y016748D01*
G37*
G36*
X019324Y017102D02*
X019111Y017315D01*
X019704Y017908D01*
X019917Y017695D01*
X019324Y017102D01*
G37*
G36*
X018970Y017455D02*
X018757Y017668D01*
X019350Y018261D01*
X019563Y018048D01*
X018970Y017455D01*
G37*
G36*
X018616Y017809D02*
X018403Y018022D01*
X018996Y018615D01*
X019209Y018402D01*
X018616Y017809D01*
G37*
G36*
X018263Y018163D02*
X018050Y018376D01*
X018643Y018969D01*
X018856Y018756D01*
X018263Y018163D01*
G37*
G36*
X017909Y018516D02*
X017696Y018729D01*
X018289Y019322D01*
X018502Y019109D01*
X017909Y018516D01*
G37*
G36*
X018291Y020408D02*
X018078Y020621D01*
X018671Y021214D01*
X018884Y021001D01*
X018291Y020408D01*
G37*
G36*
X017938Y020762D02*
X017725Y020975D01*
X018318Y021568D01*
X018531Y021355D01*
X017938Y020762D01*
G37*
G36*
X017584Y021115D02*
X017371Y021328D01*
X017964Y021921D01*
X018177Y021708D01*
X017584Y021115D01*
G37*
G36*
X017230Y021469D02*
X017017Y021682D01*
X017610Y022275D01*
X017823Y022062D01*
X017230Y021469D01*
G37*
G36*
X016877Y021822D02*
X016664Y022035D01*
X017257Y022628D01*
X017470Y022415D01*
X016877Y021822D01*
G37*
G36*
X016523Y022176D02*
X016310Y022389D01*
X016903Y022982D01*
X017116Y022769D01*
X016523Y022176D01*
G37*
G36*
X016170Y022529D02*
X015957Y022742D01*
X016550Y023335D01*
X016763Y023122D01*
X016170Y022529D01*
G37*
G36*
X015816Y022883D02*
X015603Y023096D01*
X016196Y023689D01*
X016409Y023476D01*
X015816Y022883D01*
G37*
G36*
X015463Y023236D02*
X015250Y023449D01*
X015843Y024042D01*
X016056Y023829D01*
X015463Y023236D01*
G37*
G36*
X015109Y023590D02*
X014896Y023803D01*
X015489Y024396D01*
X015702Y024183D01*
X015109Y023590D01*
G37*
G36*
X017909Y026390D02*
X017696Y026603D01*
X018289Y027196D01*
X018502Y026983D01*
X017909Y026390D01*
G37*
G36*
X018263Y026037D02*
X018050Y026250D01*
X018643Y026843D01*
X018856Y026630D01*
X018263Y026037D01*
G37*
G36*
X018616Y025683D02*
X018403Y025896D01*
X018996Y026489D01*
X019209Y026276D01*
X018616Y025683D01*
G37*
G36*
X018970Y025329D02*
X018757Y025542D01*
X019350Y026135D01*
X019563Y025922D01*
X018970Y025329D01*
G37*
G36*
X019324Y024976D02*
X019111Y025189D01*
X019704Y025782D01*
X019917Y025569D01*
X019324Y024976D01*
G37*
G36*
X019677Y024622D02*
X019464Y024835D01*
X020057Y025428D01*
X020270Y025215D01*
X019677Y024622D01*
G37*
G36*
X020031Y024269D02*
X019818Y024482D01*
X020411Y025075D01*
X020624Y024862D01*
X020031Y024269D01*
G37*
G36*
X020384Y023915D02*
X020171Y024128D01*
X020764Y024721D01*
X020977Y024508D01*
X020384Y023915D01*
G37*
G36*
X020738Y023562D02*
X020525Y023775D01*
X021118Y024368D01*
X021331Y024155D01*
X020738Y023562D01*
G37*
G36*
X021091Y023208D02*
X020878Y023421D01*
X021471Y024014D01*
X021684Y023801D01*
X021091Y023208D01*
G37*
G36*
X018291Y028282D02*
X018078Y028495D01*
X018671Y029088D01*
X018884Y028875D01*
X018291Y028282D01*
G37*
G36*
X017938Y028636D02*
X017725Y028849D01*
X018318Y029442D01*
X018531Y029229D01*
X017938Y028636D01*
G37*
G36*
X017584Y028989D02*
X017371Y029202D01*
X017964Y029795D01*
X018177Y029582D01*
X017584Y028989D01*
G37*
G36*
X017230Y029343D02*
X017017Y029556D01*
X017610Y030149D01*
X017823Y029936D01*
X017230Y029343D01*
G37*
G36*
X016877Y029696D02*
X016664Y029909D01*
X017257Y030502D01*
X017470Y030289D01*
X016877Y029696D01*
G37*
G36*
X016523Y030050D02*
X016310Y030263D01*
X016903Y030856D01*
X017116Y030643D01*
X016523Y030050D01*
G37*
G36*
X016170Y030403D02*
X015957Y030616D01*
X016550Y031209D01*
X016763Y030996D01*
X016170Y030403D01*
G37*
G36*
X015816Y030757D02*
X015603Y030970D01*
X016196Y031563D01*
X016409Y031350D01*
X015816Y030757D01*
G37*
G36*
X015463Y031110D02*
X015250Y031323D01*
X015843Y031916D01*
X016056Y031703D01*
X015463Y031110D01*
G37*
G36*
X015109Y031464D02*
X014896Y031677D01*
X015489Y032270D01*
X015702Y032057D01*
X015109Y031464D01*
G37*
G36*
X017909Y034264D02*
X017696Y034477D01*
X018289Y035070D01*
X018502Y034857D01*
X017909Y034264D01*
G37*
G36*
X018263Y033911D02*
X018050Y034124D01*
X018643Y034717D01*
X018856Y034504D01*
X018263Y033911D01*
G37*
G36*
X018616Y033557D02*
X018403Y033770D01*
X018996Y034363D01*
X019209Y034150D01*
X018616Y033557D01*
G37*
G36*
X018970Y033203D02*
X018757Y033416D01*
X019350Y034009D01*
X019563Y033796D01*
X018970Y033203D01*
G37*
G36*
X019324Y032850D02*
X019111Y033063D01*
X019704Y033656D01*
X019917Y033443D01*
X019324Y032850D01*
G37*
G36*
X019677Y032496D02*
X019464Y032709D01*
X020057Y033302D01*
X020270Y033089D01*
X019677Y032496D01*
G37*
G36*
X020031Y032143D02*
X019818Y032356D01*
X020411Y032949D01*
X020624Y032736D01*
X020031Y032143D01*
G37*
G36*
X020384Y031789D02*
X020171Y032002D01*
X020764Y032595D01*
X020977Y032382D01*
X020384Y031789D01*
G37*
G36*
X020738Y031436D02*
X020525Y031649D01*
X021118Y032242D01*
X021331Y032029D01*
X020738Y031436D01*
G37*
G36*
X021091Y031082D02*
X020878Y031295D01*
X021471Y031888D01*
X021684Y031675D01*
X021091Y031082D01*
G37*
G36*
X015109Y015716D02*
X014896Y015929D01*
X015489Y016522D01*
X015702Y016309D01*
X015109Y015716D01*
G37*
G36*
X015463Y015362D02*
X015250Y015575D01*
X015843Y016168D01*
X016056Y015955D01*
X015463Y015362D01*
G37*
G36*
X015816Y015009D02*
X015603Y015222D01*
X016196Y015815D01*
X016409Y015602D01*
X015816Y015009D01*
G37*
G36*
X016170Y014655D02*
X015957Y014868D01*
X016550Y015461D01*
X016763Y015248D01*
X016170Y014655D01*
G37*
G36*
X016523Y014302D02*
X016310Y014515D01*
X016903Y015108D01*
X017116Y014895D01*
X016523Y014302D01*
G37*
G36*
X016877Y013948D02*
X016664Y014161D01*
X017257Y014754D01*
X017470Y014541D01*
X016877Y013948D01*
G37*
G36*
X017230Y013595D02*
X017017Y013808D01*
X017610Y014401D01*
X017823Y014188D01*
X017230Y013595D01*
G37*
G36*
X017584Y013241D02*
X017371Y013454D01*
X017964Y014047D01*
X018177Y013834D01*
X017584Y013241D01*
G37*
G36*
X017938Y012888D02*
X017725Y013101D01*
X018318Y013694D01*
X018531Y013481D01*
X017938Y012888D01*
G37*
G36*
X018291Y012534D02*
X018078Y012747D01*
X018671Y013340D01*
X018884Y013127D01*
X018291Y012534D01*
G37*
G36*
X017909Y010642D02*
X017696Y010855D01*
X018289Y011448D01*
X018502Y011235D01*
X017909Y010642D01*
G37*
G36*
X018263Y010289D02*
X018050Y010502D01*
X018643Y011095D01*
X018856Y010882D01*
X018263Y010289D01*
G37*
G36*
X018616Y009935D02*
X018403Y010148D01*
X018996Y010741D01*
X019209Y010528D01*
X018616Y009935D01*
G37*
G36*
X018970Y009581D02*
X018757Y009794D01*
X019350Y010387D01*
X019563Y010174D01*
X018970Y009581D01*
G37*
G36*
X019324Y009228D02*
X019111Y009441D01*
X019704Y010034D01*
X019917Y009821D01*
X019324Y009228D01*
G37*
G36*
X019677Y008874D02*
X019464Y009087D01*
X020057Y009680D01*
X020270Y009467D01*
X019677Y008874D01*
G37*
G36*
X020031Y008521D02*
X019818Y008734D01*
X020411Y009327D01*
X020624Y009114D01*
X020031Y008521D01*
G37*
G36*
X020384Y008167D02*
X020171Y008380D01*
X020764Y008973D01*
X020977Y008760D01*
X020384Y008167D01*
G37*
G36*
X020738Y007814D02*
X020525Y008027D01*
X021118Y008620D01*
X021331Y008407D01*
X020738Y007814D01*
G37*
G36*
X021091Y007460D02*
X020878Y007673D01*
X021471Y008266D01*
X021684Y008053D01*
X021091Y007460D01*
G37*
G36*
X018291Y004660D02*
X018078Y004873D01*
X018671Y005466D01*
X018884Y005253D01*
X018291Y004660D01*
G37*
G36*
X017938Y005014D02*
X017725Y005227D01*
X018318Y005820D01*
X018531Y005607D01*
X017938Y005014D01*
G37*
G36*
X017584Y005367D02*
X017371Y005580D01*
X017964Y006173D01*
X018177Y005960D01*
X017584Y005367D01*
G37*
G36*
X017230Y005721D02*
X017017Y005934D01*
X017610Y006527D01*
X017823Y006314D01*
X017230Y005721D01*
G37*
G36*
X016877Y006074D02*
X016664Y006287D01*
X017257Y006880D01*
X017470Y006667D01*
X016877Y006074D01*
G37*
G36*
X016523Y006428D02*
X016310Y006641D01*
X016903Y007234D01*
X017116Y007021D01*
X016523Y006428D01*
G37*
G36*
X016170Y006781D02*
X015957Y006994D01*
X016550Y007587D01*
X016763Y007374D01*
X016170Y006781D01*
G37*
G36*
X015816Y007135D02*
X015603Y007348D01*
X016196Y007941D01*
X016409Y007728D01*
X015816Y007135D01*
G37*
G36*
X015463Y007488D02*
X015250Y007701D01*
X015843Y008294D01*
X016056Y008081D01*
X015463Y007488D01*
G37*
G36*
X015109Y007842D02*
X014896Y008055D01*
X015489Y008648D01*
X015702Y008435D01*
X015109Y007842D01*
G37*
D18*
G36*
X011056Y016831D02*
X010611Y017276D01*
X010778Y017443D01*
X011223Y016998D01*
X011056Y016831D01*
G37*
G36*
X011279Y017054D02*
X010834Y017499D01*
X011001Y017666D01*
X011446Y017221D01*
X011279Y017054D01*
G37*
G36*
X011502Y017276D02*
X011057Y017721D01*
X011224Y017888D01*
X011669Y017443D01*
X011502Y017276D01*
G37*
G36*
X011724Y017499D02*
X011279Y017944D01*
X011446Y018111D01*
X011891Y017666D01*
X011724Y017499D01*
G37*
G36*
X011947Y017722D02*
X011502Y018167D01*
X011669Y018334D01*
X012114Y017889D01*
X011947Y017722D01*
G37*
G36*
X012170Y017944D02*
X011725Y018389D01*
X011892Y018556D01*
X012337Y018111D01*
X012170Y017944D01*
G37*
G36*
X012393Y018167D02*
X011948Y018612D01*
X012115Y018779D01*
X012560Y018334D01*
X012393Y018167D01*
G37*
G36*
X012615Y018390D02*
X012170Y018835D01*
X012337Y019002D01*
X012782Y018557D01*
X012615Y018390D01*
G37*
G36*
X012838Y018613D02*
X012393Y019058D01*
X012560Y019225D01*
X013005Y018780D01*
X012838Y018613D01*
G37*
G36*
X013061Y018835D02*
X012616Y019280D01*
X012783Y019447D01*
X013228Y019002D01*
X013061Y018835D01*
G37*
G36*
X013283Y019058D02*
X012838Y019503D01*
X013005Y019670D01*
X013450Y019225D01*
X013283Y019058D01*
G37*
G36*
X009609Y021842D02*
X009164Y022287D01*
X009331Y022454D01*
X009776Y022009D01*
X009609Y021842D01*
G37*
G36*
X009386Y021619D02*
X008941Y022064D01*
X009108Y022231D01*
X009553Y021786D01*
X009386Y021619D01*
G37*
G36*
X009163Y021396D02*
X008718Y021841D01*
X008885Y022008D01*
X009330Y021563D01*
X009163Y021396D01*
G37*
G36*
X008941Y021174D02*
X008496Y021619D01*
X008663Y021786D01*
X009108Y021341D01*
X008941Y021174D01*
G37*
G36*
X008718Y020951D02*
X008273Y021396D01*
X008440Y021563D01*
X008885Y021118D01*
X008718Y020951D01*
G37*
G36*
X008495Y020728D02*
X008050Y021173D01*
X008217Y021340D01*
X008662Y020895D01*
X008495Y020728D01*
G37*
G36*
X008272Y020506D02*
X007827Y020951D01*
X007994Y021118D01*
X008439Y020673D01*
X008272Y020506D01*
G37*
G36*
X008050Y020283D02*
X007605Y020728D01*
X007772Y020895D01*
X008217Y020450D01*
X008050Y020283D01*
G37*
G36*
X007827Y020060D02*
X007382Y020505D01*
X007549Y020672D01*
X007994Y020227D01*
X007827Y020060D01*
G37*
G36*
X009831Y022065D02*
X009386Y022510D01*
X009553Y022677D01*
X009998Y022232D01*
X009831Y022065D01*
G37*
G36*
X010054Y022287D02*
X009609Y022732D01*
X009776Y022899D01*
X010221Y022454D01*
X010054Y022287D01*
G37*
D19*
G36*
X010778Y022287D02*
X010611Y022454D01*
X011056Y022899D01*
X011223Y022732D01*
X010778Y022287D01*
G37*
G36*
X011001Y022065D02*
X010834Y022232D01*
X011279Y022677D01*
X011446Y022510D01*
X011001Y022065D01*
G37*
G36*
X011224Y021842D02*
X011057Y022009D01*
X011502Y022454D01*
X011669Y022287D01*
X011224Y021842D01*
G37*
G36*
X011446Y021619D02*
X011279Y021786D01*
X011724Y022231D01*
X011891Y022064D01*
X011446Y021619D01*
G37*
G36*
X011669Y021396D02*
X011502Y021563D01*
X011947Y022008D01*
X012114Y021841D01*
X011669Y021396D01*
G37*
G36*
X011892Y021174D02*
X011725Y021341D01*
X012170Y021786D01*
X012337Y021619D01*
X011892Y021174D01*
G37*
G36*
X012115Y020951D02*
X011948Y021118D01*
X012393Y021563D01*
X012560Y021396D01*
X012115Y020951D01*
G37*
G36*
X012337Y020728D02*
X012170Y020895D01*
X012615Y021340D01*
X012782Y021173D01*
X012337Y020728D01*
G37*
G36*
X012560Y020506D02*
X012393Y020673D01*
X012838Y021118D01*
X013005Y020951D01*
X012560Y020506D01*
G37*
G36*
X012783Y020283D02*
X012616Y020450D01*
X013061Y020895D01*
X013228Y020728D01*
X012783Y020283D01*
G37*
G36*
X013005Y020060D02*
X012838Y020227D01*
X013283Y020672D01*
X013450Y020505D01*
X013005Y020060D01*
G37*
G36*
X009776Y016831D02*
X009609Y016998D01*
X010054Y017443D01*
X010221Y017276D01*
X009776Y016831D01*
G37*
G36*
X009553Y017054D02*
X009386Y017221D01*
X009831Y017666D01*
X009998Y017499D01*
X009553Y017054D01*
G37*
G36*
X009331Y017276D02*
X009164Y017443D01*
X009609Y017888D01*
X009776Y017721D01*
X009331Y017276D01*
G37*
G36*
X009108Y017499D02*
X008941Y017666D01*
X009386Y018111D01*
X009553Y017944D01*
X009108Y017499D01*
G37*
G36*
X008885Y017722D02*
X008718Y017889D01*
X009163Y018334D01*
X009330Y018167D01*
X008885Y017722D01*
G37*
G36*
X008663Y017944D02*
X008496Y018111D01*
X008941Y018556D01*
X009108Y018389D01*
X008663Y017944D01*
G37*
G36*
X008440Y018167D02*
X008273Y018334D01*
X008718Y018779D01*
X008885Y018612D01*
X008440Y018167D01*
G37*
G36*
X008217Y018390D02*
X008050Y018557D01*
X008495Y019002D01*
X008662Y018835D01*
X008217Y018390D01*
G37*
G36*
X007994Y018613D02*
X007827Y018780D01*
X008272Y019225D01*
X008439Y019058D01*
X007994Y018613D01*
G37*
G36*
X007772Y018835D02*
X007605Y019002D01*
X008050Y019447D01*
X008217Y019280D01*
X007772Y018835D01*
G37*
G36*
X007549Y019058D02*
X007382Y019225D01*
X007827Y019670D01*
X007994Y019503D01*
X007549Y019058D01*
G37*
D20*
X034719Y019365D03*
X034719Y020365D03*
X034719Y021365D03*
X034719Y022365D03*
X034719Y023365D03*
X034719Y024365D03*
X034719Y025365D03*
X034719Y026365D03*
X034719Y027365D03*
X034719Y028365D03*
X034719Y029365D03*
X035719Y029365D03*
X035719Y028365D03*
X035719Y027365D03*
X035719Y026365D03*
X035719Y025365D03*
X035719Y024365D03*
X035719Y023365D03*
X035719Y022365D03*
X035719Y021365D03*
X035719Y020365D03*
X035719Y019365D03*
X035719Y018365D03*
X034719Y018365D03*
X034719Y017365D03*
X034719Y016365D03*
X034719Y015365D03*
X034719Y014365D03*
X034719Y013365D03*
X034719Y012365D03*
X034719Y011365D03*
X034719Y010365D03*
X035719Y010365D03*
X035719Y011365D03*
X035719Y012365D03*
X035719Y013365D03*
X035719Y014365D03*
X035719Y015365D03*
X035719Y016365D03*
X035719Y017365D03*
D21*
X012416Y010523D03*
X011416Y010523D03*
X010416Y010523D03*
X010416Y009523D03*
X011416Y009523D03*
X012416Y009523D03*
X009416Y009523D03*
X009416Y010523D03*
X008416Y010523D03*
X005208Y016365D03*
X005208Y017365D03*
X005208Y018365D03*
X005208Y019365D03*
X005208Y020365D03*
X005208Y021365D03*
X005208Y022365D03*
X005208Y023365D03*
X004208Y023365D03*
X004208Y022365D03*
X004208Y021365D03*
X004208Y020365D03*
X004208Y019365D03*
X004208Y018365D03*
X004208Y017365D03*
X004208Y016365D03*
D22*
X008416Y009523D03*
D23*
X010416Y029208D03*
D24*
X010416Y030208D03*
M02*
