G75*
G70*
%OFA0B0*%
%FSLAX24Y24*%
%IPPOS*%
%LPD*%
%AMOC8*
5,1,8,0,0,1.08239X$1,22.5*
%
%ADD10C,0.0000*%
D10*
X002542Y004117D02*
X002542Y035613D01*
X037975Y035613D01*
X037975Y004117D01*
X002542Y004117D01*
X003822Y006086D02*
X003824Y006138D01*
X003830Y006190D01*
X003840Y006241D01*
X003853Y006291D01*
X003871Y006341D01*
X003892Y006388D01*
X003916Y006434D01*
X003945Y006478D01*
X003976Y006520D01*
X004010Y006559D01*
X004047Y006596D01*
X004087Y006629D01*
X004130Y006660D01*
X004174Y006687D01*
X004220Y006711D01*
X004269Y006731D01*
X004318Y006747D01*
X004369Y006760D01*
X004420Y006769D01*
X004472Y006774D01*
X004524Y006775D01*
X004576Y006772D01*
X004628Y006765D01*
X004679Y006754D01*
X004729Y006740D01*
X004778Y006721D01*
X004825Y006699D01*
X004870Y006674D01*
X004914Y006645D01*
X004955Y006613D01*
X004994Y006578D01*
X005029Y006540D01*
X005062Y006499D01*
X005092Y006457D01*
X005118Y006412D01*
X005141Y006365D01*
X005160Y006316D01*
X005176Y006266D01*
X005188Y006216D01*
X005196Y006164D01*
X005200Y006112D01*
X005200Y006060D01*
X005196Y006008D01*
X005188Y005956D01*
X005176Y005906D01*
X005160Y005856D01*
X005141Y005807D01*
X005118Y005760D01*
X005092Y005715D01*
X005062Y005673D01*
X005029Y005632D01*
X004994Y005594D01*
X004955Y005559D01*
X004914Y005527D01*
X004870Y005498D01*
X004825Y005473D01*
X004778Y005451D01*
X004729Y005432D01*
X004679Y005418D01*
X004628Y005407D01*
X004576Y005400D01*
X004524Y005397D01*
X004472Y005398D01*
X004420Y005403D01*
X004369Y005412D01*
X004318Y005425D01*
X004269Y005441D01*
X004220Y005461D01*
X004174Y005485D01*
X004130Y005512D01*
X004087Y005543D01*
X004047Y005576D01*
X004010Y005613D01*
X003976Y005652D01*
X003945Y005694D01*
X003916Y005738D01*
X003892Y005784D01*
X003871Y005831D01*
X003853Y005881D01*
X003840Y005931D01*
X003830Y005982D01*
X003824Y006034D01*
X003822Y006086D01*
X003822Y033645D02*
X003824Y033697D01*
X003830Y033749D01*
X003840Y033800D01*
X003853Y033850D01*
X003871Y033900D01*
X003892Y033947D01*
X003916Y033993D01*
X003945Y034037D01*
X003976Y034079D01*
X004010Y034118D01*
X004047Y034155D01*
X004087Y034188D01*
X004130Y034219D01*
X004174Y034246D01*
X004220Y034270D01*
X004269Y034290D01*
X004318Y034306D01*
X004369Y034319D01*
X004420Y034328D01*
X004472Y034333D01*
X004524Y034334D01*
X004576Y034331D01*
X004628Y034324D01*
X004679Y034313D01*
X004729Y034299D01*
X004778Y034280D01*
X004825Y034258D01*
X004870Y034233D01*
X004914Y034204D01*
X004955Y034172D01*
X004994Y034137D01*
X005029Y034099D01*
X005062Y034058D01*
X005092Y034016D01*
X005118Y033971D01*
X005141Y033924D01*
X005160Y033875D01*
X005176Y033825D01*
X005188Y033775D01*
X005196Y033723D01*
X005200Y033671D01*
X005200Y033619D01*
X005196Y033567D01*
X005188Y033515D01*
X005176Y033465D01*
X005160Y033415D01*
X005141Y033366D01*
X005118Y033319D01*
X005092Y033274D01*
X005062Y033232D01*
X005029Y033191D01*
X004994Y033153D01*
X004955Y033118D01*
X004914Y033086D01*
X004870Y033057D01*
X004825Y033032D01*
X004778Y033010D01*
X004729Y032991D01*
X004679Y032977D01*
X004628Y032966D01*
X004576Y032959D01*
X004524Y032956D01*
X004472Y032957D01*
X004420Y032962D01*
X004369Y032971D01*
X004318Y032984D01*
X004269Y033000D01*
X004220Y033020D01*
X004174Y033044D01*
X004130Y033071D01*
X004087Y033102D01*
X004047Y033135D01*
X004010Y033172D01*
X003976Y033211D01*
X003945Y033253D01*
X003916Y033297D01*
X003892Y033343D01*
X003871Y033390D01*
X003853Y033440D01*
X003840Y033490D01*
X003830Y033541D01*
X003824Y033593D01*
X003822Y033645D01*
X035318Y033645D02*
X035320Y033697D01*
X035326Y033749D01*
X035336Y033800D01*
X035349Y033850D01*
X035367Y033900D01*
X035388Y033947D01*
X035412Y033993D01*
X035441Y034037D01*
X035472Y034079D01*
X035506Y034118D01*
X035543Y034155D01*
X035583Y034188D01*
X035626Y034219D01*
X035670Y034246D01*
X035716Y034270D01*
X035765Y034290D01*
X035814Y034306D01*
X035865Y034319D01*
X035916Y034328D01*
X035968Y034333D01*
X036020Y034334D01*
X036072Y034331D01*
X036124Y034324D01*
X036175Y034313D01*
X036225Y034299D01*
X036274Y034280D01*
X036321Y034258D01*
X036366Y034233D01*
X036410Y034204D01*
X036451Y034172D01*
X036490Y034137D01*
X036525Y034099D01*
X036558Y034058D01*
X036588Y034016D01*
X036614Y033971D01*
X036637Y033924D01*
X036656Y033875D01*
X036672Y033825D01*
X036684Y033775D01*
X036692Y033723D01*
X036696Y033671D01*
X036696Y033619D01*
X036692Y033567D01*
X036684Y033515D01*
X036672Y033465D01*
X036656Y033415D01*
X036637Y033366D01*
X036614Y033319D01*
X036588Y033274D01*
X036558Y033232D01*
X036525Y033191D01*
X036490Y033153D01*
X036451Y033118D01*
X036410Y033086D01*
X036366Y033057D01*
X036321Y033032D01*
X036274Y033010D01*
X036225Y032991D01*
X036175Y032977D01*
X036124Y032966D01*
X036072Y032959D01*
X036020Y032956D01*
X035968Y032957D01*
X035916Y032962D01*
X035865Y032971D01*
X035814Y032984D01*
X035765Y033000D01*
X035716Y033020D01*
X035670Y033044D01*
X035626Y033071D01*
X035583Y033102D01*
X035543Y033135D01*
X035506Y033172D01*
X035472Y033211D01*
X035441Y033253D01*
X035412Y033297D01*
X035388Y033343D01*
X035367Y033390D01*
X035349Y033440D01*
X035336Y033490D01*
X035326Y033541D01*
X035320Y033593D01*
X035318Y033645D01*
X035318Y006086D02*
X035320Y006138D01*
X035326Y006190D01*
X035336Y006241D01*
X035349Y006291D01*
X035367Y006341D01*
X035388Y006388D01*
X035412Y006434D01*
X035441Y006478D01*
X035472Y006520D01*
X035506Y006559D01*
X035543Y006596D01*
X035583Y006629D01*
X035626Y006660D01*
X035670Y006687D01*
X035716Y006711D01*
X035765Y006731D01*
X035814Y006747D01*
X035865Y006760D01*
X035916Y006769D01*
X035968Y006774D01*
X036020Y006775D01*
X036072Y006772D01*
X036124Y006765D01*
X036175Y006754D01*
X036225Y006740D01*
X036274Y006721D01*
X036321Y006699D01*
X036366Y006674D01*
X036410Y006645D01*
X036451Y006613D01*
X036490Y006578D01*
X036525Y006540D01*
X036558Y006499D01*
X036588Y006457D01*
X036614Y006412D01*
X036637Y006365D01*
X036656Y006316D01*
X036672Y006266D01*
X036684Y006216D01*
X036692Y006164D01*
X036696Y006112D01*
X036696Y006060D01*
X036692Y006008D01*
X036684Y005956D01*
X036672Y005906D01*
X036656Y005856D01*
X036637Y005807D01*
X036614Y005760D01*
X036588Y005715D01*
X036558Y005673D01*
X036525Y005632D01*
X036490Y005594D01*
X036451Y005559D01*
X036410Y005527D01*
X036366Y005498D01*
X036321Y005473D01*
X036274Y005451D01*
X036225Y005432D01*
X036175Y005418D01*
X036124Y005407D01*
X036072Y005400D01*
X036020Y005397D01*
X035968Y005398D01*
X035916Y005403D01*
X035865Y005412D01*
X035814Y005425D01*
X035765Y005441D01*
X035716Y005461D01*
X035670Y005485D01*
X035626Y005512D01*
X035583Y005543D01*
X035543Y005576D01*
X035506Y005613D01*
X035472Y005652D01*
X035441Y005694D01*
X035412Y005738D01*
X035388Y005784D01*
X035367Y005831D01*
X035349Y005881D01*
X035336Y005931D01*
X035326Y005982D01*
X035320Y006034D01*
X035318Y006086D01*
M02*
