G75*
G70*
%OFA0B0*%
%FSLAX24Y24*%
%IPPOS*%
%LPD*%
%AMOC8*
5,1,8,0,0,1.08239X$1,22.5*
%
%ADD10C,0.0000*%
%ADD11R,0.0394X0.0433*%
%ADD12R,0.0433X0.0394*%
%ADD13R,0.0472X0.0630*%
%ADD14R,0.0260X0.0800*%
%ADD15R,0.0591X0.0197*%
%ADD16R,0.0197X0.0591*%
D10*
X002542Y004117D02*
X002542Y035613D01*
X037975Y035613D01*
X037975Y004117D01*
X002542Y004117D01*
X003822Y006086D02*
X003824Y006138D01*
X003830Y006190D01*
X003840Y006241D01*
X003853Y006291D01*
X003871Y006341D01*
X003892Y006388D01*
X003916Y006434D01*
X003945Y006478D01*
X003976Y006520D01*
X004010Y006559D01*
X004047Y006596D01*
X004087Y006629D01*
X004130Y006660D01*
X004174Y006687D01*
X004220Y006711D01*
X004269Y006731D01*
X004318Y006747D01*
X004369Y006760D01*
X004420Y006769D01*
X004472Y006774D01*
X004524Y006775D01*
X004576Y006772D01*
X004628Y006765D01*
X004679Y006754D01*
X004729Y006740D01*
X004778Y006721D01*
X004825Y006699D01*
X004870Y006674D01*
X004914Y006645D01*
X004955Y006613D01*
X004994Y006578D01*
X005029Y006540D01*
X005062Y006499D01*
X005092Y006457D01*
X005118Y006412D01*
X005141Y006365D01*
X005160Y006316D01*
X005176Y006266D01*
X005188Y006216D01*
X005196Y006164D01*
X005200Y006112D01*
X005200Y006060D01*
X005196Y006008D01*
X005188Y005956D01*
X005176Y005906D01*
X005160Y005856D01*
X005141Y005807D01*
X005118Y005760D01*
X005092Y005715D01*
X005062Y005673D01*
X005029Y005632D01*
X004994Y005594D01*
X004955Y005559D01*
X004914Y005527D01*
X004870Y005498D01*
X004825Y005473D01*
X004778Y005451D01*
X004729Y005432D01*
X004679Y005418D01*
X004628Y005407D01*
X004576Y005400D01*
X004524Y005397D01*
X004472Y005398D01*
X004420Y005403D01*
X004369Y005412D01*
X004318Y005425D01*
X004269Y005441D01*
X004220Y005461D01*
X004174Y005485D01*
X004130Y005512D01*
X004087Y005543D01*
X004047Y005576D01*
X004010Y005613D01*
X003976Y005652D01*
X003945Y005694D01*
X003916Y005738D01*
X003892Y005784D01*
X003871Y005831D01*
X003853Y005881D01*
X003840Y005931D01*
X003830Y005982D01*
X003824Y006034D01*
X003822Y006086D01*
X003822Y033645D02*
X003824Y033697D01*
X003830Y033749D01*
X003840Y033800D01*
X003853Y033850D01*
X003871Y033900D01*
X003892Y033947D01*
X003916Y033993D01*
X003945Y034037D01*
X003976Y034079D01*
X004010Y034118D01*
X004047Y034155D01*
X004087Y034188D01*
X004130Y034219D01*
X004174Y034246D01*
X004220Y034270D01*
X004269Y034290D01*
X004318Y034306D01*
X004369Y034319D01*
X004420Y034328D01*
X004472Y034333D01*
X004524Y034334D01*
X004576Y034331D01*
X004628Y034324D01*
X004679Y034313D01*
X004729Y034299D01*
X004778Y034280D01*
X004825Y034258D01*
X004870Y034233D01*
X004914Y034204D01*
X004955Y034172D01*
X004994Y034137D01*
X005029Y034099D01*
X005062Y034058D01*
X005092Y034016D01*
X005118Y033971D01*
X005141Y033924D01*
X005160Y033875D01*
X005176Y033825D01*
X005188Y033775D01*
X005196Y033723D01*
X005200Y033671D01*
X005200Y033619D01*
X005196Y033567D01*
X005188Y033515D01*
X005176Y033465D01*
X005160Y033415D01*
X005141Y033366D01*
X005118Y033319D01*
X005092Y033274D01*
X005062Y033232D01*
X005029Y033191D01*
X004994Y033153D01*
X004955Y033118D01*
X004914Y033086D01*
X004870Y033057D01*
X004825Y033032D01*
X004778Y033010D01*
X004729Y032991D01*
X004679Y032977D01*
X004628Y032966D01*
X004576Y032959D01*
X004524Y032956D01*
X004472Y032957D01*
X004420Y032962D01*
X004369Y032971D01*
X004318Y032984D01*
X004269Y033000D01*
X004220Y033020D01*
X004174Y033044D01*
X004130Y033071D01*
X004087Y033102D01*
X004047Y033135D01*
X004010Y033172D01*
X003976Y033211D01*
X003945Y033253D01*
X003916Y033297D01*
X003892Y033343D01*
X003871Y033390D01*
X003853Y033440D01*
X003840Y033490D01*
X003830Y033541D01*
X003824Y033593D01*
X003822Y033645D01*
X035318Y033645D02*
X035320Y033697D01*
X035326Y033749D01*
X035336Y033800D01*
X035349Y033850D01*
X035367Y033900D01*
X035388Y033947D01*
X035412Y033993D01*
X035441Y034037D01*
X035472Y034079D01*
X035506Y034118D01*
X035543Y034155D01*
X035583Y034188D01*
X035626Y034219D01*
X035670Y034246D01*
X035716Y034270D01*
X035765Y034290D01*
X035814Y034306D01*
X035865Y034319D01*
X035916Y034328D01*
X035968Y034333D01*
X036020Y034334D01*
X036072Y034331D01*
X036124Y034324D01*
X036175Y034313D01*
X036225Y034299D01*
X036274Y034280D01*
X036321Y034258D01*
X036366Y034233D01*
X036410Y034204D01*
X036451Y034172D01*
X036490Y034137D01*
X036525Y034099D01*
X036558Y034058D01*
X036588Y034016D01*
X036614Y033971D01*
X036637Y033924D01*
X036656Y033875D01*
X036672Y033825D01*
X036684Y033775D01*
X036692Y033723D01*
X036696Y033671D01*
X036696Y033619D01*
X036692Y033567D01*
X036684Y033515D01*
X036672Y033465D01*
X036656Y033415D01*
X036637Y033366D01*
X036614Y033319D01*
X036588Y033274D01*
X036558Y033232D01*
X036525Y033191D01*
X036490Y033153D01*
X036451Y033118D01*
X036410Y033086D01*
X036366Y033057D01*
X036321Y033032D01*
X036274Y033010D01*
X036225Y032991D01*
X036175Y032977D01*
X036124Y032966D01*
X036072Y032959D01*
X036020Y032956D01*
X035968Y032957D01*
X035916Y032962D01*
X035865Y032971D01*
X035814Y032984D01*
X035765Y033000D01*
X035716Y033020D01*
X035670Y033044D01*
X035626Y033071D01*
X035583Y033102D01*
X035543Y033135D01*
X035506Y033172D01*
X035472Y033211D01*
X035441Y033253D01*
X035412Y033297D01*
X035388Y033343D01*
X035367Y033390D01*
X035349Y033440D01*
X035336Y033490D01*
X035326Y033541D01*
X035320Y033593D01*
X035318Y033645D01*
X035318Y006086D02*
X035320Y006138D01*
X035326Y006190D01*
X035336Y006241D01*
X035349Y006291D01*
X035367Y006341D01*
X035388Y006388D01*
X035412Y006434D01*
X035441Y006478D01*
X035472Y006520D01*
X035506Y006559D01*
X035543Y006596D01*
X035583Y006629D01*
X035626Y006660D01*
X035670Y006687D01*
X035716Y006711D01*
X035765Y006731D01*
X035814Y006747D01*
X035865Y006760D01*
X035916Y006769D01*
X035968Y006774D01*
X036020Y006775D01*
X036072Y006772D01*
X036124Y006765D01*
X036175Y006754D01*
X036225Y006740D01*
X036274Y006721D01*
X036321Y006699D01*
X036366Y006674D01*
X036410Y006645D01*
X036451Y006613D01*
X036490Y006578D01*
X036525Y006540D01*
X036558Y006499D01*
X036588Y006457D01*
X036614Y006412D01*
X036637Y006365D01*
X036656Y006316D01*
X036672Y006266D01*
X036684Y006216D01*
X036692Y006164D01*
X036696Y006112D01*
X036696Y006060D01*
X036692Y006008D01*
X036684Y005956D01*
X036672Y005906D01*
X036656Y005856D01*
X036637Y005807D01*
X036614Y005760D01*
X036588Y005715D01*
X036558Y005673D01*
X036525Y005632D01*
X036490Y005594D01*
X036451Y005559D01*
X036410Y005527D01*
X036366Y005498D01*
X036321Y005473D01*
X036274Y005451D01*
X036225Y005432D01*
X036175Y005418D01*
X036124Y005407D01*
X036072Y005400D01*
X036020Y005397D01*
X035968Y005398D01*
X035916Y005403D01*
X035865Y005412D01*
X035814Y005425D01*
X035765Y005441D01*
X035716Y005461D01*
X035670Y005485D01*
X035626Y005512D01*
X035583Y005543D01*
X035543Y005576D01*
X035506Y005613D01*
X035472Y005652D01*
X035441Y005694D01*
X035412Y005738D01*
X035388Y005784D01*
X035367Y005831D01*
X035349Y005881D01*
X035336Y005931D01*
X035326Y005982D01*
X035320Y006034D01*
X035318Y006086D01*
D11*
X011932Y013960D03*
X011263Y013960D03*
X009570Y013960D03*
X008900Y013960D03*
D12*
G36*
X008107Y016777D02*
X007802Y017082D01*
X008081Y017361D01*
X008386Y017056D01*
X008107Y016777D01*
G37*
G36*
X007634Y017251D02*
X007329Y017556D01*
X007608Y017835D01*
X007913Y017530D01*
X007634Y017251D01*
G37*
G36*
X007329Y022174D02*
X007634Y022479D01*
X007913Y022200D01*
X007608Y021895D01*
X007329Y022174D01*
G37*
G36*
X007802Y022648D02*
X008107Y022953D01*
X008386Y022674D01*
X008081Y022369D01*
X007802Y022648D01*
G37*
G36*
X012646Y023033D02*
X012951Y022728D01*
X012672Y022449D01*
X012367Y022754D01*
X012646Y023033D01*
G37*
G36*
X013119Y022559D02*
X013424Y022254D01*
X013145Y021975D01*
X012840Y022280D01*
X013119Y022559D01*
G37*
G36*
X015983Y025941D02*
X015678Y025636D01*
X015399Y025915D01*
X015704Y026220D01*
X015983Y025941D01*
G37*
G36*
X016457Y026414D02*
X016152Y026109D01*
X015873Y026388D01*
X016178Y026693D01*
X016457Y026414D01*
G37*
X011932Y026952D03*
X011263Y026952D03*
X009570Y026952D03*
X008900Y026952D03*
G36*
X015983Y033815D02*
X015678Y033510D01*
X015399Y033789D01*
X015704Y034094D01*
X015983Y033815D01*
G37*
G36*
X016457Y034288D02*
X016152Y033983D01*
X015873Y034262D01*
X016178Y034567D01*
X016457Y034288D01*
G37*
G36*
X016457Y018540D02*
X016152Y018235D01*
X015873Y018514D01*
X016178Y018819D01*
X016457Y018540D01*
G37*
G36*
X015983Y018067D02*
X015678Y017762D01*
X015399Y018041D01*
X015704Y018346D01*
X015983Y018067D01*
G37*
G36*
X015977Y010986D02*
X015672Y010681D01*
X015393Y010960D01*
X015698Y011265D01*
X015977Y010986D01*
G37*
G36*
X015503Y010513D02*
X015198Y010208D01*
X014919Y010487D01*
X015224Y010792D01*
X015503Y010513D01*
G37*
D13*
G36*
X012947Y016833D02*
X012613Y016499D01*
X012169Y016943D01*
X012503Y017277D01*
X012947Y016833D01*
G37*
G36*
X013782Y017669D02*
X013448Y017335D01*
X013004Y017779D01*
X013338Y018113D01*
X013782Y017669D01*
G37*
D14*
G36*
X015109Y015745D02*
X014925Y015929D01*
X015489Y016493D01*
X015673Y016309D01*
X015109Y015745D01*
G37*
G36*
X015463Y015391D02*
X015279Y015575D01*
X015843Y016139D01*
X016027Y015955D01*
X015463Y015391D01*
G37*
G36*
X015816Y015038D02*
X015632Y015222D01*
X016196Y015786D01*
X016380Y015602D01*
X015816Y015038D01*
G37*
G36*
X016170Y014684D02*
X015986Y014868D01*
X016550Y015432D01*
X016734Y015248D01*
X016170Y014684D01*
G37*
G36*
X016523Y014331D02*
X016339Y014515D01*
X016903Y015079D01*
X017087Y014895D01*
X016523Y014331D01*
G37*
G36*
X016877Y013977D02*
X016693Y014161D01*
X017257Y014725D01*
X017441Y014541D01*
X016877Y013977D01*
G37*
G36*
X017230Y013624D02*
X017046Y013808D01*
X017610Y014372D01*
X017794Y014188D01*
X017230Y013624D01*
G37*
G36*
X017584Y013270D02*
X017400Y013454D01*
X017964Y014018D01*
X018148Y013834D01*
X017584Y013270D01*
G37*
G36*
X017938Y012917D02*
X017754Y013101D01*
X018318Y013665D01*
X018502Y013481D01*
X017938Y012917D01*
G37*
G36*
X018291Y012563D02*
X018107Y012747D01*
X018671Y013311D01*
X018855Y013127D01*
X018291Y012563D01*
G37*
G36*
X017909Y010671D02*
X017725Y010855D01*
X018289Y011419D01*
X018473Y011235D01*
X017909Y010671D01*
G37*
G36*
X018263Y010318D02*
X018079Y010502D01*
X018643Y011066D01*
X018827Y010882D01*
X018263Y010318D01*
G37*
G36*
X018616Y009964D02*
X018432Y010148D01*
X018996Y010712D01*
X019180Y010528D01*
X018616Y009964D01*
G37*
G36*
X018970Y009610D02*
X018786Y009794D01*
X019350Y010358D01*
X019534Y010174D01*
X018970Y009610D01*
G37*
G36*
X019324Y009257D02*
X019140Y009441D01*
X019704Y010005D01*
X019888Y009821D01*
X019324Y009257D01*
G37*
G36*
X019677Y008903D02*
X019493Y009087D01*
X020057Y009651D01*
X020241Y009467D01*
X019677Y008903D01*
G37*
G36*
X020031Y008550D02*
X019847Y008734D01*
X020411Y009298D01*
X020595Y009114D01*
X020031Y008550D01*
G37*
G36*
X020384Y008196D02*
X020200Y008380D01*
X020764Y008944D01*
X020948Y008760D01*
X020384Y008196D01*
G37*
G36*
X020738Y007843D02*
X020554Y008027D01*
X021118Y008591D01*
X021302Y008407D01*
X020738Y007843D01*
G37*
G36*
X021091Y007489D02*
X020907Y007673D01*
X021471Y008237D01*
X021655Y008053D01*
X021091Y007489D01*
G37*
G36*
X018291Y004689D02*
X018107Y004873D01*
X018671Y005437D01*
X018855Y005253D01*
X018291Y004689D01*
G37*
G36*
X017938Y005043D02*
X017754Y005227D01*
X018318Y005791D01*
X018502Y005607D01*
X017938Y005043D01*
G37*
G36*
X017584Y005396D02*
X017400Y005580D01*
X017964Y006144D01*
X018148Y005960D01*
X017584Y005396D01*
G37*
G36*
X017230Y005750D02*
X017046Y005934D01*
X017610Y006498D01*
X017794Y006314D01*
X017230Y005750D01*
G37*
G36*
X016877Y006103D02*
X016693Y006287D01*
X017257Y006851D01*
X017441Y006667D01*
X016877Y006103D01*
G37*
G36*
X016523Y006457D02*
X016339Y006641D01*
X016903Y007205D01*
X017087Y007021D01*
X016523Y006457D01*
G37*
G36*
X016170Y006810D02*
X015986Y006994D01*
X016550Y007558D01*
X016734Y007374D01*
X016170Y006810D01*
G37*
G36*
X015816Y007164D02*
X015632Y007348D01*
X016196Y007912D01*
X016380Y007728D01*
X015816Y007164D01*
G37*
G36*
X015463Y007517D02*
X015279Y007701D01*
X015843Y008265D01*
X016027Y008081D01*
X015463Y007517D01*
G37*
G36*
X015109Y007871D02*
X014925Y008055D01*
X015489Y008619D01*
X015673Y008435D01*
X015109Y007871D01*
G37*
G36*
X021091Y015363D02*
X020907Y015547D01*
X021471Y016111D01*
X021655Y015927D01*
X021091Y015363D01*
G37*
G36*
X020738Y015717D02*
X020554Y015901D01*
X021118Y016465D01*
X021302Y016281D01*
X020738Y015717D01*
G37*
G36*
X020384Y016070D02*
X020200Y016254D01*
X020764Y016818D01*
X020948Y016634D01*
X020384Y016070D01*
G37*
G36*
X020031Y016424D02*
X019847Y016608D01*
X020411Y017172D01*
X020595Y016988D01*
X020031Y016424D01*
G37*
G36*
X019677Y016777D02*
X019493Y016961D01*
X020057Y017525D01*
X020241Y017341D01*
X019677Y016777D01*
G37*
G36*
X019324Y017131D02*
X019140Y017315D01*
X019704Y017879D01*
X019888Y017695D01*
X019324Y017131D01*
G37*
G36*
X018970Y017484D02*
X018786Y017668D01*
X019350Y018232D01*
X019534Y018048D01*
X018970Y017484D01*
G37*
G36*
X018616Y017838D02*
X018432Y018022D01*
X018996Y018586D01*
X019180Y018402D01*
X018616Y017838D01*
G37*
G36*
X018263Y018192D02*
X018079Y018376D01*
X018643Y018940D01*
X018827Y018756D01*
X018263Y018192D01*
G37*
G36*
X017909Y018545D02*
X017725Y018729D01*
X018289Y019293D01*
X018473Y019109D01*
X017909Y018545D01*
G37*
G36*
X018291Y020437D02*
X018107Y020621D01*
X018671Y021185D01*
X018855Y021001D01*
X018291Y020437D01*
G37*
G36*
X017938Y020791D02*
X017754Y020975D01*
X018318Y021539D01*
X018502Y021355D01*
X017938Y020791D01*
G37*
G36*
X017584Y021144D02*
X017400Y021328D01*
X017964Y021892D01*
X018148Y021708D01*
X017584Y021144D01*
G37*
G36*
X017230Y021498D02*
X017046Y021682D01*
X017610Y022246D01*
X017794Y022062D01*
X017230Y021498D01*
G37*
G36*
X016877Y021851D02*
X016693Y022035D01*
X017257Y022599D01*
X017441Y022415D01*
X016877Y021851D01*
G37*
G36*
X016523Y022205D02*
X016339Y022389D01*
X016903Y022953D01*
X017087Y022769D01*
X016523Y022205D01*
G37*
G36*
X016170Y022558D02*
X015986Y022742D01*
X016550Y023306D01*
X016734Y023122D01*
X016170Y022558D01*
G37*
G36*
X015816Y022912D02*
X015632Y023096D01*
X016196Y023660D01*
X016380Y023476D01*
X015816Y022912D01*
G37*
G36*
X015463Y023265D02*
X015279Y023449D01*
X015843Y024013D01*
X016027Y023829D01*
X015463Y023265D01*
G37*
G36*
X015109Y023619D02*
X014925Y023803D01*
X015489Y024367D01*
X015673Y024183D01*
X015109Y023619D01*
G37*
G36*
X017909Y026419D02*
X017725Y026603D01*
X018289Y027167D01*
X018473Y026983D01*
X017909Y026419D01*
G37*
G36*
X018263Y026066D02*
X018079Y026250D01*
X018643Y026814D01*
X018827Y026630D01*
X018263Y026066D01*
G37*
G36*
X018616Y025712D02*
X018432Y025896D01*
X018996Y026460D01*
X019180Y026276D01*
X018616Y025712D01*
G37*
G36*
X018970Y025358D02*
X018786Y025542D01*
X019350Y026106D01*
X019534Y025922D01*
X018970Y025358D01*
G37*
G36*
X019324Y025005D02*
X019140Y025189D01*
X019704Y025753D01*
X019888Y025569D01*
X019324Y025005D01*
G37*
G36*
X019677Y024651D02*
X019493Y024835D01*
X020057Y025399D01*
X020241Y025215D01*
X019677Y024651D01*
G37*
G36*
X020031Y024298D02*
X019847Y024482D01*
X020411Y025046D01*
X020595Y024862D01*
X020031Y024298D01*
G37*
G36*
X020384Y023944D02*
X020200Y024128D01*
X020764Y024692D01*
X020948Y024508D01*
X020384Y023944D01*
G37*
G36*
X020738Y023591D02*
X020554Y023775D01*
X021118Y024339D01*
X021302Y024155D01*
X020738Y023591D01*
G37*
G36*
X021091Y023237D02*
X020907Y023421D01*
X021471Y023985D01*
X021655Y023801D01*
X021091Y023237D01*
G37*
G36*
X018291Y028311D02*
X018107Y028495D01*
X018671Y029059D01*
X018855Y028875D01*
X018291Y028311D01*
G37*
G36*
X017938Y028665D02*
X017754Y028849D01*
X018318Y029413D01*
X018502Y029229D01*
X017938Y028665D01*
G37*
G36*
X017584Y029018D02*
X017400Y029202D01*
X017964Y029766D01*
X018148Y029582D01*
X017584Y029018D01*
G37*
G36*
X017230Y029372D02*
X017046Y029556D01*
X017610Y030120D01*
X017794Y029936D01*
X017230Y029372D01*
G37*
G36*
X016877Y029725D02*
X016693Y029909D01*
X017257Y030473D01*
X017441Y030289D01*
X016877Y029725D01*
G37*
G36*
X016523Y030079D02*
X016339Y030263D01*
X016903Y030827D01*
X017087Y030643D01*
X016523Y030079D01*
G37*
G36*
X016170Y030432D02*
X015986Y030616D01*
X016550Y031180D01*
X016734Y030996D01*
X016170Y030432D01*
G37*
G36*
X015816Y030786D02*
X015632Y030970D01*
X016196Y031534D01*
X016380Y031350D01*
X015816Y030786D01*
G37*
G36*
X015463Y031139D02*
X015279Y031323D01*
X015843Y031887D01*
X016027Y031703D01*
X015463Y031139D01*
G37*
G36*
X015109Y031493D02*
X014925Y031677D01*
X015489Y032241D01*
X015673Y032057D01*
X015109Y031493D01*
G37*
G36*
X017909Y034293D02*
X017725Y034477D01*
X018289Y035041D01*
X018473Y034857D01*
X017909Y034293D01*
G37*
G36*
X018263Y033940D02*
X018079Y034124D01*
X018643Y034688D01*
X018827Y034504D01*
X018263Y033940D01*
G37*
G36*
X018616Y033586D02*
X018432Y033770D01*
X018996Y034334D01*
X019180Y034150D01*
X018616Y033586D01*
G37*
G36*
X018970Y033232D02*
X018786Y033416D01*
X019350Y033980D01*
X019534Y033796D01*
X018970Y033232D01*
G37*
G36*
X019324Y032879D02*
X019140Y033063D01*
X019704Y033627D01*
X019888Y033443D01*
X019324Y032879D01*
G37*
G36*
X019677Y032525D02*
X019493Y032709D01*
X020057Y033273D01*
X020241Y033089D01*
X019677Y032525D01*
G37*
G36*
X020031Y032172D02*
X019847Y032356D01*
X020411Y032920D01*
X020595Y032736D01*
X020031Y032172D01*
G37*
G36*
X020384Y031818D02*
X020200Y032002D01*
X020764Y032566D01*
X020948Y032382D01*
X020384Y031818D01*
G37*
G36*
X020738Y031465D02*
X020554Y031649D01*
X021118Y032213D01*
X021302Y032029D01*
X020738Y031465D01*
G37*
G36*
X021091Y031111D02*
X020907Y031295D01*
X021471Y031859D01*
X021655Y031675D01*
X021091Y031111D01*
G37*
D15*
G36*
X010054Y022316D02*
X009638Y022732D01*
X009776Y022870D01*
X010192Y022454D01*
X010054Y022316D01*
G37*
G36*
X009831Y022094D02*
X009415Y022510D01*
X009553Y022648D01*
X009969Y022232D01*
X009831Y022094D01*
G37*
G36*
X009609Y021871D02*
X009193Y022287D01*
X009331Y022425D01*
X009747Y022009D01*
X009609Y021871D01*
G37*
G36*
X009386Y021648D02*
X008970Y022064D01*
X009108Y022202D01*
X009524Y021786D01*
X009386Y021648D01*
G37*
G36*
X009163Y021425D02*
X008747Y021841D01*
X008885Y021979D01*
X009301Y021563D01*
X009163Y021425D01*
G37*
G36*
X008941Y021203D02*
X008525Y021619D01*
X008663Y021757D01*
X009079Y021341D01*
X008941Y021203D01*
G37*
G36*
X008718Y020980D02*
X008302Y021396D01*
X008440Y021534D01*
X008856Y021118D01*
X008718Y020980D01*
G37*
G36*
X008495Y020757D02*
X008079Y021173D01*
X008217Y021311D01*
X008633Y020895D01*
X008495Y020757D01*
G37*
G36*
X008272Y020535D02*
X007856Y020951D01*
X007994Y021089D01*
X008410Y020673D01*
X008272Y020535D01*
G37*
G36*
X008050Y020312D02*
X007634Y020728D01*
X007772Y020866D01*
X008188Y020450D01*
X008050Y020312D01*
G37*
G36*
X007827Y020089D02*
X007411Y020505D01*
X007549Y020643D01*
X007965Y020227D01*
X007827Y020089D01*
G37*
G36*
X011056Y016860D02*
X010640Y017276D01*
X010778Y017414D01*
X011194Y016998D01*
X011056Y016860D01*
G37*
G36*
X011279Y017083D02*
X010863Y017499D01*
X011001Y017637D01*
X011417Y017221D01*
X011279Y017083D01*
G37*
G36*
X011502Y017305D02*
X011086Y017721D01*
X011224Y017859D01*
X011640Y017443D01*
X011502Y017305D01*
G37*
G36*
X011724Y017528D02*
X011308Y017944D01*
X011446Y018082D01*
X011862Y017666D01*
X011724Y017528D01*
G37*
G36*
X011947Y017751D02*
X011531Y018167D01*
X011669Y018305D01*
X012085Y017889D01*
X011947Y017751D01*
G37*
G36*
X012170Y017973D02*
X011754Y018389D01*
X011892Y018527D01*
X012308Y018111D01*
X012170Y017973D01*
G37*
G36*
X012393Y018196D02*
X011977Y018612D01*
X012115Y018750D01*
X012531Y018334D01*
X012393Y018196D01*
G37*
G36*
X012615Y018419D02*
X012199Y018835D01*
X012337Y018973D01*
X012753Y018557D01*
X012615Y018419D01*
G37*
G36*
X012838Y018642D02*
X012422Y019058D01*
X012560Y019196D01*
X012976Y018780D01*
X012838Y018642D01*
G37*
G36*
X013061Y018864D02*
X012645Y019280D01*
X012783Y019418D01*
X013199Y019002D01*
X013061Y018864D01*
G37*
G36*
X013283Y019087D02*
X012867Y019503D01*
X013005Y019641D01*
X013421Y019225D01*
X013283Y019087D01*
G37*
D16*
G36*
X013005Y020089D02*
X012867Y020227D01*
X013283Y020643D01*
X013421Y020505D01*
X013005Y020089D01*
G37*
G36*
X012783Y020312D02*
X012645Y020450D01*
X013061Y020866D01*
X013199Y020728D01*
X012783Y020312D01*
G37*
G36*
X012560Y020535D02*
X012422Y020673D01*
X012838Y021089D01*
X012976Y020951D01*
X012560Y020535D01*
G37*
G36*
X012337Y020757D02*
X012199Y020895D01*
X012615Y021311D01*
X012753Y021173D01*
X012337Y020757D01*
G37*
G36*
X012115Y020980D02*
X011977Y021118D01*
X012393Y021534D01*
X012531Y021396D01*
X012115Y020980D01*
G37*
G36*
X011892Y021203D02*
X011754Y021341D01*
X012170Y021757D01*
X012308Y021619D01*
X011892Y021203D01*
G37*
G36*
X011669Y021425D02*
X011531Y021563D01*
X011947Y021979D01*
X012085Y021841D01*
X011669Y021425D01*
G37*
G36*
X011446Y021648D02*
X011308Y021786D01*
X011724Y022202D01*
X011862Y022064D01*
X011446Y021648D01*
G37*
G36*
X011224Y021871D02*
X011086Y022009D01*
X011502Y022425D01*
X011640Y022287D01*
X011224Y021871D01*
G37*
G36*
X011001Y022094D02*
X010863Y022232D01*
X011279Y022648D01*
X011417Y022510D01*
X011001Y022094D01*
G37*
G36*
X010778Y022316D02*
X010640Y022454D01*
X011056Y022870D01*
X011194Y022732D01*
X010778Y022316D01*
G37*
G36*
X007549Y019087D02*
X007411Y019225D01*
X007827Y019641D01*
X007965Y019503D01*
X007549Y019087D01*
G37*
G36*
X007772Y018864D02*
X007634Y019002D01*
X008050Y019418D01*
X008188Y019280D01*
X007772Y018864D01*
G37*
G36*
X007994Y018642D02*
X007856Y018780D01*
X008272Y019196D01*
X008410Y019058D01*
X007994Y018642D01*
G37*
G36*
X008217Y018419D02*
X008079Y018557D01*
X008495Y018973D01*
X008633Y018835D01*
X008217Y018419D01*
G37*
G36*
X008440Y018196D02*
X008302Y018334D01*
X008718Y018750D01*
X008856Y018612D01*
X008440Y018196D01*
G37*
G36*
X008663Y017973D02*
X008525Y018111D01*
X008941Y018527D01*
X009079Y018389D01*
X008663Y017973D01*
G37*
G36*
X008885Y017751D02*
X008747Y017889D01*
X009163Y018305D01*
X009301Y018167D01*
X008885Y017751D01*
G37*
G36*
X009108Y017528D02*
X008970Y017666D01*
X009386Y018082D01*
X009524Y017944D01*
X009108Y017528D01*
G37*
G36*
X009331Y017305D02*
X009193Y017443D01*
X009609Y017859D01*
X009747Y017721D01*
X009331Y017305D01*
G37*
G36*
X009553Y017083D02*
X009415Y017221D01*
X009831Y017637D01*
X009969Y017499D01*
X009553Y017083D01*
G37*
G36*
X009776Y016860D02*
X009638Y016998D01*
X010054Y017414D01*
X010192Y017276D01*
X009776Y016860D01*
G37*
M02*
