G75*
G70*
%OFA0B0*%
%FSLAX24Y24*%
%IPPOS*%
%LPD*%
%AMOC8*
5,1,8,0,0,1.08239X$1,22.5*
%
%ADD10C,0.0000*%
%ADD11C,0.0020*%
%ADD12C,0.0050*%
%ADD13C,0.0080*%
%ADD14C,0.0256*%
%ADD15C,0.0001*%
D10*
X000900Y000980D02*
X000900Y010035D01*
X006018Y010035D01*
X006018Y000980D01*
X000900Y000980D01*
X003986Y004499D02*
X003997Y004494D01*
X004009Y004492D01*
X004022Y004494D01*
X004033Y004499D01*
X004041Y004508D01*
X004047Y004519D01*
X004049Y004531D01*
X004047Y004543D01*
X004041Y004554D01*
X004033Y004563D01*
X004022Y004569D01*
X004009Y004571D01*
X003997Y004569D01*
X003986Y004563D01*
X003978Y004554D01*
X003972Y004543D01*
X003970Y004531D01*
X003972Y004519D01*
X003978Y004508D01*
X003986Y004499D01*
X004049Y008012D02*
X004062Y008014D01*
X004073Y008019D01*
X004081Y008028D01*
X004087Y008039D01*
X004089Y008051D01*
X004087Y008063D01*
X004081Y008074D01*
X004073Y008083D01*
X004062Y008089D01*
X004049Y008091D01*
X004037Y008089D01*
X004026Y008083D01*
X004018Y008074D01*
X004012Y008063D01*
X004010Y008051D01*
X004012Y008039D01*
X004018Y008028D01*
X004026Y008019D01*
X004037Y008014D01*
X004049Y008012D01*
D11*
X004612Y008211D02*
X004612Y008321D01*
X004649Y008357D01*
X004796Y008357D01*
X004832Y008321D01*
X004832Y008211D01*
X004612Y008211D01*
X004685Y008432D02*
X004612Y008505D01*
X004832Y008505D01*
X004832Y008432D02*
X004832Y008578D01*
X004746Y008828D02*
X004782Y008864D01*
X004782Y008938D01*
X004746Y008974D01*
X004709Y008974D01*
X004672Y008938D01*
X004672Y008864D01*
X004635Y008828D01*
X004599Y008828D01*
X004562Y008864D01*
X004562Y008938D01*
X004599Y008974D01*
X004672Y009049D02*
X004672Y009195D01*
X004635Y009270D02*
X004562Y009343D01*
X004782Y009343D01*
X004782Y009270D02*
X004782Y009416D01*
X004746Y009491D02*
X004782Y009527D01*
X004782Y009601D01*
X004746Y009637D01*
X004709Y009637D01*
X004672Y009601D01*
X004672Y009564D01*
X004672Y009601D02*
X004635Y009637D01*
X004599Y009637D01*
X004562Y009601D01*
X004562Y009527D01*
X004599Y009491D01*
X004562Y009712D02*
X004562Y009858D01*
X004562Y009785D02*
X004782Y009785D01*
X005157Y008103D02*
X005157Y007956D01*
X005157Y008030D02*
X004937Y008030D01*
X005011Y007956D01*
X004974Y007882D02*
X004937Y007846D01*
X004937Y007772D01*
X004974Y007735D01*
X005011Y007735D01*
X005047Y007772D01*
X005047Y007846D01*
X005084Y007882D01*
X005121Y007882D01*
X005157Y007846D01*
X005157Y007772D01*
X005121Y007735D01*
X005121Y007661D02*
X004937Y007661D01*
X004901Y007809D02*
X005194Y007809D01*
X005121Y007661D02*
X005157Y007625D01*
X005157Y007551D01*
X005121Y007514D01*
X004937Y007514D01*
X004806Y006480D02*
X004659Y006480D01*
X004585Y006443D02*
X004585Y006370D01*
X004548Y006333D01*
X004438Y006333D01*
X004438Y006260D02*
X004438Y006480D01*
X004548Y006480D01*
X004585Y006443D01*
X004511Y006333D02*
X004585Y006260D01*
X004659Y006260D02*
X004659Y006297D01*
X004806Y006443D01*
X004806Y006480D01*
X004689Y005680D02*
X004616Y005680D01*
X004579Y005643D01*
X004505Y005643D02*
X004468Y005680D01*
X004395Y005680D01*
X004358Y005643D01*
X004358Y005497D01*
X004395Y005460D01*
X004468Y005460D01*
X004505Y005497D01*
X004579Y005460D02*
X004726Y005607D01*
X004726Y005643D01*
X004689Y005680D01*
X004726Y005460D02*
X004579Y005460D01*
X004934Y004583D02*
X004897Y004547D01*
X004897Y004473D01*
X004934Y004436D01*
X004934Y004362D02*
X004897Y004326D01*
X004897Y004252D01*
X004934Y004215D01*
X004971Y004215D01*
X005007Y004252D01*
X005007Y004326D01*
X005044Y004362D01*
X005081Y004362D01*
X005117Y004326D01*
X005117Y004252D01*
X005081Y004215D01*
X005081Y004141D02*
X004897Y004141D01*
X004897Y003994D02*
X005081Y003994D01*
X005117Y004031D01*
X005117Y004105D01*
X005081Y004141D01*
X005154Y004289D02*
X004861Y004289D01*
X005117Y004436D02*
X004971Y004583D01*
X004934Y004583D01*
X005117Y004583D02*
X005117Y004436D01*
X005507Y003956D02*
X005470Y003919D01*
X005470Y003809D01*
X005690Y003809D01*
X005690Y003919D01*
X005653Y003956D01*
X005617Y003956D01*
X005580Y003919D01*
X005580Y003809D01*
X005653Y003735D02*
X005653Y003699D01*
X005690Y003699D01*
X005690Y003735D01*
X005653Y003735D01*
X005543Y003624D02*
X005690Y003551D01*
X005543Y003478D01*
X005580Y003403D02*
X005617Y003403D01*
X005617Y003257D01*
X005653Y003257D02*
X005580Y003257D01*
X005543Y003293D01*
X005543Y003367D01*
X005580Y003403D01*
X005690Y003367D02*
X005690Y003293D01*
X005653Y003257D01*
X005690Y003182D02*
X005617Y003109D01*
X005617Y003146D02*
X005617Y003036D01*
X005690Y003036D02*
X005470Y003036D01*
X005470Y003146D01*
X005507Y003182D01*
X005580Y003182D01*
X005617Y003146D01*
X005543Y002740D02*
X005543Y002704D01*
X005617Y002630D01*
X005690Y002630D02*
X005543Y002630D01*
X005580Y002556D02*
X005543Y002520D01*
X005543Y002446D01*
X005580Y002409D01*
X005653Y002409D01*
X005690Y002446D01*
X005690Y002520D01*
X005653Y002556D01*
X005580Y002556D01*
X005543Y002335D02*
X005543Y002225D01*
X005580Y002188D01*
X005617Y002225D01*
X005617Y002299D01*
X005653Y002335D01*
X005690Y002299D01*
X005690Y002188D01*
X005690Y002114D02*
X005580Y002114D01*
X005543Y002078D01*
X005543Y001967D01*
X005690Y001967D01*
X005617Y001893D02*
X005617Y001746D01*
X005653Y001746D02*
X005580Y001746D01*
X005543Y001783D01*
X005543Y001857D01*
X005580Y001893D01*
X005617Y001893D01*
X005690Y001857D02*
X005690Y001783D01*
X005653Y001746D01*
X005653Y001672D02*
X005690Y001636D01*
X005690Y001562D01*
X005653Y001525D01*
X005580Y001562D02*
X005580Y001636D01*
X005617Y001672D01*
X005653Y001672D01*
X005580Y001562D02*
X005543Y001525D01*
X005507Y001525D01*
X005470Y001562D01*
X005470Y001636D01*
X005507Y001672D01*
X005543Y001451D02*
X005543Y001415D01*
X005617Y001341D01*
X005690Y001341D02*
X005543Y001341D01*
X005470Y001267D02*
X005470Y001120D01*
X005470Y001194D02*
X005690Y001194D01*
X005210Y001189D02*
X004990Y001189D01*
X004990Y001116D02*
X004990Y001262D01*
X004990Y001447D02*
X005173Y001447D01*
X005210Y001484D01*
X005210Y001557D01*
X005173Y001594D01*
X004990Y001594D01*
X005027Y001779D02*
X004990Y001815D01*
X004990Y001889D01*
X005027Y001925D01*
X005100Y001889D02*
X005100Y001815D01*
X005063Y001779D01*
X005027Y001779D01*
X005100Y001889D02*
X005137Y001925D01*
X005173Y001925D01*
X005210Y001889D01*
X005210Y001815D01*
X005173Y001779D01*
X005173Y001705D02*
X005210Y001705D01*
X005210Y001668D01*
X005173Y001668D01*
X005173Y001705D01*
X005173Y002000D02*
X005173Y002036D01*
X005210Y002036D01*
X005210Y002000D01*
X005173Y002000D01*
X005173Y001373D02*
X005210Y001373D01*
X005210Y001337D01*
X005173Y001337D01*
X005173Y001373D01*
X004100Y001598D02*
X003880Y001598D01*
X003880Y001708D01*
X003917Y001745D01*
X003990Y001745D01*
X004027Y001708D01*
X004027Y001598D01*
X004027Y001671D02*
X004100Y001745D01*
X004063Y001819D02*
X004100Y001856D01*
X004100Y001929D01*
X004063Y001966D01*
X004027Y001966D01*
X003990Y001929D01*
X003990Y001819D01*
X004063Y001819D01*
X003990Y001819D02*
X003917Y001892D01*
X003880Y001966D01*
X003267Y002963D02*
X003120Y002963D01*
X003047Y003037D01*
X003120Y003110D01*
X003267Y003110D01*
X003157Y003110D02*
X003157Y002963D01*
X003047Y003184D02*
X003047Y003331D01*
X003047Y003258D02*
X003267Y003258D01*
X003267Y003479D02*
X003047Y003479D01*
X003047Y003552D02*
X003047Y003405D01*
X003047Y003626D02*
X003047Y003700D01*
X003047Y003663D02*
X003267Y003663D01*
X003267Y003626D02*
X003267Y003700D01*
X003267Y003773D02*
X003047Y003773D01*
X003267Y003920D01*
X003047Y003920D01*
X003047Y003994D02*
X003084Y003994D01*
X003157Y004068D01*
X003267Y004068D01*
X003157Y004068D02*
X003084Y004141D01*
X003047Y004141D01*
X003120Y004215D02*
X003047Y004289D01*
X003267Y004289D01*
X003267Y004362D02*
X003267Y004215D01*
X003230Y004436D02*
X003084Y004436D01*
X003047Y004473D01*
X003047Y004547D01*
X003084Y004583D01*
X003230Y004436D01*
X003267Y004473D01*
X003267Y004547D01*
X003230Y004583D01*
X003084Y004583D01*
X002010Y006192D02*
X002010Y006266D01*
X002010Y006229D02*
X001790Y006229D01*
X001790Y006192D02*
X001790Y006266D01*
X001826Y006340D02*
X001790Y006376D01*
X001790Y006450D01*
X001826Y006486D01*
X001826Y006561D02*
X001790Y006597D01*
X001790Y006671D01*
X001826Y006707D01*
X001863Y006707D01*
X002010Y006561D01*
X002010Y006707D01*
X001973Y006486D02*
X002010Y006450D01*
X002010Y006376D01*
X001973Y006340D01*
X001826Y006340D01*
X001785Y007540D02*
X001711Y007613D01*
X001748Y007613D02*
X001785Y007650D01*
X001785Y007723D01*
X001748Y007760D01*
X001638Y007760D01*
X001638Y007540D01*
X001638Y007613D02*
X001748Y007613D01*
X001859Y007577D02*
X001896Y007540D01*
X001969Y007540D01*
X002006Y007577D01*
X002006Y007613D01*
X001969Y007650D01*
X001932Y007650D01*
X001969Y007650D02*
X002006Y007687D01*
X002006Y007723D01*
X001969Y007760D01*
X001896Y007760D01*
X001859Y007723D01*
X001859Y008060D02*
X002006Y008060D01*
X001932Y008060D02*
X001932Y008280D01*
X001859Y008207D01*
X001785Y008243D02*
X001785Y008170D01*
X001748Y008133D01*
X001638Y008133D01*
X001638Y008060D02*
X001638Y008280D01*
X001748Y008280D01*
X001785Y008243D01*
X001711Y008133D02*
X001785Y008060D01*
X001440Y008900D02*
X001220Y008900D01*
X001220Y009010D01*
X001257Y009047D01*
X001330Y009047D01*
X001367Y009010D01*
X001367Y008900D01*
X001367Y008973D02*
X001440Y009047D01*
X001440Y009121D02*
X001293Y009268D01*
X001257Y009268D01*
X001220Y009231D01*
X001220Y009158D01*
X001257Y009121D01*
X001440Y009121D02*
X001440Y009268D01*
X003087Y008067D02*
X003124Y008103D01*
X003270Y007956D01*
X003307Y007993D01*
X003307Y008067D01*
X003270Y008103D01*
X003124Y008103D01*
X003087Y008067D02*
X003087Y007993D01*
X003124Y007956D01*
X003270Y007956D01*
X003307Y007882D02*
X003307Y007735D01*
X003307Y007809D02*
X003087Y007809D01*
X003160Y007735D01*
X003124Y007661D02*
X003197Y007588D01*
X003307Y007588D01*
X003307Y007440D02*
X003087Y007440D01*
X003087Y007514D02*
X003124Y007514D01*
X003197Y007588D01*
X003124Y007661D02*
X003087Y007661D01*
X003307Y007440D02*
X003087Y007293D01*
X003307Y007293D01*
X003307Y007220D02*
X003307Y007146D01*
X003307Y007183D02*
X003087Y007183D01*
X003087Y007146D02*
X003087Y007220D01*
X003087Y007072D02*
X003087Y006925D01*
X003087Y006999D02*
X003307Y006999D01*
X003307Y006778D02*
X003087Y006778D01*
X003087Y006851D02*
X003087Y006704D01*
X003160Y006630D02*
X003087Y006557D01*
X003160Y006483D01*
X003307Y006483D01*
X003307Y006630D02*
X003160Y006630D01*
X003197Y006630D02*
X003197Y006483D01*
X001849Y003920D02*
X001739Y003810D01*
X001886Y003810D01*
X001849Y003700D02*
X001849Y003920D01*
X001665Y003883D02*
X001665Y003810D01*
X001628Y003773D01*
X001518Y003773D01*
X001518Y003700D02*
X001518Y003920D01*
X001628Y003920D01*
X001665Y003883D01*
X001591Y003773D02*
X001665Y003700D01*
X001650Y003380D02*
X001540Y003380D01*
X001540Y003160D01*
X001540Y003233D02*
X001650Y003233D01*
X001687Y003270D01*
X001687Y003343D01*
X001650Y003380D01*
X001761Y003380D02*
X001761Y003270D01*
X001834Y003307D01*
X001871Y003307D01*
X001908Y003270D01*
X001908Y003197D01*
X001871Y003160D01*
X001798Y003160D01*
X001761Y003197D01*
X001687Y003160D02*
X001613Y003233D01*
X001761Y003380D02*
X001908Y003380D01*
X002165Y002819D02*
X002128Y002782D01*
X002128Y002708D01*
X002165Y002672D01*
X002165Y002598D02*
X002128Y002561D01*
X002128Y002451D01*
X002348Y002451D01*
X002348Y002561D01*
X002312Y002598D01*
X002165Y002598D01*
X002348Y002672D02*
X002202Y002819D01*
X002165Y002819D01*
X002348Y002819D02*
X002348Y002672D01*
X002098Y002122D02*
X002098Y001975D01*
X002098Y002048D02*
X002318Y002048D01*
X002282Y001901D02*
X002318Y001864D01*
X002318Y001790D01*
X002282Y001754D01*
X002318Y001680D02*
X002318Y001533D01*
X002318Y001606D02*
X002098Y001606D01*
X002172Y001533D01*
X002208Y001459D02*
X002208Y001312D01*
X002245Y001238D02*
X002282Y001238D01*
X002318Y001201D01*
X002318Y001127D01*
X002282Y001091D01*
X002208Y001127D02*
X002208Y001201D01*
X002245Y001238D01*
X002208Y001127D02*
X002172Y001091D01*
X002135Y001091D01*
X002098Y001127D01*
X002098Y001201D01*
X002135Y001238D01*
X002135Y001754D02*
X002098Y001790D01*
X002098Y001864D01*
X002135Y001901D01*
X002172Y001901D01*
X002208Y001864D01*
X002245Y001901D01*
X002282Y001901D01*
X002208Y001864D02*
X002208Y001827D01*
X005507Y003956D02*
X005543Y003956D01*
X005580Y003919D01*
D12*
X004887Y004647D02*
X004887Y003073D01*
X003313Y003073D01*
X003313Y004647D01*
X004887Y004647D01*
X004927Y006593D02*
X004927Y008167D01*
X003353Y008167D01*
X003353Y006593D01*
X004927Y006593D01*
X004882Y008083D02*
X005882Y008083D01*
X005882Y010083D01*
X004882Y010083D01*
X004882Y008083D01*
X002078Y003001D02*
X001078Y003001D01*
X001078Y001001D01*
X002078Y001001D01*
X002078Y003001D01*
D13*
X002029Y004854D02*
X003131Y004854D01*
X003131Y006546D01*
X002029Y006546D01*
X002029Y004854D01*
D14*
X002836Y006340D03*
D15*
X004027Y008019D02*
X004072Y008019D01*
X004073Y008020D02*
X004026Y008020D01*
X004025Y008021D02*
X004074Y008021D01*
X004075Y008022D02*
X004024Y008022D01*
X004023Y008023D02*
X004076Y008023D01*
X004077Y008024D02*
X004022Y008024D01*
X004021Y008025D02*
X004078Y008025D01*
X004079Y008026D02*
X004020Y008026D01*
X004019Y008027D02*
X004080Y008027D01*
X004081Y008028D02*
X004018Y008028D01*
X004017Y008029D02*
X004082Y008029D01*
X004082Y008030D02*
X004017Y008030D01*
X004016Y008031D02*
X004083Y008031D01*
X004083Y008032D02*
X004016Y008032D01*
X004015Y008033D02*
X004084Y008033D01*
X004084Y008034D02*
X004015Y008034D01*
X004014Y008035D02*
X004085Y008035D01*
X004085Y008036D02*
X004014Y008036D01*
X004013Y008037D02*
X004086Y008037D01*
X004086Y008038D02*
X004013Y008038D01*
X004012Y008039D02*
X004087Y008039D01*
X004087Y008040D02*
X004012Y008040D01*
X004012Y008041D02*
X004087Y008041D01*
X004087Y008042D02*
X004012Y008042D01*
X004011Y008043D02*
X004088Y008043D01*
X004088Y008044D02*
X004011Y008044D01*
X004011Y008045D02*
X004088Y008045D01*
X004088Y008046D02*
X004011Y008046D01*
X004011Y008047D02*
X004088Y008047D01*
X004088Y008048D02*
X004011Y008048D01*
X004010Y008049D02*
X004088Y008049D01*
X004089Y008050D02*
X004010Y008050D01*
X004010Y008051D02*
X004089Y008051D01*
X004089Y008052D02*
X004010Y008052D01*
X004010Y008053D02*
X004089Y008053D01*
X004088Y008054D02*
X004011Y008054D01*
X004011Y008055D02*
X004088Y008055D01*
X004088Y008056D02*
X004011Y008056D01*
X004011Y008057D02*
X004088Y008057D01*
X004088Y008058D02*
X004011Y008058D01*
X004011Y008059D02*
X004088Y008059D01*
X004087Y008060D02*
X004011Y008060D01*
X004012Y008061D02*
X004087Y008061D01*
X004087Y008062D02*
X004012Y008062D01*
X004012Y008063D02*
X004087Y008063D01*
X004087Y008064D02*
X004012Y008064D01*
X004013Y008065D02*
X004086Y008065D01*
X004086Y008066D02*
X004013Y008066D01*
X004014Y008067D02*
X004085Y008067D01*
X004085Y008068D02*
X004014Y008068D01*
X004015Y008069D02*
X004084Y008069D01*
X004084Y008070D02*
X004015Y008070D01*
X004016Y008071D02*
X004083Y008071D01*
X004083Y008072D02*
X004016Y008072D01*
X004017Y008073D02*
X004082Y008073D01*
X004081Y008074D02*
X004017Y008074D01*
X004018Y008075D02*
X004081Y008075D01*
X004080Y008076D02*
X004019Y008076D01*
X004020Y008077D02*
X004079Y008077D01*
X004078Y008078D02*
X004021Y008078D01*
X004022Y008079D02*
X004077Y008079D01*
X004076Y008080D02*
X004023Y008080D01*
X004024Y008081D02*
X004075Y008081D01*
X004074Y008082D02*
X004025Y008082D01*
X004026Y008083D02*
X004073Y008083D01*
X004071Y008084D02*
X004028Y008084D01*
X004030Y008085D02*
X004069Y008085D01*
X004067Y008086D02*
X004032Y008086D01*
X004034Y008087D02*
X004065Y008087D01*
X004063Y008088D02*
X004036Y008088D01*
X004039Y008089D02*
X004060Y008089D01*
X004053Y008090D02*
X004045Y008090D01*
X004029Y008018D02*
X004070Y008018D01*
X004068Y008017D02*
X004031Y008017D01*
X004033Y008016D02*
X004066Y008016D01*
X004064Y008015D02*
X004035Y008015D01*
X004037Y008014D02*
X004062Y008014D01*
X004057Y008013D02*
X004042Y008013D01*
X004048Y008012D02*
X004051Y008012D01*
X004008Y004570D02*
X004011Y004570D01*
X004017Y004569D02*
X004002Y004569D01*
X003997Y004568D02*
X004022Y004568D01*
X004024Y004567D02*
X003995Y004567D01*
X003993Y004566D02*
X004026Y004566D01*
X004028Y004565D02*
X003991Y004565D01*
X003989Y004564D02*
X004030Y004564D01*
X004032Y004563D02*
X003987Y004563D01*
X003986Y004562D02*
X004033Y004562D01*
X004034Y004561D02*
X003985Y004561D01*
X003984Y004560D02*
X004035Y004560D01*
X004036Y004559D02*
X003983Y004559D01*
X003982Y004558D02*
X004037Y004558D01*
X004038Y004557D02*
X003981Y004557D01*
X003980Y004556D02*
X004039Y004556D01*
X004040Y004555D02*
X003979Y004555D01*
X003978Y004554D02*
X004041Y004554D01*
X004042Y004553D02*
X003977Y004553D01*
X003977Y004552D02*
X004042Y004552D01*
X004043Y004551D02*
X003976Y004551D01*
X003976Y004550D02*
X004043Y004550D01*
X004044Y004549D02*
X003975Y004549D01*
X003975Y004548D02*
X004044Y004548D01*
X004045Y004547D02*
X003974Y004547D01*
X003974Y004546D02*
X004045Y004546D01*
X004046Y004545D02*
X003973Y004545D01*
X003973Y004544D02*
X004046Y004544D01*
X004047Y004543D02*
X003972Y004543D01*
X003972Y004542D02*
X004047Y004542D01*
X004047Y004541D02*
X003972Y004541D01*
X003972Y004540D02*
X004047Y004540D01*
X004048Y004539D02*
X003971Y004539D01*
X003971Y004538D02*
X004048Y004538D01*
X004048Y004537D02*
X003971Y004537D01*
X003971Y004536D02*
X004048Y004536D01*
X004048Y004535D02*
X003971Y004535D01*
X003971Y004534D02*
X004048Y004534D01*
X004048Y004533D02*
X003970Y004533D01*
X004049Y004533D01*
X004049Y004532D02*
X003970Y004532D01*
X003970Y004531D02*
X004049Y004531D01*
X004049Y004530D02*
X003970Y004530D01*
X003971Y004529D02*
X004048Y004529D01*
X004048Y004528D02*
X003971Y004528D01*
X003971Y004527D02*
X004048Y004527D01*
X004048Y004526D02*
X003971Y004526D01*
X003971Y004525D02*
X004048Y004525D01*
X004048Y004524D02*
X003971Y004524D01*
X003971Y004523D02*
X004047Y004523D01*
X004047Y004522D02*
X003972Y004522D01*
X003972Y004521D02*
X004047Y004521D01*
X004047Y004520D02*
X003972Y004520D01*
X003972Y004519D02*
X004047Y004519D01*
X004046Y004518D02*
X003973Y004518D01*
X003973Y004517D02*
X004046Y004517D01*
X004045Y004516D02*
X003974Y004516D01*
X003974Y004515D02*
X004045Y004515D01*
X004044Y004514D02*
X003975Y004514D01*
X003975Y004513D02*
X004044Y004513D01*
X004043Y004512D02*
X003976Y004512D01*
X003976Y004511D02*
X004043Y004511D01*
X004042Y004510D02*
X003977Y004510D01*
X003977Y004509D02*
X004042Y004509D01*
X004041Y004508D02*
X003978Y004508D01*
X003979Y004507D02*
X004040Y004507D01*
X004039Y004506D02*
X003980Y004506D01*
X003981Y004505D02*
X004038Y004505D01*
X004037Y004504D02*
X003982Y004504D01*
X003983Y004503D02*
X004036Y004503D01*
X004035Y004502D02*
X003984Y004502D01*
X003985Y004501D02*
X004034Y004501D01*
X004033Y004500D02*
X003986Y004500D01*
X003988Y004499D02*
X004031Y004499D01*
X004029Y004498D02*
X003990Y004498D01*
X003992Y004497D02*
X004027Y004497D01*
X004025Y004496D02*
X003994Y004496D01*
X003996Y004495D02*
X004023Y004495D01*
X004020Y004494D02*
X003999Y004494D01*
X004005Y004493D02*
X004014Y004493D01*
M02*
