%
M48
M72
T01C0.0157
T02C0.0197
T03C0.0240
T04C0.0320
T05C0.0394
T06C0.0400
T07C0.0472
T08C0.1378
%
T01
X4380Y11000
X5500Y11920
X4660Y16720
X4340Y17040
X4980Y17360
X4340Y17680
X5540Y17680
X5540Y20920
X9300Y18480
X10060Y17520
X10500Y17360
X10860Y17080
X9980Y16720
X10980Y18560
X14340Y18560
X15260Y18040
X14620Y17480
X16700Y18760
X17020Y19080
X17020Y19560
X17700Y20880
X18300Y22160
X19100Y20400
X18580Y19080
X16900Y17680
X16060Y14800
X15740Y14160
X18940Y13360
X19580Y13360
X20060Y13360
X20700Y13360
X20700Y11920
X20060Y11920
X19580Y11920
X18940Y11920
X23300Y17440
X23140Y18960
X22700Y19760
X24700Y21520
X24700Y22160
X25540Y20880
X26100Y20320
X27420Y18960
X27740Y18480
X28060Y18960
X28380Y18480
X31100Y21520
X31100Y22160
X31900Y22160
X33900Y20280
X32060Y24880
X32060Y25665
X28060Y26800
X25180Y23760
X23900Y24880
X28060Y22480
X26140Y12240
X25660Y7760
X25020Y5840
X31740Y8560
X14340Y20560
X10460Y26640
T02
X10140Y27600
X13660Y27600
X14300Y25520
X14140Y24720
X14900Y22000
X15420Y22000
X15420Y21520
X15900Y21520
X15260Y19280
X15260Y18640
X12700Y18800
X12060Y18800
X12700Y19280
X12220Y21520
X11740Y21520
X12220Y22000
X12700Y22000
X6780Y24560
X5020Y24880
X12060Y15600
X12700Y15600
X13500Y15280
X12540Y14640
X11740Y14640
X10940Y13040
X11260Y12240
X11740Y11800
X12540Y11800
X10620Y8400
X9500Y7440
X11580Y7120
X16380Y9680
X22460Y9840
X23580Y9200
X25180Y7120
X27260Y6640
X30460Y9840
X28860Y12080
X25180Y13040
X24540Y13040
X23900Y13040
X18620Y15280
X18620Y15760
X22620Y25680
X27580Y27920
X30140Y26480
X32380Y19680
X32380Y19120
X33020Y19120
X33020Y18480
X4860Y9040
X3580Y6800
T03
X7500Y13720
X9500Y13720
T04
X8700Y10520
X8700Y9520
X8700Y8520
X11900Y8360
X11900Y9360
X11900Y10360
X17660Y10520
X17660Y9520
X17660Y8520
X21020Y8520
X21020Y9520
X21020Y10520
X26140Y10520
X26140Y9520
X26140Y8520
X29020Y8520
X29020Y9520
X29020Y10520
X33980Y10520
X33980Y9520
X33980Y8520
X34620Y24360
X34620Y25360
X34620Y26360
X29180Y26360
X29180Y25360
X29180Y24360
X26300Y24200
X26300Y25200
X26300Y26200
X21180Y26200
X21180Y25200
X21180Y24200
X18140Y24200
X18140Y25200
X18140Y26200
X12700Y26200
X12700Y25200
X12700Y24200
X9500Y24200
X9500Y25200
X9500Y26200
X3580Y26200
X3580Y25200
X3580Y24200
X8160Y19500
X8160Y18500
X6160Y18480
X5160Y18480
X3580Y10520
X3580Y9520
X3580Y8520
T05
X2300Y5840
X9820Y14800
X7260Y15920
X13820Y17680
X16860Y15920
X14940Y11760
X18780Y6320
X25020Y11760
X27420Y12560
X31580Y14320
X34940Y13680
X29340Y17360
X29820Y19440
X30620Y20880
X28540Y20720
X32860Y21200
X35580Y20240
X34460Y28400
X24540Y17040
X22620Y16880
X11580Y24240
X8220Y24720
X5980Y23440
X2940Y28240
X18940Y28240
X34460Y6320
T06
X21680Y15840
X20680Y15840
X20680Y16840
X20680Y17840
X21680Y17840
X21680Y16840
X21680Y18840
X20680Y18840
X20680Y19840
X21680Y19840
X3649Y19928
X3649Y18928
X3649Y17928
X3649Y16928
X3649Y15928
X3649Y14928
X3649Y13928
X2649Y13928
X2649Y14928
X2649Y15928
X2649Y16928
X2649Y17928
X2649Y18928
X2649Y19928
X2649Y20928
X3649Y20928
T07
X5856Y30920
X6840Y30920
X7840Y30920
X8840Y30920
X9840Y30920
X13276Y30960
X14260Y30960
X15260Y30960
X16260Y30960
X17260Y30960
X20796Y30960
X21780Y30960
X22780Y30960
X23780Y30960
X24780Y30960
X28316Y30960
X29300Y30960
X30300Y30960
X31300Y30960
X32300Y30960
X31964Y3920
X30980Y3920
X29980Y3920
X28980Y3920
X27980Y3920
X24764Y3920
X23780Y3920
X22780Y3920
X21780Y3920
X20780Y3920
X16924Y3920
X15940Y3920
X14940Y3920
X13940Y3920
X12940Y3920
X9564Y3920
X8580Y3920
X7580Y3920
X6580Y3920
X5580Y3920
T08
X3149Y3649
X3149Y31208
X34645Y31208
X34645Y3649
M30
