G75*
G70*
%OFA0B0*%
%FSLAX24Y24*%
%IPPOS*%
%LPD*%
%AMOC8*
5,1,8,0,0,1.08239X$1,22.5*
%
%ADD10C,0.0000*%
%ADD11OC8,0.0600*%
%ADD12C,0.0400*%
%ADD13R,0.0709X0.0709*%
%ADD14OC8,0.0630*%
%ADD15C,0.0630*%
%ADD16R,0.0600X0.0600*%
%ADD17C,0.0480*%
%ADD18OC8,0.0480*%
%ADD19C,0.0080*%
%ADD20C,0.0357*%
%ADD21C,0.0300*%
%ADD22C,0.0397*%
%ADD23C,0.0160*%
%ADD24C,0.0594*%
%ADD25C,0.0100*%
D10*
X001180Y001680D02*
X001180Y033176D01*
X036613Y033176D01*
X036613Y001680D01*
X001180Y001680D01*
X002460Y003649D02*
X002462Y003701D01*
X002468Y003753D01*
X002478Y003804D01*
X002491Y003854D01*
X002509Y003904D01*
X002530Y003951D01*
X002554Y003997D01*
X002583Y004041D01*
X002614Y004083D01*
X002648Y004122D01*
X002685Y004159D01*
X002725Y004192D01*
X002768Y004223D01*
X002812Y004250D01*
X002858Y004274D01*
X002907Y004294D01*
X002956Y004310D01*
X003007Y004323D01*
X003058Y004332D01*
X003110Y004337D01*
X003162Y004338D01*
X003214Y004335D01*
X003266Y004328D01*
X003317Y004317D01*
X003367Y004303D01*
X003416Y004284D01*
X003463Y004262D01*
X003508Y004237D01*
X003552Y004208D01*
X003593Y004176D01*
X003632Y004141D01*
X003667Y004103D01*
X003700Y004062D01*
X003730Y004020D01*
X003756Y003975D01*
X003779Y003928D01*
X003798Y003879D01*
X003814Y003829D01*
X003826Y003779D01*
X003834Y003727D01*
X003838Y003675D01*
X003838Y003623D01*
X003834Y003571D01*
X003826Y003519D01*
X003814Y003469D01*
X003798Y003419D01*
X003779Y003370D01*
X003756Y003323D01*
X003730Y003278D01*
X003700Y003236D01*
X003667Y003195D01*
X003632Y003157D01*
X003593Y003122D01*
X003552Y003090D01*
X003508Y003061D01*
X003463Y003036D01*
X003416Y003014D01*
X003367Y002995D01*
X003317Y002981D01*
X003266Y002970D01*
X003214Y002963D01*
X003162Y002960D01*
X003110Y002961D01*
X003058Y002966D01*
X003007Y002975D01*
X002956Y002988D01*
X002907Y003004D01*
X002858Y003024D01*
X002812Y003048D01*
X002768Y003075D01*
X002725Y003106D01*
X002685Y003139D01*
X002648Y003176D01*
X002614Y003215D01*
X002583Y003257D01*
X002554Y003301D01*
X002530Y003347D01*
X002509Y003394D01*
X002491Y003444D01*
X002478Y003494D01*
X002468Y003545D01*
X002462Y003597D01*
X002460Y003649D01*
X002460Y031208D02*
X002462Y031260D01*
X002468Y031312D01*
X002478Y031363D01*
X002491Y031413D01*
X002509Y031463D01*
X002530Y031510D01*
X002554Y031556D01*
X002583Y031600D01*
X002614Y031642D01*
X002648Y031681D01*
X002685Y031718D01*
X002725Y031751D01*
X002768Y031782D01*
X002812Y031809D01*
X002858Y031833D01*
X002907Y031853D01*
X002956Y031869D01*
X003007Y031882D01*
X003058Y031891D01*
X003110Y031896D01*
X003162Y031897D01*
X003214Y031894D01*
X003266Y031887D01*
X003317Y031876D01*
X003367Y031862D01*
X003416Y031843D01*
X003463Y031821D01*
X003508Y031796D01*
X003552Y031767D01*
X003593Y031735D01*
X003632Y031700D01*
X003667Y031662D01*
X003700Y031621D01*
X003730Y031579D01*
X003756Y031534D01*
X003779Y031487D01*
X003798Y031438D01*
X003814Y031388D01*
X003826Y031338D01*
X003834Y031286D01*
X003838Y031234D01*
X003838Y031182D01*
X003834Y031130D01*
X003826Y031078D01*
X003814Y031028D01*
X003798Y030978D01*
X003779Y030929D01*
X003756Y030882D01*
X003730Y030837D01*
X003700Y030795D01*
X003667Y030754D01*
X003632Y030716D01*
X003593Y030681D01*
X003552Y030649D01*
X003508Y030620D01*
X003463Y030595D01*
X003416Y030573D01*
X003367Y030554D01*
X003317Y030540D01*
X003266Y030529D01*
X003214Y030522D01*
X003162Y030519D01*
X003110Y030520D01*
X003058Y030525D01*
X003007Y030534D01*
X002956Y030547D01*
X002907Y030563D01*
X002858Y030583D01*
X002812Y030607D01*
X002768Y030634D01*
X002725Y030665D01*
X002685Y030698D01*
X002648Y030735D01*
X002614Y030774D01*
X002583Y030816D01*
X002554Y030860D01*
X002530Y030906D01*
X002509Y030953D01*
X002491Y031003D01*
X002478Y031053D01*
X002468Y031104D01*
X002462Y031156D01*
X002460Y031208D01*
X033956Y031208D02*
X033958Y031260D01*
X033964Y031312D01*
X033974Y031363D01*
X033987Y031413D01*
X034005Y031463D01*
X034026Y031510D01*
X034050Y031556D01*
X034079Y031600D01*
X034110Y031642D01*
X034144Y031681D01*
X034181Y031718D01*
X034221Y031751D01*
X034264Y031782D01*
X034308Y031809D01*
X034354Y031833D01*
X034403Y031853D01*
X034452Y031869D01*
X034503Y031882D01*
X034554Y031891D01*
X034606Y031896D01*
X034658Y031897D01*
X034710Y031894D01*
X034762Y031887D01*
X034813Y031876D01*
X034863Y031862D01*
X034912Y031843D01*
X034959Y031821D01*
X035004Y031796D01*
X035048Y031767D01*
X035089Y031735D01*
X035128Y031700D01*
X035163Y031662D01*
X035196Y031621D01*
X035226Y031579D01*
X035252Y031534D01*
X035275Y031487D01*
X035294Y031438D01*
X035310Y031388D01*
X035322Y031338D01*
X035330Y031286D01*
X035334Y031234D01*
X035334Y031182D01*
X035330Y031130D01*
X035322Y031078D01*
X035310Y031028D01*
X035294Y030978D01*
X035275Y030929D01*
X035252Y030882D01*
X035226Y030837D01*
X035196Y030795D01*
X035163Y030754D01*
X035128Y030716D01*
X035089Y030681D01*
X035048Y030649D01*
X035004Y030620D01*
X034959Y030595D01*
X034912Y030573D01*
X034863Y030554D01*
X034813Y030540D01*
X034762Y030529D01*
X034710Y030522D01*
X034658Y030519D01*
X034606Y030520D01*
X034554Y030525D01*
X034503Y030534D01*
X034452Y030547D01*
X034403Y030563D01*
X034354Y030583D01*
X034308Y030607D01*
X034264Y030634D01*
X034221Y030665D01*
X034181Y030698D01*
X034144Y030735D01*
X034110Y030774D01*
X034079Y030816D01*
X034050Y030860D01*
X034026Y030906D01*
X034005Y030953D01*
X033987Y031003D01*
X033974Y031053D01*
X033964Y031104D01*
X033958Y031156D01*
X033956Y031208D01*
X033956Y003649D02*
X033958Y003701D01*
X033964Y003753D01*
X033974Y003804D01*
X033987Y003854D01*
X034005Y003904D01*
X034026Y003951D01*
X034050Y003997D01*
X034079Y004041D01*
X034110Y004083D01*
X034144Y004122D01*
X034181Y004159D01*
X034221Y004192D01*
X034264Y004223D01*
X034308Y004250D01*
X034354Y004274D01*
X034403Y004294D01*
X034452Y004310D01*
X034503Y004323D01*
X034554Y004332D01*
X034606Y004337D01*
X034658Y004338D01*
X034710Y004335D01*
X034762Y004328D01*
X034813Y004317D01*
X034863Y004303D01*
X034912Y004284D01*
X034959Y004262D01*
X035004Y004237D01*
X035048Y004208D01*
X035089Y004176D01*
X035128Y004141D01*
X035163Y004103D01*
X035196Y004062D01*
X035226Y004020D01*
X035252Y003975D01*
X035275Y003928D01*
X035294Y003879D01*
X035310Y003829D01*
X035322Y003779D01*
X035330Y003727D01*
X035334Y003675D01*
X035334Y003623D01*
X035330Y003571D01*
X035322Y003519D01*
X035310Y003469D01*
X035294Y003419D01*
X035275Y003370D01*
X035252Y003323D01*
X035226Y003278D01*
X035196Y003236D01*
X035163Y003195D01*
X035128Y003157D01*
X035089Y003122D01*
X035048Y003090D01*
X035004Y003061D01*
X034959Y003036D01*
X034912Y003014D01*
X034863Y002995D01*
X034813Y002981D01*
X034762Y002970D01*
X034710Y002963D01*
X034658Y002960D01*
X034606Y002961D01*
X034554Y002966D01*
X034503Y002975D01*
X034452Y002988D01*
X034403Y003004D01*
X034354Y003024D01*
X034308Y003048D01*
X034264Y003075D01*
X034221Y003106D01*
X034181Y003139D01*
X034144Y003176D01*
X034110Y003215D01*
X034079Y003257D01*
X034050Y003301D01*
X034026Y003347D01*
X034005Y003394D01*
X033987Y003444D01*
X033974Y003494D01*
X033964Y003545D01*
X033958Y003597D01*
X033956Y003649D01*
D11*
X020680Y015840D03*
X020680Y016840D03*
X020680Y017840D03*
X021680Y017840D03*
X021680Y016840D03*
X021680Y018840D03*
X020680Y018840D03*
X020680Y019840D03*
X021680Y019840D03*
X003649Y019928D03*
X003649Y018928D03*
X003649Y017928D03*
X003649Y016928D03*
X003649Y015928D03*
X003649Y014928D03*
X003649Y013928D03*
X002649Y013928D03*
X002649Y014928D03*
X002649Y015928D03*
X002649Y016928D03*
X002649Y017928D03*
X002649Y018928D03*
X002649Y019928D03*
X002649Y020928D03*
X003649Y020928D03*
D12*
X007500Y013920D02*
X007500Y013520D01*
X009500Y013520D02*
X009500Y013920D01*
D13*
X009564Y003920D03*
X008580Y003920D03*
X007580Y003920D03*
X006580Y003920D03*
X005580Y003920D03*
X012940Y003920D03*
X013940Y003920D03*
X014940Y003920D03*
X015940Y003920D03*
X016924Y003920D03*
X020780Y003920D03*
X021780Y003920D03*
X022780Y003920D03*
X023780Y003920D03*
X024764Y003920D03*
X027980Y003920D03*
X028980Y003920D03*
X029980Y003920D03*
X030980Y003920D03*
X031964Y003920D03*
X009840Y030920D03*
X008840Y030920D03*
X007840Y030920D03*
X006840Y030920D03*
X005856Y030920D03*
X013276Y030960D03*
X014260Y030960D03*
X015260Y030960D03*
X016260Y030960D03*
X017260Y030960D03*
X020796Y030960D03*
X021780Y030960D03*
X022780Y030960D03*
X023780Y030960D03*
X024780Y030960D03*
X028316Y030960D03*
X029300Y030960D03*
X030300Y030960D03*
X031300Y030960D03*
X032300Y030960D03*
D14*
X008160Y019500D03*
D15*
X008160Y018500D03*
D16*
X021680Y015840D03*
D17*
X021260Y010520D02*
X020780Y010520D01*
X020780Y009520D02*
X021260Y009520D01*
X021260Y008520D02*
X020780Y008520D01*
X017900Y008520D02*
X017420Y008520D01*
X017420Y009520D02*
X017900Y009520D01*
X017900Y010520D02*
X017420Y010520D01*
X012140Y010360D02*
X011660Y010360D01*
X011660Y009360D02*
X012140Y009360D01*
X012140Y008360D02*
X011660Y008360D01*
X008940Y008520D02*
X008460Y008520D01*
X008460Y009520D02*
X008940Y009520D01*
X008940Y010520D02*
X008460Y010520D01*
X003820Y010520D02*
X003340Y010520D01*
X003340Y009520D02*
X003820Y009520D01*
X003820Y008520D02*
X003340Y008520D01*
X003340Y024200D02*
X003820Y024200D01*
X003820Y025200D02*
X003340Y025200D01*
X003340Y026200D02*
X003820Y026200D01*
X009260Y026200D02*
X009740Y026200D01*
X009740Y025200D02*
X009260Y025200D01*
X009260Y024200D02*
X009740Y024200D01*
X012460Y024200D02*
X012940Y024200D01*
X012940Y025200D02*
X012460Y025200D01*
X012460Y026200D02*
X012940Y026200D01*
X017900Y026200D02*
X018380Y026200D01*
X018380Y025200D02*
X017900Y025200D01*
X017900Y024200D02*
X018380Y024200D01*
X020940Y024200D02*
X021420Y024200D01*
X021420Y025200D02*
X020940Y025200D01*
X020940Y026200D02*
X021420Y026200D01*
X026060Y026200D02*
X026540Y026200D01*
X026540Y025200D02*
X026060Y025200D01*
X026060Y024200D02*
X026540Y024200D01*
X028940Y024360D02*
X029420Y024360D01*
X029420Y025360D02*
X028940Y025360D01*
X028940Y026360D02*
X029420Y026360D01*
X034380Y026360D02*
X034860Y026360D01*
X034860Y025360D02*
X034380Y025360D01*
X034380Y024360D02*
X034860Y024360D01*
X034220Y010520D02*
X033740Y010520D01*
X033740Y009520D02*
X034220Y009520D01*
X034220Y008520D02*
X033740Y008520D01*
X029260Y008520D02*
X028780Y008520D01*
X028780Y009520D02*
X029260Y009520D01*
X029260Y010520D02*
X028780Y010520D01*
X026380Y010520D02*
X025900Y010520D01*
X025900Y009520D02*
X026380Y009520D01*
X026380Y008520D02*
X025900Y008520D01*
D18*
X006160Y018480D03*
X005160Y018480D03*
D19*
X005100Y017680D02*
X004340Y017680D01*
X004980Y017360D02*
X005140Y017200D01*
X010340Y017200D01*
X010500Y017360D01*
X010820Y017040D02*
X004340Y017040D01*
X004660Y016720D02*
X004820Y016880D01*
X009820Y016880D01*
X009980Y016720D01*
X009900Y017360D02*
X005420Y017360D01*
X005100Y017680D01*
X005540Y017680D02*
X005700Y017520D01*
X009620Y017520D01*
X009940Y017840D01*
X010260Y017840D01*
X010980Y018560D01*
X010060Y017520D02*
X009900Y017360D01*
X010820Y017040D02*
X010860Y017080D01*
X014340Y018560D02*
X014860Y018040D01*
X015260Y018040D01*
X014620Y017480D02*
X016700Y017480D01*
X016900Y017680D01*
X016700Y018760D02*
X019820Y018760D01*
X020140Y018440D01*
X020460Y018440D01*
X020500Y018400D01*
X020860Y018400D01*
X020940Y018480D01*
X021020Y018480D01*
X021500Y018000D01*
X021500Y017840D01*
X021680Y017840D01*
X021940Y017480D02*
X022060Y017480D01*
X022100Y017440D01*
X023300Y017440D01*
X021940Y017480D02*
X021860Y017400D01*
X021500Y017400D01*
X021220Y017680D01*
X021180Y017680D01*
X021020Y017840D01*
X020680Y017840D01*
X018700Y019560D02*
X019740Y020600D01*
X020900Y020600D01*
X021500Y020000D01*
X021500Y019840D01*
X021680Y019840D01*
X021860Y020840D02*
X025140Y020840D01*
X025660Y020320D01*
X026100Y020320D01*
X026420Y020000D01*
X031620Y020000D01*
X031900Y020280D01*
X033900Y020280D01*
X025540Y020880D02*
X025420Y021000D01*
X022060Y021000D01*
X021500Y021560D01*
X016780Y021560D01*
X016180Y020960D01*
X014740Y020960D01*
X014580Y021120D01*
X012660Y021120D01*
X012460Y020920D01*
X005540Y020920D01*
X014340Y020560D02*
X018460Y020560D01*
X019060Y021160D01*
X021300Y021160D01*
X022700Y019760D01*
X021860Y020840D02*
X021380Y021320D01*
X018980Y021320D01*
X018620Y020960D01*
X017780Y020960D01*
X017700Y020880D01*
X017020Y019560D02*
X018700Y019560D01*
X018580Y019080D02*
X017020Y019080D01*
X012540Y011800D02*
X012540Y011760D01*
D20*
X015740Y014160D03*
X016060Y014800D03*
X014620Y017480D03*
X015260Y018040D03*
X014340Y018560D03*
X014340Y020560D03*
X016700Y018760D03*
X017020Y019080D03*
X017020Y019560D03*
X017700Y020880D03*
X018300Y022160D03*
X019100Y020400D03*
X018580Y019080D03*
X016900Y017680D03*
X018940Y013360D03*
X019580Y013360D03*
X020060Y013360D03*
X020700Y013360D03*
X020700Y011920D03*
X020060Y011920D03*
X019580Y011920D03*
X018940Y011920D03*
X023300Y017440D03*
X023140Y018960D03*
X022700Y019760D03*
X024700Y021520D03*
X024700Y022160D03*
X025540Y020880D03*
X026100Y020320D03*
X027420Y018960D03*
X027740Y018480D03*
X028060Y018960D03*
X028380Y018480D03*
X031100Y021520D03*
X031100Y022160D03*
X031900Y022160D03*
X033900Y020280D03*
X032060Y024880D03*
X032060Y025665D03*
X028060Y026800D03*
X025180Y023760D03*
X023900Y024880D03*
X028060Y022480D03*
X026140Y012240D03*
X025660Y007760D03*
X025020Y005840D03*
X031740Y008560D03*
X010980Y018560D03*
X010500Y017360D03*
X010860Y017080D03*
X010060Y017520D03*
X009980Y016720D03*
X009300Y018480D03*
X005540Y017680D03*
X004980Y017360D03*
X004340Y017040D03*
X004660Y016720D03*
X004340Y017680D03*
X005540Y020920D03*
X010460Y026640D03*
X005500Y011920D03*
X004380Y011000D03*
D21*
X004860Y009040D02*
X004860Y008080D01*
X003580Y006800D01*
X008540Y004560D02*
X008540Y003960D01*
X008580Y003920D01*
X008580Y003080D01*
X009180Y002480D01*
X015100Y002480D01*
X022460Y002480D01*
X022540Y002560D01*
X022620Y002480D01*
X029980Y002480D01*
X030980Y003480D01*
X030980Y003920D01*
X030980Y005400D01*
X031740Y006160D01*
X031740Y008560D01*
X025180Y007600D02*
X025180Y007120D01*
X025180Y007600D02*
X024860Y007920D01*
X024860Y007935D01*
X023900Y008895D01*
X023885Y008895D01*
X023580Y009200D01*
X025020Y005840D02*
X025020Y005520D01*
X023780Y004280D01*
X023780Y003920D01*
X023780Y003800D01*
X022540Y002560D01*
X016380Y005040D02*
X015900Y004560D01*
X015900Y003960D01*
X015940Y003920D01*
X015940Y003320D01*
X015100Y002480D01*
X016380Y005040D02*
X016380Y009680D01*
X009500Y007440D02*
X009500Y005520D01*
X008540Y004560D01*
X009300Y018480D02*
X009340Y018640D01*
X010940Y020240D01*
X014020Y020240D01*
X014100Y020160D01*
X014140Y020160D01*
X014420Y019880D01*
X014940Y019880D01*
X015100Y020040D01*
X016580Y020040D01*
X016820Y020280D01*
X018580Y020280D01*
X018700Y020400D01*
X019100Y020400D01*
X021680Y018840D02*
X021860Y018840D01*
X021980Y018960D01*
X023140Y018960D01*
X022620Y025680D02*
X022620Y026000D01*
X021780Y026840D01*
X021780Y030960D01*
X021780Y031160D01*
X021020Y031920D01*
X029020Y031920D01*
X029340Y031600D01*
X029340Y030960D01*
X029300Y030960D01*
X029300Y031000D01*
X030140Y026480D02*
X031245Y026480D01*
X032060Y025665D01*
X021020Y031920D02*
X013980Y031920D01*
X013900Y031840D01*
X013820Y031920D01*
X007580Y031920D01*
X006940Y031280D01*
X006940Y031020D01*
X006840Y030920D01*
X006780Y030860D01*
X006780Y030640D01*
X005020Y028880D01*
X005020Y024880D01*
X005020Y019760D01*
X005900Y018880D01*
X005900Y018928D01*
X005900Y018880D02*
X006240Y018540D01*
X006180Y018480D01*
X006160Y018480D01*
X006240Y018540D02*
X006280Y018500D01*
X008160Y018500D01*
X006860Y018520D01*
X009260Y018520D01*
X009300Y018480D01*
X005160Y018480D02*
X004620Y018480D01*
X004180Y018920D01*
X003660Y018920D01*
X003649Y018928D01*
X013660Y027600D02*
X014100Y027600D01*
X014260Y027440D01*
X014260Y025720D01*
X014300Y025520D01*
X014260Y027440D02*
X014260Y030960D01*
X014260Y031480D01*
X013900Y031840D01*
D22*
X013660Y027600D03*
X014300Y025520D03*
X014140Y024720D03*
X014900Y022000D03*
X015420Y022000D03*
X015420Y021520D03*
X015900Y021520D03*
X015260Y019280D03*
X015260Y018640D03*
X012700Y018800D03*
X012060Y018800D03*
X012700Y019280D03*
X012220Y021520D03*
X011740Y021520D03*
X012220Y022000D03*
X012700Y022000D03*
X006780Y024560D03*
X005020Y024880D03*
X010140Y027600D03*
X022620Y025680D03*
X027580Y027920D03*
X030140Y026480D03*
X032380Y019680D03*
X032380Y019120D03*
X033020Y019120D03*
X033020Y018480D03*
X028860Y012080D03*
X030460Y009840D03*
X027260Y006640D03*
X025180Y007120D03*
X023580Y009200D03*
X022460Y009840D03*
X023900Y013040D03*
X024540Y013040D03*
X025180Y013040D03*
X018620Y015280D03*
X018620Y015760D03*
X013500Y015280D03*
X012700Y015600D03*
X012060Y015600D03*
X011740Y014640D03*
X012540Y014640D03*
X010940Y013040D03*
X011260Y012240D03*
X011740Y011800D03*
X012540Y011800D03*
X010620Y008400D03*
X009500Y007440D03*
X011580Y007120D03*
X016380Y009680D03*
X004860Y009040D03*
X003580Y006800D03*
D23*
X003342Y007069D02*
X001460Y007069D01*
X001460Y006911D02*
X003238Y006911D01*
X003222Y006871D02*
X003276Y007003D01*
X003377Y007104D01*
X003494Y007152D01*
X004550Y008208D01*
X004550Y008852D01*
X004502Y008969D01*
X004502Y009111D01*
X004556Y009243D01*
X004657Y009344D01*
X004789Y009398D01*
X004931Y009398D01*
X005063Y009344D01*
X005164Y009243D01*
X005218Y009111D01*
X005218Y008969D01*
X005170Y008852D01*
X005170Y008018D01*
X005123Y007904D01*
X003932Y006714D01*
X003884Y006597D01*
X003783Y006496D01*
X003651Y006442D01*
X003509Y006442D01*
X003377Y006496D01*
X003276Y006597D01*
X003222Y006729D01*
X003222Y006871D01*
X003222Y006752D02*
X001460Y006752D01*
X001460Y006594D02*
X003280Y006594D01*
X003880Y006594D02*
X009190Y006594D01*
X009190Y006752D02*
X003970Y006752D01*
X004129Y006911D02*
X009190Y006911D01*
X009190Y007069D02*
X004287Y007069D01*
X004446Y007228D02*
X009190Y007228D01*
X009190Y007252D02*
X009190Y005648D01*
X008364Y004823D01*
X008277Y004736D01*
X008230Y004622D01*
X008230Y004434D01*
X008159Y004434D01*
X008080Y004355D01*
X008001Y004434D01*
X007159Y004434D01*
X007080Y004355D01*
X007001Y004434D01*
X006159Y004434D01*
X006075Y004350D01*
X006062Y004373D01*
X006033Y004402D01*
X005996Y004423D01*
X005955Y004434D01*
X005618Y004434D01*
X005618Y003958D01*
X005542Y003958D01*
X005542Y003882D01*
X005618Y003882D01*
X005618Y003406D01*
X005955Y003406D01*
X005996Y003417D01*
X006033Y003438D01*
X006062Y003467D01*
X006075Y003490D01*
X006159Y003406D01*
X007001Y003406D01*
X007080Y003485D01*
X007159Y003406D01*
X008001Y003406D01*
X008080Y003485D01*
X008159Y003406D01*
X008270Y003406D01*
X008270Y003018D01*
X008317Y002904D01*
X008917Y002304D01*
X009004Y002217D01*
X009118Y002170D01*
X022522Y002170D01*
X022540Y002178D01*
X022558Y002170D01*
X030042Y002170D01*
X030156Y002217D01*
X030243Y002304D01*
X031243Y003304D01*
X031285Y003406D01*
X031401Y003406D01*
X031472Y003477D01*
X031544Y003406D01*
X032385Y003406D01*
X032479Y003499D01*
X032479Y004341D01*
X032385Y004434D01*
X031544Y004434D01*
X031472Y004363D01*
X031401Y004434D01*
X031290Y004434D01*
X031290Y005272D01*
X031916Y005897D01*
X032003Y005984D01*
X032050Y006098D01*
X032050Y008423D01*
X032079Y008493D01*
X032079Y008627D01*
X032027Y008752D01*
X031932Y008847D01*
X031807Y008899D01*
X031673Y008899D01*
X031548Y008847D01*
X031453Y008752D01*
X031401Y008627D01*
X031401Y008493D01*
X031430Y008423D01*
X031430Y006288D01*
X030717Y005576D01*
X030670Y005462D01*
X030670Y004434D01*
X030559Y004434D01*
X030480Y004355D01*
X030401Y004434D01*
X029559Y004434D01*
X029480Y004355D01*
X029401Y004434D01*
X028559Y004434D01*
X028475Y004350D01*
X028462Y004373D01*
X028433Y004402D01*
X028396Y004423D01*
X028355Y004434D01*
X028018Y004434D01*
X028018Y003958D01*
X027942Y003958D01*
X027942Y003882D01*
X027466Y003882D01*
X027466Y003545D01*
X027477Y003504D01*
X027498Y003467D01*
X027527Y003438D01*
X027564Y003417D01*
X027605Y003406D01*
X027942Y003406D01*
X027942Y003882D01*
X028018Y003882D01*
X028018Y003406D01*
X028355Y003406D01*
X028396Y003417D01*
X028433Y003438D01*
X028462Y003467D01*
X028475Y003490D01*
X028559Y003406D01*
X029401Y003406D01*
X029480Y003485D01*
X029559Y003406D01*
X030401Y003406D01*
X030480Y003485D01*
X030513Y003452D01*
X029852Y002790D01*
X023208Y002790D01*
X023824Y003406D01*
X024201Y003406D01*
X024272Y003477D01*
X024344Y003406D01*
X025185Y003406D01*
X025279Y003499D01*
X025279Y004341D01*
X025185Y004434D01*
X024373Y004434D01*
X025196Y005257D01*
X025283Y005344D01*
X025330Y005458D01*
X025330Y005703D01*
X025359Y005773D01*
X025359Y005907D01*
X025307Y006032D01*
X025212Y006127D01*
X025087Y006179D01*
X024953Y006179D01*
X024828Y006127D01*
X024733Y006032D01*
X024681Y005907D01*
X024681Y005773D01*
X024710Y005703D01*
X024710Y005648D01*
X023517Y004456D01*
X023508Y004434D01*
X023359Y004434D01*
X023280Y004355D01*
X023201Y004434D01*
X022359Y004434D01*
X022280Y004355D01*
X022201Y004434D01*
X021359Y004434D01*
X021275Y004350D01*
X021262Y004373D01*
X021233Y004402D01*
X021196Y004423D01*
X021155Y004434D01*
X020818Y004434D01*
X020818Y003958D01*
X020742Y003958D01*
X020742Y003882D01*
X020818Y003882D01*
X020818Y003406D01*
X021155Y003406D01*
X021196Y003417D01*
X021233Y003438D01*
X021262Y003467D01*
X021275Y003490D01*
X021359Y003406D01*
X022201Y003406D01*
X022280Y003485D01*
X022359Y003406D01*
X022947Y003406D01*
X022364Y002823D01*
X022332Y002790D01*
X015848Y002790D01*
X016203Y003144D01*
X016250Y003258D01*
X016250Y003406D01*
X016361Y003406D01*
X016432Y003477D01*
X016504Y003406D01*
X017345Y003406D01*
X017439Y003499D01*
X017439Y004341D01*
X017345Y004434D01*
X016504Y004434D01*
X016432Y004363D01*
X016361Y004434D01*
X016213Y004434D01*
X016643Y004864D01*
X016690Y004978D01*
X016690Y009492D01*
X016738Y009609D01*
X016738Y009751D01*
X016684Y009883D01*
X016583Y009984D01*
X016451Y010038D01*
X016309Y010038D01*
X016177Y009984D01*
X016076Y009883D01*
X016022Y009751D01*
X016022Y009609D01*
X016070Y009492D01*
X016070Y005168D01*
X015724Y004823D01*
X015637Y004736D01*
X015590Y004622D01*
X015590Y004434D01*
X015519Y004434D01*
X015440Y004355D01*
X015361Y004434D01*
X014519Y004434D01*
X014440Y004355D01*
X014361Y004434D01*
X013519Y004434D01*
X013435Y004350D01*
X013422Y004373D01*
X013393Y004402D01*
X013356Y004423D01*
X013315Y004434D01*
X012978Y004434D01*
X012978Y003958D01*
X012902Y003958D01*
X012902Y003882D01*
X012978Y003882D01*
X012978Y003406D01*
X013315Y003406D01*
X013356Y003417D01*
X013393Y003438D01*
X013422Y003467D01*
X013435Y003490D01*
X013519Y003406D01*
X014361Y003406D01*
X014440Y003485D01*
X014519Y003406D01*
X015361Y003406D01*
X015440Y003485D01*
X015519Y003406D01*
X015587Y003406D01*
X014972Y002790D01*
X009308Y002790D01*
X008890Y003208D01*
X008890Y003406D01*
X009001Y003406D01*
X009072Y003477D01*
X009144Y003406D01*
X009985Y003406D01*
X010079Y003499D01*
X010079Y004341D01*
X009985Y004434D01*
X009144Y004434D01*
X009072Y004363D01*
X009001Y004434D01*
X008853Y004434D01*
X009763Y005344D01*
X009810Y005458D01*
X009810Y007252D01*
X009858Y007369D01*
X009858Y007511D01*
X009804Y007643D01*
X009703Y007744D01*
X009571Y007798D01*
X009429Y007798D01*
X009297Y007744D01*
X009196Y007643D01*
X009142Y007511D01*
X009142Y007369D01*
X009190Y007252D01*
X009142Y007386D02*
X004604Y007386D01*
X004763Y007545D02*
X009155Y007545D01*
X009256Y007703D02*
X004921Y007703D01*
X005080Y007862D02*
X011182Y007862D01*
X011340Y007703D02*
X009744Y007703D01*
X009845Y007545D02*
X011370Y007545D01*
X011370Y007673D02*
X011370Y007417D01*
X011276Y007323D01*
X011222Y007191D01*
X011222Y007049D01*
X011276Y006917D01*
X011377Y006816D01*
X011509Y006762D01*
X011651Y006762D01*
X011783Y006816D01*
X011884Y006917D01*
X011938Y007049D01*
X011938Y007191D01*
X011884Y007323D01*
X011790Y007417D01*
X011790Y007847D01*
X011677Y007960D01*
X011900Y007960D01*
X012179Y007960D01*
X012257Y007975D01*
X012329Y008006D01*
X012395Y008049D01*
X012451Y008105D01*
X012494Y008171D01*
X012525Y008243D01*
X012540Y008321D01*
X012540Y008360D01*
X012540Y008399D01*
X012525Y008477D01*
X012494Y008549D01*
X012451Y008615D01*
X012395Y008671D01*
X012329Y008714D01*
X012257Y008745D01*
X012179Y008760D01*
X011900Y008760D01*
X011900Y008360D01*
X011900Y008360D01*
X012540Y008360D01*
X011900Y008360D01*
X011900Y008360D01*
X011900Y008760D01*
X011621Y008760D01*
X011543Y008745D01*
X011471Y008714D01*
X011405Y008671D01*
X011349Y008615D01*
X011310Y008556D01*
X011310Y009160D01*
X011321Y009133D01*
X011433Y009021D01*
X011580Y008960D01*
X012220Y008960D01*
X012367Y009021D01*
X012479Y009133D01*
X012540Y009280D01*
X012540Y009440D01*
X012479Y009587D01*
X012367Y009699D01*
X012220Y009760D01*
X011580Y009760D01*
X011433Y009699D01*
X011321Y009587D01*
X011310Y009560D01*
X011310Y010160D01*
X011321Y010133D01*
X011433Y010021D01*
X011580Y009960D01*
X012220Y009960D01*
X012367Y010021D01*
X012479Y010133D01*
X012540Y010280D01*
X012540Y010440D01*
X012479Y010587D01*
X012367Y010699D01*
X012220Y010760D01*
X011580Y010760D01*
X011472Y010715D01*
X011987Y011230D01*
X012467Y011230D01*
X012627Y011390D01*
X012726Y011489D01*
X012743Y011496D01*
X012844Y011597D01*
X012898Y011729D01*
X012898Y011871D01*
X012844Y012003D01*
X012817Y012030D01*
X018619Y012030D01*
X018601Y011987D01*
X018601Y011853D01*
X018653Y011728D01*
X018730Y011651D01*
X018730Y011513D01*
X018853Y011390D01*
X019493Y010750D01*
X020444Y010750D01*
X020441Y010747D01*
X020380Y010600D01*
X020380Y010440D01*
X020441Y010293D01*
X020553Y010181D01*
X020700Y010120D01*
X021340Y010120D01*
X021487Y010181D01*
X021599Y010293D01*
X021660Y010440D01*
X021660Y010600D01*
X021599Y010747D01*
X021596Y010750D01*
X021893Y010750D01*
X022250Y010393D01*
X022250Y010137D01*
X022156Y010043D01*
X022102Y009911D01*
X022102Y009769D01*
X022156Y009637D01*
X022257Y009536D01*
X022389Y009482D01*
X022531Y009482D01*
X022663Y009536D01*
X022764Y009637D01*
X022818Y009769D01*
X022818Y009911D01*
X022764Y010043D01*
X022670Y010137D01*
X022670Y010567D01*
X022547Y010690D01*
X022547Y010690D01*
X022247Y010990D01*
X022652Y010990D01*
X024650Y008954D01*
X024650Y008583D01*
X024163Y009070D01*
X024076Y009157D01*
X024051Y009168D01*
X023932Y009286D01*
X023884Y009403D01*
X023783Y009504D01*
X023651Y009558D01*
X023509Y009558D01*
X023377Y009504D01*
X023276Y009403D01*
X023222Y009271D01*
X023222Y009129D01*
X023276Y008997D01*
X023377Y008896D01*
X023494Y008848D01*
X023710Y008632D01*
X023735Y008621D01*
X024587Y007769D01*
X024597Y007744D01*
X024684Y007657D01*
X024870Y007472D01*
X024870Y007308D01*
X024822Y007191D01*
X024822Y007049D01*
X024876Y006917D01*
X024977Y006816D01*
X025109Y006762D01*
X025251Y006762D01*
X025383Y006816D01*
X025484Y006917D01*
X025538Y007049D01*
X025538Y007191D01*
X025490Y007308D01*
X025490Y007464D01*
X025593Y007421D01*
X025727Y007421D01*
X025852Y007473D01*
X025947Y007568D01*
X025999Y007693D01*
X025999Y007827D01*
X025981Y007870D01*
X026853Y007870D01*
X027050Y007673D01*
X027050Y006937D01*
X026956Y006843D01*
X026902Y006711D01*
X026902Y006569D01*
X026956Y006437D01*
X027057Y006336D01*
X027189Y006282D01*
X027331Y006282D01*
X027463Y006336D01*
X027564Y006437D01*
X027618Y006569D01*
X027618Y006711D01*
X027564Y006843D01*
X027470Y006937D01*
X027470Y007847D01*
X027150Y008167D01*
X027027Y008290D01*
X026707Y008290D01*
X026734Y008331D01*
X026765Y008403D01*
X026780Y008481D01*
X026780Y008520D01*
X026780Y008559D01*
X026765Y008637D01*
X026734Y008709D01*
X026691Y008775D01*
X026635Y008831D01*
X026569Y008874D01*
X026497Y008905D01*
X026419Y008920D01*
X026140Y008920D01*
X026140Y008520D01*
X026140Y008520D01*
X026780Y008520D01*
X026140Y008520D01*
X026140Y008520D01*
X026140Y008920D01*
X025861Y008920D01*
X025783Y008905D01*
X025711Y008874D01*
X025645Y008831D01*
X025589Y008775D01*
X025546Y008709D01*
X025515Y008637D01*
X025500Y008559D01*
X025500Y008537D01*
X025390Y008647D01*
X025390Y009287D01*
X023150Y011527D01*
X023027Y011650D01*
X020909Y011650D01*
X020969Y011710D01*
X023013Y011710D01*
X023850Y010873D01*
X023804Y010873D01*
X023850Y010873D02*
X023973Y010750D01*
X025564Y010750D01*
X025561Y010747D01*
X025500Y010600D01*
X025500Y010440D01*
X025561Y010293D01*
X025673Y010181D01*
X025820Y010120D01*
X026460Y010120D01*
X026607Y010181D01*
X026719Y010293D01*
X026780Y010440D01*
X026780Y010600D01*
X026719Y010747D01*
X026716Y010750D01*
X028444Y010750D01*
X028441Y010747D01*
X028380Y010600D01*
X028380Y010440D01*
X028441Y010293D01*
X028553Y010181D01*
X028700Y010120D01*
X029340Y010120D01*
X029487Y010181D01*
X029599Y010293D01*
X029660Y010440D01*
X029660Y010600D01*
X029615Y010708D01*
X030218Y010105D01*
X030156Y010043D01*
X030102Y009911D01*
X030102Y009769D01*
X030156Y009637D01*
X030257Y009536D01*
X030389Y009482D01*
X030531Y009482D01*
X030663Y009536D01*
X030764Y009637D01*
X030818Y009769D01*
X030818Y009911D01*
X030764Y010043D01*
X030670Y010137D01*
X030670Y010247D01*
X030547Y010370D01*
X029747Y011170D01*
X024147Y011170D01*
X023287Y012030D01*
X025587Y012030D01*
X025801Y012244D01*
X025801Y012173D01*
X025853Y012048D01*
X025948Y011953D01*
X026073Y011901D01*
X026207Y011901D01*
X026332Y011953D01*
X026427Y012048D01*
X026479Y012173D01*
X026479Y012282D01*
X028650Y014453D01*
X028650Y012377D01*
X028556Y012283D01*
X028502Y012151D01*
X028502Y012009D01*
X028556Y011877D01*
X028657Y011776D01*
X028789Y011722D01*
X028931Y011722D01*
X029063Y011776D01*
X029164Y011877D01*
X029218Y012009D01*
X029218Y012151D01*
X029164Y012283D01*
X029070Y012377D01*
X029070Y014270D01*
X029107Y014270D01*
X032959Y018122D01*
X033091Y018122D01*
X033223Y018176D01*
X033324Y018277D01*
X033378Y018409D01*
X033378Y018551D01*
X033324Y018683D01*
X033223Y018784D01*
X033184Y018800D01*
X033223Y018816D01*
X033324Y018917D01*
X033378Y019049D01*
X033378Y019191D01*
X033324Y019323D01*
X033223Y019424D01*
X033091Y019478D01*
X032949Y019478D01*
X032817Y019424D01*
X032716Y019323D01*
X032700Y019284D01*
X032684Y019323D01*
X032607Y019400D01*
X032684Y019477D01*
X032738Y019609D01*
X032738Y019751D01*
X032684Y019883D01*
X032583Y019984D01*
X032451Y020038D01*
X032309Y020038D01*
X032177Y019984D01*
X032076Y019883D01*
X032022Y019751D01*
X032022Y019619D01*
X028590Y016187D01*
X028590Y018211D01*
X028667Y018288D01*
X028719Y018413D01*
X028719Y018547D01*
X028667Y018672D01*
X028572Y018767D01*
X028447Y018819D01*
X028368Y018819D01*
X028399Y018893D01*
X028399Y019027D01*
X028347Y019152D01*
X028252Y019247D01*
X028127Y019299D01*
X027993Y019299D01*
X027868Y019247D01*
X027773Y019152D01*
X027740Y019073D01*
X027707Y019152D01*
X027612Y019247D01*
X027487Y019299D01*
X027353Y019299D01*
X027228Y019247D01*
X027133Y019152D01*
X027081Y019027D01*
X027081Y018893D01*
X027133Y018768D01*
X027210Y018691D01*
X027210Y017287D01*
X023173Y013250D01*
X021021Y013250D01*
X021039Y013293D01*
X021039Y013427D01*
X020987Y013552D01*
X020910Y013629D01*
X020910Y015047D01*
X020787Y015170D01*
X020577Y015380D01*
X020660Y015380D01*
X020660Y015820D01*
X020220Y015820D01*
X020220Y015737D01*
X019667Y016290D01*
X019507Y016290D01*
X017267Y018530D01*
X016949Y018530D01*
X016979Y018560D01*
X019737Y018560D01*
X019940Y018357D01*
X020057Y018240D01*
X020377Y018240D01*
X020403Y018214D01*
X020220Y018031D01*
X020220Y017649D01*
X020489Y017380D01*
X020871Y017380D01*
X021034Y017543D01*
X021097Y017480D01*
X021137Y017480D01*
X021403Y017214D01*
X021220Y017031D01*
X021220Y016649D01*
X021489Y016380D01*
X021871Y016380D01*
X022140Y016649D01*
X022140Y017031D01*
X021957Y017214D01*
X022000Y017257D01*
X022017Y017240D01*
X023021Y017240D01*
X023108Y017153D01*
X023233Y017101D01*
X023367Y017101D01*
X023492Y017153D01*
X023587Y017248D01*
X023639Y017373D01*
X023639Y017507D01*
X023587Y017632D01*
X023492Y017727D01*
X023367Y017779D01*
X023233Y017779D01*
X023108Y017727D01*
X023021Y017640D01*
X022183Y017640D01*
X022143Y017680D01*
X022140Y017680D01*
X022140Y018031D01*
X021871Y018300D01*
X021489Y018300D01*
X021486Y018297D01*
X021137Y018646D01*
X021140Y018649D01*
X021140Y019031D01*
X020871Y019300D01*
X020489Y019300D01*
X020220Y019031D01*
X020220Y018649D01*
X020229Y018640D01*
X020223Y018640D01*
X019903Y018960D01*
X018897Y018960D01*
X018919Y019013D01*
X018919Y019147D01*
X018867Y019272D01*
X018779Y019360D01*
X018783Y019360D01*
X019823Y020400D01*
X020817Y020400D01*
X021220Y019997D01*
X021220Y019649D01*
X021489Y019380D01*
X021871Y019380D01*
X022140Y019649D01*
X022140Y020031D01*
X021871Y020300D01*
X021489Y020300D01*
X021486Y020297D01*
X020983Y020800D01*
X019657Y020800D01*
X019540Y020683D01*
X019405Y020548D01*
X019387Y020592D01*
X019292Y020687D01*
X019167Y020739D01*
X019033Y020739D01*
X018963Y020710D01*
X018893Y020710D01*
X019143Y020960D01*
X021217Y020960D01*
X022361Y019816D01*
X022361Y019693D01*
X022413Y019568D01*
X022508Y019473D01*
X022633Y019421D01*
X022767Y019421D01*
X022892Y019473D01*
X022987Y019568D01*
X023039Y019693D01*
X023039Y019827D01*
X022987Y019952D01*
X022892Y020047D01*
X022767Y020099D01*
X022644Y020099D01*
X022103Y020640D01*
X025057Y020640D01*
X025460Y020237D01*
X025577Y020120D01*
X025821Y020120D01*
X025908Y020033D01*
X026033Y019981D01*
X026156Y019981D01*
X026337Y019800D01*
X031703Y019800D01*
X031820Y019917D01*
X031820Y019917D01*
X031983Y020080D01*
X033621Y020080D01*
X033708Y019993D01*
X033833Y019941D01*
X033967Y019941D01*
X034092Y019993D01*
X034187Y020088D01*
X034239Y020213D01*
X034239Y020347D01*
X034187Y020472D01*
X034092Y020567D01*
X033967Y020619D01*
X033833Y020619D01*
X033708Y020567D01*
X033621Y020480D01*
X031817Y020480D01*
X031700Y020363D01*
X031700Y020363D01*
X031537Y020200D01*
X026503Y020200D01*
X026439Y020264D01*
X026439Y020387D01*
X026387Y020512D01*
X026292Y020607D01*
X026167Y020659D01*
X026033Y020659D01*
X025908Y020607D01*
X025821Y020520D01*
X025743Y020520D01*
X025688Y020575D01*
X025732Y020593D01*
X025827Y020688D01*
X025879Y020813D01*
X025879Y020947D01*
X025827Y021072D01*
X025732Y021167D01*
X025607Y021219D01*
X025473Y021219D01*
X025427Y021200D01*
X024813Y021200D01*
X024892Y021233D01*
X024969Y021310D01*
X030831Y021310D01*
X030908Y021233D01*
X031033Y021181D01*
X031167Y021181D01*
X031292Y021233D01*
X031387Y021328D01*
X031439Y021453D01*
X031439Y021587D01*
X031387Y021712D01*
X031292Y021807D01*
X031213Y021840D01*
X031292Y021873D01*
X031387Y021968D01*
X031613Y021968D01*
X031708Y021873D01*
X031833Y021821D01*
X031967Y021821D01*
X032092Y021873D01*
X032187Y021968D01*
X036333Y021968D01*
X036333Y021810D02*
X031286Y021810D01*
X031387Y021968D02*
X031439Y022093D01*
X031439Y022227D01*
X031421Y022270D01*
X031493Y022270D01*
X031561Y022202D01*
X031561Y022093D01*
X031613Y021968D01*
X031561Y022127D02*
X031439Y022127D01*
X031412Y021651D02*
X036333Y021651D01*
X036333Y021493D02*
X031439Y021493D01*
X031390Y021334D02*
X036333Y021334D01*
X036333Y021176D02*
X025712Y021176D01*
X025850Y021017D02*
X036333Y021017D01*
X036333Y020859D02*
X025879Y020859D01*
X025832Y020700D02*
X036333Y020700D01*
X036333Y020542D02*
X034118Y020542D01*
X034224Y020383D02*
X036333Y020383D01*
X036333Y020225D02*
X034239Y020225D01*
X034165Y020066D02*
X036333Y020066D01*
X036333Y019908D02*
X032659Y019908D01*
X032738Y019749D02*
X036333Y019749D01*
X036333Y019591D02*
X032731Y019591D01*
X032639Y019432D02*
X032837Y019432D01*
X033203Y019432D02*
X036333Y019432D01*
X036333Y019274D02*
X033344Y019274D01*
X033378Y019115D02*
X036333Y019115D01*
X036333Y018957D02*
X033340Y018957D01*
X033189Y018798D02*
X036333Y018798D01*
X036333Y018640D02*
X033342Y018640D01*
X033378Y018481D02*
X036333Y018481D01*
X036333Y018323D02*
X033343Y018323D01*
X033194Y018164D02*
X036333Y018164D01*
X036333Y018006D02*
X032843Y018006D01*
X032684Y017847D02*
X036333Y017847D01*
X036333Y017689D02*
X032526Y017689D01*
X032367Y017530D02*
X036333Y017530D01*
X036333Y017372D02*
X032209Y017372D01*
X032050Y017213D02*
X036333Y017213D01*
X036333Y017055D02*
X031892Y017055D01*
X031733Y016896D02*
X036333Y016896D01*
X036333Y016738D02*
X031575Y016738D01*
X031416Y016579D02*
X036333Y016579D01*
X036333Y016421D02*
X031258Y016421D01*
X031099Y016262D02*
X036333Y016262D01*
X036333Y016104D02*
X030941Y016104D01*
X030782Y015945D02*
X036333Y015945D01*
X036333Y015787D02*
X030624Y015787D01*
X030465Y015628D02*
X036333Y015628D01*
X036333Y015470D02*
X030307Y015470D01*
X030148Y015311D02*
X036333Y015311D01*
X036333Y015153D02*
X029990Y015153D01*
X029831Y014994D02*
X036333Y014994D01*
X036333Y014836D02*
X029673Y014836D01*
X029514Y014677D02*
X036333Y014677D01*
X036333Y014519D02*
X029356Y014519D01*
X029197Y014360D02*
X036333Y014360D01*
X036333Y014202D02*
X029070Y014202D01*
X029070Y014043D02*
X036333Y014043D01*
X036333Y013885D02*
X029070Y013885D01*
X029070Y013726D02*
X036333Y013726D01*
X036333Y013568D02*
X029070Y013568D01*
X029070Y013409D02*
X036333Y013409D01*
X036333Y013251D02*
X029070Y013251D01*
X029070Y013092D02*
X036333Y013092D01*
X036333Y012934D02*
X029070Y012934D01*
X029070Y012775D02*
X036333Y012775D01*
X036333Y012617D02*
X029070Y012617D01*
X029070Y012458D02*
X036333Y012458D01*
X036333Y012300D02*
X029147Y012300D01*
X029218Y012141D02*
X036333Y012141D01*
X036333Y011983D02*
X029208Y011983D01*
X029111Y011824D02*
X036333Y011824D01*
X036333Y011666D02*
X023651Y011666D01*
X023493Y011824D02*
X028609Y011824D01*
X028512Y011983D02*
X026362Y011983D01*
X026466Y012141D02*
X028502Y012141D01*
X028573Y012300D02*
X026496Y012300D01*
X026655Y012458D02*
X028650Y012458D01*
X028650Y012617D02*
X026814Y012617D01*
X026972Y012775D02*
X028650Y012775D01*
X028650Y012934D02*
X027131Y012934D01*
X027289Y013092D02*
X028650Y013092D01*
X028650Y013251D02*
X027448Y013251D01*
X027606Y013409D02*
X028650Y013409D01*
X028650Y013568D02*
X027765Y013568D01*
X027923Y013726D02*
X028650Y013726D01*
X028650Y013885D02*
X028082Y013885D01*
X028240Y014043D02*
X028650Y014043D01*
X028650Y014202D02*
X028399Y014202D01*
X028557Y014360D02*
X028650Y014360D01*
X028590Y016262D02*
X028665Y016262D01*
X028590Y016421D02*
X028824Y016421D01*
X028982Y016579D02*
X028590Y016579D01*
X028590Y016738D02*
X029141Y016738D01*
X029299Y016896D02*
X028590Y016896D01*
X028590Y017055D02*
X029458Y017055D01*
X029616Y017213D02*
X028590Y017213D01*
X028590Y017372D02*
X029775Y017372D01*
X029933Y017530D02*
X028590Y017530D01*
X028590Y017689D02*
X030092Y017689D01*
X030250Y017847D02*
X028590Y017847D01*
X028590Y018006D02*
X030409Y018006D01*
X030567Y018164D02*
X028590Y018164D01*
X028681Y018323D02*
X030726Y018323D01*
X030884Y018481D02*
X028719Y018481D01*
X028681Y018640D02*
X031043Y018640D01*
X031201Y018798D02*
X028497Y018798D01*
X028399Y018957D02*
X031360Y018957D01*
X031518Y019115D02*
X028362Y019115D01*
X028188Y019274D02*
X031677Y019274D01*
X031835Y019432D02*
X022793Y019432D01*
X022607Y019432D02*
X021923Y019432D01*
X021871Y019300D02*
X021489Y019300D01*
X021220Y019031D01*
X021220Y018649D01*
X021489Y018380D01*
X021871Y018380D01*
X022140Y018649D01*
X022140Y018650D01*
X023003Y018650D01*
X023073Y018621D01*
X023207Y018621D01*
X023332Y018673D01*
X023427Y018768D01*
X023479Y018893D01*
X023479Y019027D01*
X023427Y019152D01*
X023332Y019247D01*
X023207Y019299D01*
X023073Y019299D01*
X023003Y019270D01*
X021918Y019270D01*
X021906Y019265D01*
X021871Y019300D01*
X021897Y019274D02*
X023012Y019274D01*
X023268Y019274D02*
X027292Y019274D01*
X027118Y019115D02*
X023442Y019115D01*
X023479Y018957D02*
X027081Y018957D01*
X027120Y018798D02*
X023440Y018798D01*
X023251Y018640D02*
X027210Y018640D01*
X027210Y018481D02*
X021972Y018481D01*
X022130Y018640D02*
X023029Y018640D01*
X022996Y019591D02*
X031994Y019591D01*
X032022Y019749D02*
X023039Y019749D01*
X023006Y019908D02*
X026230Y019908D01*
X025875Y020066D02*
X022846Y020066D01*
X022518Y020225D02*
X025473Y020225D01*
X025314Y020383D02*
X022360Y020383D01*
X022201Y020542D02*
X025156Y020542D01*
X025721Y020542D02*
X025842Y020542D01*
X026358Y020542D02*
X033682Y020542D01*
X033635Y020066D02*
X031969Y020066D01*
X032101Y019908D02*
X031810Y019908D01*
X031562Y020225D02*
X026478Y020225D01*
X026439Y020383D02*
X031720Y020383D01*
X032187Y021968D02*
X032239Y022093D01*
X032239Y022227D01*
X032187Y022352D01*
X032092Y022447D01*
X031967Y022499D01*
X031858Y022499D01*
X031667Y022690D01*
X028329Y022690D01*
X028252Y022767D01*
X028127Y022819D01*
X027993Y022819D01*
X027868Y022767D01*
X027773Y022672D01*
X027721Y022547D01*
X027721Y022413D01*
X027739Y022370D01*
X024969Y022370D01*
X024909Y022430D01*
X027507Y022430D01*
X028627Y023550D01*
X031827Y023550D01*
X032147Y023870D01*
X032270Y023993D01*
X032270Y024611D01*
X032347Y024688D01*
X032399Y024813D01*
X032399Y024947D01*
X032347Y025072D01*
X032252Y025167D01*
X032127Y025219D01*
X031993Y025219D01*
X031868Y025167D01*
X031773Y025072D01*
X031721Y024947D01*
X031721Y024813D01*
X031773Y024688D01*
X031850Y024611D01*
X031850Y024167D01*
X031653Y023970D01*
X029524Y023970D01*
X029647Y024021D01*
X029759Y024133D01*
X029820Y024280D01*
X029820Y024440D01*
X029759Y024587D01*
X029647Y024699D01*
X029500Y024760D01*
X028860Y024760D01*
X028713Y024699D01*
X028601Y024587D01*
X028540Y024440D01*
X028540Y024280D01*
X028601Y024133D01*
X028713Y024021D01*
X028836Y023970D01*
X028453Y023970D01*
X027333Y022850D01*
X027287Y022850D01*
X028270Y023833D01*
X028270Y026531D01*
X028347Y026608D01*
X028399Y026733D01*
X028399Y026867D01*
X028347Y026992D01*
X028252Y027087D01*
X028127Y027139D01*
X027993Y027139D01*
X027950Y027121D01*
X027950Y027847D01*
X027938Y027859D01*
X027938Y027991D01*
X036333Y027991D01*
X036333Y027833D02*
X027950Y027833D01*
X027938Y027991D02*
X027884Y028123D01*
X027783Y028224D01*
X027651Y028278D01*
X027509Y028278D01*
X027377Y028224D01*
X027276Y028123D01*
X027222Y027991D01*
X022090Y027991D01*
X022090Y027833D02*
X027228Y027833D01*
X027222Y027849D02*
X027276Y027717D01*
X027377Y027616D01*
X027509Y027562D01*
X027530Y027562D01*
X027530Y024167D01*
X026853Y023490D01*
X023767Y023490D01*
X024110Y023833D01*
X024110Y024611D01*
X024187Y024688D01*
X024239Y024813D01*
X024239Y024947D01*
X024187Y025072D01*
X024092Y025167D01*
X023967Y025219D01*
X023833Y025219D01*
X023708Y025167D01*
X023613Y025072D01*
X023561Y024947D01*
X023561Y024813D01*
X023613Y024688D01*
X023690Y024611D01*
X023690Y024007D01*
X023493Y023810D01*
X021524Y023810D01*
X021647Y023861D01*
X021759Y023973D01*
X021820Y024120D01*
X021820Y024280D01*
X021759Y024427D01*
X021647Y024539D01*
X021500Y024600D01*
X020860Y024600D01*
X020713Y024539D01*
X020601Y024427D01*
X020540Y024280D01*
X020540Y024120D01*
X020601Y023973D01*
X020713Y023861D01*
X020836Y023810D01*
X018484Y023810D01*
X018607Y023861D01*
X018719Y023973D01*
X018780Y024120D01*
X018780Y024280D01*
X018719Y024427D01*
X018607Y024539D01*
X018460Y024600D01*
X017820Y024600D01*
X017673Y024539D01*
X017561Y024427D01*
X017500Y024280D01*
X017500Y024120D01*
X017561Y023973D01*
X017673Y023861D01*
X017796Y023810D01*
X016453Y023810D01*
X016330Y023687D01*
X016073Y023430D01*
X014968Y022358D01*
X014829Y022358D01*
X014697Y022304D01*
X014596Y022203D01*
X014542Y022071D01*
X014542Y021929D01*
X014596Y021797D01*
X014697Y021696D01*
X014829Y021642D01*
X014971Y021642D01*
X015103Y021696D01*
X015106Y021700D01*
X015062Y021591D01*
X015062Y021449D01*
X015116Y021317D01*
X015217Y021216D01*
X015349Y021162D01*
X015491Y021162D01*
X015623Y021216D01*
X015660Y021253D01*
X015697Y021216D01*
X015829Y021162D01*
X015971Y021162D01*
X016103Y021216D01*
X016204Y021317D01*
X016258Y021449D01*
X016258Y021581D01*
X017107Y022430D01*
X024491Y022430D01*
X024413Y022352D01*
X024361Y022227D01*
X024361Y022093D01*
X024413Y021968D01*
X016645Y021968D01*
X016697Y021760D02*
X016097Y021160D01*
X014823Y021160D01*
X014780Y021203D01*
X014663Y021320D01*
X012577Y021320D01*
X012377Y021120D01*
X005819Y021120D01*
X005732Y021207D01*
X005607Y021259D01*
X005473Y021259D01*
X005348Y021207D01*
X005330Y021189D01*
X005330Y024692D01*
X005378Y024809D01*
X005378Y024951D01*
X005330Y025068D01*
X005330Y028752D01*
X006956Y030377D01*
X006984Y030406D01*
X007261Y030406D01*
X007340Y030485D01*
X007419Y030406D01*
X008261Y030406D01*
X008340Y030485D01*
X008419Y030406D01*
X009261Y030406D01*
X009345Y030490D01*
X009358Y030467D01*
X009387Y030438D01*
X009424Y030417D01*
X009465Y030406D01*
X009802Y030406D01*
X009802Y030882D01*
X009878Y030882D01*
X009878Y030958D01*
X009802Y030958D01*
X009802Y031434D01*
X009465Y031434D01*
X009424Y031423D01*
X009387Y031402D01*
X009358Y031373D01*
X009345Y031350D01*
X009261Y031434D01*
X008419Y031434D01*
X008340Y031355D01*
X008261Y031434D01*
X007533Y031434D01*
X007708Y031610D01*
X013692Y031610D01*
X013724Y031577D01*
X013833Y031468D01*
X013768Y031403D01*
X013696Y031474D01*
X012855Y031474D01*
X012761Y031381D01*
X012761Y030539D01*
X012855Y030446D01*
X013696Y030446D01*
X013768Y030517D01*
X013839Y030446D01*
X013950Y030446D01*
X013950Y027910D01*
X013848Y027910D01*
X013731Y027958D01*
X013589Y027958D01*
X013457Y027904D01*
X013356Y027803D01*
X013302Y027671D01*
X013302Y027529D01*
X013356Y027397D01*
X013457Y027296D01*
X013589Y027242D01*
X013731Y027242D01*
X013848Y027290D01*
X013950Y027290D01*
X013950Y025750D01*
X013944Y025720D01*
X013950Y025689D01*
X013950Y025658D01*
X013960Y025635D01*
X013942Y025591D01*
X013942Y025449D01*
X013996Y025317D01*
X014097Y025216D01*
X014229Y025162D01*
X014371Y025162D01*
X014503Y025216D01*
X014604Y025317D01*
X014658Y025449D01*
X014658Y025591D01*
X014604Y025723D01*
X014570Y025757D01*
X014570Y030446D01*
X014681Y030446D01*
X014760Y030525D01*
X014839Y030446D01*
X015681Y030446D01*
X015760Y030525D01*
X015839Y030446D01*
X016681Y030446D01*
X016765Y030530D01*
X016778Y030507D01*
X016807Y030478D01*
X016844Y030457D01*
X016885Y030446D01*
X017222Y030446D01*
X017222Y030922D01*
X017298Y030922D01*
X017298Y030998D01*
X017222Y030998D01*
X017222Y031474D01*
X016885Y031474D01*
X016844Y031463D01*
X016807Y031442D01*
X016778Y031413D01*
X016765Y031390D01*
X016681Y031474D01*
X015839Y031474D01*
X015760Y031395D01*
X015681Y031474D01*
X014839Y031474D01*
X014760Y031395D01*
X014681Y031474D01*
X014570Y031474D01*
X014570Y031542D01*
X014542Y031610D01*
X020892Y031610D01*
X021027Y031474D01*
X020375Y031474D01*
X020281Y031381D01*
X020281Y030539D01*
X020375Y030446D01*
X021216Y030446D01*
X021288Y030517D01*
X021359Y030446D01*
X021470Y030446D01*
X021470Y026778D01*
X021517Y026664D01*
X021663Y026519D01*
X021609Y026554D01*
X021537Y026585D01*
X021459Y026600D01*
X021180Y026600D01*
X021180Y026200D01*
X021820Y026200D01*
X021820Y026239D01*
X021805Y026317D01*
X021774Y026389D01*
X021739Y026443D01*
X022310Y025872D01*
X022310Y025868D01*
X022262Y025751D01*
X022262Y025609D01*
X022316Y025477D01*
X022417Y025376D01*
X022549Y025322D01*
X022691Y025322D01*
X022823Y025376D01*
X022924Y025477D01*
X022978Y025609D01*
X022978Y025751D01*
X022930Y025868D01*
X022930Y026062D01*
X022883Y026176D01*
X022796Y026263D01*
X022796Y026263D01*
X022090Y026968D01*
X022090Y030446D01*
X022201Y030446D01*
X022280Y030525D01*
X022359Y030446D01*
X023201Y030446D01*
X023280Y030525D01*
X023359Y030446D01*
X024201Y030446D01*
X024285Y030530D01*
X024298Y030507D01*
X024327Y030478D01*
X024364Y030457D01*
X024405Y030446D01*
X024742Y030446D01*
X024742Y030922D01*
X024818Y030922D01*
X024818Y030998D01*
X024742Y030998D01*
X024742Y031474D01*
X024405Y031474D01*
X024364Y031463D01*
X024327Y031442D01*
X024298Y031413D01*
X024285Y031390D01*
X024201Y031474D01*
X023359Y031474D01*
X023280Y031395D01*
X023201Y031474D01*
X022359Y031474D01*
X022280Y031395D01*
X022201Y031474D01*
X021904Y031474D01*
X021768Y031610D01*
X028892Y031610D01*
X029027Y031474D01*
X028879Y031474D01*
X028808Y031403D01*
X028736Y031474D01*
X027895Y031474D01*
X027801Y031381D01*
X027801Y030539D01*
X027895Y030446D01*
X028736Y030446D01*
X028808Y030517D01*
X028879Y030446D01*
X029721Y030446D01*
X029800Y030525D01*
X029879Y030446D01*
X030721Y030446D01*
X030800Y030525D01*
X030879Y030446D01*
X031721Y030446D01*
X031805Y030530D01*
X031818Y030507D01*
X031847Y030478D01*
X031884Y030457D01*
X031925Y030446D01*
X032262Y030446D01*
X032262Y030922D01*
X032338Y030922D01*
X032338Y030998D01*
X032262Y030998D01*
X032262Y031474D01*
X031925Y031474D01*
X031884Y031463D01*
X031847Y031442D01*
X031818Y031413D01*
X031805Y031390D01*
X031721Y031474D01*
X030879Y031474D01*
X030800Y031395D01*
X030721Y031474D01*
X029879Y031474D01*
X029800Y031395D01*
X029721Y031474D01*
X029650Y031474D01*
X029650Y031662D01*
X029603Y031776D01*
X029516Y031863D01*
X029196Y032183D01*
X029082Y032230D01*
X013918Y032230D01*
X013900Y032222D01*
X013882Y032230D01*
X007518Y032230D01*
X007404Y032183D01*
X006764Y031543D01*
X006677Y031456D01*
X006668Y031434D01*
X006419Y031434D01*
X006348Y031363D01*
X006276Y031434D01*
X005435Y031434D01*
X005341Y031341D01*
X005341Y030499D01*
X005435Y030406D01*
X006107Y030406D01*
X004844Y029143D01*
X004757Y029056D01*
X004710Y028942D01*
X001460Y028942D01*
X001460Y028784D02*
X004710Y028784D01*
X004710Y028942D02*
X004710Y025068D01*
X004662Y024951D01*
X004662Y024809D01*
X004710Y024692D01*
X004710Y019698D01*
X004757Y019584D01*
X004844Y019497D01*
X005724Y018617D01*
X005760Y018582D01*
X005760Y018314D01*
X005994Y018080D01*
X006326Y018080D01*
X006436Y018190D01*
X007798Y018190D01*
X007891Y018097D01*
X008066Y018025D01*
X008254Y018025D01*
X008429Y018097D01*
X008542Y018210D01*
X009091Y018210D01*
X009108Y018193D01*
X009233Y018141D01*
X009367Y018141D01*
X009492Y018193D01*
X009587Y018288D01*
X009639Y018413D01*
X009639Y018500D01*
X011068Y019930D01*
X013892Y019930D01*
X013924Y019897D01*
X013993Y019869D01*
X014157Y019704D01*
X014244Y019617D01*
X014358Y019570D01*
X015002Y019570D01*
X015116Y019617D01*
X015228Y019730D01*
X016642Y019730D01*
X016756Y019777D01*
X016948Y019970D01*
X018642Y019970D01*
X018756Y020017D01*
X018828Y020090D01*
X018947Y020090D01*
X018617Y019760D01*
X017299Y019760D01*
X017212Y019847D01*
X017087Y019899D01*
X016953Y019899D01*
X016828Y019847D01*
X016733Y019752D01*
X016681Y019627D01*
X016681Y019493D01*
X016733Y019368D01*
X016781Y019320D01*
X016733Y019272D01*
X016681Y019147D01*
X016681Y019099D01*
X016633Y019099D01*
X016508Y019047D01*
X016413Y018952D01*
X016361Y018827D01*
X016361Y018693D01*
X016413Y018568D01*
X016451Y018530D01*
X016307Y018530D01*
X015618Y019219D01*
X015618Y019351D01*
X015564Y019483D01*
X015463Y019584D01*
X015331Y019638D01*
X015189Y019638D01*
X015057Y019584D01*
X014956Y019483D01*
X014902Y019351D01*
X014902Y019209D01*
X014956Y019077D01*
X015057Y018976D01*
X015096Y018960D01*
X015057Y018944D01*
X014956Y018843D01*
X014902Y018711D01*
X014902Y018569D01*
X014956Y018437D01*
X015057Y018336D01*
X015073Y018329D01*
X015068Y018327D01*
X014981Y018240D01*
X014943Y018240D01*
X014679Y018504D01*
X014679Y018627D01*
X014627Y018752D01*
X014532Y018847D01*
X014407Y018899D01*
X014273Y018899D01*
X014148Y018847D01*
X014053Y018752D01*
X014001Y018627D01*
X014001Y018493D01*
X014053Y018368D01*
X014148Y018273D01*
X014273Y018221D01*
X014396Y018221D01*
X014777Y017840D01*
X014981Y017840D01*
X015068Y017753D01*
X015193Y017701D01*
X015327Y017701D01*
X015452Y017753D01*
X015547Y017848D01*
X015599Y017973D01*
X015599Y018004D01*
X015813Y017790D01*
X016579Y017790D01*
X016561Y017747D01*
X016561Y017680D01*
X014899Y017680D01*
X014812Y017767D01*
X014687Y017819D01*
X014553Y017819D01*
X014428Y017767D01*
X014333Y017672D01*
X014281Y017547D01*
X014281Y017413D01*
X014333Y017288D01*
X014428Y017193D01*
X014553Y017141D01*
X014687Y017141D01*
X014812Y017193D01*
X014899Y017280D01*
X016783Y017280D01*
X016844Y017341D01*
X016967Y017341D01*
X017092Y017393D01*
X017187Y017488D01*
X017201Y017522D01*
X018605Y016118D01*
X018549Y016118D01*
X018417Y016064D01*
X018316Y015963D01*
X018262Y015831D01*
X018262Y015689D01*
X018316Y015557D01*
X018353Y015520D01*
X018316Y015483D01*
X018262Y015351D01*
X018262Y015209D01*
X018316Y015077D01*
X018417Y014976D01*
X018549Y014922D01*
X018681Y014922D01*
X018730Y014873D01*
X018730Y013629D01*
X018653Y013552D01*
X018601Y013427D01*
X018601Y013293D01*
X018619Y013250D01*
X011237Y013250D01*
X011143Y013344D01*
X011011Y013398D01*
X010869Y013398D01*
X010737Y013344D01*
X010636Y013243D01*
X010582Y013111D01*
X010582Y012969D01*
X010631Y012850D01*
X006293Y012850D01*
X006170Y012727D01*
X005662Y012219D01*
X005567Y012259D01*
X005433Y012259D01*
X005308Y012207D01*
X005213Y012112D01*
X005161Y011987D01*
X005161Y011853D01*
X005213Y011728D01*
X005308Y011633D01*
X005433Y011581D01*
X005567Y011581D01*
X005692Y011633D01*
X005787Y011728D01*
X005803Y011766D01*
X006467Y012430D01*
X010951Y012430D01*
X010902Y012311D01*
X010902Y012169D01*
X010956Y012037D01*
X011057Y011936D01*
X011189Y011882D01*
X011331Y011882D01*
X011397Y011909D01*
X011382Y011871D01*
X011382Y011731D01*
X010470Y010787D01*
X010410Y010727D01*
X010410Y010725D01*
X010409Y010723D01*
X010410Y010638D01*
X010410Y008697D01*
X010316Y008603D01*
X010262Y008471D01*
X010262Y008329D01*
X010316Y008197D01*
X010417Y008096D01*
X010549Y008042D01*
X010691Y008042D01*
X010823Y008096D01*
X010890Y008163D01*
X010890Y008153D01*
X011013Y008030D01*
X011013Y008030D01*
X011370Y007673D01*
X011339Y007386D02*
X009858Y007386D01*
X009810Y007228D02*
X011237Y007228D01*
X011222Y007069D02*
X009810Y007069D01*
X009810Y006911D02*
X011283Y006911D01*
X011877Y006911D02*
X016070Y006911D01*
X016070Y007069D02*
X011938Y007069D01*
X011923Y007228D02*
X016070Y007228D01*
X016070Y007386D02*
X011821Y007386D01*
X011790Y007545D02*
X016070Y007545D01*
X016070Y007703D02*
X011790Y007703D01*
X011775Y007862D02*
X016070Y007862D01*
X016070Y008020D02*
X012351Y008020D01*
X012498Y008179D02*
X016070Y008179D01*
X016070Y008337D02*
X012540Y008337D01*
X012517Y008496D02*
X016070Y008496D01*
X016070Y008654D02*
X012412Y008654D01*
X012246Y008971D02*
X016070Y008971D01*
X016070Y008813D02*
X011310Y008813D01*
X011310Y008971D02*
X011554Y008971D01*
X011325Y009130D02*
X011310Y009130D01*
X011310Y009605D02*
X011339Y009605D01*
X011310Y009764D02*
X016027Y009764D01*
X016023Y009605D02*
X012461Y009605D01*
X012537Y009447D02*
X016070Y009447D01*
X016070Y009288D02*
X012540Y009288D01*
X012475Y009130D02*
X016070Y009130D01*
X016690Y009130D02*
X017317Y009130D01*
X017340Y009120D02*
X017193Y009181D01*
X017081Y009293D01*
X017020Y009440D01*
X017020Y009600D01*
X017081Y009747D01*
X017193Y009859D01*
X017340Y009920D01*
X017980Y009920D01*
X018127Y009859D01*
X018239Y009747D01*
X018300Y009600D01*
X018300Y009440D01*
X018239Y009293D01*
X018127Y009181D01*
X017980Y009120D01*
X017340Y009120D01*
X017381Y008920D02*
X017303Y008905D01*
X017231Y008874D01*
X017165Y008831D01*
X017109Y008775D01*
X017066Y008709D01*
X017035Y008637D01*
X017020Y008559D01*
X017020Y008520D01*
X017660Y008520D01*
X017660Y008520D01*
X017660Y008920D01*
X017939Y008920D01*
X018017Y008905D01*
X018089Y008874D01*
X018155Y008831D01*
X018211Y008775D01*
X018254Y008709D01*
X018285Y008637D01*
X018300Y008559D01*
X018300Y008520D01*
X017660Y008520D01*
X017660Y008520D01*
X017660Y008920D01*
X017381Y008920D01*
X017147Y008813D02*
X016690Y008813D01*
X016690Y008971D02*
X023302Y008971D01*
X023222Y009130D02*
X021363Y009130D01*
X021340Y009120D02*
X021487Y009181D01*
X021599Y009293D01*
X021660Y009440D01*
X021660Y009600D01*
X021599Y009747D01*
X021487Y009859D01*
X021340Y009920D01*
X020700Y009920D01*
X020553Y009859D01*
X020441Y009747D01*
X020380Y009600D01*
X020380Y009440D01*
X020441Y009293D01*
X020553Y009181D01*
X020700Y009120D01*
X021340Y009120D01*
X021299Y008920D02*
X021020Y008920D01*
X021020Y008520D01*
X021020Y008520D01*
X021660Y008520D01*
X021660Y008559D01*
X021645Y008637D01*
X021614Y008709D01*
X021571Y008775D01*
X021515Y008831D01*
X021449Y008874D01*
X021377Y008905D01*
X021299Y008920D01*
X021533Y008813D02*
X023529Y008813D01*
X023688Y008654D02*
X021637Y008654D01*
X021660Y008520D02*
X021020Y008520D01*
X021020Y008520D01*
X021020Y008920D01*
X020741Y008920D01*
X020663Y008905D01*
X020591Y008874D01*
X020525Y008831D01*
X020469Y008775D01*
X020426Y008709D01*
X020395Y008637D01*
X020380Y008559D01*
X020380Y008520D01*
X021020Y008520D01*
X021020Y008120D01*
X021299Y008120D01*
X021377Y008135D01*
X021449Y008166D01*
X021515Y008209D01*
X021571Y008265D01*
X021614Y008331D01*
X021645Y008403D01*
X021660Y008481D01*
X021660Y008520D01*
X021660Y008496D02*
X023861Y008496D01*
X024019Y008337D02*
X021617Y008337D01*
X021469Y008179D02*
X024178Y008179D01*
X024336Y008020D02*
X016690Y008020D01*
X016690Y007862D02*
X024495Y007862D01*
X024639Y007703D02*
X016690Y007703D01*
X016690Y007545D02*
X024797Y007545D01*
X024870Y007386D02*
X016690Y007386D01*
X016690Y007228D02*
X024837Y007228D01*
X024822Y007069D02*
X016690Y007069D01*
X016690Y006911D02*
X024883Y006911D01*
X025477Y006911D02*
X027024Y006911D01*
X027050Y007069D02*
X025538Y007069D01*
X025523Y007228D02*
X027050Y007228D01*
X027050Y007386D02*
X025490Y007386D01*
X025924Y007545D02*
X027050Y007545D01*
X027020Y007703D02*
X025999Y007703D01*
X025985Y007862D02*
X026862Y007862D01*
X027138Y008179D02*
X028571Y008179D01*
X028591Y008166D02*
X028663Y008135D01*
X028741Y008120D01*
X029020Y008120D01*
X029299Y008120D01*
X029377Y008135D01*
X029449Y008166D01*
X029515Y008209D01*
X029571Y008265D01*
X029614Y008331D01*
X029645Y008403D01*
X029660Y008481D01*
X029660Y008520D01*
X029660Y008559D01*
X029645Y008637D01*
X029614Y008709D01*
X029571Y008775D01*
X029515Y008831D01*
X029449Y008874D01*
X029377Y008905D01*
X029299Y008920D01*
X029020Y008920D01*
X029020Y008520D01*
X029020Y008520D01*
X029660Y008520D01*
X029020Y008520D01*
X029020Y008520D01*
X029020Y008920D01*
X028741Y008920D01*
X028663Y008905D01*
X028591Y008874D01*
X028525Y008831D01*
X028469Y008775D01*
X028426Y008709D01*
X028395Y008637D01*
X028380Y008559D01*
X028380Y008520D01*
X029020Y008520D01*
X029020Y008120D01*
X029020Y008520D01*
X029020Y008520D01*
X029020Y008520D01*
X028380Y008520D01*
X028380Y008481D01*
X028395Y008403D01*
X028426Y008331D01*
X028469Y008265D01*
X028525Y008209D01*
X028591Y008166D01*
X028423Y008337D02*
X026737Y008337D01*
X026780Y008496D02*
X028380Y008496D01*
X028403Y008654D02*
X026757Y008654D01*
X026653Y008813D02*
X028507Y008813D01*
X028677Y009130D02*
X026483Y009130D01*
X026460Y009120D02*
X026607Y009181D01*
X026719Y009293D01*
X026780Y009440D01*
X026780Y009600D01*
X026719Y009747D01*
X026607Y009859D01*
X026460Y009920D01*
X025820Y009920D01*
X025673Y009859D01*
X025561Y009747D01*
X025500Y009600D01*
X025500Y009440D01*
X025561Y009293D01*
X025673Y009181D01*
X025820Y009120D01*
X026460Y009120D01*
X026714Y009288D02*
X028446Y009288D01*
X028441Y009293D02*
X028553Y009181D01*
X028700Y009120D01*
X029340Y009120D01*
X029487Y009181D01*
X029599Y009293D01*
X029660Y009440D01*
X029660Y009600D01*
X029599Y009747D01*
X029487Y009859D01*
X029340Y009920D01*
X028700Y009920D01*
X028553Y009859D01*
X028441Y009747D01*
X028380Y009600D01*
X028380Y009440D01*
X028441Y009293D01*
X028380Y009447D02*
X026780Y009447D01*
X026778Y009605D02*
X028382Y009605D01*
X028458Y009764D02*
X026702Y009764D01*
X026665Y010239D02*
X028495Y010239D01*
X028398Y010398D02*
X026762Y010398D01*
X026780Y010556D02*
X028380Y010556D01*
X028428Y010715D02*
X026732Y010715D01*
X025548Y010715D02*
X023962Y010715D01*
X024121Y010556D02*
X025500Y010556D01*
X025518Y010398D02*
X024279Y010398D01*
X024438Y010239D02*
X025615Y010239D01*
X025578Y009764D02*
X024913Y009764D01*
X024755Y009922D02*
X030106Y009922D01*
X030104Y009764D02*
X029582Y009764D01*
X029658Y009605D02*
X030188Y009605D01*
X029660Y009447D02*
X033340Y009447D01*
X033340Y009440D02*
X033401Y009293D01*
X033513Y009181D01*
X033660Y009120D01*
X034300Y009120D01*
X034447Y009181D01*
X034559Y009293D01*
X034620Y009440D01*
X034620Y009600D01*
X034559Y009747D01*
X034447Y009859D01*
X034300Y009920D01*
X033660Y009920D01*
X033513Y009859D01*
X033401Y009747D01*
X033340Y009600D01*
X033340Y009440D01*
X033342Y009605D02*
X030732Y009605D01*
X030816Y009764D02*
X033418Y009764D01*
X033513Y010181D02*
X033401Y010293D01*
X033340Y010440D01*
X033340Y010600D01*
X033401Y010747D01*
X033513Y010859D01*
X033660Y010920D01*
X034300Y010920D01*
X034447Y010859D01*
X034559Y010747D01*
X034620Y010600D01*
X034620Y010440D01*
X034559Y010293D01*
X034447Y010181D01*
X034300Y010120D01*
X033660Y010120D01*
X033513Y010181D01*
X033455Y010239D02*
X030670Y010239D01*
X030726Y010081D02*
X036333Y010081D01*
X036333Y010239D02*
X034505Y010239D01*
X034602Y010398D02*
X036333Y010398D01*
X036333Y010556D02*
X034620Y010556D01*
X034572Y010715D02*
X036333Y010715D01*
X036333Y010873D02*
X034413Y010873D01*
X033547Y010873D02*
X030044Y010873D01*
X030202Y010715D02*
X033388Y010715D01*
X033340Y010556D02*
X030361Y010556D01*
X030519Y010398D02*
X033358Y010398D01*
X033406Y009288D02*
X029594Y009288D01*
X029363Y009130D02*
X033637Y009130D01*
X033701Y008920D02*
X033623Y008905D01*
X033551Y008874D01*
X033485Y008831D01*
X033429Y008775D01*
X033386Y008709D01*
X033355Y008637D01*
X033340Y008559D01*
X033340Y008520D01*
X033980Y008520D01*
X033980Y008520D01*
X033980Y008920D01*
X034259Y008920D01*
X034337Y008905D01*
X034409Y008874D01*
X034475Y008831D01*
X034531Y008775D01*
X034574Y008709D01*
X034605Y008637D01*
X034620Y008559D01*
X034620Y008520D01*
X033980Y008520D01*
X033980Y008520D01*
X033980Y008920D01*
X033701Y008920D01*
X033467Y008813D02*
X031967Y008813D01*
X032068Y008654D02*
X033363Y008654D01*
X033340Y008520D02*
X033340Y008481D01*
X033355Y008403D01*
X033386Y008331D01*
X033429Y008265D01*
X033485Y008209D01*
X033551Y008166D01*
X033623Y008135D01*
X033701Y008120D01*
X033980Y008120D01*
X034259Y008120D01*
X034337Y008135D01*
X034409Y008166D01*
X034475Y008209D01*
X034531Y008265D01*
X034574Y008331D01*
X034605Y008403D01*
X034620Y008481D01*
X034620Y008520D01*
X033980Y008520D01*
X033980Y008120D01*
X033980Y008520D01*
X033980Y008520D01*
X033980Y008520D01*
X033340Y008520D01*
X033340Y008496D02*
X032079Y008496D01*
X032050Y008337D02*
X033383Y008337D01*
X033531Y008179D02*
X032050Y008179D01*
X032050Y008020D02*
X036333Y008020D01*
X036333Y007862D02*
X032050Y007862D01*
X032050Y007703D02*
X036333Y007703D01*
X036333Y007545D02*
X032050Y007545D01*
X032050Y007386D02*
X036333Y007386D01*
X036333Y007228D02*
X032050Y007228D01*
X032050Y007069D02*
X036333Y007069D01*
X036333Y006911D02*
X032050Y006911D01*
X032050Y006752D02*
X036333Y006752D01*
X036333Y006594D02*
X032050Y006594D01*
X032050Y006435D02*
X036333Y006435D01*
X036333Y006277D02*
X032050Y006277D01*
X032050Y006118D02*
X036333Y006118D01*
X036333Y005960D02*
X031978Y005960D01*
X031819Y005801D02*
X036333Y005801D01*
X036333Y005643D02*
X031661Y005643D01*
X031502Y005484D02*
X036333Y005484D01*
X036333Y005326D02*
X031344Y005326D01*
X031290Y005167D02*
X036333Y005167D01*
X036333Y005009D02*
X031290Y005009D01*
X031290Y004850D02*
X036333Y004850D01*
X036333Y004692D02*
X031290Y004692D01*
X031290Y004533D02*
X034248Y004533D01*
X034096Y004470D02*
X034452Y004617D01*
X034837Y004617D01*
X035193Y004470D01*
X035466Y004197D01*
X035614Y003841D01*
X035614Y003456D01*
X035466Y003100D01*
X035193Y002827D01*
X034837Y002680D01*
X034452Y002680D01*
X034096Y002827D01*
X033823Y003100D01*
X033676Y003456D01*
X033676Y003841D01*
X033823Y004197D01*
X034096Y004470D01*
X034000Y004375D02*
X032445Y004375D01*
X032479Y004216D02*
X033842Y004216D01*
X033765Y004058D02*
X032479Y004058D01*
X032479Y003899D02*
X033700Y003899D01*
X033676Y003741D02*
X032479Y003741D01*
X032479Y003582D02*
X033676Y003582D01*
X033689Y003424D02*
X032403Y003424D01*
X031526Y003424D02*
X031418Y003424D01*
X031203Y003265D02*
X033755Y003265D01*
X033820Y003107D02*
X031045Y003107D01*
X030886Y002948D02*
X033975Y002948D01*
X034186Y002790D02*
X030728Y002790D01*
X030569Y002631D02*
X036333Y002631D01*
X036333Y002473D02*
X030411Y002473D01*
X030252Y002314D02*
X036333Y002314D01*
X036333Y002156D02*
X001460Y002156D01*
X001460Y002314D02*
X008908Y002314D01*
X008917Y002304D02*
X008917Y002304D01*
X008749Y002473D02*
X001460Y002473D01*
X001460Y002631D02*
X008591Y002631D01*
X008432Y002790D02*
X003607Y002790D01*
X003697Y002827D02*
X003970Y003100D01*
X004117Y003456D01*
X004117Y003841D01*
X003970Y004197D01*
X003697Y004470D01*
X003341Y004617D01*
X002956Y004617D01*
X002600Y004470D01*
X002327Y004197D01*
X002180Y003841D01*
X002180Y003456D01*
X002327Y003100D01*
X002600Y002827D01*
X002956Y002680D01*
X003341Y002680D01*
X003697Y002827D01*
X003818Y002948D02*
X008299Y002948D01*
X008270Y003107D02*
X003973Y003107D01*
X004038Y003265D02*
X008270Y003265D01*
X008142Y003424D02*
X008018Y003424D01*
X007142Y003424D02*
X007018Y003424D01*
X006142Y003424D02*
X006008Y003424D01*
X005618Y003424D02*
X005542Y003424D01*
X005542Y003406D02*
X005542Y003882D01*
X005066Y003882D01*
X005066Y003545D01*
X005077Y003504D01*
X005098Y003467D01*
X005127Y003438D01*
X005164Y003417D01*
X005205Y003406D01*
X005542Y003406D01*
X005542Y003582D02*
X005618Y003582D01*
X005618Y003741D02*
X005542Y003741D01*
X005542Y003899D02*
X004094Y003899D01*
X004117Y003741D02*
X005066Y003741D01*
X005066Y003582D02*
X004117Y003582D01*
X004104Y003424D02*
X005152Y003424D01*
X005066Y003958D02*
X005542Y003958D01*
X005542Y004434D01*
X005205Y004434D01*
X005164Y004423D01*
X005127Y004402D01*
X005098Y004373D01*
X005077Y004336D01*
X005066Y004295D01*
X005066Y003958D01*
X005066Y004058D02*
X004028Y004058D01*
X003951Y004216D02*
X005066Y004216D01*
X005100Y004375D02*
X003793Y004375D01*
X003545Y004533D02*
X008230Y004533D01*
X008259Y004692D02*
X001460Y004692D01*
X001460Y004850D02*
X008392Y004850D01*
X008550Y005009D02*
X001460Y005009D01*
X001460Y005167D02*
X008709Y005167D01*
X008867Y005326D02*
X001460Y005326D01*
X001460Y005484D02*
X009026Y005484D01*
X009184Y005643D02*
X001460Y005643D01*
X001460Y005801D02*
X009190Y005801D01*
X009190Y005960D02*
X001460Y005960D01*
X001460Y006118D02*
X009190Y006118D01*
X009190Y006277D02*
X001460Y006277D01*
X001460Y006435D02*
X009190Y006435D01*
X009810Y006435D02*
X016070Y006435D01*
X016070Y006277D02*
X009810Y006277D01*
X009810Y006118D02*
X016070Y006118D01*
X016070Y005960D02*
X009810Y005960D01*
X009810Y005801D02*
X016070Y005801D01*
X016070Y005643D02*
X009810Y005643D01*
X009810Y005484D02*
X016070Y005484D01*
X016070Y005326D02*
X009744Y005326D01*
X009585Y005167D02*
X016069Y005167D01*
X015910Y005009D02*
X009427Y005009D01*
X009268Y004850D02*
X015752Y004850D01*
X015724Y004823D02*
X015724Y004823D01*
X015619Y004692D02*
X009110Y004692D01*
X008951Y004533D02*
X015590Y004533D01*
X015460Y004375D02*
X015420Y004375D01*
X016311Y004533D02*
X023595Y004533D01*
X023753Y004692D02*
X016470Y004692D01*
X016628Y004850D02*
X023912Y004850D01*
X024070Y005009D02*
X016690Y005009D01*
X016690Y005167D02*
X024229Y005167D01*
X024387Y005326D02*
X016690Y005326D01*
X016690Y005484D02*
X024546Y005484D01*
X024704Y005643D02*
X016690Y005643D01*
X016690Y005801D02*
X024681Y005801D01*
X024703Y005960D02*
X016690Y005960D01*
X016690Y006118D02*
X024819Y006118D01*
X025221Y006118D02*
X031260Y006118D01*
X031418Y006277D02*
X016690Y006277D01*
X016690Y006435D02*
X026958Y006435D01*
X026902Y006594D02*
X016690Y006594D01*
X016690Y006752D02*
X026918Y006752D01*
X027496Y006911D02*
X031430Y006911D01*
X031430Y007069D02*
X027470Y007069D01*
X027470Y007228D02*
X031430Y007228D01*
X031430Y007386D02*
X027470Y007386D01*
X027470Y007545D02*
X031430Y007545D01*
X031430Y007703D02*
X027470Y007703D01*
X027455Y007862D02*
X031430Y007862D01*
X031430Y008020D02*
X027297Y008020D01*
X026140Y008654D02*
X026140Y008654D01*
X026140Y008813D02*
X026140Y008813D01*
X025797Y009130D02*
X025390Y009130D01*
X025389Y009288D02*
X025566Y009288D01*
X025500Y009447D02*
X025230Y009447D01*
X025072Y009605D02*
X025502Y009605D01*
X025390Y008971D02*
X036333Y008971D01*
X036333Y008813D02*
X034493Y008813D01*
X034597Y008654D02*
X036333Y008654D01*
X036333Y008496D02*
X034620Y008496D01*
X034577Y008337D02*
X036333Y008337D01*
X036333Y008179D02*
X034429Y008179D01*
X033980Y008179D02*
X033980Y008179D01*
X033980Y008337D02*
X033980Y008337D01*
X033980Y008496D02*
X033980Y008496D01*
X033980Y008654D02*
X033980Y008654D01*
X033980Y008813D02*
X033980Y008813D01*
X034323Y009130D02*
X036333Y009130D01*
X036333Y009288D02*
X034554Y009288D01*
X034620Y009447D02*
X036333Y009447D01*
X036333Y009605D02*
X034618Y009605D01*
X034542Y009764D02*
X036333Y009764D01*
X036333Y009922D02*
X030814Y009922D01*
X030194Y010081D02*
X024596Y010081D01*
X024011Y009605D02*
X022732Y009605D01*
X022816Y009764D02*
X023856Y009764D01*
X023700Y009922D02*
X022814Y009922D01*
X022726Y010081D02*
X023545Y010081D01*
X023389Y010239D02*
X022670Y010239D01*
X022670Y010398D02*
X023233Y010398D01*
X023078Y010556D02*
X022670Y010556D01*
X022522Y010715D02*
X022922Y010715D01*
X022767Y010873D02*
X022364Y010873D01*
X022087Y010556D02*
X021660Y010556D01*
X021642Y010398D02*
X022246Y010398D01*
X022250Y010239D02*
X021545Y010239D01*
X021582Y009764D02*
X022104Y009764D01*
X022106Y009922D02*
X016645Y009922D01*
X016733Y009764D02*
X017098Y009764D01*
X017022Y009605D02*
X016737Y009605D01*
X016690Y009447D02*
X017020Y009447D01*
X017086Y009288D02*
X016690Y009288D01*
X016115Y009922D02*
X011310Y009922D01*
X011310Y010081D02*
X011374Y010081D01*
X011630Y010873D02*
X017227Y010873D01*
X017193Y010859D02*
X017081Y010747D01*
X017020Y010600D01*
X017020Y010440D01*
X017081Y010293D01*
X017193Y010181D01*
X017340Y010120D01*
X017980Y010120D01*
X018127Y010181D01*
X018239Y010293D01*
X018300Y010440D01*
X018300Y010600D01*
X018239Y010747D01*
X018127Y010859D01*
X017980Y010920D01*
X017340Y010920D01*
X017193Y010859D01*
X017068Y010715D02*
X012329Y010715D01*
X012492Y010556D02*
X017020Y010556D01*
X017038Y010398D02*
X012540Y010398D01*
X012523Y010239D02*
X017135Y010239D01*
X018185Y010239D02*
X020495Y010239D01*
X020398Y010398D02*
X018282Y010398D01*
X018300Y010556D02*
X020380Y010556D01*
X020428Y010715D02*
X018252Y010715D01*
X018093Y010873D02*
X019370Y010873D01*
X019211Y011032D02*
X011788Y011032D01*
X011947Y011190D02*
X019053Y011190D01*
X018894Y011349D02*
X012585Y011349D01*
X012754Y011507D02*
X018736Y011507D01*
X018715Y011666D02*
X012872Y011666D01*
X012898Y011824D02*
X018613Y011824D01*
X018601Y011983D02*
X012852Y011983D01*
X011382Y011824D02*
X005861Y011824D01*
X005725Y011666D02*
X011318Y011666D01*
X011165Y011507D02*
X001460Y011507D01*
X001460Y011349D02*
X011012Y011349D01*
X010859Y011190D02*
X001460Y011190D01*
X001460Y011032D02*
X010706Y011032D01*
X010553Y010873D02*
X009133Y010873D01*
X009167Y010859D02*
X009020Y010920D01*
X008380Y010920D01*
X008233Y010859D01*
X008121Y010747D01*
X008060Y010600D01*
X008060Y010440D01*
X008121Y010293D01*
X008233Y010181D01*
X008380Y010120D01*
X009020Y010120D01*
X009167Y010181D01*
X009279Y010293D01*
X009340Y010440D01*
X009340Y010600D01*
X009279Y010747D01*
X009167Y010859D01*
X009292Y010715D02*
X010409Y010715D01*
X010410Y010556D02*
X009340Y010556D01*
X009322Y010398D02*
X010410Y010398D01*
X010410Y010239D02*
X009225Y010239D01*
X009020Y009920D02*
X008380Y009920D01*
X008233Y009859D01*
X008121Y009747D01*
X008060Y009600D01*
X008060Y009440D01*
X008121Y009293D01*
X008233Y009181D01*
X008380Y009120D01*
X009020Y009120D01*
X009167Y009181D01*
X009279Y009293D01*
X009340Y009440D01*
X009340Y009600D01*
X009279Y009747D01*
X009167Y009859D01*
X009020Y009920D01*
X009262Y009764D02*
X010410Y009764D01*
X010410Y009922D02*
X001460Y009922D01*
X001460Y009764D02*
X003018Y009764D01*
X003001Y009747D02*
X002940Y009600D01*
X002940Y009440D01*
X003001Y009293D01*
X003113Y009181D01*
X003260Y009120D01*
X003900Y009120D01*
X004047Y009181D01*
X004159Y009293D01*
X004220Y009440D01*
X004220Y009600D01*
X004159Y009747D01*
X004047Y009859D01*
X003900Y009920D01*
X003260Y009920D01*
X003113Y009859D01*
X003001Y009747D01*
X002942Y009605D02*
X001460Y009605D01*
X001460Y009447D02*
X002940Y009447D01*
X003006Y009288D02*
X001460Y009288D01*
X001460Y009130D02*
X003237Y009130D01*
X003301Y008920D02*
X003223Y008905D01*
X003151Y008874D01*
X003085Y008831D01*
X003029Y008775D01*
X002986Y008709D01*
X002955Y008637D01*
X002940Y008559D01*
X002940Y008520D01*
X003580Y008520D01*
X003580Y008520D01*
X003580Y008920D01*
X003859Y008920D01*
X003937Y008905D01*
X004009Y008874D01*
X004075Y008831D01*
X004131Y008775D01*
X004174Y008709D01*
X004205Y008637D01*
X004220Y008559D01*
X004220Y008520D01*
X003580Y008520D01*
X003580Y008520D01*
X003580Y008920D01*
X003301Y008920D01*
X003067Y008813D02*
X001460Y008813D01*
X001460Y008971D02*
X004502Y008971D01*
X004509Y009130D02*
X003923Y009130D01*
X004154Y009288D02*
X004601Y009288D01*
X004220Y009447D02*
X008060Y009447D01*
X008062Y009605D02*
X004218Y009605D01*
X004142Y009764D02*
X008138Y009764D01*
X008126Y009288D02*
X005119Y009288D01*
X005211Y009130D02*
X008357Y009130D01*
X008421Y008920D02*
X008343Y008905D01*
X008271Y008874D01*
X008205Y008831D01*
X008149Y008775D01*
X008106Y008709D01*
X008075Y008637D01*
X008060Y008559D01*
X008060Y008520D01*
X008700Y008520D01*
X008700Y008520D01*
X008700Y008920D01*
X008979Y008920D01*
X009057Y008905D01*
X009129Y008874D01*
X009195Y008831D01*
X009251Y008775D01*
X009294Y008709D01*
X009325Y008637D01*
X009340Y008559D01*
X009340Y008520D01*
X008700Y008520D01*
X008700Y008520D01*
X008700Y008920D01*
X008421Y008920D01*
X008187Y008813D02*
X005170Y008813D01*
X005170Y008654D02*
X008083Y008654D01*
X008060Y008520D02*
X008060Y008481D01*
X008075Y008403D01*
X008106Y008331D01*
X008149Y008265D01*
X008205Y008209D01*
X008271Y008166D01*
X008343Y008135D01*
X008421Y008120D01*
X008700Y008120D01*
X008979Y008120D01*
X009057Y008135D01*
X009129Y008166D01*
X009195Y008209D01*
X009251Y008265D01*
X009294Y008331D01*
X009325Y008403D01*
X009340Y008481D01*
X009340Y008520D01*
X008700Y008520D01*
X008700Y008120D01*
X008700Y008520D01*
X008700Y008520D01*
X008700Y008520D01*
X008060Y008520D01*
X008060Y008496D02*
X005170Y008496D01*
X005170Y008337D02*
X008103Y008337D01*
X008251Y008179D02*
X005170Y008179D01*
X005170Y008020D02*
X011023Y008020D01*
X011310Y008654D02*
X011388Y008654D01*
X011900Y008654D02*
X011900Y008654D01*
X011900Y008496D02*
X011900Y008496D01*
X011900Y008360D02*
X011900Y007960D01*
X011900Y008360D01*
X011900Y008360D01*
X011900Y008337D02*
X011900Y008337D01*
X011900Y008179D02*
X011900Y008179D01*
X011900Y008020D02*
X011900Y008020D01*
X010335Y008179D02*
X009149Y008179D01*
X009297Y008337D02*
X010262Y008337D01*
X010272Y008496D02*
X009340Y008496D01*
X009317Y008654D02*
X010367Y008654D01*
X010410Y008813D02*
X009213Y008813D01*
X009043Y009130D02*
X010410Y009130D01*
X010410Y009288D02*
X009274Y009288D01*
X009340Y009447D02*
X010410Y009447D01*
X010410Y009605D02*
X009338Y009605D01*
X008700Y008813D02*
X008700Y008813D01*
X008700Y008654D02*
X008700Y008654D01*
X008700Y008496D02*
X008700Y008496D01*
X008700Y008337D02*
X008700Y008337D01*
X008700Y008179D02*
X008700Y008179D01*
X009810Y006752D02*
X016070Y006752D01*
X016070Y006594D02*
X009810Y006594D01*
X010045Y004375D02*
X012460Y004375D01*
X012458Y004373D02*
X012437Y004336D01*
X012426Y004295D01*
X012426Y003958D01*
X012902Y003958D01*
X012902Y004434D01*
X012565Y004434D01*
X012524Y004423D01*
X012487Y004402D01*
X012458Y004373D01*
X012426Y004216D02*
X010079Y004216D01*
X010079Y004058D02*
X012426Y004058D01*
X012426Y003882D02*
X012426Y003545D01*
X012437Y003504D01*
X012458Y003467D01*
X012487Y003438D01*
X012524Y003417D01*
X012565Y003406D01*
X012902Y003406D01*
X012902Y003882D01*
X012426Y003882D01*
X012426Y003741D02*
X010079Y003741D01*
X010079Y003899D02*
X012902Y003899D01*
X012902Y003741D02*
X012978Y003741D01*
X012978Y003582D02*
X012902Y003582D01*
X012902Y003424D02*
X012978Y003424D01*
X013368Y003424D02*
X013502Y003424D01*
X012978Y004058D02*
X012902Y004058D01*
X012902Y004216D02*
X012978Y004216D01*
X012978Y004375D02*
X012902Y004375D01*
X013420Y004375D02*
X013460Y004375D01*
X014420Y004375D02*
X014460Y004375D01*
X014502Y003424D02*
X014378Y003424D01*
X015130Y002948D02*
X009150Y002948D01*
X008992Y003107D02*
X015288Y003107D01*
X015447Y003265D02*
X008890Y003265D01*
X009018Y003424D02*
X009126Y003424D01*
X010003Y003424D02*
X012512Y003424D01*
X012426Y003582D02*
X010079Y003582D01*
X009084Y004375D02*
X009060Y004375D01*
X008100Y004375D02*
X008060Y004375D01*
X007100Y004375D02*
X007060Y004375D01*
X006100Y004375D02*
X006060Y004375D01*
X005618Y004375D02*
X005542Y004375D01*
X005542Y004216D02*
X005618Y004216D01*
X005618Y004058D02*
X005542Y004058D01*
X002752Y004533D02*
X001460Y004533D01*
X001460Y004375D02*
X002504Y004375D01*
X002346Y004216D02*
X001460Y004216D01*
X001460Y004058D02*
X002269Y004058D01*
X002203Y003899D02*
X001460Y003899D01*
X001460Y003741D02*
X002180Y003741D01*
X002180Y003582D02*
X001460Y003582D01*
X001460Y003424D02*
X002193Y003424D01*
X002259Y003265D02*
X001460Y003265D01*
X001460Y003107D02*
X002324Y003107D01*
X002479Y002948D02*
X001460Y002948D01*
X001460Y002790D02*
X002690Y002790D01*
X001460Y001997D02*
X036333Y001997D01*
X036333Y001960D02*
X001460Y001960D01*
X001460Y032896D01*
X036333Y032896D01*
X036333Y001960D01*
X036333Y002790D02*
X035103Y002790D01*
X035314Y002948D02*
X036333Y002948D01*
X036333Y003107D02*
X035469Y003107D01*
X035535Y003265D02*
X036333Y003265D01*
X036333Y003424D02*
X035600Y003424D01*
X035614Y003582D02*
X036333Y003582D01*
X036333Y003741D02*
X035614Y003741D01*
X035590Y003899D02*
X036333Y003899D01*
X036333Y004058D02*
X035524Y004058D01*
X035447Y004216D02*
X036333Y004216D01*
X036333Y004375D02*
X035289Y004375D01*
X035041Y004533D02*
X036333Y004533D01*
X031484Y004375D02*
X031460Y004375D01*
X030670Y004533D02*
X024471Y004533D01*
X024630Y004692D02*
X030670Y004692D01*
X030670Y004850D02*
X024788Y004850D01*
X024947Y005009D02*
X030670Y005009D01*
X030670Y005167D02*
X025105Y005167D01*
X025264Y005326D02*
X030670Y005326D01*
X030679Y005484D02*
X025330Y005484D01*
X025330Y005643D02*
X030784Y005643D01*
X030943Y005801D02*
X025359Y005801D01*
X025337Y005960D02*
X031101Y005960D01*
X031430Y006435D02*
X027562Y006435D01*
X027618Y006594D02*
X031430Y006594D01*
X031430Y006752D02*
X027602Y006752D01*
X029020Y008179D02*
X029020Y008179D01*
X029020Y008337D02*
X029020Y008337D01*
X029020Y008496D02*
X029020Y008496D01*
X029020Y008654D02*
X029020Y008654D01*
X029020Y008813D02*
X029020Y008813D01*
X029533Y008813D02*
X031513Y008813D01*
X031412Y008654D02*
X029637Y008654D01*
X029660Y008496D02*
X031401Y008496D01*
X031430Y008337D02*
X029617Y008337D01*
X029469Y008179D02*
X031430Y008179D01*
X030084Y010239D02*
X029545Y010239D01*
X029642Y010398D02*
X029926Y010398D01*
X029767Y010556D02*
X029660Y010556D01*
X029885Y011032D02*
X036333Y011032D01*
X036333Y011190D02*
X024127Y011190D01*
X023968Y011349D02*
X036333Y011349D01*
X036333Y011507D02*
X023810Y011507D01*
X023533Y011190D02*
X023487Y011190D01*
X023374Y011349D02*
X023328Y011349D01*
X023216Y011507D02*
X023170Y011507D01*
X023057Y011666D02*
X020925Y011666D01*
X021612Y010715D02*
X021929Y010715D01*
X022194Y010081D02*
X012426Y010081D01*
X010410Y010081D02*
X001460Y010081D01*
X001460Y010239D02*
X003055Y010239D01*
X003001Y010293D02*
X003113Y010181D01*
X003260Y010120D01*
X003900Y010120D01*
X004047Y010181D01*
X004159Y010293D01*
X004220Y010440D01*
X004220Y010600D01*
X004159Y010747D01*
X004047Y010859D01*
X003900Y010920D01*
X003260Y010920D01*
X003113Y010859D01*
X003001Y010747D01*
X002940Y010600D01*
X002940Y010440D01*
X003001Y010293D01*
X002958Y010398D02*
X001460Y010398D01*
X001460Y010556D02*
X002940Y010556D01*
X002988Y010715D02*
X001460Y010715D01*
X001460Y010873D02*
X003147Y010873D01*
X004013Y010873D02*
X008267Y010873D01*
X008108Y010715D02*
X004172Y010715D01*
X004220Y010556D02*
X008060Y010556D01*
X008078Y010398D02*
X004202Y010398D01*
X004105Y010239D02*
X008175Y010239D01*
X010410Y008971D02*
X005218Y008971D01*
X004550Y008813D02*
X004093Y008813D01*
X004197Y008654D02*
X004550Y008654D01*
X004550Y008496D02*
X004220Y008496D01*
X004220Y008481D02*
X004220Y008520D01*
X003580Y008520D01*
X003580Y008120D01*
X003859Y008120D01*
X003937Y008135D01*
X004009Y008166D01*
X004075Y008209D01*
X004131Y008265D01*
X004174Y008331D01*
X004205Y008403D01*
X004220Y008481D01*
X004177Y008337D02*
X004550Y008337D01*
X004520Y008179D02*
X004029Y008179D01*
X004203Y007862D02*
X001460Y007862D01*
X001460Y008020D02*
X004362Y008020D01*
X004045Y007703D02*
X001460Y007703D01*
X001460Y007545D02*
X003886Y007545D01*
X003728Y007386D02*
X001460Y007386D01*
X001460Y007228D02*
X003569Y007228D01*
X003580Y008120D02*
X003301Y008120D01*
X003223Y008135D01*
X003151Y008166D01*
X003085Y008209D01*
X003029Y008265D01*
X002986Y008331D01*
X002955Y008403D01*
X002940Y008481D01*
X002940Y008520D01*
X003580Y008520D01*
X003580Y008520D01*
X003580Y008520D01*
X003580Y008120D01*
X003580Y008179D02*
X003580Y008179D01*
X003580Y008337D02*
X003580Y008337D01*
X003580Y008496D02*
X003580Y008496D01*
X003580Y008654D02*
X003580Y008654D01*
X003580Y008813D02*
X003580Y008813D01*
X002963Y008654D02*
X001460Y008654D01*
X001460Y008496D02*
X002940Y008496D01*
X002983Y008337D02*
X001460Y008337D01*
X001460Y008179D02*
X003131Y008179D01*
X001460Y011666D02*
X005275Y011666D01*
X005173Y011824D02*
X001460Y011824D01*
X001460Y011983D02*
X005161Y011983D01*
X005242Y012141D02*
X001460Y012141D01*
X001460Y012300D02*
X005743Y012300D01*
X005901Y012458D02*
X001460Y012458D01*
X001460Y012617D02*
X006060Y012617D01*
X006218Y012775D02*
X001460Y012775D01*
X001460Y012934D02*
X010596Y012934D01*
X010582Y013092D02*
X001460Y013092D01*
X001460Y013251D02*
X007260Y013251D01*
X007296Y013215D02*
X007428Y013160D01*
X007572Y013160D01*
X007704Y013215D01*
X007805Y013316D01*
X007860Y013448D01*
X007860Y013992D01*
X007805Y014124D01*
X007704Y014225D01*
X007572Y014280D01*
X007428Y014280D01*
X007296Y014225D01*
X007195Y014124D01*
X007140Y013992D01*
X007140Y013448D01*
X007195Y013316D01*
X007296Y013215D01*
X007156Y013409D02*
X001460Y013409D01*
X001460Y013568D02*
X002358Y013568D01*
X002458Y013468D02*
X002839Y013468D01*
X003109Y013737D01*
X003109Y014119D01*
X002839Y014388D01*
X002458Y014388D01*
X002189Y014119D01*
X002189Y013737D01*
X002458Y013468D01*
X002200Y013726D02*
X001460Y013726D01*
X001460Y013885D02*
X002189Y013885D01*
X002189Y014043D02*
X001460Y014043D01*
X001460Y014202D02*
X002271Y014202D01*
X002430Y014360D02*
X001460Y014360D01*
X001460Y014519D02*
X002407Y014519D01*
X002458Y014468D02*
X002839Y014468D01*
X003109Y014737D01*
X003109Y015119D01*
X002839Y015388D01*
X002458Y015388D01*
X002189Y015119D01*
X002189Y014737D01*
X002458Y014468D01*
X002249Y014677D02*
X001460Y014677D01*
X001460Y014836D02*
X002189Y014836D01*
X002189Y014994D02*
X001460Y014994D01*
X001460Y015153D02*
X002222Y015153D01*
X002381Y015311D02*
X001460Y015311D01*
X001460Y015470D02*
X002456Y015470D01*
X002458Y015468D02*
X002839Y015468D01*
X003109Y015737D01*
X003109Y016119D01*
X002839Y016388D01*
X002458Y016388D01*
X002189Y016119D01*
X002189Y015737D01*
X002458Y015468D01*
X002298Y015628D02*
X001460Y015628D01*
X001460Y015787D02*
X002189Y015787D01*
X002189Y015945D02*
X001460Y015945D01*
X001460Y016104D02*
X002189Y016104D01*
X002332Y016262D02*
X001460Y016262D01*
X001460Y016421D02*
X004498Y016421D01*
X004468Y016433D02*
X004593Y016381D01*
X004727Y016381D01*
X004852Y016433D01*
X004947Y016528D01*
X004999Y016653D01*
X004999Y016680D01*
X009641Y016680D01*
X009641Y016653D01*
X009693Y016528D01*
X009788Y016433D01*
X009913Y016381D01*
X010047Y016381D01*
X010172Y016433D01*
X010267Y016528D01*
X010319Y016653D01*
X010319Y016787D01*
X010297Y016840D01*
X010621Y016840D01*
X010668Y016793D01*
X010793Y016741D01*
X010927Y016741D01*
X011050Y016792D01*
X011050Y015033D01*
X011173Y014910D01*
X011382Y014701D01*
X011382Y014569D01*
X011436Y014437D01*
X011537Y014336D01*
X011669Y014282D01*
X011811Y014282D01*
X011943Y014336D01*
X012044Y014437D01*
X012098Y014569D01*
X012098Y014711D01*
X012047Y014836D01*
X012047Y014836D01*
X012182Y014701D01*
X012182Y014569D01*
X012236Y014437D01*
X012337Y014336D01*
X012469Y014282D01*
X012611Y014282D01*
X012743Y014336D01*
X012844Y014437D01*
X012898Y014569D01*
X012898Y014625D01*
X013130Y014393D01*
X013253Y014270D01*
X015333Y014270D01*
X015401Y014202D01*
X015401Y014093D01*
X015453Y013968D01*
X015548Y013873D01*
X015673Y013821D01*
X015807Y013821D01*
X015932Y013873D01*
X016027Y013968D01*
X016079Y014093D01*
X016079Y014227D01*
X016027Y014352D01*
X015932Y014447D01*
X015807Y014499D01*
X015698Y014499D01*
X015607Y014590D01*
X015791Y014590D01*
X015868Y014513D01*
X015993Y014461D01*
X016127Y014461D01*
X016252Y014513D01*
X016347Y014608D01*
X016399Y014733D01*
X016399Y014867D01*
X016347Y014992D01*
X016252Y015087D01*
X016127Y015139D01*
X015993Y015139D01*
X015868Y015087D01*
X015791Y015010D01*
X013737Y015010D01*
X013804Y015077D01*
X013858Y015209D01*
X013858Y015351D01*
X013804Y015483D01*
X013703Y015584D01*
X013571Y015638D01*
X013439Y015638D01*
X013390Y015687D01*
X013390Y018887D01*
X013267Y019010D01*
X013058Y019219D01*
X013058Y019351D01*
X013004Y019483D01*
X012903Y019584D01*
X012771Y019638D01*
X012629Y019638D01*
X012497Y019584D01*
X012396Y019483D01*
X012342Y019351D01*
X012342Y019209D01*
X012396Y019077D01*
X012433Y019040D01*
X012396Y019003D01*
X012380Y018964D01*
X012364Y019003D01*
X012263Y019104D01*
X012131Y019158D01*
X011989Y019158D01*
X011857Y019104D01*
X011756Y019003D01*
X011702Y018871D01*
X011702Y018739D01*
X011050Y018087D01*
X011050Y017368D01*
X010927Y017419D01*
X010839Y017419D01*
X010839Y017427D01*
X010787Y017552D01*
X010692Y017647D01*
X010567Y017699D01*
X010433Y017699D01*
X010380Y017677D01*
X010460Y017757D01*
X010924Y018221D01*
X011047Y018221D01*
X011172Y018273D01*
X011267Y018368D01*
X011319Y018493D01*
X011319Y018627D01*
X011267Y018752D01*
X011172Y018847D01*
X011047Y018899D01*
X010913Y018899D01*
X010788Y018847D01*
X010693Y018752D01*
X010641Y018627D01*
X010641Y018504D01*
X010177Y018040D01*
X009857Y018040D01*
X009537Y017720D01*
X005879Y017720D01*
X005879Y017747D01*
X005827Y017872D01*
X005732Y017967D01*
X005607Y018019D01*
X005473Y018019D01*
X005348Y017967D01*
X005253Y017872D01*
X005235Y017828D01*
X005183Y017880D01*
X004619Y017880D01*
X004532Y017967D01*
X004407Y018019D01*
X004273Y018019D01*
X004148Y017967D01*
X004089Y017908D01*
X003669Y017908D01*
X003669Y017948D01*
X004109Y017948D01*
X004109Y018119D01*
X003839Y018388D01*
X003669Y018388D01*
X003669Y017948D01*
X003629Y017948D01*
X003629Y018388D01*
X003458Y018388D01*
X003189Y018119D01*
X003189Y017948D01*
X003628Y017948D01*
X003628Y017908D01*
X003189Y017908D01*
X003189Y017737D01*
X003458Y017468D01*
X003629Y017468D01*
X003629Y017908D01*
X003669Y017908D01*
X003669Y017468D01*
X003839Y017468D01*
X004001Y017630D01*
X004001Y017613D01*
X004053Y017488D01*
X004148Y017393D01*
X004227Y017360D01*
X004148Y017327D01*
X004053Y017232D01*
X004036Y017191D01*
X003839Y017388D01*
X003458Y017388D01*
X003189Y017119D01*
X003189Y016737D01*
X003458Y016468D01*
X003839Y016468D01*
X004109Y016737D01*
X004109Y016792D01*
X004148Y016753D01*
X004273Y016701D01*
X004321Y016701D01*
X004321Y016653D01*
X004373Y016528D01*
X004468Y016433D01*
X004352Y016579D02*
X003950Y016579D01*
X003839Y016388D02*
X003669Y016388D01*
X003669Y015948D01*
X004109Y015948D01*
X004109Y016119D01*
X003839Y016388D01*
X003965Y016262D02*
X011050Y016262D01*
X011050Y016104D02*
X004109Y016104D01*
X004109Y015908D02*
X003669Y015908D01*
X003669Y015948D01*
X003629Y015948D01*
X003629Y016388D01*
X003458Y016388D01*
X003189Y016119D01*
X003189Y015948D01*
X003628Y015948D01*
X003628Y015908D01*
X003189Y015908D01*
X003189Y015737D01*
X003458Y015468D01*
X003629Y015468D01*
X003629Y015908D01*
X003669Y015908D01*
X003669Y015468D01*
X003839Y015468D01*
X004109Y015737D01*
X004109Y015908D01*
X004109Y015787D02*
X011050Y015787D01*
X011050Y015945D02*
X003669Y015945D01*
X003628Y015945D02*
X003109Y015945D01*
X003109Y015787D02*
X003189Y015787D01*
X003298Y015628D02*
X002999Y015628D01*
X002841Y015470D02*
X003456Y015470D01*
X003458Y015388D02*
X003189Y015119D01*
X003189Y014737D01*
X003458Y014468D01*
X003839Y014468D01*
X004109Y014737D01*
X004109Y015119D01*
X003839Y015388D01*
X003458Y015388D01*
X003381Y015311D02*
X002916Y015311D01*
X003075Y015153D02*
X003222Y015153D01*
X003189Y014994D02*
X003109Y014994D01*
X003109Y014836D02*
X003189Y014836D01*
X003249Y014677D02*
X003048Y014677D01*
X002890Y014519D02*
X003407Y014519D01*
X003458Y014388D02*
X003189Y014119D01*
X003189Y013737D01*
X003458Y013468D01*
X003839Y013468D01*
X004109Y013737D01*
X004109Y014119D01*
X003839Y014388D01*
X003458Y014388D01*
X003430Y014360D02*
X002867Y014360D01*
X003026Y014202D02*
X003271Y014202D01*
X003189Y014043D02*
X003109Y014043D01*
X003109Y013885D02*
X003189Y013885D01*
X003200Y013726D02*
X003097Y013726D01*
X002939Y013568D02*
X003358Y013568D01*
X003939Y013568D02*
X007140Y013568D01*
X007140Y013726D02*
X004097Y013726D01*
X004109Y013885D02*
X007140Y013885D01*
X007161Y014043D02*
X004109Y014043D01*
X004026Y014202D02*
X007272Y014202D01*
X007728Y014202D02*
X009272Y014202D01*
X009296Y014225D02*
X009195Y014124D01*
X009140Y013992D01*
X009140Y013448D01*
X009195Y013316D01*
X009296Y013215D01*
X009428Y013160D01*
X009572Y013160D01*
X009704Y013215D01*
X009805Y013316D01*
X009860Y013448D01*
X009860Y013992D01*
X009805Y014124D01*
X009704Y014225D01*
X009572Y014280D01*
X009428Y014280D01*
X009296Y014225D01*
X009161Y014043D02*
X007839Y014043D01*
X007860Y013885D02*
X009140Y013885D01*
X009140Y013726D02*
X007860Y013726D01*
X007860Y013568D02*
X009140Y013568D01*
X009156Y013409D02*
X007844Y013409D01*
X007740Y013251D02*
X009260Y013251D01*
X009740Y013251D02*
X010644Y013251D01*
X011236Y013251D02*
X018619Y013251D01*
X018601Y013409D02*
X009844Y013409D01*
X009860Y013568D02*
X018668Y013568D01*
X018730Y013726D02*
X009860Y013726D01*
X009860Y013885D02*
X015536Y013885D01*
X015422Y014043D02*
X009839Y014043D01*
X009728Y014202D02*
X015401Y014202D01*
X015678Y014519D02*
X015862Y014519D01*
X016019Y014360D02*
X018730Y014360D01*
X018730Y014202D02*
X016079Y014202D01*
X016058Y014043D02*
X018730Y014043D01*
X018730Y013885D02*
X015944Y013885D01*
X016258Y014519D02*
X018730Y014519D01*
X018730Y014677D02*
X016376Y014677D01*
X016399Y014836D02*
X018730Y014836D01*
X018399Y014994D02*
X016345Y014994D01*
X018262Y015311D02*
X013858Y015311D01*
X013835Y015153D02*
X018285Y015153D01*
X018311Y015470D02*
X013809Y015470D01*
X013596Y015628D02*
X018287Y015628D01*
X018262Y015787D02*
X013390Y015787D01*
X013390Y015945D02*
X018309Y015945D01*
X018513Y016104D02*
X013390Y016104D01*
X013390Y016262D02*
X018461Y016262D01*
X018302Y016421D02*
X013390Y016421D01*
X013390Y016579D02*
X018144Y016579D01*
X017985Y016738D02*
X013390Y016738D01*
X013390Y016896D02*
X017827Y016896D01*
X017668Y017055D02*
X013390Y017055D01*
X013390Y017213D02*
X014408Y017213D01*
X014298Y017372D02*
X013390Y017372D01*
X013390Y017530D02*
X014281Y017530D01*
X014349Y017689D02*
X013390Y017689D01*
X013390Y017847D02*
X014770Y017847D01*
X014891Y017689D02*
X016561Y017689D01*
X017040Y017372D02*
X017351Y017372D01*
X017510Y017213D02*
X014832Y017213D01*
X014612Y018006D02*
X013390Y018006D01*
X013390Y018164D02*
X014453Y018164D01*
X014098Y018323D02*
X013390Y018323D01*
X013390Y018481D02*
X014006Y018481D01*
X014006Y018640D02*
X013390Y018640D01*
X013390Y018798D02*
X014099Y018798D01*
X014581Y018798D02*
X014938Y018798D01*
X014902Y018640D02*
X014674Y018640D01*
X014702Y018481D02*
X014938Y018481D01*
X014860Y018323D02*
X015063Y018323D01*
X015088Y018957D02*
X013320Y018957D01*
X013162Y019115D02*
X014940Y019115D01*
X014902Y019274D02*
X013058Y019274D01*
X013025Y019432D02*
X014935Y019432D01*
X015051Y019591D02*
X015073Y019591D01*
X015447Y019591D02*
X016681Y019591D01*
X016688Y019749D02*
X016732Y019749D01*
X016886Y019908D02*
X018765Y019908D01*
X018804Y020066D02*
X018923Y020066D01*
X019172Y019749D02*
X020220Y019749D01*
X020220Y019820D02*
X020220Y019649D01*
X020489Y019380D01*
X020660Y019380D01*
X020660Y019820D01*
X020220Y019820D01*
X020220Y019860D02*
X020660Y019860D01*
X020660Y020300D01*
X020489Y020300D01*
X020220Y020031D01*
X020220Y019860D01*
X020220Y019908D02*
X019330Y019908D01*
X019489Y020066D02*
X020255Y020066D01*
X020414Y020225D02*
X019647Y020225D01*
X019806Y020383D02*
X020834Y020383D01*
X020871Y020300D02*
X020700Y020300D01*
X020700Y019860D01*
X020660Y019860D01*
X020660Y019820D01*
X020700Y019820D01*
X020700Y019860D01*
X021140Y019860D01*
X021140Y020031D01*
X020871Y020300D01*
X020946Y020225D02*
X020993Y020225D01*
X021105Y020066D02*
X021151Y020066D01*
X021140Y019908D02*
X021220Y019908D01*
X021140Y019820D02*
X020700Y019820D01*
X020700Y019380D01*
X020871Y019380D01*
X021140Y019649D01*
X021140Y019820D01*
X021140Y019749D02*
X021220Y019749D01*
X021279Y019591D02*
X021081Y019591D01*
X020923Y019432D02*
X021437Y019432D01*
X021463Y019274D02*
X020897Y019274D01*
X021056Y019115D02*
X021304Y019115D01*
X021220Y018957D02*
X021140Y018957D01*
X021140Y018798D02*
X021220Y018798D01*
X021230Y018640D02*
X021143Y018640D01*
X021302Y018481D02*
X021388Y018481D01*
X021460Y018323D02*
X027210Y018323D01*
X027210Y018164D02*
X022007Y018164D01*
X022140Y018006D02*
X027210Y018006D01*
X027210Y017847D02*
X022140Y017847D01*
X022140Y017689D02*
X023069Y017689D01*
X023531Y017689D02*
X027210Y017689D01*
X027210Y017530D02*
X023629Y017530D01*
X023638Y017372D02*
X027210Y017372D01*
X027136Y017213D02*
X023552Y017213D01*
X023048Y017213D02*
X021958Y017213D01*
X022116Y017055D02*
X026978Y017055D01*
X026819Y016896D02*
X022140Y016896D01*
X022140Y016738D02*
X026661Y016738D01*
X026502Y016579D02*
X022070Y016579D01*
X021911Y016421D02*
X026344Y016421D01*
X026185Y016262D02*
X022084Y016262D01*
X022046Y016300D02*
X022140Y016206D01*
X022140Y015474D01*
X022046Y015380D01*
X021314Y015380D01*
X021220Y015474D01*
X021220Y016206D01*
X021314Y016300D01*
X022046Y016300D01*
X022140Y016104D02*
X026027Y016104D01*
X025868Y015945D02*
X022140Y015945D01*
X022140Y015787D02*
X025710Y015787D01*
X025551Y015628D02*
X022140Y015628D01*
X022136Y015470D02*
X025393Y015470D01*
X025234Y015311D02*
X020646Y015311D01*
X020700Y015380D02*
X020871Y015380D01*
X021140Y015649D01*
X021140Y015820D01*
X020700Y015820D01*
X020700Y015860D01*
X020660Y015860D01*
X020660Y016300D01*
X020489Y016300D01*
X020220Y016031D01*
X020220Y015860D01*
X020660Y015860D01*
X020660Y015820D01*
X020700Y015820D01*
X020700Y015380D01*
X020700Y015470D02*
X020660Y015470D01*
X020660Y015628D02*
X020700Y015628D01*
X020700Y015787D02*
X020660Y015787D01*
X020700Y015860D02*
X021140Y015860D01*
X021140Y016031D01*
X020871Y016300D01*
X020700Y016300D01*
X020700Y015860D01*
X020700Y015945D02*
X020660Y015945D01*
X020660Y016104D02*
X020700Y016104D01*
X020700Y016262D02*
X020660Y016262D01*
X020489Y016380D02*
X020871Y016380D01*
X021140Y016649D01*
X021140Y017031D01*
X020871Y017300D01*
X020489Y017300D01*
X020220Y017031D01*
X020220Y016649D01*
X020489Y016380D01*
X020449Y016421D02*
X019376Y016421D01*
X019218Y016579D02*
X020290Y016579D01*
X020220Y016738D02*
X019059Y016738D01*
X018901Y016896D02*
X020220Y016896D01*
X020244Y017055D02*
X018742Y017055D01*
X018584Y017213D02*
X020402Y017213D01*
X020339Y017530D02*
X018267Y017530D01*
X018425Y017372D02*
X021246Y017372D01*
X021402Y017213D02*
X020958Y017213D01*
X021116Y017055D02*
X021244Y017055D01*
X021220Y016896D02*
X021140Y016896D01*
X021140Y016738D02*
X021220Y016738D01*
X021290Y016579D02*
X021070Y016579D01*
X020911Y016421D02*
X021449Y016421D01*
X021276Y016262D02*
X020909Y016262D01*
X021067Y016104D02*
X021220Y016104D01*
X021220Y015945D02*
X021140Y015945D01*
X021140Y015787D02*
X021220Y015787D01*
X021220Y015628D02*
X021119Y015628D01*
X021224Y015470D02*
X020960Y015470D01*
X020804Y015153D02*
X025076Y015153D01*
X024917Y014994D02*
X020910Y014994D01*
X020910Y014836D02*
X024759Y014836D01*
X024600Y014677D02*
X020910Y014677D01*
X020910Y014519D02*
X024442Y014519D01*
X024283Y014360D02*
X020910Y014360D01*
X020910Y014202D02*
X024125Y014202D01*
X023966Y014043D02*
X020910Y014043D01*
X020910Y013885D02*
X023808Y013885D01*
X023649Y013726D02*
X020910Y013726D01*
X020972Y013568D02*
X023491Y013568D01*
X023332Y013409D02*
X021039Y013409D01*
X021021Y013251D02*
X023174Y013251D01*
X023334Y011983D02*
X025918Y011983D01*
X025814Y012141D02*
X025698Y012141D01*
X023691Y011032D02*
X023645Y011032D01*
X023840Y009447D02*
X024167Y009447D01*
X024322Y009288D02*
X023931Y009288D01*
X024104Y009130D02*
X024478Y009130D01*
X024633Y008971D02*
X024262Y008971D01*
X024421Y008813D02*
X024650Y008813D01*
X024650Y008654D02*
X024579Y008654D01*
X025390Y008654D02*
X025523Y008654D01*
X025627Y008813D02*
X025390Y008813D01*
X023320Y009447D02*
X021660Y009447D01*
X021658Y009605D02*
X022188Y009605D01*
X021594Y009288D02*
X023228Y009288D01*
X021020Y008813D02*
X021020Y008813D01*
X021020Y008654D02*
X021020Y008654D01*
X021020Y008520D02*
X021020Y008520D01*
X021020Y008520D01*
X021020Y008120D01*
X020741Y008120D01*
X020663Y008135D01*
X020591Y008166D01*
X020525Y008209D01*
X020469Y008265D01*
X020426Y008331D01*
X020395Y008403D01*
X020380Y008481D01*
X020380Y008520D01*
X021020Y008520D01*
X021020Y008496D02*
X021020Y008496D01*
X021020Y008337D02*
X021020Y008337D01*
X021020Y008179D02*
X021020Y008179D01*
X020571Y008179D02*
X018109Y008179D01*
X018089Y008166D02*
X018155Y008209D01*
X018211Y008265D01*
X018254Y008331D01*
X018285Y008403D01*
X018300Y008481D01*
X018300Y008520D01*
X017660Y008520D01*
X017660Y008120D01*
X017939Y008120D01*
X018017Y008135D01*
X018089Y008166D01*
X018257Y008337D02*
X020423Y008337D01*
X020380Y008496D02*
X018300Y008496D01*
X018277Y008654D02*
X020403Y008654D01*
X020507Y008813D02*
X018173Y008813D01*
X018003Y009130D02*
X020677Y009130D01*
X020446Y009288D02*
X018234Y009288D01*
X018300Y009447D02*
X020380Y009447D01*
X020382Y009605D02*
X018298Y009605D01*
X018222Y009764D02*
X020458Y009764D01*
X017660Y008813D02*
X017660Y008813D01*
X017660Y008654D02*
X017660Y008654D01*
X017660Y008520D02*
X017660Y008520D01*
X017660Y008520D01*
X017660Y008120D01*
X017381Y008120D01*
X017303Y008135D01*
X017231Y008166D01*
X017165Y008209D01*
X017109Y008265D01*
X017066Y008331D01*
X017035Y008403D01*
X017020Y008481D01*
X017020Y008520D01*
X017660Y008520D01*
X017660Y008496D02*
X017660Y008496D01*
X017660Y008337D02*
X017660Y008337D01*
X017660Y008179D02*
X017660Y008179D01*
X017211Y008179D02*
X016690Y008179D01*
X016690Y008337D02*
X017063Y008337D01*
X017020Y008496D02*
X016690Y008496D01*
X016690Y008654D02*
X017043Y008654D01*
X017405Y004375D02*
X020300Y004375D01*
X020298Y004373D02*
X020277Y004336D01*
X020266Y004295D01*
X020266Y003958D01*
X020742Y003958D01*
X020742Y004434D01*
X020405Y004434D01*
X020364Y004423D01*
X020327Y004402D01*
X020298Y004373D01*
X020266Y004216D02*
X017439Y004216D01*
X017439Y004058D02*
X020266Y004058D01*
X020266Y003882D02*
X020266Y003545D01*
X020277Y003504D01*
X020298Y003467D01*
X020327Y003438D01*
X020364Y003417D01*
X020405Y003406D01*
X020742Y003406D01*
X020742Y003882D01*
X020266Y003882D01*
X020266Y003741D02*
X017439Y003741D01*
X017439Y003899D02*
X020742Y003899D01*
X020742Y003741D02*
X020818Y003741D01*
X020818Y003582D02*
X020742Y003582D01*
X020742Y003424D02*
X020818Y003424D01*
X021208Y003424D02*
X021342Y003424D01*
X020818Y004058D02*
X020742Y004058D01*
X020742Y004216D02*
X020818Y004216D01*
X020818Y004375D02*
X020742Y004375D01*
X021260Y004375D02*
X021300Y004375D01*
X020266Y003582D02*
X017439Y003582D01*
X017363Y003424D02*
X020352Y003424D01*
X022218Y003424D02*
X022342Y003424D01*
X022648Y003107D02*
X016165Y003107D01*
X016250Y003265D02*
X022807Y003265D01*
X022490Y002948D02*
X016006Y002948D01*
X016378Y003424D02*
X016486Y003424D01*
X016444Y004375D02*
X016420Y004375D01*
X015502Y003424D02*
X015378Y003424D01*
X022260Y004375D02*
X022300Y004375D01*
X023260Y004375D02*
X023300Y004375D01*
X023683Y003265D02*
X030327Y003265D01*
X030418Y003424D02*
X030485Y003424D01*
X030168Y003107D02*
X023525Y003107D01*
X023366Y002948D02*
X030010Y002948D01*
X029542Y003424D02*
X029418Y003424D01*
X028542Y003424D02*
X028408Y003424D01*
X028018Y003424D02*
X027942Y003424D01*
X027942Y003582D02*
X028018Y003582D01*
X028018Y003741D02*
X027942Y003741D01*
X027942Y003899D02*
X025279Y003899D01*
X025279Y003741D02*
X027466Y003741D01*
X027466Y003582D02*
X025279Y003582D01*
X025203Y003424D02*
X027552Y003424D01*
X027466Y003958D02*
X027942Y003958D01*
X027942Y004434D01*
X027605Y004434D01*
X027564Y004423D01*
X027527Y004402D01*
X027498Y004373D01*
X027477Y004336D01*
X027466Y004295D01*
X027466Y003958D01*
X027466Y004058D02*
X025279Y004058D01*
X025279Y004216D02*
X027466Y004216D01*
X027500Y004375D02*
X025245Y004375D01*
X024326Y003424D02*
X024218Y003424D01*
X027942Y004058D02*
X028018Y004058D01*
X028018Y004216D02*
X027942Y004216D01*
X027942Y004375D02*
X028018Y004375D01*
X028460Y004375D02*
X028500Y004375D01*
X029460Y004375D02*
X029500Y004375D01*
X030460Y004375D02*
X030500Y004375D01*
X020220Y015787D02*
X020170Y015787D01*
X020220Y015945D02*
X020012Y015945D01*
X019853Y016104D02*
X020293Y016104D01*
X020451Y016262D02*
X019695Y016262D01*
X020220Y017689D02*
X018108Y017689D01*
X017950Y017847D02*
X020220Y017847D01*
X020220Y018006D02*
X017791Y018006D01*
X017633Y018164D02*
X020353Y018164D01*
X019975Y018323D02*
X017474Y018323D01*
X017316Y018481D02*
X019816Y018481D01*
X020065Y018798D02*
X020220Y018798D01*
X020220Y018957D02*
X019906Y018957D01*
X020304Y019115D02*
X018919Y019115D01*
X018866Y019274D02*
X020463Y019274D01*
X020437Y019432D02*
X018855Y019432D01*
X019013Y019591D02*
X020279Y019591D01*
X020660Y019591D02*
X020700Y019591D01*
X020700Y019749D02*
X020660Y019749D01*
X020660Y019908D02*
X020700Y019908D01*
X020700Y020066D02*
X020660Y020066D01*
X020660Y020225D02*
X020700Y020225D01*
X021241Y020542D02*
X021636Y020542D01*
X021477Y020700D02*
X021083Y020700D01*
X021319Y020859D02*
X019041Y020859D01*
X019261Y020700D02*
X019557Y020700D01*
X018737Y021360D02*
X018537Y021160D01*
X017899Y021160D01*
X017892Y021167D01*
X017767Y021219D01*
X017633Y021219D01*
X017508Y021167D01*
X017413Y021072D01*
X017361Y020947D01*
X017361Y020813D01*
X017383Y020760D01*
X014619Y020760D01*
X014532Y020847D01*
X014407Y020899D01*
X014273Y020899D01*
X014148Y020847D01*
X014053Y020752D01*
X014001Y020627D01*
X014001Y020550D01*
X010878Y020550D01*
X010764Y020503D01*
X010677Y020416D01*
X009148Y018886D01*
X009128Y018874D01*
X009105Y018843D01*
X009092Y018830D01*
X008502Y018830D01*
X008429Y018903D01*
X008254Y018975D01*
X008066Y018975D01*
X007891Y018903D01*
X007818Y018830D01*
X006862Y018830D01*
X006803Y018831D01*
X006801Y018830D01*
X006798Y018830D01*
X006750Y018810D01*
X006408Y018810D01*
X006197Y019022D01*
X006163Y019104D01*
X006076Y019191D01*
X005994Y019225D01*
X005330Y019888D01*
X005330Y020651D01*
X005348Y020633D01*
X005473Y020581D01*
X005607Y020581D01*
X005732Y020633D01*
X005819Y020720D01*
X012543Y020720D01*
X012660Y020837D01*
X012743Y020920D01*
X014497Y020920D01*
X014657Y020760D01*
X016263Y020760D01*
X016380Y020877D01*
X016863Y021360D01*
X018737Y021360D01*
X018711Y021334D02*
X016837Y021334D01*
X016678Y021176D02*
X017528Y021176D01*
X017390Y021017D02*
X016520Y021017D01*
X016361Y020859D02*
X017361Y020859D01*
X017872Y021176D02*
X018553Y021176D01*
X016962Y022285D02*
X024385Y022285D01*
X024361Y022127D02*
X016804Y022127D01*
X016697Y021760D02*
X021583Y021760D01*
X021700Y021643D01*
X022143Y021200D01*
X024587Y021200D01*
X024508Y021233D01*
X024413Y021328D01*
X024361Y021453D01*
X024361Y021587D01*
X024413Y021712D01*
X024508Y021807D01*
X024587Y021840D01*
X024508Y021873D01*
X024413Y021968D01*
X024514Y021810D02*
X016487Y021810D01*
X016588Y021651D02*
X016328Y021651D01*
X016258Y021493D02*
X016430Y021493D01*
X016271Y021334D02*
X016211Y021334D01*
X016113Y021176D02*
X016005Y021176D01*
X015795Y021176D02*
X015525Y021176D01*
X015315Y021176D02*
X014807Y021176D01*
X015109Y021334D02*
X012531Y021334D01*
X012524Y021317D02*
X012578Y021449D01*
X012578Y021591D01*
X012543Y021677D01*
X012629Y021642D01*
X012771Y021642D01*
X012903Y021696D01*
X013004Y021797D01*
X013058Y021929D01*
X013058Y022071D01*
X013004Y022203D01*
X012910Y022297D01*
X012910Y023193D01*
X014079Y024362D01*
X014211Y024362D01*
X014343Y024416D01*
X014444Y024517D01*
X014498Y024649D01*
X014498Y024791D01*
X014444Y024923D01*
X014343Y025024D01*
X014211Y025078D01*
X014069Y025078D01*
X013937Y025024D01*
X013836Y024923D01*
X013782Y024791D01*
X013782Y024659D01*
X013340Y024217D01*
X013340Y024280D01*
X013279Y024427D01*
X013167Y024539D01*
X013020Y024600D01*
X012380Y024600D01*
X012233Y024539D01*
X012121Y024427D01*
X012060Y024280D01*
X012060Y024120D01*
X012121Y023973D01*
X012233Y023861D01*
X012380Y023800D01*
X012923Y023800D01*
X012490Y023367D01*
X012490Y022297D01*
X012460Y022267D01*
X012423Y022304D01*
X012291Y022358D01*
X012159Y022358D01*
X010670Y023847D01*
X010670Y026371D01*
X010747Y026448D01*
X010799Y026573D01*
X010799Y026707D01*
X010747Y026832D01*
X010652Y026927D01*
X010527Y026979D01*
X010393Y026979D01*
X010350Y026961D01*
X010350Y027303D01*
X010444Y027397D01*
X010498Y027529D01*
X010498Y027671D01*
X010444Y027803D01*
X010343Y027904D01*
X010211Y027958D01*
X010069Y027958D01*
X009937Y027904D01*
X009836Y027803D01*
X009782Y027671D01*
X009782Y027529D01*
X009836Y027397D01*
X009930Y027303D01*
X009930Y026554D01*
X009929Y026554D01*
X009857Y026585D01*
X009779Y026600D01*
X009500Y026600D01*
X009500Y026200D01*
X009500Y026200D01*
X009500Y025800D01*
X009779Y025800D01*
X009857Y025815D01*
X009929Y025846D01*
X009930Y025846D01*
X009930Y025554D01*
X009820Y025600D01*
X009180Y025600D01*
X009033Y025539D01*
X008921Y025427D01*
X008860Y025280D01*
X008860Y025120D01*
X008921Y024973D01*
X009033Y024861D01*
X009180Y024800D01*
X009820Y024800D01*
X009930Y024846D01*
X009930Y024554D01*
X009820Y024600D01*
X009180Y024600D01*
X009033Y024539D01*
X008921Y024427D01*
X008860Y024280D01*
X008860Y024120D01*
X008921Y023973D01*
X009033Y023861D01*
X009180Y023800D01*
X009820Y023800D01*
X009930Y023846D01*
X009930Y023627D01*
X009907Y023650D01*
X007187Y023650D01*
X006990Y023847D01*
X006990Y024263D01*
X007084Y024357D01*
X007138Y024489D01*
X007138Y024631D01*
X007084Y024763D01*
X006983Y024864D01*
X006851Y024918D01*
X006709Y024918D01*
X006577Y024864D01*
X006476Y024763D01*
X006422Y024631D01*
X006422Y024489D01*
X006476Y024357D01*
X006570Y024263D01*
X006570Y023673D01*
X006693Y023550D01*
X007013Y023230D01*
X009733Y023230D01*
X011382Y021581D01*
X011382Y021449D01*
X011436Y021317D01*
X011537Y021216D01*
X011669Y021162D01*
X011811Y021162D01*
X011943Y021216D01*
X011980Y021253D01*
X012017Y021216D01*
X012149Y021162D01*
X012291Y021162D01*
X012423Y021216D01*
X012524Y021317D01*
X012433Y021176D02*
X012325Y021176D01*
X012115Y021176D02*
X011845Y021176D01*
X011635Y021176D02*
X005764Y021176D01*
X005330Y021334D02*
X011429Y021334D01*
X011382Y021493D02*
X005330Y021493D01*
X005330Y021651D02*
X011312Y021651D01*
X011153Y021810D02*
X005330Y021810D01*
X005330Y021968D02*
X010995Y021968D01*
X010836Y022127D02*
X005330Y022127D01*
X005330Y022285D02*
X010678Y022285D01*
X010519Y022444D02*
X005330Y022444D01*
X005330Y022602D02*
X010361Y022602D01*
X010202Y022761D02*
X005330Y022761D01*
X005330Y022919D02*
X010044Y022919D01*
X009885Y023078D02*
X005330Y023078D01*
X005330Y023236D02*
X007007Y023236D01*
X006848Y023395D02*
X005330Y023395D01*
X005330Y023553D02*
X006690Y023553D01*
X006570Y023712D02*
X005330Y023712D01*
X005330Y023870D02*
X006570Y023870D01*
X006570Y024029D02*
X005330Y024029D01*
X005330Y024187D02*
X006570Y024187D01*
X006488Y024346D02*
X005330Y024346D01*
X005330Y024504D02*
X006422Y024504D01*
X006435Y024663D02*
X005330Y024663D01*
X005378Y024821D02*
X006534Y024821D01*
X007026Y024821D02*
X009130Y024821D01*
X008918Y024980D02*
X005367Y024980D01*
X005330Y025138D02*
X008860Y025138D01*
X008867Y025297D02*
X005330Y025297D01*
X005330Y025455D02*
X008949Y025455D01*
X009143Y025815D02*
X009071Y025846D01*
X009005Y025889D01*
X008949Y025945D01*
X008906Y026011D01*
X008875Y026083D01*
X008860Y026161D01*
X008860Y026200D01*
X009500Y026200D01*
X009500Y026200D01*
X009500Y026200D01*
X009500Y026600D01*
X009221Y026600D01*
X009143Y026585D01*
X009071Y026554D01*
X009005Y026511D01*
X008949Y026455D01*
X008906Y026389D01*
X008875Y026317D01*
X008860Y026239D01*
X008860Y026200D01*
X009500Y026200D01*
X009500Y025800D01*
X009221Y025800D01*
X009143Y025815D01*
X008964Y025931D02*
X005330Y025931D01*
X005330Y026089D02*
X008874Y026089D01*
X008862Y026248D02*
X005330Y026248D01*
X005330Y026406D02*
X008917Y026406D01*
X009095Y026565D02*
X005330Y026565D01*
X005330Y026723D02*
X009930Y026723D01*
X009930Y026565D02*
X009905Y026565D01*
X009930Y026882D02*
X005330Y026882D01*
X005330Y027040D02*
X009930Y027040D01*
X009930Y027199D02*
X005330Y027199D01*
X005330Y027357D02*
X009876Y027357D01*
X009787Y027516D02*
X005330Y027516D01*
X005330Y027674D02*
X009783Y027674D01*
X009866Y027833D02*
X005330Y027833D01*
X005330Y027991D02*
X013950Y027991D01*
X013950Y028150D02*
X005330Y028150D01*
X005330Y028308D02*
X013950Y028308D01*
X013950Y028467D02*
X005330Y028467D01*
X005330Y028625D02*
X013950Y028625D01*
X013950Y028784D02*
X005362Y028784D01*
X005520Y028942D02*
X013950Y028942D01*
X013950Y029101D02*
X005679Y029101D01*
X005837Y029259D02*
X013950Y029259D01*
X013950Y029418D02*
X005996Y029418D01*
X006154Y029576D02*
X013950Y029576D01*
X013950Y029735D02*
X006313Y029735D01*
X006471Y029893D02*
X013950Y029893D01*
X013950Y030052D02*
X006630Y030052D01*
X006788Y030210D02*
X013950Y030210D01*
X013950Y030369D02*
X006947Y030369D01*
X006070Y030369D02*
X003655Y030369D01*
X003697Y030386D02*
X003970Y030659D01*
X004117Y031015D01*
X004117Y031400D01*
X003970Y031756D01*
X003697Y032029D01*
X003341Y032177D01*
X002956Y032177D01*
X002600Y032029D01*
X002327Y031756D01*
X002180Y031400D01*
X002180Y031015D01*
X002327Y030659D01*
X002600Y030386D01*
X002956Y030239D01*
X003341Y030239D01*
X003697Y030386D01*
X003838Y030527D02*
X005341Y030527D01*
X005341Y030686D02*
X003981Y030686D01*
X004047Y030844D02*
X005341Y030844D01*
X005341Y031003D02*
X004112Y031003D01*
X004117Y031161D02*
X005341Y031161D01*
X005341Y031320D02*
X004117Y031320D01*
X004085Y031478D02*
X006700Y031478D01*
X006858Y031637D02*
X004020Y031637D01*
X003931Y031795D02*
X007017Y031795D01*
X007175Y031954D02*
X003773Y031954D01*
X003497Y032112D02*
X007334Y032112D01*
X007576Y031478D02*
X013824Y031478D01*
X014570Y031478D02*
X021024Y031478D01*
X020281Y031320D02*
X017774Y031320D01*
X017774Y031335D02*
X017763Y031376D01*
X017742Y031413D01*
X017713Y031442D01*
X017676Y031463D01*
X017635Y031474D01*
X017298Y031474D01*
X017298Y030998D01*
X017774Y030998D01*
X017774Y031335D01*
X017774Y031161D02*
X020281Y031161D01*
X020281Y031003D02*
X017774Y031003D01*
X017774Y030922D02*
X017298Y030922D01*
X017298Y030446D01*
X017635Y030446D01*
X017676Y030457D01*
X017713Y030478D01*
X017742Y030507D01*
X017763Y030544D01*
X017774Y030585D01*
X017774Y030922D01*
X017774Y030844D02*
X020281Y030844D01*
X020281Y030686D02*
X017774Y030686D01*
X017754Y030527D02*
X020294Y030527D01*
X021470Y030369D02*
X014570Y030369D01*
X014570Y030210D02*
X021470Y030210D01*
X021470Y030052D02*
X014570Y030052D01*
X014570Y029893D02*
X021470Y029893D01*
X021470Y029735D02*
X014570Y029735D01*
X014570Y029576D02*
X021470Y029576D01*
X021470Y029418D02*
X014570Y029418D01*
X014570Y029259D02*
X021470Y029259D01*
X021470Y029101D02*
X014570Y029101D01*
X014570Y028942D02*
X021470Y028942D01*
X021470Y028784D02*
X014570Y028784D01*
X014570Y028625D02*
X021470Y028625D01*
X021470Y028467D02*
X014570Y028467D01*
X014570Y028308D02*
X021470Y028308D01*
X021470Y028150D02*
X014570Y028150D01*
X014570Y027991D02*
X021470Y027991D01*
X021470Y027833D02*
X014570Y027833D01*
X014570Y027674D02*
X021470Y027674D01*
X021470Y027516D02*
X014570Y027516D01*
X014570Y027357D02*
X021470Y027357D01*
X021470Y027199D02*
X014570Y027199D01*
X014570Y027040D02*
X021470Y027040D01*
X021470Y026882D02*
X014570Y026882D01*
X014570Y026723D02*
X021493Y026723D01*
X021585Y026565D02*
X021617Y026565D01*
X021763Y026406D02*
X021776Y026406D01*
X021818Y026248D02*
X021934Y026248D01*
X021820Y026200D02*
X021180Y026200D01*
X021180Y026200D01*
X021180Y026200D01*
X021180Y025800D01*
X021459Y025800D01*
X021537Y025815D01*
X021609Y025846D01*
X021675Y025889D01*
X021731Y025945D01*
X021774Y026011D01*
X021805Y026083D01*
X021820Y026161D01*
X021820Y026200D01*
X021806Y026089D02*
X022093Y026089D01*
X022251Y025931D02*
X021716Y025931D01*
X021500Y025600D02*
X021647Y025539D01*
X021759Y025427D01*
X021820Y025280D01*
X021820Y025120D01*
X021759Y024973D01*
X021647Y024861D01*
X021500Y024800D01*
X020860Y024800D01*
X020713Y024861D01*
X020601Y024973D01*
X020540Y025120D01*
X020540Y025280D01*
X020601Y025427D01*
X020713Y025539D01*
X020860Y025600D01*
X021500Y025600D01*
X021731Y025455D02*
X022338Y025455D01*
X022262Y025614D02*
X014649Y025614D01*
X014658Y025455D02*
X017589Y025455D01*
X017561Y025427D02*
X017500Y025280D01*
X017500Y025120D01*
X017561Y024973D01*
X017673Y024861D01*
X017820Y024800D01*
X018460Y024800D01*
X018607Y024861D01*
X018719Y024973D01*
X018780Y025120D01*
X018780Y025280D01*
X018719Y025427D01*
X018607Y025539D01*
X018460Y025600D01*
X017820Y025600D01*
X017673Y025539D01*
X017561Y025427D01*
X017507Y025297D02*
X014583Y025297D01*
X014387Y024980D02*
X017558Y024980D01*
X017500Y025138D02*
X013340Y025138D01*
X013340Y025120D02*
X013340Y025280D01*
X013279Y025427D01*
X013167Y025539D01*
X013020Y025600D01*
X012380Y025600D01*
X012233Y025539D01*
X012121Y025427D01*
X012060Y025280D01*
X012060Y025120D01*
X012121Y024973D01*
X012233Y024861D01*
X012380Y024800D01*
X013020Y024800D01*
X013167Y024861D01*
X013279Y024973D01*
X013340Y025120D01*
X013282Y024980D02*
X013893Y024980D01*
X013794Y024821D02*
X013070Y024821D01*
X013202Y024504D02*
X013627Y024504D01*
X013782Y024663D02*
X010670Y024663D01*
X010670Y024821D02*
X012330Y024821D01*
X012118Y024980D02*
X010670Y024980D01*
X010670Y025138D02*
X012060Y025138D01*
X012067Y025297D02*
X010670Y025297D01*
X010670Y025455D02*
X012149Y025455D01*
X012343Y025815D02*
X012271Y025846D01*
X012205Y025889D01*
X012149Y025945D01*
X012106Y026011D01*
X012075Y026083D01*
X012060Y026161D01*
X012060Y026200D01*
X012700Y026200D01*
X012700Y026200D01*
X012700Y026600D01*
X012979Y026600D01*
X013057Y026585D01*
X013129Y026554D01*
X013195Y026511D01*
X013251Y026455D01*
X013294Y026389D01*
X013325Y026317D01*
X013340Y026239D01*
X013340Y026200D01*
X012700Y026200D01*
X012700Y026200D01*
X012700Y025800D01*
X012979Y025800D01*
X013057Y025815D01*
X013129Y025846D01*
X013195Y025889D01*
X013251Y025945D01*
X013294Y026011D01*
X013325Y026083D01*
X013340Y026161D01*
X013340Y026200D01*
X012700Y026200D01*
X012700Y026200D01*
X012700Y026200D01*
X012700Y026600D01*
X012421Y026600D01*
X012343Y026585D01*
X012271Y026554D01*
X012205Y026511D01*
X012149Y026455D01*
X012106Y026389D01*
X012075Y026317D01*
X012060Y026239D01*
X012060Y026200D01*
X012700Y026200D01*
X012700Y025800D01*
X012421Y025800D01*
X012343Y025815D01*
X012164Y025931D02*
X010670Y025931D01*
X010670Y026089D02*
X012074Y026089D01*
X012062Y026248D02*
X010670Y026248D01*
X010705Y026406D02*
X012117Y026406D01*
X012295Y026565D02*
X010795Y026565D01*
X010792Y026723D02*
X013950Y026723D01*
X013950Y026565D02*
X013105Y026565D01*
X013283Y026406D02*
X013950Y026406D01*
X013950Y026248D02*
X013338Y026248D01*
X013326Y026089D02*
X013950Y026089D01*
X013950Y025931D02*
X013236Y025931D01*
X013251Y025455D02*
X013942Y025455D01*
X013951Y025614D02*
X010670Y025614D01*
X010670Y025772D02*
X013950Y025772D01*
X014017Y025297D02*
X013333Y025297D01*
X012700Y025931D02*
X012700Y025931D01*
X012700Y026089D02*
X012700Y026089D01*
X012700Y026248D02*
X012700Y026248D01*
X012700Y026406D02*
X012700Y026406D01*
X012700Y026565D02*
X012700Y026565D01*
X013396Y027357D02*
X010404Y027357D01*
X010350Y027199D02*
X013950Y027199D01*
X013950Y027040D02*
X010350Y027040D01*
X010698Y026882D02*
X013950Y026882D01*
X014570Y026565D02*
X017735Y026565D01*
X017711Y026554D02*
X017645Y026511D01*
X017589Y026455D01*
X017546Y026389D01*
X017515Y026317D01*
X017500Y026239D01*
X017500Y026200D01*
X018140Y026200D01*
X018140Y026200D01*
X018140Y026600D01*
X018419Y026600D01*
X018497Y026585D01*
X018569Y026554D01*
X018635Y026511D01*
X018691Y026455D01*
X018734Y026389D01*
X018765Y026317D01*
X018780Y026239D01*
X018780Y026200D01*
X018140Y026200D01*
X018140Y026200D01*
X018140Y025800D01*
X018419Y025800D01*
X018497Y025815D01*
X018569Y025846D01*
X018635Y025889D01*
X018691Y025945D01*
X018734Y026011D01*
X018765Y026083D01*
X018780Y026161D01*
X018780Y026200D01*
X018140Y026200D01*
X018140Y026200D01*
X018140Y026200D01*
X018140Y026600D01*
X017861Y026600D01*
X017783Y026585D01*
X017711Y026554D01*
X017557Y026406D02*
X014570Y026406D01*
X014570Y026248D02*
X017502Y026248D01*
X017500Y026200D02*
X017500Y026161D01*
X017515Y026083D01*
X017546Y026011D01*
X017589Y025945D01*
X017645Y025889D01*
X017711Y025846D01*
X017783Y025815D01*
X017861Y025800D01*
X018140Y025800D01*
X018140Y026200D01*
X017500Y026200D01*
X017514Y026089D02*
X014570Y026089D01*
X014570Y025931D02*
X017604Y025931D01*
X018140Y025931D02*
X018140Y025931D01*
X018140Y026089D02*
X018140Y026089D01*
X018140Y026248D02*
X018140Y026248D01*
X018140Y026406D02*
X018140Y026406D01*
X018140Y026565D02*
X018140Y026565D01*
X018545Y026565D02*
X020775Y026565D01*
X020751Y026554D02*
X020685Y026511D01*
X020629Y026455D01*
X020586Y026389D01*
X020555Y026317D01*
X020540Y026239D01*
X020540Y026200D01*
X021180Y026200D01*
X021180Y026200D01*
X021180Y026200D01*
X021180Y026600D01*
X020901Y026600D01*
X020823Y026585D01*
X020751Y026554D01*
X020597Y026406D02*
X018723Y026406D01*
X018778Y026248D02*
X020542Y026248D01*
X020540Y026200D02*
X020540Y026161D01*
X020555Y026083D01*
X020586Y026011D01*
X020629Y025945D01*
X020685Y025889D01*
X020751Y025846D01*
X020823Y025815D01*
X020901Y025800D01*
X021180Y025800D01*
X021180Y026200D01*
X020540Y026200D01*
X020554Y026089D02*
X018766Y026089D01*
X018676Y025931D02*
X020644Y025931D01*
X020629Y025455D02*
X018691Y025455D01*
X018773Y025297D02*
X020547Y025297D01*
X020540Y025138D02*
X018780Y025138D01*
X018722Y024980D02*
X020598Y024980D01*
X020810Y024821D02*
X018510Y024821D01*
X018642Y024504D02*
X020678Y024504D01*
X020567Y024346D02*
X018753Y024346D01*
X018780Y024187D02*
X020540Y024187D01*
X020578Y024029D02*
X018742Y024029D01*
X018616Y023870D02*
X020704Y023870D01*
X021656Y023870D02*
X023553Y023870D01*
X023690Y024029D02*
X021782Y024029D01*
X021820Y024187D02*
X023690Y024187D01*
X023690Y024346D02*
X021793Y024346D01*
X021682Y024504D02*
X023690Y024504D01*
X023638Y024663D02*
X014498Y024663D01*
X014486Y024821D02*
X017770Y024821D01*
X017638Y024504D02*
X014431Y024504D01*
X014063Y024346D02*
X017527Y024346D01*
X017500Y024187D02*
X013904Y024187D01*
X013746Y024029D02*
X017538Y024029D01*
X017664Y023870D02*
X013587Y023870D01*
X013429Y023712D02*
X016355Y023712D01*
X016196Y023553D02*
X013270Y023553D01*
X013112Y023395D02*
X016036Y023395D01*
X015873Y023236D02*
X012953Y023236D01*
X012910Y023078D02*
X015710Y023078D01*
X015546Y022919D02*
X012910Y022919D01*
X012910Y022761D02*
X015383Y022761D01*
X015219Y022602D02*
X012910Y022602D01*
X012910Y022444D02*
X015056Y022444D01*
X014678Y022285D02*
X012922Y022285D01*
X013036Y022127D02*
X014564Y022127D01*
X014542Y021968D02*
X013058Y021968D01*
X013009Y021810D02*
X014591Y021810D01*
X014806Y021651D02*
X012794Y021651D01*
X012606Y021651D02*
X012554Y021651D01*
X012578Y021493D02*
X015062Y021493D01*
X015086Y021651D02*
X014994Y021651D01*
X014559Y020859D02*
X014504Y020859D01*
X014176Y020859D02*
X012681Y020859D01*
X012513Y019591D02*
X010729Y019591D01*
X010887Y019749D02*
X014113Y019749D01*
X014309Y019591D02*
X012887Y019591D01*
X012375Y019432D02*
X010570Y019432D01*
X010412Y019274D02*
X012342Y019274D01*
X012380Y019115D02*
X012236Y019115D01*
X011884Y019115D02*
X010253Y019115D01*
X010095Y018957D02*
X011737Y018957D01*
X011702Y018798D02*
X011221Y018798D01*
X011314Y018640D02*
X011603Y018640D01*
X011444Y018481D02*
X011314Y018481D01*
X011286Y018323D02*
X011222Y018323D01*
X011127Y018164D02*
X010867Y018164D01*
X010708Y018006D02*
X011050Y018006D01*
X011050Y017847D02*
X010550Y017847D01*
X010592Y017689D02*
X011050Y017689D01*
X011050Y017530D02*
X010796Y017530D01*
X011041Y017372D02*
X011050Y017372D01*
X011050Y016738D02*
X010319Y016738D01*
X010288Y016579D02*
X011050Y016579D01*
X011050Y016421D02*
X010142Y016421D01*
X009818Y016421D02*
X004822Y016421D01*
X004968Y016579D02*
X009672Y016579D01*
X009664Y017847D02*
X005837Y017847D01*
X005639Y018006D02*
X009823Y018006D01*
X009601Y018323D02*
X010460Y018323D01*
X010618Y018481D02*
X009639Y018481D01*
X009778Y018640D02*
X010646Y018640D01*
X010739Y018798D02*
X009936Y018798D01*
X009377Y019115D02*
X008447Y019115D01*
X008357Y019025D02*
X008635Y019303D01*
X008635Y019500D01*
X008635Y019697D01*
X008357Y019975D01*
X008160Y019975D01*
X008160Y019500D01*
X008160Y019500D01*
X008635Y019500D01*
X008160Y019500D01*
X008160Y019500D01*
X008160Y019500D01*
X007685Y019500D01*
X007685Y019697D01*
X007963Y019975D01*
X008160Y019975D01*
X008160Y019500D01*
X008160Y019025D01*
X008357Y019025D01*
X008299Y018957D02*
X009218Y018957D01*
X009535Y019274D02*
X008605Y019274D01*
X008635Y019432D02*
X009694Y019432D01*
X009852Y019591D02*
X008635Y019591D01*
X008583Y019749D02*
X010011Y019749D01*
X010169Y019908D02*
X008424Y019908D01*
X008160Y019908D02*
X008160Y019908D01*
X008160Y019749D02*
X008160Y019749D01*
X008160Y019591D02*
X008160Y019591D01*
X008160Y019500D02*
X007685Y019500D01*
X007685Y019303D01*
X007963Y019025D01*
X008160Y019025D01*
X008160Y019500D01*
X008160Y019500D01*
X008160Y019432D02*
X008160Y019432D01*
X008160Y019274D02*
X008160Y019274D01*
X008160Y019115D02*
X008160Y019115D01*
X008021Y018957D02*
X006262Y018957D01*
X006151Y019115D02*
X007873Y019115D01*
X007715Y019274D02*
X005945Y019274D01*
X005786Y019432D02*
X007685Y019432D01*
X007685Y019591D02*
X005628Y019591D01*
X005469Y019749D02*
X007737Y019749D01*
X007896Y019908D02*
X005330Y019908D01*
X005330Y020066D02*
X010328Y020066D01*
X010486Y020225D02*
X005330Y020225D01*
X005330Y020383D02*
X010645Y020383D01*
X010858Y020542D02*
X005330Y020542D01*
X005799Y020700D02*
X014031Y020700D01*
X013914Y019908D02*
X011046Y019908D01*
X010301Y018164D02*
X009422Y018164D01*
X009178Y018164D02*
X008496Y018164D01*
X007824Y018164D02*
X006410Y018164D01*
X005910Y018164D02*
X005410Y018164D01*
X005326Y018080D02*
X005560Y018314D01*
X005560Y018646D01*
X005326Y018880D01*
X004994Y018880D01*
X004904Y018790D01*
X004748Y018790D01*
X004443Y019096D01*
X004356Y019183D01*
X004242Y019230D01*
X003997Y019230D01*
X003839Y019388D01*
X003458Y019388D01*
X003189Y019119D01*
X003189Y018737D01*
X003458Y018468D01*
X003839Y018468D01*
X003981Y018610D01*
X004052Y018610D01*
X004444Y018217D01*
X004558Y018170D01*
X004904Y018170D01*
X004994Y018080D01*
X005326Y018080D01*
X005441Y018006D02*
X004439Y018006D01*
X004241Y018006D02*
X004109Y018006D01*
X004063Y018164D02*
X004910Y018164D01*
X005216Y017847D02*
X005243Y017847D01*
X005560Y018323D02*
X005760Y018323D01*
X005760Y018481D02*
X005560Y018481D01*
X005560Y018640D02*
X005702Y018640D01*
X005544Y018798D02*
X005408Y018798D01*
X005385Y018957D02*
X004582Y018957D01*
X004423Y019115D02*
X005227Y019115D01*
X005068Y019274D02*
X003954Y019274D01*
X003839Y019468D02*
X004109Y019737D01*
X004109Y020119D01*
X003839Y020388D01*
X003458Y020388D01*
X003189Y020119D01*
X003189Y019737D01*
X003458Y019468D01*
X003839Y019468D01*
X003962Y019591D02*
X004755Y019591D01*
X004710Y019749D02*
X004109Y019749D01*
X004109Y019908D02*
X004710Y019908D01*
X004710Y020066D02*
X004109Y020066D01*
X004003Y020225D02*
X004710Y020225D01*
X004710Y020383D02*
X003844Y020383D01*
X003839Y020468D02*
X004109Y020737D01*
X004109Y021119D01*
X003839Y021388D01*
X003458Y021388D01*
X003189Y021119D01*
X003189Y020737D01*
X003458Y020468D01*
X003839Y020468D01*
X003913Y020542D02*
X004710Y020542D01*
X004710Y020700D02*
X004071Y020700D01*
X004109Y020859D02*
X004710Y020859D01*
X004710Y021017D02*
X004109Y021017D01*
X004052Y021176D02*
X004710Y021176D01*
X004710Y021334D02*
X003893Y021334D01*
X003404Y021334D02*
X002893Y021334D01*
X002839Y021388D02*
X002458Y021388D01*
X002189Y021119D01*
X002189Y020737D01*
X002458Y020468D01*
X002839Y020468D01*
X003109Y020737D01*
X003109Y021119D01*
X002839Y021388D01*
X003052Y021176D02*
X003245Y021176D01*
X003189Y021017D02*
X003109Y021017D01*
X003109Y020859D02*
X003189Y020859D01*
X003226Y020700D02*
X003071Y020700D01*
X002913Y020542D02*
X003384Y020542D01*
X003453Y020383D02*
X002844Y020383D01*
X002839Y020388D02*
X002669Y020388D01*
X002669Y019948D01*
X003109Y019948D01*
X003109Y020119D01*
X002839Y020388D01*
X002669Y020383D02*
X002629Y020383D01*
X002629Y020388D02*
X002458Y020388D01*
X002189Y020119D01*
X002189Y019948D01*
X002628Y019948D01*
X002628Y019908D01*
X002189Y019908D01*
X002189Y019737D01*
X002458Y019468D01*
X002629Y019468D01*
X002629Y019908D01*
X002669Y019908D01*
X002669Y019948D01*
X002629Y019948D01*
X002629Y020388D01*
X002629Y020225D02*
X002669Y020225D01*
X002669Y020066D02*
X002629Y020066D01*
X002629Y019908D02*
X002669Y019908D01*
X003109Y019908D01*
X003109Y019737D01*
X002839Y019468D01*
X002669Y019468D01*
X002669Y019908D01*
X002669Y019749D02*
X002629Y019749D01*
X002629Y019591D02*
X002669Y019591D01*
X002669Y019388D02*
X002669Y018948D01*
X003109Y018948D01*
X003109Y019119D01*
X002839Y019388D01*
X002669Y019388D01*
X002629Y019388D02*
X002458Y019388D01*
X002189Y019119D01*
X002189Y018948D01*
X002628Y018948D01*
X002628Y018908D01*
X002189Y018908D01*
X002189Y018737D01*
X002458Y018468D01*
X002629Y018468D01*
X002629Y018908D01*
X002669Y018908D01*
X002669Y018948D01*
X002629Y018948D01*
X002629Y019388D01*
X002629Y019274D02*
X002669Y019274D01*
X002669Y019115D02*
X002629Y019115D01*
X002629Y018957D02*
X002669Y018957D01*
X002669Y018908D02*
X003109Y018908D01*
X003109Y018737D01*
X002839Y018468D01*
X002669Y018468D01*
X002669Y018908D01*
X002669Y018798D02*
X002629Y018798D01*
X002629Y018640D02*
X002669Y018640D01*
X002669Y018481D02*
X002629Y018481D01*
X002629Y018388D02*
X002458Y018388D01*
X002189Y018119D01*
X002189Y017948D01*
X002628Y017948D01*
X002628Y017908D01*
X002189Y017908D01*
X002189Y017737D01*
X002458Y017468D01*
X002629Y017468D01*
X002629Y017908D01*
X002669Y017908D01*
X002669Y017948D01*
X003109Y017948D01*
X003109Y018119D01*
X002839Y018388D01*
X002669Y018388D01*
X002669Y017948D01*
X002629Y017948D01*
X002629Y018388D01*
X002629Y018323D02*
X002669Y018323D01*
X002669Y018164D02*
X002629Y018164D01*
X002629Y018006D02*
X002669Y018006D01*
X002669Y017908D02*
X003109Y017908D01*
X003109Y017737D01*
X002839Y017468D01*
X002669Y017468D01*
X002669Y017908D01*
X002669Y017847D02*
X002629Y017847D01*
X002629Y017689D02*
X002669Y017689D01*
X002669Y017530D02*
X002629Y017530D01*
X002629Y017388D02*
X002458Y017388D01*
X002189Y017119D01*
X002189Y016948D01*
X002628Y016948D01*
X002628Y016908D01*
X002189Y016908D01*
X002189Y016737D01*
X002458Y016468D01*
X002629Y016468D01*
X002629Y016908D01*
X002669Y016908D01*
X002669Y016948D01*
X003109Y016948D01*
X003109Y017119D01*
X002839Y017388D01*
X002669Y017388D01*
X002669Y016948D01*
X002629Y016948D01*
X002629Y017388D01*
X002629Y017372D02*
X002669Y017372D01*
X002669Y017213D02*
X002629Y017213D01*
X002629Y017055D02*
X002669Y017055D01*
X002669Y016908D02*
X003109Y016908D01*
X003109Y016737D01*
X002839Y016468D01*
X002669Y016468D01*
X002669Y016908D01*
X002669Y016896D02*
X002629Y016896D01*
X002629Y016738D02*
X002669Y016738D01*
X002669Y016579D02*
X002629Y016579D01*
X002347Y016579D02*
X001460Y016579D01*
X001460Y016738D02*
X002189Y016738D01*
X002189Y016896D02*
X001460Y016896D01*
X001460Y017055D02*
X002189Y017055D01*
X002283Y017213D02*
X001460Y017213D01*
X001460Y017372D02*
X002441Y017372D01*
X002396Y017530D02*
X001460Y017530D01*
X001460Y017689D02*
X002237Y017689D01*
X002189Y017847D02*
X001460Y017847D01*
X001460Y018006D02*
X002189Y018006D01*
X002234Y018164D02*
X001460Y018164D01*
X001460Y018323D02*
X002392Y018323D01*
X002445Y018481D02*
X001460Y018481D01*
X001460Y018640D02*
X002286Y018640D01*
X002189Y018798D02*
X001460Y018798D01*
X001460Y018957D02*
X002189Y018957D01*
X002189Y019115D02*
X001460Y019115D01*
X001460Y019274D02*
X002343Y019274D01*
X002335Y019591D02*
X001460Y019591D01*
X001460Y019749D02*
X002189Y019749D01*
X002189Y019908D02*
X001460Y019908D01*
X001460Y020066D02*
X002189Y020066D01*
X002294Y020225D02*
X001460Y020225D01*
X001460Y020383D02*
X002453Y020383D01*
X002384Y020542D02*
X001460Y020542D01*
X001460Y020700D02*
X002226Y020700D01*
X002189Y020859D02*
X001460Y020859D01*
X001460Y021017D02*
X002189Y021017D01*
X002245Y021176D02*
X001460Y021176D01*
X001460Y021334D02*
X002404Y021334D01*
X001460Y021493D02*
X004710Y021493D01*
X004710Y021651D02*
X001460Y021651D01*
X001460Y021810D02*
X004710Y021810D01*
X004710Y021968D02*
X001460Y021968D01*
X001460Y022127D02*
X004710Y022127D01*
X004710Y022285D02*
X001460Y022285D01*
X001460Y022444D02*
X004710Y022444D01*
X004710Y022602D02*
X001460Y022602D01*
X001460Y022761D02*
X004710Y022761D01*
X004710Y022919D02*
X001460Y022919D01*
X001460Y023078D02*
X004710Y023078D01*
X004710Y023236D02*
X001460Y023236D01*
X001460Y023395D02*
X004710Y023395D01*
X004710Y023553D02*
X001460Y023553D01*
X001460Y023712D02*
X004710Y023712D01*
X004710Y023870D02*
X004056Y023870D01*
X004047Y023861D02*
X004159Y023973D01*
X004220Y024120D01*
X004220Y024280D01*
X004159Y024427D01*
X004047Y024539D01*
X003900Y024600D01*
X003260Y024600D01*
X003113Y024539D01*
X003001Y024427D01*
X002940Y024280D01*
X002940Y024120D01*
X003001Y023973D01*
X003113Y023861D01*
X003260Y023800D01*
X003900Y023800D01*
X004047Y023861D01*
X004182Y024029D02*
X004710Y024029D01*
X004710Y024187D02*
X004220Y024187D01*
X004193Y024346D02*
X004710Y024346D01*
X004710Y024504D02*
X004082Y024504D01*
X003950Y024821D02*
X004662Y024821D01*
X004673Y024980D02*
X004162Y024980D01*
X004159Y024973D02*
X004220Y025120D01*
X004220Y025280D01*
X004159Y025427D01*
X004047Y025539D01*
X003900Y025600D01*
X003260Y025600D01*
X003113Y025539D01*
X003001Y025427D01*
X002940Y025280D01*
X002940Y025120D01*
X003001Y024973D01*
X003113Y024861D01*
X003260Y024800D01*
X003900Y024800D01*
X004047Y024861D01*
X004159Y024973D01*
X004220Y025138D02*
X004710Y025138D01*
X004710Y025297D02*
X004213Y025297D01*
X004131Y025455D02*
X004710Y025455D01*
X004710Y025614D02*
X001460Y025614D01*
X001460Y025772D02*
X004710Y025772D01*
X004710Y025931D02*
X004116Y025931D01*
X004131Y025945D02*
X004174Y026011D01*
X004205Y026083D01*
X004220Y026161D01*
X004220Y026200D01*
X004220Y026239D01*
X004205Y026317D01*
X004174Y026389D01*
X004131Y026455D01*
X004075Y026511D01*
X004009Y026554D01*
X003937Y026585D01*
X003859Y026600D01*
X003580Y026600D01*
X003580Y026200D01*
X003580Y026200D01*
X004220Y026200D01*
X003580Y026200D01*
X003580Y026200D01*
X003580Y025800D01*
X003859Y025800D01*
X003937Y025815D01*
X004009Y025846D01*
X004075Y025889D01*
X004131Y025945D01*
X004206Y026089D02*
X004710Y026089D01*
X004710Y026248D02*
X004218Y026248D01*
X004163Y026406D02*
X004710Y026406D01*
X004710Y026565D02*
X003985Y026565D01*
X003580Y026565D02*
X003580Y026565D01*
X003580Y026600D02*
X003301Y026600D01*
X003223Y026585D01*
X003151Y026554D01*
X003085Y026511D01*
X003029Y026455D01*
X002986Y026389D01*
X002955Y026317D01*
X002940Y026239D01*
X002940Y026200D01*
X003580Y026200D01*
X003580Y026200D01*
X003580Y026200D01*
X003580Y026600D01*
X003580Y026406D02*
X003580Y026406D01*
X003580Y026248D02*
X003580Y026248D01*
X003580Y026200D02*
X002940Y026200D01*
X002940Y026161D01*
X002955Y026083D01*
X002986Y026011D01*
X003029Y025945D01*
X003085Y025889D01*
X003151Y025846D01*
X003223Y025815D01*
X003301Y025800D01*
X003580Y025800D01*
X003580Y026200D01*
X003580Y026089D02*
X003580Y026089D01*
X003580Y025931D02*
X003580Y025931D01*
X003044Y025931D02*
X001460Y025931D01*
X001460Y026089D02*
X002954Y026089D01*
X002942Y026248D02*
X001460Y026248D01*
X001460Y026406D02*
X002997Y026406D01*
X003175Y026565D02*
X001460Y026565D01*
X001460Y026723D02*
X004710Y026723D01*
X004710Y026882D02*
X001460Y026882D01*
X001460Y027040D02*
X004710Y027040D01*
X004710Y027199D02*
X001460Y027199D01*
X001460Y027357D02*
X004710Y027357D01*
X004710Y027516D02*
X001460Y027516D01*
X001460Y027674D02*
X004710Y027674D01*
X004710Y027833D02*
X001460Y027833D01*
X001460Y027991D02*
X004710Y027991D01*
X004710Y028150D02*
X001460Y028150D01*
X001460Y028308D02*
X004710Y028308D01*
X004710Y028467D02*
X001460Y028467D01*
X001460Y028625D02*
X004710Y028625D01*
X004802Y029101D02*
X001460Y029101D01*
X001460Y029259D02*
X004961Y029259D01*
X004844Y029143D02*
X004844Y029143D01*
X005119Y029418D02*
X001460Y029418D01*
X001460Y029576D02*
X005278Y029576D01*
X005436Y029735D02*
X001460Y029735D01*
X001460Y029893D02*
X005595Y029893D01*
X005753Y030052D02*
X001460Y030052D01*
X001460Y030210D02*
X005912Y030210D01*
X002800Y032112D02*
X001460Y032112D01*
X001460Y031954D02*
X002524Y031954D01*
X002366Y031795D02*
X001460Y031795D01*
X001460Y031637D02*
X002277Y031637D01*
X002212Y031478D02*
X001460Y031478D01*
X001460Y031320D02*
X002180Y031320D01*
X002180Y031161D02*
X001460Y031161D01*
X001460Y031003D02*
X002185Y031003D01*
X002250Y030844D02*
X001460Y030844D01*
X001460Y030686D02*
X002316Y030686D01*
X002459Y030527D02*
X001460Y030527D01*
X001460Y030369D02*
X002642Y030369D01*
X001460Y032271D02*
X036333Y032271D01*
X036333Y032429D02*
X001460Y032429D01*
X001460Y032588D02*
X036333Y032588D01*
X036333Y032746D02*
X001460Y032746D01*
X005330Y025772D02*
X009930Y025772D01*
X009930Y025614D02*
X005330Y025614D01*
X004710Y024663D02*
X001460Y024663D01*
X001460Y024821D02*
X003210Y024821D01*
X002998Y024980D02*
X001460Y024980D01*
X001460Y025138D02*
X002940Y025138D01*
X002947Y025297D02*
X001460Y025297D01*
X001460Y025455D02*
X003029Y025455D01*
X003078Y024504D02*
X001460Y024504D01*
X001460Y024346D02*
X002967Y024346D01*
X002940Y024187D02*
X001460Y024187D01*
X001460Y024029D02*
X002978Y024029D01*
X003104Y023870D02*
X001460Y023870D01*
X003003Y020225D02*
X003294Y020225D01*
X003189Y020066D02*
X003109Y020066D01*
X003109Y019908D02*
X003189Y019908D01*
X003189Y019749D02*
X003109Y019749D01*
X002962Y019591D02*
X003335Y019591D01*
X003343Y019274D02*
X002954Y019274D01*
X003109Y019115D02*
X003189Y019115D01*
X003189Y018957D02*
X003109Y018957D01*
X003109Y018798D02*
X003189Y018798D01*
X003286Y018640D02*
X003011Y018640D01*
X002852Y018481D02*
X003445Y018481D01*
X003392Y018323D02*
X002905Y018323D01*
X003063Y018164D02*
X003234Y018164D01*
X003189Y018006D02*
X003109Y018006D01*
X003109Y017847D02*
X003189Y017847D01*
X003237Y017689D02*
X003060Y017689D01*
X002901Y017530D02*
X003396Y017530D01*
X003441Y017372D02*
X002856Y017372D01*
X003014Y017213D02*
X003283Y017213D01*
X003189Y017055D02*
X003109Y017055D01*
X003109Y016896D02*
X003189Y016896D01*
X003189Y016738D02*
X003109Y016738D01*
X002950Y016579D02*
X003347Y016579D01*
X003332Y016262D02*
X002965Y016262D01*
X003109Y016104D02*
X003189Y016104D01*
X003629Y016104D02*
X003669Y016104D01*
X003669Y016262D02*
X003629Y016262D01*
X004109Y016738D02*
X004185Y016738D01*
X004045Y017213D02*
X004014Y017213D01*
X003856Y017372D02*
X004200Y017372D01*
X004035Y017530D02*
X003901Y017530D01*
X003669Y017530D02*
X003629Y017530D01*
X003629Y017689D02*
X003669Y017689D01*
X003669Y017847D02*
X003629Y017847D01*
X003629Y018006D02*
X003669Y018006D01*
X003669Y018164D02*
X003629Y018164D01*
X003629Y018323D02*
X003669Y018323D01*
X003905Y018323D02*
X004339Y018323D01*
X004181Y018481D02*
X003852Y018481D01*
X004740Y018798D02*
X004912Y018798D01*
X004910Y019432D02*
X001460Y019432D01*
X003629Y015787D02*
X003669Y015787D01*
X003669Y015628D02*
X003629Y015628D01*
X003629Y015470D02*
X003669Y015470D01*
X003841Y015470D02*
X011050Y015470D01*
X011050Y015628D02*
X003999Y015628D01*
X003916Y015311D02*
X011050Y015311D01*
X011050Y015153D02*
X004075Y015153D01*
X004109Y014994D02*
X011089Y014994D01*
X011247Y014836D02*
X004109Y014836D01*
X004048Y014677D02*
X011382Y014677D01*
X011402Y014519D02*
X003890Y014519D01*
X003867Y014360D02*
X011513Y014360D01*
X011967Y014360D02*
X012313Y014360D01*
X012202Y014519D02*
X012078Y014519D01*
X012098Y014677D02*
X012182Y014677D01*
X012767Y014360D02*
X013163Y014360D01*
X013004Y014519D02*
X012878Y014519D01*
X010902Y012300D02*
X006337Y012300D01*
X006178Y012141D02*
X010913Y012141D01*
X011011Y011983D02*
X006020Y011983D01*
X010391Y017689D02*
X010408Y017689D01*
X012442Y022285D02*
X012478Y022285D01*
X012490Y022444D02*
X012073Y022444D01*
X011915Y022602D02*
X012490Y022602D01*
X012490Y022761D02*
X011756Y022761D01*
X011598Y022919D02*
X012490Y022919D01*
X012490Y023078D02*
X011439Y023078D01*
X011281Y023236D02*
X012490Y023236D01*
X012518Y023395D02*
X011122Y023395D01*
X010964Y023553D02*
X012676Y023553D01*
X012835Y023712D02*
X010805Y023712D01*
X010670Y023870D02*
X012224Y023870D01*
X012098Y024029D02*
X010670Y024029D01*
X010670Y024187D02*
X012060Y024187D01*
X012087Y024346D02*
X010670Y024346D01*
X010670Y024504D02*
X012198Y024504D01*
X013313Y024346D02*
X013469Y024346D01*
X014570Y025772D02*
X022270Y025772D01*
X022902Y025455D02*
X025749Y025455D01*
X025721Y025427D02*
X025660Y025280D01*
X025660Y025120D01*
X025721Y024973D01*
X025833Y024861D01*
X025980Y024800D01*
X026620Y024800D01*
X026767Y024861D01*
X026879Y024973D01*
X026940Y025120D01*
X026940Y025280D01*
X026879Y025427D01*
X026767Y025539D01*
X026620Y025600D01*
X025980Y025600D01*
X025833Y025539D01*
X025721Y025427D01*
X025667Y025297D02*
X021813Y025297D01*
X021820Y025138D02*
X023679Y025138D01*
X023575Y024980D02*
X021762Y024980D01*
X021550Y024821D02*
X023561Y024821D01*
X024162Y024663D02*
X027530Y024663D01*
X027530Y024821D02*
X026670Y024821D01*
X026620Y024600D02*
X026767Y024539D01*
X026879Y024427D01*
X026940Y024280D01*
X026940Y024120D01*
X026879Y023973D01*
X026767Y023861D01*
X026620Y023800D01*
X025980Y023800D01*
X025833Y023861D01*
X025721Y023973D01*
X025660Y024120D01*
X025660Y024280D01*
X025721Y024427D01*
X025833Y024539D01*
X025980Y024600D01*
X026620Y024600D01*
X026802Y024504D02*
X027530Y024504D01*
X027530Y024346D02*
X026913Y024346D01*
X026940Y024187D02*
X027530Y024187D01*
X027392Y024029D02*
X026902Y024029D01*
X026776Y023870D02*
X027233Y023870D01*
X027075Y023712D02*
X023989Y023712D01*
X024110Y023870D02*
X025824Y023870D01*
X025698Y024029D02*
X024110Y024029D01*
X024110Y024187D02*
X025660Y024187D01*
X025687Y024346D02*
X024110Y024346D01*
X024110Y024504D02*
X025798Y024504D01*
X025930Y024821D02*
X024239Y024821D01*
X024225Y024980D02*
X025718Y024980D01*
X025660Y025138D02*
X024121Y025138D01*
X022978Y025614D02*
X027530Y025614D01*
X027530Y025772D02*
X022970Y025772D01*
X022930Y025931D02*
X025764Y025931D01*
X025749Y025945D02*
X025805Y025889D01*
X025871Y025846D01*
X025943Y025815D01*
X026021Y025800D01*
X026300Y025800D01*
X026579Y025800D01*
X026657Y025815D01*
X026729Y025846D01*
X026795Y025889D01*
X026851Y025945D01*
X026894Y026011D01*
X026925Y026083D01*
X026940Y026161D01*
X026940Y026200D01*
X026940Y026239D01*
X026925Y026317D01*
X026894Y026389D01*
X026851Y026455D01*
X026795Y026511D01*
X026729Y026554D01*
X026657Y026585D01*
X026579Y026600D01*
X026300Y026600D01*
X026300Y026200D01*
X026300Y026200D01*
X026940Y026200D01*
X026300Y026200D01*
X026300Y026200D01*
X026300Y025800D01*
X026300Y026200D01*
X026300Y026200D01*
X026300Y026200D01*
X025660Y026200D01*
X025660Y026239D01*
X025675Y026317D01*
X025706Y026389D01*
X025749Y026455D01*
X025805Y026511D01*
X025871Y026554D01*
X025943Y026585D01*
X026021Y026600D01*
X026300Y026600D01*
X026300Y026200D01*
X025660Y026200D01*
X025660Y026161D01*
X025675Y026083D01*
X025706Y026011D01*
X025749Y025945D01*
X025674Y026089D02*
X022919Y026089D01*
X022811Y026248D02*
X025662Y026248D01*
X025717Y026406D02*
X022652Y026406D01*
X022494Y026565D02*
X025895Y026565D01*
X026300Y026565D02*
X026300Y026565D01*
X026300Y026406D02*
X026300Y026406D01*
X026300Y026248D02*
X026300Y026248D01*
X026300Y026089D02*
X026300Y026089D01*
X026300Y025931D02*
X026300Y025931D01*
X026836Y025931D02*
X027530Y025931D01*
X027530Y026089D02*
X026926Y026089D01*
X026938Y026248D02*
X027530Y026248D01*
X027530Y026406D02*
X026883Y026406D01*
X026705Y026565D02*
X027530Y026565D01*
X027530Y026723D02*
X022335Y026723D01*
X022177Y026882D02*
X027530Y026882D01*
X027530Y027040D02*
X022090Y027040D01*
X022090Y027199D02*
X027530Y027199D01*
X027530Y027357D02*
X022090Y027357D01*
X022090Y027516D02*
X027530Y027516D01*
X027319Y027674D02*
X022090Y027674D01*
X022090Y028150D02*
X027303Y028150D01*
X027222Y027991D02*
X027222Y027849D01*
X027857Y028150D02*
X036333Y028150D01*
X036333Y028308D02*
X022090Y028308D01*
X022090Y028467D02*
X036333Y028467D01*
X036333Y028625D02*
X022090Y028625D01*
X022090Y028784D02*
X036333Y028784D01*
X036333Y028942D02*
X022090Y028942D01*
X022090Y029101D02*
X036333Y029101D01*
X036333Y029259D02*
X022090Y029259D01*
X022090Y029418D02*
X036333Y029418D01*
X036333Y029576D02*
X022090Y029576D01*
X022090Y029735D02*
X036333Y029735D01*
X036333Y029893D02*
X022090Y029893D01*
X022090Y030052D02*
X036333Y030052D01*
X036333Y030210D02*
X022090Y030210D01*
X022090Y030369D02*
X034138Y030369D01*
X034096Y030386D02*
X034452Y030239D01*
X034837Y030239D01*
X035193Y030386D01*
X035466Y030659D01*
X035614Y031015D01*
X035614Y031400D01*
X035466Y031756D01*
X035193Y032029D01*
X034837Y032177D01*
X034452Y032177D01*
X034096Y032029D01*
X033823Y031756D01*
X033676Y031400D01*
X033676Y031015D01*
X033823Y030659D01*
X034096Y030386D01*
X033955Y030527D02*
X032794Y030527D01*
X032803Y030544D02*
X032814Y030585D01*
X032814Y030922D01*
X032338Y030922D01*
X032338Y030446D01*
X032675Y030446D01*
X032716Y030457D01*
X032753Y030478D01*
X032782Y030507D01*
X032803Y030544D01*
X032814Y030686D02*
X033812Y030686D01*
X033746Y030844D02*
X032814Y030844D01*
X032814Y030998D02*
X032338Y030998D01*
X032338Y031474D01*
X032675Y031474D01*
X032716Y031463D01*
X032753Y031442D01*
X032782Y031413D01*
X032803Y031376D01*
X032814Y031335D01*
X032814Y030998D01*
X032814Y031003D02*
X033681Y031003D01*
X033676Y031161D02*
X032814Y031161D01*
X032814Y031320D02*
X033676Y031320D01*
X033708Y031478D02*
X029650Y031478D01*
X029650Y031637D02*
X033773Y031637D01*
X033862Y031795D02*
X029583Y031795D01*
X029425Y031954D02*
X034020Y031954D01*
X034296Y032112D02*
X029266Y032112D01*
X029024Y031478D02*
X021900Y031478D01*
X024282Y030527D02*
X024286Y030527D01*
X024742Y030527D02*
X024818Y030527D01*
X024818Y030446D02*
X025155Y030446D01*
X025196Y030457D01*
X025233Y030478D01*
X025262Y030507D01*
X025283Y030544D01*
X025294Y030585D01*
X025294Y030922D01*
X024818Y030922D01*
X024818Y030446D01*
X024818Y030686D02*
X024742Y030686D01*
X024742Y030844D02*
X024818Y030844D01*
X024818Y030998D02*
X025294Y030998D01*
X025294Y031335D01*
X025283Y031376D01*
X025262Y031413D01*
X025233Y031442D01*
X025196Y031463D01*
X025155Y031474D01*
X024818Y031474D01*
X024818Y030998D01*
X024818Y031003D02*
X024742Y031003D01*
X024742Y031161D02*
X024818Y031161D01*
X024818Y031320D02*
X024742Y031320D01*
X025294Y031320D02*
X027801Y031320D01*
X027801Y031161D02*
X025294Y031161D01*
X025294Y031003D02*
X027801Y031003D01*
X027801Y030844D02*
X025294Y030844D01*
X025294Y030686D02*
X027801Y030686D01*
X027814Y030527D02*
X025274Y030527D01*
X027950Y027674D02*
X036333Y027674D01*
X036333Y027516D02*
X027950Y027516D01*
X027950Y027357D02*
X036333Y027357D01*
X036333Y027199D02*
X027950Y027199D01*
X028299Y027040D02*
X036333Y027040D01*
X036333Y026882D02*
X028393Y026882D01*
X028395Y026723D02*
X028771Y026723D01*
X028751Y026714D02*
X028823Y026745D01*
X028901Y026760D01*
X029180Y026760D01*
X029180Y026360D01*
X029180Y026360D01*
X029180Y025960D01*
X029459Y025960D01*
X029537Y025975D01*
X029609Y026006D01*
X029675Y026049D01*
X029731Y026105D01*
X029774Y026171D01*
X029805Y026243D01*
X029819Y026317D01*
X029836Y026277D01*
X029937Y026176D01*
X030069Y026122D01*
X030211Y026122D01*
X030328Y026170D01*
X031117Y026170D01*
X031744Y025543D01*
X031773Y025473D01*
X031868Y025378D01*
X031993Y025327D01*
X032127Y025327D01*
X032252Y025378D01*
X032347Y025473D01*
X032399Y025598D01*
X032399Y025733D01*
X032347Y025857D01*
X032252Y025953D01*
X032182Y025981D01*
X031421Y026743D01*
X031307Y026790D01*
X030328Y026790D01*
X030211Y026838D01*
X030069Y026838D01*
X029937Y026784D01*
X029836Y026683D01*
X029782Y026551D01*
X029782Y026532D01*
X029774Y026549D01*
X029731Y026615D01*
X029675Y026671D01*
X029609Y026714D01*
X029537Y026745D01*
X029459Y026760D01*
X029180Y026760D01*
X029180Y026360D01*
X029180Y026360D01*
X029180Y026360D01*
X028540Y026360D01*
X028540Y026399D01*
X028555Y026477D01*
X028586Y026549D01*
X028629Y026615D01*
X028685Y026671D01*
X028751Y026714D01*
X028596Y026565D02*
X028304Y026565D01*
X028270Y026406D02*
X028541Y026406D01*
X028540Y026360D02*
X028540Y026321D01*
X028555Y026243D01*
X028586Y026171D01*
X028629Y026105D01*
X028685Y026049D01*
X028751Y026006D01*
X028823Y025975D01*
X028901Y025960D01*
X029180Y025960D01*
X029180Y026360D01*
X028540Y026360D01*
X028555Y026248D02*
X028270Y026248D01*
X028270Y026089D02*
X028645Y026089D01*
X028860Y025760D02*
X028713Y025699D01*
X028601Y025587D01*
X028540Y025440D01*
X028540Y025280D01*
X028601Y025133D01*
X028713Y025021D01*
X028860Y024960D01*
X029500Y024960D01*
X029647Y025021D01*
X029759Y025133D01*
X029820Y025280D01*
X029820Y025440D01*
X029759Y025587D01*
X029647Y025699D01*
X029500Y025760D01*
X028860Y025760D01*
X028628Y025614D02*
X028270Y025614D01*
X028270Y025772D02*
X031515Y025772D01*
X031673Y025614D02*
X029732Y025614D01*
X029814Y025455D02*
X031791Y025455D01*
X031839Y025138D02*
X029761Y025138D01*
X029820Y025297D02*
X033980Y025297D01*
X033980Y025280D02*
X034041Y025133D01*
X034153Y025021D01*
X034300Y024960D01*
X034940Y024960D01*
X035087Y025021D01*
X035199Y025133D01*
X035260Y025280D01*
X035260Y025440D01*
X035199Y025587D01*
X035087Y025699D01*
X034940Y025760D01*
X034300Y025760D01*
X034153Y025699D01*
X034041Y025587D01*
X033980Y025440D01*
X033980Y025280D01*
X034039Y025138D02*
X032281Y025138D01*
X032385Y024980D02*
X034253Y024980D01*
X034300Y024760D02*
X034153Y024699D01*
X034041Y024587D01*
X033980Y024440D01*
X033980Y024280D01*
X034041Y024133D01*
X034153Y024021D01*
X034300Y023960D01*
X034940Y023960D01*
X035087Y024021D01*
X035199Y024133D01*
X035260Y024280D01*
X035260Y024440D01*
X035199Y024587D01*
X035087Y024699D01*
X034940Y024760D01*
X034300Y024760D01*
X034117Y024663D02*
X032322Y024663D01*
X032270Y024504D02*
X034007Y024504D01*
X033980Y024346D02*
X032270Y024346D01*
X032270Y024187D02*
X034019Y024187D01*
X034146Y024029D02*
X032270Y024029D01*
X032147Y023870D02*
X036333Y023870D01*
X036333Y023712D02*
X031989Y023712D01*
X031830Y023553D02*
X036333Y023553D01*
X036333Y023395D02*
X028472Y023395D01*
X028313Y023236D02*
X036333Y023236D01*
X036333Y023078D02*
X028155Y023078D01*
X027996Y022919D02*
X036333Y022919D01*
X036333Y022761D02*
X028259Y022761D01*
X027861Y022761D02*
X027838Y022761D01*
X027744Y022602D02*
X027679Y022602D01*
X027721Y022444D02*
X027521Y022444D01*
X027402Y022919D02*
X027356Y022919D01*
X027515Y023078D02*
X027561Y023078D01*
X027673Y023236D02*
X027719Y023236D01*
X027832Y023395D02*
X027878Y023395D01*
X027990Y023553D02*
X028036Y023553D01*
X028149Y023712D02*
X028195Y023712D01*
X028270Y023870D02*
X028353Y023870D01*
X028270Y024029D02*
X028706Y024029D01*
X028579Y024187D02*
X028270Y024187D01*
X028270Y024346D02*
X028540Y024346D01*
X028567Y024504D02*
X028270Y024504D01*
X028270Y024663D02*
X028677Y024663D01*
X028813Y024980D02*
X028270Y024980D01*
X028270Y025138D02*
X028599Y025138D01*
X028540Y025297D02*
X028270Y025297D01*
X028270Y025455D02*
X028546Y025455D01*
X028270Y025931D02*
X031356Y025931D01*
X031198Y026089D02*
X029715Y026089D01*
X029805Y026248D02*
X029866Y026248D01*
X029787Y026565D02*
X029764Y026565D01*
X029876Y026723D02*
X029589Y026723D01*
X029180Y026723D02*
X029180Y026723D01*
X029180Y026565D02*
X029180Y026565D01*
X029180Y026406D02*
X029180Y026406D01*
X029180Y026248D02*
X029180Y026248D01*
X029180Y026089D02*
X029180Y026089D01*
X029547Y024980D02*
X031735Y024980D01*
X031721Y024821D02*
X028270Y024821D01*
X027530Y024980D02*
X026882Y024980D01*
X026940Y025138D02*
X027530Y025138D01*
X027530Y025297D02*
X026933Y025297D01*
X026851Y025455D02*
X027530Y025455D01*
X026916Y023553D02*
X023830Y023553D01*
X024388Y021651D02*
X021692Y021651D01*
X021850Y021493D02*
X024361Y021493D01*
X024410Y021334D02*
X022009Y021334D01*
X021794Y020383D02*
X021400Y020383D01*
X021946Y020225D02*
X021953Y020225D01*
X022105Y020066D02*
X022111Y020066D01*
X022140Y019908D02*
X022270Y019908D01*
X022361Y019749D02*
X022140Y019749D01*
X022081Y019591D02*
X022404Y019591D01*
X020700Y019432D02*
X020660Y019432D01*
X021021Y017530D02*
X021047Y017530D01*
X016734Y019274D02*
X015618Y019274D01*
X015585Y019432D02*
X016706Y019432D01*
X016681Y019115D02*
X015722Y019115D01*
X015880Y018957D02*
X016417Y018957D01*
X016361Y018798D02*
X016039Y018798D01*
X016197Y018640D02*
X016383Y018640D01*
X015756Y017847D02*
X015546Y017847D01*
X009930Y023712D02*
X007125Y023712D01*
X006990Y023870D02*
X009024Y023870D01*
X008898Y024029D02*
X006990Y024029D01*
X006990Y024187D02*
X008860Y024187D01*
X008887Y024346D02*
X007072Y024346D01*
X007138Y024504D02*
X008998Y024504D01*
X009870Y024821D02*
X009930Y024821D01*
X009930Y024663D02*
X007125Y024663D01*
X009500Y025931D02*
X009500Y025931D01*
X009500Y026089D02*
X009500Y026089D01*
X009500Y026248D02*
X009500Y026248D01*
X009500Y026406D02*
X009500Y026406D01*
X009500Y026565D02*
X009500Y026565D01*
X010493Y027516D02*
X013307Y027516D01*
X013303Y027674D02*
X010497Y027674D01*
X010414Y027833D02*
X013386Y027833D01*
X012774Y030527D02*
X010350Y030527D01*
X010354Y030545D02*
X010354Y030882D01*
X009878Y030882D01*
X009878Y030406D01*
X010215Y030406D01*
X010256Y030417D01*
X010293Y030438D01*
X010322Y030467D01*
X010343Y030504D01*
X010354Y030545D01*
X010354Y030686D02*
X012761Y030686D01*
X012761Y030844D02*
X010354Y030844D01*
X010354Y030958D02*
X009878Y030958D01*
X009878Y031434D01*
X010215Y031434D01*
X010256Y031423D01*
X010293Y031402D01*
X010322Y031373D01*
X010343Y031336D01*
X010354Y031295D01*
X010354Y030958D01*
X010354Y031003D02*
X012761Y031003D01*
X012761Y031161D02*
X010354Y031161D01*
X010348Y031320D02*
X012761Y031320D01*
X009878Y031320D02*
X009802Y031320D01*
X009802Y031161D02*
X009878Y031161D01*
X009878Y031003D02*
X009802Y031003D01*
X009802Y030844D02*
X009878Y030844D01*
X009878Y030686D02*
X009802Y030686D01*
X009802Y030527D02*
X009878Y030527D01*
X016762Y030527D02*
X016766Y030527D01*
X017222Y030527D02*
X017298Y030527D01*
X017298Y030686D02*
X017222Y030686D01*
X017222Y030844D02*
X017298Y030844D01*
X017298Y031003D02*
X017222Y031003D01*
X017222Y031161D02*
X017298Y031161D01*
X017298Y031320D02*
X017222Y031320D01*
X021180Y026565D02*
X021180Y026565D01*
X021180Y026406D02*
X021180Y026406D01*
X021180Y026248D02*
X021180Y026248D01*
X021180Y026089D02*
X021180Y026089D01*
X021180Y025931D02*
X021180Y025931D01*
X027548Y019274D02*
X027932Y019274D01*
X027758Y019115D02*
X027722Y019115D01*
X031755Y022602D02*
X036333Y022602D01*
X036333Y022444D02*
X032096Y022444D01*
X032215Y022285D02*
X036333Y022285D01*
X036333Y022127D02*
X032239Y022127D01*
X031712Y024029D02*
X029654Y024029D01*
X029781Y024187D02*
X031850Y024187D01*
X031850Y024346D02*
X029820Y024346D01*
X029793Y024504D02*
X031850Y024504D01*
X031798Y024663D02*
X029683Y024663D01*
X031758Y026406D02*
X033981Y026406D01*
X033980Y026399D02*
X033980Y026360D01*
X034620Y026360D01*
X034620Y026360D01*
X034620Y026760D01*
X034899Y026760D01*
X034977Y026745D01*
X035049Y026714D01*
X035115Y026671D01*
X035171Y026615D01*
X035214Y026549D01*
X035245Y026477D01*
X035260Y026399D01*
X035260Y026360D01*
X034620Y026360D01*
X034620Y026360D01*
X034620Y025960D01*
X034899Y025960D01*
X034977Y025975D01*
X035049Y026006D01*
X035115Y026049D01*
X035171Y026105D01*
X035214Y026171D01*
X035245Y026243D01*
X035260Y026321D01*
X035260Y026360D01*
X034620Y026360D01*
X034620Y026360D01*
X034620Y026360D01*
X034620Y026760D01*
X034341Y026760D01*
X034263Y026745D01*
X034191Y026714D01*
X034125Y026671D01*
X034069Y026615D01*
X034026Y026549D01*
X033995Y026477D01*
X033980Y026399D01*
X033980Y026360D02*
X033980Y026321D01*
X033995Y026243D01*
X034026Y026171D01*
X034069Y026105D01*
X034125Y026049D01*
X034191Y026006D01*
X034263Y025975D01*
X034341Y025960D01*
X034620Y025960D01*
X034620Y026360D01*
X033980Y026360D01*
X033995Y026248D02*
X031916Y026248D01*
X032075Y026089D02*
X034085Y026089D01*
X034068Y025614D02*
X032399Y025614D01*
X032382Y025772D02*
X036333Y025772D01*
X036333Y025614D02*
X035172Y025614D01*
X035254Y025455D02*
X036333Y025455D01*
X036333Y025297D02*
X035260Y025297D01*
X035201Y025138D02*
X036333Y025138D01*
X036333Y024980D02*
X034987Y024980D01*
X035123Y024663D02*
X036333Y024663D01*
X036333Y024821D02*
X032399Y024821D01*
X032329Y025455D02*
X033986Y025455D01*
X034620Y026089D02*
X034620Y026089D01*
X034620Y026248D02*
X034620Y026248D01*
X034620Y026406D02*
X034620Y026406D01*
X034620Y026565D02*
X034620Y026565D01*
X034620Y026723D02*
X034620Y026723D01*
X034211Y026723D02*
X031441Y026723D01*
X031599Y026565D02*
X034036Y026565D01*
X035029Y026723D02*
X036333Y026723D01*
X036333Y026565D02*
X035204Y026565D01*
X035259Y026406D02*
X036333Y026406D01*
X036333Y026248D02*
X035245Y026248D01*
X035155Y026089D02*
X036333Y026089D01*
X036333Y025931D02*
X032274Y025931D01*
X035233Y024504D02*
X036333Y024504D01*
X036333Y024346D02*
X035260Y024346D01*
X035221Y024187D02*
X036333Y024187D01*
X036333Y024029D02*
X035094Y024029D01*
X035151Y030369D02*
X036333Y030369D01*
X036333Y030527D02*
X035334Y030527D01*
X035477Y030686D02*
X036333Y030686D01*
X036333Y030844D02*
X035543Y030844D01*
X035608Y031003D02*
X036333Y031003D01*
X036333Y031161D02*
X035614Y031161D01*
X035614Y031320D02*
X036333Y031320D01*
X036333Y031478D02*
X035581Y031478D01*
X035516Y031637D02*
X036333Y031637D01*
X036333Y031795D02*
X035427Y031795D01*
X035269Y031954D02*
X036333Y031954D01*
X036333Y032112D02*
X034993Y032112D01*
X032338Y031320D02*
X032262Y031320D01*
X032262Y031161D02*
X032338Y031161D01*
X032338Y031003D02*
X032262Y031003D01*
X032262Y030844D02*
X032338Y030844D01*
X032338Y030686D02*
X032262Y030686D01*
X032262Y030527D02*
X032338Y030527D01*
X031806Y030527D02*
X031802Y030527D01*
D24*
X034460Y028400D03*
X032860Y021200D03*
X030620Y020880D03*
X029820Y019440D03*
X028540Y020720D03*
X029340Y017360D03*
X031580Y014320D03*
X034940Y013680D03*
X035580Y020240D03*
X027420Y012560D03*
X025020Y011760D03*
X024540Y017040D03*
X022620Y016880D03*
X016860Y015920D03*
X013820Y017680D03*
X009820Y014800D03*
X007260Y015920D03*
X014940Y011760D03*
X018780Y006320D03*
X034460Y006320D03*
X011580Y024240D03*
X008220Y024720D03*
X005980Y023440D03*
X002940Y028240D03*
X018940Y028240D03*
X002300Y005840D03*
D25*
X005500Y011920D02*
X005660Y011920D01*
X006380Y012640D01*
X025340Y012640D01*
X032380Y019680D01*
X032380Y019120D02*
X025500Y012240D01*
X011260Y012240D01*
X011740Y011800D02*
X010620Y010640D01*
X010620Y008400D01*
X011100Y008240D02*
X011100Y010640D01*
X011900Y011440D01*
X012380Y011440D01*
X012540Y011600D01*
X012540Y011760D01*
X011100Y012880D02*
X010940Y013040D01*
X023260Y013040D01*
X027420Y017200D01*
X027420Y018960D01*
X027740Y018480D02*
X027740Y016880D01*
X023900Y013040D01*
X024540Y013040D02*
X028060Y016560D01*
X028060Y018960D01*
X028380Y018480D02*
X028380Y016240D01*
X025180Y013040D01*
X026140Y012240D02*
X033020Y019120D01*
X033020Y018480D02*
X029020Y014480D01*
X028860Y014480D01*
X028860Y012080D01*
X029660Y010960D02*
X030460Y010160D01*
X030460Y009840D01*
X029660Y010960D02*
X024060Y010960D01*
X023100Y011920D01*
X020700Y011920D01*
X020540Y011440D02*
X020060Y011920D01*
X019580Y011920D02*
X019580Y011760D01*
X020140Y011200D01*
X022740Y011200D01*
X024860Y009040D01*
X024860Y008560D01*
X025660Y007760D01*
X025660Y008080D02*
X025180Y008560D01*
X025180Y009200D01*
X022940Y011440D01*
X020540Y011440D01*
X019580Y010960D02*
X018940Y011600D01*
X018940Y011920D01*
X019580Y010960D02*
X021980Y010960D01*
X022460Y010480D01*
X022460Y009840D01*
X025660Y008080D02*
X026940Y008080D01*
X027260Y007760D01*
X027260Y006640D01*
X020700Y013360D02*
X020700Y014960D01*
X019580Y016080D01*
X019420Y016080D01*
X017180Y018320D01*
X016220Y018320D01*
X015260Y019280D01*
X015260Y018640D02*
X015900Y018000D01*
X017020Y018000D01*
X019260Y015760D01*
X019420Y015760D01*
X020060Y015120D01*
X020060Y013360D01*
X019580Y013360D02*
X019420Y013520D01*
X019420Y015120D01*
X018780Y015760D01*
X018620Y015760D01*
X018620Y015280D02*
X018940Y014960D01*
X018940Y013360D01*
X016060Y014800D02*
X013340Y014800D01*
X012860Y015280D01*
X012860Y015440D01*
X012700Y015600D01*
X012700Y015120D02*
X012380Y015120D01*
X012060Y015440D01*
X012060Y015600D01*
X012060Y015120D02*
X011740Y015120D01*
X011580Y015280D01*
X011580Y017680D01*
X012700Y018800D01*
X013180Y018800D02*
X013180Y015600D01*
X013500Y015280D01*
X013340Y014480D02*
X015420Y014480D01*
X015740Y014160D01*
X013340Y014480D02*
X012700Y015120D01*
X012540Y014640D02*
X012060Y015120D01*
X011740Y014640D02*
X011260Y015120D01*
X011260Y018000D01*
X012060Y018800D01*
X012700Y019280D02*
X013180Y018800D01*
X012220Y021520D02*
X010140Y023600D01*
X010140Y027600D01*
X010460Y026640D02*
X010460Y023760D01*
X012220Y022000D01*
X012700Y022000D02*
X012700Y023280D01*
X014140Y024720D01*
X016220Y023280D02*
X016540Y023600D01*
X023580Y023600D01*
X023900Y023920D01*
X023900Y024880D01*
X024700Y022160D02*
X031100Y022160D01*
X031580Y022480D02*
X031900Y022160D01*
X031580Y022480D02*
X028060Y022480D01*
X027420Y022640D02*
X028540Y023760D01*
X031740Y023760D01*
X032060Y024080D01*
X032060Y024880D01*
X031100Y021520D02*
X024700Y021520D01*
X027100Y022960D02*
X028060Y023920D01*
X028060Y026800D01*
X027740Y027760D02*
X027580Y027920D01*
X027740Y027760D02*
X027740Y024080D01*
X026940Y023280D01*
X016700Y023280D01*
X015420Y022000D01*
X014900Y022000D02*
X016220Y023280D01*
X016860Y022960D02*
X027100Y022960D01*
X027420Y022640D02*
X017020Y022640D01*
X015900Y021520D01*
X015420Y021520D02*
X016860Y022960D01*
X011740Y021520D02*
X009820Y023440D01*
X007100Y023440D01*
X006780Y023760D01*
X006780Y024560D01*
X011100Y008240D02*
X011580Y007760D01*
X011580Y007120D01*
M02*
