G75*
G70*
%OFA0B0*%
%FSLAX24Y24*%
%IPPOS*%
%LPD*%
%AMOC8*
5,1,8,0,0,1.08239X$1,22.5*
%
%ADD10C,0.1261*%
%ADD11C,0.0600*%
%ADD12C,0.0680*%
%ADD13OC8,0.0600*%
%ADD14OC8,0.0710*%
%ADD15C,0.0710*%
%ADD16OC8,0.0654*%
%ADD17C,0.1386*%
%ADD18OC8,0.0674*%
%ADD19R,0.0595X0.0595*%
%ADD20C,0.1025*%
%ADD21C,0.0434*%
%ADD22C,0.0600*%
%ADD23C,0.0674*%
%ADD24C,0.0595*%
%ADD25R,0.0476X0.0476*%
D10*
X001501Y001363D03*
X038509Y001363D03*
X010163Y029709D03*
X038509Y030496D03*
D11*
X036690Y027441D02*
X036690Y026921D01*
X035690Y026921D02*
X035690Y027441D01*
X035690Y025941D02*
X035690Y025421D01*
X036690Y025421D02*
X036690Y025941D01*
X032950Y023681D02*
X032430Y023681D01*
X031450Y023681D02*
X030930Y023681D01*
X030930Y022681D02*
X031450Y022681D01*
X032430Y022681D02*
X032950Y022681D01*
X033190Y016201D02*
X033190Y015681D01*
X032190Y015681D02*
X032190Y016201D01*
X030190Y016201D02*
X030190Y015681D01*
X029190Y015681D02*
X029190Y016201D01*
X028190Y016201D02*
X028190Y015681D01*
X027190Y015681D02*
X027190Y016201D01*
X025190Y016201D02*
X025190Y015681D01*
X024190Y015681D02*
X024190Y016201D01*
X023190Y016201D02*
X023190Y015681D01*
X022190Y015681D02*
X022190Y016201D01*
X022190Y012681D02*
X022190Y012161D01*
X023190Y012161D02*
X023190Y012681D01*
X024190Y012681D02*
X024190Y012161D01*
X025190Y012161D02*
X025190Y012681D01*
X027190Y012681D02*
X027190Y012161D01*
X028190Y012161D02*
X028190Y012681D01*
X029190Y012681D02*
X029190Y012161D01*
X030190Y012161D02*
X030190Y012681D01*
X032190Y012681D02*
X032190Y012161D01*
X033190Y012161D02*
X033190Y012681D01*
X035190Y012681D02*
X035190Y012161D01*
X036190Y012161D02*
X036190Y012681D01*
X036190Y015681D02*
X036190Y016201D01*
X035190Y016201D02*
X035190Y015681D01*
X025450Y008681D02*
X024930Y008681D01*
X024930Y007681D02*
X025450Y007681D01*
X020950Y007681D02*
X020430Y007681D01*
X020430Y008681D02*
X020950Y008681D01*
X014950Y008181D02*
X014430Y008181D01*
X014430Y007181D02*
X014950Y007181D01*
X014950Y009181D02*
X014430Y009181D01*
X014430Y010181D02*
X014950Y010181D01*
X014950Y011181D02*
X014430Y011181D01*
X014430Y012181D02*
X014950Y012181D01*
X014950Y013181D02*
X014430Y013181D01*
X014430Y014181D02*
X014950Y014181D01*
X014950Y015181D02*
X014430Y015181D01*
X014430Y016181D02*
X014950Y016181D01*
X014950Y017181D02*
X014430Y017181D01*
X014430Y018181D02*
X014950Y018181D01*
X014950Y019181D02*
X014430Y019181D01*
X014430Y020181D02*
X014950Y020181D01*
X014950Y021181D02*
X014430Y021181D01*
X014430Y022181D02*
X014950Y022181D01*
X014950Y023181D02*
X014430Y023181D01*
X014430Y024181D02*
X014950Y024181D01*
X014950Y025181D02*
X014430Y025181D01*
X014430Y026181D02*
X014950Y026181D01*
X008950Y026181D02*
X008430Y026181D01*
X008430Y025181D02*
X008950Y025181D01*
X008950Y024181D02*
X008430Y024181D01*
X008430Y023181D02*
X008950Y023181D01*
X008950Y022181D02*
X008430Y022181D01*
X008430Y021181D02*
X008950Y021181D01*
X008950Y020181D02*
X008430Y020181D01*
X008430Y019181D02*
X008950Y019181D01*
X008950Y018181D02*
X008430Y018181D01*
X008430Y017181D02*
X008950Y017181D01*
X008950Y016181D02*
X008430Y016181D01*
X008430Y015181D02*
X008950Y015181D01*
X008950Y014181D02*
X008430Y014181D01*
X008430Y013181D02*
X008950Y013181D01*
X008950Y012181D02*
X008430Y012181D01*
X008430Y011181D02*
X008950Y011181D01*
X008950Y010181D02*
X008430Y010181D01*
X008430Y009181D02*
X008950Y009181D01*
X008950Y008181D02*
X008430Y008181D01*
X008430Y007181D02*
X008950Y007181D01*
X005950Y015181D02*
X005430Y015181D01*
X005430Y016181D02*
X005950Y016181D01*
X002950Y016181D02*
X002430Y016181D01*
X002430Y015181D02*
X002950Y015181D01*
D12*
X020190Y026381D02*
X020190Y026981D01*
X021190Y026981D02*
X021190Y026381D01*
X022190Y026381D02*
X022190Y026981D01*
D13*
X021690Y025181D03*
X022690Y025181D03*
X020190Y025181D03*
X019190Y025181D03*
X017190Y026181D03*
X016190Y026181D03*
X022690Y020681D03*
X023690Y020681D03*
X023690Y019681D03*
X022690Y019681D03*
X022190Y018181D03*
X023190Y018181D03*
X024190Y018181D03*
X025190Y018181D03*
X024190Y017181D03*
X023190Y017181D03*
X024690Y019681D03*
X025690Y019681D03*
X026690Y019681D03*
X026690Y020681D03*
X025690Y020681D03*
X024690Y020681D03*
X027190Y018181D03*
X028190Y018181D03*
X029190Y018181D03*
X030190Y018181D03*
X029190Y017181D03*
X028190Y017181D03*
X032190Y017181D03*
X033190Y017181D03*
X033190Y018181D03*
X032190Y018181D03*
X035190Y018181D03*
X036190Y018181D03*
X036190Y017181D03*
X035190Y017181D03*
X033190Y021831D03*
X032190Y021831D03*
X030540Y024731D03*
X029540Y024731D03*
X029540Y025581D03*
X030540Y025581D03*
X031440Y025581D03*
X032440Y025581D03*
X033690Y026181D03*
X034690Y026181D03*
X034690Y027181D03*
X033690Y027181D03*
X037690Y026681D03*
X038690Y026681D03*
X026690Y026431D03*
X025690Y026431D03*
X025690Y025431D03*
X026690Y025431D03*
X026690Y027681D03*
X025690Y027681D03*
X025690Y023181D03*
X024690Y023181D03*
X017190Y018681D03*
X016190Y018681D03*
X016190Y017681D03*
X017190Y017681D03*
X017190Y016181D03*
X016190Y016181D03*
X016640Y012131D03*
X015640Y012131D03*
X015690Y011181D03*
X016690Y011181D03*
X016690Y010181D03*
X015690Y010181D03*
X015690Y009181D03*
X016690Y009181D03*
X019190Y008681D03*
X019190Y007681D03*
X027190Y010181D03*
X028190Y010181D03*
X010690Y010181D03*
X010690Y009181D03*
X010690Y008181D03*
X010690Y011181D03*
X004690Y015181D03*
X004690Y016181D03*
X001690Y016181D03*
X001690Y015181D03*
D14*
X010190Y017181D03*
X010190Y018181D03*
X013190Y015681D03*
X013190Y014681D03*
X016190Y027181D03*
X017190Y027181D03*
X016190Y029681D03*
X031690Y026681D03*
D15*
X031690Y027681D03*
X016190Y028681D03*
D16*
X006044Y012174D03*
X005257Y012174D03*
X005257Y011189D03*
X006044Y011189D03*
D17*
X004190Y009311D03*
X004190Y014051D03*
D18*
X028190Y019581D03*
X029190Y019581D03*
X030190Y019581D03*
X031190Y019581D03*
X032190Y019581D03*
X033190Y019581D03*
X034190Y019581D03*
X035190Y019581D03*
X036190Y019581D03*
X037190Y019581D03*
D19*
X004690Y019670D03*
X004690Y018866D03*
X003690Y019268D03*
X003690Y020071D03*
X004690Y020473D03*
X004690Y021276D03*
X003690Y021677D03*
X003690Y020874D03*
X004690Y025366D03*
X003690Y025768D03*
X004690Y026170D03*
X004690Y026973D03*
X003690Y027374D03*
X003690Y026571D03*
X004690Y027776D03*
X003690Y028177D03*
X003640Y006427D03*
X004640Y006026D03*
X004640Y005223D03*
X003640Y005624D03*
X003640Y004821D03*
X004640Y004420D03*
X004640Y003616D03*
X003640Y004018D03*
D20*
X002735Y002433D03*
X002735Y007823D03*
X002785Y017683D03*
X002785Y023073D03*
X002785Y024183D03*
X002785Y029573D03*
D21*
X004690Y029868D03*
X004690Y023868D03*
X004690Y023368D03*
X004690Y017368D03*
X004640Y008118D03*
X004640Y002118D03*
D22*
X023690Y021681D03*
X024690Y021681D03*
X025690Y021681D03*
X026690Y021681D03*
X026690Y024681D03*
X025690Y024681D03*
X024690Y024681D03*
X023690Y024681D03*
D23*
X028393Y026681D02*
X028987Y026681D01*
X028987Y027681D02*
X028393Y027681D01*
X034393Y023681D02*
X034987Y023681D01*
X034987Y022681D02*
X034393Y022681D01*
X017190Y023885D02*
X017190Y024478D01*
X016190Y024478D02*
X016190Y023885D01*
X022393Y009181D02*
X022987Y009181D01*
X022987Y008181D02*
X022393Y008181D01*
X022393Y007181D02*
X022987Y007181D01*
X027393Y007181D02*
X027987Y007181D01*
X027987Y008181D02*
X027393Y008181D01*
X027393Y009181D02*
X027987Y009181D01*
X031893Y009181D02*
X032487Y009181D01*
X032487Y008181D02*
X031893Y008181D01*
X031893Y007181D02*
X032487Y007181D01*
D24*
X016690Y013181D03*
X016690Y014181D03*
X016690Y015181D03*
D25*
X013390Y015631D03*
X011690Y015681D03*
X010190Y015181D03*
X010190Y013681D03*
X007690Y019181D03*
X006440Y019281D03*
X001690Y020181D03*
X001690Y018181D03*
X031190Y020681D03*
X033190Y020681D03*
M02*
