%
M48
M72
T01C0.0236
T02C0.0315
T03C0.0320
T04C0.0354
T05C0.0374
T06C0.0394
T07C0.0400
T08C0.0433
T09C0.0906
T10C0.0945
T11C0.1181
%
T01
X13028Y4181
X13028Y5681
X24528Y8181
X24528Y11181
X25028Y12681
X25028Y14181
X30528Y13681
X31528Y13681
X33028Y15181
X33028Y16181
X40528Y13181
X40528Y12181
X41528Y17181
X41528Y19181
X41028Y22181
X39028Y22181
X28528Y27681
X28528Y29181
X12028Y20681
X10028Y20681
T02
X26528Y15181
X26528Y14181
X26528Y13181
X38528Y19268
X38528Y20071
X39528Y19670
X39528Y20473
X38528Y20874
X38528Y21677
X39528Y21276
X39528Y18866
X39528Y25366
X38528Y25768
X38528Y26571
X39528Y26170
X39528Y26973
X38528Y27374
X38528Y28177
X39528Y27776
X38578Y6427
X38578Y5624
X39578Y5223
X39578Y6026
X38578Y4821
X38578Y4018
X39578Y3616
X39578Y4420
T03
X34528Y7181
X34528Y8181
X34528Y9181
X34528Y10181
X34528Y11181
X34528Y12181
X34528Y13181
X34528Y14181
X34528Y15181
X34528Y16181
X34528Y17181
X34528Y18181
X34528Y19181
X33028Y18181
X33028Y17181
X30278Y15681
X30278Y14681
X28528Y14181
X28528Y13181
X28528Y12181
X27578Y12131
X26578Y12131
X26528Y11181
X27528Y11181
X27528Y10181
X26528Y10181
X26528Y9181
X27528Y9181
X28528Y9181
X28528Y8181
X28528Y7181
X31528Y9181
X32528Y9181
X32528Y10181
X32528Y11181
X28528Y11181
X28528Y10181
X28528Y15181
X28528Y16181
X28528Y17181
X28528Y18181
X28528Y19181
X28528Y20181
X28528Y21181
X28528Y22181
X28528Y23181
X28528Y24181
X28528Y25181
X28528Y26181
X28828Y27031
X27828Y27031
X27028Y27181
X26028Y27181
X26028Y26181
X27028Y26181
X24028Y25181
X23028Y25181
X21528Y25181
X20528Y25181
X19528Y24681
X18528Y24681
X17528Y24681
X16528Y24681
X16528Y25431
X17528Y25431
X17528Y26431
X17528Y27181
X16528Y27181
X16528Y26431
X13678Y25581
X12678Y25581
X11778Y25581
X10778Y25581
X9528Y26181
X9528Y27181
X8528Y27181
X7528Y27181
X6528Y27181
X5528Y26681
X4528Y26681
X6528Y25681
X7528Y25681
X8528Y26181
X11528Y26681
X11528Y27681
X12678Y24731
X13678Y24731
X12028Y23681
X12028Y22681
X11028Y21831
X10528Y22681
X10028Y21831
X10528Y23681
X16528Y21681
X17528Y21681
X18528Y21681
X18528Y20681
X17528Y20681
X16528Y20681
X16528Y19681
X17528Y19681
X18528Y19681
X19528Y19681
X20528Y19681
X20528Y20681
X19528Y20681
X19528Y21681
X18528Y23181
X17528Y23181
X18028Y18181
X19028Y18181
X20028Y18181
X21028Y18181
X20028Y17181
X19028Y17181
X19028Y15681
X20028Y15681
X21028Y15681
X18028Y15681
X16028Y15681
X15028Y15681
X14028Y15681
X13028Y15681
X14028Y17181
X15028Y17181
X15028Y18181
X14028Y18181
X13028Y18181
X11028Y18181
X10028Y18181
X10028Y17181
X11028Y17181
X11028Y15681
X10028Y15681
X8028Y15681
X7028Y15681
X7028Y17181
X8028Y17181
X8028Y18181
X7028Y18181
X7028Y12681
X8028Y12681
X10028Y12681
X11028Y12681
X13028Y12681
X14028Y12681
X15028Y12681
X16028Y12681
X18028Y12681
X19028Y12681
X20028Y12681
X21028Y12681
X26028Y16181
X27028Y16181
X27028Y17681
X26028Y17681
X26028Y18681
X27028Y18681
X34528Y20181
X34528Y21181
X34528Y22181
X34528Y23181
X34528Y24181
X34528Y25181
X34528Y26181
X27028Y28681
X27028Y29681
X16028Y18181
X19028Y7181
X20528Y7181
X20528Y6181
X19028Y6181
X12528Y6181
X11028Y6181
X11028Y7181
X12528Y7181
X37028Y15181
X37028Y16181
X38528Y16181
X38528Y15181
X40528Y15181
X41528Y15181
X41528Y16181
X40528Y16181
T04
X38528Y17368
X38528Y23368
X38528Y23868
X38528Y29868
X38578Y8118
X38578Y2118
T05
X37961Y11189
X37173Y11189
X37173Y12174
X37961Y12174
T06
X22528Y9181
X22528Y8181
X22528Y7181
X15528Y6681
X15528Y5681
X15528Y7681
X7528Y7681
X7528Y6681
X7528Y5681
X8028Y19581
X9028Y19581
X10028Y19581
X11028Y19581
X12028Y19581
X13028Y19581
X14028Y19581
X15028Y19581
X8528Y22181
X8528Y23181
X7028Y19581
X6028Y19581
X13028Y29681
X14028Y29681
X26028Y24181
X27028Y24181
T07
X23028Y26681
X22028Y26681
X21028Y26681
X29528Y28181
X30528Y28181
X31528Y28181
X32528Y28181
X33528Y28181
T08
X18028Y29681
X17028Y29681
X16028Y29681
T09
X39028Y14051
X39028Y9311
T10
X40483Y7823
X40483Y2433
X40433Y17683
X40433Y23073
X40433Y24183
X40433Y29573
T11
X4709Y1363
X41717Y1363
X33055Y29709
X4709Y30496
M30
