G75*
G70*
%OFA0B0*%
%FSLAX24Y24*%
%IPPOS*%
%LPD*%
%AMOC8*
5,1,8,0,0,1.08239X$1,22.5*
%
%ADD10C,0.1261*%
%ADD11C,0.0600*%
%ADD12C,0.0680*%
%ADD13OC8,0.0600*%
%ADD14OC8,0.0710*%
%ADD15C,0.0710*%
%ADD16OC8,0.0654*%
%ADD17C,0.1386*%
%ADD18OC8,0.0674*%
%ADD19R,0.0595X0.0595*%
%ADD20C,0.1025*%
%ADD21C,0.0434*%
%ADD22C,0.0600*%
%ADD23C,0.0674*%
%ADD24C,0.0595*%
%ADD25C,0.0730*%
%ADD26R,0.0476X0.0476*%
D10*
X004709Y001363D03*
X022031Y028922D03*
X033055Y029709D03*
X004709Y030496D03*
X041717Y001363D03*
D11*
X034788Y007181D02*
X034268Y007181D01*
X034268Y008181D02*
X034788Y008181D01*
X034788Y009181D02*
X034268Y009181D01*
X034268Y010181D02*
X034788Y010181D01*
X034788Y011181D02*
X034268Y011181D01*
X034268Y012181D02*
X034788Y012181D01*
X034788Y013181D02*
X034268Y013181D01*
X034268Y014181D02*
X034788Y014181D01*
X034788Y015181D02*
X034268Y015181D01*
X034268Y016181D02*
X034788Y016181D01*
X034788Y017181D02*
X034268Y017181D01*
X034268Y018181D02*
X034788Y018181D01*
X034788Y019181D02*
X034268Y019181D01*
X034268Y020181D02*
X034788Y020181D01*
X034788Y021181D02*
X034268Y021181D01*
X034268Y022181D02*
X034788Y022181D01*
X034788Y023181D02*
X034268Y023181D01*
X034268Y024181D02*
X034788Y024181D01*
X034788Y025181D02*
X034268Y025181D01*
X034268Y026181D02*
X034788Y026181D01*
X028788Y026181D02*
X028268Y026181D01*
X028268Y025181D02*
X028788Y025181D01*
X028788Y024181D02*
X028268Y024181D01*
X028268Y023181D02*
X028788Y023181D01*
X028788Y022181D02*
X028268Y022181D01*
X028268Y021181D02*
X028788Y021181D01*
X028788Y020181D02*
X028268Y020181D01*
X028268Y019181D02*
X028788Y019181D01*
X028788Y018181D02*
X028268Y018181D01*
X028268Y017181D02*
X028788Y017181D01*
X028788Y016181D02*
X028268Y016181D01*
X028268Y015181D02*
X028788Y015181D01*
X028788Y014181D02*
X028268Y014181D01*
X028268Y013181D02*
X028788Y013181D01*
X028788Y012181D02*
X028268Y012181D01*
X028268Y011181D02*
X028788Y011181D01*
X028788Y010181D02*
X028268Y010181D01*
X028268Y009181D02*
X028788Y009181D01*
X028788Y008181D02*
X028268Y008181D01*
X028268Y007181D02*
X028788Y007181D01*
X021028Y012161D02*
X021028Y012681D01*
X020028Y012681D02*
X020028Y012161D01*
X019028Y012161D02*
X019028Y012681D01*
X018028Y012681D02*
X018028Y012161D01*
X016028Y012161D02*
X016028Y012681D01*
X015028Y012681D02*
X015028Y012161D01*
X014028Y012161D02*
X014028Y012681D01*
X013028Y012681D02*
X013028Y012161D01*
X011028Y012161D02*
X011028Y012681D01*
X010028Y012681D02*
X010028Y012161D01*
X008028Y012161D02*
X008028Y012681D01*
X007028Y012681D02*
X007028Y012161D01*
X007028Y015681D02*
X007028Y016201D01*
X008028Y016201D02*
X008028Y015681D01*
X010028Y015681D02*
X010028Y016201D01*
X011028Y016201D02*
X011028Y015681D01*
X013028Y015681D02*
X013028Y016201D01*
X014028Y016201D02*
X014028Y015681D01*
X015028Y015681D02*
X015028Y016201D01*
X016028Y016201D02*
X016028Y015681D01*
X018028Y015681D02*
X018028Y016201D01*
X019028Y016201D02*
X019028Y015681D01*
X020028Y015681D02*
X020028Y016201D01*
X021028Y016201D02*
X021028Y015681D01*
X012288Y022681D02*
X011768Y022681D01*
X010788Y022681D02*
X010268Y022681D01*
X010268Y023681D02*
X010788Y023681D01*
X011768Y023681D02*
X012288Y023681D01*
X007528Y025421D02*
X007528Y025941D01*
X006528Y025941D02*
X006528Y025421D01*
X006528Y026921D02*
X006528Y027441D01*
X007528Y027441D02*
X007528Y026921D01*
X010768Y007181D02*
X011288Y007181D01*
X011288Y006181D02*
X010768Y006181D01*
X018768Y006181D02*
X019288Y006181D01*
X019288Y007181D02*
X018768Y007181D01*
X036768Y015181D02*
X037288Y015181D01*
X037288Y016181D02*
X036768Y016181D01*
X039468Y016181D02*
X039988Y016181D01*
X039988Y015181D02*
X039468Y015181D01*
D12*
X023028Y026381D02*
X023028Y026981D01*
X022028Y026981D02*
X022028Y026381D01*
X021028Y026381D02*
X021028Y026981D01*
X029528Y027881D02*
X029528Y028481D01*
X030528Y028481D02*
X030528Y027881D01*
X031528Y027881D02*
X031528Y028481D01*
X032528Y028481D02*
X032528Y027881D01*
X033528Y027881D02*
X033528Y028481D01*
D13*
X028828Y027031D03*
X027828Y027031D03*
X027028Y026181D03*
X026028Y026181D03*
X024028Y025181D03*
X023028Y025181D03*
X021528Y025181D03*
X020528Y025181D03*
X018528Y023181D03*
X017528Y023181D03*
X017528Y025431D03*
X016528Y025431D03*
X016528Y026431D03*
X016528Y027181D03*
X017528Y027181D03*
X017528Y026431D03*
X013678Y025581D03*
X013678Y024731D03*
X012678Y024731D03*
X012678Y025581D03*
X011778Y025581D03*
X010778Y025581D03*
X010028Y026181D03*
X010028Y027181D03*
X009028Y027181D03*
X009028Y026181D03*
X005528Y026681D03*
X004528Y026681D03*
X010028Y021831D03*
X011028Y021831D03*
X015528Y020681D03*
X016528Y020681D03*
X017528Y020681D03*
X018528Y020681D03*
X018528Y019681D03*
X017528Y019681D03*
X018028Y018181D03*
X019028Y018181D03*
X020028Y018181D03*
X021028Y018181D03*
X020028Y017181D03*
X019028Y017181D03*
X016028Y018181D03*
X015028Y018181D03*
X014028Y018181D03*
X013028Y018181D03*
X014028Y017181D03*
X015028Y017181D03*
X011028Y017181D03*
X010028Y017181D03*
X010028Y018181D03*
X011028Y018181D03*
X008028Y018181D03*
X007028Y018181D03*
X007028Y017181D03*
X008028Y017181D03*
X019528Y019681D03*
X020528Y019681D03*
X020528Y020681D03*
X019528Y020681D03*
X026028Y018681D03*
X027028Y018681D03*
X027028Y017681D03*
X026028Y017681D03*
X026028Y016181D03*
X027028Y016181D03*
X026578Y012131D03*
X027578Y012131D03*
X027528Y011181D03*
X026528Y011181D03*
X026528Y010181D03*
X027528Y010181D03*
X027528Y009181D03*
X026528Y009181D03*
X031528Y009181D03*
X032528Y009181D03*
X032528Y010181D03*
X032528Y011181D03*
X038278Y015181D03*
X038278Y016181D03*
X041028Y016181D03*
X041028Y015181D03*
X020528Y007181D03*
X020528Y006181D03*
X012528Y006181D03*
X012528Y007181D03*
D14*
X023528Y019981D03*
X030278Y015681D03*
X030278Y014681D03*
X033028Y017181D03*
X033028Y018181D03*
X027028Y027181D03*
X026028Y027181D03*
X009328Y030631D03*
D15*
X009328Y029231D03*
X023528Y021381D03*
D16*
X037173Y012174D03*
X037961Y012174D03*
X037961Y011189D03*
X037173Y011189D03*
D17*
X039028Y009311D03*
X039028Y014051D03*
D18*
X015028Y019581D03*
X014028Y019581D03*
X013028Y019581D03*
X012028Y019581D03*
X011028Y019581D03*
X010028Y019581D03*
X009028Y019581D03*
X008028Y019581D03*
X007028Y019581D03*
X006028Y019581D03*
D19*
X038528Y019268D03*
X038528Y020071D03*
X039528Y019670D03*
X039528Y018866D03*
X039528Y020473D03*
X039528Y021276D03*
X038528Y021677D03*
X038528Y020874D03*
X039528Y025366D03*
X039528Y026170D03*
X038528Y026571D03*
X038528Y025768D03*
X039528Y026973D03*
X039528Y027776D03*
X038528Y028177D03*
X038528Y027374D03*
X038578Y006427D03*
X038578Y005624D03*
X039578Y005223D03*
X039578Y006026D03*
X038578Y004821D03*
X038578Y004018D03*
X039578Y003616D03*
X039578Y004420D03*
D20*
X040483Y002433D03*
X040483Y007823D03*
X040433Y017683D03*
X040433Y023073D03*
X040433Y024183D03*
X040433Y029573D03*
D21*
X038528Y029868D03*
X038528Y023868D03*
X038528Y023368D03*
X038528Y017368D03*
X038578Y008118D03*
X038578Y002118D03*
D22*
X019528Y021681D03*
X018528Y021681D03*
X017528Y021681D03*
X016528Y021681D03*
X016528Y024681D03*
X017528Y024681D03*
X018528Y024681D03*
X019528Y024681D03*
D23*
X026028Y024478D02*
X026028Y023885D01*
X027028Y023885D02*
X027028Y024478D01*
X013028Y029385D02*
X013028Y029978D01*
X012028Y029978D02*
X012028Y029385D01*
X008824Y023181D02*
X008231Y023181D01*
X008231Y022181D02*
X008824Y022181D01*
X022231Y009181D02*
X022824Y009181D01*
X022824Y008181D02*
X022231Y008181D01*
X022231Y007181D02*
X022824Y007181D01*
X015824Y006681D02*
X015231Y006681D01*
X015231Y005681D02*
X015824Y005681D01*
X015824Y007681D02*
X015231Y007681D01*
X007824Y007681D02*
X007231Y007681D01*
X007231Y006681D02*
X007824Y006681D01*
X007824Y005681D02*
X007231Y005681D01*
D24*
X026528Y013181D03*
X026528Y014181D03*
X026528Y015181D03*
D25*
X018028Y029357D02*
X018028Y030006D01*
X017028Y030006D02*
X017028Y029357D01*
X016028Y029357D02*
X016028Y030006D01*
D26*
X023028Y024181D03*
X025028Y024181D03*
X022528Y020181D03*
X022528Y017681D03*
X017028Y017181D03*
X012028Y020681D03*
X010028Y020681D03*
X024028Y010681D03*
X024028Y006681D03*
X024028Y004681D03*
X024028Y002181D03*
X030228Y013631D03*
X032028Y013681D03*
X033028Y014681D03*
X033028Y016181D03*
X040528Y013681D03*
X040528Y011681D03*
X041528Y017181D03*
X041528Y020181D03*
X041028Y022181D03*
X039028Y022181D03*
M02*
