G75*
G70*
%OFA0B0*%
%FSLAX24Y24*%
%IPPOS*%
%LPD*%
%AMOC8*
5,1,8,0,0,1.08239X$1,22.5*
%
%ADD10C,0.0520*%
%ADD11C,0.0600*%
%ADD12OC8,0.0520*%
%ADD13OC8,0.0630*%
%ADD14C,0.0630*%
%ADD15OC8,0.0574*%
%ADD16C,0.1306*%
%ADD17OC8,0.0594*%
%ADD18R,0.0515X0.0515*%
%ADD19C,0.0520*%
%ADD20C,0.0594*%
%ADD21C,0.0515*%
%ADD22R,0.0396X0.0396*%
%ADD23C,0.0320*%
%ADD24C,0.0100*%
D10*
X007028Y012161D02*
X007028Y012681D01*
X008028Y012681D02*
X008028Y012161D01*
X010028Y012161D02*
X010028Y012681D01*
X011028Y012681D02*
X011028Y012161D01*
X013028Y012161D02*
X013028Y012681D01*
X014028Y012681D02*
X014028Y012161D01*
X015028Y012161D02*
X015028Y012681D01*
X016028Y012681D02*
X016028Y012161D01*
X018028Y012161D02*
X018028Y012681D01*
X019028Y012681D02*
X019028Y012161D01*
X020028Y012161D02*
X020028Y012681D01*
X021028Y012681D02*
X021028Y012161D01*
X021028Y015681D02*
X021028Y016201D01*
X020028Y016201D02*
X020028Y015681D01*
X019028Y015681D02*
X019028Y016201D01*
X018028Y016201D02*
X018028Y015681D01*
X016028Y015681D02*
X016028Y016201D01*
X015028Y016201D02*
X015028Y015681D01*
X014028Y015681D02*
X014028Y016201D01*
X013028Y016201D02*
X013028Y015681D01*
X011028Y015681D02*
X011028Y016201D01*
X010028Y016201D02*
X010028Y015681D01*
X008028Y015681D02*
X008028Y016201D01*
X007028Y016201D02*
X007028Y015681D01*
X010268Y022681D02*
X010788Y022681D01*
X011768Y022681D02*
X012288Y022681D01*
X012288Y023681D02*
X011768Y023681D01*
X010788Y023681D02*
X010268Y023681D01*
X007528Y025421D02*
X007528Y025941D01*
X006528Y025941D02*
X006528Y025421D01*
X006528Y026921D02*
X006528Y027441D01*
X007528Y027441D02*
X007528Y026921D01*
X028268Y026181D02*
X028788Y026181D01*
X028788Y025181D02*
X028268Y025181D01*
X028268Y024181D02*
X028788Y024181D01*
X028788Y023181D02*
X028268Y023181D01*
X028268Y022181D02*
X028788Y022181D01*
X028788Y021181D02*
X028268Y021181D01*
X028268Y020181D02*
X028788Y020181D01*
X028788Y019181D02*
X028268Y019181D01*
X028268Y018181D02*
X028788Y018181D01*
X028788Y017181D02*
X028268Y017181D01*
X028268Y016181D02*
X028788Y016181D01*
X028788Y015181D02*
X028268Y015181D01*
X028268Y014181D02*
X028788Y014181D01*
X028788Y013181D02*
X028268Y013181D01*
X028268Y012181D02*
X028788Y012181D01*
X028788Y011181D02*
X028268Y011181D01*
X028268Y010181D02*
X028788Y010181D01*
X028788Y009181D02*
X028268Y009181D01*
X028268Y008181D02*
X028788Y008181D01*
X028788Y007181D02*
X028268Y007181D01*
X022788Y007681D02*
X022268Y007681D01*
X022268Y008681D02*
X022788Y008681D01*
X018288Y008681D02*
X017768Y008681D01*
X017768Y007681D02*
X018288Y007681D01*
X034268Y007181D02*
X034788Y007181D01*
X034788Y008181D02*
X034268Y008181D01*
X034268Y009181D02*
X034788Y009181D01*
X034788Y010181D02*
X034268Y010181D01*
X034268Y011181D02*
X034788Y011181D01*
X034788Y012181D02*
X034268Y012181D01*
X034268Y013181D02*
X034788Y013181D01*
X034788Y014181D02*
X034268Y014181D01*
X034268Y015181D02*
X034788Y015181D01*
X034788Y016181D02*
X034268Y016181D01*
X034268Y017181D02*
X034788Y017181D01*
X034788Y018181D02*
X034268Y018181D01*
X034268Y019181D02*
X034788Y019181D01*
X034788Y020181D02*
X034268Y020181D01*
X034268Y021181D02*
X034788Y021181D01*
X034788Y022181D02*
X034268Y022181D01*
X034268Y023181D02*
X034788Y023181D01*
X034788Y024181D02*
X034268Y024181D01*
X034268Y025181D02*
X034788Y025181D01*
X034788Y026181D02*
X034268Y026181D01*
X037268Y016181D02*
X037788Y016181D01*
X037788Y015181D02*
X037268Y015181D01*
X040268Y015181D02*
X040788Y015181D01*
X040788Y016181D02*
X040268Y016181D01*
D11*
X023028Y026381D02*
X023028Y026981D01*
X022028Y026981D02*
X022028Y026381D01*
X021028Y026381D02*
X021028Y026981D01*
D12*
X021528Y025181D03*
X020528Y025181D03*
X023028Y025181D03*
X024028Y025181D03*
X026028Y026181D03*
X027028Y026181D03*
X020528Y020681D03*
X019528Y020681D03*
X019528Y019681D03*
X020528Y019681D03*
X021028Y018181D03*
X020028Y018181D03*
X019028Y018181D03*
X018028Y018181D03*
X019028Y017181D03*
X020028Y017181D03*
X018528Y019681D03*
X017528Y019681D03*
X016528Y019681D03*
X016528Y020681D03*
X017528Y020681D03*
X018528Y020681D03*
X016028Y018181D03*
X015028Y018181D03*
X014028Y018181D03*
X013028Y018181D03*
X014028Y017181D03*
X015028Y017181D03*
X011028Y017181D03*
X010028Y017181D03*
X010028Y018181D03*
X011028Y018181D03*
X008028Y018181D03*
X007028Y018181D03*
X007028Y017181D03*
X008028Y017181D03*
X010028Y021831D03*
X011028Y021831D03*
X012678Y024731D03*
X013678Y024731D03*
X013678Y025581D03*
X012678Y025581D03*
X011778Y025581D03*
X010778Y025581D03*
X009528Y026181D03*
X009528Y027181D03*
X008528Y027181D03*
X008528Y026181D03*
X005528Y026681D03*
X004528Y026681D03*
X016528Y026431D03*
X017528Y026431D03*
X017528Y025431D03*
X016528Y025431D03*
X016528Y027681D03*
X017528Y027681D03*
X017528Y023181D03*
X018528Y023181D03*
X026028Y018681D03*
X027028Y018681D03*
X027028Y017681D03*
X026028Y017681D03*
X026028Y016181D03*
X027028Y016181D03*
X026578Y012131D03*
X027578Y012131D03*
X027528Y011181D03*
X026528Y011181D03*
X026528Y010181D03*
X027528Y010181D03*
X027528Y009181D03*
X026528Y009181D03*
X024028Y008681D03*
X024028Y007681D03*
X016028Y010181D03*
X015028Y010181D03*
X032528Y010181D03*
X032528Y009181D03*
X032528Y008181D03*
X032528Y011181D03*
X038528Y015181D03*
X038528Y016181D03*
X041528Y016181D03*
X041528Y015181D03*
D13*
X033028Y017181D03*
X033028Y018181D03*
X030028Y015681D03*
X030028Y014681D03*
X027028Y027181D03*
X026028Y027181D03*
X027028Y029681D03*
X011528Y026681D03*
D14*
X011528Y027681D03*
X027028Y028681D03*
D15*
X037173Y012174D03*
X037961Y012174D03*
X037961Y011189D03*
X037173Y011189D03*
D16*
X039028Y009311D03*
X039028Y014051D03*
D17*
X015028Y019581D03*
X014028Y019581D03*
X013028Y019581D03*
X012028Y019581D03*
X011028Y019581D03*
X010028Y019581D03*
X009028Y019581D03*
X008028Y019581D03*
X007028Y019581D03*
X006028Y019581D03*
D18*
X038528Y019670D03*
X038528Y018866D03*
X039528Y019268D03*
X039528Y020071D03*
X038528Y020473D03*
X038528Y021276D03*
X039528Y021677D03*
X039528Y020874D03*
X038528Y025366D03*
X039528Y025768D03*
X038528Y026170D03*
X038528Y026973D03*
X039528Y027374D03*
X039528Y026571D03*
X038528Y027776D03*
X039528Y028177D03*
X039578Y006427D03*
X038578Y006026D03*
X038578Y005223D03*
X039578Y005624D03*
X039578Y004821D03*
X038578Y004420D03*
X038578Y003616D03*
X039578Y004018D03*
D19*
X019528Y021681D03*
X018528Y021681D03*
X017528Y021681D03*
X016528Y021681D03*
X016528Y024681D03*
X017528Y024681D03*
X018528Y024681D03*
X019528Y024681D03*
D20*
X011324Y007181D02*
X010731Y007181D01*
X010731Y008181D02*
X011324Y008181D01*
X011324Y009181D02*
X010731Y009181D01*
X015231Y009181D02*
X015824Y009181D01*
X015824Y008181D02*
X015231Y008181D01*
X015231Y007181D02*
X015824Y007181D01*
X020231Y007181D02*
X020824Y007181D01*
X020824Y008181D02*
X020231Y008181D01*
X020231Y009181D02*
X020824Y009181D01*
X008824Y022681D02*
X008231Y022681D01*
X008231Y023681D02*
X008824Y023681D01*
X014231Y026681D02*
X014824Y026681D01*
X014824Y027681D02*
X014231Y027681D01*
X026028Y024478D02*
X026028Y023885D01*
X027028Y023885D02*
X027028Y024478D01*
D21*
X026528Y015181D03*
X026528Y014181D03*
X026528Y013181D03*
D22*
X029828Y015631D03*
X031528Y015681D03*
X033028Y015181D03*
X033028Y013681D03*
X035528Y019181D03*
X036778Y019281D03*
X041528Y020181D03*
X041528Y018181D03*
X012028Y020681D03*
X010028Y020681D03*
D23*
X012028Y020681D01*
D24*
X029828Y015631D02*
X031478Y015631D01*
X031528Y015681D01*
X033028Y015181D02*
X033028Y013681D01*
X035528Y019181D02*
X035528Y019281D01*
X036778Y019281D01*
X041528Y020181D02*
X041528Y018181D01*
M02*
