G75*
G70*
%OFA0B0*%
%FSLAX24Y24*%
%IPPOS*%
%LPD*%
%AMOC8*
5,1,8,0,0,1.08239X$1,22.5*
%
%ADD10C,0.0000*%
D10*
X003528Y000181D02*
X003528Y031677D01*
X042898Y031677D01*
X042898Y000181D01*
X003528Y000181D01*
X004118Y001363D02*
X004120Y001411D01*
X004126Y001459D01*
X004136Y001506D01*
X004149Y001552D01*
X004167Y001597D01*
X004187Y001641D01*
X004212Y001683D01*
X004240Y001722D01*
X004270Y001759D01*
X004304Y001793D01*
X004341Y001825D01*
X004379Y001854D01*
X004420Y001879D01*
X004463Y001901D01*
X004508Y001919D01*
X004554Y001933D01*
X004601Y001944D01*
X004649Y001951D01*
X004697Y001954D01*
X004745Y001953D01*
X004793Y001948D01*
X004841Y001939D01*
X004887Y001927D01*
X004932Y001910D01*
X004976Y001890D01*
X005018Y001867D01*
X005058Y001840D01*
X005096Y001810D01*
X005131Y001777D01*
X005163Y001741D01*
X005193Y001703D01*
X005219Y001662D01*
X005241Y001619D01*
X005261Y001575D01*
X005276Y001530D01*
X005288Y001483D01*
X005296Y001435D01*
X005300Y001387D01*
X005300Y001339D01*
X005296Y001291D01*
X005288Y001243D01*
X005276Y001196D01*
X005261Y001151D01*
X005241Y001107D01*
X005219Y001064D01*
X005193Y001023D01*
X005163Y000985D01*
X005131Y000949D01*
X005096Y000916D01*
X005058Y000886D01*
X005018Y000859D01*
X004976Y000836D01*
X004932Y000816D01*
X004887Y000799D01*
X004841Y000787D01*
X004793Y000778D01*
X004745Y000773D01*
X004697Y000772D01*
X004649Y000775D01*
X004601Y000782D01*
X004554Y000793D01*
X004508Y000807D01*
X004463Y000825D01*
X004420Y000847D01*
X004379Y000872D01*
X004341Y000901D01*
X004304Y000933D01*
X004270Y000967D01*
X004240Y001004D01*
X004212Y001043D01*
X004187Y001085D01*
X004167Y001129D01*
X004149Y001174D01*
X004136Y001220D01*
X004126Y001267D01*
X004120Y001315D01*
X004118Y001363D01*
X038401Y002118D02*
X038403Y002144D01*
X038409Y002170D01*
X038419Y002195D01*
X038432Y002218D01*
X038448Y002238D01*
X038468Y002256D01*
X038490Y002271D01*
X038513Y002283D01*
X038539Y002291D01*
X038565Y002295D01*
X038591Y002295D01*
X038617Y002291D01*
X038643Y002283D01*
X038667Y002271D01*
X038688Y002256D01*
X038708Y002238D01*
X038724Y002218D01*
X038737Y002195D01*
X038747Y002170D01*
X038753Y002144D01*
X038755Y002118D01*
X038753Y002092D01*
X038747Y002066D01*
X038737Y002041D01*
X038724Y002018D01*
X038708Y001998D01*
X038688Y001980D01*
X038666Y001965D01*
X038643Y001953D01*
X038617Y001945D01*
X038591Y001941D01*
X038565Y001941D01*
X038539Y001945D01*
X038513Y001953D01*
X038489Y001965D01*
X038468Y001980D01*
X038448Y001998D01*
X038432Y002018D01*
X038419Y002041D01*
X038409Y002066D01*
X038403Y002092D01*
X038401Y002118D01*
X040011Y002433D02*
X040013Y002476D01*
X040019Y002518D01*
X040029Y002560D01*
X040042Y002601D01*
X040059Y002641D01*
X040080Y002678D01*
X040104Y002714D01*
X040131Y002747D01*
X040161Y002778D01*
X040194Y002806D01*
X040229Y002831D01*
X040266Y002852D01*
X040305Y002870D01*
X040345Y002884D01*
X040387Y002895D01*
X040429Y002902D01*
X040472Y002905D01*
X040515Y002904D01*
X040558Y002899D01*
X040600Y002890D01*
X040641Y002878D01*
X040681Y002862D01*
X040719Y002842D01*
X040755Y002819D01*
X040789Y002792D01*
X040821Y002763D01*
X040849Y002731D01*
X040875Y002696D01*
X040897Y002660D01*
X040916Y002621D01*
X040931Y002581D01*
X040943Y002540D01*
X040951Y002497D01*
X040955Y002454D01*
X040955Y002412D01*
X040951Y002369D01*
X040943Y002326D01*
X040931Y002285D01*
X040916Y002245D01*
X040897Y002206D01*
X040875Y002170D01*
X040849Y002135D01*
X040821Y002103D01*
X040789Y002074D01*
X040755Y002047D01*
X040719Y002024D01*
X040681Y002004D01*
X040641Y001988D01*
X040600Y001976D01*
X040558Y001967D01*
X040515Y001962D01*
X040472Y001961D01*
X040429Y001964D01*
X040387Y001971D01*
X040345Y001982D01*
X040305Y001996D01*
X040266Y002014D01*
X040229Y002035D01*
X040194Y002060D01*
X040161Y002088D01*
X040131Y002119D01*
X040104Y002152D01*
X040080Y002188D01*
X040059Y002225D01*
X040042Y002265D01*
X040029Y002306D01*
X040019Y002348D01*
X040013Y002390D01*
X040011Y002433D01*
X041126Y001363D02*
X041128Y001411D01*
X041134Y001459D01*
X041144Y001506D01*
X041157Y001552D01*
X041175Y001597D01*
X041195Y001641D01*
X041220Y001683D01*
X041248Y001722D01*
X041278Y001759D01*
X041312Y001793D01*
X041349Y001825D01*
X041387Y001854D01*
X041428Y001879D01*
X041471Y001901D01*
X041516Y001919D01*
X041562Y001933D01*
X041609Y001944D01*
X041657Y001951D01*
X041705Y001954D01*
X041753Y001953D01*
X041801Y001948D01*
X041849Y001939D01*
X041895Y001927D01*
X041940Y001910D01*
X041984Y001890D01*
X042026Y001867D01*
X042066Y001840D01*
X042104Y001810D01*
X042139Y001777D01*
X042171Y001741D01*
X042201Y001703D01*
X042227Y001662D01*
X042249Y001619D01*
X042269Y001575D01*
X042284Y001530D01*
X042296Y001483D01*
X042304Y001435D01*
X042308Y001387D01*
X042308Y001339D01*
X042304Y001291D01*
X042296Y001243D01*
X042284Y001196D01*
X042269Y001151D01*
X042249Y001107D01*
X042227Y001064D01*
X042201Y001023D01*
X042171Y000985D01*
X042139Y000949D01*
X042104Y000916D01*
X042066Y000886D01*
X042026Y000859D01*
X041984Y000836D01*
X041940Y000816D01*
X041895Y000799D01*
X041849Y000787D01*
X041801Y000778D01*
X041753Y000773D01*
X041705Y000772D01*
X041657Y000775D01*
X041609Y000782D01*
X041562Y000793D01*
X041516Y000807D01*
X041471Y000825D01*
X041428Y000847D01*
X041387Y000872D01*
X041349Y000901D01*
X041312Y000933D01*
X041278Y000967D01*
X041248Y001004D01*
X041220Y001043D01*
X041195Y001085D01*
X041175Y001129D01*
X041157Y001174D01*
X041144Y001220D01*
X041134Y001267D01*
X041128Y001315D01*
X041126Y001363D01*
X040011Y007823D02*
X040013Y007866D01*
X040019Y007908D01*
X040029Y007950D01*
X040042Y007991D01*
X040059Y008031D01*
X040080Y008068D01*
X040104Y008104D01*
X040131Y008137D01*
X040161Y008168D01*
X040194Y008196D01*
X040229Y008221D01*
X040266Y008242D01*
X040305Y008260D01*
X040345Y008274D01*
X040387Y008285D01*
X040429Y008292D01*
X040472Y008295D01*
X040515Y008294D01*
X040558Y008289D01*
X040600Y008280D01*
X040641Y008268D01*
X040681Y008252D01*
X040719Y008232D01*
X040755Y008209D01*
X040789Y008182D01*
X040821Y008153D01*
X040849Y008121D01*
X040875Y008086D01*
X040897Y008050D01*
X040916Y008011D01*
X040931Y007971D01*
X040943Y007930D01*
X040951Y007887D01*
X040955Y007844D01*
X040955Y007802D01*
X040951Y007759D01*
X040943Y007716D01*
X040931Y007675D01*
X040916Y007635D01*
X040897Y007596D01*
X040875Y007560D01*
X040849Y007525D01*
X040821Y007493D01*
X040789Y007464D01*
X040755Y007437D01*
X040719Y007414D01*
X040681Y007394D01*
X040641Y007378D01*
X040600Y007366D01*
X040558Y007357D01*
X040515Y007352D01*
X040472Y007351D01*
X040429Y007354D01*
X040387Y007361D01*
X040345Y007372D01*
X040305Y007386D01*
X040266Y007404D01*
X040229Y007425D01*
X040194Y007450D01*
X040161Y007478D01*
X040131Y007509D01*
X040104Y007542D01*
X040080Y007578D01*
X040059Y007615D01*
X040042Y007655D01*
X040029Y007696D01*
X040019Y007738D01*
X040013Y007780D01*
X040011Y007823D01*
X038401Y008118D02*
X038403Y008144D01*
X038409Y008170D01*
X038419Y008195D01*
X038432Y008218D01*
X038448Y008238D01*
X038468Y008256D01*
X038490Y008271D01*
X038513Y008283D01*
X038539Y008291D01*
X038565Y008295D01*
X038591Y008295D01*
X038617Y008291D01*
X038643Y008283D01*
X038667Y008271D01*
X038688Y008256D01*
X038708Y008238D01*
X038724Y008218D01*
X038737Y008195D01*
X038747Y008170D01*
X038753Y008144D01*
X038755Y008118D01*
X038753Y008092D01*
X038747Y008066D01*
X038737Y008041D01*
X038724Y008018D01*
X038708Y007998D01*
X038688Y007980D01*
X038666Y007965D01*
X038643Y007953D01*
X038617Y007945D01*
X038591Y007941D01*
X038565Y007941D01*
X038539Y007945D01*
X038513Y007953D01*
X038489Y007965D01*
X038468Y007980D01*
X038448Y007998D01*
X038432Y008018D01*
X038419Y008041D01*
X038409Y008066D01*
X038403Y008092D01*
X038401Y008118D01*
X038351Y017368D02*
X038353Y017394D01*
X038359Y017420D01*
X038369Y017445D01*
X038382Y017468D01*
X038398Y017488D01*
X038418Y017506D01*
X038440Y017521D01*
X038463Y017533D01*
X038489Y017541D01*
X038515Y017545D01*
X038541Y017545D01*
X038567Y017541D01*
X038593Y017533D01*
X038617Y017521D01*
X038638Y017506D01*
X038658Y017488D01*
X038674Y017468D01*
X038687Y017445D01*
X038697Y017420D01*
X038703Y017394D01*
X038705Y017368D01*
X038703Y017342D01*
X038697Y017316D01*
X038687Y017291D01*
X038674Y017268D01*
X038658Y017248D01*
X038638Y017230D01*
X038616Y017215D01*
X038593Y017203D01*
X038567Y017195D01*
X038541Y017191D01*
X038515Y017191D01*
X038489Y017195D01*
X038463Y017203D01*
X038439Y017215D01*
X038418Y017230D01*
X038398Y017248D01*
X038382Y017268D01*
X038369Y017291D01*
X038359Y017316D01*
X038353Y017342D01*
X038351Y017368D01*
X039961Y017683D02*
X039963Y017726D01*
X039969Y017768D01*
X039979Y017810D01*
X039992Y017851D01*
X040009Y017891D01*
X040030Y017928D01*
X040054Y017964D01*
X040081Y017997D01*
X040111Y018028D01*
X040144Y018056D01*
X040179Y018081D01*
X040216Y018102D01*
X040255Y018120D01*
X040295Y018134D01*
X040337Y018145D01*
X040379Y018152D01*
X040422Y018155D01*
X040465Y018154D01*
X040508Y018149D01*
X040550Y018140D01*
X040591Y018128D01*
X040631Y018112D01*
X040669Y018092D01*
X040705Y018069D01*
X040739Y018042D01*
X040771Y018013D01*
X040799Y017981D01*
X040825Y017946D01*
X040847Y017910D01*
X040866Y017871D01*
X040881Y017831D01*
X040893Y017790D01*
X040901Y017747D01*
X040905Y017704D01*
X040905Y017662D01*
X040901Y017619D01*
X040893Y017576D01*
X040881Y017535D01*
X040866Y017495D01*
X040847Y017456D01*
X040825Y017420D01*
X040799Y017385D01*
X040771Y017353D01*
X040739Y017324D01*
X040705Y017297D01*
X040669Y017274D01*
X040631Y017254D01*
X040591Y017238D01*
X040550Y017226D01*
X040508Y017217D01*
X040465Y017212D01*
X040422Y017211D01*
X040379Y017214D01*
X040337Y017221D01*
X040295Y017232D01*
X040255Y017246D01*
X040216Y017264D01*
X040179Y017285D01*
X040144Y017310D01*
X040111Y017338D01*
X040081Y017369D01*
X040054Y017402D01*
X040030Y017438D01*
X040009Y017475D01*
X039992Y017515D01*
X039979Y017556D01*
X039969Y017598D01*
X039963Y017640D01*
X039961Y017683D01*
X039961Y023073D02*
X039963Y023116D01*
X039969Y023158D01*
X039979Y023200D01*
X039992Y023241D01*
X040009Y023281D01*
X040030Y023318D01*
X040054Y023354D01*
X040081Y023387D01*
X040111Y023418D01*
X040144Y023446D01*
X040179Y023471D01*
X040216Y023492D01*
X040255Y023510D01*
X040295Y023524D01*
X040337Y023535D01*
X040379Y023542D01*
X040422Y023545D01*
X040465Y023544D01*
X040508Y023539D01*
X040550Y023530D01*
X040591Y023518D01*
X040631Y023502D01*
X040669Y023482D01*
X040705Y023459D01*
X040739Y023432D01*
X040771Y023403D01*
X040799Y023371D01*
X040825Y023336D01*
X040847Y023300D01*
X040866Y023261D01*
X040881Y023221D01*
X040893Y023180D01*
X040901Y023137D01*
X040905Y023094D01*
X040905Y023052D01*
X040901Y023009D01*
X040893Y022966D01*
X040881Y022925D01*
X040866Y022885D01*
X040847Y022846D01*
X040825Y022810D01*
X040799Y022775D01*
X040771Y022743D01*
X040739Y022714D01*
X040705Y022687D01*
X040669Y022664D01*
X040631Y022644D01*
X040591Y022628D01*
X040550Y022616D01*
X040508Y022607D01*
X040465Y022602D01*
X040422Y022601D01*
X040379Y022604D01*
X040337Y022611D01*
X040295Y022622D01*
X040255Y022636D01*
X040216Y022654D01*
X040179Y022675D01*
X040144Y022700D01*
X040111Y022728D01*
X040081Y022759D01*
X040054Y022792D01*
X040030Y022828D01*
X040009Y022865D01*
X039992Y022905D01*
X039979Y022946D01*
X039969Y022988D01*
X039963Y023030D01*
X039961Y023073D01*
X039961Y024183D02*
X039963Y024226D01*
X039969Y024268D01*
X039979Y024310D01*
X039992Y024351D01*
X040009Y024391D01*
X040030Y024428D01*
X040054Y024464D01*
X040081Y024497D01*
X040111Y024528D01*
X040144Y024556D01*
X040179Y024581D01*
X040216Y024602D01*
X040255Y024620D01*
X040295Y024634D01*
X040337Y024645D01*
X040379Y024652D01*
X040422Y024655D01*
X040465Y024654D01*
X040508Y024649D01*
X040550Y024640D01*
X040591Y024628D01*
X040631Y024612D01*
X040669Y024592D01*
X040705Y024569D01*
X040739Y024542D01*
X040771Y024513D01*
X040799Y024481D01*
X040825Y024446D01*
X040847Y024410D01*
X040866Y024371D01*
X040881Y024331D01*
X040893Y024290D01*
X040901Y024247D01*
X040905Y024204D01*
X040905Y024162D01*
X040901Y024119D01*
X040893Y024076D01*
X040881Y024035D01*
X040866Y023995D01*
X040847Y023956D01*
X040825Y023920D01*
X040799Y023885D01*
X040771Y023853D01*
X040739Y023824D01*
X040705Y023797D01*
X040669Y023774D01*
X040631Y023754D01*
X040591Y023738D01*
X040550Y023726D01*
X040508Y023717D01*
X040465Y023712D01*
X040422Y023711D01*
X040379Y023714D01*
X040337Y023721D01*
X040295Y023732D01*
X040255Y023746D01*
X040216Y023764D01*
X040179Y023785D01*
X040144Y023810D01*
X040111Y023838D01*
X040081Y023869D01*
X040054Y023902D01*
X040030Y023938D01*
X040009Y023975D01*
X039992Y024015D01*
X039979Y024056D01*
X039969Y024098D01*
X039963Y024140D01*
X039961Y024183D01*
X038351Y023868D02*
X038353Y023894D01*
X038359Y023920D01*
X038369Y023945D01*
X038382Y023968D01*
X038398Y023988D01*
X038418Y024006D01*
X038440Y024021D01*
X038463Y024033D01*
X038489Y024041D01*
X038515Y024045D01*
X038541Y024045D01*
X038567Y024041D01*
X038593Y024033D01*
X038617Y024021D01*
X038638Y024006D01*
X038658Y023988D01*
X038674Y023968D01*
X038687Y023945D01*
X038697Y023920D01*
X038703Y023894D01*
X038705Y023868D01*
X038703Y023842D01*
X038697Y023816D01*
X038687Y023791D01*
X038674Y023768D01*
X038658Y023748D01*
X038638Y023730D01*
X038616Y023715D01*
X038593Y023703D01*
X038567Y023695D01*
X038541Y023691D01*
X038515Y023691D01*
X038489Y023695D01*
X038463Y023703D01*
X038439Y023715D01*
X038418Y023730D01*
X038398Y023748D01*
X038382Y023768D01*
X038369Y023791D01*
X038359Y023816D01*
X038353Y023842D01*
X038351Y023868D01*
X038351Y023368D02*
X038353Y023394D01*
X038359Y023420D01*
X038369Y023445D01*
X038382Y023468D01*
X038398Y023488D01*
X038418Y023506D01*
X038440Y023521D01*
X038463Y023533D01*
X038489Y023541D01*
X038515Y023545D01*
X038541Y023545D01*
X038567Y023541D01*
X038593Y023533D01*
X038617Y023521D01*
X038638Y023506D01*
X038658Y023488D01*
X038674Y023468D01*
X038687Y023445D01*
X038697Y023420D01*
X038703Y023394D01*
X038705Y023368D01*
X038703Y023342D01*
X038697Y023316D01*
X038687Y023291D01*
X038674Y023268D01*
X038658Y023248D01*
X038638Y023230D01*
X038616Y023215D01*
X038593Y023203D01*
X038567Y023195D01*
X038541Y023191D01*
X038515Y023191D01*
X038489Y023195D01*
X038463Y023203D01*
X038439Y023215D01*
X038418Y023230D01*
X038398Y023248D01*
X038382Y023268D01*
X038369Y023291D01*
X038359Y023316D01*
X038353Y023342D01*
X038351Y023368D01*
X039961Y029573D02*
X039963Y029616D01*
X039969Y029658D01*
X039979Y029700D01*
X039992Y029741D01*
X040009Y029781D01*
X040030Y029818D01*
X040054Y029854D01*
X040081Y029887D01*
X040111Y029918D01*
X040144Y029946D01*
X040179Y029971D01*
X040216Y029992D01*
X040255Y030010D01*
X040295Y030024D01*
X040337Y030035D01*
X040379Y030042D01*
X040422Y030045D01*
X040465Y030044D01*
X040508Y030039D01*
X040550Y030030D01*
X040591Y030018D01*
X040631Y030002D01*
X040669Y029982D01*
X040705Y029959D01*
X040739Y029932D01*
X040771Y029903D01*
X040799Y029871D01*
X040825Y029836D01*
X040847Y029800D01*
X040866Y029761D01*
X040881Y029721D01*
X040893Y029680D01*
X040901Y029637D01*
X040905Y029594D01*
X040905Y029552D01*
X040901Y029509D01*
X040893Y029466D01*
X040881Y029425D01*
X040866Y029385D01*
X040847Y029346D01*
X040825Y029310D01*
X040799Y029275D01*
X040771Y029243D01*
X040739Y029214D01*
X040705Y029187D01*
X040669Y029164D01*
X040631Y029144D01*
X040591Y029128D01*
X040550Y029116D01*
X040508Y029107D01*
X040465Y029102D01*
X040422Y029101D01*
X040379Y029104D01*
X040337Y029111D01*
X040295Y029122D01*
X040255Y029136D01*
X040216Y029154D01*
X040179Y029175D01*
X040144Y029200D01*
X040111Y029228D01*
X040081Y029259D01*
X040054Y029292D01*
X040030Y029328D01*
X040009Y029365D01*
X039992Y029405D01*
X039979Y029446D01*
X039969Y029488D01*
X039963Y029530D01*
X039961Y029573D01*
X038351Y029868D02*
X038353Y029894D01*
X038359Y029920D01*
X038369Y029945D01*
X038382Y029968D01*
X038398Y029988D01*
X038418Y030006D01*
X038440Y030021D01*
X038463Y030033D01*
X038489Y030041D01*
X038515Y030045D01*
X038541Y030045D01*
X038567Y030041D01*
X038593Y030033D01*
X038617Y030021D01*
X038638Y030006D01*
X038658Y029988D01*
X038674Y029968D01*
X038687Y029945D01*
X038697Y029920D01*
X038703Y029894D01*
X038705Y029868D01*
X038703Y029842D01*
X038697Y029816D01*
X038687Y029791D01*
X038674Y029768D01*
X038658Y029748D01*
X038638Y029730D01*
X038616Y029715D01*
X038593Y029703D01*
X038567Y029695D01*
X038541Y029691D01*
X038515Y029691D01*
X038489Y029695D01*
X038463Y029703D01*
X038439Y029715D01*
X038418Y029730D01*
X038398Y029748D01*
X038382Y029768D01*
X038369Y029791D01*
X038359Y029816D01*
X038353Y029842D01*
X038351Y029868D01*
X032464Y029709D02*
X032466Y029757D01*
X032472Y029805D01*
X032482Y029852D01*
X032495Y029898D01*
X032513Y029943D01*
X032533Y029987D01*
X032558Y030029D01*
X032586Y030068D01*
X032616Y030105D01*
X032650Y030139D01*
X032687Y030171D01*
X032725Y030200D01*
X032766Y030225D01*
X032809Y030247D01*
X032854Y030265D01*
X032900Y030279D01*
X032947Y030290D01*
X032995Y030297D01*
X033043Y030300D01*
X033091Y030299D01*
X033139Y030294D01*
X033187Y030285D01*
X033233Y030273D01*
X033278Y030256D01*
X033322Y030236D01*
X033364Y030213D01*
X033404Y030186D01*
X033442Y030156D01*
X033477Y030123D01*
X033509Y030087D01*
X033539Y030049D01*
X033565Y030008D01*
X033587Y029965D01*
X033607Y029921D01*
X033622Y029876D01*
X033634Y029829D01*
X033642Y029781D01*
X033646Y029733D01*
X033646Y029685D01*
X033642Y029637D01*
X033634Y029589D01*
X033622Y029542D01*
X033607Y029497D01*
X033587Y029453D01*
X033565Y029410D01*
X033539Y029369D01*
X033509Y029331D01*
X033477Y029295D01*
X033442Y029262D01*
X033404Y029232D01*
X033364Y029205D01*
X033322Y029182D01*
X033278Y029162D01*
X033233Y029145D01*
X033187Y029133D01*
X033139Y029124D01*
X033091Y029119D01*
X033043Y029118D01*
X032995Y029121D01*
X032947Y029128D01*
X032900Y029139D01*
X032854Y029153D01*
X032809Y029171D01*
X032766Y029193D01*
X032725Y029218D01*
X032687Y029247D01*
X032650Y029279D01*
X032616Y029313D01*
X032586Y029350D01*
X032558Y029389D01*
X032533Y029431D01*
X032513Y029475D01*
X032495Y029520D01*
X032482Y029566D01*
X032472Y029613D01*
X032466Y029661D01*
X032464Y029709D01*
X021440Y028922D02*
X021442Y028970D01*
X021448Y029018D01*
X021458Y029065D01*
X021471Y029111D01*
X021489Y029156D01*
X021509Y029200D01*
X021534Y029242D01*
X021562Y029281D01*
X021592Y029318D01*
X021626Y029352D01*
X021663Y029384D01*
X021701Y029413D01*
X021742Y029438D01*
X021785Y029460D01*
X021830Y029478D01*
X021876Y029492D01*
X021923Y029503D01*
X021971Y029510D01*
X022019Y029513D01*
X022067Y029512D01*
X022115Y029507D01*
X022163Y029498D01*
X022209Y029486D01*
X022254Y029469D01*
X022298Y029449D01*
X022340Y029426D01*
X022380Y029399D01*
X022418Y029369D01*
X022453Y029336D01*
X022485Y029300D01*
X022515Y029262D01*
X022541Y029221D01*
X022563Y029178D01*
X022583Y029134D01*
X022598Y029089D01*
X022610Y029042D01*
X022618Y028994D01*
X022622Y028946D01*
X022622Y028898D01*
X022618Y028850D01*
X022610Y028802D01*
X022598Y028755D01*
X022583Y028710D01*
X022563Y028666D01*
X022541Y028623D01*
X022515Y028582D01*
X022485Y028544D01*
X022453Y028508D01*
X022418Y028475D01*
X022380Y028445D01*
X022340Y028418D01*
X022298Y028395D01*
X022254Y028375D01*
X022209Y028358D01*
X022163Y028346D01*
X022115Y028337D01*
X022067Y028332D01*
X022019Y028331D01*
X021971Y028334D01*
X021923Y028341D01*
X021876Y028352D01*
X021830Y028366D01*
X021785Y028384D01*
X021742Y028406D01*
X021701Y028431D01*
X021663Y028460D01*
X021626Y028492D01*
X021592Y028526D01*
X021562Y028563D01*
X021534Y028602D01*
X021509Y028644D01*
X021489Y028688D01*
X021471Y028733D01*
X021458Y028779D01*
X021448Y028826D01*
X021442Y028874D01*
X021440Y028922D01*
X004118Y030496D02*
X004120Y030544D01*
X004126Y030592D01*
X004136Y030639D01*
X004149Y030685D01*
X004167Y030730D01*
X004187Y030774D01*
X004212Y030816D01*
X004240Y030855D01*
X004270Y030892D01*
X004304Y030926D01*
X004341Y030958D01*
X004379Y030987D01*
X004420Y031012D01*
X004463Y031034D01*
X004508Y031052D01*
X004554Y031066D01*
X004601Y031077D01*
X004649Y031084D01*
X004697Y031087D01*
X004745Y031086D01*
X004793Y031081D01*
X004841Y031072D01*
X004887Y031060D01*
X004932Y031043D01*
X004976Y031023D01*
X005018Y031000D01*
X005058Y030973D01*
X005096Y030943D01*
X005131Y030910D01*
X005163Y030874D01*
X005193Y030836D01*
X005219Y030795D01*
X005241Y030752D01*
X005261Y030708D01*
X005276Y030663D01*
X005288Y030616D01*
X005296Y030568D01*
X005300Y030520D01*
X005300Y030472D01*
X005296Y030424D01*
X005288Y030376D01*
X005276Y030329D01*
X005261Y030284D01*
X005241Y030240D01*
X005219Y030197D01*
X005193Y030156D01*
X005163Y030118D01*
X005131Y030082D01*
X005096Y030049D01*
X005058Y030019D01*
X005018Y029992D01*
X004976Y029969D01*
X004932Y029949D01*
X004887Y029932D01*
X004841Y029920D01*
X004793Y029911D01*
X004745Y029906D01*
X004697Y029905D01*
X004649Y029908D01*
X004601Y029915D01*
X004554Y029926D01*
X004508Y029940D01*
X004463Y029958D01*
X004420Y029980D01*
X004379Y030005D01*
X004341Y030034D01*
X004304Y030066D01*
X004270Y030100D01*
X004240Y030137D01*
X004212Y030176D01*
X004187Y030218D01*
X004167Y030262D01*
X004149Y030307D01*
X004136Y030353D01*
X004126Y030400D01*
X004120Y030448D01*
X004118Y030496D01*
M02*
