G75*
G70*
%OFA0B0*%
%FSLAX24Y24*%
%IPPOS*%
%LPD*%
%AMOC8*
5,1,8,0,0,1.08239X$1,22.5*
%
%ADD10C,0.0000*%
%ADD11C,0.0100*%
%ADD12C,0.0040*%
%ADD13C,0.0080*%
%ADD14C,0.0050*%
%ADD15C,0.0060*%
%ADD16C,0.0240*%
%ADD17R,0.0800X0.0200*%
%ADD18R,0.0200X0.0250*%
D10*
X000605Y000222D02*
X000105Y012218D01*
X038975Y012218D01*
X038975Y000222D01*
X000605Y000222D01*
X001014Y001222D02*
X001016Y001270D01*
X001022Y001318D01*
X001032Y001365D01*
X001045Y001411D01*
X001063Y001456D01*
X001083Y001500D01*
X001108Y001542D01*
X001136Y001581D01*
X001166Y001618D01*
X001200Y001652D01*
X001237Y001684D01*
X001275Y001713D01*
X001316Y001738D01*
X001359Y001760D01*
X001404Y001778D01*
X001450Y001792D01*
X001497Y001803D01*
X001545Y001810D01*
X001593Y001813D01*
X001641Y001812D01*
X001689Y001807D01*
X001737Y001798D01*
X001783Y001786D01*
X001828Y001769D01*
X001872Y001749D01*
X001914Y001726D01*
X001954Y001699D01*
X001992Y001669D01*
X002027Y001636D01*
X002059Y001600D01*
X002089Y001562D01*
X002115Y001521D01*
X002137Y001478D01*
X002157Y001434D01*
X002172Y001389D01*
X002184Y001342D01*
X002192Y001294D01*
X002196Y001246D01*
X002196Y001198D01*
X002192Y001150D01*
X002184Y001102D01*
X002172Y001055D01*
X002157Y001010D01*
X002137Y000966D01*
X002115Y000923D01*
X002089Y000882D01*
X002059Y000844D01*
X002027Y000808D01*
X001992Y000775D01*
X001954Y000745D01*
X001914Y000718D01*
X001872Y000695D01*
X001828Y000675D01*
X001783Y000658D01*
X001737Y000646D01*
X001689Y000637D01*
X001641Y000632D01*
X001593Y000631D01*
X001545Y000634D01*
X001497Y000641D01*
X001450Y000652D01*
X001404Y000666D01*
X001359Y000684D01*
X001316Y000706D01*
X001275Y000731D01*
X001237Y000760D01*
X001200Y000792D01*
X001166Y000826D01*
X001136Y000863D01*
X001108Y000902D01*
X001083Y000944D01*
X001063Y000988D01*
X001045Y001033D01*
X001032Y001079D01*
X001022Y001126D01*
X001016Y001174D01*
X001014Y001222D01*
X001014Y011222D02*
X001016Y011270D01*
X001022Y011318D01*
X001032Y011365D01*
X001045Y011411D01*
X001063Y011456D01*
X001083Y011500D01*
X001108Y011542D01*
X001136Y011581D01*
X001166Y011618D01*
X001200Y011652D01*
X001237Y011684D01*
X001275Y011713D01*
X001316Y011738D01*
X001359Y011760D01*
X001404Y011778D01*
X001450Y011792D01*
X001497Y011803D01*
X001545Y011810D01*
X001593Y011813D01*
X001641Y011812D01*
X001689Y011807D01*
X001737Y011798D01*
X001783Y011786D01*
X001828Y011769D01*
X001872Y011749D01*
X001914Y011726D01*
X001954Y011699D01*
X001992Y011669D01*
X002027Y011636D01*
X002059Y011600D01*
X002089Y011562D01*
X002115Y011521D01*
X002137Y011478D01*
X002157Y011434D01*
X002172Y011389D01*
X002184Y011342D01*
X002192Y011294D01*
X002196Y011246D01*
X002196Y011198D01*
X002192Y011150D01*
X002184Y011102D01*
X002172Y011055D01*
X002157Y011010D01*
X002137Y010966D01*
X002115Y010923D01*
X002089Y010882D01*
X002059Y010844D01*
X002027Y010808D01*
X001992Y010775D01*
X001954Y010745D01*
X001914Y010718D01*
X001872Y010695D01*
X001828Y010675D01*
X001783Y010658D01*
X001737Y010646D01*
X001689Y010637D01*
X001641Y010632D01*
X001593Y010631D01*
X001545Y010634D01*
X001497Y010641D01*
X001450Y010652D01*
X001404Y010666D01*
X001359Y010684D01*
X001316Y010706D01*
X001275Y010731D01*
X001237Y010760D01*
X001200Y010792D01*
X001166Y010826D01*
X001136Y010863D01*
X001108Y010902D01*
X001083Y010944D01*
X001063Y010988D01*
X001045Y011033D01*
X001032Y011079D01*
X001022Y011126D01*
X001016Y011174D01*
X001014Y011222D01*
X037514Y011222D02*
X037516Y011270D01*
X037522Y011318D01*
X037532Y011365D01*
X037545Y011411D01*
X037563Y011456D01*
X037583Y011500D01*
X037608Y011542D01*
X037636Y011581D01*
X037666Y011618D01*
X037700Y011652D01*
X037737Y011684D01*
X037775Y011713D01*
X037816Y011738D01*
X037859Y011760D01*
X037904Y011778D01*
X037950Y011792D01*
X037997Y011803D01*
X038045Y011810D01*
X038093Y011813D01*
X038141Y011812D01*
X038189Y011807D01*
X038237Y011798D01*
X038283Y011786D01*
X038328Y011769D01*
X038372Y011749D01*
X038414Y011726D01*
X038454Y011699D01*
X038492Y011669D01*
X038527Y011636D01*
X038559Y011600D01*
X038589Y011562D01*
X038615Y011521D01*
X038637Y011478D01*
X038657Y011434D01*
X038672Y011389D01*
X038684Y011342D01*
X038692Y011294D01*
X038696Y011246D01*
X038696Y011198D01*
X038692Y011150D01*
X038684Y011102D01*
X038672Y011055D01*
X038657Y011010D01*
X038637Y010966D01*
X038615Y010923D01*
X038589Y010882D01*
X038559Y010844D01*
X038527Y010808D01*
X038492Y010775D01*
X038454Y010745D01*
X038414Y010718D01*
X038372Y010695D01*
X038328Y010675D01*
X038283Y010658D01*
X038237Y010646D01*
X038189Y010637D01*
X038141Y010632D01*
X038093Y010631D01*
X038045Y010634D01*
X037997Y010641D01*
X037950Y010652D01*
X037904Y010666D01*
X037859Y010684D01*
X037816Y010706D01*
X037775Y010731D01*
X037737Y010760D01*
X037700Y010792D01*
X037666Y010826D01*
X037636Y010863D01*
X037608Y010902D01*
X037583Y010944D01*
X037563Y010988D01*
X037545Y011033D01*
X037532Y011079D01*
X037522Y011126D01*
X037516Y011174D01*
X037514Y011222D01*
X037514Y001222D02*
X037516Y001270D01*
X037522Y001318D01*
X037532Y001365D01*
X037545Y001411D01*
X037563Y001456D01*
X037583Y001500D01*
X037608Y001542D01*
X037636Y001581D01*
X037666Y001618D01*
X037700Y001652D01*
X037737Y001684D01*
X037775Y001713D01*
X037816Y001738D01*
X037859Y001760D01*
X037904Y001778D01*
X037950Y001792D01*
X037997Y001803D01*
X038045Y001810D01*
X038093Y001813D01*
X038141Y001812D01*
X038189Y001807D01*
X038237Y001798D01*
X038283Y001786D01*
X038328Y001769D01*
X038372Y001749D01*
X038414Y001726D01*
X038454Y001699D01*
X038492Y001669D01*
X038527Y001636D01*
X038559Y001600D01*
X038589Y001562D01*
X038615Y001521D01*
X038637Y001478D01*
X038657Y001434D01*
X038672Y001389D01*
X038684Y001342D01*
X038692Y001294D01*
X038696Y001246D01*
X038696Y001198D01*
X038692Y001150D01*
X038684Y001102D01*
X038672Y001055D01*
X038657Y001010D01*
X038637Y000966D01*
X038615Y000923D01*
X038589Y000882D01*
X038559Y000844D01*
X038527Y000808D01*
X038492Y000775D01*
X038454Y000745D01*
X038414Y000718D01*
X038372Y000695D01*
X038328Y000675D01*
X038283Y000658D01*
X038237Y000646D01*
X038189Y000637D01*
X038141Y000632D01*
X038093Y000631D01*
X038045Y000634D01*
X037997Y000641D01*
X037950Y000652D01*
X037904Y000666D01*
X037859Y000684D01*
X037816Y000706D01*
X037775Y000731D01*
X037737Y000760D01*
X037700Y000792D01*
X037666Y000826D01*
X037636Y000863D01*
X037608Y000902D01*
X037583Y000944D01*
X037563Y000988D01*
X037545Y001033D01*
X037532Y001079D01*
X037522Y001126D01*
X037516Y001174D01*
X037514Y001222D01*
D11*
X030355Y005722D02*
X028355Y005722D01*
X028355Y006472D01*
X030355Y006472D01*
X030355Y005722D01*
X030355Y006472D02*
X030355Y008222D01*
X028355Y008222D01*
X028355Y006472D01*
D12*
X029638Y005452D02*
X029878Y005092D01*
X030006Y005092D02*
X030247Y005092D01*
X030126Y005092D02*
X030126Y005452D01*
X030006Y005332D01*
X029878Y005452D02*
X029638Y005092D01*
X036744Y007568D02*
X036820Y007492D01*
X036974Y007492D01*
X037050Y007568D01*
X037050Y007952D01*
X037050Y007992D02*
X037050Y008299D01*
X036897Y008452D01*
X036743Y008299D01*
X036743Y007992D01*
X036744Y007952D02*
X036744Y007568D01*
X037204Y007568D02*
X037281Y007492D01*
X037434Y007492D01*
X037511Y007568D01*
X037511Y007645D01*
X037434Y007722D01*
X037281Y007722D01*
X037204Y007799D01*
X037204Y007875D01*
X037281Y007952D01*
X037434Y007952D01*
X037511Y007875D01*
X037434Y007992D02*
X037280Y007992D01*
X037204Y008068D01*
X037204Y008222D01*
X037434Y008222D01*
X037511Y008145D01*
X037511Y008068D01*
X037434Y007992D01*
X037357Y008029D02*
X037357Y007415D01*
X037664Y007492D02*
X037971Y007799D01*
X037971Y007875D01*
X037894Y007952D01*
X037741Y007952D01*
X037664Y007875D01*
X037741Y007992D02*
X037664Y008068D01*
X037971Y008375D01*
X037971Y008068D01*
X037894Y007992D01*
X037741Y007992D01*
X037664Y008068D02*
X037664Y008375D01*
X037741Y008452D01*
X037894Y008452D01*
X037971Y008375D01*
X037511Y008452D02*
X037357Y008375D01*
X037204Y008222D01*
X037050Y008222D02*
X036743Y008222D01*
X036590Y008145D02*
X036513Y008222D01*
X036283Y008222D01*
X036283Y008068D01*
X036360Y007992D01*
X036513Y007992D01*
X036590Y008068D01*
X036590Y008145D01*
X036436Y008375D02*
X036283Y008222D01*
X036130Y008299D02*
X036130Y008375D01*
X036053Y008452D01*
X035823Y008452D01*
X035823Y007992D01*
X036053Y007992D01*
X036130Y008068D01*
X036130Y008145D01*
X036053Y008222D01*
X035823Y008222D01*
X036053Y008222D02*
X036130Y008299D01*
X036436Y008375D02*
X036590Y008452D01*
X035669Y008452D02*
X035516Y008452D01*
X035592Y008452D02*
X035592Y007992D01*
X035516Y007992D02*
X035669Y007992D01*
X035362Y008068D02*
X035286Y007992D01*
X035132Y007992D01*
X035055Y008068D01*
X034902Y008068D02*
X034902Y008222D01*
X034749Y008222D01*
X034902Y008375D02*
X034825Y008452D01*
X034672Y008452D01*
X034595Y008375D01*
X034595Y008068D01*
X034672Y007992D01*
X034825Y007992D01*
X034902Y008068D01*
X035132Y008222D02*
X035286Y008222D01*
X035362Y008145D01*
X035362Y008068D01*
X035132Y008222D02*
X035055Y008299D01*
X035055Y008375D01*
X035132Y008452D01*
X035286Y008452D01*
X035362Y008375D01*
X037414Y008972D02*
X037721Y008972D01*
X037568Y009125D02*
X037568Y008818D01*
X037664Y007492D02*
X037971Y007492D01*
X033721Y009202D02*
X033645Y009125D01*
X033491Y009279D01*
X033414Y009202D01*
X030721Y009202D02*
X030645Y009125D01*
X030491Y009279D01*
X030414Y009202D01*
X027721Y008972D02*
X027414Y008972D01*
X002892Y010618D02*
X002815Y010542D01*
X002662Y010542D01*
X002585Y010618D01*
X002432Y010542D02*
X002125Y011002D01*
X002432Y011002D02*
X002125Y010542D01*
X002739Y010772D02*
X002815Y010772D01*
X002892Y010695D01*
X002892Y010618D01*
X002815Y010772D02*
X002892Y010849D01*
X002892Y010925D01*
X002815Y011002D01*
X002662Y011002D01*
X002585Y010925D01*
X002662Y006002D02*
X002585Y005925D01*
X002662Y006002D02*
X002815Y006002D01*
X002892Y005925D01*
X002892Y005849D01*
X002585Y005542D01*
X002892Y005542D01*
X002432Y005542D02*
X002125Y006002D01*
X002432Y006002D02*
X002125Y005542D01*
D13*
X002168Y005375D02*
X002168Y002068D01*
X004360Y002068D01*
X004360Y002186D01*
X004943Y002186D01*
X004943Y002068D01*
X012863Y002068D01*
X014346Y002068D01*
X014346Y002678D01*
X012863Y002678D01*
X012863Y002068D01*
X012863Y002432D02*
X002611Y002432D01*
X002611Y005011D01*
X004361Y005011D01*
X004363Y004765D02*
X005846Y004765D01*
X005846Y005375D01*
X021363Y005375D01*
X021363Y004765D01*
X022846Y004765D01*
X022846Y005375D01*
X025042Y005375D01*
X025042Y002068D01*
X022943Y002068D01*
X022943Y002186D01*
X022360Y002186D01*
X022360Y002068D01*
X014346Y002068D01*
X014346Y002432D02*
X024599Y002432D01*
X024599Y005011D01*
X022849Y005011D01*
X022846Y005375D02*
X021363Y005375D01*
X021363Y005011D02*
X005847Y005011D01*
X005846Y005375D02*
X004363Y005375D01*
X004363Y004765D01*
X004363Y005375D02*
X002168Y005375D01*
X002168Y007068D02*
X002168Y010375D01*
X004363Y010375D01*
X004363Y009765D01*
X005846Y009765D01*
X005846Y010375D01*
X021363Y010375D01*
X021363Y009765D01*
X022846Y009765D01*
X022846Y010375D01*
X025042Y010375D01*
X025042Y007068D01*
X022943Y007068D01*
X022943Y007186D01*
X022360Y007186D01*
X022360Y007068D01*
X014346Y007068D01*
X012863Y007068D01*
X004943Y007068D01*
X004943Y007186D01*
X004360Y007186D01*
X004360Y007068D01*
X002168Y007068D01*
X002611Y007432D02*
X002611Y010011D01*
X004361Y010011D01*
X004363Y010375D02*
X005846Y010375D01*
X005847Y010011D02*
X021363Y010011D01*
X021363Y010375D02*
X022846Y010375D01*
X022849Y010011D02*
X024599Y010011D01*
X024599Y007432D01*
X014346Y007432D01*
X014346Y007678D02*
X012863Y007678D01*
X012863Y007068D01*
X012863Y007432D02*
X002611Y007432D01*
X014346Y007678D02*
X014346Y007068D01*
D14*
X026975Y008684D02*
X038392Y008684D01*
X038392Y010259D01*
X026975Y010259D01*
X026975Y008684D01*
X034110Y007097D02*
X034110Y006722D01*
X034185Y006647D01*
X034335Y006647D01*
X034410Y006722D01*
X034410Y007097D01*
X034570Y007022D02*
X034645Y007097D01*
X034795Y007097D01*
X034870Y007022D01*
X034795Y006872D02*
X034645Y006872D01*
X034570Y006947D01*
X034570Y007022D01*
X034720Y007172D02*
X034720Y006572D01*
X034645Y006647D02*
X034795Y006647D01*
X034870Y006722D01*
X034870Y006797D01*
X034795Y006872D01*
X035030Y006947D02*
X035181Y007097D01*
X035181Y006647D01*
X035331Y006647D02*
X035030Y006647D01*
X034645Y006647D02*
X034570Y006722D01*
X036855Y004607D02*
X036855Y004307D01*
X036629Y004532D01*
X037080Y004532D01*
X037005Y004147D02*
X036704Y004147D01*
X036629Y004072D01*
X036629Y003847D01*
X037080Y003847D01*
X037080Y004072D01*
X037005Y004147D01*
X032620Y003572D02*
X032544Y003647D01*
X032394Y003647D01*
X032319Y003572D01*
X032159Y003572D02*
X032084Y003647D01*
X031859Y003647D01*
X031859Y003197D01*
X032084Y003197D01*
X032159Y003272D01*
X032159Y003572D01*
X032319Y003197D02*
X032620Y003497D01*
X032620Y003572D01*
X032620Y003197D02*
X032319Y003197D01*
X031080Y003847D02*
X030629Y003847D01*
X030629Y004072D01*
X030704Y004147D01*
X031005Y004147D01*
X031080Y004072D01*
X031080Y003847D01*
X031005Y004307D02*
X031080Y004382D01*
X031080Y004532D01*
X031005Y004607D01*
X030930Y004607D01*
X030855Y004532D01*
X030855Y004457D01*
X030855Y004532D02*
X030779Y004607D01*
X030704Y004607D01*
X030629Y004532D01*
X030629Y004382D01*
X030704Y004307D01*
X035480Y002247D02*
X035705Y002247D01*
X035780Y002172D01*
X035780Y001872D01*
X035705Y001797D01*
X035480Y001797D01*
X035480Y002247D01*
X035940Y002097D02*
X036090Y002247D01*
X036090Y001797D01*
X035940Y001797D02*
X036240Y001797D01*
D15*
X035255Y002222D02*
X033155Y002222D01*
X033155Y002072D01*
X033155Y001372D01*
X033005Y001372D01*
X033005Y001472D02*
X033005Y001972D01*
X033005Y002072D02*
X033155Y002072D01*
X032905Y001922D02*
X032905Y001522D01*
X032805Y001622D02*
X032805Y001822D01*
X033005Y002072D02*
X032968Y002070D01*
X032932Y002064D01*
X032897Y002055D01*
X032863Y002042D01*
X032830Y002025D01*
X032799Y002005D01*
X032771Y001982D01*
X032745Y001956D01*
X032722Y001928D01*
X032702Y001897D01*
X032685Y001864D01*
X032672Y001830D01*
X032663Y001795D01*
X032657Y001759D01*
X032655Y001722D01*
X032657Y001685D01*
X032663Y001649D01*
X032672Y001614D01*
X032685Y001580D01*
X032702Y001547D01*
X032722Y001516D01*
X032745Y001488D01*
X032771Y001462D01*
X032799Y001439D01*
X032830Y001419D01*
X032863Y001402D01*
X032897Y001389D01*
X032932Y001380D01*
X032968Y001374D01*
X033005Y001372D01*
X033155Y001372D02*
X033155Y001222D01*
X035255Y001222D01*
X035255Y002222D01*
X035055Y003222D02*
X032955Y003222D01*
X032955Y004222D01*
X035055Y004222D01*
X035055Y004072D01*
X035055Y003372D01*
X035055Y003222D01*
X035055Y003372D02*
X035205Y003372D01*
X035205Y003472D02*
X035205Y003972D01*
X035205Y004072D02*
X035055Y004072D01*
X035305Y003922D02*
X035305Y003522D01*
X035405Y003622D02*
X035405Y003822D01*
X035205Y004072D02*
X035242Y004070D01*
X035278Y004064D01*
X035313Y004055D01*
X035347Y004042D01*
X035380Y004025D01*
X035411Y004005D01*
X035439Y003982D01*
X035465Y003956D01*
X035488Y003928D01*
X035508Y003897D01*
X035525Y003864D01*
X035538Y003830D01*
X035547Y003795D01*
X035553Y003759D01*
X035555Y003722D01*
X035553Y003685D01*
X035547Y003649D01*
X035538Y003614D01*
X035525Y003580D01*
X035508Y003547D01*
X035488Y003516D01*
X035465Y003488D01*
X035439Y003462D01*
X035411Y003439D01*
X035380Y003419D01*
X035347Y003402D01*
X035313Y003389D01*
X035278Y003380D01*
X035242Y003374D01*
X035205Y003372D01*
X037205Y003922D02*
X037205Y005522D01*
X037207Y005539D01*
X037211Y005556D01*
X037218Y005572D01*
X037228Y005586D01*
X037241Y005599D01*
X037255Y005609D01*
X037271Y005616D01*
X037288Y005620D01*
X037305Y005622D01*
X037905Y005622D01*
X037922Y005620D01*
X037939Y005616D01*
X037955Y005609D01*
X037969Y005599D01*
X037982Y005586D01*
X037992Y005572D01*
X037999Y005556D01*
X038003Y005539D01*
X038005Y005522D01*
X038005Y003922D01*
X038003Y003905D01*
X037999Y003888D01*
X037992Y003872D01*
X037982Y003858D01*
X037969Y003845D01*
X037955Y003835D01*
X037939Y003828D01*
X037922Y003824D01*
X037905Y003822D01*
X037305Y003822D01*
X037288Y003824D01*
X037271Y003828D01*
X037255Y003835D01*
X037241Y003845D01*
X037228Y003858D01*
X037218Y003872D01*
X037211Y003888D01*
X037207Y003905D01*
X037205Y003922D01*
X037605Y004472D02*
X037605Y004722D01*
X037855Y004722D01*
X037605Y004722D02*
X037355Y004722D01*
X037605Y004722D02*
X037355Y005122D01*
X037855Y005122D01*
X037605Y004722D01*
X037605Y005322D01*
X033105Y006222D02*
X033107Y006266D01*
X033113Y006310D01*
X033123Y006353D01*
X033136Y006395D01*
X033153Y006436D01*
X033174Y006475D01*
X033198Y006512D01*
X033225Y006547D01*
X033255Y006579D01*
X033288Y006609D01*
X033324Y006635D01*
X033361Y006659D01*
X033401Y006678D01*
X033442Y006695D01*
X033485Y006707D01*
X033528Y006716D01*
X033572Y006721D01*
X033616Y006722D01*
X033660Y006719D01*
X033704Y006712D01*
X033747Y006701D01*
X033789Y006687D01*
X033829Y006669D01*
X033868Y006647D01*
X033904Y006623D01*
X033938Y006595D01*
X033970Y006564D01*
X033999Y006530D01*
X034025Y006494D01*
X034047Y006456D01*
X034066Y006416D01*
X034081Y006374D01*
X034093Y006332D01*
X034101Y006288D01*
X034105Y006244D01*
X034105Y006200D01*
X034101Y006156D01*
X034093Y006112D01*
X034081Y006070D01*
X034066Y006028D01*
X034047Y005988D01*
X034025Y005950D01*
X033999Y005914D01*
X033970Y005880D01*
X033938Y005849D01*
X033904Y005821D01*
X033868Y005797D01*
X033829Y005775D01*
X033789Y005757D01*
X033747Y005743D01*
X033704Y005732D01*
X033660Y005725D01*
X033616Y005722D01*
X033572Y005723D01*
X033528Y005728D01*
X033485Y005737D01*
X033442Y005749D01*
X033401Y005766D01*
X033361Y005785D01*
X033324Y005809D01*
X033288Y005835D01*
X033255Y005865D01*
X033225Y005897D01*
X033198Y005932D01*
X033174Y005969D01*
X033153Y006008D01*
X033136Y006049D01*
X033123Y006091D01*
X033113Y006134D01*
X033107Y006178D01*
X033105Y006222D01*
X031905Y005622D02*
X031305Y005622D01*
X031288Y005620D01*
X031271Y005616D01*
X031255Y005609D01*
X031241Y005599D01*
X031228Y005586D01*
X031218Y005572D01*
X031211Y005556D01*
X031207Y005539D01*
X031205Y005522D01*
X031205Y003922D01*
X031207Y003905D01*
X031211Y003888D01*
X031218Y003872D01*
X031228Y003858D01*
X031241Y003845D01*
X031255Y003835D01*
X031271Y003828D01*
X031288Y003824D01*
X031305Y003822D01*
X031905Y003822D01*
X031922Y003824D01*
X031939Y003828D01*
X031955Y003835D01*
X031969Y003845D01*
X031982Y003858D01*
X031992Y003872D01*
X031999Y003888D01*
X032003Y003905D01*
X032005Y003922D01*
X032005Y005522D01*
X032003Y005539D01*
X031999Y005556D01*
X031992Y005572D01*
X031982Y005586D01*
X031969Y005599D01*
X031955Y005609D01*
X031939Y005616D01*
X031922Y005620D01*
X031905Y005622D01*
X031605Y005322D02*
X031605Y004722D01*
X031855Y004722D01*
X031605Y004722D02*
X031355Y004722D01*
X031605Y004722D02*
X031355Y005122D01*
X031855Y005122D01*
X031605Y004722D01*
X031605Y004472D01*
D16*
X034005Y006222D02*
X034205Y006222D01*
D17*
X031605Y004072D03*
X037605Y004072D03*
D18*
X037605Y003697D03*
X031605Y003697D03*
X031605Y005747D03*
X037605Y005747D03*
M02*
