%
M48
M72
T01C0.0320
T02C0.0394
%
T01
X29681Y2181
X32181Y1681
X33181Y1681
X34681Y2681
X33181Y3681
X32181Y3681
X29681Y5181
X32181Y5681
X33181Y5681
X34681Y5681
X34181Y7181
X34181Y8181
X34181Y9181
X34181Y10181
X31181Y10181
X31181Y9181
X31181Y8181
X31181Y7181
T02
X3681Y2681
X4681Y2681
X5681Y2681
X6681Y2681
X7681Y2681
X8681Y2681
X9681Y2681
X10681Y2681
X11681Y2681
X12681Y2681
X13681Y2681
X14681Y2681
X15681Y2681
X16681Y2681
X17681Y2681
X18681Y2681
X19681Y2681
X20681Y2681
X21681Y2681
X22681Y2681
X22681Y3681
X21681Y3681
X20681Y3681
X19681Y3681
X18681Y3681
X17681Y3681
X16681Y3681
X15681Y3681
X14681Y3681
X13681Y3681
X12681Y3681
X11681Y3681
X10681Y3681
X9681Y3681
X8681Y3681
X7681Y3681
X6681Y3681
X5681Y3681
X4681Y3681
X3681Y3681
X3681Y8681
X4681Y8681
X5681Y8681
X6681Y8681
X7681Y8681
X8681Y8681
X9681Y8681
X10681Y8681
X11681Y8681
X12681Y8681
X13681Y8681
X14681Y8681
X15681Y8681
X16681Y8681
X17681Y8681
X18681Y8681
X19681Y8681
X20681Y8681
X21681Y8681
X22681Y8681
X22681Y9681
X21681Y9681
X20681Y9681
X19681Y9681
X18681Y9681
X17681Y9681
X16681Y9681
X15681Y9681
X14681Y9681
X13681Y9681
X12681Y9681
X11681Y9681
X10681Y9681
X9681Y9681
X8681Y9681
X7681Y9681
X6681Y9681
X5681Y9681
X4681Y9681
X3681Y9681
X27681Y9181
X28681Y9181
M30
