%
M48
M72
T01C0.0315
T02C0.0320
T03C0.0394
T04C0.1181
%
T01
X27339Y9431
X30292Y9431
X33244Y9431
X37181Y9431
T02
X37181Y6181
X34681Y6181
X32681Y6181
X31181Y6181
X33181Y3681
X34181Y3681
X31181Y3181
X33181Y1681
X34181Y1681
X37181Y3181
T03
X29431Y6931
X28431Y6931
X22681Y7681
X21681Y7681
X20681Y7681
X19681Y7681
X18681Y7681
X17681Y7681
X16681Y7681
X15681Y7681
X14681Y7681
X13681Y7681
X12681Y7681
X11681Y7681
X10681Y7681
X9681Y7681
X8681Y7681
X7681Y7681
X6681Y7681
X5681Y7681
X4681Y7681
X3681Y7681
X3681Y8681
X4681Y8681
X5681Y8681
X6681Y8681
X7681Y8681
X8681Y8681
X9681Y8681
X10681Y8681
X11681Y8681
X12681Y8681
X13681Y8681
X14681Y8681
X15681Y8681
X16681Y8681
X17681Y8681
X18681Y8681
X19681Y8681
X20681Y8681
X21681Y8681
X22681Y8681
X22681Y4181
X21681Y4181
X20681Y4181
X19681Y4181
X18681Y4181
X17681Y4181
X16681Y4181
X15681Y4181
X14681Y4181
X13681Y4181
X12681Y4181
X11681Y4181
X10681Y4181
X9681Y4181
X8681Y4181
X7681Y4181
X6681Y4181
X5681Y4181
X4681Y4181
X3681Y4181
X3681Y3181
X4681Y3181
X5681Y3181
X6681Y3181
X7681Y3181
X8681Y3181
X9681Y3181
X10681Y3181
X11681Y3181
X12681Y3181
X13681Y3181
X14681Y3181
X15681Y3181
X16681Y3181
X17681Y3181
X18681Y3181
X19681Y3181
X20681Y3181
X21681Y3181
X22681Y3181
T04
X1181Y1181
X1181Y11181
X37681Y11181
X37681Y1181
M30
