G75*
G70*
%OFA0B0*%
%FSLAX24Y24*%
%IPPOS*%
%LPD*%
%AMOC8*
5,1,8,0,0,1.08239X$1,22.5*
%
%ADD10C,0.0594*%
%ADD11C,0.0594*%
%ADD12OC8,0.0520*%
%ADD13C,0.0520*%
D10*
X027681Y008885D02*
X027681Y009478D01*
X028681Y009478D02*
X028681Y008885D01*
D11*
X003681Y002681D03*
X004681Y002681D03*
X005681Y002681D03*
X006681Y002681D03*
X007681Y002681D03*
X008681Y002681D03*
X009681Y002681D03*
X010681Y002681D03*
X011681Y002681D03*
X012681Y002681D03*
X013681Y002681D03*
X014681Y002681D03*
X015681Y002681D03*
X016681Y002681D03*
X017681Y002681D03*
X018681Y002681D03*
X019681Y002681D03*
X020681Y002681D03*
X021681Y002681D03*
X022681Y002681D03*
X022681Y003681D03*
X021681Y003681D03*
X020681Y003681D03*
X019681Y003681D03*
X018681Y003681D03*
X017681Y003681D03*
X016681Y003681D03*
X015681Y003681D03*
X014681Y003681D03*
X013681Y003681D03*
X012681Y003681D03*
X011681Y003681D03*
X010681Y003681D03*
X009681Y003681D03*
X008681Y003681D03*
X007681Y003681D03*
X006681Y003681D03*
X005681Y003681D03*
X004681Y003681D03*
X003681Y003681D03*
X003681Y008681D03*
X004681Y008681D03*
X005681Y008681D03*
X006681Y008681D03*
X007681Y008681D03*
X008681Y008681D03*
X009681Y008681D03*
X010681Y008681D03*
X011681Y008681D03*
X012681Y008681D03*
X013681Y008681D03*
X014681Y008681D03*
X015681Y008681D03*
X016681Y008681D03*
X017681Y008681D03*
X018681Y008681D03*
X019681Y008681D03*
X020681Y008681D03*
X021681Y008681D03*
X022681Y008681D03*
X022681Y009681D03*
X021681Y009681D03*
X020681Y009681D03*
X019681Y009681D03*
X018681Y009681D03*
X017681Y009681D03*
X016681Y009681D03*
X015681Y009681D03*
X014681Y009681D03*
X013681Y009681D03*
X012681Y009681D03*
X011681Y009681D03*
X010681Y009681D03*
X009681Y009681D03*
X008681Y009681D03*
X007681Y009681D03*
X006681Y009681D03*
X005681Y009681D03*
X004681Y009681D03*
X003681Y009681D03*
D12*
X032181Y005681D03*
X033181Y005681D03*
D13*
X034681Y005421D02*
X034681Y005941D01*
X034441Y007181D02*
X033921Y007181D01*
X031441Y007181D02*
X030921Y007181D01*
X030921Y008181D02*
X031441Y008181D01*
X033921Y008181D02*
X034441Y008181D01*
X034441Y009181D02*
X033921Y009181D01*
X031441Y009181D02*
X030921Y009181D01*
X030921Y010181D02*
X031441Y010181D01*
X033921Y010181D02*
X034441Y010181D01*
X029681Y005441D02*
X029681Y004921D01*
X032181Y003941D02*
X032181Y003421D01*
X033181Y003421D02*
X033181Y003941D01*
X034681Y002941D02*
X034681Y002421D01*
X033181Y001941D02*
X033181Y001421D01*
X032181Y001421D02*
X032181Y001941D01*
X029681Y001921D02*
X029681Y002441D01*
M02*
