G75*
G70*
%OFA0B0*%
%FSLAX24Y24*%
%IPPOS*%
%LPD*%
%AMOC8*
5,1,8,0,0,1.08239X$1,22.5*
%
%ADD10C,0.0594*%
%ADD11C,0.0594*%
%ADD12OC8,0.0520*%
%ADD13C,0.0520*%
%ADD14R,0.0515X0.0515*%
D10*
X028855Y006675D02*
X028855Y007269D01*
X029855Y007269D02*
X029855Y006675D01*
D11*
X004105Y003222D03*
X005105Y003222D03*
X006105Y003222D03*
X007105Y003222D03*
X008105Y003222D03*
X009105Y003222D03*
X010105Y003222D03*
X011105Y003222D03*
X012105Y003222D03*
X013105Y003222D03*
X014105Y003222D03*
X015105Y003222D03*
X016105Y003222D03*
X017105Y003222D03*
X018105Y003222D03*
X019105Y003222D03*
X020105Y003222D03*
X021105Y003222D03*
X022105Y003222D03*
X023105Y003222D03*
X023105Y004222D03*
X022105Y004222D03*
X021105Y004222D03*
X020105Y004222D03*
X019105Y004222D03*
X018105Y004222D03*
X017105Y004222D03*
X016105Y004222D03*
X015105Y004222D03*
X014105Y004222D03*
X013105Y004222D03*
X012105Y004222D03*
X011105Y004222D03*
X010105Y004222D03*
X009105Y004222D03*
X008105Y004222D03*
X007105Y004222D03*
X006105Y004222D03*
X005105Y004222D03*
X004105Y004222D03*
X004105Y008222D03*
X005105Y008222D03*
X006105Y008222D03*
X007105Y008222D03*
X008105Y008222D03*
X009105Y008222D03*
X010105Y008222D03*
X011105Y008222D03*
X012105Y008222D03*
X013105Y008222D03*
X014105Y008222D03*
X015105Y008222D03*
X016105Y008222D03*
X017105Y008222D03*
X018105Y008222D03*
X019105Y008222D03*
X020105Y008222D03*
X021105Y008222D03*
X022105Y008222D03*
X023105Y008222D03*
X023105Y009222D03*
X022105Y009222D03*
X021105Y009222D03*
X020105Y009222D03*
X019105Y009222D03*
X018105Y009222D03*
X017105Y009222D03*
X016105Y009222D03*
X015105Y009222D03*
X014105Y009222D03*
X013105Y009222D03*
X012105Y009222D03*
X011105Y009222D03*
X010105Y009222D03*
X009105Y009222D03*
X008105Y009222D03*
X007105Y009222D03*
X006105Y009222D03*
X005105Y009222D03*
X004105Y009222D03*
D12*
X033605Y006222D03*
X034605Y006222D03*
D13*
X037605Y005962D02*
X037605Y006482D01*
X031605Y006482D02*
X031605Y005962D01*
X033605Y003982D02*
X033605Y003462D01*
X034605Y003462D02*
X034605Y003982D01*
X037605Y003482D02*
X037605Y002962D01*
X034605Y001982D02*
X034605Y001462D01*
X033605Y001462D02*
X033605Y001982D01*
X031605Y002962D02*
X031605Y003482D01*
D14*
X030715Y009472D03*
X033668Y009472D03*
X037605Y009472D03*
X027762Y009472D03*
M02*
