G75*
G70*
%OFA0B0*%
%FSLAX24Y24*%
%IPPOS*%
%LPD*%
%AMOC8*
5,1,8,0,0,1.08239X$1,22.5*
%
%ADD10C,0.0000*%
%ADD11C,0.0100*%
%ADD12C,0.0040*%
%ADD13C,0.0060*%
%ADD14C,0.0050*%
%ADD15R,0.0800X0.0200*%
%ADD16R,0.0200X0.0250*%
%ADD17C,0.0080*%
D10*
X000181Y000181D02*
X000181Y012177D01*
X038551Y012177D01*
X038551Y000181D01*
X000181Y000181D01*
X000590Y001181D02*
X000592Y001229D01*
X000598Y001277D01*
X000608Y001324D01*
X000621Y001370D01*
X000639Y001415D01*
X000659Y001459D01*
X000684Y001501D01*
X000712Y001540D01*
X000742Y001577D01*
X000776Y001611D01*
X000813Y001643D01*
X000851Y001672D01*
X000892Y001697D01*
X000935Y001719D01*
X000980Y001737D01*
X001026Y001751D01*
X001073Y001762D01*
X001121Y001769D01*
X001169Y001772D01*
X001217Y001771D01*
X001265Y001766D01*
X001313Y001757D01*
X001359Y001745D01*
X001404Y001728D01*
X001448Y001708D01*
X001490Y001685D01*
X001530Y001658D01*
X001568Y001628D01*
X001603Y001595D01*
X001635Y001559D01*
X001665Y001521D01*
X001691Y001480D01*
X001713Y001437D01*
X001733Y001393D01*
X001748Y001348D01*
X001760Y001301D01*
X001768Y001253D01*
X001772Y001205D01*
X001772Y001157D01*
X001768Y001109D01*
X001760Y001061D01*
X001748Y001014D01*
X001733Y000969D01*
X001713Y000925D01*
X001691Y000882D01*
X001665Y000841D01*
X001635Y000803D01*
X001603Y000767D01*
X001568Y000734D01*
X001530Y000704D01*
X001490Y000677D01*
X001448Y000654D01*
X001404Y000634D01*
X001359Y000617D01*
X001313Y000605D01*
X001265Y000596D01*
X001217Y000591D01*
X001169Y000590D01*
X001121Y000593D01*
X001073Y000600D01*
X001026Y000611D01*
X000980Y000625D01*
X000935Y000643D01*
X000892Y000665D01*
X000851Y000690D01*
X000813Y000719D01*
X000776Y000751D01*
X000742Y000785D01*
X000712Y000822D01*
X000684Y000861D01*
X000659Y000903D01*
X000639Y000947D01*
X000621Y000992D01*
X000608Y001038D01*
X000598Y001085D01*
X000592Y001133D01*
X000590Y001181D01*
X000590Y011181D02*
X000592Y011229D01*
X000598Y011277D01*
X000608Y011324D01*
X000621Y011370D01*
X000639Y011415D01*
X000659Y011459D01*
X000684Y011501D01*
X000712Y011540D01*
X000742Y011577D01*
X000776Y011611D01*
X000813Y011643D01*
X000851Y011672D01*
X000892Y011697D01*
X000935Y011719D01*
X000980Y011737D01*
X001026Y011751D01*
X001073Y011762D01*
X001121Y011769D01*
X001169Y011772D01*
X001217Y011771D01*
X001265Y011766D01*
X001313Y011757D01*
X001359Y011745D01*
X001404Y011728D01*
X001448Y011708D01*
X001490Y011685D01*
X001530Y011658D01*
X001568Y011628D01*
X001603Y011595D01*
X001635Y011559D01*
X001665Y011521D01*
X001691Y011480D01*
X001713Y011437D01*
X001733Y011393D01*
X001748Y011348D01*
X001760Y011301D01*
X001768Y011253D01*
X001772Y011205D01*
X001772Y011157D01*
X001768Y011109D01*
X001760Y011061D01*
X001748Y011014D01*
X001733Y010969D01*
X001713Y010925D01*
X001691Y010882D01*
X001665Y010841D01*
X001635Y010803D01*
X001603Y010767D01*
X001568Y010734D01*
X001530Y010704D01*
X001490Y010677D01*
X001448Y010654D01*
X001404Y010634D01*
X001359Y010617D01*
X001313Y010605D01*
X001265Y010596D01*
X001217Y010591D01*
X001169Y010590D01*
X001121Y010593D01*
X001073Y010600D01*
X001026Y010611D01*
X000980Y010625D01*
X000935Y010643D01*
X000892Y010665D01*
X000851Y010690D01*
X000813Y010719D01*
X000776Y010751D01*
X000742Y010785D01*
X000712Y010822D01*
X000684Y010861D01*
X000659Y010903D01*
X000639Y010947D01*
X000621Y010992D01*
X000608Y011038D01*
X000598Y011085D01*
X000592Y011133D01*
X000590Y011181D01*
X037090Y011181D02*
X037092Y011229D01*
X037098Y011277D01*
X037108Y011324D01*
X037121Y011370D01*
X037139Y011415D01*
X037159Y011459D01*
X037184Y011501D01*
X037212Y011540D01*
X037242Y011577D01*
X037276Y011611D01*
X037313Y011643D01*
X037351Y011672D01*
X037392Y011697D01*
X037435Y011719D01*
X037480Y011737D01*
X037526Y011751D01*
X037573Y011762D01*
X037621Y011769D01*
X037669Y011772D01*
X037717Y011771D01*
X037765Y011766D01*
X037813Y011757D01*
X037859Y011745D01*
X037904Y011728D01*
X037948Y011708D01*
X037990Y011685D01*
X038030Y011658D01*
X038068Y011628D01*
X038103Y011595D01*
X038135Y011559D01*
X038165Y011521D01*
X038191Y011480D01*
X038213Y011437D01*
X038233Y011393D01*
X038248Y011348D01*
X038260Y011301D01*
X038268Y011253D01*
X038272Y011205D01*
X038272Y011157D01*
X038268Y011109D01*
X038260Y011061D01*
X038248Y011014D01*
X038233Y010969D01*
X038213Y010925D01*
X038191Y010882D01*
X038165Y010841D01*
X038135Y010803D01*
X038103Y010767D01*
X038068Y010734D01*
X038030Y010704D01*
X037990Y010677D01*
X037948Y010654D01*
X037904Y010634D01*
X037859Y010617D01*
X037813Y010605D01*
X037765Y010596D01*
X037717Y010591D01*
X037669Y010590D01*
X037621Y010593D01*
X037573Y010600D01*
X037526Y010611D01*
X037480Y010625D01*
X037435Y010643D01*
X037392Y010665D01*
X037351Y010690D01*
X037313Y010719D01*
X037276Y010751D01*
X037242Y010785D01*
X037212Y010822D01*
X037184Y010861D01*
X037159Y010903D01*
X037139Y010947D01*
X037121Y010992D01*
X037108Y011038D01*
X037098Y011085D01*
X037092Y011133D01*
X037090Y011181D01*
X037090Y001181D02*
X037092Y001229D01*
X037098Y001277D01*
X037108Y001324D01*
X037121Y001370D01*
X037139Y001415D01*
X037159Y001459D01*
X037184Y001501D01*
X037212Y001540D01*
X037242Y001577D01*
X037276Y001611D01*
X037313Y001643D01*
X037351Y001672D01*
X037392Y001697D01*
X037435Y001719D01*
X037480Y001737D01*
X037526Y001751D01*
X037573Y001762D01*
X037621Y001769D01*
X037669Y001772D01*
X037717Y001771D01*
X037765Y001766D01*
X037813Y001757D01*
X037859Y001745D01*
X037904Y001728D01*
X037948Y001708D01*
X037990Y001685D01*
X038030Y001658D01*
X038068Y001628D01*
X038103Y001595D01*
X038135Y001559D01*
X038165Y001521D01*
X038191Y001480D01*
X038213Y001437D01*
X038233Y001393D01*
X038248Y001348D01*
X038260Y001301D01*
X038268Y001253D01*
X038272Y001205D01*
X038272Y001157D01*
X038268Y001109D01*
X038260Y001061D01*
X038248Y001014D01*
X038233Y000969D01*
X038213Y000925D01*
X038191Y000882D01*
X038165Y000841D01*
X038135Y000803D01*
X038103Y000767D01*
X038068Y000734D01*
X038030Y000704D01*
X037990Y000677D01*
X037948Y000654D01*
X037904Y000634D01*
X037859Y000617D01*
X037813Y000605D01*
X037765Y000596D01*
X037717Y000591D01*
X037669Y000590D01*
X037621Y000593D01*
X037573Y000600D01*
X037526Y000611D01*
X037480Y000625D01*
X037435Y000643D01*
X037392Y000665D01*
X037351Y000690D01*
X037313Y000719D01*
X037276Y000751D01*
X037242Y000785D01*
X037212Y000822D01*
X037184Y000861D01*
X037159Y000903D01*
X037139Y000947D01*
X037121Y000992D01*
X037108Y001038D01*
X037098Y001085D01*
X037092Y001133D01*
X037090Y001181D01*
D11*
X029931Y005681D02*
X027931Y005681D01*
X027931Y006431D01*
X029931Y006431D01*
X029931Y005681D01*
X029931Y006431D02*
X029931Y008181D01*
X027931Y008181D01*
X027931Y006431D01*
D12*
X029215Y005412D02*
X029455Y005051D01*
X029583Y005051D02*
X029823Y005051D01*
X029703Y005051D02*
X029703Y005412D01*
X029583Y005292D01*
X029455Y005412D02*
X029215Y005051D01*
X032911Y006720D02*
X032970Y006661D01*
X033087Y006661D01*
X033145Y006720D01*
X033145Y007012D01*
X033271Y006953D02*
X033329Y007012D01*
X033446Y007012D01*
X033504Y006953D01*
X033446Y006837D02*
X033329Y006837D01*
X033271Y006895D01*
X033271Y006953D01*
X033387Y007070D02*
X033387Y006603D01*
X033329Y006661D02*
X033446Y006661D01*
X033504Y006720D01*
X033504Y006778D01*
X033446Y006837D01*
X033630Y006895D02*
X033746Y007012D01*
X033746Y006661D01*
X033630Y006661D02*
X033863Y006661D01*
X033329Y006661D02*
X033271Y006720D01*
X032911Y006720D02*
X032911Y007012D01*
X034172Y008028D02*
X034248Y007951D01*
X034402Y007951D01*
X034479Y008028D01*
X034479Y008182D01*
X034325Y008182D01*
X034172Y008335D02*
X034172Y008028D01*
X034632Y008028D02*
X034709Y007951D01*
X034862Y007951D01*
X034939Y008028D01*
X034939Y008105D01*
X034862Y008182D01*
X034709Y008182D01*
X034632Y008258D01*
X034632Y008335D01*
X034709Y008412D01*
X034862Y008412D01*
X034939Y008335D01*
X035092Y008412D02*
X035246Y008412D01*
X035169Y008412D02*
X035169Y007951D01*
X035092Y007951D02*
X035246Y007951D01*
X035399Y007951D02*
X035630Y007951D01*
X035706Y008028D01*
X035706Y008105D01*
X035630Y008182D01*
X035399Y008182D01*
X035630Y008182D02*
X035706Y008258D01*
X035706Y008335D01*
X035630Y008412D01*
X035399Y008412D01*
X035399Y007951D01*
X035860Y008028D02*
X035936Y007951D01*
X036090Y007951D01*
X036167Y008028D01*
X036167Y008105D01*
X036090Y008182D01*
X035860Y008182D01*
X035860Y008028D01*
X036320Y007951D02*
X036320Y008258D01*
X036474Y008412D01*
X036627Y008258D01*
X036627Y007951D01*
X036627Y007912D02*
X036627Y007528D01*
X036550Y007451D01*
X036397Y007451D01*
X036320Y007528D01*
X036320Y007912D01*
X036781Y007835D02*
X036781Y007758D01*
X036857Y007682D01*
X037011Y007682D01*
X037088Y007605D01*
X037088Y007528D01*
X037011Y007451D01*
X036857Y007451D01*
X036781Y007528D01*
X036934Y007375D02*
X036934Y007989D01*
X037011Y007951D02*
X037087Y008028D01*
X037087Y008105D01*
X037011Y008182D01*
X036780Y008182D01*
X036780Y008028D01*
X036857Y007951D01*
X037011Y007951D01*
X037011Y007912D02*
X036857Y007912D01*
X036781Y007835D01*
X037011Y007912D02*
X037088Y007835D01*
X037241Y007835D02*
X037318Y007912D01*
X037471Y007912D01*
X037548Y007835D01*
X037548Y007758D01*
X037241Y007451D01*
X037548Y007451D01*
X037471Y007951D02*
X037317Y007951D01*
X037241Y008028D01*
X037548Y008335D01*
X037548Y008028D01*
X037471Y007951D01*
X037241Y008028D02*
X037241Y008335D01*
X037317Y008412D01*
X037471Y008412D01*
X037548Y008335D01*
X037087Y008412D02*
X036934Y008335D01*
X036780Y008182D01*
X036627Y008182D02*
X036320Y008182D01*
X036167Y008412D02*
X036013Y008335D01*
X035860Y008182D01*
X034479Y008335D02*
X034402Y008412D01*
X034248Y008412D01*
X034172Y008335D01*
X033298Y009162D02*
X033221Y009085D01*
X033068Y009239D01*
X032991Y009162D01*
X030298Y009162D02*
X030221Y009085D01*
X030068Y009239D01*
X029991Y009162D01*
X027298Y008932D02*
X026991Y008932D01*
X036991Y008932D02*
X037298Y008932D01*
X037144Y009085D02*
X037144Y008778D01*
X002469Y010078D02*
X002392Y010001D01*
X002238Y010001D01*
X002162Y010078D01*
X002008Y010001D02*
X001701Y010462D01*
X002008Y010462D02*
X001701Y010001D01*
X002315Y010232D02*
X002392Y010232D01*
X002469Y010155D01*
X002469Y010078D01*
X002392Y010232D02*
X002469Y010308D01*
X002469Y010385D01*
X002392Y010462D01*
X002238Y010462D01*
X002162Y010385D01*
X002238Y005962D02*
X002162Y005885D01*
X002238Y005962D02*
X002392Y005962D01*
X002469Y005885D01*
X002469Y005808D01*
X002162Y005501D01*
X002469Y005501D01*
X002008Y005501D02*
X001701Y005962D01*
X002008Y005962D02*
X001701Y005501D01*
D13*
X030781Y005481D02*
X030781Y003881D01*
X030783Y003864D01*
X030787Y003847D01*
X030794Y003831D01*
X030804Y003817D01*
X030817Y003804D01*
X030831Y003794D01*
X030847Y003787D01*
X030864Y003783D01*
X030881Y003781D01*
X031481Y003781D01*
X031498Y003783D01*
X031515Y003787D01*
X031531Y003794D01*
X031545Y003804D01*
X031558Y003817D01*
X031568Y003831D01*
X031575Y003847D01*
X031579Y003864D01*
X031581Y003881D01*
X031581Y005481D01*
X031579Y005498D01*
X031575Y005515D01*
X031568Y005531D01*
X031558Y005545D01*
X031545Y005558D01*
X031531Y005568D01*
X031515Y005575D01*
X031498Y005579D01*
X031481Y005581D01*
X030881Y005581D01*
X030864Y005579D01*
X030847Y005575D01*
X030831Y005568D01*
X030817Y005558D01*
X030804Y005545D01*
X030794Y005531D01*
X030787Y005515D01*
X030783Y005498D01*
X030781Y005481D01*
X031181Y005281D02*
X031181Y004681D01*
X031431Y004681D01*
X031181Y004681D02*
X030931Y004681D01*
X031181Y004681D02*
X030931Y005081D01*
X031431Y005081D01*
X031181Y004681D01*
X031181Y004431D01*
X032531Y004181D02*
X032531Y003181D01*
X034631Y003181D01*
X034631Y003331D01*
X034631Y004031D01*
X034781Y004031D01*
X034781Y003931D02*
X034781Y003431D01*
X034781Y003331D02*
X034631Y003331D01*
X034881Y003481D02*
X034881Y003881D01*
X034981Y003781D02*
X034981Y003581D01*
X034781Y003331D02*
X034818Y003333D01*
X034854Y003339D01*
X034889Y003348D01*
X034923Y003361D01*
X034956Y003378D01*
X034987Y003398D01*
X035015Y003421D01*
X035041Y003447D01*
X035064Y003475D01*
X035084Y003506D01*
X035101Y003539D01*
X035114Y003573D01*
X035123Y003608D01*
X035129Y003644D01*
X035131Y003681D01*
X035129Y003718D01*
X035123Y003754D01*
X035114Y003789D01*
X035101Y003823D01*
X035084Y003856D01*
X035064Y003887D01*
X035041Y003915D01*
X035015Y003941D01*
X034987Y003964D01*
X034956Y003984D01*
X034923Y004001D01*
X034889Y004014D01*
X034854Y004023D01*
X034818Y004029D01*
X034781Y004031D01*
X034631Y004031D02*
X034631Y004181D01*
X032531Y004181D01*
X036781Y003881D02*
X036781Y005481D01*
X036783Y005498D01*
X036787Y005515D01*
X036794Y005531D01*
X036804Y005545D01*
X036817Y005558D01*
X036831Y005568D01*
X036847Y005575D01*
X036864Y005579D01*
X036881Y005581D01*
X037481Y005581D01*
X037498Y005579D01*
X037515Y005575D01*
X037531Y005568D01*
X037545Y005558D01*
X037558Y005545D01*
X037568Y005531D01*
X037575Y005515D01*
X037579Y005498D01*
X037581Y005481D01*
X037581Y003881D01*
X037579Y003864D01*
X037575Y003847D01*
X037568Y003831D01*
X037558Y003817D01*
X037545Y003804D01*
X037531Y003794D01*
X037515Y003787D01*
X037498Y003783D01*
X037481Y003781D01*
X036881Y003781D01*
X036864Y003783D01*
X036847Y003787D01*
X036831Y003794D01*
X036817Y003804D01*
X036804Y003817D01*
X036794Y003831D01*
X036787Y003847D01*
X036783Y003864D01*
X036781Y003881D01*
X037181Y004431D02*
X037181Y004681D01*
X037431Y004681D01*
X037181Y004681D02*
X036931Y004681D01*
X037181Y004681D02*
X036931Y005081D01*
X037431Y005081D01*
X037181Y004681D01*
X037181Y005281D01*
X034281Y005831D02*
X034181Y005831D01*
X034131Y005881D01*
X033231Y005881D01*
X033181Y005831D01*
X033081Y005831D01*
X033064Y005833D01*
X033047Y005837D01*
X033031Y005844D01*
X033017Y005854D01*
X033004Y005867D01*
X032994Y005881D01*
X032987Y005897D01*
X032983Y005914D01*
X032981Y005931D01*
X034281Y005831D02*
X034298Y005833D01*
X034315Y005837D01*
X034331Y005844D01*
X034345Y005854D01*
X034358Y005867D01*
X034368Y005881D01*
X034375Y005897D01*
X034379Y005914D01*
X034381Y005931D01*
X034381Y006431D02*
X034379Y006448D01*
X034375Y006465D01*
X034368Y006481D01*
X034358Y006495D01*
X034345Y006508D01*
X034331Y006518D01*
X034315Y006525D01*
X034298Y006529D01*
X034281Y006531D01*
X034181Y006531D01*
X034131Y006481D01*
X033231Y006481D01*
X033181Y006531D01*
X033081Y006531D01*
X033064Y006529D01*
X033047Y006525D01*
X033031Y006518D01*
X033017Y006508D01*
X033004Y006495D01*
X032994Y006481D01*
X032987Y006465D01*
X032983Y006448D01*
X032981Y006431D01*
X032731Y002181D02*
X032731Y002031D01*
X032731Y001331D01*
X032581Y001331D01*
X032581Y001431D02*
X032581Y001931D01*
X032581Y002031D02*
X032731Y002031D01*
X032731Y002181D02*
X034831Y002181D01*
X034831Y001181D01*
X032731Y001181D01*
X032731Y001331D01*
X032481Y001481D02*
X032481Y001881D01*
X032381Y001781D02*
X032381Y001581D01*
X032581Y001331D02*
X032544Y001333D01*
X032508Y001339D01*
X032473Y001348D01*
X032439Y001361D01*
X032406Y001378D01*
X032375Y001398D01*
X032347Y001421D01*
X032321Y001447D01*
X032298Y001475D01*
X032278Y001506D01*
X032261Y001539D01*
X032248Y001573D01*
X032239Y001608D01*
X032233Y001644D01*
X032231Y001681D01*
X032233Y001718D01*
X032239Y001754D01*
X032248Y001789D01*
X032261Y001823D01*
X032278Y001856D01*
X032298Y001887D01*
X032321Y001915D01*
X032347Y001941D01*
X032375Y001964D01*
X032406Y001984D01*
X032439Y002001D01*
X032473Y002014D01*
X032508Y002023D01*
X032544Y002029D01*
X032581Y002031D01*
D14*
X035056Y002207D02*
X035056Y001756D01*
X035282Y001756D01*
X035357Y001831D01*
X035357Y002132D01*
X035282Y002207D01*
X035056Y002207D01*
X035517Y002057D02*
X035667Y002207D01*
X035667Y001756D01*
X035517Y001756D02*
X035817Y001756D01*
X032196Y003156D02*
X031896Y003156D01*
X032196Y003457D01*
X032196Y003532D01*
X032121Y003607D01*
X031971Y003607D01*
X031896Y003532D01*
X031736Y003532D02*
X031661Y003607D01*
X031436Y003607D01*
X031436Y003156D01*
X031661Y003156D01*
X031736Y003231D01*
X031736Y003532D01*
X030656Y003806D02*
X030656Y004032D01*
X030581Y004107D01*
X030281Y004107D01*
X030206Y004032D01*
X030206Y003806D01*
X030656Y003806D01*
X030581Y004267D02*
X030656Y004342D01*
X030656Y004492D01*
X030581Y004567D01*
X030506Y004567D01*
X030431Y004492D01*
X030431Y004417D01*
X030431Y004492D02*
X030356Y004567D01*
X030281Y004567D01*
X030206Y004492D01*
X030206Y004342D01*
X030281Y004267D01*
X036206Y004492D02*
X036431Y004267D01*
X036431Y004567D01*
X036656Y004492D02*
X036206Y004492D01*
X036281Y004107D02*
X036206Y004032D01*
X036206Y003806D01*
X036656Y003806D01*
X036656Y004032D01*
X036581Y004107D01*
X036281Y004107D01*
X037969Y008644D02*
X026551Y008644D01*
X026551Y010219D01*
X037969Y010219D01*
X037969Y008644D01*
D15*
X037181Y004031D03*
X031181Y004031D03*
D16*
X031181Y003656D03*
X037181Y003656D03*
X037181Y005706D03*
X031181Y005706D03*
D17*
X024618Y005335D02*
X024618Y002028D01*
X022519Y002028D01*
X022519Y002146D01*
X021937Y002146D01*
X021937Y002028D01*
X013923Y002028D01*
X012440Y002028D01*
X004519Y002028D01*
X004519Y002146D01*
X003937Y002146D01*
X003937Y002028D01*
X001744Y002028D01*
X001744Y005335D01*
X003940Y005335D01*
X003940Y004725D01*
X005423Y004725D01*
X005423Y005335D01*
X020940Y005335D01*
X020940Y004725D01*
X022423Y004725D01*
X022423Y005335D01*
X024618Y005335D01*
X024176Y004971D02*
X024176Y002392D01*
X013923Y002392D01*
X013923Y002638D02*
X012440Y002638D01*
X012440Y002028D01*
X012440Y002392D02*
X002187Y002392D01*
X002187Y004971D01*
X003937Y004971D01*
X003940Y005335D02*
X005423Y005335D01*
X005424Y004971D02*
X020939Y004971D01*
X020940Y005335D02*
X022423Y005335D01*
X022426Y004971D02*
X024176Y004971D01*
X024618Y006528D02*
X022519Y006528D01*
X022519Y006646D01*
X021937Y006646D01*
X021937Y006528D01*
X013923Y006528D01*
X012440Y006528D01*
X004519Y006528D01*
X004519Y006646D01*
X003937Y006646D01*
X003937Y006528D01*
X001744Y006528D01*
X001744Y009835D01*
X003940Y009835D01*
X003940Y009225D01*
X005423Y009225D01*
X005423Y009835D01*
X020940Y009835D01*
X020940Y009225D01*
X022423Y009225D01*
X022423Y009835D01*
X024618Y009835D01*
X024618Y006528D01*
X024176Y006892D02*
X013923Y006892D01*
X013923Y007138D02*
X012440Y007138D01*
X012440Y006528D01*
X012440Y006892D02*
X002187Y006892D01*
X002187Y009471D01*
X003937Y009471D01*
X003940Y009835D02*
X005423Y009835D01*
X005424Y009471D02*
X020939Y009471D01*
X020940Y009835D02*
X022423Y009835D01*
X022426Y009471D02*
X024176Y009471D01*
X024176Y006892D01*
X013923Y007138D02*
X013923Y006528D01*
X013923Y002638D02*
X013923Y002028D01*
M02*
