%
M48
M72
T01C0.0315
T02C0.0320
T03C0.0394
T04C0.1181
%
T01
X27762Y9472
X30715Y9472
X33668Y9472
X37605Y9472
T02
X37605Y6222
X34605Y6222
X33605Y6222
X31605Y6222
X33605Y3722
X34605Y3722
X37605Y3222
X34605Y1722
X33605Y1722
X31605Y3222
T03
X23105Y3222
X22105Y3222
X21105Y3222
X20105Y3222
X19105Y3222
X18105Y3222
X17105Y3222
X16105Y3222
X15105Y3222
X14105Y3222
X13105Y3222
X12105Y3222
X11105Y3222
X10105Y3222
X9105Y3222
X8105Y3222
X7105Y3222
X6105Y3222
X5105Y3222
X4105Y3222
X4105Y4222
X5105Y4222
X6105Y4222
X7105Y4222
X8105Y4222
X9105Y4222
X10105Y4222
X11105Y4222
X12105Y4222
X13105Y4222
X14105Y4222
X15105Y4222
X16105Y4222
X17105Y4222
X18105Y4222
X19105Y4222
X20105Y4222
X21105Y4222
X22105Y4222
X23105Y4222
X28855Y6972
X29855Y6972
X23105Y8222
X22105Y8222
X21105Y8222
X20105Y8222
X19105Y8222
X18105Y8222
X17105Y8222
X16105Y8222
X15105Y8222
X14105Y8222
X13105Y8222
X12105Y8222
X11105Y8222
X10105Y8222
X9105Y8222
X8105Y8222
X7105Y8222
X6105Y8222
X5105Y8222
X4105Y8222
X4105Y9222
X5105Y9222
X6105Y9222
X7105Y9222
X8105Y9222
X9105Y9222
X10105Y9222
X11105Y9222
X12105Y9222
X13105Y9222
X14105Y9222
X15105Y9222
X16105Y9222
X17105Y9222
X18105Y9222
X19105Y9222
X20105Y9222
X21105Y9222
X22105Y9222
X23105Y9222
T04
X1605Y1222
X1605Y11222
X38105Y11222
X38105Y1222
M30
