G75*
G70*
%OFA0B0*%
%FSLAX24Y24*%
%IPPOS*%
%LPD*%
%AMOC8*
5,1,8,0,0,1.08239X$1,22.5*
%
%ADD10C,0.1261*%
%ADD11C,0.0595*%
%ADD12C,0.0674*%
%ADD13C,0.0600*%
%ADD14OC8,0.0710*%
%ADD15C,0.0595*%
%ADD16OC8,0.0600*%
%ADD17C,0.0710*%
%ADD18R,0.0595X0.0595*%
%ADD19C,0.1025*%
%ADD20C,0.0434*%
%ADD21C,0.0730*%
%ADD22C,0.0680*%
%ADD23C,0.0640*%
%ADD24R,0.0476X0.0476*%
D10*
X002340Y001614D03*
X002340Y018937D03*
X039348Y018937D03*
X039348Y001614D03*
D11*
X034534Y002426D02*
X034534Y002941D01*
X033534Y002941D02*
X033534Y002426D01*
X032534Y002426D02*
X032534Y002941D01*
X031534Y002941D02*
X031534Y002426D01*
X030534Y002426D02*
X030534Y002941D01*
X029534Y002941D02*
X029534Y002426D01*
X028534Y002426D02*
X028534Y002941D01*
X027534Y002941D02*
X027534Y002426D01*
X026534Y002426D02*
X026534Y002941D01*
X025534Y002941D02*
X025534Y002426D01*
X025534Y005426D02*
X025534Y005941D01*
X026534Y005941D02*
X026534Y005426D01*
X027534Y005426D02*
X027534Y005941D01*
X028534Y005941D02*
X028534Y005426D01*
X029534Y005426D02*
X029534Y005941D01*
X030534Y005941D02*
X030534Y005426D01*
X031534Y005426D02*
X031534Y005941D01*
X032534Y005941D02*
X032534Y005426D01*
X033534Y005426D02*
X033534Y005941D01*
X034534Y005941D02*
X034534Y005426D01*
X034534Y008676D02*
X034534Y009191D01*
X033534Y009191D02*
X033534Y008676D01*
X032534Y008676D02*
X032534Y009191D01*
X031534Y009191D02*
X031534Y008676D01*
X030534Y008676D02*
X030534Y009191D01*
X029534Y009191D02*
X029534Y008676D01*
X028534Y008676D02*
X028534Y009191D01*
X027534Y009191D02*
X027534Y008676D01*
X026534Y008676D02*
X026534Y009191D01*
X025534Y009191D02*
X025534Y008676D01*
X025534Y011551D02*
X025534Y012066D01*
X026534Y012066D02*
X026534Y011551D01*
X027534Y011551D02*
X027534Y012066D01*
X028534Y012066D02*
X028534Y011551D01*
X029534Y011551D02*
X029534Y012066D01*
X030534Y012066D02*
X030534Y011551D01*
X031534Y011551D02*
X031534Y012066D01*
X032534Y012066D02*
X032534Y011551D01*
X033534Y011551D02*
X033534Y012066D01*
X034534Y012066D02*
X034534Y011551D01*
X034534Y014676D02*
X034534Y015191D01*
X033534Y015191D02*
X033534Y014676D01*
X032534Y014676D02*
X032534Y015191D01*
X031534Y015191D02*
X031534Y014676D01*
X030534Y014676D02*
X030534Y015191D01*
X029534Y015191D02*
X029534Y014676D01*
X028534Y014676D02*
X028534Y015191D01*
X027534Y015191D02*
X027534Y014676D01*
X026534Y014676D02*
X026534Y015191D01*
X025534Y015191D02*
X025534Y014676D01*
X026034Y017676D02*
X026034Y018191D01*
X027034Y018191D02*
X027034Y017676D01*
X028034Y017676D02*
X028034Y018191D01*
X029034Y018191D02*
X029034Y017676D01*
X030034Y017676D02*
X030034Y018191D01*
X031034Y018191D02*
X031034Y017676D01*
X032034Y017676D02*
X032034Y018191D01*
X033034Y018191D02*
X033034Y017676D01*
X034034Y017676D02*
X034034Y018191D01*
X035034Y018191D02*
X035034Y017676D01*
X012659Y009191D02*
X012659Y008676D01*
X011659Y008676D02*
X011659Y009191D01*
X010659Y009191D02*
X010659Y008676D01*
X009659Y008676D02*
X009659Y009191D01*
X008659Y009191D02*
X008659Y008676D01*
X007659Y008676D02*
X007659Y009191D01*
X006659Y009191D02*
X006659Y008676D01*
X005659Y008676D02*
X005659Y009191D01*
X004659Y009191D02*
X004659Y008676D01*
X003659Y008676D02*
X003659Y009191D01*
X003659Y004941D02*
X003659Y004426D01*
X004659Y004426D02*
X004659Y004941D01*
X005659Y004941D02*
X005659Y004426D01*
X006659Y004426D02*
X006659Y004941D01*
X007659Y004941D02*
X007659Y004426D01*
X008659Y004426D02*
X008659Y004941D01*
X009659Y004941D02*
X009659Y004426D01*
X010659Y004426D02*
X010659Y004941D01*
X011659Y004941D02*
X011659Y004426D01*
X012659Y004426D02*
X012659Y004941D01*
D12*
X006159Y002605D02*
X006159Y002012D01*
X005159Y002012D02*
X005159Y002605D01*
X004659Y006512D02*
X004659Y007105D01*
X003659Y007105D02*
X003659Y006512D01*
X021909Y002605D02*
X021909Y002012D01*
X022909Y002012D02*
X022909Y002605D01*
X036284Y002387D02*
X036284Y002980D01*
X037284Y002980D02*
X037284Y002387D01*
X037284Y005387D02*
X037284Y005980D01*
X036284Y005980D02*
X036284Y005387D01*
X036284Y008637D02*
X036284Y009230D01*
X037284Y009230D02*
X037284Y008637D01*
X037284Y011512D02*
X037284Y012105D01*
X036284Y012105D02*
X036284Y011512D01*
X036284Y014637D02*
X036284Y015230D01*
X037284Y015230D02*
X037284Y014637D01*
X036784Y017637D02*
X036784Y018230D01*
X037784Y018230D02*
X037784Y017637D01*
D13*
X019419Y017933D02*
X018899Y017933D01*
X018899Y016933D02*
X019419Y016933D01*
X019419Y015933D02*
X018899Y015933D01*
X018899Y014933D02*
X019419Y014933D01*
X019419Y013933D02*
X018899Y013933D01*
X018899Y012933D02*
X019419Y012933D01*
X019419Y011933D02*
X018899Y011933D01*
X018899Y010933D02*
X019419Y010933D01*
X019419Y009933D02*
X018899Y009933D01*
X018899Y008933D02*
X019419Y008933D01*
X019419Y007933D02*
X018899Y007933D01*
X018899Y006933D02*
X019419Y006933D01*
X019419Y005933D02*
X018899Y005933D01*
X016419Y005933D02*
X015899Y005933D01*
X015899Y006933D02*
X016419Y006933D01*
X016419Y007933D02*
X015899Y007933D01*
X015899Y008933D02*
X016419Y008933D01*
X016419Y009933D02*
X015899Y009933D01*
X015899Y010933D02*
X016419Y010933D01*
X016419Y011933D02*
X015899Y011933D01*
X015899Y012933D02*
X016419Y012933D01*
X016419Y013933D02*
X015899Y013933D01*
X015899Y014933D02*
X016419Y014933D01*
X016419Y015933D02*
X015899Y015933D01*
X015899Y016933D02*
X016419Y016933D01*
X016419Y017933D02*
X015899Y017933D01*
X015899Y018933D02*
X016419Y018933D01*
X018899Y018933D02*
X019419Y018933D01*
X010419Y019308D02*
X009899Y019308D01*
X009899Y018308D02*
X010419Y018308D01*
X007794Y018433D02*
X007274Y018433D01*
X007274Y019433D02*
X007794Y019433D01*
X011659Y002443D02*
X011659Y001923D01*
X012659Y001923D02*
X012659Y002443D01*
X015659Y001943D02*
X015659Y001423D01*
X016659Y001423D02*
X016659Y001943D01*
D14*
X017534Y004433D03*
X015159Y004433D03*
X017909Y009933D03*
X017909Y010933D03*
D15*
X014659Y010933D03*
X014659Y009933D03*
X014659Y011933D03*
D16*
X012659Y011433D03*
X011659Y011433D03*
X011659Y010433D03*
X012659Y010433D03*
X010409Y012558D03*
X009909Y012558D03*
X008659Y013183D03*
X008159Y013183D03*
X008159Y014183D03*
X008659Y014183D03*
X009909Y013558D03*
X010409Y013558D03*
X010409Y015058D03*
X009909Y015058D03*
X008659Y015933D03*
X008159Y015933D03*
X008159Y016933D03*
X008659Y016933D03*
X008284Y017558D03*
X009284Y017558D03*
X009909Y016058D03*
X010409Y016058D03*
X012659Y015808D03*
X013159Y015808D03*
X013159Y016808D03*
X012659Y016808D03*
X012659Y014558D03*
X013159Y014558D03*
X013159Y013558D03*
X012659Y013558D03*
X008409Y010808D03*
X007409Y010808D03*
X007784Y010183D03*
X008784Y010183D03*
X006659Y007933D03*
X005659Y007933D03*
X006659Y006433D03*
X007659Y006433D03*
X007659Y005683D03*
X006659Y005683D03*
X008159Y003183D03*
X009159Y003183D03*
X014159Y002933D03*
X014159Y001933D03*
X015659Y003433D03*
X016659Y003433D03*
X017659Y003058D03*
X017659Y002058D03*
X022534Y004183D03*
X023534Y004183D03*
X022409Y005433D03*
X021409Y005433D03*
X022909Y006183D03*
X023909Y006183D03*
X020909Y006933D03*
X019909Y006933D03*
X022659Y008183D03*
X023659Y008183D03*
X023659Y008933D03*
X024409Y008933D03*
X024409Y009933D03*
X023659Y009933D03*
X020909Y008933D03*
X019909Y008933D03*
X023659Y011808D03*
X024409Y011808D03*
X024409Y012808D03*
X023659Y012808D03*
X020909Y012433D03*
X019909Y012433D03*
X019909Y014558D03*
X020909Y014558D03*
X023659Y014808D03*
X024409Y014808D03*
X024409Y015808D03*
X023659Y015808D03*
X025534Y015933D03*
X025534Y016933D03*
X028534Y015933D03*
X029534Y015933D03*
X030534Y016808D03*
X031534Y016808D03*
X031909Y018933D03*
X030909Y018933D03*
X030034Y018933D03*
X029034Y018933D03*
X023284Y019683D03*
X022284Y019683D03*
X020909Y016433D03*
X019909Y016433D03*
X016284Y019683D03*
X015284Y019683D03*
X014534Y019683D03*
X013534Y019683D03*
X006034Y018683D03*
X005034Y018683D03*
X004034Y018433D03*
X004034Y019433D03*
X013409Y007683D03*
X012534Y007308D03*
X013409Y006683D03*
X012534Y006308D03*
X023784Y002308D03*
X023784Y001308D03*
X030534Y001683D03*
X031534Y001683D03*
X032284Y003683D03*
X033284Y003683D03*
X031534Y004683D03*
X030534Y004683D03*
X032284Y006808D03*
X033284Y006808D03*
X033284Y009933D03*
X032284Y009933D03*
X031534Y010808D03*
X030534Y010808D03*
X032284Y012808D03*
X033284Y012808D03*
X031534Y013933D03*
X030534Y013933D03*
D17*
X016534Y004433D03*
X014159Y004433D03*
D18*
X005659Y013437D03*
X004659Y013839D03*
X005659Y014240D03*
X004659Y014642D03*
X005659Y015044D03*
X004659Y015445D03*
X005659Y015847D03*
X004659Y016248D03*
D19*
X003754Y017431D03*
X003754Y012042D03*
D20*
X005659Y011746D03*
X005659Y017746D03*
D21*
X012034Y017859D02*
X012034Y018508D01*
X013034Y018508D02*
X013034Y017859D01*
X014034Y017859D02*
X014034Y018508D01*
X019459Y003683D02*
X020109Y003683D01*
X020109Y002683D02*
X019459Y002683D01*
X019459Y001683D02*
X020109Y001683D01*
D22*
X020534Y017883D02*
X020534Y018483D01*
X021534Y018483D02*
X021534Y017883D01*
X022534Y017883D02*
X022534Y018483D01*
X023534Y018483D02*
X023534Y017883D01*
X024534Y017883D02*
X024534Y018483D01*
D23*
X025159Y019153D02*
X025159Y019713D01*
X026159Y019713D02*
X026159Y019153D01*
X023784Y017088D02*
X023784Y016528D01*
X022784Y016528D02*
X022784Y017088D01*
D24*
X021534Y019933D03*
X018284Y011933D03*
X017159Y011933D03*
X008159Y011433D03*
X006659Y011433D03*
M02*
