G75*
G70*
%OFA0B0*%
%FSLAX24Y24*%
%IPPOS*%
%LPD*%
%AMOC8*
5,1,8,0,0,1.08239X$1,22.5*
%
%ADD10C,0.0515*%
%ADD11C,0.0594*%
%ADD12C,0.0520*%
%ADD13OC8,0.0630*%
%ADD14C,0.0515*%
%ADD15OC8,0.0520*%
%ADD16C,0.0630*%
%ADD17R,0.0515X0.0515*%
%ADD18C,0.0160*%
%ADD19C,0.0100*%
D10*
X006285Y002436D02*
X006285Y002951D01*
X007285Y002951D02*
X007285Y002436D01*
X008285Y002436D02*
X008285Y002951D01*
X009285Y002951D02*
X009285Y002436D01*
X010285Y002436D02*
X010285Y002951D01*
X011285Y002951D02*
X011285Y002436D01*
X012285Y002436D02*
X012285Y002951D01*
X013285Y002951D02*
X013285Y002436D01*
X014285Y002436D02*
X014285Y002951D01*
X015285Y002951D02*
X015285Y002436D01*
X015285Y005436D02*
X015285Y005951D01*
X014285Y005951D02*
X014285Y005436D01*
X013285Y005436D02*
X013285Y005951D01*
X012285Y005951D02*
X012285Y005436D01*
X011285Y005436D02*
X011285Y005951D01*
X010285Y005951D02*
X010285Y005436D01*
X009285Y005436D02*
X009285Y005951D01*
X008285Y005951D02*
X008285Y005436D01*
X007285Y005436D02*
X007285Y005951D01*
X006285Y005951D02*
X006285Y005436D01*
X006285Y008686D02*
X006285Y009201D01*
X007285Y009201D02*
X007285Y008686D01*
X008285Y008686D02*
X008285Y009201D01*
X009285Y009201D02*
X009285Y008686D01*
X010285Y008686D02*
X010285Y009201D01*
X011285Y009201D02*
X011285Y008686D01*
X012285Y008686D02*
X012285Y009201D01*
X013285Y009201D02*
X013285Y008686D01*
X014285Y008686D02*
X014285Y009201D01*
X015285Y009201D02*
X015285Y008686D01*
X015285Y011561D02*
X015285Y012076D01*
X014285Y012076D02*
X014285Y011561D01*
X013285Y011561D02*
X013285Y012076D01*
X012285Y012076D02*
X012285Y011561D01*
X011285Y011561D02*
X011285Y012076D01*
X010285Y012076D02*
X010285Y011561D01*
X009285Y011561D02*
X009285Y012076D01*
X008285Y012076D02*
X008285Y011561D01*
X007285Y011561D02*
X007285Y012076D01*
X006285Y012076D02*
X006285Y011561D01*
X006285Y014686D02*
X006285Y015201D01*
X007285Y015201D02*
X007285Y014686D01*
X008285Y014686D02*
X008285Y015201D01*
X009285Y015201D02*
X009285Y014686D01*
X010285Y014686D02*
X010285Y015201D01*
X011285Y015201D02*
X011285Y014686D01*
X012285Y014686D02*
X012285Y015201D01*
X013285Y015201D02*
X013285Y014686D01*
X014285Y014686D02*
X014285Y015201D01*
X015285Y015201D02*
X015285Y014686D01*
X015285Y017686D02*
X015285Y018201D01*
X014285Y018201D02*
X014285Y017686D01*
X013285Y017686D02*
X013285Y018201D01*
X012285Y018201D02*
X012285Y017686D01*
X011285Y017686D02*
X011285Y018201D01*
X010285Y018201D02*
X010285Y017686D01*
X009285Y017686D02*
X009285Y018201D01*
X008285Y018201D02*
X008285Y017686D01*
X007285Y017686D02*
X007285Y018201D01*
X006285Y018201D02*
X006285Y017686D01*
X028160Y009201D02*
X028160Y008686D01*
X029160Y008686D02*
X029160Y009201D01*
X030160Y009201D02*
X030160Y008686D01*
X031160Y008686D02*
X031160Y009201D01*
X032160Y009201D02*
X032160Y008686D01*
X033160Y008686D02*
X033160Y009201D01*
X034160Y009201D02*
X034160Y008686D01*
X035160Y008686D02*
X035160Y009201D01*
X036160Y009201D02*
X036160Y008686D01*
X037160Y008686D02*
X037160Y009201D01*
X037160Y004951D02*
X037160Y004436D01*
X036160Y004436D02*
X036160Y004951D01*
X035160Y004951D02*
X035160Y004436D01*
X034160Y004436D02*
X034160Y004951D01*
X033160Y004951D02*
X033160Y004436D01*
X032160Y004436D02*
X032160Y004951D01*
X031160Y004951D02*
X031160Y004436D01*
X030160Y004436D02*
X030160Y004951D01*
X029160Y004951D02*
X029160Y004436D01*
X028160Y004436D02*
X028160Y004951D01*
D11*
X003535Y002990D02*
X003535Y002397D01*
X004535Y002397D02*
X004535Y002990D01*
X004535Y005397D02*
X004535Y005990D01*
X003535Y005990D02*
X003535Y005397D01*
X003535Y008647D02*
X003535Y009240D01*
X004535Y009240D02*
X004535Y008647D01*
X004535Y011522D02*
X004535Y012115D01*
X003535Y012115D02*
X003535Y011522D01*
X003535Y014647D02*
X003535Y015240D01*
X004535Y015240D02*
X004535Y014647D01*
X004535Y017647D02*
X004535Y018240D01*
X003535Y018240D02*
X003535Y017647D01*
X020410Y004240D02*
X020410Y003647D01*
X021410Y003647D02*
X021410Y004240D01*
X034660Y002615D02*
X034660Y002022D01*
X035660Y002022D02*
X035660Y002615D01*
X036160Y006522D02*
X036160Y007115D01*
X037160Y007115D02*
X037160Y006522D01*
D12*
X026420Y002443D02*
X025900Y002443D01*
X025900Y001443D02*
X026420Y001443D01*
X023920Y001443D02*
X023400Y001443D01*
X023400Y002443D02*
X023920Y002443D01*
X024400Y005943D02*
X024920Y005943D01*
X024920Y006943D02*
X024400Y006943D01*
X024400Y007943D02*
X024920Y007943D01*
X024920Y008943D02*
X024400Y008943D01*
X024400Y009943D02*
X024920Y009943D01*
X024920Y010943D02*
X024400Y010943D01*
X024400Y011943D02*
X024920Y011943D01*
X024920Y012943D02*
X024400Y012943D01*
X024400Y013943D02*
X024920Y013943D01*
X024920Y014943D02*
X024400Y014943D01*
X024400Y015943D02*
X024920Y015943D01*
X024920Y016943D02*
X024400Y016943D01*
X024400Y017943D02*
X024920Y017943D01*
X024920Y018943D02*
X024400Y018943D01*
X021920Y018943D02*
X021400Y018943D01*
X021400Y017943D02*
X021920Y017943D01*
X021920Y016943D02*
X021400Y016943D01*
X021400Y015943D02*
X021920Y015943D01*
X021920Y014943D02*
X021400Y014943D01*
X021400Y013943D02*
X021920Y013943D01*
X021920Y012943D02*
X021400Y012943D01*
X021400Y011943D02*
X021920Y011943D01*
X021920Y010943D02*
X021400Y010943D01*
X021400Y009943D02*
X021920Y009943D01*
X021920Y008943D02*
X021400Y008943D01*
X021400Y007943D02*
X021920Y007943D01*
X021920Y006943D02*
X021400Y006943D01*
X021400Y005943D02*
X021920Y005943D01*
X027535Y018558D02*
X027535Y019078D01*
X028535Y019078D02*
X028535Y018558D01*
X031160Y018558D02*
X031160Y019078D01*
X032160Y019078D02*
X032160Y018558D01*
D13*
X022910Y010943D03*
X022910Y009943D03*
X023160Y004443D03*
X025660Y004443D03*
D14*
X026160Y009943D03*
X026160Y010943D03*
X026160Y011943D03*
D15*
X028160Y011443D03*
X029160Y011443D03*
X029160Y010443D03*
X028160Y010443D03*
X030410Y012568D03*
X030910Y012568D03*
X032160Y013193D03*
X032660Y013193D03*
X032660Y014193D03*
X032160Y014193D03*
X030910Y013568D03*
X030410Y013568D03*
X028160Y013568D03*
X027660Y013568D03*
X027660Y014568D03*
X028160Y014568D03*
X028160Y015943D03*
X027660Y015943D03*
X027660Y016943D03*
X028160Y016943D03*
X028535Y017693D03*
X027535Y017693D03*
X026160Y017943D03*
X026160Y018943D03*
X020910Y018943D03*
X019910Y018943D03*
X017160Y018818D03*
X016410Y018818D03*
X016410Y017818D03*
X017160Y017818D03*
X019910Y016943D03*
X020910Y016943D03*
X017160Y015943D03*
X016410Y015943D03*
X016410Y014943D03*
X017160Y014943D03*
X019910Y014568D03*
X020910Y014568D03*
X017160Y012818D03*
X016410Y012818D03*
X016410Y011818D03*
X017160Y011818D03*
X019910Y012443D03*
X020910Y012443D03*
X017160Y009943D03*
X016410Y009943D03*
X016410Y008943D03*
X017160Y008943D03*
X017160Y008193D03*
X018160Y008193D03*
X019910Y008943D03*
X020910Y008943D03*
X020910Y006943D03*
X019910Y006943D03*
X017910Y006193D03*
X016910Y006193D03*
X018410Y005443D03*
X019410Y005443D03*
X018285Y003693D03*
X017285Y003693D03*
X018285Y002818D03*
X019285Y002818D03*
X022160Y002443D03*
X022160Y001443D03*
X025160Y001443D03*
X025160Y002443D03*
X025160Y003443D03*
X024160Y003443D03*
X028285Y006318D03*
X027410Y006693D03*
X028285Y007318D03*
X027410Y007693D03*
X032035Y010193D03*
X033035Y010193D03*
X033410Y010818D03*
X032410Y010818D03*
X034160Y007943D03*
X035160Y007943D03*
X034160Y006443D03*
X033160Y006443D03*
X033160Y005693D03*
X034160Y005693D03*
X032660Y003193D03*
X031660Y003193D03*
X010285Y001693D03*
X009285Y001693D03*
X008535Y003693D03*
X007535Y003693D03*
X009285Y004693D03*
X010285Y004693D03*
X008535Y006818D03*
X007535Y006818D03*
X007535Y009943D03*
X008535Y009943D03*
X009285Y010818D03*
X010285Y010818D03*
X008535Y012818D03*
X007535Y012818D03*
X009285Y013943D03*
X010285Y013943D03*
X011285Y015943D03*
X012285Y015943D03*
X010285Y016818D03*
X009285Y016818D03*
X010785Y018943D03*
X011785Y018943D03*
X030410Y016068D03*
X030910Y016068D03*
X032160Y015943D03*
X032660Y015943D03*
X032660Y016943D03*
X032160Y016943D03*
X032285Y017693D03*
X033285Y017943D03*
X033285Y018943D03*
X031285Y017693D03*
X030910Y015068D03*
X030410Y015068D03*
D16*
X026660Y004443D03*
X024160Y004443D03*
D17*
X036160Y013447D03*
X035160Y013849D03*
X036160Y014251D03*
X035160Y014652D03*
X036160Y015054D03*
X035160Y015455D03*
X036160Y015857D03*
X035160Y016258D03*
D18*
X019910Y012443D02*
X019910Y008943D01*
X019910Y006943D01*
X009285Y005693D02*
X009285Y002693D01*
X009285Y005693D02*
X009285Y008943D01*
X009285Y011818D01*
X009285Y014943D01*
D19*
X009285Y017943D01*
X019910Y016943D02*
X019910Y014568D01*
X019910Y012443D01*
X021660Y010943D02*
X022910Y010943D01*
X019910Y016943D02*
X019910Y018943D01*
M02*
