G75*
G70*
%OFA0B0*%
%FSLAX24Y24*%
%IPPOS*%
%LPD*%
%AMOC8*
5,1,8,0,0,1.08239X$1,22.5*
%
%ADD10C,0.0515*%
%ADD11C,0.0594*%
%ADD12C,0.0520*%
%ADD13OC8,0.0630*%
%ADD14C,0.0515*%
%ADD15OC8,0.0520*%
%ADD16C,0.0630*%
%ADD17R,0.0515X0.0515*%
%ADD18C,0.0650*%
%ADD19C,0.0600*%
%ADD20C,0.0100*%
%ADD21R,0.0396X0.0396*%
%ADD22C,0.0240*%
%ADD23C,0.0120*%
%ADD24C,0.0200*%
%ADD25C,0.0079*%
D10*
X003659Y004426D02*
X003659Y004941D01*
X004659Y004941D02*
X004659Y004426D01*
X005659Y004426D02*
X005659Y004941D01*
X006659Y004941D02*
X006659Y004426D01*
X007659Y004426D02*
X007659Y004941D01*
X008659Y004941D02*
X008659Y004426D01*
X009659Y004426D02*
X009659Y004941D01*
X010659Y004941D02*
X010659Y004426D01*
X011659Y004426D02*
X011659Y004941D01*
X012659Y004941D02*
X012659Y004426D01*
X012659Y008676D02*
X012659Y009191D01*
X011659Y009191D02*
X011659Y008676D01*
X010659Y008676D02*
X010659Y009191D01*
X009659Y009191D02*
X009659Y008676D01*
X008659Y008676D02*
X008659Y009191D01*
X007659Y009191D02*
X007659Y008676D01*
X006659Y008676D02*
X006659Y009191D01*
X005659Y009191D02*
X005659Y008676D01*
X004659Y008676D02*
X004659Y009191D01*
X003659Y009191D02*
X003659Y008676D01*
X025534Y008676D02*
X025534Y009191D01*
X026534Y009191D02*
X026534Y008676D01*
X027534Y008676D02*
X027534Y009191D01*
X028534Y009191D02*
X028534Y008676D01*
X029534Y008676D02*
X029534Y009191D01*
X030534Y009191D02*
X030534Y008676D01*
X031534Y008676D02*
X031534Y009191D01*
X032534Y009191D02*
X032534Y008676D01*
X033534Y008676D02*
X033534Y009191D01*
X034534Y009191D02*
X034534Y008676D01*
X034534Y005941D02*
X034534Y005426D01*
X033534Y005426D02*
X033534Y005941D01*
X032534Y005941D02*
X032534Y005426D01*
X031534Y005426D02*
X031534Y005941D01*
X030534Y005941D02*
X030534Y005426D01*
X029534Y005426D02*
X029534Y005941D01*
X028534Y005941D02*
X028534Y005426D01*
X027534Y005426D02*
X027534Y005941D01*
X026534Y005941D02*
X026534Y005426D01*
X025534Y005426D02*
X025534Y005941D01*
X025534Y002941D02*
X025534Y002426D01*
X026534Y002426D02*
X026534Y002941D01*
X027534Y002941D02*
X027534Y002426D01*
X028534Y002426D02*
X028534Y002941D01*
X029534Y002941D02*
X029534Y002426D01*
X030534Y002426D02*
X030534Y002941D01*
X031534Y002941D02*
X031534Y002426D01*
X032534Y002426D02*
X032534Y002941D01*
X033534Y002941D02*
X033534Y002426D01*
X034534Y002426D02*
X034534Y002941D01*
X034534Y011551D02*
X034534Y012066D01*
X033534Y012066D02*
X033534Y011551D01*
X032534Y011551D02*
X032534Y012066D01*
X031534Y012066D02*
X031534Y011551D01*
X030534Y011551D02*
X030534Y012066D01*
X029534Y012066D02*
X029534Y011551D01*
X028534Y011551D02*
X028534Y012066D01*
X027534Y012066D02*
X027534Y011551D01*
X026534Y011551D02*
X026534Y012066D01*
X025534Y012066D02*
X025534Y011551D01*
X025534Y014676D02*
X025534Y015191D01*
X026534Y015191D02*
X026534Y014676D01*
X027534Y014676D02*
X027534Y015191D01*
X028534Y015191D02*
X028534Y014676D01*
X029534Y014676D02*
X029534Y015191D01*
X030534Y015191D02*
X030534Y014676D01*
X031534Y014676D02*
X031534Y015191D01*
X032534Y015191D02*
X032534Y014676D01*
X033534Y014676D02*
X033534Y015191D01*
X034534Y015191D02*
X034534Y014676D01*
X034034Y017676D02*
X034034Y018191D01*
X035034Y018191D02*
X035034Y017676D01*
X033034Y017676D02*
X033034Y018191D01*
X032034Y018191D02*
X032034Y017676D01*
X031034Y017676D02*
X031034Y018191D01*
X030034Y018191D02*
X030034Y017676D01*
X029034Y017676D02*
X029034Y018191D01*
X028034Y018191D02*
X028034Y017676D01*
X027034Y017676D02*
X027034Y018191D01*
X026034Y018191D02*
X026034Y017676D01*
D11*
X036284Y015230D02*
X036284Y014637D01*
X037284Y014637D02*
X037284Y015230D01*
X036784Y017637D02*
X036784Y018230D01*
X037784Y018230D02*
X037784Y017637D01*
X037284Y012105D02*
X037284Y011512D01*
X036284Y011512D02*
X036284Y012105D01*
X036284Y009230D02*
X036284Y008637D01*
X037284Y008637D02*
X037284Y009230D01*
X037284Y005980D02*
X037284Y005387D01*
X036284Y005387D02*
X036284Y005980D01*
X036284Y002980D02*
X036284Y002387D01*
X037284Y002387D02*
X037284Y002980D01*
X022909Y002605D02*
X022909Y002012D01*
X021909Y002012D02*
X021909Y002605D01*
X006159Y002605D02*
X006159Y002012D01*
X005159Y002012D02*
X005159Y002605D01*
X004659Y006512D02*
X004659Y007105D01*
X003659Y007105D02*
X003659Y006512D01*
D12*
X012159Y002443D02*
X012159Y001923D01*
X013159Y001923D02*
X013159Y002443D01*
X016159Y002193D02*
X016159Y001673D01*
X017159Y001673D02*
X017159Y002193D01*
X016419Y005933D02*
X015899Y005933D01*
X015899Y006933D02*
X016419Y006933D01*
X016419Y007933D02*
X015899Y007933D01*
X015899Y008933D02*
X016419Y008933D01*
X016419Y009933D02*
X015899Y009933D01*
X015899Y010933D02*
X016419Y010933D01*
X016419Y011933D02*
X015899Y011933D01*
X015899Y012933D02*
X016419Y012933D01*
X016419Y013933D02*
X015899Y013933D01*
X015899Y014933D02*
X016419Y014933D01*
X016419Y015933D02*
X015899Y015933D01*
X015899Y016933D02*
X016419Y016933D01*
X016419Y017933D02*
X015899Y017933D01*
X015899Y018933D02*
X016419Y018933D01*
X018899Y018933D02*
X019419Y018933D01*
X019419Y017933D02*
X018899Y017933D01*
X018899Y016933D02*
X019419Y016933D01*
X019419Y015933D02*
X018899Y015933D01*
X018899Y014933D02*
X019419Y014933D01*
X019419Y013933D02*
X018899Y013933D01*
X018899Y012933D02*
X019419Y012933D01*
X019419Y011933D02*
X018899Y011933D01*
X018899Y010933D02*
X019419Y010933D01*
X019419Y009933D02*
X018899Y009933D01*
X018899Y008933D02*
X019419Y008933D01*
X019419Y007933D02*
X018899Y007933D01*
X018899Y006933D02*
X019419Y006933D01*
X019419Y005933D02*
X018899Y005933D01*
X011294Y017933D02*
X010774Y017933D01*
X010774Y018933D02*
X011294Y018933D01*
X009294Y018933D02*
X008774Y018933D01*
X008774Y017933D02*
X009294Y017933D01*
D13*
X017909Y010933D03*
X017909Y009933D03*
X017659Y004433D03*
X015159Y004433D03*
D14*
X014659Y009933D03*
X014659Y010933D03*
X014659Y011933D03*
D15*
X012659Y011433D03*
X011659Y011433D03*
X011659Y010433D03*
X012659Y010433D03*
X010409Y012558D03*
X009909Y012558D03*
X008659Y013183D03*
X008159Y013183D03*
X008159Y014183D03*
X008659Y014183D03*
X009909Y013558D03*
X010409Y013558D03*
X010409Y015058D03*
X009909Y015058D03*
X008659Y015933D03*
X008159Y015933D03*
X008159Y016933D03*
X008659Y016933D03*
X009909Y016058D03*
X010409Y016058D03*
X012659Y015808D03*
X013159Y015808D03*
X013159Y016808D03*
X012659Y016808D03*
X010034Y018058D03*
X010034Y019058D03*
X007909Y019058D03*
X006534Y018933D03*
X006534Y017933D03*
X007909Y018058D03*
X013534Y019433D03*
X014534Y019433D03*
X015284Y019433D03*
X016284Y019433D03*
X019909Y018933D03*
X020909Y018933D03*
X022659Y017058D03*
X023659Y017058D03*
X023659Y015933D03*
X024409Y015933D03*
X024409Y014933D03*
X023659Y014933D03*
X020909Y014558D03*
X019909Y014558D03*
X019909Y016433D03*
X020909Y016433D03*
X024159Y019308D03*
X025159Y019308D03*
X029034Y018933D03*
X030034Y018933D03*
X030534Y016808D03*
X031534Y016808D03*
X029534Y015933D03*
X028534Y015933D03*
X030534Y013933D03*
X031534Y013933D03*
X032284Y012808D03*
X033284Y012808D03*
X031534Y010808D03*
X030534Y010808D03*
X032284Y009933D03*
X033284Y009933D03*
X033284Y006808D03*
X032284Y006808D03*
X031534Y004683D03*
X030534Y004683D03*
X032284Y003683D03*
X033284Y003683D03*
X031534Y001683D03*
X030534Y001683D03*
X023784Y001308D03*
X023784Y002308D03*
X023534Y004183D03*
X022534Y004183D03*
X022409Y005433D03*
X021409Y005433D03*
X022909Y006183D03*
X023909Y006183D03*
X020909Y006933D03*
X019909Y006933D03*
X022659Y008183D03*
X023659Y008183D03*
X023659Y008933D03*
X024409Y008933D03*
X024409Y009933D03*
X023659Y009933D03*
X020909Y008933D03*
X019909Y008933D03*
X023659Y011808D03*
X024409Y011808D03*
X024409Y012808D03*
X023659Y012808D03*
X020909Y012433D03*
X019909Y012433D03*
X013159Y013558D03*
X012659Y013558D03*
X012659Y014558D03*
X013159Y014558D03*
X008409Y010808D03*
X008784Y010183D03*
X007784Y010183D03*
X007409Y010808D03*
X006659Y007933D03*
X005659Y007933D03*
X006659Y006433D03*
X007659Y006433D03*
X007659Y005683D03*
X006659Y005683D03*
X008159Y003183D03*
X009159Y003183D03*
X012534Y006308D03*
X013409Y006683D03*
X012534Y007308D03*
X013409Y007683D03*
X015659Y003433D03*
X016659Y003433D03*
X018159Y002433D03*
X018159Y001433D03*
X014659Y001933D03*
X014659Y002933D03*
D16*
X014159Y004433D03*
X016659Y004433D03*
D17*
X005659Y013437D03*
X004659Y013839D03*
X005659Y014240D03*
X004659Y014642D03*
X005659Y015044D03*
X004659Y015445D03*
X005659Y015847D03*
X004659Y016248D03*
D18*
X012534Y017859D02*
X012534Y018508D01*
X013534Y018508D02*
X013534Y017859D01*
X014534Y017859D02*
X014534Y018508D01*
X019959Y003558D02*
X020609Y003558D01*
X020609Y002558D02*
X019959Y002558D01*
X019959Y001558D02*
X020609Y001558D01*
D19*
X020534Y017883D02*
X020534Y018483D01*
X021534Y018483D02*
X021534Y017883D01*
X022534Y017883D02*
X022534Y018483D01*
X023534Y018483D02*
X023534Y017883D01*
X024534Y017883D02*
X024534Y018483D01*
D20*
X001409Y019868D02*
X001409Y000683D01*
X016685Y000683D01*
X016155Y001213D01*
X016068Y001213D01*
X015943Y001265D01*
X015590Y000912D01*
X015473Y000863D01*
X015345Y000863D01*
X009245Y000863D01*
X009197Y000883D01*
X004919Y000883D01*
X004799Y000883D01*
X004689Y000929D01*
X002689Y002929D01*
X002605Y003013D01*
X002559Y003124D01*
X002559Y005743D01*
X002559Y009543D01*
X002605Y009653D01*
X002689Y009738D01*
X003189Y010238D01*
X003299Y010283D01*
X003419Y010283D01*
X005769Y010283D01*
X005879Y010238D01*
X005963Y010153D01*
X006009Y010043D01*
X006009Y009924D01*
X006009Y009488D01*
X006047Y009450D01*
X006116Y009282D01*
X006116Y008585D01*
X006047Y008417D01*
X005959Y008329D01*
X005959Y008284D01*
X006119Y008124D01*
X006119Y007743D01*
X005850Y007473D01*
X005469Y007473D01*
X005199Y007743D01*
X005199Y008124D01*
X005359Y008284D01*
X005359Y008329D01*
X005271Y008417D01*
X005202Y008585D01*
X005202Y009282D01*
X005271Y009450D01*
X005400Y009579D01*
X005409Y009582D01*
X005409Y009683D01*
X003483Y009683D01*
X003159Y009359D01*
X003159Y005983D01*
X004949Y005983D01*
X005069Y005983D01*
X005179Y005938D01*
X005718Y005398D01*
X005750Y005398D01*
X005918Y005329D01*
X006047Y005200D01*
X006116Y005032D01*
X006116Y004335D01*
X006087Y004265D01*
X006747Y003683D01*
X007346Y003683D01*
X007346Y003683D01*
X007309Y003683D01*
X007297Y003689D01*
X007283Y003690D01*
X007251Y003708D01*
X007217Y003721D01*
X007208Y003731D01*
X006763Y003974D01*
X006750Y003968D01*
X006568Y003968D01*
X006400Y004038D01*
X006271Y004167D01*
X006202Y004335D01*
X006202Y005032D01*
X006271Y005200D01*
X006382Y005310D01*
X006199Y005493D01*
X006199Y005874D01*
X006384Y006058D01*
X006199Y006243D01*
X006199Y006567D01*
X006098Y006546D01*
X006069Y006533D01*
X006040Y006533D01*
X006012Y006528D01*
X005981Y006533D01*
X005156Y006533D01*
X005156Y006413D01*
X005080Y006230D01*
X004940Y006090D01*
X004758Y006015D01*
X004560Y006015D01*
X004378Y006090D01*
X004238Y006230D01*
X004162Y006413D01*
X004162Y007204D01*
X004238Y007387D01*
X004378Y007526D01*
X004560Y007602D01*
X004758Y007602D01*
X004940Y007526D01*
X005080Y007387D01*
X005156Y007204D01*
X005156Y007133D01*
X005978Y007133D01*
X007820Y007521D01*
X007849Y007533D01*
X007878Y007533D01*
X007906Y007539D01*
X007937Y007533D01*
X010135Y007533D01*
X010869Y008268D01*
X010750Y008218D01*
X010568Y008218D01*
X010400Y008288D01*
X010271Y008417D01*
X010202Y008585D01*
X010202Y009282D01*
X010271Y009450D01*
X010400Y009579D01*
X010568Y009648D01*
X010750Y009648D01*
X010918Y009579D01*
X011047Y009450D01*
X011116Y009282D01*
X011116Y008585D01*
X011067Y008466D01*
X011202Y008600D01*
X011202Y009282D01*
X011271Y009450D01*
X011400Y009579D01*
X011568Y009648D01*
X011750Y009648D01*
X011918Y009579D01*
X012047Y009450D01*
X012116Y009282D01*
X012116Y008585D01*
X012047Y008417D01*
X011918Y008288D01*
X011750Y008218D01*
X011668Y008218D01*
X015271Y008218D01*
X015369Y008120D02*
X011570Y008120D01*
X011668Y008218D02*
X010533Y007083D01*
X012179Y007083D01*
X012124Y007139D01*
X012124Y007278D01*
X012504Y007278D01*
X012504Y007338D01*
X012124Y007338D01*
X012124Y007478D01*
X012364Y007718D01*
X012504Y007718D01*
X012504Y007339D01*
X012564Y007339D01*
X012564Y007718D01*
X012704Y007718D01*
X012944Y007478D01*
X012944Y007338D01*
X012564Y007338D01*
X012564Y007278D01*
X012944Y007278D01*
X012944Y007139D01*
X012889Y007083D01*
X013159Y007083D01*
X013219Y007143D01*
X013566Y007143D01*
X013567Y007145D01*
X013659Y007183D01*
X015505Y007183D01*
X015509Y007194D01*
X015638Y007323D01*
X015808Y007393D01*
X016511Y007393D01*
X016680Y007323D01*
X016809Y007194D01*
X016879Y007025D01*
X016879Y006842D01*
X016809Y006673D01*
X016680Y006543D01*
X016511Y006473D01*
X015808Y006473D01*
X015638Y006543D01*
X015509Y006673D01*
X015505Y006683D01*
X013869Y006683D01*
X013869Y006493D01*
X013659Y006283D01*
X015599Y006283D01*
X015638Y006323D01*
X015808Y006393D01*
X016511Y006393D01*
X016680Y006323D01*
X016809Y006194D01*
X016879Y006025D01*
X016879Y005957D01*
X016909Y005987D01*
X016909Y010834D01*
X016909Y010933D01*
X016947Y011025D01*
X017017Y011095D01*
X017109Y011133D01*
X017394Y011133D01*
X017394Y011147D01*
X017609Y011362D01*
X017609Y012283D01*
X016813Y012283D01*
X016751Y012221D01*
X016722Y012210D01*
X016732Y012200D01*
X016770Y012148D01*
X016799Y012091D01*
X016819Y012029D01*
X016829Y011966D01*
X016829Y011963D01*
X016189Y011963D01*
X017609Y011963D01*
X017609Y012061D02*
X016809Y012061D01*
X016761Y012160D02*
X017609Y012160D01*
X017609Y012259D02*
X016788Y012259D01*
X016609Y012433D02*
X016709Y012533D01*
X017859Y012533D01*
X017859Y013183D01*
X017084Y013958D01*
X017109Y013983D01*
X017159Y013983D01*
X017159Y015883D01*
X017084Y015958D01*
X017109Y015983D01*
X017159Y015983D01*
X017159Y017883D01*
X016609Y018433D01*
X014809Y018433D01*
X014559Y018183D01*
X014534Y018183D01*
X014509Y018183D01*
X014509Y017733D01*
X013859Y017083D01*
X013409Y017083D01*
X013159Y016833D01*
X013159Y016808D01*
X012659Y016808D01*
X012659Y016833D01*
X012609Y016833D01*
X012409Y017033D01*
X009309Y017033D01*
X009034Y017308D01*
X008659Y016933D01*
X008159Y016933D01*
X009034Y017308D02*
X009109Y017383D01*
X009109Y017933D01*
X009034Y017933D01*
X008559Y017933D01*
X008509Y017883D01*
X008059Y017883D01*
X007909Y018033D01*
X007909Y018058D01*
X008248Y018370D02*
X008251Y018371D01*
X008468Y018589D01*
X008513Y018543D01*
X008683Y018473D01*
X009386Y018473D01*
X009555Y018543D01*
X009684Y018673D01*
X009709Y018733D01*
X009844Y018598D01*
X010225Y018598D01*
X010359Y018733D01*
X010384Y018673D01*
X010513Y018543D01*
X010683Y018473D01*
X011386Y018473D01*
X011555Y018543D01*
X011684Y018673D01*
X011754Y018842D01*
X011754Y019025D01*
X011684Y019194D01*
X011555Y019323D01*
X011386Y019393D01*
X010683Y019393D01*
X010513Y019323D01*
X010467Y019276D01*
X010225Y019518D01*
X009844Y019518D01*
X009602Y019276D01*
X009555Y019323D01*
X009386Y019393D01*
X008683Y019393D01*
X008513Y019323D01*
X008384Y019194D01*
X008369Y019157D01*
X008369Y019249D01*
X008100Y019518D01*
X007828Y019518D01*
X007621Y019725D01*
X007551Y019795D01*
X007459Y019833D01*
X006209Y019833D01*
X006109Y019833D01*
X006017Y019795D01*
X005667Y019445D01*
X005597Y019375D01*
X005559Y019283D01*
X005559Y018483D01*
X005559Y018384D01*
X005597Y018292D01*
X005667Y018221D01*
X005759Y018183D01*
X005856Y018183D01*
X006074Y017965D01*
X006074Y017861D01*
X006021Y017988D01*
X005901Y018108D01*
X005744Y018174D01*
X005574Y018174D01*
X005417Y018108D01*
X005297Y017988D01*
X005232Y017831D01*
X005232Y017661D01*
X005297Y017504D01*
X005417Y017384D01*
X005574Y017319D01*
X005744Y017319D01*
X005901Y017384D01*
X006021Y017504D01*
X006086Y017661D01*
X006086Y017731D01*
X006170Y017647D01*
X005806Y017283D01*
X005359Y017283D01*
X005267Y017245D01*
X005197Y017175D01*
X004728Y016706D01*
X004319Y016706D01*
X004202Y016589D01*
X004202Y015908D01*
X004263Y015847D01*
X004202Y015786D01*
X004202Y015105D01*
X004263Y015044D01*
X004202Y014982D01*
X004202Y014302D01*
X004263Y014240D01*
X004202Y014179D01*
X004202Y013499D01*
X004319Y013381D01*
X004999Y013381D01*
X005116Y013499D01*
X005116Y013600D01*
X005252Y013600D01*
X005252Y013466D01*
X005630Y013466D01*
X005630Y013409D01*
X005252Y013409D01*
X005252Y013160D01*
X005262Y013122D01*
X005282Y013088D01*
X005309Y013060D01*
X005344Y013040D01*
X005382Y013030D01*
X005630Y013030D01*
X005630Y013408D01*
X005688Y013408D01*
X005688Y013030D01*
X005936Y013030D01*
X005974Y013040D01*
X006009Y013060D01*
X006037Y013088D01*
X006056Y013122D01*
X006066Y013160D01*
X006066Y013409D01*
X005688Y013409D01*
X005688Y013466D01*
X006066Y013466D01*
X006066Y013572D01*
X006247Y013392D01*
X006247Y013392D01*
X006317Y013321D01*
X006409Y013283D01*
X007409Y013283D01*
X007509Y013283D01*
X007601Y013321D01*
X007713Y013433D01*
X007759Y013433D01*
X007699Y013374D01*
X007699Y013077D01*
X007317Y012695D01*
X007247Y012625D01*
X007209Y012533D01*
X007209Y011259D01*
X006949Y010999D01*
X006949Y010618D01*
X007219Y010348D01*
X007324Y010348D01*
X007324Y010252D01*
X006720Y009648D01*
X006568Y009648D01*
X006400Y009579D01*
X006271Y009450D01*
X006202Y009282D01*
X006202Y008585D01*
X006271Y008417D01*
X006382Y008306D01*
X006199Y008124D01*
X006199Y007743D01*
X006469Y007473D01*
X006850Y007473D01*
X007119Y007743D01*
X007119Y007783D01*
X008335Y007783D01*
X008359Y007779D01*
X008384Y007783D01*
X008409Y007783D01*
X008432Y007793D01*
X008457Y007798D01*
X008478Y007812D01*
X008501Y007821D01*
X008518Y007839D01*
X008539Y007853D01*
X008553Y007874D01*
X008571Y007892D01*
X008581Y007915D01*
X008593Y007933D01*
X009063Y007933D01*
X009091Y007929D01*
X009112Y007933D01*
X009134Y007933D01*
X009160Y007944D01*
X009188Y007950D01*
X009206Y007963D01*
X009226Y007971D01*
X009246Y007991D01*
X009568Y008219D01*
X009568Y008218D02*
X009750Y008218D01*
X009918Y008288D01*
X010047Y008417D01*
X010116Y008585D01*
X010116Y009282D01*
X010047Y009450D01*
X009918Y009579D01*
X009750Y009648D01*
X009568Y009648D01*
X009400Y009579D01*
X009271Y009450D01*
X009202Y009282D01*
X009202Y008585D01*
X009206Y008575D01*
X009074Y008482D01*
X009116Y008585D01*
X009116Y009282D01*
X009047Y009450D01*
X008918Y009579D01*
X008909Y009582D01*
X008909Y009723D01*
X008916Y009723D01*
X008917Y009721D01*
X009009Y009683D01*
X012159Y009683D01*
X012259Y009683D01*
X012351Y009721D01*
X012603Y009973D01*
X012850Y009973D01*
X012933Y010056D01*
X014317Y008671D01*
X014409Y008633D01*
X014509Y008633D01*
X014856Y008633D01*
X015446Y008043D01*
X015439Y008025D01*
X015439Y007842D01*
X015509Y007673D01*
X015638Y007543D01*
X015808Y007473D01*
X016511Y007473D01*
X016680Y007543D01*
X016809Y007673D01*
X016879Y007842D01*
X016879Y008025D01*
X016809Y008194D01*
X016680Y008323D01*
X016511Y008393D01*
X015808Y008393D01*
X015804Y008392D01*
X015662Y008534D01*
X015808Y008473D01*
X016511Y008473D01*
X016680Y008543D01*
X016809Y008673D01*
X016879Y008842D01*
X016879Y009025D01*
X016809Y009194D01*
X016680Y009323D01*
X016511Y009393D01*
X015808Y009393D01*
X015783Y009383D01*
X014763Y009383D01*
X014670Y009476D01*
X014750Y009476D01*
X014918Y009546D01*
X015047Y009674D01*
X015051Y009683D01*
X015505Y009683D01*
X015509Y009673D01*
X015638Y009543D01*
X015808Y009473D01*
X016511Y009473D01*
X016680Y009543D01*
X016809Y009673D01*
X016879Y009842D01*
X016879Y010025D01*
X016809Y010194D01*
X016680Y010323D01*
X016511Y010393D01*
X015808Y010393D01*
X015638Y010323D01*
X015509Y010194D01*
X015505Y010183D01*
X015051Y010183D01*
X015047Y010193D01*
X014918Y010321D01*
X014750Y010391D01*
X014568Y010391D01*
X014400Y010321D01*
X014271Y010193D01*
X014202Y010024D01*
X014202Y009944D01*
X013071Y011075D01*
X013001Y011145D01*
X012965Y011160D01*
X013069Y011264D01*
X013069Y011403D01*
X012689Y011403D01*
X012689Y011463D01*
X013069Y011463D01*
X013069Y011603D01*
X012829Y011843D01*
X012689Y011843D01*
X012689Y011464D01*
X012629Y011464D01*
X012629Y011843D01*
X012489Y011843D01*
X012249Y011603D01*
X012249Y011463D01*
X012629Y011463D01*
X012629Y011403D01*
X012249Y011403D01*
X012249Y011264D01*
X012353Y011160D01*
X012317Y011145D01*
X011958Y010785D01*
X011850Y010893D01*
X011469Y010893D01*
X011309Y010733D01*
X011113Y010733D01*
X010951Y010895D01*
X010859Y010933D01*
X010759Y010933D01*
X008869Y010933D01*
X008869Y010999D01*
X008600Y011268D01*
X008219Y011268D01*
X007949Y010999D01*
X007949Y010643D01*
X007869Y010643D01*
X007869Y010999D01*
X007709Y011159D01*
X007709Y012380D01*
X008053Y012723D01*
X008350Y012723D01*
X008409Y012783D01*
X008469Y012723D01*
X008850Y012723D01*
X008860Y012733D01*
X008959Y012733D01*
X009406Y012733D01*
X009449Y012690D01*
X009449Y012368D01*
X009719Y012098D01*
X010100Y012098D01*
X010159Y012158D01*
X010219Y012098D01*
X010523Y012098D01*
X010559Y012083D01*
X013959Y012083D01*
X014059Y012083D01*
X014151Y012121D01*
X014213Y012183D01*
X014267Y012183D01*
X014202Y012024D01*
X014202Y011842D01*
X014271Y011674D01*
X014400Y011546D01*
X014568Y011476D01*
X014750Y011476D01*
X014759Y011480D01*
X015347Y010892D01*
X015417Y010821D01*
X015454Y010806D01*
X015509Y010673D01*
X015638Y010543D01*
X015808Y010473D01*
X016511Y010473D01*
X016680Y010543D01*
X016809Y010673D01*
X016879Y010842D01*
X016879Y011025D01*
X016809Y011194D01*
X016680Y011323D01*
X016511Y011393D01*
X015808Y011393D01*
X015638Y011323D01*
X015631Y011315D01*
X015113Y011833D01*
X015116Y011842D01*
X015116Y012024D01*
X015051Y012183D01*
X015574Y012183D01*
X015548Y012148D01*
X015519Y012091D01*
X015499Y012029D01*
X015489Y011966D01*
X015489Y011963D01*
X016129Y011963D01*
X015116Y011963D01*
X015116Y011864D02*
X015495Y011864D01*
X015499Y011837D02*
X015519Y011776D01*
X015548Y011718D01*
X015586Y011666D01*
X015632Y011621D01*
X015684Y011583D01*
X015742Y011553D01*
X015803Y011533D01*
X015867Y011523D01*
X016129Y011523D01*
X016129Y011903D01*
X016189Y011903D01*
X016189Y011523D01*
X016451Y011523D01*
X016515Y011533D01*
X016576Y011553D01*
X016634Y011583D01*
X016686Y011621D01*
X016732Y011666D01*
X016770Y011718D01*
X016799Y011776D01*
X016819Y011837D01*
X016829Y011901D01*
X016829Y011903D01*
X016189Y011903D01*
X016189Y011963D01*
X016129Y011963D02*
X016129Y011903D01*
X015489Y011903D01*
X015489Y011901D01*
X015499Y011837D01*
X015524Y011766D02*
X015180Y011766D01*
X015279Y011667D02*
X015586Y011667D01*
X015711Y011569D02*
X015377Y011569D01*
X015476Y011470D02*
X017609Y011470D01*
X017609Y011372D02*
X016563Y011372D01*
X016730Y011273D02*
X017521Y011273D01*
X017422Y011175D02*
X016817Y011175D01*
X016858Y011076D02*
X016998Y011076D01*
X016927Y010978D02*
X016879Y010978D01*
X016879Y010879D02*
X016909Y010879D01*
X016909Y010780D02*
X016854Y010780D01*
X016813Y010682D02*
X016909Y010682D01*
X016909Y010583D02*
X016720Y010583D01*
X016538Y010485D02*
X016909Y010485D01*
X016909Y010386D02*
X016528Y010386D01*
X016715Y010288D02*
X016909Y010288D01*
X016909Y010189D02*
X016811Y010189D01*
X016852Y010091D02*
X016909Y010091D01*
X016909Y009992D02*
X016879Y009992D01*
X016879Y009894D02*
X016909Y009894D01*
X016909Y009795D02*
X016860Y009795D01*
X016819Y009696D02*
X016909Y009696D01*
X016909Y009598D02*
X016734Y009598D01*
X016573Y009499D02*
X016909Y009499D01*
X016909Y009401D02*
X014745Y009401D01*
X014807Y009499D02*
X015745Y009499D01*
X015584Y009598D02*
X014971Y009598D01*
X014659Y009933D02*
X016159Y009933D01*
X015603Y010288D02*
X014952Y010288D01*
X015048Y010189D02*
X015507Y010189D01*
X015790Y010386D02*
X014761Y010386D01*
X014754Y010536D02*
X014815Y010556D01*
X014873Y010585D01*
X014924Y010623D01*
X014970Y010668D01*
X015008Y010720D01*
X015037Y010777D01*
X015056Y010838D01*
X015066Y010901D01*
X015066Y010905D01*
X014688Y010905D01*
X014688Y010962D01*
X015066Y010962D01*
X015066Y010965D01*
X015056Y011029D01*
X015037Y011090D01*
X015008Y011147D01*
X014970Y011199D01*
X014924Y011244D01*
X014873Y011282D01*
X014815Y011311D01*
X014754Y011331D01*
X014691Y011341D01*
X014688Y011341D01*
X014688Y010962D01*
X014630Y010962D01*
X014630Y010905D01*
X014252Y010905D01*
X014252Y010901D01*
X014262Y010838D01*
X014281Y010777D01*
X014311Y010720D01*
X014348Y010668D01*
X014394Y010623D01*
X014445Y010585D01*
X014503Y010556D01*
X014564Y010536D01*
X014627Y010526D01*
X014630Y010526D01*
X014630Y010904D01*
X014688Y010904D01*
X014688Y010526D01*
X014691Y010526D01*
X014754Y010536D01*
X014688Y010583D02*
X014630Y010583D01*
X014630Y010682D02*
X014688Y010682D01*
X014688Y010780D02*
X014630Y010780D01*
X014630Y010879D02*
X014688Y010879D01*
X014688Y010978D02*
X014630Y010978D01*
X014630Y010962D02*
X014630Y011341D01*
X014627Y011341D01*
X014564Y011331D01*
X014503Y011311D01*
X014445Y011282D01*
X014394Y011244D01*
X014348Y011199D01*
X014311Y011147D01*
X014281Y011090D01*
X014262Y011029D01*
X014252Y010965D01*
X014252Y010962D01*
X014630Y010962D01*
X014630Y011076D02*
X014688Y011076D01*
X014688Y011175D02*
X014630Y011175D01*
X014630Y011273D02*
X014688Y011273D01*
X014885Y011273D02*
X014966Y011273D01*
X014987Y011175D02*
X015064Y011175D01*
X015041Y011076D02*
X015163Y011076D01*
X015065Y010978D02*
X015261Y010978D01*
X015360Y010879D02*
X015063Y010879D01*
X015038Y010780D02*
X015465Y010780D01*
X015505Y010682D02*
X014980Y010682D01*
X014870Y010583D02*
X015599Y010583D01*
X015780Y010485D02*
X013661Y010485D01*
X013563Y010583D02*
X014448Y010583D01*
X014338Y010682D02*
X013464Y010682D01*
X013365Y010780D02*
X014280Y010780D01*
X014255Y010879D02*
X013267Y010879D01*
X013168Y010978D02*
X014254Y010978D01*
X014277Y011076D02*
X013070Y011076D01*
X012980Y011175D02*
X014331Y011175D01*
X014434Y011273D02*
X013069Y011273D01*
X013069Y011372D02*
X014867Y011372D01*
X014769Y011470D02*
X013069Y011470D01*
X013069Y011569D02*
X014377Y011569D01*
X014278Y011667D02*
X013005Y011667D01*
X012906Y011766D02*
X014233Y011766D01*
X014202Y011864D02*
X007709Y011864D01*
X007709Y011766D02*
X011412Y011766D01*
X011489Y011843D02*
X011249Y011603D01*
X011249Y011463D01*
X011629Y011463D01*
X011629Y011403D01*
X011689Y011403D01*
X011689Y011023D01*
X011829Y011023D01*
X012069Y011264D01*
X012069Y011403D01*
X011689Y011403D01*
X011689Y011463D01*
X012069Y011463D01*
X012069Y011603D01*
X011829Y011843D01*
X011689Y011843D01*
X011689Y011464D01*
X011629Y011464D01*
X011629Y011843D01*
X011489Y011843D01*
X011629Y011766D02*
X011689Y011766D01*
X011689Y011667D02*
X011629Y011667D01*
X011629Y011569D02*
X011689Y011569D01*
X011689Y011470D02*
X011629Y011470D01*
X011629Y011403D02*
X011249Y011403D01*
X011249Y011264D01*
X011489Y011023D01*
X011629Y011023D01*
X011629Y011403D01*
X011629Y011372D02*
X011689Y011372D01*
X011689Y011273D02*
X011629Y011273D01*
X011629Y011175D02*
X011689Y011175D01*
X011689Y011076D02*
X011629Y011076D01*
X011437Y011076D02*
X008792Y011076D01*
X008869Y010978D02*
X012150Y010978D01*
X012248Y011076D02*
X011882Y011076D01*
X011980Y011175D02*
X012338Y011175D01*
X012249Y011273D02*
X012069Y011273D01*
X012069Y011372D02*
X012249Y011372D01*
X012249Y011470D02*
X012069Y011470D01*
X012069Y011569D02*
X012249Y011569D01*
X012313Y011667D02*
X012005Y011667D01*
X011906Y011766D02*
X012412Y011766D01*
X012629Y011766D02*
X012689Y011766D01*
X012689Y011667D02*
X012629Y011667D01*
X012629Y011569D02*
X012689Y011569D01*
X012689Y011470D02*
X012629Y011470D01*
X012459Y010933D02*
X012009Y010483D01*
X011709Y010483D01*
X011659Y010433D01*
X011659Y010483D01*
X011009Y010483D01*
X010809Y010683D01*
X008509Y010683D01*
X008409Y010783D01*
X008409Y010808D01*
X008409Y010783D02*
X008259Y010783D01*
X008259Y009933D01*
X007759Y009433D01*
X007659Y009433D01*
X007659Y008933D01*
X006809Y009383D02*
X007609Y010183D01*
X007609Y010683D01*
X007509Y010783D01*
X007409Y010808D01*
X007459Y010833D01*
X007459Y012483D01*
X008159Y013183D01*
X008659Y013183D01*
X008709Y013183D01*
X008909Y012983D01*
X009509Y012983D01*
X009909Y012583D01*
X009909Y012558D01*
X009909Y012583D02*
X010409Y012583D01*
X010409Y012558D01*
X010409Y012533D01*
X010609Y012333D01*
X014009Y012333D01*
X014109Y012433D01*
X016609Y012433D01*
X016823Y011864D02*
X017609Y011864D01*
X017609Y011766D02*
X016794Y011766D01*
X016733Y011667D02*
X017609Y011667D01*
X017609Y011569D02*
X016607Y011569D01*
X016189Y011569D02*
X016129Y011569D01*
X016129Y011667D02*
X016189Y011667D01*
X016189Y011766D02*
X016129Y011766D01*
X016129Y011864D02*
X016189Y011864D01*
X015557Y012160D02*
X015060Y012160D01*
X015101Y012061D02*
X015510Y012061D01*
X015159Y012683D02*
X013709Y012683D01*
X013609Y012583D01*
X011659Y012583D01*
X010709Y013533D01*
X010409Y013533D01*
X010409Y013558D01*
X010409Y013583D01*
X009909Y013583D01*
X009909Y013558D01*
X009909Y013583D02*
X009759Y013583D01*
X009659Y013683D01*
X007609Y013683D01*
X007459Y013533D01*
X006459Y013533D01*
X006159Y013833D01*
X006159Y013839D01*
X006099Y013540D02*
X006066Y013540D01*
X006198Y013441D02*
X005688Y013441D01*
X005630Y013441D02*
X005059Y013441D01*
X005116Y013540D02*
X005252Y013540D01*
X005252Y013343D02*
X001409Y013343D01*
X001409Y013441D02*
X004259Y013441D01*
X004202Y013540D02*
X001409Y013540D01*
X001409Y013638D02*
X004202Y013638D01*
X004202Y013737D02*
X001409Y013737D01*
X001409Y013835D02*
X004202Y013835D01*
X004202Y013934D02*
X001409Y013934D01*
X001409Y014032D02*
X004202Y014032D01*
X004202Y014131D02*
X001409Y014131D01*
X001409Y014229D02*
X004252Y014229D01*
X004202Y014328D02*
X001409Y014328D01*
X001409Y014427D02*
X004202Y014427D01*
X004202Y014525D02*
X001409Y014525D01*
X001409Y014624D02*
X004202Y014624D01*
X004202Y014722D02*
X001409Y014722D01*
X001409Y014821D02*
X004202Y014821D01*
X004202Y014919D02*
X001409Y014919D01*
X001409Y015018D02*
X004237Y015018D01*
X004202Y015116D02*
X001409Y015116D01*
X001409Y015215D02*
X004202Y015215D01*
X004202Y015313D02*
X001409Y015313D01*
X001409Y015412D02*
X004202Y015412D01*
X004202Y015511D02*
X001409Y015511D01*
X001409Y015609D02*
X004202Y015609D01*
X004202Y015708D02*
X001409Y015708D01*
X001409Y015806D02*
X004222Y015806D01*
X004205Y015905D02*
X001409Y015905D01*
X001409Y016003D02*
X004202Y016003D01*
X004202Y016102D02*
X001409Y016102D01*
X001409Y016200D02*
X004202Y016200D01*
X004202Y016299D02*
X001409Y016299D01*
X001409Y016397D02*
X004202Y016397D01*
X004202Y016496D02*
X001409Y016496D01*
X001409Y016594D02*
X004207Y016594D01*
X004306Y016693D02*
X001409Y016693D01*
X001409Y016792D02*
X003410Y016792D01*
X003344Y016819D02*
X003610Y016709D01*
X003897Y016709D01*
X004163Y016819D01*
X004366Y017022D01*
X004476Y017288D01*
X004476Y017575D01*
X004366Y017841D01*
X004163Y018044D01*
X003897Y018154D01*
X003610Y018154D01*
X003344Y018044D01*
X003141Y017841D01*
X003031Y017575D01*
X003031Y017288D01*
X003141Y017022D01*
X003344Y016819D01*
X003273Y016890D02*
X001409Y016890D01*
X001409Y016989D02*
X003175Y016989D01*
X003114Y017087D02*
X001409Y017087D01*
X001409Y017186D02*
X003073Y017186D01*
X003032Y017284D02*
X001409Y017284D01*
X001409Y017383D02*
X003031Y017383D01*
X003031Y017481D02*
X001409Y017481D01*
X001409Y017580D02*
X003033Y017580D01*
X003074Y017678D02*
X001409Y017678D01*
X001409Y017777D02*
X003115Y017777D01*
X003176Y017876D02*
X001409Y017876D01*
X001409Y017974D02*
X003275Y017974D01*
X003414Y018073D02*
X001409Y018073D01*
X001409Y018171D02*
X001993Y018171D01*
X001864Y018225D02*
X002173Y018097D01*
X002507Y018097D01*
X002816Y018225D01*
X003053Y018461D01*
X003181Y018770D01*
X003181Y019105D01*
X003053Y019413D01*
X002816Y019650D01*
X002507Y019778D01*
X002173Y019778D01*
X001864Y019650D01*
X001628Y019413D01*
X001500Y019105D01*
X001500Y018770D01*
X001628Y018461D01*
X001864Y018225D01*
X001819Y018270D02*
X001409Y018270D01*
X001409Y018368D02*
X001720Y018368D01*
X001625Y018467D02*
X001409Y018467D01*
X001409Y018565D02*
X001584Y018565D01*
X001544Y018664D02*
X001409Y018664D01*
X001409Y018762D02*
X001503Y018762D01*
X001500Y018861D02*
X001409Y018861D01*
X001409Y018960D02*
X001500Y018960D01*
X001500Y019058D02*
X001409Y019058D01*
X001409Y019157D02*
X001521Y019157D01*
X001562Y019255D02*
X001409Y019255D01*
X001409Y019354D02*
X001603Y019354D01*
X001666Y019452D02*
X001409Y019452D01*
X001409Y019551D02*
X001765Y019551D01*
X001863Y019649D02*
X001409Y019649D01*
X001409Y019748D02*
X002101Y019748D01*
X002580Y019748D02*
X005970Y019748D01*
X005871Y019649D02*
X002817Y019649D01*
X002915Y019551D02*
X005773Y019551D01*
X005674Y019452D02*
X003014Y019452D01*
X003077Y019354D02*
X005588Y019354D01*
X005559Y019255D02*
X003118Y019255D01*
X003159Y019157D02*
X005559Y019157D01*
X005559Y019058D02*
X003181Y019058D01*
X003181Y018960D02*
X005559Y018960D01*
X005559Y018861D02*
X003181Y018861D01*
X003177Y018762D02*
X005559Y018762D01*
X005559Y018664D02*
X003137Y018664D01*
X003096Y018565D02*
X005559Y018565D01*
X005559Y018467D02*
X003055Y018467D01*
X002960Y018368D02*
X005565Y018368D01*
X005619Y018270D02*
X002861Y018270D01*
X002687Y018171D02*
X005568Y018171D01*
X005750Y018171D02*
X005868Y018171D01*
X005937Y018073D02*
X005966Y018073D01*
X006027Y017974D02*
X006065Y017974D01*
X006068Y017876D02*
X006074Y017876D01*
X006086Y017678D02*
X006138Y017678D01*
X006102Y017580D02*
X006052Y017580D01*
X006004Y017481D02*
X005998Y017481D01*
X005905Y017383D02*
X005898Y017383D01*
X005806Y017284D02*
X004475Y017284D01*
X004476Y017383D02*
X005420Y017383D01*
X005320Y017481D02*
X004476Y017481D01*
X004474Y017580D02*
X005266Y017580D01*
X005232Y017678D02*
X004433Y017678D01*
X004392Y017777D02*
X005232Y017777D01*
X005250Y017876D02*
X004331Y017876D01*
X004233Y017974D02*
X005291Y017974D01*
X005381Y018073D02*
X004093Y018073D01*
X004434Y017186D02*
X005208Y017186D01*
X005109Y017087D02*
X004393Y017087D01*
X004332Y016989D02*
X005011Y016989D01*
X004912Y016890D02*
X004234Y016890D01*
X004097Y016792D02*
X004814Y016792D01*
X004659Y016283D02*
X004659Y016248D01*
X004659Y016283D02*
X005409Y017033D01*
X005909Y017033D01*
X006559Y017683D01*
X006559Y017933D01*
X006534Y017933D01*
X006459Y017933D01*
X005959Y018433D01*
X005809Y018433D01*
X005809Y019233D01*
X006159Y019583D01*
X007409Y019583D01*
X007909Y019083D01*
X007909Y019058D01*
X008363Y019255D02*
X008445Y019255D01*
X008587Y019354D02*
X008264Y019354D01*
X008166Y019452D02*
X009777Y019452D01*
X009679Y019354D02*
X009481Y019354D01*
X009034Y018933D02*
X008559Y018933D01*
X008509Y018883D01*
X008409Y018883D01*
X008109Y018583D01*
X006909Y018583D01*
X006559Y018933D01*
X006534Y018933D01*
X007598Y019748D02*
X013198Y019748D01*
X013297Y019846D02*
X001409Y019846D01*
X001409Y019868D02*
X013319Y019868D01*
X013074Y019624D01*
X013074Y019243D01*
X013309Y019008D01*
X013309Y018983D01*
X013237Y018953D01*
X013089Y018805D01*
X013009Y018613D01*
X013009Y017754D01*
X013089Y017561D01*
X013237Y017414D01*
X013430Y017334D01*
X013638Y017334D01*
X013831Y017414D01*
X013979Y017561D01*
X014034Y017694D01*
X014058Y017636D01*
X013756Y017333D01*
X013359Y017333D01*
X013267Y017295D01*
X013241Y017268D01*
X012969Y017268D01*
X012909Y017209D01*
X012850Y017268D01*
X012495Y017268D01*
X012459Y017283D01*
X012359Y017283D01*
X009413Y017283D01*
X009359Y017337D01*
X009359Y017473D01*
X009386Y017473D01*
X009555Y017543D01*
X009684Y017673D01*
X009709Y017733D01*
X009844Y017598D01*
X010225Y017598D01*
X010397Y017771D01*
X010423Y017718D01*
X010461Y017666D01*
X010507Y017621D01*
X010559Y017583D01*
X010617Y017553D01*
X010678Y017533D01*
X010742Y017523D01*
X011004Y017523D01*
X011004Y017903D01*
X011064Y017903D01*
X011064Y017523D01*
X011326Y017523D01*
X011390Y017533D01*
X011451Y017553D01*
X011509Y017583D01*
X011561Y017621D01*
X011607Y017666D01*
X011645Y017718D01*
X011674Y017776D01*
X011694Y017837D01*
X011704Y017901D01*
X011704Y017903D01*
X011064Y017903D01*
X011064Y017963D01*
X011704Y017963D01*
X011704Y017966D01*
X011694Y018029D01*
X011674Y018091D01*
X011645Y018148D01*
X011607Y018200D01*
X011561Y018246D01*
X011509Y018284D01*
X011451Y018313D01*
X011390Y018333D01*
X011326Y018343D01*
X011064Y018343D01*
X011064Y017964D01*
X011004Y017964D01*
X011004Y018343D01*
X010742Y018343D01*
X010678Y018333D01*
X010617Y018313D01*
X010559Y018284D01*
X010507Y018246D01*
X010494Y018233D01*
X010494Y018249D01*
X010225Y018518D01*
X009844Y018518D01*
X009602Y018276D01*
X009555Y018323D01*
X009386Y018393D01*
X008683Y018393D01*
X008513Y018323D01*
X008384Y018194D01*
X008369Y018157D01*
X008369Y018249D01*
X008248Y018370D01*
X008250Y018368D02*
X008622Y018368D01*
X008460Y018270D02*
X008348Y018270D01*
X008369Y018171D02*
X008375Y018171D01*
X008346Y018467D02*
X009792Y018467D01*
X009693Y018368D02*
X009446Y018368D01*
X009577Y018565D02*
X010492Y018565D01*
X010393Y018664D02*
X010290Y018664D01*
X010276Y018467D02*
X012059Y018467D01*
X012059Y018546D02*
X012059Y018233D01*
X012484Y018233D01*
X012484Y018133D01*
X012584Y018133D01*
X012584Y017386D01*
X012645Y017395D01*
X012716Y017419D01*
X012783Y017452D01*
X012843Y017496D01*
X012896Y017549D01*
X012940Y017610D01*
X012974Y017676D01*
X012997Y017747D01*
X013009Y017821D01*
X013009Y018133D01*
X012584Y018133D01*
X012584Y018233D01*
X013009Y018233D01*
X013009Y018546D01*
X012997Y018619D01*
X012974Y018690D01*
X012940Y018757D01*
X012896Y018817D01*
X012843Y018870D01*
X012783Y018914D01*
X012716Y018948D01*
X012645Y018971D01*
X012584Y018981D01*
X012584Y018234D01*
X012484Y018234D01*
X012484Y018981D01*
X012423Y018971D01*
X012352Y018948D01*
X012285Y018914D01*
X012225Y018870D01*
X012172Y018817D01*
X012128Y018757D01*
X012094Y018690D01*
X012071Y018619D01*
X012059Y018546D01*
X012062Y018565D02*
X011577Y018565D01*
X011675Y018664D02*
X012085Y018664D01*
X012132Y018762D02*
X011721Y018762D01*
X011754Y018861D02*
X012215Y018861D01*
X012387Y018960D02*
X011754Y018960D01*
X011740Y019058D02*
X013259Y019058D01*
X013252Y018960D02*
X012681Y018960D01*
X012584Y018960D02*
X012484Y018960D01*
X012484Y018861D02*
X012584Y018861D01*
X012584Y018762D02*
X012484Y018762D01*
X012484Y018664D02*
X012584Y018664D01*
X012584Y018565D02*
X012484Y018565D01*
X012484Y018467D02*
X012584Y018467D01*
X012584Y018368D02*
X012484Y018368D01*
X012484Y018270D02*
X012584Y018270D01*
X012584Y018171D02*
X013009Y018171D01*
X013009Y018073D02*
X013009Y018073D01*
X013009Y017974D02*
X013009Y017974D01*
X013009Y017876D02*
X013009Y017876D01*
X013002Y017777D02*
X013009Y017777D01*
X012975Y017678D02*
X013041Y017678D01*
X013081Y017580D02*
X012918Y017580D01*
X012823Y017481D02*
X013169Y017481D01*
X013311Y017383D02*
X009359Y017383D01*
X009405Y017481D02*
X012245Y017481D01*
X012225Y017496D02*
X012285Y017452D01*
X012352Y017419D01*
X012423Y017395D01*
X012484Y017386D01*
X012484Y018133D01*
X012059Y018133D01*
X012059Y017821D01*
X012071Y017747D01*
X012094Y017676D01*
X012128Y017610D01*
X012172Y017549D01*
X012225Y017496D01*
X012150Y017580D02*
X011503Y017580D01*
X011616Y017678D02*
X012093Y017678D01*
X012066Y017777D02*
X011674Y017777D01*
X011700Y017876D02*
X012059Y017876D01*
X012059Y017974D02*
X011703Y017974D01*
X011680Y018073D02*
X012059Y018073D01*
X012059Y018270D02*
X011529Y018270D01*
X011628Y018171D02*
X012484Y018171D01*
X012484Y018073D02*
X012584Y018073D01*
X012584Y017974D02*
X012484Y017974D01*
X012484Y017876D02*
X012584Y017876D01*
X012584Y017777D02*
X012484Y017777D01*
X012484Y017678D02*
X012584Y017678D01*
X012584Y017580D02*
X012484Y017580D01*
X012484Y017481D02*
X012584Y017481D01*
X013256Y017284D02*
X009412Y017284D01*
X009591Y017580D02*
X010565Y017580D01*
X010452Y017678D02*
X010305Y017678D01*
X011004Y017678D02*
X011064Y017678D01*
X011064Y017580D02*
X011004Y017580D01*
X011004Y017777D02*
X011064Y017777D01*
X011064Y017876D02*
X011004Y017876D01*
X011004Y017974D02*
X011064Y017974D01*
X011064Y018073D02*
X011004Y018073D01*
X011004Y018171D02*
X011064Y018171D01*
X011064Y018270D02*
X011004Y018270D01*
X010539Y018270D02*
X010473Y018270D01*
X010375Y018368D02*
X012059Y018368D01*
X012853Y018861D02*
X013145Y018861D01*
X013071Y018762D02*
X012936Y018762D01*
X012983Y018664D02*
X013031Y018664D01*
X013009Y018565D02*
X013006Y018565D01*
X013009Y018467D02*
X013009Y018467D01*
X013009Y018368D02*
X013009Y018368D01*
X013009Y018270D02*
X013009Y018270D01*
X013534Y018183D02*
X013559Y018183D01*
X013559Y019433D01*
X013534Y019433D01*
X013074Y019452D02*
X010291Y019452D01*
X010389Y019354D02*
X010587Y019354D01*
X010959Y018983D02*
X010109Y018983D01*
X010034Y019058D01*
X009778Y018664D02*
X009675Y018664D01*
X010034Y018058D02*
X009959Y017983D01*
X009109Y017983D01*
X009059Y017933D01*
X009034Y017933D01*
X009686Y017678D02*
X009763Y017678D01*
X009259Y016783D02*
X008459Y015983D01*
X008659Y015933D01*
X008709Y015983D01*
X008459Y015983D01*
X005759Y015983D01*
X005659Y015883D01*
X005659Y015847D01*
X006159Y015445D02*
X006159Y015433D01*
X006209Y015383D01*
X008809Y015383D01*
X009409Y015983D01*
X009409Y016233D01*
X009709Y016533D01*
X011509Y016533D01*
X011959Y016083D01*
X012209Y016083D01*
X012359Y015933D01*
X012559Y015933D01*
X012659Y015808D01*
X012659Y015833D01*
X013159Y015833D01*
X013159Y015808D01*
X013159Y015833D02*
X013409Y016083D01*
X014509Y016083D01*
X015359Y016933D01*
X016159Y016933D01*
X016609Y016433D02*
X015459Y016433D01*
X014609Y015583D01*
X013959Y015583D01*
X013709Y015333D01*
X012109Y015333D01*
X011859Y015583D01*
X010859Y015583D01*
X010409Y016033D01*
X010409Y016058D01*
X010409Y016083D01*
X010409Y016058D02*
X009909Y016058D01*
X009259Y016783D02*
X011659Y016783D01*
X012109Y016333D01*
X014309Y016333D01*
X015709Y017733D01*
X015959Y017733D01*
X016159Y017933D01*
X016831Y018565D02*
X017674Y018565D01*
X017772Y018467D02*
X016929Y018467D01*
X017028Y018368D02*
X017871Y018368D01*
X017947Y018292D02*
X018017Y018221D01*
X018109Y018183D01*
X018505Y018183D01*
X018439Y018025D01*
X018439Y017842D01*
X018509Y017673D01*
X018638Y017543D01*
X018808Y017473D01*
X019511Y017473D01*
X019535Y017483D01*
X019631Y017483D01*
X020072Y017042D01*
X020142Y016971D01*
X020234Y016933D01*
X021106Y016933D01*
X021697Y016342D01*
X021767Y016271D01*
X021859Y016233D01*
X022206Y016233D01*
X022267Y016171D01*
X022359Y016133D01*
X022959Y016133D01*
X023059Y016133D01*
X023151Y016171D01*
X023578Y016598D01*
X023850Y016598D01*
X023945Y016694D01*
X024097Y016542D01*
X024097Y016542D01*
X024167Y016471D01*
X024259Y016433D01*
X026259Y016433D01*
X026351Y016471D01*
X026421Y016542D01*
X026563Y016683D01*
X028135Y016683D01*
X027985Y016533D01*
X026499Y016533D01*
X026389Y016488D01*
X026305Y016403D01*
X026259Y016293D01*
X026259Y016174D01*
X026259Y015563D01*
X026146Y015450D01*
X026077Y015282D01*
X026077Y014585D01*
X026146Y014417D01*
X026275Y014288D01*
X026443Y014218D01*
X026625Y014218D01*
X026793Y014288D01*
X026922Y014417D01*
X026991Y014585D01*
X026991Y015282D01*
X026922Y015450D01*
X026859Y015513D01*
X026859Y015933D01*
X028049Y015933D01*
X028074Y015933D01*
X028074Y015743D01*
X028257Y015560D01*
X028146Y015450D01*
X028077Y015282D01*
X028077Y014585D01*
X028146Y014417D01*
X028230Y014333D01*
X028009Y014333D01*
X027909Y014333D01*
X027817Y014295D01*
X027706Y014183D01*
X025413Y014183D01*
X024861Y014735D01*
X024869Y014743D01*
X024869Y015124D01*
X024600Y015393D01*
X024253Y015393D01*
X024001Y015645D01*
X023965Y015660D01*
X024034Y015729D01*
X024239Y015523D01*
X024379Y015523D01*
X024379Y015903D01*
X024439Y015903D01*
X024439Y015523D01*
X024579Y015523D01*
X024819Y015764D01*
X024819Y015903D01*
X024439Y015903D01*
X024439Y015963D01*
X024819Y015963D01*
X024819Y016103D01*
X024579Y016343D01*
X024439Y016343D01*
X024439Y015964D01*
X024379Y015964D01*
X024379Y016343D01*
X024239Y016343D01*
X024034Y016138D01*
X023829Y016343D01*
X023689Y016343D01*
X023689Y015964D01*
X023629Y015964D01*
X023629Y016343D01*
X023489Y016343D01*
X023249Y016103D01*
X023249Y015963D01*
X023629Y015963D01*
X023629Y015903D01*
X023249Y015903D01*
X023249Y015783D01*
X023159Y015783D01*
X020913Y015783D01*
X020722Y015973D01*
X021100Y015973D01*
X021369Y016243D01*
X021369Y016624D01*
X021100Y016893D01*
X020719Y016893D01*
X020449Y016624D01*
X020449Y016247D01*
X020369Y016327D01*
X020369Y016624D01*
X020100Y016893D01*
X019879Y016893D01*
X019879Y017025D01*
X019809Y017194D01*
X019680Y017323D01*
X019511Y017393D01*
X018808Y017393D01*
X018638Y017323D01*
X018509Y017194D01*
X018439Y017025D01*
X018439Y016842D01*
X018509Y016673D01*
X018638Y016543D01*
X018808Y016473D01*
X019449Y016473D01*
X019449Y016393D01*
X018808Y016393D01*
X018638Y016323D01*
X018509Y016194D01*
X018439Y016025D01*
X018439Y015842D01*
X018509Y015673D01*
X018638Y015543D01*
X018808Y015473D01*
X019511Y015473D01*
X019535Y015483D01*
X020006Y015483D01*
X020347Y015142D01*
X020417Y015071D01*
X020509Y015033D01*
X022956Y015033D01*
X023197Y014792D01*
X023199Y014790D01*
X023199Y014743D01*
X023469Y014473D01*
X023816Y014473D01*
X023856Y014433D01*
X022463Y014433D01*
X022171Y014725D01*
X022101Y014795D01*
X022009Y014833D01*
X021285Y014833D01*
X021100Y015018D01*
X022971Y015018D01*
X023070Y014919D02*
X021199Y014919D01*
X021100Y015018D02*
X020719Y015018D01*
X020449Y014749D01*
X020449Y014368D01*
X020719Y014098D01*
X021100Y014098D01*
X021335Y014333D01*
X021856Y014333D01*
X022217Y013971D01*
X022309Y013933D01*
X022409Y013933D01*
X023956Y013933D01*
X024667Y013221D01*
X024759Y013183D01*
X024859Y013183D01*
X026985Y013183D01*
X026585Y012783D01*
X026499Y012783D01*
X026389Y012738D01*
X026305Y012653D01*
X026259Y012543D01*
X026259Y012438D01*
X026146Y012325D01*
X026077Y012157D01*
X026077Y011460D01*
X026146Y011292D01*
X026255Y011183D01*
X025710Y011183D01*
X025748Y011202D01*
X025799Y011240D01*
X025845Y011285D01*
X025883Y011337D01*
X025912Y011394D01*
X025931Y011455D01*
X025941Y011519D01*
X025941Y011780D01*
X025563Y011780D01*
X025563Y011837D01*
X025941Y011837D01*
X025941Y012098D01*
X025931Y012161D01*
X025912Y012222D01*
X025883Y012279D01*
X025845Y012331D01*
X025799Y012377D01*
X025748Y012414D01*
X025690Y012443D01*
X025629Y012463D01*
X025566Y012473D01*
X025563Y012473D01*
X025563Y011837D01*
X025505Y011837D01*
X025505Y011780D01*
X025127Y011780D01*
X025127Y011519D01*
X025137Y011455D01*
X025156Y011394D01*
X025186Y011337D01*
X025223Y011285D01*
X025269Y011240D01*
X025320Y011202D01*
X025358Y011183D01*
X025313Y011183D01*
X024869Y011627D01*
X024869Y011999D01*
X024600Y012268D01*
X024228Y012268D01*
X024001Y012495D01*
X023948Y012517D01*
X024034Y012604D01*
X024239Y012398D01*
X024379Y012398D01*
X024379Y012778D01*
X024439Y012778D01*
X024439Y012398D01*
X024579Y012398D01*
X024819Y012639D01*
X024819Y012778D01*
X024439Y012778D01*
X024439Y012838D01*
X024819Y012838D01*
X024819Y012978D01*
X024579Y013218D01*
X024439Y013218D01*
X024439Y012839D01*
X024379Y012839D01*
X024379Y013218D01*
X024239Y013218D01*
X024034Y013013D01*
X023829Y013218D01*
X023689Y013218D01*
X023689Y012839D01*
X023629Y012839D01*
X023629Y013218D01*
X023489Y013218D01*
X023249Y012978D01*
X023249Y012838D01*
X023629Y012838D01*
X023629Y012778D01*
X023317Y012778D01*
X021879Y014017D01*
X021851Y014045D01*
X021842Y014049D01*
X021834Y014055D01*
X021796Y014068D01*
X021759Y014083D01*
X021749Y014083D01*
X021740Y014086D01*
X021700Y014083D01*
X020713Y014083D01*
X020369Y014427D01*
X020369Y014749D01*
X020100Y015018D01*
X020718Y015018D01*
X020619Y014919D02*
X020199Y014919D01*
X020297Y014821D02*
X020521Y014821D01*
X020449Y014722D02*
X020369Y014722D01*
X020369Y014624D02*
X020449Y014624D01*
X020449Y014525D02*
X020369Y014525D01*
X020369Y014427D02*
X020449Y014427D01*
X020468Y014328D02*
X020489Y014328D01*
X020566Y014229D02*
X020587Y014229D01*
X020665Y014131D02*
X020686Y014131D01*
X020609Y013833D02*
X021709Y013833D01*
X023509Y012283D01*
X023859Y012283D01*
X024309Y011833D01*
X024409Y011833D01*
X024409Y011808D01*
X024409Y011733D01*
X025209Y010933D01*
X027159Y010933D01*
X027209Y010983D01*
X028709Y010983D01*
X029534Y011808D01*
X030534Y011808D02*
X030559Y011783D01*
X030559Y010833D01*
X030534Y010808D01*
X030509Y010833D01*
X029259Y010833D01*
X029159Y010733D01*
X027909Y010733D01*
X027859Y010683D01*
X024609Y010683D01*
X023459Y011833D01*
X023659Y011808D01*
X023659Y011833D01*
X023459Y011833D01*
X023234Y011833D01*
X021484Y013583D01*
X020209Y013583D01*
X020009Y013783D01*
X019309Y013783D01*
X019159Y013933D01*
X018808Y014393D02*
X018638Y014323D01*
X018509Y014194D01*
X018439Y014025D01*
X018439Y013842D01*
X018509Y013673D01*
X018638Y013543D01*
X018808Y013473D01*
X019511Y013473D01*
X019655Y013533D01*
X019906Y013533D01*
X019997Y013442D01*
X020067Y013371D01*
X020159Y013333D01*
X021381Y013333D01*
X023022Y011692D01*
X023092Y011621D01*
X023184Y011583D01*
X023234Y011583D01*
X023469Y011348D01*
X023591Y011348D01*
X024467Y010471D01*
X024559Y010433D01*
X024659Y010433D01*
X027909Y010433D01*
X028001Y010471D01*
X028013Y010483D01*
X028485Y010483D01*
X028435Y010433D01*
X026499Y010433D01*
X026389Y010388D01*
X026305Y010303D01*
X026259Y010193D01*
X026259Y010074D01*
X026259Y009563D01*
X026146Y009450D01*
X026077Y009282D01*
X026077Y008585D01*
X026146Y008417D01*
X026275Y008288D01*
X026443Y008218D01*
X026625Y008218D01*
X026793Y008288D01*
X026922Y008417D01*
X026991Y008585D01*
X026991Y009282D01*
X026922Y009450D01*
X026859Y009513D01*
X026859Y009833D01*
X028499Y009833D01*
X028619Y009833D01*
X028729Y009879D01*
X028933Y010083D01*
X028956Y010083D01*
X028947Y010075D01*
X028520Y009648D01*
X028443Y009648D01*
X028275Y009579D01*
X028146Y009450D01*
X028077Y009282D01*
X028077Y008585D01*
X028146Y008417D01*
X028275Y008288D01*
X028443Y008218D01*
X028625Y008218D01*
X028793Y008288D01*
X028922Y008417D01*
X028991Y008585D01*
X028991Y009282D01*
X028953Y009374D01*
X029263Y009683D01*
X031884Y009683D01*
X032094Y009473D01*
X032170Y009473D01*
X032146Y009450D01*
X032077Y009282D01*
X032077Y008585D01*
X032146Y008417D01*
X032275Y008288D01*
X032443Y008218D01*
X032625Y008218D01*
X032713Y008255D01*
X033289Y007679D01*
X033399Y007633D01*
X033519Y007633D01*
X036185Y007633D01*
X037255Y006563D01*
X037339Y006479D01*
X037344Y006477D01*
X037340Y006477D01*
X036229Y007588D01*
X036119Y007633D01*
X035999Y007633D01*
X033083Y007633D01*
X032879Y007838D01*
X032769Y007883D01*
X032649Y007883D01*
X031899Y007883D01*
X031789Y007838D01*
X031705Y007753D01*
X031635Y007683D01*
X030809Y007683D01*
X030809Y007733D01*
X030809Y008304D01*
X030922Y008417D01*
X030991Y008585D01*
X030991Y009282D01*
X030922Y009450D01*
X030793Y009579D01*
X030625Y009648D01*
X030443Y009648D01*
X030275Y009579D01*
X030146Y009450D01*
X030077Y009282D01*
X030077Y008585D01*
X030146Y008417D01*
X030275Y008288D01*
X030309Y008274D01*
X030309Y007933D01*
X029809Y007933D01*
X029809Y007983D01*
X029809Y008304D01*
X029922Y008417D01*
X029991Y008585D01*
X029991Y009282D01*
X029922Y009450D01*
X029793Y009579D01*
X029625Y009648D01*
X029443Y009648D01*
X029275Y009579D01*
X029146Y009450D01*
X029077Y009282D01*
X029077Y008585D01*
X029146Y008417D01*
X029275Y008288D01*
X029309Y008274D01*
X029309Y008183D01*
X025413Y008183D01*
X024861Y008735D01*
X024869Y008743D01*
X024869Y009124D01*
X024600Y009393D01*
X024253Y009393D01*
X024071Y009575D01*
X024001Y009645D01*
X023965Y009660D01*
X024034Y009729D01*
X024239Y009523D01*
X024379Y009523D01*
X024379Y009903D01*
X024439Y009903D01*
X024439Y009523D01*
X024579Y009523D01*
X024819Y009764D01*
X024819Y009903D01*
X024439Y009903D01*
X024439Y009963D01*
X024819Y009963D01*
X024819Y010103D01*
X024579Y010343D01*
X024439Y010343D01*
X024439Y009964D01*
X024379Y009964D01*
X024379Y010343D01*
X024239Y010343D01*
X024034Y010138D01*
X023829Y010343D01*
X023689Y010343D01*
X023689Y009964D01*
X023629Y009964D01*
X023629Y010343D01*
X023489Y010343D01*
X023249Y010103D01*
X023249Y009963D01*
X023629Y009963D01*
X023629Y009903D01*
X023249Y009903D01*
X023249Y009764D01*
X023329Y009683D01*
X022763Y009683D01*
X020286Y012160D01*
X020369Y012243D01*
X020369Y012624D01*
X020100Y012893D01*
X019879Y012893D01*
X019879Y013025D01*
X019809Y013194D01*
X019680Y013323D01*
X019511Y013393D01*
X018808Y013393D01*
X018638Y013323D01*
X018509Y013194D01*
X018439Y013025D01*
X018439Y012842D01*
X018509Y012673D01*
X018638Y012543D01*
X018808Y012473D01*
X019449Y012473D01*
X019449Y012393D01*
X018808Y012393D01*
X018638Y012323D01*
X018509Y012194D01*
X018439Y012025D01*
X018439Y011842D01*
X018509Y011673D01*
X018638Y011543D01*
X018808Y011473D01*
X019511Y011473D01*
X019514Y011475D01*
X019656Y011333D01*
X019511Y011393D01*
X018808Y011393D01*
X018638Y011323D01*
X018509Y011194D01*
X018439Y011025D01*
X018439Y010842D01*
X018509Y010673D01*
X018638Y010543D01*
X018808Y010473D01*
X019511Y010473D01*
X019514Y010475D01*
X020657Y009332D01*
X020449Y009124D01*
X020449Y008743D01*
X020719Y008473D01*
X021100Y008473D01*
X021360Y008733D01*
X021606Y008733D01*
X022117Y008221D01*
X022199Y008188D01*
X022199Y007993D01*
X022469Y007723D01*
X022850Y007723D01*
X023119Y007993D01*
X023119Y008374D01*
X022850Y008643D01*
X022553Y008643D01*
X022551Y008645D01*
X022459Y008683D01*
X022363Y008683D01*
X022362Y008683D01*
X023259Y008683D01*
X023384Y008558D01*
X023199Y008374D01*
X023199Y007993D01*
X023469Y007723D01*
X023850Y007723D01*
X023933Y007806D01*
X024517Y007221D01*
X024609Y007183D01*
X024709Y007183D01*
X026259Y007183D01*
X026259Y007074D01*
X026259Y006313D01*
X026146Y006200D01*
X026077Y006032D01*
X026077Y005335D01*
X026146Y005167D01*
X026275Y005038D01*
X026443Y004968D01*
X026625Y004968D01*
X026793Y005038D01*
X026922Y005167D01*
X026991Y005335D01*
X026991Y006032D01*
X026922Y006200D01*
X026859Y006263D01*
X026859Y006833D01*
X028899Y006833D01*
X029019Y006833D01*
X029129Y006879D01*
X029333Y007083D01*
X031699Y007083D01*
X031819Y007083D01*
X031929Y007129D01*
X032083Y007283D01*
X032585Y007283D01*
X032705Y007163D01*
X032789Y007079D01*
X032871Y007045D01*
X032824Y006999D01*
X032824Y006773D01*
X032744Y006693D01*
X032744Y006999D01*
X032475Y007268D01*
X032094Y007268D01*
X031859Y007033D01*
X029359Y007033D01*
X029267Y006995D01*
X029197Y006925D01*
X028657Y006385D01*
X028625Y006398D01*
X028443Y006398D01*
X028275Y006329D01*
X028146Y006200D01*
X028077Y006032D01*
X028077Y005335D01*
X028146Y005167D01*
X028275Y005038D01*
X028443Y004968D01*
X028625Y004968D01*
X028737Y005015D01*
X028656Y004933D01*
X024563Y004933D01*
X023369Y006127D01*
X023369Y006374D01*
X023100Y006643D01*
X023003Y006643D01*
X022651Y006995D01*
X022559Y007033D01*
X022463Y007033D01*
X021351Y008145D01*
X021259Y008183D01*
X021159Y008183D01*
X020763Y008183D01*
X020286Y008660D01*
X020369Y008743D01*
X020369Y009124D01*
X020100Y009393D01*
X019719Y009393D01*
X019658Y009332D01*
X019511Y009393D01*
X018808Y009393D01*
X018638Y009323D01*
X018509Y009194D01*
X018439Y009025D01*
X018439Y008842D01*
X018509Y008673D01*
X018638Y008543D01*
X018808Y008473D01*
X019511Y008473D01*
X019658Y008534D01*
X019719Y008473D01*
X019766Y008473D01*
X020366Y007873D01*
X020263Y007933D01*
X020251Y007945D01*
X020220Y007958D01*
X020192Y007974D01*
X020175Y007977D01*
X020159Y007983D01*
X020126Y007983D01*
X020094Y007988D01*
X020077Y007983D01*
X019879Y007983D01*
X019879Y008025D01*
X019809Y008194D01*
X019680Y008323D01*
X019511Y008393D01*
X018808Y008393D01*
X018638Y008323D01*
X018509Y008194D01*
X018439Y008025D01*
X018439Y007842D01*
X018509Y007673D01*
X018638Y007543D01*
X018808Y007473D01*
X019511Y007473D01*
X019535Y007483D01*
X020041Y007483D01*
X020255Y007359D01*
X020267Y007346D01*
X020298Y007334D01*
X020326Y007317D01*
X020343Y007315D01*
X020359Y007308D01*
X020392Y007308D01*
X020425Y007304D01*
X020441Y007308D01*
X020634Y007308D01*
X020449Y007124D01*
X020449Y006743D01*
X020719Y006473D01*
X021100Y006473D01*
X021369Y006743D01*
X021369Y006892D01*
X021909Y006288D01*
X021909Y005483D01*
X021909Y005384D01*
X021947Y005292D01*
X021949Y005290D01*
X021949Y005243D01*
X022219Y004973D01*
X022600Y004973D01*
X022710Y005083D01*
X023306Y005083D01*
X024167Y004221D01*
X024259Y004183D01*
X024359Y004183D01*
X028585Y004183D01*
X026499Y004183D01*
X026389Y004138D01*
X026305Y004053D01*
X026259Y003943D01*
X026259Y003824D01*
X026259Y003313D01*
X026146Y003200D01*
X026077Y003032D01*
X026077Y002335D01*
X026146Y002167D01*
X026275Y002038D01*
X026443Y001968D01*
X026625Y001968D01*
X026793Y002038D01*
X026922Y002167D01*
X026991Y002335D01*
X026991Y003032D01*
X026922Y003200D01*
X026859Y003263D01*
X026859Y003583D01*
X028649Y003583D01*
X028769Y003583D01*
X028879Y003629D01*
X029083Y003833D01*
X029106Y003833D01*
X029097Y003825D01*
X028657Y003385D01*
X028625Y003398D01*
X028443Y003398D01*
X028275Y003329D01*
X028146Y003200D01*
X028077Y003032D01*
X028077Y002335D01*
X028146Y002167D01*
X028275Y002038D01*
X028443Y001968D01*
X028625Y001968D01*
X028737Y002015D01*
X028656Y001933D01*
X025413Y001933D01*
X023721Y003625D01*
X023651Y003695D01*
X023559Y003733D01*
X023363Y003733D01*
X022994Y004102D01*
X022994Y004374D01*
X022725Y004643D01*
X022344Y004643D01*
X022248Y004548D01*
X021801Y004995D01*
X021709Y005033D01*
X021609Y005033D01*
X021589Y005033D01*
X021819Y005264D01*
X021819Y005403D01*
X021439Y005403D01*
X021439Y005463D01*
X021819Y005463D01*
X021819Y005603D01*
X021579Y005843D01*
X021439Y005843D01*
X021439Y005464D01*
X021379Y005464D01*
X021379Y005843D01*
X021239Y005843D01*
X020999Y005603D01*
X020999Y005463D01*
X021379Y005463D01*
X021379Y005403D01*
X021030Y005403D01*
X021021Y005425D01*
X020409Y006037D01*
X020409Y006634D01*
X020409Y006733D01*
X020371Y006825D01*
X020369Y006827D01*
X020369Y007124D01*
X020100Y007393D01*
X019719Y007393D01*
X019658Y007332D01*
X019511Y007393D01*
X018808Y007393D01*
X018638Y007323D01*
X018509Y007194D01*
X018439Y007025D01*
X018439Y006842D01*
X018509Y006673D01*
X018638Y006543D01*
X018808Y006473D01*
X019511Y006473D01*
X019658Y006534D01*
X019719Y006473D01*
X019909Y006473D01*
X019909Y005884D01*
X019947Y005792D01*
X020017Y005721D01*
X020559Y005180D01*
X020559Y005034D01*
X020597Y004942D01*
X020667Y004871D01*
X020897Y004642D01*
X020967Y004571D01*
X021059Y004533D01*
X021556Y004533D01*
X022047Y004042D01*
X022074Y004015D01*
X022074Y003993D01*
X022344Y003723D01*
X022666Y003723D01*
X022806Y003583D01*
X022463Y003583D01*
X021551Y004495D01*
X021459Y004533D01*
X021359Y004533D01*
X020709Y004533D01*
X020709Y004683D01*
X020671Y004775D01*
X020601Y004845D01*
X019791Y005655D01*
X019809Y005673D01*
X019879Y005842D01*
X019879Y006025D01*
X019809Y006194D01*
X019680Y006323D01*
X019511Y006393D01*
X018808Y006393D01*
X018638Y006323D01*
X018509Y006194D01*
X018439Y006025D01*
X018439Y005842D01*
X018509Y005673D01*
X018638Y005543D01*
X018808Y005473D01*
X019266Y005473D01*
X020209Y004530D01*
X020209Y004333D01*
X020209Y004234D01*
X020247Y004142D01*
X020317Y004071D01*
X020409Y004033D01*
X021306Y004033D01*
X022147Y003192D01*
X022217Y003121D01*
X022309Y003083D01*
X022906Y003083D01*
X022957Y003031D01*
X022957Y002357D01*
X022861Y002357D01*
X022861Y003050D01*
X022804Y003041D01*
X022737Y003019D01*
X022675Y002987D01*
X022618Y002946D01*
X022568Y002896D01*
X022527Y002839D01*
X022495Y002777D01*
X022473Y002710D01*
X022462Y002640D01*
X022462Y002357D01*
X022860Y002357D01*
X022860Y002260D01*
X022462Y002260D01*
X022462Y001976D01*
X022473Y001907D01*
X022495Y001840D01*
X022527Y001777D01*
X022568Y001720D01*
X022618Y001671D01*
X022675Y001629D01*
X022737Y001597D01*
X022804Y001576D01*
X022861Y001567D01*
X022861Y002260D01*
X022957Y002260D01*
X022957Y001567D01*
X023014Y001576D01*
X023081Y001597D01*
X023143Y001629D01*
X023200Y001671D01*
X023250Y001720D01*
X023291Y001777D01*
X023323Y001840D01*
X023345Y001907D01*
X023356Y001976D01*
X023356Y002086D01*
X023594Y001848D01*
X023891Y001848D01*
X024517Y001221D01*
X024609Y001183D01*
X024709Y001183D01*
X029959Y001183D01*
X030059Y001183D01*
X030151Y001221D01*
X030248Y001319D01*
X030344Y001223D01*
X030725Y001223D01*
X030994Y001493D01*
X030994Y001874D01*
X030811Y002056D01*
X030922Y002167D01*
X030991Y002335D01*
X030991Y003032D01*
X030922Y003200D01*
X030793Y003329D01*
X030625Y003398D01*
X030443Y003398D01*
X030275Y003329D01*
X030146Y003200D01*
X030077Y003032D01*
X030077Y002335D01*
X030146Y002167D01*
X030257Y002056D01*
X030074Y001874D01*
X030074Y001852D01*
X030047Y001825D01*
X029906Y001683D01*
X029112Y001683D01*
X029411Y001982D01*
X029443Y001968D01*
X029625Y001968D01*
X029793Y002038D01*
X029922Y002167D01*
X029991Y002335D01*
X029991Y003032D01*
X029922Y003200D01*
X029793Y003329D01*
X029625Y003398D01*
X029443Y003398D01*
X029331Y003352D01*
X029413Y003433D01*
X031884Y003433D01*
X032094Y003223D01*
X032170Y003223D01*
X032146Y003200D01*
X032077Y003032D01*
X032077Y002335D01*
X032146Y002167D01*
X032259Y002054D01*
X032259Y001708D01*
X031635Y001083D01*
X024139Y001083D01*
X024194Y001139D01*
X024194Y001278D01*
X023814Y001278D01*
X023814Y001338D01*
X024194Y001338D01*
X024194Y001478D01*
X023954Y001718D01*
X023814Y001718D01*
X023814Y001339D01*
X023754Y001339D01*
X023754Y001718D01*
X023614Y001718D01*
X023374Y001478D01*
X023374Y001338D01*
X023754Y001338D01*
X023754Y001278D01*
X023374Y001278D01*
X023374Y001139D01*
X023429Y001083D01*
X023383Y001083D01*
X023313Y001153D01*
X023229Y001238D01*
X023119Y001283D01*
X021269Y001283D01*
X021149Y001283D01*
X021039Y001238D01*
X020835Y001033D01*
X018409Y001033D01*
X018619Y001243D01*
X018619Y001624D01*
X018350Y001893D01*
X017969Y001893D01*
X017761Y001685D01*
X017619Y001827D01*
X017619Y002285D01*
X017549Y002454D01*
X017420Y002583D01*
X017251Y002653D01*
X017068Y002653D01*
X016898Y002583D01*
X016769Y002454D01*
X016699Y002285D01*
X016699Y001582D01*
X016745Y001472D01*
X016619Y001598D01*
X016619Y002285D01*
X016549Y002454D01*
X016420Y002583D01*
X016251Y002653D01*
X016113Y002653D01*
X015809Y002958D01*
X015809Y002973D01*
X015850Y002973D01*
X016119Y003243D01*
X016119Y003624D01*
X015850Y003893D01*
X015469Y003893D01*
X015199Y003624D01*
X015199Y003243D01*
X015209Y003233D01*
X015209Y003224D01*
X015209Y003133D01*
X015110Y003133D01*
X014850Y003393D01*
X014469Y003393D01*
X014199Y003124D01*
X014199Y002743D01*
X014469Y002473D01*
X014850Y002473D01*
X014910Y002533D01*
X015385Y002533D01*
X015699Y002219D01*
X015699Y001926D01*
X015276Y001503D01*
X014879Y001503D01*
X015119Y001743D01*
X015119Y002124D01*
X014850Y002393D01*
X014469Y002393D01*
X014409Y002333D01*
X013619Y002333D01*
X013619Y002535D01*
X013549Y002704D01*
X013420Y002833D01*
X013251Y002903D01*
X013068Y002903D01*
X012898Y002833D01*
X012769Y002704D01*
X012699Y002535D01*
X012699Y001832D01*
X012769Y001663D01*
X012898Y001533D01*
X012971Y001503D01*
X009245Y001503D01*
X009197Y001483D01*
X004983Y001483D01*
X003159Y003308D01*
X003159Y005383D01*
X003532Y005383D01*
X003400Y005329D01*
X003271Y005200D01*
X003202Y005032D01*
X003202Y004335D01*
X003271Y004167D01*
X003400Y004038D01*
X003568Y003968D01*
X003650Y003968D01*
X004736Y002882D01*
X004662Y002704D01*
X004662Y001913D01*
X004738Y001730D01*
X004878Y001590D01*
X005060Y001515D01*
X005258Y001515D01*
X005440Y001590D01*
X005580Y001730D01*
X005656Y001913D01*
X005656Y002704D01*
X005580Y002887D01*
X005440Y003026D01*
X005440Y003027D02*
X005379Y003088D01*
X004449Y004018D01*
X004568Y003968D01*
X004750Y003968D01*
X004918Y004038D01*
X005047Y004167D01*
X005116Y004335D01*
X005116Y005032D01*
X005047Y005200D01*
X004918Y005329D01*
X004786Y005383D01*
X004885Y005383D01*
X005212Y005056D01*
X005202Y005032D01*
X005202Y004335D01*
X005271Y004167D01*
X005400Y004038D01*
X005470Y004009D01*
X006429Y003165D01*
X006464Y003129D01*
X006473Y003125D01*
X006481Y003119D01*
X006528Y003103D01*
X006574Y003083D01*
X006584Y003083D01*
X006593Y003080D01*
X006644Y003083D01*
X007699Y003083D01*
X007699Y002993D01*
X007969Y002723D01*
X008350Y002723D01*
X008619Y002993D01*
X008619Y003374D01*
X008350Y003643D01*
X008115Y003643D01*
X008019Y003683D01*
X007395Y003683D01*
X008571Y003683D01*
X008582Y003680D01*
X008620Y003683D01*
X008659Y003683D01*
X008670Y003688D01*
X009171Y003733D01*
X009209Y003733D01*
X009219Y003738D01*
X009231Y003739D01*
X009265Y003757D01*
X009289Y003767D01*
X009166Y003643D01*
X008969Y003643D01*
X008699Y003374D01*
X008699Y002993D01*
X008969Y002723D01*
X009350Y002723D01*
X009619Y002993D01*
X009619Y003333D01*
X009709Y003333D01*
X009801Y003371D01*
X009871Y003442D01*
X009909Y003534D01*
X009909Y003633D01*
X009909Y004034D01*
X009918Y004038D01*
X010047Y004167D01*
X010116Y004335D01*
X010116Y005032D01*
X010047Y005200D01*
X009918Y005329D01*
X009907Y005333D01*
X010411Y005333D01*
X010400Y005329D01*
X010271Y005200D01*
X010202Y005032D01*
X010202Y004335D01*
X010271Y004167D01*
X010400Y004038D01*
X010568Y003968D01*
X010750Y003968D01*
X010869Y004018D01*
X009485Y002633D01*
X006656Y002633D01*
X006656Y002704D01*
X006580Y002887D01*
X006440Y003026D01*
X006258Y003102D01*
X006060Y003102D01*
X005878Y003026D01*
X005738Y002887D01*
X005662Y002704D01*
X005662Y001913D01*
X005738Y001730D01*
X005878Y001590D01*
X006060Y001515D01*
X006258Y001515D01*
X006440Y001590D01*
X006580Y001730D01*
X006656Y001913D01*
X006656Y002033D01*
X009669Y002033D01*
X009779Y002079D01*
X009863Y002163D01*
X011668Y003968D01*
X011750Y003968D01*
X011918Y004038D01*
X012047Y004167D01*
X012116Y004335D01*
X012116Y005032D01*
X012047Y005200D01*
X011918Y005329D01*
X011907Y005333D01*
X012549Y005333D01*
X012503Y005318D01*
X012445Y005289D01*
X012394Y005252D01*
X012348Y005206D01*
X012311Y005154D01*
X012281Y005097D01*
X012262Y005036D01*
X012252Y004973D01*
X012252Y004712D01*
X012630Y004712D01*
X012630Y004655D01*
X012252Y004655D01*
X012252Y004394D01*
X012262Y004330D01*
X012281Y004269D01*
X012311Y004212D01*
X012348Y004160D01*
X012394Y004115D01*
X012445Y004077D01*
X012503Y004048D01*
X012564Y004028D01*
X012627Y004018D01*
X012630Y004018D01*
X012630Y004654D01*
X012688Y004654D01*
X012688Y004018D01*
X012691Y004018D01*
X012754Y004028D01*
X012815Y004048D01*
X012873Y004077D01*
X012924Y004115D01*
X012970Y004160D01*
X013008Y004212D01*
X013037Y004269D01*
X013056Y004330D01*
X013066Y004394D01*
X013066Y004655D01*
X012688Y004655D01*
X012688Y004712D01*
X013066Y004712D01*
X013066Y004973D01*
X013056Y005036D01*
X013037Y005097D01*
X013008Y005154D01*
X012970Y005206D01*
X012924Y005252D01*
X012873Y005289D01*
X012815Y005318D01*
X012769Y005333D01*
X012856Y005333D01*
X013647Y004542D01*
X013644Y004536D01*
X013644Y004331D01*
X013722Y004142D01*
X013867Y003997D01*
X014057Y003918D01*
X014261Y003918D01*
X014451Y003997D01*
X014596Y004142D01*
X014674Y004331D01*
X014674Y004536D01*
X014642Y004613D01*
X015063Y005033D01*
X016509Y005033D01*
X016609Y005033D01*
X016701Y005071D01*
X017301Y005671D01*
X017371Y005742D01*
X017409Y005834D01*
X017409Y010633D01*
X017481Y010633D01*
X017696Y010418D01*
X018122Y010418D01*
X018424Y010720D01*
X018424Y011147D01*
X018122Y011448D01*
X018109Y011448D01*
X018109Y012484D01*
X018109Y013233D01*
X018071Y013325D01*
X018001Y013395D01*
X017409Y013987D01*
X017409Y014033D01*
X017409Y015933D01*
X017409Y015933D01*
X017409Y015934D01*
X017409Y016033D01*
X017409Y017933D01*
X017371Y018025D01*
X017301Y018095D01*
X016766Y018630D01*
X016809Y018673D01*
X016879Y018842D01*
X016879Y019025D01*
X016813Y019183D01*
X017056Y019183D01*
X017947Y018292D01*
X017969Y018270D02*
X017126Y018270D01*
X017225Y018171D02*
X018500Y018171D01*
X018459Y018073D02*
X017323Y018073D01*
X017392Y017974D02*
X018439Y017974D01*
X018439Y017876D02*
X017409Y017876D01*
X017409Y017777D02*
X018466Y017777D01*
X018507Y017678D02*
X017409Y017678D01*
X017409Y017580D02*
X018602Y017580D01*
X018788Y017481D02*
X017409Y017481D01*
X017409Y017383D02*
X018782Y017383D01*
X018599Y017284D02*
X017409Y017284D01*
X017409Y017186D02*
X018506Y017186D01*
X018465Y017087D02*
X017409Y017087D01*
X017409Y016989D02*
X018439Y016989D01*
X018439Y016890D02*
X017409Y016890D01*
X017409Y016792D02*
X018460Y016792D01*
X018501Y016693D02*
X017409Y016693D01*
X017409Y016594D02*
X018587Y016594D01*
X018753Y016496D02*
X017409Y016496D01*
X017409Y016397D02*
X019449Y016397D01*
X019909Y016433D02*
X020809Y015533D01*
X023209Y015533D01*
X023309Y015433D01*
X023859Y015433D01*
X024359Y014933D01*
X024409Y014933D01*
X024409Y014833D01*
X025309Y013933D01*
X027809Y013933D01*
X027959Y014083D01*
X028659Y014083D01*
X029509Y014933D01*
X029534Y014933D01*
X030534Y014933D02*
X030559Y014933D01*
X030559Y013933D01*
X030534Y013933D01*
X030509Y013933D01*
X030409Y014033D01*
X029859Y014033D01*
X029659Y013833D01*
X028109Y013833D01*
X027959Y013683D01*
X024959Y013683D01*
X023709Y014933D01*
X023659Y014933D01*
X023409Y014933D01*
X023059Y015283D01*
X020559Y015283D01*
X020109Y015733D01*
X019359Y015733D01*
X019159Y015933D01*
X018573Y015609D02*
X017409Y015609D01*
X017409Y015511D02*
X018718Y015511D01*
X018808Y015393D02*
X018638Y015323D01*
X018509Y015194D01*
X018439Y015025D01*
X018439Y014842D01*
X018509Y014673D01*
X018638Y014543D01*
X018808Y014473D01*
X019449Y014473D01*
X019449Y014393D01*
X018808Y014393D01*
X018650Y014328D02*
X017409Y014328D01*
X017409Y014229D02*
X018545Y014229D01*
X018483Y014131D02*
X017409Y014131D01*
X017409Y014032D02*
X018442Y014032D01*
X018439Y013934D02*
X017462Y013934D01*
X017561Y013835D02*
X018442Y013835D01*
X018483Y013737D02*
X017659Y013737D01*
X017758Y013638D02*
X018544Y013638D01*
X018648Y013540D02*
X017856Y013540D01*
X017955Y013441D02*
X019998Y013441D01*
X020137Y013343D02*
X019633Y013343D01*
X019759Y013244D02*
X021470Y013244D01*
X021568Y013145D02*
X019829Y013145D01*
X019870Y013047D02*
X021667Y013047D01*
X021766Y012948D02*
X019879Y012948D01*
X020143Y012850D02*
X020675Y012850D01*
X020719Y012893D02*
X020449Y012624D01*
X020449Y012243D01*
X020719Y011973D01*
X021100Y011973D01*
X021369Y012243D01*
X021369Y012624D01*
X021100Y012893D01*
X020719Y012893D01*
X020576Y012751D02*
X020242Y012751D01*
X020340Y012653D02*
X020478Y012653D01*
X020449Y012554D02*
X020369Y012554D01*
X020369Y012456D02*
X020449Y012456D01*
X020449Y012357D02*
X020369Y012357D01*
X020369Y012259D02*
X020449Y012259D01*
X020532Y012160D02*
X020286Y012160D01*
X020384Y012061D02*
X020630Y012061D01*
X020483Y011963D02*
X022751Y011963D01*
X022849Y011864D02*
X020581Y011864D01*
X020680Y011766D02*
X022948Y011766D01*
X023047Y011667D02*
X020779Y011667D01*
X020877Y011569D02*
X023248Y011569D01*
X023347Y011470D02*
X020976Y011470D01*
X021074Y011372D02*
X023445Y011372D01*
X023666Y011273D02*
X021173Y011273D01*
X021271Y011175D02*
X023764Y011175D01*
X023863Y011076D02*
X021370Y011076D01*
X021468Y010978D02*
X023961Y010978D01*
X024060Y010879D02*
X021567Y010879D01*
X021665Y010780D02*
X024158Y010780D01*
X024257Y010682D02*
X021764Y010682D01*
X021863Y010583D02*
X024356Y010583D01*
X024454Y010485D02*
X021961Y010485D01*
X022060Y010386D02*
X026388Y010386D01*
X026298Y010288D02*
X024634Y010288D01*
X024733Y010189D02*
X026259Y010189D01*
X026259Y010091D02*
X024819Y010091D01*
X024819Y009992D02*
X026259Y009992D01*
X026259Y009894D02*
X024819Y009894D01*
X024819Y009795D02*
X026259Y009795D01*
X026259Y009696D02*
X024752Y009696D01*
X024653Y009598D02*
X025499Y009598D01*
X025502Y009598D02*
X025439Y009588D01*
X025378Y009568D01*
X025320Y009539D01*
X025269Y009502D01*
X025223Y009456D01*
X025186Y009404D01*
X025156Y009347D01*
X025137Y009286D01*
X025127Y009223D01*
X025127Y008962D01*
X025505Y008962D01*
X025505Y008905D01*
X025127Y008905D01*
X025127Y008644D01*
X025137Y008580D01*
X025156Y008519D01*
X025186Y008462D01*
X025223Y008410D01*
X025269Y008365D01*
X025320Y008327D01*
X025378Y008298D01*
X025439Y008278D01*
X025502Y008268D01*
X025505Y008268D01*
X025505Y008904D01*
X025563Y008904D01*
X025563Y008268D01*
X025566Y008268D01*
X025629Y008278D01*
X025690Y008298D01*
X025748Y008327D01*
X025799Y008365D01*
X025845Y008410D01*
X025883Y008462D01*
X025912Y008519D01*
X025931Y008580D01*
X025941Y008644D01*
X025941Y008905D01*
X025563Y008905D01*
X025563Y008962D01*
X025941Y008962D01*
X025941Y009223D01*
X025931Y009286D01*
X025912Y009347D01*
X025883Y009404D01*
X025845Y009456D01*
X025799Y009502D01*
X025748Y009539D01*
X025690Y009568D01*
X025629Y009588D01*
X025566Y009598D01*
X025563Y009598D01*
X025505Y009598D01*
X025502Y009598D01*
X025505Y009598D02*
X025505Y008962D01*
X025563Y008962D01*
X025563Y009598D01*
X025569Y009598D02*
X026259Y009598D01*
X026196Y009499D02*
X025802Y009499D01*
X025884Y009401D02*
X026126Y009401D01*
X026085Y009302D02*
X025926Y009302D01*
X025941Y009204D02*
X026077Y009204D01*
X026077Y009105D02*
X025941Y009105D01*
X025941Y009007D02*
X026077Y009007D01*
X026077Y008908D02*
X025563Y008908D01*
X025505Y008908D02*
X024869Y008908D01*
X024869Y008810D02*
X025127Y008810D01*
X025127Y008711D02*
X024885Y008711D01*
X024983Y008612D02*
X025132Y008612D01*
X025159Y008514D02*
X025082Y008514D01*
X025181Y008415D02*
X025220Y008415D01*
X025279Y008317D02*
X025341Y008317D01*
X025378Y008218D02*
X029309Y008218D01*
X029246Y008317D02*
X028822Y008317D01*
X028921Y008415D02*
X029148Y008415D01*
X029106Y008514D02*
X028962Y008514D01*
X028991Y008612D02*
X029077Y008612D01*
X029077Y008711D02*
X028991Y008711D01*
X028991Y008810D02*
X029077Y008810D01*
X029077Y008908D02*
X028991Y008908D01*
X028991Y009007D02*
X029077Y009007D01*
X029077Y009105D02*
X028991Y009105D01*
X028991Y009204D02*
X029077Y009204D01*
X029085Y009302D02*
X028983Y009302D01*
X028980Y009401D02*
X029126Y009401D01*
X029079Y009499D02*
X029196Y009499D01*
X029177Y009598D02*
X029321Y009598D01*
X029159Y009933D02*
X028609Y009383D01*
X028509Y009383D01*
X028509Y008983D01*
X028534Y008933D01*
X028509Y008958D01*
X028077Y009007D02*
X027991Y009007D01*
X027991Y009105D02*
X028077Y009105D01*
X028077Y009204D02*
X027991Y009204D01*
X027991Y009282D02*
X027922Y009450D01*
X027793Y009579D01*
X027625Y009648D01*
X027443Y009648D01*
X027275Y009579D01*
X027146Y009450D01*
X027077Y009282D01*
X027077Y008585D01*
X027146Y008417D01*
X027275Y008288D01*
X027443Y008218D01*
X027625Y008218D01*
X027793Y008288D01*
X027922Y008417D01*
X027991Y008585D01*
X027991Y009282D01*
X027983Y009302D02*
X028085Y009302D01*
X028126Y009401D02*
X027942Y009401D01*
X027872Y009499D02*
X028196Y009499D01*
X028321Y009598D02*
X027747Y009598D01*
X027321Y009598D02*
X026859Y009598D01*
X026859Y009696D02*
X028569Y009696D01*
X028667Y009795D02*
X026859Y009795D01*
X026872Y009499D02*
X027196Y009499D01*
X027126Y009401D02*
X026942Y009401D01*
X026983Y009302D02*
X027085Y009302D01*
X027077Y009204D02*
X026991Y009204D01*
X026991Y009105D02*
X027077Y009105D01*
X027077Y009007D02*
X026991Y009007D01*
X026991Y008908D02*
X027077Y008908D01*
X027077Y008810D02*
X026991Y008810D01*
X026991Y008711D02*
X027077Y008711D01*
X027077Y008612D02*
X026991Y008612D01*
X026962Y008514D02*
X027106Y008514D01*
X027148Y008415D02*
X026921Y008415D01*
X026822Y008317D02*
X027246Y008317D01*
X027822Y008317D02*
X028246Y008317D01*
X028148Y008415D02*
X027921Y008415D01*
X027962Y008514D02*
X028106Y008514D01*
X028077Y008612D02*
X027991Y008612D01*
X027991Y008711D02*
X028077Y008711D01*
X028077Y008810D02*
X027991Y008810D01*
X027991Y008908D02*
X028077Y008908D01*
X028743Y009894D02*
X028766Y009894D01*
X028842Y009992D02*
X028864Y009992D01*
X029159Y009933D02*
X032284Y009933D01*
X031969Y009598D02*
X031747Y009598D01*
X031793Y009579D02*
X031625Y009648D01*
X031443Y009648D01*
X031275Y009579D01*
X031146Y009450D01*
X031077Y009282D01*
X031077Y008585D01*
X031146Y008417D01*
X031275Y008288D01*
X031443Y008218D01*
X031625Y008218D01*
X031793Y008288D01*
X031922Y008417D01*
X031991Y008585D01*
X031991Y009282D01*
X031922Y009450D01*
X031793Y009579D01*
X031872Y009499D02*
X032068Y009499D01*
X032126Y009401D02*
X031942Y009401D01*
X031983Y009302D02*
X032085Y009302D01*
X032077Y009204D02*
X031991Y009204D01*
X031991Y009105D02*
X032077Y009105D01*
X032077Y009007D02*
X031991Y009007D01*
X031991Y008908D02*
X032077Y008908D01*
X032077Y008810D02*
X031991Y008810D01*
X031991Y008711D02*
X032077Y008711D01*
X032077Y008612D02*
X031991Y008612D01*
X031962Y008514D02*
X032106Y008514D01*
X032148Y008415D02*
X031921Y008415D01*
X031822Y008317D02*
X032246Y008317D01*
X032750Y008218D02*
X030809Y008218D01*
X030809Y008120D02*
X032848Y008120D01*
X032947Y008021D02*
X030809Y008021D01*
X030809Y007923D02*
X033045Y007923D01*
X033144Y007824D02*
X032893Y007824D01*
X032991Y007726D02*
X033243Y007726D01*
X032734Y007134D02*
X032609Y007134D01*
X032635Y007233D02*
X032510Y007233D01*
X032707Y007036D02*
X032861Y007036D01*
X032824Y006937D02*
X032744Y006937D01*
X032744Y006839D02*
X032824Y006839D01*
X032792Y006740D02*
X032744Y006740D01*
X032284Y006808D02*
X032259Y006783D01*
X029409Y006783D01*
X028759Y006133D01*
X028559Y006133D01*
X028559Y005683D01*
X028534Y005683D01*
X028077Y005656D02*
X027991Y005656D01*
X027991Y005558D02*
X028077Y005558D01*
X028077Y005459D02*
X027991Y005459D01*
X027991Y005361D02*
X028077Y005361D01*
X027991Y005335D02*
X027922Y005167D01*
X027793Y005038D01*
X027625Y004968D01*
X027443Y004968D01*
X027275Y005038D01*
X027146Y005167D01*
X027077Y005335D01*
X027077Y006032D01*
X027146Y006200D01*
X027275Y006329D01*
X027443Y006398D01*
X027625Y006398D01*
X027793Y006329D01*
X027922Y006200D01*
X027991Y006032D01*
X027991Y005335D01*
X027961Y005262D02*
X028107Y005262D01*
X028149Y005163D02*
X027919Y005163D01*
X027820Y005065D02*
X028248Y005065D01*
X028689Y004966D02*
X024530Y004966D01*
X024431Y005065D02*
X025345Y005065D01*
X025320Y005077D02*
X025378Y005048D01*
X025439Y005028D01*
X025502Y005018D01*
X025505Y005018D01*
X025505Y005654D01*
X025563Y005654D01*
X025563Y005018D01*
X025566Y005018D01*
X025629Y005028D01*
X025690Y005048D01*
X025748Y005077D01*
X025799Y005115D01*
X025845Y005160D01*
X025883Y005212D01*
X025912Y005269D01*
X025931Y005330D01*
X025941Y005394D01*
X025941Y005655D01*
X025563Y005655D01*
X025563Y005712D01*
X025941Y005712D01*
X025941Y005973D01*
X025931Y006036D01*
X025912Y006097D01*
X025883Y006154D01*
X025845Y006206D01*
X025799Y006252D01*
X025748Y006289D01*
X025690Y006318D01*
X025629Y006338D01*
X025566Y006348D01*
X025563Y006348D01*
X025563Y005712D01*
X025505Y005712D01*
X025505Y005655D01*
X025127Y005655D01*
X025127Y005394D01*
X025137Y005330D01*
X025156Y005269D01*
X025186Y005212D01*
X025223Y005160D01*
X025269Y005115D01*
X025320Y005077D01*
X025221Y005163D02*
X024332Y005163D01*
X024234Y005262D02*
X025160Y005262D01*
X025132Y005361D02*
X024135Y005361D01*
X024037Y005459D02*
X025127Y005459D01*
X025127Y005558D02*
X023938Y005558D01*
X023840Y005656D02*
X025505Y005656D01*
X025505Y005712D02*
X025127Y005712D01*
X025127Y005973D01*
X025137Y006036D01*
X025156Y006097D01*
X025186Y006154D01*
X025223Y006206D01*
X025269Y006252D01*
X025320Y006289D01*
X025378Y006318D01*
X025439Y006338D01*
X025502Y006348D01*
X025505Y006348D01*
X025505Y005712D01*
X025505Y005755D02*
X025563Y005755D01*
X025563Y005853D02*
X025505Y005853D01*
X025505Y005952D02*
X025563Y005952D01*
X025563Y006050D02*
X025505Y006050D01*
X025505Y006149D02*
X025563Y006149D01*
X025563Y006247D02*
X025505Y006247D01*
X025505Y006346D02*
X025563Y006346D01*
X025581Y006346D02*
X026259Y006346D01*
X026259Y006445D02*
X024228Y006445D01*
X024319Y006353D02*
X024079Y006593D01*
X023939Y006593D01*
X023939Y006214D01*
X023879Y006214D01*
X023879Y006593D01*
X023739Y006593D01*
X023499Y006353D01*
X023499Y006213D01*
X023879Y006213D01*
X023879Y006153D01*
X023939Y006153D01*
X023939Y005773D01*
X024079Y005773D01*
X024319Y006014D01*
X024319Y006153D01*
X023939Y006153D01*
X023939Y006213D01*
X024319Y006213D01*
X024319Y006353D01*
X024319Y006346D02*
X025487Y006346D01*
X025264Y006247D02*
X024319Y006247D01*
X024319Y006149D02*
X025183Y006149D01*
X025141Y006050D02*
X024319Y006050D01*
X024257Y005952D02*
X025127Y005952D01*
X025127Y005853D02*
X024159Y005853D01*
X023939Y005853D02*
X023879Y005853D01*
X023879Y005773D02*
X023879Y006153D01*
X023499Y006153D01*
X023499Y006014D01*
X023739Y005773D01*
X023879Y005773D01*
X023741Y005755D02*
X025127Y005755D01*
X025505Y005558D02*
X025563Y005558D01*
X025563Y005656D02*
X026077Y005656D01*
X026077Y005558D02*
X025941Y005558D01*
X025941Y005459D02*
X026077Y005459D01*
X026077Y005361D02*
X025936Y005361D01*
X025908Y005262D02*
X026107Y005262D01*
X026149Y005163D02*
X025847Y005163D01*
X025723Y005065D02*
X026248Y005065D01*
X026820Y005065D02*
X027248Y005065D01*
X027149Y005163D02*
X026919Y005163D01*
X026961Y005262D02*
X027107Y005262D01*
X027077Y005361D02*
X026991Y005361D01*
X026991Y005459D02*
X027077Y005459D01*
X027077Y005558D02*
X026991Y005558D01*
X026991Y005656D02*
X027077Y005656D01*
X027077Y005755D02*
X026991Y005755D01*
X026991Y005853D02*
X027077Y005853D01*
X027077Y005952D02*
X026991Y005952D01*
X026984Y006050D02*
X027084Y006050D01*
X027125Y006149D02*
X026943Y006149D01*
X026874Y006247D02*
X027194Y006247D01*
X027317Y006346D02*
X026859Y006346D01*
X026859Y006445D02*
X028717Y006445D01*
X028815Y006543D02*
X026859Y006543D01*
X026859Y006642D02*
X028914Y006642D01*
X029012Y006740D02*
X026859Y006740D01*
X026259Y006740D02*
X022906Y006740D01*
X022807Y006839D02*
X026259Y006839D01*
X026259Y006937D02*
X022709Y006937D01*
X022509Y006783D02*
X022359Y006783D01*
X021209Y007933D01*
X020659Y007933D01*
X019659Y008933D01*
X019159Y008933D01*
X018710Y008514D02*
X017409Y008514D01*
X017409Y008612D02*
X018569Y008612D01*
X018493Y008711D02*
X017409Y008711D01*
X017409Y008810D02*
X018452Y008810D01*
X018439Y008908D02*
X017409Y008908D01*
X017409Y009007D02*
X018439Y009007D01*
X018472Y009105D02*
X017409Y009105D01*
X017409Y009204D02*
X018519Y009204D01*
X018617Y009302D02*
X017409Y009302D01*
X017409Y009401D02*
X020588Y009401D01*
X020627Y009302D02*
X020191Y009302D01*
X020289Y009204D02*
X020529Y009204D01*
X020449Y009105D02*
X020369Y009105D01*
X020369Y009007D02*
X020449Y009007D01*
X020449Y008908D02*
X020369Y008908D01*
X020369Y008810D02*
X020449Y008810D01*
X020481Y008711D02*
X020337Y008711D01*
X020333Y008612D02*
X020579Y008612D01*
X020678Y008514D02*
X020432Y008514D01*
X020531Y008415D02*
X021924Y008415D01*
X022022Y008317D02*
X020629Y008317D01*
X020728Y008218D02*
X022125Y008218D01*
X022199Y008120D02*
X021376Y008120D01*
X021475Y008021D02*
X022199Y008021D01*
X022269Y007923D02*
X021573Y007923D01*
X021672Y007824D02*
X022368Y007824D01*
X022466Y007726D02*
X021770Y007726D01*
X021869Y007627D02*
X024112Y007627D01*
X024210Y007529D02*
X021967Y007529D01*
X022066Y007430D02*
X024309Y007430D01*
X024407Y007331D02*
X022164Y007331D01*
X022263Y007233D02*
X024506Y007233D01*
X024659Y007433D02*
X023909Y008183D01*
X023659Y008183D01*
X023659Y008933D01*
X022409Y008933D01*
X019609Y011733D01*
X019359Y011733D01*
X019159Y011933D01*
X018613Y011569D02*
X018109Y011569D01*
X018109Y011667D02*
X018515Y011667D01*
X018471Y011766D02*
X018109Y011766D01*
X018109Y011864D02*
X018439Y011864D01*
X018439Y011963D02*
X018109Y011963D01*
X018109Y012061D02*
X018454Y012061D01*
X018495Y012160D02*
X018109Y012160D01*
X018109Y012259D02*
X018574Y012259D01*
X018720Y012357D02*
X018109Y012357D01*
X018109Y012456D02*
X019449Y012456D01*
X019909Y012433D02*
X019909Y012183D01*
X022659Y009433D01*
X023859Y009433D01*
X024359Y008933D01*
X024409Y008933D01*
X024309Y008933D01*
X025309Y007933D01*
X029559Y007933D01*
X029559Y008933D01*
X029534Y008933D01*
X029991Y008908D02*
X030077Y008908D01*
X030077Y008810D02*
X029991Y008810D01*
X029991Y008711D02*
X030077Y008711D01*
X030077Y008612D02*
X029991Y008612D01*
X029962Y008514D02*
X030106Y008514D01*
X030148Y008415D02*
X029921Y008415D01*
X029822Y008317D02*
X030246Y008317D01*
X030309Y008218D02*
X029809Y008218D01*
X029809Y008120D02*
X030309Y008120D01*
X030309Y008021D02*
X029809Y008021D01*
X029059Y007683D02*
X028809Y007433D01*
X024659Y007433D01*
X024013Y007726D02*
X023852Y007726D01*
X023466Y007726D02*
X022852Y007726D01*
X022950Y007824D02*
X023368Y007824D01*
X023269Y007923D02*
X023049Y007923D01*
X023119Y008021D02*
X023199Y008021D01*
X023199Y008120D02*
X023119Y008120D01*
X023119Y008218D02*
X023199Y008218D01*
X023199Y008317D02*
X023119Y008317D01*
X023078Y008415D02*
X023241Y008415D01*
X023339Y008514D02*
X022979Y008514D01*
X022880Y008612D02*
X023329Y008612D01*
X022659Y008183D02*
X022409Y008433D01*
X022259Y008433D01*
X021709Y008983D01*
X020909Y008983D01*
X020909Y008933D01*
X020909Y008983D02*
X020909Y009433D01*
X019409Y010933D01*
X019159Y010933D01*
X018588Y011273D02*
X018298Y011273D01*
X018396Y011175D02*
X018501Y011175D01*
X018460Y011076D02*
X018424Y011076D01*
X018424Y010978D02*
X018439Y010978D01*
X018439Y010879D02*
X018424Y010879D01*
X018424Y010780D02*
X018464Y010780D01*
X018505Y010682D02*
X018386Y010682D01*
X018287Y010583D02*
X018599Y010583D01*
X018780Y010485D02*
X018189Y010485D01*
X018102Y010398D02*
X017939Y010398D01*
X017939Y009964D01*
X017879Y009964D01*
X017879Y010398D01*
X017716Y010398D01*
X017444Y010126D01*
X017444Y009963D01*
X017879Y009963D01*
X017879Y009903D01*
X017939Y009903D01*
X017939Y009468D01*
X018102Y009468D01*
X018374Y009741D01*
X018374Y009903D01*
X017939Y009903D01*
X017939Y009963D01*
X018374Y009963D01*
X018374Y010126D01*
X018102Y010398D01*
X018114Y010386D02*
X019603Y010386D01*
X019576Y010313D02*
X019515Y010333D01*
X019451Y010343D01*
X019189Y010343D01*
X019189Y009964D01*
X019129Y009964D01*
X019129Y010343D01*
X018867Y010343D01*
X018803Y010333D01*
X018742Y010313D01*
X018684Y010284D01*
X018632Y010246D01*
X018586Y010200D01*
X018548Y010148D01*
X018519Y010091D01*
X018499Y010029D01*
X018489Y009966D01*
X018489Y009963D01*
X019129Y009963D01*
X019129Y009903D01*
X019189Y009903D01*
X019189Y009523D01*
X019451Y009523D01*
X019515Y009533D01*
X019576Y009553D01*
X019634Y009583D01*
X019686Y009621D01*
X019732Y009666D01*
X019770Y009718D01*
X019799Y009776D01*
X019819Y009837D01*
X019829Y009901D01*
X019829Y009903D01*
X019189Y009903D01*
X019189Y009963D01*
X019829Y009963D01*
X019829Y009966D01*
X019819Y010029D01*
X019799Y010091D01*
X019770Y010148D01*
X019732Y010200D01*
X019686Y010246D01*
X019634Y010284D01*
X019576Y010313D01*
X019627Y010288D02*
X019701Y010288D01*
X019740Y010189D02*
X019800Y010189D01*
X019799Y010091D02*
X019898Y010091D01*
X019825Y009992D02*
X019997Y009992D01*
X020095Y009894D02*
X019828Y009894D01*
X019805Y009795D02*
X020194Y009795D01*
X020292Y009696D02*
X019754Y009696D01*
X019655Y009598D02*
X020391Y009598D01*
X020490Y009499D02*
X018133Y009499D01*
X018231Y009598D02*
X018663Y009598D01*
X018684Y009583D02*
X018742Y009553D01*
X018803Y009533D01*
X018867Y009523D01*
X019129Y009523D01*
X019129Y009903D01*
X018489Y009903D01*
X018489Y009901D01*
X018499Y009837D01*
X018519Y009776D01*
X018548Y009718D01*
X018586Y009666D01*
X018632Y009621D01*
X018684Y009583D01*
X018564Y009696D02*
X018330Y009696D01*
X018374Y009795D02*
X018513Y009795D01*
X018490Y009894D02*
X018374Y009894D01*
X018374Y009992D02*
X018493Y009992D01*
X018519Y010091D02*
X018374Y010091D01*
X018311Y010189D02*
X018578Y010189D01*
X018691Y010288D02*
X018212Y010288D01*
X017939Y010288D02*
X017879Y010288D01*
X017879Y010386D02*
X017939Y010386D01*
X017939Y010189D02*
X017879Y010189D01*
X017879Y010091D02*
X017939Y010091D01*
X017939Y009992D02*
X017879Y009992D01*
X017879Y009903D02*
X017444Y009903D01*
X017444Y009741D01*
X017716Y009468D01*
X017879Y009468D01*
X017879Y009903D01*
X017879Y009894D02*
X017939Y009894D01*
X017939Y009795D02*
X017879Y009795D01*
X017879Y009696D02*
X017939Y009696D01*
X017939Y009598D02*
X017879Y009598D01*
X017879Y009499D02*
X017939Y009499D01*
X017685Y009499D02*
X017409Y009499D01*
X017409Y009598D02*
X017587Y009598D01*
X017488Y009696D02*
X017409Y009696D01*
X017409Y009795D02*
X017444Y009795D01*
X017444Y009894D02*
X017409Y009894D01*
X017409Y009992D02*
X017444Y009992D01*
X017444Y010091D02*
X017409Y010091D01*
X017409Y010189D02*
X017507Y010189D01*
X017409Y010288D02*
X017606Y010288D01*
X017704Y010386D02*
X017409Y010386D01*
X017409Y010485D02*
X017629Y010485D01*
X017531Y010583D02*
X017409Y010583D01*
X017159Y010883D02*
X017859Y010883D01*
X017909Y010933D01*
X017859Y010933D01*
X017859Y012533D01*
X018109Y012554D02*
X018628Y012554D01*
X018529Y012653D02*
X018109Y012653D01*
X018109Y012751D02*
X018477Y012751D01*
X018439Y012850D02*
X018109Y012850D01*
X018109Y012948D02*
X018439Y012948D01*
X018448Y013047D02*
X018109Y013047D01*
X018109Y013145D02*
X018489Y013145D01*
X018559Y013244D02*
X018105Y013244D01*
X018053Y013343D02*
X018685Y013343D01*
X019159Y012933D02*
X019409Y012933D01*
X019909Y012433D01*
X021143Y012850D02*
X021864Y012850D01*
X021963Y012751D02*
X021242Y012751D01*
X021340Y012653D02*
X022061Y012653D01*
X022160Y012554D02*
X021369Y012554D01*
X021369Y012456D02*
X022258Y012456D01*
X022357Y012357D02*
X021369Y012357D01*
X021369Y012259D02*
X022455Y012259D01*
X022554Y012160D02*
X021286Y012160D01*
X021188Y012061D02*
X022652Y012061D01*
X023234Y012850D02*
X023249Y012850D01*
X023249Y012948D02*
X023120Y012948D01*
X023005Y013047D02*
X023318Y013047D01*
X023416Y013145D02*
X022891Y013145D01*
X022777Y013244D02*
X024645Y013244D01*
X024652Y013145D02*
X026947Y013145D01*
X026848Y013047D02*
X024750Y013047D01*
X024819Y012948D02*
X026750Y012948D01*
X026651Y012850D02*
X024819Y012850D01*
X024819Y012751D02*
X026422Y012751D01*
X026305Y012653D02*
X024819Y012653D01*
X024735Y012554D02*
X026264Y012554D01*
X026259Y012456D02*
X025653Y012456D01*
X025563Y012456D02*
X025505Y012456D01*
X025505Y012473D02*
X025502Y012473D01*
X025439Y012463D01*
X025378Y012443D01*
X025320Y012414D01*
X025269Y012377D01*
X025223Y012331D01*
X025186Y012279D01*
X025156Y012222D01*
X025137Y012161D01*
X025127Y012098D01*
X025127Y011837D01*
X025505Y011837D01*
X025505Y012473D01*
X025415Y012456D02*
X024636Y012456D01*
X024439Y012456D02*
X024379Y012456D01*
X024379Y012554D02*
X024439Y012554D01*
X024439Y012653D02*
X024379Y012653D01*
X024379Y012751D02*
X024439Y012751D01*
X024379Y012778D02*
X024069Y012778D01*
X023689Y012778D01*
X023689Y012838D01*
X024069Y012838D01*
X024379Y012838D01*
X024379Y012778D01*
X024379Y012850D02*
X024439Y012850D01*
X024439Y012948D02*
X024379Y012948D01*
X024379Y013047D02*
X024439Y013047D01*
X024439Y013145D02*
X024379Y013145D01*
X024166Y013145D02*
X023902Y013145D01*
X024000Y013047D02*
X024068Y013047D01*
X023689Y013047D02*
X023629Y013047D01*
X023629Y013145D02*
X023689Y013145D01*
X023689Y012948D02*
X023629Y012948D01*
X023629Y012850D02*
X023689Y012850D01*
X023985Y012554D02*
X024083Y012554D01*
X024040Y012456D02*
X024182Y012456D01*
X024139Y012357D02*
X025249Y012357D01*
X025175Y012259D02*
X024609Y012259D01*
X024708Y012160D02*
X025136Y012160D01*
X025127Y012061D02*
X024806Y012061D01*
X024869Y011963D02*
X025127Y011963D01*
X025127Y011864D02*
X024869Y011864D01*
X024869Y011766D02*
X025127Y011766D01*
X025127Y011667D02*
X024869Y011667D01*
X024927Y011569D02*
X025127Y011569D01*
X025134Y011470D02*
X025026Y011470D01*
X025124Y011372D02*
X025168Y011372D01*
X025223Y011273D02*
X025236Y011273D01*
X025833Y011273D02*
X026165Y011273D01*
X026113Y011372D02*
X025900Y011372D01*
X025934Y011470D02*
X026077Y011470D01*
X026077Y011569D02*
X025941Y011569D01*
X025941Y011667D02*
X026077Y011667D01*
X026077Y011766D02*
X025941Y011766D01*
X025941Y011864D02*
X026077Y011864D01*
X026077Y011963D02*
X025941Y011963D01*
X025941Y012061D02*
X026077Y012061D01*
X026078Y012160D02*
X025932Y012160D01*
X025893Y012259D02*
X026119Y012259D01*
X026178Y012357D02*
X025819Y012357D01*
X025563Y012357D02*
X025505Y012357D01*
X025505Y012259D02*
X025563Y012259D01*
X025563Y012160D02*
X025505Y012160D01*
X025505Y012061D02*
X025563Y012061D01*
X025563Y011963D02*
X025505Y011963D01*
X025505Y011864D02*
X025563Y011864D01*
X024809Y013433D02*
X024059Y014183D01*
X022359Y014183D01*
X021959Y014583D01*
X020909Y014583D01*
X020909Y014558D01*
X021231Y014229D02*
X021959Y014229D01*
X021861Y014328D02*
X021329Y014328D01*
X021132Y014131D02*
X022058Y014131D01*
X022157Y014032D02*
X021864Y014032D01*
X021975Y013934D02*
X022308Y013934D01*
X022204Y013737D02*
X024152Y013737D01*
X024054Y013835D02*
X022090Y013835D01*
X022319Y013638D02*
X024251Y013638D01*
X024349Y013540D02*
X022433Y013540D01*
X022548Y013441D02*
X024448Y013441D01*
X024546Y013343D02*
X022662Y013343D01*
X022371Y014525D02*
X023417Y014525D01*
X023318Y014624D02*
X022272Y014624D01*
X022174Y014722D02*
X023220Y014722D01*
X023168Y014821D02*
X022039Y014821D01*
X020373Y015116D02*
X019841Y015116D01*
X019809Y015194D02*
X019680Y015323D01*
X019511Y015393D01*
X018808Y015393D01*
X018629Y015313D02*
X017409Y015313D01*
X017409Y015215D02*
X018530Y015215D01*
X018477Y015116D02*
X017409Y015116D01*
X017409Y015018D02*
X018439Y015018D01*
X018439Y014919D02*
X017409Y014919D01*
X017409Y014821D02*
X018448Y014821D01*
X018489Y014722D02*
X017409Y014722D01*
X017409Y014624D02*
X018558Y014624D01*
X018683Y014525D02*
X017409Y014525D01*
X017409Y014427D02*
X019449Y014427D01*
X019909Y014533D02*
X019909Y014558D01*
X019909Y014583D01*
X019559Y014933D01*
X019159Y014933D01*
X019689Y015313D02*
X020175Y015313D01*
X020077Y015412D02*
X017409Y015412D01*
X017409Y015708D02*
X018495Y015708D01*
X018454Y015806D02*
X017409Y015806D01*
X017409Y015905D02*
X018439Y015905D01*
X018439Y016003D02*
X017409Y016003D01*
X017409Y016102D02*
X018471Y016102D01*
X018515Y016200D02*
X017409Y016200D01*
X017409Y016299D02*
X018614Y016299D01*
X019159Y016933D02*
X019409Y016933D01*
X019909Y016433D01*
X020369Y016397D02*
X020449Y016397D01*
X020449Y016299D02*
X020397Y016299D01*
X020369Y016496D02*
X020449Y016496D01*
X020449Y016594D02*
X020369Y016594D01*
X020300Y016693D02*
X020518Y016693D01*
X020617Y016792D02*
X020201Y016792D01*
X020103Y016890D02*
X020715Y016890D01*
X021103Y016890D02*
X021149Y016890D01*
X021201Y016792D02*
X021247Y016792D01*
X021300Y016693D02*
X021346Y016693D01*
X021369Y016594D02*
X021444Y016594D01*
X021369Y016496D02*
X021543Y016496D01*
X021641Y016397D02*
X021369Y016397D01*
X021369Y016299D02*
X021740Y016299D01*
X021909Y016483D02*
X022309Y016483D01*
X022409Y016383D01*
X023009Y016383D01*
X023659Y017033D01*
X023659Y017058D01*
X023559Y017183D01*
X023809Y017183D01*
X024309Y016683D01*
X026209Y016683D01*
X026459Y016933D01*
X030459Y016933D01*
X030534Y016808D01*
X030509Y016833D01*
X030459Y016833D01*
X030459Y016933D01*
X030459Y017033D01*
X030909Y017483D01*
X031009Y017483D01*
X031009Y017933D01*
X031034Y017933D01*
X032034Y017933D02*
X032059Y017933D01*
X032059Y017333D01*
X031534Y016808D01*
X033409Y016933D02*
X033409Y017404D01*
X033422Y017417D01*
X033491Y017585D01*
X033491Y018282D01*
X033422Y018450D01*
X033359Y018513D01*
X033359Y018924D01*
X033359Y019033D01*
X036685Y019033D01*
X037317Y018401D01*
X037287Y018329D01*
X037287Y017538D01*
X037363Y017355D01*
X037503Y017215D01*
X037685Y017140D01*
X037883Y017140D01*
X038065Y017215D01*
X038205Y017355D01*
X038281Y017538D01*
X038281Y018329D01*
X038205Y018512D01*
X038065Y018651D01*
X037883Y018727D01*
X037840Y018727D01*
X036979Y019588D01*
X036869Y019633D01*
X036749Y019633D01*
X030763Y019633D01*
X030419Y019762D01*
X030369Y019783D01*
X030363Y019783D01*
X030359Y019785D01*
X030304Y019783D01*
X028764Y019783D01*
X028710Y019785D01*
X028705Y019783D01*
X028699Y019783D01*
X028649Y019762D01*
X028505Y019708D01*
X026999Y019708D01*
X026889Y019663D01*
X026805Y019578D01*
X026759Y019468D01*
X026759Y019349D01*
X026759Y018563D01*
X026646Y018450D01*
X026577Y018282D01*
X026577Y017585D01*
X026639Y017433D01*
X026361Y017433D01*
X026383Y017462D01*
X026412Y017519D01*
X026431Y017580D01*
X026579Y017580D01*
X026577Y017678D02*
X026441Y017678D01*
X026441Y017644D02*
X026441Y017905D01*
X026063Y017905D01*
X026063Y017962D01*
X026441Y017962D01*
X026441Y018223D01*
X026431Y018286D01*
X026412Y018347D01*
X026383Y018404D01*
X026345Y018456D01*
X026299Y018502D01*
X026248Y018539D01*
X026190Y018568D01*
X026129Y018588D01*
X026066Y018598D01*
X026063Y018598D01*
X026063Y017962D01*
X026005Y017962D01*
X026005Y017905D01*
X025627Y017905D01*
X025627Y017644D01*
X025637Y017580D01*
X025516Y017580D01*
X025637Y017580D02*
X025656Y017519D01*
X025686Y017462D01*
X025707Y017433D01*
X025663Y017433D01*
X025034Y018062D01*
X025034Y018583D01*
X024958Y018767D01*
X024817Y018907D01*
X024634Y018983D01*
X024484Y018983D01*
X024619Y019118D01*
X024619Y019499D01*
X024350Y019768D01*
X023969Y019768D01*
X023784Y019583D01*
X021576Y019583D01*
X020883Y019679D01*
X020849Y019688D01*
X020834Y019686D01*
X020819Y019688D01*
X020785Y019679D01*
X020750Y019674D01*
X020737Y019666D01*
X020723Y019663D01*
X020695Y019642D01*
X020290Y019403D01*
X020156Y019337D01*
X020100Y019393D01*
X019719Y019393D01*
X019658Y019332D01*
X019511Y019393D01*
X018808Y019393D01*
X018638Y019323D01*
X018509Y019194D01*
X018439Y019025D01*
X018439Y018842D01*
X018505Y018683D01*
X018263Y018683D01*
X017301Y019645D01*
X017209Y019683D01*
X017109Y019683D01*
X016685Y019683D01*
X016499Y019868D01*
X040279Y019868D01*
X040279Y000683D01*
X032083Y000683D01*
X032683Y001283D01*
X037549Y001283D01*
X037669Y001283D01*
X037779Y001329D01*
X038279Y001829D01*
X038363Y001913D01*
X038409Y002024D01*
X038409Y004524D01*
X038409Y004643D01*
X038409Y006343D01*
X038363Y006453D01*
X038283Y006533D01*
X038363Y006613D01*
X038409Y006724D01*
X038409Y006843D01*
X038409Y009593D01*
X038363Y009703D01*
X038279Y009788D01*
X037683Y010383D01*
X038169Y010383D01*
X038279Y010429D01*
X038363Y010513D01*
X038409Y010624D01*
X038409Y010743D01*
X038409Y012493D01*
X038363Y012603D01*
X038279Y012688D01*
X037683Y013283D01*
X038169Y013283D01*
X038279Y013329D01*
X038363Y013413D01*
X038409Y013524D01*
X038409Y013643D01*
X038409Y015593D01*
X038363Y015703D01*
X038279Y015788D01*
X037179Y016888D01*
X037069Y016933D01*
X036949Y016933D01*
X033409Y016933D01*
X033409Y016989D02*
X040279Y016989D01*
X040279Y017087D02*
X033409Y017087D01*
X033409Y017186D02*
X036574Y017186D01*
X036503Y017215D02*
X036685Y017140D01*
X036883Y017140D01*
X037065Y017215D01*
X037205Y017355D01*
X037281Y017538D01*
X037281Y018329D01*
X037205Y018512D01*
X037065Y018651D01*
X036883Y018727D01*
X036685Y018727D01*
X036503Y018651D01*
X036363Y018512D01*
X036287Y018329D01*
X036287Y018233D01*
X035491Y018233D01*
X035491Y018282D01*
X035422Y018450D01*
X035293Y018579D01*
X035125Y018648D01*
X034943Y018648D01*
X034775Y018579D01*
X034646Y018450D01*
X034577Y018282D01*
X034577Y017585D01*
X034646Y017417D01*
X034775Y017288D01*
X034943Y017218D01*
X035125Y017218D01*
X035293Y017288D01*
X035422Y017417D01*
X035491Y017585D01*
X035491Y017633D01*
X036287Y017633D01*
X036287Y017538D01*
X036363Y017355D01*
X036503Y017215D01*
X036434Y017284D02*
X035284Y017284D01*
X035388Y017383D02*
X036351Y017383D01*
X036311Y017481D02*
X035449Y017481D01*
X035489Y017580D02*
X036287Y017580D01*
X036994Y017186D02*
X037574Y017186D01*
X037434Y017284D02*
X037134Y017284D01*
X037217Y017383D02*
X037351Y017383D01*
X037311Y017481D02*
X037258Y017481D01*
X037281Y017580D02*
X037287Y017580D01*
X037281Y017678D02*
X037287Y017678D01*
X037281Y017777D02*
X037287Y017777D01*
X037281Y017876D02*
X037287Y017876D01*
X037281Y017974D02*
X037287Y017974D01*
X037281Y018073D02*
X037287Y018073D01*
X037281Y018171D02*
X037287Y018171D01*
X037281Y018270D02*
X037287Y018270D01*
X037303Y018368D02*
X037265Y018368D01*
X037251Y018467D02*
X037224Y018467D01*
X037152Y018565D02*
X037153Y018565D01*
X037054Y018664D02*
X037035Y018664D01*
X036956Y018762D02*
X033359Y018762D01*
X033359Y018664D02*
X036533Y018664D01*
X036417Y018565D02*
X035306Y018565D01*
X035405Y018467D02*
X036344Y018467D01*
X036303Y018368D02*
X035456Y018368D01*
X035491Y018270D02*
X036287Y018270D01*
X036857Y018861D02*
X033359Y018861D01*
X033359Y018960D02*
X036759Y018960D01*
X037311Y019255D02*
X038570Y019255D01*
X038529Y019157D02*
X037410Y019157D01*
X037509Y019058D02*
X038507Y019058D01*
X038507Y019105D02*
X038507Y018770D01*
X038635Y018461D01*
X038872Y018225D01*
X039181Y018097D01*
X039515Y018097D01*
X039824Y018225D01*
X040061Y018461D01*
X040189Y018770D01*
X040189Y019105D01*
X040061Y019413D01*
X039824Y019650D01*
X039515Y019778D01*
X039181Y019778D01*
X038872Y019650D01*
X038635Y019413D01*
X038507Y019105D01*
X038507Y018960D02*
X037607Y018960D01*
X037706Y018861D02*
X038507Y018861D01*
X038511Y018762D02*
X037804Y018762D01*
X038035Y018664D02*
X038551Y018664D01*
X038592Y018565D02*
X038152Y018565D01*
X038224Y018467D02*
X038633Y018467D01*
X038728Y018368D02*
X038265Y018368D01*
X038281Y018270D02*
X038827Y018270D01*
X039001Y018171D02*
X038281Y018171D01*
X038281Y018073D02*
X040279Y018073D01*
X040279Y018171D02*
X039695Y018171D01*
X039869Y018270D02*
X040279Y018270D01*
X040279Y018368D02*
X039968Y018368D01*
X040063Y018467D02*
X040279Y018467D01*
X040279Y018565D02*
X040104Y018565D01*
X040145Y018664D02*
X040279Y018664D01*
X040279Y018762D02*
X040185Y018762D01*
X040189Y018861D02*
X040279Y018861D01*
X040279Y018960D02*
X040189Y018960D01*
X040189Y019058D02*
X040279Y019058D01*
X040279Y019157D02*
X040167Y019157D01*
X040126Y019255D02*
X040279Y019255D01*
X040279Y019354D02*
X040085Y019354D01*
X040022Y019452D02*
X040279Y019452D01*
X040279Y019551D02*
X039923Y019551D01*
X039825Y019649D02*
X040279Y019649D01*
X040279Y019748D02*
X039588Y019748D01*
X039108Y019748D02*
X030458Y019748D01*
X030721Y019649D02*
X038871Y019649D01*
X038773Y019551D02*
X037016Y019551D01*
X037114Y019452D02*
X038674Y019452D01*
X038611Y019354D02*
X037213Y019354D01*
X038281Y017974D02*
X040279Y017974D01*
X040279Y017876D02*
X038281Y017876D01*
X038281Y017777D02*
X040279Y017777D01*
X040279Y017678D02*
X038281Y017678D01*
X038281Y017580D02*
X040279Y017580D01*
X040279Y017481D02*
X038258Y017481D01*
X038217Y017383D02*
X040279Y017383D01*
X040279Y017284D02*
X038134Y017284D01*
X037994Y017186D02*
X040279Y017186D01*
X040279Y016890D02*
X037173Y016890D01*
X037275Y016792D02*
X040279Y016792D01*
X040279Y016693D02*
X037374Y016693D01*
X037472Y016594D02*
X040279Y016594D01*
X040279Y016496D02*
X037571Y016496D01*
X037669Y016397D02*
X040279Y016397D01*
X040279Y016299D02*
X037768Y016299D01*
X037866Y016200D02*
X040279Y016200D01*
X040279Y016102D02*
X037965Y016102D01*
X038063Y016003D02*
X040279Y016003D01*
X040279Y015905D02*
X038162Y015905D01*
X038261Y015806D02*
X040279Y015806D01*
X040279Y015708D02*
X038359Y015708D01*
X038402Y015609D02*
X040279Y015609D01*
X040279Y015511D02*
X038409Y015511D01*
X038409Y015412D02*
X040279Y015412D01*
X040279Y015313D02*
X038409Y015313D01*
X038409Y015215D02*
X040279Y015215D01*
X040279Y015116D02*
X038409Y015116D01*
X038409Y015018D02*
X040279Y015018D01*
X040279Y014919D02*
X038409Y014919D01*
X038409Y014821D02*
X040279Y014821D01*
X040279Y014722D02*
X038409Y014722D01*
X038409Y014624D02*
X040279Y014624D01*
X040279Y014525D02*
X038409Y014525D01*
X038409Y014427D02*
X040279Y014427D01*
X040279Y014328D02*
X038409Y014328D01*
X038409Y014229D02*
X040279Y014229D01*
X040279Y014131D02*
X038409Y014131D01*
X038409Y014032D02*
X040279Y014032D01*
X040279Y013934D02*
X038409Y013934D01*
X038409Y013835D02*
X040279Y013835D01*
X040279Y013737D02*
X038409Y013737D01*
X038409Y013638D02*
X040279Y013638D01*
X040279Y013540D02*
X038409Y013540D01*
X038375Y013441D02*
X040279Y013441D01*
X040279Y013343D02*
X038292Y013343D01*
X037920Y013047D02*
X040279Y013047D01*
X040279Y013145D02*
X037821Y013145D01*
X037723Y013244D02*
X040279Y013244D01*
X040279Y012948D02*
X038018Y012948D01*
X038117Y012850D02*
X040279Y012850D01*
X040279Y012751D02*
X038215Y012751D01*
X038314Y012653D02*
X040279Y012653D01*
X040279Y012554D02*
X038384Y012554D01*
X038409Y012456D02*
X040279Y012456D01*
X040279Y012357D02*
X038409Y012357D01*
X038409Y012259D02*
X040279Y012259D01*
X040279Y012160D02*
X038409Y012160D01*
X038409Y012061D02*
X040279Y012061D01*
X040279Y011963D02*
X038409Y011963D01*
X038409Y011864D02*
X040279Y011864D01*
X040279Y011766D02*
X038409Y011766D01*
X038409Y011667D02*
X040279Y011667D01*
X040279Y011569D02*
X038409Y011569D01*
X038409Y011470D02*
X040279Y011470D01*
X040279Y011372D02*
X038409Y011372D01*
X038409Y011273D02*
X040279Y011273D01*
X040279Y011175D02*
X038409Y011175D01*
X038409Y011076D02*
X040279Y011076D01*
X040279Y010978D02*
X038409Y010978D01*
X038409Y010879D02*
X040279Y010879D01*
X040279Y010780D02*
X038409Y010780D01*
X038409Y010682D02*
X040279Y010682D01*
X040279Y010583D02*
X038392Y010583D01*
X038335Y010485D02*
X040279Y010485D01*
X040279Y010386D02*
X038176Y010386D01*
X037877Y010189D02*
X040279Y010189D01*
X040279Y010091D02*
X037976Y010091D01*
X038075Y009992D02*
X040279Y009992D01*
X040279Y009894D02*
X038173Y009894D01*
X038272Y009795D02*
X040279Y009795D01*
X040279Y009696D02*
X038366Y009696D01*
X038407Y009598D02*
X040279Y009598D01*
X040279Y009499D02*
X038409Y009499D01*
X038409Y009401D02*
X040279Y009401D01*
X040279Y009302D02*
X038409Y009302D01*
X038409Y009204D02*
X040279Y009204D01*
X040279Y009105D02*
X038409Y009105D01*
X038409Y009007D02*
X040279Y009007D01*
X040279Y008908D02*
X038409Y008908D01*
X038409Y008810D02*
X040279Y008810D01*
X040279Y008711D02*
X038409Y008711D01*
X038409Y008612D02*
X040279Y008612D01*
X040279Y008514D02*
X038409Y008514D01*
X038409Y008415D02*
X040279Y008415D01*
X040279Y008317D02*
X038409Y008317D01*
X038409Y008218D02*
X040279Y008218D01*
X040279Y008120D02*
X038409Y008120D01*
X038409Y008021D02*
X040279Y008021D01*
X040279Y007923D02*
X038409Y007923D01*
X038409Y007824D02*
X040279Y007824D01*
X040279Y007726D02*
X038409Y007726D01*
X038409Y007627D02*
X040279Y007627D01*
X040279Y007529D02*
X038409Y007529D01*
X038409Y007430D02*
X040279Y007430D01*
X040279Y007331D02*
X038409Y007331D01*
X038409Y007233D02*
X040279Y007233D01*
X040279Y007134D02*
X038409Y007134D01*
X038409Y007036D02*
X040279Y007036D01*
X040279Y006937D02*
X038409Y006937D01*
X038409Y006839D02*
X040279Y006839D01*
X040279Y006740D02*
X038409Y006740D01*
X038375Y006642D02*
X040279Y006642D01*
X040279Y006543D02*
X038293Y006543D01*
X038367Y006445D02*
X040279Y006445D01*
X040279Y006346D02*
X038408Y006346D01*
X038409Y006247D02*
X040279Y006247D01*
X040279Y006149D02*
X038409Y006149D01*
X038409Y006050D02*
X040279Y006050D01*
X040279Y005952D02*
X038409Y005952D01*
X038409Y005853D02*
X040279Y005853D01*
X040279Y005755D02*
X038409Y005755D01*
X038409Y005656D02*
X040279Y005656D01*
X040279Y005558D02*
X038409Y005558D01*
X038409Y005459D02*
X040279Y005459D01*
X040279Y005361D02*
X038409Y005361D01*
X038409Y005262D02*
X040279Y005262D01*
X040279Y005163D02*
X038409Y005163D01*
X038409Y005065D02*
X040279Y005065D01*
X040279Y004966D02*
X038409Y004966D01*
X038409Y004868D02*
X040279Y004868D01*
X040279Y004769D02*
X038409Y004769D01*
X038409Y004671D02*
X040279Y004671D01*
X040279Y004572D02*
X038409Y004572D01*
X038409Y004474D02*
X040279Y004474D01*
X040279Y004375D02*
X038409Y004375D01*
X038409Y004277D02*
X040279Y004277D01*
X040279Y004178D02*
X038409Y004178D01*
X038409Y004079D02*
X040279Y004079D01*
X040279Y003981D02*
X038409Y003981D01*
X038409Y003882D02*
X040279Y003882D01*
X040279Y003784D02*
X038409Y003784D01*
X038409Y003685D02*
X040279Y003685D01*
X040279Y003587D02*
X038409Y003587D01*
X038409Y003488D02*
X040279Y003488D01*
X040279Y003390D02*
X038409Y003390D01*
X038409Y003291D02*
X040279Y003291D01*
X040279Y003193D02*
X038409Y003193D01*
X038409Y003094D02*
X040279Y003094D01*
X040279Y002996D02*
X038409Y002996D01*
X038409Y002897D02*
X040279Y002897D01*
X040279Y002798D02*
X038409Y002798D01*
X038409Y002700D02*
X040279Y002700D01*
X040279Y002601D02*
X038409Y002601D01*
X038409Y002503D02*
X040279Y002503D01*
X040279Y002404D02*
X039638Y002404D01*
X039515Y002455D02*
X039824Y002327D01*
X040061Y002091D01*
X040189Y001782D01*
X040189Y001447D01*
X040061Y001138D01*
X039824Y000902D01*
X039515Y000774D01*
X039181Y000774D01*
X038872Y000902D01*
X038635Y001138D01*
X038507Y001447D01*
X038507Y001782D01*
X038635Y002091D01*
X038872Y002327D01*
X039181Y002455D01*
X039515Y002455D01*
X039845Y002306D02*
X040279Y002306D01*
X040279Y002207D02*
X039944Y002207D01*
X040043Y002109D02*
X040279Y002109D01*
X040279Y002010D02*
X040094Y002010D01*
X040135Y001912D02*
X040279Y001912D01*
X040279Y001813D02*
X040176Y001813D01*
X040189Y001714D02*
X040279Y001714D01*
X040279Y001616D02*
X040189Y001616D01*
X040189Y001517D02*
X040279Y001517D01*
X040279Y001419D02*
X040177Y001419D01*
X040136Y001320D02*
X040279Y001320D01*
X040279Y001222D02*
X040095Y001222D01*
X040045Y001123D02*
X040279Y001123D01*
X040279Y001025D02*
X039947Y001025D01*
X039848Y000926D02*
X040279Y000926D01*
X040279Y000828D02*
X039645Y000828D01*
X040279Y000729D02*
X032129Y000729D01*
X032227Y000828D02*
X039051Y000828D01*
X038848Y000926D02*
X032326Y000926D01*
X032425Y001025D02*
X038749Y001025D01*
X038651Y001123D02*
X032523Y001123D01*
X032622Y001222D02*
X038601Y001222D01*
X038560Y001320D02*
X037758Y001320D01*
X037869Y001419D02*
X038519Y001419D01*
X038507Y001517D02*
X037967Y001517D01*
X038066Y001616D02*
X038507Y001616D01*
X038507Y001714D02*
X038164Y001714D01*
X038263Y001813D02*
X038520Y001813D01*
X038561Y001912D02*
X038361Y001912D01*
X038403Y002010D02*
X038602Y002010D01*
X038653Y002109D02*
X038409Y002109D01*
X038409Y002207D02*
X038752Y002207D01*
X038851Y002306D02*
X038409Y002306D01*
X038409Y002404D02*
X039058Y002404D01*
X032259Y002010D02*
X031858Y002010D01*
X031811Y002056D02*
X031994Y001874D01*
X031994Y001493D01*
X031725Y001223D01*
X031344Y001223D01*
X031074Y001493D01*
X031074Y001874D01*
X031257Y002056D01*
X031146Y002167D01*
X031077Y002335D01*
X031077Y003032D01*
X031146Y003200D01*
X031275Y003329D01*
X031443Y003398D01*
X031625Y003398D01*
X031793Y003329D01*
X031922Y003200D01*
X031991Y003032D01*
X031991Y002335D01*
X031922Y002167D01*
X031811Y002056D01*
X031864Y002109D02*
X032204Y002109D01*
X032129Y002207D02*
X031939Y002207D01*
X031979Y002306D02*
X032089Y002306D01*
X032077Y002404D02*
X031991Y002404D01*
X031991Y002503D02*
X032077Y002503D01*
X032077Y002601D02*
X031991Y002601D01*
X031991Y002700D02*
X032077Y002700D01*
X032077Y002798D02*
X031991Y002798D01*
X031991Y002897D02*
X032077Y002897D01*
X032077Y002996D02*
X031991Y002996D01*
X031966Y003094D02*
X032102Y003094D01*
X032143Y003193D02*
X031925Y003193D01*
X031831Y003291D02*
X032026Y003291D01*
X031927Y003390D02*
X031646Y003390D01*
X031422Y003390D02*
X030646Y003390D01*
X030831Y003291D02*
X031237Y003291D01*
X031143Y003193D02*
X030925Y003193D01*
X030966Y003094D02*
X031102Y003094D01*
X031077Y002996D02*
X030991Y002996D01*
X030991Y002897D02*
X031077Y002897D01*
X031077Y002798D02*
X030991Y002798D01*
X030991Y002700D02*
X031077Y002700D01*
X031077Y002601D02*
X030991Y002601D01*
X030991Y002503D02*
X031077Y002503D01*
X031077Y002404D02*
X030991Y002404D01*
X030979Y002306D02*
X031089Y002306D01*
X031129Y002207D02*
X030939Y002207D01*
X030864Y002109D02*
X031204Y002109D01*
X031210Y002010D02*
X030858Y002010D01*
X030956Y001912D02*
X031112Y001912D01*
X031074Y001813D02*
X030994Y001813D01*
X030994Y001714D02*
X031074Y001714D01*
X031074Y001616D02*
X030994Y001616D01*
X030994Y001517D02*
X031074Y001517D01*
X031148Y001419D02*
X030920Y001419D01*
X030821Y001320D02*
X031247Y001320D01*
X031675Y001123D02*
X024179Y001123D01*
X024194Y001222D02*
X024517Y001222D01*
X024419Y001320D02*
X023814Y001320D01*
X023754Y001320D02*
X021358Y001320D01*
X021379Y001329D02*
X021463Y001413D01*
X021637Y001587D01*
X021810Y001515D01*
X022008Y001515D01*
X022190Y001590D01*
X022330Y001730D01*
X022406Y001913D01*
X022406Y002704D01*
X022330Y002887D01*
X022190Y003026D01*
X022008Y003102D01*
X021810Y003102D01*
X021628Y003026D01*
X021488Y002887D01*
X021412Y002704D01*
X021412Y002211D01*
X021085Y001883D01*
X021026Y001883D01*
X020906Y002003D01*
X020773Y002058D01*
X020906Y002113D01*
X021054Y002261D01*
X021134Y002454D01*
X021134Y002663D01*
X021054Y002856D01*
X020906Y003003D01*
X020713Y003083D01*
X019855Y003083D01*
X019662Y003003D01*
X019542Y002883D01*
X018483Y002883D01*
X017879Y003488D01*
X017769Y003533D01*
X017649Y003533D01*
X017119Y003533D01*
X017119Y003624D01*
X016959Y003784D01*
X016959Y004005D01*
X017096Y004142D01*
X017174Y004331D01*
X017174Y004536D01*
X017096Y004725D01*
X016951Y004870D01*
X016761Y004948D01*
X016557Y004948D01*
X016367Y004870D01*
X016222Y004725D01*
X016144Y004536D01*
X016144Y004331D01*
X016222Y004142D01*
X016359Y004005D01*
X016359Y003784D01*
X016199Y003624D01*
X016199Y003243D01*
X016469Y002973D01*
X016703Y002973D01*
X016799Y002933D01*
X016919Y002933D01*
X017585Y002933D01*
X017797Y002721D01*
X017699Y002624D01*
X017699Y002243D01*
X017969Y001973D01*
X018350Y001973D01*
X018619Y002243D01*
X018619Y002283D01*
X019505Y002283D01*
X019514Y002261D01*
X019662Y002113D01*
X019795Y002058D01*
X019662Y002003D01*
X019514Y001856D01*
X019434Y001663D01*
X019434Y001454D01*
X019514Y001261D01*
X019662Y001113D01*
X019855Y001034D01*
X020713Y001034D01*
X020906Y001113D01*
X021054Y001261D01*
X021063Y001283D01*
X021269Y001283D01*
X021379Y001329D01*
X021469Y001419D02*
X023374Y001419D01*
X023413Y001517D02*
X022014Y001517D01*
X021804Y001517D02*
X021567Y001517D01*
X021023Y001222D02*
X021014Y001222D01*
X020925Y001123D02*
X020916Y001123D01*
X019652Y001123D02*
X018499Y001123D01*
X018598Y001222D02*
X019554Y001222D01*
X019490Y001320D02*
X018619Y001320D01*
X018619Y001419D02*
X019449Y001419D01*
X019434Y001517D02*
X018619Y001517D01*
X018619Y001616D02*
X019434Y001616D01*
X019456Y001714D02*
X018528Y001714D01*
X018430Y001813D02*
X019497Y001813D01*
X019570Y001912D02*
X017619Y001912D01*
X017619Y002010D02*
X017932Y002010D01*
X017833Y002109D02*
X017619Y002109D01*
X017619Y002207D02*
X017735Y002207D01*
X017699Y002306D02*
X017610Y002306D01*
X017570Y002404D02*
X017699Y002404D01*
X017699Y002503D02*
X017500Y002503D01*
X017376Y002601D02*
X017699Y002601D01*
X017775Y002700D02*
X016067Y002700D01*
X015968Y002798D02*
X017720Y002798D01*
X017621Y002897D02*
X015870Y002897D01*
X015872Y002996D02*
X016446Y002996D01*
X016348Y003094D02*
X015970Y003094D01*
X016069Y003193D02*
X016249Y003193D01*
X016199Y003291D02*
X016119Y003291D01*
X016119Y003390D02*
X016199Y003390D01*
X016199Y003488D02*
X016119Y003488D01*
X016119Y003587D02*
X016199Y003587D01*
X016260Y003685D02*
X016058Y003685D01*
X015959Y003784D02*
X016359Y003784D01*
X016359Y003882D02*
X015861Y003882D01*
X015458Y003882D02*
X011582Y003882D01*
X011484Y003784D02*
X015359Y003784D01*
X015260Y003685D02*
X011385Y003685D01*
X011287Y003587D02*
X015199Y003587D01*
X015199Y003488D02*
X011188Y003488D01*
X011090Y003390D02*
X014465Y003390D01*
X014366Y003291D02*
X010991Y003291D01*
X010893Y003193D02*
X014268Y003193D01*
X014199Y003094D02*
X010794Y003094D01*
X010695Y002996D02*
X014199Y002996D01*
X014199Y002897D02*
X013266Y002897D01*
X013454Y002798D02*
X014199Y002798D01*
X014242Y002700D02*
X013551Y002700D01*
X013591Y002601D02*
X014341Y002601D01*
X014439Y002503D02*
X013619Y002503D01*
X013619Y002404D02*
X015514Y002404D01*
X015612Y002306D02*
X014937Y002306D01*
X015036Y002207D02*
X015699Y002207D01*
X015699Y002109D02*
X015119Y002109D01*
X015119Y002010D02*
X015699Y002010D01*
X015685Y001912D02*
X015119Y001912D01*
X015119Y001813D02*
X015586Y001813D01*
X015488Y001714D02*
X015091Y001714D01*
X014992Y001616D02*
X015389Y001616D01*
X015290Y001517D02*
X014894Y001517D01*
X014659Y001933D02*
X014609Y001933D01*
X014459Y002083D01*
X013259Y002083D01*
X013159Y002183D01*
X012699Y002207D02*
X012189Y002207D01*
X012189Y002213D02*
X012569Y002213D01*
X012569Y002476D01*
X012559Y002539D01*
X012539Y002601D01*
X012510Y002658D01*
X012472Y002710D01*
X012426Y002756D01*
X012374Y002794D01*
X012316Y002823D01*
X012255Y002843D01*
X012191Y002853D01*
X012189Y002853D01*
X012189Y002214D01*
X012129Y002214D01*
X012129Y002853D01*
X012127Y002853D01*
X012063Y002843D01*
X012002Y002823D01*
X011944Y002794D01*
X011892Y002756D01*
X011846Y002710D01*
X011808Y002658D01*
X011779Y002601D01*
X011759Y002539D01*
X011749Y002476D01*
X011749Y002213D01*
X012129Y002213D01*
X012129Y002153D01*
X012189Y002153D01*
X012189Y001513D01*
X012191Y001513D01*
X012255Y001523D01*
X012316Y001543D01*
X012374Y001573D01*
X012426Y001611D01*
X012472Y001656D01*
X012510Y001708D01*
X012539Y001766D01*
X012559Y001827D01*
X012569Y001891D01*
X012569Y002153D01*
X012189Y002153D01*
X012189Y002213D01*
X012129Y002207D02*
X009907Y002207D01*
X009809Y002109D02*
X011749Y002109D01*
X011749Y002153D02*
X011749Y001891D01*
X011759Y001827D01*
X011779Y001766D01*
X011808Y001708D01*
X011846Y001656D01*
X011892Y001611D01*
X011944Y001573D01*
X012002Y001543D01*
X012063Y001523D01*
X012127Y001513D01*
X012129Y001513D01*
X012129Y002153D01*
X011749Y002153D01*
X011749Y002010D02*
X006656Y002010D01*
X006655Y001912D02*
X011749Y001912D01*
X011764Y001813D02*
X006615Y001813D01*
X006565Y001714D02*
X011805Y001714D01*
X011887Y001616D02*
X006466Y001616D01*
X006264Y001517D02*
X012102Y001517D01*
X012129Y001517D02*
X012189Y001517D01*
X012216Y001517D02*
X012937Y001517D01*
X012816Y001616D02*
X012431Y001616D01*
X012513Y001714D02*
X012748Y001714D01*
X012707Y001813D02*
X012554Y001813D01*
X012569Y001912D02*
X012699Y001912D01*
X012699Y002010D02*
X012569Y002010D01*
X012569Y002109D02*
X012699Y002109D01*
X012699Y002306D02*
X012569Y002306D01*
X012569Y002404D02*
X012699Y002404D01*
X012699Y002503D02*
X012565Y002503D01*
X012539Y002601D02*
X012727Y002601D01*
X012767Y002700D02*
X012479Y002700D01*
X012365Y002798D02*
X012864Y002798D01*
X013052Y002897D02*
X010597Y002897D01*
X010498Y002798D02*
X011953Y002798D01*
X011839Y002700D02*
X010400Y002700D01*
X010301Y002601D02*
X011779Y002601D01*
X011753Y002503D02*
X010203Y002503D01*
X010104Y002404D02*
X011749Y002404D01*
X011749Y002306D02*
X010006Y002306D01*
X009551Y002700D02*
X006656Y002700D01*
X006617Y002798D02*
X007893Y002798D01*
X007795Y002897D02*
X006570Y002897D01*
X006471Y002996D02*
X007699Y002996D01*
X008425Y002798D02*
X008893Y002798D01*
X008795Y002897D02*
X008523Y002897D01*
X008619Y002996D02*
X008699Y002996D01*
X008699Y003094D02*
X008619Y003094D01*
X008619Y003193D02*
X008699Y003193D01*
X008699Y003291D02*
X008619Y003291D01*
X008603Y003390D02*
X008715Y003390D01*
X008813Y003488D02*
X008505Y003488D01*
X008406Y003587D02*
X008912Y003587D01*
X008663Y003685D02*
X009208Y003685D01*
X009459Y003583D02*
X009159Y003283D01*
X009159Y003183D01*
X009619Y003193D02*
X010044Y003193D01*
X010143Y003291D02*
X009619Y003291D01*
X009619Y003094D02*
X009945Y003094D01*
X009847Y002996D02*
X009619Y002996D01*
X009523Y002897D02*
X009748Y002897D01*
X009650Y002798D02*
X009425Y002798D01*
X009819Y003390D02*
X010241Y003390D01*
X010340Y003488D02*
X009890Y003488D01*
X009909Y003587D02*
X010438Y003587D01*
X010537Y003685D02*
X009909Y003685D01*
X009909Y003784D02*
X010635Y003784D01*
X010734Y003882D02*
X009909Y003882D01*
X009909Y003981D02*
X010538Y003981D01*
X010358Y004079D02*
X009960Y004079D01*
X010051Y004178D02*
X010267Y004178D01*
X010226Y004277D02*
X010092Y004277D01*
X010116Y004375D02*
X010202Y004375D01*
X010202Y004474D02*
X010116Y004474D01*
X010116Y004572D02*
X010202Y004572D01*
X010202Y004671D02*
X010116Y004671D01*
X010116Y004769D02*
X010202Y004769D01*
X010202Y004868D02*
X010116Y004868D01*
X010116Y004966D02*
X010202Y004966D01*
X010215Y005065D02*
X010103Y005065D01*
X010062Y005163D02*
X010256Y005163D01*
X010333Y005262D02*
X009985Y005262D01*
X009609Y005583D02*
X009159Y005133D01*
X009159Y003983D01*
X008609Y003933D01*
X007359Y003933D01*
X006809Y004233D01*
X006659Y004233D01*
X006659Y004683D01*
X006659Y005683D01*
X006659Y006433D01*
X006199Y006445D02*
X005156Y006445D01*
X005128Y006346D02*
X006199Y006346D01*
X006199Y006247D02*
X005087Y006247D01*
X004999Y006149D02*
X006293Y006149D01*
X006376Y006050D02*
X004844Y006050D01*
X005145Y005952D02*
X006277Y005952D01*
X006199Y005853D02*
X005263Y005853D01*
X005362Y005755D02*
X006199Y005755D01*
X006199Y005656D02*
X005460Y005656D01*
X005559Y005558D02*
X006199Y005558D01*
X006233Y005459D02*
X005658Y005459D01*
X005841Y005361D02*
X006331Y005361D01*
X006333Y005262D02*
X005985Y005262D01*
X006062Y005163D02*
X006256Y005163D01*
X006215Y005065D02*
X006103Y005065D01*
X006116Y004966D02*
X006202Y004966D01*
X006202Y004868D02*
X006116Y004868D01*
X006116Y004769D02*
X006202Y004769D01*
X006202Y004671D02*
X006116Y004671D01*
X006116Y004572D02*
X006202Y004572D01*
X006202Y004474D02*
X006116Y004474D01*
X006116Y004375D02*
X006202Y004375D01*
X006226Y004277D02*
X006092Y004277D01*
X006186Y004178D02*
X006267Y004178D01*
X006298Y004079D02*
X006358Y004079D01*
X006410Y003981D02*
X006538Y003981D01*
X006521Y003882D02*
X006930Y003882D01*
X007111Y003784D02*
X006633Y003784D01*
X006745Y003685D02*
X007305Y003685D01*
X007395Y003683D02*
X007395Y003683D01*
X006549Y003094D02*
X006277Y003094D01*
X006397Y003193D02*
X005274Y003193D01*
X005176Y003291D02*
X006285Y003291D01*
X006173Y003390D02*
X005077Y003390D01*
X004978Y003488D02*
X006061Y003488D01*
X005949Y003587D02*
X004880Y003587D01*
X004781Y003685D02*
X005837Y003685D01*
X005726Y003784D02*
X004683Y003784D01*
X004584Y003882D02*
X005614Y003882D01*
X005502Y003981D02*
X004780Y003981D01*
X004960Y004079D02*
X005358Y004079D01*
X005267Y004178D02*
X005051Y004178D01*
X005092Y004277D02*
X005226Y004277D01*
X005202Y004375D02*
X005116Y004375D01*
X005116Y004474D02*
X005202Y004474D01*
X005202Y004572D02*
X005116Y004572D01*
X005116Y004671D02*
X005202Y004671D01*
X005202Y004769D02*
X005116Y004769D01*
X005116Y004868D02*
X005202Y004868D01*
X005202Y004966D02*
X005116Y004966D01*
X005103Y005065D02*
X005203Y005065D01*
X005105Y005163D02*
X005062Y005163D01*
X005006Y005262D02*
X004985Y005262D01*
X004908Y005361D02*
X004841Y005361D01*
X004474Y006050D02*
X003844Y006050D01*
X003758Y006015D02*
X003940Y006090D01*
X004080Y006230D01*
X004156Y006413D01*
X004156Y007204D01*
X004080Y007387D01*
X003959Y007508D01*
X003959Y008329D01*
X004047Y008417D01*
X004116Y008585D01*
X004116Y009282D01*
X004047Y009450D01*
X003918Y009579D01*
X003750Y009648D01*
X003568Y009648D01*
X003400Y009579D01*
X003271Y009450D01*
X003202Y009282D01*
X003202Y008585D01*
X003271Y008417D01*
X003359Y008329D01*
X003359Y007508D01*
X003238Y007387D01*
X003162Y007204D01*
X003162Y006413D01*
X003238Y006230D01*
X003378Y006090D01*
X003560Y006015D01*
X003758Y006015D01*
X003999Y006149D02*
X004319Y006149D01*
X004231Y006247D02*
X004087Y006247D01*
X004128Y006346D02*
X004190Y006346D01*
X004162Y006445D02*
X004156Y006445D01*
X004156Y006543D02*
X004162Y006543D01*
X004156Y006642D02*
X004162Y006642D01*
X004156Y006740D02*
X004162Y006740D01*
X004156Y006839D02*
X004162Y006839D01*
X004156Y006937D02*
X004162Y006937D01*
X004156Y007036D02*
X004162Y007036D01*
X004156Y007134D02*
X004162Y007134D01*
X004174Y007233D02*
X004144Y007233D01*
X004103Y007331D02*
X004215Y007331D01*
X004281Y007430D02*
X004037Y007430D01*
X003959Y007529D02*
X004383Y007529D01*
X003959Y007627D02*
X005315Y007627D01*
X005413Y007529D02*
X004935Y007529D01*
X005037Y007430D02*
X007387Y007430D01*
X007102Y007726D02*
X010327Y007726D01*
X010426Y007824D02*
X008503Y007824D01*
X008586Y007923D02*
X010524Y007923D01*
X010623Y008021D02*
X009288Y008021D01*
X009427Y008120D02*
X010721Y008120D01*
X010820Y008218D02*
X009567Y008218D01*
X009568Y008219D02*
X009568Y008218D01*
X009509Y008483D02*
X009084Y008183D01*
X008459Y008183D01*
X008359Y008033D01*
X006659Y008033D01*
X006659Y007933D01*
X006199Y007923D02*
X006119Y007923D01*
X006119Y008021D02*
X006199Y008021D01*
X006199Y008120D02*
X006119Y008120D01*
X006025Y008218D02*
X006293Y008218D01*
X006371Y008317D02*
X005959Y008317D01*
X006045Y008415D02*
X006273Y008415D01*
X006231Y008514D02*
X006087Y008514D01*
X006116Y008612D02*
X006202Y008612D01*
X006202Y008711D02*
X006116Y008711D01*
X006116Y008810D02*
X006202Y008810D01*
X006202Y008908D02*
X006116Y008908D01*
X006116Y009007D02*
X006202Y009007D01*
X006202Y009105D02*
X006116Y009105D01*
X006116Y009204D02*
X006202Y009204D01*
X006210Y009302D02*
X006108Y009302D01*
X006067Y009401D02*
X006251Y009401D01*
X006321Y009499D02*
X006009Y009499D01*
X006009Y009598D02*
X006446Y009598D01*
X006659Y009383D02*
X006809Y009383D01*
X006659Y009383D02*
X006659Y008933D01*
X005409Y009598D02*
X004872Y009598D01*
X004918Y009579D02*
X004750Y009648D01*
X004568Y009648D01*
X004400Y009579D01*
X004271Y009450D01*
X004202Y009282D01*
X004202Y008585D01*
X004271Y008417D01*
X004400Y008288D01*
X004568Y008218D01*
X004750Y008218D01*
X004918Y008288D01*
X005047Y008417D01*
X005116Y008585D01*
X005116Y009282D01*
X005047Y009450D01*
X004918Y009579D01*
X004997Y009499D02*
X005321Y009499D01*
X005251Y009401D02*
X005067Y009401D01*
X005108Y009302D02*
X005210Y009302D01*
X005202Y009204D02*
X005116Y009204D01*
X005116Y009105D02*
X005202Y009105D01*
X005202Y009007D02*
X005116Y009007D01*
X005116Y008908D02*
X005202Y008908D01*
X005202Y008810D02*
X005116Y008810D01*
X005116Y008711D02*
X005202Y008711D01*
X005202Y008612D02*
X005116Y008612D01*
X005087Y008514D02*
X005231Y008514D01*
X005273Y008415D02*
X005046Y008415D01*
X004947Y008317D02*
X005359Y008317D01*
X005293Y008218D02*
X003959Y008218D01*
X003959Y008120D02*
X005199Y008120D01*
X005199Y008021D02*
X003959Y008021D01*
X003959Y007923D02*
X005199Y007923D01*
X005199Y007824D02*
X003959Y007824D01*
X003959Y007726D02*
X005216Y007726D01*
X005103Y007331D02*
X006919Y007331D01*
X006905Y007529D02*
X007838Y007529D01*
X007003Y007627D02*
X010229Y007627D01*
X010781Y007331D02*
X012504Y007331D01*
X012564Y007331D02*
X013181Y007331D01*
X013239Y007273D02*
X012999Y007514D01*
X012999Y007653D01*
X013379Y007653D01*
X013439Y007653D01*
X013439Y007273D01*
X013579Y007273D01*
X013819Y007514D01*
X013819Y007653D01*
X013439Y007653D01*
X013439Y007713D01*
X013819Y007713D01*
X013819Y007853D01*
X013579Y008093D01*
X013439Y008093D01*
X013439Y007714D01*
X013379Y007714D01*
X013379Y008093D01*
X013239Y008093D01*
X012999Y007853D01*
X012999Y007713D01*
X013379Y007713D01*
X013379Y007653D01*
X013379Y007273D01*
X013239Y007273D01*
X013210Y007134D02*
X012940Y007134D01*
X012944Y007233D02*
X015548Y007233D01*
X015658Y007331D02*
X013637Y007331D01*
X013735Y007430D02*
X016909Y007430D01*
X016909Y007529D02*
X016644Y007529D01*
X016763Y007627D02*
X016909Y007627D01*
X016909Y007726D02*
X016831Y007726D01*
X016872Y007824D02*
X016909Y007824D01*
X016909Y007923D02*
X016879Y007923D01*
X016879Y008021D02*
X016909Y008021D01*
X016909Y008120D02*
X016840Y008120D01*
X016785Y008218D02*
X016909Y008218D01*
X016909Y008317D02*
X016686Y008317D01*
X016608Y008514D02*
X016909Y008514D01*
X016909Y008612D02*
X016749Y008612D01*
X016825Y008711D02*
X016909Y008711D01*
X016909Y008810D02*
X016866Y008810D01*
X016879Y008908D02*
X016909Y008908D01*
X016909Y009007D02*
X016879Y009007D01*
X016909Y009105D02*
X016846Y009105D01*
X016799Y009204D02*
X016909Y009204D01*
X016909Y009302D02*
X016701Y009302D01*
X016159Y008933D02*
X015959Y009133D01*
X014659Y009133D01*
X012859Y010933D01*
X012459Y010933D01*
X012051Y010879D02*
X011864Y010879D01*
X011454Y010879D02*
X010967Y010879D01*
X011065Y010780D02*
X011356Y010780D01*
X011338Y011175D02*
X008693Y011175D01*
X008125Y011175D02*
X007709Y011175D01*
X007709Y011273D02*
X011249Y011273D01*
X011249Y011372D02*
X007709Y011372D01*
X007709Y011470D02*
X011249Y011470D01*
X011249Y011569D02*
X007709Y011569D01*
X007709Y011667D02*
X011313Y011667D01*
X009657Y012160D02*
X007709Y012160D01*
X007709Y012061D02*
X014217Y012061D01*
X014202Y011963D02*
X007709Y011963D01*
X007709Y012259D02*
X009558Y012259D01*
X009460Y012357D02*
X007709Y012357D01*
X007785Y012456D02*
X009449Y012456D01*
X009449Y012554D02*
X007883Y012554D01*
X007982Y012653D02*
X009449Y012653D01*
X008441Y012751D02*
X008377Y012751D01*
X007669Y013047D02*
X005986Y013047D01*
X006063Y013145D02*
X007699Y013145D01*
X007699Y013244D02*
X006066Y013244D01*
X006066Y013343D02*
X006296Y013343D01*
X005688Y013343D02*
X005630Y013343D01*
X005630Y013244D02*
X005688Y013244D01*
X005688Y013145D02*
X005630Y013145D01*
X005630Y013047D02*
X005688Y013047D01*
X005332Y013047D02*
X001409Y013047D01*
X001409Y013145D02*
X005255Y013145D01*
X005252Y013244D02*
X001409Y013244D01*
X001409Y012948D02*
X007571Y012948D01*
X007472Y012850D02*
X001409Y012850D01*
X001409Y012751D02*
X003579Y012751D01*
X003610Y012764D02*
X003344Y012654D01*
X003141Y012451D01*
X003031Y012185D01*
X003031Y011898D01*
X003141Y011632D01*
X003344Y011429D01*
X003610Y011319D01*
X003897Y011319D01*
X004163Y011429D01*
X004366Y011632D01*
X004476Y011898D01*
X004476Y012185D01*
X004366Y012451D01*
X004163Y012654D01*
X003897Y012764D01*
X003610Y012764D01*
X003343Y012653D02*
X001409Y012653D01*
X001409Y012554D02*
X003244Y012554D01*
X003146Y012456D02*
X001409Y012456D01*
X001409Y012357D02*
X003102Y012357D01*
X003061Y012259D02*
X001409Y012259D01*
X001409Y012160D02*
X003031Y012160D01*
X003031Y012061D02*
X001409Y012061D01*
X001409Y011963D02*
X003031Y011963D01*
X003045Y011864D02*
X001409Y011864D01*
X001409Y011766D02*
X003086Y011766D01*
X003127Y011667D02*
X001409Y011667D01*
X001409Y011569D02*
X003205Y011569D01*
X003303Y011470D02*
X001409Y011470D01*
X001409Y011372D02*
X003483Y011372D01*
X004024Y011372D02*
X005447Y011372D01*
X005417Y011384D02*
X005574Y011319D01*
X005744Y011319D01*
X005901Y011384D01*
X006021Y011504D01*
X006086Y011661D01*
X006086Y011831D01*
X006021Y011988D01*
X005901Y012108D01*
X005744Y012174D01*
X005574Y012174D01*
X005417Y012108D01*
X005297Y011988D01*
X005232Y011831D01*
X005232Y011661D01*
X005297Y011504D01*
X005417Y011384D01*
X005331Y011470D02*
X004204Y011470D01*
X004302Y011569D02*
X005270Y011569D01*
X005232Y011667D02*
X004380Y011667D01*
X004421Y011766D02*
X005232Y011766D01*
X005246Y011864D02*
X004462Y011864D01*
X004476Y011963D02*
X005286Y011963D01*
X005370Y012061D02*
X004476Y012061D01*
X004476Y012160D02*
X005542Y012160D01*
X005777Y012160D02*
X007209Y012160D01*
X007209Y012061D02*
X005948Y012061D01*
X006032Y011963D02*
X007209Y011963D01*
X007209Y011864D02*
X006072Y011864D01*
X006086Y011766D02*
X007209Y011766D01*
X007209Y011667D02*
X006086Y011667D01*
X006048Y011569D02*
X007209Y011569D01*
X007209Y011470D02*
X005987Y011470D01*
X005871Y011372D02*
X007209Y011372D01*
X007209Y011273D02*
X001409Y011273D01*
X001409Y011175D02*
X007125Y011175D01*
X007026Y011076D02*
X001409Y011076D01*
X001409Y010978D02*
X006949Y010978D01*
X006949Y010879D02*
X001409Y010879D01*
X001409Y010780D02*
X006949Y010780D01*
X006949Y010682D02*
X001409Y010682D01*
X001409Y010583D02*
X006984Y010583D01*
X007082Y010485D02*
X001409Y010485D01*
X001409Y010386D02*
X007181Y010386D01*
X007324Y010288D02*
X001409Y010288D01*
X001409Y010189D02*
X003141Y010189D01*
X003042Y010091D02*
X001409Y010091D01*
X001409Y009992D02*
X002944Y009992D01*
X002845Y009894D02*
X001409Y009894D01*
X001409Y009795D02*
X002746Y009795D01*
X002648Y009696D02*
X001409Y009696D01*
X001409Y009598D02*
X002582Y009598D01*
X002559Y009499D02*
X001409Y009499D01*
X001409Y009401D02*
X002559Y009401D01*
X002559Y009302D02*
X001409Y009302D01*
X001409Y009204D02*
X002559Y009204D01*
X002559Y009105D02*
X001409Y009105D01*
X001409Y009007D02*
X002559Y009007D01*
X002559Y008908D02*
X001409Y008908D01*
X001409Y008810D02*
X002559Y008810D01*
X002559Y008711D02*
X001409Y008711D01*
X001409Y008612D02*
X002559Y008612D01*
X002559Y008514D02*
X001409Y008514D01*
X001409Y008415D02*
X002559Y008415D01*
X002559Y008317D02*
X001409Y008317D01*
X001409Y008218D02*
X002559Y008218D01*
X002559Y008120D02*
X001409Y008120D01*
X001409Y008021D02*
X002559Y008021D01*
X002559Y007923D02*
X001409Y007923D01*
X001409Y007824D02*
X002559Y007824D01*
X002559Y007726D02*
X001409Y007726D01*
X001409Y007627D02*
X002559Y007627D01*
X002559Y007529D02*
X001409Y007529D01*
X001409Y007430D02*
X002559Y007430D01*
X002559Y007331D02*
X001409Y007331D01*
X001409Y007233D02*
X002559Y007233D01*
X002559Y007134D02*
X001409Y007134D01*
X001409Y007036D02*
X002559Y007036D01*
X002559Y006937D02*
X001409Y006937D01*
X001409Y006839D02*
X002559Y006839D01*
X002559Y006740D02*
X001409Y006740D01*
X001409Y006642D02*
X002559Y006642D01*
X002559Y006543D02*
X001409Y006543D01*
X001409Y006445D02*
X002559Y006445D01*
X002559Y006346D02*
X001409Y006346D01*
X001409Y006247D02*
X002559Y006247D01*
X002559Y006149D02*
X001409Y006149D01*
X001409Y006050D02*
X002559Y006050D01*
X002559Y005952D02*
X001409Y005952D01*
X001409Y005853D02*
X002559Y005853D01*
X002559Y005755D02*
X001409Y005755D01*
X001409Y005656D02*
X002559Y005656D01*
X002559Y005558D02*
X001409Y005558D01*
X001409Y005459D02*
X002559Y005459D01*
X002559Y005361D02*
X001409Y005361D01*
X001409Y005262D02*
X002559Y005262D01*
X002559Y005163D02*
X001409Y005163D01*
X001409Y005065D02*
X002559Y005065D01*
X002559Y004966D02*
X001409Y004966D01*
X001409Y004868D02*
X002559Y004868D01*
X002559Y004769D02*
X001409Y004769D01*
X001409Y004671D02*
X002559Y004671D01*
X002559Y004572D02*
X001409Y004572D01*
X001409Y004474D02*
X002559Y004474D01*
X002559Y004375D02*
X001409Y004375D01*
X001409Y004277D02*
X002559Y004277D01*
X002559Y004178D02*
X001409Y004178D01*
X001409Y004079D02*
X002559Y004079D01*
X002559Y003981D02*
X001409Y003981D01*
X001409Y003882D02*
X002559Y003882D01*
X002559Y003784D02*
X001409Y003784D01*
X001409Y003685D02*
X002559Y003685D01*
X002559Y003587D02*
X001409Y003587D01*
X001409Y003488D02*
X002559Y003488D01*
X002559Y003390D02*
X001409Y003390D01*
X001409Y003291D02*
X002559Y003291D01*
X002559Y003193D02*
X001409Y003193D01*
X001409Y003094D02*
X002571Y003094D01*
X002623Y002996D02*
X001409Y002996D01*
X001409Y002897D02*
X002721Y002897D01*
X002820Y002798D02*
X001409Y002798D01*
X001409Y002700D02*
X002918Y002700D01*
X003017Y002601D02*
X001409Y002601D01*
X001409Y002503D02*
X003115Y002503D01*
X003214Y002404D02*
X002630Y002404D01*
X002507Y002455D02*
X002173Y002455D01*
X001864Y002327D01*
X001628Y002091D01*
X001500Y001782D01*
X001500Y001447D01*
X001628Y001138D01*
X001864Y000902D01*
X002173Y000774D01*
X002507Y000774D01*
X002816Y000902D01*
X003053Y001138D01*
X003181Y001447D01*
X003181Y001782D01*
X003053Y002091D01*
X002816Y002327D01*
X002507Y002455D01*
X002838Y002306D02*
X003312Y002306D01*
X003411Y002207D02*
X002936Y002207D01*
X003035Y002109D02*
X003510Y002109D01*
X003608Y002010D02*
X003086Y002010D01*
X003127Y001912D02*
X003707Y001912D01*
X003805Y001813D02*
X003168Y001813D01*
X003181Y001714D02*
X003904Y001714D01*
X004002Y001616D02*
X003181Y001616D01*
X003181Y001517D02*
X004101Y001517D01*
X004199Y001419D02*
X003169Y001419D01*
X003128Y001320D02*
X004298Y001320D01*
X004396Y001222D02*
X003087Y001222D01*
X003038Y001123D02*
X004495Y001123D01*
X004594Y001025D02*
X002939Y001025D01*
X002840Y000926D02*
X004696Y000926D01*
X004949Y001517D02*
X005054Y001517D01*
X005264Y001517D02*
X006054Y001517D01*
X005852Y001616D02*
X005466Y001616D01*
X005565Y001714D02*
X005753Y001714D01*
X005703Y001813D02*
X005615Y001813D01*
X005655Y001912D02*
X005663Y001912D01*
X005656Y002010D02*
X005662Y002010D01*
X005656Y002109D02*
X005662Y002109D01*
X005656Y002207D02*
X005662Y002207D01*
X005656Y002306D02*
X005662Y002306D01*
X005656Y002404D02*
X005662Y002404D01*
X005656Y002503D02*
X005662Y002503D01*
X005656Y002601D02*
X005662Y002601D01*
X005656Y002700D02*
X005662Y002700D01*
X005701Y002798D02*
X005617Y002798D01*
X005570Y002897D02*
X005748Y002897D01*
X005847Y002996D02*
X005471Y002996D01*
X005440Y003026D02*
X005440Y003027D01*
X005373Y003094D02*
X006041Y003094D01*
X004721Y002897D02*
X003570Y002897D01*
X003668Y002798D02*
X004701Y002798D01*
X004662Y002700D02*
X003767Y002700D01*
X003865Y002601D02*
X004662Y002601D01*
X004662Y002503D02*
X003964Y002503D01*
X004062Y002404D02*
X004662Y002404D01*
X004662Y002306D02*
X004161Y002306D01*
X004259Y002207D02*
X004662Y002207D01*
X004662Y002109D02*
X004358Y002109D01*
X004457Y002010D02*
X004662Y002010D01*
X004663Y001912D02*
X004555Y001912D01*
X004654Y001813D02*
X004703Y001813D01*
X004752Y001714D02*
X004753Y001714D01*
X004851Y001616D02*
X004852Y001616D01*
X002637Y000828D02*
X016541Y000828D01*
X016442Y000926D02*
X015604Y000926D01*
X015703Y001025D02*
X016344Y001025D01*
X016245Y001123D02*
X015801Y001123D01*
X015900Y001222D02*
X016047Y001222D01*
X016619Y001616D02*
X016699Y001616D01*
X016699Y001714D02*
X016619Y001714D01*
X016619Y001813D02*
X016699Y001813D01*
X016699Y001912D02*
X016619Y001912D01*
X016619Y002010D02*
X016699Y002010D01*
X016699Y002109D02*
X016619Y002109D01*
X016619Y002207D02*
X016699Y002207D01*
X016708Y002306D02*
X016610Y002306D01*
X016570Y002404D02*
X016749Y002404D01*
X016818Y002503D02*
X016500Y002503D01*
X016376Y002601D02*
X016942Y002601D01*
X017159Y001933D02*
X017759Y001333D01*
X017909Y001333D01*
X018009Y001433D01*
X018159Y001433D01*
X017790Y001714D02*
X017731Y001714D01*
X017633Y001813D02*
X017888Y001813D01*
X018386Y002010D02*
X019678Y002010D01*
X019674Y002109D02*
X018485Y002109D01*
X018583Y002207D02*
X019568Y002207D01*
X019556Y002897D02*
X018470Y002897D01*
X018371Y002996D02*
X019654Y002996D01*
X019710Y003152D02*
X019777Y003118D01*
X019848Y003095D01*
X019922Y003084D01*
X020234Y003084D01*
X020234Y003508D01*
X020334Y003508D01*
X020334Y003084D01*
X020646Y003084D01*
X020720Y003095D01*
X020791Y003118D01*
X020858Y003152D01*
X020918Y003196D01*
X020971Y003249D01*
X021015Y003310D01*
X021049Y003376D01*
X021072Y003447D01*
X021082Y003508D01*
X020334Y003508D01*
X020334Y003608D01*
X021082Y003608D01*
X021072Y003670D01*
X021049Y003741D01*
X021015Y003807D01*
X020971Y003868D01*
X020918Y003921D01*
X020858Y003964D01*
X020791Y003998D01*
X020720Y004021D01*
X020646Y004033D01*
X020334Y004033D01*
X020334Y003609D01*
X020234Y003609D01*
X020234Y004033D01*
X019922Y004033D01*
X019848Y004021D01*
X019777Y003998D01*
X019710Y003964D01*
X019650Y003921D01*
X019597Y003868D01*
X019553Y003807D01*
X019519Y003741D01*
X019496Y003670D01*
X019486Y003608D01*
X020234Y003608D01*
X020234Y003508D01*
X019486Y003508D01*
X019496Y003447D01*
X019519Y003376D01*
X019553Y003310D01*
X019597Y003249D01*
X019650Y003196D01*
X019710Y003152D01*
X019655Y003193D02*
X018174Y003193D01*
X018076Y003291D02*
X019566Y003291D01*
X019515Y003390D02*
X017977Y003390D01*
X017878Y003488D02*
X019490Y003488D01*
X019501Y003685D02*
X017058Y003685D01*
X017119Y003587D02*
X020234Y003587D01*
X020234Y003685D02*
X020334Y003685D01*
X020334Y003587D02*
X021752Y003587D01*
X021654Y003685D02*
X021067Y003685D01*
X021027Y003784D02*
X021555Y003784D01*
X021456Y003882D02*
X020956Y003882D01*
X020825Y003981D02*
X021358Y003981D01*
X021868Y004178D02*
X021911Y004178D01*
X021966Y004079D02*
X022009Y004079D01*
X022065Y003981D02*
X022086Y003981D01*
X022164Y003882D02*
X022184Y003882D01*
X022262Y003784D02*
X022283Y003784D01*
X022361Y003685D02*
X022704Y003685D01*
X022802Y003587D02*
X022459Y003587D01*
X022359Y003333D02*
X023009Y003333D01*
X023109Y003233D01*
X023259Y003233D01*
X023759Y002733D01*
X023759Y002333D01*
X023784Y002308D01*
X024659Y001433D01*
X030009Y001433D01*
X030259Y001683D01*
X030534Y001683D01*
X030559Y001683D01*
X030559Y002683D01*
X030534Y002683D01*
X030077Y002700D02*
X029991Y002700D01*
X029991Y002798D02*
X030077Y002798D01*
X030077Y002897D02*
X029991Y002897D01*
X029991Y002996D02*
X030077Y002996D01*
X030102Y003094D02*
X029966Y003094D01*
X029925Y003193D02*
X030143Y003193D01*
X030237Y003291D02*
X029831Y003291D01*
X029646Y003390D02*
X030422Y003390D01*
X029422Y003390D02*
X029369Y003390D01*
X029309Y003683D02*
X028759Y003133D01*
X028559Y003133D01*
X028559Y002683D01*
X028534Y002683D01*
X028077Y002700D02*
X027991Y002700D01*
X027991Y002798D02*
X028077Y002798D01*
X028077Y002897D02*
X027991Y002897D01*
X027991Y002996D02*
X028077Y002996D01*
X027991Y003032D02*
X027922Y003200D01*
X027793Y003329D01*
X027625Y003398D01*
X027443Y003398D01*
X027275Y003329D01*
X027146Y003200D01*
X027077Y003032D01*
X027077Y002335D01*
X027146Y002167D01*
X027275Y002038D01*
X027443Y001968D01*
X027625Y001968D01*
X027793Y002038D01*
X027922Y002167D01*
X027991Y002335D01*
X027991Y003032D01*
X027966Y003094D02*
X028102Y003094D01*
X028143Y003193D02*
X027925Y003193D01*
X027831Y003291D02*
X028237Y003291D01*
X028422Y003390D02*
X027646Y003390D01*
X027422Y003390D02*
X026859Y003390D01*
X026859Y003488D02*
X028760Y003488D01*
X028777Y003587D02*
X028859Y003587D01*
X028935Y003685D02*
X028958Y003685D01*
X029034Y003784D02*
X029056Y003784D01*
X029309Y003683D02*
X032284Y003683D01*
X031559Y002683D02*
X031534Y002683D01*
X031559Y002683D02*
X031559Y001683D01*
X031534Y001683D01*
X031994Y001714D02*
X032259Y001714D01*
X032259Y001813D02*
X031994Y001813D01*
X031956Y001912D02*
X032259Y001912D01*
X032167Y001616D02*
X031994Y001616D01*
X031994Y001517D02*
X032069Y001517D01*
X031970Y001419D02*
X031920Y001419D01*
X031872Y001320D02*
X031821Y001320D01*
X031773Y001222D02*
X030151Y001222D01*
X029937Y001714D02*
X029144Y001714D01*
X029242Y001813D02*
X030035Y001813D01*
X030112Y001912D02*
X029341Y001912D01*
X029309Y002233D02*
X028759Y001683D01*
X025309Y001683D01*
X023509Y003483D01*
X023259Y003483D01*
X022559Y004183D01*
X022534Y004183D01*
X022259Y004183D01*
X021659Y004783D01*
X021109Y004783D01*
X020809Y005083D01*
X020809Y005283D01*
X020159Y005933D01*
X020159Y006683D01*
X019909Y006933D01*
X019159Y006933D01*
X018548Y007233D02*
X017409Y007233D01*
X017409Y007331D02*
X018658Y007331D01*
X018674Y007529D02*
X017409Y007529D01*
X017409Y007627D02*
X018555Y007627D01*
X018487Y007726D02*
X017409Y007726D01*
X017409Y007824D02*
X018446Y007824D01*
X018439Y007923D02*
X017409Y007923D01*
X017409Y008021D02*
X018439Y008021D01*
X018478Y008120D02*
X017409Y008120D01*
X017409Y008218D02*
X018533Y008218D01*
X018632Y008317D02*
X017409Y008317D01*
X017409Y008415D02*
X019824Y008415D01*
X019922Y008317D02*
X019686Y008317D01*
X019785Y008218D02*
X020021Y008218D01*
X020119Y008120D02*
X019840Y008120D01*
X019879Y008021D02*
X020218Y008021D01*
X020281Y007923D02*
X020316Y007923D01*
X020109Y007733D02*
X020409Y007558D01*
X021109Y007558D01*
X022159Y006383D01*
X022159Y005433D01*
X022409Y005433D01*
X022559Y005433D01*
X022659Y005333D01*
X023409Y005333D01*
X024309Y004433D01*
X028909Y004433D01*
X029159Y004683D01*
X030534Y004683D01*
X030559Y004683D01*
X030559Y005683D01*
X030534Y005683D01*
X029534Y005683D02*
X029509Y005683D01*
X029509Y005233D01*
X029309Y005233D01*
X028759Y004683D01*
X024459Y004683D01*
X022959Y006183D01*
X022909Y006183D01*
X022909Y006383D01*
X022509Y006783D01*
X022460Y007036D02*
X026259Y007036D01*
X026259Y007134D02*
X022362Y007134D01*
X023101Y006642D02*
X026259Y006642D01*
X026259Y006543D02*
X024129Y006543D01*
X023939Y006543D02*
X023879Y006543D01*
X023879Y006445D02*
X023939Y006445D01*
X023939Y006346D02*
X023879Y006346D01*
X023879Y006247D02*
X023939Y006247D01*
X023939Y006149D02*
X023879Y006149D01*
X023879Y006050D02*
X023939Y006050D01*
X023939Y005952D02*
X023879Y005952D01*
X023659Y005853D02*
X023643Y005853D01*
X023561Y005952D02*
X023544Y005952D01*
X023499Y006050D02*
X023446Y006050D01*
X023499Y006149D02*
X023369Y006149D01*
X023369Y006247D02*
X023499Y006247D01*
X023499Y006346D02*
X023369Y006346D01*
X023298Y006445D02*
X023590Y006445D01*
X023689Y006543D02*
X023200Y006543D01*
X021909Y006247D02*
X020409Y006247D01*
X020409Y006149D02*
X021909Y006149D01*
X021909Y006050D02*
X020409Y006050D01*
X020494Y005952D02*
X021909Y005952D01*
X021909Y005853D02*
X020593Y005853D01*
X020691Y005755D02*
X021151Y005755D01*
X021052Y005656D02*
X020790Y005656D01*
X020888Y005558D02*
X020999Y005558D01*
X020987Y005459D02*
X021379Y005459D01*
X021439Y005459D02*
X021909Y005459D01*
X021909Y005558D02*
X021819Y005558D01*
X021766Y005656D02*
X021909Y005656D01*
X021909Y005755D02*
X021667Y005755D01*
X021439Y005755D02*
X021379Y005755D01*
X021379Y005656D02*
X021439Y005656D01*
X021439Y005558D02*
X021379Y005558D01*
X021819Y005361D02*
X021919Y005361D01*
X021949Y005262D02*
X021817Y005262D01*
X021719Y005163D02*
X022028Y005163D01*
X022127Y005065D02*
X021620Y005065D01*
X021830Y004966D02*
X023423Y004966D01*
X023521Y004868D02*
X021928Y004868D01*
X022027Y004769D02*
X023620Y004769D01*
X023718Y004671D02*
X022125Y004671D01*
X022224Y004572D02*
X022272Y004572D01*
X022796Y004572D02*
X023343Y004572D01*
X023364Y004593D02*
X023124Y004353D01*
X023124Y004213D01*
X023504Y004213D01*
X023504Y004153D01*
X023564Y004153D01*
X023564Y003773D01*
X023704Y003773D01*
X023944Y004014D01*
X023944Y004153D01*
X023564Y004153D01*
X023564Y004213D01*
X023944Y004213D01*
X023944Y004353D01*
X023704Y004593D01*
X023564Y004593D01*
X023564Y004214D01*
X023504Y004214D01*
X023504Y004593D01*
X023364Y004593D01*
X023504Y004572D02*
X023564Y004572D01*
X023564Y004474D02*
X023504Y004474D01*
X023504Y004375D02*
X023564Y004375D01*
X023564Y004277D02*
X023504Y004277D01*
X023504Y004178D02*
X022994Y004178D01*
X022994Y004277D02*
X023124Y004277D01*
X023146Y004375D02*
X022993Y004375D01*
X022894Y004474D02*
X023245Y004474D01*
X023124Y004153D02*
X023124Y004014D01*
X023364Y003773D01*
X023504Y003773D01*
X023504Y004153D01*
X023124Y004153D01*
X023124Y004079D02*
X023016Y004079D01*
X023115Y003981D02*
X023157Y003981D01*
X023214Y003882D02*
X023255Y003882D01*
X023312Y003784D02*
X023354Y003784D01*
X023504Y003784D02*
X023564Y003784D01*
X023564Y003882D02*
X023504Y003882D01*
X023504Y003981D02*
X023564Y003981D01*
X023564Y004079D02*
X023504Y004079D01*
X023564Y004178D02*
X026487Y004178D01*
X026331Y004079D02*
X023944Y004079D01*
X023911Y003981D02*
X026275Y003981D01*
X026259Y003882D02*
X023813Y003882D01*
X023714Y003784D02*
X026259Y003784D01*
X026259Y003685D02*
X023661Y003685D01*
X023721Y003625D02*
X023721Y003625D01*
X023759Y003587D02*
X026259Y003587D01*
X026259Y003488D02*
X023858Y003488D01*
X023956Y003390D02*
X026259Y003390D01*
X026237Y003291D02*
X025744Y003291D01*
X025748Y003289D02*
X025690Y003318D01*
X025629Y003338D01*
X025566Y003348D01*
X025563Y003348D01*
X025563Y002712D01*
X025941Y002712D01*
X025941Y002973D01*
X025931Y003036D01*
X025912Y003097D01*
X025883Y003154D01*
X025845Y003206D01*
X025799Y003252D01*
X025748Y003289D01*
X025855Y003193D02*
X026143Y003193D01*
X026102Y003094D02*
X025913Y003094D01*
X025938Y002996D02*
X026077Y002996D01*
X026077Y002897D02*
X025941Y002897D01*
X025941Y002798D02*
X026077Y002798D01*
X026077Y002700D02*
X025563Y002700D01*
X025563Y002712D02*
X025563Y002655D01*
X025941Y002655D01*
X025941Y002394D01*
X025931Y002330D01*
X025912Y002269D01*
X025883Y002212D01*
X025845Y002160D01*
X025799Y002115D01*
X025748Y002077D01*
X025690Y002048D01*
X025629Y002028D01*
X025566Y002018D01*
X025563Y002018D01*
X025563Y002654D01*
X025505Y002654D01*
X025505Y002018D01*
X025502Y002018D01*
X025439Y002028D01*
X025378Y002048D01*
X025320Y002077D01*
X025269Y002115D01*
X025223Y002160D01*
X025186Y002212D01*
X025156Y002269D01*
X025137Y002330D01*
X025127Y002394D01*
X025127Y002655D01*
X025505Y002655D01*
X025505Y002712D01*
X025127Y002712D01*
X025127Y002973D01*
X025137Y003036D01*
X025156Y003097D01*
X025186Y003154D01*
X025223Y003206D01*
X025269Y003252D01*
X025320Y003289D01*
X025378Y003318D01*
X025439Y003338D01*
X025502Y003348D01*
X025505Y003348D01*
X025505Y002712D01*
X025563Y002712D01*
X025505Y002700D02*
X024646Y002700D01*
X024547Y002798D02*
X025127Y002798D01*
X025127Y002897D02*
X024449Y002897D01*
X024350Y002996D02*
X025130Y002996D01*
X025155Y003094D02*
X024252Y003094D01*
X024153Y003193D02*
X025213Y003193D01*
X025324Y003291D02*
X024055Y003291D01*
X024745Y002601D02*
X025127Y002601D01*
X025127Y002503D02*
X024843Y002503D01*
X024942Y002404D02*
X025127Y002404D01*
X025145Y002306D02*
X025040Y002306D01*
X025139Y002207D02*
X025189Y002207D01*
X025237Y002109D02*
X025277Y002109D01*
X025336Y002010D02*
X026342Y002010D01*
X026204Y002109D02*
X025791Y002109D01*
X025879Y002207D02*
X026129Y002207D01*
X026089Y002306D02*
X025923Y002306D01*
X025941Y002404D02*
X026077Y002404D01*
X026077Y002503D02*
X025941Y002503D01*
X025941Y002601D02*
X026077Y002601D01*
X025563Y002601D02*
X025505Y002601D01*
X025505Y002503D02*
X025563Y002503D01*
X025563Y002404D02*
X025505Y002404D01*
X025505Y002306D02*
X025563Y002306D01*
X025563Y002207D02*
X025505Y002207D01*
X025505Y002109D02*
X025563Y002109D01*
X025563Y002798D02*
X025505Y002798D01*
X025505Y002897D02*
X025563Y002897D01*
X025563Y002996D02*
X025505Y002996D01*
X025505Y003094D02*
X025563Y003094D01*
X025563Y003193D02*
X025505Y003193D01*
X025505Y003291D02*
X025563Y003291D01*
X026859Y003291D02*
X027237Y003291D01*
X027143Y003193D02*
X026925Y003193D01*
X026966Y003094D02*
X027102Y003094D01*
X027077Y002996D02*
X026991Y002996D01*
X026991Y002897D02*
X027077Y002897D01*
X027077Y002798D02*
X026991Y002798D01*
X026991Y002700D02*
X027077Y002700D01*
X027077Y002601D02*
X026991Y002601D01*
X026991Y002503D02*
X027077Y002503D01*
X027077Y002404D02*
X026991Y002404D01*
X026979Y002306D02*
X027089Y002306D01*
X027129Y002207D02*
X026939Y002207D01*
X026864Y002109D02*
X027204Y002109D01*
X027342Y002010D02*
X026726Y002010D01*
X027726Y002010D02*
X028342Y002010D01*
X028204Y002109D02*
X027864Y002109D01*
X027939Y002207D02*
X028129Y002207D01*
X028089Y002306D02*
X027979Y002306D01*
X027991Y002404D02*
X028077Y002404D01*
X028077Y002503D02*
X027991Y002503D01*
X027991Y002601D02*
X028077Y002601D01*
X028726Y002010D02*
X028732Y002010D01*
X029309Y002233D02*
X029509Y002233D01*
X029509Y002683D01*
X029534Y002683D01*
X029991Y002601D02*
X030077Y002601D01*
X030077Y002503D02*
X029991Y002503D01*
X029991Y002404D02*
X030077Y002404D01*
X030089Y002306D02*
X029979Y002306D01*
X029939Y002207D02*
X030129Y002207D01*
X030204Y002109D02*
X029864Y002109D01*
X029726Y002010D02*
X030210Y002010D01*
X028662Y003390D02*
X028646Y003390D01*
X028585Y004183D02*
X028585Y004183D01*
X028077Y005755D02*
X027991Y005755D01*
X027991Y005853D02*
X028077Y005853D01*
X028077Y005952D02*
X027991Y005952D01*
X027984Y006050D02*
X028084Y006050D01*
X028125Y006149D02*
X027943Y006149D01*
X027874Y006247D02*
X028194Y006247D01*
X028317Y006346D02*
X027751Y006346D01*
X026194Y006247D02*
X025804Y006247D01*
X025885Y006149D02*
X026125Y006149D01*
X026084Y006050D02*
X025927Y006050D01*
X025941Y005952D02*
X026077Y005952D01*
X026077Y005853D02*
X025941Y005853D01*
X025941Y005755D02*
X026077Y005755D01*
X025563Y005459D02*
X025505Y005459D01*
X025505Y005361D02*
X025563Y005361D01*
X025563Y005262D02*
X025505Y005262D01*
X025505Y005163D02*
X025563Y005163D01*
X025563Y005065D02*
X025505Y005065D01*
X024112Y004277D02*
X023944Y004277D01*
X023922Y004375D02*
X024014Y004375D01*
X023915Y004474D02*
X023824Y004474D01*
X023817Y004572D02*
X023725Y004572D01*
X023324Y005065D02*
X022691Y005065D01*
X021812Y004277D02*
X021769Y004277D01*
X021714Y004375D02*
X021671Y004375D01*
X021615Y004474D02*
X021572Y004474D01*
X021409Y004283D02*
X022359Y003333D01*
X022284Y003094D02*
X022027Y003094D01*
X022146Y003193D02*
X020913Y003193D01*
X021002Y003291D02*
X022048Y003291D01*
X021949Y003390D02*
X021053Y003390D01*
X021078Y003488D02*
X021851Y003488D01*
X021791Y003094D02*
X020712Y003094D01*
X020914Y002996D02*
X021597Y002996D01*
X021498Y002897D02*
X021012Y002897D01*
X021077Y002798D02*
X021451Y002798D01*
X021412Y002700D02*
X021118Y002700D01*
X021134Y002601D02*
X021412Y002601D01*
X021412Y002503D02*
X021134Y002503D01*
X021113Y002404D02*
X021412Y002404D01*
X021412Y002306D02*
X021072Y002306D01*
X021000Y002207D02*
X021409Y002207D01*
X021310Y002109D02*
X020894Y002109D01*
X020890Y002010D02*
X021211Y002010D01*
X021113Y001912D02*
X020998Y001912D01*
X022216Y001616D02*
X022701Y001616D01*
X022861Y001616D02*
X022957Y001616D01*
X022957Y001714D02*
X022861Y001714D01*
X022861Y001813D02*
X022957Y001813D01*
X022957Y001912D02*
X022861Y001912D01*
X022861Y002010D02*
X022957Y002010D01*
X022957Y002109D02*
X022861Y002109D01*
X022861Y002207D02*
X022957Y002207D01*
X022860Y002306D02*
X022406Y002306D01*
X022406Y002404D02*
X022462Y002404D01*
X022462Y002503D02*
X022406Y002503D01*
X022406Y002601D02*
X022462Y002601D01*
X022472Y002700D02*
X022406Y002700D01*
X022367Y002798D02*
X022506Y002798D01*
X022569Y002897D02*
X022320Y002897D01*
X022221Y002996D02*
X022691Y002996D01*
X022861Y002996D02*
X022957Y002996D01*
X022957Y002897D02*
X022861Y002897D01*
X022861Y002798D02*
X022957Y002798D01*
X022957Y002700D02*
X022861Y002700D01*
X022861Y002601D02*
X022957Y002601D01*
X022957Y002503D02*
X022861Y002503D01*
X022861Y002404D02*
X022957Y002404D01*
X022462Y002207D02*
X022406Y002207D01*
X022406Y002109D02*
X022462Y002109D01*
X022462Y002010D02*
X022406Y002010D01*
X022405Y001912D02*
X022472Y001912D01*
X022509Y001813D02*
X022365Y001813D01*
X022315Y001714D02*
X022574Y001714D01*
X023117Y001616D02*
X023512Y001616D01*
X023610Y001714D02*
X023244Y001714D01*
X023309Y001813D02*
X023926Y001813D01*
X023958Y001714D02*
X024024Y001714D01*
X024056Y001616D02*
X024123Y001616D01*
X024155Y001517D02*
X024222Y001517D01*
X024194Y001419D02*
X024320Y001419D01*
X023814Y001419D02*
X023754Y001419D01*
X023754Y001517D02*
X023814Y001517D01*
X023814Y001616D02*
X023754Y001616D01*
X023754Y001714D02*
X023814Y001714D01*
X023530Y001912D02*
X023346Y001912D01*
X023356Y002010D02*
X023432Y002010D01*
X023374Y001222D02*
X023245Y001222D01*
X023343Y001123D02*
X023389Y001123D01*
X020334Y003094D02*
X020234Y003094D01*
X020234Y003193D02*
X020334Y003193D01*
X020334Y003291D02*
X020234Y003291D01*
X020234Y003390D02*
X020334Y003390D01*
X020334Y003488D02*
X020234Y003488D01*
X019856Y003094D02*
X018273Y003094D01*
X017852Y003968D02*
X018124Y004241D01*
X018124Y004403D01*
X017689Y004403D01*
X017689Y003968D01*
X017852Y003968D01*
X017864Y003981D02*
X019743Y003981D01*
X019612Y003882D02*
X016959Y003882D01*
X016959Y003784D02*
X019541Y003784D01*
X020234Y003784D02*
X020334Y003784D01*
X020334Y003882D02*
X020234Y003882D01*
X020234Y003981D02*
X020334Y003981D01*
X020309Y004079D02*
X017963Y004079D01*
X018061Y004178D02*
X020232Y004178D01*
X020209Y004277D02*
X018124Y004277D01*
X018124Y004375D02*
X020209Y004375D01*
X020209Y004474D02*
X018124Y004474D01*
X018124Y004463D02*
X018124Y004626D01*
X017852Y004898D01*
X017689Y004898D01*
X017689Y004464D01*
X017629Y004464D01*
X017629Y004898D01*
X017466Y004898D01*
X017194Y004626D01*
X017194Y004463D01*
X017629Y004463D01*
X017629Y004403D01*
X017689Y004403D01*
X017689Y004463D01*
X018124Y004463D01*
X018124Y004572D02*
X020167Y004572D01*
X020068Y004671D02*
X018079Y004671D01*
X017981Y004769D02*
X019970Y004769D01*
X019871Y004868D02*
X017882Y004868D01*
X017689Y004868D02*
X017629Y004868D01*
X017629Y004769D02*
X017689Y004769D01*
X017689Y004671D02*
X017629Y004671D01*
X017629Y004572D02*
X017689Y004572D01*
X017689Y004474D02*
X017629Y004474D01*
X017629Y004403D02*
X017194Y004403D01*
X017194Y004241D01*
X017466Y003968D01*
X017629Y003968D01*
X017629Y004403D01*
X017629Y004375D02*
X017689Y004375D01*
X017689Y004277D02*
X017629Y004277D01*
X017629Y004178D02*
X017689Y004178D01*
X017689Y004079D02*
X017629Y004079D01*
X017629Y003981D02*
X017689Y003981D01*
X017454Y003981D02*
X016959Y003981D01*
X017033Y004079D02*
X017355Y004079D01*
X017257Y004178D02*
X017111Y004178D01*
X017151Y004277D02*
X017194Y004277D01*
X017194Y004375D02*
X017174Y004375D01*
X017174Y004474D02*
X017194Y004474D01*
X017194Y004572D02*
X017159Y004572D01*
X017118Y004671D02*
X017239Y004671D01*
X017337Y004769D02*
X017051Y004769D01*
X016953Y004868D02*
X017436Y004868D01*
X016793Y005163D02*
X019575Y005163D01*
X019674Y005065D02*
X016685Y005065D01*
X016559Y005283D02*
X017159Y005883D01*
X017159Y010883D01*
X018109Y011470D02*
X019519Y011470D01*
X019563Y011372D02*
X019617Y011372D01*
X018755Y011372D02*
X018199Y011372D01*
X019129Y010288D02*
X019189Y010288D01*
X019189Y010189D02*
X019129Y010189D01*
X019129Y010091D02*
X019189Y010091D01*
X019189Y009992D02*
X019129Y009992D01*
X019129Y009894D02*
X019189Y009894D01*
X019189Y009795D02*
X019129Y009795D01*
X019129Y009696D02*
X019189Y009696D01*
X019189Y009598D02*
X019129Y009598D01*
X019659Y008933D02*
X019909Y008933D01*
X019678Y008514D02*
X019608Y008514D01*
X019159Y007933D02*
X019359Y007733D01*
X020109Y007733D01*
X020133Y007430D02*
X017409Y007430D01*
X017409Y007134D02*
X018484Y007134D01*
X018444Y007036D02*
X017409Y007036D01*
X017409Y006937D02*
X018439Y006937D01*
X018440Y006839D02*
X017409Y006839D01*
X017409Y006740D02*
X018481Y006740D01*
X018540Y006642D02*
X017409Y006642D01*
X017409Y006543D02*
X018639Y006543D01*
X018693Y006346D02*
X017409Y006346D01*
X017409Y006247D02*
X018563Y006247D01*
X018490Y006149D02*
X017409Y006149D01*
X017409Y006050D02*
X018450Y006050D01*
X018439Y005952D02*
X017409Y005952D01*
X017409Y005853D02*
X018439Y005853D01*
X018475Y005755D02*
X017376Y005755D01*
X017285Y005656D02*
X018526Y005656D01*
X018624Y005558D02*
X017187Y005558D01*
X017088Y005459D02*
X019280Y005459D01*
X019378Y005361D02*
X016990Y005361D01*
X016891Y005262D02*
X019477Y005262D01*
X019773Y004966D02*
X014996Y004966D01*
X014966Y004898D02*
X014694Y004626D01*
X014694Y004463D01*
X015129Y004463D01*
X015129Y004403D01*
X015189Y004403D01*
X015189Y003968D01*
X015352Y003968D01*
X015624Y004241D01*
X015624Y004403D01*
X015189Y004403D01*
X015189Y004463D01*
X015624Y004463D01*
X015624Y004626D01*
X015352Y004898D01*
X015189Y004898D01*
X015189Y004464D01*
X015129Y004464D01*
X015129Y004898D01*
X014966Y004898D01*
X014936Y004868D02*
X014897Y004868D01*
X014837Y004769D02*
X014798Y004769D01*
X014739Y004671D02*
X014700Y004671D01*
X014694Y004572D02*
X014659Y004572D01*
X014674Y004474D02*
X014694Y004474D01*
X014694Y004403D02*
X014694Y004241D01*
X014966Y003968D01*
X015129Y003968D01*
X015129Y004403D01*
X014694Y004403D01*
X014694Y004375D02*
X014674Y004375D01*
X014651Y004277D02*
X014694Y004277D01*
X014757Y004178D02*
X014611Y004178D01*
X014533Y004079D02*
X014855Y004079D01*
X014954Y003981D02*
X014413Y003981D01*
X013906Y003981D02*
X011780Y003981D01*
X011960Y004079D02*
X012443Y004079D01*
X012335Y004178D02*
X012051Y004178D01*
X012092Y004277D02*
X012279Y004277D01*
X012255Y004375D02*
X012116Y004375D01*
X012116Y004474D02*
X012252Y004474D01*
X012252Y004572D02*
X012116Y004572D01*
X012116Y004671D02*
X012630Y004671D01*
X012688Y004671D02*
X013518Y004671D01*
X013420Y004769D02*
X013066Y004769D01*
X013066Y004868D02*
X013321Y004868D01*
X013223Y004966D02*
X013066Y004966D01*
X013047Y005065D02*
X013124Y005065D01*
X013025Y005163D02*
X013001Y005163D01*
X012927Y005262D02*
X012910Y005262D01*
X012959Y005583D02*
X014059Y004483D01*
X014159Y004483D01*
X014159Y004433D01*
X014159Y004483D02*
X014959Y005283D01*
X016559Y005283D01*
X016365Y004868D02*
X015382Y004868D01*
X015481Y004769D02*
X016267Y004769D01*
X016200Y004671D02*
X015579Y004671D01*
X015624Y004572D02*
X016159Y004572D01*
X016144Y004474D02*
X015624Y004474D01*
X015624Y004375D02*
X016144Y004375D01*
X016167Y004277D02*
X015624Y004277D01*
X015561Y004178D02*
X016207Y004178D01*
X016285Y004079D02*
X015463Y004079D01*
X015364Y003981D02*
X016359Y003981D01*
X015189Y003981D02*
X015129Y003981D01*
X015129Y004079D02*
X015189Y004079D01*
X015189Y004178D02*
X015129Y004178D01*
X015129Y004277D02*
X015189Y004277D01*
X015189Y004375D02*
X015129Y004375D01*
X015129Y004474D02*
X015189Y004474D01*
X015189Y004572D02*
X015129Y004572D01*
X015129Y004671D02*
X015189Y004671D01*
X015189Y004769D02*
X015129Y004769D01*
X015129Y004868D02*
X015189Y004868D01*
X013644Y004474D02*
X013066Y004474D01*
X013066Y004572D02*
X013617Y004572D01*
X013644Y004375D02*
X013064Y004375D01*
X013039Y004277D02*
X013667Y004277D01*
X013707Y004178D02*
X012983Y004178D01*
X012875Y004079D02*
X013785Y004079D01*
X012688Y004079D02*
X012630Y004079D01*
X012630Y004178D02*
X012688Y004178D01*
X012688Y004277D02*
X012630Y004277D01*
X012630Y004375D02*
X012688Y004375D01*
X012688Y004474D02*
X012630Y004474D01*
X012630Y004572D02*
X012688Y004572D01*
X012252Y004769D02*
X012116Y004769D01*
X012116Y004868D02*
X012252Y004868D01*
X012252Y004966D02*
X012116Y004966D01*
X012103Y005065D02*
X012271Y005065D01*
X012317Y005163D02*
X012062Y005163D01*
X011985Y005262D02*
X012408Y005262D01*
X012959Y005583D02*
X009609Y005583D01*
X008659Y005133D02*
X008509Y005133D01*
X008234Y005408D01*
X008209Y005383D01*
X007959Y005383D01*
X007659Y005683D01*
X007259Y005983D02*
X007659Y006383D01*
X007659Y006433D01*
X008059Y006833D01*
X013259Y006833D01*
X013409Y006683D01*
X013259Y006783D01*
X013259Y006733D02*
X013409Y006683D01*
X013459Y006683D01*
X013709Y006933D01*
X016159Y006933D01*
X015540Y006642D02*
X013869Y006642D01*
X013869Y006543D02*
X015639Y006543D01*
X015693Y006346D02*
X013722Y006346D01*
X013821Y006445D02*
X016909Y006445D01*
X016909Y006543D02*
X016679Y006543D01*
X016778Y006642D02*
X016909Y006642D01*
X016909Y006740D02*
X016837Y006740D01*
X016878Y006839D02*
X016909Y006839D01*
X016909Y006937D02*
X016879Y006937D01*
X016875Y007036D02*
X016909Y007036D01*
X016909Y007134D02*
X016834Y007134D01*
X016770Y007233D02*
X016909Y007233D01*
X016909Y007331D02*
X016660Y007331D01*
X016159Y007933D02*
X015959Y008133D01*
X015709Y008133D01*
X014959Y008883D01*
X014459Y008883D01*
X012909Y010433D01*
X012709Y010433D01*
X012659Y010433D01*
X012709Y010433D02*
X012209Y009933D01*
X009059Y009933D01*
X008809Y010183D01*
X008784Y010183D01*
X008659Y010183D01*
X008659Y008933D01*
X009116Y008908D02*
X009202Y008908D01*
X009202Y008810D02*
X009116Y008810D01*
X009116Y008711D02*
X009202Y008711D01*
X009202Y008612D02*
X009116Y008612D01*
X009119Y008514D02*
X009087Y008514D01*
X009509Y008483D02*
X009659Y008483D01*
X009659Y008933D01*
X010116Y008908D02*
X010202Y008908D01*
X010202Y008810D02*
X010116Y008810D01*
X010116Y008711D02*
X010202Y008711D01*
X010202Y008612D02*
X010116Y008612D01*
X010087Y008514D02*
X010231Y008514D01*
X010273Y008415D02*
X010046Y008415D01*
X009947Y008317D02*
X010371Y008317D01*
X011087Y008514D02*
X011115Y008514D01*
X011116Y008612D02*
X011202Y008612D01*
X011202Y008711D02*
X011116Y008711D01*
X011116Y008810D02*
X011202Y008810D01*
X011202Y008908D02*
X011116Y008908D01*
X011116Y009007D02*
X011202Y009007D01*
X011202Y009105D02*
X011116Y009105D01*
X011116Y009204D02*
X011202Y009204D01*
X011210Y009302D02*
X011108Y009302D01*
X011067Y009401D02*
X011251Y009401D01*
X011321Y009499D02*
X010997Y009499D01*
X010872Y009598D02*
X011446Y009598D01*
X011872Y009598D02*
X012624Y009598D01*
X012627Y009598D02*
X012564Y009588D01*
X012503Y009568D01*
X012445Y009539D01*
X012394Y009502D01*
X012348Y009456D01*
X012311Y009404D01*
X012281Y009347D01*
X012262Y009286D01*
X012252Y009223D01*
X012252Y008962D01*
X012630Y008962D01*
X012630Y008905D01*
X012252Y008905D01*
X012252Y008644D01*
X012262Y008580D01*
X012281Y008519D01*
X012311Y008462D01*
X012348Y008410D01*
X012394Y008365D01*
X012445Y008327D01*
X012503Y008298D01*
X012564Y008278D01*
X012627Y008268D01*
X012630Y008268D01*
X012630Y008904D01*
X012688Y008904D01*
X012688Y008268D01*
X012691Y008268D01*
X012754Y008278D01*
X012815Y008298D01*
X012873Y008327D01*
X012924Y008365D01*
X012970Y008410D01*
X013008Y008462D01*
X013037Y008519D01*
X013056Y008580D01*
X013066Y008644D01*
X013066Y008905D01*
X012688Y008905D01*
X012688Y008962D01*
X013066Y008962D01*
X013066Y009223D01*
X013056Y009286D01*
X013037Y009347D01*
X013008Y009404D01*
X012970Y009456D01*
X012924Y009502D01*
X012873Y009539D01*
X012815Y009568D01*
X012754Y009588D01*
X012691Y009598D01*
X012688Y009598D01*
X012630Y009598D01*
X012627Y009598D01*
X012630Y009598D02*
X012630Y008962D01*
X012688Y008962D01*
X012688Y009598D01*
X012694Y009598D02*
X013391Y009598D01*
X013292Y009696D02*
X012290Y009696D01*
X012424Y009795D02*
X013194Y009795D01*
X013095Y009894D02*
X012523Y009894D01*
X012868Y009992D02*
X012997Y009992D01*
X012927Y009499D02*
X013490Y009499D01*
X013588Y009401D02*
X013009Y009401D01*
X013051Y009302D02*
X013687Y009302D01*
X013785Y009204D02*
X013066Y009204D01*
X013066Y009105D02*
X013884Y009105D01*
X013982Y009007D02*
X013066Y009007D01*
X013066Y008810D02*
X014179Y008810D01*
X014081Y008908D02*
X012688Y008908D01*
X012630Y008908D02*
X012116Y008908D01*
X012116Y008810D02*
X012252Y008810D01*
X012252Y008711D02*
X012116Y008711D01*
X012116Y008612D02*
X012257Y008612D01*
X012284Y008514D02*
X012087Y008514D01*
X012046Y008415D02*
X012345Y008415D01*
X012466Y008317D02*
X011947Y008317D01*
X011471Y008021D02*
X013167Y008021D01*
X013069Y007923D02*
X011373Y007923D01*
X011274Y007824D02*
X012999Y007824D01*
X012999Y007726D02*
X011175Y007726D01*
X011077Y007627D02*
X012273Y007627D01*
X012174Y007529D02*
X010978Y007529D01*
X010880Y007430D02*
X012124Y007430D01*
X012124Y007233D02*
X010683Y007233D01*
X010584Y007134D02*
X012128Y007134D01*
X012504Y007430D02*
X012564Y007430D01*
X012564Y007529D02*
X012504Y007529D01*
X012504Y007627D02*
X012564Y007627D01*
X012795Y007627D02*
X012999Y007627D01*
X012999Y007529D02*
X012894Y007529D01*
X012944Y007430D02*
X013083Y007430D01*
X013379Y007430D02*
X013439Y007430D01*
X013439Y007529D02*
X013379Y007529D01*
X013379Y007627D02*
X013439Y007627D01*
X013439Y007726D02*
X013379Y007726D01*
X013379Y007824D02*
X013439Y007824D01*
X013439Y007923D02*
X013379Y007923D01*
X013379Y008021D02*
X013439Y008021D01*
X013651Y008021D02*
X015439Y008021D01*
X015439Y007923D02*
X013750Y007923D01*
X013819Y007824D02*
X015446Y007824D01*
X015487Y007726D02*
X013819Y007726D01*
X013819Y007627D02*
X015555Y007627D01*
X015674Y007529D02*
X013819Y007529D01*
X013439Y007331D02*
X013379Y007331D01*
X012852Y008317D02*
X015172Y008317D01*
X015074Y008415D02*
X012973Y008415D01*
X013034Y008514D02*
X014975Y008514D01*
X014876Y008612D02*
X013061Y008612D01*
X013066Y008711D02*
X014278Y008711D01*
X012688Y008711D02*
X012630Y008711D01*
X012630Y008612D02*
X012688Y008612D01*
X012688Y008514D02*
X012630Y008514D01*
X012630Y008415D02*
X012688Y008415D01*
X012688Y008317D02*
X012630Y008317D01*
X012630Y008810D02*
X012688Y008810D01*
X012688Y009007D02*
X012630Y009007D01*
X012630Y009105D02*
X012688Y009105D01*
X012688Y009204D02*
X012630Y009204D01*
X012630Y009302D02*
X012688Y009302D01*
X012688Y009401D02*
X012630Y009401D01*
X012630Y009499D02*
X012688Y009499D01*
X012391Y009499D02*
X011997Y009499D01*
X012067Y009401D02*
X012309Y009401D01*
X012267Y009302D02*
X012108Y009302D01*
X012116Y009204D02*
X012252Y009204D01*
X012252Y009105D02*
X012116Y009105D01*
X012116Y009007D02*
X012252Y009007D01*
X014055Y010091D02*
X014229Y010091D01*
X014202Y009992D02*
X014154Y009992D01*
X014270Y010189D02*
X013957Y010189D01*
X013858Y010288D02*
X014366Y010288D01*
X014557Y010386D02*
X013760Y010386D01*
X014659Y011933D02*
X015559Y011033D01*
X015659Y011033D01*
X015759Y010933D01*
X016159Y010933D01*
X015755Y011372D02*
X015574Y011372D01*
X014258Y012160D02*
X014189Y012160D01*
X013459Y012833D02*
X012359Y012833D01*
X011109Y014083D01*
X008909Y014083D01*
X008809Y014183D01*
X008659Y014183D01*
X008159Y014183D01*
X008109Y014183D01*
X007959Y014333D01*
X005709Y014333D01*
X005659Y014283D01*
X005659Y014240D01*
X006159Y014633D02*
X006159Y014642D01*
X006159Y014633D02*
X006409Y014883D01*
X009059Y014883D01*
X009609Y014333D01*
X012409Y014333D01*
X012609Y014533D01*
X012659Y014533D01*
X012659Y014558D01*
X012659Y014583D01*
X013159Y014583D01*
X013159Y014558D01*
X013159Y014583D02*
X013259Y014683D01*
X015909Y014683D01*
X016159Y014933D01*
X016609Y014433D02*
X017084Y013958D01*
X016609Y014433D02*
X014009Y014433D01*
X013159Y013583D01*
X013159Y013558D01*
X013159Y013583D02*
X012659Y013583D01*
X012659Y013558D01*
X013459Y012833D02*
X013559Y012933D01*
X014909Y012933D01*
X015709Y013733D01*
X015959Y013733D01*
X016159Y013933D01*
X014859Y015083D02*
X015709Y015933D01*
X016159Y015933D01*
X016609Y016433D02*
X017084Y015958D01*
X014859Y015083D02*
X010409Y015083D01*
X010409Y015058D01*
X010409Y015083D02*
X009909Y015083D01*
X009909Y015058D01*
X009909Y015083D02*
X009859Y015133D01*
X005709Y015133D01*
X005659Y015083D01*
X005659Y015044D01*
X008159Y015933D02*
X008659Y015933D01*
X012609Y015933D02*
X012659Y015808D01*
X013757Y017383D02*
X013805Y017383D01*
X013899Y017481D02*
X013904Y017481D01*
X013987Y017580D02*
X014002Y017580D01*
X014027Y017678D02*
X014041Y017678D01*
X016159Y018933D02*
X016159Y019433D01*
X016284Y019433D01*
X017159Y019433D01*
X018159Y018433D01*
X019909Y018433D01*
X019909Y017808D01*
X020284Y017433D01*
X021909Y017433D01*
X021909Y017558D01*
X022534Y018183D01*
X023034Y018171D02*
X023034Y018171D01*
X023034Y018073D02*
X023034Y018073D01*
X023034Y017974D02*
X023034Y017974D01*
X023034Y017876D02*
X023034Y017876D01*
X023034Y017784D02*
X023034Y018583D01*
X022958Y018767D01*
X022817Y018907D01*
X022634Y018983D01*
X022435Y018983D01*
X022251Y018907D01*
X022110Y018767D01*
X022034Y018583D01*
X022034Y018037D01*
X021984Y017987D01*
X021984Y018133D01*
X021584Y018133D01*
X021584Y018233D01*
X021984Y018233D01*
X021984Y018519D01*
X021973Y018589D01*
X021951Y018656D01*
X021919Y018719D01*
X021877Y018776D01*
X021827Y018827D01*
X021770Y018868D01*
X021707Y018900D01*
X021639Y018922D01*
X021584Y018931D01*
X021584Y018234D01*
X021484Y018234D01*
X021484Y018931D01*
X021429Y018922D01*
X021369Y018903D01*
X021369Y019107D01*
X021493Y019090D01*
X021509Y019083D01*
X021542Y019083D01*
X021574Y019079D01*
X021591Y019083D01*
X023734Y019083D01*
X023909Y018908D01*
X023909Y018834D01*
X023922Y018802D01*
X023817Y018907D01*
X023634Y018983D01*
X023435Y018983D01*
X023251Y018907D01*
X023110Y018767D01*
X023034Y018583D01*
X023034Y017784D01*
X022958Y017600D01*
X022826Y017468D01*
X022829Y017468D01*
X023069Y017228D01*
X023069Y017088D01*
X022689Y017088D01*
X022689Y017028D01*
X022689Y016648D01*
X022829Y016648D01*
X023069Y016889D01*
X023069Y017028D01*
X022689Y017028D01*
X022629Y017028D01*
X022629Y016648D01*
X022497Y016648D01*
X022513Y016633D01*
X022906Y016633D01*
X023199Y016927D01*
X023199Y017249D01*
X023309Y017359D01*
X023309Y017435D01*
X023251Y017459D01*
X023110Y017600D01*
X023034Y017784D01*
X023031Y017777D02*
X023037Y017777D01*
X023034Y017683D02*
X023034Y018933D01*
X022864Y018861D02*
X023205Y018861D01*
X023108Y018762D02*
X022960Y018762D01*
X023000Y018664D02*
X023068Y018664D01*
X023034Y018565D02*
X023034Y018565D01*
X023034Y018467D02*
X023034Y018467D01*
X023034Y018368D02*
X023034Y018368D01*
X023034Y018270D02*
X023034Y018270D01*
X023534Y018183D02*
X023559Y018183D01*
X023559Y017183D01*
X023309Y017383D02*
X022914Y017383D01*
X022839Y017481D02*
X023229Y017481D01*
X023159Y017433D02*
X023159Y017558D01*
X023034Y017683D01*
X022990Y017678D02*
X023078Y017678D01*
X023130Y017580D02*
X022938Y017580D01*
X023159Y017433D02*
X022909Y017183D01*
X022659Y017058D01*
X022409Y017183D01*
X022159Y016933D01*
X022249Y016890D02*
X021856Y016890D01*
X021954Y016792D02*
X022346Y016792D01*
X022359Y016733D02*
X022259Y016733D01*
X022013Y016733D01*
X021562Y017183D01*
X021859Y017183D01*
X021959Y017183D01*
X022051Y017221D01*
X022121Y017292D01*
X022159Y017384D01*
X022159Y017455D01*
X022207Y017503D01*
X022251Y017459D01*
X022413Y017392D01*
X022249Y017228D01*
X022249Y017088D01*
X022629Y017088D01*
X022629Y017028D01*
X022249Y017028D01*
X022249Y016889D01*
X022437Y016701D01*
X022359Y016733D01*
X022629Y016693D02*
X022689Y016693D01*
X022689Y016792D02*
X022629Y016792D01*
X022629Y016890D02*
X022689Y016890D01*
X022689Y016989D02*
X022629Y016989D01*
X022629Y017087D02*
X021659Y017087D01*
X021757Y016989D02*
X022249Y016989D01*
X022249Y017186D02*
X021964Y017186D01*
X022113Y017284D02*
X022305Y017284D01*
X022404Y017383D02*
X022159Y017383D01*
X022186Y017481D02*
X022229Y017481D01*
X022689Y017087D02*
X023199Y017087D01*
X023199Y016989D02*
X023069Y016989D01*
X023069Y016890D02*
X023162Y016890D01*
X023064Y016792D02*
X022972Y016792D01*
X022965Y016693D02*
X022874Y016693D01*
X023278Y016299D02*
X023445Y016299D01*
X023377Y016397D02*
X026302Y016397D01*
X026261Y016299D02*
X024623Y016299D01*
X024722Y016200D02*
X026259Y016200D01*
X026259Y016102D02*
X024819Y016102D01*
X024819Y016003D02*
X026259Y016003D01*
X026259Y015905D02*
X024439Y015905D01*
X024379Y015905D02*
X023689Y015905D01*
X023689Y015903D02*
X023689Y015963D01*
X023999Y015963D01*
X024379Y015963D01*
X024379Y015903D01*
X023999Y015903D01*
X023689Y015903D01*
X023659Y015933D02*
X023534Y016058D01*
X022034Y016058D01*
X022239Y016200D02*
X021326Y016200D01*
X021228Y016102D02*
X023249Y016102D01*
X023249Y016003D02*
X021129Y016003D01*
X020890Y015806D02*
X023249Y015806D01*
X023629Y015905D02*
X020791Y015905D01*
X020274Y015215D02*
X019788Y015215D01*
X019809Y015194D02*
X019879Y015025D01*
X019879Y015018D01*
X020100Y015018D01*
X019909Y014533D02*
X020609Y013833D01*
X024037Y015609D02*
X024154Y015609D01*
X024135Y015511D02*
X025281Y015511D01*
X025269Y015502D02*
X025223Y015456D01*
X025186Y015404D01*
X025156Y015347D01*
X025137Y015286D01*
X025127Y015223D01*
X025127Y014962D01*
X025505Y014962D01*
X025505Y014905D01*
X025127Y014905D01*
X025127Y014644D01*
X025137Y014580D01*
X025156Y014519D01*
X025186Y014462D01*
X025223Y014410D01*
X025269Y014365D01*
X025320Y014327D01*
X025378Y014298D01*
X025439Y014278D01*
X025502Y014268D01*
X025505Y014268D01*
X025505Y014904D01*
X025563Y014904D01*
X025563Y014268D01*
X025566Y014268D01*
X025629Y014278D01*
X025690Y014298D01*
X025748Y014327D01*
X025799Y014365D01*
X025845Y014410D01*
X025883Y014462D01*
X025912Y014519D01*
X025931Y014580D01*
X025941Y014644D01*
X025941Y014905D01*
X025563Y014905D01*
X025563Y014962D01*
X025941Y014962D01*
X025941Y015223D01*
X025931Y015286D01*
X025912Y015347D01*
X025883Y015404D01*
X025845Y015456D01*
X025799Y015502D01*
X025748Y015539D01*
X025690Y015568D01*
X025629Y015588D01*
X025566Y015598D01*
X025563Y015598D01*
X025563Y014962D01*
X025505Y014962D01*
X025505Y015598D01*
X025502Y015598D01*
X025439Y015588D01*
X025378Y015568D01*
X025320Y015539D01*
X025269Y015502D01*
X025191Y015412D02*
X024234Y015412D01*
X024379Y015609D02*
X024439Y015609D01*
X024439Y015708D02*
X024379Y015708D01*
X024379Y015806D02*
X024439Y015806D01*
X024439Y016003D02*
X024379Y016003D01*
X024379Y016102D02*
X024439Y016102D01*
X024439Y016200D02*
X024379Y016200D01*
X024379Y016299D02*
X024439Y016299D01*
X024195Y016299D02*
X023873Y016299D01*
X023972Y016200D02*
X024096Y016200D01*
X024143Y016496D02*
X023475Y016496D01*
X023574Y016594D02*
X024044Y016594D01*
X023946Y016693D02*
X023944Y016693D01*
X023689Y016299D02*
X023629Y016299D01*
X023629Y016200D02*
X023689Y016200D01*
X023689Y016102D02*
X023629Y016102D01*
X023629Y016003D02*
X023689Y016003D01*
X023346Y016200D02*
X023179Y016200D01*
X024013Y015708D02*
X024055Y015708D01*
X024665Y015609D02*
X026259Y015609D01*
X026259Y015708D02*
X024763Y015708D01*
X024819Y015806D02*
X026259Y015806D01*
X026859Y015806D02*
X028074Y015806D01*
X028074Y015905D02*
X026859Y015905D01*
X026859Y015708D02*
X028109Y015708D01*
X028208Y015609D02*
X027720Y015609D01*
X027793Y015579D02*
X027625Y015648D01*
X027443Y015648D01*
X027275Y015579D01*
X027146Y015450D01*
X027077Y015282D01*
X027077Y014585D01*
X027146Y014417D01*
X027275Y014288D01*
X027443Y014218D01*
X027625Y014218D01*
X027793Y014288D01*
X027922Y014417D01*
X027991Y014585D01*
X027991Y015282D01*
X027922Y015450D01*
X027793Y015579D01*
X027861Y015511D02*
X028207Y015511D01*
X028130Y015412D02*
X027938Y015412D01*
X027978Y015313D02*
X028090Y015313D01*
X028077Y015215D02*
X027991Y015215D01*
X027991Y015116D02*
X028077Y015116D01*
X028077Y015018D02*
X027991Y015018D01*
X027991Y014919D02*
X028077Y014919D01*
X028077Y014821D02*
X027991Y014821D01*
X027991Y014722D02*
X028077Y014722D01*
X028077Y014624D02*
X027991Y014624D01*
X027967Y014525D02*
X028101Y014525D01*
X028142Y014427D02*
X027926Y014427D01*
X027896Y014328D02*
X027833Y014328D01*
X027752Y014229D02*
X027652Y014229D01*
X027416Y014229D02*
X026652Y014229D01*
X026833Y014328D02*
X027235Y014328D01*
X027142Y014427D02*
X026926Y014427D01*
X026967Y014525D02*
X027101Y014525D01*
X027077Y014624D02*
X026991Y014624D01*
X026991Y014722D02*
X027077Y014722D01*
X027077Y014821D02*
X026991Y014821D01*
X026991Y014919D02*
X027077Y014919D01*
X027077Y015018D02*
X026991Y015018D01*
X026991Y015116D02*
X027077Y015116D01*
X027077Y015215D02*
X026991Y015215D01*
X026978Y015313D02*
X027090Y015313D01*
X027130Y015412D02*
X026938Y015412D01*
X026861Y015511D02*
X027207Y015511D01*
X027348Y015609D02*
X026859Y015609D01*
X026207Y015511D02*
X025787Y015511D01*
X025877Y015412D02*
X026130Y015412D01*
X026090Y015313D02*
X025923Y015313D01*
X025941Y015215D02*
X026077Y015215D01*
X026077Y015116D02*
X025941Y015116D01*
X025941Y015018D02*
X026077Y015018D01*
X026077Y014919D02*
X025563Y014919D01*
X025505Y014919D02*
X024869Y014919D01*
X024869Y014821D02*
X025127Y014821D01*
X025127Y014722D02*
X024874Y014722D01*
X024972Y014624D02*
X025130Y014624D01*
X025155Y014525D02*
X025071Y014525D01*
X025169Y014427D02*
X025212Y014427D01*
X025268Y014328D02*
X025320Y014328D01*
X025366Y014229D02*
X026416Y014229D01*
X026235Y014328D02*
X025748Y014328D01*
X025856Y014427D02*
X026142Y014427D01*
X026101Y014525D02*
X025913Y014525D01*
X025938Y014624D02*
X026077Y014624D01*
X026077Y014722D02*
X025941Y014722D01*
X025941Y014821D02*
X026077Y014821D01*
X025563Y014821D02*
X025505Y014821D01*
X025505Y014722D02*
X025563Y014722D01*
X025563Y014624D02*
X025505Y014624D01*
X025505Y014525D02*
X025563Y014525D01*
X025563Y014427D02*
X025505Y014427D01*
X025505Y014328D02*
X025563Y014328D01*
X025563Y015018D02*
X025505Y015018D01*
X025505Y015116D02*
X025563Y015116D01*
X025563Y015215D02*
X025505Y015215D01*
X025505Y015313D02*
X025563Y015313D01*
X025563Y015412D02*
X025505Y015412D01*
X025505Y015511D02*
X025563Y015511D01*
X025145Y015313D02*
X024679Y015313D01*
X024778Y015215D02*
X025127Y015215D01*
X025127Y015116D02*
X024869Y015116D01*
X024869Y015018D02*
X025127Y015018D01*
X026375Y016496D02*
X026409Y016496D01*
X026474Y016594D02*
X028046Y016594D01*
X028534Y015933D02*
X028559Y015933D01*
X028559Y014933D01*
X028534Y014933D01*
X031009Y013433D02*
X024809Y013433D01*
X028559Y012783D02*
X028559Y011833D01*
X028534Y011808D01*
X028559Y012783D02*
X032259Y012783D01*
X032284Y012808D01*
X031534Y011808D02*
X031559Y011783D01*
X031559Y010833D01*
X031534Y010808D01*
X031321Y009598D02*
X030747Y009598D01*
X030872Y009499D02*
X031196Y009499D01*
X031126Y009401D02*
X030942Y009401D01*
X030983Y009302D02*
X031085Y009302D01*
X031077Y009204D02*
X030991Y009204D01*
X030991Y009105D02*
X031077Y009105D01*
X031077Y009007D02*
X030991Y009007D01*
X030991Y008908D02*
X031077Y008908D01*
X031077Y008810D02*
X030991Y008810D01*
X030991Y008711D02*
X031077Y008711D01*
X031077Y008612D02*
X030991Y008612D01*
X030962Y008514D02*
X031106Y008514D01*
X031148Y008415D02*
X030921Y008415D01*
X030822Y008317D02*
X031246Y008317D01*
X030809Y007824D02*
X031776Y007824D01*
X031677Y007726D02*
X030809Y007726D01*
X030559Y007683D02*
X029059Y007683D01*
X029286Y007036D02*
X031861Y007036D01*
X031934Y007134D02*
X031959Y007134D01*
X032033Y007233D02*
X032058Y007233D01*
X030559Y007683D02*
X030559Y008933D01*
X030534Y008933D01*
X030077Y009007D02*
X029991Y009007D01*
X029991Y009105D02*
X030077Y009105D01*
X030077Y009204D02*
X029991Y009204D01*
X029983Y009302D02*
X030085Y009302D01*
X030126Y009401D02*
X029942Y009401D01*
X029872Y009499D02*
X030196Y009499D01*
X030321Y009598D02*
X029747Y009598D01*
X026246Y008317D02*
X025727Y008317D01*
X025848Y008415D02*
X026148Y008415D01*
X026106Y008514D02*
X025909Y008514D01*
X025936Y008612D02*
X026077Y008612D01*
X026077Y008711D02*
X025941Y008711D01*
X025941Y008810D02*
X026077Y008810D01*
X025563Y008810D02*
X025505Y008810D01*
X025505Y008711D02*
X025563Y008711D01*
X025563Y008612D02*
X025505Y008612D01*
X025505Y008514D02*
X025563Y008514D01*
X025563Y008415D02*
X025505Y008415D01*
X025505Y008317D02*
X025563Y008317D01*
X025563Y009007D02*
X025505Y009007D01*
X025505Y009105D02*
X025563Y009105D01*
X025563Y009204D02*
X025505Y009204D01*
X025505Y009302D02*
X025563Y009302D01*
X025563Y009401D02*
X025505Y009401D01*
X025505Y009499D02*
X025563Y009499D01*
X025266Y009499D02*
X024147Y009499D01*
X024165Y009598D02*
X024048Y009598D01*
X024066Y009696D02*
X024002Y009696D01*
X023999Y009903D02*
X024379Y009903D01*
X024379Y009963D01*
X023999Y009963D01*
X023689Y009963D01*
X023689Y009903D01*
X023999Y009903D01*
X023689Y009992D02*
X023629Y009992D01*
X023629Y010091D02*
X023689Y010091D01*
X023689Y010189D02*
X023629Y010189D01*
X023629Y010288D02*
X023689Y010288D01*
X023884Y010288D02*
X024184Y010288D01*
X024085Y010189D02*
X023983Y010189D01*
X024379Y010189D02*
X024439Y010189D01*
X024439Y010091D02*
X024379Y010091D01*
X024379Y009992D02*
X024439Y009992D01*
X024439Y009894D02*
X024379Y009894D01*
X024379Y009795D02*
X024439Y009795D01*
X024439Y009696D02*
X024379Y009696D01*
X024379Y009598D02*
X024439Y009598D01*
X024245Y009401D02*
X025184Y009401D01*
X025142Y009302D02*
X024691Y009302D01*
X024789Y009204D02*
X025127Y009204D01*
X025127Y009105D02*
X024869Y009105D01*
X024869Y009007D02*
X025127Y009007D01*
X023316Y009696D02*
X022749Y009696D01*
X022651Y009795D02*
X023249Y009795D01*
X023249Y009894D02*
X022552Y009894D01*
X022454Y009992D02*
X023249Y009992D01*
X023249Y010091D02*
X022355Y010091D01*
X022257Y010189D02*
X023335Y010189D01*
X023434Y010288D02*
X022158Y010288D01*
X024379Y010288D02*
X024439Y010288D01*
X021825Y008514D02*
X021140Y008514D01*
X021239Y008612D02*
X021726Y008612D01*
X021628Y008711D02*
X021337Y008711D01*
X020302Y007331D02*
X020161Y007331D01*
X020260Y007233D02*
X020558Y007233D01*
X020460Y007134D02*
X020359Y007134D01*
X020369Y007036D02*
X020449Y007036D01*
X020449Y006937D02*
X020369Y006937D01*
X020369Y006839D02*
X020449Y006839D01*
X020452Y006740D02*
X020406Y006740D01*
X020409Y006642D02*
X020550Y006642D01*
X020649Y006543D02*
X020409Y006543D01*
X020409Y006445D02*
X021769Y006445D01*
X021681Y006543D02*
X021169Y006543D01*
X021268Y006642D02*
X021593Y006642D01*
X021505Y006740D02*
X021366Y006740D01*
X021369Y006839D02*
X021417Y006839D01*
X021857Y006346D02*
X020409Y006346D01*
X019909Y006346D02*
X019625Y006346D01*
X019755Y006247D02*
X019909Y006247D01*
X019909Y006149D02*
X019828Y006149D01*
X019868Y006050D02*
X019909Y006050D01*
X019909Y005952D02*
X019879Y005952D01*
X019879Y005853D02*
X019922Y005853D01*
X019984Y005755D02*
X019843Y005755D01*
X019792Y005656D02*
X020083Y005656D01*
X020181Y005558D02*
X019888Y005558D01*
X019987Y005459D02*
X020280Y005459D01*
X020378Y005361D02*
X020085Y005361D01*
X020184Y005262D02*
X020477Y005262D01*
X020559Y005163D02*
X020282Y005163D01*
X020381Y005065D02*
X020559Y005065D01*
X020587Y004966D02*
X020480Y004966D01*
X020578Y004868D02*
X020671Y004868D01*
X020667Y004871D02*
X020667Y004871D01*
X020673Y004769D02*
X020770Y004769D01*
X020709Y004671D02*
X020868Y004671D01*
X020967Y004572D02*
X020709Y004572D01*
X020459Y004633D02*
X020459Y004283D01*
X021409Y004283D01*
X020459Y004633D02*
X019159Y005933D01*
X019909Y006445D02*
X017409Y006445D01*
X016909Y006346D02*
X016625Y006346D01*
X016755Y006247D02*
X016909Y006247D01*
X016909Y006149D02*
X016828Y006149D01*
X016868Y006050D02*
X016909Y006050D01*
X016159Y005933D02*
X016059Y006033D01*
X013009Y006033D01*
X012759Y006283D01*
X012559Y006283D01*
X012534Y006308D01*
X012759Y006233D01*
X009059Y006233D01*
X008234Y005408D01*
X008659Y005133D02*
X008659Y004683D01*
X009659Y004683D02*
X009659Y003583D01*
X009459Y003583D01*
X010780Y003981D02*
X010832Y003981D01*
X012129Y002798D02*
X012189Y002798D01*
X012189Y002700D02*
X012129Y002700D01*
X012129Y002601D02*
X012189Y002601D01*
X012189Y002503D02*
X012129Y002503D01*
X012129Y002404D02*
X012189Y002404D01*
X012189Y002306D02*
X012129Y002306D01*
X012129Y002109D02*
X012189Y002109D01*
X012189Y002010D02*
X012129Y002010D01*
X012129Y001912D02*
X012189Y001912D01*
X012189Y001813D02*
X012129Y001813D01*
X012129Y001714D02*
X012189Y001714D01*
X012189Y001616D02*
X012129Y001616D01*
X014879Y002503D02*
X015415Y002503D01*
X015209Y003193D02*
X015050Y003193D01*
X014952Y003291D02*
X015199Y003291D01*
X015199Y003390D02*
X014853Y003390D01*
X016699Y001517D02*
X016726Y001517D01*
X016639Y000729D02*
X001409Y000729D01*
X001409Y000828D02*
X002043Y000828D01*
X001840Y000926D02*
X001409Y000926D01*
X001409Y001025D02*
X001741Y001025D01*
X001643Y001123D02*
X001409Y001123D01*
X001409Y001222D02*
X001593Y001222D01*
X001552Y001320D02*
X001409Y001320D01*
X001409Y001419D02*
X001511Y001419D01*
X001500Y001517D02*
X001409Y001517D01*
X001409Y001616D02*
X001500Y001616D01*
X001500Y001714D02*
X001409Y001714D01*
X001409Y001813D02*
X001513Y001813D01*
X001553Y001912D02*
X001409Y001912D01*
X001409Y002010D02*
X001594Y002010D01*
X001646Y002109D02*
X001409Y002109D01*
X001409Y002207D02*
X001744Y002207D01*
X001843Y002306D02*
X001409Y002306D01*
X001409Y002404D02*
X002050Y002404D01*
X003176Y003291D02*
X004327Y003291D01*
X004426Y003193D02*
X003274Y003193D01*
X003373Y003094D02*
X004524Y003094D01*
X004623Y002996D02*
X003471Y002996D01*
X003159Y003390D02*
X004228Y003390D01*
X004130Y003488D02*
X003159Y003488D01*
X003159Y003587D02*
X004031Y003587D01*
X003933Y003685D02*
X003159Y003685D01*
X003159Y003784D02*
X003834Y003784D01*
X003736Y003882D02*
X003159Y003882D01*
X003159Y003981D02*
X003538Y003981D01*
X003358Y004079D02*
X003159Y004079D01*
X003159Y004178D02*
X003267Y004178D01*
X003226Y004277D02*
X003159Y004277D01*
X003159Y004375D02*
X003202Y004375D01*
X003202Y004474D02*
X003159Y004474D01*
X003159Y004572D02*
X003202Y004572D01*
X003202Y004671D02*
X003159Y004671D01*
X003159Y004769D02*
X003202Y004769D01*
X003202Y004868D02*
X003159Y004868D01*
X003159Y004966D02*
X003202Y004966D01*
X003215Y005065D02*
X003159Y005065D01*
X003159Y005163D02*
X003256Y005163D01*
X003333Y005262D02*
X003159Y005262D01*
X003159Y005361D02*
X003477Y005361D01*
X003474Y006050D02*
X003159Y006050D01*
X003159Y006149D02*
X003319Y006149D01*
X003231Y006247D02*
X003159Y006247D01*
X003159Y006346D02*
X003190Y006346D01*
X003162Y006445D02*
X003159Y006445D01*
X003159Y006543D02*
X003162Y006543D01*
X003159Y006642D02*
X003162Y006642D01*
X003159Y006740D02*
X003162Y006740D01*
X003159Y006839D02*
X003162Y006839D01*
X003159Y006937D02*
X003162Y006937D01*
X003159Y007036D02*
X003162Y007036D01*
X003159Y007134D02*
X003162Y007134D01*
X003159Y007233D02*
X003174Y007233D01*
X003159Y007331D02*
X003215Y007331D01*
X003159Y007430D02*
X003281Y007430D01*
X003359Y007529D02*
X003159Y007529D01*
X003159Y007627D02*
X003359Y007627D01*
X003359Y007726D02*
X003159Y007726D01*
X003159Y007824D02*
X003359Y007824D01*
X003359Y007923D02*
X003159Y007923D01*
X003159Y008021D02*
X003359Y008021D01*
X003359Y008120D02*
X003159Y008120D01*
X003159Y008218D02*
X003359Y008218D01*
X003359Y008317D02*
X003159Y008317D01*
X003159Y008415D02*
X003273Y008415D01*
X003231Y008514D02*
X003159Y008514D01*
X003159Y008612D02*
X003202Y008612D01*
X003202Y008711D02*
X003159Y008711D01*
X003159Y008810D02*
X003202Y008810D01*
X003202Y008908D02*
X003159Y008908D01*
X003159Y009007D02*
X003202Y009007D01*
X003202Y009105D02*
X003159Y009105D01*
X003159Y009204D02*
X003202Y009204D01*
X003210Y009302D02*
X003159Y009302D01*
X003201Y009401D02*
X003251Y009401D01*
X003299Y009499D02*
X003321Y009499D01*
X003398Y009598D02*
X003446Y009598D01*
X003872Y009598D02*
X004446Y009598D01*
X004321Y009499D02*
X003997Y009499D01*
X004067Y009401D02*
X004251Y009401D01*
X004210Y009302D02*
X004108Y009302D01*
X004116Y009204D02*
X004202Y009204D01*
X004202Y009105D02*
X004116Y009105D01*
X004116Y009007D02*
X004202Y009007D01*
X004202Y008908D02*
X004116Y008908D01*
X004116Y008810D02*
X004202Y008810D01*
X004202Y008711D02*
X004116Y008711D01*
X004116Y008612D02*
X004202Y008612D01*
X004231Y008514D02*
X004087Y008514D01*
X004046Y008415D02*
X004273Y008415D01*
X004371Y008317D02*
X003959Y008317D01*
X005144Y007233D02*
X006451Y007233D01*
X006413Y007529D02*
X005905Y007529D01*
X006003Y007627D02*
X006315Y007627D01*
X006216Y007726D02*
X006102Y007726D01*
X006119Y007824D02*
X006199Y007824D01*
X005983Y007134D02*
X005156Y007134D01*
X006092Y006543D02*
X006199Y006543D01*
X007159Y005983D02*
X007259Y005983D01*
X007159Y005983D02*
X007159Y005483D01*
X007459Y005183D01*
X007659Y005183D01*
X007659Y004683D01*
X004538Y003981D02*
X004486Y003981D01*
X009116Y009007D02*
X009202Y009007D01*
X009202Y009105D02*
X009116Y009105D01*
X009116Y009204D02*
X009202Y009204D01*
X009210Y009302D02*
X009108Y009302D01*
X009067Y009401D02*
X009251Y009401D01*
X009321Y009499D02*
X008997Y009499D01*
X008909Y009598D02*
X009446Y009598D01*
X009872Y009598D02*
X010446Y009598D01*
X010321Y009499D02*
X009997Y009499D01*
X010067Y009401D02*
X010251Y009401D01*
X010210Y009302D02*
X010108Y009302D01*
X010116Y009204D02*
X010202Y009204D01*
X010202Y009105D02*
X010116Y009105D01*
X010116Y009007D02*
X010202Y009007D01*
X008978Y009696D02*
X008909Y009696D01*
X007784Y010183D02*
X007759Y010183D01*
X007784Y010183D02*
X007609Y010183D01*
X007261Y010189D02*
X005927Y010189D01*
X005989Y010091D02*
X007163Y010091D01*
X007064Y009992D02*
X006009Y009992D01*
X006009Y009894D02*
X006966Y009894D01*
X006867Y009795D02*
X006009Y009795D01*
X006009Y009696D02*
X006769Y009696D01*
X007559Y010633D02*
X007409Y010783D01*
X007409Y010808D01*
X007869Y010780D02*
X007949Y010780D01*
X007949Y010682D02*
X007869Y010682D01*
X007869Y010879D02*
X007949Y010879D01*
X007949Y010978D02*
X007869Y010978D01*
X007792Y011076D02*
X008026Y011076D01*
X007209Y012259D02*
X004446Y012259D01*
X004405Y012357D02*
X007209Y012357D01*
X007209Y012456D02*
X004361Y012456D01*
X004263Y012554D02*
X007218Y012554D01*
X007275Y012653D02*
X004164Y012653D01*
X003928Y012751D02*
X007374Y012751D01*
X007317Y012695D02*
X007317Y012695D01*
X007622Y013343D02*
X007699Y013343D01*
X015159Y012683D02*
X015259Y012783D01*
X016009Y012783D01*
X016159Y012933D01*
X021209Y017183D02*
X021909Y016483D01*
X021209Y017183D02*
X020284Y017183D01*
X019734Y017733D01*
X019359Y017733D01*
X019159Y017933D01*
X019530Y017481D02*
X019633Y017481D01*
X019536Y017383D02*
X019731Y017383D01*
X019719Y017284D02*
X019830Y017284D01*
X019812Y017186D02*
X019928Y017186D01*
X019853Y017087D02*
X020027Y017087D01*
X020125Y016989D02*
X019879Y016989D01*
X020992Y017683D02*
X021034Y017784D01*
X021034Y018473D01*
X021084Y018473D01*
X021084Y018233D01*
X021484Y018233D01*
X021484Y018133D01*
X021084Y018133D01*
X021084Y017848D01*
X021095Y017778D01*
X021117Y017711D01*
X021131Y017683D01*
X020992Y017683D01*
X021031Y017777D02*
X021095Y017777D01*
X021084Y017876D02*
X021034Y017876D01*
X021034Y017974D02*
X021084Y017974D01*
X021084Y018073D02*
X021034Y018073D01*
X021034Y018171D02*
X021484Y018171D01*
X021484Y018270D02*
X021584Y018270D01*
X021584Y018368D02*
X021484Y018368D01*
X021484Y018467D02*
X021584Y018467D01*
X021584Y018565D02*
X021484Y018565D01*
X021484Y018664D02*
X021584Y018664D01*
X021584Y018762D02*
X021484Y018762D01*
X021484Y018861D02*
X021584Y018861D01*
X021780Y018861D02*
X022205Y018861D01*
X022108Y018762D02*
X021888Y018762D01*
X021947Y018664D02*
X022068Y018664D01*
X022034Y018565D02*
X021977Y018565D01*
X021984Y018467D02*
X022034Y018467D01*
X022034Y018368D02*
X021984Y018368D01*
X021984Y018270D02*
X022034Y018270D01*
X022034Y018171D02*
X021584Y018171D01*
X021984Y018073D02*
X022034Y018073D01*
X021084Y018270D02*
X021034Y018270D01*
X021034Y018368D02*
X021084Y018368D01*
X021084Y018467D02*
X021034Y018467D01*
X020909Y018733D02*
X020559Y018383D01*
X020559Y018183D01*
X020534Y018183D01*
X020909Y018733D02*
X020909Y018933D01*
X021369Y018960D02*
X022377Y018960D01*
X022691Y018960D02*
X023377Y018960D01*
X023691Y018960D02*
X023857Y018960D01*
X023864Y018861D02*
X023909Y018861D01*
X023759Y019058D02*
X021369Y019058D01*
X021559Y019333D02*
X024159Y019333D01*
X024159Y019308D01*
X024159Y018883D01*
X024509Y018533D01*
X024509Y018183D01*
X024534Y018183D01*
X024559Y018183D01*
X025559Y017183D01*
X029259Y017183D01*
X030009Y017933D01*
X030034Y017933D01*
X029059Y017933D02*
X029034Y017933D01*
X029059Y017933D02*
X029059Y018933D01*
X029034Y018933D01*
X028610Y019748D02*
X024370Y019748D01*
X024469Y019649D02*
X024920Y019649D01*
X024989Y019718D02*
X024749Y019478D01*
X024749Y019338D01*
X025129Y019338D01*
X025129Y019278D01*
X025189Y019278D01*
X025189Y018898D01*
X025329Y018898D01*
X025569Y019139D01*
X025569Y019278D01*
X025189Y019278D01*
X025189Y019338D01*
X025569Y019338D01*
X025569Y019478D01*
X025329Y019718D01*
X025189Y019718D01*
X025189Y019339D01*
X025129Y019339D01*
X025129Y019718D01*
X024989Y019718D01*
X025129Y019649D02*
X025189Y019649D01*
X025189Y019551D02*
X025129Y019551D01*
X025129Y019452D02*
X025189Y019452D01*
X025189Y019354D02*
X025129Y019354D01*
X025159Y019308D02*
X024659Y019808D01*
X023784Y019808D01*
X023659Y019683D01*
X023034Y019808D01*
X023849Y019649D02*
X021098Y019649D01*
X020834Y019433D02*
X021559Y019333D01*
X020834Y019433D02*
X020409Y019183D01*
X019909Y018933D01*
X019159Y018933D01*
X018570Y019255D02*
X017691Y019255D01*
X017789Y019157D02*
X018494Y019157D01*
X018453Y019058D02*
X017888Y019058D01*
X017986Y018960D02*
X018439Y018960D01*
X018439Y018861D02*
X018085Y018861D01*
X018183Y018762D02*
X018472Y018762D01*
X017575Y018664D02*
X016800Y018664D01*
X016846Y018762D02*
X017476Y018762D01*
X017378Y018861D02*
X016879Y018861D01*
X016879Y018960D02*
X017279Y018960D01*
X017181Y019058D02*
X016865Y019058D01*
X016824Y019157D02*
X017082Y019157D01*
X017395Y019551D02*
X020541Y019551D01*
X020705Y019649D02*
X017291Y019649D01*
X017494Y019452D02*
X020373Y019452D01*
X020191Y019354D02*
X020139Y019354D01*
X019679Y019354D02*
X019606Y019354D01*
X018712Y019354D02*
X017592Y019354D01*
X016620Y019748D02*
X023948Y019748D01*
X024567Y019551D02*
X024822Y019551D01*
X024749Y019452D02*
X024619Y019452D01*
X024619Y019354D02*
X024749Y019354D01*
X024749Y019278D02*
X024749Y019139D01*
X024989Y018898D01*
X025129Y018898D01*
X025129Y019278D01*
X024749Y019278D01*
X024749Y019255D02*
X024619Y019255D01*
X024619Y019157D02*
X024749Y019157D01*
X024830Y019058D02*
X024559Y019058D01*
X024691Y018960D02*
X024928Y018960D01*
X024864Y018861D02*
X026759Y018861D01*
X026759Y018762D02*
X024960Y018762D01*
X025000Y018664D02*
X026759Y018664D01*
X026759Y018565D02*
X026197Y018565D01*
X026063Y018565D02*
X026005Y018565D01*
X026005Y018598D02*
X026002Y018598D01*
X025939Y018588D01*
X025878Y018568D01*
X025820Y018539D01*
X025769Y018502D01*
X025723Y018456D01*
X025686Y018404D01*
X025656Y018347D01*
X025637Y018286D01*
X025627Y018223D01*
X025627Y017962D01*
X026005Y017962D01*
X026005Y018598D01*
X026005Y018467D02*
X026063Y018467D01*
X026063Y018368D02*
X026005Y018368D01*
X026005Y018270D02*
X026063Y018270D01*
X026063Y018171D02*
X026005Y018171D01*
X026005Y018073D02*
X026063Y018073D01*
X026063Y017974D02*
X026005Y017974D01*
X025627Y017974D02*
X025122Y017974D01*
X025034Y018073D02*
X025627Y018073D01*
X025627Y018171D02*
X025034Y018171D01*
X025034Y018270D02*
X025634Y018270D01*
X025667Y018368D02*
X025034Y018368D01*
X025034Y018467D02*
X025734Y018467D01*
X025872Y018565D02*
X025034Y018565D01*
X025129Y018960D02*
X025189Y018960D01*
X025189Y019058D02*
X025129Y019058D01*
X025129Y019157D02*
X025189Y019157D01*
X025189Y019255D02*
X025129Y019255D01*
X025390Y018960D02*
X026759Y018960D01*
X026759Y019058D02*
X025489Y019058D01*
X025569Y019157D02*
X026759Y019157D01*
X026759Y019255D02*
X025569Y019255D01*
X025569Y019354D02*
X026759Y019354D01*
X026759Y019452D02*
X025569Y019452D01*
X025496Y019551D02*
X026793Y019551D01*
X026876Y019649D02*
X025398Y019649D01*
X026334Y018467D02*
X026663Y018467D01*
X026612Y018368D02*
X026401Y018368D01*
X026434Y018270D02*
X026577Y018270D01*
X026577Y018171D02*
X026441Y018171D01*
X026441Y018073D02*
X026577Y018073D01*
X026577Y017974D02*
X026441Y017974D01*
X026441Y017876D02*
X026577Y017876D01*
X026577Y017777D02*
X026441Y017777D01*
X026441Y017644D02*
X026431Y017580D01*
X026392Y017481D02*
X026619Y017481D01*
X025676Y017481D02*
X025615Y017481D01*
X025627Y017678D02*
X025417Y017678D01*
X025319Y017777D02*
X025627Y017777D01*
X025627Y017876D02*
X025220Y017876D01*
X023234Y017284D02*
X023013Y017284D01*
X023069Y017186D02*
X023199Y017186D01*
X016521Y019846D02*
X040279Y019846D01*
X034762Y018565D02*
X034306Y018565D01*
X034293Y018579D02*
X034125Y018648D01*
X033943Y018648D01*
X033775Y018579D01*
X033646Y018450D01*
X033577Y018282D01*
X033577Y017585D01*
X033646Y017417D01*
X033775Y017288D01*
X033943Y017218D01*
X034125Y017218D01*
X034293Y017288D01*
X034422Y017417D01*
X034491Y017585D01*
X034491Y018282D01*
X034422Y018450D01*
X034293Y018579D01*
X034405Y018467D02*
X034663Y018467D01*
X034612Y018368D02*
X034456Y018368D01*
X034491Y018270D02*
X034577Y018270D01*
X034577Y018171D02*
X034491Y018171D01*
X034491Y018073D02*
X034577Y018073D01*
X034577Y017974D02*
X034491Y017974D01*
X034491Y017876D02*
X034577Y017876D01*
X034577Y017777D02*
X034491Y017777D01*
X034491Y017678D02*
X034577Y017678D01*
X034579Y017580D02*
X034489Y017580D01*
X034449Y017481D02*
X034619Y017481D01*
X034680Y017383D02*
X034388Y017383D01*
X034284Y017284D02*
X034784Y017284D01*
X033784Y017284D02*
X033409Y017284D01*
X033409Y017383D02*
X033680Y017383D01*
X033619Y017481D02*
X033449Y017481D01*
X033489Y017580D02*
X033579Y017580D01*
X033577Y017678D02*
X033491Y017678D01*
X033491Y017777D02*
X033577Y017777D01*
X033577Y017876D02*
X033491Y017876D01*
X033491Y017974D02*
X033577Y017974D01*
X033577Y018073D02*
X033491Y018073D01*
X033491Y018171D02*
X033577Y018171D01*
X033577Y018270D02*
X033491Y018270D01*
X033456Y018368D02*
X033612Y018368D01*
X033663Y018467D02*
X033405Y018467D01*
X033359Y018565D02*
X033762Y018565D01*
X031559Y014933D02*
X031534Y014933D01*
X031559Y014933D02*
X031559Y013933D01*
X031534Y013933D01*
X031509Y013933D01*
X031009Y013433D01*
X037779Y010288D02*
X040279Y010288D01*
X036191Y007627D02*
X036134Y007627D01*
X036288Y007529D02*
X036290Y007529D01*
X036387Y007430D02*
X036388Y007430D01*
X036485Y007331D02*
X036487Y007331D01*
X036584Y007233D02*
X036585Y007233D01*
X036682Y007134D02*
X036684Y007134D01*
X036781Y007036D02*
X036782Y007036D01*
X036879Y006937D02*
X036881Y006937D01*
X036978Y006839D02*
X036979Y006839D01*
X037076Y006740D02*
X037078Y006740D01*
X037175Y006642D02*
X037177Y006642D01*
X037255Y006563D02*
X037255Y006563D01*
X037274Y006543D02*
X037275Y006543D01*
X031534Y005683D02*
X031509Y005183D01*
X031559Y005183D01*
X031559Y004683D01*
X031534Y004683D01*
X031509Y005183D02*
X031509Y005683D01*
X031534Y005683D01*
X029209Y006937D02*
X029187Y006937D01*
X029111Y006839D02*
X029032Y006839D01*
X016909Y008415D02*
X015781Y008415D01*
X015710Y008514D02*
X015682Y008514D01*
X008492Y018565D02*
X008444Y018565D01*
X007795Y019551D02*
X013074Y019551D01*
X013100Y019649D02*
X007697Y019649D01*
X010959Y018983D02*
X011009Y018933D01*
X011034Y018933D01*
X011623Y019255D02*
X013074Y019255D01*
X013074Y019354D02*
X011481Y019354D01*
X011699Y019157D02*
X013160Y019157D01*
X014534Y019433D02*
X015284Y019433D01*
D21*
X022034Y016058D03*
X022159Y016933D03*
X023034Y018933D03*
X023034Y019808D03*
X018284Y011933D03*
X017159Y011933D03*
X008159Y011433D03*
X006659Y011433D03*
D22*
X006659Y011933D01*
X008159Y011933D02*
X008159Y011433D01*
X008159Y011933D02*
X008659Y011433D01*
X011659Y011433D01*
X013159Y008433D02*
X013659Y008433D01*
X014159Y007933D01*
X015159Y007933D01*
X015659Y007433D01*
X013159Y008433D02*
X012659Y007933D01*
X012534Y007808D01*
X012534Y007308D01*
X012534Y007558D01*
X012159Y007933D01*
X012659Y007933D01*
X012659Y004683D02*
X012659Y003933D01*
X010659Y001933D01*
X011159Y001933D01*
X009309Y001183D02*
X015409Y001183D01*
X016159Y001933D01*
X032534Y002683D02*
X032659Y002808D01*
X032659Y002933D01*
X033309Y003583D01*
X033309Y003683D01*
D23*
X018409Y011308D02*
X018284Y011433D01*
X018159Y011433D01*
X018284Y011558D01*
X018284Y011933D01*
X017534Y011808D02*
X017284Y011808D01*
X017159Y011933D01*
X017534Y011808D02*
X016909Y011183D01*
X016909Y007558D01*
X016784Y007433D01*
X015659Y007433D01*
D24*
X011659Y008533D02*
X011559Y008533D01*
X010259Y007233D01*
X007909Y007233D01*
X006009Y006833D01*
X004659Y006833D01*
X004659Y006808D01*
X003659Y006808D02*
X003659Y008933D01*
X002859Y009483D02*
X002859Y005683D01*
X002859Y003183D01*
X004859Y001183D01*
X009309Y001183D01*
X009609Y002333D02*
X006159Y002333D01*
X006159Y002308D01*
X005209Y002333D02*
X005209Y002833D01*
X003759Y004283D01*
X003659Y004283D01*
X003659Y004683D01*
X002859Y005683D02*
X005009Y005683D01*
X005609Y005083D01*
X005609Y004733D01*
X005659Y004683D01*
X005709Y004633D01*
X005584Y004308D01*
X006634Y003383D01*
X007959Y003383D01*
X008159Y003183D01*
X009609Y002333D02*
X011559Y004283D01*
X011659Y004283D01*
X011659Y004683D01*
X014609Y002983D02*
X014659Y002933D01*
X014759Y002833D01*
X015509Y002833D01*
X015509Y003283D01*
X015659Y003433D01*
X015609Y003333D01*
X015559Y003333D01*
X015659Y003333D02*
X015659Y003433D01*
X015509Y002833D02*
X016009Y002333D01*
X016159Y002333D01*
X016159Y001933D01*
X016209Y001883D01*
X016209Y001583D01*
X017059Y000733D01*
X020959Y000733D01*
X021209Y000983D01*
X023059Y000983D01*
X023259Y000783D01*
X031759Y000783D01*
X032559Y001583D01*
X037609Y001583D01*
X038109Y002083D01*
X038109Y004583D01*
X038109Y006283D01*
X037659Y006733D01*
X037709Y006783D01*
X038109Y006783D01*
X038109Y009533D01*
X037009Y010633D01*
X037059Y010683D01*
X038109Y010683D01*
X038109Y012433D01*
X037009Y013533D01*
X037059Y013583D01*
X038109Y013583D01*
X038109Y015533D01*
X037009Y016633D01*
X033109Y016633D01*
X033109Y017883D01*
X033034Y017933D01*
X033059Y017933D01*
X033059Y018983D01*
X030109Y018983D01*
X030059Y018933D01*
X030034Y018933D01*
X030309Y019483D02*
X030709Y019333D01*
X036809Y019333D01*
X037759Y018383D01*
X037759Y017933D01*
X037784Y017933D01*
X036784Y017933D02*
X035034Y017933D01*
X032209Y016033D02*
X031959Y016283D01*
X030259Y016283D01*
X029909Y016633D01*
X028509Y016633D01*
X028109Y016233D01*
X026559Y016233D01*
X026559Y014933D01*
X026534Y014933D01*
X029534Y015933D02*
X031809Y015933D01*
X032559Y015183D01*
X032559Y015033D01*
X032534Y014933D01*
X032559Y014833D01*
X033459Y013933D01*
X034309Y013933D01*
X034709Y013533D01*
X037009Y013533D01*
X036609Y012933D02*
X037259Y012283D01*
X037259Y011833D01*
X037284Y011808D01*
X036284Y011808D02*
X036259Y011833D01*
X034559Y011833D01*
X034534Y011808D01*
X033759Y011033D02*
X033259Y011033D01*
X032559Y011733D01*
X032534Y011808D01*
X032559Y011833D01*
X032559Y012333D01*
X033009Y012783D01*
X033259Y012783D01*
X033284Y012808D01*
X033509Y013333D02*
X033009Y013333D01*
X032759Y013583D01*
X032259Y013583D01*
X031809Y013133D01*
X027359Y013133D01*
X026709Y012483D01*
X026559Y012483D01*
X026559Y011833D01*
X026534Y011808D01*
X028559Y010133D02*
X028809Y010383D01*
X029109Y010383D01*
X029209Y010283D01*
X031759Y010283D01*
X032209Y010733D01*
X032759Y010733D01*
X033009Y010483D01*
X033459Y010483D01*
X033909Y010033D01*
X036609Y010033D01*
X037259Y009383D01*
X037259Y008933D01*
X037284Y008933D01*
X036284Y008933D02*
X034534Y008933D01*
X033459Y007933D02*
X036309Y007933D01*
X037509Y006733D01*
X037659Y006733D01*
X037259Y006133D02*
X037259Y005683D01*
X037284Y005683D01*
X037259Y006133D02*
X036059Y007333D01*
X032959Y007333D01*
X032709Y007583D01*
X031959Y007583D01*
X031759Y007383D01*
X029209Y007383D01*
X028959Y007133D01*
X026559Y007133D01*
X026559Y005683D01*
X026534Y005683D01*
X028709Y003883D02*
X028959Y004133D01*
X029909Y004133D01*
X030059Y003983D01*
X031859Y003983D01*
X032109Y004233D01*
X036159Y004233D01*
X037259Y003133D01*
X037259Y002683D01*
X037284Y002683D01*
X036284Y002683D02*
X034534Y002683D01*
X034559Y002708D01*
X033309Y003683D02*
X033284Y003683D01*
X033209Y004633D02*
X032559Y005283D01*
X032559Y005583D01*
X032534Y005683D01*
X032559Y005783D01*
X032559Y006083D01*
X033284Y006808D01*
X034534Y005683D02*
X036284Y005683D01*
X035709Y004833D02*
X035059Y004833D01*
X034859Y004633D01*
X033209Y004633D01*
X035709Y004833D02*
X035959Y004583D01*
X038109Y004583D01*
X033459Y007933D02*
X032559Y008833D01*
X032534Y008933D01*
X032559Y009033D01*
X032559Y009233D01*
X033259Y009933D01*
X033284Y009933D01*
X034159Y010633D02*
X037009Y010633D01*
X034159Y010633D02*
X033759Y011033D01*
X033909Y012933D02*
X036609Y012933D01*
X033909Y012933D02*
X033509Y013333D01*
X034534Y014933D02*
X036284Y014933D01*
X037259Y014933D02*
X037284Y014933D01*
X037259Y014933D02*
X037259Y015383D01*
X036609Y016033D01*
X032209Y016033D01*
X027059Y017933D02*
X027034Y017933D01*
X027059Y017933D02*
X027059Y019408D01*
X028559Y019408D01*
X028759Y019483D01*
X030309Y019483D01*
X028559Y010133D02*
X026559Y010133D01*
X026559Y008933D01*
X026534Y008933D01*
X026559Y003883D02*
X028709Y003883D01*
X026559Y003883D02*
X026559Y002683D01*
X026534Y002683D01*
X021909Y002308D02*
X021909Y002283D01*
X021209Y001583D01*
X020309Y001583D01*
X020284Y001558D01*
X020284Y002558D02*
X020259Y002583D01*
X018309Y002583D01*
X018159Y002433D01*
X018309Y002633D01*
X017709Y003233D01*
X016859Y003233D01*
X016659Y003433D01*
X016659Y004433D01*
X011659Y008533D02*
X011659Y008933D01*
X005709Y008983D02*
X005659Y008933D01*
X005659Y007933D01*
X005709Y008983D02*
X005709Y009983D01*
X003359Y009983D01*
X002859Y009483D01*
X005159Y002333D02*
X005159Y002308D01*
X005159Y002333D02*
X005209Y002333D01*
X032534Y002683D02*
X032559Y002583D01*
X032559Y001583D01*
D25*
X006159Y013839D02*
X004659Y013839D01*
X004659Y014642D02*
X006159Y014642D01*
X006159Y015445D02*
X004659Y015445D01*
M02*
