G75*
G70*
%OFA0B0*%
%FSLAX24Y24*%
%IPPOS*%
%LPD*%
%AMOC8*
5,1,8,0,0,1.08239X$1,22.5*
%
%ADD10C,0.0000*%
%ADD11C,0.0050*%
%ADD12C,0.0100*%
%ADD13C,0.0040*%
%ADD14C,0.0070*%
%ADD15C,0.0060*%
%ADD16C,0.0200*%
%ADD17C,0.0240*%
D10*
X000290Y000443D02*
X000290Y020129D01*
X039660Y020129D01*
X039660Y000443D01*
X000290Y000443D01*
X000880Y001625D02*
X000882Y001673D01*
X000888Y001721D01*
X000898Y001768D01*
X000911Y001814D01*
X000929Y001859D01*
X000949Y001903D01*
X000974Y001945D01*
X001002Y001984D01*
X001032Y002021D01*
X001066Y002055D01*
X001103Y002087D01*
X001141Y002116D01*
X001182Y002141D01*
X001225Y002163D01*
X001270Y002181D01*
X001316Y002195D01*
X001363Y002206D01*
X001411Y002213D01*
X001459Y002216D01*
X001507Y002215D01*
X001555Y002210D01*
X001603Y002201D01*
X001649Y002189D01*
X001694Y002172D01*
X001738Y002152D01*
X001780Y002129D01*
X001820Y002102D01*
X001858Y002072D01*
X001893Y002039D01*
X001925Y002003D01*
X001955Y001965D01*
X001981Y001924D01*
X002003Y001881D01*
X002023Y001837D01*
X002038Y001792D01*
X002050Y001745D01*
X002058Y001697D01*
X002062Y001649D01*
X002062Y001601D01*
X002058Y001553D01*
X002050Y001505D01*
X002038Y001458D01*
X002023Y001413D01*
X002003Y001369D01*
X001981Y001326D01*
X001955Y001285D01*
X001925Y001247D01*
X001893Y001211D01*
X001858Y001178D01*
X001820Y001148D01*
X001780Y001121D01*
X001738Y001098D01*
X001694Y001078D01*
X001649Y001061D01*
X001603Y001049D01*
X001555Y001040D01*
X001507Y001035D01*
X001459Y001034D01*
X001411Y001037D01*
X001363Y001044D01*
X001316Y001055D01*
X001270Y001069D01*
X001225Y001087D01*
X001182Y001109D01*
X001141Y001134D01*
X001103Y001163D01*
X001066Y001195D01*
X001032Y001229D01*
X001002Y001266D01*
X000974Y001305D01*
X000949Y001347D01*
X000929Y001391D01*
X000911Y001436D01*
X000898Y001482D01*
X000888Y001529D01*
X000882Y001577D01*
X000880Y001625D01*
X000880Y018947D02*
X000882Y018995D01*
X000888Y019043D01*
X000898Y019090D01*
X000911Y019136D01*
X000929Y019181D01*
X000949Y019225D01*
X000974Y019267D01*
X001002Y019306D01*
X001032Y019343D01*
X001066Y019377D01*
X001103Y019409D01*
X001141Y019438D01*
X001182Y019463D01*
X001225Y019485D01*
X001270Y019503D01*
X001316Y019517D01*
X001363Y019528D01*
X001411Y019535D01*
X001459Y019538D01*
X001507Y019537D01*
X001555Y019532D01*
X001603Y019523D01*
X001649Y019511D01*
X001694Y019494D01*
X001738Y019474D01*
X001780Y019451D01*
X001820Y019424D01*
X001858Y019394D01*
X001893Y019361D01*
X001925Y019325D01*
X001955Y019287D01*
X001981Y019246D01*
X002003Y019203D01*
X002023Y019159D01*
X002038Y019114D01*
X002050Y019067D01*
X002058Y019019D01*
X002062Y018971D01*
X002062Y018923D01*
X002058Y018875D01*
X002050Y018827D01*
X002038Y018780D01*
X002023Y018735D01*
X002003Y018691D01*
X001981Y018648D01*
X001955Y018607D01*
X001925Y018569D01*
X001893Y018533D01*
X001858Y018500D01*
X001820Y018470D01*
X001780Y018443D01*
X001738Y018420D01*
X001694Y018400D01*
X001649Y018383D01*
X001603Y018371D01*
X001555Y018362D01*
X001507Y018357D01*
X001459Y018356D01*
X001411Y018359D01*
X001363Y018366D01*
X001316Y018377D01*
X001270Y018391D01*
X001225Y018409D01*
X001182Y018431D01*
X001141Y018456D01*
X001103Y018485D01*
X001066Y018517D01*
X001032Y018551D01*
X001002Y018588D01*
X000974Y018627D01*
X000949Y018669D01*
X000929Y018713D01*
X000911Y018758D01*
X000898Y018804D01*
X000888Y018851D01*
X000882Y018899D01*
X000880Y018947D01*
X034983Y017756D02*
X034985Y017782D01*
X034991Y017808D01*
X035001Y017833D01*
X035014Y017856D01*
X035030Y017876D01*
X035050Y017894D01*
X035072Y017909D01*
X035095Y017921D01*
X035121Y017929D01*
X035147Y017933D01*
X035173Y017933D01*
X035199Y017929D01*
X035225Y017921D01*
X035249Y017909D01*
X035270Y017894D01*
X035290Y017876D01*
X035306Y017856D01*
X035319Y017833D01*
X035329Y017808D01*
X035335Y017782D01*
X035337Y017756D01*
X035335Y017730D01*
X035329Y017704D01*
X035319Y017679D01*
X035306Y017656D01*
X035290Y017636D01*
X035270Y017618D01*
X035248Y017603D01*
X035225Y017591D01*
X035199Y017583D01*
X035173Y017579D01*
X035147Y017579D01*
X035121Y017583D01*
X035095Y017591D01*
X035071Y017603D01*
X035050Y017618D01*
X035030Y017636D01*
X035014Y017656D01*
X035001Y017679D01*
X034991Y017704D01*
X034985Y017730D01*
X034983Y017756D01*
X036593Y017441D02*
X036595Y017484D01*
X036601Y017526D01*
X036611Y017568D01*
X036624Y017609D01*
X036641Y017649D01*
X036662Y017686D01*
X036686Y017722D01*
X036713Y017755D01*
X036743Y017786D01*
X036776Y017814D01*
X036811Y017839D01*
X036848Y017860D01*
X036887Y017878D01*
X036927Y017892D01*
X036969Y017903D01*
X037011Y017910D01*
X037054Y017913D01*
X037097Y017912D01*
X037140Y017907D01*
X037182Y017898D01*
X037223Y017886D01*
X037263Y017870D01*
X037301Y017850D01*
X037337Y017827D01*
X037371Y017800D01*
X037403Y017771D01*
X037431Y017739D01*
X037457Y017704D01*
X037479Y017668D01*
X037498Y017629D01*
X037513Y017589D01*
X037525Y017548D01*
X037533Y017505D01*
X037537Y017462D01*
X037537Y017420D01*
X037533Y017377D01*
X037525Y017334D01*
X037513Y017293D01*
X037498Y017253D01*
X037479Y017214D01*
X037457Y017178D01*
X037431Y017143D01*
X037403Y017111D01*
X037371Y017082D01*
X037337Y017055D01*
X037301Y017032D01*
X037263Y017012D01*
X037223Y016996D01*
X037182Y016984D01*
X037140Y016975D01*
X037097Y016970D01*
X037054Y016969D01*
X037011Y016972D01*
X036969Y016979D01*
X036927Y016990D01*
X036887Y017004D01*
X036848Y017022D01*
X036811Y017043D01*
X036776Y017068D01*
X036743Y017096D01*
X036713Y017127D01*
X036686Y017160D01*
X036662Y017196D01*
X036641Y017233D01*
X036624Y017273D01*
X036611Y017314D01*
X036601Y017356D01*
X036595Y017398D01*
X036593Y017441D01*
X037888Y018947D02*
X037890Y018995D01*
X037896Y019043D01*
X037906Y019090D01*
X037919Y019136D01*
X037937Y019181D01*
X037957Y019225D01*
X037982Y019267D01*
X038010Y019306D01*
X038040Y019343D01*
X038074Y019377D01*
X038111Y019409D01*
X038149Y019438D01*
X038190Y019463D01*
X038233Y019485D01*
X038278Y019503D01*
X038324Y019517D01*
X038371Y019528D01*
X038419Y019535D01*
X038467Y019538D01*
X038515Y019537D01*
X038563Y019532D01*
X038611Y019523D01*
X038657Y019511D01*
X038702Y019494D01*
X038746Y019474D01*
X038788Y019451D01*
X038828Y019424D01*
X038866Y019394D01*
X038901Y019361D01*
X038933Y019325D01*
X038963Y019287D01*
X038989Y019246D01*
X039011Y019203D01*
X039031Y019159D01*
X039046Y019114D01*
X039058Y019067D01*
X039066Y019019D01*
X039070Y018971D01*
X039070Y018923D01*
X039066Y018875D01*
X039058Y018827D01*
X039046Y018780D01*
X039031Y018735D01*
X039011Y018691D01*
X038989Y018648D01*
X038963Y018607D01*
X038933Y018569D01*
X038901Y018533D01*
X038866Y018500D01*
X038828Y018470D01*
X038788Y018443D01*
X038746Y018420D01*
X038702Y018400D01*
X038657Y018383D01*
X038611Y018371D01*
X038563Y018362D01*
X038515Y018357D01*
X038467Y018356D01*
X038419Y018359D01*
X038371Y018366D01*
X038324Y018377D01*
X038278Y018391D01*
X038233Y018409D01*
X038190Y018431D01*
X038149Y018456D01*
X038111Y018485D01*
X038074Y018517D01*
X038040Y018551D01*
X038010Y018588D01*
X037982Y018627D01*
X037957Y018669D01*
X037937Y018713D01*
X037919Y018758D01*
X037906Y018804D01*
X037896Y018851D01*
X037890Y018899D01*
X037888Y018947D01*
X036593Y012052D02*
X036595Y012095D01*
X036601Y012137D01*
X036611Y012179D01*
X036624Y012220D01*
X036641Y012260D01*
X036662Y012297D01*
X036686Y012333D01*
X036713Y012366D01*
X036743Y012397D01*
X036776Y012425D01*
X036811Y012450D01*
X036848Y012471D01*
X036887Y012489D01*
X036927Y012503D01*
X036969Y012514D01*
X037011Y012521D01*
X037054Y012524D01*
X037097Y012523D01*
X037140Y012518D01*
X037182Y012509D01*
X037223Y012497D01*
X037263Y012481D01*
X037301Y012461D01*
X037337Y012438D01*
X037371Y012411D01*
X037403Y012382D01*
X037431Y012350D01*
X037457Y012315D01*
X037479Y012279D01*
X037498Y012240D01*
X037513Y012200D01*
X037525Y012159D01*
X037533Y012116D01*
X037537Y012073D01*
X037537Y012031D01*
X037533Y011988D01*
X037525Y011945D01*
X037513Y011904D01*
X037498Y011864D01*
X037479Y011825D01*
X037457Y011789D01*
X037431Y011754D01*
X037403Y011722D01*
X037371Y011693D01*
X037337Y011666D01*
X037301Y011643D01*
X037263Y011623D01*
X037223Y011607D01*
X037182Y011595D01*
X037140Y011586D01*
X037097Y011581D01*
X037054Y011580D01*
X037011Y011583D01*
X036969Y011590D01*
X036927Y011601D01*
X036887Y011615D01*
X036848Y011633D01*
X036811Y011654D01*
X036776Y011679D01*
X036743Y011707D01*
X036713Y011738D01*
X036686Y011771D01*
X036662Y011807D01*
X036641Y011844D01*
X036624Y011884D01*
X036611Y011925D01*
X036601Y011967D01*
X036595Y012009D01*
X036593Y012052D01*
X034983Y011756D02*
X034985Y011782D01*
X034991Y011808D01*
X035001Y011833D01*
X035014Y011856D01*
X035030Y011876D01*
X035050Y011894D01*
X035072Y011909D01*
X035095Y011921D01*
X035121Y011929D01*
X035147Y011933D01*
X035173Y011933D01*
X035199Y011929D01*
X035225Y011921D01*
X035249Y011909D01*
X035270Y011894D01*
X035290Y011876D01*
X035306Y011856D01*
X035319Y011833D01*
X035329Y011808D01*
X035335Y011782D01*
X035337Y011756D01*
X035335Y011730D01*
X035329Y011704D01*
X035319Y011679D01*
X035306Y011656D01*
X035290Y011636D01*
X035270Y011618D01*
X035248Y011603D01*
X035225Y011591D01*
X035199Y011583D01*
X035173Y011579D01*
X035147Y011579D01*
X035121Y011583D01*
X035095Y011591D01*
X035071Y011603D01*
X035050Y011618D01*
X035030Y011636D01*
X035014Y011656D01*
X035001Y011679D01*
X034991Y011704D01*
X034985Y011730D01*
X034983Y011756D01*
X037888Y001625D02*
X037890Y001673D01*
X037896Y001721D01*
X037906Y001768D01*
X037919Y001814D01*
X037937Y001859D01*
X037957Y001903D01*
X037982Y001945D01*
X038010Y001984D01*
X038040Y002021D01*
X038074Y002055D01*
X038111Y002087D01*
X038149Y002116D01*
X038190Y002141D01*
X038233Y002163D01*
X038278Y002181D01*
X038324Y002195D01*
X038371Y002206D01*
X038419Y002213D01*
X038467Y002216D01*
X038515Y002215D01*
X038563Y002210D01*
X038611Y002201D01*
X038657Y002189D01*
X038702Y002172D01*
X038746Y002152D01*
X038788Y002129D01*
X038828Y002102D01*
X038866Y002072D01*
X038901Y002039D01*
X038933Y002003D01*
X038963Y001965D01*
X038989Y001924D01*
X039011Y001881D01*
X039031Y001837D01*
X039046Y001792D01*
X039058Y001745D01*
X039066Y001697D01*
X039070Y001649D01*
X039070Y001601D01*
X039066Y001553D01*
X039058Y001505D01*
X039046Y001458D01*
X039031Y001413D01*
X039011Y001369D01*
X038989Y001326D01*
X038963Y001285D01*
X038933Y001247D01*
X038901Y001211D01*
X038866Y001178D01*
X038828Y001148D01*
X038788Y001121D01*
X038746Y001098D01*
X038702Y001078D01*
X038657Y001061D01*
X038611Y001049D01*
X038563Y001040D01*
X038515Y001035D01*
X038467Y001034D01*
X038419Y001037D01*
X038371Y001044D01*
X038324Y001055D01*
X038278Y001069D01*
X038233Y001087D01*
X038190Y001109D01*
X038149Y001134D01*
X038111Y001163D01*
X038074Y001195D01*
X038040Y001229D01*
X038010Y001266D01*
X037982Y001305D01*
X037957Y001347D01*
X037937Y001391D01*
X037919Y001436D01*
X037906Y001482D01*
X037896Y001529D01*
X037890Y001577D01*
X037888Y001625D01*
D11*
X037876Y003906D02*
X037975Y004693D01*
X037876Y005481D01*
X027443Y005481D01*
X027345Y004693D01*
X027443Y003906D01*
X037876Y003906D01*
X034176Y004758D02*
X034176Y005209D01*
X033951Y005209D01*
X033876Y005134D01*
X033876Y004984D01*
X033951Y004909D01*
X034176Y004909D01*
X034026Y004909D02*
X033876Y004758D01*
X033716Y004834D02*
X033641Y004758D01*
X033490Y004758D01*
X033415Y004834D01*
X033415Y004909D01*
X033490Y004984D01*
X033566Y004984D01*
X033490Y004984D02*
X033415Y005059D01*
X033415Y005134D01*
X033490Y005209D01*
X033641Y005209D01*
X033716Y005134D01*
X033255Y005209D02*
X032955Y005209D01*
X032955Y005134D01*
X033255Y004834D01*
X033255Y004758D01*
X032975Y004129D02*
X032750Y004129D01*
X032675Y004054D01*
X032675Y003904D01*
X032750Y003829D01*
X032975Y003829D01*
X032825Y003829D02*
X032675Y003678D01*
X032514Y003678D02*
X032214Y003979D01*
X032214Y004054D01*
X032289Y004129D01*
X032439Y004129D01*
X032514Y004054D01*
X032054Y004054D02*
X031979Y004129D01*
X031829Y004129D01*
X031754Y004054D01*
X031754Y003979D01*
X031829Y003904D01*
X031754Y003829D01*
X031754Y003754D01*
X031829Y003678D01*
X031979Y003678D01*
X032054Y003754D01*
X032214Y003678D02*
X032514Y003678D01*
X032975Y003678D02*
X032975Y004129D01*
X031904Y003904D02*
X031829Y003904D01*
X033030Y005508D02*
X033180Y005508D01*
X033255Y005584D01*
X033255Y005734D01*
X033030Y005734D01*
X032955Y005659D01*
X032955Y005584D01*
X033030Y005508D01*
X033255Y005734D02*
X033105Y005884D01*
X032955Y005959D01*
X033415Y005884D02*
X033415Y005809D01*
X033490Y005734D01*
X033415Y005659D01*
X033415Y005584D01*
X033490Y005508D01*
X033641Y005508D01*
X033716Y005584D01*
X033876Y005508D02*
X034026Y005659D01*
X033951Y005659D02*
X034176Y005659D01*
X034176Y005508D02*
X034176Y005959D01*
X033951Y005959D01*
X033876Y005884D01*
X033876Y005734D01*
X033951Y005659D01*
X033716Y005884D02*
X033641Y005959D01*
X033490Y005959D01*
X033415Y005884D01*
X033490Y005734D02*
X033566Y005734D01*
X037876Y008156D02*
X037975Y008943D01*
X037876Y009731D01*
X027443Y009731D01*
X027345Y008943D01*
X027443Y008156D01*
X037876Y008156D01*
X035475Y008428D02*
X035475Y008879D01*
X035250Y008879D01*
X035175Y008804D01*
X035175Y008654D01*
X035250Y008579D01*
X035475Y008579D01*
X035325Y008579D02*
X035175Y008428D01*
X035014Y008428D02*
X034714Y008729D01*
X034714Y008804D01*
X034789Y008879D01*
X034939Y008879D01*
X035014Y008804D01*
X034554Y008804D02*
X034479Y008879D01*
X034329Y008879D01*
X034254Y008804D01*
X034254Y008729D01*
X034554Y008428D01*
X034254Y008428D01*
X034714Y008428D02*
X035014Y008428D01*
X033051Y009258D02*
X033051Y009709D01*
X032826Y009709D01*
X032751Y009634D01*
X032751Y009484D01*
X032826Y009409D01*
X033051Y009409D01*
X032901Y009409D02*
X032751Y009258D01*
X032591Y009334D02*
X032516Y009258D01*
X032365Y009258D01*
X032290Y009334D01*
X032290Y009409D01*
X032365Y009484D01*
X032441Y009484D01*
X032365Y009484D02*
X032290Y009559D01*
X032290Y009634D01*
X032365Y009709D01*
X032516Y009709D01*
X032591Y009634D01*
X032740Y009883D02*
X032891Y009883D01*
X032966Y009959D01*
X033126Y009883D02*
X033276Y010034D01*
X033201Y010034D02*
X033426Y010034D01*
X033426Y009883D02*
X033426Y010334D01*
X033201Y010334D01*
X033126Y010259D01*
X033126Y010109D01*
X033201Y010034D01*
X032966Y010259D02*
X032891Y010334D01*
X032740Y010334D01*
X032665Y010259D01*
X032665Y010184D01*
X032740Y010109D01*
X032665Y010034D01*
X032665Y009959D01*
X032740Y009883D01*
X032740Y010109D02*
X032816Y010109D01*
X032505Y010109D02*
X032280Y010334D01*
X032280Y009883D01*
X032130Y009709D02*
X032130Y009484D01*
X031980Y009559D01*
X031905Y009559D01*
X031830Y009484D01*
X031830Y009334D01*
X031905Y009258D01*
X032055Y009258D01*
X032130Y009334D01*
X032130Y009709D02*
X031830Y009709D01*
X032205Y010109D02*
X032505Y010109D01*
X033743Y011756D02*
X033743Y017756D01*
X039333Y017756D01*
X039333Y011756D01*
X033743Y011756D01*
X033595Y012878D02*
X033595Y013104D01*
X033520Y013179D01*
X033370Y013179D01*
X033295Y013104D01*
X033295Y012878D01*
X033145Y012878D02*
X033595Y012878D01*
X033295Y013029D02*
X033145Y013179D01*
X033085Y013068D02*
X033085Y013294D01*
X033010Y013369D01*
X032710Y013369D01*
X032635Y013294D01*
X032635Y013068D01*
X033085Y013068D01*
X033220Y013339D02*
X033145Y013414D01*
X033145Y013564D01*
X033220Y013639D01*
X033370Y013639D01*
X033445Y013564D01*
X033445Y013489D01*
X033370Y013339D01*
X033595Y013339D01*
X033595Y013639D01*
X033520Y013799D02*
X033595Y013874D01*
X033595Y014024D01*
X033520Y014099D01*
X033220Y013799D01*
X033145Y013874D01*
X033145Y014024D01*
X033220Y014099D01*
X033520Y014099D01*
X033520Y013799D02*
X033220Y013799D01*
X033085Y013829D02*
X033010Y013679D01*
X032860Y013529D01*
X032860Y013754D01*
X032785Y013829D01*
X032710Y013829D01*
X032635Y013754D01*
X032635Y013604D01*
X032710Y013529D01*
X032860Y013529D01*
X031845Y013324D02*
X031695Y013174D01*
X031620Y013014D02*
X031470Y013014D01*
X031395Y012939D01*
X031395Y012789D01*
X031470Y012714D01*
X031335Y012669D02*
X031335Y012443D01*
X030885Y012443D01*
X030885Y012669D01*
X030960Y012744D01*
X031260Y012744D01*
X031335Y012669D01*
X031395Y012554D02*
X031545Y012404D01*
X031545Y012479D02*
X031545Y012253D01*
X031395Y012253D02*
X031845Y012253D01*
X031845Y012479D01*
X031770Y012554D01*
X031620Y012554D01*
X031545Y012479D01*
X031620Y012714D02*
X031695Y012864D01*
X031695Y012939D01*
X031620Y013014D01*
X031845Y013014D02*
X031845Y012714D01*
X031620Y012714D01*
X031335Y012904D02*
X031110Y012904D01*
X031185Y013054D01*
X031185Y013129D01*
X031110Y013204D01*
X030960Y013204D01*
X030885Y013129D01*
X030885Y012979D01*
X030960Y012904D01*
X031335Y012904D02*
X031335Y013204D01*
X031395Y013174D02*
X031395Y013474D01*
X031395Y013324D02*
X031845Y013324D01*
X029095Y013253D02*
X029095Y013479D01*
X029020Y013554D01*
X028870Y013554D01*
X028795Y013479D01*
X028795Y013253D01*
X028645Y013253D02*
X029095Y013253D01*
X028795Y013404D02*
X028645Y013554D01*
X028585Y013443D02*
X028585Y013669D01*
X028510Y013744D01*
X028210Y013744D01*
X028135Y013669D01*
X028135Y013443D01*
X028585Y013443D01*
X028870Y013714D02*
X028870Y014014D01*
X028720Y014174D02*
X028645Y014174D01*
X028585Y014204D02*
X028510Y014204D01*
X028210Y013904D01*
X028135Y013904D01*
X028585Y013904D02*
X028585Y014204D01*
X028720Y014174D02*
X029020Y014474D01*
X029095Y014474D01*
X029095Y014174D01*
X029095Y013939D02*
X028870Y013714D01*
X028645Y013939D02*
X029095Y013939D01*
X029975Y015052D02*
X030425Y015052D01*
X030425Y015277D01*
X030350Y015353D01*
X030200Y015353D01*
X030125Y015277D01*
X030125Y015052D01*
X030125Y015202D02*
X029975Y015353D01*
X029935Y015323D02*
X029935Y015548D01*
X029860Y015623D01*
X029560Y015623D01*
X029485Y015548D01*
X029485Y015323D01*
X029935Y015323D01*
X030200Y015513D02*
X030200Y015813D01*
X030200Y015973D02*
X030200Y016198D01*
X030125Y016273D01*
X030050Y016273D01*
X029975Y016198D01*
X029975Y016048D01*
X030050Y015973D01*
X030200Y015973D01*
X030350Y016123D01*
X030425Y016273D01*
X029935Y016008D02*
X029860Y016083D01*
X029785Y016083D01*
X029710Y016008D01*
X029710Y015858D01*
X029785Y015783D01*
X029860Y015783D01*
X029935Y015858D01*
X029935Y016008D01*
X029710Y016008D02*
X029635Y016083D01*
X029560Y016083D01*
X029485Y016008D01*
X029485Y015858D01*
X029560Y015783D01*
X029635Y015783D01*
X029710Y015858D01*
X029975Y015738D02*
X030425Y015738D01*
X030200Y015513D01*
X031235Y015737D02*
X031235Y015962D01*
X031310Y016038D01*
X031610Y016038D01*
X031685Y015962D01*
X031685Y015737D01*
X031235Y015737D01*
X031725Y015927D02*
X032175Y015927D01*
X032175Y016152D01*
X032100Y016228D01*
X031950Y016228D01*
X031875Y016152D01*
X031875Y015927D01*
X031875Y016077D02*
X031725Y016228D01*
X031685Y016348D02*
X031235Y016348D01*
X031235Y016198D02*
X031235Y016498D01*
X031310Y016658D02*
X031610Y016658D01*
X031685Y016733D01*
X031685Y016883D01*
X031610Y016958D01*
X031310Y016658D01*
X031235Y016733D01*
X031235Y016883D01*
X031310Y016958D01*
X031610Y016958D01*
X031725Y016923D02*
X031800Y016848D01*
X031875Y016848D01*
X031950Y016923D01*
X031950Y017073D01*
X031875Y017148D01*
X031800Y017148D01*
X031725Y017073D01*
X031725Y016923D01*
X031900Y016894D02*
X031975Y016818D01*
X032125Y016818D01*
X032200Y016894D01*
X031900Y017194D01*
X031900Y016894D01*
X031950Y016923D02*
X032025Y016848D01*
X032100Y016848D01*
X032175Y016923D01*
X032175Y017073D01*
X032100Y017148D01*
X032025Y017148D01*
X031950Y017073D01*
X031900Y017194D02*
X031975Y017269D01*
X032125Y017269D01*
X032200Y017194D01*
X032200Y016894D01*
X032360Y016818D02*
X032661Y016818D01*
X032511Y016818D02*
X032511Y017269D01*
X032661Y017119D01*
X032821Y017194D02*
X032896Y017269D01*
X033046Y017269D01*
X033121Y017194D01*
X033121Y017119D01*
X033046Y017044D01*
X032896Y017044D01*
X032821Y016969D01*
X032821Y016894D01*
X032896Y016818D01*
X033046Y016818D01*
X033121Y016894D01*
X033281Y016894D02*
X033281Y017269D01*
X033581Y017269D02*
X033581Y016894D01*
X033506Y016818D01*
X033356Y016818D01*
X033281Y016894D01*
X032971Y016743D02*
X032971Y017344D01*
X032800Y017927D02*
X032800Y018152D01*
X032725Y018228D01*
X032575Y018228D01*
X032500Y018152D01*
X032500Y017927D01*
X032350Y017927D02*
X032800Y017927D01*
X032500Y018077D02*
X032350Y018228D01*
X032575Y018388D02*
X032575Y018688D01*
X032575Y018848D02*
X032575Y019148D01*
X032350Y019073D02*
X032800Y019073D01*
X032575Y018848D01*
X032350Y018613D02*
X032800Y018613D01*
X032575Y018388D01*
X030285Y018893D02*
X030285Y019344D01*
X030060Y019344D01*
X029985Y019269D01*
X029985Y018969D01*
X030060Y018893D01*
X030285Y018893D01*
X029824Y018969D02*
X029749Y018893D01*
X029599Y018893D01*
X029524Y018969D01*
X029524Y019044D01*
X029599Y019119D01*
X029674Y019119D01*
X029599Y019119D02*
X029524Y019194D01*
X029524Y019269D01*
X029599Y019344D01*
X029749Y019344D01*
X029824Y019269D01*
X028850Y018629D02*
X028625Y018629D01*
X028550Y018554D01*
X028550Y018404D01*
X028625Y018329D01*
X028850Y018329D01*
X028700Y018329D02*
X028550Y018178D01*
X028389Y018404D02*
X028089Y018404D01*
X027929Y018404D02*
X027779Y018479D01*
X027704Y018479D01*
X027629Y018404D01*
X027629Y018254D01*
X027704Y018178D01*
X027854Y018178D01*
X027929Y018254D01*
X027929Y018404D02*
X027929Y018629D01*
X027629Y018629D01*
X028164Y018629D02*
X028389Y018404D01*
X028164Y018178D02*
X028164Y018629D01*
X028850Y018629D02*
X028850Y018178D01*
X027095Y018239D02*
X026645Y018239D01*
X026645Y018089D02*
X026645Y018389D01*
X026645Y018549D02*
X026720Y018549D01*
X027020Y018849D01*
X027095Y018849D01*
X027095Y018549D01*
X027095Y018239D02*
X026945Y018089D01*
X026870Y017929D02*
X026795Y017854D01*
X026795Y017628D01*
X026645Y017628D02*
X027095Y017628D01*
X027095Y017854D01*
X027020Y017929D01*
X026870Y017929D01*
X026795Y017779D02*
X026645Y017929D01*
X026660Y018893D02*
X026435Y018893D01*
X026360Y018969D01*
X026360Y019269D01*
X026435Y019344D01*
X026660Y019344D01*
X026660Y018893D01*
X025974Y018893D02*
X025974Y019344D01*
X026199Y019119D01*
X025899Y019119D01*
X027300Y017148D02*
X027600Y017148D01*
X027675Y017073D01*
X027675Y016923D01*
X027600Y016848D01*
X027525Y016848D01*
X027450Y016923D01*
X027450Y017148D01*
X027300Y017148D02*
X027225Y017073D01*
X027225Y016923D01*
X027300Y016848D01*
X027185Y016883D02*
X027185Y016733D01*
X027110Y016658D01*
X027035Y016658D01*
X026960Y016733D01*
X026960Y016958D01*
X026810Y016958D02*
X027110Y016958D01*
X027185Y016883D01*
X027450Y016688D02*
X027450Y016388D01*
X027675Y016613D01*
X027225Y016613D01*
X027110Y016498D02*
X027185Y016423D01*
X027185Y016198D01*
X026735Y016198D01*
X026735Y016423D01*
X026810Y016498D01*
X027110Y016498D01*
X027225Y016228D02*
X027375Y016077D01*
X027375Y016152D02*
X027375Y015927D01*
X027225Y015927D02*
X027675Y015927D01*
X027675Y016152D01*
X027600Y016228D01*
X027450Y016228D01*
X027375Y016152D01*
X026810Y016658D02*
X026735Y016733D01*
X026735Y016883D01*
X026810Y016958D01*
X031535Y016198D02*
X031685Y016348D01*
X031725Y016613D02*
X032175Y016613D01*
X031950Y016388D01*
X031950Y016688D01*
X026660Y011943D02*
X026660Y009943D01*
X026658Y009899D01*
X026652Y009856D01*
X026643Y009814D01*
X026630Y009772D01*
X026613Y009732D01*
X026593Y009693D01*
X026570Y009656D01*
X026543Y009622D01*
X026514Y009589D01*
X026481Y009560D01*
X026447Y009533D01*
X026410Y009510D01*
X026371Y009490D01*
X026331Y009473D01*
X026289Y009460D01*
X026247Y009451D01*
X026204Y009445D01*
X026160Y009443D01*
X026116Y009445D01*
X026073Y009451D01*
X026031Y009460D01*
X025989Y009473D01*
X025949Y009490D01*
X025910Y009510D01*
X025873Y009533D01*
X025839Y009560D01*
X025806Y009589D01*
X025777Y009622D01*
X025750Y009656D01*
X025727Y009693D01*
X025707Y009732D01*
X025690Y009772D01*
X025677Y009814D01*
X025668Y009856D01*
X025662Y009899D01*
X025660Y009943D01*
X025660Y011943D01*
X025662Y011987D01*
X025668Y012030D01*
X025677Y012072D01*
X025690Y012114D01*
X025707Y012154D01*
X025727Y012193D01*
X025750Y012230D01*
X025777Y012264D01*
X025806Y012297D01*
X025839Y012326D01*
X025873Y012353D01*
X025910Y012376D01*
X025949Y012396D01*
X025989Y012413D01*
X026031Y012426D01*
X026073Y012435D01*
X026116Y012441D01*
X026160Y012443D01*
X026204Y012441D01*
X026247Y012435D01*
X026289Y012426D01*
X026331Y012413D01*
X026371Y012396D01*
X026410Y012376D01*
X026447Y012353D01*
X026481Y012326D01*
X026514Y012297D01*
X026543Y012264D01*
X026570Y012230D01*
X026593Y012193D01*
X026613Y012154D01*
X026630Y012114D01*
X026643Y012072D01*
X026652Y012030D01*
X026658Y011987D01*
X026660Y011943D01*
X027225Y011573D02*
X027225Y011423D01*
X027300Y011348D01*
X027600Y011648D01*
X027300Y011648D01*
X027225Y011573D01*
X027300Y011348D02*
X027600Y011348D01*
X027675Y011423D01*
X027675Y011573D01*
X027600Y011648D01*
X028225Y011573D02*
X028300Y011648D01*
X028600Y011648D01*
X028675Y011573D01*
X028675Y011423D01*
X028600Y011348D01*
X028525Y011348D01*
X028450Y011423D01*
X028450Y011648D01*
X028225Y011573D02*
X028225Y011423D01*
X028300Y011348D01*
X028225Y011188D02*
X028375Y011038D01*
X028375Y011113D02*
X028375Y010888D01*
X028225Y010888D02*
X028675Y010888D01*
X028675Y011113D01*
X028600Y011188D01*
X028450Y011188D01*
X028375Y011113D01*
X027675Y011038D02*
X027525Y010888D01*
X027600Y010728D02*
X027450Y010728D01*
X027375Y010652D01*
X027375Y010427D01*
X027225Y010427D02*
X027675Y010427D01*
X027675Y010652D01*
X027600Y010728D01*
X027375Y010577D02*
X027225Y010728D01*
X027225Y010888D02*
X027225Y011188D01*
X027225Y011038D02*
X027675Y011038D01*
X027620Y009140D02*
X027620Y008747D01*
X027384Y008747D01*
X027384Y009140D02*
X027620Y009140D01*
X026475Y007898D02*
X026475Y007598D01*
X026475Y007748D02*
X026925Y007748D01*
X026775Y007598D01*
X026475Y007438D02*
X026475Y007138D01*
X026475Y007288D02*
X026925Y007288D01*
X026775Y007138D01*
X026700Y006978D02*
X026625Y006902D01*
X026625Y006677D01*
X026475Y006677D02*
X026925Y006677D01*
X026925Y006902D01*
X026850Y006978D01*
X026700Y006978D01*
X026625Y006827D02*
X026475Y006978D01*
X027350Y006913D02*
X027800Y006913D01*
X027650Y006763D01*
X027575Y006603D02*
X027500Y006527D01*
X027500Y006302D01*
X027350Y006302D02*
X027800Y006302D01*
X027800Y006527D01*
X027725Y006603D01*
X027575Y006603D01*
X027500Y006452D02*
X027350Y006603D01*
X027350Y006763D02*
X027350Y007063D01*
X027350Y007223D02*
X027650Y007523D01*
X027725Y007523D01*
X027800Y007448D01*
X027800Y007298D01*
X027725Y007223D01*
X027350Y007223D02*
X027350Y007523D01*
X025185Y005344D02*
X025110Y005419D01*
X024960Y005419D01*
X024885Y005344D01*
X024724Y005194D02*
X024424Y005194D01*
X024499Y005419D02*
X024499Y004968D01*
X024724Y005194D02*
X024499Y005419D01*
X024885Y005044D02*
X024960Y004968D01*
X025110Y004968D01*
X025185Y005044D01*
X025185Y005344D01*
X024044Y004394D02*
X024044Y003793D01*
X024035Y003779D02*
X024185Y003929D01*
X023735Y003929D01*
X023734Y003944D02*
X023659Y003868D01*
X023509Y003868D01*
X023434Y003944D01*
X023434Y004244D01*
X023509Y004319D01*
X023659Y004319D01*
X023734Y004244D01*
X023734Y004169D01*
X023659Y004094D01*
X023434Y004094D01*
X023735Y004079D02*
X023735Y003779D01*
X023810Y003619D02*
X024110Y003619D01*
X024185Y003544D01*
X024185Y003318D01*
X023735Y003318D01*
X023735Y003544D01*
X023810Y003619D01*
X023969Y003868D02*
X023894Y003944D01*
X023894Y004019D01*
X023969Y004094D01*
X024119Y004094D01*
X024194Y004169D01*
X024194Y004244D01*
X024119Y004319D01*
X023969Y004319D01*
X023894Y004244D01*
X024355Y004319D02*
X024355Y003944D01*
X024430Y003868D01*
X024580Y003868D01*
X024655Y003944D01*
X024655Y004319D01*
X024194Y003944D02*
X024119Y003868D01*
X023969Y003868D01*
X022685Y005044D02*
X022610Y004968D01*
X022460Y004968D01*
X022385Y005044D01*
X022224Y004968D02*
X021924Y004968D01*
X022074Y004968D02*
X022074Y005419D01*
X022224Y005269D01*
X022385Y005344D02*
X022460Y005419D01*
X022610Y005419D01*
X022685Y005344D01*
X022685Y005044D01*
X019725Y005928D02*
X019725Y006379D01*
X019500Y006379D01*
X019425Y006304D01*
X019425Y006154D01*
X019500Y006079D01*
X019725Y006079D01*
X019575Y006079D02*
X019425Y005928D01*
X019264Y005928D02*
X018964Y005928D01*
X019114Y005928D02*
X019114Y006379D01*
X019264Y006229D01*
X018804Y006154D02*
X018804Y006379D01*
X018504Y006379D01*
X018579Y006229D02*
X018504Y006154D01*
X018504Y006004D01*
X018579Y005928D01*
X018729Y005928D01*
X018804Y006004D01*
X018804Y006154D02*
X018654Y006229D01*
X018579Y006229D01*
X017926Y005709D02*
X017701Y005709D01*
X017626Y005634D01*
X017626Y005484D01*
X017701Y005409D01*
X017926Y005409D01*
X017776Y005409D02*
X017626Y005258D01*
X017466Y005258D02*
X017165Y005258D01*
X017316Y005258D02*
X017316Y005709D01*
X017466Y005559D01*
X017005Y005484D02*
X017005Y005334D01*
X016930Y005258D01*
X016780Y005258D01*
X016705Y005334D01*
X016705Y005409D01*
X016780Y005484D01*
X017005Y005484D01*
X016855Y005634D01*
X016705Y005709D01*
X016100Y005693D02*
X016001Y004906D01*
X005568Y004906D01*
X005470Y005693D01*
X005568Y006481D01*
X016001Y006481D01*
X016100Y005693D01*
X016060Y005497D02*
X015824Y005497D01*
X015824Y005890D01*
X016060Y005890D01*
X017926Y005709D02*
X017926Y005258D01*
X018454Y003754D02*
X018379Y003679D01*
X018379Y003604D01*
X018454Y003529D01*
X018379Y003454D01*
X018379Y003379D01*
X018454Y003303D01*
X018604Y003303D01*
X018679Y003379D01*
X018839Y003303D02*
X019139Y003303D01*
X018989Y003303D02*
X018989Y003754D01*
X019139Y003604D01*
X019300Y003679D02*
X019300Y003529D01*
X019375Y003454D01*
X019600Y003454D01*
X019450Y003454D02*
X019300Y003303D01*
X019600Y003303D02*
X019600Y003754D01*
X019375Y003754D01*
X019300Y003679D01*
X018679Y003679D02*
X018604Y003754D01*
X018454Y003754D01*
X018454Y003529D02*
X018529Y003529D01*
X018301Y003209D02*
X018076Y003209D01*
X018001Y003134D01*
X018001Y002984D01*
X018076Y002909D01*
X018301Y002909D01*
X018151Y002909D02*
X018001Y002758D01*
X017841Y002758D02*
X017540Y002758D01*
X017691Y002758D02*
X017691Y003209D01*
X017841Y003059D01*
X017380Y002984D02*
X017155Y003209D01*
X017155Y002758D01*
X017080Y002984D02*
X017380Y002984D01*
X018301Y002758D02*
X018301Y003209D01*
X016100Y002693D02*
X016001Y001906D01*
X005568Y001906D01*
X005470Y002693D01*
X005568Y003481D01*
X016001Y003481D01*
X016100Y002693D01*
X016060Y002497D02*
X015824Y002497D01*
X015824Y002890D01*
X016060Y002890D01*
X010600Y002629D02*
X010600Y002178D01*
X010600Y002329D02*
X010375Y002329D01*
X010300Y002404D01*
X010300Y002554D01*
X010375Y002629D01*
X010600Y002629D01*
X010450Y002329D02*
X010300Y002178D01*
X010139Y002254D02*
X010064Y002178D01*
X009914Y002178D01*
X009839Y002254D01*
X009839Y002329D01*
X009914Y002404D01*
X009989Y002404D01*
X009914Y002404D02*
X009839Y002479D01*
X009839Y002554D01*
X009914Y002629D01*
X010064Y002629D01*
X010139Y002554D01*
X009679Y002554D02*
X009679Y002479D01*
X009604Y002404D01*
X009454Y002404D01*
X009379Y002329D01*
X009379Y002254D01*
X009454Y002178D01*
X009604Y002178D01*
X009679Y002254D01*
X009679Y002329D01*
X009604Y002404D01*
X009454Y002404D02*
X009379Y002479D01*
X009379Y002554D01*
X009454Y002629D01*
X009604Y002629D01*
X009679Y002554D01*
X008551Y002758D02*
X008551Y003209D01*
X008326Y003209D01*
X008251Y003134D01*
X008251Y002984D01*
X008326Y002909D01*
X008551Y002909D01*
X008401Y002909D02*
X008251Y002758D01*
X008091Y002758D02*
X007790Y003059D01*
X007790Y003134D01*
X007865Y003209D01*
X008016Y003209D01*
X008091Y003134D01*
X007630Y002984D02*
X007330Y002984D01*
X007405Y003209D02*
X007405Y002758D01*
X007630Y002984D02*
X007405Y003209D01*
X007790Y002758D02*
X008091Y002758D01*
X009454Y005178D02*
X009604Y005178D01*
X009679Y005254D01*
X009379Y005554D01*
X009379Y005254D01*
X009454Y005178D01*
X009679Y005254D02*
X009679Y005554D01*
X009604Y005629D01*
X009454Y005629D01*
X009379Y005554D01*
X009839Y005404D02*
X010139Y005404D01*
X009914Y005629D01*
X009914Y005178D01*
X010300Y005178D02*
X010450Y005329D01*
X010375Y005329D02*
X010600Y005329D01*
X010600Y005178D02*
X010600Y005629D01*
X010375Y005629D01*
X010300Y005554D01*
X010300Y005404D01*
X010375Y005329D01*
X008551Y005883D02*
X008551Y006334D01*
X008326Y006334D01*
X008251Y006259D01*
X008251Y006109D01*
X008326Y006034D01*
X008551Y006034D01*
X008401Y006034D02*
X008251Y005883D01*
X008091Y005883D02*
X007790Y006184D01*
X007790Y006259D01*
X007865Y006334D01*
X008016Y006334D01*
X008091Y006259D01*
X007630Y006334D02*
X007630Y006109D01*
X007480Y006184D01*
X007405Y006184D01*
X007330Y006109D01*
X007330Y005959D01*
X007405Y005883D01*
X007555Y005883D01*
X007630Y005959D01*
X007790Y005883D02*
X008091Y005883D01*
X007630Y006334D02*
X007330Y006334D01*
X005568Y008156D02*
X005470Y008943D01*
X005568Y009731D01*
X016001Y009731D01*
X016100Y008943D01*
X016001Y008156D01*
X005568Y008156D01*
X007330Y009084D02*
X007330Y009384D01*
X007405Y009459D01*
X007555Y009459D01*
X007630Y009384D01*
X007630Y009309D01*
X007555Y009234D01*
X007330Y009234D01*
X007330Y009084D02*
X007405Y009008D01*
X007555Y009008D01*
X007630Y009084D01*
X007790Y009008D02*
X008091Y009008D01*
X007941Y009008D02*
X007941Y009459D01*
X008091Y009309D01*
X008251Y009384D02*
X008251Y009234D01*
X008326Y009159D01*
X008551Y009159D01*
X008401Y009159D02*
X008251Y009008D01*
X008551Y009008D02*
X008551Y009459D01*
X008326Y009459D01*
X008251Y009384D01*
X005568Y011031D02*
X005470Y011818D01*
X005568Y012606D01*
X016001Y012606D01*
X016100Y011818D01*
X016001Y011031D01*
X005568Y011031D01*
X007330Y011959D02*
X007405Y011883D01*
X007555Y011883D01*
X007630Y011959D01*
X007630Y012034D01*
X007555Y012109D01*
X007405Y012109D01*
X007330Y012034D01*
X007330Y011959D01*
X007405Y012109D02*
X007330Y012184D01*
X007330Y012259D01*
X007405Y012334D01*
X007555Y012334D01*
X007630Y012259D01*
X007630Y012184D01*
X007555Y012109D01*
X007790Y011883D02*
X008091Y011883D01*
X007941Y011883D02*
X007941Y012334D01*
X008091Y012184D01*
X008251Y012259D02*
X008251Y012109D01*
X008326Y012034D01*
X008551Y012034D01*
X008401Y012034D02*
X008251Y011883D01*
X008551Y011883D02*
X008551Y012334D01*
X008326Y012334D01*
X008251Y012259D01*
X009379Y011679D02*
X009379Y011604D01*
X009454Y011529D01*
X009604Y011529D01*
X009679Y011604D01*
X009679Y011679D01*
X009604Y011754D01*
X009454Y011754D01*
X009379Y011679D01*
X009454Y011529D02*
X009379Y011454D01*
X009379Y011379D01*
X009454Y011303D01*
X009604Y011303D01*
X009679Y011379D01*
X009679Y011454D01*
X009604Y011529D01*
X009839Y011604D02*
X009839Y011679D01*
X009914Y011754D01*
X010064Y011754D01*
X010139Y011679D01*
X010300Y011679D02*
X010300Y011529D01*
X010375Y011454D01*
X010600Y011454D01*
X010450Y011454D02*
X010300Y011303D01*
X010139Y011303D02*
X009839Y011604D01*
X009839Y011303D02*
X010139Y011303D01*
X010600Y011303D02*
X010600Y011754D01*
X010375Y011754D01*
X010300Y011679D01*
X005568Y014156D02*
X005470Y014943D01*
X005568Y015731D01*
X016001Y015731D01*
X016100Y014943D01*
X016001Y014156D01*
X005568Y014156D01*
X009379Y014504D02*
X009454Y014428D01*
X009604Y014428D01*
X009679Y014504D01*
X009379Y014804D01*
X009379Y014504D01*
X009679Y014504D02*
X009679Y014804D01*
X009604Y014879D01*
X009454Y014879D01*
X009379Y014804D01*
X009839Y014804D02*
X009839Y014729D01*
X009914Y014654D01*
X009839Y014579D01*
X009839Y014504D01*
X009914Y014428D01*
X010064Y014428D01*
X010139Y014504D01*
X010300Y014428D02*
X010450Y014579D01*
X010375Y014579D02*
X010600Y014579D01*
X010600Y014428D02*
X010600Y014879D01*
X010375Y014879D01*
X010300Y014804D01*
X010300Y014654D01*
X010375Y014579D01*
X010139Y014804D02*
X010064Y014879D01*
X009914Y014879D01*
X009839Y014804D01*
X009914Y014654D02*
X009989Y014654D01*
X011080Y015084D02*
X011155Y015008D01*
X011305Y015008D01*
X011380Y015084D01*
X011080Y015384D01*
X011080Y015084D01*
X011380Y015084D02*
X011380Y015384D01*
X011305Y015459D01*
X011155Y015459D01*
X011080Y015384D01*
X011540Y015384D02*
X011540Y015309D01*
X011841Y015008D01*
X011540Y015008D01*
X011540Y015384D02*
X011615Y015459D01*
X011766Y015459D01*
X011841Y015384D01*
X012001Y015384D02*
X012001Y015234D01*
X012076Y015159D01*
X012301Y015159D01*
X012151Y015159D02*
X012001Y015008D01*
X012301Y015008D02*
X012301Y015459D01*
X012076Y015459D01*
X012001Y015384D01*
X015475Y015388D02*
X015925Y015388D01*
X015925Y015613D01*
X015850Y015688D01*
X015700Y015688D01*
X015625Y015613D01*
X015625Y015388D01*
X015625Y015538D02*
X015475Y015688D01*
X015550Y015848D02*
X015475Y015923D01*
X015475Y016073D01*
X015550Y016148D01*
X015625Y016148D01*
X015700Y016073D01*
X015700Y015848D01*
X015550Y015848D01*
X015700Y015848D02*
X015850Y015998D01*
X015925Y016148D01*
X016225Y016073D02*
X016225Y015923D01*
X016300Y015848D01*
X016450Y015848D02*
X016525Y015998D01*
X016525Y016073D01*
X016450Y016148D01*
X016300Y016148D01*
X016225Y016073D01*
X016450Y015848D02*
X016675Y015848D01*
X016675Y016148D01*
X016600Y015688D02*
X016450Y015688D01*
X016375Y015613D01*
X016375Y015388D01*
X016375Y015538D02*
X016225Y015688D01*
X016225Y015388D02*
X016675Y015388D01*
X016675Y015613D01*
X016600Y015688D01*
X016060Y015140D02*
X015824Y015140D01*
X015824Y014747D01*
X016060Y014747D01*
X016300Y013023D02*
X016375Y013023D01*
X016450Y012948D01*
X016450Y012873D01*
X016450Y012948D02*
X016525Y013023D01*
X016600Y013023D01*
X016675Y012948D01*
X016675Y012798D01*
X016600Y012723D01*
X016600Y012563D02*
X016450Y012563D01*
X016375Y012488D01*
X016375Y012263D01*
X016375Y012413D02*
X016225Y012563D01*
X016300Y012723D02*
X016225Y012798D01*
X016225Y012948D01*
X016300Y013023D01*
X015925Y012948D02*
X015700Y012723D01*
X015700Y013023D01*
X015475Y012948D02*
X015925Y012948D01*
X015850Y012563D02*
X015925Y012488D01*
X015925Y012263D01*
X015475Y012263D01*
X015625Y012263D02*
X015625Y012488D01*
X015700Y012563D01*
X015850Y012563D01*
X015625Y012413D02*
X015475Y012563D01*
X016225Y012263D02*
X016675Y012263D01*
X016675Y012488D01*
X016600Y012563D01*
X016060Y012015D02*
X015824Y012015D01*
X015824Y011622D01*
X016060Y011622D01*
X016225Y010148D02*
X016225Y009848D01*
X016225Y009998D02*
X016675Y009998D01*
X016525Y009848D01*
X016450Y009688D02*
X016375Y009613D01*
X016375Y009388D01*
X016375Y009538D02*
X016225Y009688D01*
X016450Y009688D02*
X016600Y009688D01*
X016675Y009613D01*
X016675Y009388D01*
X016225Y009388D01*
X015925Y009388D02*
X015925Y009613D01*
X015850Y009688D01*
X015700Y009688D01*
X015625Y009613D01*
X015625Y009388D01*
X015625Y009538D02*
X015475Y009688D01*
X015475Y009848D02*
X015775Y010148D01*
X015850Y010148D01*
X015925Y010073D01*
X015925Y009923D01*
X015850Y009848D01*
X015475Y009848D02*
X015475Y010148D01*
X015475Y009388D02*
X015925Y009388D01*
X015824Y009140D02*
X016060Y009140D01*
X015824Y009140D02*
X015824Y008747D01*
X016060Y008747D01*
X016955Y007709D02*
X017105Y007634D01*
X017255Y007484D01*
X017030Y007484D01*
X016955Y007409D01*
X016955Y007334D01*
X017030Y007258D01*
X017180Y007258D01*
X017255Y007334D01*
X017255Y007484D01*
X017415Y007559D02*
X017415Y007634D01*
X017490Y007709D01*
X017641Y007709D01*
X017716Y007634D01*
X017876Y007634D02*
X017876Y007484D01*
X017951Y007409D01*
X018176Y007409D01*
X018026Y007409D02*
X017876Y007258D01*
X017716Y007258D02*
X017415Y007559D01*
X017876Y007634D02*
X017951Y007709D01*
X018176Y007709D01*
X018176Y007258D01*
X017716Y007258D02*
X017415Y007258D01*
X020004Y007504D02*
X020079Y007428D01*
X020229Y007428D01*
X020304Y007504D01*
X020464Y007504D02*
X020539Y007428D01*
X020689Y007428D01*
X020764Y007504D01*
X020925Y007428D02*
X021075Y007579D01*
X021000Y007579D02*
X021225Y007579D01*
X021225Y007428D02*
X021225Y007879D01*
X021000Y007879D01*
X020925Y007804D01*
X020925Y007654D01*
X021000Y007579D01*
X020764Y007804D02*
X020689Y007879D01*
X020539Y007879D01*
X020464Y007804D01*
X020464Y007729D01*
X020539Y007654D01*
X020464Y007579D01*
X020464Y007504D01*
X020539Y007654D02*
X020614Y007654D01*
X020304Y007729D02*
X020229Y007654D01*
X020004Y007654D01*
X020004Y007504D02*
X020004Y007804D01*
X020079Y007879D01*
X020229Y007879D01*
X020304Y007804D01*
X020304Y007729D01*
X020304Y009428D02*
X020004Y009428D01*
X020154Y009428D02*
X020154Y009879D01*
X020304Y009729D01*
X020464Y009654D02*
X020764Y009654D01*
X020539Y009879D01*
X020539Y009428D01*
X020925Y009428D02*
X021075Y009579D01*
X021000Y009579D02*
X021225Y009579D01*
X021225Y009428D02*
X021225Y009879D01*
X021000Y009879D01*
X020925Y009804D01*
X020925Y009654D01*
X021000Y009579D01*
X021835Y010273D02*
X021910Y010198D01*
X022210Y010198D01*
X022285Y010273D01*
X022285Y010423D01*
X022210Y010498D01*
X022210Y010658D02*
X022285Y010733D01*
X022285Y010883D01*
X022210Y010958D01*
X022135Y010958D01*
X021835Y010658D01*
X021835Y010958D01*
X021910Y010498D02*
X021835Y010423D01*
X021835Y010273D01*
X021225Y012928D02*
X021225Y013379D01*
X021000Y013379D01*
X020925Y013304D01*
X020925Y013154D01*
X021000Y013079D01*
X021225Y013079D01*
X021075Y013079D02*
X020925Y012928D01*
X020764Y012928D02*
X020464Y013229D01*
X020464Y013304D01*
X020539Y013379D01*
X020689Y013379D01*
X020764Y013304D01*
X020304Y013379D02*
X020004Y013379D01*
X020004Y013304D01*
X020304Y013004D01*
X020304Y012928D01*
X020464Y012928D02*
X020764Y012928D01*
X020764Y015053D02*
X020464Y015354D01*
X020464Y015429D01*
X020539Y015504D01*
X020689Y015504D01*
X020764Y015429D01*
X020925Y015429D02*
X020925Y015279D01*
X021000Y015204D01*
X021225Y015204D01*
X021075Y015204D02*
X020925Y015053D01*
X020764Y015053D02*
X020464Y015053D01*
X020304Y015129D02*
X020229Y015053D01*
X020079Y015053D01*
X020004Y015129D01*
X020004Y015429D01*
X020079Y015504D01*
X020229Y015504D01*
X020304Y015429D01*
X020304Y015354D01*
X020229Y015279D01*
X020004Y015279D01*
X020925Y015429D02*
X021000Y015504D01*
X021225Y015504D01*
X021225Y015053D01*
X021225Y017428D02*
X021225Y017879D01*
X021000Y017879D01*
X020925Y017804D01*
X020925Y017654D01*
X021000Y017579D01*
X021225Y017579D01*
X021075Y017579D02*
X020925Y017428D01*
X020764Y017504D02*
X020689Y017428D01*
X020539Y017428D01*
X020464Y017504D01*
X020464Y017579D01*
X020539Y017654D01*
X020614Y017654D01*
X020539Y017654D02*
X020464Y017729D01*
X020464Y017804D01*
X020539Y017879D01*
X020689Y017879D01*
X020764Y017804D01*
X020304Y017729D02*
X020154Y017879D01*
X020154Y017428D01*
X020304Y017428D02*
X020004Y017428D01*
X016675Y018263D02*
X016675Y018488D01*
X016600Y018563D01*
X016450Y018563D01*
X016375Y018488D01*
X016375Y018263D01*
X016375Y018413D02*
X016225Y018563D01*
X016225Y018723D02*
X016300Y018723D01*
X016600Y019023D01*
X016675Y019023D01*
X016675Y018723D01*
X016001Y018731D02*
X016100Y017943D01*
X016001Y017156D01*
X005568Y017156D01*
X005470Y017943D01*
X005568Y018731D01*
X016001Y018731D01*
X015925Y018798D02*
X015925Y018948D01*
X015850Y019023D01*
X015775Y019023D01*
X015700Y018948D01*
X015700Y018798D01*
X015775Y018723D01*
X015850Y018723D01*
X015925Y018798D01*
X015700Y018798D02*
X015625Y018723D01*
X015550Y018723D01*
X015475Y018798D01*
X015475Y018948D01*
X015550Y019023D01*
X015625Y019023D01*
X015700Y018948D01*
X015700Y018563D02*
X015625Y018488D01*
X015625Y018263D01*
X015625Y018413D02*
X015475Y018563D01*
X015700Y018563D02*
X015850Y018563D01*
X015925Y018488D01*
X015925Y018263D01*
X015475Y018263D01*
X015824Y018140D02*
X016060Y018140D01*
X016225Y018263D02*
X016675Y018263D01*
X016060Y017747D02*
X015824Y017747D01*
X015824Y018140D01*
X011801Y018159D02*
X011576Y018159D01*
X011501Y018234D01*
X011501Y018384D01*
X011576Y018459D01*
X011801Y018459D01*
X011801Y018008D01*
X011651Y018159D02*
X011501Y018008D01*
X011341Y018008D02*
X011040Y018309D01*
X011040Y018384D01*
X011115Y018459D01*
X011266Y018459D01*
X011341Y018384D01*
X010880Y018309D02*
X010730Y018459D01*
X010730Y018008D01*
X010880Y018008D02*
X010580Y018008D01*
X010600Y017754D02*
X010375Y017754D01*
X010300Y017679D01*
X010300Y017529D01*
X010375Y017454D01*
X010600Y017454D01*
X010450Y017454D02*
X010300Y017303D01*
X010139Y017379D02*
X010064Y017303D01*
X009914Y017303D01*
X009839Y017379D01*
X009839Y017454D01*
X009914Y017529D01*
X009989Y017529D01*
X009914Y017529D02*
X009839Y017604D01*
X009839Y017679D01*
X009914Y017754D01*
X010064Y017754D01*
X010139Y017679D01*
X009679Y017679D02*
X009604Y017754D01*
X009454Y017754D01*
X009379Y017679D01*
X009379Y017604D01*
X009679Y017303D01*
X009379Y017303D01*
X010600Y017303D02*
X010600Y017754D01*
X011040Y018008D02*
X011341Y018008D01*
X020004Y019504D02*
X020079Y019428D01*
X020229Y019428D01*
X020304Y019504D01*
X020464Y019504D02*
X020539Y019428D01*
X020689Y019428D01*
X020764Y019504D01*
X020925Y019428D02*
X021075Y019579D01*
X021000Y019579D02*
X021225Y019579D01*
X021225Y019428D02*
X021225Y019879D01*
X021000Y019879D01*
X020925Y019804D01*
X020925Y019654D01*
X021000Y019579D01*
X020764Y019804D02*
X020689Y019879D01*
X020539Y019879D01*
X020464Y019804D01*
X020464Y019729D01*
X020539Y019654D01*
X020464Y019579D01*
X020464Y019504D01*
X020539Y019654D02*
X020614Y019654D01*
X020304Y019804D02*
X020229Y019879D01*
X020079Y019879D01*
X020004Y019804D01*
X020004Y019729D01*
X020079Y019654D01*
X020004Y019579D01*
X020004Y019504D01*
X020079Y019654D02*
X020154Y019654D01*
X027384Y004890D02*
X027620Y004890D01*
X027620Y004497D01*
X027384Y004497D01*
X026685Y004004D02*
X026685Y003854D01*
X026610Y003779D01*
X026610Y003619D02*
X026685Y003544D01*
X026685Y003318D01*
X026235Y003318D01*
X026235Y003544D01*
X026310Y003619D01*
X026610Y003619D01*
X026235Y003779D02*
X026535Y004079D01*
X026610Y004079D01*
X026685Y004004D01*
X026235Y004079D02*
X026235Y003779D01*
X024675Y002573D02*
X024600Y002648D01*
X024525Y002648D01*
X024450Y002573D01*
X024375Y002648D01*
X024300Y002648D01*
X024225Y002573D01*
X024225Y002423D01*
X024300Y002348D01*
X024450Y002498D02*
X024450Y002573D01*
X024675Y002573D02*
X024675Y002423D01*
X024600Y002348D01*
X024450Y002188D02*
X024450Y001888D01*
X024675Y002113D01*
X024225Y002113D01*
X024225Y001728D02*
X024375Y001577D01*
X024375Y001652D02*
X024375Y001427D01*
X024225Y001427D02*
X024675Y001427D01*
X024675Y001652D01*
X024600Y001728D01*
X024450Y001728D01*
X024375Y001652D01*
X023095Y001814D02*
X022870Y001589D01*
X022870Y001889D01*
X023020Y002049D02*
X023095Y002124D01*
X023095Y002274D01*
X023020Y002349D01*
X022945Y002349D01*
X022645Y002049D01*
X022645Y002349D01*
X022645Y001814D02*
X023095Y001814D01*
X023020Y001429D02*
X023095Y001354D01*
X023095Y001128D01*
X022645Y001128D01*
X022795Y001128D02*
X022795Y001354D01*
X022870Y001429D01*
X023020Y001429D01*
X022795Y001279D02*
X022645Y001429D01*
D12*
X021910Y002693D02*
X021910Y004443D01*
X019910Y004443D01*
X019910Y002693D01*
X021910Y002693D01*
X021910Y004443D02*
X021910Y005193D01*
X019910Y005193D01*
X019910Y004443D01*
X022610Y010343D02*
X022910Y010343D01*
X023210Y010343D01*
X023210Y010543D02*
X022910Y010543D01*
X022610Y010543D01*
X035660Y008068D02*
X035660Y006318D01*
X037660Y006318D01*
X037660Y008068D01*
X035660Y008068D01*
X035660Y006318D02*
X035660Y005568D01*
X037660Y005568D01*
X037660Y006318D01*
X036160Y003568D02*
X034160Y003568D01*
X034160Y001818D01*
X036160Y001818D01*
X036160Y003568D01*
X036160Y001818D02*
X036160Y001068D01*
X034160Y001068D01*
X034160Y001818D01*
X005035Y001443D02*
X005035Y002193D01*
X003035Y002193D01*
X003035Y001443D01*
X005035Y001443D01*
X005035Y002193D02*
X005035Y003943D01*
X003035Y003943D01*
X003035Y002193D01*
X003035Y004443D02*
X005035Y004443D01*
X005035Y005193D01*
X003035Y005193D01*
X003035Y004443D01*
X003035Y005193D02*
X003035Y006943D01*
X005035Y006943D01*
X005035Y005193D01*
X005035Y007693D02*
X005035Y008443D01*
X003035Y008443D01*
X003035Y007693D01*
X005035Y007693D01*
X005035Y008443D02*
X005035Y010193D01*
X003035Y010193D01*
X003035Y008443D01*
X003035Y010568D02*
X005035Y010568D01*
X005035Y011318D01*
X003035Y011318D01*
X003035Y010568D01*
X003035Y011318D02*
X003035Y013068D01*
X005035Y013068D01*
X005035Y011318D01*
X005035Y013693D02*
X005035Y014443D01*
X003035Y014443D01*
X003035Y013693D01*
X005035Y013693D01*
X005035Y014443D02*
X005035Y016193D01*
X003035Y016193D01*
X003035Y014443D01*
X003035Y016693D02*
X005035Y016693D01*
X005035Y017443D01*
X003035Y017443D01*
X003035Y016693D01*
X003035Y017443D02*
X003035Y019193D01*
X005035Y019193D01*
X005035Y017443D01*
D13*
X003383Y016424D02*
X003203Y016424D01*
X003143Y016364D01*
X003143Y016124D01*
X003203Y016063D01*
X003383Y016063D01*
X003383Y016424D01*
X003323Y013424D02*
X003383Y013364D01*
X003383Y013124D01*
X003323Y013063D01*
X003203Y013063D01*
X003143Y013124D01*
X003143Y013364D02*
X003203Y013424D01*
X003323Y013424D01*
X003383Y010299D02*
X003203Y010299D01*
X003143Y010239D01*
X003143Y010179D01*
X003203Y010119D01*
X003383Y010119D01*
X003383Y010299D02*
X003383Y009938D01*
X003203Y009938D01*
X003143Y009999D01*
X003143Y010059D01*
X003203Y010119D01*
X003263Y007424D02*
X003143Y007304D01*
X003143Y007063D01*
X003143Y007244D02*
X003383Y007244D01*
X003383Y007304D02*
X003383Y007063D01*
X003383Y007304D02*
X003263Y007424D01*
X003383Y004174D02*
X003383Y003813D01*
X003383Y003994D02*
X003143Y003994D01*
X003143Y004174D02*
X003143Y003813D01*
X003203Y001174D02*
X003323Y001174D01*
X003383Y001114D01*
X003383Y000874D01*
X003323Y000813D01*
X003203Y000813D01*
X003143Y000874D01*
X003143Y000994D01*
X003263Y000994D01*
X003143Y001114D02*
X003203Y001174D01*
X021281Y005463D02*
X021522Y005463D01*
X021281Y005704D01*
X021281Y005764D01*
X021341Y005824D01*
X021461Y005824D01*
X021522Y005764D01*
X021650Y005824D02*
X021890Y005463D01*
X021650Y005463D02*
X021890Y005824D01*
X024680Y010582D02*
X025140Y010889D01*
X025140Y011043D02*
X025140Y011350D01*
X025140Y011196D02*
X024680Y011196D01*
X024680Y010889D02*
X025140Y010582D01*
X024987Y011503D02*
X025140Y011656D01*
X024680Y011656D01*
X024680Y011503D02*
X024680Y011810D01*
X035768Y005299D02*
X036008Y005299D01*
X036008Y004938D01*
X035768Y004938D01*
X035888Y005119D02*
X036008Y005119D01*
X034508Y000799D02*
X034268Y000799D01*
X034388Y000619D02*
X034508Y000619D01*
X034508Y000799D02*
X034508Y000438D01*
D14*
X024020Y019528D02*
X023810Y019528D01*
X023704Y019634D01*
X023704Y020159D01*
X023480Y019949D02*
X023270Y020159D01*
X023270Y019528D01*
X023480Y019528D02*
X023060Y019528D01*
X024020Y019528D02*
X024125Y019634D01*
X024125Y020159D01*
D15*
X024160Y019443D02*
X023660Y019443D01*
X023658Y019399D01*
X023652Y019356D01*
X023643Y019314D01*
X023630Y019272D01*
X023613Y019232D01*
X023593Y019193D01*
X023570Y019156D01*
X023543Y019122D01*
X023514Y019089D01*
X023481Y019060D01*
X023447Y019033D01*
X023410Y019010D01*
X023371Y018990D01*
X023331Y018973D01*
X023289Y018960D01*
X023247Y018951D01*
X023204Y018945D01*
X023160Y018943D01*
X023116Y018945D01*
X023073Y018951D01*
X023031Y018960D01*
X022989Y018973D01*
X022949Y018990D01*
X022910Y019010D01*
X022873Y019033D01*
X022839Y019060D01*
X022806Y019089D01*
X022777Y019122D01*
X022750Y019156D01*
X022727Y019193D01*
X022707Y019232D01*
X022690Y019272D01*
X022677Y019314D01*
X022668Y019356D01*
X022662Y019399D01*
X022660Y019443D01*
X022160Y019443D01*
X022160Y005443D01*
X024160Y005443D01*
X024160Y019393D01*
X026885Y019318D02*
X026885Y018318D01*
X028985Y018318D01*
X028985Y018468D01*
X028985Y019168D01*
X028985Y019318D01*
X026885Y019318D01*
X028985Y019168D02*
X029135Y019168D01*
X029135Y019068D02*
X029135Y018568D01*
X029135Y018468D02*
X028985Y018468D01*
X029235Y018618D02*
X029235Y019018D01*
X029335Y018918D02*
X029335Y018718D01*
X029135Y018468D02*
X029172Y018470D01*
X029208Y018476D01*
X029243Y018485D01*
X029277Y018498D01*
X029310Y018515D01*
X029341Y018535D01*
X029369Y018558D01*
X029395Y018584D01*
X029418Y018612D01*
X029438Y018643D01*
X029455Y018676D01*
X029468Y018710D01*
X029477Y018745D01*
X029483Y018781D01*
X029485Y018818D01*
X029483Y018855D01*
X029477Y018891D01*
X029468Y018926D01*
X029455Y018960D01*
X029438Y018993D01*
X029418Y019024D01*
X029395Y019052D01*
X029369Y019078D01*
X029341Y019101D01*
X029310Y019121D01*
X029277Y019138D01*
X029243Y019151D01*
X029208Y019160D01*
X029172Y019166D01*
X029135Y019168D01*
X030510Y019318D02*
X032610Y019318D01*
X032610Y019168D01*
X032610Y018468D01*
X032760Y018468D01*
X032760Y018568D02*
X032760Y019068D01*
X032760Y019168D02*
X032610Y019168D01*
X032860Y019018D02*
X032860Y018618D01*
X032960Y018718D02*
X032960Y018918D01*
X032760Y019168D02*
X032797Y019166D01*
X032833Y019160D01*
X032868Y019151D01*
X032902Y019138D01*
X032935Y019121D01*
X032966Y019101D01*
X032994Y019078D01*
X033020Y019052D01*
X033043Y019024D01*
X033063Y018993D01*
X033080Y018960D01*
X033093Y018926D01*
X033102Y018891D01*
X033108Y018855D01*
X033110Y018818D01*
X033108Y018781D01*
X033102Y018745D01*
X033093Y018710D01*
X033080Y018676D01*
X033063Y018643D01*
X033043Y018612D01*
X033020Y018584D01*
X032994Y018558D01*
X032966Y018535D01*
X032935Y018515D01*
X032902Y018498D01*
X032868Y018485D01*
X032833Y018476D01*
X032797Y018470D01*
X032760Y018468D01*
X032610Y018468D02*
X032610Y018318D01*
X030510Y018318D01*
X030510Y019318D01*
X030785Y017693D02*
X030787Y017737D01*
X030793Y017781D01*
X030803Y017824D01*
X030816Y017866D01*
X030833Y017907D01*
X030854Y017946D01*
X030878Y017983D01*
X030905Y018018D01*
X030935Y018050D01*
X030968Y018080D01*
X031004Y018106D01*
X031041Y018130D01*
X031081Y018149D01*
X031122Y018166D01*
X031165Y018178D01*
X031208Y018187D01*
X031252Y018192D01*
X031296Y018193D01*
X031340Y018190D01*
X031384Y018183D01*
X031427Y018172D01*
X031469Y018158D01*
X031509Y018140D01*
X031548Y018118D01*
X031584Y018094D01*
X031618Y018066D01*
X031650Y018035D01*
X031679Y018001D01*
X031705Y017965D01*
X031727Y017927D01*
X031746Y017887D01*
X031761Y017845D01*
X031773Y017803D01*
X031781Y017759D01*
X031785Y017715D01*
X031785Y017671D01*
X031781Y017627D01*
X031773Y017583D01*
X031761Y017541D01*
X031746Y017499D01*
X031727Y017459D01*
X031705Y017421D01*
X031679Y017385D01*
X031650Y017351D01*
X031618Y017320D01*
X031584Y017292D01*
X031548Y017268D01*
X031509Y017246D01*
X031469Y017228D01*
X031427Y017214D01*
X031384Y017203D01*
X031340Y017196D01*
X031296Y017193D01*
X031252Y017194D01*
X031208Y017199D01*
X031165Y017208D01*
X031122Y017220D01*
X031081Y017237D01*
X031041Y017256D01*
X031004Y017280D01*
X030968Y017306D01*
X030935Y017336D01*
X030905Y017368D01*
X030878Y017403D01*
X030854Y017440D01*
X030833Y017479D01*
X030816Y017520D01*
X030803Y017562D01*
X030793Y017605D01*
X030787Y017649D01*
X030785Y017693D01*
X031860Y016643D02*
X032160Y016643D01*
X032460Y016643D01*
X032160Y016643D02*
X032460Y016243D01*
X031860Y016243D01*
X032160Y016643D01*
X030710Y015768D02*
X030410Y015768D01*
X030110Y015768D01*
X030410Y015768D02*
X030710Y015368D01*
X030110Y015368D01*
X030410Y015768D01*
X027960Y016243D02*
X027360Y016243D01*
X027660Y016643D01*
X027960Y016643D01*
X027660Y016643D02*
X027360Y016643D01*
X027660Y016643D02*
X027960Y016243D01*
X027960Y014268D02*
X027360Y014268D01*
X027660Y013868D01*
X027360Y013868D01*
X027660Y013868D02*
X027960Y013868D01*
X027660Y013868D02*
X027960Y014268D01*
X030110Y013268D02*
X030710Y013268D01*
X030410Y012868D01*
X030110Y012868D01*
X030410Y012868D02*
X030710Y012868D01*
X030410Y012868D02*
X030110Y013268D01*
X031860Y013493D02*
X032160Y013493D01*
X032460Y013493D01*
X032160Y013493D02*
X031860Y013893D01*
X032460Y013893D01*
X032160Y013493D01*
X023410Y011293D02*
X023410Y009593D01*
X023408Y009576D01*
X023404Y009559D01*
X023397Y009543D01*
X023387Y009529D01*
X023374Y009516D01*
X023360Y009506D01*
X023344Y009499D01*
X023327Y009495D01*
X023310Y009493D01*
X022510Y009493D01*
X022493Y009495D01*
X022476Y009499D01*
X022460Y009506D01*
X022446Y009516D01*
X022433Y009529D01*
X022423Y009543D01*
X022416Y009559D01*
X022412Y009576D01*
X022410Y009593D01*
X022410Y011293D01*
X022412Y011310D01*
X022416Y011327D01*
X022423Y011343D01*
X022433Y011357D01*
X022446Y011370D01*
X022460Y011380D01*
X022476Y011387D01*
X022493Y011391D01*
X022510Y011393D01*
X023310Y011393D01*
X023327Y011391D01*
X023344Y011387D01*
X023360Y011380D01*
X023374Y011370D01*
X023387Y011357D01*
X023397Y011343D01*
X023404Y011327D01*
X023408Y011310D01*
X023410Y011293D01*
X022910Y010593D02*
X022910Y010543D01*
X022910Y010343D02*
X022910Y010293D01*
X024210Y005043D02*
X024210Y004943D01*
X024110Y004943D01*
X024210Y004943D02*
X024210Y004843D01*
X024210Y004943D02*
X024310Y004943D01*
X022660Y004443D02*
X022662Y004506D01*
X022668Y004568D01*
X022678Y004630D01*
X022691Y004692D01*
X022709Y004752D01*
X022730Y004811D01*
X022755Y004869D01*
X022784Y004925D01*
X022816Y004979D01*
X022851Y005031D01*
X022889Y005080D01*
X022931Y005128D01*
X022975Y005172D01*
X023023Y005214D01*
X023072Y005252D01*
X023124Y005287D01*
X023178Y005319D01*
X023234Y005348D01*
X023292Y005373D01*
X023351Y005394D01*
X023411Y005412D01*
X023473Y005425D01*
X023535Y005435D01*
X023597Y005441D01*
X023660Y005443D01*
X023723Y005441D01*
X023785Y005435D01*
X023847Y005425D01*
X023909Y005412D01*
X023969Y005394D01*
X024028Y005373D01*
X024086Y005348D01*
X024142Y005319D01*
X024196Y005287D01*
X024248Y005252D01*
X024297Y005214D01*
X024345Y005172D01*
X024389Y005128D01*
X024431Y005080D01*
X024469Y005031D01*
X024504Y004979D01*
X024536Y004925D01*
X024565Y004869D01*
X024590Y004811D01*
X024611Y004752D01*
X024629Y004692D01*
X024642Y004630D01*
X024652Y004568D01*
X024658Y004506D01*
X024660Y004443D01*
X024658Y004380D01*
X024652Y004318D01*
X024642Y004256D01*
X024629Y004194D01*
X024611Y004134D01*
X024590Y004075D01*
X024565Y004017D01*
X024536Y003961D01*
X024504Y003907D01*
X024469Y003855D01*
X024431Y003806D01*
X024389Y003758D01*
X024345Y003714D01*
X024297Y003672D01*
X024248Y003634D01*
X024196Y003599D01*
X024142Y003567D01*
X024086Y003538D01*
X024028Y003513D01*
X023969Y003492D01*
X023909Y003474D01*
X023847Y003461D01*
X023785Y003451D01*
X023723Y003445D01*
X023660Y003443D01*
X023597Y003445D01*
X023535Y003451D01*
X023473Y003461D01*
X023411Y003474D01*
X023351Y003492D01*
X023292Y003513D01*
X023234Y003538D01*
X023178Y003567D01*
X023124Y003599D01*
X023072Y003634D01*
X023023Y003672D01*
X022975Y003714D01*
X022931Y003758D01*
X022889Y003806D01*
X022851Y003855D01*
X022816Y003907D01*
X022784Y003961D01*
X022755Y004017D01*
X022730Y004075D01*
X022709Y004134D01*
X022691Y004194D01*
X022678Y004256D01*
X022668Y004318D01*
X022662Y004380D01*
X022660Y004443D01*
X023160Y003093D02*
X024160Y003093D01*
X024160Y000993D01*
X024010Y000993D01*
X023310Y000993D01*
X023310Y000843D01*
X023410Y000843D02*
X023910Y000843D01*
X024010Y000843D02*
X024010Y000993D01*
X023860Y000743D02*
X023460Y000743D01*
X023560Y000643D02*
X023760Y000643D01*
X024010Y000843D02*
X024008Y000806D01*
X024002Y000770D01*
X023993Y000735D01*
X023980Y000701D01*
X023963Y000668D01*
X023943Y000637D01*
X023920Y000609D01*
X023894Y000583D01*
X023866Y000560D01*
X023835Y000540D01*
X023802Y000523D01*
X023768Y000510D01*
X023733Y000501D01*
X023697Y000495D01*
X023660Y000493D01*
X023623Y000495D01*
X023587Y000501D01*
X023552Y000510D01*
X023518Y000523D01*
X023485Y000540D01*
X023454Y000560D01*
X023426Y000583D01*
X023400Y000609D01*
X023377Y000637D01*
X023357Y000668D01*
X023340Y000701D01*
X023327Y000735D01*
X023318Y000770D01*
X023312Y000806D01*
X023310Y000843D01*
X023310Y000993D02*
X023160Y000993D01*
X023160Y003093D01*
X024660Y003443D02*
X024662Y003487D01*
X024668Y003531D01*
X024678Y003574D01*
X024691Y003616D01*
X024708Y003657D01*
X024729Y003696D01*
X024753Y003733D01*
X024780Y003768D01*
X024810Y003800D01*
X024843Y003830D01*
X024879Y003856D01*
X024916Y003880D01*
X024956Y003899D01*
X024997Y003916D01*
X025040Y003928D01*
X025083Y003937D01*
X025127Y003942D01*
X025171Y003943D01*
X025215Y003940D01*
X025259Y003933D01*
X025302Y003922D01*
X025344Y003908D01*
X025384Y003890D01*
X025423Y003868D01*
X025459Y003844D01*
X025493Y003816D01*
X025525Y003785D01*
X025554Y003751D01*
X025580Y003715D01*
X025602Y003677D01*
X025621Y003637D01*
X025636Y003595D01*
X025648Y003553D01*
X025656Y003509D01*
X025660Y003465D01*
X025660Y003421D01*
X025656Y003377D01*
X025648Y003333D01*
X025636Y003291D01*
X025621Y003249D01*
X025602Y003209D01*
X025580Y003171D01*
X025554Y003135D01*
X025525Y003101D01*
X025493Y003070D01*
X025459Y003042D01*
X025423Y003018D01*
X025384Y002996D01*
X025344Y002978D01*
X025302Y002964D01*
X025259Y002953D01*
X025215Y002946D01*
X025171Y002943D01*
X025127Y002944D01*
X025083Y002949D01*
X025040Y002958D01*
X024997Y002970D01*
X024956Y002987D01*
X024916Y003006D01*
X024879Y003030D01*
X024843Y003056D01*
X024810Y003086D01*
X024780Y003118D01*
X024753Y003153D01*
X024729Y003190D01*
X024708Y003229D01*
X024691Y003270D01*
X024678Y003312D01*
X024668Y003355D01*
X024662Y003399D01*
X024660Y003443D01*
X025660Y003093D02*
X026660Y003093D01*
X026660Y000993D01*
X026510Y000993D01*
X025810Y000993D01*
X025810Y000843D01*
X025910Y000843D02*
X026410Y000843D01*
X026510Y000843D02*
X026510Y000993D01*
X026360Y000743D02*
X025960Y000743D01*
X026060Y000643D02*
X026260Y000643D01*
X026510Y000843D02*
X026508Y000806D01*
X026502Y000770D01*
X026493Y000735D01*
X026480Y000701D01*
X026463Y000668D01*
X026443Y000637D01*
X026420Y000609D01*
X026394Y000583D01*
X026366Y000560D01*
X026335Y000540D01*
X026302Y000523D01*
X026268Y000510D01*
X026233Y000501D01*
X026197Y000495D01*
X026160Y000493D01*
X026123Y000495D01*
X026087Y000501D01*
X026052Y000510D01*
X026018Y000523D01*
X025985Y000540D01*
X025954Y000560D01*
X025926Y000583D01*
X025900Y000609D01*
X025877Y000637D01*
X025857Y000668D01*
X025840Y000701D01*
X025827Y000735D01*
X025818Y000770D01*
X025812Y000806D01*
X025810Y000843D01*
X025810Y000993D02*
X025660Y000993D01*
X025660Y003093D01*
X025160Y004443D02*
X025162Y004506D01*
X025168Y004568D01*
X025178Y004630D01*
X025191Y004692D01*
X025209Y004752D01*
X025230Y004811D01*
X025255Y004869D01*
X025284Y004925D01*
X025316Y004979D01*
X025351Y005031D01*
X025389Y005080D01*
X025431Y005128D01*
X025475Y005172D01*
X025523Y005214D01*
X025572Y005252D01*
X025624Y005287D01*
X025678Y005319D01*
X025734Y005348D01*
X025792Y005373D01*
X025851Y005394D01*
X025911Y005412D01*
X025973Y005425D01*
X026035Y005435D01*
X026097Y005441D01*
X026160Y005443D01*
X026223Y005441D01*
X026285Y005435D01*
X026347Y005425D01*
X026409Y005412D01*
X026469Y005394D01*
X026528Y005373D01*
X026586Y005348D01*
X026642Y005319D01*
X026696Y005287D01*
X026748Y005252D01*
X026797Y005214D01*
X026845Y005172D01*
X026889Y005128D01*
X026931Y005080D01*
X026969Y005031D01*
X027004Y004979D01*
X027036Y004925D01*
X027065Y004869D01*
X027090Y004811D01*
X027111Y004752D01*
X027129Y004692D01*
X027142Y004630D01*
X027152Y004568D01*
X027158Y004506D01*
X027160Y004443D01*
X027158Y004380D01*
X027152Y004318D01*
X027142Y004256D01*
X027129Y004194D01*
X027111Y004134D01*
X027090Y004075D01*
X027065Y004017D01*
X027036Y003961D01*
X027004Y003907D01*
X026969Y003855D01*
X026931Y003806D01*
X026889Y003758D01*
X026845Y003714D01*
X026797Y003672D01*
X026748Y003634D01*
X026696Y003599D01*
X026642Y003567D01*
X026586Y003538D01*
X026528Y003513D01*
X026469Y003492D01*
X026409Y003474D01*
X026347Y003461D01*
X026285Y003451D01*
X026223Y003445D01*
X026160Y003443D01*
X026097Y003445D01*
X026035Y003451D01*
X025973Y003461D01*
X025911Y003474D01*
X025851Y003492D01*
X025792Y003513D01*
X025734Y003538D01*
X025678Y003567D01*
X025624Y003599D01*
X025572Y003634D01*
X025523Y003672D01*
X025475Y003714D01*
X025431Y003758D01*
X025389Y003806D01*
X025351Y003855D01*
X025316Y003907D01*
X025284Y003961D01*
X025255Y004017D01*
X025230Y004075D01*
X025209Y004134D01*
X025191Y004194D01*
X025178Y004256D01*
X025168Y004318D01*
X025162Y004380D01*
X025160Y004443D01*
X026610Y004943D02*
X026710Y004943D01*
X026710Y005043D01*
X026710Y004943D02*
X026710Y004843D01*
X026710Y004943D02*
X026810Y004943D01*
D16*
X028285Y006768D02*
X028285Y006868D01*
X027410Y007143D02*
X027410Y007243D01*
X032485Y010193D02*
X032585Y010193D01*
X032860Y010818D02*
X032960Y010818D01*
X029160Y010893D02*
X029160Y010993D01*
X028160Y010993D02*
X028160Y010893D01*
X030910Y013018D02*
X030910Y013118D01*
X032660Y013643D02*
X032660Y013743D01*
X030910Y015518D02*
X030910Y015618D01*
X032660Y016393D02*
X032660Y016493D01*
X033285Y018393D02*
X033285Y018493D01*
X028085Y017693D02*
X027985Y017693D01*
X026160Y018393D02*
X026160Y018493D01*
X028160Y016493D02*
X028160Y016393D01*
X028160Y014118D02*
X028160Y014018D01*
X020460Y014568D02*
X020360Y014568D01*
X017160Y015393D02*
X017160Y015493D01*
X016410Y015493D02*
X016410Y015393D01*
X020360Y016943D02*
X020460Y016943D01*
X017160Y018268D02*
X017160Y018368D01*
X016410Y018368D02*
X016410Y018268D01*
X020360Y018943D02*
X020460Y018943D01*
X011835Y015943D02*
X011735Y015943D01*
X009835Y016818D02*
X009735Y016818D01*
X011235Y018943D02*
X011335Y018943D01*
X009835Y013943D02*
X009735Y013943D01*
X008085Y012818D02*
X007985Y012818D01*
X009735Y010818D02*
X009835Y010818D01*
X008085Y009943D02*
X007985Y009943D01*
X007985Y006818D02*
X008085Y006818D01*
X009735Y004693D02*
X009835Y004693D01*
X008085Y003693D02*
X007985Y003693D01*
X009735Y001693D02*
X009835Y001693D01*
X017735Y003693D02*
X017835Y003693D01*
X018735Y002818D02*
X018835Y002818D01*
X022160Y001993D02*
X022160Y001893D01*
X025160Y001893D02*
X025160Y001993D01*
X032110Y003193D02*
X032210Y003193D01*
X033610Y005693D02*
X033710Y005693D01*
X033710Y006443D02*
X033610Y006443D01*
X034610Y007943D02*
X034710Y007943D01*
X020460Y006943D02*
X020360Y006943D01*
X018960Y005443D02*
X018860Y005443D01*
X017460Y006193D02*
X017360Y006193D01*
X017610Y008193D02*
X017710Y008193D01*
X017160Y009393D02*
X017160Y009493D01*
X016410Y009493D02*
X016410Y009393D01*
X020360Y008943D02*
X020460Y008943D01*
X020460Y012443D02*
X020360Y012443D01*
X017160Y012368D02*
X017160Y012268D01*
X016410Y012268D02*
X016410Y012368D01*
D17*
X031685Y017693D02*
X031885Y017693D01*
X024760Y003443D02*
X024560Y003443D01*
M02*
