G75*
G70*
%OFA0B0*%
%FSLAX24Y24*%
%IPPOS*%
%LPD*%
%AMOC8*
5,1,8,0,0,1.08239X$1,22.5*
%
%ADD10C,0.0000*%
%ADD11C,0.0050*%
%ADD12C,0.0100*%
%ADD13C,0.0040*%
%ADD14C,0.0070*%
%ADD15C,0.0060*%
%ADD16C,0.0200*%
%ADD17C,0.0240*%
D10*
X000151Y000443D02*
X000151Y020129D01*
X039521Y020129D01*
X039521Y000443D01*
X000151Y000443D01*
X000741Y001625D02*
X000743Y001673D01*
X000749Y001721D01*
X000759Y001768D01*
X000772Y001814D01*
X000790Y001859D01*
X000810Y001903D01*
X000835Y001945D01*
X000863Y001984D01*
X000893Y002021D01*
X000927Y002055D01*
X000964Y002087D01*
X001002Y002116D01*
X001043Y002141D01*
X001086Y002163D01*
X001131Y002181D01*
X001177Y002195D01*
X001224Y002206D01*
X001272Y002213D01*
X001320Y002216D01*
X001368Y002215D01*
X001416Y002210D01*
X001464Y002201D01*
X001510Y002189D01*
X001555Y002172D01*
X001599Y002152D01*
X001641Y002129D01*
X001681Y002102D01*
X001719Y002072D01*
X001754Y002039D01*
X001786Y002003D01*
X001816Y001965D01*
X001842Y001924D01*
X001864Y001881D01*
X001884Y001837D01*
X001899Y001792D01*
X001911Y001745D01*
X001919Y001697D01*
X001923Y001649D01*
X001923Y001601D01*
X001919Y001553D01*
X001911Y001505D01*
X001899Y001458D01*
X001884Y001413D01*
X001864Y001369D01*
X001842Y001326D01*
X001816Y001285D01*
X001786Y001247D01*
X001754Y001211D01*
X001719Y001178D01*
X001681Y001148D01*
X001641Y001121D01*
X001599Y001098D01*
X001555Y001078D01*
X001510Y001061D01*
X001464Y001049D01*
X001416Y001040D01*
X001368Y001035D01*
X001320Y001034D01*
X001272Y001037D01*
X001224Y001044D01*
X001177Y001055D01*
X001131Y001069D01*
X001086Y001087D01*
X001043Y001109D01*
X001002Y001134D01*
X000964Y001163D01*
X000927Y001195D01*
X000893Y001229D01*
X000863Y001266D01*
X000835Y001305D01*
X000810Y001347D01*
X000790Y001391D01*
X000772Y001436D01*
X000759Y001482D01*
X000749Y001529D01*
X000743Y001577D01*
X000741Y001625D01*
X004474Y011756D02*
X004476Y011782D01*
X004482Y011808D01*
X004492Y011833D01*
X004505Y011856D01*
X004521Y011876D01*
X004541Y011894D01*
X004563Y011909D01*
X004586Y011921D01*
X004612Y011929D01*
X004638Y011933D01*
X004664Y011933D01*
X004690Y011929D01*
X004716Y011921D01*
X004740Y011909D01*
X004761Y011894D01*
X004781Y011876D01*
X004797Y011856D01*
X004810Y011833D01*
X004820Y011808D01*
X004826Y011782D01*
X004828Y011756D01*
X004826Y011730D01*
X004820Y011704D01*
X004810Y011679D01*
X004797Y011656D01*
X004781Y011636D01*
X004761Y011618D01*
X004739Y011603D01*
X004716Y011591D01*
X004690Y011583D01*
X004664Y011579D01*
X004638Y011579D01*
X004612Y011583D01*
X004586Y011591D01*
X004562Y011603D01*
X004541Y011618D01*
X004521Y011636D01*
X004505Y011656D01*
X004492Y011679D01*
X004482Y011704D01*
X004476Y011730D01*
X004474Y011756D01*
X002274Y012052D02*
X002276Y012095D01*
X002282Y012137D01*
X002292Y012179D01*
X002305Y012220D01*
X002322Y012260D01*
X002343Y012297D01*
X002367Y012333D01*
X002394Y012366D01*
X002424Y012397D01*
X002457Y012425D01*
X002492Y012450D01*
X002529Y012471D01*
X002568Y012489D01*
X002608Y012503D01*
X002650Y012514D01*
X002692Y012521D01*
X002735Y012524D01*
X002778Y012523D01*
X002821Y012518D01*
X002863Y012509D01*
X002904Y012497D01*
X002944Y012481D01*
X002982Y012461D01*
X003018Y012438D01*
X003052Y012411D01*
X003084Y012382D01*
X003112Y012350D01*
X003138Y012315D01*
X003160Y012279D01*
X003179Y012240D01*
X003194Y012200D01*
X003206Y012159D01*
X003214Y012116D01*
X003218Y012073D01*
X003218Y012031D01*
X003214Y011988D01*
X003206Y011945D01*
X003194Y011904D01*
X003179Y011864D01*
X003160Y011825D01*
X003138Y011789D01*
X003112Y011754D01*
X003084Y011722D01*
X003052Y011693D01*
X003018Y011666D01*
X002982Y011643D01*
X002944Y011623D01*
X002904Y011607D01*
X002863Y011595D01*
X002821Y011586D01*
X002778Y011581D01*
X002735Y011580D01*
X002692Y011583D01*
X002650Y011590D01*
X002608Y011601D01*
X002568Y011615D01*
X002529Y011633D01*
X002492Y011654D01*
X002457Y011679D01*
X002424Y011707D01*
X002394Y011738D01*
X002367Y011771D01*
X002343Y011807D01*
X002322Y011844D01*
X002305Y011884D01*
X002292Y011925D01*
X002282Y011967D01*
X002276Y012009D01*
X002274Y012052D01*
X002274Y017441D02*
X002276Y017484D01*
X002282Y017526D01*
X002292Y017568D01*
X002305Y017609D01*
X002322Y017649D01*
X002343Y017686D01*
X002367Y017722D01*
X002394Y017755D01*
X002424Y017786D01*
X002457Y017814D01*
X002492Y017839D01*
X002529Y017860D01*
X002568Y017878D01*
X002608Y017892D01*
X002650Y017903D01*
X002692Y017910D01*
X002735Y017913D01*
X002778Y017912D01*
X002821Y017907D01*
X002863Y017898D01*
X002904Y017886D01*
X002944Y017870D01*
X002982Y017850D01*
X003018Y017827D01*
X003052Y017800D01*
X003084Y017771D01*
X003112Y017739D01*
X003138Y017704D01*
X003160Y017668D01*
X003179Y017629D01*
X003194Y017589D01*
X003206Y017548D01*
X003214Y017505D01*
X003218Y017462D01*
X003218Y017420D01*
X003214Y017377D01*
X003206Y017334D01*
X003194Y017293D01*
X003179Y017253D01*
X003160Y017214D01*
X003138Y017178D01*
X003112Y017143D01*
X003084Y017111D01*
X003052Y017082D01*
X003018Y017055D01*
X002982Y017032D01*
X002944Y017012D01*
X002904Y016996D01*
X002863Y016984D01*
X002821Y016975D01*
X002778Y016970D01*
X002735Y016969D01*
X002692Y016972D01*
X002650Y016979D01*
X002608Y016990D01*
X002568Y017004D01*
X002529Y017022D01*
X002492Y017043D01*
X002457Y017068D01*
X002424Y017096D01*
X002394Y017127D01*
X002367Y017160D01*
X002343Y017196D01*
X002322Y017233D01*
X002305Y017273D01*
X002292Y017314D01*
X002282Y017356D01*
X002276Y017398D01*
X002274Y017441D01*
X004474Y017756D02*
X004476Y017782D01*
X004482Y017808D01*
X004492Y017833D01*
X004505Y017856D01*
X004521Y017876D01*
X004541Y017894D01*
X004563Y017909D01*
X004586Y017921D01*
X004612Y017929D01*
X004638Y017933D01*
X004664Y017933D01*
X004690Y017929D01*
X004716Y017921D01*
X004740Y017909D01*
X004761Y017894D01*
X004781Y017876D01*
X004797Y017856D01*
X004810Y017833D01*
X004820Y017808D01*
X004826Y017782D01*
X004828Y017756D01*
X004826Y017730D01*
X004820Y017704D01*
X004810Y017679D01*
X004797Y017656D01*
X004781Y017636D01*
X004761Y017618D01*
X004739Y017603D01*
X004716Y017591D01*
X004690Y017583D01*
X004664Y017579D01*
X004638Y017579D01*
X004612Y017583D01*
X004586Y017591D01*
X004562Y017603D01*
X004541Y017618D01*
X004521Y017636D01*
X004505Y017656D01*
X004492Y017679D01*
X004482Y017704D01*
X004476Y017730D01*
X004474Y017756D01*
X000741Y018947D02*
X000743Y018995D01*
X000749Y019043D01*
X000759Y019090D01*
X000772Y019136D01*
X000790Y019181D01*
X000810Y019225D01*
X000835Y019267D01*
X000863Y019306D01*
X000893Y019343D01*
X000927Y019377D01*
X000964Y019409D01*
X001002Y019438D01*
X001043Y019463D01*
X001086Y019485D01*
X001131Y019503D01*
X001177Y019517D01*
X001224Y019528D01*
X001272Y019535D01*
X001320Y019538D01*
X001368Y019537D01*
X001416Y019532D01*
X001464Y019523D01*
X001510Y019511D01*
X001555Y019494D01*
X001599Y019474D01*
X001641Y019451D01*
X001681Y019424D01*
X001719Y019394D01*
X001754Y019361D01*
X001786Y019325D01*
X001816Y019287D01*
X001842Y019246D01*
X001864Y019203D01*
X001884Y019159D01*
X001899Y019114D01*
X001911Y019067D01*
X001919Y019019D01*
X001923Y018971D01*
X001923Y018923D01*
X001919Y018875D01*
X001911Y018827D01*
X001899Y018780D01*
X001884Y018735D01*
X001864Y018691D01*
X001842Y018648D01*
X001816Y018607D01*
X001786Y018569D01*
X001754Y018533D01*
X001719Y018500D01*
X001681Y018470D01*
X001641Y018443D01*
X001599Y018420D01*
X001555Y018400D01*
X001510Y018383D01*
X001464Y018371D01*
X001416Y018362D01*
X001368Y018357D01*
X001320Y018356D01*
X001272Y018359D01*
X001224Y018366D01*
X001177Y018377D01*
X001131Y018391D01*
X001086Y018409D01*
X001043Y018431D01*
X001002Y018456D01*
X000964Y018485D01*
X000927Y018517D01*
X000893Y018551D01*
X000863Y018588D01*
X000835Y018627D01*
X000810Y018669D01*
X000790Y018713D01*
X000772Y018758D01*
X000759Y018804D01*
X000749Y018851D01*
X000743Y018899D01*
X000741Y018947D01*
X037749Y018947D02*
X037751Y018995D01*
X037757Y019043D01*
X037767Y019090D01*
X037780Y019136D01*
X037798Y019181D01*
X037818Y019225D01*
X037843Y019267D01*
X037871Y019306D01*
X037901Y019343D01*
X037935Y019377D01*
X037972Y019409D01*
X038010Y019438D01*
X038051Y019463D01*
X038094Y019485D01*
X038139Y019503D01*
X038185Y019517D01*
X038232Y019528D01*
X038280Y019535D01*
X038328Y019538D01*
X038376Y019537D01*
X038424Y019532D01*
X038472Y019523D01*
X038518Y019511D01*
X038563Y019494D01*
X038607Y019474D01*
X038649Y019451D01*
X038689Y019424D01*
X038727Y019394D01*
X038762Y019361D01*
X038794Y019325D01*
X038824Y019287D01*
X038850Y019246D01*
X038872Y019203D01*
X038892Y019159D01*
X038907Y019114D01*
X038919Y019067D01*
X038927Y019019D01*
X038931Y018971D01*
X038931Y018923D01*
X038927Y018875D01*
X038919Y018827D01*
X038907Y018780D01*
X038892Y018735D01*
X038872Y018691D01*
X038850Y018648D01*
X038824Y018607D01*
X038794Y018569D01*
X038762Y018533D01*
X038727Y018500D01*
X038689Y018470D01*
X038649Y018443D01*
X038607Y018420D01*
X038563Y018400D01*
X038518Y018383D01*
X038472Y018371D01*
X038424Y018362D01*
X038376Y018357D01*
X038328Y018356D01*
X038280Y018359D01*
X038232Y018366D01*
X038185Y018377D01*
X038139Y018391D01*
X038094Y018409D01*
X038051Y018431D01*
X038010Y018456D01*
X037972Y018485D01*
X037935Y018517D01*
X037901Y018551D01*
X037871Y018588D01*
X037843Y018627D01*
X037818Y018669D01*
X037798Y018713D01*
X037780Y018758D01*
X037767Y018804D01*
X037757Y018851D01*
X037751Y018899D01*
X037749Y018947D01*
X037749Y001625D02*
X037751Y001673D01*
X037757Y001721D01*
X037767Y001768D01*
X037780Y001814D01*
X037798Y001859D01*
X037818Y001903D01*
X037843Y001945D01*
X037871Y001984D01*
X037901Y002021D01*
X037935Y002055D01*
X037972Y002087D01*
X038010Y002116D01*
X038051Y002141D01*
X038094Y002163D01*
X038139Y002181D01*
X038185Y002195D01*
X038232Y002206D01*
X038280Y002213D01*
X038328Y002216D01*
X038376Y002215D01*
X038424Y002210D01*
X038472Y002201D01*
X038518Y002189D01*
X038563Y002172D01*
X038607Y002152D01*
X038649Y002129D01*
X038689Y002102D01*
X038727Y002072D01*
X038762Y002039D01*
X038794Y002003D01*
X038824Y001965D01*
X038850Y001924D01*
X038872Y001881D01*
X038892Y001837D01*
X038907Y001792D01*
X038919Y001745D01*
X038927Y001697D01*
X038931Y001649D01*
X038931Y001601D01*
X038927Y001553D01*
X038919Y001505D01*
X038907Y001458D01*
X038892Y001413D01*
X038872Y001369D01*
X038850Y001326D01*
X038824Y001285D01*
X038794Y001247D01*
X038762Y001211D01*
X038727Y001178D01*
X038689Y001148D01*
X038649Y001121D01*
X038607Y001098D01*
X038563Y001078D01*
X038518Y001061D01*
X038472Y001049D01*
X038424Y001040D01*
X038376Y001035D01*
X038328Y001034D01*
X038280Y001037D01*
X038232Y001044D01*
X038185Y001055D01*
X038139Y001069D01*
X038094Y001087D01*
X038051Y001109D01*
X038010Y001134D01*
X037972Y001163D01*
X037935Y001195D01*
X037901Y001229D01*
X037871Y001266D01*
X037843Y001305D01*
X037818Y001347D01*
X037798Y001391D01*
X037780Y001436D01*
X037767Y001482D01*
X037757Y001529D01*
X037751Y001577D01*
X037749Y001625D01*
D11*
X034243Y001906D02*
X034341Y002693D01*
X034243Y003481D01*
X023810Y003481D01*
X023711Y002693D01*
X023810Y001906D01*
X034243Y001906D01*
X032406Y002758D02*
X032406Y003209D01*
X032181Y002984D01*
X032481Y002984D01*
X032021Y003059D02*
X032021Y003134D01*
X031946Y003209D01*
X031795Y003209D01*
X031720Y003134D01*
X031560Y003134D02*
X031560Y002984D01*
X031485Y002909D01*
X031260Y002909D01*
X031410Y002909D02*
X031560Y002758D01*
X031720Y002758D02*
X032021Y003059D01*
X032021Y002758D02*
X031720Y002758D01*
X031260Y002758D02*
X031260Y003209D01*
X031485Y003209D01*
X031560Y003134D01*
X030432Y002554D02*
X030432Y002479D01*
X030357Y002404D01*
X030207Y002404D01*
X030132Y002479D01*
X030132Y002554D01*
X030207Y002629D01*
X030357Y002629D01*
X030432Y002554D01*
X030357Y002404D02*
X030432Y002329D01*
X030432Y002254D01*
X030357Y002178D01*
X030207Y002178D01*
X030132Y002254D01*
X030132Y002329D01*
X030207Y002404D01*
X029972Y002479D02*
X029897Y002404D01*
X029972Y002329D01*
X029972Y002254D01*
X029897Y002178D01*
X029747Y002178D01*
X029672Y002254D01*
X029511Y002178D02*
X029361Y002329D01*
X029436Y002329D02*
X029211Y002329D01*
X029211Y002178D02*
X029211Y002629D01*
X029436Y002629D01*
X029511Y002554D01*
X029511Y002404D01*
X029436Y002329D01*
X029672Y002554D02*
X029747Y002629D01*
X029897Y002629D01*
X029972Y002554D01*
X029972Y002479D01*
X029897Y002404D02*
X029822Y002404D01*
X034243Y004906D02*
X034341Y005693D01*
X034243Y006481D01*
X023810Y006481D01*
X023711Y005693D01*
X023810Y004906D01*
X034243Y004906D01*
X032481Y005959D02*
X032406Y005883D01*
X032256Y005883D01*
X032181Y005959D01*
X032181Y006109D02*
X032331Y006184D01*
X032406Y006184D01*
X032481Y006109D01*
X032481Y005959D01*
X032181Y006109D02*
X032181Y006334D01*
X032481Y006334D01*
X032021Y006259D02*
X032021Y006184D01*
X031720Y005883D01*
X032021Y005883D01*
X031560Y005883D02*
X031410Y006034D01*
X031485Y006034D02*
X031260Y006034D01*
X031260Y005883D02*
X031260Y006334D01*
X031485Y006334D01*
X031560Y006259D01*
X031560Y006109D01*
X031485Y006034D01*
X031720Y006259D02*
X031795Y006334D01*
X031946Y006334D01*
X032021Y006259D01*
X030432Y005554D02*
X030132Y005254D01*
X030207Y005178D01*
X030357Y005178D01*
X030432Y005254D01*
X030432Y005554D01*
X030357Y005629D01*
X030207Y005629D01*
X030132Y005554D01*
X030132Y005254D01*
X029972Y005404D02*
X029672Y005404D01*
X029897Y005629D01*
X029897Y005178D01*
X029511Y005178D02*
X029361Y005329D01*
X029436Y005329D02*
X029211Y005329D01*
X029211Y005178D02*
X029211Y005629D01*
X029436Y005629D01*
X029511Y005554D01*
X029511Y005404D01*
X029436Y005329D01*
X023987Y005497D02*
X023987Y005890D01*
X023751Y005890D01*
X023106Y005709D02*
X022956Y005634D01*
X022806Y005484D01*
X023031Y005484D01*
X023106Y005409D01*
X023106Y005334D01*
X023031Y005258D01*
X022881Y005258D01*
X022806Y005334D01*
X022806Y005484D01*
X022646Y005258D02*
X022345Y005258D01*
X022496Y005258D02*
X022496Y005709D01*
X022345Y005559D01*
X022185Y005634D02*
X022185Y005484D01*
X022110Y005409D01*
X021885Y005409D01*
X022035Y005409D02*
X022185Y005258D01*
X021885Y005258D02*
X021885Y005709D01*
X022110Y005709D01*
X022185Y005634D01*
X021307Y006004D02*
X021307Y006154D01*
X021232Y006229D01*
X021157Y006229D01*
X021007Y006154D01*
X021007Y006379D01*
X021307Y006379D01*
X021307Y006004D02*
X021232Y005928D01*
X021082Y005928D01*
X021007Y006004D01*
X020847Y005928D02*
X020547Y005928D01*
X020697Y005928D02*
X020697Y006379D01*
X020547Y006229D01*
X020386Y006304D02*
X020386Y006154D01*
X020311Y006079D01*
X020086Y006079D01*
X020236Y006079D02*
X020386Y005928D01*
X020086Y005928D02*
X020086Y006379D01*
X020311Y006379D01*
X020386Y006304D01*
X021635Y007258D02*
X021635Y007709D01*
X021860Y007709D01*
X021935Y007634D01*
X021935Y007484D01*
X021860Y007409D01*
X021635Y007409D01*
X021785Y007409D02*
X021935Y007258D01*
X022095Y007258D02*
X022396Y007559D01*
X022396Y007634D01*
X022321Y007709D01*
X022170Y007709D01*
X022095Y007634D01*
X022556Y007484D02*
X022556Y007334D01*
X022631Y007258D01*
X022781Y007258D01*
X022856Y007334D01*
X022856Y007409D01*
X022781Y007484D01*
X022556Y007484D01*
X022706Y007634D01*
X022856Y007709D01*
X023810Y008156D02*
X023711Y008943D01*
X023810Y009731D01*
X034243Y009731D01*
X034341Y008943D01*
X034243Y008156D01*
X023810Y008156D01*
X023751Y008747D02*
X023987Y008747D01*
X023987Y009140D01*
X023751Y009140D01*
X023886Y009388D02*
X023886Y009613D01*
X023961Y009688D01*
X024111Y009688D01*
X024186Y009613D01*
X024186Y009388D01*
X024186Y009538D02*
X024336Y009688D01*
X024336Y009848D02*
X024036Y010148D01*
X023961Y010148D01*
X023886Y010073D01*
X023886Y009923D01*
X023961Y009848D01*
X023586Y009848D02*
X023586Y010148D01*
X023586Y009998D02*
X023136Y009998D01*
X023286Y009848D01*
X023361Y009688D02*
X023436Y009613D01*
X023436Y009388D01*
X023436Y009538D02*
X023586Y009688D01*
X023361Y009688D02*
X023211Y009688D01*
X023136Y009613D01*
X023136Y009388D01*
X023586Y009388D01*
X023886Y009388D02*
X024336Y009388D01*
X024336Y009848D02*
X024336Y010148D01*
X023810Y011031D02*
X023711Y011818D01*
X023810Y012606D01*
X034243Y012606D01*
X034341Y011818D01*
X034243Y011031D01*
X023810Y011031D01*
X023751Y011622D02*
X023987Y011622D01*
X023987Y012015D01*
X023751Y012015D01*
X023886Y012263D02*
X023886Y012488D01*
X023961Y012563D01*
X024111Y012563D01*
X024186Y012488D01*
X024186Y012263D01*
X024186Y012413D02*
X024336Y012563D01*
X024111Y012723D02*
X024111Y013023D01*
X023886Y012948D02*
X024111Y012723D01*
X024336Y012948D02*
X023886Y012948D01*
X023586Y012948D02*
X023586Y012798D01*
X023511Y012723D01*
X023586Y012563D02*
X023436Y012413D01*
X023436Y012488D02*
X023436Y012263D01*
X023586Y012263D02*
X023136Y012263D01*
X023136Y012488D01*
X023211Y012563D01*
X023361Y012563D01*
X023436Y012488D01*
X023211Y012723D02*
X023136Y012798D01*
X023136Y012948D01*
X023211Y013023D01*
X023286Y013023D01*
X023361Y012948D01*
X023436Y013023D01*
X023511Y013023D01*
X023586Y012948D01*
X023361Y012948D02*
X023361Y012873D01*
X023886Y012263D02*
X024336Y012263D01*
X023810Y014156D02*
X023711Y014943D01*
X023810Y015731D01*
X034243Y015731D01*
X034341Y014943D01*
X034243Y014156D01*
X023810Y014156D01*
X023751Y014747D02*
X023987Y014747D01*
X023987Y015140D01*
X023751Y015140D01*
X023886Y015388D02*
X023886Y015613D01*
X023961Y015688D01*
X024111Y015688D01*
X024186Y015613D01*
X024186Y015388D01*
X024186Y015538D02*
X024336Y015688D01*
X024261Y015848D02*
X024336Y015923D01*
X024336Y016073D01*
X024261Y016148D01*
X024186Y016148D01*
X024111Y016073D01*
X024111Y015848D01*
X024261Y015848D01*
X024111Y015848D02*
X023961Y015998D01*
X023886Y016148D01*
X023586Y016073D02*
X023586Y015923D01*
X023511Y015848D01*
X023361Y015848D02*
X023286Y015998D01*
X023286Y016073D01*
X023361Y016148D01*
X023511Y016148D01*
X023586Y016073D01*
X023361Y015848D02*
X023136Y015848D01*
X023136Y016148D01*
X023211Y015688D02*
X023361Y015688D01*
X023436Y015613D01*
X023436Y015388D01*
X023436Y015538D02*
X023586Y015688D01*
X023586Y015388D02*
X023136Y015388D01*
X023136Y015613D01*
X023211Y015688D01*
X023886Y015388D02*
X024336Y015388D01*
X023810Y017156D02*
X023711Y017943D01*
X023810Y018731D01*
X034243Y018731D01*
X034341Y017943D01*
X034243Y017156D01*
X023810Y017156D01*
X023751Y017747D02*
X023987Y017747D01*
X023987Y018140D01*
X023751Y018140D01*
X023886Y018263D02*
X023886Y018488D01*
X023961Y018563D01*
X024111Y018563D01*
X024186Y018488D01*
X024186Y018263D01*
X024186Y018413D02*
X024336Y018563D01*
X024261Y018723D02*
X024186Y018723D01*
X024111Y018798D01*
X024111Y018948D01*
X024186Y019023D01*
X024261Y019023D01*
X024336Y018948D01*
X024336Y018798D01*
X024261Y018723D01*
X024111Y018798D02*
X024036Y018723D01*
X023961Y018723D01*
X023886Y018798D01*
X023886Y018948D01*
X023961Y019023D01*
X024036Y019023D01*
X024111Y018948D01*
X023586Y018723D02*
X023511Y018723D01*
X023211Y019023D01*
X023136Y019023D01*
X023136Y018723D01*
X023211Y018563D02*
X023361Y018563D01*
X023436Y018488D01*
X023436Y018263D01*
X023436Y018413D02*
X023586Y018563D01*
X023211Y018563D02*
X023136Y018488D01*
X023136Y018263D01*
X023586Y018263D01*
X023886Y018263D02*
X024336Y018263D01*
X028010Y018159D02*
X028235Y018159D01*
X028310Y018234D01*
X028310Y018384D01*
X028235Y018459D01*
X028010Y018459D01*
X028010Y018008D01*
X028160Y018159D02*
X028310Y018008D01*
X028470Y018008D02*
X028771Y018309D01*
X028771Y018384D01*
X028696Y018459D01*
X028545Y018459D01*
X028470Y018384D01*
X028931Y018309D02*
X029081Y018459D01*
X029081Y018008D01*
X028931Y018008D02*
X029231Y018008D01*
X029211Y017754D02*
X029436Y017754D01*
X029511Y017679D01*
X029511Y017529D01*
X029436Y017454D01*
X029211Y017454D01*
X029361Y017454D02*
X029511Y017303D01*
X029672Y017379D02*
X029747Y017303D01*
X029897Y017303D01*
X029972Y017379D01*
X029972Y017454D01*
X029897Y017529D01*
X029822Y017529D01*
X029897Y017529D02*
X029972Y017604D01*
X029972Y017679D01*
X029897Y017754D01*
X029747Y017754D01*
X029672Y017679D01*
X030132Y017679D02*
X030207Y017754D01*
X030357Y017754D01*
X030432Y017679D01*
X030432Y017604D01*
X030132Y017303D01*
X030432Y017303D01*
X029211Y017303D02*
X029211Y017754D01*
X028771Y018008D02*
X028470Y018008D01*
X028506Y015459D02*
X028656Y015459D01*
X028731Y015384D01*
X028431Y015084D01*
X028506Y015008D01*
X028656Y015008D01*
X028731Y015084D01*
X028731Y015384D01*
X028506Y015459D02*
X028431Y015384D01*
X028431Y015084D01*
X028271Y015008D02*
X027970Y015008D01*
X028271Y015309D01*
X028271Y015384D01*
X028196Y015459D01*
X028045Y015459D01*
X027970Y015384D01*
X027810Y015384D02*
X027810Y015234D01*
X027735Y015159D01*
X027510Y015159D01*
X027660Y015159D02*
X027810Y015008D01*
X027510Y015008D02*
X027510Y015459D01*
X027735Y015459D01*
X027810Y015384D01*
X029211Y014879D02*
X029436Y014879D01*
X029511Y014804D01*
X029511Y014654D01*
X029436Y014579D01*
X029211Y014579D01*
X029361Y014579D02*
X029511Y014428D01*
X029672Y014504D02*
X029747Y014428D01*
X029897Y014428D01*
X029972Y014504D01*
X029972Y014579D01*
X029897Y014654D01*
X029822Y014654D01*
X029897Y014654D02*
X029972Y014729D01*
X029972Y014804D01*
X029897Y014879D01*
X029747Y014879D01*
X029672Y014804D01*
X030132Y014804D02*
X030207Y014879D01*
X030357Y014879D01*
X030432Y014804D01*
X030132Y014504D01*
X030207Y014428D01*
X030357Y014428D01*
X030432Y014504D01*
X030432Y014804D01*
X030132Y014804D02*
X030132Y014504D01*
X029211Y014428D02*
X029211Y014879D01*
X031260Y012334D02*
X031485Y012334D01*
X031560Y012259D01*
X031560Y012109D01*
X031485Y012034D01*
X031260Y012034D01*
X031410Y012034D02*
X031560Y011883D01*
X031720Y011883D02*
X032021Y011883D01*
X031871Y011883D02*
X031871Y012334D01*
X031720Y012184D01*
X032181Y012184D02*
X032181Y012259D01*
X032256Y012334D01*
X032406Y012334D01*
X032481Y012259D01*
X032481Y012184D01*
X032406Y012109D01*
X032256Y012109D01*
X032181Y012184D01*
X032256Y012109D02*
X032181Y012034D01*
X032181Y011959D01*
X032256Y011883D01*
X032406Y011883D01*
X032481Y011959D01*
X032481Y012034D01*
X032406Y012109D01*
X031260Y012334D02*
X031260Y011883D01*
X030432Y011679D02*
X030432Y011604D01*
X030357Y011529D01*
X030207Y011529D01*
X030132Y011604D01*
X030132Y011679D01*
X030207Y011754D01*
X030357Y011754D01*
X030432Y011679D01*
X030357Y011529D02*
X030432Y011454D01*
X030432Y011379D01*
X030357Y011303D01*
X030207Y011303D01*
X030132Y011379D01*
X030132Y011454D01*
X030207Y011529D01*
X029972Y011604D02*
X029972Y011679D01*
X029897Y011754D01*
X029747Y011754D01*
X029672Y011679D01*
X029511Y011679D02*
X029511Y011529D01*
X029436Y011454D01*
X029211Y011454D01*
X029361Y011454D02*
X029511Y011303D01*
X029672Y011303D02*
X029972Y011604D01*
X029972Y011303D02*
X029672Y011303D01*
X029211Y011303D02*
X029211Y011754D01*
X029436Y011754D01*
X029511Y011679D01*
X031260Y009459D02*
X031485Y009459D01*
X031560Y009384D01*
X031560Y009234D01*
X031485Y009159D01*
X031260Y009159D01*
X031410Y009159D02*
X031560Y009008D01*
X031720Y009008D02*
X032021Y009008D01*
X031871Y009008D02*
X031871Y009459D01*
X031720Y009309D01*
X032181Y009309D02*
X032181Y009384D01*
X032256Y009459D01*
X032406Y009459D01*
X032481Y009384D01*
X032481Y009084D01*
X032406Y009008D01*
X032256Y009008D01*
X032181Y009084D01*
X032256Y009234D02*
X032181Y009309D01*
X032256Y009234D02*
X032481Y009234D01*
X031260Y009008D02*
X031260Y009459D01*
X023987Y005497D02*
X023751Y005497D01*
X022396Y007258D02*
X022095Y007258D01*
X019807Y007504D02*
X019732Y007428D01*
X019582Y007428D01*
X019507Y007504D01*
X019347Y007504D02*
X019272Y007428D01*
X019122Y007428D01*
X019047Y007504D01*
X018886Y007428D02*
X018736Y007579D01*
X018811Y007579D02*
X018586Y007579D01*
X018586Y007428D02*
X018586Y007879D01*
X018811Y007879D01*
X018886Y007804D01*
X018886Y007654D01*
X018811Y007579D01*
X019047Y007804D02*
X019122Y007879D01*
X019272Y007879D01*
X019347Y007804D01*
X019347Y007729D01*
X019272Y007654D01*
X019347Y007579D01*
X019347Y007504D01*
X019272Y007654D02*
X019197Y007654D01*
X019507Y007729D02*
X019582Y007654D01*
X019807Y007654D01*
X019807Y007504D02*
X019807Y007804D01*
X019732Y007879D01*
X019582Y007879D01*
X019507Y007804D01*
X019507Y007729D01*
X019507Y009428D02*
X019807Y009428D01*
X019657Y009428D02*
X019657Y009879D01*
X019507Y009729D01*
X019347Y009654D02*
X019047Y009654D01*
X019272Y009879D01*
X019272Y009428D01*
X018886Y009428D02*
X018736Y009579D01*
X018811Y009579D02*
X018586Y009579D01*
X018586Y009428D02*
X018586Y009879D01*
X018811Y009879D01*
X018886Y009804D01*
X018886Y009654D01*
X018811Y009579D01*
X017976Y010273D02*
X017901Y010198D01*
X017601Y010198D01*
X017526Y010273D01*
X017526Y010423D01*
X017601Y010498D01*
X017601Y010658D02*
X017526Y010733D01*
X017526Y010883D01*
X017601Y010958D01*
X017676Y010958D01*
X017976Y010658D01*
X017976Y010958D01*
X017901Y010498D02*
X017976Y010423D01*
X017976Y010273D01*
X014151Y009943D02*
X014151Y011943D01*
X014149Y011987D01*
X014143Y012030D01*
X014134Y012072D01*
X014121Y012114D01*
X014104Y012154D01*
X014084Y012193D01*
X014061Y012230D01*
X014034Y012264D01*
X014005Y012297D01*
X013972Y012326D01*
X013938Y012353D01*
X013901Y012376D01*
X013862Y012396D01*
X013822Y012413D01*
X013780Y012426D01*
X013738Y012435D01*
X013695Y012441D01*
X013651Y012443D01*
X013607Y012441D01*
X013564Y012435D01*
X013522Y012426D01*
X013480Y012413D01*
X013440Y012396D01*
X013401Y012376D01*
X013364Y012353D01*
X013330Y012326D01*
X013297Y012297D01*
X013268Y012264D01*
X013241Y012230D01*
X013218Y012193D01*
X013198Y012154D01*
X013181Y012114D01*
X013168Y012072D01*
X013159Y012030D01*
X013153Y011987D01*
X013151Y011943D01*
X013151Y009943D01*
X013153Y009899D01*
X013159Y009856D01*
X013168Y009814D01*
X013181Y009772D01*
X013198Y009732D01*
X013218Y009693D01*
X013241Y009656D01*
X013268Y009622D01*
X013297Y009589D01*
X013330Y009560D01*
X013364Y009533D01*
X013401Y009510D01*
X013440Y009490D01*
X013480Y009473D01*
X013522Y009460D01*
X013564Y009451D01*
X013607Y009445D01*
X013651Y009443D01*
X013695Y009445D01*
X013738Y009451D01*
X013780Y009460D01*
X013822Y009473D01*
X013862Y009490D01*
X013901Y009510D01*
X013938Y009533D01*
X013972Y009560D01*
X014005Y009589D01*
X014034Y009622D01*
X014061Y009656D01*
X014084Y009693D01*
X014104Y009732D01*
X014121Y009772D01*
X014134Y009814D01*
X014143Y009856D01*
X014149Y009899D01*
X014151Y009943D01*
X012586Y010427D02*
X012136Y010427D01*
X012136Y010652D01*
X012211Y010728D01*
X012361Y010728D01*
X012436Y010652D01*
X012436Y010427D01*
X012436Y010577D02*
X012586Y010728D01*
X012586Y010888D02*
X012586Y011188D01*
X012586Y011038D02*
X012136Y011038D01*
X012286Y010888D01*
X011586Y010888D02*
X011136Y010888D01*
X011136Y011113D01*
X011211Y011188D01*
X011361Y011188D01*
X011436Y011113D01*
X011436Y010888D01*
X011436Y011038D02*
X011586Y011188D01*
X011511Y011348D02*
X011586Y011423D01*
X011586Y011573D01*
X011511Y011648D01*
X011211Y011648D01*
X011136Y011573D01*
X011136Y011423D01*
X011211Y011348D01*
X011286Y011348D01*
X011361Y011423D01*
X011361Y011648D01*
X012136Y011573D02*
X012136Y011423D01*
X012211Y011348D01*
X012511Y011348D01*
X012211Y011648D01*
X012511Y011648D01*
X012586Y011573D01*
X012586Y011423D01*
X012511Y011348D01*
X012211Y011648D02*
X012136Y011573D01*
X011166Y013253D02*
X010716Y013253D01*
X010716Y013479D01*
X010791Y013554D01*
X010941Y013554D01*
X011016Y013479D01*
X011016Y013253D01*
X011016Y013404D02*
X011166Y013554D01*
X011226Y013443D02*
X011226Y013669D01*
X011301Y013744D01*
X011601Y013744D01*
X011676Y013669D01*
X011676Y013443D01*
X011226Y013443D01*
X010941Y013714D02*
X010941Y014014D01*
X011091Y014174D02*
X011166Y014174D01*
X011226Y014204D02*
X011301Y014204D01*
X011601Y013904D01*
X011676Y013904D01*
X011226Y013904D02*
X011226Y014204D01*
X011091Y014174D02*
X010791Y014474D01*
X010716Y014474D01*
X010716Y014174D01*
X010716Y013939D02*
X010941Y013714D01*
X011166Y013939D02*
X010716Y013939D01*
X008926Y013129D02*
X008926Y012979D01*
X008851Y012904D01*
X008701Y012904D02*
X008626Y013054D01*
X008626Y013129D01*
X008701Y013204D01*
X008851Y013204D01*
X008926Y013129D01*
X008701Y012904D02*
X008476Y012904D01*
X008476Y013204D01*
X008416Y013174D02*
X008416Y013474D01*
X008416Y013324D02*
X007966Y013324D01*
X008116Y013174D01*
X008191Y013014D02*
X008341Y013014D01*
X008416Y012939D01*
X008416Y012789D01*
X008341Y012714D01*
X008476Y012669D02*
X008476Y012443D01*
X008926Y012443D01*
X008926Y012669D01*
X008851Y012744D01*
X008551Y012744D01*
X008476Y012669D01*
X008416Y012554D02*
X008266Y012404D01*
X008266Y012479D02*
X008266Y012253D01*
X008416Y012253D02*
X007966Y012253D01*
X007966Y012479D01*
X008041Y012554D01*
X008191Y012554D01*
X008266Y012479D01*
X008191Y012714D02*
X008116Y012864D01*
X008116Y012939D01*
X008191Y013014D01*
X007966Y013014D02*
X007966Y012714D01*
X008191Y012714D01*
X007176Y013068D02*
X007176Y013294D01*
X007101Y013369D01*
X006801Y013369D01*
X006726Y013294D01*
X006726Y013068D01*
X007176Y013068D01*
X006666Y013179D02*
X006516Y013029D01*
X006516Y013104D02*
X006516Y012878D01*
X006666Y012878D02*
X006216Y012878D01*
X006216Y013104D01*
X006291Y013179D01*
X006441Y013179D01*
X006516Y013104D01*
X006441Y013339D02*
X006366Y013489D01*
X006366Y013564D01*
X006441Y013639D01*
X006591Y013639D01*
X006666Y013564D01*
X006666Y013414D01*
X006591Y013339D01*
X006441Y013339D02*
X006216Y013339D01*
X006216Y013639D01*
X006291Y013799D02*
X006216Y013874D01*
X006216Y014024D01*
X006291Y014099D01*
X006591Y013799D01*
X006666Y013874D01*
X006666Y014024D01*
X006591Y014099D01*
X006291Y014099D01*
X006291Y013799D02*
X006591Y013799D01*
X006726Y013829D02*
X006801Y013679D01*
X006951Y013529D01*
X006951Y013754D01*
X007026Y013829D01*
X007101Y013829D01*
X007176Y013754D01*
X007176Y013604D01*
X007101Y013529D01*
X006951Y013529D01*
X009386Y015052D02*
X009386Y015277D01*
X009461Y015353D01*
X009611Y015353D01*
X009686Y015277D01*
X009686Y015052D01*
X009836Y015052D02*
X009386Y015052D01*
X009686Y015202D02*
X009836Y015353D01*
X009876Y015323D02*
X009876Y015548D01*
X009951Y015623D01*
X010251Y015623D01*
X010326Y015548D01*
X010326Y015323D01*
X009876Y015323D01*
X009611Y015513D02*
X009611Y015813D01*
X009611Y015973D02*
X009611Y016198D01*
X009686Y016273D01*
X009761Y016273D01*
X009836Y016198D01*
X009836Y016048D01*
X009761Y015973D01*
X009611Y015973D01*
X009461Y016123D01*
X009386Y016273D01*
X009876Y016008D02*
X009951Y016083D01*
X010026Y016083D01*
X010101Y016008D01*
X010101Y015858D01*
X010026Y015783D01*
X009951Y015783D01*
X009876Y015858D01*
X009876Y016008D01*
X010101Y016008D02*
X010176Y016083D01*
X010251Y016083D01*
X010326Y016008D01*
X010326Y015858D01*
X010251Y015783D01*
X010176Y015783D01*
X010101Y015858D01*
X009836Y015738D02*
X009386Y015738D01*
X009611Y015513D01*
X008576Y015737D02*
X008576Y015962D01*
X008501Y016038D01*
X008201Y016038D01*
X008126Y015962D01*
X008126Y015737D01*
X008576Y015737D01*
X008086Y015927D02*
X007636Y015927D01*
X007636Y016152D01*
X007711Y016228D01*
X007861Y016228D01*
X007936Y016152D01*
X007936Y015927D01*
X007936Y016077D02*
X008086Y016228D01*
X008126Y016348D02*
X008576Y016348D01*
X008576Y016198D02*
X008576Y016498D01*
X008501Y016658D02*
X008201Y016658D01*
X008126Y016733D01*
X008126Y016883D01*
X008201Y016958D01*
X008501Y016658D01*
X008576Y016733D01*
X008576Y016883D01*
X008501Y016958D01*
X008201Y016958D01*
X008086Y016923D02*
X008011Y016848D01*
X007936Y016848D01*
X007861Y016923D01*
X007861Y017073D01*
X007936Y017148D01*
X008011Y017148D01*
X008086Y017073D01*
X008086Y016923D01*
X007911Y016894D02*
X007836Y016818D01*
X007686Y016818D01*
X007611Y016894D01*
X007911Y017194D01*
X007911Y016894D01*
X007861Y016923D02*
X007786Y016848D01*
X007711Y016848D01*
X007636Y016923D01*
X007636Y017073D01*
X007711Y017148D01*
X007786Y017148D01*
X007861Y017073D01*
X007911Y017194D02*
X007836Y017269D01*
X007686Y017269D01*
X007611Y017194D01*
X007611Y016894D01*
X007451Y016818D02*
X007150Y016818D01*
X007300Y016818D02*
X007300Y017269D01*
X007150Y017119D01*
X006990Y017194D02*
X006915Y017269D01*
X006765Y017269D01*
X006690Y017194D01*
X006690Y017119D01*
X006765Y017044D01*
X006915Y017044D01*
X006990Y016969D01*
X006990Y016894D01*
X006915Y016818D01*
X006765Y016818D01*
X006690Y016894D01*
X006530Y016894D02*
X006530Y017269D01*
X006230Y017269D02*
X006230Y016894D01*
X006305Y016818D01*
X006455Y016818D01*
X006530Y016894D01*
X006840Y016743D02*
X006840Y017344D01*
X006069Y017756D02*
X000478Y017756D01*
X000478Y011756D01*
X006069Y011756D01*
X006069Y017756D01*
X007011Y017927D02*
X007011Y018152D01*
X007086Y018228D01*
X007236Y018228D01*
X007311Y018152D01*
X007311Y017927D01*
X007461Y017927D02*
X007011Y017927D01*
X007311Y018077D02*
X007461Y018228D01*
X007236Y018388D02*
X007236Y018688D01*
X007236Y018848D02*
X007236Y019148D01*
X007011Y019073D02*
X007236Y018848D01*
X007461Y019073D02*
X007011Y019073D01*
X007011Y018613D02*
X007236Y018388D01*
X007461Y018613D02*
X007011Y018613D01*
X009526Y018893D02*
X009751Y018893D01*
X009826Y018969D01*
X009826Y019269D01*
X009751Y019344D01*
X009526Y019344D01*
X009526Y018893D01*
X009987Y018969D02*
X010062Y018893D01*
X010212Y018893D01*
X010287Y018969D01*
X010287Y019044D01*
X010212Y019119D01*
X010137Y019119D01*
X010212Y019119D02*
X010287Y019194D01*
X010287Y019269D01*
X010212Y019344D01*
X010062Y019344D01*
X009987Y019269D01*
X010961Y018629D02*
X011186Y018629D01*
X011261Y018554D01*
X011261Y018404D01*
X011186Y018329D01*
X010961Y018329D01*
X011111Y018329D02*
X011261Y018178D01*
X011422Y018404D02*
X011722Y018404D01*
X011882Y018404D02*
X012032Y018479D01*
X012107Y018479D01*
X012182Y018404D01*
X012182Y018254D01*
X012107Y018178D01*
X011957Y018178D01*
X011882Y018254D01*
X011882Y018404D02*
X011882Y018629D01*
X012182Y018629D01*
X011647Y018629D02*
X011422Y018404D01*
X011647Y018178D02*
X011647Y018629D01*
X010961Y018629D02*
X010961Y018178D01*
X012716Y018239D02*
X013166Y018239D01*
X013166Y018089D02*
X013166Y018389D01*
X013166Y018549D02*
X013091Y018549D01*
X012791Y018849D01*
X012716Y018849D01*
X012716Y018549D01*
X012716Y018239D02*
X012866Y018089D01*
X012941Y017929D02*
X013016Y017854D01*
X013016Y017628D01*
X013166Y017628D02*
X012716Y017628D01*
X012716Y017854D01*
X012791Y017929D01*
X012941Y017929D01*
X013016Y017779D02*
X013166Y017929D01*
X013151Y018893D02*
X013376Y018893D01*
X013451Y018969D01*
X013451Y019269D01*
X013376Y019344D01*
X013151Y019344D01*
X013151Y018893D01*
X013837Y018893D02*
X013837Y019344D01*
X013612Y019119D01*
X013912Y019119D01*
X012511Y017148D02*
X012211Y017148D01*
X012136Y017073D01*
X012136Y016923D01*
X012211Y016848D01*
X012286Y016848D01*
X012361Y016923D01*
X012361Y017148D01*
X012511Y017148D02*
X012586Y017073D01*
X012586Y016923D01*
X012511Y016848D01*
X012626Y016883D02*
X012626Y016733D01*
X012701Y016658D01*
X012776Y016658D01*
X012851Y016733D01*
X012851Y016958D01*
X013001Y016958D02*
X012701Y016958D01*
X012626Y016883D01*
X012361Y016688D02*
X012361Y016388D01*
X012136Y016613D01*
X012586Y016613D01*
X012701Y016498D02*
X012626Y016423D01*
X012626Y016198D01*
X013076Y016198D01*
X013076Y016423D01*
X013001Y016498D01*
X012701Y016498D01*
X012586Y016228D02*
X012436Y016077D01*
X012436Y016152D02*
X012436Y015927D01*
X012586Y015927D02*
X012136Y015927D01*
X012136Y016152D01*
X012211Y016228D01*
X012361Y016228D01*
X012436Y016152D01*
X013001Y016658D02*
X013076Y016733D01*
X013076Y016883D01*
X013001Y016958D01*
X008276Y016198D02*
X008126Y016348D01*
X008086Y016613D02*
X007636Y016613D01*
X007861Y016388D01*
X007861Y016688D01*
X018586Y017428D02*
X018586Y017879D01*
X018811Y017879D01*
X018886Y017804D01*
X018886Y017654D01*
X018811Y017579D01*
X018586Y017579D01*
X018736Y017579D02*
X018886Y017428D01*
X019047Y017504D02*
X019122Y017428D01*
X019272Y017428D01*
X019347Y017504D01*
X019347Y017579D01*
X019272Y017654D01*
X019197Y017654D01*
X019272Y017654D02*
X019347Y017729D01*
X019347Y017804D01*
X019272Y017879D01*
X019122Y017879D01*
X019047Y017804D01*
X019507Y017729D02*
X019657Y017879D01*
X019657Y017428D01*
X019507Y017428D02*
X019807Y017428D01*
X019732Y015504D02*
X019582Y015504D01*
X019507Y015429D01*
X019507Y015354D01*
X019582Y015279D01*
X019807Y015279D01*
X019807Y015129D02*
X019807Y015429D01*
X019732Y015504D01*
X019347Y015429D02*
X019347Y015354D01*
X019047Y015053D01*
X019347Y015053D01*
X019507Y015129D02*
X019582Y015053D01*
X019732Y015053D01*
X019807Y015129D01*
X019347Y015429D02*
X019272Y015504D01*
X019122Y015504D01*
X019047Y015429D01*
X018886Y015429D02*
X018886Y015279D01*
X018811Y015204D01*
X018586Y015204D01*
X018736Y015204D02*
X018886Y015053D01*
X018586Y015053D02*
X018586Y015504D01*
X018811Y015504D01*
X018886Y015429D01*
X018811Y013379D02*
X018586Y013379D01*
X018586Y012928D01*
X018586Y013079D02*
X018811Y013079D01*
X018886Y013154D01*
X018886Y013304D01*
X018811Y013379D01*
X019047Y013304D02*
X019122Y013379D01*
X019272Y013379D01*
X019347Y013304D01*
X019347Y013229D01*
X019047Y012928D01*
X019347Y012928D01*
X019507Y012928D02*
X019507Y013004D01*
X019807Y013304D01*
X019807Y013379D01*
X019507Y013379D01*
X018886Y012928D02*
X018736Y013079D01*
X012368Y009731D02*
X012466Y008943D01*
X012368Y008156D01*
X001935Y008156D01*
X001836Y008943D01*
X001935Y009731D01*
X012368Y009731D01*
X012427Y009140D02*
X012191Y009140D01*
X012191Y008747D01*
X012427Y008747D01*
X013336Y007898D02*
X013336Y007598D01*
X013336Y007748D02*
X012886Y007748D01*
X013036Y007598D01*
X013336Y007438D02*
X013336Y007138D01*
X013336Y007288D02*
X012886Y007288D01*
X013036Y007138D01*
X013111Y006978D02*
X013186Y006902D01*
X013186Y006677D01*
X013336Y006677D02*
X012886Y006677D01*
X012886Y006902D01*
X012961Y006978D01*
X013111Y006978D01*
X013186Y006827D02*
X013336Y006978D01*
X012461Y006913D02*
X012011Y006913D01*
X012161Y006763D01*
X012236Y006603D02*
X012311Y006527D01*
X012311Y006302D01*
X012461Y006302D02*
X012011Y006302D01*
X012011Y006527D01*
X012086Y006603D01*
X012236Y006603D01*
X012311Y006452D02*
X012461Y006603D01*
X012461Y006763D02*
X012461Y007063D01*
X012461Y007223D02*
X012161Y007523D01*
X012086Y007523D01*
X012011Y007448D01*
X012011Y007298D01*
X012086Y007223D01*
X012461Y007223D02*
X012461Y007523D01*
X012368Y005481D02*
X012466Y004693D01*
X012368Y003906D01*
X001935Y003906D01*
X001836Y004693D01*
X001935Y005481D01*
X012368Y005481D01*
X012427Y004890D02*
X012191Y004890D01*
X012191Y004497D01*
X012427Y004497D01*
X013126Y004004D02*
X013126Y003854D01*
X013201Y003779D01*
X013201Y003619D02*
X013126Y003544D01*
X013126Y003318D01*
X013576Y003318D01*
X013576Y003544D01*
X013501Y003619D01*
X013201Y003619D01*
X013576Y003779D02*
X013276Y004079D01*
X013201Y004079D01*
X013126Y004004D01*
X013576Y004079D02*
X013576Y003779D01*
X015156Y003944D02*
X015231Y003868D01*
X015381Y003868D01*
X015456Y003944D01*
X015456Y004319D01*
X015617Y004244D02*
X015692Y004319D01*
X015842Y004319D01*
X015917Y004244D01*
X016077Y004244D02*
X016077Y004169D01*
X016152Y004094D01*
X016377Y004094D01*
X016377Y004244D02*
X016302Y004319D01*
X016152Y004319D01*
X016077Y004244D01*
X016076Y004079D02*
X016076Y003779D01*
X016152Y003868D02*
X016302Y003868D01*
X016377Y003944D01*
X016377Y004244D01*
X016077Y003944D02*
X016152Y003868D01*
X016076Y003929D02*
X015626Y003929D01*
X015776Y003779D01*
X015767Y003793D02*
X015767Y004394D01*
X015617Y004244D02*
X015617Y004169D01*
X015692Y004094D01*
X015842Y004094D01*
X015917Y004019D01*
X015917Y003944D01*
X015842Y003868D01*
X015692Y003868D01*
X015617Y003944D01*
X015701Y003619D02*
X015626Y003544D01*
X015626Y003318D01*
X016076Y003318D01*
X016076Y003544D01*
X016001Y003619D01*
X015701Y003619D01*
X015156Y003944D02*
X015156Y004319D01*
X015312Y004968D02*
X015312Y005419D01*
X015087Y005194D01*
X015387Y005194D01*
X014926Y005344D02*
X014851Y005419D01*
X014701Y005419D01*
X014626Y005344D01*
X014626Y005044D01*
X014701Y004968D01*
X014851Y004968D01*
X014926Y005044D01*
X017126Y005044D02*
X017201Y004968D01*
X017351Y004968D01*
X017426Y005044D01*
X017587Y004968D02*
X017887Y004968D01*
X017737Y004968D02*
X017737Y005419D01*
X017587Y005269D01*
X017426Y005344D02*
X017351Y005419D01*
X017201Y005419D01*
X017126Y005344D01*
X017126Y005044D01*
X020211Y003754D02*
X020436Y003754D01*
X020511Y003679D01*
X020511Y003529D01*
X020436Y003454D01*
X020211Y003454D01*
X020361Y003454D02*
X020511Y003303D01*
X020672Y003303D02*
X020972Y003303D01*
X020822Y003303D02*
X020822Y003754D01*
X020672Y003604D01*
X020211Y003754D02*
X020211Y003303D01*
X021132Y003379D02*
X021207Y003303D01*
X021357Y003303D01*
X021432Y003379D01*
X021432Y003454D01*
X021357Y003529D01*
X021282Y003529D01*
X021357Y003529D02*
X021432Y003604D01*
X021432Y003679D01*
X021357Y003754D01*
X021207Y003754D01*
X021132Y003679D01*
X021510Y003209D02*
X021735Y003209D01*
X021810Y003134D01*
X021810Y002984D01*
X021735Y002909D01*
X021510Y002909D01*
X021660Y002909D02*
X021810Y002758D01*
X021970Y002758D02*
X022271Y002758D01*
X022121Y002758D02*
X022121Y003209D01*
X021970Y003059D01*
X022431Y002984D02*
X022656Y003209D01*
X022656Y002758D01*
X022731Y002984D02*
X022431Y002984D01*
X021510Y002758D02*
X021510Y003209D01*
X023751Y002890D02*
X023987Y002890D01*
X023987Y002497D01*
X023751Y002497D01*
X017166Y002349D02*
X017166Y002049D01*
X016866Y002349D01*
X016791Y002349D01*
X016716Y002274D01*
X016716Y002124D01*
X016791Y002049D01*
X016941Y001889D02*
X016941Y001589D01*
X016716Y001814D01*
X017166Y001814D01*
X017166Y001429D02*
X017016Y001279D01*
X017016Y001354D02*
X017016Y001128D01*
X017166Y001128D02*
X016716Y001128D01*
X016716Y001354D01*
X016791Y001429D01*
X016941Y001429D01*
X017016Y001354D01*
X015586Y001427D02*
X015136Y001427D01*
X015136Y001652D01*
X015211Y001728D01*
X015361Y001728D01*
X015436Y001652D01*
X015436Y001427D01*
X015436Y001577D02*
X015586Y001728D01*
X015361Y001888D02*
X015361Y002188D01*
X015211Y002348D02*
X015136Y002423D01*
X015136Y002573D01*
X015211Y002648D01*
X015286Y002648D01*
X015361Y002573D01*
X015436Y002648D01*
X015511Y002648D01*
X015586Y002573D01*
X015586Y002423D01*
X015511Y002348D01*
X015361Y002498D02*
X015361Y002573D01*
X015136Y002113D02*
X015361Y001888D01*
X015586Y002113D02*
X015136Y002113D01*
X008057Y003754D02*
X007982Y003678D01*
X007832Y003678D01*
X007757Y003754D01*
X007597Y003678D02*
X007297Y003678D01*
X007597Y003979D01*
X007597Y004054D01*
X007522Y004129D01*
X007372Y004129D01*
X007297Y004054D01*
X007136Y004054D02*
X007136Y003904D01*
X007061Y003829D01*
X006836Y003829D01*
X006986Y003829D02*
X007136Y003678D01*
X006836Y003678D02*
X006836Y004129D01*
X007061Y004129D01*
X007136Y004054D01*
X007757Y004054D02*
X007832Y004129D01*
X007982Y004129D01*
X008057Y004054D01*
X008057Y003979D01*
X007982Y003904D01*
X008057Y003829D01*
X008057Y003754D01*
X007982Y003904D02*
X007907Y003904D01*
X006556Y004758D02*
X006556Y004834D01*
X006856Y005134D01*
X006856Y005209D01*
X006556Y005209D01*
X006396Y005134D02*
X006396Y005059D01*
X006321Y004984D01*
X006396Y004909D01*
X006396Y004834D01*
X006321Y004758D01*
X006170Y004758D01*
X006095Y004834D01*
X005935Y004758D02*
X005785Y004909D01*
X005860Y004909D02*
X005635Y004909D01*
X005635Y004758D02*
X005635Y005209D01*
X005860Y005209D01*
X005935Y005134D01*
X005935Y004984D01*
X005860Y004909D01*
X006095Y005134D02*
X006170Y005209D01*
X006321Y005209D01*
X006396Y005134D01*
X006321Y004984D02*
X006246Y004984D01*
X006321Y005508D02*
X006170Y005508D01*
X006095Y005584D01*
X005935Y005508D02*
X005785Y005659D01*
X005860Y005659D02*
X005635Y005659D01*
X005635Y005508D02*
X005635Y005959D01*
X005860Y005959D01*
X005935Y005884D01*
X005935Y005734D01*
X005860Y005659D01*
X006095Y005884D02*
X006170Y005959D01*
X006321Y005959D01*
X006396Y005884D01*
X006396Y005809D01*
X006321Y005734D01*
X006396Y005659D01*
X006396Y005584D01*
X006321Y005508D01*
X006321Y005734D02*
X006246Y005734D01*
X006556Y005734D02*
X006556Y005584D01*
X006631Y005508D01*
X006781Y005508D01*
X006856Y005584D01*
X006856Y005659D01*
X006781Y005734D01*
X006556Y005734D01*
X006706Y005884D01*
X006856Y005959D01*
X005557Y008428D02*
X005257Y008428D01*
X005557Y008729D01*
X005557Y008804D01*
X005482Y008879D01*
X005332Y008879D01*
X005257Y008804D01*
X005097Y008804D02*
X005022Y008879D01*
X004872Y008879D01*
X004797Y008804D01*
X004636Y008804D02*
X004636Y008654D01*
X004561Y008579D01*
X004336Y008579D01*
X004486Y008579D02*
X004636Y008428D01*
X004797Y008428D02*
X005097Y008729D01*
X005097Y008804D01*
X004636Y008804D02*
X004561Y008879D01*
X004336Y008879D01*
X004336Y008428D01*
X004797Y008428D02*
X005097Y008428D01*
X006760Y009258D02*
X006760Y009709D01*
X006985Y009709D01*
X007060Y009634D01*
X007060Y009484D01*
X006985Y009409D01*
X006760Y009409D01*
X006910Y009409D02*
X007060Y009258D01*
X007220Y009334D02*
X007295Y009258D01*
X007446Y009258D01*
X007521Y009334D01*
X007521Y009409D01*
X007446Y009484D01*
X007371Y009484D01*
X007446Y009484D02*
X007521Y009559D01*
X007521Y009634D01*
X007446Y009709D01*
X007295Y009709D01*
X007220Y009634D01*
X007071Y009883D02*
X006920Y009883D01*
X006845Y009959D01*
X006685Y009883D02*
X006535Y010034D01*
X006610Y010034D02*
X006385Y010034D01*
X006385Y009883D02*
X006385Y010334D01*
X006610Y010334D01*
X006685Y010259D01*
X006685Y010109D01*
X006610Y010034D01*
X006845Y010259D02*
X006920Y010334D01*
X007071Y010334D01*
X007146Y010259D01*
X007146Y010184D01*
X007071Y010109D01*
X007146Y010034D01*
X007146Y009959D01*
X007071Y009883D01*
X007071Y010109D02*
X006996Y010109D01*
X007306Y010109D02*
X007531Y010334D01*
X007531Y009883D01*
X007681Y009709D02*
X007681Y009484D01*
X007831Y009559D01*
X007906Y009559D01*
X007981Y009484D01*
X007981Y009334D01*
X007906Y009258D01*
X007756Y009258D01*
X007681Y009334D01*
X007681Y009709D02*
X007981Y009709D01*
X007606Y010109D02*
X007306Y010109D01*
X018586Y019428D02*
X018586Y019879D01*
X018811Y019879D01*
X018886Y019804D01*
X018886Y019654D01*
X018811Y019579D01*
X018586Y019579D01*
X018736Y019579D02*
X018886Y019428D01*
X019047Y019504D02*
X019122Y019428D01*
X019272Y019428D01*
X019347Y019504D01*
X019347Y019579D01*
X019272Y019654D01*
X019197Y019654D01*
X019272Y019654D02*
X019347Y019729D01*
X019347Y019804D01*
X019272Y019879D01*
X019122Y019879D01*
X019047Y019804D01*
X019507Y019804D02*
X019582Y019879D01*
X019732Y019879D01*
X019807Y019804D01*
X019807Y019729D01*
X019732Y019654D01*
X019807Y019579D01*
X019807Y019504D01*
X019732Y019428D01*
X019582Y019428D01*
X019507Y019504D01*
X019657Y019654D02*
X019732Y019654D01*
D12*
X034776Y019193D02*
X034776Y017443D01*
X036776Y017443D01*
X036776Y016693D01*
X034776Y016693D01*
X034776Y017443D01*
X036776Y017443D02*
X036776Y019193D01*
X034776Y019193D01*
X034776Y016193D02*
X036776Y016193D01*
X036776Y014443D01*
X034776Y014443D01*
X034776Y016193D01*
X034776Y014443D02*
X034776Y013693D01*
X036776Y013693D01*
X036776Y014443D01*
X036776Y013068D02*
X034776Y013068D01*
X034776Y011318D01*
X036776Y011318D01*
X036776Y010568D01*
X034776Y010568D01*
X034776Y011318D01*
X034776Y010193D02*
X036776Y010193D01*
X036776Y008443D01*
X034776Y008443D01*
X034776Y010193D01*
X036776Y011318D02*
X036776Y013068D01*
X036776Y008443D02*
X036776Y007693D01*
X034776Y007693D01*
X034776Y008443D01*
X034776Y006943D02*
X036776Y006943D01*
X036776Y005193D01*
X034776Y005193D01*
X034776Y006943D01*
X034776Y005193D02*
X034776Y004443D01*
X036776Y004443D01*
X036776Y005193D01*
X036776Y003943D02*
X034776Y003943D01*
X034776Y002193D01*
X036776Y002193D01*
X036776Y001443D01*
X034776Y001443D01*
X034776Y002193D01*
X036776Y002193D02*
X036776Y003943D01*
X019901Y004443D02*
X019901Y002693D01*
X017901Y002693D01*
X017901Y004443D01*
X019901Y004443D01*
X019901Y005193D01*
X017901Y005193D01*
X017901Y004443D01*
X017201Y010343D02*
X016901Y010343D01*
X016601Y010343D01*
X016601Y010543D02*
X016901Y010543D01*
X017201Y010543D01*
X004151Y008068D02*
X004151Y006318D01*
X002151Y006318D01*
X002151Y008068D01*
X004151Y008068D01*
X004151Y006318D02*
X004151Y005568D01*
X002151Y005568D01*
X002151Y006318D01*
X003651Y003568D02*
X005651Y003568D01*
X005651Y001818D01*
X003651Y001818D01*
X003651Y003568D01*
X003651Y001818D02*
X003651Y001068D01*
X005651Y001068D01*
X005651Y001818D01*
D13*
X005543Y000799D02*
X005303Y000799D01*
X005303Y000438D01*
X005303Y000619D02*
X005423Y000619D01*
X004043Y004938D02*
X003803Y004938D01*
X003803Y005299D01*
X004043Y005299D01*
X003923Y005119D02*
X003803Y005119D01*
X014671Y010582D02*
X015131Y010889D01*
X015131Y011196D02*
X014671Y011196D01*
X014671Y011043D02*
X014671Y011350D01*
X014824Y011503D02*
X014671Y011656D01*
X015131Y011656D01*
X015131Y011503D02*
X015131Y011810D01*
X014671Y010889D02*
X015131Y010582D01*
X017921Y005824D02*
X018161Y005463D01*
X018289Y005463D02*
X018530Y005704D01*
X018530Y005764D01*
X018470Y005824D01*
X018350Y005824D01*
X018289Y005764D01*
X018161Y005824D02*
X017921Y005463D01*
X018289Y005463D02*
X018530Y005463D01*
X036428Y004174D02*
X036428Y003813D01*
X036428Y003994D02*
X036668Y003994D01*
X036668Y004174D02*
X036668Y003813D01*
X036608Y001174D02*
X036488Y001174D01*
X036428Y001114D01*
X036428Y000874D01*
X036488Y000813D01*
X036608Y000813D01*
X036668Y000874D01*
X036668Y000994D01*
X036548Y000994D01*
X036668Y001114D02*
X036608Y001174D01*
X036668Y007063D02*
X036668Y007304D01*
X036548Y007424D01*
X036428Y007304D01*
X036428Y007063D01*
X036428Y007244D02*
X036668Y007244D01*
X036608Y009938D02*
X036428Y009938D01*
X036428Y010299D01*
X036608Y010299D01*
X036668Y010239D01*
X036668Y010179D01*
X036608Y010119D01*
X036428Y010119D01*
X036608Y010119D02*
X036668Y010059D01*
X036668Y009999D01*
X036608Y009938D01*
X036608Y013063D02*
X036668Y013124D01*
X036608Y013063D02*
X036488Y013063D01*
X036428Y013124D01*
X036428Y013364D01*
X036488Y013424D01*
X036608Y013424D01*
X036668Y013364D01*
X036608Y016063D02*
X036668Y016124D01*
X036668Y016364D01*
X036608Y016424D01*
X036428Y016424D01*
X036428Y016063D01*
X036608Y016063D01*
D14*
X016751Y019528D02*
X016331Y019528D01*
X016541Y019528D02*
X016541Y020159D01*
X016331Y019949D01*
X016107Y020159D02*
X016107Y019634D01*
X016001Y019528D01*
X015791Y019528D01*
X015686Y019634D01*
X015686Y020159D01*
D15*
X015651Y019443D02*
X016151Y019443D01*
X016153Y019399D01*
X016159Y019356D01*
X016168Y019314D01*
X016181Y019272D01*
X016198Y019232D01*
X016218Y019193D01*
X016241Y019156D01*
X016268Y019122D01*
X016297Y019089D01*
X016330Y019060D01*
X016364Y019033D01*
X016401Y019010D01*
X016440Y018990D01*
X016480Y018973D01*
X016522Y018960D01*
X016564Y018951D01*
X016607Y018945D01*
X016651Y018943D01*
X016695Y018945D01*
X016738Y018951D01*
X016780Y018960D01*
X016822Y018973D01*
X016862Y018990D01*
X016901Y019010D01*
X016938Y019033D01*
X016972Y019060D01*
X017005Y019089D01*
X017034Y019122D01*
X017061Y019156D01*
X017084Y019193D01*
X017104Y019232D01*
X017121Y019272D01*
X017134Y019314D01*
X017143Y019356D01*
X017149Y019399D01*
X017151Y019443D01*
X017651Y019443D01*
X017651Y005443D01*
X015651Y005443D01*
X015651Y019393D01*
X012926Y019318D02*
X012926Y018318D01*
X010826Y018318D01*
X010826Y018468D01*
X010826Y019168D01*
X010826Y019318D01*
X012926Y019318D01*
X010826Y019168D02*
X010676Y019168D01*
X010676Y019068D02*
X010676Y018568D01*
X010676Y018468D02*
X010826Y018468D01*
X010576Y018618D02*
X010576Y019018D01*
X010476Y018918D02*
X010476Y018718D01*
X010676Y018468D02*
X010639Y018470D01*
X010603Y018476D01*
X010568Y018485D01*
X010534Y018498D01*
X010501Y018515D01*
X010470Y018535D01*
X010442Y018558D01*
X010416Y018584D01*
X010393Y018612D01*
X010373Y018643D01*
X010356Y018676D01*
X010343Y018710D01*
X010334Y018745D01*
X010328Y018781D01*
X010326Y018818D01*
X010328Y018855D01*
X010334Y018891D01*
X010343Y018926D01*
X010356Y018960D01*
X010373Y018993D01*
X010393Y019024D01*
X010416Y019052D01*
X010442Y019078D01*
X010470Y019101D01*
X010501Y019121D01*
X010534Y019138D01*
X010568Y019151D01*
X010603Y019160D01*
X010639Y019166D01*
X010676Y019168D01*
X009301Y019318D02*
X007201Y019318D01*
X007201Y019168D01*
X007201Y018468D01*
X007051Y018468D01*
X007051Y018568D02*
X007051Y019068D01*
X007051Y019168D02*
X007201Y019168D01*
X006951Y019018D02*
X006951Y018618D01*
X006851Y018718D02*
X006851Y018918D01*
X007051Y019168D02*
X007014Y019166D01*
X006978Y019160D01*
X006943Y019151D01*
X006909Y019138D01*
X006876Y019121D01*
X006845Y019101D01*
X006817Y019078D01*
X006791Y019052D01*
X006768Y019024D01*
X006748Y018993D01*
X006731Y018960D01*
X006718Y018926D01*
X006709Y018891D01*
X006703Y018855D01*
X006701Y018818D01*
X006703Y018781D01*
X006709Y018745D01*
X006718Y018710D01*
X006731Y018676D01*
X006748Y018643D01*
X006768Y018612D01*
X006791Y018584D01*
X006817Y018558D01*
X006845Y018535D01*
X006876Y018515D01*
X006909Y018498D01*
X006943Y018485D01*
X006978Y018476D01*
X007014Y018470D01*
X007051Y018468D01*
X007201Y018468D02*
X007201Y018318D01*
X009301Y018318D01*
X009301Y019318D01*
X008026Y017693D02*
X008028Y017737D01*
X008034Y017781D01*
X008044Y017824D01*
X008057Y017866D01*
X008074Y017907D01*
X008095Y017946D01*
X008119Y017983D01*
X008146Y018018D01*
X008176Y018050D01*
X008209Y018080D01*
X008245Y018106D01*
X008282Y018130D01*
X008322Y018149D01*
X008363Y018166D01*
X008406Y018178D01*
X008449Y018187D01*
X008493Y018192D01*
X008537Y018193D01*
X008581Y018190D01*
X008625Y018183D01*
X008668Y018172D01*
X008710Y018158D01*
X008750Y018140D01*
X008789Y018118D01*
X008825Y018094D01*
X008859Y018066D01*
X008891Y018035D01*
X008920Y018001D01*
X008946Y017965D01*
X008968Y017927D01*
X008987Y017887D01*
X009002Y017845D01*
X009014Y017803D01*
X009022Y017759D01*
X009026Y017715D01*
X009026Y017671D01*
X009022Y017627D01*
X009014Y017583D01*
X009002Y017541D01*
X008987Y017499D01*
X008968Y017459D01*
X008946Y017421D01*
X008920Y017385D01*
X008891Y017351D01*
X008859Y017320D01*
X008825Y017292D01*
X008789Y017268D01*
X008750Y017246D01*
X008710Y017228D01*
X008668Y017214D01*
X008625Y017203D01*
X008581Y017196D01*
X008537Y017193D01*
X008493Y017194D01*
X008449Y017199D01*
X008406Y017208D01*
X008363Y017220D01*
X008322Y017237D01*
X008282Y017256D01*
X008245Y017280D01*
X008209Y017306D01*
X008176Y017336D01*
X008146Y017368D01*
X008119Y017403D01*
X008095Y017440D01*
X008074Y017479D01*
X008057Y017520D01*
X008044Y017562D01*
X008034Y017605D01*
X008028Y017649D01*
X008026Y017693D01*
X007951Y016643D02*
X007651Y016643D01*
X007351Y016643D01*
X007651Y016643D02*
X007351Y016243D01*
X007951Y016243D01*
X007651Y016643D01*
X009101Y015768D02*
X009401Y015768D01*
X009701Y015768D01*
X009401Y015768D02*
X009101Y015368D01*
X009701Y015368D01*
X009401Y015768D01*
X011851Y016243D02*
X012451Y016243D01*
X012151Y016643D01*
X011851Y016643D01*
X012151Y016643D02*
X012451Y016643D01*
X012151Y016643D02*
X011851Y016243D01*
X011851Y014268D02*
X012451Y014268D01*
X012151Y013868D01*
X012451Y013868D01*
X012151Y013868D02*
X011851Y013868D01*
X012151Y013868D02*
X011851Y014268D01*
X009701Y013268D02*
X009101Y013268D01*
X009401Y012868D01*
X009701Y012868D01*
X009401Y012868D02*
X009101Y012868D01*
X009401Y012868D02*
X009701Y013268D01*
X007951Y013493D02*
X007651Y013493D01*
X007351Y013493D01*
X007651Y013493D02*
X007951Y013893D01*
X007351Y013893D01*
X007651Y013493D01*
X016401Y011293D02*
X016401Y009593D01*
X016403Y009576D01*
X016407Y009559D01*
X016414Y009543D01*
X016424Y009529D01*
X016437Y009516D01*
X016451Y009506D01*
X016467Y009499D01*
X016484Y009495D01*
X016501Y009493D01*
X017301Y009493D01*
X017318Y009495D01*
X017335Y009499D01*
X017351Y009506D01*
X017365Y009516D01*
X017378Y009529D01*
X017388Y009543D01*
X017395Y009559D01*
X017399Y009576D01*
X017401Y009593D01*
X017401Y011293D01*
X017399Y011310D01*
X017395Y011327D01*
X017388Y011343D01*
X017378Y011357D01*
X017365Y011370D01*
X017351Y011380D01*
X017335Y011387D01*
X017318Y011391D01*
X017301Y011393D01*
X016501Y011393D01*
X016484Y011391D01*
X016467Y011387D01*
X016451Y011380D01*
X016437Y011370D01*
X016424Y011357D01*
X016414Y011343D01*
X016407Y011327D01*
X016403Y011310D01*
X016401Y011293D01*
X016901Y010593D02*
X016901Y010543D01*
X016901Y010343D02*
X016901Y010293D01*
X015601Y005043D02*
X015601Y004943D01*
X015701Y004943D01*
X015601Y004943D02*
X015601Y004843D01*
X015601Y004943D02*
X015501Y004943D01*
X015151Y004443D02*
X015153Y004506D01*
X015159Y004568D01*
X015169Y004630D01*
X015182Y004692D01*
X015200Y004752D01*
X015221Y004811D01*
X015246Y004869D01*
X015275Y004925D01*
X015307Y004979D01*
X015342Y005031D01*
X015380Y005080D01*
X015422Y005128D01*
X015466Y005172D01*
X015514Y005214D01*
X015563Y005252D01*
X015615Y005287D01*
X015669Y005319D01*
X015725Y005348D01*
X015783Y005373D01*
X015842Y005394D01*
X015902Y005412D01*
X015964Y005425D01*
X016026Y005435D01*
X016088Y005441D01*
X016151Y005443D01*
X016214Y005441D01*
X016276Y005435D01*
X016338Y005425D01*
X016400Y005412D01*
X016460Y005394D01*
X016519Y005373D01*
X016577Y005348D01*
X016633Y005319D01*
X016687Y005287D01*
X016739Y005252D01*
X016788Y005214D01*
X016836Y005172D01*
X016880Y005128D01*
X016922Y005080D01*
X016960Y005031D01*
X016995Y004979D01*
X017027Y004925D01*
X017056Y004869D01*
X017081Y004811D01*
X017102Y004752D01*
X017120Y004692D01*
X017133Y004630D01*
X017143Y004568D01*
X017149Y004506D01*
X017151Y004443D01*
X017149Y004380D01*
X017143Y004318D01*
X017133Y004256D01*
X017120Y004194D01*
X017102Y004134D01*
X017081Y004075D01*
X017056Y004017D01*
X017027Y003961D01*
X016995Y003907D01*
X016960Y003855D01*
X016922Y003806D01*
X016880Y003758D01*
X016836Y003714D01*
X016788Y003672D01*
X016739Y003634D01*
X016687Y003599D01*
X016633Y003567D01*
X016577Y003538D01*
X016519Y003513D01*
X016460Y003492D01*
X016400Y003474D01*
X016338Y003461D01*
X016276Y003451D01*
X016214Y003445D01*
X016151Y003443D01*
X016088Y003445D01*
X016026Y003451D01*
X015964Y003461D01*
X015902Y003474D01*
X015842Y003492D01*
X015783Y003513D01*
X015725Y003538D01*
X015669Y003567D01*
X015615Y003599D01*
X015563Y003634D01*
X015514Y003672D01*
X015466Y003714D01*
X015422Y003758D01*
X015380Y003806D01*
X015342Y003855D01*
X015307Y003907D01*
X015275Y003961D01*
X015246Y004017D01*
X015221Y004075D01*
X015200Y004134D01*
X015182Y004194D01*
X015169Y004256D01*
X015159Y004318D01*
X015153Y004380D01*
X015151Y004443D01*
X012651Y004443D02*
X012653Y004506D01*
X012659Y004568D01*
X012669Y004630D01*
X012682Y004692D01*
X012700Y004752D01*
X012721Y004811D01*
X012746Y004869D01*
X012775Y004925D01*
X012807Y004979D01*
X012842Y005031D01*
X012880Y005080D01*
X012922Y005128D01*
X012966Y005172D01*
X013014Y005214D01*
X013063Y005252D01*
X013115Y005287D01*
X013169Y005319D01*
X013225Y005348D01*
X013283Y005373D01*
X013342Y005394D01*
X013402Y005412D01*
X013464Y005425D01*
X013526Y005435D01*
X013588Y005441D01*
X013651Y005443D01*
X013714Y005441D01*
X013776Y005435D01*
X013838Y005425D01*
X013900Y005412D01*
X013960Y005394D01*
X014019Y005373D01*
X014077Y005348D01*
X014133Y005319D01*
X014187Y005287D01*
X014239Y005252D01*
X014288Y005214D01*
X014336Y005172D01*
X014380Y005128D01*
X014422Y005080D01*
X014460Y005031D01*
X014495Y004979D01*
X014527Y004925D01*
X014556Y004869D01*
X014581Y004811D01*
X014602Y004752D01*
X014620Y004692D01*
X014633Y004630D01*
X014643Y004568D01*
X014649Y004506D01*
X014651Y004443D01*
X014649Y004380D01*
X014643Y004318D01*
X014633Y004256D01*
X014620Y004194D01*
X014602Y004134D01*
X014581Y004075D01*
X014556Y004017D01*
X014527Y003961D01*
X014495Y003907D01*
X014460Y003855D01*
X014422Y003806D01*
X014380Y003758D01*
X014336Y003714D01*
X014288Y003672D01*
X014239Y003634D01*
X014187Y003599D01*
X014133Y003567D01*
X014077Y003538D01*
X014019Y003513D01*
X013960Y003492D01*
X013900Y003474D01*
X013838Y003461D01*
X013776Y003451D01*
X013714Y003445D01*
X013651Y003443D01*
X013588Y003445D01*
X013526Y003451D01*
X013464Y003461D01*
X013402Y003474D01*
X013342Y003492D01*
X013283Y003513D01*
X013225Y003538D01*
X013169Y003567D01*
X013115Y003599D01*
X013063Y003634D01*
X013014Y003672D01*
X012966Y003714D01*
X012922Y003758D01*
X012880Y003806D01*
X012842Y003855D01*
X012807Y003907D01*
X012775Y003961D01*
X012746Y004017D01*
X012721Y004075D01*
X012700Y004134D01*
X012682Y004194D01*
X012669Y004256D01*
X012659Y004318D01*
X012653Y004380D01*
X012651Y004443D01*
X013101Y004843D02*
X013101Y004943D01*
X013101Y005043D01*
X013101Y004943D02*
X013201Y004943D01*
X013101Y004943D02*
X013001Y004943D01*
X014151Y003443D02*
X014153Y003487D01*
X014159Y003531D01*
X014169Y003574D01*
X014182Y003616D01*
X014199Y003657D01*
X014220Y003696D01*
X014244Y003733D01*
X014271Y003768D01*
X014301Y003800D01*
X014334Y003830D01*
X014370Y003856D01*
X014407Y003880D01*
X014447Y003899D01*
X014488Y003916D01*
X014531Y003928D01*
X014574Y003937D01*
X014618Y003942D01*
X014662Y003943D01*
X014706Y003940D01*
X014750Y003933D01*
X014793Y003922D01*
X014835Y003908D01*
X014875Y003890D01*
X014914Y003868D01*
X014950Y003844D01*
X014984Y003816D01*
X015016Y003785D01*
X015045Y003751D01*
X015071Y003715D01*
X015093Y003677D01*
X015112Y003637D01*
X015127Y003595D01*
X015139Y003553D01*
X015147Y003509D01*
X015151Y003465D01*
X015151Y003421D01*
X015147Y003377D01*
X015139Y003333D01*
X015127Y003291D01*
X015112Y003249D01*
X015093Y003209D01*
X015071Y003171D01*
X015045Y003135D01*
X015016Y003101D01*
X014984Y003070D01*
X014950Y003042D01*
X014914Y003018D01*
X014875Y002996D01*
X014835Y002978D01*
X014793Y002964D01*
X014750Y002953D01*
X014706Y002946D01*
X014662Y002943D01*
X014618Y002944D01*
X014574Y002949D01*
X014531Y002958D01*
X014488Y002970D01*
X014447Y002987D01*
X014407Y003006D01*
X014370Y003030D01*
X014334Y003056D01*
X014301Y003086D01*
X014271Y003118D01*
X014244Y003153D01*
X014220Y003190D01*
X014199Y003229D01*
X014182Y003270D01*
X014169Y003312D01*
X014159Y003355D01*
X014153Y003399D01*
X014151Y003443D01*
X014151Y003093D02*
X013151Y003093D01*
X013151Y000993D01*
X013301Y000993D01*
X014001Y000993D01*
X014001Y000843D01*
X013901Y000843D02*
X013401Y000843D01*
X013301Y000843D02*
X013301Y000993D01*
X013451Y000743D02*
X013851Y000743D01*
X013751Y000643D02*
X013551Y000643D01*
X013301Y000843D02*
X013303Y000806D01*
X013309Y000770D01*
X013318Y000735D01*
X013331Y000701D01*
X013348Y000668D01*
X013368Y000637D01*
X013391Y000609D01*
X013417Y000583D01*
X013445Y000560D01*
X013476Y000540D01*
X013509Y000523D01*
X013543Y000510D01*
X013578Y000501D01*
X013614Y000495D01*
X013651Y000493D01*
X013688Y000495D01*
X013724Y000501D01*
X013759Y000510D01*
X013793Y000523D01*
X013826Y000540D01*
X013857Y000560D01*
X013885Y000583D01*
X013911Y000609D01*
X013934Y000637D01*
X013954Y000668D01*
X013971Y000701D01*
X013984Y000735D01*
X013993Y000770D01*
X013999Y000806D01*
X014001Y000843D01*
X014001Y000993D02*
X014151Y000993D01*
X014151Y003093D01*
X015651Y003093D02*
X015651Y000993D01*
X015801Y000993D01*
X016501Y000993D01*
X016501Y000843D01*
X016401Y000843D02*
X015901Y000843D01*
X015801Y000843D02*
X015801Y000993D01*
X015951Y000743D02*
X016351Y000743D01*
X016251Y000643D02*
X016051Y000643D01*
X015801Y000843D02*
X015803Y000806D01*
X015809Y000770D01*
X015818Y000735D01*
X015831Y000701D01*
X015848Y000668D01*
X015868Y000637D01*
X015891Y000609D01*
X015917Y000583D01*
X015945Y000560D01*
X015976Y000540D01*
X016009Y000523D01*
X016043Y000510D01*
X016078Y000501D01*
X016114Y000495D01*
X016151Y000493D01*
X016188Y000495D01*
X016224Y000501D01*
X016259Y000510D01*
X016293Y000523D01*
X016326Y000540D01*
X016357Y000560D01*
X016385Y000583D01*
X016411Y000609D01*
X016434Y000637D01*
X016454Y000668D01*
X016471Y000701D01*
X016484Y000735D01*
X016493Y000770D01*
X016499Y000806D01*
X016501Y000843D01*
X016501Y000993D02*
X016651Y000993D01*
X016651Y003093D01*
X015651Y003093D01*
D16*
X014651Y001993D02*
X014651Y001893D01*
X017651Y001893D02*
X017651Y001993D01*
X020976Y002818D02*
X021076Y002818D01*
X021976Y003693D02*
X022076Y003693D01*
X020951Y005443D02*
X020851Y005443D01*
X022351Y006193D02*
X022451Y006193D01*
X019451Y006943D02*
X019351Y006943D01*
X022101Y008193D02*
X022201Y008193D01*
X022651Y009393D02*
X022651Y009493D01*
X023401Y009493D02*
X023401Y009393D01*
X019451Y008943D02*
X019351Y008943D01*
X019351Y012443D02*
X019451Y012443D01*
X022651Y012368D02*
X022651Y012268D01*
X023401Y012268D02*
X023401Y012368D01*
X019451Y014568D02*
X019351Y014568D01*
X022651Y015393D02*
X022651Y015493D01*
X023401Y015493D02*
X023401Y015393D01*
X019451Y016943D02*
X019351Y016943D01*
X022651Y018268D02*
X022651Y018368D01*
X023401Y018368D02*
X023401Y018268D01*
X019451Y018943D02*
X019351Y018943D01*
X013651Y018493D02*
X013651Y018393D01*
X011826Y017693D02*
X011726Y017693D01*
X011651Y016493D02*
X011651Y016393D01*
X008901Y015618D02*
X008901Y015518D01*
X007151Y016393D02*
X007151Y016493D01*
X006526Y018393D02*
X006526Y018493D01*
X011651Y014118D02*
X011651Y014018D01*
X008901Y013118D02*
X008901Y013018D01*
X007151Y013643D02*
X007151Y013743D01*
X006951Y010818D02*
X006851Y010818D01*
X007226Y010193D02*
X007326Y010193D01*
X010651Y010893D02*
X010651Y010993D01*
X011651Y010993D02*
X011651Y010893D01*
X005201Y007943D02*
X005101Y007943D01*
X006101Y006443D02*
X006201Y006443D01*
X006201Y005693D02*
X006101Y005693D01*
X007601Y003193D02*
X007701Y003193D01*
X011526Y006768D02*
X011526Y006868D01*
X012401Y007143D02*
X012401Y007243D01*
X027976Y015943D02*
X028076Y015943D01*
X029976Y016818D02*
X030076Y016818D01*
X028576Y018943D02*
X028476Y018943D01*
X029976Y013943D02*
X030076Y013943D01*
X031726Y012818D02*
X031826Y012818D01*
X030076Y010818D02*
X029976Y010818D01*
X031726Y009943D02*
X031826Y009943D01*
X031826Y006818D02*
X031726Y006818D01*
X030076Y004693D02*
X029976Y004693D01*
X031726Y003693D02*
X031826Y003693D01*
X030076Y001693D02*
X029976Y001693D01*
D17*
X015251Y003443D02*
X015051Y003443D01*
X008126Y017693D02*
X007926Y017693D01*
M02*
