G75*
G70*
%OFA0B0*%
%FSLAX24Y24*%
%IPPOS*%
%LPD*%
%AMOC8*
5,1,8,0,0,1.08239X$1,22.5*
%
%ADD10C,0.0000*%
%ADD11C,0.0050*%
%ADD12C,0.0100*%
%ADD13C,0.0040*%
%ADD14C,0.0070*%
%ADD15C,0.0060*%
%ADD16C,0.0200*%
%ADD17C,0.0240*%
%ADD18C,0.0080*%
D10*
X001159Y000433D02*
X001159Y020118D01*
X040529Y020118D01*
X040529Y000433D01*
X001159Y000433D01*
X001749Y001614D02*
X001751Y001662D01*
X001757Y001710D01*
X001767Y001757D01*
X001780Y001803D01*
X001798Y001848D01*
X001818Y001892D01*
X001843Y001934D01*
X001871Y001973D01*
X001901Y002010D01*
X001935Y002044D01*
X001972Y002076D01*
X002010Y002105D01*
X002051Y002130D01*
X002094Y002152D01*
X002139Y002170D01*
X002185Y002184D01*
X002232Y002195D01*
X002280Y002202D01*
X002328Y002205D01*
X002376Y002204D01*
X002424Y002199D01*
X002472Y002190D01*
X002518Y002178D01*
X002563Y002161D01*
X002607Y002141D01*
X002649Y002118D01*
X002689Y002091D01*
X002727Y002061D01*
X002762Y002028D01*
X002794Y001992D01*
X002824Y001954D01*
X002850Y001913D01*
X002872Y001870D01*
X002892Y001826D01*
X002907Y001781D01*
X002919Y001734D01*
X002927Y001686D01*
X002931Y001638D01*
X002931Y001590D01*
X002927Y001542D01*
X002919Y001494D01*
X002907Y001447D01*
X002892Y001402D01*
X002872Y001358D01*
X002850Y001315D01*
X002824Y001274D01*
X002794Y001236D01*
X002762Y001200D01*
X002727Y001167D01*
X002689Y001137D01*
X002649Y001110D01*
X002607Y001087D01*
X002563Y001067D01*
X002518Y001050D01*
X002472Y001038D01*
X002424Y001029D01*
X002376Y001024D01*
X002328Y001023D01*
X002280Y001026D01*
X002232Y001033D01*
X002185Y001044D01*
X002139Y001058D01*
X002094Y001076D01*
X002051Y001098D01*
X002010Y001123D01*
X001972Y001152D01*
X001935Y001184D01*
X001901Y001218D01*
X001871Y001255D01*
X001843Y001294D01*
X001818Y001336D01*
X001798Y001380D01*
X001780Y001425D01*
X001767Y001471D01*
X001757Y001518D01*
X001751Y001566D01*
X001749Y001614D01*
X005482Y011746D02*
X005484Y011772D01*
X005490Y011798D01*
X005500Y011823D01*
X005513Y011846D01*
X005529Y011866D01*
X005549Y011884D01*
X005571Y011899D01*
X005594Y011911D01*
X005620Y011919D01*
X005646Y011923D01*
X005672Y011923D01*
X005698Y011919D01*
X005724Y011911D01*
X005748Y011899D01*
X005769Y011884D01*
X005789Y011866D01*
X005805Y011846D01*
X005818Y011823D01*
X005828Y011798D01*
X005834Y011772D01*
X005836Y011746D01*
X005834Y011720D01*
X005828Y011694D01*
X005818Y011669D01*
X005805Y011646D01*
X005789Y011626D01*
X005769Y011608D01*
X005747Y011593D01*
X005724Y011581D01*
X005698Y011573D01*
X005672Y011569D01*
X005646Y011569D01*
X005620Y011573D01*
X005594Y011581D01*
X005570Y011593D01*
X005549Y011608D01*
X005529Y011626D01*
X005513Y011646D01*
X005500Y011669D01*
X005490Y011694D01*
X005484Y011720D01*
X005482Y011746D01*
X003282Y012042D02*
X003284Y012085D01*
X003290Y012127D01*
X003300Y012169D01*
X003313Y012210D01*
X003330Y012250D01*
X003351Y012287D01*
X003375Y012323D01*
X003402Y012356D01*
X003432Y012387D01*
X003465Y012415D01*
X003500Y012440D01*
X003537Y012461D01*
X003576Y012479D01*
X003616Y012493D01*
X003658Y012504D01*
X003700Y012511D01*
X003743Y012514D01*
X003786Y012513D01*
X003829Y012508D01*
X003871Y012499D01*
X003912Y012487D01*
X003952Y012471D01*
X003990Y012451D01*
X004026Y012428D01*
X004060Y012401D01*
X004092Y012372D01*
X004120Y012340D01*
X004146Y012305D01*
X004168Y012269D01*
X004187Y012230D01*
X004202Y012190D01*
X004214Y012149D01*
X004222Y012106D01*
X004226Y012063D01*
X004226Y012021D01*
X004222Y011978D01*
X004214Y011935D01*
X004202Y011894D01*
X004187Y011854D01*
X004168Y011815D01*
X004146Y011779D01*
X004120Y011744D01*
X004092Y011712D01*
X004060Y011683D01*
X004026Y011656D01*
X003990Y011633D01*
X003952Y011613D01*
X003912Y011597D01*
X003871Y011585D01*
X003829Y011576D01*
X003786Y011571D01*
X003743Y011570D01*
X003700Y011573D01*
X003658Y011580D01*
X003616Y011591D01*
X003576Y011605D01*
X003537Y011623D01*
X003500Y011644D01*
X003465Y011669D01*
X003432Y011697D01*
X003402Y011728D01*
X003375Y011761D01*
X003351Y011797D01*
X003330Y011834D01*
X003313Y011874D01*
X003300Y011915D01*
X003290Y011957D01*
X003284Y011999D01*
X003282Y012042D01*
X003282Y017431D02*
X003284Y017474D01*
X003290Y017516D01*
X003300Y017558D01*
X003313Y017599D01*
X003330Y017639D01*
X003351Y017676D01*
X003375Y017712D01*
X003402Y017745D01*
X003432Y017776D01*
X003465Y017804D01*
X003500Y017829D01*
X003537Y017850D01*
X003576Y017868D01*
X003616Y017882D01*
X003658Y017893D01*
X003700Y017900D01*
X003743Y017903D01*
X003786Y017902D01*
X003829Y017897D01*
X003871Y017888D01*
X003912Y017876D01*
X003952Y017860D01*
X003990Y017840D01*
X004026Y017817D01*
X004060Y017790D01*
X004092Y017761D01*
X004120Y017729D01*
X004146Y017694D01*
X004168Y017658D01*
X004187Y017619D01*
X004202Y017579D01*
X004214Y017538D01*
X004222Y017495D01*
X004226Y017452D01*
X004226Y017410D01*
X004222Y017367D01*
X004214Y017324D01*
X004202Y017283D01*
X004187Y017243D01*
X004168Y017204D01*
X004146Y017168D01*
X004120Y017133D01*
X004092Y017101D01*
X004060Y017072D01*
X004026Y017045D01*
X003990Y017022D01*
X003952Y017002D01*
X003912Y016986D01*
X003871Y016974D01*
X003829Y016965D01*
X003786Y016960D01*
X003743Y016959D01*
X003700Y016962D01*
X003658Y016969D01*
X003616Y016980D01*
X003576Y016994D01*
X003537Y017012D01*
X003500Y017033D01*
X003465Y017058D01*
X003432Y017086D01*
X003402Y017117D01*
X003375Y017150D01*
X003351Y017186D01*
X003330Y017223D01*
X003313Y017263D01*
X003300Y017304D01*
X003290Y017346D01*
X003284Y017388D01*
X003282Y017431D01*
X005482Y017746D02*
X005484Y017772D01*
X005490Y017798D01*
X005500Y017823D01*
X005513Y017846D01*
X005529Y017866D01*
X005549Y017884D01*
X005571Y017899D01*
X005594Y017911D01*
X005620Y017919D01*
X005646Y017923D01*
X005672Y017923D01*
X005698Y017919D01*
X005724Y017911D01*
X005748Y017899D01*
X005769Y017884D01*
X005789Y017866D01*
X005805Y017846D01*
X005818Y017823D01*
X005828Y017798D01*
X005834Y017772D01*
X005836Y017746D01*
X005834Y017720D01*
X005828Y017694D01*
X005818Y017669D01*
X005805Y017646D01*
X005789Y017626D01*
X005769Y017608D01*
X005747Y017593D01*
X005724Y017581D01*
X005698Y017573D01*
X005672Y017569D01*
X005646Y017569D01*
X005620Y017573D01*
X005594Y017581D01*
X005570Y017593D01*
X005549Y017608D01*
X005529Y017626D01*
X005513Y017646D01*
X005500Y017669D01*
X005490Y017694D01*
X005484Y017720D01*
X005482Y017746D01*
X001749Y018937D02*
X001751Y018985D01*
X001757Y019033D01*
X001767Y019080D01*
X001780Y019126D01*
X001798Y019171D01*
X001818Y019215D01*
X001843Y019257D01*
X001871Y019296D01*
X001901Y019333D01*
X001935Y019367D01*
X001972Y019399D01*
X002010Y019428D01*
X002051Y019453D01*
X002094Y019475D01*
X002139Y019493D01*
X002185Y019507D01*
X002232Y019518D01*
X002280Y019525D01*
X002328Y019528D01*
X002376Y019527D01*
X002424Y019522D01*
X002472Y019513D01*
X002518Y019501D01*
X002563Y019484D01*
X002607Y019464D01*
X002649Y019441D01*
X002689Y019414D01*
X002727Y019384D01*
X002762Y019351D01*
X002794Y019315D01*
X002824Y019277D01*
X002850Y019236D01*
X002872Y019193D01*
X002892Y019149D01*
X002907Y019104D01*
X002919Y019057D01*
X002927Y019009D01*
X002931Y018961D01*
X002931Y018913D01*
X002927Y018865D01*
X002919Y018817D01*
X002907Y018770D01*
X002892Y018725D01*
X002872Y018681D01*
X002850Y018638D01*
X002824Y018597D01*
X002794Y018559D01*
X002762Y018523D01*
X002727Y018490D01*
X002689Y018460D01*
X002649Y018433D01*
X002607Y018410D01*
X002563Y018390D01*
X002518Y018373D01*
X002472Y018361D01*
X002424Y018352D01*
X002376Y018347D01*
X002328Y018346D01*
X002280Y018349D01*
X002232Y018356D01*
X002185Y018367D01*
X002139Y018381D01*
X002094Y018399D01*
X002051Y018421D01*
X002010Y018446D01*
X001972Y018475D01*
X001935Y018507D01*
X001901Y018541D01*
X001871Y018578D01*
X001843Y018617D01*
X001818Y018659D01*
X001798Y018703D01*
X001780Y018748D01*
X001767Y018794D01*
X001757Y018841D01*
X001751Y018889D01*
X001749Y018937D01*
X038757Y018937D02*
X038759Y018985D01*
X038765Y019033D01*
X038775Y019080D01*
X038788Y019126D01*
X038806Y019171D01*
X038826Y019215D01*
X038851Y019257D01*
X038879Y019296D01*
X038909Y019333D01*
X038943Y019367D01*
X038980Y019399D01*
X039018Y019428D01*
X039059Y019453D01*
X039102Y019475D01*
X039147Y019493D01*
X039193Y019507D01*
X039240Y019518D01*
X039288Y019525D01*
X039336Y019528D01*
X039384Y019527D01*
X039432Y019522D01*
X039480Y019513D01*
X039526Y019501D01*
X039571Y019484D01*
X039615Y019464D01*
X039657Y019441D01*
X039697Y019414D01*
X039735Y019384D01*
X039770Y019351D01*
X039802Y019315D01*
X039832Y019277D01*
X039858Y019236D01*
X039880Y019193D01*
X039900Y019149D01*
X039915Y019104D01*
X039927Y019057D01*
X039935Y019009D01*
X039939Y018961D01*
X039939Y018913D01*
X039935Y018865D01*
X039927Y018817D01*
X039915Y018770D01*
X039900Y018725D01*
X039880Y018681D01*
X039858Y018638D01*
X039832Y018597D01*
X039802Y018559D01*
X039770Y018523D01*
X039735Y018490D01*
X039697Y018460D01*
X039657Y018433D01*
X039615Y018410D01*
X039571Y018390D01*
X039526Y018373D01*
X039480Y018361D01*
X039432Y018352D01*
X039384Y018347D01*
X039336Y018346D01*
X039288Y018349D01*
X039240Y018356D01*
X039193Y018367D01*
X039147Y018381D01*
X039102Y018399D01*
X039059Y018421D01*
X039018Y018446D01*
X038980Y018475D01*
X038943Y018507D01*
X038909Y018541D01*
X038879Y018578D01*
X038851Y018617D01*
X038826Y018659D01*
X038806Y018703D01*
X038788Y018748D01*
X038775Y018794D01*
X038765Y018841D01*
X038759Y018889D01*
X038757Y018937D01*
X038757Y001614D02*
X038759Y001662D01*
X038765Y001710D01*
X038775Y001757D01*
X038788Y001803D01*
X038806Y001848D01*
X038826Y001892D01*
X038851Y001934D01*
X038879Y001973D01*
X038909Y002010D01*
X038943Y002044D01*
X038980Y002076D01*
X039018Y002105D01*
X039059Y002130D01*
X039102Y002152D01*
X039147Y002170D01*
X039193Y002184D01*
X039240Y002195D01*
X039288Y002202D01*
X039336Y002205D01*
X039384Y002204D01*
X039432Y002199D01*
X039480Y002190D01*
X039526Y002178D01*
X039571Y002161D01*
X039615Y002141D01*
X039657Y002118D01*
X039697Y002091D01*
X039735Y002061D01*
X039770Y002028D01*
X039802Y001992D01*
X039832Y001954D01*
X039858Y001913D01*
X039880Y001870D01*
X039900Y001826D01*
X039915Y001781D01*
X039927Y001734D01*
X039935Y001686D01*
X039939Y001638D01*
X039939Y001590D01*
X039935Y001542D01*
X039927Y001494D01*
X039915Y001447D01*
X039900Y001402D01*
X039880Y001358D01*
X039858Y001315D01*
X039832Y001274D01*
X039802Y001236D01*
X039770Y001200D01*
X039735Y001167D01*
X039697Y001137D01*
X039657Y001110D01*
X039615Y001087D01*
X039571Y001067D01*
X039526Y001050D01*
X039480Y001038D01*
X039432Y001029D01*
X039384Y001024D01*
X039336Y001023D01*
X039288Y001026D01*
X039240Y001033D01*
X039193Y001044D01*
X039147Y001058D01*
X039102Y001076D01*
X039059Y001098D01*
X039018Y001123D01*
X038980Y001152D01*
X038943Y001184D01*
X038909Y001218D01*
X038879Y001255D01*
X038851Y001294D01*
X038826Y001336D01*
X038806Y001380D01*
X038788Y001425D01*
X038775Y001471D01*
X038765Y001518D01*
X038759Y001566D01*
X038757Y001614D01*
D11*
X035251Y001896D02*
X035349Y002683D01*
X035251Y003471D01*
X024818Y003471D01*
X024719Y002683D01*
X024818Y001896D01*
X035251Y001896D01*
X033489Y002974D02*
X033189Y002974D01*
X033414Y003199D01*
X033414Y002748D01*
X033029Y002748D02*
X032728Y002748D01*
X033029Y003049D01*
X033029Y003124D01*
X032953Y003199D01*
X032803Y003199D01*
X032728Y003124D01*
X032568Y003124D02*
X032568Y002974D01*
X032493Y002899D01*
X032268Y002899D01*
X032418Y002899D02*
X032568Y002748D01*
X032268Y002748D02*
X032268Y003199D01*
X032493Y003199D01*
X032568Y003124D01*
X031440Y002544D02*
X031440Y002469D01*
X031365Y002394D01*
X031215Y002394D01*
X031140Y002469D01*
X031140Y002544D01*
X031215Y002619D01*
X031365Y002619D01*
X031440Y002544D01*
X031365Y002394D02*
X031440Y002319D01*
X031440Y002243D01*
X031365Y002168D01*
X031215Y002168D01*
X031140Y002243D01*
X031140Y002319D01*
X031215Y002394D01*
X030980Y002469D02*
X030905Y002394D01*
X030980Y002319D01*
X030980Y002243D01*
X030905Y002168D01*
X030754Y002168D01*
X030679Y002243D01*
X030519Y002168D02*
X030369Y002319D01*
X030444Y002319D02*
X030219Y002319D01*
X030219Y002168D02*
X030219Y002619D01*
X030444Y002619D01*
X030519Y002544D01*
X030519Y002394D01*
X030444Y002319D01*
X030679Y002544D02*
X030754Y002619D01*
X030905Y002619D01*
X030980Y002544D01*
X030980Y002469D01*
X030905Y002394D02*
X030830Y002394D01*
X030905Y005168D02*
X030905Y005619D01*
X030679Y005394D01*
X030980Y005394D01*
X031140Y005544D02*
X031215Y005619D01*
X031365Y005619D01*
X031440Y005544D01*
X031140Y005243D01*
X031215Y005168D01*
X031365Y005168D01*
X031440Y005243D01*
X031440Y005544D01*
X031140Y005544D02*
X031140Y005243D01*
X030519Y005168D02*
X030369Y005319D01*
X030444Y005319D02*
X030219Y005319D01*
X030219Y005168D02*
X030219Y005619D01*
X030444Y005619D01*
X030519Y005544D01*
X030519Y005394D01*
X030444Y005319D01*
X032268Y005873D02*
X032268Y006324D01*
X032493Y006324D01*
X032568Y006249D01*
X032568Y006099D01*
X032493Y006024D01*
X032268Y006024D01*
X032418Y006024D02*
X032568Y005873D01*
X032728Y005873D02*
X033029Y006174D01*
X033029Y006249D01*
X032953Y006324D01*
X032803Y006324D01*
X032728Y006249D01*
X033189Y006324D02*
X033189Y006099D01*
X033339Y006174D01*
X033414Y006174D01*
X033489Y006099D01*
X033489Y005948D01*
X033414Y005873D01*
X033264Y005873D01*
X033189Y005948D01*
X033029Y005873D02*
X032728Y005873D01*
X033189Y006324D02*
X033489Y006324D01*
X035251Y006471D02*
X035349Y005683D01*
X035251Y004896D01*
X024818Y004896D01*
X024719Y005683D01*
X024818Y006471D01*
X035251Y006471D01*
X035251Y008146D02*
X035349Y008933D01*
X035251Y009721D01*
X024818Y009721D01*
X024719Y008933D01*
X024818Y008146D01*
X035251Y008146D01*
X033489Y009073D02*
X033489Y009374D01*
X033414Y009449D01*
X033264Y009449D01*
X033189Y009374D01*
X033189Y009299D01*
X033264Y009224D01*
X033489Y009224D01*
X033489Y009073D02*
X033414Y008998D01*
X033264Y008998D01*
X033189Y009073D01*
X033029Y008998D02*
X032728Y008998D01*
X032878Y008998D02*
X032878Y009449D01*
X032728Y009299D01*
X032568Y009374D02*
X032493Y009449D01*
X032268Y009449D01*
X032268Y008998D01*
X032268Y009149D02*
X032493Y009149D01*
X032568Y009224D01*
X032568Y009374D01*
X032418Y009149D02*
X032568Y008998D01*
X035251Y011021D02*
X035349Y011808D01*
X035251Y012596D01*
X024818Y012596D01*
X024719Y011808D01*
X024818Y011021D01*
X035251Y011021D01*
X033489Y011948D02*
X033414Y011873D01*
X033264Y011873D01*
X033189Y011948D01*
X033189Y012024D01*
X033264Y012099D01*
X033414Y012099D01*
X033489Y012024D01*
X033489Y011948D01*
X033414Y012099D02*
X033489Y012174D01*
X033489Y012249D01*
X033414Y012324D01*
X033264Y012324D01*
X033189Y012249D01*
X033189Y012174D01*
X033264Y012099D01*
X033029Y011873D02*
X032728Y011873D01*
X032878Y011873D02*
X032878Y012324D01*
X032728Y012174D01*
X032568Y012249D02*
X032493Y012324D01*
X032268Y012324D01*
X032268Y011873D01*
X032268Y012024D02*
X032493Y012024D01*
X032568Y012099D01*
X032568Y012249D01*
X032418Y012024D02*
X032568Y011873D01*
X031440Y011669D02*
X031440Y011594D01*
X031365Y011519D01*
X031215Y011519D01*
X031140Y011594D01*
X031140Y011669D01*
X031215Y011744D01*
X031365Y011744D01*
X031440Y011669D01*
X031365Y011519D02*
X031440Y011444D01*
X031440Y011368D01*
X031365Y011293D01*
X031215Y011293D01*
X031140Y011368D01*
X031140Y011444D01*
X031215Y011519D01*
X030980Y011594D02*
X030679Y011293D01*
X030980Y011293D01*
X030519Y011293D02*
X030369Y011444D01*
X030444Y011444D02*
X030219Y011444D01*
X030219Y011293D02*
X030219Y011744D01*
X030444Y011744D01*
X030519Y011669D01*
X030519Y011519D01*
X030444Y011444D01*
X030679Y011669D02*
X030754Y011744D01*
X030905Y011744D01*
X030980Y011669D01*
X030980Y011594D01*
X035251Y014146D02*
X035349Y014933D01*
X035251Y015721D01*
X024818Y015721D01*
X024719Y014933D01*
X024818Y014146D01*
X035251Y014146D01*
X031440Y014493D02*
X031365Y014418D01*
X031215Y014418D01*
X031140Y014493D01*
X031440Y014794D01*
X031440Y014493D01*
X031140Y014493D02*
X031140Y014794D01*
X031215Y014869D01*
X031365Y014869D01*
X031440Y014794D01*
X030980Y014794D02*
X030980Y014719D01*
X030905Y014644D01*
X030980Y014569D01*
X030980Y014493D01*
X030905Y014418D01*
X030754Y014418D01*
X030679Y014493D01*
X030519Y014418D02*
X030369Y014569D01*
X030444Y014569D02*
X030219Y014569D01*
X030219Y014418D02*
X030219Y014869D01*
X030444Y014869D01*
X030519Y014794D01*
X030519Y014644D01*
X030444Y014569D01*
X030679Y014794D02*
X030754Y014869D01*
X030905Y014869D01*
X030980Y014794D01*
X030905Y014644D02*
X030830Y014644D01*
X029739Y015073D02*
X029739Y015374D01*
X029439Y015073D01*
X029514Y014998D01*
X029664Y014998D01*
X029739Y015073D01*
X029439Y015073D02*
X029439Y015374D01*
X029514Y015449D01*
X029664Y015449D01*
X029739Y015374D01*
X029279Y015374D02*
X029279Y015299D01*
X028978Y014998D01*
X029279Y014998D01*
X028818Y014998D02*
X028668Y015149D01*
X028743Y015149D02*
X028518Y015149D01*
X028518Y014998D02*
X028518Y015449D01*
X028743Y015449D01*
X028818Y015374D01*
X028818Y015224D01*
X028743Y015149D01*
X028978Y015374D02*
X029053Y015449D01*
X029203Y015449D01*
X029279Y015374D01*
X030219Y017293D02*
X030219Y017744D01*
X030444Y017744D01*
X030519Y017669D01*
X030519Y017519D01*
X030444Y017444D01*
X030219Y017444D01*
X030369Y017444D02*
X030519Y017293D01*
X030679Y017368D02*
X030754Y017293D01*
X030905Y017293D01*
X030980Y017368D01*
X030980Y017444D01*
X030905Y017519D01*
X030830Y017519D01*
X030905Y017519D02*
X030980Y017594D01*
X030980Y017669D01*
X030905Y017744D01*
X030754Y017744D01*
X030679Y017669D01*
X031140Y017669D02*
X031215Y017744D01*
X031365Y017744D01*
X031440Y017669D01*
X031440Y017594D01*
X031140Y017293D01*
X031440Y017293D01*
X030239Y017998D02*
X029939Y017998D01*
X030089Y017998D02*
X030089Y018449D01*
X029939Y018299D01*
X029779Y018299D02*
X029478Y017998D01*
X029779Y017998D01*
X029779Y018299D02*
X029779Y018374D01*
X029703Y018449D01*
X029553Y018449D01*
X029478Y018374D01*
X029318Y018374D02*
X029243Y018449D01*
X029018Y018449D01*
X029018Y017998D01*
X029018Y018149D02*
X029243Y018149D01*
X029318Y018224D01*
X029318Y018374D01*
X029168Y018149D02*
X029318Y017998D01*
X025495Y018130D02*
X025495Y017737D01*
X025258Y017737D01*
X025219Y017933D02*
X025318Y017146D01*
X035751Y017146D01*
X035849Y017933D01*
X035751Y018721D01*
X025318Y018721D01*
X025219Y017933D01*
X025258Y018130D02*
X025495Y018130D01*
X025289Y018373D02*
X025139Y018373D01*
X025064Y018448D01*
X025064Y018524D01*
X025139Y018599D01*
X025289Y018599D01*
X025364Y018524D01*
X025364Y018448D01*
X025289Y018373D01*
X025289Y018599D02*
X025364Y018674D01*
X025364Y018749D01*
X025289Y018824D01*
X025139Y018824D01*
X025064Y018749D01*
X025064Y018674D01*
X025139Y018599D01*
X024904Y018599D02*
X024828Y018524D01*
X024603Y018524D01*
X024753Y018524D02*
X024904Y018373D01*
X024904Y018599D02*
X024904Y018749D01*
X024828Y018824D01*
X024603Y018824D01*
X024603Y018373D01*
X023105Y017994D02*
X023105Y017919D01*
X022804Y017618D01*
X022804Y017543D01*
X022644Y017543D02*
X022494Y017694D01*
X022569Y017694D02*
X022344Y017694D01*
X022344Y017543D02*
X022344Y017994D01*
X022569Y017994D01*
X022644Y017919D01*
X022644Y017769D01*
X022569Y017694D01*
X022804Y017994D02*
X023105Y017994D01*
X021250Y018928D02*
X020950Y018928D01*
X021100Y018928D02*
X021100Y019379D01*
X020950Y019229D01*
X020790Y019304D02*
X020715Y019379D01*
X020489Y019379D01*
X020489Y018928D01*
X020489Y019079D02*
X020715Y019079D01*
X020790Y019154D01*
X020790Y019304D01*
X020740Y019418D02*
X020590Y019418D01*
X020515Y019493D01*
X020355Y019493D02*
X020280Y019418D01*
X020129Y019418D01*
X020054Y019493D01*
X020179Y019379D02*
X020329Y019379D01*
X020254Y019379D02*
X020254Y019003D01*
X020179Y018928D01*
X020104Y018928D01*
X020029Y019003D01*
X019894Y019418D02*
X019744Y019569D01*
X019819Y019569D02*
X019594Y019569D01*
X019594Y019418D02*
X019594Y019869D01*
X019819Y019869D01*
X019894Y019794D01*
X019894Y019644D01*
X019819Y019569D01*
X020054Y019794D02*
X020129Y019869D01*
X020280Y019869D01*
X020355Y019794D01*
X020355Y019719D01*
X020280Y019644D01*
X020355Y019569D01*
X020355Y019493D01*
X020280Y019644D02*
X020205Y019644D01*
X020515Y019794D02*
X020590Y019869D01*
X020740Y019869D01*
X020815Y019794D01*
X020815Y019719D01*
X020740Y019644D01*
X020815Y019569D01*
X020815Y019493D01*
X020740Y019418D01*
X020740Y019644D02*
X020665Y019644D01*
X020665Y017369D02*
X020665Y016918D01*
X020515Y016918D02*
X020815Y016918D01*
X020355Y016993D02*
X020280Y016918D01*
X020129Y016918D01*
X020054Y016993D01*
X019894Y016918D02*
X019744Y017069D01*
X019819Y017069D02*
X019594Y017069D01*
X019594Y016918D02*
X019594Y017369D01*
X019819Y017369D01*
X019894Y017294D01*
X019894Y017144D01*
X019819Y017069D01*
X020054Y017294D02*
X020129Y017369D01*
X020280Y017369D01*
X020355Y017294D01*
X020355Y017219D01*
X020280Y017144D01*
X020355Y017069D01*
X020355Y016993D01*
X020280Y017144D02*
X020205Y017144D01*
X020515Y017219D02*
X020665Y017369D01*
X020740Y015494D02*
X020590Y015494D01*
X020515Y015419D01*
X020515Y015344D01*
X020590Y015269D01*
X020815Y015269D01*
X020815Y015419D02*
X020815Y015118D01*
X020740Y015043D01*
X020590Y015043D01*
X020515Y015118D01*
X020355Y015043D02*
X020054Y015043D01*
X020355Y015344D01*
X020355Y015419D01*
X020280Y015494D01*
X020129Y015494D01*
X020054Y015419D01*
X019894Y015419D02*
X019894Y015269D01*
X019819Y015194D01*
X019594Y015194D01*
X019744Y015194D02*
X019894Y015043D01*
X019594Y015043D02*
X019594Y015494D01*
X019819Y015494D01*
X019894Y015419D01*
X020740Y015494D02*
X020815Y015419D01*
X020815Y013369D02*
X020815Y013294D01*
X020515Y012993D01*
X020515Y012918D01*
X020355Y012918D02*
X020054Y012918D01*
X020355Y013219D01*
X020355Y013294D01*
X020280Y013369D01*
X020129Y013369D01*
X020054Y013294D01*
X019894Y013294D02*
X019894Y013144D01*
X019819Y013069D01*
X019594Y013069D01*
X019744Y013069D02*
X019894Y012918D01*
X019594Y012918D02*
X019594Y013369D01*
X019819Y013369D01*
X019894Y013294D01*
X020515Y013369D02*
X020815Y013369D01*
X024144Y012938D02*
X024219Y013013D01*
X024294Y013013D01*
X024369Y012938D01*
X024444Y013013D01*
X024519Y013013D01*
X024594Y012938D01*
X024594Y012788D01*
X024519Y012713D01*
X024594Y012553D02*
X024444Y012403D01*
X024444Y012478D02*
X024444Y012253D01*
X024594Y012253D02*
X024144Y012253D01*
X024144Y012478D01*
X024219Y012553D01*
X024369Y012553D01*
X024444Y012478D01*
X024219Y012713D02*
X024144Y012788D01*
X024144Y012938D01*
X024369Y012938D02*
X024369Y012863D01*
X024894Y012938D02*
X025119Y012713D01*
X025119Y013013D01*
X025344Y012938D02*
X024894Y012938D01*
X024969Y012553D02*
X025119Y012553D01*
X025194Y012478D01*
X025194Y012253D01*
X025194Y012403D02*
X025344Y012553D01*
X024969Y012553D02*
X024894Y012478D01*
X024894Y012253D01*
X025344Y012253D01*
X024995Y012005D02*
X024758Y012005D01*
X024995Y012005D02*
X024995Y011612D01*
X024758Y011612D01*
X024594Y010138D02*
X024594Y009838D01*
X024594Y009988D02*
X024144Y009988D01*
X024294Y009838D01*
X024369Y009678D02*
X024444Y009603D01*
X024444Y009378D01*
X024444Y009528D02*
X024594Y009678D01*
X024369Y009678D02*
X024219Y009678D01*
X024144Y009603D01*
X024144Y009378D01*
X024594Y009378D01*
X024758Y009130D02*
X024995Y009130D01*
X024995Y008737D01*
X024758Y008737D01*
X024894Y009378D02*
X024894Y009603D01*
X024969Y009678D01*
X025119Y009678D01*
X025194Y009603D01*
X025194Y009378D01*
X025194Y009528D02*
X025344Y009678D01*
X025344Y009838D02*
X025044Y010138D01*
X024969Y010138D01*
X024894Y010063D01*
X024894Y009913D01*
X024969Y009838D01*
X025344Y009838D02*
X025344Y010138D01*
X025344Y009378D02*
X024894Y009378D01*
X023864Y007699D02*
X023714Y007624D01*
X023564Y007474D01*
X023789Y007474D01*
X023864Y007399D01*
X023864Y007323D01*
X023789Y007248D01*
X023639Y007248D01*
X023564Y007323D01*
X023564Y007474D01*
X023404Y007549D02*
X023103Y007248D01*
X023404Y007248D01*
X022943Y007248D02*
X022793Y007399D01*
X022868Y007399D02*
X022643Y007399D01*
X022643Y007248D02*
X022643Y007699D01*
X022868Y007699D01*
X022943Y007624D01*
X022943Y007474D01*
X022868Y007399D01*
X023103Y007624D02*
X023178Y007699D01*
X023328Y007699D01*
X023404Y007624D01*
X023404Y007549D01*
X022315Y006369D02*
X022015Y006369D01*
X022015Y006144D01*
X022165Y006219D01*
X022240Y006219D01*
X022315Y006144D01*
X022315Y005993D01*
X022240Y005918D01*
X022090Y005918D01*
X022015Y005993D01*
X021855Y005918D02*
X021554Y005918D01*
X021705Y005918D02*
X021705Y006369D01*
X021554Y006219D01*
X021394Y006294D02*
X021394Y006144D01*
X021319Y006069D01*
X021094Y006069D01*
X021244Y006069D02*
X021394Y005918D01*
X021094Y005918D02*
X021094Y006369D01*
X021319Y006369D01*
X021394Y006294D01*
X022893Y005699D02*
X022893Y005248D01*
X022893Y005399D02*
X023118Y005399D01*
X023193Y005474D01*
X023193Y005624D01*
X023118Y005699D01*
X022893Y005699D01*
X023353Y005549D02*
X023503Y005699D01*
X023503Y005248D01*
X023353Y005248D02*
X023654Y005248D01*
X023814Y005323D02*
X023814Y005474D01*
X024039Y005474D01*
X024114Y005399D01*
X024114Y005323D01*
X024039Y005248D01*
X023889Y005248D01*
X023814Y005323D01*
X023814Y005474D02*
X023964Y005624D01*
X024114Y005699D01*
X024758Y005880D02*
X024995Y005880D01*
X024995Y005487D01*
X024758Y005487D01*
X023193Y005248D02*
X023043Y005399D01*
X023128Y003699D02*
X023128Y003248D01*
X022978Y003248D02*
X023279Y003248D01*
X023439Y003474D02*
X023739Y003474D01*
X023664Y003699D02*
X023664Y003248D01*
X023439Y003474D02*
X023664Y003699D01*
X023128Y003699D02*
X022978Y003549D01*
X022818Y003624D02*
X022818Y003474D01*
X022743Y003399D01*
X022518Y003399D01*
X022668Y003399D02*
X022818Y003248D01*
X022518Y003248D02*
X022518Y003699D01*
X022743Y003699D01*
X022818Y003624D01*
X024758Y002880D02*
X024995Y002880D01*
X024995Y002487D01*
X024758Y002487D01*
X023299Y002139D02*
X023299Y001989D01*
X023224Y001914D01*
X023299Y001754D02*
X023299Y001454D01*
X023299Y001604D02*
X022849Y001604D01*
X022999Y001454D01*
X023074Y001294D02*
X023149Y001219D01*
X023149Y000993D01*
X023299Y000993D02*
X022849Y000993D01*
X022849Y001219D01*
X022924Y001294D01*
X023074Y001294D01*
X023149Y001144D02*
X023299Y001294D01*
X022924Y001914D02*
X022849Y001989D01*
X022849Y002139D01*
X022924Y002214D01*
X022999Y002214D01*
X023074Y002139D01*
X023149Y002214D01*
X023224Y002214D01*
X023299Y002139D01*
X023074Y002139D02*
X023074Y002064D01*
X018895Y004958D02*
X018594Y004958D01*
X018745Y004958D02*
X018745Y005409D01*
X018594Y005259D01*
X018434Y005334D02*
X018359Y005409D01*
X018209Y005409D01*
X018134Y005334D01*
X018134Y005033D01*
X018209Y004958D01*
X018359Y004958D01*
X018434Y005033D01*
X017385Y004234D02*
X017310Y004309D01*
X017160Y004309D01*
X017085Y004234D01*
X017085Y004159D01*
X017160Y004084D01*
X017385Y004084D01*
X017385Y004234D02*
X017385Y003933D01*
X017310Y003858D01*
X017160Y003858D01*
X017085Y003933D01*
X016925Y003933D02*
X016925Y004009D01*
X016850Y004084D01*
X016699Y004084D01*
X016624Y004159D01*
X016624Y004234D01*
X016699Y004309D01*
X016850Y004309D01*
X016925Y004234D01*
X016775Y004384D02*
X016775Y003783D01*
X016850Y003858D02*
X016925Y003933D01*
X016850Y003858D02*
X016699Y003858D01*
X016624Y003933D01*
X016464Y003933D02*
X016464Y004309D01*
X016164Y004309D02*
X016164Y003933D01*
X016239Y003858D01*
X016389Y003858D01*
X016464Y003933D01*
X015594Y003063D02*
X015519Y003138D01*
X015444Y003138D01*
X015369Y003063D01*
X015369Y002988D01*
X015369Y003063D02*
X015294Y003138D01*
X015219Y003138D01*
X015144Y003063D01*
X015144Y002913D01*
X015219Y002838D01*
X015369Y002678D02*
X015369Y002378D01*
X015144Y002603D01*
X015594Y002603D01*
X015519Y002838D02*
X015594Y002913D01*
X015594Y003063D01*
X015594Y002217D02*
X015444Y002067D01*
X015444Y002142D02*
X015444Y001917D01*
X015594Y001917D02*
X015144Y001917D01*
X015144Y002142D01*
X015219Y002217D01*
X015369Y002217D01*
X015444Y002142D01*
X015024Y001859D02*
X015024Y001408D01*
X014874Y001408D02*
X015174Y001408D01*
X014714Y001483D02*
X014714Y001784D01*
X014638Y001859D01*
X014413Y001859D01*
X014413Y001408D01*
X014638Y001408D01*
X014714Y001483D01*
X014874Y001709D02*
X015024Y001859D01*
X017224Y001804D02*
X017449Y001579D01*
X017449Y001879D01*
X017299Y002039D02*
X017224Y002114D01*
X017224Y002264D01*
X017299Y002339D01*
X017374Y002339D01*
X017674Y002039D01*
X017674Y002339D01*
X017674Y001804D02*
X017224Y001804D01*
X017299Y001419D02*
X017449Y001419D01*
X017524Y001344D01*
X017524Y001118D01*
X017674Y001118D02*
X017224Y001118D01*
X017224Y001344D01*
X017299Y001419D01*
X017524Y001269D02*
X017674Y001419D01*
X013376Y003896D02*
X013474Y004683D01*
X013376Y005471D01*
X002943Y005471D01*
X002844Y004683D01*
X002943Y003896D01*
X013376Y003896D01*
X013435Y004487D02*
X013198Y004487D01*
X013198Y004880D01*
X013435Y004880D01*
X013469Y006292D02*
X013019Y006292D01*
X013019Y006517D01*
X013094Y006592D01*
X013244Y006592D01*
X013319Y006517D01*
X013319Y006292D01*
X013319Y006442D02*
X013469Y006592D01*
X013469Y006753D02*
X013469Y007053D01*
X013469Y006903D02*
X013019Y006903D01*
X013169Y006753D01*
X013094Y007213D02*
X013019Y007288D01*
X013019Y007438D01*
X013094Y007513D01*
X013169Y007513D01*
X013469Y007213D01*
X013469Y007513D01*
X013894Y007738D02*
X014344Y007738D01*
X014344Y007588D02*
X014344Y007888D01*
X014044Y007588D02*
X013894Y007738D01*
X014344Y007428D02*
X014344Y007128D01*
X014344Y007278D02*
X013894Y007278D01*
X014044Y007128D01*
X014119Y006967D02*
X014194Y006892D01*
X014194Y006667D01*
X014344Y006667D02*
X013894Y006667D01*
X013894Y006892D01*
X013969Y006967D01*
X014119Y006967D01*
X014194Y006817D02*
X014344Y006967D01*
X013376Y008146D02*
X013474Y008933D01*
X013376Y009721D01*
X002943Y009721D01*
X002844Y008933D01*
X002943Y008146D01*
X013376Y008146D01*
X013435Y008737D02*
X013198Y008737D01*
X013198Y009130D01*
X013435Y009130D01*
X014159Y009933D02*
X014159Y011933D01*
X014161Y011977D01*
X014167Y012020D01*
X014176Y012062D01*
X014189Y012104D01*
X014206Y012144D01*
X014226Y012183D01*
X014249Y012220D01*
X014276Y012254D01*
X014305Y012287D01*
X014338Y012316D01*
X014372Y012343D01*
X014409Y012366D01*
X014448Y012386D01*
X014488Y012403D01*
X014530Y012416D01*
X014572Y012425D01*
X014615Y012431D01*
X014659Y012433D01*
X014703Y012431D01*
X014746Y012425D01*
X014788Y012416D01*
X014830Y012403D01*
X014870Y012386D01*
X014909Y012366D01*
X014946Y012343D01*
X014980Y012316D01*
X015013Y012287D01*
X015042Y012254D01*
X015069Y012220D01*
X015092Y012183D01*
X015112Y012144D01*
X015129Y012104D01*
X015142Y012062D01*
X015151Y012020D01*
X015157Y011977D01*
X015159Y011933D01*
X015159Y009933D01*
X015157Y009889D01*
X015151Y009846D01*
X015142Y009804D01*
X015129Y009762D01*
X015112Y009722D01*
X015092Y009683D01*
X015069Y009646D01*
X015042Y009612D01*
X015013Y009579D01*
X014980Y009550D01*
X014946Y009523D01*
X014909Y009500D01*
X014870Y009480D01*
X014830Y009463D01*
X014788Y009450D01*
X014746Y009441D01*
X014703Y009435D01*
X014659Y009433D01*
X014615Y009435D01*
X014572Y009441D01*
X014530Y009450D01*
X014488Y009463D01*
X014448Y009480D01*
X014409Y009500D01*
X014372Y009523D01*
X014338Y009550D01*
X014305Y009579D01*
X014276Y009612D01*
X014249Y009646D01*
X014226Y009683D01*
X014206Y009722D01*
X014189Y009762D01*
X014176Y009804D01*
X014167Y009846D01*
X014161Y009889D01*
X014159Y009933D01*
X013594Y010417D02*
X013144Y010417D01*
X013144Y010642D01*
X013219Y010717D01*
X013369Y010717D01*
X013444Y010642D01*
X013444Y010417D01*
X013444Y010567D02*
X013594Y010717D01*
X013594Y010878D02*
X013594Y011178D01*
X013594Y011028D02*
X013144Y011028D01*
X013294Y010878D01*
X013219Y011338D02*
X013144Y011413D01*
X013144Y011563D01*
X013219Y011638D01*
X013519Y011338D01*
X013594Y011413D01*
X013594Y011563D01*
X013519Y011638D01*
X013219Y011638D01*
X013219Y011338D02*
X013519Y011338D01*
X012594Y011413D02*
X012594Y011563D01*
X012519Y011638D01*
X012219Y011638D01*
X012144Y011563D01*
X012144Y011413D01*
X012219Y011338D01*
X012294Y011338D01*
X012369Y011413D01*
X012369Y011638D01*
X012594Y011413D02*
X012519Y011338D01*
X012594Y011178D02*
X012444Y011028D01*
X012444Y011103D02*
X012444Y010878D01*
X012594Y010878D02*
X012144Y010878D01*
X012144Y011103D01*
X012219Y011178D01*
X012369Y011178D01*
X012444Y011103D01*
X009934Y012433D02*
X009934Y012659D01*
X009859Y012734D01*
X009559Y012734D01*
X009484Y012659D01*
X009484Y012433D01*
X009934Y012433D01*
X009424Y012544D02*
X009274Y012394D01*
X009274Y012469D02*
X009274Y012243D01*
X009424Y012243D02*
X008974Y012243D01*
X008974Y012469D01*
X009049Y012544D01*
X009199Y012544D01*
X009274Y012469D01*
X009349Y012704D02*
X009424Y012779D01*
X009424Y012929D01*
X009349Y013004D01*
X009199Y013004D01*
X009124Y012929D01*
X009124Y012854D01*
X009199Y012704D01*
X008974Y012704D01*
X008974Y013004D01*
X009124Y013164D02*
X008974Y013314D01*
X009424Y013314D01*
X009484Y013194D02*
X009484Y012894D01*
X009709Y012894D01*
X009634Y013044D01*
X009634Y013119D01*
X009709Y013194D01*
X009859Y013194D01*
X009934Y013119D01*
X009934Y012969D01*
X009859Y012894D01*
X009424Y013164D02*
X009424Y013464D01*
X008184Y013594D02*
X008184Y013744D01*
X008109Y013819D01*
X008034Y013819D01*
X007959Y013744D01*
X007959Y013519D01*
X008109Y013519D01*
X008184Y013594D01*
X007959Y013519D02*
X007809Y013669D01*
X007734Y013819D01*
X007674Y013864D02*
X007599Y013789D01*
X007299Y014089D01*
X007599Y014089D01*
X007674Y014014D01*
X007674Y013864D01*
X007599Y013789D02*
X007299Y013789D01*
X007224Y013864D01*
X007224Y014014D01*
X007299Y014089D01*
X007224Y013629D02*
X007224Y013329D01*
X007449Y013329D01*
X007374Y013479D01*
X007374Y013554D01*
X007449Y013629D01*
X007599Y013629D01*
X007674Y013554D01*
X007674Y013404D01*
X007599Y013329D01*
X007734Y013284D02*
X007734Y013058D01*
X008184Y013058D01*
X008184Y013284D01*
X008109Y013359D01*
X007809Y013359D01*
X007734Y013284D01*
X007674Y013169D02*
X007524Y013019D01*
X007524Y013094D02*
X007524Y012868D01*
X007674Y012868D02*
X007224Y012868D01*
X007224Y013094D01*
X007299Y013169D01*
X007449Y013169D01*
X007524Y013094D01*
X007076Y011746D02*
X007076Y017746D01*
X001486Y017746D01*
X001486Y011746D01*
X007076Y011746D01*
X007393Y010324D02*
X007618Y010324D01*
X007693Y010249D01*
X007693Y010099D01*
X007618Y010024D01*
X007393Y010024D01*
X007543Y010024D02*
X007693Y009873D01*
X007853Y009948D02*
X007928Y009873D01*
X008078Y009873D01*
X008154Y009948D01*
X008154Y010024D01*
X008078Y010099D01*
X008003Y010099D01*
X008078Y010099D02*
X008154Y010174D01*
X008154Y010249D01*
X008078Y010324D01*
X007928Y010324D01*
X007853Y010249D01*
X007393Y010324D02*
X007393Y009873D01*
X007768Y009699D02*
X007993Y009699D01*
X008068Y009624D01*
X008068Y009474D01*
X007993Y009399D01*
X007768Y009399D01*
X007918Y009399D02*
X008068Y009248D01*
X008228Y009323D02*
X008303Y009248D01*
X008453Y009248D01*
X008529Y009323D01*
X008529Y009399D01*
X008453Y009474D01*
X008378Y009474D01*
X008453Y009474D02*
X008529Y009549D01*
X008529Y009624D01*
X008453Y009699D01*
X008303Y009699D01*
X008228Y009624D01*
X008539Y009873D02*
X008539Y010324D01*
X008314Y010099D01*
X008614Y010099D01*
X008689Y009699D02*
X008689Y009474D01*
X008839Y009549D01*
X008914Y009549D01*
X008989Y009474D01*
X008989Y009323D01*
X008914Y009248D01*
X008764Y009248D01*
X008689Y009323D01*
X008689Y009699D02*
X008989Y009699D01*
X007768Y009699D02*
X007768Y009248D01*
X006565Y008794D02*
X006565Y008719D01*
X006265Y008418D01*
X006565Y008418D01*
X006565Y008794D02*
X006490Y008869D01*
X006340Y008869D01*
X006265Y008794D01*
X006105Y008794D02*
X006105Y008719D01*
X005804Y008418D01*
X006105Y008418D01*
X005644Y008418D02*
X005494Y008569D01*
X005569Y008569D02*
X005344Y008569D01*
X005344Y008418D02*
X005344Y008869D01*
X005569Y008869D01*
X005644Y008794D01*
X005644Y008644D01*
X005569Y008569D01*
X005804Y008794D02*
X005879Y008869D01*
X006030Y008869D01*
X006105Y008794D01*
X006643Y005949D02*
X006868Y005949D01*
X006943Y005874D01*
X006943Y005724D01*
X006868Y005649D01*
X006643Y005649D01*
X006793Y005649D02*
X006943Y005498D01*
X007103Y005573D02*
X007178Y005498D01*
X007328Y005498D01*
X007404Y005573D01*
X007404Y005649D01*
X007328Y005724D01*
X007253Y005724D01*
X007328Y005724D02*
X007404Y005799D01*
X007404Y005874D01*
X007328Y005949D01*
X007178Y005949D01*
X007103Y005874D01*
X006643Y005949D02*
X006643Y005498D01*
X006643Y005199D02*
X006868Y005199D01*
X006943Y005124D01*
X006943Y004974D01*
X006868Y004899D01*
X006643Y004899D01*
X006793Y004899D02*
X006943Y004748D01*
X007103Y004823D02*
X007178Y004748D01*
X007328Y004748D01*
X007404Y004823D01*
X007404Y004899D01*
X007328Y004974D01*
X007253Y004974D01*
X007328Y004974D02*
X007404Y005049D01*
X007404Y005124D01*
X007328Y005199D01*
X007178Y005199D01*
X007103Y005124D01*
X006643Y005199D02*
X006643Y004748D01*
X007564Y004748D02*
X007564Y004823D01*
X007864Y005124D01*
X007864Y005199D01*
X007564Y005199D01*
X007639Y005498D02*
X007789Y005498D01*
X007864Y005573D01*
X007864Y005649D01*
X007789Y005724D01*
X007564Y005724D01*
X007564Y005573D01*
X007639Y005498D01*
X007564Y005724D02*
X007714Y005874D01*
X007864Y005949D01*
X007844Y004119D02*
X008069Y004119D01*
X008144Y004044D01*
X008144Y003894D01*
X008069Y003819D01*
X007844Y003819D01*
X007994Y003819D02*
X008144Y003668D01*
X008304Y003668D02*
X008605Y003969D01*
X008605Y004044D01*
X008530Y004119D01*
X008379Y004119D01*
X008304Y004044D01*
X008765Y004044D02*
X008840Y004119D01*
X008990Y004119D01*
X009065Y004044D01*
X009065Y003969D01*
X008990Y003894D01*
X009065Y003819D01*
X009065Y003743D01*
X008990Y003668D01*
X008840Y003668D01*
X008765Y003743D01*
X008605Y003668D02*
X008304Y003668D01*
X007844Y003668D02*
X007844Y004119D01*
X008915Y003894D02*
X008990Y003894D01*
X010413Y002109D02*
X010638Y002109D01*
X010714Y002034D01*
X010714Y001733D01*
X010638Y001658D01*
X010413Y001658D01*
X010413Y002109D01*
X010874Y002034D02*
X010949Y002109D01*
X011099Y002109D01*
X011174Y002034D01*
X011174Y001959D01*
X010874Y001658D01*
X011174Y001658D01*
X015634Y005033D02*
X015709Y004958D01*
X015859Y004958D01*
X015934Y005033D01*
X016094Y005184D02*
X016395Y005184D01*
X016320Y005409D02*
X016094Y005184D01*
X015934Y005334D02*
X015859Y005409D01*
X015709Y005409D01*
X015634Y005334D01*
X015634Y005033D01*
X016320Y004958D02*
X016320Y005409D01*
X019594Y007418D02*
X019594Y007869D01*
X019819Y007869D01*
X019894Y007794D01*
X019894Y007644D01*
X019819Y007569D01*
X019594Y007569D01*
X019744Y007569D02*
X019894Y007418D01*
X020054Y007493D02*
X020129Y007418D01*
X020280Y007418D01*
X020355Y007493D01*
X020355Y007569D01*
X020280Y007644D01*
X020205Y007644D01*
X020280Y007644D02*
X020355Y007719D01*
X020355Y007794D01*
X020280Y007869D01*
X020129Y007869D01*
X020054Y007794D01*
X020515Y007794D02*
X020515Y007719D01*
X020590Y007644D01*
X020815Y007644D01*
X020815Y007794D02*
X020815Y007493D01*
X020740Y007418D01*
X020590Y007418D01*
X020515Y007493D01*
X020515Y007794D02*
X020590Y007869D01*
X020740Y007869D01*
X020815Y007794D01*
X020815Y009418D02*
X020515Y009418D01*
X020665Y009418D02*
X020665Y009869D01*
X020515Y009719D01*
X020355Y009644D02*
X020054Y009644D01*
X020280Y009869D01*
X020280Y009418D01*
X019894Y009418D02*
X019744Y009569D01*
X019819Y009569D02*
X019594Y009569D01*
X019594Y009418D02*
X019594Y009869D01*
X019819Y009869D01*
X019894Y009794D01*
X019894Y009644D01*
X019819Y009569D01*
X018984Y010263D02*
X018984Y010413D01*
X018909Y010488D01*
X018984Y010648D02*
X018684Y010948D01*
X018609Y010948D01*
X018534Y010873D01*
X018534Y010723D01*
X018609Y010648D01*
X018609Y010488D02*
X018534Y010413D01*
X018534Y010263D01*
X018609Y010188D01*
X018909Y010188D01*
X018984Y010263D01*
X018984Y010648D02*
X018984Y010948D01*
X012684Y013433D02*
X012684Y013659D01*
X012609Y013734D01*
X012309Y013734D01*
X012234Y013659D01*
X012234Y013433D01*
X012684Y013433D01*
X012684Y013894D02*
X012609Y013894D01*
X012309Y014194D01*
X012234Y014194D01*
X012234Y013894D01*
X012174Y013929D02*
X011724Y013929D01*
X011949Y013704D01*
X011949Y014004D01*
X012099Y014164D02*
X012174Y014164D01*
X012099Y014164D02*
X011799Y014464D01*
X011724Y014464D01*
X011724Y014164D01*
X011799Y013544D02*
X011949Y013544D01*
X012024Y013469D01*
X012024Y013243D01*
X012174Y013243D02*
X011724Y013243D01*
X011724Y013469D01*
X011799Y013544D01*
X012024Y013394D02*
X012174Y013544D01*
X010844Y015042D02*
X010394Y015042D01*
X010394Y015267D01*
X010469Y015342D01*
X010619Y015342D01*
X010694Y015267D01*
X010694Y015042D01*
X010694Y015192D02*
X010844Y015342D01*
X010884Y015313D02*
X010884Y015538D01*
X010959Y015613D01*
X011259Y015613D01*
X011334Y015538D01*
X011334Y015313D01*
X010884Y015313D01*
X010619Y015503D02*
X010619Y015803D01*
X010619Y015963D02*
X010619Y016188D01*
X010694Y016263D01*
X010769Y016263D01*
X010844Y016188D01*
X010844Y016038D01*
X010769Y015963D01*
X010619Y015963D01*
X010469Y016113D01*
X010394Y016263D01*
X010884Y015998D02*
X010959Y016073D01*
X011034Y016073D01*
X011109Y015998D01*
X011109Y015848D01*
X011034Y015773D01*
X010959Y015773D01*
X010884Y015848D01*
X010884Y015998D01*
X011109Y015998D02*
X011184Y016073D01*
X011259Y016073D01*
X011334Y015998D01*
X011334Y015848D01*
X011259Y015773D01*
X011184Y015773D01*
X011109Y015848D01*
X010844Y015728D02*
X010394Y015728D01*
X010619Y015503D01*
X011109Y016188D02*
X011109Y016413D01*
X011184Y016488D01*
X011484Y016488D01*
X011559Y016413D01*
X011559Y016188D01*
X011109Y016188D01*
X011334Y016648D02*
X011334Y016948D01*
X011559Y016873D02*
X011109Y016873D01*
X011334Y016648D01*
X009584Y016723D02*
X009509Y016648D01*
X009209Y016948D01*
X009509Y016948D01*
X009584Y016873D01*
X009584Y016723D01*
X009559Y016723D02*
X009484Y016648D01*
X009509Y016648D02*
X009209Y016648D01*
X009134Y016723D01*
X009134Y016873D01*
X009209Y016948D01*
X009184Y016948D02*
X009259Y016948D01*
X009334Y016873D01*
X009409Y016948D01*
X009484Y016948D01*
X009559Y016873D01*
X009559Y016723D01*
X009584Y016488D02*
X009584Y016188D01*
X009559Y016188D02*
X009559Y016413D01*
X009484Y016488D01*
X009184Y016488D01*
X009109Y016413D01*
X009109Y016188D01*
X009559Y016188D01*
X009584Y016338D02*
X009134Y016338D01*
X009284Y016188D01*
X009209Y016027D02*
X009134Y015952D01*
X009134Y015727D01*
X009584Y015727D01*
X009584Y015952D01*
X009509Y016027D01*
X009209Y016027D01*
X009094Y015917D02*
X008644Y015917D01*
X008644Y016142D01*
X008719Y016217D01*
X008869Y016217D01*
X008944Y016142D01*
X008944Y015917D01*
X008944Y016067D02*
X009094Y016217D01*
X008869Y016378D02*
X008869Y016678D01*
X008944Y016838D02*
X008869Y016913D01*
X008869Y017063D01*
X008944Y017138D01*
X009019Y017138D01*
X009094Y017063D01*
X009094Y016913D01*
X009019Y016838D01*
X008944Y016838D01*
X008869Y016913D02*
X008794Y016838D01*
X008719Y016838D01*
X008644Y016913D01*
X008644Y017063D01*
X008719Y017138D01*
X008794Y017138D01*
X008869Y017063D01*
X009109Y016873D02*
X009184Y016948D01*
X009109Y016873D02*
X009109Y016723D01*
X009184Y016648D01*
X009094Y016603D02*
X008644Y016603D01*
X008869Y016378D01*
X009334Y016798D02*
X009334Y016873D01*
X007469Y017917D02*
X007019Y017917D01*
X007019Y018142D01*
X007094Y018217D01*
X007244Y018217D01*
X007319Y018142D01*
X007319Y017917D01*
X007319Y018067D02*
X007469Y018217D01*
X007244Y018378D02*
X007019Y018603D01*
X007469Y018603D01*
X007484Y018638D02*
X007409Y018563D01*
X007034Y018563D01*
X007244Y018678D02*
X007244Y018378D01*
X007484Y018638D02*
X007484Y018789D01*
X007409Y018864D01*
X007034Y018864D01*
X007109Y019024D02*
X007034Y019099D01*
X007034Y019249D01*
X007109Y019324D01*
X007259Y019249D02*
X007259Y019099D01*
X007184Y019024D01*
X007109Y019024D01*
X007019Y019063D02*
X007244Y018838D01*
X007244Y019138D01*
X007259Y019249D02*
X007334Y019324D01*
X007409Y019324D01*
X007484Y019249D01*
X007484Y019099D01*
X007409Y019024D01*
X007469Y019063D02*
X007019Y019063D01*
X006959Y019174D02*
X007559Y019174D01*
X007484Y019484D02*
X007484Y019784D01*
X007484Y019634D02*
X007034Y019634D01*
X007184Y019484D01*
X007109Y019944D02*
X007034Y020019D01*
X007034Y020170D01*
X007109Y020245D01*
X007409Y019944D01*
X007484Y020019D01*
X007484Y020170D01*
X007409Y020245D01*
X007109Y020245D01*
X007109Y019944D02*
X007409Y019944D01*
X010519Y019263D02*
X010519Y018963D01*
X010744Y018963D01*
X010669Y019113D01*
X010669Y019188D01*
X010744Y019263D01*
X010894Y019263D01*
X010969Y019188D01*
X010969Y019038D01*
X010894Y018963D01*
X010744Y018803D02*
X010744Y018503D01*
X010519Y018728D01*
X010969Y018728D01*
X010969Y018342D02*
X010819Y018192D01*
X010819Y018267D02*
X010819Y018042D01*
X010969Y018042D02*
X010519Y018042D01*
X010519Y018267D01*
X010594Y018342D01*
X010744Y018342D01*
X010819Y018267D01*
X013144Y016938D02*
X013144Y016788D01*
X013219Y016713D01*
X013294Y016713D01*
X013369Y016788D01*
X013369Y017013D01*
X013519Y017013D02*
X013219Y017013D01*
X013144Y016938D01*
X013519Y017013D02*
X013594Y016938D01*
X013594Y016788D01*
X013519Y016713D01*
X013634Y016748D02*
X013634Y016598D01*
X013709Y016523D01*
X013784Y016523D01*
X013859Y016598D01*
X013859Y016823D01*
X014009Y016823D02*
X013709Y016823D01*
X013634Y016748D01*
X013369Y016553D02*
X013369Y016253D01*
X013144Y016478D01*
X013594Y016478D01*
X013709Y016363D02*
X013634Y016288D01*
X013634Y016063D01*
X014084Y016063D01*
X014084Y016288D01*
X014009Y016363D01*
X013709Y016363D01*
X013594Y016092D02*
X013444Y015942D01*
X013444Y016017D02*
X013444Y015792D01*
X013594Y015792D02*
X013144Y015792D01*
X013144Y016017D01*
X013219Y016092D01*
X013369Y016092D01*
X013444Y016017D01*
X014009Y016523D02*
X014084Y016598D01*
X014084Y016748D01*
X014009Y016823D01*
X015078Y018508D02*
X015303Y018508D01*
X015378Y018583D01*
X015378Y018884D01*
X015303Y018959D01*
X015078Y018959D01*
X015078Y018508D01*
X015538Y018508D02*
X015839Y018508D01*
X015688Y018508D02*
X015688Y018959D01*
X015538Y018809D01*
X015999Y018809D02*
X016149Y018959D01*
X016149Y018508D01*
X015999Y018508D02*
X016299Y018508D01*
X014440Y020294D02*
X014140Y019993D01*
X014140Y019918D01*
X013980Y019918D02*
X013679Y019918D01*
X013830Y019918D02*
X013830Y020369D01*
X013679Y020219D01*
X013519Y020294D02*
X013519Y020144D01*
X013444Y020069D01*
X013219Y020069D01*
X013369Y020069D02*
X013519Y019918D01*
X013219Y019918D02*
X013219Y020369D01*
X013444Y020369D01*
X013519Y020294D01*
X014140Y020369D02*
X014440Y020369D01*
X014440Y020294D01*
X024144Y016138D02*
X024144Y015838D01*
X024369Y015838D01*
X024294Y015988D01*
X024294Y016063D01*
X024369Y016138D01*
X024519Y016138D01*
X024594Y016063D01*
X024594Y015913D01*
X024519Y015838D01*
X024594Y015678D02*
X024444Y015528D01*
X024444Y015603D02*
X024444Y015378D01*
X024594Y015378D02*
X024144Y015378D01*
X024144Y015603D01*
X024219Y015678D01*
X024369Y015678D01*
X024444Y015603D01*
X024894Y015603D02*
X024894Y015378D01*
X025344Y015378D01*
X025194Y015378D02*
X025194Y015603D01*
X025119Y015678D01*
X024969Y015678D01*
X024894Y015603D01*
X025194Y015528D02*
X025344Y015678D01*
X025269Y015838D02*
X025344Y015913D01*
X025344Y016063D01*
X025269Y016138D01*
X025194Y016138D01*
X025119Y016063D01*
X025119Y015838D01*
X025269Y015838D01*
X025119Y015838D02*
X024969Y015988D01*
X024894Y016138D01*
X024995Y015130D02*
X024758Y015130D01*
X024995Y015130D02*
X024995Y014737D01*
X024758Y014737D01*
D12*
X018209Y010533D02*
X017909Y010533D01*
X017609Y010533D01*
X017609Y010333D02*
X017909Y010333D01*
X018209Y010333D01*
X021409Y003558D02*
X021409Y002808D01*
X023409Y002808D01*
X023409Y001058D01*
X021409Y001058D01*
X021409Y002808D01*
X021409Y003558D02*
X023409Y003558D01*
X023409Y002808D01*
X035784Y002183D02*
X035784Y001433D01*
X037784Y001433D01*
X037784Y002183D01*
X035784Y002183D01*
X035784Y003933D01*
X037784Y003933D01*
X037784Y002183D01*
X037784Y004433D02*
X035784Y004433D01*
X035784Y005183D01*
X037784Y005183D01*
X037784Y004433D01*
X037784Y005183D02*
X037784Y006933D01*
X035784Y006933D01*
X035784Y005183D01*
X035784Y007683D02*
X035784Y008433D01*
X037784Y008433D01*
X037784Y007683D01*
X035784Y007683D01*
X035784Y008433D02*
X035784Y010183D01*
X037784Y010183D01*
X037784Y008433D01*
X037784Y010558D02*
X035784Y010558D01*
X035784Y011308D01*
X037784Y011308D01*
X037784Y010558D01*
X037784Y011308D02*
X037784Y013058D01*
X035784Y013058D01*
X035784Y011308D01*
X035784Y013683D02*
X035784Y014433D01*
X037784Y014433D01*
X037784Y013683D01*
X035784Y013683D01*
X035784Y014433D02*
X035784Y016183D01*
X037784Y016183D01*
X037784Y014433D01*
X038284Y016683D02*
X036284Y016683D01*
X036284Y017433D01*
X038284Y017433D01*
X038284Y016683D01*
X038284Y017433D02*
X038284Y019183D01*
X036284Y019183D01*
X036284Y017433D01*
X006659Y003558D02*
X006659Y001808D01*
X004659Y001808D01*
X004659Y003558D01*
X006659Y003558D01*
X006659Y001808D02*
X006659Y001058D01*
X004659Y001058D01*
X004659Y001808D01*
X005159Y005558D02*
X003159Y005558D01*
X003159Y006308D01*
X005159Y006308D01*
X005159Y005558D01*
X005159Y006308D02*
X005159Y008058D01*
X003159Y008058D01*
X003159Y006308D01*
D13*
X004811Y005289D02*
X004811Y004928D01*
X005051Y004928D01*
X004931Y005109D02*
X004811Y005109D01*
X004811Y005289D02*
X005051Y005289D01*
X006311Y000789D02*
X006551Y000789D01*
X006431Y000609D02*
X006311Y000609D01*
X006311Y000789D02*
X006311Y000428D01*
X021429Y003828D02*
X021669Y004189D01*
X021797Y004129D02*
X021857Y004189D01*
X021977Y004189D01*
X022038Y004129D01*
X022038Y004069D01*
X021797Y003828D01*
X022038Y003828D01*
X021669Y003828D02*
X021429Y004189D01*
X016139Y010572D02*
X015679Y010879D01*
X015679Y011033D02*
X015679Y011339D01*
X015679Y011186D02*
X016139Y011186D01*
X016139Y010879D02*
X015679Y010572D01*
X015832Y011493D02*
X015679Y011646D01*
X016139Y011646D01*
X016139Y011493D02*
X016139Y011800D01*
X037436Y013113D02*
X037496Y013053D01*
X037616Y013053D01*
X037676Y013113D01*
X037436Y013113D02*
X037436Y013354D01*
X037496Y013414D01*
X037616Y013414D01*
X037676Y013354D01*
X037936Y016053D02*
X038116Y016053D01*
X038176Y016113D01*
X038176Y016354D01*
X038116Y016414D01*
X037936Y016414D01*
X037936Y016053D01*
X037616Y010289D02*
X037436Y010289D01*
X037436Y009928D01*
X037616Y009928D01*
X037676Y009988D01*
X037676Y010048D01*
X037616Y010109D01*
X037436Y010109D01*
X037616Y010109D02*
X037676Y010169D01*
X037676Y010229D01*
X037616Y010289D01*
X037556Y007414D02*
X037676Y007294D01*
X037676Y007053D01*
X037676Y007234D02*
X037436Y007234D01*
X037436Y007294D02*
X037556Y007414D01*
X037436Y007294D02*
X037436Y007053D01*
X037436Y004164D02*
X037436Y003803D01*
X037436Y003984D02*
X037676Y003984D01*
X037676Y004164D02*
X037676Y003803D01*
X037616Y001164D02*
X037496Y001164D01*
X037436Y001104D01*
X037436Y000863D01*
X037496Y000803D01*
X037616Y000803D01*
X037676Y000863D01*
X037676Y000984D01*
X037556Y000984D01*
X037676Y001104D02*
X037616Y001164D01*
D14*
X017759Y019518D02*
X017339Y019518D01*
X017549Y019518D02*
X017549Y020149D01*
X017339Y019939D01*
X017114Y020149D02*
X017114Y019623D01*
X017009Y019518D01*
X016799Y019518D01*
X016694Y019623D01*
X016694Y020149D01*
D15*
X015984Y019733D02*
X015984Y019433D01*
X015984Y019133D01*
X015984Y019433D02*
X015584Y019733D01*
X015584Y019133D01*
X015984Y019433D01*
X016659Y019433D02*
X017159Y019433D01*
X017161Y019389D01*
X017167Y019346D01*
X017176Y019304D01*
X017189Y019262D01*
X017206Y019222D01*
X017226Y019183D01*
X017249Y019146D01*
X017276Y019112D01*
X017305Y019079D01*
X017338Y019050D01*
X017372Y019023D01*
X017409Y019000D01*
X017448Y018980D01*
X017488Y018963D01*
X017530Y018950D01*
X017572Y018941D01*
X017615Y018935D01*
X017659Y018933D01*
X017703Y018935D01*
X017746Y018941D01*
X017788Y018950D01*
X017830Y018963D01*
X017870Y018980D01*
X017909Y019000D01*
X017946Y019023D01*
X017980Y019050D01*
X018013Y019079D01*
X018042Y019112D01*
X018069Y019146D01*
X018092Y019183D01*
X018112Y019222D01*
X018129Y019262D01*
X018142Y019304D01*
X018151Y019346D01*
X018157Y019389D01*
X018159Y019433D01*
X018659Y019433D01*
X018659Y005433D01*
X016659Y005433D01*
X016659Y019383D01*
X020034Y018433D02*
X020034Y017933D01*
X020284Y017683D01*
X020784Y017683D01*
X021034Y017933D01*
X021284Y017683D01*
X021784Y017683D01*
X022034Y017933D01*
X022034Y018433D01*
X021784Y018683D01*
X021284Y018683D01*
X021034Y018433D01*
X021034Y017933D01*
X021034Y018433D02*
X020784Y018683D01*
X020284Y018683D01*
X020034Y018433D01*
X022034Y018433D02*
X022284Y018683D01*
X022784Y018683D01*
X023034Y018433D01*
X023284Y018683D01*
X023784Y018683D01*
X024034Y018433D01*
X024284Y018683D01*
X024784Y018683D01*
X025034Y018433D01*
X025034Y017933D01*
X024784Y017683D01*
X024284Y017683D01*
X024034Y017933D01*
X023784Y017683D01*
X023284Y017683D01*
X023034Y017933D01*
X022784Y017683D01*
X022284Y017683D01*
X022034Y017933D01*
X023034Y017933D02*
X023034Y018433D01*
X024034Y018433D02*
X024034Y017933D01*
X013459Y016508D02*
X013159Y016508D01*
X012859Y016508D01*
X013159Y016508D02*
X012859Y016108D01*
X013459Y016108D01*
X013159Y016508D01*
X011534Y017283D02*
X011534Y019383D01*
X011384Y019383D01*
X010684Y019383D01*
X010684Y019533D01*
X010784Y019533D02*
X011284Y019533D01*
X011384Y019533D02*
X011384Y019383D01*
X011564Y019570D02*
X011671Y019463D01*
X011884Y019463D01*
X011991Y019570D01*
X011991Y019677D01*
X011884Y019784D01*
X011671Y019784D01*
X011564Y019890D01*
X011564Y019997D01*
X011671Y020104D01*
X011884Y020104D01*
X011991Y019997D01*
X012209Y019997D02*
X012315Y020104D01*
X012529Y020104D01*
X012636Y019997D01*
X012636Y019890D01*
X012209Y019463D01*
X012636Y019463D01*
X011234Y019633D02*
X010834Y019633D01*
X010934Y019733D02*
X011134Y019733D01*
X011384Y019533D02*
X011382Y019570D01*
X011376Y019606D01*
X011367Y019641D01*
X011354Y019675D01*
X011337Y019708D01*
X011317Y019739D01*
X011294Y019767D01*
X011268Y019793D01*
X011240Y019816D01*
X011209Y019836D01*
X011176Y019853D01*
X011142Y019866D01*
X011107Y019875D01*
X011071Y019881D01*
X011034Y019883D01*
X010997Y019881D01*
X010961Y019875D01*
X010926Y019866D01*
X010892Y019853D01*
X010859Y019836D01*
X010828Y019816D01*
X010800Y019793D01*
X010774Y019767D01*
X010751Y019739D01*
X010731Y019708D01*
X010714Y019675D01*
X010701Y019641D01*
X010692Y019606D01*
X010686Y019570D01*
X010684Y019533D01*
X010684Y019383D02*
X010534Y019383D01*
X010534Y017283D01*
X011534Y017283D01*
X009534Y017283D02*
X009534Y019383D01*
X009384Y019383D01*
X008684Y019383D01*
X008684Y019533D01*
X008784Y019533D02*
X009284Y019533D01*
X009384Y019533D02*
X009384Y019383D01*
X009234Y019633D02*
X008834Y019633D01*
X008934Y019733D02*
X009134Y019733D01*
X009384Y019533D02*
X009382Y019570D01*
X009376Y019606D01*
X009367Y019641D01*
X009354Y019675D01*
X009337Y019708D01*
X009317Y019739D01*
X009294Y019767D01*
X009268Y019793D01*
X009240Y019816D01*
X009209Y019836D01*
X009176Y019853D01*
X009142Y019866D01*
X009107Y019875D01*
X009071Y019881D01*
X009034Y019883D01*
X008997Y019881D01*
X008961Y019875D01*
X008926Y019866D01*
X008892Y019853D01*
X008859Y019836D01*
X008828Y019816D01*
X008800Y019793D01*
X008774Y019767D01*
X008751Y019739D01*
X008731Y019708D01*
X008714Y019675D01*
X008701Y019641D01*
X008692Y019606D01*
X008686Y019570D01*
X008684Y019533D01*
X008684Y019383D02*
X008534Y019383D01*
X008534Y017283D01*
X009534Y017283D01*
X008959Y016633D02*
X008659Y016633D01*
X008359Y016633D01*
X008659Y016633D02*
X008359Y016233D01*
X008959Y016233D01*
X008659Y016633D01*
X010109Y015758D02*
X010409Y015758D01*
X010709Y015758D01*
X010409Y015758D02*
X010709Y015358D01*
X010109Y015358D01*
X010409Y015758D01*
X012859Y014258D02*
X013459Y014258D01*
X013159Y013858D01*
X013459Y013858D01*
X013159Y013858D02*
X012859Y013858D01*
X013159Y013858D02*
X012859Y014258D01*
X010709Y013258D02*
X010109Y013258D01*
X010409Y012858D01*
X010709Y012858D01*
X010409Y012858D02*
X010109Y012858D01*
X010409Y012858D02*
X010709Y013258D01*
X008959Y013483D02*
X008659Y013483D01*
X008359Y013483D01*
X008659Y013483D02*
X008359Y013883D01*
X008959Y013883D01*
X008659Y013483D01*
X007409Y018058D02*
X007411Y018102D01*
X007417Y018146D01*
X007427Y018189D01*
X007440Y018231D01*
X007457Y018272D01*
X007478Y018311D01*
X007502Y018348D01*
X007529Y018383D01*
X007559Y018415D01*
X007592Y018445D01*
X007628Y018471D01*
X007665Y018495D01*
X007705Y018514D01*
X007746Y018531D01*
X007789Y018543D01*
X007832Y018552D01*
X007876Y018557D01*
X007920Y018558D01*
X007964Y018555D01*
X008008Y018548D01*
X008051Y018537D01*
X008093Y018523D01*
X008133Y018505D01*
X008172Y018483D01*
X008208Y018459D01*
X008242Y018431D01*
X008274Y018400D01*
X008303Y018366D01*
X008329Y018330D01*
X008351Y018292D01*
X008370Y018252D01*
X008385Y018210D01*
X008397Y018168D01*
X008405Y018124D01*
X008409Y018080D01*
X008409Y018036D01*
X008405Y017992D01*
X008397Y017948D01*
X008385Y017906D01*
X008370Y017864D01*
X008351Y017824D01*
X008329Y017786D01*
X008303Y017750D01*
X008274Y017716D01*
X008242Y017685D01*
X008208Y017657D01*
X008172Y017633D01*
X008133Y017611D01*
X008093Y017593D01*
X008051Y017579D01*
X008008Y017568D01*
X007964Y017561D01*
X007920Y017558D01*
X007876Y017559D01*
X007832Y017564D01*
X007789Y017573D01*
X007746Y017585D01*
X007705Y017602D01*
X007665Y017621D01*
X007628Y017645D01*
X007592Y017671D01*
X007559Y017701D01*
X007529Y017733D01*
X007502Y017768D01*
X007478Y017805D01*
X007457Y017844D01*
X007440Y017885D01*
X007427Y017927D01*
X007417Y017970D01*
X007411Y018014D01*
X007409Y018058D01*
X017509Y011383D02*
X018309Y011383D01*
X018326Y011381D01*
X018343Y011377D01*
X018359Y011370D01*
X018373Y011360D01*
X018386Y011347D01*
X018396Y011333D01*
X018403Y011317D01*
X018407Y011300D01*
X018409Y011283D01*
X018409Y009583D01*
X018407Y009566D01*
X018403Y009549D01*
X018396Y009533D01*
X018386Y009519D01*
X018373Y009506D01*
X018359Y009496D01*
X018343Y009489D01*
X018326Y009485D01*
X018309Y009483D01*
X017509Y009483D01*
X017492Y009485D01*
X017475Y009489D01*
X017459Y009496D01*
X017445Y009506D01*
X017432Y009519D01*
X017422Y009533D01*
X017415Y009549D01*
X017411Y009566D01*
X017409Y009583D01*
X017409Y011283D01*
X017411Y011300D01*
X017415Y011317D01*
X017422Y011333D01*
X017432Y011347D01*
X017445Y011360D01*
X017459Y011370D01*
X017475Y011377D01*
X017492Y011381D01*
X017509Y011383D01*
X017909Y010583D02*
X017909Y010533D01*
X017909Y010333D02*
X017909Y010283D01*
X016609Y005033D02*
X016609Y004933D01*
X016709Y004933D01*
X016609Y004933D02*
X016609Y004833D01*
X016609Y004933D02*
X016509Y004933D01*
X016159Y004433D02*
X016161Y004496D01*
X016167Y004558D01*
X016177Y004620D01*
X016190Y004682D01*
X016208Y004742D01*
X016229Y004801D01*
X016254Y004859D01*
X016283Y004915D01*
X016315Y004969D01*
X016350Y005021D01*
X016388Y005070D01*
X016430Y005118D01*
X016474Y005162D01*
X016522Y005204D01*
X016571Y005242D01*
X016623Y005277D01*
X016677Y005309D01*
X016733Y005338D01*
X016791Y005363D01*
X016850Y005384D01*
X016910Y005402D01*
X016972Y005415D01*
X017034Y005425D01*
X017096Y005431D01*
X017159Y005433D01*
X017222Y005431D01*
X017284Y005425D01*
X017346Y005415D01*
X017408Y005402D01*
X017468Y005384D01*
X017527Y005363D01*
X017585Y005338D01*
X017641Y005309D01*
X017695Y005277D01*
X017747Y005242D01*
X017796Y005204D01*
X017844Y005162D01*
X017888Y005118D01*
X017930Y005070D01*
X017968Y005021D01*
X018003Y004969D01*
X018035Y004915D01*
X018064Y004859D01*
X018089Y004801D01*
X018110Y004742D01*
X018128Y004682D01*
X018141Y004620D01*
X018151Y004558D01*
X018157Y004496D01*
X018159Y004433D01*
X018157Y004370D01*
X018151Y004308D01*
X018141Y004246D01*
X018128Y004184D01*
X018110Y004124D01*
X018089Y004065D01*
X018064Y004007D01*
X018035Y003951D01*
X018003Y003897D01*
X017968Y003845D01*
X017930Y003796D01*
X017888Y003748D01*
X017844Y003704D01*
X017796Y003662D01*
X017747Y003624D01*
X017695Y003589D01*
X017641Y003557D01*
X017585Y003528D01*
X017527Y003503D01*
X017468Y003482D01*
X017408Y003464D01*
X017346Y003451D01*
X017284Y003441D01*
X017222Y003435D01*
X017159Y003433D01*
X017096Y003435D01*
X017034Y003441D01*
X016972Y003451D01*
X016910Y003464D01*
X016850Y003482D01*
X016791Y003503D01*
X016733Y003528D01*
X016677Y003557D01*
X016623Y003589D01*
X016571Y003624D01*
X016522Y003662D01*
X016474Y003704D01*
X016430Y003748D01*
X016388Y003796D01*
X016350Y003845D01*
X016315Y003897D01*
X016283Y003951D01*
X016254Y004007D01*
X016229Y004065D01*
X016208Y004124D01*
X016190Y004184D01*
X016177Y004246D01*
X016167Y004308D01*
X016161Y004370D01*
X016159Y004433D01*
X015159Y003433D02*
X015161Y003477D01*
X015167Y003521D01*
X015177Y003564D01*
X015190Y003606D01*
X015207Y003647D01*
X015228Y003686D01*
X015252Y003723D01*
X015279Y003758D01*
X015309Y003790D01*
X015342Y003820D01*
X015378Y003846D01*
X015415Y003870D01*
X015455Y003889D01*
X015496Y003906D01*
X015539Y003918D01*
X015582Y003927D01*
X015626Y003932D01*
X015670Y003933D01*
X015714Y003930D01*
X015758Y003923D01*
X015801Y003912D01*
X015843Y003898D01*
X015883Y003880D01*
X015922Y003858D01*
X015958Y003834D01*
X015992Y003806D01*
X016024Y003775D01*
X016053Y003741D01*
X016079Y003705D01*
X016101Y003667D01*
X016120Y003627D01*
X016135Y003585D01*
X016147Y003543D01*
X016155Y003499D01*
X016159Y003455D01*
X016159Y003411D01*
X016155Y003367D01*
X016147Y003323D01*
X016135Y003281D01*
X016120Y003239D01*
X016101Y003199D01*
X016079Y003161D01*
X016053Y003125D01*
X016024Y003091D01*
X015992Y003060D01*
X015958Y003032D01*
X015922Y003008D01*
X015883Y002986D01*
X015843Y002968D01*
X015801Y002954D01*
X015758Y002943D01*
X015714Y002936D01*
X015670Y002933D01*
X015626Y002934D01*
X015582Y002939D01*
X015539Y002948D01*
X015496Y002960D01*
X015455Y002977D01*
X015415Y002996D01*
X015378Y003020D01*
X015342Y003046D01*
X015309Y003076D01*
X015279Y003108D01*
X015252Y003143D01*
X015228Y003180D01*
X015207Y003219D01*
X015190Y003260D01*
X015177Y003302D01*
X015167Y003345D01*
X015161Y003389D01*
X015159Y003433D01*
X015509Y002433D02*
X015509Y001433D01*
X017609Y001433D01*
X017609Y001583D01*
X017609Y002283D01*
X017759Y002283D01*
X017759Y002183D02*
X017759Y001683D01*
X017759Y001583D02*
X017609Y001583D01*
X017859Y001733D02*
X017859Y002133D01*
X017959Y002033D02*
X017959Y001833D01*
X017759Y001583D02*
X017796Y001585D01*
X017832Y001591D01*
X017867Y001600D01*
X017901Y001613D01*
X017934Y001630D01*
X017965Y001650D01*
X017993Y001673D01*
X018019Y001699D01*
X018042Y001727D01*
X018062Y001758D01*
X018079Y001791D01*
X018092Y001825D01*
X018101Y001860D01*
X018107Y001896D01*
X018109Y001933D01*
X018107Y001970D01*
X018101Y002006D01*
X018092Y002041D01*
X018079Y002075D01*
X018062Y002108D01*
X018042Y002139D01*
X018019Y002167D01*
X017993Y002193D01*
X017965Y002216D01*
X017934Y002236D01*
X017901Y002253D01*
X017867Y002266D01*
X017832Y002275D01*
X017796Y002281D01*
X017759Y002283D01*
X017609Y002283D02*
X017609Y002433D01*
X015509Y002433D01*
X013959Y002283D02*
X013959Y002083D01*
X013859Y001983D02*
X013859Y002383D01*
X013759Y002433D02*
X013759Y001933D01*
X013759Y001833D02*
X013609Y001833D01*
X013609Y002533D01*
X013759Y002533D01*
X013609Y002533D02*
X013609Y002683D01*
X011509Y002683D01*
X011509Y001683D01*
X013609Y001683D01*
X013609Y001833D01*
X013759Y001833D02*
X013796Y001835D01*
X013832Y001841D01*
X013867Y001850D01*
X013901Y001863D01*
X013934Y001880D01*
X013965Y001900D01*
X013993Y001923D01*
X014019Y001949D01*
X014042Y001977D01*
X014062Y002008D01*
X014079Y002041D01*
X014092Y002075D01*
X014101Y002110D01*
X014107Y002146D01*
X014109Y002183D01*
X014107Y002220D01*
X014101Y002256D01*
X014092Y002291D01*
X014079Y002325D01*
X014062Y002358D01*
X014042Y002389D01*
X014019Y002417D01*
X013993Y002443D01*
X013965Y002466D01*
X013934Y002486D01*
X013901Y002503D01*
X013867Y002516D01*
X013832Y002525D01*
X013796Y002531D01*
X013759Y002533D01*
X013659Y004433D02*
X013661Y004496D01*
X013667Y004558D01*
X013677Y004620D01*
X013690Y004682D01*
X013708Y004742D01*
X013729Y004801D01*
X013754Y004859D01*
X013783Y004915D01*
X013815Y004969D01*
X013850Y005021D01*
X013888Y005070D01*
X013930Y005118D01*
X013974Y005162D01*
X014022Y005204D01*
X014071Y005242D01*
X014123Y005277D01*
X014177Y005309D01*
X014233Y005338D01*
X014291Y005363D01*
X014350Y005384D01*
X014410Y005402D01*
X014472Y005415D01*
X014534Y005425D01*
X014596Y005431D01*
X014659Y005433D01*
X014722Y005431D01*
X014784Y005425D01*
X014846Y005415D01*
X014908Y005402D01*
X014968Y005384D01*
X015027Y005363D01*
X015085Y005338D01*
X015141Y005309D01*
X015195Y005277D01*
X015247Y005242D01*
X015296Y005204D01*
X015344Y005162D01*
X015388Y005118D01*
X015430Y005070D01*
X015468Y005021D01*
X015503Y004969D01*
X015535Y004915D01*
X015564Y004859D01*
X015589Y004801D01*
X015610Y004742D01*
X015628Y004682D01*
X015641Y004620D01*
X015651Y004558D01*
X015657Y004496D01*
X015659Y004433D01*
X015657Y004370D01*
X015651Y004308D01*
X015641Y004246D01*
X015628Y004184D01*
X015610Y004124D01*
X015589Y004065D01*
X015564Y004007D01*
X015535Y003951D01*
X015503Y003897D01*
X015468Y003845D01*
X015430Y003796D01*
X015388Y003748D01*
X015344Y003704D01*
X015296Y003662D01*
X015247Y003624D01*
X015195Y003589D01*
X015141Y003557D01*
X015085Y003528D01*
X015027Y003503D01*
X014968Y003482D01*
X014908Y003464D01*
X014846Y003451D01*
X014784Y003441D01*
X014722Y003435D01*
X014659Y003433D01*
X014596Y003435D01*
X014534Y003441D01*
X014472Y003451D01*
X014410Y003464D01*
X014350Y003482D01*
X014291Y003503D01*
X014233Y003528D01*
X014177Y003557D01*
X014123Y003589D01*
X014071Y003624D01*
X014022Y003662D01*
X013974Y003704D01*
X013930Y003748D01*
X013888Y003796D01*
X013850Y003845D01*
X013815Y003897D01*
X013783Y003951D01*
X013754Y004007D01*
X013729Y004065D01*
X013708Y004124D01*
X013690Y004184D01*
X013677Y004246D01*
X013667Y004308D01*
X013661Y004370D01*
X013659Y004433D01*
X014109Y004833D02*
X014109Y004933D01*
X014109Y005033D01*
X014109Y004933D02*
X014209Y004933D01*
X014109Y004933D02*
X014009Y004933D01*
X019004Y001660D02*
X019004Y001233D01*
X019004Y001446D02*
X018364Y001446D01*
X018577Y001233D01*
X018470Y001015D02*
X018364Y000909D01*
X018364Y000695D01*
X018470Y000588D01*
X018577Y000588D01*
X018684Y000695D01*
X018684Y000909D01*
X018791Y001015D01*
X018897Y001015D01*
X019004Y000909D01*
X019004Y000695D01*
X018897Y000588D01*
D16*
X018159Y001883D02*
X018159Y001983D01*
X014659Y002383D02*
X014659Y002483D01*
X008709Y003183D02*
X008609Y003183D01*
X007209Y005683D02*
X007109Y005683D01*
X007109Y006433D02*
X007209Y006433D01*
X006209Y007933D02*
X006109Y007933D01*
X008234Y010183D02*
X008334Y010183D01*
X007959Y010808D02*
X007859Y010808D01*
X011659Y010883D02*
X011659Y010983D01*
X012659Y010983D02*
X012659Y010883D01*
X009909Y013008D02*
X009909Y013108D01*
X008159Y013633D02*
X008159Y013733D01*
X009909Y015508D02*
X009909Y015608D01*
X008159Y016383D02*
X008159Y016483D01*
X006534Y018383D02*
X006534Y018483D01*
X010034Y018508D02*
X010034Y018608D01*
X012659Y016358D02*
X012659Y016258D01*
X012659Y014108D02*
X012659Y014008D01*
X020359Y014558D02*
X020459Y014558D01*
X023659Y015383D02*
X023659Y015483D01*
X024409Y015483D02*
X024409Y015383D01*
X023209Y017058D02*
X023109Y017058D01*
X020459Y016433D02*
X020359Y016433D01*
X020359Y018933D02*
X020459Y018933D01*
X024609Y019308D02*
X024709Y019308D01*
X029484Y018933D02*
X029584Y018933D01*
X030984Y016808D02*
X031084Y016808D01*
X029084Y015933D02*
X028984Y015933D01*
X030984Y013933D02*
X031084Y013933D01*
X032734Y012808D02*
X032834Y012808D01*
X031084Y010808D02*
X030984Y010808D01*
X032734Y009933D02*
X032834Y009933D01*
X032834Y006808D02*
X032734Y006808D01*
X031084Y004683D02*
X030984Y004683D01*
X032734Y003683D02*
X032834Y003683D01*
X031084Y001683D02*
X030984Y001683D01*
X023784Y001758D02*
X023784Y001858D01*
X023084Y004183D02*
X022984Y004183D01*
X021959Y005433D02*
X021859Y005433D01*
X023359Y006183D02*
X023459Y006183D01*
X020459Y006933D02*
X020359Y006933D01*
X023109Y008183D02*
X023209Y008183D01*
X023659Y009383D02*
X023659Y009483D01*
X024409Y009483D02*
X024409Y009383D01*
X020459Y008933D02*
X020359Y008933D01*
X023659Y012258D02*
X023659Y012358D01*
X024409Y012358D02*
X024409Y012258D01*
X020459Y012433D02*
X020359Y012433D01*
X013409Y007233D02*
X013409Y007133D01*
X012534Y006858D02*
X012534Y006758D01*
X013984Y019433D02*
X014084Y019433D01*
D17*
X007909Y018658D02*
X007909Y018458D01*
X016059Y003433D02*
X016259Y003433D01*
D18*
X019284Y004558D02*
X021284Y004558D01*
X021284Y000558D01*
X019284Y000558D01*
X019284Y004558D01*
X015534Y017183D02*
X011534Y017183D01*
X011534Y019183D01*
X015534Y019183D01*
X015534Y017183D01*
M02*
