%
M48
M72
T01C0.0236
T02C0.0315
T03C0.0320
T04C0.0354
T05C0.0394
T06C0.0400
T07C0.0433
T08C0.0945
T09C0.1181
%
T01
X6659Y11433
X8159Y11433
X17159Y11933
X18284Y11933
X22034Y16058
X22159Y16933
X23034Y18933
X23034Y19808
T02
X26034Y17933
X27034Y17933
X28034Y17933
X29034Y17933
X30034Y17933
X31034Y17933
X32034Y17933
X33034Y17933
X34034Y17933
X35034Y17933
X34534Y14933
X33534Y14933
X32534Y14933
X31534Y14933
X30534Y14933
X29534Y14933
X28534Y14933
X27534Y14933
X26534Y14933
X25534Y14933
X25534Y11808
X26534Y11808
X27534Y11808
X28534Y11808
X29534Y11808
X30534Y11808
X31534Y11808
X32534Y11808
X33534Y11808
X34534Y11808
X34534Y8933
X33534Y8933
X32534Y8933
X31534Y8933
X30534Y8933
X29534Y8933
X28534Y8933
X27534Y8933
X26534Y8933
X25534Y8933
X25534Y5683
X26534Y5683
X27534Y5683
X28534Y5683
X29534Y5683
X30534Y5683
X31534Y5683
X32534Y5683
X33534Y5683
X34534Y5683
X34534Y2683
X33534Y2683
X32534Y2683
X31534Y2683
X30534Y2683
X29534Y2683
X28534Y2683
X27534Y2683
X26534Y2683
X25534Y2683
X12659Y4683
X11659Y4683
X10659Y4683
X9659Y4683
X8659Y4683
X7659Y4683
X6659Y4683
X5659Y4683
X4659Y4683
X3659Y4683
X3659Y8933
X4659Y8933
X5659Y8933
X6659Y8933
X7659Y8933
X8659Y8933
X9659Y8933
X10659Y8933
X11659Y8933
X12659Y8933
X14659Y9933
X14659Y10933
X14659Y11933
X5659Y13437
X4659Y13839
X5659Y14240
X4659Y14642
X5659Y15044
X4659Y15445
X5659Y15847
X4659Y16248
T03
X6534Y17933
X7909Y18058
X9034Y17933
X10034Y18058
X11034Y17933
X11034Y18933
X10034Y19058
X9034Y18933
X7909Y19058
X6534Y18933
X8159Y16933
X8659Y16933
X9909Y16058
X10409Y16058
X8659Y15933
X8159Y15933
X9909Y15058
X10409Y15058
X8659Y14183
X8159Y14183
X8159Y13183
X8659Y13183
X9909Y13558
X10409Y13558
X10409Y12558
X9909Y12558
X11659Y11433
X12659Y11433
X12659Y10433
X11659Y10433
X8784Y10183
X8409Y10808
X7784Y10183
X7409Y10808
X6659Y7933
X5659Y7933
X6659Y6433
X7659Y6433
X7659Y5683
X6659Y5683
X8159Y3183
X9159Y3183
X12159Y2183
X13159Y2183
X14659Y1933
X14659Y2933
X15659Y3433
X16659Y3433
X16659Y4433
X17659Y4433
X15159Y4433
X14159Y4433
X16159Y5933
X16159Y6933
X16159Y7933
X16159Y8933
X16159Y9933
X16159Y10933
X16159Y11933
X16159Y12933
X16159Y13933
X16159Y14933
X16159Y15933
X16159Y16933
X16159Y17933
X16159Y18933
X16284Y19433
X15284Y19433
X14534Y19433
X13534Y19433
X13159Y16808
X12659Y16808
X12659Y15808
X13159Y15808
X13159Y14558
X12659Y14558
X12659Y13558
X13159Y13558
X17909Y10933
X19159Y10933
X19159Y9933
X17909Y9933
X19159Y8933
X19909Y8933
X20909Y8933
X22659Y8183
X23659Y8183
X23659Y8933
X24409Y8933
X24409Y9933
X23659Y9933
X23659Y11808
X24409Y11808
X24409Y12808
X23659Y12808
X20909Y12433
X19909Y12433
X19159Y11933
X19159Y12933
X19159Y13933
X19909Y14558
X19159Y14933
X19159Y15933
X19909Y16433
X19159Y16933
X19159Y17933
X19159Y18933
X19909Y18933
X20909Y18933
X22659Y17058
X23659Y17058
X23659Y15933
X24409Y15933
X24409Y14933
X23659Y14933
X20909Y14558
X20909Y16433
X24159Y19308
X25159Y19308
X29034Y18933
X30034Y18933
X30534Y16808
X31534Y16808
X29534Y15933
X28534Y15933
X30534Y13933
X31534Y13933
X32284Y12808
X33284Y12808
X31534Y10808
X30534Y10808
X32284Y9933
X33284Y9933
X33284Y6808
X32284Y6808
X31534Y4683
X30534Y4683
X32284Y3683
X33284Y3683
X31534Y1683
X30534Y1683
X23784Y1308
X23784Y2308
X23534Y4183
X22534Y4183
X22409Y5433
X21409Y5433
X22909Y6183
X23909Y6183
X20909Y6933
X19909Y6933
X19159Y6933
X19159Y5933
X19159Y7933
X13409Y7683
X12534Y7308
X13409Y6683
X12534Y6308
X18159Y2433
X17159Y1933
X18159Y1433
X16159Y1933
T04
X5659Y11746
X5659Y17746
T05
X4659Y6808
X3659Y6808
X5159Y2308
X6159Y2308
X21909Y2308
X22909Y2308
X36284Y2683
X37284Y2683
X37284Y5683
X36284Y5683
X36284Y8933
X37284Y8933
X37284Y11808
X36284Y11808
X36284Y14933
X37284Y14933
X36784Y17933
X37784Y17933
T06
X24534Y18183
X23534Y18183
X22534Y18183
X21534Y18183
X20534Y18183
T07
X14534Y18183
X13534Y18183
X12534Y18183
X20284Y3558
X20284Y2558
X20284Y1558
T08
X3754Y12042
X3754Y17431
T09
X2340Y1614
X2340Y18937
X39348Y18937
X39348Y1614
M30
