G75*
G70*
%OFA0B0*%
%FSLAX24Y24*%
%IPPOS*%
%LPD*%
%AMOC8*
5,1,8,0,0,1.08239X$1,22.5*
%
%ADD10C,0.0000*%
D10*
X000181Y000181D02*
X000181Y006087D01*
X039551Y006087D01*
X039551Y000181D01*
X000181Y000181D01*
X000772Y001363D02*
X000774Y001411D01*
X000780Y001459D01*
X000790Y001506D01*
X000803Y001552D01*
X000821Y001597D01*
X000841Y001641D01*
X000866Y001683D01*
X000894Y001722D01*
X000924Y001759D01*
X000958Y001793D01*
X000995Y001825D01*
X001033Y001854D01*
X001074Y001879D01*
X001117Y001901D01*
X001162Y001919D01*
X001208Y001933D01*
X001255Y001944D01*
X001303Y001951D01*
X001351Y001954D01*
X001399Y001953D01*
X001447Y001948D01*
X001495Y001939D01*
X001541Y001927D01*
X001586Y001910D01*
X001630Y001890D01*
X001672Y001867D01*
X001712Y001840D01*
X001750Y001810D01*
X001785Y001777D01*
X001817Y001741D01*
X001847Y001703D01*
X001873Y001662D01*
X001895Y001619D01*
X001915Y001575D01*
X001930Y001530D01*
X001942Y001483D01*
X001950Y001435D01*
X001954Y001387D01*
X001954Y001339D01*
X001950Y001291D01*
X001942Y001243D01*
X001930Y001196D01*
X001915Y001151D01*
X001895Y001107D01*
X001873Y001064D01*
X001847Y001023D01*
X001817Y000985D01*
X001785Y000949D01*
X001750Y000916D01*
X001712Y000886D01*
X001672Y000859D01*
X001630Y000836D01*
X001586Y000816D01*
X001541Y000799D01*
X001495Y000787D01*
X001447Y000778D01*
X001399Y000773D01*
X001351Y000772D01*
X001303Y000775D01*
X001255Y000782D01*
X001208Y000793D01*
X001162Y000807D01*
X001117Y000825D01*
X001074Y000847D01*
X001033Y000872D01*
X000995Y000901D01*
X000958Y000933D01*
X000924Y000967D01*
X000894Y001004D01*
X000866Y001043D01*
X000841Y001085D01*
X000821Y001129D01*
X000803Y001174D01*
X000790Y001220D01*
X000780Y001267D01*
X000774Y001315D01*
X000772Y001363D01*
X000772Y004906D02*
X000774Y004954D01*
X000780Y005002D01*
X000790Y005049D01*
X000803Y005095D01*
X000821Y005140D01*
X000841Y005184D01*
X000866Y005226D01*
X000894Y005265D01*
X000924Y005302D01*
X000958Y005336D01*
X000995Y005368D01*
X001033Y005397D01*
X001074Y005422D01*
X001117Y005444D01*
X001162Y005462D01*
X001208Y005476D01*
X001255Y005487D01*
X001303Y005494D01*
X001351Y005497D01*
X001399Y005496D01*
X001447Y005491D01*
X001495Y005482D01*
X001541Y005470D01*
X001586Y005453D01*
X001630Y005433D01*
X001672Y005410D01*
X001712Y005383D01*
X001750Y005353D01*
X001785Y005320D01*
X001817Y005284D01*
X001847Y005246D01*
X001873Y005205D01*
X001895Y005162D01*
X001915Y005118D01*
X001930Y005073D01*
X001942Y005026D01*
X001950Y004978D01*
X001954Y004930D01*
X001954Y004882D01*
X001950Y004834D01*
X001942Y004786D01*
X001930Y004739D01*
X001915Y004694D01*
X001895Y004650D01*
X001873Y004607D01*
X001847Y004566D01*
X001817Y004528D01*
X001785Y004492D01*
X001750Y004459D01*
X001712Y004429D01*
X001672Y004402D01*
X001630Y004379D01*
X001586Y004359D01*
X001541Y004342D01*
X001495Y004330D01*
X001447Y004321D01*
X001399Y004316D01*
X001351Y004315D01*
X001303Y004318D01*
X001255Y004325D01*
X001208Y004336D01*
X001162Y004350D01*
X001117Y004368D01*
X001074Y004390D01*
X001033Y004415D01*
X000995Y004444D01*
X000958Y004476D01*
X000924Y004510D01*
X000894Y004547D01*
X000866Y004586D01*
X000841Y004628D01*
X000821Y004672D01*
X000803Y004717D01*
X000790Y004763D01*
X000780Y004810D01*
X000774Y004858D01*
X000772Y004906D01*
X037779Y004906D02*
X037781Y004954D01*
X037787Y005002D01*
X037797Y005049D01*
X037810Y005095D01*
X037828Y005140D01*
X037848Y005184D01*
X037873Y005226D01*
X037901Y005265D01*
X037931Y005302D01*
X037965Y005336D01*
X038002Y005368D01*
X038040Y005397D01*
X038081Y005422D01*
X038124Y005444D01*
X038169Y005462D01*
X038215Y005476D01*
X038262Y005487D01*
X038310Y005494D01*
X038358Y005497D01*
X038406Y005496D01*
X038454Y005491D01*
X038502Y005482D01*
X038548Y005470D01*
X038593Y005453D01*
X038637Y005433D01*
X038679Y005410D01*
X038719Y005383D01*
X038757Y005353D01*
X038792Y005320D01*
X038824Y005284D01*
X038854Y005246D01*
X038880Y005205D01*
X038902Y005162D01*
X038922Y005118D01*
X038937Y005073D01*
X038949Y005026D01*
X038957Y004978D01*
X038961Y004930D01*
X038961Y004882D01*
X038957Y004834D01*
X038949Y004786D01*
X038937Y004739D01*
X038922Y004694D01*
X038902Y004650D01*
X038880Y004607D01*
X038854Y004566D01*
X038824Y004528D01*
X038792Y004492D01*
X038757Y004459D01*
X038719Y004429D01*
X038679Y004402D01*
X038637Y004379D01*
X038593Y004359D01*
X038548Y004342D01*
X038502Y004330D01*
X038454Y004321D01*
X038406Y004316D01*
X038358Y004315D01*
X038310Y004318D01*
X038262Y004325D01*
X038215Y004336D01*
X038169Y004350D01*
X038124Y004368D01*
X038081Y004390D01*
X038040Y004415D01*
X038002Y004444D01*
X037965Y004476D01*
X037931Y004510D01*
X037901Y004547D01*
X037873Y004586D01*
X037848Y004628D01*
X037828Y004672D01*
X037810Y004717D01*
X037797Y004763D01*
X037787Y004810D01*
X037781Y004858D01*
X037779Y004906D01*
X037779Y001363D02*
X037781Y001411D01*
X037787Y001459D01*
X037797Y001506D01*
X037810Y001552D01*
X037828Y001597D01*
X037848Y001641D01*
X037873Y001683D01*
X037901Y001722D01*
X037931Y001759D01*
X037965Y001793D01*
X038002Y001825D01*
X038040Y001854D01*
X038081Y001879D01*
X038124Y001901D01*
X038169Y001919D01*
X038215Y001933D01*
X038262Y001944D01*
X038310Y001951D01*
X038358Y001954D01*
X038406Y001953D01*
X038454Y001948D01*
X038502Y001939D01*
X038548Y001927D01*
X038593Y001910D01*
X038637Y001890D01*
X038679Y001867D01*
X038719Y001840D01*
X038757Y001810D01*
X038792Y001777D01*
X038824Y001741D01*
X038854Y001703D01*
X038880Y001662D01*
X038902Y001619D01*
X038922Y001575D01*
X038937Y001530D01*
X038949Y001483D01*
X038957Y001435D01*
X038961Y001387D01*
X038961Y001339D01*
X038957Y001291D01*
X038949Y001243D01*
X038937Y001196D01*
X038922Y001151D01*
X038902Y001107D01*
X038880Y001064D01*
X038854Y001023D01*
X038824Y000985D01*
X038792Y000949D01*
X038757Y000916D01*
X038719Y000886D01*
X038679Y000859D01*
X038637Y000836D01*
X038593Y000816D01*
X038548Y000799D01*
X038502Y000787D01*
X038454Y000778D01*
X038406Y000773D01*
X038358Y000772D01*
X038310Y000775D01*
X038262Y000782D01*
X038215Y000793D01*
X038169Y000807D01*
X038124Y000825D01*
X038081Y000847D01*
X038040Y000872D01*
X038002Y000901D01*
X037965Y000933D01*
X037931Y000967D01*
X037901Y001004D01*
X037873Y001043D01*
X037848Y001085D01*
X037828Y001129D01*
X037810Y001174D01*
X037797Y001220D01*
X037787Y001267D01*
X037781Y001315D01*
X037779Y001363D01*
M02*
