G75*
G70*
%OFA0B0*%
%FSLAX24Y24*%
%IPPOS*%
%LPD*%
%AMOC8*
5,1,8,0,0,1.08239X$1,22.5*
%
%ADD10C,0.0000*%
D10*
X000685Y000181D02*
X000685Y005300D01*
X040055Y005300D01*
X040055Y000181D01*
X000685Y000181D01*
X001275Y001363D02*
X001277Y001411D01*
X001283Y001459D01*
X001293Y001506D01*
X001306Y001552D01*
X001324Y001597D01*
X001344Y001641D01*
X001369Y001683D01*
X001397Y001722D01*
X001427Y001759D01*
X001461Y001793D01*
X001498Y001825D01*
X001536Y001854D01*
X001577Y001879D01*
X001620Y001901D01*
X001665Y001919D01*
X001711Y001933D01*
X001758Y001944D01*
X001806Y001951D01*
X001854Y001954D01*
X001902Y001953D01*
X001950Y001948D01*
X001998Y001939D01*
X002044Y001927D01*
X002089Y001910D01*
X002133Y001890D01*
X002175Y001867D01*
X002215Y001840D01*
X002253Y001810D01*
X002288Y001777D01*
X002320Y001741D01*
X002350Y001703D01*
X002376Y001662D01*
X002398Y001619D01*
X002418Y001575D01*
X002433Y001530D01*
X002445Y001483D01*
X002453Y001435D01*
X002457Y001387D01*
X002457Y001339D01*
X002453Y001291D01*
X002445Y001243D01*
X002433Y001196D01*
X002418Y001151D01*
X002398Y001107D01*
X002376Y001064D01*
X002350Y001023D01*
X002320Y000985D01*
X002288Y000949D01*
X002253Y000916D01*
X002215Y000886D01*
X002175Y000859D01*
X002133Y000836D01*
X002089Y000816D01*
X002044Y000799D01*
X001998Y000787D01*
X001950Y000778D01*
X001902Y000773D01*
X001854Y000772D01*
X001806Y000775D01*
X001758Y000782D01*
X001711Y000793D01*
X001665Y000807D01*
X001620Y000825D01*
X001577Y000847D01*
X001536Y000872D01*
X001498Y000901D01*
X001461Y000933D01*
X001427Y000967D01*
X001397Y001004D01*
X001369Y001043D01*
X001344Y001085D01*
X001324Y001129D01*
X001306Y001174D01*
X001293Y001220D01*
X001283Y001267D01*
X001277Y001315D01*
X001275Y001363D01*
X001275Y004118D02*
X001277Y004166D01*
X001283Y004214D01*
X001293Y004261D01*
X001306Y004307D01*
X001324Y004352D01*
X001344Y004396D01*
X001369Y004438D01*
X001397Y004477D01*
X001427Y004514D01*
X001461Y004548D01*
X001498Y004580D01*
X001536Y004609D01*
X001577Y004634D01*
X001620Y004656D01*
X001665Y004674D01*
X001711Y004688D01*
X001758Y004699D01*
X001806Y004706D01*
X001854Y004709D01*
X001902Y004708D01*
X001950Y004703D01*
X001998Y004694D01*
X002044Y004682D01*
X002089Y004665D01*
X002133Y004645D01*
X002175Y004622D01*
X002215Y004595D01*
X002253Y004565D01*
X002288Y004532D01*
X002320Y004496D01*
X002350Y004458D01*
X002376Y004417D01*
X002398Y004374D01*
X002418Y004330D01*
X002433Y004285D01*
X002445Y004238D01*
X002453Y004190D01*
X002457Y004142D01*
X002457Y004094D01*
X002453Y004046D01*
X002445Y003998D01*
X002433Y003951D01*
X002418Y003906D01*
X002398Y003862D01*
X002376Y003819D01*
X002350Y003778D01*
X002320Y003740D01*
X002288Y003704D01*
X002253Y003671D01*
X002215Y003641D01*
X002175Y003614D01*
X002133Y003591D01*
X002089Y003571D01*
X002044Y003554D01*
X001998Y003542D01*
X001950Y003533D01*
X001902Y003528D01*
X001854Y003527D01*
X001806Y003530D01*
X001758Y003537D01*
X001711Y003548D01*
X001665Y003562D01*
X001620Y003580D01*
X001577Y003602D01*
X001536Y003627D01*
X001498Y003656D01*
X001461Y003688D01*
X001427Y003722D01*
X001397Y003759D01*
X001369Y003798D01*
X001344Y003840D01*
X001324Y003884D01*
X001306Y003929D01*
X001293Y003975D01*
X001283Y004022D01*
X001277Y004070D01*
X001275Y004118D01*
X038283Y004118D02*
X038285Y004166D01*
X038291Y004214D01*
X038301Y004261D01*
X038314Y004307D01*
X038332Y004352D01*
X038352Y004396D01*
X038377Y004438D01*
X038405Y004477D01*
X038435Y004514D01*
X038469Y004548D01*
X038506Y004580D01*
X038544Y004609D01*
X038585Y004634D01*
X038628Y004656D01*
X038673Y004674D01*
X038719Y004688D01*
X038766Y004699D01*
X038814Y004706D01*
X038862Y004709D01*
X038910Y004708D01*
X038958Y004703D01*
X039006Y004694D01*
X039052Y004682D01*
X039097Y004665D01*
X039141Y004645D01*
X039183Y004622D01*
X039223Y004595D01*
X039261Y004565D01*
X039296Y004532D01*
X039328Y004496D01*
X039358Y004458D01*
X039384Y004417D01*
X039406Y004374D01*
X039426Y004330D01*
X039441Y004285D01*
X039453Y004238D01*
X039461Y004190D01*
X039465Y004142D01*
X039465Y004094D01*
X039461Y004046D01*
X039453Y003998D01*
X039441Y003951D01*
X039426Y003906D01*
X039406Y003862D01*
X039384Y003819D01*
X039358Y003778D01*
X039328Y003740D01*
X039296Y003704D01*
X039261Y003671D01*
X039223Y003641D01*
X039183Y003614D01*
X039141Y003591D01*
X039097Y003571D01*
X039052Y003554D01*
X039006Y003542D01*
X038958Y003533D01*
X038910Y003528D01*
X038862Y003527D01*
X038814Y003530D01*
X038766Y003537D01*
X038719Y003548D01*
X038673Y003562D01*
X038628Y003580D01*
X038585Y003602D01*
X038544Y003627D01*
X038506Y003656D01*
X038469Y003688D01*
X038435Y003722D01*
X038405Y003759D01*
X038377Y003798D01*
X038352Y003840D01*
X038332Y003884D01*
X038314Y003929D01*
X038301Y003975D01*
X038291Y004022D01*
X038285Y004070D01*
X038283Y004118D01*
X038283Y001363D02*
X038285Y001411D01*
X038291Y001459D01*
X038301Y001506D01*
X038314Y001552D01*
X038332Y001597D01*
X038352Y001641D01*
X038377Y001683D01*
X038405Y001722D01*
X038435Y001759D01*
X038469Y001793D01*
X038506Y001825D01*
X038544Y001854D01*
X038585Y001879D01*
X038628Y001901D01*
X038673Y001919D01*
X038719Y001933D01*
X038766Y001944D01*
X038814Y001951D01*
X038862Y001954D01*
X038910Y001953D01*
X038958Y001948D01*
X039006Y001939D01*
X039052Y001927D01*
X039097Y001910D01*
X039141Y001890D01*
X039183Y001867D01*
X039223Y001840D01*
X039261Y001810D01*
X039296Y001777D01*
X039328Y001741D01*
X039358Y001703D01*
X039384Y001662D01*
X039406Y001619D01*
X039426Y001575D01*
X039441Y001530D01*
X039453Y001483D01*
X039461Y001435D01*
X039465Y001387D01*
X039465Y001339D01*
X039461Y001291D01*
X039453Y001243D01*
X039441Y001196D01*
X039426Y001151D01*
X039406Y001107D01*
X039384Y001064D01*
X039358Y001023D01*
X039328Y000985D01*
X039296Y000949D01*
X039261Y000916D01*
X039223Y000886D01*
X039183Y000859D01*
X039141Y000836D01*
X039097Y000816D01*
X039052Y000799D01*
X039006Y000787D01*
X038958Y000778D01*
X038910Y000773D01*
X038862Y000772D01*
X038814Y000775D01*
X038766Y000782D01*
X038719Y000793D01*
X038673Y000807D01*
X038628Y000825D01*
X038585Y000847D01*
X038544Y000872D01*
X038506Y000901D01*
X038469Y000933D01*
X038435Y000967D01*
X038405Y001004D01*
X038377Y001043D01*
X038352Y001085D01*
X038332Y001129D01*
X038314Y001174D01*
X038301Y001220D01*
X038291Y001267D01*
X038285Y001315D01*
X038283Y001363D01*
M02*
