%
M48
M72
T01C0.0320
T02C0.0394
T03C0.1181
%
T01
X18685Y2181
X20685Y2181
X20685Y3181
X18685Y3181
X18685Y4181
X20685Y4181
T02
X24185Y3181
X25185Y3181
X32185Y3181
X33185Y3181
X15185Y3181
X14185Y3181
X11685Y3181
X10685Y3181
X8185Y3181
X7185Y3181
X4685Y3181
X3685Y3181
T03
X1866Y1363
X1866Y4118
X38874Y4118
X38874Y1363
M30
