G75*
G70*
%OFA0B0*%
%FSLAX24Y24*%
%IPPOS*%
%LPD*%
%AMOC8*
5,1,8,0,0,1.08239X$1,22.5*
%
%ADD10C,0.1261*%
%ADD11OC8,0.0710*%
%ADD12C,0.0674*%
%ADD13OC8,0.0600*%
%ADD14C,0.0600*%
%ADD15C,0.0595*%
%ADD16C,0.0710*%
%ADD17R,0.0595X0.0595*%
%ADD18C,0.1025*%
%ADD19C,0.0434*%
D10*
X001312Y002421D03*
X001312Y013838D03*
X038320Y013838D03*
X038320Y002421D03*
D11*
X011631Y006240D03*
X011631Y007240D03*
X007131Y012240D03*
D12*
X025131Y011537D02*
X025131Y010943D01*
X026131Y010943D02*
X026131Y011537D01*
X028631Y011537D02*
X028631Y010943D01*
X029631Y010943D02*
X029631Y011537D01*
X032131Y011537D02*
X032131Y010943D01*
X033131Y010943D02*
X033131Y011537D01*
X035631Y011537D02*
X035631Y010943D01*
X036631Y010943D02*
X036631Y011537D01*
X036131Y005037D02*
X036131Y004443D01*
X035131Y004443D02*
X035131Y005037D01*
X032631Y005037D02*
X032631Y004443D01*
X031631Y004443D02*
X031631Y005037D01*
X029131Y005037D02*
X029131Y004443D01*
X028131Y004443D02*
X028131Y005037D01*
X025631Y005037D02*
X025631Y004443D01*
X024631Y004443D02*
X024631Y005037D01*
D13*
X021131Y004240D03*
X020131Y004240D03*
X017131Y004240D03*
X016131Y004240D03*
X013131Y003240D03*
X012631Y003240D03*
X010631Y003240D03*
X010131Y003240D03*
X010131Y002240D03*
X010631Y002240D03*
X012631Y002240D03*
X013131Y002240D03*
X007131Y003490D03*
X006631Y003490D03*
X006631Y004490D03*
X007131Y004490D03*
X008131Y004740D03*
X008631Y004740D03*
X008631Y005740D03*
X008131Y005740D03*
X007131Y006740D03*
X006631Y006740D03*
X006631Y007740D03*
X007131Y007740D03*
X008631Y009240D03*
X008631Y010240D03*
X011631Y009990D03*
X011631Y008990D03*
X016131Y010240D03*
X017131Y010240D03*
X020131Y012240D03*
X021131Y012240D03*
X016631Y013240D03*
X015631Y013240D03*
X008131Y013740D03*
X007131Y013740D03*
X005131Y012240D03*
X002131Y012240D03*
X016131Y007240D03*
X017131Y007240D03*
X020131Y007240D03*
X021131Y007240D03*
X021131Y008240D03*
X020131Y008240D03*
D14*
X019131Y008980D02*
X019131Y009500D01*
X018131Y009500D02*
X018131Y008980D01*
X017131Y008980D02*
X017131Y009500D01*
X013391Y009240D02*
X012871Y009240D01*
X012871Y010240D02*
X013391Y010240D01*
X013391Y011240D02*
X012871Y011240D01*
X012871Y012240D02*
X013391Y012240D01*
X010391Y012240D02*
X009871Y012240D01*
X009871Y011240D02*
X010391Y011240D01*
X010391Y010240D02*
X009871Y010240D01*
X009871Y009240D02*
X010391Y009240D01*
X010391Y008240D02*
X009871Y008240D01*
X009871Y007240D02*
X010391Y007240D01*
X012871Y007240D02*
X013391Y007240D01*
X013391Y008240D02*
X012871Y008240D01*
X017131Y006500D02*
X017131Y005980D01*
X018131Y005980D02*
X018131Y006500D01*
X019131Y006500D02*
X019131Y005980D01*
X021131Y005980D02*
X021131Y006500D01*
X022131Y006500D02*
X022131Y005980D01*
X023131Y005980D02*
X023131Y006500D01*
X023131Y008980D02*
X023131Y009500D01*
X022131Y009500D02*
X022131Y008980D01*
X021131Y008980D02*
X021131Y009500D01*
X013391Y006240D02*
X012871Y006240D01*
X012871Y005240D02*
X013391Y005240D01*
X013391Y004240D02*
X012871Y004240D01*
X010391Y004240D02*
X009871Y004240D01*
X009871Y005240D02*
X010391Y005240D01*
X010391Y006240D02*
X009871Y006240D01*
X017131Y003500D02*
X017131Y002980D01*
X018131Y002980D02*
X018131Y003500D01*
X019131Y003500D02*
X019131Y002980D01*
X021131Y002980D02*
X021131Y003500D01*
X022131Y003500D02*
X022131Y002980D01*
X023131Y002980D02*
X023131Y003500D01*
X023131Y012980D02*
X023131Y013500D01*
X022131Y013500D02*
X022131Y012980D01*
X021131Y012980D02*
X021131Y013500D01*
X019131Y013500D02*
X019131Y012980D01*
X018131Y012980D02*
X018131Y013500D01*
X017131Y013500D02*
X017131Y012980D01*
X004131Y013480D02*
X004131Y014000D01*
X003131Y014000D02*
X003131Y013480D01*
D15*
X014631Y009740D03*
X014631Y008740D03*
X014631Y007740D03*
D16*
X008131Y012240D03*
D17*
X004631Y008055D03*
X003631Y007653D03*
X004631Y007251D03*
X003631Y006850D03*
X004631Y006448D03*
X003631Y006047D03*
X004631Y005645D03*
X003631Y005244D03*
D18*
X002726Y003848D03*
X002726Y009238D03*
D19*
X004631Y009553D03*
X004631Y003553D03*
M02*
