G75*
G70*
%OFA0B0*%
%FSLAX24Y24*%
%IPPOS*%
%LPD*%
%AMOC8*
5,1,8,0,0,1.08239X$1,22.5*
%
%ADD10C,0.0000*%
%ADD11C,0.0060*%
%ADD12C,0.0100*%
%ADD13C,0.0050*%
%ADD14C,0.0040*%
%ADD15C,0.0200*%
%ADD16R,0.0150X0.0200*%
%ADD17C,0.0240*%
D10*
X000312Y001240D02*
X000312Y015019D01*
X039683Y015019D01*
X039683Y001240D01*
X000312Y001240D01*
X000903Y002421D02*
X000905Y002469D01*
X000911Y002517D01*
X000921Y002564D01*
X000934Y002610D01*
X000952Y002655D01*
X000972Y002699D01*
X000997Y002741D01*
X001025Y002780D01*
X001055Y002817D01*
X001089Y002851D01*
X001126Y002883D01*
X001164Y002912D01*
X001205Y002937D01*
X001248Y002959D01*
X001293Y002977D01*
X001339Y002991D01*
X001386Y003002D01*
X001434Y003009D01*
X001482Y003012D01*
X001530Y003011D01*
X001578Y003006D01*
X001626Y002997D01*
X001672Y002985D01*
X001717Y002968D01*
X001761Y002948D01*
X001803Y002925D01*
X001843Y002898D01*
X001881Y002868D01*
X001916Y002835D01*
X001948Y002799D01*
X001978Y002761D01*
X002004Y002720D01*
X002026Y002677D01*
X002046Y002633D01*
X002061Y002588D01*
X002073Y002541D01*
X002081Y002493D01*
X002085Y002445D01*
X002085Y002397D01*
X002081Y002349D01*
X002073Y002301D01*
X002061Y002254D01*
X002046Y002209D01*
X002026Y002165D01*
X002004Y002122D01*
X001978Y002081D01*
X001948Y002043D01*
X001916Y002007D01*
X001881Y001974D01*
X001843Y001944D01*
X001803Y001917D01*
X001761Y001894D01*
X001717Y001874D01*
X001672Y001857D01*
X001626Y001845D01*
X001578Y001836D01*
X001530Y001831D01*
X001482Y001830D01*
X001434Y001833D01*
X001386Y001840D01*
X001339Y001851D01*
X001293Y001865D01*
X001248Y001883D01*
X001205Y001905D01*
X001164Y001930D01*
X001126Y001959D01*
X001089Y001991D01*
X001055Y002025D01*
X001025Y002062D01*
X000997Y002101D01*
X000972Y002143D01*
X000952Y002187D01*
X000934Y002232D01*
X000921Y002278D01*
X000911Y002325D01*
X000905Y002373D01*
X000903Y002421D01*
X004135Y003553D02*
X004137Y003579D01*
X004143Y003605D01*
X004153Y003630D01*
X004166Y003653D01*
X004182Y003673D01*
X004202Y003691D01*
X004224Y003706D01*
X004247Y003718D01*
X004273Y003726D01*
X004299Y003730D01*
X004325Y003730D01*
X004351Y003726D01*
X004377Y003718D01*
X004401Y003706D01*
X004422Y003691D01*
X004442Y003673D01*
X004458Y003653D01*
X004471Y003630D01*
X004481Y003605D01*
X004487Y003579D01*
X004489Y003553D01*
X004487Y003527D01*
X004481Y003501D01*
X004471Y003476D01*
X004458Y003453D01*
X004442Y003433D01*
X004422Y003415D01*
X004400Y003400D01*
X004377Y003388D01*
X004351Y003380D01*
X004325Y003376D01*
X004299Y003376D01*
X004273Y003380D01*
X004247Y003388D01*
X004223Y003400D01*
X004202Y003415D01*
X004182Y003433D01*
X004166Y003453D01*
X004153Y003476D01*
X004143Y003501D01*
X004137Y003527D01*
X004135Y003553D01*
X001935Y003848D02*
X001937Y003891D01*
X001943Y003933D01*
X001953Y003975D01*
X001966Y004016D01*
X001983Y004056D01*
X002004Y004093D01*
X002028Y004129D01*
X002055Y004162D01*
X002085Y004193D01*
X002118Y004221D01*
X002153Y004246D01*
X002190Y004267D01*
X002229Y004285D01*
X002269Y004299D01*
X002311Y004310D01*
X002353Y004317D01*
X002396Y004320D01*
X002439Y004319D01*
X002482Y004314D01*
X002524Y004305D01*
X002565Y004293D01*
X002605Y004277D01*
X002643Y004257D01*
X002679Y004234D01*
X002713Y004207D01*
X002745Y004178D01*
X002773Y004146D01*
X002799Y004111D01*
X002821Y004075D01*
X002840Y004036D01*
X002855Y003996D01*
X002867Y003955D01*
X002875Y003912D01*
X002879Y003869D01*
X002879Y003827D01*
X002875Y003784D01*
X002867Y003741D01*
X002855Y003700D01*
X002840Y003660D01*
X002821Y003621D01*
X002799Y003585D01*
X002773Y003550D01*
X002745Y003518D01*
X002713Y003489D01*
X002679Y003462D01*
X002643Y003439D01*
X002605Y003419D01*
X002565Y003403D01*
X002524Y003391D01*
X002482Y003382D01*
X002439Y003377D01*
X002396Y003376D01*
X002353Y003379D01*
X002311Y003386D01*
X002269Y003397D01*
X002229Y003411D01*
X002190Y003429D01*
X002153Y003450D01*
X002118Y003475D01*
X002085Y003503D01*
X002055Y003534D01*
X002028Y003567D01*
X002004Y003603D01*
X001983Y003640D01*
X001966Y003680D01*
X001953Y003721D01*
X001943Y003763D01*
X001937Y003805D01*
X001935Y003848D01*
X001935Y009238D02*
X001937Y009281D01*
X001943Y009323D01*
X001953Y009365D01*
X001966Y009406D01*
X001983Y009446D01*
X002004Y009483D01*
X002028Y009519D01*
X002055Y009552D01*
X002085Y009583D01*
X002118Y009611D01*
X002153Y009636D01*
X002190Y009657D01*
X002229Y009675D01*
X002269Y009689D01*
X002311Y009700D01*
X002353Y009707D01*
X002396Y009710D01*
X002439Y009709D01*
X002482Y009704D01*
X002524Y009695D01*
X002565Y009683D01*
X002605Y009667D01*
X002643Y009647D01*
X002679Y009624D01*
X002713Y009597D01*
X002745Y009568D01*
X002773Y009536D01*
X002799Y009501D01*
X002821Y009465D01*
X002840Y009426D01*
X002855Y009386D01*
X002867Y009345D01*
X002875Y009302D01*
X002879Y009259D01*
X002879Y009217D01*
X002875Y009174D01*
X002867Y009131D01*
X002855Y009090D01*
X002840Y009050D01*
X002821Y009011D01*
X002799Y008975D01*
X002773Y008940D01*
X002745Y008908D01*
X002713Y008879D01*
X002679Y008852D01*
X002643Y008829D01*
X002605Y008809D01*
X002565Y008793D01*
X002524Y008781D01*
X002482Y008772D01*
X002439Y008767D01*
X002396Y008766D01*
X002353Y008769D01*
X002311Y008776D01*
X002269Y008787D01*
X002229Y008801D01*
X002190Y008819D01*
X002153Y008840D01*
X002118Y008865D01*
X002085Y008893D01*
X002055Y008924D01*
X002028Y008957D01*
X002004Y008993D01*
X001983Y009030D01*
X001966Y009070D01*
X001953Y009111D01*
X001943Y009153D01*
X001937Y009195D01*
X001935Y009238D01*
X004135Y009553D02*
X004137Y009579D01*
X004143Y009605D01*
X004153Y009630D01*
X004166Y009653D01*
X004182Y009673D01*
X004202Y009691D01*
X004224Y009706D01*
X004247Y009718D01*
X004273Y009726D01*
X004299Y009730D01*
X004325Y009730D01*
X004351Y009726D01*
X004377Y009718D01*
X004401Y009706D01*
X004422Y009691D01*
X004442Y009673D01*
X004458Y009653D01*
X004471Y009630D01*
X004481Y009605D01*
X004487Y009579D01*
X004489Y009553D01*
X004487Y009527D01*
X004481Y009501D01*
X004471Y009476D01*
X004458Y009453D01*
X004442Y009433D01*
X004422Y009415D01*
X004400Y009400D01*
X004377Y009388D01*
X004351Y009380D01*
X004325Y009376D01*
X004299Y009376D01*
X004273Y009380D01*
X004247Y009388D01*
X004223Y009400D01*
X004202Y009415D01*
X004182Y009433D01*
X004166Y009453D01*
X004153Y009476D01*
X004143Y009501D01*
X004137Y009527D01*
X004135Y009553D01*
X000903Y013838D02*
X000905Y013886D01*
X000911Y013934D01*
X000921Y013981D01*
X000934Y014027D01*
X000952Y014072D01*
X000972Y014116D01*
X000997Y014158D01*
X001025Y014197D01*
X001055Y014234D01*
X001089Y014268D01*
X001126Y014300D01*
X001164Y014329D01*
X001205Y014354D01*
X001248Y014376D01*
X001293Y014394D01*
X001339Y014408D01*
X001386Y014419D01*
X001434Y014426D01*
X001482Y014429D01*
X001530Y014428D01*
X001578Y014423D01*
X001626Y014414D01*
X001672Y014402D01*
X001717Y014385D01*
X001761Y014365D01*
X001803Y014342D01*
X001843Y014315D01*
X001881Y014285D01*
X001916Y014252D01*
X001948Y014216D01*
X001978Y014178D01*
X002004Y014137D01*
X002026Y014094D01*
X002046Y014050D01*
X002061Y014005D01*
X002073Y013958D01*
X002081Y013910D01*
X002085Y013862D01*
X002085Y013814D01*
X002081Y013766D01*
X002073Y013718D01*
X002061Y013671D01*
X002046Y013626D01*
X002026Y013582D01*
X002004Y013539D01*
X001978Y013498D01*
X001948Y013460D01*
X001916Y013424D01*
X001881Y013391D01*
X001843Y013361D01*
X001803Y013334D01*
X001761Y013311D01*
X001717Y013291D01*
X001672Y013274D01*
X001626Y013262D01*
X001578Y013253D01*
X001530Y013248D01*
X001482Y013247D01*
X001434Y013250D01*
X001386Y013257D01*
X001339Y013268D01*
X001293Y013282D01*
X001248Y013300D01*
X001205Y013322D01*
X001164Y013347D01*
X001126Y013376D01*
X001089Y013408D01*
X001055Y013442D01*
X001025Y013479D01*
X000997Y013518D01*
X000972Y013560D01*
X000952Y013604D01*
X000934Y013649D01*
X000921Y013695D01*
X000911Y013742D01*
X000905Y013790D01*
X000903Y013838D01*
X037910Y013838D02*
X037912Y013886D01*
X037918Y013934D01*
X037928Y013981D01*
X037941Y014027D01*
X037959Y014072D01*
X037979Y014116D01*
X038004Y014158D01*
X038032Y014197D01*
X038062Y014234D01*
X038096Y014268D01*
X038133Y014300D01*
X038171Y014329D01*
X038212Y014354D01*
X038255Y014376D01*
X038300Y014394D01*
X038346Y014408D01*
X038393Y014419D01*
X038441Y014426D01*
X038489Y014429D01*
X038537Y014428D01*
X038585Y014423D01*
X038633Y014414D01*
X038679Y014402D01*
X038724Y014385D01*
X038768Y014365D01*
X038810Y014342D01*
X038850Y014315D01*
X038888Y014285D01*
X038923Y014252D01*
X038955Y014216D01*
X038985Y014178D01*
X039011Y014137D01*
X039033Y014094D01*
X039053Y014050D01*
X039068Y014005D01*
X039080Y013958D01*
X039088Y013910D01*
X039092Y013862D01*
X039092Y013814D01*
X039088Y013766D01*
X039080Y013718D01*
X039068Y013671D01*
X039053Y013626D01*
X039033Y013582D01*
X039011Y013539D01*
X038985Y013498D01*
X038955Y013460D01*
X038923Y013424D01*
X038888Y013391D01*
X038850Y013361D01*
X038810Y013334D01*
X038768Y013311D01*
X038724Y013291D01*
X038679Y013274D01*
X038633Y013262D01*
X038585Y013253D01*
X038537Y013248D01*
X038489Y013247D01*
X038441Y013250D01*
X038393Y013257D01*
X038346Y013268D01*
X038300Y013282D01*
X038255Y013300D01*
X038212Y013322D01*
X038171Y013347D01*
X038133Y013376D01*
X038096Y013408D01*
X038062Y013442D01*
X038032Y013479D01*
X038004Y013518D01*
X037979Y013560D01*
X037959Y013604D01*
X037941Y013649D01*
X037928Y013695D01*
X037918Y013742D01*
X037912Y013790D01*
X037910Y013838D01*
X037910Y002421D02*
X037912Y002469D01*
X037918Y002517D01*
X037928Y002564D01*
X037941Y002610D01*
X037959Y002655D01*
X037979Y002699D01*
X038004Y002741D01*
X038032Y002780D01*
X038062Y002817D01*
X038096Y002851D01*
X038133Y002883D01*
X038171Y002912D01*
X038212Y002937D01*
X038255Y002959D01*
X038300Y002977D01*
X038346Y002991D01*
X038393Y003002D01*
X038441Y003009D01*
X038489Y003012D01*
X038537Y003011D01*
X038585Y003006D01*
X038633Y002997D01*
X038679Y002985D01*
X038724Y002968D01*
X038768Y002948D01*
X038810Y002925D01*
X038850Y002898D01*
X038888Y002868D01*
X038923Y002835D01*
X038955Y002799D01*
X038985Y002761D01*
X039011Y002720D01*
X039033Y002677D01*
X039053Y002633D01*
X039068Y002588D01*
X039080Y002541D01*
X039088Y002493D01*
X039092Y002445D01*
X039092Y002397D01*
X039088Y002349D01*
X039080Y002301D01*
X039068Y002254D01*
X039053Y002209D01*
X039033Y002165D01*
X039011Y002122D01*
X038985Y002081D01*
X038955Y002043D01*
X038923Y002007D01*
X038888Y001974D01*
X038850Y001944D01*
X038810Y001917D01*
X038768Y001894D01*
X038724Y001874D01*
X038679Y001857D01*
X038633Y001845D01*
X038585Y001836D01*
X038537Y001831D01*
X038489Y001830D01*
X038441Y001833D01*
X038393Y001840D01*
X038346Y001851D01*
X038300Y001865D01*
X038255Y001883D01*
X038212Y001905D01*
X038171Y001930D01*
X038133Y001959D01*
X038096Y001991D01*
X038062Y002025D01*
X038032Y002062D01*
X038004Y002101D01*
X037979Y002143D01*
X037959Y002187D01*
X037941Y002232D01*
X037928Y002278D01*
X037918Y002325D01*
X037912Y002373D01*
X037910Y002421D01*
D11*
X013612Y002540D02*
X013012Y002540D01*
X013312Y002940D01*
X013012Y002940D01*
X013312Y002940D02*
X013612Y002940D01*
X013312Y002940D02*
X013612Y002540D01*
X011112Y002540D02*
X010812Y002540D01*
X010512Y002540D01*
X010812Y002540D02*
X011112Y002940D01*
X010512Y002940D01*
X010812Y002540D01*
X010812Y003740D02*
X012812Y003740D01*
X012812Y012740D01*
X012062Y012740D01*
X012060Y012710D01*
X012055Y012680D01*
X012046Y012651D01*
X012033Y012624D01*
X012018Y012598D01*
X011999Y012574D01*
X011978Y012553D01*
X011954Y012534D01*
X011928Y012519D01*
X011901Y012506D01*
X011872Y012497D01*
X011842Y012492D01*
X011812Y012490D01*
X011782Y012492D01*
X011752Y012497D01*
X011723Y012506D01*
X011696Y012519D01*
X011670Y012534D01*
X011646Y012553D01*
X011625Y012574D01*
X011606Y012598D01*
X011591Y012624D01*
X011578Y012651D01*
X011569Y012680D01*
X011564Y012710D01*
X011562Y012740D01*
X010812Y012740D01*
X010812Y003740D01*
X009112Y005040D02*
X008812Y005040D01*
X008512Y005040D01*
X008812Y005040D02*
X009112Y005440D01*
X008512Y005440D01*
X008812Y005040D01*
X007612Y004190D02*
X007012Y004190D01*
X007312Y003790D01*
X007612Y003790D01*
X007312Y003790D02*
X007012Y003790D01*
X007312Y003790D02*
X007612Y004190D01*
X011412Y005790D02*
X012212Y005790D01*
X012229Y005792D01*
X012246Y005796D01*
X012262Y005803D01*
X012276Y005813D01*
X012289Y005826D01*
X012299Y005840D01*
X012306Y005856D01*
X012310Y005873D01*
X012312Y005890D01*
X012312Y007590D01*
X012310Y007607D01*
X012306Y007624D01*
X012299Y007640D01*
X012289Y007654D01*
X012276Y007667D01*
X012262Y007677D01*
X012246Y007684D01*
X012229Y007688D01*
X012212Y007690D01*
X011412Y007690D01*
X011395Y007688D01*
X011378Y007684D01*
X011362Y007677D01*
X011348Y007667D01*
X011335Y007654D01*
X011325Y007640D01*
X011318Y007624D01*
X011314Y007607D01*
X011312Y007590D01*
X011312Y005890D01*
X011314Y005873D01*
X011318Y005856D01*
X011325Y005840D01*
X011335Y005826D01*
X011348Y005813D01*
X011362Y005803D01*
X011378Y005796D01*
X011395Y005792D01*
X011412Y005790D01*
X011812Y006590D02*
X011812Y006640D01*
X011812Y006840D02*
X011812Y006890D01*
X007112Y007040D02*
X006512Y007040D01*
X006812Y007440D01*
X006512Y007440D01*
X006812Y007440D02*
X007112Y007440D01*
X006812Y007440D02*
X007112Y007040D01*
X008312Y009240D02*
X008314Y009284D01*
X008320Y009328D01*
X008330Y009371D01*
X008343Y009413D01*
X008360Y009454D01*
X008381Y009493D01*
X008405Y009530D01*
X008432Y009565D01*
X008462Y009597D01*
X008495Y009627D01*
X008531Y009653D01*
X008568Y009677D01*
X008608Y009696D01*
X008649Y009713D01*
X008692Y009725D01*
X008735Y009734D01*
X008779Y009739D01*
X008823Y009740D01*
X008867Y009737D01*
X008911Y009730D01*
X008954Y009719D01*
X008996Y009705D01*
X009036Y009687D01*
X009075Y009665D01*
X009111Y009641D01*
X009145Y009613D01*
X009177Y009582D01*
X009206Y009548D01*
X009232Y009512D01*
X009254Y009474D01*
X009273Y009434D01*
X009288Y009392D01*
X009300Y009350D01*
X009308Y009306D01*
X009312Y009262D01*
X009312Y009218D01*
X009308Y009174D01*
X009300Y009130D01*
X009288Y009088D01*
X009273Y009046D01*
X009254Y009006D01*
X009232Y008968D01*
X009206Y008932D01*
X009177Y008898D01*
X009145Y008867D01*
X009111Y008839D01*
X009075Y008815D01*
X009036Y008793D01*
X008996Y008775D01*
X008954Y008761D01*
X008911Y008750D01*
X008867Y008743D01*
X008823Y008740D01*
X008779Y008741D01*
X008735Y008746D01*
X008692Y008755D01*
X008649Y008767D01*
X008608Y008784D01*
X008568Y008803D01*
X008531Y008827D01*
X008495Y008853D01*
X008462Y008883D01*
X008432Y008915D01*
X008405Y008950D01*
X008381Y008987D01*
X008360Y009026D01*
X008343Y009067D01*
X008330Y009109D01*
X008320Y009152D01*
X008314Y009196D01*
X008312Y009240D01*
X008462Y011590D02*
X008462Y011740D01*
X008312Y011740D01*
X008462Y011740D02*
X008462Y011890D01*
X008462Y011740D02*
X008612Y011740D01*
X006712Y012240D02*
X006714Y012306D01*
X006720Y012371D01*
X006730Y012436D01*
X006743Y012501D01*
X006761Y012564D01*
X006782Y012627D01*
X006807Y012687D01*
X006836Y012747D01*
X006868Y012804D01*
X006903Y012860D01*
X006942Y012913D01*
X006984Y012964D01*
X007028Y013012D01*
X007076Y013057D01*
X007126Y013100D01*
X007179Y013139D01*
X007234Y013176D01*
X007291Y013209D01*
X007350Y013238D01*
X007410Y013264D01*
X007472Y013286D01*
X007535Y013305D01*
X007599Y013319D01*
X007664Y013330D01*
X007730Y013337D01*
X007796Y013340D01*
X007861Y013339D01*
X007927Y013334D01*
X007992Y013325D01*
X008057Y013312D01*
X008120Y013296D01*
X008183Y013276D01*
X008244Y013251D01*
X008304Y013224D01*
X008362Y013193D01*
X008418Y013158D01*
X008472Y013120D01*
X008523Y013079D01*
X008572Y013035D01*
X008618Y012988D01*
X008662Y012939D01*
X008702Y012887D01*
X008739Y012832D01*
X008773Y012776D01*
X008803Y012717D01*
X008830Y012657D01*
X008853Y012596D01*
X008872Y012533D01*
X008888Y012469D01*
X008900Y012404D01*
X008908Y012339D01*
X008912Y012273D01*
X008912Y012207D01*
X008908Y012141D01*
X008900Y012076D01*
X008888Y012011D01*
X008872Y011947D01*
X008853Y011884D01*
X008830Y011823D01*
X008803Y011763D01*
X008773Y011704D01*
X008739Y011648D01*
X008702Y011593D01*
X008662Y011541D01*
X008618Y011492D01*
X008572Y011445D01*
X008523Y011401D01*
X008472Y011360D01*
X008418Y011322D01*
X008362Y011287D01*
X008304Y011256D01*
X008244Y011229D01*
X008183Y011204D01*
X008120Y011184D01*
X008057Y011168D01*
X007992Y011155D01*
X007927Y011146D01*
X007861Y011141D01*
X007796Y011140D01*
X007730Y011143D01*
X007664Y011150D01*
X007599Y011161D01*
X007535Y011175D01*
X007472Y011194D01*
X007410Y011216D01*
X007350Y011242D01*
X007291Y011271D01*
X007234Y011304D01*
X007179Y011341D01*
X007126Y011380D01*
X007076Y011423D01*
X007028Y011468D01*
X006984Y011516D01*
X006942Y011567D01*
X006903Y011620D01*
X006868Y011676D01*
X006836Y011733D01*
X006807Y011793D01*
X006782Y011853D01*
X006761Y011916D01*
X006743Y011979D01*
X006730Y012044D01*
X006720Y012109D01*
X006714Y012174D01*
X006712Y012240D01*
X004812Y012540D02*
X004812Y011940D01*
X004810Y011923D01*
X004806Y011906D01*
X004799Y011890D01*
X004789Y011876D01*
X004776Y011863D01*
X004762Y011853D01*
X004746Y011846D01*
X004729Y011842D01*
X004712Y011840D01*
X004562Y011840D01*
X004512Y011890D01*
X003112Y011890D01*
X003062Y011840D01*
X002912Y011840D01*
X002895Y011842D01*
X002878Y011846D01*
X002862Y011853D01*
X002848Y011863D01*
X002835Y011876D01*
X002825Y011890D01*
X002818Y011906D01*
X002814Y011923D01*
X002812Y011940D01*
X002812Y012540D01*
X002814Y012557D01*
X002818Y012574D01*
X002825Y012590D01*
X002835Y012604D01*
X002848Y012617D01*
X002862Y012627D01*
X002878Y012634D01*
X002895Y012638D01*
X002912Y012640D01*
X003062Y012640D01*
X003112Y012590D01*
X004512Y012590D01*
X004562Y012640D01*
X004712Y012640D01*
X004729Y012638D01*
X004746Y012634D01*
X004762Y012627D01*
X004776Y012617D01*
X004789Y012604D01*
X004799Y012590D01*
X004806Y012574D01*
X004810Y012557D01*
X004812Y012540D01*
X004962Y013240D02*
X002862Y013240D01*
X002862Y013390D01*
X002862Y014090D01*
X002862Y014240D01*
X004962Y014240D01*
X004962Y013240D01*
X002862Y013390D02*
X002712Y013390D01*
X002712Y013490D02*
X002712Y013990D01*
X002712Y014090D02*
X002862Y014090D01*
X002612Y013940D02*
X002612Y013540D01*
X002512Y013640D02*
X002512Y013840D01*
X002712Y014090D02*
X002675Y014088D01*
X002639Y014082D01*
X002604Y014073D01*
X002570Y014060D01*
X002537Y014043D01*
X002506Y014023D01*
X002478Y014000D01*
X002452Y013974D01*
X002429Y013946D01*
X002409Y013915D01*
X002392Y013882D01*
X002379Y013848D01*
X002370Y013813D01*
X002364Y013777D01*
X002362Y013740D01*
X002364Y013703D01*
X002370Y013667D01*
X002379Y013632D01*
X002392Y013598D01*
X002409Y013565D01*
X002429Y013534D01*
X002452Y013506D01*
X002478Y013480D01*
X002506Y013457D01*
X002537Y013437D01*
X002570Y013420D01*
X002604Y013407D01*
X002639Y013398D01*
X002675Y013392D01*
X002712Y013390D01*
D12*
X011512Y006840D02*
X011812Y006840D01*
X012112Y006840D01*
X012112Y006640D02*
X011812Y006640D01*
X011512Y006640D01*
X024312Y005990D02*
X024312Y005240D01*
X026312Y005240D01*
X026312Y003490D01*
X024312Y003490D01*
X024312Y005240D01*
X024312Y005990D02*
X026312Y005990D01*
X026312Y005240D01*
X027812Y005240D02*
X029812Y005240D01*
X029812Y003490D01*
X027812Y003490D01*
X027812Y005240D01*
X027812Y005990D01*
X029812Y005990D01*
X029812Y005240D01*
X031312Y005240D02*
X031312Y005990D01*
X033312Y005990D01*
X033312Y005240D01*
X031312Y005240D01*
X031312Y003490D01*
X033312Y003490D01*
X033312Y005240D01*
X034812Y005240D02*
X034812Y005990D01*
X036812Y005990D01*
X036812Y005240D01*
X034812Y005240D01*
X034812Y003490D01*
X036812Y003490D01*
X036812Y005240D01*
X037312Y009990D02*
X035312Y009990D01*
X035312Y011740D01*
X037312Y011740D01*
X037312Y009990D01*
X033812Y009990D02*
X031812Y009990D01*
X031812Y011740D01*
X033812Y011740D01*
X033812Y009990D01*
X030312Y009990D02*
X028312Y009990D01*
X028312Y011740D01*
X030312Y011740D01*
X030312Y009990D01*
X026812Y009990D02*
X024812Y009990D01*
X024812Y011740D01*
X026812Y011740D01*
X026812Y009990D01*
X026812Y011740D02*
X026812Y012490D01*
X024812Y012490D01*
X024812Y011740D01*
X028312Y011740D02*
X028312Y012490D01*
X030312Y012490D01*
X030312Y011740D01*
X031812Y011740D02*
X031812Y012490D01*
X033812Y012490D01*
X033812Y011740D01*
X035312Y011740D02*
X035312Y012490D01*
X037312Y012490D01*
X037312Y011740D01*
D13*
X023177Y011715D02*
X023177Y011640D01*
X023102Y011565D01*
X022952Y011565D01*
X022877Y011640D01*
X023027Y011790D02*
X023102Y011790D01*
X023177Y011715D01*
X023102Y011790D02*
X023177Y011865D01*
X023177Y011940D01*
X023102Y012015D01*
X022952Y012015D01*
X022877Y011940D01*
X022717Y012015D02*
X022417Y012015D01*
X022567Y012015D02*
X022567Y011565D01*
X021218Y012800D02*
X021143Y012725D01*
X020993Y012725D01*
X020918Y012800D01*
X021218Y013100D01*
X021218Y012800D01*
X020918Y012800D02*
X020918Y013100D01*
X020993Y013175D01*
X021143Y013175D01*
X021218Y013100D01*
X021760Y013290D02*
X021865Y013290D01*
X021358Y013678D02*
X021385Y013734D01*
X021416Y013788D01*
X021450Y013840D01*
X021487Y013890D01*
X021488Y013890D02*
X023137Y013890D01*
X022865Y013290D02*
X022760Y013290D01*
X023263Y013687D02*
X023236Y013741D01*
X023206Y013792D01*
X023173Y013842D01*
X023138Y013890D01*
X023262Y012793D02*
X023233Y012736D01*
X023200Y012680D01*
X023165Y012627D01*
X023125Y012576D01*
X023083Y012528D01*
X023038Y012482D01*
X022991Y012439D01*
X022941Y012399D01*
X022888Y012362D01*
X022833Y012329D01*
X022777Y012298D01*
X022718Y012272D01*
X022658Y012249D01*
X022597Y012229D01*
X022535Y012214D01*
X022472Y012202D01*
X022408Y012194D01*
X022344Y012190D01*
X022280Y012190D01*
X022216Y012194D01*
X022152Y012202D01*
X022089Y012214D01*
X022027Y012229D01*
X021966Y012249D01*
X021906Y012272D01*
X021847Y012298D01*
X021791Y012329D01*
X021736Y012362D01*
X021683Y012399D01*
X021633Y012439D01*
X021586Y012482D01*
X021541Y012528D01*
X021499Y012576D01*
X021459Y012627D01*
X021424Y012680D01*
X021391Y012736D01*
X021362Y012793D01*
X020758Y012725D02*
X020458Y012725D01*
X020608Y012725D02*
X020608Y013175D01*
X020458Y013025D01*
X020298Y013100D02*
X020298Y012950D01*
X020223Y012875D01*
X019997Y012875D01*
X019997Y012725D02*
X019997Y013175D01*
X020223Y013175D01*
X020298Y013100D01*
X020148Y012875D02*
X020298Y012725D01*
X019102Y012015D02*
X018877Y011790D01*
X019177Y011790D01*
X019102Y011565D02*
X019102Y012015D01*
X018717Y012015D02*
X018417Y012015D01*
X018567Y012015D02*
X018567Y011565D01*
X017218Y011100D02*
X017143Y011175D01*
X016993Y011175D01*
X016918Y011100D01*
X017218Y011100D02*
X017218Y011025D01*
X016918Y010725D01*
X017218Y010725D01*
X016758Y010725D02*
X016458Y010725D01*
X016608Y010725D02*
X016608Y011175D01*
X016458Y011025D01*
X016298Y011100D02*
X016298Y010950D01*
X016223Y010875D01*
X015997Y010875D01*
X015997Y010725D02*
X015997Y011175D01*
X016223Y011175D01*
X016298Y011100D01*
X016148Y010875D02*
X016298Y010725D01*
X017488Y009890D02*
X019137Y009890D01*
X018865Y009290D02*
X018760Y009290D01*
X019263Y009687D02*
X019236Y009741D01*
X019206Y009792D01*
X019173Y009842D01*
X019138Y009890D01*
X019262Y008793D02*
X019233Y008736D01*
X019200Y008680D01*
X019165Y008627D01*
X019125Y008576D01*
X019083Y008528D01*
X019038Y008482D01*
X018991Y008439D01*
X018941Y008399D01*
X018888Y008362D01*
X018833Y008329D01*
X018777Y008298D01*
X018718Y008272D01*
X018658Y008249D01*
X018597Y008229D01*
X018535Y008214D01*
X018472Y008202D01*
X018408Y008194D01*
X018344Y008190D01*
X018280Y008190D01*
X018216Y008194D01*
X018152Y008202D01*
X018089Y008214D01*
X018027Y008229D01*
X017966Y008249D01*
X017906Y008272D01*
X017847Y008298D01*
X017791Y008329D01*
X017736Y008362D01*
X017683Y008399D01*
X017633Y008439D01*
X017586Y008482D01*
X017541Y008528D01*
X017499Y008576D01*
X017459Y008627D01*
X017424Y008680D01*
X017391Y008736D01*
X017362Y008793D01*
X017760Y009290D02*
X017865Y009290D01*
X017358Y009678D02*
X017385Y009734D01*
X017416Y009788D01*
X017450Y009840D01*
X017487Y009890D01*
X015312Y009740D02*
X015312Y007740D01*
X015310Y007696D01*
X015304Y007653D01*
X015295Y007611D01*
X015282Y007569D01*
X015265Y007529D01*
X015245Y007490D01*
X015222Y007453D01*
X015195Y007419D01*
X015166Y007386D01*
X015133Y007357D01*
X015099Y007330D01*
X015062Y007307D01*
X015023Y007287D01*
X014983Y007270D01*
X014941Y007257D01*
X014899Y007248D01*
X014856Y007242D01*
X014812Y007240D01*
X014768Y007242D01*
X014725Y007248D01*
X014683Y007257D01*
X014641Y007270D01*
X014601Y007287D01*
X014562Y007307D01*
X014525Y007330D01*
X014491Y007357D01*
X014458Y007386D01*
X014429Y007419D01*
X014402Y007453D01*
X014379Y007490D01*
X014359Y007529D01*
X014342Y007569D01*
X014329Y007611D01*
X014320Y007653D01*
X014314Y007696D01*
X014312Y007740D01*
X014312Y009740D01*
X014314Y009784D01*
X014320Y009827D01*
X014329Y009869D01*
X014342Y009911D01*
X014359Y009951D01*
X014379Y009990D01*
X014402Y010027D01*
X014429Y010061D01*
X014458Y010094D01*
X014491Y010123D01*
X014525Y010150D01*
X014562Y010173D01*
X014601Y010193D01*
X014641Y010210D01*
X014683Y010223D01*
X014725Y010232D01*
X014768Y010238D01*
X014812Y010240D01*
X014856Y010238D01*
X014899Y010232D01*
X014941Y010223D01*
X014983Y010210D01*
X015023Y010193D01*
X015062Y010173D01*
X015099Y010150D01*
X015133Y010123D01*
X015166Y010094D01*
X015195Y010061D01*
X015222Y010027D01*
X015245Y009990D01*
X015265Y009951D01*
X015282Y009911D01*
X015295Y009869D01*
X015304Y009827D01*
X015310Y009784D01*
X015312Y009740D01*
X012747Y009734D02*
X012597Y009584D01*
X012597Y009659D02*
X012597Y009434D01*
X012747Y009434D02*
X012297Y009434D01*
X012297Y009659D01*
X012372Y009734D01*
X012522Y009734D01*
X012597Y009659D01*
X012747Y009894D02*
X012447Y010195D01*
X012372Y010195D01*
X012297Y010119D01*
X012297Y009969D01*
X012372Y009894D01*
X012747Y009894D02*
X012747Y010195D01*
X008387Y010045D02*
X008237Y009895D01*
X008237Y009970D02*
X008237Y009745D01*
X008387Y009745D02*
X007937Y009745D01*
X007937Y009970D01*
X008012Y010045D01*
X008162Y010045D01*
X008237Y009970D01*
X008162Y010205D02*
X008162Y010505D01*
X007937Y010430D02*
X008162Y010205D01*
X008387Y010430D02*
X007937Y010430D01*
X006627Y011165D02*
X006327Y011165D01*
X006627Y011465D01*
X006627Y011540D01*
X006552Y011615D01*
X006402Y011615D01*
X006327Y011540D01*
X006167Y011540D02*
X006092Y011615D01*
X005942Y011615D01*
X005867Y011540D01*
X005867Y011240D01*
X005942Y011165D01*
X006092Y011165D01*
X006167Y011240D01*
X005730Y009553D02*
X000139Y009553D01*
X000139Y003553D01*
X005730Y003553D01*
X005730Y009553D01*
X007512Y007755D02*
X007512Y007454D01*
X007287Y007679D01*
X007737Y007679D01*
X007662Y007294D02*
X007362Y007294D01*
X007287Y007219D01*
X007287Y006994D01*
X007737Y006994D01*
X007737Y007219D01*
X007662Y007294D01*
X006827Y007185D02*
X006827Y006885D01*
X006827Y007035D02*
X006377Y007035D01*
X006527Y006885D01*
X006452Y006725D02*
X006602Y006725D01*
X006677Y006650D01*
X006677Y006425D01*
X006677Y006575D02*
X006827Y006725D01*
X006452Y006725D02*
X006377Y006650D01*
X006377Y006425D01*
X006827Y006425D01*
X008797Y005944D02*
X008797Y005644D01*
X009022Y005644D01*
X008947Y005794D01*
X008947Y005869D01*
X009022Y005944D01*
X009172Y005944D01*
X009247Y005869D01*
X009247Y005719D01*
X009172Y005644D01*
X009247Y005484D02*
X009247Y005184D01*
X009247Y005334D02*
X008797Y005334D01*
X008947Y005184D01*
X008872Y005024D02*
X009022Y005024D01*
X009097Y004949D01*
X009097Y004724D01*
X009097Y004874D02*
X009247Y005024D01*
X008872Y005024D02*
X008797Y004949D01*
X008797Y004724D01*
X009247Y004724D01*
X008337Y004615D02*
X008337Y004840D01*
X008262Y004915D01*
X007962Y004915D01*
X007887Y004840D01*
X007887Y004615D01*
X008337Y004615D01*
X007747Y004619D02*
X007747Y004469D01*
X007672Y004394D01*
X007747Y004234D02*
X007747Y003934D01*
X007747Y004084D02*
X007297Y004084D01*
X007447Y003934D01*
X007372Y003774D02*
X007522Y003774D01*
X007597Y003699D01*
X007597Y003474D01*
X007597Y003624D02*
X007747Y003774D01*
X007372Y003774D02*
X007297Y003699D01*
X007297Y003474D01*
X007747Y003474D01*
X006837Y003365D02*
X006837Y003590D01*
X006762Y003665D01*
X006462Y003665D01*
X006387Y003590D01*
X006387Y003365D01*
X006837Y003365D01*
X006837Y003825D02*
X006537Y004125D01*
X006462Y004125D01*
X006387Y004050D01*
X006387Y003900D01*
X006462Y003825D01*
X006837Y003825D02*
X006837Y004125D01*
X007297Y004469D02*
X007372Y004394D01*
X007297Y004469D02*
X007297Y004619D01*
X007372Y004694D01*
X007447Y004694D01*
X007522Y004619D01*
X007597Y004694D01*
X007672Y004694D01*
X007747Y004619D01*
X007522Y004619D02*
X007522Y004544D01*
X007887Y005075D02*
X008112Y005075D01*
X008037Y005225D01*
X008037Y005300D01*
X008112Y005375D01*
X008262Y005375D01*
X008337Y005300D01*
X008337Y005150D01*
X008262Y005075D01*
X007887Y005075D02*
X007887Y005375D01*
X010737Y006190D02*
X010737Y006340D01*
X010812Y006415D01*
X010887Y006575D02*
X010737Y006725D01*
X011187Y006725D01*
X011187Y006575D02*
X011187Y006875D01*
X011112Y006415D02*
X011187Y006340D01*
X011187Y006190D01*
X011112Y006115D01*
X010812Y006115D01*
X010737Y006190D01*
X006827Y007571D02*
X006377Y007571D01*
X006602Y007345D01*
X006602Y007646D01*
X016296Y006755D02*
X016296Y006305D01*
X016296Y006455D02*
X016521Y006455D01*
X016597Y006530D01*
X016597Y006680D01*
X016521Y006755D01*
X016296Y006755D01*
X016757Y006605D02*
X016907Y006755D01*
X016907Y006305D01*
X016757Y006305D02*
X017057Y006305D01*
X017217Y006305D02*
X017517Y006305D01*
X017367Y006305D02*
X017367Y006755D01*
X017217Y006605D01*
X016597Y006305D02*
X016446Y006455D01*
X017488Y006890D02*
X019137Y006890D01*
X018865Y006290D02*
X018760Y006290D01*
X019263Y006687D02*
X019236Y006741D01*
X019206Y006792D01*
X019173Y006842D01*
X019138Y006890D01*
X019262Y005793D02*
X019233Y005736D01*
X019200Y005680D01*
X019165Y005627D01*
X019125Y005576D01*
X019083Y005528D01*
X019038Y005482D01*
X018991Y005439D01*
X018941Y005399D01*
X018888Y005362D01*
X018833Y005329D01*
X018777Y005298D01*
X018718Y005272D01*
X018658Y005249D01*
X018597Y005229D01*
X018535Y005214D01*
X018472Y005202D01*
X018408Y005194D01*
X018344Y005190D01*
X018280Y005190D01*
X018216Y005194D01*
X018152Y005202D01*
X018089Y005214D01*
X018027Y005229D01*
X017966Y005249D01*
X017906Y005272D01*
X017847Y005298D01*
X017791Y005329D01*
X017736Y005362D01*
X017683Y005399D01*
X017633Y005439D01*
X017586Y005482D01*
X017541Y005528D01*
X017499Y005576D01*
X017459Y005627D01*
X017424Y005680D01*
X017391Y005736D01*
X017362Y005793D01*
X017760Y006290D02*
X017865Y006290D01*
X017358Y006678D02*
X017385Y006734D01*
X017416Y006788D01*
X017450Y006840D01*
X017487Y006890D01*
X018567Y007565D02*
X018567Y008015D01*
X018417Y008015D02*
X018717Y008015D01*
X018877Y007865D02*
X019027Y008015D01*
X019027Y007565D01*
X018877Y007565D02*
X019177Y007565D01*
X020757Y006755D02*
X020982Y006755D01*
X021057Y006680D01*
X021057Y006530D01*
X020982Y006455D01*
X020757Y006455D01*
X020907Y006455D02*
X021057Y006305D01*
X021217Y006305D02*
X021217Y006380D01*
X021517Y006680D01*
X021517Y006755D01*
X021217Y006755D01*
X021488Y006890D02*
X023137Y006890D01*
X022865Y006290D02*
X022760Y006290D01*
X023263Y006687D02*
X023236Y006741D01*
X023206Y006792D01*
X023173Y006842D01*
X023138Y006890D01*
X023262Y005793D02*
X023233Y005736D01*
X023200Y005680D01*
X023165Y005627D01*
X023125Y005576D01*
X023083Y005528D01*
X023038Y005482D01*
X022991Y005439D01*
X022941Y005399D01*
X022888Y005362D01*
X022833Y005329D01*
X022777Y005298D01*
X022718Y005272D01*
X022658Y005249D01*
X022597Y005229D01*
X022535Y005214D01*
X022472Y005202D01*
X022408Y005194D01*
X022344Y005190D01*
X022280Y005190D01*
X022216Y005194D01*
X022152Y005202D01*
X022089Y005214D01*
X022027Y005229D01*
X021966Y005249D01*
X021906Y005272D01*
X021847Y005298D01*
X021791Y005329D01*
X021736Y005362D01*
X021683Y005399D01*
X021633Y005439D01*
X021586Y005482D01*
X021541Y005528D01*
X021499Y005576D01*
X021459Y005627D01*
X021424Y005680D01*
X021391Y005736D01*
X021362Y005793D01*
X021760Y006290D02*
X021865Y006290D01*
X021358Y006678D02*
X021385Y006734D01*
X021416Y006788D01*
X021450Y006840D01*
X021487Y006890D01*
X020757Y006755D02*
X020757Y006305D01*
X022567Y007565D02*
X022567Y008015D01*
X022417Y008015D02*
X022717Y008015D01*
X022877Y008015D02*
X022877Y007790D01*
X023027Y007865D01*
X023102Y007865D01*
X023177Y007790D01*
X023177Y007640D01*
X023102Y007565D01*
X022952Y007565D01*
X022877Y007640D01*
X022877Y008015D02*
X023177Y008015D01*
X020758Y008800D02*
X020683Y008725D01*
X020533Y008725D01*
X020458Y008800D01*
X020458Y008875D01*
X020533Y008950D01*
X020683Y008950D01*
X020758Y008875D01*
X020758Y008800D01*
X020683Y008950D02*
X020758Y009025D01*
X020758Y009100D01*
X020683Y009175D01*
X020533Y009175D01*
X020458Y009100D01*
X020458Y009025D01*
X020533Y008950D01*
X020298Y008950D02*
X020223Y008875D01*
X019997Y008875D01*
X019997Y008725D02*
X019997Y009175D01*
X020223Y009175D01*
X020298Y009100D01*
X020298Y008950D01*
X020148Y008875D02*
X020298Y008725D01*
X021760Y009290D02*
X021865Y009290D01*
X021358Y009678D02*
X021385Y009734D01*
X021416Y009788D01*
X021450Y009840D01*
X021487Y009890D01*
X021488Y009890D02*
X023137Y009890D01*
X022865Y009290D02*
X022760Y009290D01*
X023263Y009687D02*
X023236Y009741D01*
X023206Y009792D01*
X023173Y009842D01*
X023138Y009890D01*
X023262Y008793D02*
X023233Y008736D01*
X023200Y008680D01*
X023165Y008627D01*
X023125Y008576D01*
X023083Y008528D01*
X023038Y008482D01*
X022991Y008439D01*
X022941Y008399D01*
X022888Y008362D01*
X022833Y008329D01*
X022777Y008298D01*
X022718Y008272D01*
X022658Y008249D01*
X022597Y008229D01*
X022535Y008214D01*
X022472Y008202D01*
X022408Y008194D01*
X022344Y008190D01*
X022280Y008190D01*
X022216Y008194D01*
X022152Y008202D01*
X022089Y008214D01*
X022027Y008229D01*
X021966Y008249D01*
X021906Y008272D01*
X021847Y008298D01*
X021791Y008329D01*
X021736Y008362D01*
X021683Y008399D01*
X021633Y008439D01*
X021586Y008482D01*
X021541Y008528D01*
X021499Y008576D01*
X021459Y008627D01*
X021424Y008680D01*
X021391Y008736D01*
X021362Y008793D01*
X022417Y005015D02*
X022717Y005015D01*
X022567Y005015D02*
X022567Y004565D01*
X022877Y004640D02*
X022877Y004715D01*
X022952Y004790D01*
X023102Y004790D01*
X023177Y004715D01*
X023177Y004640D01*
X023102Y004565D01*
X022952Y004565D01*
X022877Y004640D01*
X022952Y004790D02*
X022877Y004865D01*
X022877Y004940D01*
X022952Y005015D01*
X023102Y005015D01*
X023177Y004940D01*
X023177Y004865D01*
X023102Y004790D01*
X023137Y003890D02*
X021488Y003890D01*
X021517Y003755D02*
X021367Y003680D01*
X021217Y003530D01*
X021442Y003530D01*
X021517Y003455D01*
X021517Y003380D01*
X021442Y003305D01*
X021292Y003305D01*
X021217Y003380D01*
X021217Y003530D01*
X021057Y003530D02*
X020982Y003455D01*
X020757Y003455D01*
X020907Y003455D02*
X021057Y003305D01*
X021057Y003530D02*
X021057Y003680D01*
X020982Y003755D01*
X020757Y003755D01*
X020757Y003305D01*
X021760Y003290D02*
X021865Y003290D01*
X021358Y003678D02*
X021385Y003734D01*
X021416Y003788D01*
X021450Y003840D01*
X021487Y003890D01*
X021362Y002793D02*
X021391Y002736D01*
X021424Y002680D01*
X021459Y002627D01*
X021499Y002576D01*
X021541Y002528D01*
X021586Y002482D01*
X021633Y002439D01*
X021683Y002399D01*
X021736Y002362D01*
X021791Y002329D01*
X021847Y002298D01*
X021906Y002272D01*
X021966Y002249D01*
X022027Y002229D01*
X022089Y002214D01*
X022152Y002202D01*
X022216Y002194D01*
X022280Y002190D01*
X022344Y002190D01*
X022408Y002194D01*
X022472Y002202D01*
X022535Y002214D01*
X022597Y002229D01*
X022658Y002249D01*
X022718Y002272D01*
X022777Y002298D01*
X022833Y002329D01*
X022888Y002362D01*
X022941Y002399D01*
X022991Y002439D01*
X023038Y002482D01*
X023083Y002528D01*
X023125Y002576D01*
X023165Y002627D01*
X023200Y002680D01*
X023233Y002736D01*
X023262Y002793D01*
X022865Y003290D02*
X022760Y003290D01*
X023263Y003687D02*
X023236Y003741D01*
X023206Y003792D01*
X023173Y003842D01*
X023138Y003890D01*
X019137Y003890D02*
X017488Y003890D01*
X017517Y003755D02*
X017217Y003755D01*
X017217Y003530D01*
X017367Y003605D01*
X017442Y003605D01*
X017517Y003530D01*
X017517Y003380D01*
X017442Y003305D01*
X017292Y003305D01*
X017217Y003380D01*
X017057Y003305D02*
X016907Y003455D01*
X016982Y003455D02*
X016757Y003455D01*
X016757Y003305D02*
X016757Y003755D01*
X016982Y003755D01*
X017057Y003680D01*
X017057Y003530D01*
X016982Y003455D01*
X017760Y003290D02*
X017865Y003290D01*
X017358Y003678D02*
X017385Y003734D01*
X017416Y003788D01*
X017450Y003840D01*
X017487Y003890D01*
X017362Y002793D02*
X017391Y002736D01*
X017424Y002680D01*
X017459Y002627D01*
X017499Y002576D01*
X017541Y002528D01*
X017586Y002482D01*
X017633Y002439D01*
X017683Y002399D01*
X017736Y002362D01*
X017791Y002329D01*
X017847Y002298D01*
X017906Y002272D01*
X017966Y002249D01*
X018027Y002229D01*
X018089Y002214D01*
X018152Y002202D01*
X018216Y002194D01*
X018280Y002190D01*
X018344Y002190D01*
X018408Y002194D01*
X018472Y002202D01*
X018535Y002214D01*
X018597Y002229D01*
X018658Y002249D01*
X018718Y002272D01*
X018777Y002298D01*
X018833Y002329D01*
X018888Y002362D01*
X018941Y002399D01*
X018991Y002439D01*
X019038Y002482D01*
X019083Y002528D01*
X019125Y002576D01*
X019165Y002627D01*
X019200Y002680D01*
X019233Y002736D01*
X019262Y002793D01*
X018865Y003290D02*
X018760Y003290D01*
X019263Y003687D02*
X019236Y003741D01*
X019206Y003792D01*
X019173Y003842D01*
X019138Y003890D01*
X019177Y004565D02*
X018877Y004565D01*
X019177Y004865D01*
X019177Y004940D01*
X019102Y005015D01*
X018952Y005015D01*
X018877Y004940D01*
X018717Y005015D02*
X018417Y005015D01*
X018567Y005015D02*
X018567Y004565D01*
X014237Y003179D02*
X014237Y003029D01*
X014162Y002954D01*
X014012Y002954D01*
X014012Y003179D01*
X014087Y003255D01*
X014162Y003255D01*
X014237Y003179D01*
X014012Y002954D02*
X013862Y003104D01*
X013787Y003255D01*
X013862Y002794D02*
X013787Y002719D01*
X013787Y002494D01*
X014237Y002494D01*
X014237Y002719D01*
X014162Y002794D01*
X013862Y002794D01*
X012327Y002845D02*
X012252Y002845D01*
X011952Y003146D01*
X011877Y003146D01*
X011877Y002845D01*
X012327Y002685D02*
X012327Y002385D01*
X012327Y002535D02*
X011877Y002535D01*
X012027Y002385D01*
X011952Y002225D02*
X012102Y002225D01*
X012177Y002150D01*
X012177Y001925D01*
X012177Y002075D02*
X012327Y002225D01*
X011952Y002225D02*
X011877Y002150D01*
X011877Y001925D01*
X012327Y001925D01*
X011247Y002224D02*
X010797Y002224D01*
X010797Y002449D01*
X010872Y002524D01*
X011022Y002524D01*
X011097Y002449D01*
X011097Y002224D01*
X011097Y002374D02*
X011247Y002524D01*
X011247Y002684D02*
X011247Y002984D01*
X011247Y002834D02*
X010797Y002834D01*
X010947Y002684D01*
X010337Y002650D02*
X010262Y002575D01*
X010337Y002650D02*
X010337Y002800D01*
X010262Y002875D01*
X010187Y002875D01*
X010112Y002800D01*
X010112Y002725D01*
X010112Y002800D02*
X010037Y002875D01*
X009962Y002875D01*
X009887Y002800D01*
X009887Y002650D01*
X009962Y002575D01*
X009962Y002415D02*
X009887Y002340D01*
X009887Y002115D01*
X010337Y002115D01*
X010337Y002340D01*
X010262Y002415D01*
X009962Y002415D01*
X010872Y003294D02*
X011022Y003144D01*
X011022Y003369D01*
X011097Y003444D01*
X011172Y003444D01*
X011247Y003369D01*
X011247Y003219D01*
X011172Y003144D01*
X011022Y003144D01*
X010872Y003294D02*
X010797Y003444D01*
X018417Y002015D02*
X018717Y002015D01*
X018567Y002015D02*
X018567Y001565D01*
X018877Y001640D02*
X018877Y001790D01*
X019102Y001790D01*
X019177Y001715D01*
X019177Y001640D01*
X019102Y001565D01*
X018952Y001565D01*
X018877Y001640D01*
X018877Y001790D02*
X019027Y001940D01*
X019177Y002015D01*
X022417Y002015D02*
X022717Y002015D01*
X022567Y002015D02*
X022567Y001565D01*
X022877Y001565D02*
X022877Y001640D01*
X023177Y001940D01*
X023177Y002015D01*
X022877Y002015D01*
X018865Y013290D02*
X018760Y013290D01*
X019263Y013687D02*
X019236Y013741D01*
X019206Y013792D01*
X019173Y013842D01*
X019138Y013890D01*
X019137Y013890D02*
X017488Y013890D01*
X016258Y013950D02*
X016033Y013950D01*
X015958Y014025D01*
X015958Y014100D01*
X016033Y014175D01*
X016183Y014175D01*
X016258Y014100D01*
X016258Y013800D01*
X016183Y013725D01*
X016033Y013725D01*
X015958Y013800D01*
X015798Y013725D02*
X015648Y013875D01*
X015723Y013875D02*
X015497Y013875D01*
X015497Y013725D02*
X015497Y014175D01*
X015723Y014175D01*
X015798Y014100D01*
X015798Y013950D01*
X015723Y013875D01*
X017760Y013290D02*
X017865Y013290D01*
X017358Y013678D02*
X017385Y013734D01*
X017416Y013788D01*
X017450Y013840D01*
X017487Y013890D01*
X017362Y012793D02*
X017391Y012736D01*
X017424Y012680D01*
X017459Y012627D01*
X017499Y012576D01*
X017541Y012528D01*
X017586Y012482D01*
X017633Y012439D01*
X017683Y012399D01*
X017736Y012362D01*
X017791Y012329D01*
X017847Y012298D01*
X017906Y012272D01*
X017966Y012249D01*
X018027Y012229D01*
X018089Y012214D01*
X018152Y012202D01*
X018216Y012194D01*
X018280Y012190D01*
X018344Y012190D01*
X018408Y012194D01*
X018472Y012202D01*
X018535Y012214D01*
X018597Y012229D01*
X018658Y012249D01*
X018718Y012272D01*
X018777Y012298D01*
X018833Y012329D01*
X018888Y012362D01*
X018941Y012399D01*
X018991Y012439D01*
X019038Y012482D01*
X019083Y012528D01*
X019125Y012576D01*
X019165Y012627D01*
X019200Y012680D01*
X019233Y012736D01*
X019262Y012793D01*
X007758Y014225D02*
X007458Y014225D01*
X007608Y014225D02*
X007608Y014675D01*
X007458Y014525D01*
X007298Y014600D02*
X007298Y014450D01*
X007223Y014375D01*
X006997Y014375D01*
X006997Y014225D02*
X006997Y014675D01*
X007223Y014675D01*
X007298Y014600D01*
X007148Y014375D02*
X007298Y014225D01*
X005948Y013815D02*
X005648Y013815D01*
X005798Y013815D02*
X005798Y014265D01*
X005648Y014115D01*
X005488Y014190D02*
X005488Y013890D01*
X005413Y013815D01*
X005187Y013815D01*
X005187Y014265D01*
X005413Y014265D01*
X005488Y014190D01*
D14*
X004648Y011710D02*
X004707Y011652D01*
X004707Y011593D01*
X004648Y011535D01*
X004707Y011476D01*
X004707Y011418D01*
X004648Y011360D01*
X004532Y011360D01*
X004473Y011418D01*
X004348Y011360D02*
X004231Y011476D01*
X004289Y011476D02*
X004114Y011476D01*
X004114Y011360D02*
X004114Y011710D01*
X004289Y011710D01*
X004348Y011652D01*
X004348Y011535D01*
X004289Y011476D01*
X004473Y011652D02*
X004532Y011710D01*
X004648Y011710D01*
X004648Y011535D02*
X004590Y011535D01*
X013332Y008834D02*
X013792Y008834D01*
X013792Y008987D02*
X013792Y008680D01*
X013486Y008680D02*
X013332Y008834D01*
X013332Y008527D02*
X013332Y008220D01*
X013332Y008067D02*
X013792Y007760D01*
X013792Y008067D02*
X013332Y007760D01*
X013332Y008373D02*
X013792Y008373D01*
X014332Y011032D02*
X014332Y011185D01*
X014332Y011109D02*
X014792Y011109D01*
X014792Y011185D02*
X014792Y011032D01*
X014716Y011339D02*
X014409Y011339D01*
X014332Y011416D01*
X014332Y011569D01*
X014409Y011646D01*
X014486Y011799D02*
X014332Y011953D01*
X014792Y011953D01*
X014792Y012106D02*
X014792Y011799D01*
X014716Y011646D02*
X014792Y011569D01*
X014792Y011416D01*
X014716Y011339D01*
X024832Y012760D02*
X024832Y013120D01*
X024832Y012940D02*
X025073Y012940D01*
X025073Y013120D02*
X025073Y012760D01*
X028332Y012820D02*
X028392Y012760D01*
X028513Y012760D01*
X028573Y012820D01*
X028573Y012940D01*
X028453Y012940D01*
X028573Y013060D02*
X028513Y013120D01*
X028392Y013120D01*
X028332Y013060D01*
X028332Y012820D01*
X031832Y012760D02*
X031832Y013120D01*
X032073Y013120D01*
X031953Y012940D02*
X031832Y012940D01*
X035332Y012940D02*
X035573Y012940D01*
X035573Y013000D02*
X035573Y012760D01*
X035573Y013000D02*
X035453Y013120D01*
X035332Y013000D01*
X035332Y012760D01*
X035073Y006620D02*
X034832Y006620D01*
X034832Y006260D01*
X035073Y006260D01*
X034953Y006440D02*
X034832Y006440D01*
X031573Y006320D02*
X031573Y006560D01*
X031513Y006620D01*
X031332Y006620D01*
X031332Y006260D01*
X031513Y006260D01*
X031573Y006320D01*
X028073Y006320D02*
X028013Y006260D01*
X027892Y006260D01*
X027832Y006320D01*
X027832Y006560D01*
X027892Y006620D01*
X028013Y006620D01*
X028073Y006560D01*
X024573Y006560D02*
X024573Y006500D01*
X024513Y006440D01*
X024332Y006440D01*
X024332Y006260D02*
X024332Y006620D01*
X024513Y006620D01*
X024573Y006560D01*
X024513Y006440D02*
X024573Y006380D01*
X024573Y006320D01*
X024513Y006260D01*
X024332Y006260D01*
D15*
X020862Y007240D02*
X020762Y007240D01*
X020762Y008240D02*
X020862Y008240D01*
X016862Y007240D02*
X016762Y007240D01*
X011812Y009440D02*
X011812Y009540D01*
X016762Y010240D02*
X016862Y010240D01*
X020762Y012240D02*
X020862Y012240D01*
X016362Y013240D02*
X016262Y013240D01*
X007862Y013740D02*
X007762Y013740D01*
X007312Y007290D02*
X007312Y007190D01*
X008312Y005290D02*
X008312Y005190D01*
X006812Y004040D02*
X006812Y003940D01*
X010312Y002790D02*
X010312Y002690D01*
X012812Y002690D02*
X012812Y002790D01*
X016762Y004240D02*
X016862Y004240D01*
X020762Y004240D02*
X020862Y004240D01*
D16*
X004887Y012240D03*
X002737Y012240D03*
D17*
X008812Y009840D02*
X008812Y009640D01*
M02*
