G75*
G70*
%OFA0B0*%
%FSLAX24Y24*%
%IPPOS*%
%LPD*%
%AMOC8*
5,1,8,0,0,1.08239X$1,22.5*
%
%ADD10C,0.0000*%
%ADD11C,0.0060*%
%ADD12C,0.0100*%
%ADD13C,0.0050*%
%ADD14C,0.0040*%
%ADD15C,0.0200*%
%ADD16R,0.0150X0.0200*%
%ADD17C,0.0240*%
D10*
X000131Y001240D02*
X000131Y015019D01*
X039501Y015019D01*
X039501Y001240D01*
X000131Y001240D01*
X000721Y002421D02*
X000723Y002469D01*
X000729Y002517D01*
X000739Y002564D01*
X000752Y002610D01*
X000770Y002655D01*
X000790Y002699D01*
X000815Y002741D01*
X000843Y002780D01*
X000873Y002817D01*
X000907Y002851D01*
X000944Y002883D01*
X000982Y002912D01*
X001023Y002937D01*
X001066Y002959D01*
X001111Y002977D01*
X001157Y002991D01*
X001204Y003002D01*
X001252Y003009D01*
X001300Y003012D01*
X001348Y003011D01*
X001396Y003006D01*
X001444Y002997D01*
X001490Y002985D01*
X001535Y002968D01*
X001579Y002948D01*
X001621Y002925D01*
X001661Y002898D01*
X001699Y002868D01*
X001734Y002835D01*
X001766Y002799D01*
X001796Y002761D01*
X001822Y002720D01*
X001844Y002677D01*
X001864Y002633D01*
X001879Y002588D01*
X001891Y002541D01*
X001899Y002493D01*
X001903Y002445D01*
X001903Y002397D01*
X001899Y002349D01*
X001891Y002301D01*
X001879Y002254D01*
X001864Y002209D01*
X001844Y002165D01*
X001822Y002122D01*
X001796Y002081D01*
X001766Y002043D01*
X001734Y002007D01*
X001699Y001974D01*
X001661Y001944D01*
X001621Y001917D01*
X001579Y001894D01*
X001535Y001874D01*
X001490Y001857D01*
X001444Y001845D01*
X001396Y001836D01*
X001348Y001831D01*
X001300Y001830D01*
X001252Y001833D01*
X001204Y001840D01*
X001157Y001851D01*
X001111Y001865D01*
X001066Y001883D01*
X001023Y001905D01*
X000982Y001930D01*
X000944Y001959D01*
X000907Y001991D01*
X000873Y002025D01*
X000843Y002062D01*
X000815Y002101D01*
X000790Y002143D01*
X000770Y002187D01*
X000752Y002232D01*
X000739Y002278D01*
X000729Y002325D01*
X000723Y002373D01*
X000721Y002421D01*
X002254Y003848D02*
X002256Y003891D01*
X002262Y003933D01*
X002272Y003975D01*
X002285Y004016D01*
X002302Y004056D01*
X002323Y004093D01*
X002347Y004129D01*
X002374Y004162D01*
X002404Y004193D01*
X002437Y004221D01*
X002472Y004246D01*
X002509Y004267D01*
X002548Y004285D01*
X002588Y004299D01*
X002630Y004310D01*
X002672Y004317D01*
X002715Y004320D01*
X002758Y004319D01*
X002801Y004314D01*
X002843Y004305D01*
X002884Y004293D01*
X002924Y004277D01*
X002962Y004257D01*
X002998Y004234D01*
X003032Y004207D01*
X003064Y004178D01*
X003092Y004146D01*
X003118Y004111D01*
X003140Y004075D01*
X003159Y004036D01*
X003174Y003996D01*
X003186Y003955D01*
X003194Y003912D01*
X003198Y003869D01*
X003198Y003827D01*
X003194Y003784D01*
X003186Y003741D01*
X003174Y003700D01*
X003159Y003660D01*
X003140Y003621D01*
X003118Y003585D01*
X003092Y003550D01*
X003064Y003518D01*
X003032Y003489D01*
X002998Y003462D01*
X002962Y003439D01*
X002924Y003419D01*
X002884Y003403D01*
X002843Y003391D01*
X002801Y003382D01*
X002758Y003377D01*
X002715Y003376D01*
X002672Y003379D01*
X002630Y003386D01*
X002588Y003397D01*
X002548Y003411D01*
X002509Y003429D01*
X002472Y003450D01*
X002437Y003475D01*
X002404Y003503D01*
X002374Y003534D01*
X002347Y003567D01*
X002323Y003603D01*
X002302Y003640D01*
X002285Y003680D01*
X002272Y003721D01*
X002262Y003763D01*
X002256Y003805D01*
X002254Y003848D01*
X004454Y003553D02*
X004456Y003579D01*
X004462Y003605D01*
X004472Y003630D01*
X004485Y003653D01*
X004501Y003673D01*
X004521Y003691D01*
X004543Y003706D01*
X004566Y003718D01*
X004592Y003726D01*
X004618Y003730D01*
X004644Y003730D01*
X004670Y003726D01*
X004696Y003718D01*
X004720Y003706D01*
X004741Y003691D01*
X004761Y003673D01*
X004777Y003653D01*
X004790Y003630D01*
X004800Y003605D01*
X004806Y003579D01*
X004808Y003553D01*
X004806Y003527D01*
X004800Y003501D01*
X004790Y003476D01*
X004777Y003453D01*
X004761Y003433D01*
X004741Y003415D01*
X004719Y003400D01*
X004696Y003388D01*
X004670Y003380D01*
X004644Y003376D01*
X004618Y003376D01*
X004592Y003380D01*
X004566Y003388D01*
X004542Y003400D01*
X004521Y003415D01*
X004501Y003433D01*
X004485Y003453D01*
X004472Y003476D01*
X004462Y003501D01*
X004456Y003527D01*
X004454Y003553D01*
X002254Y009238D02*
X002256Y009281D01*
X002262Y009323D01*
X002272Y009365D01*
X002285Y009406D01*
X002302Y009446D01*
X002323Y009483D01*
X002347Y009519D01*
X002374Y009552D01*
X002404Y009583D01*
X002437Y009611D01*
X002472Y009636D01*
X002509Y009657D01*
X002548Y009675D01*
X002588Y009689D01*
X002630Y009700D01*
X002672Y009707D01*
X002715Y009710D01*
X002758Y009709D01*
X002801Y009704D01*
X002843Y009695D01*
X002884Y009683D01*
X002924Y009667D01*
X002962Y009647D01*
X002998Y009624D01*
X003032Y009597D01*
X003064Y009568D01*
X003092Y009536D01*
X003118Y009501D01*
X003140Y009465D01*
X003159Y009426D01*
X003174Y009386D01*
X003186Y009345D01*
X003194Y009302D01*
X003198Y009259D01*
X003198Y009217D01*
X003194Y009174D01*
X003186Y009131D01*
X003174Y009090D01*
X003159Y009050D01*
X003140Y009011D01*
X003118Y008975D01*
X003092Y008940D01*
X003064Y008908D01*
X003032Y008879D01*
X002998Y008852D01*
X002962Y008829D01*
X002924Y008809D01*
X002884Y008793D01*
X002843Y008781D01*
X002801Y008772D01*
X002758Y008767D01*
X002715Y008766D01*
X002672Y008769D01*
X002630Y008776D01*
X002588Y008787D01*
X002548Y008801D01*
X002509Y008819D01*
X002472Y008840D01*
X002437Y008865D01*
X002404Y008893D01*
X002374Y008924D01*
X002347Y008957D01*
X002323Y008993D01*
X002302Y009030D01*
X002285Y009070D01*
X002272Y009111D01*
X002262Y009153D01*
X002256Y009195D01*
X002254Y009238D01*
X004454Y009553D02*
X004456Y009579D01*
X004462Y009605D01*
X004472Y009630D01*
X004485Y009653D01*
X004501Y009673D01*
X004521Y009691D01*
X004543Y009706D01*
X004566Y009718D01*
X004592Y009726D01*
X004618Y009730D01*
X004644Y009730D01*
X004670Y009726D01*
X004696Y009718D01*
X004720Y009706D01*
X004741Y009691D01*
X004761Y009673D01*
X004777Y009653D01*
X004790Y009630D01*
X004800Y009605D01*
X004806Y009579D01*
X004808Y009553D01*
X004806Y009527D01*
X004800Y009501D01*
X004790Y009476D01*
X004777Y009453D01*
X004761Y009433D01*
X004741Y009415D01*
X004719Y009400D01*
X004696Y009388D01*
X004670Y009380D01*
X004644Y009376D01*
X004618Y009376D01*
X004592Y009380D01*
X004566Y009388D01*
X004542Y009400D01*
X004521Y009415D01*
X004501Y009433D01*
X004485Y009453D01*
X004472Y009476D01*
X004462Y009501D01*
X004456Y009527D01*
X004454Y009553D01*
X000721Y013838D02*
X000723Y013886D01*
X000729Y013934D01*
X000739Y013981D01*
X000752Y014027D01*
X000770Y014072D01*
X000790Y014116D01*
X000815Y014158D01*
X000843Y014197D01*
X000873Y014234D01*
X000907Y014268D01*
X000944Y014300D01*
X000982Y014329D01*
X001023Y014354D01*
X001066Y014376D01*
X001111Y014394D01*
X001157Y014408D01*
X001204Y014419D01*
X001252Y014426D01*
X001300Y014429D01*
X001348Y014428D01*
X001396Y014423D01*
X001444Y014414D01*
X001490Y014402D01*
X001535Y014385D01*
X001579Y014365D01*
X001621Y014342D01*
X001661Y014315D01*
X001699Y014285D01*
X001734Y014252D01*
X001766Y014216D01*
X001796Y014178D01*
X001822Y014137D01*
X001844Y014094D01*
X001864Y014050D01*
X001879Y014005D01*
X001891Y013958D01*
X001899Y013910D01*
X001903Y013862D01*
X001903Y013814D01*
X001899Y013766D01*
X001891Y013718D01*
X001879Y013671D01*
X001864Y013626D01*
X001844Y013582D01*
X001822Y013539D01*
X001796Y013498D01*
X001766Y013460D01*
X001734Y013424D01*
X001699Y013391D01*
X001661Y013361D01*
X001621Y013334D01*
X001579Y013311D01*
X001535Y013291D01*
X001490Y013274D01*
X001444Y013262D01*
X001396Y013253D01*
X001348Y013248D01*
X001300Y013247D01*
X001252Y013250D01*
X001204Y013257D01*
X001157Y013268D01*
X001111Y013282D01*
X001066Y013300D01*
X001023Y013322D01*
X000982Y013347D01*
X000944Y013376D01*
X000907Y013408D01*
X000873Y013442D01*
X000843Y013479D01*
X000815Y013518D01*
X000790Y013560D01*
X000770Y013604D01*
X000752Y013649D01*
X000739Y013695D01*
X000729Y013742D01*
X000723Y013790D01*
X000721Y013838D01*
X037729Y013838D02*
X037731Y013886D01*
X037737Y013934D01*
X037747Y013981D01*
X037760Y014027D01*
X037778Y014072D01*
X037798Y014116D01*
X037823Y014158D01*
X037851Y014197D01*
X037881Y014234D01*
X037915Y014268D01*
X037952Y014300D01*
X037990Y014329D01*
X038031Y014354D01*
X038074Y014376D01*
X038119Y014394D01*
X038165Y014408D01*
X038212Y014419D01*
X038260Y014426D01*
X038308Y014429D01*
X038356Y014428D01*
X038404Y014423D01*
X038452Y014414D01*
X038498Y014402D01*
X038543Y014385D01*
X038587Y014365D01*
X038629Y014342D01*
X038669Y014315D01*
X038707Y014285D01*
X038742Y014252D01*
X038774Y014216D01*
X038804Y014178D01*
X038830Y014137D01*
X038852Y014094D01*
X038872Y014050D01*
X038887Y014005D01*
X038899Y013958D01*
X038907Y013910D01*
X038911Y013862D01*
X038911Y013814D01*
X038907Y013766D01*
X038899Y013718D01*
X038887Y013671D01*
X038872Y013626D01*
X038852Y013582D01*
X038830Y013539D01*
X038804Y013498D01*
X038774Y013460D01*
X038742Y013424D01*
X038707Y013391D01*
X038669Y013361D01*
X038629Y013334D01*
X038587Y013311D01*
X038543Y013291D01*
X038498Y013274D01*
X038452Y013262D01*
X038404Y013253D01*
X038356Y013248D01*
X038308Y013247D01*
X038260Y013250D01*
X038212Y013257D01*
X038165Y013268D01*
X038119Y013282D01*
X038074Y013300D01*
X038031Y013322D01*
X037990Y013347D01*
X037952Y013376D01*
X037915Y013408D01*
X037881Y013442D01*
X037851Y013479D01*
X037823Y013518D01*
X037798Y013560D01*
X037778Y013604D01*
X037760Y013649D01*
X037747Y013695D01*
X037737Y013742D01*
X037731Y013790D01*
X037729Y013838D01*
X037729Y002421D02*
X037731Y002469D01*
X037737Y002517D01*
X037747Y002564D01*
X037760Y002610D01*
X037778Y002655D01*
X037798Y002699D01*
X037823Y002741D01*
X037851Y002780D01*
X037881Y002817D01*
X037915Y002851D01*
X037952Y002883D01*
X037990Y002912D01*
X038031Y002937D01*
X038074Y002959D01*
X038119Y002977D01*
X038165Y002991D01*
X038212Y003002D01*
X038260Y003009D01*
X038308Y003012D01*
X038356Y003011D01*
X038404Y003006D01*
X038452Y002997D01*
X038498Y002985D01*
X038543Y002968D01*
X038587Y002948D01*
X038629Y002925D01*
X038669Y002898D01*
X038707Y002868D01*
X038742Y002835D01*
X038774Y002799D01*
X038804Y002761D01*
X038830Y002720D01*
X038852Y002677D01*
X038872Y002633D01*
X038887Y002588D01*
X038899Y002541D01*
X038907Y002493D01*
X038911Y002445D01*
X038911Y002397D01*
X038907Y002349D01*
X038899Y002301D01*
X038887Y002254D01*
X038872Y002209D01*
X038852Y002165D01*
X038830Y002122D01*
X038804Y002081D01*
X038774Y002043D01*
X038742Y002007D01*
X038707Y001974D01*
X038669Y001944D01*
X038629Y001917D01*
X038587Y001894D01*
X038543Y001874D01*
X038498Y001857D01*
X038452Y001845D01*
X038404Y001836D01*
X038356Y001831D01*
X038308Y001830D01*
X038260Y001833D01*
X038212Y001840D01*
X038165Y001851D01*
X038119Y001865D01*
X038074Y001883D01*
X038031Y001905D01*
X037990Y001930D01*
X037952Y001959D01*
X037915Y001991D01*
X037881Y002025D01*
X037851Y002062D01*
X037823Y002101D01*
X037798Y002143D01*
X037778Y002187D01*
X037760Y002232D01*
X037747Y002278D01*
X037737Y002325D01*
X037731Y002373D01*
X037729Y002421D01*
D11*
X013431Y002540D02*
X012831Y002540D01*
X013131Y002940D01*
X012831Y002940D01*
X013131Y002940D02*
X013431Y002940D01*
X013131Y002940D02*
X013431Y002540D01*
X010931Y002540D02*
X010631Y002540D01*
X010331Y002540D01*
X010631Y002540D02*
X010931Y002940D01*
X010331Y002940D01*
X010631Y002540D01*
X010631Y003740D02*
X012631Y003740D01*
X012631Y012740D01*
X011881Y012740D01*
X011879Y012710D01*
X011874Y012680D01*
X011865Y012651D01*
X011852Y012624D01*
X011837Y012598D01*
X011818Y012574D01*
X011797Y012553D01*
X011773Y012534D01*
X011747Y012519D01*
X011720Y012506D01*
X011691Y012497D01*
X011661Y012492D01*
X011631Y012490D01*
X011601Y012492D01*
X011571Y012497D01*
X011542Y012506D01*
X011515Y012519D01*
X011489Y012534D01*
X011465Y012553D01*
X011444Y012574D01*
X011425Y012598D01*
X011410Y012624D01*
X011397Y012651D01*
X011388Y012680D01*
X011383Y012710D01*
X011381Y012740D01*
X010631Y012740D01*
X010631Y003740D01*
X008931Y005040D02*
X008631Y005040D01*
X008331Y005040D01*
X008631Y005040D02*
X008931Y005440D01*
X008331Y005440D01*
X008631Y005040D01*
X007431Y004190D02*
X006831Y004190D01*
X007131Y003790D01*
X007431Y003790D01*
X007131Y003790D02*
X006831Y003790D01*
X007131Y003790D02*
X007431Y004190D01*
X011231Y005790D02*
X012031Y005790D01*
X012048Y005792D01*
X012065Y005796D01*
X012081Y005803D01*
X012095Y005813D01*
X012108Y005826D01*
X012118Y005840D01*
X012125Y005856D01*
X012129Y005873D01*
X012131Y005890D01*
X012131Y007590D01*
X012129Y007607D01*
X012125Y007624D01*
X012118Y007640D01*
X012108Y007654D01*
X012095Y007667D01*
X012081Y007677D01*
X012065Y007684D01*
X012048Y007688D01*
X012031Y007690D01*
X011231Y007690D01*
X011214Y007688D01*
X011197Y007684D01*
X011181Y007677D01*
X011167Y007667D01*
X011154Y007654D01*
X011144Y007640D01*
X011137Y007624D01*
X011133Y007607D01*
X011131Y007590D01*
X011131Y005890D01*
X011133Y005873D01*
X011137Y005856D01*
X011144Y005840D01*
X011154Y005826D01*
X011167Y005813D01*
X011181Y005803D01*
X011197Y005796D01*
X011214Y005792D01*
X011231Y005790D01*
X011631Y006590D02*
X011631Y006640D01*
X011631Y006840D02*
X011631Y006890D01*
X006931Y007040D02*
X006331Y007040D01*
X006631Y007440D01*
X006331Y007440D01*
X006631Y007440D02*
X006931Y007440D01*
X006631Y007440D02*
X006931Y007040D01*
X008131Y009240D02*
X008133Y009284D01*
X008139Y009328D01*
X008149Y009371D01*
X008162Y009413D01*
X008179Y009454D01*
X008200Y009493D01*
X008224Y009530D01*
X008251Y009565D01*
X008281Y009597D01*
X008314Y009627D01*
X008350Y009653D01*
X008387Y009677D01*
X008427Y009696D01*
X008468Y009713D01*
X008511Y009725D01*
X008554Y009734D01*
X008598Y009739D01*
X008642Y009740D01*
X008686Y009737D01*
X008730Y009730D01*
X008773Y009719D01*
X008815Y009705D01*
X008855Y009687D01*
X008894Y009665D01*
X008930Y009641D01*
X008964Y009613D01*
X008996Y009582D01*
X009025Y009548D01*
X009051Y009512D01*
X009073Y009474D01*
X009092Y009434D01*
X009107Y009392D01*
X009119Y009350D01*
X009127Y009306D01*
X009131Y009262D01*
X009131Y009218D01*
X009127Y009174D01*
X009119Y009130D01*
X009107Y009088D01*
X009092Y009046D01*
X009073Y009006D01*
X009051Y008968D01*
X009025Y008932D01*
X008996Y008898D01*
X008964Y008867D01*
X008930Y008839D01*
X008894Y008815D01*
X008855Y008793D01*
X008815Y008775D01*
X008773Y008761D01*
X008730Y008750D01*
X008686Y008743D01*
X008642Y008740D01*
X008598Y008741D01*
X008554Y008746D01*
X008511Y008755D01*
X008468Y008767D01*
X008427Y008784D01*
X008387Y008803D01*
X008350Y008827D01*
X008314Y008853D01*
X008281Y008883D01*
X008251Y008915D01*
X008224Y008950D01*
X008200Y008987D01*
X008179Y009026D01*
X008162Y009067D01*
X008149Y009109D01*
X008139Y009152D01*
X008133Y009196D01*
X008131Y009240D01*
X008281Y011590D02*
X008281Y011740D01*
X008131Y011740D01*
X008281Y011740D02*
X008281Y011890D01*
X008281Y011740D02*
X008431Y011740D01*
X006531Y012240D02*
X006533Y012306D01*
X006539Y012371D01*
X006549Y012436D01*
X006562Y012501D01*
X006580Y012564D01*
X006601Y012627D01*
X006626Y012687D01*
X006655Y012747D01*
X006687Y012804D01*
X006722Y012860D01*
X006761Y012913D01*
X006803Y012964D01*
X006847Y013012D01*
X006895Y013057D01*
X006945Y013100D01*
X006998Y013139D01*
X007053Y013176D01*
X007110Y013209D01*
X007169Y013238D01*
X007229Y013264D01*
X007291Y013286D01*
X007354Y013305D01*
X007418Y013319D01*
X007483Y013330D01*
X007549Y013337D01*
X007615Y013340D01*
X007680Y013339D01*
X007746Y013334D01*
X007811Y013325D01*
X007876Y013312D01*
X007939Y013296D01*
X008002Y013276D01*
X008063Y013251D01*
X008123Y013224D01*
X008181Y013193D01*
X008237Y013158D01*
X008291Y013120D01*
X008342Y013079D01*
X008391Y013035D01*
X008437Y012988D01*
X008481Y012939D01*
X008521Y012887D01*
X008558Y012832D01*
X008592Y012776D01*
X008622Y012717D01*
X008649Y012657D01*
X008672Y012596D01*
X008691Y012533D01*
X008707Y012469D01*
X008719Y012404D01*
X008727Y012339D01*
X008731Y012273D01*
X008731Y012207D01*
X008727Y012141D01*
X008719Y012076D01*
X008707Y012011D01*
X008691Y011947D01*
X008672Y011884D01*
X008649Y011823D01*
X008622Y011763D01*
X008592Y011704D01*
X008558Y011648D01*
X008521Y011593D01*
X008481Y011541D01*
X008437Y011492D01*
X008391Y011445D01*
X008342Y011401D01*
X008291Y011360D01*
X008237Y011322D01*
X008181Y011287D01*
X008123Y011256D01*
X008063Y011229D01*
X008002Y011204D01*
X007939Y011184D01*
X007876Y011168D01*
X007811Y011155D01*
X007746Y011146D01*
X007680Y011141D01*
X007615Y011140D01*
X007549Y011143D01*
X007483Y011150D01*
X007418Y011161D01*
X007354Y011175D01*
X007291Y011194D01*
X007229Y011216D01*
X007169Y011242D01*
X007110Y011271D01*
X007053Y011304D01*
X006998Y011341D01*
X006945Y011380D01*
X006895Y011423D01*
X006847Y011468D01*
X006803Y011516D01*
X006761Y011567D01*
X006722Y011620D01*
X006687Y011676D01*
X006655Y011733D01*
X006626Y011793D01*
X006601Y011853D01*
X006580Y011916D01*
X006562Y011979D01*
X006549Y012044D01*
X006539Y012109D01*
X006533Y012174D01*
X006531Y012240D01*
X004631Y012540D02*
X004631Y011940D01*
X004629Y011923D01*
X004625Y011906D01*
X004618Y011890D01*
X004608Y011876D01*
X004595Y011863D01*
X004581Y011853D01*
X004565Y011846D01*
X004548Y011842D01*
X004531Y011840D01*
X004381Y011840D01*
X004331Y011890D01*
X002931Y011890D01*
X002881Y011840D01*
X002731Y011840D01*
X002714Y011842D01*
X002697Y011846D01*
X002681Y011853D01*
X002667Y011863D01*
X002654Y011876D01*
X002644Y011890D01*
X002637Y011906D01*
X002633Y011923D01*
X002631Y011940D01*
X002631Y012540D01*
X002633Y012557D01*
X002637Y012574D01*
X002644Y012590D01*
X002654Y012604D01*
X002667Y012617D01*
X002681Y012627D01*
X002697Y012634D01*
X002714Y012638D01*
X002731Y012640D01*
X002881Y012640D01*
X002931Y012590D01*
X004331Y012590D01*
X004381Y012640D01*
X004531Y012640D01*
X004548Y012638D01*
X004565Y012634D01*
X004581Y012627D01*
X004595Y012617D01*
X004608Y012604D01*
X004618Y012590D01*
X004625Y012574D01*
X004629Y012557D01*
X004631Y012540D01*
X004781Y013240D02*
X002681Y013240D01*
X002681Y013390D01*
X002681Y014090D01*
X002681Y014240D01*
X004781Y014240D01*
X004781Y013240D01*
X002681Y013390D02*
X002531Y013390D01*
X002531Y013490D02*
X002531Y013990D01*
X002531Y014090D02*
X002681Y014090D01*
X002431Y013940D02*
X002431Y013540D01*
X002331Y013640D02*
X002331Y013840D01*
X002531Y014090D02*
X002494Y014088D01*
X002458Y014082D01*
X002423Y014073D01*
X002389Y014060D01*
X002356Y014043D01*
X002325Y014023D01*
X002297Y014000D01*
X002271Y013974D01*
X002248Y013946D01*
X002228Y013915D01*
X002211Y013882D01*
X002198Y013848D01*
X002189Y013813D01*
X002183Y013777D01*
X002181Y013740D01*
X002183Y013703D01*
X002189Y013667D01*
X002198Y013632D01*
X002211Y013598D01*
X002228Y013565D01*
X002248Y013534D01*
X002271Y013506D01*
X002297Y013480D01*
X002325Y013457D01*
X002356Y013437D01*
X002389Y013420D01*
X002423Y013407D01*
X002458Y013398D01*
X002494Y013392D01*
X002531Y013390D01*
D12*
X011331Y006840D02*
X011631Y006840D01*
X011931Y006840D01*
X011931Y006640D02*
X011631Y006640D01*
X011331Y006640D01*
X024131Y005990D02*
X024131Y005240D01*
X026131Y005240D01*
X026131Y003490D01*
X024131Y003490D01*
X024131Y005240D01*
X024131Y005990D02*
X026131Y005990D01*
X026131Y005240D01*
X027631Y005240D02*
X027631Y005990D01*
X029631Y005990D01*
X029631Y005240D01*
X027631Y005240D01*
X027631Y003490D01*
X029631Y003490D01*
X029631Y005240D01*
X031131Y005240D02*
X031131Y005990D01*
X033131Y005990D01*
X033131Y005240D01*
X031131Y005240D01*
X031131Y003490D01*
X033131Y003490D01*
X033131Y005240D01*
X034631Y005240D02*
X034631Y005990D01*
X036631Y005990D01*
X036631Y005240D01*
X034631Y005240D01*
X034631Y003490D01*
X036631Y003490D01*
X036631Y005240D01*
X037131Y009990D02*
X035131Y009990D01*
X035131Y011740D01*
X037131Y011740D01*
X037131Y009990D01*
X033631Y009990D02*
X031631Y009990D01*
X031631Y011740D01*
X033631Y011740D01*
X033631Y009990D01*
X030131Y009990D02*
X028131Y009990D01*
X028131Y011740D01*
X030131Y011740D01*
X030131Y009990D01*
X026631Y009990D02*
X024631Y009990D01*
X024631Y011740D01*
X026631Y011740D01*
X026631Y009990D01*
X026631Y011740D02*
X026631Y012490D01*
X024631Y012490D01*
X024631Y011740D01*
X028131Y011740D02*
X028131Y012490D01*
X030131Y012490D01*
X030131Y011740D01*
X031631Y011740D02*
X031631Y012490D01*
X033631Y012490D01*
X033631Y011740D01*
X035131Y011740D02*
X035131Y012490D01*
X037131Y012490D01*
X037131Y011740D01*
D13*
X022996Y011715D02*
X022996Y011640D01*
X022921Y011565D01*
X022771Y011565D01*
X022696Y011640D01*
X022846Y011790D02*
X022921Y011790D01*
X022996Y011715D01*
X022921Y011790D02*
X022996Y011865D01*
X022996Y011940D01*
X022921Y012015D01*
X022771Y012015D01*
X022696Y011940D01*
X022536Y012015D02*
X022235Y012015D01*
X022385Y012015D02*
X022385Y011565D01*
X021037Y012800D02*
X020962Y012725D01*
X020812Y012725D01*
X020737Y012800D01*
X021037Y013100D01*
X021037Y012800D01*
X020737Y012800D02*
X020737Y013100D01*
X020812Y013175D01*
X020962Y013175D01*
X021037Y013100D01*
X021578Y013290D02*
X021684Y013290D01*
X021177Y013678D02*
X021204Y013734D01*
X021235Y013788D01*
X021269Y013840D01*
X021306Y013890D01*
X022956Y013890D01*
X022684Y013290D02*
X022578Y013290D01*
X023081Y013687D02*
X023054Y013741D01*
X023024Y013792D01*
X022991Y013842D01*
X022956Y013890D01*
X023081Y012793D02*
X023052Y012736D01*
X023019Y012680D01*
X022984Y012627D01*
X022944Y012576D01*
X022902Y012528D01*
X022857Y012482D01*
X022810Y012439D01*
X022760Y012399D01*
X022707Y012362D01*
X022652Y012329D01*
X022596Y012298D01*
X022537Y012272D01*
X022477Y012249D01*
X022416Y012229D01*
X022354Y012214D01*
X022291Y012202D01*
X022227Y012194D01*
X022163Y012190D01*
X022099Y012190D01*
X022035Y012194D01*
X021971Y012202D01*
X021908Y012214D01*
X021846Y012229D01*
X021785Y012249D01*
X021725Y012272D01*
X021666Y012298D01*
X021610Y012329D01*
X021555Y012362D01*
X021502Y012399D01*
X021452Y012439D01*
X021405Y012482D01*
X021360Y012528D01*
X021318Y012576D01*
X021278Y012627D01*
X021243Y012680D01*
X021210Y012736D01*
X021181Y012793D01*
X020577Y012725D02*
X020276Y012725D01*
X020426Y012725D02*
X020426Y013175D01*
X020276Y013025D01*
X020116Y013100D02*
X020116Y012950D01*
X020041Y012875D01*
X019816Y012875D01*
X019966Y012875D02*
X020116Y012725D01*
X019816Y012725D02*
X019816Y013175D01*
X020041Y013175D01*
X020116Y013100D01*
X018684Y013290D02*
X018578Y013290D01*
X019081Y013687D02*
X019054Y013741D01*
X019024Y013792D01*
X018991Y013842D01*
X018956Y013890D01*
X017306Y013890D01*
X016077Y013950D02*
X015851Y013950D01*
X015776Y014025D01*
X015776Y014100D01*
X015851Y014175D01*
X016002Y014175D01*
X016077Y014100D01*
X016077Y013800D01*
X016002Y013725D01*
X015851Y013725D01*
X015776Y013800D01*
X015616Y013725D02*
X015466Y013875D01*
X015541Y013875D02*
X015316Y013875D01*
X015316Y013725D02*
X015316Y014175D01*
X015541Y014175D01*
X015616Y014100D01*
X015616Y013950D01*
X015541Y013875D01*
X017578Y013290D02*
X017684Y013290D01*
X017177Y013678D02*
X017204Y013734D01*
X017235Y013788D01*
X017269Y013840D01*
X017306Y013890D01*
X017181Y012793D02*
X017210Y012736D01*
X017243Y012680D01*
X017278Y012627D01*
X017318Y012576D01*
X017360Y012528D01*
X017405Y012482D01*
X017452Y012439D01*
X017502Y012399D01*
X017555Y012362D01*
X017610Y012329D01*
X017666Y012298D01*
X017725Y012272D01*
X017785Y012249D01*
X017846Y012229D01*
X017908Y012214D01*
X017971Y012202D01*
X018035Y012194D01*
X018099Y012190D01*
X018163Y012190D01*
X018227Y012194D01*
X018291Y012202D01*
X018354Y012214D01*
X018416Y012229D01*
X018477Y012249D01*
X018537Y012272D01*
X018596Y012298D01*
X018652Y012329D01*
X018707Y012362D01*
X018760Y012399D01*
X018810Y012439D01*
X018857Y012482D01*
X018902Y012528D01*
X018944Y012576D01*
X018984Y012627D01*
X019019Y012680D01*
X019052Y012736D01*
X019081Y012793D01*
X018921Y012015D02*
X018696Y011790D01*
X018996Y011790D01*
X018921Y011565D02*
X018921Y012015D01*
X018536Y012015D02*
X018235Y012015D01*
X018385Y012015D02*
X018385Y011565D01*
X017037Y011100D02*
X016962Y011175D01*
X016812Y011175D01*
X016737Y011100D01*
X017037Y011100D02*
X017037Y011025D01*
X016737Y010725D01*
X017037Y010725D01*
X016577Y010725D02*
X016276Y010725D01*
X016426Y010725D02*
X016426Y011175D01*
X016276Y011025D01*
X016116Y011100D02*
X016116Y010950D01*
X016041Y010875D01*
X015816Y010875D01*
X015966Y010875D02*
X016116Y010725D01*
X015816Y010725D02*
X015816Y011175D01*
X016041Y011175D01*
X016116Y011100D01*
X017306Y009890D02*
X018956Y009890D01*
X018684Y009290D02*
X018578Y009290D01*
X019081Y009687D02*
X019054Y009741D01*
X019024Y009792D01*
X018991Y009842D01*
X018956Y009890D01*
X019081Y008793D02*
X019052Y008736D01*
X019019Y008680D01*
X018984Y008627D01*
X018944Y008576D01*
X018902Y008528D01*
X018857Y008482D01*
X018810Y008439D01*
X018760Y008399D01*
X018707Y008362D01*
X018652Y008329D01*
X018596Y008298D01*
X018537Y008272D01*
X018477Y008249D01*
X018416Y008229D01*
X018354Y008214D01*
X018291Y008202D01*
X018227Y008194D01*
X018163Y008190D01*
X018099Y008190D01*
X018035Y008194D01*
X017971Y008202D01*
X017908Y008214D01*
X017846Y008229D01*
X017785Y008249D01*
X017725Y008272D01*
X017666Y008298D01*
X017610Y008329D01*
X017555Y008362D01*
X017502Y008399D01*
X017452Y008439D01*
X017405Y008482D01*
X017360Y008528D01*
X017318Y008576D01*
X017278Y008627D01*
X017243Y008680D01*
X017210Y008736D01*
X017181Y008793D01*
X017578Y009290D02*
X017684Y009290D01*
X017177Y009678D02*
X017204Y009734D01*
X017235Y009788D01*
X017269Y009840D01*
X017306Y009890D01*
X015131Y009740D02*
X015131Y007740D01*
X015129Y007696D01*
X015123Y007653D01*
X015114Y007611D01*
X015101Y007569D01*
X015084Y007529D01*
X015064Y007490D01*
X015041Y007453D01*
X015014Y007419D01*
X014985Y007386D01*
X014952Y007357D01*
X014918Y007330D01*
X014881Y007307D01*
X014842Y007287D01*
X014802Y007270D01*
X014760Y007257D01*
X014718Y007248D01*
X014675Y007242D01*
X014631Y007240D01*
X014587Y007242D01*
X014544Y007248D01*
X014502Y007257D01*
X014460Y007270D01*
X014420Y007287D01*
X014381Y007307D01*
X014344Y007330D01*
X014310Y007357D01*
X014277Y007386D01*
X014248Y007419D01*
X014221Y007453D01*
X014198Y007490D01*
X014178Y007529D01*
X014161Y007569D01*
X014148Y007611D01*
X014139Y007653D01*
X014133Y007696D01*
X014131Y007740D01*
X014131Y009740D01*
X014133Y009784D01*
X014139Y009827D01*
X014148Y009869D01*
X014161Y009911D01*
X014178Y009951D01*
X014198Y009990D01*
X014221Y010027D01*
X014248Y010061D01*
X014277Y010094D01*
X014310Y010123D01*
X014344Y010150D01*
X014381Y010173D01*
X014420Y010193D01*
X014460Y010210D01*
X014502Y010223D01*
X014544Y010232D01*
X014587Y010238D01*
X014631Y010240D01*
X014675Y010238D01*
X014718Y010232D01*
X014760Y010223D01*
X014802Y010210D01*
X014842Y010193D01*
X014881Y010173D01*
X014918Y010150D01*
X014952Y010123D01*
X014985Y010094D01*
X015014Y010061D01*
X015041Y010027D01*
X015064Y009990D01*
X015084Y009951D01*
X015101Y009911D01*
X015114Y009869D01*
X015123Y009827D01*
X015129Y009784D01*
X015131Y009740D01*
X012566Y009734D02*
X012416Y009584D01*
X012416Y009659D02*
X012416Y009434D01*
X012566Y009434D02*
X012116Y009434D01*
X012116Y009659D01*
X012191Y009734D01*
X012341Y009734D01*
X012416Y009659D01*
X012566Y009894D02*
X012266Y010195D01*
X012191Y010195D01*
X012116Y010119D01*
X012116Y009969D01*
X012191Y009894D01*
X012566Y009894D02*
X012566Y010195D01*
X008206Y010045D02*
X008056Y009895D01*
X008056Y009970D02*
X008056Y009745D01*
X008206Y009745D02*
X007756Y009745D01*
X007756Y009970D01*
X007831Y010045D01*
X007981Y010045D01*
X008056Y009970D01*
X007981Y010205D02*
X007981Y010505D01*
X008206Y010430D02*
X007756Y010430D01*
X007981Y010205D01*
X006048Y009553D02*
X000458Y009553D01*
X000458Y003553D01*
X006048Y003553D01*
X006048Y009553D01*
X006146Y011165D02*
X006446Y011465D01*
X006446Y011540D01*
X006371Y011615D01*
X006221Y011615D01*
X006146Y011540D01*
X005986Y011540D02*
X005910Y011615D01*
X005760Y011615D01*
X005685Y011540D01*
X005685Y011240D01*
X005760Y011165D01*
X005910Y011165D01*
X005986Y011240D01*
X006146Y011165D02*
X006446Y011165D01*
X005767Y013815D02*
X005466Y013815D01*
X005616Y013815D02*
X005616Y014265D01*
X005466Y014115D01*
X005306Y014190D02*
X005231Y014265D01*
X005006Y014265D01*
X005006Y013815D01*
X005231Y013815D01*
X005306Y013890D01*
X005306Y014190D01*
X006816Y014225D02*
X006816Y014675D01*
X007041Y014675D01*
X007116Y014600D01*
X007116Y014450D01*
X007041Y014375D01*
X006816Y014375D01*
X006966Y014375D02*
X007116Y014225D01*
X007276Y014225D02*
X007577Y014225D01*
X007426Y014225D02*
X007426Y014675D01*
X007276Y014525D01*
X021306Y009890D02*
X022956Y009890D01*
X022684Y009290D02*
X022578Y009290D01*
X023081Y009687D02*
X023054Y009741D01*
X023024Y009792D01*
X022991Y009842D01*
X022956Y009890D01*
X023081Y008793D02*
X023052Y008736D01*
X023019Y008680D01*
X022984Y008627D01*
X022944Y008576D01*
X022902Y008528D01*
X022857Y008482D01*
X022810Y008439D01*
X022760Y008399D01*
X022707Y008362D01*
X022652Y008329D01*
X022596Y008298D01*
X022537Y008272D01*
X022477Y008249D01*
X022416Y008229D01*
X022354Y008214D01*
X022291Y008202D01*
X022227Y008194D01*
X022163Y008190D01*
X022099Y008190D01*
X022035Y008194D01*
X021971Y008202D01*
X021908Y008214D01*
X021846Y008229D01*
X021785Y008249D01*
X021725Y008272D01*
X021666Y008298D01*
X021610Y008329D01*
X021555Y008362D01*
X021502Y008399D01*
X021452Y008439D01*
X021405Y008482D01*
X021360Y008528D01*
X021318Y008576D01*
X021278Y008627D01*
X021243Y008680D01*
X021210Y008736D01*
X021181Y008793D01*
X020577Y008800D02*
X020502Y008725D01*
X020351Y008725D01*
X020276Y008800D01*
X020276Y008875D01*
X020351Y008950D01*
X020502Y008950D01*
X020577Y008875D01*
X020577Y008800D01*
X020502Y008950D02*
X020577Y009025D01*
X020577Y009100D01*
X020502Y009175D01*
X020351Y009175D01*
X020276Y009100D01*
X020276Y009025D01*
X020351Y008950D01*
X020116Y008950D02*
X020041Y008875D01*
X019816Y008875D01*
X019966Y008875D02*
X020116Y008725D01*
X019816Y008725D02*
X019816Y009175D01*
X020041Y009175D01*
X020116Y009100D01*
X020116Y008950D01*
X021578Y009290D02*
X021684Y009290D01*
X021177Y009678D02*
X021204Y009734D01*
X021235Y009788D01*
X021269Y009840D01*
X021306Y009890D01*
X022235Y008015D02*
X022536Y008015D01*
X022385Y008015D02*
X022385Y007565D01*
X022696Y007640D02*
X022771Y007565D01*
X022921Y007565D01*
X022996Y007640D01*
X022996Y007790D01*
X022921Y007865D01*
X022846Y007865D01*
X022696Y007790D01*
X022696Y008015D01*
X022996Y008015D01*
X022956Y006890D02*
X021306Y006890D01*
X021336Y006755D02*
X021336Y006680D01*
X021036Y006380D01*
X021036Y006305D01*
X020876Y006305D02*
X020725Y006455D01*
X020800Y006455D02*
X020575Y006455D01*
X020575Y006305D02*
X020575Y006755D01*
X020800Y006755D01*
X020876Y006680D01*
X020876Y006530D01*
X020800Y006455D01*
X021036Y006755D02*
X021336Y006755D01*
X021578Y006290D02*
X021684Y006290D01*
X021177Y006678D02*
X021204Y006734D01*
X021235Y006788D01*
X021269Y006840D01*
X021306Y006890D01*
X021181Y005793D02*
X021210Y005736D01*
X021243Y005680D01*
X021278Y005627D01*
X021318Y005576D01*
X021360Y005528D01*
X021405Y005482D01*
X021452Y005439D01*
X021502Y005399D01*
X021555Y005362D01*
X021610Y005329D01*
X021666Y005298D01*
X021725Y005272D01*
X021785Y005249D01*
X021846Y005229D01*
X021908Y005214D01*
X021971Y005202D01*
X022035Y005194D01*
X022099Y005190D01*
X022163Y005190D01*
X022227Y005194D01*
X022291Y005202D01*
X022354Y005214D01*
X022416Y005229D01*
X022477Y005249D01*
X022537Y005272D01*
X022596Y005298D01*
X022652Y005329D01*
X022707Y005362D01*
X022760Y005399D01*
X022810Y005439D01*
X022857Y005482D01*
X022902Y005528D01*
X022944Y005576D01*
X022984Y005627D01*
X023019Y005680D01*
X023052Y005736D01*
X023081Y005793D01*
X022684Y006290D02*
X022578Y006290D01*
X023081Y006687D02*
X023054Y006741D01*
X023024Y006792D01*
X022991Y006842D01*
X022956Y006890D01*
X018956Y006890D02*
X017306Y006890D01*
X017186Y006755D02*
X017186Y006305D01*
X017036Y006305D02*
X017336Y006305D01*
X017578Y006290D02*
X017684Y006290D01*
X017177Y006678D02*
X017204Y006734D01*
X017235Y006788D01*
X017269Y006840D01*
X017306Y006890D01*
X017186Y006755D02*
X017036Y006605D01*
X016875Y006305D02*
X016575Y006305D01*
X016725Y006305D02*
X016725Y006755D01*
X016575Y006605D01*
X016415Y006680D02*
X016415Y006530D01*
X016340Y006455D01*
X016115Y006455D01*
X016265Y006455D02*
X016415Y006305D01*
X016115Y006305D02*
X016115Y006755D01*
X016340Y006755D01*
X016415Y006680D01*
X017181Y005793D02*
X017210Y005736D01*
X017243Y005680D01*
X017278Y005627D01*
X017318Y005576D01*
X017360Y005528D01*
X017405Y005482D01*
X017452Y005439D01*
X017502Y005399D01*
X017555Y005362D01*
X017610Y005329D01*
X017666Y005298D01*
X017725Y005272D01*
X017785Y005249D01*
X017846Y005229D01*
X017908Y005214D01*
X017971Y005202D01*
X018035Y005194D01*
X018099Y005190D01*
X018163Y005190D01*
X018227Y005194D01*
X018291Y005202D01*
X018354Y005214D01*
X018416Y005229D01*
X018477Y005249D01*
X018537Y005272D01*
X018596Y005298D01*
X018652Y005329D01*
X018707Y005362D01*
X018760Y005399D01*
X018810Y005439D01*
X018857Y005482D01*
X018902Y005528D01*
X018944Y005576D01*
X018984Y005627D01*
X019019Y005680D01*
X019052Y005736D01*
X019081Y005793D01*
X018684Y006290D02*
X018578Y006290D01*
X019081Y006687D02*
X019054Y006741D01*
X019024Y006792D01*
X018991Y006842D01*
X018956Y006890D01*
X018996Y007565D02*
X018696Y007565D01*
X018846Y007565D02*
X018846Y008015D01*
X018696Y007865D01*
X018536Y008015D02*
X018235Y008015D01*
X018385Y008015D02*
X018385Y007565D01*
X018385Y005015D02*
X018385Y004565D01*
X018696Y004565D02*
X018996Y004865D01*
X018996Y004940D01*
X018921Y005015D01*
X018771Y005015D01*
X018696Y004940D01*
X018536Y005015D02*
X018235Y005015D01*
X018696Y004565D02*
X018996Y004565D01*
X018956Y003890D02*
X017306Y003890D01*
X017336Y003755D02*
X017036Y003755D01*
X017036Y003530D01*
X017186Y003605D01*
X017261Y003605D01*
X017336Y003530D01*
X017336Y003380D01*
X017261Y003305D01*
X017111Y003305D01*
X017036Y003380D01*
X016876Y003305D02*
X016725Y003455D01*
X016800Y003455D02*
X016575Y003455D01*
X016575Y003305D02*
X016575Y003755D01*
X016800Y003755D01*
X016876Y003680D01*
X016876Y003530D01*
X016800Y003455D01*
X017578Y003290D02*
X017684Y003290D01*
X017177Y003678D02*
X017204Y003734D01*
X017235Y003788D01*
X017269Y003840D01*
X017306Y003890D01*
X017181Y002793D02*
X017210Y002736D01*
X017243Y002680D01*
X017278Y002627D01*
X017318Y002576D01*
X017360Y002528D01*
X017405Y002482D01*
X017452Y002439D01*
X017502Y002399D01*
X017555Y002362D01*
X017610Y002329D01*
X017666Y002298D01*
X017725Y002272D01*
X017785Y002249D01*
X017846Y002229D01*
X017908Y002214D01*
X017971Y002202D01*
X018035Y002194D01*
X018099Y002190D01*
X018163Y002190D01*
X018227Y002194D01*
X018291Y002202D01*
X018354Y002214D01*
X018416Y002229D01*
X018477Y002249D01*
X018537Y002272D01*
X018596Y002298D01*
X018652Y002329D01*
X018707Y002362D01*
X018760Y002399D01*
X018810Y002439D01*
X018857Y002482D01*
X018902Y002528D01*
X018944Y002576D01*
X018984Y002627D01*
X019019Y002680D01*
X019052Y002736D01*
X019081Y002793D01*
X018684Y003290D02*
X018578Y003290D01*
X019081Y003687D02*
X019054Y003741D01*
X019024Y003792D01*
X018991Y003842D01*
X018956Y003890D01*
X020575Y003755D02*
X020575Y003305D01*
X020575Y003455D02*
X020800Y003455D01*
X020876Y003530D01*
X020876Y003680D01*
X020800Y003755D01*
X020575Y003755D01*
X021036Y003530D02*
X021186Y003680D01*
X021336Y003755D01*
X021306Y003890D02*
X022956Y003890D01*
X022684Y003290D02*
X022578Y003290D01*
X023081Y003687D02*
X023054Y003741D01*
X023024Y003792D01*
X022991Y003842D01*
X022956Y003890D01*
X022921Y004565D02*
X022771Y004565D01*
X022696Y004640D01*
X022696Y004715D01*
X022771Y004790D01*
X022921Y004790D01*
X022996Y004715D01*
X022996Y004640D01*
X022921Y004565D01*
X022385Y004565D02*
X022385Y005015D01*
X022235Y005015D02*
X022536Y005015D01*
X022696Y004940D02*
X022696Y004865D01*
X022771Y004790D01*
X022921Y004790D02*
X022996Y004865D01*
X022996Y004940D01*
X022921Y005015D01*
X022771Y005015D01*
X022696Y004940D01*
X021261Y003530D02*
X021036Y003530D01*
X021036Y003380D01*
X021111Y003305D01*
X021261Y003305D01*
X021336Y003380D01*
X021336Y003455D01*
X021261Y003530D01*
X021578Y003290D02*
X021684Y003290D01*
X021177Y003678D02*
X021204Y003734D01*
X021235Y003788D01*
X021269Y003840D01*
X021306Y003890D01*
X020725Y003455D02*
X020876Y003305D01*
X021181Y002793D02*
X021210Y002736D01*
X021243Y002680D01*
X021278Y002627D01*
X021318Y002576D01*
X021360Y002528D01*
X021405Y002482D01*
X021452Y002439D01*
X021502Y002399D01*
X021555Y002362D01*
X021610Y002329D01*
X021666Y002298D01*
X021725Y002272D01*
X021785Y002249D01*
X021846Y002229D01*
X021908Y002214D01*
X021971Y002202D01*
X022035Y002194D01*
X022099Y002190D01*
X022163Y002190D01*
X022227Y002194D01*
X022291Y002202D01*
X022354Y002214D01*
X022416Y002229D01*
X022477Y002249D01*
X022537Y002272D01*
X022596Y002298D01*
X022652Y002329D01*
X022707Y002362D01*
X022760Y002399D01*
X022810Y002439D01*
X022857Y002482D01*
X022902Y002528D01*
X022944Y002576D01*
X022984Y002627D01*
X023019Y002680D01*
X023052Y002736D01*
X023081Y002793D01*
X022996Y002015D02*
X022696Y002015D01*
X022536Y002015D02*
X022235Y002015D01*
X022385Y002015D02*
X022385Y001565D01*
X022696Y001565D02*
X022696Y001640D01*
X022996Y001940D01*
X022996Y002015D01*
X018996Y002015D02*
X018846Y001940D01*
X018696Y001790D01*
X018921Y001790D01*
X018996Y001715D01*
X018996Y001640D01*
X018921Y001565D01*
X018771Y001565D01*
X018696Y001640D01*
X018696Y001790D01*
X018385Y001565D02*
X018385Y002015D01*
X018235Y002015D02*
X018536Y002015D01*
X014056Y002494D02*
X014056Y002719D01*
X013981Y002794D01*
X013681Y002794D01*
X013606Y002719D01*
X013606Y002494D01*
X014056Y002494D01*
X013981Y002954D02*
X014056Y003029D01*
X014056Y003179D01*
X013981Y003255D01*
X013906Y003255D01*
X013831Y003179D01*
X013831Y002954D01*
X013981Y002954D01*
X013831Y002954D02*
X013681Y003104D01*
X013606Y003255D01*
X012146Y002845D02*
X012071Y002845D01*
X011771Y003146D01*
X011696Y003146D01*
X011696Y002845D01*
X012146Y002685D02*
X012146Y002385D01*
X012146Y002535D02*
X011696Y002535D01*
X011846Y002385D01*
X011921Y002225D02*
X011996Y002150D01*
X011996Y001925D01*
X011996Y002075D02*
X012146Y002225D01*
X011921Y002225D02*
X011771Y002225D01*
X011696Y002150D01*
X011696Y001925D01*
X012146Y001925D01*
X011066Y002224D02*
X010616Y002224D01*
X010616Y002449D01*
X010691Y002524D01*
X010841Y002524D01*
X010916Y002449D01*
X010916Y002224D01*
X010916Y002374D02*
X011066Y002524D01*
X011066Y002684D02*
X011066Y002984D01*
X011066Y002834D02*
X010616Y002834D01*
X010766Y002684D01*
X010156Y002650D02*
X010081Y002575D01*
X010156Y002650D02*
X010156Y002800D01*
X010081Y002875D01*
X010006Y002875D01*
X009931Y002800D01*
X009931Y002725D01*
X009931Y002800D02*
X009856Y002875D01*
X009781Y002875D01*
X009706Y002800D01*
X009706Y002650D01*
X009781Y002575D01*
X009781Y002415D02*
X009706Y002340D01*
X009706Y002115D01*
X010156Y002115D01*
X010156Y002340D01*
X010081Y002415D01*
X009781Y002415D01*
X010691Y003294D02*
X010841Y003144D01*
X010841Y003369D01*
X010916Y003444D01*
X010991Y003444D01*
X011066Y003369D01*
X011066Y003219D01*
X010991Y003144D01*
X010841Y003144D01*
X010691Y003294D02*
X010616Y003444D01*
X009066Y004724D02*
X008616Y004724D01*
X008616Y004949D01*
X008691Y005024D01*
X008841Y005024D01*
X008916Y004949D01*
X008916Y004724D01*
X008916Y004874D02*
X009066Y005024D01*
X009066Y005184D02*
X009066Y005484D01*
X009066Y005334D02*
X008616Y005334D01*
X008766Y005184D01*
X008156Y005150D02*
X008156Y005300D01*
X008081Y005375D01*
X007931Y005375D01*
X007856Y005300D01*
X007856Y005225D01*
X007931Y005075D01*
X007706Y005075D01*
X007706Y005375D01*
X008081Y005075D02*
X008156Y005150D01*
X008081Y004915D02*
X007781Y004915D01*
X007706Y004840D01*
X007706Y004615D01*
X008156Y004615D01*
X008156Y004840D01*
X008081Y004915D01*
X007566Y004619D02*
X007566Y004469D01*
X007491Y004394D01*
X007566Y004234D02*
X007566Y003934D01*
X007566Y004084D02*
X007116Y004084D01*
X007266Y003934D01*
X007191Y003774D02*
X007341Y003774D01*
X007416Y003699D01*
X007416Y003474D01*
X007416Y003624D02*
X007566Y003774D01*
X007191Y003774D02*
X007116Y003699D01*
X007116Y003474D01*
X007566Y003474D01*
X006656Y003365D02*
X006656Y003590D01*
X006581Y003665D01*
X006281Y003665D01*
X006206Y003590D01*
X006206Y003365D01*
X006656Y003365D01*
X006656Y003825D02*
X006356Y004125D01*
X006281Y004125D01*
X006206Y004050D01*
X006206Y003900D01*
X006281Y003825D01*
X006656Y003825D02*
X006656Y004125D01*
X007116Y004469D02*
X007191Y004394D01*
X007116Y004469D02*
X007116Y004619D01*
X007191Y004694D01*
X007266Y004694D01*
X007341Y004619D01*
X007416Y004694D01*
X007491Y004694D01*
X007566Y004619D01*
X007341Y004619D02*
X007341Y004544D01*
X008616Y005644D02*
X008841Y005644D01*
X008766Y005794D01*
X008766Y005869D01*
X008841Y005944D01*
X008991Y005944D01*
X009066Y005869D01*
X009066Y005719D01*
X008991Y005644D01*
X008616Y005644D02*
X008616Y005944D01*
X010556Y006190D02*
X010631Y006115D01*
X010931Y006115D01*
X011006Y006190D01*
X011006Y006340D01*
X010931Y006415D01*
X011006Y006575D02*
X011006Y006875D01*
X011006Y006725D02*
X010556Y006725D01*
X010706Y006575D01*
X010631Y006415D02*
X010556Y006340D01*
X010556Y006190D01*
X007556Y006994D02*
X007556Y007219D01*
X007481Y007294D01*
X007181Y007294D01*
X007106Y007219D01*
X007106Y006994D01*
X007556Y006994D01*
X006646Y007035D02*
X006196Y007035D01*
X006346Y006885D01*
X006421Y006725D02*
X006496Y006650D01*
X006496Y006425D01*
X006496Y006575D02*
X006646Y006725D01*
X006646Y006885D02*
X006646Y007185D01*
X006421Y007345D02*
X006421Y007646D01*
X006646Y007571D02*
X006196Y007571D01*
X006421Y007345D01*
X007106Y007679D02*
X007331Y007454D01*
X007331Y007755D01*
X007556Y007679D02*
X007106Y007679D01*
X006421Y006725D02*
X006271Y006725D01*
X006196Y006650D01*
X006196Y006425D01*
X006646Y006425D01*
D14*
X013151Y007760D02*
X013611Y008067D01*
X013611Y007760D02*
X013151Y008067D01*
X013151Y008220D02*
X013151Y008527D01*
X013151Y008373D02*
X013611Y008373D01*
X013611Y008680D02*
X013611Y008987D01*
X013611Y008834D02*
X013151Y008834D01*
X013304Y008680D01*
X014151Y011032D02*
X014151Y011185D01*
X014151Y011109D02*
X014611Y011109D01*
X014611Y011185D02*
X014611Y011032D01*
X014534Y011339D02*
X014227Y011339D01*
X014151Y011416D01*
X014151Y011569D01*
X014227Y011646D01*
X014304Y011799D02*
X014151Y011953D01*
X014611Y011953D01*
X014611Y012106D02*
X014611Y011799D01*
X014534Y011646D02*
X014611Y011569D01*
X014611Y011416D01*
X014534Y011339D01*
X004525Y011418D02*
X004467Y011360D01*
X004350Y011360D01*
X004292Y011418D01*
X004166Y011360D02*
X004050Y011476D01*
X004108Y011476D02*
X003933Y011476D01*
X003933Y011360D02*
X003933Y011710D01*
X004108Y011710D01*
X004166Y011652D01*
X004166Y011535D01*
X004108Y011476D01*
X004292Y011652D02*
X004350Y011710D01*
X004467Y011710D01*
X004525Y011652D01*
X004525Y011593D01*
X004467Y011535D01*
X004525Y011476D01*
X004525Y011418D01*
X004467Y011535D02*
X004409Y011535D01*
X024151Y006620D02*
X024151Y006260D01*
X024331Y006260D01*
X024391Y006320D01*
X024391Y006380D01*
X024331Y006440D01*
X024151Y006440D01*
X024331Y006440D02*
X024391Y006500D01*
X024391Y006560D01*
X024331Y006620D01*
X024151Y006620D01*
X027651Y006560D02*
X027651Y006320D01*
X027711Y006260D01*
X027831Y006260D01*
X027891Y006320D01*
X027891Y006560D02*
X027831Y006620D01*
X027711Y006620D01*
X027651Y006560D01*
X031151Y006620D02*
X031151Y006260D01*
X031331Y006260D01*
X031391Y006320D01*
X031391Y006560D01*
X031331Y006620D01*
X031151Y006620D01*
X034651Y006620D02*
X034651Y006260D01*
X034891Y006260D01*
X034771Y006440D02*
X034651Y006440D01*
X034651Y006620D02*
X034891Y006620D01*
X035151Y012760D02*
X035151Y013000D01*
X035271Y013120D01*
X035391Y013000D01*
X035391Y012760D01*
X035391Y012940D02*
X035151Y012940D01*
X031891Y013120D02*
X031651Y013120D01*
X031651Y012760D01*
X031651Y012940D02*
X031771Y012940D01*
X028391Y012940D02*
X028391Y012820D01*
X028331Y012760D01*
X028211Y012760D01*
X028151Y012820D01*
X028151Y013060D01*
X028211Y013120D01*
X028331Y013120D01*
X028391Y013060D01*
X028391Y012940D02*
X028271Y012940D01*
X024891Y012940D02*
X024651Y012940D01*
X024651Y012760D02*
X024651Y013120D01*
X024891Y013120D02*
X024891Y012760D01*
D15*
X020681Y012240D02*
X020581Y012240D01*
X016181Y013240D02*
X016081Y013240D01*
X016581Y010240D02*
X016681Y010240D01*
X020581Y008240D02*
X020681Y008240D01*
X020681Y007240D02*
X020581Y007240D01*
X016681Y007240D02*
X016581Y007240D01*
X011631Y009440D02*
X011631Y009540D01*
X007131Y007290D02*
X007131Y007190D01*
X008131Y005290D02*
X008131Y005190D01*
X006631Y004040D02*
X006631Y003940D01*
X010131Y002790D02*
X010131Y002690D01*
X012631Y002690D02*
X012631Y002790D01*
X016581Y004240D02*
X016681Y004240D01*
X020581Y004240D02*
X020681Y004240D01*
X007681Y013740D02*
X007581Y013740D01*
D16*
X004706Y012240D03*
X002556Y012240D03*
D17*
X008631Y009840D02*
X008631Y009640D01*
M02*
