G75*
G70*
%OFA0B0*%
%FSLAX24Y24*%
%IPPOS*%
%LPD*%
%AMOC8*
5,1,8,0,0,1.08239X$1,22.5*
%
%ADD10C,0.0551*%
%ADD11C,0.0157*%
%ADD12C,0.0120*%
%ADD13C,0.0433*%
%ADD14C,0.0138*%
%ADD15C,0.0118*%
%ADD16OC8,0.0630*%
%ADD17C,0.0594*%
%ADD18OC8,0.0520*%
%ADD19C,0.0520*%
%ADD20C,0.0515*%
%ADD21C,0.0630*%
%ADD22R,0.0515X0.0515*%
D10*
X001159Y002421D02*
X001161Y002457D01*
X001167Y002493D01*
X001177Y002528D01*
X001190Y002562D01*
X001207Y002594D01*
X001227Y002624D01*
X001251Y002651D01*
X001277Y002676D01*
X001306Y002698D01*
X001337Y002717D01*
X001370Y002732D01*
X001404Y002744D01*
X001440Y002752D01*
X001476Y002756D01*
X001512Y002756D01*
X001548Y002752D01*
X001584Y002744D01*
X001618Y002732D01*
X001651Y002717D01*
X001682Y002698D01*
X001711Y002676D01*
X001737Y002651D01*
X001761Y002624D01*
X001781Y002594D01*
X001798Y002562D01*
X001811Y002528D01*
X001821Y002493D01*
X001827Y002457D01*
X001829Y002421D01*
X001827Y002385D01*
X001821Y002349D01*
X001811Y002314D01*
X001798Y002280D01*
X001781Y002248D01*
X001761Y002218D01*
X001737Y002191D01*
X001711Y002166D01*
X001682Y002144D01*
X001651Y002125D01*
X001618Y002110D01*
X001584Y002098D01*
X001548Y002090D01*
X001512Y002086D01*
X001476Y002086D01*
X001440Y002090D01*
X001404Y002098D01*
X001370Y002110D01*
X001337Y002125D01*
X001306Y002144D01*
X001277Y002166D01*
X001251Y002191D01*
X001227Y002218D01*
X001207Y002248D01*
X001190Y002280D01*
X001177Y002314D01*
X001167Y002349D01*
X001161Y002385D01*
X001159Y002421D01*
X001159Y013838D02*
X001161Y013874D01*
X001167Y013910D01*
X001177Y013945D01*
X001190Y013979D01*
X001207Y014011D01*
X001227Y014041D01*
X001251Y014068D01*
X001277Y014093D01*
X001306Y014115D01*
X001337Y014134D01*
X001370Y014149D01*
X001404Y014161D01*
X001440Y014169D01*
X001476Y014173D01*
X001512Y014173D01*
X001548Y014169D01*
X001584Y014161D01*
X001618Y014149D01*
X001651Y014134D01*
X001682Y014115D01*
X001711Y014093D01*
X001737Y014068D01*
X001761Y014041D01*
X001781Y014011D01*
X001798Y013979D01*
X001811Y013945D01*
X001821Y013910D01*
X001827Y013874D01*
X001829Y013838D01*
X001827Y013802D01*
X001821Y013766D01*
X001811Y013731D01*
X001798Y013697D01*
X001781Y013665D01*
X001761Y013635D01*
X001737Y013608D01*
X001711Y013583D01*
X001682Y013561D01*
X001651Y013542D01*
X001618Y013527D01*
X001584Y013515D01*
X001548Y013507D01*
X001512Y013503D01*
X001476Y013503D01*
X001440Y013507D01*
X001404Y013515D01*
X001370Y013527D01*
X001337Y013542D01*
X001306Y013561D01*
X001277Y013583D01*
X001251Y013608D01*
X001227Y013635D01*
X001207Y013665D01*
X001190Y013697D01*
X001177Y013731D01*
X001167Y013766D01*
X001161Y013802D01*
X001159Y013838D01*
X038166Y013838D02*
X038168Y013874D01*
X038174Y013910D01*
X038184Y013945D01*
X038197Y013979D01*
X038214Y014011D01*
X038234Y014041D01*
X038258Y014068D01*
X038284Y014093D01*
X038313Y014115D01*
X038344Y014134D01*
X038377Y014149D01*
X038411Y014161D01*
X038447Y014169D01*
X038483Y014173D01*
X038519Y014173D01*
X038555Y014169D01*
X038591Y014161D01*
X038625Y014149D01*
X038658Y014134D01*
X038689Y014115D01*
X038718Y014093D01*
X038744Y014068D01*
X038768Y014041D01*
X038788Y014011D01*
X038805Y013979D01*
X038818Y013945D01*
X038828Y013910D01*
X038834Y013874D01*
X038836Y013838D01*
X038834Y013802D01*
X038828Y013766D01*
X038818Y013731D01*
X038805Y013697D01*
X038788Y013665D01*
X038768Y013635D01*
X038744Y013608D01*
X038718Y013583D01*
X038689Y013561D01*
X038658Y013542D01*
X038625Y013527D01*
X038591Y013515D01*
X038555Y013507D01*
X038519Y013503D01*
X038483Y013503D01*
X038447Y013507D01*
X038411Y013515D01*
X038377Y013527D01*
X038344Y013542D01*
X038313Y013561D01*
X038284Y013583D01*
X038258Y013608D01*
X038234Y013635D01*
X038214Y013665D01*
X038197Y013697D01*
X038184Y013731D01*
X038174Y013766D01*
X038168Y013802D01*
X038166Y013838D01*
X038166Y002421D02*
X038168Y002457D01*
X038174Y002493D01*
X038184Y002528D01*
X038197Y002562D01*
X038214Y002594D01*
X038234Y002624D01*
X038258Y002651D01*
X038284Y002676D01*
X038313Y002698D01*
X038344Y002717D01*
X038377Y002732D01*
X038411Y002744D01*
X038447Y002752D01*
X038483Y002756D01*
X038519Y002756D01*
X038555Y002752D01*
X038591Y002744D01*
X038625Y002732D01*
X038658Y002717D01*
X038689Y002698D01*
X038718Y002676D01*
X038744Y002651D01*
X038768Y002624D01*
X038788Y002594D01*
X038805Y002562D01*
X038818Y002528D01*
X038828Y002493D01*
X038834Y002457D01*
X038836Y002421D01*
X038834Y002385D01*
X038828Y002349D01*
X038818Y002314D01*
X038805Y002280D01*
X038788Y002248D01*
X038768Y002218D01*
X038744Y002191D01*
X038718Y002166D01*
X038689Y002144D01*
X038658Y002125D01*
X038625Y002110D01*
X038591Y002098D01*
X038555Y002090D01*
X038519Y002086D01*
X038483Y002086D01*
X038447Y002090D01*
X038411Y002098D01*
X038377Y002110D01*
X038344Y002125D01*
X038313Y002144D01*
X038284Y002166D01*
X038258Y002191D01*
X038234Y002218D01*
X038214Y002248D01*
X038197Y002280D01*
X038184Y002314D01*
X038174Y002349D01*
X038168Y002385D01*
X038166Y002421D01*
D11*
X036174Y004740D02*
X036176Y004763D01*
X036182Y004786D01*
X036192Y004807D01*
X036205Y004827D01*
X036221Y004844D01*
X036240Y004858D01*
X036261Y004868D01*
X036283Y004875D01*
X036306Y004878D01*
X036330Y004877D01*
X036352Y004872D01*
X036374Y004863D01*
X036394Y004851D01*
X036412Y004835D01*
X036426Y004817D01*
X036438Y004797D01*
X036446Y004775D01*
X036450Y004752D01*
X036450Y004728D01*
X036446Y004705D01*
X036438Y004683D01*
X036426Y004663D01*
X036412Y004645D01*
X036394Y004629D01*
X036374Y004617D01*
X036352Y004608D01*
X036330Y004603D01*
X036306Y004602D01*
X036283Y004605D01*
X036261Y004612D01*
X036240Y004622D01*
X036221Y004636D01*
X036205Y004653D01*
X036192Y004673D01*
X036182Y004694D01*
X036176Y004717D01*
X036174Y004740D01*
X035174Y004740D02*
X035176Y004763D01*
X035182Y004786D01*
X035192Y004807D01*
X035205Y004827D01*
X035221Y004844D01*
X035240Y004858D01*
X035261Y004868D01*
X035283Y004875D01*
X035306Y004878D01*
X035330Y004877D01*
X035352Y004872D01*
X035374Y004863D01*
X035394Y004851D01*
X035412Y004835D01*
X035426Y004817D01*
X035438Y004797D01*
X035446Y004775D01*
X035450Y004752D01*
X035450Y004728D01*
X035446Y004705D01*
X035438Y004683D01*
X035426Y004663D01*
X035412Y004645D01*
X035394Y004629D01*
X035374Y004617D01*
X035352Y004608D01*
X035330Y004603D01*
X035306Y004602D01*
X035283Y004605D01*
X035261Y004612D01*
X035240Y004622D01*
X035221Y004636D01*
X035205Y004653D01*
X035192Y004673D01*
X035182Y004694D01*
X035176Y004717D01*
X035174Y004740D01*
X032674Y004740D02*
X032676Y004763D01*
X032682Y004786D01*
X032692Y004807D01*
X032705Y004827D01*
X032721Y004844D01*
X032740Y004858D01*
X032761Y004868D01*
X032783Y004875D01*
X032806Y004878D01*
X032830Y004877D01*
X032852Y004872D01*
X032874Y004863D01*
X032894Y004851D01*
X032912Y004835D01*
X032926Y004817D01*
X032938Y004797D01*
X032946Y004775D01*
X032950Y004752D01*
X032950Y004728D01*
X032946Y004705D01*
X032938Y004683D01*
X032926Y004663D01*
X032912Y004645D01*
X032894Y004629D01*
X032874Y004617D01*
X032852Y004608D01*
X032830Y004603D01*
X032806Y004602D01*
X032783Y004605D01*
X032761Y004612D01*
X032740Y004622D01*
X032721Y004636D01*
X032705Y004653D01*
X032692Y004673D01*
X032682Y004694D01*
X032676Y004717D01*
X032674Y004740D01*
X031674Y004740D02*
X031676Y004763D01*
X031682Y004786D01*
X031692Y004807D01*
X031705Y004827D01*
X031721Y004844D01*
X031740Y004858D01*
X031761Y004868D01*
X031783Y004875D01*
X031806Y004878D01*
X031830Y004877D01*
X031852Y004872D01*
X031874Y004863D01*
X031894Y004851D01*
X031912Y004835D01*
X031926Y004817D01*
X031938Y004797D01*
X031946Y004775D01*
X031950Y004752D01*
X031950Y004728D01*
X031946Y004705D01*
X031938Y004683D01*
X031926Y004663D01*
X031912Y004645D01*
X031894Y004629D01*
X031874Y004617D01*
X031852Y004608D01*
X031830Y004603D01*
X031806Y004602D01*
X031783Y004605D01*
X031761Y004612D01*
X031740Y004622D01*
X031721Y004636D01*
X031705Y004653D01*
X031692Y004673D01*
X031682Y004694D01*
X031676Y004717D01*
X031674Y004740D01*
X029174Y004740D02*
X029176Y004763D01*
X029182Y004786D01*
X029192Y004807D01*
X029205Y004827D01*
X029221Y004844D01*
X029240Y004858D01*
X029261Y004868D01*
X029283Y004875D01*
X029306Y004878D01*
X029330Y004877D01*
X029352Y004872D01*
X029374Y004863D01*
X029394Y004851D01*
X029412Y004835D01*
X029426Y004817D01*
X029438Y004797D01*
X029446Y004775D01*
X029450Y004752D01*
X029450Y004728D01*
X029446Y004705D01*
X029438Y004683D01*
X029426Y004663D01*
X029412Y004645D01*
X029394Y004629D01*
X029374Y004617D01*
X029352Y004608D01*
X029330Y004603D01*
X029306Y004602D01*
X029283Y004605D01*
X029261Y004612D01*
X029240Y004622D01*
X029221Y004636D01*
X029205Y004653D01*
X029192Y004673D01*
X029182Y004694D01*
X029176Y004717D01*
X029174Y004740D01*
X028174Y004740D02*
X028176Y004763D01*
X028182Y004786D01*
X028192Y004807D01*
X028205Y004827D01*
X028221Y004844D01*
X028240Y004858D01*
X028261Y004868D01*
X028283Y004875D01*
X028306Y004878D01*
X028330Y004877D01*
X028352Y004872D01*
X028374Y004863D01*
X028394Y004851D01*
X028412Y004835D01*
X028426Y004817D01*
X028438Y004797D01*
X028446Y004775D01*
X028450Y004752D01*
X028450Y004728D01*
X028446Y004705D01*
X028438Y004683D01*
X028426Y004663D01*
X028412Y004645D01*
X028394Y004629D01*
X028374Y004617D01*
X028352Y004608D01*
X028330Y004603D01*
X028306Y004602D01*
X028283Y004605D01*
X028261Y004612D01*
X028240Y004622D01*
X028221Y004636D01*
X028205Y004653D01*
X028192Y004673D01*
X028182Y004694D01*
X028176Y004717D01*
X028174Y004740D01*
X025674Y004740D02*
X025676Y004763D01*
X025682Y004786D01*
X025692Y004807D01*
X025705Y004827D01*
X025721Y004844D01*
X025740Y004858D01*
X025761Y004868D01*
X025783Y004875D01*
X025806Y004878D01*
X025830Y004877D01*
X025852Y004872D01*
X025874Y004863D01*
X025894Y004851D01*
X025912Y004835D01*
X025926Y004817D01*
X025938Y004797D01*
X025946Y004775D01*
X025950Y004752D01*
X025950Y004728D01*
X025946Y004705D01*
X025938Y004683D01*
X025926Y004663D01*
X025912Y004645D01*
X025894Y004629D01*
X025874Y004617D01*
X025852Y004608D01*
X025830Y004603D01*
X025806Y004602D01*
X025783Y004605D01*
X025761Y004612D01*
X025740Y004622D01*
X025721Y004636D01*
X025705Y004653D01*
X025692Y004673D01*
X025682Y004694D01*
X025676Y004717D01*
X025674Y004740D01*
X024674Y004740D02*
X024676Y004763D01*
X024682Y004786D01*
X024692Y004807D01*
X024705Y004827D01*
X024721Y004844D01*
X024740Y004858D01*
X024761Y004868D01*
X024783Y004875D01*
X024806Y004878D01*
X024830Y004877D01*
X024852Y004872D01*
X024874Y004863D01*
X024894Y004851D01*
X024912Y004835D01*
X024926Y004817D01*
X024938Y004797D01*
X024946Y004775D01*
X024950Y004752D01*
X024950Y004728D01*
X024946Y004705D01*
X024938Y004683D01*
X024926Y004663D01*
X024912Y004645D01*
X024894Y004629D01*
X024874Y004617D01*
X024852Y004608D01*
X024830Y004603D01*
X024806Y004602D01*
X024783Y004605D01*
X024761Y004612D01*
X024740Y004622D01*
X024721Y004636D01*
X024705Y004653D01*
X024692Y004673D01*
X024682Y004694D01*
X024676Y004717D01*
X024674Y004740D01*
X025174Y011240D02*
X025176Y011263D01*
X025182Y011286D01*
X025192Y011307D01*
X025205Y011327D01*
X025221Y011344D01*
X025240Y011358D01*
X025261Y011368D01*
X025283Y011375D01*
X025306Y011378D01*
X025330Y011377D01*
X025352Y011372D01*
X025374Y011363D01*
X025394Y011351D01*
X025412Y011335D01*
X025426Y011317D01*
X025438Y011297D01*
X025446Y011275D01*
X025450Y011252D01*
X025450Y011228D01*
X025446Y011205D01*
X025438Y011183D01*
X025426Y011163D01*
X025412Y011145D01*
X025394Y011129D01*
X025374Y011117D01*
X025352Y011108D01*
X025330Y011103D01*
X025306Y011102D01*
X025283Y011105D01*
X025261Y011112D01*
X025240Y011122D01*
X025221Y011136D01*
X025205Y011153D01*
X025192Y011173D01*
X025182Y011194D01*
X025176Y011217D01*
X025174Y011240D01*
X026174Y011240D02*
X026176Y011263D01*
X026182Y011286D01*
X026192Y011307D01*
X026205Y011327D01*
X026221Y011344D01*
X026240Y011358D01*
X026261Y011368D01*
X026283Y011375D01*
X026306Y011378D01*
X026330Y011377D01*
X026352Y011372D01*
X026374Y011363D01*
X026394Y011351D01*
X026412Y011335D01*
X026426Y011317D01*
X026438Y011297D01*
X026446Y011275D01*
X026450Y011252D01*
X026450Y011228D01*
X026446Y011205D01*
X026438Y011183D01*
X026426Y011163D01*
X026412Y011145D01*
X026394Y011129D01*
X026374Y011117D01*
X026352Y011108D01*
X026330Y011103D01*
X026306Y011102D01*
X026283Y011105D01*
X026261Y011112D01*
X026240Y011122D01*
X026221Y011136D01*
X026205Y011153D01*
X026192Y011173D01*
X026182Y011194D01*
X026176Y011217D01*
X026174Y011240D01*
X028674Y011240D02*
X028676Y011263D01*
X028682Y011286D01*
X028692Y011307D01*
X028705Y011327D01*
X028721Y011344D01*
X028740Y011358D01*
X028761Y011368D01*
X028783Y011375D01*
X028806Y011378D01*
X028830Y011377D01*
X028852Y011372D01*
X028874Y011363D01*
X028894Y011351D01*
X028912Y011335D01*
X028926Y011317D01*
X028938Y011297D01*
X028946Y011275D01*
X028950Y011252D01*
X028950Y011228D01*
X028946Y011205D01*
X028938Y011183D01*
X028926Y011163D01*
X028912Y011145D01*
X028894Y011129D01*
X028874Y011117D01*
X028852Y011108D01*
X028830Y011103D01*
X028806Y011102D01*
X028783Y011105D01*
X028761Y011112D01*
X028740Y011122D01*
X028721Y011136D01*
X028705Y011153D01*
X028692Y011173D01*
X028682Y011194D01*
X028676Y011217D01*
X028674Y011240D01*
X029674Y011240D02*
X029676Y011263D01*
X029682Y011286D01*
X029692Y011307D01*
X029705Y011327D01*
X029721Y011344D01*
X029740Y011358D01*
X029761Y011368D01*
X029783Y011375D01*
X029806Y011378D01*
X029830Y011377D01*
X029852Y011372D01*
X029874Y011363D01*
X029894Y011351D01*
X029912Y011335D01*
X029926Y011317D01*
X029938Y011297D01*
X029946Y011275D01*
X029950Y011252D01*
X029950Y011228D01*
X029946Y011205D01*
X029938Y011183D01*
X029926Y011163D01*
X029912Y011145D01*
X029894Y011129D01*
X029874Y011117D01*
X029852Y011108D01*
X029830Y011103D01*
X029806Y011102D01*
X029783Y011105D01*
X029761Y011112D01*
X029740Y011122D01*
X029721Y011136D01*
X029705Y011153D01*
X029692Y011173D01*
X029682Y011194D01*
X029676Y011217D01*
X029674Y011240D01*
X032174Y011240D02*
X032176Y011263D01*
X032182Y011286D01*
X032192Y011307D01*
X032205Y011327D01*
X032221Y011344D01*
X032240Y011358D01*
X032261Y011368D01*
X032283Y011375D01*
X032306Y011378D01*
X032330Y011377D01*
X032352Y011372D01*
X032374Y011363D01*
X032394Y011351D01*
X032412Y011335D01*
X032426Y011317D01*
X032438Y011297D01*
X032446Y011275D01*
X032450Y011252D01*
X032450Y011228D01*
X032446Y011205D01*
X032438Y011183D01*
X032426Y011163D01*
X032412Y011145D01*
X032394Y011129D01*
X032374Y011117D01*
X032352Y011108D01*
X032330Y011103D01*
X032306Y011102D01*
X032283Y011105D01*
X032261Y011112D01*
X032240Y011122D01*
X032221Y011136D01*
X032205Y011153D01*
X032192Y011173D01*
X032182Y011194D01*
X032176Y011217D01*
X032174Y011240D01*
X033174Y011240D02*
X033176Y011263D01*
X033182Y011286D01*
X033192Y011307D01*
X033205Y011327D01*
X033221Y011344D01*
X033240Y011358D01*
X033261Y011368D01*
X033283Y011375D01*
X033306Y011378D01*
X033330Y011377D01*
X033352Y011372D01*
X033374Y011363D01*
X033394Y011351D01*
X033412Y011335D01*
X033426Y011317D01*
X033438Y011297D01*
X033446Y011275D01*
X033450Y011252D01*
X033450Y011228D01*
X033446Y011205D01*
X033438Y011183D01*
X033426Y011163D01*
X033412Y011145D01*
X033394Y011129D01*
X033374Y011117D01*
X033352Y011108D01*
X033330Y011103D01*
X033306Y011102D01*
X033283Y011105D01*
X033261Y011112D01*
X033240Y011122D01*
X033221Y011136D01*
X033205Y011153D01*
X033192Y011173D01*
X033182Y011194D01*
X033176Y011217D01*
X033174Y011240D01*
X035674Y011240D02*
X035676Y011263D01*
X035682Y011286D01*
X035692Y011307D01*
X035705Y011327D01*
X035721Y011344D01*
X035740Y011358D01*
X035761Y011368D01*
X035783Y011375D01*
X035806Y011378D01*
X035830Y011377D01*
X035852Y011372D01*
X035874Y011363D01*
X035894Y011351D01*
X035912Y011335D01*
X035926Y011317D01*
X035938Y011297D01*
X035946Y011275D01*
X035950Y011252D01*
X035950Y011228D01*
X035946Y011205D01*
X035938Y011183D01*
X035926Y011163D01*
X035912Y011145D01*
X035894Y011129D01*
X035874Y011117D01*
X035852Y011108D01*
X035830Y011103D01*
X035806Y011102D01*
X035783Y011105D01*
X035761Y011112D01*
X035740Y011122D01*
X035721Y011136D01*
X035705Y011153D01*
X035692Y011173D01*
X035682Y011194D01*
X035676Y011217D01*
X035674Y011240D01*
X036674Y011240D02*
X036676Y011263D01*
X036682Y011286D01*
X036692Y011307D01*
X036705Y011327D01*
X036721Y011344D01*
X036740Y011358D01*
X036761Y011368D01*
X036783Y011375D01*
X036806Y011378D01*
X036830Y011377D01*
X036852Y011372D01*
X036874Y011363D01*
X036894Y011351D01*
X036912Y011335D01*
X036926Y011317D01*
X036938Y011297D01*
X036946Y011275D01*
X036950Y011252D01*
X036950Y011228D01*
X036946Y011205D01*
X036938Y011183D01*
X036926Y011163D01*
X036912Y011145D01*
X036894Y011129D01*
X036874Y011117D01*
X036852Y011108D01*
X036830Y011103D01*
X036806Y011102D01*
X036783Y011105D01*
X036761Y011112D01*
X036740Y011122D01*
X036721Y011136D01*
X036705Y011153D01*
X036692Y011173D01*
X036682Y011194D01*
X036676Y011217D01*
X036674Y011240D01*
D12*
X023193Y013240D02*
X023195Y013261D01*
X023201Y013282D01*
X023210Y013301D01*
X023222Y013318D01*
X023238Y013333D01*
X023256Y013345D01*
X023275Y013353D01*
X023296Y013358D01*
X023317Y013359D01*
X023338Y013356D01*
X023359Y013349D01*
X023378Y013339D01*
X023394Y013326D01*
X023408Y013310D01*
X023419Y013292D01*
X023427Y013272D01*
X023431Y013251D01*
X023431Y013229D01*
X023427Y013208D01*
X023419Y013188D01*
X023408Y013170D01*
X023394Y013154D01*
X023378Y013141D01*
X023359Y013131D01*
X023338Y013124D01*
X023317Y013121D01*
X023296Y013122D01*
X023275Y013127D01*
X023256Y013135D01*
X023238Y013147D01*
X023222Y013162D01*
X023210Y013179D01*
X023201Y013198D01*
X023195Y013219D01*
X023193Y013240D01*
X022193Y013240D02*
X022195Y013261D01*
X022201Y013282D01*
X022210Y013301D01*
X022222Y013318D01*
X022238Y013333D01*
X022256Y013345D01*
X022275Y013353D01*
X022296Y013358D01*
X022317Y013359D01*
X022338Y013356D01*
X022359Y013349D01*
X022378Y013339D01*
X022394Y013326D01*
X022408Y013310D01*
X022419Y013292D01*
X022427Y013272D01*
X022431Y013251D01*
X022431Y013229D01*
X022427Y013208D01*
X022419Y013188D01*
X022408Y013170D01*
X022394Y013154D01*
X022378Y013141D01*
X022359Y013131D01*
X022338Y013124D01*
X022317Y013121D01*
X022296Y013122D01*
X022275Y013127D01*
X022256Y013135D01*
X022238Y013147D01*
X022222Y013162D01*
X022210Y013179D01*
X022201Y013198D01*
X022195Y013219D01*
X022193Y013240D01*
X021193Y013240D02*
X021195Y013261D01*
X021201Y013282D01*
X021210Y013301D01*
X021222Y013318D01*
X021238Y013333D01*
X021256Y013345D01*
X021275Y013353D01*
X021296Y013358D01*
X021317Y013359D01*
X021338Y013356D01*
X021359Y013349D01*
X021378Y013339D01*
X021394Y013326D01*
X021408Y013310D01*
X021419Y013292D01*
X021427Y013272D01*
X021431Y013251D01*
X021431Y013229D01*
X021427Y013208D01*
X021419Y013188D01*
X021408Y013170D01*
X021394Y013154D01*
X021378Y013141D01*
X021359Y013131D01*
X021338Y013124D01*
X021317Y013121D01*
X021296Y013122D01*
X021275Y013127D01*
X021256Y013135D01*
X021238Y013147D01*
X021222Y013162D01*
X021210Y013179D01*
X021201Y013198D01*
X021195Y013219D01*
X021193Y013240D01*
X019193Y013240D02*
X019195Y013261D01*
X019201Y013282D01*
X019210Y013301D01*
X019222Y013318D01*
X019238Y013333D01*
X019256Y013345D01*
X019275Y013353D01*
X019296Y013358D01*
X019317Y013359D01*
X019338Y013356D01*
X019359Y013349D01*
X019378Y013339D01*
X019394Y013326D01*
X019408Y013310D01*
X019419Y013292D01*
X019427Y013272D01*
X019431Y013251D01*
X019431Y013229D01*
X019427Y013208D01*
X019419Y013188D01*
X019408Y013170D01*
X019394Y013154D01*
X019378Y013141D01*
X019359Y013131D01*
X019338Y013124D01*
X019317Y013121D01*
X019296Y013122D01*
X019275Y013127D01*
X019256Y013135D01*
X019238Y013147D01*
X019222Y013162D01*
X019210Y013179D01*
X019201Y013198D01*
X019195Y013219D01*
X019193Y013240D01*
X018193Y013240D02*
X018195Y013261D01*
X018201Y013282D01*
X018210Y013301D01*
X018222Y013318D01*
X018238Y013333D01*
X018256Y013345D01*
X018275Y013353D01*
X018296Y013358D01*
X018317Y013359D01*
X018338Y013356D01*
X018359Y013349D01*
X018378Y013339D01*
X018394Y013326D01*
X018408Y013310D01*
X018419Y013292D01*
X018427Y013272D01*
X018431Y013251D01*
X018431Y013229D01*
X018427Y013208D01*
X018419Y013188D01*
X018408Y013170D01*
X018394Y013154D01*
X018378Y013141D01*
X018359Y013131D01*
X018338Y013124D01*
X018317Y013121D01*
X018296Y013122D01*
X018275Y013127D01*
X018256Y013135D01*
X018238Y013147D01*
X018222Y013162D01*
X018210Y013179D01*
X018201Y013198D01*
X018195Y013219D01*
X018193Y013240D01*
X017193Y013240D02*
X017195Y013261D01*
X017201Y013282D01*
X017210Y013301D01*
X017222Y013318D01*
X017238Y013333D01*
X017256Y013345D01*
X017275Y013353D01*
X017296Y013358D01*
X017317Y013359D01*
X017338Y013356D01*
X017359Y013349D01*
X017378Y013339D01*
X017394Y013326D01*
X017408Y013310D01*
X017419Y013292D01*
X017427Y013272D01*
X017431Y013251D01*
X017431Y013229D01*
X017427Y013208D01*
X017419Y013188D01*
X017408Y013170D01*
X017394Y013154D01*
X017378Y013141D01*
X017359Y013131D01*
X017338Y013124D01*
X017317Y013121D01*
X017296Y013122D01*
X017275Y013127D01*
X017256Y013135D01*
X017238Y013147D01*
X017222Y013162D01*
X017210Y013179D01*
X017201Y013198D01*
X017195Y013219D01*
X017193Y013240D01*
X016693Y013240D02*
X016695Y013261D01*
X016701Y013282D01*
X016710Y013301D01*
X016722Y013318D01*
X016738Y013333D01*
X016756Y013345D01*
X016775Y013353D01*
X016796Y013358D01*
X016817Y013359D01*
X016838Y013356D01*
X016859Y013349D01*
X016878Y013339D01*
X016894Y013326D01*
X016908Y013310D01*
X016919Y013292D01*
X016927Y013272D01*
X016931Y013251D01*
X016931Y013229D01*
X016927Y013208D01*
X016919Y013188D01*
X016908Y013170D01*
X016894Y013154D01*
X016878Y013141D01*
X016859Y013131D01*
X016838Y013124D01*
X016817Y013121D01*
X016796Y013122D01*
X016775Y013127D01*
X016756Y013135D01*
X016738Y013147D01*
X016722Y013162D01*
X016710Y013179D01*
X016701Y013198D01*
X016695Y013219D01*
X016693Y013240D01*
X015693Y013240D02*
X015695Y013261D01*
X015701Y013282D01*
X015710Y013301D01*
X015722Y013318D01*
X015738Y013333D01*
X015756Y013345D01*
X015775Y013353D01*
X015796Y013358D01*
X015817Y013359D01*
X015838Y013356D01*
X015859Y013349D01*
X015878Y013339D01*
X015894Y013326D01*
X015908Y013310D01*
X015919Y013292D01*
X015927Y013272D01*
X015931Y013251D01*
X015931Y013229D01*
X015927Y013208D01*
X015919Y013188D01*
X015908Y013170D01*
X015894Y013154D01*
X015878Y013141D01*
X015859Y013131D01*
X015838Y013124D01*
X015817Y013121D01*
X015796Y013122D01*
X015775Y013127D01*
X015756Y013135D01*
X015738Y013147D01*
X015722Y013162D01*
X015710Y013179D01*
X015701Y013198D01*
X015695Y013219D01*
X015693Y013240D01*
X013193Y012240D02*
X013195Y012261D01*
X013201Y012282D01*
X013210Y012301D01*
X013222Y012318D01*
X013238Y012333D01*
X013256Y012345D01*
X013275Y012353D01*
X013296Y012358D01*
X013317Y012359D01*
X013338Y012356D01*
X013359Y012349D01*
X013378Y012339D01*
X013394Y012326D01*
X013408Y012310D01*
X013419Y012292D01*
X013427Y012272D01*
X013431Y012251D01*
X013431Y012229D01*
X013427Y012208D01*
X013419Y012188D01*
X013408Y012170D01*
X013394Y012154D01*
X013378Y012141D01*
X013359Y012131D01*
X013338Y012124D01*
X013317Y012121D01*
X013296Y012122D01*
X013275Y012127D01*
X013256Y012135D01*
X013238Y012147D01*
X013222Y012162D01*
X013210Y012179D01*
X013201Y012198D01*
X013195Y012219D01*
X013193Y012240D01*
X013193Y011240D02*
X013195Y011261D01*
X013201Y011282D01*
X013210Y011301D01*
X013222Y011318D01*
X013238Y011333D01*
X013256Y011345D01*
X013275Y011353D01*
X013296Y011358D01*
X013317Y011359D01*
X013338Y011356D01*
X013359Y011349D01*
X013378Y011339D01*
X013394Y011326D01*
X013408Y011310D01*
X013419Y011292D01*
X013427Y011272D01*
X013431Y011251D01*
X013431Y011229D01*
X013427Y011208D01*
X013419Y011188D01*
X013408Y011170D01*
X013394Y011154D01*
X013378Y011141D01*
X013359Y011131D01*
X013338Y011124D01*
X013317Y011121D01*
X013296Y011122D01*
X013275Y011127D01*
X013256Y011135D01*
X013238Y011147D01*
X013222Y011162D01*
X013210Y011179D01*
X013201Y011198D01*
X013195Y011219D01*
X013193Y011240D01*
X013193Y010240D02*
X013195Y010261D01*
X013201Y010282D01*
X013210Y010301D01*
X013222Y010318D01*
X013238Y010333D01*
X013256Y010345D01*
X013275Y010353D01*
X013296Y010358D01*
X013317Y010359D01*
X013338Y010356D01*
X013359Y010349D01*
X013378Y010339D01*
X013394Y010326D01*
X013408Y010310D01*
X013419Y010292D01*
X013427Y010272D01*
X013431Y010251D01*
X013431Y010229D01*
X013427Y010208D01*
X013419Y010188D01*
X013408Y010170D01*
X013394Y010154D01*
X013378Y010141D01*
X013359Y010131D01*
X013338Y010124D01*
X013317Y010121D01*
X013296Y010122D01*
X013275Y010127D01*
X013256Y010135D01*
X013238Y010147D01*
X013222Y010162D01*
X013210Y010179D01*
X013201Y010198D01*
X013195Y010219D01*
X013193Y010240D01*
X011693Y009990D02*
X011695Y010011D01*
X011701Y010032D01*
X011710Y010051D01*
X011722Y010068D01*
X011738Y010083D01*
X011756Y010095D01*
X011775Y010103D01*
X011796Y010108D01*
X011817Y010109D01*
X011838Y010106D01*
X011859Y010099D01*
X011878Y010089D01*
X011894Y010076D01*
X011908Y010060D01*
X011919Y010042D01*
X011927Y010022D01*
X011931Y010001D01*
X011931Y009979D01*
X011927Y009958D01*
X011919Y009938D01*
X011908Y009920D01*
X011894Y009904D01*
X011878Y009891D01*
X011859Y009881D01*
X011838Y009874D01*
X011817Y009871D01*
X011796Y009872D01*
X011775Y009877D01*
X011756Y009885D01*
X011738Y009897D01*
X011722Y009912D01*
X011710Y009929D01*
X011701Y009948D01*
X011695Y009969D01*
X011693Y009990D01*
X010193Y010240D02*
X010195Y010261D01*
X010201Y010282D01*
X010210Y010301D01*
X010222Y010318D01*
X010238Y010333D01*
X010256Y010345D01*
X010275Y010353D01*
X010296Y010358D01*
X010317Y010359D01*
X010338Y010356D01*
X010359Y010349D01*
X010378Y010339D01*
X010394Y010326D01*
X010408Y010310D01*
X010419Y010292D01*
X010427Y010272D01*
X010431Y010251D01*
X010431Y010229D01*
X010427Y010208D01*
X010419Y010188D01*
X010408Y010170D01*
X010394Y010154D01*
X010378Y010141D01*
X010359Y010131D01*
X010338Y010124D01*
X010317Y010121D01*
X010296Y010122D01*
X010275Y010127D01*
X010256Y010135D01*
X010238Y010147D01*
X010222Y010162D01*
X010210Y010179D01*
X010201Y010198D01*
X010195Y010219D01*
X010193Y010240D01*
X008693Y010240D02*
X008695Y010261D01*
X008701Y010282D01*
X008710Y010301D01*
X008722Y010318D01*
X008738Y010333D01*
X008756Y010345D01*
X008775Y010353D01*
X008796Y010358D01*
X008817Y010359D01*
X008838Y010356D01*
X008859Y010349D01*
X008878Y010339D01*
X008894Y010326D01*
X008908Y010310D01*
X008919Y010292D01*
X008927Y010272D01*
X008931Y010251D01*
X008931Y010229D01*
X008927Y010208D01*
X008919Y010188D01*
X008908Y010170D01*
X008894Y010154D01*
X008878Y010141D01*
X008859Y010131D01*
X008838Y010124D01*
X008817Y010121D01*
X008796Y010122D01*
X008775Y010127D01*
X008756Y010135D01*
X008738Y010147D01*
X008722Y010162D01*
X008710Y010179D01*
X008701Y010198D01*
X008695Y010219D01*
X008693Y010240D01*
X008693Y009240D02*
X008695Y009261D01*
X008701Y009282D01*
X008710Y009301D01*
X008722Y009318D01*
X008738Y009333D01*
X008756Y009345D01*
X008775Y009353D01*
X008796Y009358D01*
X008817Y009359D01*
X008838Y009356D01*
X008859Y009349D01*
X008878Y009339D01*
X008894Y009326D01*
X008908Y009310D01*
X008919Y009292D01*
X008927Y009272D01*
X008931Y009251D01*
X008931Y009229D01*
X008927Y009208D01*
X008919Y009188D01*
X008908Y009170D01*
X008894Y009154D01*
X008878Y009141D01*
X008859Y009131D01*
X008838Y009124D01*
X008817Y009121D01*
X008796Y009122D01*
X008775Y009127D01*
X008756Y009135D01*
X008738Y009147D01*
X008722Y009162D01*
X008710Y009179D01*
X008701Y009198D01*
X008695Y009219D01*
X008693Y009240D01*
X010193Y009240D02*
X010195Y009261D01*
X010201Y009282D01*
X010210Y009301D01*
X010222Y009318D01*
X010238Y009333D01*
X010256Y009345D01*
X010275Y009353D01*
X010296Y009358D01*
X010317Y009359D01*
X010338Y009356D01*
X010359Y009349D01*
X010378Y009339D01*
X010394Y009326D01*
X010408Y009310D01*
X010419Y009292D01*
X010427Y009272D01*
X010431Y009251D01*
X010431Y009229D01*
X010427Y009208D01*
X010419Y009188D01*
X010408Y009170D01*
X010394Y009154D01*
X010378Y009141D01*
X010359Y009131D01*
X010338Y009124D01*
X010317Y009121D01*
X010296Y009122D01*
X010275Y009127D01*
X010256Y009135D01*
X010238Y009147D01*
X010222Y009162D01*
X010210Y009179D01*
X010201Y009198D01*
X010195Y009219D01*
X010193Y009240D01*
X011693Y008990D02*
X011695Y009011D01*
X011701Y009032D01*
X011710Y009051D01*
X011722Y009068D01*
X011738Y009083D01*
X011756Y009095D01*
X011775Y009103D01*
X011796Y009108D01*
X011817Y009109D01*
X011838Y009106D01*
X011859Y009099D01*
X011878Y009089D01*
X011894Y009076D01*
X011908Y009060D01*
X011919Y009042D01*
X011927Y009022D01*
X011931Y009001D01*
X011931Y008979D01*
X011927Y008958D01*
X011919Y008938D01*
X011908Y008920D01*
X011894Y008904D01*
X011878Y008891D01*
X011859Y008881D01*
X011838Y008874D01*
X011817Y008871D01*
X011796Y008872D01*
X011775Y008877D01*
X011756Y008885D01*
X011738Y008897D01*
X011722Y008912D01*
X011710Y008929D01*
X011701Y008948D01*
X011695Y008969D01*
X011693Y008990D01*
X013193Y009240D02*
X013195Y009261D01*
X013201Y009282D01*
X013210Y009301D01*
X013222Y009318D01*
X013238Y009333D01*
X013256Y009345D01*
X013275Y009353D01*
X013296Y009358D01*
X013317Y009359D01*
X013338Y009356D01*
X013359Y009349D01*
X013378Y009339D01*
X013394Y009326D01*
X013408Y009310D01*
X013419Y009292D01*
X013427Y009272D01*
X013431Y009251D01*
X013431Y009229D01*
X013427Y009208D01*
X013419Y009188D01*
X013408Y009170D01*
X013394Y009154D01*
X013378Y009141D01*
X013359Y009131D01*
X013338Y009124D01*
X013317Y009121D01*
X013296Y009122D01*
X013275Y009127D01*
X013256Y009135D01*
X013238Y009147D01*
X013222Y009162D01*
X013210Y009179D01*
X013201Y009198D01*
X013195Y009219D01*
X013193Y009240D01*
X013193Y008240D02*
X013195Y008261D01*
X013201Y008282D01*
X013210Y008301D01*
X013222Y008318D01*
X013238Y008333D01*
X013256Y008345D01*
X013275Y008353D01*
X013296Y008358D01*
X013317Y008359D01*
X013338Y008356D01*
X013359Y008349D01*
X013378Y008339D01*
X013394Y008326D01*
X013408Y008310D01*
X013419Y008292D01*
X013427Y008272D01*
X013431Y008251D01*
X013431Y008229D01*
X013427Y008208D01*
X013419Y008188D01*
X013408Y008170D01*
X013394Y008154D01*
X013378Y008141D01*
X013359Y008131D01*
X013338Y008124D01*
X013317Y008121D01*
X013296Y008122D01*
X013275Y008127D01*
X013256Y008135D01*
X013238Y008147D01*
X013222Y008162D01*
X013210Y008179D01*
X013201Y008198D01*
X013195Y008219D01*
X013193Y008240D01*
X013193Y007240D02*
X013195Y007261D01*
X013201Y007282D01*
X013210Y007301D01*
X013222Y007318D01*
X013238Y007333D01*
X013256Y007345D01*
X013275Y007353D01*
X013296Y007358D01*
X013317Y007359D01*
X013338Y007356D01*
X013359Y007349D01*
X013378Y007339D01*
X013394Y007326D01*
X013408Y007310D01*
X013419Y007292D01*
X013427Y007272D01*
X013431Y007251D01*
X013431Y007229D01*
X013427Y007208D01*
X013419Y007188D01*
X013408Y007170D01*
X013394Y007154D01*
X013378Y007141D01*
X013359Y007131D01*
X013338Y007124D01*
X013317Y007121D01*
X013296Y007122D01*
X013275Y007127D01*
X013256Y007135D01*
X013238Y007147D01*
X013222Y007162D01*
X013210Y007179D01*
X013201Y007198D01*
X013195Y007219D01*
X013193Y007240D01*
X011693Y007240D02*
X011695Y007261D01*
X011701Y007282D01*
X011710Y007301D01*
X011722Y007318D01*
X011738Y007333D01*
X011756Y007345D01*
X011775Y007353D01*
X011796Y007358D01*
X011817Y007359D01*
X011838Y007356D01*
X011859Y007349D01*
X011878Y007339D01*
X011894Y007326D01*
X011908Y007310D01*
X011919Y007292D01*
X011927Y007272D01*
X011931Y007251D01*
X011931Y007229D01*
X011927Y007208D01*
X011919Y007188D01*
X011908Y007170D01*
X011894Y007154D01*
X011878Y007141D01*
X011859Y007131D01*
X011838Y007124D01*
X011817Y007121D01*
X011796Y007122D01*
X011775Y007127D01*
X011756Y007135D01*
X011738Y007147D01*
X011722Y007162D01*
X011710Y007179D01*
X011701Y007198D01*
X011695Y007219D01*
X011693Y007240D01*
X010193Y007240D02*
X010195Y007261D01*
X010201Y007282D01*
X010210Y007301D01*
X010222Y007318D01*
X010238Y007333D01*
X010256Y007345D01*
X010275Y007353D01*
X010296Y007358D01*
X010317Y007359D01*
X010338Y007356D01*
X010359Y007349D01*
X010378Y007339D01*
X010394Y007326D01*
X010408Y007310D01*
X010419Y007292D01*
X010427Y007272D01*
X010431Y007251D01*
X010431Y007229D01*
X010427Y007208D01*
X010419Y007188D01*
X010408Y007170D01*
X010394Y007154D01*
X010378Y007141D01*
X010359Y007131D01*
X010338Y007124D01*
X010317Y007121D01*
X010296Y007122D01*
X010275Y007127D01*
X010256Y007135D01*
X010238Y007147D01*
X010222Y007162D01*
X010210Y007179D01*
X010201Y007198D01*
X010195Y007219D01*
X010193Y007240D01*
X010193Y008240D02*
X010195Y008261D01*
X010201Y008282D01*
X010210Y008301D01*
X010222Y008318D01*
X010238Y008333D01*
X010256Y008345D01*
X010275Y008353D01*
X010296Y008358D01*
X010317Y008359D01*
X010338Y008356D01*
X010359Y008349D01*
X010378Y008339D01*
X010394Y008326D01*
X010408Y008310D01*
X010419Y008292D01*
X010427Y008272D01*
X010431Y008251D01*
X010431Y008229D01*
X010427Y008208D01*
X010419Y008188D01*
X010408Y008170D01*
X010394Y008154D01*
X010378Y008141D01*
X010359Y008131D01*
X010338Y008124D01*
X010317Y008121D01*
X010296Y008122D01*
X010275Y008127D01*
X010256Y008135D01*
X010238Y008147D01*
X010222Y008162D01*
X010210Y008179D01*
X010201Y008198D01*
X010195Y008219D01*
X010193Y008240D01*
X007193Y007740D02*
X007195Y007761D01*
X007201Y007782D01*
X007210Y007801D01*
X007222Y007818D01*
X007238Y007833D01*
X007256Y007845D01*
X007275Y007853D01*
X007296Y007858D01*
X007317Y007859D01*
X007338Y007856D01*
X007359Y007849D01*
X007378Y007839D01*
X007394Y007826D01*
X007408Y007810D01*
X007419Y007792D01*
X007427Y007772D01*
X007431Y007751D01*
X007431Y007729D01*
X007427Y007708D01*
X007419Y007688D01*
X007408Y007670D01*
X007394Y007654D01*
X007378Y007641D01*
X007359Y007631D01*
X007338Y007624D01*
X007317Y007621D01*
X007296Y007622D01*
X007275Y007627D01*
X007256Y007635D01*
X007238Y007647D01*
X007222Y007662D01*
X007210Y007679D01*
X007201Y007698D01*
X007195Y007719D01*
X007193Y007740D01*
X006693Y007740D02*
X006695Y007761D01*
X006701Y007782D01*
X006710Y007801D01*
X006722Y007818D01*
X006738Y007833D01*
X006756Y007845D01*
X006775Y007853D01*
X006796Y007858D01*
X006817Y007859D01*
X006838Y007856D01*
X006859Y007849D01*
X006878Y007839D01*
X006894Y007826D01*
X006908Y007810D01*
X006919Y007792D01*
X006927Y007772D01*
X006931Y007751D01*
X006931Y007729D01*
X006927Y007708D01*
X006919Y007688D01*
X006908Y007670D01*
X006894Y007654D01*
X006878Y007641D01*
X006859Y007631D01*
X006838Y007624D01*
X006817Y007621D01*
X006796Y007622D01*
X006775Y007627D01*
X006756Y007635D01*
X006738Y007647D01*
X006722Y007662D01*
X006710Y007679D01*
X006701Y007698D01*
X006695Y007719D01*
X006693Y007740D01*
X006693Y006740D02*
X006695Y006761D01*
X006701Y006782D01*
X006710Y006801D01*
X006722Y006818D01*
X006738Y006833D01*
X006756Y006845D01*
X006775Y006853D01*
X006796Y006858D01*
X006817Y006859D01*
X006838Y006856D01*
X006859Y006849D01*
X006878Y006839D01*
X006894Y006826D01*
X006908Y006810D01*
X006919Y006792D01*
X006927Y006772D01*
X006931Y006751D01*
X006931Y006729D01*
X006927Y006708D01*
X006919Y006688D01*
X006908Y006670D01*
X006894Y006654D01*
X006878Y006641D01*
X006859Y006631D01*
X006838Y006624D01*
X006817Y006621D01*
X006796Y006622D01*
X006775Y006627D01*
X006756Y006635D01*
X006738Y006647D01*
X006722Y006662D01*
X006710Y006679D01*
X006701Y006698D01*
X006695Y006719D01*
X006693Y006740D01*
X007193Y006740D02*
X007195Y006761D01*
X007201Y006782D01*
X007210Y006801D01*
X007222Y006818D01*
X007238Y006833D01*
X007256Y006845D01*
X007275Y006853D01*
X007296Y006858D01*
X007317Y006859D01*
X007338Y006856D01*
X007359Y006849D01*
X007378Y006839D01*
X007394Y006826D01*
X007408Y006810D01*
X007419Y006792D01*
X007427Y006772D01*
X007431Y006751D01*
X007431Y006729D01*
X007427Y006708D01*
X007419Y006688D01*
X007408Y006670D01*
X007394Y006654D01*
X007378Y006641D01*
X007359Y006631D01*
X007338Y006624D01*
X007317Y006621D01*
X007296Y006622D01*
X007275Y006627D01*
X007256Y006635D01*
X007238Y006647D01*
X007222Y006662D01*
X007210Y006679D01*
X007201Y006698D01*
X007195Y006719D01*
X007193Y006740D01*
X008193Y005740D02*
X008195Y005761D01*
X008201Y005782D01*
X008210Y005801D01*
X008222Y005818D01*
X008238Y005833D01*
X008256Y005845D01*
X008275Y005853D01*
X008296Y005858D01*
X008317Y005859D01*
X008338Y005856D01*
X008359Y005849D01*
X008378Y005839D01*
X008394Y005826D01*
X008408Y005810D01*
X008419Y005792D01*
X008427Y005772D01*
X008431Y005751D01*
X008431Y005729D01*
X008427Y005708D01*
X008419Y005688D01*
X008408Y005670D01*
X008394Y005654D01*
X008378Y005641D01*
X008359Y005631D01*
X008338Y005624D01*
X008317Y005621D01*
X008296Y005622D01*
X008275Y005627D01*
X008256Y005635D01*
X008238Y005647D01*
X008222Y005662D01*
X008210Y005679D01*
X008201Y005698D01*
X008195Y005719D01*
X008193Y005740D01*
X008693Y005740D02*
X008695Y005761D01*
X008701Y005782D01*
X008710Y005801D01*
X008722Y005818D01*
X008738Y005833D01*
X008756Y005845D01*
X008775Y005853D01*
X008796Y005858D01*
X008817Y005859D01*
X008838Y005856D01*
X008859Y005849D01*
X008878Y005839D01*
X008894Y005826D01*
X008908Y005810D01*
X008919Y005792D01*
X008927Y005772D01*
X008931Y005751D01*
X008931Y005729D01*
X008927Y005708D01*
X008919Y005688D01*
X008908Y005670D01*
X008894Y005654D01*
X008878Y005641D01*
X008859Y005631D01*
X008838Y005624D01*
X008817Y005621D01*
X008796Y005622D01*
X008775Y005627D01*
X008756Y005635D01*
X008738Y005647D01*
X008722Y005662D01*
X008710Y005679D01*
X008701Y005698D01*
X008695Y005719D01*
X008693Y005740D01*
X010193Y006240D02*
X010195Y006261D01*
X010201Y006282D01*
X010210Y006301D01*
X010222Y006318D01*
X010238Y006333D01*
X010256Y006345D01*
X010275Y006353D01*
X010296Y006358D01*
X010317Y006359D01*
X010338Y006356D01*
X010359Y006349D01*
X010378Y006339D01*
X010394Y006326D01*
X010408Y006310D01*
X010419Y006292D01*
X010427Y006272D01*
X010431Y006251D01*
X010431Y006229D01*
X010427Y006208D01*
X010419Y006188D01*
X010408Y006170D01*
X010394Y006154D01*
X010378Y006141D01*
X010359Y006131D01*
X010338Y006124D01*
X010317Y006121D01*
X010296Y006122D01*
X010275Y006127D01*
X010256Y006135D01*
X010238Y006147D01*
X010222Y006162D01*
X010210Y006179D01*
X010201Y006198D01*
X010195Y006219D01*
X010193Y006240D01*
X011693Y006240D02*
X011695Y006261D01*
X011701Y006282D01*
X011710Y006301D01*
X011722Y006318D01*
X011738Y006333D01*
X011756Y006345D01*
X011775Y006353D01*
X011796Y006358D01*
X011817Y006359D01*
X011838Y006356D01*
X011859Y006349D01*
X011878Y006339D01*
X011894Y006326D01*
X011908Y006310D01*
X011919Y006292D01*
X011927Y006272D01*
X011931Y006251D01*
X011931Y006229D01*
X011927Y006208D01*
X011919Y006188D01*
X011908Y006170D01*
X011894Y006154D01*
X011878Y006141D01*
X011859Y006131D01*
X011838Y006124D01*
X011817Y006121D01*
X011796Y006122D01*
X011775Y006127D01*
X011756Y006135D01*
X011738Y006147D01*
X011722Y006162D01*
X011710Y006179D01*
X011701Y006198D01*
X011695Y006219D01*
X011693Y006240D01*
X013193Y006240D02*
X013195Y006261D01*
X013201Y006282D01*
X013210Y006301D01*
X013222Y006318D01*
X013238Y006333D01*
X013256Y006345D01*
X013275Y006353D01*
X013296Y006358D01*
X013317Y006359D01*
X013338Y006356D01*
X013359Y006349D01*
X013378Y006339D01*
X013394Y006326D01*
X013408Y006310D01*
X013419Y006292D01*
X013427Y006272D01*
X013431Y006251D01*
X013431Y006229D01*
X013427Y006208D01*
X013419Y006188D01*
X013408Y006170D01*
X013394Y006154D01*
X013378Y006141D01*
X013359Y006131D01*
X013338Y006124D01*
X013317Y006121D01*
X013296Y006122D01*
X013275Y006127D01*
X013256Y006135D01*
X013238Y006147D01*
X013222Y006162D01*
X013210Y006179D01*
X013201Y006198D01*
X013195Y006219D01*
X013193Y006240D01*
X013193Y005240D02*
X013195Y005261D01*
X013201Y005282D01*
X013210Y005301D01*
X013222Y005318D01*
X013238Y005333D01*
X013256Y005345D01*
X013275Y005353D01*
X013296Y005358D01*
X013317Y005359D01*
X013338Y005356D01*
X013359Y005349D01*
X013378Y005339D01*
X013394Y005326D01*
X013408Y005310D01*
X013419Y005292D01*
X013427Y005272D01*
X013431Y005251D01*
X013431Y005229D01*
X013427Y005208D01*
X013419Y005188D01*
X013408Y005170D01*
X013394Y005154D01*
X013378Y005141D01*
X013359Y005131D01*
X013338Y005124D01*
X013317Y005121D01*
X013296Y005122D01*
X013275Y005127D01*
X013256Y005135D01*
X013238Y005147D01*
X013222Y005162D01*
X013210Y005179D01*
X013201Y005198D01*
X013195Y005219D01*
X013193Y005240D01*
X013193Y004240D02*
X013195Y004261D01*
X013201Y004282D01*
X013210Y004301D01*
X013222Y004318D01*
X013238Y004333D01*
X013256Y004345D01*
X013275Y004353D01*
X013296Y004358D01*
X013317Y004359D01*
X013338Y004356D01*
X013359Y004349D01*
X013378Y004339D01*
X013394Y004326D01*
X013408Y004310D01*
X013419Y004292D01*
X013427Y004272D01*
X013431Y004251D01*
X013431Y004229D01*
X013427Y004208D01*
X013419Y004188D01*
X013408Y004170D01*
X013394Y004154D01*
X013378Y004141D01*
X013359Y004131D01*
X013338Y004124D01*
X013317Y004121D01*
X013296Y004122D01*
X013275Y004127D01*
X013256Y004135D01*
X013238Y004147D01*
X013222Y004162D01*
X013210Y004179D01*
X013201Y004198D01*
X013195Y004219D01*
X013193Y004240D01*
X013193Y003240D02*
X013195Y003261D01*
X013201Y003282D01*
X013210Y003301D01*
X013222Y003318D01*
X013238Y003333D01*
X013256Y003345D01*
X013275Y003353D01*
X013296Y003358D01*
X013317Y003359D01*
X013338Y003356D01*
X013359Y003349D01*
X013378Y003339D01*
X013394Y003326D01*
X013408Y003310D01*
X013419Y003292D01*
X013427Y003272D01*
X013431Y003251D01*
X013431Y003229D01*
X013427Y003208D01*
X013419Y003188D01*
X013408Y003170D01*
X013394Y003154D01*
X013378Y003141D01*
X013359Y003131D01*
X013338Y003124D01*
X013317Y003121D01*
X013296Y003122D01*
X013275Y003127D01*
X013256Y003135D01*
X013238Y003147D01*
X013222Y003162D01*
X013210Y003179D01*
X013201Y003198D01*
X013195Y003219D01*
X013193Y003240D01*
X012693Y003240D02*
X012695Y003261D01*
X012701Y003282D01*
X012710Y003301D01*
X012722Y003318D01*
X012738Y003333D01*
X012756Y003345D01*
X012775Y003353D01*
X012796Y003358D01*
X012817Y003359D01*
X012838Y003356D01*
X012859Y003349D01*
X012878Y003339D01*
X012894Y003326D01*
X012908Y003310D01*
X012919Y003292D01*
X012927Y003272D01*
X012931Y003251D01*
X012931Y003229D01*
X012927Y003208D01*
X012919Y003188D01*
X012908Y003170D01*
X012894Y003154D01*
X012878Y003141D01*
X012859Y003131D01*
X012838Y003124D01*
X012817Y003121D01*
X012796Y003122D01*
X012775Y003127D01*
X012756Y003135D01*
X012738Y003147D01*
X012722Y003162D01*
X012710Y003179D01*
X012701Y003198D01*
X012695Y003219D01*
X012693Y003240D01*
X010693Y003240D02*
X010695Y003261D01*
X010701Y003282D01*
X010710Y003301D01*
X010722Y003318D01*
X010738Y003333D01*
X010756Y003345D01*
X010775Y003353D01*
X010796Y003358D01*
X010817Y003359D01*
X010838Y003356D01*
X010859Y003349D01*
X010878Y003339D01*
X010894Y003326D01*
X010908Y003310D01*
X010919Y003292D01*
X010927Y003272D01*
X010931Y003251D01*
X010931Y003229D01*
X010927Y003208D01*
X010919Y003188D01*
X010908Y003170D01*
X010894Y003154D01*
X010878Y003141D01*
X010859Y003131D01*
X010838Y003124D01*
X010817Y003121D01*
X010796Y003122D01*
X010775Y003127D01*
X010756Y003135D01*
X010738Y003147D01*
X010722Y003162D01*
X010710Y003179D01*
X010701Y003198D01*
X010695Y003219D01*
X010693Y003240D01*
X010193Y003240D02*
X010195Y003261D01*
X010201Y003282D01*
X010210Y003301D01*
X010222Y003318D01*
X010238Y003333D01*
X010256Y003345D01*
X010275Y003353D01*
X010296Y003358D01*
X010317Y003359D01*
X010338Y003356D01*
X010359Y003349D01*
X010378Y003339D01*
X010394Y003326D01*
X010408Y003310D01*
X010419Y003292D01*
X010427Y003272D01*
X010431Y003251D01*
X010431Y003229D01*
X010427Y003208D01*
X010419Y003188D01*
X010408Y003170D01*
X010394Y003154D01*
X010378Y003141D01*
X010359Y003131D01*
X010338Y003124D01*
X010317Y003121D01*
X010296Y003122D01*
X010275Y003127D01*
X010256Y003135D01*
X010238Y003147D01*
X010222Y003162D01*
X010210Y003179D01*
X010201Y003198D01*
X010195Y003219D01*
X010193Y003240D01*
X010193Y004240D02*
X010195Y004261D01*
X010201Y004282D01*
X010210Y004301D01*
X010222Y004318D01*
X010238Y004333D01*
X010256Y004345D01*
X010275Y004353D01*
X010296Y004358D01*
X010317Y004359D01*
X010338Y004356D01*
X010359Y004349D01*
X010378Y004339D01*
X010394Y004326D01*
X010408Y004310D01*
X010419Y004292D01*
X010427Y004272D01*
X010431Y004251D01*
X010431Y004229D01*
X010427Y004208D01*
X010419Y004188D01*
X010408Y004170D01*
X010394Y004154D01*
X010378Y004141D01*
X010359Y004131D01*
X010338Y004124D01*
X010317Y004121D01*
X010296Y004122D01*
X010275Y004127D01*
X010256Y004135D01*
X010238Y004147D01*
X010222Y004162D01*
X010210Y004179D01*
X010201Y004198D01*
X010195Y004219D01*
X010193Y004240D01*
X008693Y004740D02*
X008695Y004761D01*
X008701Y004782D01*
X008710Y004801D01*
X008722Y004818D01*
X008738Y004833D01*
X008756Y004845D01*
X008775Y004853D01*
X008796Y004858D01*
X008817Y004859D01*
X008838Y004856D01*
X008859Y004849D01*
X008878Y004839D01*
X008894Y004826D01*
X008908Y004810D01*
X008919Y004792D01*
X008927Y004772D01*
X008931Y004751D01*
X008931Y004729D01*
X008927Y004708D01*
X008919Y004688D01*
X008908Y004670D01*
X008894Y004654D01*
X008878Y004641D01*
X008859Y004631D01*
X008838Y004624D01*
X008817Y004621D01*
X008796Y004622D01*
X008775Y004627D01*
X008756Y004635D01*
X008738Y004647D01*
X008722Y004662D01*
X008710Y004679D01*
X008701Y004698D01*
X008695Y004719D01*
X008693Y004740D01*
X008193Y004740D02*
X008195Y004761D01*
X008201Y004782D01*
X008210Y004801D01*
X008222Y004818D01*
X008238Y004833D01*
X008256Y004845D01*
X008275Y004853D01*
X008296Y004858D01*
X008317Y004859D01*
X008338Y004856D01*
X008359Y004849D01*
X008378Y004839D01*
X008394Y004826D01*
X008408Y004810D01*
X008419Y004792D01*
X008427Y004772D01*
X008431Y004751D01*
X008431Y004729D01*
X008427Y004708D01*
X008419Y004688D01*
X008408Y004670D01*
X008394Y004654D01*
X008378Y004641D01*
X008359Y004631D01*
X008338Y004624D01*
X008317Y004621D01*
X008296Y004622D01*
X008275Y004627D01*
X008256Y004635D01*
X008238Y004647D01*
X008222Y004662D01*
X008210Y004679D01*
X008201Y004698D01*
X008195Y004719D01*
X008193Y004740D01*
X007193Y004490D02*
X007195Y004511D01*
X007201Y004532D01*
X007210Y004551D01*
X007222Y004568D01*
X007238Y004583D01*
X007256Y004595D01*
X007275Y004603D01*
X007296Y004608D01*
X007317Y004609D01*
X007338Y004606D01*
X007359Y004599D01*
X007378Y004589D01*
X007394Y004576D01*
X007408Y004560D01*
X007419Y004542D01*
X007427Y004522D01*
X007431Y004501D01*
X007431Y004479D01*
X007427Y004458D01*
X007419Y004438D01*
X007408Y004420D01*
X007394Y004404D01*
X007378Y004391D01*
X007359Y004381D01*
X007338Y004374D01*
X007317Y004371D01*
X007296Y004372D01*
X007275Y004377D01*
X007256Y004385D01*
X007238Y004397D01*
X007222Y004412D01*
X007210Y004429D01*
X007201Y004448D01*
X007195Y004469D01*
X007193Y004490D01*
X006693Y004490D02*
X006695Y004511D01*
X006701Y004532D01*
X006710Y004551D01*
X006722Y004568D01*
X006738Y004583D01*
X006756Y004595D01*
X006775Y004603D01*
X006796Y004608D01*
X006817Y004609D01*
X006838Y004606D01*
X006859Y004599D01*
X006878Y004589D01*
X006894Y004576D01*
X006908Y004560D01*
X006919Y004542D01*
X006927Y004522D01*
X006931Y004501D01*
X006931Y004479D01*
X006927Y004458D01*
X006919Y004438D01*
X006908Y004420D01*
X006894Y004404D01*
X006878Y004391D01*
X006859Y004381D01*
X006838Y004374D01*
X006817Y004371D01*
X006796Y004372D01*
X006775Y004377D01*
X006756Y004385D01*
X006738Y004397D01*
X006722Y004412D01*
X006710Y004429D01*
X006701Y004448D01*
X006695Y004469D01*
X006693Y004490D01*
X006693Y003490D02*
X006695Y003511D01*
X006701Y003532D01*
X006710Y003551D01*
X006722Y003568D01*
X006738Y003583D01*
X006756Y003595D01*
X006775Y003603D01*
X006796Y003608D01*
X006817Y003609D01*
X006838Y003606D01*
X006859Y003599D01*
X006878Y003589D01*
X006894Y003576D01*
X006908Y003560D01*
X006919Y003542D01*
X006927Y003522D01*
X006931Y003501D01*
X006931Y003479D01*
X006927Y003458D01*
X006919Y003438D01*
X006908Y003420D01*
X006894Y003404D01*
X006878Y003391D01*
X006859Y003381D01*
X006838Y003374D01*
X006817Y003371D01*
X006796Y003372D01*
X006775Y003377D01*
X006756Y003385D01*
X006738Y003397D01*
X006722Y003412D01*
X006710Y003429D01*
X006701Y003448D01*
X006695Y003469D01*
X006693Y003490D01*
X007193Y003490D02*
X007195Y003511D01*
X007201Y003532D01*
X007210Y003551D01*
X007222Y003568D01*
X007238Y003583D01*
X007256Y003595D01*
X007275Y003603D01*
X007296Y003608D01*
X007317Y003609D01*
X007338Y003606D01*
X007359Y003599D01*
X007378Y003589D01*
X007394Y003576D01*
X007408Y003560D01*
X007419Y003542D01*
X007427Y003522D01*
X007431Y003501D01*
X007431Y003479D01*
X007427Y003458D01*
X007419Y003438D01*
X007408Y003420D01*
X007394Y003404D01*
X007378Y003391D01*
X007359Y003381D01*
X007338Y003374D01*
X007317Y003371D01*
X007296Y003372D01*
X007275Y003377D01*
X007256Y003385D01*
X007238Y003397D01*
X007222Y003412D01*
X007210Y003429D01*
X007201Y003448D01*
X007195Y003469D01*
X007193Y003490D01*
X010193Y002240D02*
X010195Y002261D01*
X010201Y002282D01*
X010210Y002301D01*
X010222Y002318D01*
X010238Y002333D01*
X010256Y002345D01*
X010275Y002353D01*
X010296Y002358D01*
X010317Y002359D01*
X010338Y002356D01*
X010359Y002349D01*
X010378Y002339D01*
X010394Y002326D01*
X010408Y002310D01*
X010419Y002292D01*
X010427Y002272D01*
X010431Y002251D01*
X010431Y002229D01*
X010427Y002208D01*
X010419Y002188D01*
X010408Y002170D01*
X010394Y002154D01*
X010378Y002141D01*
X010359Y002131D01*
X010338Y002124D01*
X010317Y002121D01*
X010296Y002122D01*
X010275Y002127D01*
X010256Y002135D01*
X010238Y002147D01*
X010222Y002162D01*
X010210Y002179D01*
X010201Y002198D01*
X010195Y002219D01*
X010193Y002240D01*
X010693Y002240D02*
X010695Y002261D01*
X010701Y002282D01*
X010710Y002301D01*
X010722Y002318D01*
X010738Y002333D01*
X010756Y002345D01*
X010775Y002353D01*
X010796Y002358D01*
X010817Y002359D01*
X010838Y002356D01*
X010859Y002349D01*
X010878Y002339D01*
X010894Y002326D01*
X010908Y002310D01*
X010919Y002292D01*
X010927Y002272D01*
X010931Y002251D01*
X010931Y002229D01*
X010927Y002208D01*
X010919Y002188D01*
X010908Y002170D01*
X010894Y002154D01*
X010878Y002141D01*
X010859Y002131D01*
X010838Y002124D01*
X010817Y002121D01*
X010796Y002122D01*
X010775Y002127D01*
X010756Y002135D01*
X010738Y002147D01*
X010722Y002162D01*
X010710Y002179D01*
X010701Y002198D01*
X010695Y002219D01*
X010693Y002240D01*
X012693Y002240D02*
X012695Y002261D01*
X012701Y002282D01*
X012710Y002301D01*
X012722Y002318D01*
X012738Y002333D01*
X012756Y002345D01*
X012775Y002353D01*
X012796Y002358D01*
X012817Y002359D01*
X012838Y002356D01*
X012859Y002349D01*
X012878Y002339D01*
X012894Y002326D01*
X012908Y002310D01*
X012919Y002292D01*
X012927Y002272D01*
X012931Y002251D01*
X012931Y002229D01*
X012927Y002208D01*
X012919Y002188D01*
X012908Y002170D01*
X012894Y002154D01*
X012878Y002141D01*
X012859Y002131D01*
X012838Y002124D01*
X012817Y002121D01*
X012796Y002122D01*
X012775Y002127D01*
X012756Y002135D01*
X012738Y002147D01*
X012722Y002162D01*
X012710Y002179D01*
X012701Y002198D01*
X012695Y002219D01*
X012693Y002240D01*
X013193Y002240D02*
X013195Y002261D01*
X013201Y002282D01*
X013210Y002301D01*
X013222Y002318D01*
X013238Y002333D01*
X013256Y002345D01*
X013275Y002353D01*
X013296Y002358D01*
X013317Y002359D01*
X013338Y002356D01*
X013359Y002349D01*
X013378Y002339D01*
X013394Y002326D01*
X013408Y002310D01*
X013419Y002292D01*
X013427Y002272D01*
X013431Y002251D01*
X013431Y002229D01*
X013427Y002208D01*
X013419Y002188D01*
X013408Y002170D01*
X013394Y002154D01*
X013378Y002141D01*
X013359Y002131D01*
X013338Y002124D01*
X013317Y002121D01*
X013296Y002122D01*
X013275Y002127D01*
X013256Y002135D01*
X013238Y002147D01*
X013222Y002162D01*
X013210Y002179D01*
X013201Y002198D01*
X013195Y002219D01*
X013193Y002240D01*
X017193Y003240D02*
X017195Y003261D01*
X017201Y003282D01*
X017210Y003301D01*
X017222Y003318D01*
X017238Y003333D01*
X017256Y003345D01*
X017275Y003353D01*
X017296Y003358D01*
X017317Y003359D01*
X017338Y003356D01*
X017359Y003349D01*
X017378Y003339D01*
X017394Y003326D01*
X017408Y003310D01*
X017419Y003292D01*
X017427Y003272D01*
X017431Y003251D01*
X017431Y003229D01*
X017427Y003208D01*
X017419Y003188D01*
X017408Y003170D01*
X017394Y003154D01*
X017378Y003141D01*
X017359Y003131D01*
X017338Y003124D01*
X017317Y003121D01*
X017296Y003122D01*
X017275Y003127D01*
X017256Y003135D01*
X017238Y003147D01*
X017222Y003162D01*
X017210Y003179D01*
X017201Y003198D01*
X017195Y003219D01*
X017193Y003240D01*
X018193Y003240D02*
X018195Y003261D01*
X018201Y003282D01*
X018210Y003301D01*
X018222Y003318D01*
X018238Y003333D01*
X018256Y003345D01*
X018275Y003353D01*
X018296Y003358D01*
X018317Y003359D01*
X018338Y003356D01*
X018359Y003349D01*
X018378Y003339D01*
X018394Y003326D01*
X018408Y003310D01*
X018419Y003292D01*
X018427Y003272D01*
X018431Y003251D01*
X018431Y003229D01*
X018427Y003208D01*
X018419Y003188D01*
X018408Y003170D01*
X018394Y003154D01*
X018378Y003141D01*
X018359Y003131D01*
X018338Y003124D01*
X018317Y003121D01*
X018296Y003122D01*
X018275Y003127D01*
X018256Y003135D01*
X018238Y003147D01*
X018222Y003162D01*
X018210Y003179D01*
X018201Y003198D01*
X018195Y003219D01*
X018193Y003240D01*
X019193Y003240D02*
X019195Y003261D01*
X019201Y003282D01*
X019210Y003301D01*
X019222Y003318D01*
X019238Y003333D01*
X019256Y003345D01*
X019275Y003353D01*
X019296Y003358D01*
X019317Y003359D01*
X019338Y003356D01*
X019359Y003349D01*
X019378Y003339D01*
X019394Y003326D01*
X019408Y003310D01*
X019419Y003292D01*
X019427Y003272D01*
X019431Y003251D01*
X019431Y003229D01*
X019427Y003208D01*
X019419Y003188D01*
X019408Y003170D01*
X019394Y003154D01*
X019378Y003141D01*
X019359Y003131D01*
X019338Y003124D01*
X019317Y003121D01*
X019296Y003122D01*
X019275Y003127D01*
X019256Y003135D01*
X019238Y003147D01*
X019222Y003162D01*
X019210Y003179D01*
X019201Y003198D01*
X019195Y003219D01*
X019193Y003240D01*
X021193Y003240D02*
X021195Y003261D01*
X021201Y003282D01*
X021210Y003301D01*
X021222Y003318D01*
X021238Y003333D01*
X021256Y003345D01*
X021275Y003353D01*
X021296Y003358D01*
X021317Y003359D01*
X021338Y003356D01*
X021359Y003349D01*
X021378Y003339D01*
X021394Y003326D01*
X021408Y003310D01*
X021419Y003292D01*
X021427Y003272D01*
X021431Y003251D01*
X021431Y003229D01*
X021427Y003208D01*
X021419Y003188D01*
X021408Y003170D01*
X021394Y003154D01*
X021378Y003141D01*
X021359Y003131D01*
X021338Y003124D01*
X021317Y003121D01*
X021296Y003122D01*
X021275Y003127D01*
X021256Y003135D01*
X021238Y003147D01*
X021222Y003162D01*
X021210Y003179D01*
X021201Y003198D01*
X021195Y003219D01*
X021193Y003240D01*
X022193Y003240D02*
X022195Y003261D01*
X022201Y003282D01*
X022210Y003301D01*
X022222Y003318D01*
X022238Y003333D01*
X022256Y003345D01*
X022275Y003353D01*
X022296Y003358D01*
X022317Y003359D01*
X022338Y003356D01*
X022359Y003349D01*
X022378Y003339D01*
X022394Y003326D01*
X022408Y003310D01*
X022419Y003292D01*
X022427Y003272D01*
X022431Y003251D01*
X022431Y003229D01*
X022427Y003208D01*
X022419Y003188D01*
X022408Y003170D01*
X022394Y003154D01*
X022378Y003141D01*
X022359Y003131D01*
X022338Y003124D01*
X022317Y003121D01*
X022296Y003122D01*
X022275Y003127D01*
X022256Y003135D01*
X022238Y003147D01*
X022222Y003162D01*
X022210Y003179D01*
X022201Y003198D01*
X022195Y003219D01*
X022193Y003240D01*
X023193Y003240D02*
X023195Y003261D01*
X023201Y003282D01*
X023210Y003301D01*
X023222Y003318D01*
X023238Y003333D01*
X023256Y003345D01*
X023275Y003353D01*
X023296Y003358D01*
X023317Y003359D01*
X023338Y003356D01*
X023359Y003349D01*
X023378Y003339D01*
X023394Y003326D01*
X023408Y003310D01*
X023419Y003292D01*
X023427Y003272D01*
X023431Y003251D01*
X023431Y003229D01*
X023427Y003208D01*
X023419Y003188D01*
X023408Y003170D01*
X023394Y003154D01*
X023378Y003141D01*
X023359Y003131D01*
X023338Y003124D01*
X023317Y003121D01*
X023296Y003122D01*
X023275Y003127D01*
X023256Y003135D01*
X023238Y003147D01*
X023222Y003162D01*
X023210Y003179D01*
X023201Y003198D01*
X023195Y003219D01*
X023193Y003240D01*
X021193Y004240D02*
X021195Y004261D01*
X021201Y004282D01*
X021210Y004301D01*
X021222Y004318D01*
X021238Y004333D01*
X021256Y004345D01*
X021275Y004353D01*
X021296Y004358D01*
X021317Y004359D01*
X021338Y004356D01*
X021359Y004349D01*
X021378Y004339D01*
X021394Y004326D01*
X021408Y004310D01*
X021419Y004292D01*
X021427Y004272D01*
X021431Y004251D01*
X021431Y004229D01*
X021427Y004208D01*
X021419Y004188D01*
X021408Y004170D01*
X021394Y004154D01*
X021378Y004141D01*
X021359Y004131D01*
X021338Y004124D01*
X021317Y004121D01*
X021296Y004122D01*
X021275Y004127D01*
X021256Y004135D01*
X021238Y004147D01*
X021222Y004162D01*
X021210Y004179D01*
X021201Y004198D01*
X021195Y004219D01*
X021193Y004240D01*
X020193Y004240D02*
X020195Y004261D01*
X020201Y004282D01*
X020210Y004301D01*
X020222Y004318D01*
X020238Y004333D01*
X020256Y004345D01*
X020275Y004353D01*
X020296Y004358D01*
X020317Y004359D01*
X020338Y004356D01*
X020359Y004349D01*
X020378Y004339D01*
X020394Y004326D01*
X020408Y004310D01*
X020419Y004292D01*
X020427Y004272D01*
X020431Y004251D01*
X020431Y004229D01*
X020427Y004208D01*
X020419Y004188D01*
X020408Y004170D01*
X020394Y004154D01*
X020378Y004141D01*
X020359Y004131D01*
X020338Y004124D01*
X020317Y004121D01*
X020296Y004122D01*
X020275Y004127D01*
X020256Y004135D01*
X020238Y004147D01*
X020222Y004162D01*
X020210Y004179D01*
X020201Y004198D01*
X020195Y004219D01*
X020193Y004240D01*
X017193Y004240D02*
X017195Y004261D01*
X017201Y004282D01*
X017210Y004301D01*
X017222Y004318D01*
X017238Y004333D01*
X017256Y004345D01*
X017275Y004353D01*
X017296Y004358D01*
X017317Y004359D01*
X017338Y004356D01*
X017359Y004349D01*
X017378Y004339D01*
X017394Y004326D01*
X017408Y004310D01*
X017419Y004292D01*
X017427Y004272D01*
X017431Y004251D01*
X017431Y004229D01*
X017427Y004208D01*
X017419Y004188D01*
X017408Y004170D01*
X017394Y004154D01*
X017378Y004141D01*
X017359Y004131D01*
X017338Y004124D01*
X017317Y004121D01*
X017296Y004122D01*
X017275Y004127D01*
X017256Y004135D01*
X017238Y004147D01*
X017222Y004162D01*
X017210Y004179D01*
X017201Y004198D01*
X017195Y004219D01*
X017193Y004240D01*
X016193Y004240D02*
X016195Y004261D01*
X016201Y004282D01*
X016210Y004301D01*
X016222Y004318D01*
X016238Y004333D01*
X016256Y004345D01*
X016275Y004353D01*
X016296Y004358D01*
X016317Y004359D01*
X016338Y004356D01*
X016359Y004349D01*
X016378Y004339D01*
X016394Y004326D01*
X016408Y004310D01*
X016419Y004292D01*
X016427Y004272D01*
X016431Y004251D01*
X016431Y004229D01*
X016427Y004208D01*
X016419Y004188D01*
X016408Y004170D01*
X016394Y004154D01*
X016378Y004141D01*
X016359Y004131D01*
X016338Y004124D01*
X016317Y004121D01*
X016296Y004122D01*
X016275Y004127D01*
X016256Y004135D01*
X016238Y004147D01*
X016222Y004162D01*
X016210Y004179D01*
X016201Y004198D01*
X016195Y004219D01*
X016193Y004240D01*
X017193Y006240D02*
X017195Y006261D01*
X017201Y006282D01*
X017210Y006301D01*
X017222Y006318D01*
X017238Y006333D01*
X017256Y006345D01*
X017275Y006353D01*
X017296Y006358D01*
X017317Y006359D01*
X017338Y006356D01*
X017359Y006349D01*
X017378Y006339D01*
X017394Y006326D01*
X017408Y006310D01*
X017419Y006292D01*
X017427Y006272D01*
X017431Y006251D01*
X017431Y006229D01*
X017427Y006208D01*
X017419Y006188D01*
X017408Y006170D01*
X017394Y006154D01*
X017378Y006141D01*
X017359Y006131D01*
X017338Y006124D01*
X017317Y006121D01*
X017296Y006122D01*
X017275Y006127D01*
X017256Y006135D01*
X017238Y006147D01*
X017222Y006162D01*
X017210Y006179D01*
X017201Y006198D01*
X017195Y006219D01*
X017193Y006240D01*
X018193Y006240D02*
X018195Y006261D01*
X018201Y006282D01*
X018210Y006301D01*
X018222Y006318D01*
X018238Y006333D01*
X018256Y006345D01*
X018275Y006353D01*
X018296Y006358D01*
X018317Y006359D01*
X018338Y006356D01*
X018359Y006349D01*
X018378Y006339D01*
X018394Y006326D01*
X018408Y006310D01*
X018419Y006292D01*
X018427Y006272D01*
X018431Y006251D01*
X018431Y006229D01*
X018427Y006208D01*
X018419Y006188D01*
X018408Y006170D01*
X018394Y006154D01*
X018378Y006141D01*
X018359Y006131D01*
X018338Y006124D01*
X018317Y006121D01*
X018296Y006122D01*
X018275Y006127D01*
X018256Y006135D01*
X018238Y006147D01*
X018222Y006162D01*
X018210Y006179D01*
X018201Y006198D01*
X018195Y006219D01*
X018193Y006240D01*
X019193Y006240D02*
X019195Y006261D01*
X019201Y006282D01*
X019210Y006301D01*
X019222Y006318D01*
X019238Y006333D01*
X019256Y006345D01*
X019275Y006353D01*
X019296Y006358D01*
X019317Y006359D01*
X019338Y006356D01*
X019359Y006349D01*
X019378Y006339D01*
X019394Y006326D01*
X019408Y006310D01*
X019419Y006292D01*
X019427Y006272D01*
X019431Y006251D01*
X019431Y006229D01*
X019427Y006208D01*
X019419Y006188D01*
X019408Y006170D01*
X019394Y006154D01*
X019378Y006141D01*
X019359Y006131D01*
X019338Y006124D01*
X019317Y006121D01*
X019296Y006122D01*
X019275Y006127D01*
X019256Y006135D01*
X019238Y006147D01*
X019222Y006162D01*
X019210Y006179D01*
X019201Y006198D01*
X019195Y006219D01*
X019193Y006240D01*
X021193Y006240D02*
X021195Y006261D01*
X021201Y006282D01*
X021210Y006301D01*
X021222Y006318D01*
X021238Y006333D01*
X021256Y006345D01*
X021275Y006353D01*
X021296Y006358D01*
X021317Y006359D01*
X021338Y006356D01*
X021359Y006349D01*
X021378Y006339D01*
X021394Y006326D01*
X021408Y006310D01*
X021419Y006292D01*
X021427Y006272D01*
X021431Y006251D01*
X021431Y006229D01*
X021427Y006208D01*
X021419Y006188D01*
X021408Y006170D01*
X021394Y006154D01*
X021378Y006141D01*
X021359Y006131D01*
X021338Y006124D01*
X021317Y006121D01*
X021296Y006122D01*
X021275Y006127D01*
X021256Y006135D01*
X021238Y006147D01*
X021222Y006162D01*
X021210Y006179D01*
X021201Y006198D01*
X021195Y006219D01*
X021193Y006240D01*
X022193Y006240D02*
X022195Y006261D01*
X022201Y006282D01*
X022210Y006301D01*
X022222Y006318D01*
X022238Y006333D01*
X022256Y006345D01*
X022275Y006353D01*
X022296Y006358D01*
X022317Y006359D01*
X022338Y006356D01*
X022359Y006349D01*
X022378Y006339D01*
X022394Y006326D01*
X022408Y006310D01*
X022419Y006292D01*
X022427Y006272D01*
X022431Y006251D01*
X022431Y006229D01*
X022427Y006208D01*
X022419Y006188D01*
X022408Y006170D01*
X022394Y006154D01*
X022378Y006141D01*
X022359Y006131D01*
X022338Y006124D01*
X022317Y006121D01*
X022296Y006122D01*
X022275Y006127D01*
X022256Y006135D01*
X022238Y006147D01*
X022222Y006162D01*
X022210Y006179D01*
X022201Y006198D01*
X022195Y006219D01*
X022193Y006240D01*
X023193Y006240D02*
X023195Y006261D01*
X023201Y006282D01*
X023210Y006301D01*
X023222Y006318D01*
X023238Y006333D01*
X023256Y006345D01*
X023275Y006353D01*
X023296Y006358D01*
X023317Y006359D01*
X023338Y006356D01*
X023359Y006349D01*
X023378Y006339D01*
X023394Y006326D01*
X023408Y006310D01*
X023419Y006292D01*
X023427Y006272D01*
X023431Y006251D01*
X023431Y006229D01*
X023427Y006208D01*
X023419Y006188D01*
X023408Y006170D01*
X023394Y006154D01*
X023378Y006141D01*
X023359Y006131D01*
X023338Y006124D01*
X023317Y006121D01*
X023296Y006122D01*
X023275Y006127D01*
X023256Y006135D01*
X023238Y006147D01*
X023222Y006162D01*
X023210Y006179D01*
X023201Y006198D01*
X023195Y006219D01*
X023193Y006240D01*
X021193Y007240D02*
X021195Y007261D01*
X021201Y007282D01*
X021210Y007301D01*
X021222Y007318D01*
X021238Y007333D01*
X021256Y007345D01*
X021275Y007353D01*
X021296Y007358D01*
X021317Y007359D01*
X021338Y007356D01*
X021359Y007349D01*
X021378Y007339D01*
X021394Y007326D01*
X021408Y007310D01*
X021419Y007292D01*
X021427Y007272D01*
X021431Y007251D01*
X021431Y007229D01*
X021427Y007208D01*
X021419Y007188D01*
X021408Y007170D01*
X021394Y007154D01*
X021378Y007141D01*
X021359Y007131D01*
X021338Y007124D01*
X021317Y007121D01*
X021296Y007122D01*
X021275Y007127D01*
X021256Y007135D01*
X021238Y007147D01*
X021222Y007162D01*
X021210Y007179D01*
X021201Y007198D01*
X021195Y007219D01*
X021193Y007240D01*
X020193Y007240D02*
X020195Y007261D01*
X020201Y007282D01*
X020210Y007301D01*
X020222Y007318D01*
X020238Y007333D01*
X020256Y007345D01*
X020275Y007353D01*
X020296Y007358D01*
X020317Y007359D01*
X020338Y007356D01*
X020359Y007349D01*
X020378Y007339D01*
X020394Y007326D01*
X020408Y007310D01*
X020419Y007292D01*
X020427Y007272D01*
X020431Y007251D01*
X020431Y007229D01*
X020427Y007208D01*
X020419Y007188D01*
X020408Y007170D01*
X020394Y007154D01*
X020378Y007141D01*
X020359Y007131D01*
X020338Y007124D01*
X020317Y007121D01*
X020296Y007122D01*
X020275Y007127D01*
X020256Y007135D01*
X020238Y007147D01*
X020222Y007162D01*
X020210Y007179D01*
X020201Y007198D01*
X020195Y007219D01*
X020193Y007240D01*
X020193Y008240D02*
X020195Y008261D01*
X020201Y008282D01*
X020210Y008301D01*
X020222Y008318D01*
X020238Y008333D01*
X020256Y008345D01*
X020275Y008353D01*
X020296Y008358D01*
X020317Y008359D01*
X020338Y008356D01*
X020359Y008349D01*
X020378Y008339D01*
X020394Y008326D01*
X020408Y008310D01*
X020419Y008292D01*
X020427Y008272D01*
X020431Y008251D01*
X020431Y008229D01*
X020427Y008208D01*
X020419Y008188D01*
X020408Y008170D01*
X020394Y008154D01*
X020378Y008141D01*
X020359Y008131D01*
X020338Y008124D01*
X020317Y008121D01*
X020296Y008122D01*
X020275Y008127D01*
X020256Y008135D01*
X020238Y008147D01*
X020222Y008162D01*
X020210Y008179D01*
X020201Y008198D01*
X020195Y008219D01*
X020193Y008240D01*
X021193Y008240D02*
X021195Y008261D01*
X021201Y008282D01*
X021210Y008301D01*
X021222Y008318D01*
X021238Y008333D01*
X021256Y008345D01*
X021275Y008353D01*
X021296Y008358D01*
X021317Y008359D01*
X021338Y008356D01*
X021359Y008349D01*
X021378Y008339D01*
X021394Y008326D01*
X021408Y008310D01*
X021419Y008292D01*
X021427Y008272D01*
X021431Y008251D01*
X021431Y008229D01*
X021427Y008208D01*
X021419Y008188D01*
X021408Y008170D01*
X021394Y008154D01*
X021378Y008141D01*
X021359Y008131D01*
X021338Y008124D01*
X021317Y008121D01*
X021296Y008122D01*
X021275Y008127D01*
X021256Y008135D01*
X021238Y008147D01*
X021222Y008162D01*
X021210Y008179D01*
X021201Y008198D01*
X021195Y008219D01*
X021193Y008240D01*
X021193Y009240D02*
X021195Y009261D01*
X021201Y009282D01*
X021210Y009301D01*
X021222Y009318D01*
X021238Y009333D01*
X021256Y009345D01*
X021275Y009353D01*
X021296Y009358D01*
X021317Y009359D01*
X021338Y009356D01*
X021359Y009349D01*
X021378Y009339D01*
X021394Y009326D01*
X021408Y009310D01*
X021419Y009292D01*
X021427Y009272D01*
X021431Y009251D01*
X021431Y009229D01*
X021427Y009208D01*
X021419Y009188D01*
X021408Y009170D01*
X021394Y009154D01*
X021378Y009141D01*
X021359Y009131D01*
X021338Y009124D01*
X021317Y009121D01*
X021296Y009122D01*
X021275Y009127D01*
X021256Y009135D01*
X021238Y009147D01*
X021222Y009162D01*
X021210Y009179D01*
X021201Y009198D01*
X021195Y009219D01*
X021193Y009240D01*
X022193Y009240D02*
X022195Y009261D01*
X022201Y009282D01*
X022210Y009301D01*
X022222Y009318D01*
X022238Y009333D01*
X022256Y009345D01*
X022275Y009353D01*
X022296Y009358D01*
X022317Y009359D01*
X022338Y009356D01*
X022359Y009349D01*
X022378Y009339D01*
X022394Y009326D01*
X022408Y009310D01*
X022419Y009292D01*
X022427Y009272D01*
X022431Y009251D01*
X022431Y009229D01*
X022427Y009208D01*
X022419Y009188D01*
X022408Y009170D01*
X022394Y009154D01*
X022378Y009141D01*
X022359Y009131D01*
X022338Y009124D01*
X022317Y009121D01*
X022296Y009122D01*
X022275Y009127D01*
X022256Y009135D01*
X022238Y009147D01*
X022222Y009162D01*
X022210Y009179D01*
X022201Y009198D01*
X022195Y009219D01*
X022193Y009240D01*
X023193Y009240D02*
X023195Y009261D01*
X023201Y009282D01*
X023210Y009301D01*
X023222Y009318D01*
X023238Y009333D01*
X023256Y009345D01*
X023275Y009353D01*
X023296Y009358D01*
X023317Y009359D01*
X023338Y009356D01*
X023359Y009349D01*
X023378Y009339D01*
X023394Y009326D01*
X023408Y009310D01*
X023419Y009292D01*
X023427Y009272D01*
X023431Y009251D01*
X023431Y009229D01*
X023427Y009208D01*
X023419Y009188D01*
X023408Y009170D01*
X023394Y009154D01*
X023378Y009141D01*
X023359Y009131D01*
X023338Y009124D01*
X023317Y009121D01*
X023296Y009122D01*
X023275Y009127D01*
X023256Y009135D01*
X023238Y009147D01*
X023222Y009162D01*
X023210Y009179D01*
X023201Y009198D01*
X023195Y009219D01*
X023193Y009240D01*
X019193Y009240D02*
X019195Y009261D01*
X019201Y009282D01*
X019210Y009301D01*
X019222Y009318D01*
X019238Y009333D01*
X019256Y009345D01*
X019275Y009353D01*
X019296Y009358D01*
X019317Y009359D01*
X019338Y009356D01*
X019359Y009349D01*
X019378Y009339D01*
X019394Y009326D01*
X019408Y009310D01*
X019419Y009292D01*
X019427Y009272D01*
X019431Y009251D01*
X019431Y009229D01*
X019427Y009208D01*
X019419Y009188D01*
X019408Y009170D01*
X019394Y009154D01*
X019378Y009141D01*
X019359Y009131D01*
X019338Y009124D01*
X019317Y009121D01*
X019296Y009122D01*
X019275Y009127D01*
X019256Y009135D01*
X019238Y009147D01*
X019222Y009162D01*
X019210Y009179D01*
X019201Y009198D01*
X019195Y009219D01*
X019193Y009240D01*
X018193Y009240D02*
X018195Y009261D01*
X018201Y009282D01*
X018210Y009301D01*
X018222Y009318D01*
X018238Y009333D01*
X018256Y009345D01*
X018275Y009353D01*
X018296Y009358D01*
X018317Y009359D01*
X018338Y009356D01*
X018359Y009349D01*
X018378Y009339D01*
X018394Y009326D01*
X018408Y009310D01*
X018419Y009292D01*
X018427Y009272D01*
X018431Y009251D01*
X018431Y009229D01*
X018427Y009208D01*
X018419Y009188D01*
X018408Y009170D01*
X018394Y009154D01*
X018378Y009141D01*
X018359Y009131D01*
X018338Y009124D01*
X018317Y009121D01*
X018296Y009122D01*
X018275Y009127D01*
X018256Y009135D01*
X018238Y009147D01*
X018222Y009162D01*
X018210Y009179D01*
X018201Y009198D01*
X018195Y009219D01*
X018193Y009240D01*
X017193Y009240D02*
X017195Y009261D01*
X017201Y009282D01*
X017210Y009301D01*
X017222Y009318D01*
X017238Y009333D01*
X017256Y009345D01*
X017275Y009353D01*
X017296Y009358D01*
X017317Y009359D01*
X017338Y009356D01*
X017359Y009349D01*
X017378Y009339D01*
X017394Y009326D01*
X017408Y009310D01*
X017419Y009292D01*
X017427Y009272D01*
X017431Y009251D01*
X017431Y009229D01*
X017427Y009208D01*
X017419Y009188D01*
X017408Y009170D01*
X017394Y009154D01*
X017378Y009141D01*
X017359Y009131D01*
X017338Y009124D01*
X017317Y009121D01*
X017296Y009122D01*
X017275Y009127D01*
X017256Y009135D01*
X017238Y009147D01*
X017222Y009162D01*
X017210Y009179D01*
X017201Y009198D01*
X017195Y009219D01*
X017193Y009240D01*
X017193Y010240D02*
X017195Y010261D01*
X017201Y010282D01*
X017210Y010301D01*
X017222Y010318D01*
X017238Y010333D01*
X017256Y010345D01*
X017275Y010353D01*
X017296Y010358D01*
X017317Y010359D01*
X017338Y010356D01*
X017359Y010349D01*
X017378Y010339D01*
X017394Y010326D01*
X017408Y010310D01*
X017419Y010292D01*
X017427Y010272D01*
X017431Y010251D01*
X017431Y010229D01*
X017427Y010208D01*
X017419Y010188D01*
X017408Y010170D01*
X017394Y010154D01*
X017378Y010141D01*
X017359Y010131D01*
X017338Y010124D01*
X017317Y010121D01*
X017296Y010122D01*
X017275Y010127D01*
X017256Y010135D01*
X017238Y010147D01*
X017222Y010162D01*
X017210Y010179D01*
X017201Y010198D01*
X017195Y010219D01*
X017193Y010240D01*
X016193Y010240D02*
X016195Y010261D01*
X016201Y010282D01*
X016210Y010301D01*
X016222Y010318D01*
X016238Y010333D01*
X016256Y010345D01*
X016275Y010353D01*
X016296Y010358D01*
X016317Y010359D01*
X016338Y010356D01*
X016359Y010349D01*
X016378Y010339D01*
X016394Y010326D01*
X016408Y010310D01*
X016419Y010292D01*
X016427Y010272D01*
X016431Y010251D01*
X016431Y010229D01*
X016427Y010208D01*
X016419Y010188D01*
X016408Y010170D01*
X016394Y010154D01*
X016378Y010141D01*
X016359Y010131D01*
X016338Y010124D01*
X016317Y010121D01*
X016296Y010122D01*
X016275Y010127D01*
X016256Y010135D01*
X016238Y010147D01*
X016222Y010162D01*
X016210Y010179D01*
X016201Y010198D01*
X016195Y010219D01*
X016193Y010240D01*
X020193Y012240D02*
X020195Y012261D01*
X020201Y012282D01*
X020210Y012301D01*
X020222Y012318D01*
X020238Y012333D01*
X020256Y012345D01*
X020275Y012353D01*
X020296Y012358D01*
X020317Y012359D01*
X020338Y012356D01*
X020359Y012349D01*
X020378Y012339D01*
X020394Y012326D01*
X020408Y012310D01*
X020419Y012292D01*
X020427Y012272D01*
X020431Y012251D01*
X020431Y012229D01*
X020427Y012208D01*
X020419Y012188D01*
X020408Y012170D01*
X020394Y012154D01*
X020378Y012141D01*
X020359Y012131D01*
X020338Y012124D01*
X020317Y012121D01*
X020296Y012122D01*
X020275Y012127D01*
X020256Y012135D01*
X020238Y012147D01*
X020222Y012162D01*
X020210Y012179D01*
X020201Y012198D01*
X020195Y012219D01*
X020193Y012240D01*
X021193Y012240D02*
X021195Y012261D01*
X021201Y012282D01*
X021210Y012301D01*
X021222Y012318D01*
X021238Y012333D01*
X021256Y012345D01*
X021275Y012353D01*
X021296Y012358D01*
X021317Y012359D01*
X021338Y012356D01*
X021359Y012349D01*
X021378Y012339D01*
X021394Y012326D01*
X021408Y012310D01*
X021419Y012292D01*
X021427Y012272D01*
X021431Y012251D01*
X021431Y012229D01*
X021427Y012208D01*
X021419Y012188D01*
X021408Y012170D01*
X021394Y012154D01*
X021378Y012141D01*
X021359Y012131D01*
X021338Y012124D01*
X021317Y012121D01*
X021296Y012122D01*
X021275Y012127D01*
X021256Y012135D01*
X021238Y012147D01*
X021222Y012162D01*
X021210Y012179D01*
X021201Y012198D01*
X021195Y012219D01*
X021193Y012240D01*
X010193Y012240D02*
X010195Y012261D01*
X010201Y012282D01*
X010210Y012301D01*
X010222Y012318D01*
X010238Y012333D01*
X010256Y012345D01*
X010275Y012353D01*
X010296Y012358D01*
X010317Y012359D01*
X010338Y012356D01*
X010359Y012349D01*
X010378Y012339D01*
X010394Y012326D01*
X010408Y012310D01*
X010419Y012292D01*
X010427Y012272D01*
X010431Y012251D01*
X010431Y012229D01*
X010427Y012208D01*
X010419Y012188D01*
X010408Y012170D01*
X010394Y012154D01*
X010378Y012141D01*
X010359Y012131D01*
X010338Y012124D01*
X010317Y012121D01*
X010296Y012122D01*
X010275Y012127D01*
X010256Y012135D01*
X010238Y012147D01*
X010222Y012162D01*
X010210Y012179D01*
X010201Y012198D01*
X010195Y012219D01*
X010193Y012240D01*
X008193Y012240D02*
X008195Y012261D01*
X008201Y012282D01*
X008210Y012301D01*
X008222Y012318D01*
X008238Y012333D01*
X008256Y012345D01*
X008275Y012353D01*
X008296Y012358D01*
X008317Y012359D01*
X008338Y012356D01*
X008359Y012349D01*
X008378Y012339D01*
X008394Y012326D01*
X008408Y012310D01*
X008419Y012292D01*
X008427Y012272D01*
X008431Y012251D01*
X008431Y012229D01*
X008427Y012208D01*
X008419Y012188D01*
X008408Y012170D01*
X008394Y012154D01*
X008378Y012141D01*
X008359Y012131D01*
X008338Y012124D01*
X008317Y012121D01*
X008296Y012122D01*
X008275Y012127D01*
X008256Y012135D01*
X008238Y012147D01*
X008222Y012162D01*
X008210Y012179D01*
X008201Y012198D01*
X008195Y012219D01*
X008193Y012240D01*
X007193Y012240D02*
X007195Y012261D01*
X007201Y012282D01*
X007210Y012301D01*
X007222Y012318D01*
X007238Y012333D01*
X007256Y012345D01*
X007275Y012353D01*
X007296Y012358D01*
X007317Y012359D01*
X007338Y012356D01*
X007359Y012349D01*
X007378Y012339D01*
X007394Y012326D01*
X007408Y012310D01*
X007419Y012292D01*
X007427Y012272D01*
X007431Y012251D01*
X007431Y012229D01*
X007427Y012208D01*
X007419Y012188D01*
X007408Y012170D01*
X007394Y012154D01*
X007378Y012141D01*
X007359Y012131D01*
X007338Y012124D01*
X007317Y012121D01*
X007296Y012122D01*
X007275Y012127D01*
X007256Y012135D01*
X007238Y012147D01*
X007222Y012162D01*
X007210Y012179D01*
X007201Y012198D01*
X007195Y012219D01*
X007193Y012240D01*
X005193Y012240D02*
X005195Y012261D01*
X005201Y012282D01*
X005210Y012301D01*
X005222Y012318D01*
X005238Y012333D01*
X005256Y012345D01*
X005275Y012353D01*
X005296Y012358D01*
X005317Y012359D01*
X005338Y012356D01*
X005359Y012349D01*
X005378Y012339D01*
X005394Y012326D01*
X005408Y012310D01*
X005419Y012292D01*
X005427Y012272D01*
X005431Y012251D01*
X005431Y012229D01*
X005427Y012208D01*
X005419Y012188D01*
X005408Y012170D01*
X005394Y012154D01*
X005378Y012141D01*
X005359Y012131D01*
X005338Y012124D01*
X005317Y012121D01*
X005296Y012122D01*
X005275Y012127D01*
X005256Y012135D01*
X005238Y012147D01*
X005222Y012162D01*
X005210Y012179D01*
X005201Y012198D01*
X005195Y012219D01*
X005193Y012240D01*
X002193Y012240D02*
X002195Y012261D01*
X002201Y012282D01*
X002210Y012301D01*
X002222Y012318D01*
X002238Y012333D01*
X002256Y012345D01*
X002275Y012353D01*
X002296Y012358D01*
X002317Y012359D01*
X002338Y012356D01*
X002359Y012349D01*
X002378Y012339D01*
X002394Y012326D01*
X002408Y012310D01*
X002419Y012292D01*
X002427Y012272D01*
X002431Y012251D01*
X002431Y012229D01*
X002427Y012208D01*
X002419Y012188D01*
X002408Y012170D01*
X002394Y012154D01*
X002378Y012141D01*
X002359Y012131D01*
X002338Y012124D01*
X002317Y012121D01*
X002296Y012122D01*
X002275Y012127D01*
X002256Y012135D01*
X002238Y012147D01*
X002222Y012162D01*
X002210Y012179D01*
X002201Y012198D01*
X002195Y012219D01*
X002193Y012240D01*
X003193Y013740D02*
X003195Y013761D01*
X003201Y013782D01*
X003210Y013801D01*
X003222Y013818D01*
X003238Y013833D01*
X003256Y013845D01*
X003275Y013853D01*
X003296Y013858D01*
X003317Y013859D01*
X003338Y013856D01*
X003359Y013849D01*
X003378Y013839D01*
X003394Y013826D01*
X003408Y013810D01*
X003419Y013792D01*
X003427Y013772D01*
X003431Y013751D01*
X003431Y013729D01*
X003427Y013708D01*
X003419Y013688D01*
X003408Y013670D01*
X003394Y013654D01*
X003378Y013641D01*
X003359Y013631D01*
X003338Y013624D01*
X003317Y013621D01*
X003296Y013622D01*
X003275Y013627D01*
X003256Y013635D01*
X003238Y013647D01*
X003222Y013662D01*
X003210Y013679D01*
X003201Y013698D01*
X003195Y013719D01*
X003193Y013740D01*
X004193Y013740D02*
X004195Y013761D01*
X004201Y013782D01*
X004210Y013801D01*
X004222Y013818D01*
X004238Y013833D01*
X004256Y013845D01*
X004275Y013853D01*
X004296Y013858D01*
X004317Y013859D01*
X004338Y013856D01*
X004359Y013849D01*
X004378Y013839D01*
X004394Y013826D01*
X004408Y013810D01*
X004419Y013792D01*
X004427Y013772D01*
X004431Y013751D01*
X004431Y013729D01*
X004427Y013708D01*
X004419Y013688D01*
X004408Y013670D01*
X004394Y013654D01*
X004378Y013641D01*
X004359Y013631D01*
X004338Y013624D01*
X004317Y013621D01*
X004296Y013622D01*
X004275Y013627D01*
X004256Y013635D01*
X004238Y013647D01*
X004222Y013662D01*
X004210Y013679D01*
X004201Y013698D01*
X004195Y013719D01*
X004193Y013740D01*
X007193Y013740D02*
X007195Y013761D01*
X007201Y013782D01*
X007210Y013801D01*
X007222Y013818D01*
X007238Y013833D01*
X007256Y013845D01*
X007275Y013853D01*
X007296Y013858D01*
X007317Y013859D01*
X007338Y013856D01*
X007359Y013849D01*
X007378Y013839D01*
X007394Y013826D01*
X007408Y013810D01*
X007419Y013792D01*
X007427Y013772D01*
X007431Y013751D01*
X007431Y013729D01*
X007427Y013708D01*
X007419Y013688D01*
X007408Y013670D01*
X007394Y013654D01*
X007378Y013641D01*
X007359Y013631D01*
X007338Y013624D01*
X007317Y013621D01*
X007296Y013622D01*
X007275Y013627D01*
X007256Y013635D01*
X007238Y013647D01*
X007222Y013662D01*
X007210Y013679D01*
X007201Y013698D01*
X007195Y013719D01*
X007193Y013740D01*
X008193Y013740D02*
X008195Y013761D01*
X008201Y013782D01*
X008210Y013801D01*
X008222Y013818D01*
X008238Y013833D01*
X008256Y013845D01*
X008275Y013853D01*
X008296Y013858D01*
X008317Y013859D01*
X008338Y013856D01*
X008359Y013849D01*
X008378Y013839D01*
X008394Y013826D01*
X008408Y013810D01*
X008419Y013792D01*
X008427Y013772D01*
X008431Y013751D01*
X008431Y013729D01*
X008427Y013708D01*
X008419Y013688D01*
X008408Y013670D01*
X008394Y013654D01*
X008378Y013641D01*
X008359Y013631D01*
X008338Y013624D01*
X008317Y013621D01*
X008296Y013622D01*
X008275Y013627D01*
X008256Y013635D01*
X008238Y013647D01*
X008222Y013662D01*
X008210Y013679D01*
X008201Y013698D01*
X008195Y013719D01*
X008193Y013740D01*
X010193Y011240D02*
X010195Y011261D01*
X010201Y011282D01*
X010210Y011301D01*
X010222Y011318D01*
X010238Y011333D01*
X010256Y011345D01*
X010275Y011353D01*
X010296Y011358D01*
X010317Y011359D01*
X010338Y011356D01*
X010359Y011349D01*
X010378Y011339D01*
X010394Y011326D01*
X010408Y011310D01*
X010419Y011292D01*
X010427Y011272D01*
X010431Y011251D01*
X010431Y011229D01*
X010427Y011208D01*
X010419Y011188D01*
X010408Y011170D01*
X010394Y011154D01*
X010378Y011141D01*
X010359Y011131D01*
X010338Y011124D01*
X010317Y011121D01*
X010296Y011122D01*
X010275Y011127D01*
X010256Y011135D01*
X010238Y011147D01*
X010222Y011162D01*
X010210Y011179D01*
X010201Y011198D01*
X010195Y011219D01*
X010193Y011240D01*
X016193Y007240D02*
X016195Y007261D01*
X016201Y007282D01*
X016210Y007301D01*
X016222Y007318D01*
X016238Y007333D01*
X016256Y007345D01*
X016275Y007353D01*
X016296Y007358D01*
X016317Y007359D01*
X016338Y007356D01*
X016359Y007349D01*
X016378Y007339D01*
X016394Y007326D01*
X016408Y007310D01*
X016419Y007292D01*
X016427Y007272D01*
X016431Y007251D01*
X016431Y007229D01*
X016427Y007208D01*
X016419Y007188D01*
X016408Y007170D01*
X016394Y007154D01*
X016378Y007141D01*
X016359Y007131D01*
X016338Y007124D01*
X016317Y007121D01*
X016296Y007122D01*
X016275Y007127D01*
X016256Y007135D01*
X016238Y007147D01*
X016222Y007162D01*
X016210Y007179D01*
X016201Y007198D01*
X016195Y007219D01*
X016193Y007240D01*
X017193Y007240D02*
X017195Y007261D01*
X017201Y007282D01*
X017210Y007301D01*
X017222Y007318D01*
X017238Y007333D01*
X017256Y007345D01*
X017275Y007353D01*
X017296Y007358D01*
X017317Y007359D01*
X017338Y007356D01*
X017359Y007349D01*
X017378Y007339D01*
X017394Y007326D01*
X017408Y007310D01*
X017419Y007292D01*
X017427Y007272D01*
X017431Y007251D01*
X017431Y007229D01*
X017427Y007208D01*
X017419Y007188D01*
X017408Y007170D01*
X017394Y007154D01*
X017378Y007141D01*
X017359Y007131D01*
X017338Y007124D01*
X017317Y007121D01*
X017296Y007122D01*
X017275Y007127D01*
X017256Y007135D01*
X017238Y007147D01*
X017222Y007162D01*
X017210Y007179D01*
X017201Y007198D01*
X017195Y007219D01*
X017193Y007240D01*
X010193Y005240D02*
X010195Y005261D01*
X010201Y005282D01*
X010210Y005301D01*
X010222Y005318D01*
X010238Y005333D01*
X010256Y005345D01*
X010275Y005353D01*
X010296Y005358D01*
X010317Y005359D01*
X010338Y005356D01*
X010359Y005349D01*
X010378Y005339D01*
X010394Y005326D01*
X010408Y005310D01*
X010419Y005292D01*
X010427Y005272D01*
X010431Y005251D01*
X010431Y005229D01*
X010427Y005208D01*
X010419Y005188D01*
X010408Y005170D01*
X010394Y005154D01*
X010378Y005141D01*
X010359Y005131D01*
X010338Y005124D01*
X010317Y005121D01*
X010296Y005122D01*
X010275Y005127D01*
X010256Y005135D01*
X010238Y005147D01*
X010222Y005162D01*
X010210Y005179D01*
X010201Y005198D01*
X010195Y005219D01*
X010193Y005240D01*
D13*
X002131Y003848D02*
X002133Y003881D01*
X002139Y003913D01*
X002148Y003944D01*
X002161Y003974D01*
X002178Y004002D01*
X002198Y004028D01*
X002221Y004052D01*
X002246Y004072D01*
X002274Y004090D01*
X002303Y004104D01*
X002334Y004114D01*
X002366Y004121D01*
X002399Y004124D01*
X002432Y004123D01*
X002464Y004118D01*
X002495Y004109D01*
X002526Y004097D01*
X002554Y004081D01*
X002581Y004062D01*
X002605Y004040D01*
X002626Y004015D01*
X002645Y003988D01*
X002660Y003959D01*
X002671Y003929D01*
X002679Y003897D01*
X002683Y003864D01*
X002683Y003832D01*
X002679Y003799D01*
X002671Y003767D01*
X002660Y003737D01*
X002645Y003708D01*
X002626Y003681D01*
X002605Y003656D01*
X002581Y003634D01*
X002554Y003615D01*
X002526Y003599D01*
X002495Y003587D01*
X002464Y003578D01*
X002432Y003573D01*
X002399Y003572D01*
X002366Y003575D01*
X002334Y003582D01*
X002303Y003592D01*
X002274Y003606D01*
X002246Y003624D01*
X002221Y003644D01*
X002198Y003668D01*
X002178Y003694D01*
X002161Y003722D01*
X002148Y003752D01*
X002139Y003783D01*
X002133Y003815D01*
X002131Y003848D01*
X002131Y009238D02*
X002133Y009271D01*
X002139Y009303D01*
X002148Y009334D01*
X002161Y009364D01*
X002178Y009392D01*
X002198Y009418D01*
X002221Y009442D01*
X002246Y009462D01*
X002274Y009480D01*
X002303Y009494D01*
X002334Y009504D01*
X002366Y009511D01*
X002399Y009514D01*
X002432Y009513D01*
X002464Y009508D01*
X002495Y009499D01*
X002526Y009487D01*
X002554Y009471D01*
X002581Y009452D01*
X002605Y009430D01*
X002626Y009405D01*
X002645Y009378D01*
X002660Y009349D01*
X002671Y009319D01*
X002679Y009287D01*
X002683Y009254D01*
X002683Y009222D01*
X002679Y009189D01*
X002671Y009157D01*
X002660Y009127D01*
X002645Y009098D01*
X002626Y009071D01*
X002605Y009046D01*
X002581Y009024D01*
X002554Y009005D01*
X002526Y008989D01*
X002495Y008977D01*
X002464Y008968D01*
X002432Y008963D01*
X002399Y008962D01*
X002366Y008965D01*
X002334Y008972D01*
X002303Y008982D01*
X002274Y008996D01*
X002246Y009014D01*
X002221Y009034D01*
X002198Y009058D01*
X002178Y009084D01*
X002161Y009112D01*
X002148Y009142D01*
X002139Y009173D01*
X002133Y009205D01*
X002131Y009238D01*
D14*
X004184Y009553D02*
X004186Y009575D01*
X004192Y009597D01*
X004201Y009617D01*
X004214Y009635D01*
X004230Y009651D01*
X004248Y009664D01*
X004268Y009673D01*
X004290Y009679D01*
X004312Y009681D01*
X004334Y009679D01*
X004356Y009673D01*
X004376Y009664D01*
X004394Y009651D01*
X004410Y009635D01*
X004423Y009617D01*
X004432Y009597D01*
X004438Y009575D01*
X004440Y009553D01*
X004438Y009531D01*
X004432Y009509D01*
X004423Y009489D01*
X004410Y009471D01*
X004394Y009455D01*
X004376Y009442D01*
X004356Y009433D01*
X004334Y009427D01*
X004312Y009425D01*
X004290Y009427D01*
X004268Y009433D01*
X004248Y009442D01*
X004230Y009455D01*
X004214Y009471D01*
X004201Y009489D01*
X004192Y009509D01*
X004186Y009531D01*
X004184Y009553D01*
X004184Y003553D02*
X004186Y003575D01*
X004192Y003597D01*
X004201Y003617D01*
X004214Y003635D01*
X004230Y003651D01*
X004248Y003664D01*
X004268Y003673D01*
X004290Y003679D01*
X004312Y003681D01*
X004334Y003679D01*
X004356Y003673D01*
X004376Y003664D01*
X004394Y003651D01*
X004410Y003635D01*
X004423Y003617D01*
X004432Y003597D01*
X004438Y003575D01*
X004440Y003553D01*
X004438Y003531D01*
X004432Y003509D01*
X004423Y003489D01*
X004410Y003471D01*
X004394Y003455D01*
X004376Y003442D01*
X004356Y003433D01*
X004334Y003427D01*
X004312Y003425D01*
X004290Y003427D01*
X004268Y003433D01*
X004248Y003442D01*
X004230Y003455D01*
X004214Y003471D01*
X004201Y003489D01*
X004192Y003509D01*
X004186Y003531D01*
X004184Y003553D01*
D15*
X004194Y005244D02*
X004196Y005265D01*
X004202Y005285D01*
X004211Y005305D01*
X004223Y005322D01*
X004238Y005336D01*
X004256Y005348D01*
X004276Y005356D01*
X004296Y005361D01*
X004317Y005362D01*
X004338Y005359D01*
X004358Y005353D01*
X004377Y005342D01*
X004394Y005329D01*
X004407Y005313D01*
X004418Y005295D01*
X004426Y005275D01*
X004430Y005255D01*
X004430Y005233D01*
X004426Y005213D01*
X004418Y005193D01*
X004407Y005175D01*
X004394Y005159D01*
X004377Y005146D01*
X004358Y005135D01*
X004338Y005129D01*
X004317Y005126D01*
X004296Y005127D01*
X004276Y005132D01*
X004256Y005140D01*
X004238Y005152D01*
X004223Y005166D01*
X004211Y005183D01*
X004202Y005203D01*
X004196Y005223D01*
X004194Y005244D01*
X003194Y005645D02*
X003196Y005666D01*
X003202Y005686D01*
X003211Y005706D01*
X003223Y005723D01*
X003238Y005737D01*
X003256Y005749D01*
X003276Y005757D01*
X003296Y005762D01*
X003317Y005763D01*
X003338Y005760D01*
X003358Y005754D01*
X003377Y005743D01*
X003394Y005730D01*
X003407Y005714D01*
X003418Y005696D01*
X003426Y005676D01*
X003430Y005656D01*
X003430Y005634D01*
X003426Y005614D01*
X003418Y005594D01*
X003407Y005576D01*
X003394Y005560D01*
X003377Y005547D01*
X003358Y005536D01*
X003338Y005530D01*
X003317Y005527D01*
X003296Y005528D01*
X003276Y005533D01*
X003256Y005541D01*
X003238Y005553D01*
X003223Y005567D01*
X003211Y005584D01*
X003202Y005604D01*
X003196Y005624D01*
X003194Y005645D01*
X004194Y006047D02*
X004196Y006068D01*
X004202Y006088D01*
X004211Y006108D01*
X004223Y006125D01*
X004238Y006139D01*
X004256Y006151D01*
X004276Y006159D01*
X004296Y006164D01*
X004317Y006165D01*
X004338Y006162D01*
X004358Y006156D01*
X004377Y006145D01*
X004394Y006132D01*
X004407Y006116D01*
X004418Y006098D01*
X004426Y006078D01*
X004430Y006058D01*
X004430Y006036D01*
X004426Y006016D01*
X004418Y005996D01*
X004407Y005978D01*
X004394Y005962D01*
X004377Y005949D01*
X004358Y005938D01*
X004338Y005932D01*
X004317Y005929D01*
X004296Y005930D01*
X004276Y005935D01*
X004256Y005943D01*
X004238Y005955D01*
X004223Y005969D01*
X004211Y005986D01*
X004202Y006006D01*
X004196Y006026D01*
X004194Y006047D01*
X003194Y006448D02*
X003196Y006469D01*
X003202Y006489D01*
X003211Y006509D01*
X003223Y006526D01*
X003238Y006540D01*
X003256Y006552D01*
X003276Y006560D01*
X003296Y006565D01*
X003317Y006566D01*
X003338Y006563D01*
X003358Y006557D01*
X003377Y006546D01*
X003394Y006533D01*
X003407Y006517D01*
X003418Y006499D01*
X003426Y006479D01*
X003430Y006459D01*
X003430Y006437D01*
X003426Y006417D01*
X003418Y006397D01*
X003407Y006379D01*
X003394Y006363D01*
X003377Y006350D01*
X003358Y006339D01*
X003338Y006333D01*
X003317Y006330D01*
X003296Y006331D01*
X003276Y006336D01*
X003256Y006344D01*
X003238Y006356D01*
X003223Y006370D01*
X003211Y006387D01*
X003202Y006407D01*
X003196Y006427D01*
X003194Y006448D01*
X004194Y006850D02*
X004196Y006871D01*
X004202Y006891D01*
X004211Y006911D01*
X004223Y006928D01*
X004238Y006942D01*
X004256Y006954D01*
X004276Y006962D01*
X004296Y006967D01*
X004317Y006968D01*
X004338Y006965D01*
X004358Y006959D01*
X004377Y006948D01*
X004394Y006935D01*
X004407Y006919D01*
X004418Y006901D01*
X004426Y006881D01*
X004430Y006861D01*
X004430Y006839D01*
X004426Y006819D01*
X004418Y006799D01*
X004407Y006781D01*
X004394Y006765D01*
X004377Y006752D01*
X004358Y006741D01*
X004338Y006735D01*
X004317Y006732D01*
X004296Y006733D01*
X004276Y006738D01*
X004256Y006746D01*
X004238Y006758D01*
X004223Y006772D01*
X004211Y006789D01*
X004202Y006809D01*
X004196Y006829D01*
X004194Y006850D01*
X003194Y007251D02*
X003196Y007272D01*
X003202Y007292D01*
X003211Y007312D01*
X003223Y007329D01*
X003238Y007343D01*
X003256Y007355D01*
X003276Y007363D01*
X003296Y007368D01*
X003317Y007369D01*
X003338Y007366D01*
X003358Y007360D01*
X003377Y007349D01*
X003394Y007336D01*
X003407Y007320D01*
X003418Y007302D01*
X003426Y007282D01*
X003430Y007262D01*
X003430Y007240D01*
X003426Y007220D01*
X003418Y007200D01*
X003407Y007182D01*
X003394Y007166D01*
X003377Y007153D01*
X003358Y007142D01*
X003338Y007136D01*
X003317Y007133D01*
X003296Y007134D01*
X003276Y007139D01*
X003256Y007147D01*
X003238Y007159D01*
X003223Y007173D01*
X003211Y007190D01*
X003202Y007210D01*
X003196Y007230D01*
X003194Y007251D01*
X004194Y007653D02*
X004196Y007674D01*
X004202Y007694D01*
X004211Y007714D01*
X004223Y007731D01*
X004238Y007745D01*
X004256Y007757D01*
X004276Y007765D01*
X004296Y007770D01*
X004317Y007771D01*
X004338Y007768D01*
X004358Y007762D01*
X004377Y007751D01*
X004394Y007738D01*
X004407Y007722D01*
X004418Y007704D01*
X004426Y007684D01*
X004430Y007664D01*
X004430Y007642D01*
X004426Y007622D01*
X004418Y007602D01*
X004407Y007584D01*
X004394Y007568D01*
X004377Y007555D01*
X004358Y007544D01*
X004338Y007538D01*
X004317Y007535D01*
X004296Y007536D01*
X004276Y007541D01*
X004256Y007549D01*
X004238Y007561D01*
X004223Y007575D01*
X004211Y007592D01*
X004202Y007612D01*
X004196Y007632D01*
X004194Y007653D01*
X003194Y008055D02*
X003196Y008076D01*
X003202Y008096D01*
X003211Y008116D01*
X003223Y008133D01*
X003238Y008147D01*
X003256Y008159D01*
X003276Y008167D01*
X003296Y008172D01*
X003317Y008173D01*
X003338Y008170D01*
X003358Y008164D01*
X003377Y008153D01*
X003394Y008140D01*
X003407Y008124D01*
X003418Y008106D01*
X003426Y008086D01*
X003430Y008066D01*
X003430Y008044D01*
X003426Y008024D01*
X003418Y008004D01*
X003407Y007986D01*
X003394Y007970D01*
X003377Y007957D01*
X003358Y007946D01*
X003338Y007940D01*
X003317Y007937D01*
X003296Y007938D01*
X003276Y007943D01*
X003256Y007951D01*
X003238Y007963D01*
X003223Y007977D01*
X003211Y007994D01*
X003202Y008014D01*
X003196Y008034D01*
X003194Y008055D01*
X014694Y007740D02*
X014696Y007761D01*
X014702Y007781D01*
X014711Y007801D01*
X014723Y007818D01*
X014738Y007832D01*
X014756Y007844D01*
X014776Y007852D01*
X014796Y007857D01*
X014817Y007858D01*
X014838Y007855D01*
X014858Y007849D01*
X014877Y007838D01*
X014894Y007825D01*
X014907Y007809D01*
X014918Y007791D01*
X014926Y007771D01*
X014930Y007751D01*
X014930Y007729D01*
X014926Y007709D01*
X014918Y007689D01*
X014907Y007671D01*
X014894Y007655D01*
X014877Y007642D01*
X014858Y007631D01*
X014838Y007625D01*
X014817Y007622D01*
X014796Y007623D01*
X014776Y007628D01*
X014756Y007636D01*
X014738Y007648D01*
X014723Y007662D01*
X014711Y007679D01*
X014702Y007699D01*
X014696Y007719D01*
X014694Y007740D01*
X014694Y008740D02*
X014696Y008761D01*
X014702Y008781D01*
X014711Y008801D01*
X014723Y008818D01*
X014738Y008832D01*
X014756Y008844D01*
X014776Y008852D01*
X014796Y008857D01*
X014817Y008858D01*
X014838Y008855D01*
X014858Y008849D01*
X014877Y008838D01*
X014894Y008825D01*
X014907Y008809D01*
X014918Y008791D01*
X014926Y008771D01*
X014930Y008751D01*
X014930Y008729D01*
X014926Y008709D01*
X014918Y008689D01*
X014907Y008671D01*
X014894Y008655D01*
X014877Y008642D01*
X014858Y008631D01*
X014838Y008625D01*
X014817Y008622D01*
X014796Y008623D01*
X014776Y008628D01*
X014756Y008636D01*
X014738Y008648D01*
X014723Y008662D01*
X014711Y008679D01*
X014702Y008699D01*
X014696Y008719D01*
X014694Y008740D01*
X014694Y009740D02*
X014696Y009761D01*
X014702Y009781D01*
X014711Y009801D01*
X014723Y009818D01*
X014738Y009832D01*
X014756Y009844D01*
X014776Y009852D01*
X014796Y009857D01*
X014817Y009858D01*
X014838Y009855D01*
X014858Y009849D01*
X014877Y009838D01*
X014894Y009825D01*
X014907Y009809D01*
X014918Y009791D01*
X014926Y009771D01*
X014930Y009751D01*
X014930Y009729D01*
X014926Y009709D01*
X014918Y009689D01*
X014907Y009671D01*
X014894Y009655D01*
X014877Y009642D01*
X014858Y009631D01*
X014838Y009625D01*
X014817Y009622D01*
X014796Y009623D01*
X014776Y009628D01*
X014756Y009636D01*
X014738Y009648D01*
X014723Y009662D01*
X014711Y009679D01*
X014702Y009699D01*
X014696Y009719D01*
X014694Y009740D01*
D16*
X011812Y007240D03*
X011812Y006240D03*
X007312Y012240D03*
D17*
X025312Y011537D02*
X025312Y010943D01*
X026312Y010943D02*
X026312Y011537D01*
X028812Y011537D02*
X028812Y010943D01*
X029812Y010943D02*
X029812Y011537D01*
X032312Y011537D02*
X032312Y010943D01*
X033312Y010943D02*
X033312Y011537D01*
X035812Y011537D02*
X035812Y010943D01*
X036812Y010943D02*
X036812Y011537D01*
X036312Y005037D02*
X036312Y004443D01*
X035312Y004443D02*
X035312Y005037D01*
X032812Y005037D02*
X032812Y004443D01*
X031812Y004443D02*
X031812Y005037D01*
X029312Y005037D02*
X029312Y004443D01*
X028312Y004443D02*
X028312Y005037D01*
X025812Y005037D02*
X025812Y004443D01*
X024812Y004443D02*
X024812Y005037D01*
D18*
X021312Y004240D03*
X020312Y004240D03*
X017312Y004240D03*
X016312Y004240D03*
X013312Y003240D03*
X012812Y003240D03*
X010812Y003240D03*
X010312Y003240D03*
X010312Y002240D03*
X010812Y002240D03*
X012812Y002240D03*
X013312Y002240D03*
X007312Y003490D03*
X006812Y003490D03*
X006812Y004490D03*
X007312Y004490D03*
X008312Y004740D03*
X008812Y004740D03*
X008812Y005740D03*
X008312Y005740D03*
X007312Y006740D03*
X006812Y006740D03*
X006812Y007740D03*
X007312Y007740D03*
X008812Y009240D03*
X008812Y010240D03*
X011812Y009990D03*
X011812Y008990D03*
X016312Y010240D03*
X017312Y010240D03*
X020312Y012240D03*
X021312Y012240D03*
X016812Y013240D03*
X015812Y013240D03*
X008312Y013740D03*
X007312Y013740D03*
X005312Y012240D03*
X002312Y012240D03*
X016312Y007240D03*
X017312Y007240D03*
X020312Y007240D03*
X021312Y007240D03*
X021312Y008240D03*
X020312Y008240D03*
D19*
X019312Y008980D02*
X019312Y009500D01*
X018312Y009500D02*
X018312Y008980D01*
X017312Y008980D02*
X017312Y009500D01*
X013572Y009240D02*
X013052Y009240D01*
X013052Y010240D02*
X013572Y010240D01*
X013572Y011240D02*
X013052Y011240D01*
X013052Y012240D02*
X013572Y012240D01*
X010572Y012240D02*
X010052Y012240D01*
X010052Y011240D02*
X010572Y011240D01*
X010572Y010240D02*
X010052Y010240D01*
X010052Y009240D02*
X010572Y009240D01*
X010572Y008240D02*
X010052Y008240D01*
X010052Y007240D02*
X010572Y007240D01*
X013052Y007240D02*
X013572Y007240D01*
X013572Y008240D02*
X013052Y008240D01*
X017312Y006500D02*
X017312Y005980D01*
X018312Y005980D02*
X018312Y006500D01*
X019312Y006500D02*
X019312Y005980D01*
X021312Y005980D02*
X021312Y006500D01*
X022312Y006500D02*
X022312Y005980D01*
X023312Y005980D02*
X023312Y006500D01*
X023312Y008980D02*
X023312Y009500D01*
X022312Y009500D02*
X022312Y008980D01*
X021312Y008980D02*
X021312Y009500D01*
X013572Y006240D02*
X013052Y006240D01*
X013052Y005240D02*
X013572Y005240D01*
X013572Y004240D02*
X013052Y004240D01*
X010572Y004240D02*
X010052Y004240D01*
X010052Y005240D02*
X010572Y005240D01*
X010572Y006240D02*
X010052Y006240D01*
X017312Y003500D02*
X017312Y002980D01*
X018312Y002980D02*
X018312Y003500D01*
X019312Y003500D02*
X019312Y002980D01*
X021312Y002980D02*
X021312Y003500D01*
X022312Y003500D02*
X022312Y002980D01*
X023312Y002980D02*
X023312Y003500D01*
X023312Y012980D02*
X023312Y013500D01*
X022312Y013500D02*
X022312Y012980D01*
X021312Y012980D02*
X021312Y013500D01*
X019312Y013500D02*
X019312Y012980D01*
X018312Y012980D02*
X018312Y013500D01*
X017312Y013500D02*
X017312Y012980D01*
X004312Y013480D02*
X004312Y014000D01*
X003312Y014000D02*
X003312Y013480D01*
D20*
X014812Y009740D03*
X014812Y008740D03*
X014812Y007740D03*
D21*
X008312Y012240D03*
D22*
X003312Y008055D03*
X004312Y007653D03*
X003312Y007251D03*
X004312Y006850D03*
X003312Y006448D03*
X004312Y006047D03*
X003312Y005645D03*
X004312Y005244D03*
M02*
