G75*
G70*
%OFA0B0*%
%FSLAX24Y24*%
%IPPOS*%
%LPD*%
%AMOC8*
5,1,8,0,0,1.08239X$1,22.5*
%
%ADD10OC8,0.0630*%
%ADD11C,0.0594*%
%ADD12OC8,0.0520*%
%ADD13C,0.0520*%
%ADD14C,0.0515*%
%ADD15C,0.0630*%
%ADD16R,0.0515X0.0515*%
%ADD17C,0.0050*%
%ADD18C,0.0100*%
%ADD19C,0.0079*%
D10*
X011812Y006240D03*
X011812Y007240D03*
X007312Y012240D03*
D11*
X025312Y011537D02*
X025312Y010943D01*
X026312Y010943D02*
X026312Y011537D01*
X028812Y011537D02*
X028812Y010943D01*
X029812Y010943D02*
X029812Y011537D01*
X032312Y011537D02*
X032312Y010943D01*
X033312Y010943D02*
X033312Y011537D01*
X035812Y011537D02*
X035812Y010943D01*
X036812Y010943D02*
X036812Y011537D01*
X036312Y005037D02*
X036312Y004443D01*
X035312Y004443D02*
X035312Y005037D01*
X032812Y005037D02*
X032812Y004443D01*
X031812Y004443D02*
X031812Y005037D01*
X029312Y005037D02*
X029312Y004443D01*
X028312Y004443D02*
X028312Y005037D01*
X025812Y005037D02*
X025812Y004443D01*
X024812Y004443D02*
X024812Y005037D01*
D12*
X021312Y004240D03*
X020312Y004240D03*
X017312Y004240D03*
X016312Y004240D03*
X013312Y003240D03*
X012812Y003240D03*
X010812Y003240D03*
X010312Y003240D03*
X010312Y002240D03*
X010812Y002240D03*
X012812Y002240D03*
X013312Y002240D03*
X007312Y003490D03*
X006812Y003490D03*
X006812Y004490D03*
X007312Y004490D03*
X008312Y004740D03*
X008812Y004740D03*
X008812Y005740D03*
X008312Y005740D03*
X007312Y006740D03*
X006812Y006740D03*
X006812Y007740D03*
X007312Y007740D03*
X008812Y009240D03*
X008812Y010240D03*
X011812Y009990D03*
X011812Y008990D03*
X016312Y010240D03*
X017312Y010240D03*
X020312Y012240D03*
X021312Y012240D03*
X016812Y013240D03*
X015812Y013240D03*
X008312Y013740D03*
X007312Y013740D03*
X005312Y012240D03*
X002312Y012240D03*
X016312Y007240D03*
X017312Y007240D03*
X020312Y007240D03*
X021312Y007240D03*
X021312Y008240D03*
X020312Y008240D03*
D13*
X019312Y008980D02*
X019312Y009500D01*
X018312Y009500D02*
X018312Y008980D01*
X017312Y008980D02*
X017312Y009500D01*
X013572Y009240D02*
X013052Y009240D01*
X013052Y010240D02*
X013572Y010240D01*
X013572Y011240D02*
X013052Y011240D01*
X013052Y012240D02*
X013572Y012240D01*
X010572Y012240D02*
X010052Y012240D01*
X010052Y011240D02*
X010572Y011240D01*
X010572Y010240D02*
X010052Y010240D01*
X010052Y009240D02*
X010572Y009240D01*
X010572Y008240D02*
X010052Y008240D01*
X010052Y007240D02*
X010572Y007240D01*
X013052Y007240D02*
X013572Y007240D01*
X013572Y008240D02*
X013052Y008240D01*
X017312Y006500D02*
X017312Y005980D01*
X018312Y005980D02*
X018312Y006500D01*
X019312Y006500D02*
X019312Y005980D01*
X021312Y005980D02*
X021312Y006500D01*
X022312Y006500D02*
X022312Y005980D01*
X023312Y005980D02*
X023312Y006500D01*
X023312Y008980D02*
X023312Y009500D01*
X022312Y009500D02*
X022312Y008980D01*
X021312Y008980D02*
X021312Y009500D01*
X013572Y006240D02*
X013052Y006240D01*
X013052Y005240D02*
X013572Y005240D01*
X013572Y004240D02*
X013052Y004240D01*
X010572Y004240D02*
X010052Y004240D01*
X010052Y005240D02*
X010572Y005240D01*
X010572Y006240D02*
X010052Y006240D01*
X017312Y003500D02*
X017312Y002980D01*
X018312Y002980D02*
X018312Y003500D01*
X019312Y003500D02*
X019312Y002980D01*
X021312Y002980D02*
X021312Y003500D01*
X022312Y003500D02*
X022312Y002980D01*
X023312Y002980D02*
X023312Y003500D01*
X023312Y012980D02*
X023312Y013500D01*
X022312Y013500D02*
X022312Y012980D01*
X021312Y012980D02*
X021312Y013500D01*
X019312Y013500D02*
X019312Y012980D01*
X018312Y012980D02*
X018312Y013500D01*
X017312Y013500D02*
X017312Y012980D01*
X004312Y013480D02*
X004312Y014000D01*
X003312Y014000D02*
X003312Y013480D01*
D14*
X014812Y009740D03*
X014812Y008740D03*
X014812Y007740D03*
D15*
X008312Y012240D03*
D16*
X003312Y008055D03*
X004312Y007653D03*
X003312Y007251D03*
X004312Y006850D03*
X003312Y006448D03*
X004312Y006047D03*
X003312Y005645D03*
X004312Y005244D03*
D17*
X000537Y001465D02*
X000537Y014794D01*
X039458Y014794D01*
X039458Y001465D01*
X011370Y001465D01*
X011810Y001905D01*
X012465Y001905D01*
X012518Y001905D01*
X012628Y001795D01*
X012997Y001795D01*
X013062Y001860D01*
X013128Y001795D01*
X013497Y001795D01*
X013757Y002055D01*
X013757Y002105D01*
X014110Y002105D01*
X014247Y002242D01*
X014247Y002437D01*
X014247Y003442D01*
X014247Y003637D01*
X013923Y003961D01*
X013950Y003988D01*
X014017Y004151D01*
X014017Y004328D01*
X013950Y004492D01*
X013824Y004617D01*
X013661Y004685D01*
X012964Y004685D01*
X012800Y004617D01*
X012675Y004492D01*
X012607Y004328D01*
X012607Y004151D01*
X012675Y003988D01*
X012800Y003862D01*
X012964Y003795D01*
X013425Y003795D01*
X013777Y003442D01*
X013777Y002575D01*
X013660Y002575D01*
X013607Y002575D01*
X013497Y002685D01*
X013128Y002685D01*
X013062Y002619D01*
X012997Y002685D01*
X012628Y002685D01*
X012367Y002424D01*
X012367Y002375D01*
X011615Y002375D01*
X011477Y002237D01*
X011015Y001775D01*
X010110Y001775D01*
X009910Y001975D01*
X009715Y001975D01*
X005847Y001975D01*
X005847Y003187D01*
X005710Y003325D01*
X004560Y004475D01*
X004365Y004475D01*
X003547Y004475D01*
X003547Y005203D01*
X003647Y005203D01*
X003755Y005311D01*
X003755Y005979D01*
X003687Y006047D01*
X003755Y006114D01*
X003755Y006224D01*
X003870Y006224D01*
X003870Y005713D01*
X003978Y005604D01*
X004415Y005604D01*
X004515Y005505D01*
X004565Y005505D01*
X005877Y004192D01*
X005877Y003187D01*
X005877Y002992D01*
X006015Y002855D01*
X006115Y002855D01*
X006277Y002692D01*
X006415Y002555D01*
X009665Y002555D01*
X009860Y002555D01*
X010114Y002809D01*
X010128Y002795D01*
X010497Y002795D01*
X010562Y002860D01*
X010628Y002795D01*
X010997Y002795D01*
X011257Y003055D01*
X011257Y003424D01*
X011427Y003424D01*
X011427Y003376D02*
X011257Y003376D01*
X011257Y003424D02*
X010997Y003685D01*
X010628Y003685D01*
X010562Y003619D01*
X010547Y003634D01*
X010547Y003795D01*
X010661Y003795D01*
X010824Y003862D01*
X010950Y003988D01*
X011017Y004151D01*
X011017Y004328D01*
X010950Y004492D01*
X010898Y004543D01*
X011310Y004955D01*
X011427Y004955D01*
X011427Y003237D01*
X011427Y003187D01*
X010925Y002685D01*
X010628Y002685D01*
X010562Y002619D01*
X010497Y002685D01*
X010128Y002685D01*
X009867Y002424D01*
X009867Y002055D01*
X010128Y001795D01*
X010497Y001795D01*
X010562Y001860D01*
X010628Y001795D01*
X010997Y001795D01*
X011257Y002055D01*
X011257Y002352D01*
X011785Y002880D01*
X011810Y002905D01*
X012465Y002905D01*
X012518Y002905D01*
X012628Y002795D01*
X012997Y002795D01*
X013062Y002860D01*
X013128Y002795D01*
X013497Y002795D01*
X013757Y003055D01*
X013757Y003424D01*
X013777Y003424D01*
X013757Y003424D02*
X013497Y003685D01*
X013128Y003685D01*
X013062Y003619D01*
X012997Y003685D01*
X012628Y003685D01*
X012367Y003424D01*
X012367Y003375D01*
X011897Y003375D01*
X011897Y005092D01*
X011897Y005287D01*
X011770Y005415D01*
X011860Y005505D01*
X011997Y005642D01*
X011997Y005740D01*
X012020Y005740D01*
X012312Y006033D01*
X012312Y006407D01*
X012460Y006555D01*
X012597Y006692D01*
X012597Y008005D01*
X012668Y008005D01*
X012675Y007988D01*
X012800Y007862D01*
X012964Y007795D01*
X013661Y007795D01*
X013824Y007862D01*
X013950Y007988D01*
X014017Y008151D01*
X014017Y008202D01*
X014376Y007843D01*
X014370Y007828D01*
X014370Y007652D01*
X014437Y007489D01*
X014562Y007365D01*
X014724Y007297D01*
X014900Y007297D01*
X015063Y007365D01*
X015188Y007489D01*
X015255Y007652D01*
X015255Y007828D01*
X015188Y007990D01*
X015063Y008115D01*
X014900Y008182D01*
X014724Y008182D01*
X014709Y008176D01*
X013923Y008961D01*
X013950Y008988D01*
X014017Y009151D01*
X014017Y009328D01*
X013950Y009492D01*
X013824Y009617D01*
X013661Y009685D01*
X012964Y009685D01*
X012800Y009617D01*
X012675Y009492D01*
X012607Y009328D01*
X012607Y009151D01*
X012675Y008988D01*
X012800Y008862D01*
X012964Y008795D01*
X013425Y008795D01*
X013535Y008685D01*
X012964Y008685D01*
X012800Y008617D01*
X012675Y008492D01*
X012668Y008475D01*
X012660Y008475D01*
X012622Y008512D01*
X012485Y008650D01*
X012257Y008877D01*
X012257Y009174D01*
X011997Y009435D01*
X011628Y009435D01*
X011367Y009174D01*
X011367Y008975D01*
X010937Y008975D01*
X010950Y008988D01*
X011017Y009151D01*
X011017Y009328D01*
X011007Y009352D01*
X011310Y009655D01*
X011465Y009655D01*
X011518Y009655D01*
X011628Y009545D01*
X011997Y009545D01*
X012257Y009805D01*
X012257Y010174D01*
X011997Y010435D01*
X011628Y010435D01*
X011367Y010174D01*
X011367Y010125D01*
X011115Y010125D01*
X010977Y009987D01*
X010671Y009680D01*
X010661Y009685D01*
X009964Y009685D01*
X009800Y009617D01*
X009675Y009492D01*
X009607Y009328D01*
X009607Y009151D01*
X009675Y008988D01*
X009688Y008975D01*
X009510Y008975D01*
X009257Y009227D01*
X009257Y009424D01*
X008997Y009685D01*
X008700Y009685D01*
X006930Y011455D01*
X007415Y011455D01*
X007610Y011455D01*
X008000Y011845D01*
X008029Y011816D01*
X008213Y011740D01*
X008412Y011740D01*
X008596Y011816D01*
X008736Y011956D01*
X008812Y012140D01*
X008812Y012339D01*
X008736Y012523D01*
X008596Y012664D01*
X008547Y012684D01*
X008547Y013345D01*
X008757Y013555D01*
X008757Y013924D01*
X008497Y014185D01*
X008128Y014185D01*
X007867Y013924D01*
X007867Y013555D01*
X008077Y013345D01*
X008077Y012684D01*
X008029Y012664D01*
X007889Y012523D01*
X007812Y012339D01*
X007812Y012322D01*
X007415Y011925D01*
X006460Y011925D01*
X006265Y011925D01*
X005960Y011925D01*
X005757Y012127D01*
X005757Y012424D01*
X005497Y012685D01*
X005128Y012685D01*
X004867Y012424D01*
X004867Y012055D01*
X005128Y011795D01*
X005425Y011795D01*
X005627Y011592D01*
X005765Y011455D01*
X006265Y011455D01*
X008367Y009352D01*
X008367Y009055D01*
X008628Y008795D01*
X008997Y008795D01*
X009011Y008809D01*
X009315Y008505D01*
X009510Y008505D01*
X011710Y008505D01*
X011750Y008545D01*
X011925Y008545D01*
X012127Y008342D01*
X012127Y008292D01*
X012127Y006887D01*
X011980Y006740D01*
X011605Y006740D01*
X011558Y006692D01*
X011297Y006865D01*
X011297Y007837D01*
X011160Y007975D01*
X010965Y007975D01*
X007707Y007975D01*
X007497Y008185D01*
X007128Y008185D01*
X007062Y008119D01*
X006997Y008185D01*
X006628Y008185D01*
X006614Y008170D01*
X006210Y008575D01*
X006015Y008575D01*
X003465Y008575D01*
X003388Y008497D01*
X003052Y008497D01*
X003710Y009155D01*
X003847Y009292D01*
X003847Y012605D01*
X004815Y012605D01*
X005010Y012605D01*
X006010Y013605D01*
X006867Y013605D01*
X006867Y013555D01*
X007128Y013295D01*
X007497Y013295D01*
X007757Y013555D01*
X007757Y013852D01*
X008110Y014205D01*
X023415Y014205D01*
X025505Y012115D01*
X025409Y012018D01*
X025408Y012018D01*
X025217Y012018D01*
X025039Y011945D01*
X024904Y011809D01*
X024831Y011632D01*
X024831Y010847D01*
X024904Y010670D01*
X025039Y010534D01*
X025217Y010461D01*
X025408Y010461D01*
X025585Y010534D01*
X025721Y010670D01*
X025794Y010847D01*
X025794Y011632D01*
X025763Y011708D01*
X025935Y011880D01*
X026072Y012017D01*
X026072Y012017D01*
X026110Y012055D01*
X027215Y012055D01*
X028127Y011142D01*
X028265Y011005D01*
X028331Y011005D01*
X028331Y010847D01*
X028404Y010670D01*
X028539Y010534D01*
X028717Y010461D01*
X028908Y010461D01*
X029085Y010534D01*
X029221Y010670D01*
X029294Y010847D01*
X029294Y011632D01*
X029263Y011708D01*
X029610Y012055D01*
X031665Y012055D01*
X031907Y011813D01*
X031904Y011809D01*
X031831Y011632D01*
X031831Y010847D01*
X031904Y010670D01*
X032039Y010534D01*
X032217Y010461D01*
X032408Y010461D01*
X032585Y010534D01*
X032721Y010670D01*
X032794Y010847D01*
X032794Y011632D01*
X032763Y011708D01*
X033110Y012055D01*
X034215Y012055D01*
X035027Y011242D01*
X035165Y011105D01*
X035331Y011105D01*
X035331Y010847D01*
X035404Y010670D01*
X035539Y010534D01*
X035717Y010461D01*
X035908Y010461D01*
X036085Y010534D01*
X036221Y010670D01*
X036294Y010847D01*
X036294Y011632D01*
X036263Y011708D01*
X036610Y012055D01*
X037327Y012055D01*
X037327Y009137D01*
X034215Y006025D01*
X034165Y006025D01*
X032610Y006025D01*
X032415Y006025D01*
X031909Y005518D01*
X031908Y005518D01*
X031717Y005518D01*
X031539Y005445D01*
X031404Y005309D01*
X031331Y005132D01*
X031331Y004975D01*
X031265Y004975D01*
X031127Y004837D01*
X030215Y003925D01*
X029110Y003925D01*
X028763Y004271D01*
X028794Y004347D01*
X028794Y005132D01*
X028721Y005309D01*
X028585Y005445D01*
X028408Y005518D01*
X028217Y005518D01*
X028039Y005445D01*
X027904Y005309D01*
X027831Y005132D01*
X027831Y004975D01*
X027765Y004975D01*
X027627Y004837D01*
X026715Y003925D01*
X025610Y003925D01*
X025263Y004271D01*
X025294Y004347D01*
X025294Y005132D01*
X025221Y005309D01*
X025085Y005445D01*
X024908Y005518D01*
X024717Y005518D01*
X024539Y005445D01*
X024404Y005309D01*
X024331Y005132D01*
X024331Y004347D01*
X024404Y004170D01*
X024539Y004034D01*
X024717Y003961D01*
X024908Y003961D01*
X024909Y003961D01*
X025277Y003592D01*
X025415Y003455D01*
X026715Y003455D01*
X026910Y003455D01*
X027831Y004376D01*
X027831Y004347D01*
X027904Y004170D01*
X028039Y004034D01*
X028217Y003961D01*
X028408Y003961D01*
X028409Y003961D01*
X028777Y003592D01*
X028915Y003455D01*
X030215Y003455D01*
X030410Y003455D01*
X031331Y004376D01*
X031331Y004347D01*
X031404Y004170D01*
X031539Y004034D01*
X031717Y003961D01*
X031908Y003961D01*
X032085Y004034D01*
X032221Y004170D01*
X032294Y004347D01*
X032294Y005132D01*
X032263Y005208D01*
X032610Y005555D01*
X034165Y005555D01*
X034190Y005530D01*
X034831Y004889D01*
X034831Y004347D01*
X034904Y004170D01*
X035039Y004034D01*
X035217Y003961D01*
X035408Y003961D01*
X035585Y004034D01*
X035721Y004170D01*
X035794Y004347D01*
X035794Y005132D01*
X035721Y005309D01*
X035585Y005445D01*
X035408Y005518D01*
X035217Y005518D01*
X035039Y005445D01*
X034989Y005395D01*
X034620Y005765D01*
X037797Y008942D01*
X037797Y009137D01*
X037797Y012192D01*
X037797Y012387D01*
X037660Y012525D01*
X036610Y012525D01*
X036415Y012525D01*
X035909Y012018D01*
X035908Y012018D01*
X035717Y012018D01*
X035539Y011945D01*
X035404Y011809D01*
X035331Y011632D01*
X035331Y011604D01*
X034410Y012525D01*
X034215Y012525D01*
X032915Y012525D01*
X032777Y012387D01*
X032409Y012018D01*
X032408Y012018D01*
X032366Y012018D01*
X031997Y012387D01*
X031860Y012525D01*
X029610Y012525D01*
X029415Y012525D01*
X028909Y012018D01*
X028908Y012018D01*
X028717Y012018D01*
X028539Y011945D01*
X028404Y011809D01*
X028331Y011632D01*
X028331Y011604D01*
X027410Y012525D01*
X027215Y012525D01*
X025915Y012525D01*
X025837Y012447D01*
X023610Y014675D01*
X023415Y014675D01*
X008110Y014675D01*
X007915Y014675D01*
X007425Y014185D01*
X007128Y014185D01*
X007018Y014075D01*
X005815Y014075D01*
X005677Y013937D01*
X004815Y013075D01*
X003515Y013075D01*
X003377Y012937D01*
X003377Y012742D01*
X003377Y009487D01*
X003104Y009214D01*
X003104Y009376D01*
X002998Y009633D01*
X002802Y009829D01*
X002546Y009935D01*
X002268Y009935D01*
X002012Y009829D01*
X001816Y009633D01*
X001709Y009376D01*
X001709Y009099D01*
X001816Y008843D01*
X002012Y008646D01*
X002268Y008540D01*
X002546Y008540D01*
X002577Y008553D01*
X002577Y007556D01*
X002715Y007418D01*
X002870Y007418D01*
X002870Y006917D01*
X002937Y006850D01*
X002870Y006782D01*
X002870Y006114D01*
X002937Y006047D01*
X002870Y005979D01*
X002870Y005311D01*
X002978Y005203D01*
X003077Y005203D01*
X003077Y004142D01*
X003215Y004005D01*
X003410Y004005D01*
X004365Y004005D01*
X004431Y003939D01*
X004392Y003955D01*
X004232Y003955D01*
X004085Y003894D01*
X003971Y003780D01*
X003910Y003633D01*
X003910Y003473D01*
X003006Y003473D01*
X002998Y003453D02*
X003104Y003709D01*
X003104Y003987D01*
X002998Y004243D01*
X002802Y004439D01*
X002546Y004545D01*
X002268Y004545D01*
X002012Y004439D01*
X001816Y004243D01*
X001709Y003987D01*
X001709Y003709D01*
X001816Y003453D01*
X002012Y003257D01*
X002268Y003151D01*
X002546Y003151D01*
X002802Y003257D01*
X002998Y003453D01*
X002969Y003424D02*
X003930Y003424D01*
X003910Y003473D02*
X003971Y003325D01*
X004085Y003212D01*
X004232Y003151D01*
X004392Y003151D01*
X004540Y003212D01*
X004653Y003325D01*
X004715Y003473D01*
X004897Y003473D01*
X004849Y003521D02*
X004715Y003521D01*
X004715Y003473D02*
X004715Y003633D01*
X004699Y003671D01*
X005377Y002992D01*
X005377Y001837D01*
X005377Y001642D01*
X005515Y001505D01*
X009715Y001505D01*
X009755Y001465D01*
X000537Y001465D01*
X000537Y001482D02*
X009737Y001482D01*
X010062Y001822D02*
X010101Y001822D01*
X010052Y001871D02*
X010014Y001871D01*
X010004Y001919D02*
X009965Y001919D01*
X009955Y001968D02*
X009917Y001968D01*
X009906Y002016D02*
X005847Y002016D01*
X005847Y002065D02*
X009867Y002065D01*
X009867Y002113D02*
X005847Y002113D01*
X005847Y002162D02*
X009867Y002162D01*
X009867Y002211D02*
X005847Y002211D01*
X005847Y002259D02*
X009867Y002259D01*
X009867Y002308D02*
X005847Y002308D01*
X005847Y002356D02*
X009867Y002356D01*
X009867Y002405D02*
X005847Y002405D01*
X005847Y002453D02*
X009897Y002453D01*
X009945Y002502D02*
X005847Y002502D01*
X005847Y002550D02*
X009994Y002550D01*
X010042Y002599D02*
X009904Y002599D01*
X009952Y002647D02*
X010091Y002647D01*
X010001Y002696D02*
X010936Y002696D01*
X010985Y002745D02*
X010050Y002745D01*
X010098Y002793D02*
X011034Y002793D01*
X011044Y002842D02*
X011082Y002842D01*
X011092Y002890D02*
X011131Y002890D01*
X011141Y002939D02*
X011179Y002939D01*
X011189Y002987D02*
X011228Y002987D01*
X011238Y003036D02*
X011276Y003036D01*
X011257Y003084D02*
X011325Y003084D01*
X011373Y003133D02*
X011257Y003133D01*
X011257Y003181D02*
X011422Y003181D01*
X011427Y003230D02*
X011257Y003230D01*
X011257Y003279D02*
X011427Y003279D01*
X011427Y003327D02*
X011257Y003327D01*
X011209Y003473D02*
X011427Y003473D01*
X011427Y003521D02*
X011160Y003521D01*
X011112Y003570D02*
X011427Y003570D01*
X011427Y003618D02*
X011063Y003618D01*
X011015Y003667D02*
X011427Y003667D01*
X011427Y003715D02*
X010547Y003715D01*
X010547Y003667D02*
X010610Y003667D01*
X010547Y003764D02*
X011427Y003764D01*
X011427Y003812D02*
X010704Y003812D01*
X010821Y003861D02*
X011427Y003861D01*
X011427Y003910D02*
X010872Y003910D01*
X010920Y003958D02*
X011427Y003958D01*
X011427Y004007D02*
X010958Y004007D01*
X010978Y004055D02*
X011427Y004055D01*
X011427Y004104D02*
X010998Y004104D01*
X011017Y004152D02*
X011427Y004152D01*
X011427Y004201D02*
X011017Y004201D01*
X011017Y004249D02*
X011427Y004249D01*
X011427Y004298D02*
X011017Y004298D01*
X011010Y004346D02*
X011427Y004346D01*
X011427Y004395D02*
X010990Y004395D01*
X010970Y004444D02*
X011427Y004444D01*
X011427Y004492D02*
X010949Y004492D01*
X010901Y004541D02*
X011427Y004541D01*
X011427Y004589D02*
X010944Y004589D01*
X010993Y004638D02*
X011427Y004638D01*
X011427Y004686D02*
X011041Y004686D01*
X011090Y004735D02*
X011427Y004735D01*
X011427Y004783D02*
X011138Y004783D01*
X011187Y004832D02*
X011427Y004832D01*
X011427Y004880D02*
X011235Y004880D01*
X011284Y004929D02*
X011427Y004929D01*
X011897Y004929D02*
X012734Y004929D01*
X012782Y004880D02*
X011897Y004880D01*
X011897Y004832D02*
X012874Y004832D01*
X012800Y004862D02*
X012964Y004795D01*
X013661Y004795D01*
X013671Y004799D01*
X014227Y004242D01*
X014365Y004105D01*
X015867Y004105D01*
X015867Y004055D01*
X016128Y003795D01*
X016497Y003795D01*
X016757Y004055D01*
X016868Y004055D01*
X016867Y004055D02*
X017053Y003870D01*
X016935Y003752D01*
X016867Y003588D01*
X016867Y002891D01*
X016935Y002728D01*
X017060Y002602D01*
X017224Y002535D01*
X017401Y002535D01*
X017564Y002602D01*
X017690Y002728D01*
X017757Y002891D01*
X017757Y003588D01*
X017690Y003752D01*
X017572Y003870D01*
X017757Y004055D01*
X019868Y004055D01*
X019867Y004055D02*
X020128Y003795D01*
X020497Y003795D01*
X020757Y004055D01*
X020868Y004055D01*
X020867Y004055D02*
X021053Y003870D01*
X020935Y003752D01*
X020867Y003588D01*
X020867Y002891D01*
X020935Y002728D01*
X021060Y002602D01*
X021224Y002535D01*
X021401Y002535D01*
X021564Y002602D01*
X021690Y002728D01*
X021757Y002891D01*
X021757Y003588D01*
X021690Y003752D01*
X021572Y003870D01*
X021757Y004055D01*
X024519Y004055D01*
X024470Y004104D02*
X021757Y004104D01*
X021757Y004152D02*
X024422Y004152D01*
X024391Y004201D02*
X021757Y004201D01*
X021757Y004249D02*
X024371Y004249D01*
X024351Y004298D02*
X021757Y004298D01*
X021757Y004346D02*
X024331Y004346D01*
X024331Y004395D02*
X021757Y004395D01*
X021757Y004424D02*
X021497Y004685D01*
X021128Y004685D01*
X020867Y004424D01*
X020867Y004055D01*
X020867Y004104D02*
X020757Y004104D01*
X020757Y004152D02*
X020867Y004152D01*
X020867Y004201D02*
X020757Y004201D01*
X020757Y004249D02*
X020867Y004249D01*
X020867Y004298D02*
X020757Y004298D01*
X020757Y004346D02*
X020867Y004346D01*
X020867Y004395D02*
X020757Y004395D01*
X020757Y004424D02*
X020497Y004685D01*
X020200Y004685D01*
X019830Y005055D01*
X023915Y005055D01*
X024110Y005055D01*
X024610Y005555D01*
X025015Y005555D01*
X025362Y005208D01*
X025331Y005132D01*
X025331Y004347D01*
X025404Y004170D01*
X025539Y004034D01*
X025717Y003961D01*
X025908Y003961D01*
X026085Y004034D01*
X026221Y004170D01*
X026294Y004347D01*
X026294Y005132D01*
X026221Y005309D01*
X026085Y005445D01*
X025908Y005518D01*
X025717Y005518D01*
X025716Y005518D01*
X025210Y006025D01*
X025015Y006025D01*
X024415Y006025D01*
X024277Y005887D01*
X023915Y005525D01*
X019360Y005525D01*
X018757Y006127D01*
X018757Y006588D01*
X018690Y006752D01*
X018564Y006877D01*
X018401Y006945D01*
X018350Y006945D01*
X018410Y007005D01*
X019918Y007005D01*
X020128Y006795D01*
X020497Y006795D01*
X020757Y007055D01*
X020757Y007424D01*
X020677Y007505D01*
X020948Y007505D01*
X020867Y007424D01*
X020867Y007055D01*
X021053Y006870D01*
X020935Y006752D01*
X020867Y006588D01*
X020867Y005891D01*
X020935Y005728D01*
X021060Y005602D01*
X021224Y005535D01*
X021401Y005535D01*
X021564Y005602D01*
X021690Y005728D01*
X021757Y005891D01*
X021757Y006588D01*
X021690Y006752D01*
X021572Y006870D01*
X021757Y007055D01*
X021757Y007424D01*
X021677Y007505D01*
X033565Y007505D01*
X033760Y007505D01*
X036716Y010461D01*
X036717Y010461D01*
X036908Y010461D01*
X037085Y010534D01*
X037221Y010670D01*
X037294Y010847D01*
X037294Y011632D01*
X037221Y011809D01*
X037085Y011945D01*
X036908Y012018D01*
X036717Y012018D01*
X036539Y011945D01*
X036404Y011809D01*
X036331Y011632D01*
X036331Y010847D01*
X036362Y010771D01*
X033565Y007975D01*
X021677Y007975D01*
X021757Y008055D01*
X021757Y008424D01*
X034015Y008424D01*
X034063Y008473D02*
X021709Y008473D01*
X021660Y008521D02*
X034112Y008521D01*
X034160Y008570D02*
X022486Y008570D01*
X022564Y008602D02*
X022690Y008728D01*
X022757Y008891D01*
X022757Y009352D01*
X023160Y009755D01*
X023915Y009755D01*
X024377Y009292D01*
X024515Y009155D01*
X031715Y009155D01*
X031910Y009155D01*
X033216Y010461D01*
X033217Y010461D01*
X033408Y010461D01*
X033585Y010534D01*
X033721Y010670D01*
X033794Y010847D01*
X033794Y011632D01*
X033721Y011809D01*
X033585Y011945D01*
X033408Y012018D01*
X033217Y012018D01*
X033039Y011945D01*
X032904Y011809D01*
X032831Y011632D01*
X032831Y010847D01*
X032862Y010771D01*
X031715Y009625D01*
X028880Y009625D01*
X029716Y010461D01*
X029717Y010461D01*
X029908Y010461D01*
X030085Y010534D01*
X030221Y010670D01*
X030294Y010847D01*
X030294Y011632D01*
X030221Y011809D01*
X030085Y011945D01*
X029908Y012018D01*
X029717Y012018D01*
X029539Y011945D01*
X029404Y011809D01*
X029331Y011632D01*
X029331Y010847D01*
X029362Y010771D01*
X028515Y009925D01*
X024810Y009925D01*
X024210Y010525D01*
X024015Y010525D01*
X021047Y010525D01*
X021047Y011875D01*
X021128Y011795D01*
X021497Y011795D01*
X021757Y012055D01*
X021757Y012424D01*
X021572Y012610D01*
X021690Y012728D01*
X021757Y012891D01*
X021757Y013588D01*
X021690Y013752D01*
X021564Y013877D01*
X021401Y013945D01*
X021224Y013945D01*
X021060Y013877D01*
X020935Y013752D01*
X020867Y013588D01*
X020867Y012891D01*
X020935Y012728D01*
X021053Y012610D01*
X021014Y012570D01*
X020910Y012675D01*
X020410Y013175D01*
X020215Y013175D01*
X019865Y013175D01*
X019727Y013037D01*
X019415Y012725D01*
X019160Y012725D01*
X018757Y013127D01*
X018757Y013588D01*
X018690Y013752D01*
X018564Y013877D01*
X018401Y013945D01*
X018224Y013945D01*
X018060Y013877D01*
X017935Y013752D01*
X017867Y013588D01*
X017867Y012891D01*
X017935Y012728D01*
X018060Y012602D01*
X018224Y012535D01*
X018401Y012535D01*
X018564Y012602D01*
X018591Y012629D01*
X018795Y012425D01*
X015960Y012425D01*
X015260Y013125D01*
X015065Y013125D01*
X014410Y013125D01*
X014230Y013305D01*
X015165Y013305D01*
X015327Y013142D01*
X015367Y013102D01*
X015367Y013055D01*
X015628Y012795D01*
X015997Y012795D01*
X016257Y013055D01*
X016257Y013424D01*
X016368Y013424D01*
X016367Y013424D02*
X016367Y013055D01*
X016628Y012795D01*
X016907Y012795D01*
X016935Y012728D01*
X017060Y012602D01*
X017224Y012535D01*
X017401Y012535D01*
X017564Y012602D01*
X017690Y012728D01*
X017757Y012891D01*
X017757Y013588D01*
X017690Y013752D01*
X017564Y013877D01*
X017401Y013945D01*
X017224Y013945D01*
X017060Y013877D01*
X016935Y013752D01*
X016907Y013685D01*
X016628Y013685D01*
X016367Y013424D01*
X016367Y013376D02*
X016257Y013376D01*
X016257Y013424D02*
X015997Y013685D01*
X015628Y013685D01*
X015539Y013595D01*
X015360Y013775D01*
X015165Y013775D01*
X010265Y013775D01*
X010127Y013637D01*
X009565Y013075D01*
X009215Y013075D01*
X009077Y012937D01*
X009077Y012742D01*
X009077Y011892D01*
X009215Y011755D01*
X009617Y011352D01*
X009607Y011328D01*
X009607Y011151D01*
X009675Y010988D01*
X009800Y010862D01*
X009964Y010795D01*
X010585Y010795D01*
X010475Y010685D01*
X009964Y010685D01*
X009800Y010617D01*
X009675Y010492D01*
X009668Y010475D01*
X009207Y010475D01*
X008997Y010685D01*
X008628Y010685D01*
X008367Y010424D01*
X008367Y010055D01*
X008628Y009795D01*
X008997Y009795D01*
X009207Y010005D01*
X009668Y010005D01*
X009675Y009988D01*
X009800Y009862D01*
X009964Y009795D01*
X010661Y009795D01*
X010824Y009862D01*
X010950Y009988D01*
X011017Y010151D01*
X011017Y010328D01*
X010950Y010492D01*
X010948Y010493D01*
X012607Y012152D01*
X012607Y012151D01*
X012675Y011988D01*
X012800Y011862D01*
X012964Y011795D01*
X013661Y011795D01*
X013671Y011799D01*
X013827Y011642D01*
X013965Y011505D01*
X014615Y011505D01*
X015867Y010252D01*
X015867Y010055D01*
X016128Y009795D01*
X016497Y009795D01*
X016757Y010055D01*
X016757Y010424D01*
X016497Y010685D01*
X016128Y010685D01*
X016114Y010670D01*
X014810Y011975D01*
X014615Y011975D01*
X014160Y011975D01*
X014007Y012127D01*
X014017Y012151D01*
X014017Y012328D01*
X013950Y012492D01*
X013824Y012617D01*
X013661Y012685D01*
X013140Y012685D01*
X013160Y012705D01*
X013765Y012705D01*
X013977Y012492D01*
X014115Y012355D01*
X014465Y012355D01*
X015265Y011555D01*
X015460Y011555D01*
X019577Y011555D01*
X019577Y008642D01*
X019715Y008505D01*
X019867Y008352D01*
X019867Y008055D01*
X019948Y007975D01*
X019910Y007975D01*
X018757Y009127D01*
X018757Y009588D01*
X018690Y009752D01*
X018564Y009877D01*
X018401Y009945D01*
X018224Y009945D01*
X018060Y009877D01*
X017935Y009752D01*
X017867Y009588D01*
X017867Y008891D01*
X017935Y008728D01*
X018060Y008602D01*
X018224Y008535D01*
X018401Y008535D01*
X018564Y008602D01*
X018591Y008629D01*
X019577Y007642D01*
X019715Y007505D01*
X019948Y007505D01*
X019918Y007475D01*
X018215Y007475D01*
X018077Y007337D01*
X017765Y007025D01*
X017727Y007025D01*
X017757Y007055D01*
X017757Y007424D01*
X017497Y007685D01*
X017200Y007685D01*
X015747Y009137D01*
X015747Y009992D01*
X015747Y010187D01*
X015610Y010325D01*
X015560Y010325D01*
X014547Y011337D01*
X014410Y011475D01*
X013957Y011475D01*
X013950Y011492D01*
X013824Y011617D01*
X013661Y011685D01*
X012964Y011685D01*
X012800Y011617D01*
X012675Y011492D01*
X012607Y011328D01*
X012607Y011151D01*
X012675Y010988D01*
X012800Y010862D01*
X012964Y010795D01*
X013661Y010795D01*
X013824Y010862D01*
X013950Y010988D01*
X013957Y011005D01*
X014215Y011005D01*
X015277Y009942D01*
X015277Y008942D01*
X015415Y008805D01*
X016867Y007352D01*
X016867Y007055D01*
X017053Y006870D01*
X017034Y006850D01*
X016757Y007127D01*
X016757Y007424D01*
X016497Y007685D01*
X016128Y007685D01*
X015867Y007424D01*
X015867Y007055D01*
X016128Y006795D01*
X016425Y006795D01*
X016867Y006352D01*
X016867Y005891D01*
X016935Y005728D01*
X017060Y005602D01*
X017224Y005535D01*
X017225Y005535D01*
X017215Y005525D01*
X015610Y005525D01*
X014007Y007127D01*
X014017Y007151D01*
X014017Y007328D01*
X013950Y007492D01*
X013824Y007617D01*
X013661Y007685D01*
X012964Y007685D01*
X012800Y007617D01*
X012675Y007492D01*
X012607Y007328D01*
X012607Y007151D01*
X012675Y006988D01*
X012800Y006862D01*
X012964Y006795D01*
X013661Y006795D01*
X013671Y006799D01*
X015245Y005225D01*
X014910Y005225D01*
X014007Y006127D01*
X014017Y006151D01*
X014017Y006328D01*
X013950Y006492D01*
X013824Y006617D01*
X013661Y006685D01*
X012964Y006685D01*
X012800Y006617D01*
X012675Y006492D01*
X012607Y006328D01*
X012607Y006151D01*
X012675Y005988D01*
X012800Y005862D01*
X012964Y005795D01*
X013661Y005795D01*
X013671Y005799D01*
X014715Y004755D01*
X014910Y004755D01*
X019465Y004755D01*
X019867Y004352D01*
X019867Y004055D01*
X019867Y004104D02*
X017757Y004104D01*
X017757Y004152D02*
X019867Y004152D01*
X019867Y004201D02*
X017757Y004201D01*
X017757Y004249D02*
X019867Y004249D01*
X019867Y004298D02*
X017757Y004298D01*
X017757Y004346D02*
X019867Y004346D01*
X019825Y004395D02*
X017757Y004395D01*
X017757Y004424D02*
X017497Y004685D01*
X017128Y004685D01*
X016867Y004424D01*
X016867Y004055D01*
X016867Y004104D02*
X016757Y004104D01*
X016757Y004152D02*
X016867Y004152D01*
X016867Y004201D02*
X016757Y004201D01*
X016757Y004249D02*
X016867Y004249D01*
X016867Y004298D02*
X016757Y004298D01*
X016757Y004346D02*
X016867Y004346D01*
X016867Y004395D02*
X016757Y004395D01*
X016757Y004424D02*
X016497Y004685D01*
X016128Y004685D01*
X016018Y004575D01*
X015965Y004575D01*
X014560Y004575D01*
X014007Y005127D01*
X014017Y005151D01*
X014017Y005328D01*
X013950Y005492D01*
X013824Y005617D01*
X013661Y005685D01*
X012964Y005685D01*
X012800Y005617D01*
X012675Y005492D01*
X012607Y005328D01*
X012607Y005151D01*
X012675Y004988D01*
X012800Y004862D01*
X012685Y004978D02*
X011897Y004978D01*
X011897Y005026D02*
X012659Y005026D01*
X012639Y005075D02*
X011897Y005075D01*
X011897Y005123D02*
X012619Y005123D01*
X012607Y005172D02*
X011897Y005172D01*
X011897Y005220D02*
X012607Y005220D01*
X012607Y005269D02*
X011897Y005269D01*
X011867Y005317D02*
X012607Y005317D01*
X012623Y005366D02*
X011819Y005366D01*
X011770Y005414D02*
X012643Y005414D01*
X012663Y005463D02*
X011818Y005463D01*
X011867Y005511D02*
X012695Y005511D01*
X012744Y005560D02*
X011915Y005560D01*
X011964Y005609D02*
X012792Y005609D01*
X012897Y005657D02*
X011997Y005657D01*
X011997Y005706D02*
X013764Y005706D01*
X013727Y005657D02*
X013813Y005657D01*
X013833Y005609D02*
X013861Y005609D01*
X013881Y005560D02*
X013910Y005560D01*
X013930Y005511D02*
X013958Y005511D01*
X013962Y005463D02*
X014007Y005463D01*
X013982Y005414D02*
X014055Y005414D01*
X014104Y005366D02*
X014002Y005366D01*
X014017Y005317D02*
X014152Y005317D01*
X014201Y005269D02*
X014017Y005269D01*
X014017Y005220D02*
X014250Y005220D01*
X014298Y005172D02*
X014017Y005172D01*
X014011Y005123D02*
X014347Y005123D01*
X014395Y005075D02*
X014060Y005075D01*
X014108Y005026D02*
X014444Y005026D01*
X014492Y004978D02*
X014157Y004978D01*
X014205Y004929D02*
X014541Y004929D01*
X014589Y004880D02*
X014254Y004880D01*
X014303Y004832D02*
X014638Y004832D01*
X014686Y004783D02*
X014351Y004783D01*
X014400Y004735D02*
X019485Y004735D01*
X019534Y004686D02*
X014448Y004686D01*
X014497Y004638D02*
X016081Y004638D01*
X016033Y004589D02*
X014545Y004589D01*
X014123Y004346D02*
X014010Y004346D01*
X014017Y004298D02*
X014172Y004298D01*
X014220Y004249D02*
X014017Y004249D01*
X014017Y004201D02*
X014269Y004201D01*
X014317Y004152D02*
X014017Y004152D01*
X013998Y004104D02*
X015867Y004104D01*
X015868Y004055D02*
X013978Y004055D01*
X013958Y004007D02*
X015916Y004007D01*
X015965Y003958D02*
X013926Y003958D01*
X013975Y003910D02*
X016013Y003910D01*
X016062Y003861D02*
X014023Y003861D01*
X014072Y003812D02*
X016110Y003812D01*
X016515Y003812D02*
X016996Y003812D01*
X016947Y003764D02*
X014120Y003764D01*
X014169Y003715D02*
X016920Y003715D01*
X016900Y003667D02*
X014218Y003667D01*
X014247Y003618D02*
X016880Y003618D01*
X016867Y003570D02*
X014247Y003570D01*
X014247Y003521D02*
X016867Y003521D01*
X016867Y003473D02*
X014247Y003473D01*
X014247Y003424D02*
X016867Y003424D01*
X016867Y003376D02*
X014247Y003376D01*
X014247Y003327D02*
X016867Y003327D01*
X016867Y003279D02*
X014247Y003279D01*
X014247Y003230D02*
X016867Y003230D01*
X016867Y003181D02*
X014247Y003181D01*
X014247Y003133D02*
X016867Y003133D01*
X016867Y003084D02*
X014247Y003084D01*
X014247Y003036D02*
X016867Y003036D01*
X016867Y002987D02*
X014247Y002987D01*
X014247Y002939D02*
X016867Y002939D01*
X016868Y002890D02*
X014247Y002890D01*
X014247Y002842D02*
X016888Y002842D01*
X016908Y002793D02*
X014247Y002793D01*
X014247Y002745D02*
X016928Y002745D01*
X016967Y002696D02*
X014247Y002696D01*
X014247Y002647D02*
X017015Y002647D01*
X017069Y002599D02*
X014247Y002599D01*
X014247Y002550D02*
X017186Y002550D01*
X017439Y002550D02*
X018186Y002550D01*
X018224Y002535D02*
X018060Y002602D01*
X017935Y002728D01*
X017867Y002891D01*
X017867Y003588D01*
X017935Y003752D01*
X018060Y003877D01*
X018224Y003945D01*
X018401Y003945D01*
X018564Y003877D01*
X018690Y003752D01*
X018757Y003588D01*
X018757Y003127D01*
X019460Y002425D01*
X022795Y002425D01*
X022591Y002629D01*
X022564Y002602D01*
X022401Y002535D01*
X022224Y002535D01*
X022060Y002602D01*
X021935Y002728D01*
X021867Y002891D01*
X021867Y003588D01*
X021935Y003752D01*
X022060Y003877D01*
X022224Y003945D01*
X022401Y003945D01*
X022564Y003877D01*
X022690Y003752D01*
X022757Y003588D01*
X022757Y003127D01*
X023160Y002725D01*
X030815Y002725D01*
X032362Y004271D01*
X032331Y004347D01*
X032331Y005132D01*
X032404Y005309D01*
X032539Y005445D01*
X032717Y005518D01*
X032908Y005518D01*
X033085Y005445D01*
X033221Y005309D01*
X033294Y005132D01*
X033294Y004347D01*
X033221Y004170D01*
X033085Y004034D01*
X032908Y003961D01*
X032717Y003961D01*
X032716Y003961D01*
X031180Y002425D01*
X034015Y002425D01*
X035862Y004271D01*
X035831Y004347D01*
X035831Y005132D01*
X035904Y005309D01*
X036039Y005445D01*
X036217Y005518D01*
X036408Y005518D01*
X036585Y005445D01*
X036721Y005309D01*
X036794Y005132D01*
X036794Y004347D01*
X036721Y004170D01*
X036585Y004034D01*
X036408Y003961D01*
X036217Y003961D01*
X036216Y003961D01*
X034210Y001955D01*
X034015Y001955D01*
X019265Y001955D01*
X019127Y002092D01*
X018591Y002629D01*
X018564Y002602D01*
X018401Y002535D01*
X018224Y002535D01*
X018069Y002599D02*
X017556Y002599D01*
X017609Y002647D02*
X018015Y002647D01*
X017967Y002696D02*
X017658Y002696D01*
X017697Y002745D02*
X017928Y002745D01*
X017908Y002793D02*
X017717Y002793D01*
X017737Y002842D02*
X017888Y002842D01*
X017868Y002890D02*
X017757Y002890D01*
X017757Y002939D02*
X017867Y002939D01*
X017867Y002987D02*
X017757Y002987D01*
X017757Y003036D02*
X017867Y003036D01*
X017867Y003084D02*
X017757Y003084D01*
X017757Y003133D02*
X017867Y003133D01*
X017867Y003181D02*
X017757Y003181D01*
X017757Y003230D02*
X017867Y003230D01*
X017867Y003279D02*
X017757Y003279D01*
X017757Y003327D02*
X017867Y003327D01*
X017867Y003376D02*
X017757Y003376D01*
X017757Y003424D02*
X017867Y003424D01*
X017867Y003473D02*
X017757Y003473D01*
X017757Y003521D02*
X017867Y003521D01*
X017867Y003570D02*
X017757Y003570D01*
X017745Y003618D02*
X017880Y003618D01*
X017900Y003667D02*
X017725Y003667D01*
X017705Y003715D02*
X017920Y003715D01*
X017947Y003764D02*
X017677Y003764D01*
X017629Y003812D02*
X017996Y003812D01*
X018044Y003861D02*
X017580Y003861D01*
X017612Y003910D02*
X018139Y003910D01*
X018486Y003910D02*
X020013Y003910D01*
X019965Y003958D02*
X017660Y003958D01*
X017709Y004007D02*
X019916Y004007D01*
X020062Y003861D02*
X018580Y003861D01*
X018629Y003812D02*
X020110Y003812D01*
X020515Y003812D02*
X020996Y003812D01*
X020947Y003764D02*
X018677Y003764D01*
X018705Y003715D02*
X020920Y003715D01*
X020900Y003667D02*
X018725Y003667D01*
X018745Y003618D02*
X020880Y003618D01*
X020867Y003570D02*
X018757Y003570D01*
X018757Y003521D02*
X020867Y003521D01*
X020867Y003473D02*
X018757Y003473D01*
X018757Y003424D02*
X020867Y003424D01*
X020867Y003376D02*
X018757Y003376D01*
X018757Y003327D02*
X020867Y003327D01*
X020867Y003279D02*
X018757Y003279D01*
X018757Y003230D02*
X020867Y003230D01*
X020867Y003181D02*
X018757Y003181D01*
X018757Y003133D02*
X020867Y003133D01*
X020867Y003084D02*
X018800Y003084D01*
X018849Y003036D02*
X020867Y003036D01*
X020867Y002987D02*
X018897Y002987D01*
X018946Y002939D02*
X020867Y002939D01*
X020868Y002890D02*
X018994Y002890D01*
X019043Y002842D02*
X020888Y002842D01*
X020908Y002793D02*
X019091Y002793D01*
X019140Y002745D02*
X020928Y002745D01*
X020967Y002696D02*
X019188Y002696D01*
X019237Y002647D02*
X021015Y002647D01*
X021069Y002599D02*
X019286Y002599D01*
X019334Y002550D02*
X021186Y002550D01*
X021439Y002550D02*
X022186Y002550D01*
X022069Y002599D02*
X021556Y002599D01*
X021609Y002647D02*
X022015Y002647D01*
X021967Y002696D02*
X021658Y002696D01*
X021697Y002745D02*
X021928Y002745D01*
X021908Y002793D02*
X021717Y002793D01*
X021737Y002842D02*
X021888Y002842D01*
X021868Y002890D02*
X021757Y002890D01*
X021757Y002939D02*
X021867Y002939D01*
X021867Y002987D02*
X021757Y002987D01*
X021757Y003036D02*
X021867Y003036D01*
X021867Y003084D02*
X021757Y003084D01*
X021757Y003133D02*
X021867Y003133D01*
X021867Y003181D02*
X021757Y003181D01*
X021757Y003230D02*
X021867Y003230D01*
X021867Y003279D02*
X021757Y003279D01*
X021757Y003327D02*
X021867Y003327D01*
X021867Y003376D02*
X021757Y003376D01*
X021757Y003424D02*
X021867Y003424D01*
X021867Y003473D02*
X021757Y003473D01*
X021757Y003521D02*
X021867Y003521D01*
X021867Y003570D02*
X021757Y003570D01*
X021745Y003618D02*
X021880Y003618D01*
X021900Y003667D02*
X021725Y003667D01*
X021705Y003715D02*
X021920Y003715D01*
X021947Y003764D02*
X021677Y003764D01*
X021629Y003812D02*
X021996Y003812D01*
X022044Y003861D02*
X021580Y003861D01*
X021612Y003910D02*
X022139Y003910D01*
X022486Y003910D02*
X024960Y003910D01*
X024912Y003958D02*
X021660Y003958D01*
X021709Y004007D02*
X024606Y004007D01*
X025009Y003861D02*
X022580Y003861D01*
X022629Y003812D02*
X025057Y003812D01*
X025106Y003764D02*
X022677Y003764D01*
X022705Y003715D02*
X025154Y003715D01*
X025203Y003667D02*
X022725Y003667D01*
X022745Y003618D02*
X025251Y003618D01*
X025300Y003570D02*
X022757Y003570D01*
X022757Y003521D02*
X025349Y003521D01*
X025397Y003473D02*
X022757Y003473D01*
X022757Y003424D02*
X031515Y003424D01*
X031563Y003473D02*
X030428Y003473D01*
X030476Y003521D02*
X031612Y003521D01*
X031660Y003570D02*
X030525Y003570D01*
X030573Y003618D02*
X031709Y003618D01*
X031757Y003667D02*
X030622Y003667D01*
X030670Y003715D02*
X031806Y003715D01*
X031854Y003764D02*
X030719Y003764D01*
X030768Y003812D02*
X031903Y003812D01*
X031951Y003861D02*
X030816Y003861D01*
X030865Y003910D02*
X032000Y003910D01*
X032049Y003958D02*
X030913Y003958D01*
X030962Y004007D02*
X031606Y004007D01*
X031519Y004055D02*
X031010Y004055D01*
X031059Y004104D02*
X031470Y004104D01*
X031422Y004152D02*
X031107Y004152D01*
X031156Y004201D02*
X031391Y004201D01*
X031371Y004249D02*
X031204Y004249D01*
X031253Y004298D02*
X031351Y004298D01*
X031331Y004346D02*
X031301Y004346D01*
X030880Y004589D02*
X029794Y004589D01*
X029794Y004541D02*
X030831Y004541D01*
X030783Y004492D02*
X029794Y004492D01*
X029794Y004444D02*
X030734Y004444D01*
X030685Y004395D02*
X029794Y004395D01*
X029794Y004347D02*
X029794Y005132D01*
X029721Y005309D01*
X029585Y005445D01*
X029408Y005518D01*
X029217Y005518D01*
X029216Y005518D01*
X027510Y007225D01*
X027315Y007225D01*
X022965Y007225D01*
X022827Y007087D01*
X022591Y006850D01*
X022564Y006877D01*
X022401Y006945D01*
X022224Y006945D01*
X022060Y006877D01*
X021935Y006752D01*
X021867Y006588D01*
X021867Y005891D01*
X021935Y005728D01*
X022060Y005602D01*
X022224Y005535D01*
X022401Y005535D01*
X022564Y005602D01*
X022690Y005728D01*
X022757Y005891D01*
X022757Y006352D01*
X023160Y006755D01*
X027315Y006755D01*
X028862Y005208D01*
X028831Y005132D01*
X028831Y004347D01*
X028904Y004170D01*
X029039Y004034D01*
X029217Y003961D01*
X029408Y003961D01*
X029585Y004034D01*
X029721Y004170D01*
X029794Y004347D01*
X029794Y004346D02*
X030637Y004346D01*
X030588Y004298D02*
X029774Y004298D01*
X029754Y004249D02*
X030540Y004249D01*
X030491Y004201D02*
X029734Y004201D01*
X029703Y004152D02*
X030443Y004152D01*
X030394Y004104D02*
X029655Y004104D01*
X029606Y004055D02*
X030346Y004055D01*
X030297Y004007D02*
X029519Y004007D01*
X029106Y004007D02*
X029028Y004007D01*
X029019Y004055D02*
X028979Y004055D01*
X028970Y004104D02*
X028931Y004104D01*
X028922Y004152D02*
X028882Y004152D01*
X028891Y004201D02*
X028834Y004201D01*
X028871Y004249D02*
X028785Y004249D01*
X028774Y004298D02*
X028851Y004298D01*
X028831Y004346D02*
X028794Y004346D01*
X028794Y004395D02*
X028831Y004395D01*
X028831Y004444D02*
X028794Y004444D01*
X028794Y004492D02*
X028831Y004492D01*
X028831Y004541D02*
X028794Y004541D01*
X028794Y004589D02*
X028831Y004589D01*
X028831Y004638D02*
X028794Y004638D01*
X028794Y004686D02*
X028831Y004686D01*
X028831Y004735D02*
X028794Y004735D01*
X028794Y004783D02*
X028831Y004783D01*
X028831Y004832D02*
X028794Y004832D01*
X028794Y004880D02*
X028831Y004880D01*
X028831Y004929D02*
X028794Y004929D01*
X028794Y004978D02*
X028831Y004978D01*
X028831Y005026D02*
X028794Y005026D01*
X028794Y005075D02*
X028831Y005075D01*
X028831Y005123D02*
X028794Y005123D01*
X028778Y005172D02*
X028847Y005172D01*
X028850Y005220D02*
X028758Y005220D01*
X028738Y005269D02*
X028801Y005269D01*
X028752Y005317D02*
X028713Y005317D01*
X028704Y005366D02*
X028664Y005366D01*
X028655Y005414D02*
X028616Y005414D01*
X028607Y005463D02*
X028542Y005463D01*
X028558Y005511D02*
X028425Y005511D01*
X028510Y005560D02*
X025674Y005560D01*
X025626Y005609D02*
X028461Y005609D01*
X028413Y005657D02*
X025577Y005657D01*
X025529Y005706D02*
X028364Y005706D01*
X028316Y005754D02*
X025480Y005754D01*
X025432Y005803D02*
X028267Y005803D01*
X028218Y005851D02*
X025383Y005851D01*
X025335Y005900D02*
X028170Y005900D01*
X028121Y005948D02*
X025286Y005948D01*
X025237Y005997D02*
X028073Y005997D01*
X028024Y006045D02*
X022757Y006045D01*
X022757Y005997D02*
X024387Y005997D01*
X024339Y005948D02*
X022757Y005948D01*
X022757Y005900D02*
X024290Y005900D01*
X024242Y005851D02*
X022741Y005851D01*
X022721Y005803D02*
X024193Y005803D01*
X024145Y005754D02*
X022701Y005754D01*
X022668Y005706D02*
X024096Y005706D01*
X024048Y005657D02*
X022619Y005657D01*
X022571Y005609D02*
X023999Y005609D01*
X023950Y005560D02*
X022462Y005560D01*
X022163Y005560D02*
X021462Y005560D01*
X021571Y005609D02*
X022054Y005609D01*
X022006Y005657D02*
X021619Y005657D01*
X021668Y005706D02*
X021957Y005706D01*
X021924Y005754D02*
X021701Y005754D01*
X021721Y005803D02*
X021904Y005803D01*
X021884Y005851D02*
X021741Y005851D01*
X021757Y005900D02*
X021867Y005900D01*
X021867Y005948D02*
X021757Y005948D01*
X021757Y005997D02*
X021867Y005997D01*
X021867Y006045D02*
X021757Y006045D01*
X021757Y006094D02*
X021867Y006094D01*
X021867Y006143D02*
X021757Y006143D01*
X021757Y006191D02*
X021867Y006191D01*
X021867Y006240D02*
X021757Y006240D01*
X021757Y006288D02*
X021867Y006288D01*
X021867Y006337D02*
X021757Y006337D01*
X021757Y006385D02*
X021867Y006385D01*
X021867Y006434D02*
X021757Y006434D01*
X021757Y006482D02*
X021867Y006482D01*
X021867Y006531D02*
X021757Y006531D01*
X021757Y006579D02*
X021867Y006579D01*
X021884Y006628D02*
X021741Y006628D01*
X021721Y006677D02*
X021904Y006677D01*
X021924Y006725D02*
X021701Y006725D01*
X021668Y006774D02*
X021957Y006774D01*
X022006Y006822D02*
X021619Y006822D01*
X021573Y006871D02*
X022054Y006871D01*
X022163Y006919D02*
X021621Y006919D01*
X021670Y006968D02*
X022708Y006968D01*
X022660Y006919D02*
X022462Y006919D01*
X022571Y006871D02*
X022611Y006871D01*
X022757Y007016D02*
X021718Y007016D01*
X021757Y007065D02*
X022805Y007065D01*
X022854Y007113D02*
X021757Y007113D01*
X021757Y007162D02*
X022902Y007162D01*
X022951Y007211D02*
X021757Y007211D01*
X021757Y007259D02*
X035450Y007259D01*
X035498Y007308D02*
X021757Y007308D01*
X021757Y007356D02*
X035547Y007356D01*
X035595Y007405D02*
X021757Y007405D01*
X021728Y007453D02*
X035644Y007453D01*
X035692Y007502D02*
X021680Y007502D01*
X020945Y007502D02*
X020680Y007502D01*
X020728Y007453D02*
X020897Y007453D01*
X020867Y007405D02*
X020757Y007405D01*
X020757Y007356D02*
X020867Y007356D01*
X020867Y007308D02*
X020757Y007308D01*
X020757Y007259D02*
X020867Y007259D01*
X020867Y007211D02*
X020757Y007211D01*
X020757Y007162D02*
X020867Y007162D01*
X020867Y007113D02*
X020757Y007113D01*
X020757Y007065D02*
X020867Y007065D01*
X020906Y007016D02*
X020718Y007016D01*
X020670Y006968D02*
X020955Y006968D01*
X021004Y006919D02*
X020621Y006919D01*
X020573Y006871D02*
X021052Y006871D01*
X021006Y006822D02*
X020524Y006822D01*
X020904Y006677D02*
X018721Y006677D01*
X018701Y006725D02*
X020924Y006725D01*
X020957Y006774D02*
X018668Y006774D01*
X018619Y006822D02*
X020101Y006822D01*
X020052Y006871D02*
X018571Y006871D01*
X018462Y006919D02*
X020004Y006919D01*
X019955Y006968D02*
X018373Y006968D01*
X017951Y007211D02*
X017757Y007211D01*
X017757Y007259D02*
X017999Y007259D01*
X018048Y007308D02*
X017757Y007308D01*
X017757Y007356D02*
X018097Y007356D01*
X018145Y007405D02*
X017757Y007405D01*
X017728Y007453D02*
X018194Y007453D01*
X017680Y007502D02*
X019945Y007502D01*
X019669Y007550D02*
X017631Y007550D01*
X017583Y007599D02*
X019621Y007599D01*
X019577Y007642D02*
X019577Y007642D01*
X019572Y007647D02*
X017534Y007647D01*
X017188Y007696D02*
X019524Y007696D01*
X019475Y007744D02*
X017140Y007744D01*
X017091Y007793D02*
X019427Y007793D01*
X019378Y007842D02*
X017043Y007842D01*
X016994Y007890D02*
X019330Y007890D01*
X019281Y007939D02*
X016946Y007939D01*
X016897Y007987D02*
X019233Y007987D01*
X019184Y008036D02*
X016849Y008036D01*
X016800Y008084D02*
X019136Y008084D01*
X019087Y008133D02*
X016752Y008133D01*
X016703Y008181D02*
X019038Y008181D01*
X018990Y008230D02*
X016654Y008230D01*
X016606Y008278D02*
X018941Y008278D01*
X018893Y008327D02*
X016557Y008327D01*
X016509Y008376D02*
X018844Y008376D01*
X018796Y008424D02*
X016460Y008424D01*
X016412Y008473D02*
X018747Y008473D01*
X018699Y008521D02*
X016363Y008521D01*
X016315Y008570D02*
X017139Y008570D01*
X017060Y008602D02*
X017224Y008535D01*
X017401Y008535D01*
X017564Y008602D01*
X017690Y008728D01*
X017757Y008891D01*
X017757Y009588D01*
X017690Y009752D01*
X017572Y009870D01*
X017757Y010055D01*
X017757Y010424D01*
X017497Y010685D01*
X017128Y010685D01*
X016867Y010424D01*
X016867Y010055D01*
X017053Y009870D01*
X016935Y009752D01*
X016867Y009588D01*
X016867Y008891D01*
X016935Y008728D01*
X017060Y008602D01*
X017045Y008618D02*
X016266Y008618D01*
X016218Y008667D02*
X016996Y008667D01*
X016947Y008715D02*
X016169Y008715D01*
X016121Y008764D02*
X016920Y008764D01*
X016900Y008812D02*
X016072Y008812D01*
X016023Y008861D02*
X016880Y008861D01*
X016867Y008910D02*
X015975Y008910D01*
X015926Y008958D02*
X016867Y008958D01*
X016867Y009007D02*
X015878Y009007D01*
X015829Y009055D02*
X016867Y009055D01*
X016867Y009104D02*
X015781Y009104D01*
X015747Y009152D02*
X016867Y009152D01*
X016867Y009201D02*
X015747Y009201D01*
X015747Y009249D02*
X016867Y009249D01*
X016867Y009298D02*
X015747Y009298D01*
X015747Y009346D02*
X016867Y009346D01*
X016867Y009395D02*
X015747Y009395D01*
X015747Y009444D02*
X016867Y009444D01*
X016867Y009492D02*
X015747Y009492D01*
X015747Y009541D02*
X016867Y009541D01*
X016868Y009589D02*
X015747Y009589D01*
X015747Y009638D02*
X016888Y009638D01*
X016908Y009686D02*
X015747Y009686D01*
X015747Y009735D02*
X016928Y009735D01*
X016967Y009783D02*
X015747Y009783D01*
X015747Y009832D02*
X016091Y009832D01*
X016042Y009880D02*
X015747Y009880D01*
X015747Y009929D02*
X015994Y009929D01*
X015945Y009977D02*
X015747Y009977D01*
X015747Y010026D02*
X015897Y010026D01*
X015867Y010075D02*
X015747Y010075D01*
X015747Y010123D02*
X015867Y010123D01*
X015867Y010172D02*
X015747Y010172D01*
X015714Y010220D02*
X015867Y010220D01*
X015851Y010269D02*
X015666Y010269D01*
X015617Y010317D02*
X015802Y010317D01*
X015754Y010366D02*
X015519Y010366D01*
X015470Y010414D02*
X015705Y010414D01*
X015657Y010463D02*
X015421Y010463D01*
X015373Y010511D02*
X015608Y010511D01*
X015560Y010560D02*
X015324Y010560D01*
X015276Y010609D02*
X015511Y010609D01*
X015463Y010657D02*
X015227Y010657D01*
X015179Y010706D02*
X015414Y010706D01*
X015366Y010754D02*
X015130Y010754D01*
X015082Y010803D02*
X015317Y010803D01*
X015269Y010851D02*
X015033Y010851D01*
X014985Y010900D02*
X015220Y010900D01*
X015171Y010948D02*
X014936Y010948D01*
X014888Y010997D02*
X015123Y010997D01*
X015074Y011045D02*
X014839Y011045D01*
X014790Y011094D02*
X015026Y011094D01*
X014977Y011143D02*
X014742Y011143D01*
X014693Y011191D02*
X014929Y011191D01*
X014880Y011240D02*
X014645Y011240D01*
X014596Y011288D02*
X014832Y011288D01*
X014783Y011337D02*
X014548Y011337D01*
X014499Y011385D02*
X014735Y011385D01*
X014686Y011434D02*
X014451Y011434D01*
X014637Y011482D02*
X013954Y011482D01*
X013939Y011531D02*
X013911Y011531D01*
X013890Y011579D02*
X013862Y011579D01*
X013842Y011628D02*
X013798Y011628D01*
X013793Y011676D02*
X013681Y011676D01*
X013745Y011725D02*
X012180Y011725D01*
X012132Y011676D02*
X012944Y011676D01*
X012827Y011628D02*
X012083Y011628D01*
X012034Y011579D02*
X012763Y011579D01*
X012714Y011531D02*
X011986Y011531D01*
X011937Y011482D02*
X012671Y011482D01*
X012651Y011434D02*
X011889Y011434D01*
X011840Y011385D02*
X012631Y011385D01*
X012611Y011337D02*
X011792Y011337D01*
X011743Y011288D02*
X012607Y011288D01*
X012607Y011240D02*
X011695Y011240D01*
X011646Y011191D02*
X012607Y011191D01*
X012611Y011143D02*
X011598Y011143D01*
X011549Y011094D02*
X012631Y011094D01*
X012651Y011045D02*
X011500Y011045D01*
X011452Y010997D02*
X012671Y010997D01*
X012714Y010948D02*
X011403Y010948D01*
X011355Y010900D02*
X012763Y010900D01*
X012827Y010851D02*
X011306Y010851D01*
X011258Y010803D02*
X012944Y010803D01*
X012964Y010685D02*
X012800Y010617D01*
X012675Y010492D01*
X012607Y010328D01*
X012607Y010151D01*
X012675Y009988D01*
X012800Y009862D01*
X012964Y009795D01*
X013661Y009795D01*
X013824Y009862D01*
X013950Y009988D01*
X013957Y010005D01*
X014215Y010005D01*
X014376Y009843D01*
X014370Y009828D01*
X014370Y009652D01*
X014437Y009489D01*
X014562Y009365D01*
X014724Y009297D01*
X014900Y009297D01*
X015063Y009365D01*
X015188Y009489D01*
X015255Y009652D01*
X015255Y009828D01*
X015188Y009990D01*
X015063Y010115D01*
X014900Y010182D01*
X014724Y010182D01*
X014709Y010176D01*
X014547Y010337D01*
X014410Y010475D01*
X013957Y010475D01*
X013950Y010492D01*
X013824Y010617D01*
X013661Y010685D01*
X012964Y010685D01*
X012897Y010657D02*
X011112Y010657D01*
X011064Y010609D02*
X012792Y010609D01*
X012743Y010560D02*
X011015Y010560D01*
X010966Y010511D02*
X012695Y010511D01*
X012663Y010463D02*
X010962Y010463D01*
X010982Y010414D02*
X011608Y010414D01*
X011559Y010366D02*
X011002Y010366D01*
X011017Y010317D02*
X011511Y010317D01*
X011462Y010269D02*
X011017Y010269D01*
X011017Y010220D02*
X011414Y010220D01*
X011367Y010172D02*
X011017Y010172D01*
X011006Y010123D02*
X011114Y010123D01*
X011065Y010075D02*
X010986Y010075D01*
X010966Y010026D02*
X011016Y010026D01*
X010968Y009977D02*
X010940Y009977D01*
X010919Y009929D02*
X010891Y009929D01*
X010871Y009880D02*
X010842Y009880D01*
X010822Y009832D02*
X010751Y009832D01*
X010774Y009783D02*
X008601Y009783D01*
X008591Y009832D02*
X008553Y009832D01*
X008542Y009880D02*
X008504Y009880D01*
X008494Y009929D02*
X008455Y009929D01*
X008445Y009977D02*
X008407Y009977D01*
X008397Y010026D02*
X008358Y010026D01*
X008367Y010075D02*
X008310Y010075D01*
X008261Y010123D02*
X008367Y010123D01*
X008367Y010172D02*
X008213Y010172D01*
X008164Y010220D02*
X008367Y010220D01*
X008367Y010269D02*
X008116Y010269D01*
X008067Y010317D02*
X008367Y010317D01*
X008367Y010366D02*
X008019Y010366D01*
X007970Y010414D02*
X008367Y010414D01*
X008406Y010463D02*
X007921Y010463D01*
X007873Y010511D02*
X008455Y010511D01*
X008503Y010560D02*
X007824Y010560D01*
X007776Y010609D02*
X008552Y010609D01*
X008601Y010657D02*
X007727Y010657D01*
X007679Y010706D02*
X010496Y010706D01*
X010545Y010754D02*
X007630Y010754D01*
X007582Y010803D02*
X009944Y010803D01*
X009827Y010851D02*
X007533Y010851D01*
X007485Y010900D02*
X009763Y010900D01*
X009714Y010948D02*
X007436Y010948D01*
X007387Y010997D02*
X009671Y010997D01*
X009651Y011045D02*
X007339Y011045D01*
X007290Y011094D02*
X009631Y011094D01*
X009611Y011143D02*
X007242Y011143D01*
X007193Y011191D02*
X009607Y011191D01*
X009607Y011240D02*
X007145Y011240D01*
X007096Y011288D02*
X009607Y011288D01*
X009611Y011337D02*
X007048Y011337D01*
X006999Y011385D02*
X009585Y011385D01*
X009536Y011434D02*
X006951Y011434D01*
X006480Y011240D02*
X003847Y011240D01*
X003847Y011288D02*
X006432Y011288D01*
X006383Y011337D02*
X003847Y011337D01*
X003847Y011385D02*
X006335Y011385D01*
X006286Y011434D02*
X003847Y011434D01*
X003847Y011482D02*
X005737Y011482D01*
X005689Y011531D02*
X003847Y011531D01*
X003847Y011579D02*
X005640Y011579D01*
X005592Y011628D02*
X003847Y011628D01*
X003847Y011676D02*
X005543Y011676D01*
X005495Y011725D02*
X003847Y011725D01*
X003847Y011774D02*
X005446Y011774D01*
X005101Y011822D02*
X003847Y011822D01*
X003847Y011871D02*
X005052Y011871D01*
X005004Y011919D02*
X003847Y011919D01*
X003847Y011968D02*
X004955Y011968D01*
X004906Y012016D02*
X003847Y012016D01*
X003847Y012065D02*
X004867Y012065D01*
X004867Y012113D02*
X003847Y012113D01*
X003847Y012162D02*
X004867Y012162D01*
X004867Y012210D02*
X003847Y012210D01*
X003847Y012259D02*
X004867Y012259D01*
X004867Y012308D02*
X003847Y012308D01*
X003847Y012356D02*
X004867Y012356D01*
X004867Y012405D02*
X003847Y012405D01*
X003847Y012453D02*
X004897Y012453D01*
X004945Y012502D02*
X003847Y012502D01*
X003847Y012550D02*
X004994Y012550D01*
X005042Y012599D02*
X003847Y012599D01*
X003377Y012599D02*
X003004Y012599D01*
X003052Y012647D02*
X003377Y012647D01*
X003377Y012696D02*
X003101Y012696D01*
X003150Y012744D02*
X003377Y012744D01*
X003377Y012793D02*
X003198Y012793D01*
X003247Y012842D02*
X003377Y012842D01*
X003377Y012890D02*
X003295Y012890D01*
X003344Y012939D02*
X003379Y012939D01*
X003392Y012987D02*
X003428Y012987D01*
X003410Y013005D02*
X003467Y013062D01*
X003564Y013102D01*
X003690Y013228D01*
X003757Y013391D01*
X003757Y014088D01*
X003690Y014252D01*
X003564Y014377D01*
X003401Y014445D01*
X003224Y014445D01*
X003060Y014377D01*
X002935Y014252D01*
X002867Y014088D01*
X002867Y013391D01*
X002935Y013228D01*
X002952Y013211D01*
X002425Y012685D01*
X002128Y012685D01*
X001867Y012424D01*
X001867Y012055D01*
X002128Y011795D01*
X002497Y011795D01*
X002757Y012055D01*
X002757Y012352D01*
X003410Y013005D01*
X003441Y013036D02*
X003476Y013036D01*
X003521Y013084D02*
X004825Y013084D01*
X004873Y013133D02*
X003595Y013133D01*
X003643Y013181D02*
X004922Y013181D01*
X004970Y013230D02*
X003691Y013230D01*
X003711Y013278D02*
X005019Y013278D01*
X005067Y013327D02*
X003731Y013327D01*
X003751Y013376D02*
X005116Y013376D01*
X005164Y013424D02*
X003757Y013424D01*
X003757Y013473D02*
X005213Y013473D01*
X005262Y013521D02*
X003757Y013521D01*
X003757Y013570D02*
X005310Y013570D01*
X005359Y013618D02*
X003757Y013618D01*
X003757Y013667D02*
X005407Y013667D01*
X005456Y013715D02*
X003757Y013715D01*
X003757Y013764D02*
X005504Y013764D01*
X005553Y013812D02*
X003757Y013812D01*
X003757Y013861D02*
X005601Y013861D01*
X005650Y013909D02*
X003757Y013909D01*
X003757Y013958D02*
X005698Y013958D01*
X005747Y014007D02*
X003757Y014007D01*
X003757Y014055D02*
X005796Y014055D01*
X005975Y013570D02*
X006867Y013570D01*
X006902Y013521D02*
X005926Y013521D01*
X005878Y013473D02*
X006950Y013473D01*
X006999Y013424D02*
X005829Y013424D01*
X005781Y013376D02*
X007047Y013376D01*
X007096Y013327D02*
X005732Y013327D01*
X005684Y013278D02*
X008077Y013278D01*
X008077Y013230D02*
X005635Y013230D01*
X005586Y013181D02*
X008077Y013181D01*
X008077Y013133D02*
X005538Y013133D01*
X005489Y013084D02*
X008077Y013084D01*
X008077Y013036D02*
X005441Y013036D01*
X005392Y012987D02*
X008077Y012987D01*
X008077Y012939D02*
X005344Y012939D01*
X005295Y012890D02*
X008077Y012890D01*
X008077Y012842D02*
X005247Y012842D01*
X005198Y012793D02*
X008077Y012793D01*
X008077Y012744D02*
X005150Y012744D01*
X005101Y012696D02*
X008077Y012696D01*
X008013Y012647D02*
X005534Y012647D01*
X005583Y012599D02*
X007964Y012599D01*
X007916Y012550D02*
X005631Y012550D01*
X005680Y012502D02*
X007880Y012502D01*
X007860Y012453D02*
X005728Y012453D01*
X005757Y012405D02*
X007840Y012405D01*
X007819Y012356D02*
X005757Y012356D01*
X005757Y012308D02*
X007798Y012308D01*
X007749Y012259D02*
X005757Y012259D01*
X005757Y012210D02*
X007701Y012210D01*
X007652Y012162D02*
X005757Y012162D01*
X005771Y012113D02*
X007604Y012113D01*
X007555Y012065D02*
X005820Y012065D01*
X005868Y012016D02*
X007507Y012016D01*
X007458Y011968D02*
X005917Y011968D01*
X007637Y011482D02*
X009487Y011482D01*
X009439Y011531D02*
X007686Y011531D01*
X007734Y011579D02*
X009390Y011579D01*
X009342Y011628D02*
X007783Y011628D01*
X007832Y011676D02*
X009293Y011676D01*
X009245Y011725D02*
X007880Y011725D01*
X007929Y011774D02*
X008131Y011774D01*
X008023Y011822D02*
X007977Y011822D01*
X008494Y011774D02*
X009196Y011774D01*
X009148Y011822D02*
X008602Y011822D01*
X008651Y011871D02*
X009099Y011871D01*
X009077Y011919D02*
X008699Y011919D01*
X008741Y011968D02*
X009077Y011968D01*
X009077Y012016D02*
X008761Y012016D01*
X008781Y012065D02*
X009077Y012065D01*
X009077Y012113D02*
X008801Y012113D01*
X008812Y012162D02*
X009077Y012162D01*
X009077Y012210D02*
X008812Y012210D01*
X008812Y012259D02*
X009077Y012259D01*
X009077Y012308D02*
X008812Y012308D01*
X008805Y012356D02*
X009077Y012356D01*
X009077Y012405D02*
X008785Y012405D01*
X008765Y012453D02*
X009077Y012453D01*
X009077Y012502D02*
X008745Y012502D01*
X008709Y012550D02*
X009077Y012550D01*
X009077Y012599D02*
X008660Y012599D01*
X008612Y012647D02*
X009077Y012647D01*
X009077Y012696D02*
X008547Y012696D01*
X008547Y012744D02*
X009077Y012744D01*
X009077Y012793D02*
X008547Y012793D01*
X008547Y012842D02*
X009077Y012842D01*
X009077Y012890D02*
X008547Y012890D01*
X008547Y012939D02*
X009079Y012939D01*
X009128Y012987D02*
X008547Y012987D01*
X008547Y013036D02*
X009176Y013036D01*
X009575Y013084D02*
X008547Y013084D01*
X008547Y013133D02*
X009623Y013133D01*
X009672Y013181D02*
X008547Y013181D01*
X008547Y013230D02*
X009720Y013230D01*
X009769Y013278D02*
X008547Y013278D01*
X008547Y013327D02*
X009817Y013327D01*
X009866Y013376D02*
X008578Y013376D01*
X008626Y013424D02*
X009914Y013424D01*
X009963Y013473D02*
X008675Y013473D01*
X008723Y013521D02*
X010012Y013521D01*
X010060Y013570D02*
X008757Y013570D01*
X008757Y013618D02*
X010109Y013618D01*
X010157Y013667D02*
X008757Y013667D01*
X008757Y013715D02*
X010206Y013715D01*
X010254Y013764D02*
X008757Y013764D01*
X008757Y013812D02*
X016996Y013812D01*
X016947Y013764D02*
X015371Y013764D01*
X015419Y013715D02*
X016920Y013715D01*
X017044Y013861D02*
X008757Y013861D01*
X008757Y013909D02*
X017139Y013909D01*
X017486Y013909D02*
X018139Y013909D01*
X018044Y013861D02*
X017580Y013861D01*
X017629Y013812D02*
X017996Y013812D01*
X017947Y013764D02*
X017678Y013764D01*
X017705Y013715D02*
X017920Y013715D01*
X017900Y013667D02*
X017725Y013667D01*
X017745Y013618D02*
X017880Y013618D01*
X017867Y013570D02*
X017757Y013570D01*
X017757Y013521D02*
X017867Y013521D01*
X017867Y013473D02*
X017757Y013473D01*
X017757Y013424D02*
X017867Y013424D01*
X017867Y013376D02*
X017757Y013376D01*
X017757Y013327D02*
X017867Y013327D01*
X017867Y013278D02*
X017757Y013278D01*
X017757Y013230D02*
X017867Y013230D01*
X017867Y013181D02*
X017757Y013181D01*
X017757Y013133D02*
X017867Y013133D01*
X017867Y013084D02*
X017757Y013084D01*
X017757Y013036D02*
X017867Y013036D01*
X017867Y012987D02*
X017757Y012987D01*
X017757Y012939D02*
X017867Y012939D01*
X017868Y012890D02*
X017757Y012890D01*
X017737Y012842D02*
X017888Y012842D01*
X017908Y012793D02*
X017717Y012793D01*
X017697Y012744D02*
X017928Y012744D01*
X017967Y012696D02*
X017658Y012696D01*
X017609Y012647D02*
X018015Y012647D01*
X018069Y012599D02*
X017556Y012599D01*
X017439Y012550D02*
X018186Y012550D01*
X018439Y012550D02*
X018670Y012550D01*
X018718Y012502D02*
X015883Y012502D01*
X015931Y012453D02*
X018767Y012453D01*
X018621Y012599D02*
X018556Y012599D01*
X018994Y012890D02*
X019581Y012890D01*
X019629Y012939D02*
X018946Y012939D01*
X018897Y012987D02*
X019678Y012987D01*
X019726Y013036D02*
X018849Y013036D01*
X018800Y013084D02*
X019775Y013084D01*
X019823Y013133D02*
X018757Y013133D01*
X018757Y013181D02*
X020867Y013181D01*
X020867Y013133D02*
X020452Y013133D01*
X020500Y013084D02*
X020867Y013084D01*
X020867Y013036D02*
X020549Y013036D01*
X020597Y012987D02*
X020867Y012987D01*
X020867Y012939D02*
X020646Y012939D01*
X020694Y012890D02*
X020868Y012890D01*
X020888Y012842D02*
X020743Y012842D01*
X020791Y012793D02*
X020908Y012793D01*
X020928Y012744D02*
X020840Y012744D01*
X020889Y012696D02*
X020967Y012696D01*
X020937Y012647D02*
X021015Y012647D01*
X021042Y012599D02*
X020986Y012599D01*
X021583Y012599D02*
X022069Y012599D01*
X022077Y012595D02*
X022077Y012592D01*
X022215Y012455D01*
X022315Y012455D01*
X024677Y010092D01*
X024815Y009955D01*
X025515Y009955D01*
X025710Y009955D01*
X026216Y010461D01*
X026217Y010461D01*
X026408Y010461D01*
X026585Y010534D01*
X026721Y010670D01*
X026794Y010847D01*
X026794Y011632D01*
X026721Y011809D01*
X026585Y011945D01*
X026408Y012018D01*
X026217Y012018D01*
X026039Y011945D01*
X025904Y011809D01*
X025831Y011632D01*
X025831Y010847D01*
X025862Y010771D01*
X025515Y010425D01*
X025010Y010425D01*
X022695Y012740D01*
X022757Y012891D01*
X022757Y013588D01*
X022690Y013752D01*
X022564Y013877D01*
X022401Y013945D01*
X022224Y013945D01*
X022060Y013877D01*
X021935Y013752D01*
X021867Y013588D01*
X021867Y012891D01*
X021935Y012728D01*
X022060Y012602D01*
X022077Y012595D01*
X022119Y012550D02*
X021631Y012550D01*
X021680Y012502D02*
X022168Y012502D01*
X022317Y012453D02*
X021728Y012453D01*
X021757Y012405D02*
X022365Y012405D01*
X022414Y012356D02*
X021757Y012356D01*
X021757Y012308D02*
X022462Y012308D01*
X022511Y012259D02*
X021757Y012259D01*
X021757Y012210D02*
X022559Y012210D01*
X022608Y012162D02*
X021757Y012162D01*
X021757Y012113D02*
X022656Y012113D01*
X022705Y012065D02*
X021757Y012065D01*
X021718Y012016D02*
X022753Y012016D01*
X022802Y011968D02*
X021670Y011968D01*
X021621Y011919D02*
X022851Y011919D01*
X022899Y011871D02*
X021573Y011871D01*
X021524Y011822D02*
X022948Y011822D01*
X022996Y011774D02*
X021047Y011774D01*
X021047Y011822D02*
X021101Y011822D01*
X021052Y011871D02*
X021047Y011871D01*
X021047Y011725D02*
X023045Y011725D01*
X023093Y011676D02*
X021047Y011676D01*
X021047Y011628D02*
X023142Y011628D01*
X023190Y011579D02*
X021047Y011579D01*
X021047Y011531D02*
X023239Y011531D01*
X023287Y011482D02*
X021047Y011482D01*
X021047Y011434D02*
X023336Y011434D01*
X023385Y011385D02*
X021047Y011385D01*
X021047Y011337D02*
X023433Y011337D01*
X023482Y011288D02*
X021047Y011288D01*
X021047Y011240D02*
X023530Y011240D01*
X023579Y011191D02*
X021047Y011191D01*
X021047Y011143D02*
X023627Y011143D01*
X023676Y011094D02*
X021047Y011094D01*
X021047Y011045D02*
X023724Y011045D01*
X023773Y010997D02*
X021047Y010997D01*
X021047Y010948D02*
X023821Y010948D01*
X023870Y010900D02*
X021047Y010900D01*
X021047Y010851D02*
X023919Y010851D01*
X023967Y010803D02*
X021047Y010803D01*
X021047Y010754D02*
X024016Y010754D01*
X024064Y010706D02*
X021047Y010706D01*
X021047Y010657D02*
X024113Y010657D01*
X024161Y010609D02*
X021047Y010609D01*
X021047Y010560D02*
X024210Y010560D01*
X024223Y010511D02*
X024258Y010511D01*
X024271Y010463D02*
X024307Y010463D01*
X024320Y010414D02*
X024355Y010414D01*
X024369Y010366D02*
X024404Y010366D01*
X024417Y010317D02*
X024452Y010317D01*
X024466Y010269D02*
X024501Y010269D01*
X024514Y010220D02*
X024550Y010220D01*
X024563Y010172D02*
X024598Y010172D01*
X024611Y010123D02*
X024647Y010123D01*
X024660Y010075D02*
X024695Y010075D01*
X024708Y010026D02*
X024744Y010026D01*
X024757Y009977D02*
X024792Y009977D01*
X024805Y009929D02*
X028519Y009929D01*
X028568Y009977D02*
X025733Y009977D01*
X025781Y010026D02*
X028616Y010026D01*
X028665Y010075D02*
X025830Y010075D01*
X025878Y010123D02*
X028714Y010123D01*
X028762Y010172D02*
X025927Y010172D01*
X025975Y010220D02*
X028811Y010220D01*
X028859Y010269D02*
X026024Y010269D01*
X026072Y010317D02*
X028908Y010317D01*
X028956Y010366D02*
X026121Y010366D01*
X026169Y010414D02*
X029005Y010414D01*
X029053Y010463D02*
X028913Y010463D01*
X029030Y010511D02*
X029102Y010511D01*
X029111Y010560D02*
X029150Y010560D01*
X029160Y010609D02*
X029199Y010609D01*
X029208Y010657D02*
X029248Y010657D01*
X029236Y010706D02*
X029296Y010706D01*
X029256Y010754D02*
X029345Y010754D01*
X029349Y010803D02*
X029276Y010803D01*
X029294Y010851D02*
X029331Y010851D01*
X029331Y010900D02*
X029294Y010900D01*
X029294Y010948D02*
X029331Y010948D01*
X029331Y010997D02*
X029294Y010997D01*
X029294Y011045D02*
X029331Y011045D01*
X029331Y011094D02*
X029294Y011094D01*
X029294Y011143D02*
X029331Y011143D01*
X029331Y011191D02*
X029294Y011191D01*
X029294Y011240D02*
X029331Y011240D01*
X029331Y011288D02*
X029294Y011288D01*
X029294Y011337D02*
X029331Y011337D01*
X029331Y011385D02*
X029294Y011385D01*
X029294Y011434D02*
X029331Y011434D01*
X029331Y011482D02*
X029294Y011482D01*
X029294Y011531D02*
X029331Y011531D01*
X029331Y011579D02*
X029294Y011579D01*
X029294Y011628D02*
X029331Y011628D01*
X029349Y011676D02*
X029276Y011676D01*
X029280Y011725D02*
X029369Y011725D01*
X029389Y011774D02*
X029329Y011774D01*
X029377Y011822D02*
X029417Y011822D01*
X029426Y011871D02*
X029465Y011871D01*
X029474Y011919D02*
X029514Y011919D01*
X029523Y011968D02*
X029594Y011968D01*
X029571Y012016D02*
X029712Y012016D01*
X029913Y012016D02*
X031703Y012016D01*
X031752Y011968D02*
X030030Y011968D01*
X030111Y011919D02*
X031801Y011919D01*
X031849Y011871D02*
X030160Y011871D01*
X030208Y011822D02*
X031898Y011822D01*
X031889Y011774D02*
X030236Y011774D01*
X030256Y011725D02*
X031869Y011725D01*
X031849Y011676D02*
X030276Y011676D01*
X030294Y011628D02*
X031831Y011628D01*
X031831Y011579D02*
X030294Y011579D01*
X030294Y011531D02*
X031831Y011531D01*
X031831Y011482D02*
X030294Y011482D01*
X030294Y011434D02*
X031831Y011434D01*
X031831Y011385D02*
X030294Y011385D01*
X030294Y011337D02*
X031831Y011337D01*
X031831Y011288D02*
X030294Y011288D01*
X030294Y011240D02*
X031831Y011240D01*
X031831Y011191D02*
X030294Y011191D01*
X030294Y011143D02*
X031831Y011143D01*
X031831Y011094D02*
X030294Y011094D01*
X030294Y011045D02*
X031831Y011045D01*
X031831Y010997D02*
X030294Y010997D01*
X030294Y010948D02*
X031831Y010948D01*
X031831Y010900D02*
X030294Y010900D01*
X030294Y010851D02*
X031831Y010851D01*
X031849Y010803D02*
X030276Y010803D01*
X030256Y010754D02*
X031869Y010754D01*
X031889Y010706D02*
X030236Y010706D01*
X030208Y010657D02*
X031917Y010657D01*
X031965Y010609D02*
X030160Y010609D01*
X030111Y010560D02*
X032014Y010560D01*
X032095Y010511D02*
X030030Y010511D01*
X029913Y010463D02*
X032212Y010463D01*
X032413Y010463D02*
X032553Y010463D01*
X032530Y010511D02*
X032602Y010511D01*
X032611Y010560D02*
X032650Y010560D01*
X032660Y010609D02*
X032699Y010609D01*
X032708Y010657D02*
X032748Y010657D01*
X032736Y010706D02*
X032796Y010706D01*
X032756Y010754D02*
X032845Y010754D01*
X032849Y010803D02*
X032776Y010803D01*
X032794Y010851D02*
X032831Y010851D01*
X032831Y010900D02*
X032794Y010900D01*
X032794Y010948D02*
X032831Y010948D01*
X032831Y010997D02*
X032794Y010997D01*
X032794Y011045D02*
X032831Y011045D01*
X032831Y011094D02*
X032794Y011094D01*
X032794Y011143D02*
X032831Y011143D01*
X032831Y011191D02*
X032794Y011191D01*
X032794Y011240D02*
X032831Y011240D01*
X032831Y011288D02*
X032794Y011288D01*
X032794Y011337D02*
X032831Y011337D01*
X032831Y011385D02*
X032794Y011385D01*
X032794Y011434D02*
X032831Y011434D01*
X032831Y011482D02*
X032794Y011482D01*
X032794Y011531D02*
X032831Y011531D01*
X032831Y011579D02*
X032794Y011579D01*
X032794Y011628D02*
X032831Y011628D01*
X032849Y011676D02*
X032776Y011676D01*
X032780Y011725D02*
X032869Y011725D01*
X032889Y011774D02*
X032829Y011774D01*
X032877Y011822D02*
X032917Y011822D01*
X032926Y011871D02*
X032965Y011871D01*
X032974Y011919D02*
X033014Y011919D01*
X033023Y011968D02*
X033094Y011968D01*
X033071Y012016D02*
X033212Y012016D01*
X033413Y012016D02*
X034253Y012016D01*
X034302Y011968D02*
X033530Y011968D01*
X033611Y011919D02*
X034351Y011919D01*
X034399Y011871D02*
X033660Y011871D01*
X033708Y011822D02*
X034448Y011822D01*
X034496Y011774D02*
X033736Y011774D01*
X033756Y011725D02*
X034545Y011725D01*
X034593Y011676D02*
X033776Y011676D01*
X033794Y011628D02*
X034642Y011628D01*
X034690Y011579D02*
X033794Y011579D01*
X033794Y011531D02*
X034739Y011531D01*
X034787Y011482D02*
X033794Y011482D01*
X033794Y011434D02*
X034836Y011434D01*
X034885Y011385D02*
X033794Y011385D01*
X033794Y011337D02*
X034933Y011337D01*
X034982Y011288D02*
X033794Y011288D01*
X033794Y011240D02*
X035030Y011240D01*
X035079Y011191D02*
X033794Y011191D01*
X033794Y011143D02*
X035127Y011143D01*
X035331Y011094D02*
X033794Y011094D01*
X033794Y011045D02*
X035331Y011045D01*
X035331Y010997D02*
X033794Y010997D01*
X033794Y010948D02*
X035331Y010948D01*
X035331Y010900D02*
X033794Y010900D01*
X033794Y010851D02*
X035331Y010851D01*
X035349Y010803D02*
X033776Y010803D01*
X033756Y010754D02*
X035369Y010754D01*
X035389Y010706D02*
X033736Y010706D01*
X033708Y010657D02*
X035417Y010657D01*
X035465Y010609D02*
X033660Y010609D01*
X033611Y010560D02*
X035514Y010560D01*
X035595Y010511D02*
X033530Y010511D01*
X033413Y010463D02*
X035712Y010463D01*
X035913Y010463D02*
X036053Y010463D01*
X036030Y010511D02*
X036102Y010511D01*
X036111Y010560D02*
X036150Y010560D01*
X036160Y010609D02*
X036199Y010609D01*
X036208Y010657D02*
X036248Y010657D01*
X036236Y010706D02*
X036296Y010706D01*
X036256Y010754D02*
X036345Y010754D01*
X036349Y010803D02*
X036276Y010803D01*
X036294Y010851D02*
X036331Y010851D01*
X036331Y010900D02*
X036294Y010900D01*
X036294Y010948D02*
X036331Y010948D01*
X036331Y010997D02*
X036294Y010997D01*
X036294Y011045D02*
X036331Y011045D01*
X036331Y011094D02*
X036294Y011094D01*
X036294Y011143D02*
X036331Y011143D01*
X036331Y011191D02*
X036294Y011191D01*
X036294Y011240D02*
X036331Y011240D01*
X036331Y011288D02*
X036294Y011288D01*
X036294Y011337D02*
X036331Y011337D01*
X036331Y011385D02*
X036294Y011385D01*
X036294Y011434D02*
X036331Y011434D01*
X036331Y011482D02*
X036294Y011482D01*
X036294Y011531D02*
X036331Y011531D01*
X036331Y011579D02*
X036294Y011579D01*
X036294Y011628D02*
X036331Y011628D01*
X036349Y011676D02*
X036276Y011676D01*
X036280Y011725D02*
X036369Y011725D01*
X036389Y011774D02*
X036329Y011774D01*
X036377Y011822D02*
X036417Y011822D01*
X036426Y011871D02*
X036465Y011871D01*
X036474Y011919D02*
X036514Y011919D01*
X036523Y011968D02*
X036594Y011968D01*
X036571Y012016D02*
X036712Y012016D01*
X036913Y012016D02*
X037327Y012016D01*
X037327Y011968D02*
X037030Y011968D01*
X037111Y011919D02*
X037327Y011919D01*
X037327Y011871D02*
X037160Y011871D01*
X037208Y011822D02*
X037327Y011822D01*
X037327Y011774D02*
X037236Y011774D01*
X037256Y011725D02*
X037327Y011725D01*
X037327Y011676D02*
X037276Y011676D01*
X037294Y011628D02*
X037327Y011628D01*
X037327Y011579D02*
X037294Y011579D01*
X037294Y011531D02*
X037327Y011531D01*
X037327Y011482D02*
X037294Y011482D01*
X037294Y011434D02*
X037327Y011434D01*
X037327Y011385D02*
X037294Y011385D01*
X037294Y011337D02*
X037327Y011337D01*
X037327Y011288D02*
X037294Y011288D01*
X037294Y011240D02*
X037327Y011240D01*
X037327Y011191D02*
X037294Y011191D01*
X037294Y011143D02*
X037327Y011143D01*
X037327Y011094D02*
X037294Y011094D01*
X037294Y011045D02*
X037327Y011045D01*
X037327Y010997D02*
X037294Y010997D01*
X037294Y010948D02*
X037327Y010948D01*
X037327Y010900D02*
X037294Y010900D01*
X037294Y010851D02*
X037327Y010851D01*
X037327Y010803D02*
X037276Y010803D01*
X037256Y010754D02*
X037327Y010754D01*
X037327Y010706D02*
X037236Y010706D01*
X037208Y010657D02*
X037327Y010657D01*
X037327Y010609D02*
X037160Y010609D01*
X037111Y010560D02*
X037327Y010560D01*
X037327Y010511D02*
X037030Y010511D01*
X036913Y010463D02*
X037327Y010463D01*
X037327Y010414D02*
X036669Y010414D01*
X036621Y010366D02*
X037327Y010366D01*
X037327Y010317D02*
X036572Y010317D01*
X036524Y010269D02*
X037327Y010269D01*
X037327Y010220D02*
X036475Y010220D01*
X036427Y010172D02*
X037327Y010172D01*
X037327Y010123D02*
X036378Y010123D01*
X036330Y010075D02*
X037327Y010075D01*
X037327Y010026D02*
X036281Y010026D01*
X036233Y009977D02*
X037327Y009977D01*
X037327Y009929D02*
X036184Y009929D01*
X036135Y009880D02*
X037327Y009880D01*
X037327Y009832D02*
X036087Y009832D01*
X036038Y009783D02*
X037327Y009783D01*
X037327Y009735D02*
X035990Y009735D01*
X035941Y009686D02*
X037327Y009686D01*
X037327Y009638D02*
X035893Y009638D01*
X035844Y009589D02*
X037327Y009589D01*
X037327Y009541D02*
X035796Y009541D01*
X035747Y009492D02*
X037327Y009492D01*
X037327Y009444D02*
X035699Y009444D01*
X035650Y009395D02*
X037327Y009395D01*
X037327Y009346D02*
X035601Y009346D01*
X035553Y009298D02*
X037327Y009298D01*
X037327Y009249D02*
X035504Y009249D01*
X035456Y009201D02*
X037327Y009201D01*
X037327Y009152D02*
X035407Y009152D01*
X035359Y009104D02*
X037294Y009104D01*
X037246Y009055D02*
X035310Y009055D01*
X035262Y009007D02*
X037197Y009007D01*
X037149Y008958D02*
X035213Y008958D01*
X035165Y008910D02*
X037100Y008910D01*
X037051Y008861D02*
X035116Y008861D01*
X035068Y008812D02*
X037003Y008812D01*
X036954Y008764D02*
X035019Y008764D01*
X034970Y008715D02*
X036906Y008715D01*
X036857Y008667D02*
X034922Y008667D01*
X034873Y008618D02*
X036809Y008618D01*
X036760Y008570D02*
X034825Y008570D01*
X034776Y008521D02*
X036712Y008521D01*
X036663Y008473D02*
X034728Y008473D01*
X034679Y008424D02*
X036615Y008424D01*
X036566Y008376D02*
X034631Y008376D01*
X034582Y008327D02*
X036517Y008327D01*
X036469Y008278D02*
X034534Y008278D01*
X034485Y008230D02*
X036420Y008230D01*
X036372Y008181D02*
X034436Y008181D01*
X034388Y008133D02*
X036323Y008133D01*
X036275Y008084D02*
X034339Y008084D01*
X034291Y008036D02*
X036226Y008036D01*
X036178Y007987D02*
X034242Y007987D01*
X034194Y007939D02*
X036129Y007939D01*
X036081Y007890D02*
X034145Y007890D01*
X034097Y007842D02*
X036032Y007842D01*
X035984Y007793D02*
X034048Y007793D01*
X034000Y007744D02*
X035935Y007744D01*
X035886Y007696D02*
X033951Y007696D01*
X033902Y007647D02*
X035838Y007647D01*
X035789Y007599D02*
X033854Y007599D01*
X033805Y007550D02*
X035741Y007550D01*
X036260Y007405D02*
X039458Y007405D01*
X039458Y007453D02*
X036308Y007453D01*
X036357Y007502D02*
X039458Y007502D01*
X039458Y007550D02*
X036405Y007550D01*
X036454Y007599D02*
X039458Y007599D01*
X039458Y007647D02*
X036502Y007647D01*
X036551Y007696D02*
X039458Y007696D01*
X039458Y007744D02*
X036600Y007744D01*
X036648Y007793D02*
X039458Y007793D01*
X039458Y007842D02*
X036697Y007842D01*
X036745Y007890D02*
X039458Y007890D01*
X039458Y007939D02*
X036794Y007939D01*
X036842Y007987D02*
X039458Y007987D01*
X039458Y008036D02*
X036891Y008036D01*
X036939Y008084D02*
X039458Y008084D01*
X039458Y008133D02*
X036988Y008133D01*
X037036Y008181D02*
X039458Y008181D01*
X039458Y008230D02*
X037085Y008230D01*
X037134Y008278D02*
X039458Y008278D01*
X039458Y008327D02*
X037182Y008327D01*
X037231Y008376D02*
X039458Y008376D01*
X039458Y008424D02*
X037279Y008424D01*
X037328Y008473D02*
X039458Y008473D01*
X039458Y008521D02*
X037376Y008521D01*
X037425Y008570D02*
X039458Y008570D01*
X039458Y008618D02*
X037473Y008618D01*
X037522Y008667D02*
X039458Y008667D01*
X039458Y008715D02*
X037570Y008715D01*
X037619Y008764D02*
X039458Y008764D01*
X039458Y008812D02*
X037668Y008812D01*
X037716Y008861D02*
X039458Y008861D01*
X039458Y008910D02*
X037765Y008910D01*
X037797Y008958D02*
X039458Y008958D01*
X039458Y009007D02*
X037797Y009007D01*
X037797Y009055D02*
X039458Y009055D01*
X039458Y009104D02*
X037797Y009104D01*
X037797Y009152D02*
X039458Y009152D01*
X039458Y009201D02*
X037797Y009201D01*
X037797Y009249D02*
X039458Y009249D01*
X039458Y009298D02*
X037797Y009298D01*
X037797Y009346D02*
X039458Y009346D01*
X039458Y009395D02*
X037797Y009395D01*
X037797Y009444D02*
X039458Y009444D01*
X039458Y009492D02*
X037797Y009492D01*
X037797Y009541D02*
X039458Y009541D01*
X039458Y009589D02*
X037797Y009589D01*
X037797Y009638D02*
X039458Y009638D01*
X039458Y009686D02*
X037797Y009686D01*
X037797Y009735D02*
X039458Y009735D01*
X039458Y009783D02*
X037797Y009783D01*
X037797Y009832D02*
X039458Y009832D01*
X039458Y009880D02*
X037797Y009880D01*
X037797Y009929D02*
X039458Y009929D01*
X039458Y009977D02*
X037797Y009977D01*
X037797Y010026D02*
X039458Y010026D01*
X039458Y010075D02*
X037797Y010075D01*
X037797Y010123D02*
X039458Y010123D01*
X039458Y010172D02*
X037797Y010172D01*
X037797Y010220D02*
X039458Y010220D01*
X039458Y010269D02*
X037797Y010269D01*
X037797Y010317D02*
X039458Y010317D01*
X039458Y010366D02*
X037797Y010366D01*
X037797Y010414D02*
X039458Y010414D01*
X039458Y010463D02*
X037797Y010463D01*
X037797Y010511D02*
X039458Y010511D01*
X039458Y010560D02*
X037797Y010560D01*
X037797Y010609D02*
X039458Y010609D01*
X039458Y010657D02*
X037797Y010657D01*
X037797Y010706D02*
X039458Y010706D01*
X039458Y010754D02*
X037797Y010754D01*
X037797Y010803D02*
X039458Y010803D01*
X039458Y010851D02*
X037797Y010851D01*
X037797Y010900D02*
X039458Y010900D01*
X039458Y010948D02*
X037797Y010948D01*
X037797Y010997D02*
X039458Y010997D01*
X039458Y011045D02*
X037797Y011045D01*
X037797Y011094D02*
X039458Y011094D01*
X039458Y011143D02*
X037797Y011143D01*
X037797Y011191D02*
X039458Y011191D01*
X039458Y011240D02*
X037797Y011240D01*
X037797Y011288D02*
X039458Y011288D01*
X039458Y011337D02*
X037797Y011337D01*
X037797Y011385D02*
X039458Y011385D01*
X039458Y011434D02*
X037797Y011434D01*
X037797Y011482D02*
X039458Y011482D01*
X039458Y011531D02*
X037797Y011531D01*
X037797Y011579D02*
X039458Y011579D01*
X039458Y011628D02*
X037797Y011628D01*
X037797Y011676D02*
X039458Y011676D01*
X039458Y011725D02*
X037797Y011725D01*
X037797Y011774D02*
X039458Y011774D01*
X039458Y011822D02*
X037797Y011822D01*
X037797Y011871D02*
X039458Y011871D01*
X039458Y011919D02*
X037797Y011919D01*
X037797Y011968D02*
X039458Y011968D01*
X039458Y012016D02*
X037797Y012016D01*
X037797Y012065D02*
X039458Y012065D01*
X039458Y012113D02*
X037797Y012113D01*
X037797Y012162D02*
X039458Y012162D01*
X039458Y012210D02*
X037797Y012210D01*
X037797Y012259D02*
X039458Y012259D01*
X039458Y012308D02*
X037797Y012308D01*
X037797Y012356D02*
X039458Y012356D01*
X039458Y012405D02*
X037780Y012405D01*
X037731Y012453D02*
X039458Y012453D01*
X039458Y012502D02*
X037683Y012502D01*
X038039Y013147D02*
X038339Y013023D01*
X038664Y013023D01*
X038963Y013147D01*
X039193Y013376D01*
X039317Y013676D01*
X039317Y014000D01*
X039193Y014300D01*
X038963Y014529D01*
X038664Y014654D01*
X038339Y014654D01*
X038039Y014529D01*
X037810Y014300D01*
X037686Y014000D01*
X037686Y013676D01*
X037810Y013376D01*
X038039Y013147D01*
X038073Y013133D02*
X025152Y013133D01*
X025200Y013084D02*
X038190Y013084D01*
X038307Y013036D02*
X025249Y013036D01*
X025297Y012987D02*
X039458Y012987D01*
X039458Y012939D02*
X025346Y012939D01*
X025394Y012890D02*
X039458Y012890D01*
X039458Y012842D02*
X025443Y012842D01*
X025491Y012793D02*
X039458Y012793D01*
X039458Y012744D02*
X025540Y012744D01*
X025589Y012696D02*
X039458Y012696D01*
X039458Y012647D02*
X025637Y012647D01*
X025686Y012599D02*
X039458Y012599D01*
X039458Y012550D02*
X025734Y012550D01*
X025783Y012502D02*
X025892Y012502D01*
X025844Y012453D02*
X025831Y012453D01*
X025312Y012308D02*
X023127Y012308D01*
X023078Y012356D02*
X025264Y012356D01*
X025215Y012405D02*
X023030Y012405D01*
X022981Y012453D02*
X025167Y012453D01*
X025118Y012502D02*
X022933Y012502D01*
X022884Y012550D02*
X025069Y012550D01*
X025021Y012599D02*
X022836Y012599D01*
X022787Y012647D02*
X024972Y012647D01*
X024924Y012696D02*
X022739Y012696D01*
X022697Y012744D02*
X024875Y012744D01*
X024827Y012793D02*
X022717Y012793D01*
X022737Y012842D02*
X024778Y012842D01*
X024730Y012890D02*
X022757Y012890D01*
X022757Y012939D02*
X024681Y012939D01*
X024633Y012987D02*
X022757Y012987D01*
X022757Y013036D02*
X024584Y013036D01*
X024536Y013084D02*
X022757Y013084D01*
X022757Y013133D02*
X024487Y013133D01*
X024438Y013181D02*
X022757Y013181D01*
X022757Y013230D02*
X024390Y013230D01*
X024341Y013278D02*
X022757Y013278D01*
X022757Y013327D02*
X024293Y013327D01*
X024244Y013376D02*
X022757Y013376D01*
X022757Y013424D02*
X024196Y013424D01*
X024147Y013473D02*
X022757Y013473D01*
X022757Y013521D02*
X024099Y013521D01*
X024050Y013570D02*
X022757Y013570D01*
X022745Y013618D02*
X024002Y013618D01*
X023953Y013667D02*
X022725Y013667D01*
X022705Y013715D02*
X023904Y013715D01*
X023856Y013764D02*
X022678Y013764D01*
X022629Y013812D02*
X023807Y013812D01*
X023759Y013861D02*
X022580Y013861D01*
X022486Y013909D02*
X023710Y013909D01*
X023662Y013958D02*
X008723Y013958D01*
X008675Y014007D02*
X023613Y014007D01*
X023565Y014055D02*
X008626Y014055D01*
X008578Y014104D02*
X023516Y014104D01*
X023468Y014152D02*
X008529Y014152D01*
X008106Y014201D02*
X023419Y014201D01*
X023841Y014443D02*
X037953Y014443D01*
X037905Y014395D02*
X023889Y014395D01*
X023938Y014346D02*
X037856Y014346D01*
X037809Y014298D02*
X023987Y014298D01*
X024035Y014249D02*
X037789Y014249D01*
X037769Y014201D02*
X024084Y014201D01*
X024132Y014152D02*
X037749Y014152D01*
X037729Y014104D02*
X024181Y014104D01*
X024229Y014055D02*
X037709Y014055D01*
X037688Y014007D02*
X024278Y014007D01*
X024326Y013958D02*
X037686Y013958D01*
X037686Y013909D02*
X024375Y013909D01*
X024423Y013861D02*
X037686Y013861D01*
X037686Y013812D02*
X024472Y013812D01*
X024521Y013764D02*
X037686Y013764D01*
X037686Y013715D02*
X024569Y013715D01*
X024618Y013667D02*
X037690Y013667D01*
X037710Y013618D02*
X024666Y013618D01*
X024715Y013570D02*
X037730Y013570D01*
X037750Y013521D02*
X024763Y013521D01*
X024812Y013473D02*
X037770Y013473D01*
X037790Y013424D02*
X024860Y013424D01*
X024909Y013376D02*
X037811Y013376D01*
X037859Y013327D02*
X024957Y013327D01*
X025006Y013278D02*
X037908Y013278D01*
X037956Y013230D02*
X025055Y013230D01*
X025103Y013181D02*
X038005Y013181D01*
X038695Y013036D02*
X039458Y013036D01*
X039458Y013084D02*
X038813Y013084D01*
X038930Y013133D02*
X039458Y013133D01*
X039458Y013181D02*
X038998Y013181D01*
X039047Y013230D02*
X039458Y013230D01*
X039458Y013278D02*
X039095Y013278D01*
X039144Y013327D02*
X039458Y013327D01*
X039458Y013376D02*
X039192Y013376D01*
X039213Y013424D02*
X039458Y013424D01*
X039458Y013473D02*
X039233Y013473D01*
X039253Y013521D02*
X039458Y013521D01*
X039458Y013570D02*
X039273Y013570D01*
X039293Y013618D02*
X039458Y013618D01*
X039458Y013667D02*
X039313Y013667D01*
X039317Y013715D02*
X039458Y013715D01*
X039458Y013764D02*
X039317Y013764D01*
X039317Y013812D02*
X039458Y013812D01*
X039458Y013861D02*
X039317Y013861D01*
X039317Y013909D02*
X039458Y013909D01*
X039458Y013958D02*
X039317Y013958D01*
X039314Y014007D02*
X039458Y014007D01*
X039458Y014055D02*
X039294Y014055D01*
X039274Y014104D02*
X039458Y014104D01*
X039458Y014152D02*
X039254Y014152D01*
X039234Y014201D02*
X039458Y014201D01*
X039458Y014249D02*
X039214Y014249D01*
X039194Y014298D02*
X039458Y014298D01*
X039458Y014346D02*
X039146Y014346D01*
X039098Y014395D02*
X039458Y014395D01*
X039458Y014443D02*
X039049Y014443D01*
X039001Y014492D02*
X039458Y014492D01*
X039458Y014541D02*
X038937Y014541D01*
X038819Y014589D02*
X039458Y014589D01*
X039458Y014638D02*
X038702Y014638D01*
X038301Y014638D02*
X023647Y014638D01*
X023695Y014589D02*
X038183Y014589D01*
X038066Y014541D02*
X023744Y014541D01*
X023792Y014492D02*
X038002Y014492D01*
X039458Y014686D02*
X000537Y014686D01*
X000537Y014638D02*
X001293Y014638D01*
X001331Y014654D02*
X001032Y014529D01*
X000802Y014300D01*
X000678Y014000D01*
X000678Y013676D01*
X000802Y013376D01*
X001032Y013147D01*
X001331Y013023D01*
X001656Y013023D01*
X001956Y013147D01*
X002185Y013376D01*
X002309Y013676D01*
X002309Y014000D01*
X002185Y014300D01*
X001956Y014529D01*
X001656Y014654D01*
X001331Y014654D01*
X001176Y014589D02*
X000537Y014589D01*
X000537Y014541D02*
X001058Y014541D01*
X000994Y014492D02*
X000537Y014492D01*
X000537Y014443D02*
X000946Y014443D01*
X000897Y014395D02*
X000537Y014395D01*
X000537Y014346D02*
X000848Y014346D01*
X000801Y014298D02*
X000537Y014298D01*
X000537Y014249D02*
X000781Y014249D01*
X000761Y014201D02*
X000537Y014201D01*
X000537Y014152D02*
X000741Y014152D01*
X000721Y014104D02*
X000537Y014104D01*
X000537Y014055D02*
X000701Y014055D01*
X000681Y014007D02*
X000537Y014007D01*
X000537Y013958D02*
X000678Y013958D01*
X000678Y013909D02*
X000537Y013909D01*
X000537Y013861D02*
X000678Y013861D01*
X000678Y013812D02*
X000537Y013812D01*
X000537Y013764D02*
X000678Y013764D01*
X000678Y013715D02*
X000537Y013715D01*
X000537Y013667D02*
X000682Y013667D01*
X000702Y013618D02*
X000537Y013618D01*
X000537Y013570D02*
X000722Y013570D01*
X000742Y013521D02*
X000537Y013521D01*
X000537Y013473D02*
X000762Y013473D01*
X000782Y013424D02*
X000537Y013424D01*
X000537Y013376D02*
X000803Y013376D01*
X000851Y013327D02*
X000537Y013327D01*
X000537Y013278D02*
X000900Y013278D01*
X000948Y013230D02*
X000537Y013230D01*
X000537Y013181D02*
X000997Y013181D01*
X001065Y013133D02*
X000537Y013133D01*
X000537Y013084D02*
X001182Y013084D01*
X001300Y013036D02*
X000537Y013036D01*
X000537Y012987D02*
X002728Y012987D01*
X002776Y013036D02*
X001687Y013036D01*
X001805Y013084D02*
X002825Y013084D01*
X002873Y013133D02*
X001922Y013133D01*
X001990Y013181D02*
X002922Y013181D01*
X002934Y013230D02*
X002039Y013230D01*
X002087Y013278D02*
X002914Y013278D01*
X002894Y013327D02*
X002136Y013327D01*
X002184Y013376D02*
X002874Y013376D01*
X002867Y013424D02*
X002205Y013424D01*
X002225Y013473D02*
X002867Y013473D01*
X002867Y013521D02*
X002245Y013521D01*
X002265Y013570D02*
X002867Y013570D01*
X002867Y013618D02*
X002285Y013618D01*
X002305Y013667D02*
X002867Y013667D01*
X002867Y013715D02*
X002309Y013715D01*
X002309Y013764D02*
X002867Y013764D01*
X002867Y013812D02*
X002309Y013812D01*
X002309Y013861D02*
X002867Y013861D01*
X002867Y013909D02*
X002309Y013909D01*
X002309Y013958D02*
X002867Y013958D01*
X002867Y014007D02*
X002306Y014007D01*
X002286Y014055D02*
X002867Y014055D01*
X002874Y014104D02*
X002266Y014104D01*
X002246Y014152D02*
X002894Y014152D01*
X002914Y014201D02*
X002226Y014201D01*
X002206Y014249D02*
X002934Y014249D01*
X002981Y014298D02*
X002186Y014298D01*
X002139Y014346D02*
X003030Y014346D01*
X003104Y014395D02*
X002090Y014395D01*
X002041Y014443D02*
X003221Y014443D01*
X003404Y014443D02*
X007684Y014443D01*
X007635Y014395D02*
X003521Y014395D01*
X003595Y014346D02*
X007587Y014346D01*
X007538Y014298D02*
X003644Y014298D01*
X003691Y014249D02*
X007490Y014249D01*
X007441Y014201D02*
X003711Y014201D01*
X003731Y014152D02*
X007096Y014152D01*
X007047Y014104D02*
X003751Y014104D01*
X001993Y014492D02*
X007732Y014492D01*
X007781Y014541D02*
X001929Y014541D01*
X001812Y014589D02*
X007830Y014589D01*
X007878Y014638D02*
X001694Y014638D01*
X000537Y014735D02*
X039458Y014735D01*
X039458Y014783D02*
X000537Y014783D01*
X000537Y012939D02*
X002679Y012939D01*
X002631Y012890D02*
X000537Y012890D01*
X000537Y012842D02*
X002582Y012842D01*
X002533Y012793D02*
X000537Y012793D01*
X000537Y012744D02*
X002485Y012744D01*
X002436Y012696D02*
X000537Y012696D01*
X000537Y012647D02*
X002091Y012647D01*
X002042Y012599D02*
X000537Y012599D01*
X000537Y012550D02*
X001994Y012550D01*
X001945Y012502D02*
X000537Y012502D01*
X000537Y012453D02*
X001897Y012453D01*
X001867Y012405D02*
X000537Y012405D01*
X000537Y012356D02*
X001867Y012356D01*
X001867Y012308D02*
X000537Y012308D01*
X000537Y012259D02*
X001867Y012259D01*
X001867Y012210D02*
X000537Y012210D01*
X000537Y012162D02*
X001867Y012162D01*
X001867Y012113D02*
X000537Y012113D01*
X000537Y012065D02*
X001867Y012065D01*
X001906Y012016D02*
X000537Y012016D01*
X000537Y011968D02*
X001955Y011968D01*
X002004Y011919D02*
X000537Y011919D01*
X000537Y011871D02*
X002052Y011871D01*
X002101Y011822D02*
X000537Y011822D01*
X000537Y011774D02*
X003377Y011774D01*
X003377Y011822D02*
X002524Y011822D01*
X002573Y011871D02*
X003377Y011871D01*
X003377Y011919D02*
X002621Y011919D01*
X002670Y011968D02*
X003377Y011968D01*
X003377Y012016D02*
X002718Y012016D01*
X002757Y012065D02*
X003377Y012065D01*
X003377Y012113D02*
X002757Y012113D01*
X002757Y012162D02*
X003377Y012162D01*
X003377Y012210D02*
X002757Y012210D01*
X002757Y012259D02*
X003377Y012259D01*
X003377Y012308D02*
X002757Y012308D01*
X002761Y012356D02*
X003377Y012356D01*
X003377Y012405D02*
X002810Y012405D01*
X002858Y012453D02*
X003377Y012453D01*
X003377Y012502D02*
X002907Y012502D01*
X002955Y012550D02*
X003377Y012550D01*
X005052Y012647D02*
X005091Y012647D01*
X003377Y011725D02*
X000537Y011725D01*
X000537Y011676D02*
X003377Y011676D01*
X003377Y011628D02*
X000537Y011628D01*
X000537Y011579D02*
X003377Y011579D01*
X003377Y011531D02*
X000537Y011531D01*
X000537Y011482D02*
X003377Y011482D01*
X003377Y011434D02*
X000537Y011434D01*
X000537Y011385D02*
X003377Y011385D01*
X003377Y011337D02*
X000537Y011337D01*
X000537Y011288D02*
X003377Y011288D01*
X003377Y011240D02*
X000537Y011240D01*
X000537Y011191D02*
X003377Y011191D01*
X003377Y011143D02*
X000537Y011143D01*
X000537Y011094D02*
X003377Y011094D01*
X003377Y011045D02*
X000537Y011045D01*
X000537Y010997D02*
X003377Y010997D01*
X003377Y010948D02*
X000537Y010948D01*
X000537Y010900D02*
X003377Y010900D01*
X003377Y010851D02*
X000537Y010851D01*
X000537Y010803D02*
X003377Y010803D01*
X003377Y010754D02*
X000537Y010754D01*
X000537Y010706D02*
X003377Y010706D01*
X003377Y010657D02*
X000537Y010657D01*
X000537Y010609D02*
X003377Y010609D01*
X003377Y010560D02*
X000537Y010560D01*
X000537Y010511D02*
X003377Y010511D01*
X003377Y010463D02*
X000537Y010463D01*
X000537Y010414D02*
X003377Y010414D01*
X003377Y010366D02*
X000537Y010366D01*
X000537Y010317D02*
X003377Y010317D01*
X003377Y010269D02*
X000537Y010269D01*
X000537Y010220D02*
X003377Y010220D01*
X003377Y010172D02*
X000537Y010172D01*
X000537Y010123D02*
X003377Y010123D01*
X003377Y010075D02*
X000537Y010075D01*
X000537Y010026D02*
X003377Y010026D01*
X003377Y009977D02*
X000537Y009977D01*
X000537Y009929D02*
X002253Y009929D01*
X002136Y009880D02*
X000537Y009880D01*
X000537Y009832D02*
X002019Y009832D01*
X001966Y009783D02*
X000537Y009783D01*
X000537Y009735D02*
X001918Y009735D01*
X001869Y009686D02*
X000537Y009686D01*
X000537Y009638D02*
X001821Y009638D01*
X001798Y009589D02*
X000537Y009589D01*
X000537Y009541D02*
X001778Y009541D01*
X001757Y009492D02*
X000537Y009492D01*
X000537Y009444D02*
X001737Y009444D01*
X001717Y009395D02*
X000537Y009395D01*
X000537Y009346D02*
X001709Y009346D01*
X001709Y009298D02*
X000537Y009298D01*
X000537Y009249D02*
X001709Y009249D01*
X001709Y009201D02*
X000537Y009201D01*
X000537Y009152D02*
X001709Y009152D01*
X001709Y009104D02*
X000537Y009104D01*
X000537Y009055D02*
X001728Y009055D01*
X001748Y009007D02*
X000537Y009007D01*
X000537Y008958D02*
X001768Y008958D01*
X001788Y008910D02*
X000537Y008910D01*
X000537Y008861D02*
X001808Y008861D01*
X001846Y008812D02*
X000537Y008812D01*
X000537Y008764D02*
X001894Y008764D01*
X001943Y008715D02*
X000537Y008715D01*
X000537Y008667D02*
X001991Y008667D01*
X002080Y008618D02*
X000537Y008618D01*
X000537Y008570D02*
X002197Y008570D01*
X002577Y008521D02*
X000537Y008521D01*
X000537Y008473D02*
X002577Y008473D01*
X002577Y008424D02*
X000537Y008424D01*
X000537Y008376D02*
X002577Y008376D01*
X002577Y008327D02*
X000537Y008327D01*
X000537Y008278D02*
X002577Y008278D01*
X002577Y008230D02*
X000537Y008230D01*
X000537Y008181D02*
X002577Y008181D01*
X002577Y008133D02*
X000537Y008133D01*
X000537Y008084D02*
X002577Y008084D01*
X002577Y008036D02*
X000537Y008036D01*
X000537Y007987D02*
X002577Y007987D01*
X002577Y007939D02*
X000537Y007939D01*
X000537Y007890D02*
X002577Y007890D01*
X002577Y007842D02*
X000537Y007842D01*
X000537Y007793D02*
X002577Y007793D01*
X002577Y007744D02*
X000537Y007744D01*
X000537Y007696D02*
X002577Y007696D01*
X002577Y007647D02*
X000537Y007647D01*
X000537Y007599D02*
X002577Y007599D01*
X002583Y007550D02*
X000537Y007550D01*
X000537Y007502D02*
X002631Y007502D01*
X002680Y007453D02*
X000537Y007453D01*
X000537Y007405D02*
X002870Y007405D01*
X002870Y007356D02*
X000537Y007356D01*
X000537Y007308D02*
X002870Y007308D01*
X002870Y007259D02*
X000537Y007259D01*
X000537Y007211D02*
X002870Y007211D01*
X002870Y007162D02*
X000537Y007162D01*
X000537Y007113D02*
X002870Y007113D01*
X002870Y007065D02*
X000537Y007065D01*
X000537Y007016D02*
X002870Y007016D01*
X002870Y006968D02*
X000537Y006968D01*
X000537Y006919D02*
X002870Y006919D01*
X002917Y006871D02*
X000537Y006871D01*
X000537Y006822D02*
X002910Y006822D01*
X002870Y006774D02*
X000537Y006774D01*
X000537Y006725D02*
X002870Y006725D01*
X002870Y006677D02*
X000537Y006677D01*
X000537Y006628D02*
X002870Y006628D01*
X002870Y006579D02*
X000537Y006579D01*
X000537Y006531D02*
X002870Y006531D01*
X002870Y006482D02*
X000537Y006482D01*
X000537Y006434D02*
X002870Y006434D01*
X002870Y006385D02*
X000537Y006385D01*
X000537Y006337D02*
X002870Y006337D01*
X002870Y006288D02*
X000537Y006288D01*
X000537Y006240D02*
X002870Y006240D01*
X002870Y006191D02*
X000537Y006191D01*
X000537Y006143D02*
X002870Y006143D01*
X002890Y006094D02*
X000537Y006094D01*
X000537Y006045D02*
X002936Y006045D01*
X002888Y005997D02*
X000537Y005997D01*
X000537Y005948D02*
X002870Y005948D01*
X002870Y005900D02*
X000537Y005900D01*
X000537Y005851D02*
X002870Y005851D01*
X002870Y005803D02*
X000537Y005803D01*
X000537Y005754D02*
X002870Y005754D01*
X002870Y005706D02*
X000537Y005706D01*
X000537Y005657D02*
X002870Y005657D01*
X002870Y005609D02*
X000537Y005609D01*
X000537Y005560D02*
X002870Y005560D01*
X002870Y005511D02*
X000537Y005511D01*
X000537Y005463D02*
X002870Y005463D01*
X002870Y005414D02*
X000537Y005414D01*
X000537Y005366D02*
X002870Y005366D01*
X002870Y005317D02*
X000537Y005317D01*
X000537Y005269D02*
X002912Y005269D01*
X002961Y005220D02*
X000537Y005220D01*
X000537Y005172D02*
X003077Y005172D01*
X003077Y005123D02*
X000537Y005123D01*
X000537Y005075D02*
X003077Y005075D01*
X003077Y005026D02*
X000537Y005026D01*
X000537Y004978D02*
X003077Y004978D01*
X003077Y004929D02*
X000537Y004929D01*
X000537Y004880D02*
X003077Y004880D01*
X003077Y004832D02*
X000537Y004832D01*
X000537Y004783D02*
X003077Y004783D01*
X003077Y004735D02*
X000537Y004735D01*
X000537Y004686D02*
X003077Y004686D01*
X003077Y004638D02*
X000537Y004638D01*
X000537Y004589D02*
X003077Y004589D01*
X003077Y004541D02*
X002557Y004541D01*
X002674Y004492D02*
X003077Y004492D01*
X003077Y004444D02*
X002791Y004444D01*
X002846Y004395D02*
X003077Y004395D01*
X003077Y004346D02*
X002895Y004346D01*
X002943Y004298D02*
X003077Y004298D01*
X003077Y004249D02*
X002992Y004249D01*
X003016Y004201D02*
X003077Y004201D01*
X003077Y004152D02*
X003036Y004152D01*
X003056Y004104D02*
X003116Y004104D01*
X003076Y004055D02*
X003165Y004055D01*
X003213Y004007D02*
X003096Y004007D01*
X003104Y003958D02*
X004412Y003958D01*
X004123Y003910D02*
X003104Y003910D01*
X003104Y003861D02*
X004052Y003861D01*
X004004Y003812D02*
X003104Y003812D01*
X003104Y003764D02*
X003965Y003764D01*
X003945Y003715D02*
X003104Y003715D01*
X003087Y003667D02*
X003924Y003667D01*
X003910Y003618D02*
X003067Y003618D01*
X003047Y003570D02*
X003910Y003570D01*
X003910Y003521D02*
X003026Y003521D01*
X002921Y003376D02*
X003950Y003376D01*
X003971Y003327D02*
X002872Y003327D01*
X002824Y003279D02*
X004018Y003279D01*
X004066Y003230D02*
X002737Y003230D01*
X002620Y003181D02*
X004158Y003181D01*
X004467Y003181D02*
X005188Y003181D01*
X005237Y003133D02*
X001905Y003133D01*
X001956Y003112D02*
X001656Y003236D01*
X001331Y003236D01*
X001032Y003112D01*
X000802Y002883D01*
X000678Y002583D01*
X000678Y002259D01*
X000537Y002259D01*
X000537Y002211D02*
X000698Y002211D01*
X000678Y002259D02*
X000802Y001959D01*
X001032Y001729D01*
X001331Y001605D01*
X001656Y001605D01*
X001956Y001729D01*
X002185Y001959D01*
X002309Y002259D01*
X005377Y002259D01*
X005377Y002211D02*
X002289Y002211D01*
X002309Y002259D02*
X002309Y002583D01*
X002185Y002883D01*
X001956Y003112D01*
X001983Y003084D02*
X005285Y003084D01*
X005334Y003036D02*
X002032Y003036D01*
X002080Y002987D02*
X005377Y002987D01*
X005377Y002939D02*
X002129Y002939D01*
X002177Y002890D02*
X005377Y002890D01*
X005377Y002842D02*
X002202Y002842D01*
X002222Y002793D02*
X005377Y002793D01*
X005377Y002745D02*
X002242Y002745D01*
X002262Y002696D02*
X005377Y002696D01*
X005377Y002647D02*
X002282Y002647D01*
X002302Y002599D02*
X005377Y002599D01*
X005377Y002550D02*
X002309Y002550D01*
X002309Y002502D02*
X005377Y002502D01*
X005377Y002453D02*
X002309Y002453D01*
X002309Y002405D02*
X005377Y002405D01*
X005377Y002356D02*
X002309Y002356D01*
X002309Y002308D02*
X005377Y002308D01*
X005377Y002162D02*
X002269Y002162D01*
X002249Y002113D02*
X005377Y002113D01*
X005377Y002065D02*
X002229Y002065D01*
X002209Y002016D02*
X005377Y002016D01*
X005377Y001968D02*
X002189Y001968D01*
X002145Y001919D02*
X005377Y001919D01*
X005377Y001871D02*
X002097Y001871D01*
X002048Y001822D02*
X005377Y001822D01*
X005377Y001774D02*
X002000Y001774D01*
X001945Y001725D02*
X005377Y001725D01*
X005377Y001677D02*
X001828Y001677D01*
X001711Y001628D02*
X005392Y001628D01*
X005440Y001579D02*
X000537Y001579D01*
X000537Y001531D02*
X005489Y001531D01*
X005847Y002599D02*
X006371Y002599D01*
X006322Y002647D02*
X005847Y002647D01*
X005847Y002696D02*
X006274Y002696D01*
X006225Y002745D02*
X005847Y002745D01*
X005847Y002793D02*
X006177Y002793D01*
X006128Y002842D02*
X005847Y002842D01*
X005847Y002890D02*
X005980Y002890D01*
X005931Y002939D02*
X005847Y002939D01*
X005847Y002987D02*
X005883Y002987D01*
X005877Y003036D02*
X005847Y003036D01*
X005847Y003084D02*
X005877Y003084D01*
X005877Y003133D02*
X005847Y003133D01*
X005847Y003181D02*
X005877Y003181D01*
X005877Y003230D02*
X005804Y003230D01*
X005756Y003279D02*
X005877Y003279D01*
X005877Y003327D02*
X005707Y003327D01*
X005659Y003376D02*
X005877Y003376D01*
X005877Y003424D02*
X005610Y003424D01*
X005562Y003473D02*
X005877Y003473D01*
X005877Y003521D02*
X005513Y003521D01*
X005465Y003570D02*
X005877Y003570D01*
X005877Y003618D02*
X005416Y003618D01*
X005368Y003667D02*
X005877Y003667D01*
X005877Y003715D02*
X005319Y003715D01*
X005270Y003764D02*
X005877Y003764D01*
X005877Y003812D02*
X005222Y003812D01*
X005173Y003861D02*
X005877Y003861D01*
X005877Y003910D02*
X005125Y003910D01*
X005076Y003958D02*
X005877Y003958D01*
X005877Y004007D02*
X005028Y004007D01*
X004979Y004055D02*
X005877Y004055D01*
X005877Y004104D02*
X004931Y004104D01*
X004882Y004152D02*
X005877Y004152D01*
X005869Y004201D02*
X004834Y004201D01*
X004785Y004249D02*
X005820Y004249D01*
X005772Y004298D02*
X004736Y004298D01*
X004688Y004346D02*
X005723Y004346D01*
X005675Y004395D02*
X004639Y004395D01*
X004591Y004444D02*
X005626Y004444D01*
X005578Y004492D02*
X003547Y004492D01*
X003547Y004541D02*
X005529Y004541D01*
X005481Y004589D02*
X003547Y004589D01*
X003547Y004638D02*
X005432Y004638D01*
X005384Y004686D02*
X003547Y004686D01*
X003547Y004735D02*
X005335Y004735D01*
X005286Y004783D02*
X003547Y004783D01*
X003547Y004832D02*
X005238Y004832D01*
X005189Y004880D02*
X003547Y004880D01*
X003547Y004929D02*
X005141Y004929D01*
X005092Y004978D02*
X003547Y004978D01*
X003547Y005026D02*
X005044Y005026D01*
X004995Y005075D02*
X003547Y005075D01*
X003547Y005123D02*
X004947Y005123D01*
X004898Y005172D02*
X003547Y005172D01*
X003664Y005220D02*
X004850Y005220D01*
X004801Y005269D02*
X003713Y005269D01*
X003755Y005317D02*
X004752Y005317D01*
X004704Y005366D02*
X003755Y005366D01*
X003755Y005414D02*
X004655Y005414D01*
X004607Y005463D02*
X003755Y005463D01*
X003755Y005511D02*
X004508Y005511D01*
X004460Y005560D02*
X003755Y005560D01*
X003755Y005609D02*
X003974Y005609D01*
X003925Y005657D02*
X003755Y005657D01*
X003755Y005706D02*
X003877Y005706D01*
X003870Y005754D02*
X003755Y005754D01*
X003755Y005803D02*
X003870Y005803D01*
X003870Y005851D02*
X003755Y005851D01*
X003755Y005900D02*
X003870Y005900D01*
X003870Y005948D02*
X003755Y005948D01*
X003737Y005997D02*
X003870Y005997D01*
X003870Y006045D02*
X003689Y006045D01*
X003735Y006094D02*
X003870Y006094D01*
X003870Y006143D02*
X003755Y006143D01*
X003755Y006191D02*
X003870Y006191D01*
X002257Y004541D02*
X000537Y004541D01*
X000537Y004492D02*
X002140Y004492D01*
X002022Y004444D02*
X000537Y004444D01*
X000537Y004395D02*
X001968Y004395D01*
X001919Y004346D02*
X000537Y004346D01*
X000537Y004298D02*
X001871Y004298D01*
X001822Y004249D02*
X000537Y004249D01*
X000537Y004201D02*
X001798Y004201D01*
X001778Y004152D02*
X000537Y004152D01*
X000537Y004104D02*
X001758Y004104D01*
X001738Y004055D02*
X000537Y004055D01*
X000537Y004007D02*
X001718Y004007D01*
X001709Y003958D02*
X000537Y003958D01*
X000537Y003910D02*
X001709Y003910D01*
X001709Y003861D02*
X000537Y003861D01*
X000537Y003812D02*
X001709Y003812D01*
X001709Y003764D02*
X000537Y003764D01*
X000537Y003715D02*
X001709Y003715D01*
X001727Y003667D02*
X000537Y003667D01*
X000537Y003618D02*
X001747Y003618D01*
X001767Y003570D02*
X000537Y003570D01*
X000537Y003521D02*
X001787Y003521D01*
X001807Y003473D02*
X000537Y003473D01*
X000537Y003424D02*
X001844Y003424D01*
X001893Y003376D02*
X000537Y003376D01*
X000537Y003327D02*
X001941Y003327D01*
X001990Y003279D02*
X000537Y003279D01*
X000537Y003230D02*
X001316Y003230D01*
X001199Y003181D02*
X000537Y003181D01*
X000537Y003133D02*
X001082Y003133D01*
X001004Y003084D02*
X000537Y003084D01*
X000537Y003036D02*
X000955Y003036D01*
X000907Y002987D02*
X000537Y002987D01*
X000537Y002939D02*
X000858Y002939D01*
X000810Y002890D02*
X000537Y002890D01*
X000537Y002842D02*
X000785Y002842D01*
X000765Y002793D02*
X000537Y002793D01*
X000537Y002745D02*
X000745Y002745D01*
X000725Y002696D02*
X000537Y002696D01*
X000537Y002647D02*
X000705Y002647D01*
X000685Y002599D02*
X000537Y002599D01*
X000537Y002550D02*
X000678Y002550D01*
X000678Y002502D02*
X000537Y002502D01*
X000537Y002453D02*
X000678Y002453D01*
X000678Y002405D02*
X000537Y002405D01*
X000537Y002356D02*
X000678Y002356D01*
X000678Y002308D02*
X000537Y002308D01*
X000537Y002162D02*
X000718Y002162D01*
X000738Y002113D02*
X000537Y002113D01*
X000537Y002065D02*
X000758Y002065D01*
X000778Y002016D02*
X000537Y002016D01*
X000537Y001968D02*
X000798Y001968D01*
X000842Y001919D02*
X000537Y001919D01*
X000537Y001871D02*
X000890Y001871D01*
X000939Y001822D02*
X000537Y001822D01*
X000537Y001774D02*
X000987Y001774D01*
X001042Y001725D02*
X000537Y001725D01*
X000537Y001677D02*
X001159Y001677D01*
X001276Y001628D02*
X000537Y001628D01*
X001788Y003181D02*
X002194Y003181D01*
X002076Y003230D02*
X001671Y003230D01*
X004558Y003230D02*
X005140Y003230D01*
X005091Y003279D02*
X004607Y003279D01*
X004654Y003327D02*
X005043Y003327D01*
X004994Y003376D02*
X004674Y003376D01*
X004694Y003424D02*
X004946Y003424D01*
X004800Y003570D02*
X004715Y003570D01*
X004715Y003618D02*
X004751Y003618D01*
X004703Y003667D02*
X004700Y003667D01*
X010544Y002842D02*
X010581Y002842D01*
X010591Y002647D02*
X010534Y002647D01*
X011261Y002356D02*
X011597Y002356D01*
X011548Y002308D02*
X011257Y002308D01*
X011257Y002259D02*
X011500Y002259D01*
X011451Y002211D02*
X011257Y002211D01*
X011257Y002162D02*
X011402Y002162D01*
X011354Y002113D02*
X011257Y002113D01*
X011257Y002065D02*
X011305Y002065D01*
X011257Y002016D02*
X011218Y002016D01*
X011208Y001968D02*
X011170Y001968D01*
X011160Y001919D02*
X011121Y001919D01*
X011111Y001871D02*
X011073Y001871D01*
X011063Y001822D02*
X011024Y001822D01*
X010601Y001822D02*
X010524Y001822D01*
X011387Y001482D02*
X039458Y001482D01*
X039458Y001531D02*
X011436Y001531D01*
X011485Y001579D02*
X039458Y001579D01*
X039458Y001628D02*
X038719Y001628D01*
X038664Y001605D02*
X038963Y001729D01*
X039193Y001959D01*
X039317Y002259D01*
X039458Y002259D01*
X039458Y002211D02*
X039297Y002211D01*
X039317Y002259D02*
X039317Y002583D01*
X039193Y002883D01*
X038963Y003112D01*
X038664Y003236D01*
X038339Y003236D01*
X038039Y003112D01*
X037810Y002883D01*
X037686Y002583D01*
X037686Y002259D01*
X034514Y002259D01*
X034466Y002211D02*
X037706Y002211D01*
X037686Y002259D02*
X037810Y001959D01*
X038039Y001729D01*
X038339Y001605D01*
X038664Y001605D01*
X038836Y001677D02*
X039458Y001677D01*
X039458Y001725D02*
X038953Y001725D01*
X039008Y001774D02*
X039458Y001774D01*
X039458Y001822D02*
X039056Y001822D01*
X039105Y001871D02*
X039458Y001871D01*
X039458Y001919D02*
X039153Y001919D01*
X039196Y001968D02*
X039458Y001968D01*
X039458Y002016D02*
X039217Y002016D01*
X039237Y002065D02*
X039458Y002065D01*
X039458Y002113D02*
X039257Y002113D01*
X039277Y002162D02*
X039458Y002162D01*
X039458Y002308D02*
X039317Y002308D01*
X039317Y002356D02*
X039458Y002356D01*
X039458Y002405D02*
X039317Y002405D01*
X039317Y002453D02*
X039458Y002453D01*
X039458Y002502D02*
X039317Y002502D01*
X039317Y002550D02*
X039458Y002550D01*
X039458Y002599D02*
X039310Y002599D01*
X039290Y002647D02*
X039458Y002647D01*
X039458Y002696D02*
X039270Y002696D01*
X039250Y002745D02*
X039458Y002745D01*
X039458Y002793D02*
X039230Y002793D01*
X039210Y002842D02*
X039458Y002842D01*
X039458Y002890D02*
X039185Y002890D01*
X039137Y002939D02*
X039458Y002939D01*
X039458Y002987D02*
X039088Y002987D01*
X039040Y003036D02*
X039458Y003036D01*
X039458Y003084D02*
X038991Y003084D01*
X038913Y003133D02*
X039458Y003133D01*
X039458Y003181D02*
X038796Y003181D01*
X038679Y003230D02*
X039458Y003230D01*
X039458Y003279D02*
X035534Y003279D01*
X035582Y003327D02*
X039458Y003327D01*
X039458Y003376D02*
X035631Y003376D01*
X035679Y003424D02*
X039458Y003424D01*
X039458Y003473D02*
X035728Y003473D01*
X035776Y003521D02*
X039458Y003521D01*
X039458Y003570D02*
X035825Y003570D01*
X035873Y003618D02*
X039458Y003618D01*
X039458Y003667D02*
X035922Y003667D01*
X035970Y003715D02*
X039458Y003715D01*
X039458Y003764D02*
X036019Y003764D01*
X036068Y003812D02*
X039458Y003812D01*
X039458Y003861D02*
X036116Y003861D01*
X036165Y003910D02*
X039458Y003910D01*
X039458Y003958D02*
X036213Y003958D01*
X036519Y004007D02*
X039458Y004007D01*
X039458Y004055D02*
X036606Y004055D01*
X036655Y004104D02*
X039458Y004104D01*
X039458Y004152D02*
X036703Y004152D01*
X036734Y004201D02*
X039458Y004201D01*
X039458Y004249D02*
X036754Y004249D01*
X036774Y004298D02*
X039458Y004298D01*
X039458Y004346D02*
X036794Y004346D01*
X036794Y004395D02*
X039458Y004395D01*
X039458Y004444D02*
X036794Y004444D01*
X036794Y004492D02*
X039458Y004492D01*
X039458Y004541D02*
X036794Y004541D01*
X036794Y004589D02*
X039458Y004589D01*
X039458Y004638D02*
X036794Y004638D01*
X036794Y004686D02*
X039458Y004686D01*
X039458Y004735D02*
X036794Y004735D01*
X036794Y004783D02*
X039458Y004783D01*
X039458Y004832D02*
X036794Y004832D01*
X036794Y004880D02*
X039458Y004880D01*
X039458Y004929D02*
X036794Y004929D01*
X036794Y004978D02*
X039458Y004978D01*
X039458Y005026D02*
X036794Y005026D01*
X036794Y005075D02*
X039458Y005075D01*
X039458Y005123D02*
X036794Y005123D01*
X036778Y005172D02*
X039458Y005172D01*
X039458Y005220D02*
X036758Y005220D01*
X036738Y005269D02*
X039458Y005269D01*
X039458Y005317D02*
X036713Y005317D01*
X036664Y005366D02*
X039458Y005366D01*
X039458Y005414D02*
X036616Y005414D01*
X036542Y005463D02*
X039458Y005463D01*
X039458Y005511D02*
X036425Y005511D01*
X036200Y005511D02*
X035425Y005511D01*
X035542Y005463D02*
X036083Y005463D01*
X036009Y005414D02*
X035616Y005414D01*
X035664Y005366D02*
X035960Y005366D01*
X035912Y005317D02*
X035713Y005317D01*
X035738Y005269D02*
X035887Y005269D01*
X035867Y005220D02*
X035758Y005220D01*
X035778Y005172D02*
X035847Y005172D01*
X035831Y005123D02*
X035794Y005123D01*
X035794Y005075D02*
X035831Y005075D01*
X035831Y005026D02*
X035794Y005026D01*
X035794Y004978D02*
X035831Y004978D01*
X035831Y004929D02*
X035794Y004929D01*
X035794Y004880D02*
X035831Y004880D01*
X035831Y004832D02*
X035794Y004832D01*
X035794Y004783D02*
X035831Y004783D01*
X035831Y004735D02*
X035794Y004735D01*
X035794Y004686D02*
X035831Y004686D01*
X035831Y004638D02*
X035794Y004638D01*
X035794Y004589D02*
X035831Y004589D01*
X035831Y004541D02*
X035794Y004541D01*
X035794Y004492D02*
X035831Y004492D01*
X035831Y004444D02*
X035794Y004444D01*
X035794Y004395D02*
X035831Y004395D01*
X035831Y004346D02*
X035794Y004346D01*
X035774Y004298D02*
X035851Y004298D01*
X035840Y004249D02*
X035754Y004249D01*
X035734Y004201D02*
X035791Y004201D01*
X035743Y004152D02*
X035703Y004152D01*
X035694Y004104D02*
X035655Y004104D01*
X035646Y004055D02*
X035606Y004055D01*
X035597Y004007D02*
X035519Y004007D01*
X035549Y003958D02*
X032713Y003958D01*
X032665Y003910D02*
X035500Y003910D01*
X035451Y003861D02*
X032616Y003861D01*
X032568Y003812D02*
X035403Y003812D01*
X035354Y003764D02*
X032519Y003764D01*
X032470Y003715D02*
X035306Y003715D01*
X035257Y003667D02*
X032422Y003667D01*
X032373Y003618D02*
X035209Y003618D01*
X035160Y003570D02*
X032325Y003570D01*
X032276Y003521D02*
X035112Y003521D01*
X035063Y003473D02*
X032228Y003473D01*
X032179Y003424D02*
X035015Y003424D01*
X034966Y003376D02*
X032131Y003376D01*
X032082Y003327D02*
X034918Y003327D01*
X034869Y003279D02*
X032034Y003279D01*
X031985Y003230D02*
X034820Y003230D01*
X034772Y003181D02*
X031936Y003181D01*
X031888Y003133D02*
X034723Y003133D01*
X034675Y003084D02*
X031839Y003084D01*
X031791Y003036D02*
X034626Y003036D01*
X034578Y002987D02*
X031742Y002987D01*
X031694Y002939D02*
X034529Y002939D01*
X034481Y002890D02*
X031645Y002890D01*
X031597Y002842D02*
X034432Y002842D01*
X034384Y002793D02*
X031548Y002793D01*
X031500Y002745D02*
X034335Y002745D01*
X034286Y002696D02*
X031451Y002696D01*
X031402Y002647D02*
X034238Y002647D01*
X034189Y002599D02*
X031354Y002599D01*
X031305Y002550D02*
X034141Y002550D01*
X034092Y002502D02*
X031257Y002502D01*
X031208Y002453D02*
X034044Y002453D01*
X034417Y002162D02*
X037726Y002162D01*
X037746Y002113D02*
X034369Y002113D01*
X034320Y002065D02*
X037766Y002065D01*
X037786Y002016D02*
X034271Y002016D01*
X034223Y001968D02*
X037806Y001968D01*
X037850Y001919D02*
X013621Y001919D01*
X013573Y001871D02*
X037898Y001871D01*
X037947Y001822D02*
X013524Y001822D01*
X013670Y001968D02*
X019252Y001968D01*
X019203Y002016D02*
X013718Y002016D01*
X013757Y002065D02*
X019155Y002065D01*
X019106Y002113D02*
X014119Y002113D01*
X014167Y002162D02*
X019058Y002162D01*
X019009Y002211D02*
X014216Y002211D01*
X014247Y002259D02*
X018961Y002259D01*
X018912Y002308D02*
X014247Y002308D01*
X014247Y002356D02*
X018864Y002356D01*
X018815Y002405D02*
X014247Y002405D01*
X014247Y002453D02*
X018766Y002453D01*
X018718Y002502D02*
X014247Y002502D01*
X013777Y002599D02*
X013582Y002599D01*
X013534Y002647D02*
X013777Y002647D01*
X013777Y002696D02*
X011601Y002696D01*
X011552Y002647D02*
X012591Y002647D01*
X012542Y002599D02*
X011504Y002599D01*
X011455Y002550D02*
X012494Y002550D01*
X012445Y002502D02*
X011407Y002502D01*
X011358Y002453D02*
X012397Y002453D01*
X012367Y002405D02*
X011310Y002405D01*
X011650Y002745D02*
X013777Y002745D01*
X013777Y002793D02*
X011698Y002793D01*
X011747Y002842D02*
X012581Y002842D01*
X012533Y002890D02*
X011795Y002890D01*
X011785Y002880D02*
X011785Y002880D01*
X011897Y003376D02*
X012367Y003376D01*
X012368Y003424D02*
X011897Y003424D01*
X011897Y003473D02*
X012416Y003473D01*
X012465Y003521D02*
X011897Y003521D01*
X011897Y003570D02*
X012513Y003570D01*
X012562Y003618D02*
X011897Y003618D01*
X011897Y003667D02*
X012610Y003667D01*
X012921Y003812D02*
X011897Y003812D01*
X011897Y003764D02*
X013456Y003764D01*
X013504Y003715D02*
X011897Y003715D01*
X011897Y003861D02*
X012804Y003861D01*
X012753Y003910D02*
X011897Y003910D01*
X011897Y003958D02*
X012705Y003958D01*
X012667Y004007D02*
X011897Y004007D01*
X011897Y004055D02*
X012647Y004055D01*
X012627Y004104D02*
X011897Y004104D01*
X011897Y004152D02*
X012607Y004152D01*
X012607Y004201D02*
X011897Y004201D01*
X011897Y004249D02*
X012607Y004249D01*
X012607Y004298D02*
X011897Y004298D01*
X011897Y004346D02*
X012615Y004346D01*
X012635Y004395D02*
X011897Y004395D01*
X011897Y004444D02*
X012655Y004444D01*
X012676Y004492D02*
X011897Y004492D01*
X011897Y004541D02*
X012724Y004541D01*
X012773Y004589D02*
X011897Y004589D01*
X011897Y004638D02*
X012851Y004638D01*
X013686Y004783D02*
X011897Y004783D01*
X011897Y004735D02*
X013735Y004735D01*
X013784Y004686D02*
X011897Y004686D01*
X013774Y004638D02*
X013832Y004638D01*
X013852Y004589D02*
X013881Y004589D01*
X013901Y004541D02*
X013929Y004541D01*
X013949Y004492D02*
X013978Y004492D01*
X013970Y004444D02*
X014026Y004444D01*
X013990Y004395D02*
X014075Y004395D01*
X013553Y003667D02*
X013515Y003667D01*
X013563Y003618D02*
X013601Y003618D01*
X013612Y003570D02*
X013650Y003570D01*
X013660Y003521D02*
X013699Y003521D01*
X013709Y003473D02*
X013747Y003473D01*
X013757Y003376D02*
X013777Y003376D01*
X013777Y003327D02*
X013757Y003327D01*
X013757Y003279D02*
X013777Y003279D01*
X013777Y003230D02*
X013757Y003230D01*
X013757Y003181D02*
X013777Y003181D01*
X013777Y003133D02*
X013757Y003133D01*
X013757Y003084D02*
X013777Y003084D01*
X013777Y003036D02*
X013738Y003036D01*
X013777Y002987D02*
X013689Y002987D01*
X013641Y002939D02*
X013777Y002939D01*
X013777Y002890D02*
X013592Y002890D01*
X013544Y002842D02*
X013777Y002842D01*
X013081Y002842D02*
X013044Y002842D01*
X013034Y002647D02*
X013091Y002647D01*
X012552Y001871D02*
X011776Y001871D01*
X011727Y001822D02*
X012601Y001822D01*
X013024Y001822D02*
X013101Y001822D01*
X011679Y001774D02*
X037995Y001774D01*
X038050Y001725D02*
X011630Y001725D01*
X011582Y001677D02*
X038167Y001677D01*
X038284Y001628D02*
X011533Y001628D01*
X013015Y003667D02*
X013110Y003667D01*
X016563Y003861D02*
X017045Y003861D01*
X017013Y003910D02*
X016612Y003910D01*
X016660Y003958D02*
X016965Y003958D01*
X016916Y004007D02*
X016709Y004007D01*
X016757Y004055D02*
X016757Y004424D01*
X016738Y004444D02*
X016887Y004444D01*
X016936Y004492D02*
X016689Y004492D01*
X016641Y004541D02*
X016984Y004541D01*
X017033Y004589D02*
X016592Y004589D01*
X016544Y004638D02*
X017081Y004638D01*
X017544Y004638D02*
X019582Y004638D01*
X019631Y004589D02*
X017592Y004589D01*
X017641Y004541D02*
X019679Y004541D01*
X019728Y004492D02*
X017689Y004492D01*
X017738Y004444D02*
X019776Y004444D01*
X020150Y004735D02*
X024331Y004735D01*
X024331Y004783D02*
X020101Y004783D01*
X020053Y004832D02*
X024331Y004832D01*
X024331Y004880D02*
X020004Y004880D01*
X019955Y004929D02*
X024331Y004929D01*
X024331Y004978D02*
X019907Y004978D01*
X019858Y005026D02*
X024331Y005026D01*
X024331Y005075D02*
X024130Y005075D01*
X024178Y005123D02*
X024331Y005123D01*
X024347Y005172D02*
X024227Y005172D01*
X024275Y005220D02*
X024367Y005220D01*
X024387Y005269D02*
X024324Y005269D01*
X024372Y005317D02*
X024412Y005317D01*
X024421Y005366D02*
X024460Y005366D01*
X024469Y005414D02*
X024509Y005414D01*
X024518Y005463D02*
X024583Y005463D01*
X024567Y005511D02*
X024700Y005511D01*
X024925Y005511D02*
X025058Y005511D01*
X025042Y005463D02*
X025107Y005463D01*
X025116Y005414D02*
X025155Y005414D01*
X025164Y005366D02*
X025204Y005366D01*
X025213Y005317D02*
X025252Y005317D01*
X025238Y005269D02*
X025301Y005269D01*
X025258Y005220D02*
X025350Y005220D01*
X025347Y005172D02*
X025278Y005172D01*
X025294Y005123D02*
X025331Y005123D01*
X025331Y005075D02*
X025294Y005075D01*
X025294Y005026D02*
X025331Y005026D01*
X025331Y004978D02*
X025294Y004978D01*
X025294Y004929D02*
X025331Y004929D01*
X025331Y004880D02*
X025294Y004880D01*
X025294Y004832D02*
X025331Y004832D01*
X025331Y004783D02*
X025294Y004783D01*
X025294Y004735D02*
X025331Y004735D01*
X025331Y004686D02*
X025294Y004686D01*
X025294Y004638D02*
X025331Y004638D01*
X025331Y004589D02*
X025294Y004589D01*
X025294Y004541D02*
X025331Y004541D01*
X025331Y004492D02*
X025294Y004492D01*
X025294Y004444D02*
X025331Y004444D01*
X025331Y004395D02*
X025294Y004395D01*
X025294Y004346D02*
X025331Y004346D01*
X025351Y004298D02*
X025274Y004298D01*
X025285Y004249D02*
X025371Y004249D01*
X025391Y004201D02*
X025334Y004201D01*
X025382Y004152D02*
X025422Y004152D01*
X025431Y004104D02*
X025470Y004104D01*
X025479Y004055D02*
X025519Y004055D01*
X025528Y004007D02*
X025606Y004007D01*
X025576Y003958D02*
X026749Y003958D01*
X026797Y004007D02*
X026019Y004007D01*
X026106Y004055D02*
X026846Y004055D01*
X026894Y004104D02*
X026155Y004104D01*
X026203Y004152D02*
X026943Y004152D01*
X026991Y004201D02*
X026234Y004201D01*
X026254Y004249D02*
X027040Y004249D01*
X027088Y004298D02*
X026274Y004298D01*
X026294Y004346D02*
X027137Y004346D01*
X027185Y004395D02*
X026294Y004395D01*
X026294Y004444D02*
X027234Y004444D01*
X027283Y004492D02*
X026294Y004492D01*
X026294Y004541D02*
X027331Y004541D01*
X027380Y004589D02*
X026294Y004589D01*
X026294Y004638D02*
X027428Y004638D01*
X027477Y004686D02*
X026294Y004686D01*
X026294Y004735D02*
X027525Y004735D01*
X027574Y004783D02*
X026294Y004783D01*
X026294Y004832D02*
X027622Y004832D01*
X027671Y004880D02*
X026294Y004880D01*
X026294Y004929D02*
X027719Y004929D01*
X027831Y004978D02*
X026294Y004978D01*
X026294Y005026D02*
X027831Y005026D01*
X027831Y005075D02*
X026294Y005075D01*
X026294Y005123D02*
X027831Y005123D01*
X027847Y005172D02*
X026278Y005172D01*
X026258Y005220D02*
X027867Y005220D01*
X027887Y005269D02*
X026238Y005269D01*
X026213Y005317D02*
X027912Y005317D01*
X027960Y005366D02*
X026164Y005366D01*
X026116Y005414D02*
X028009Y005414D01*
X028083Y005463D02*
X026042Y005463D01*
X025925Y005511D02*
X028200Y005511D01*
X028932Y005803D02*
X032193Y005803D01*
X032145Y005754D02*
X028980Y005754D01*
X029029Y005706D02*
X032096Y005706D01*
X032048Y005657D02*
X029077Y005657D01*
X029126Y005609D02*
X031999Y005609D01*
X031951Y005560D02*
X029174Y005560D01*
X029425Y005511D02*
X031700Y005511D01*
X031583Y005463D02*
X029542Y005463D01*
X029616Y005414D02*
X031509Y005414D01*
X031460Y005366D02*
X029664Y005366D01*
X029713Y005317D02*
X031412Y005317D01*
X031387Y005269D02*
X029738Y005269D01*
X029758Y005220D02*
X031367Y005220D01*
X031347Y005172D02*
X029778Y005172D01*
X029794Y005123D02*
X031331Y005123D01*
X031331Y005075D02*
X029794Y005075D01*
X029794Y005026D02*
X031331Y005026D01*
X031331Y004978D02*
X029794Y004978D01*
X029794Y004929D02*
X031219Y004929D01*
X031171Y004880D02*
X029794Y004880D01*
X029794Y004832D02*
X031122Y004832D01*
X031074Y004783D02*
X029794Y004783D01*
X029794Y004735D02*
X031025Y004735D01*
X030977Y004686D02*
X029794Y004686D01*
X029794Y004638D02*
X030928Y004638D01*
X032203Y004152D02*
X032243Y004152D01*
X032234Y004201D02*
X032291Y004201D01*
X032254Y004249D02*
X032340Y004249D01*
X032351Y004298D02*
X032274Y004298D01*
X032294Y004346D02*
X032331Y004346D01*
X032331Y004395D02*
X032294Y004395D01*
X032294Y004444D02*
X032331Y004444D01*
X032331Y004492D02*
X032294Y004492D01*
X032294Y004541D02*
X032331Y004541D01*
X032331Y004589D02*
X032294Y004589D01*
X032294Y004638D02*
X032331Y004638D01*
X032331Y004686D02*
X032294Y004686D01*
X032294Y004735D02*
X032331Y004735D01*
X032331Y004783D02*
X032294Y004783D01*
X032294Y004832D02*
X032331Y004832D01*
X032331Y004880D02*
X032294Y004880D01*
X032294Y004929D02*
X032331Y004929D01*
X032331Y004978D02*
X032294Y004978D01*
X032294Y005026D02*
X032331Y005026D01*
X032331Y005075D02*
X032294Y005075D01*
X032294Y005123D02*
X032331Y005123D01*
X032347Y005172D02*
X032278Y005172D01*
X032275Y005220D02*
X032367Y005220D01*
X032387Y005269D02*
X032324Y005269D01*
X032372Y005317D02*
X032412Y005317D01*
X032421Y005366D02*
X032460Y005366D01*
X032469Y005414D02*
X032509Y005414D01*
X032518Y005463D02*
X032583Y005463D01*
X032567Y005511D02*
X032700Y005511D01*
X032925Y005511D02*
X034208Y005511D01*
X034190Y005530D02*
X034190Y005530D01*
X034257Y005463D02*
X033042Y005463D01*
X033116Y005414D02*
X034305Y005414D01*
X034354Y005366D02*
X033164Y005366D01*
X033213Y005317D02*
X034402Y005317D01*
X034451Y005269D02*
X033238Y005269D01*
X033258Y005220D02*
X034500Y005220D01*
X034548Y005172D02*
X033278Y005172D01*
X033294Y005123D02*
X034597Y005123D01*
X034645Y005075D02*
X033294Y005075D01*
X033294Y005026D02*
X034694Y005026D01*
X034742Y004978D02*
X033294Y004978D01*
X033294Y004929D02*
X034791Y004929D01*
X034831Y004880D02*
X033294Y004880D01*
X033294Y004832D02*
X034831Y004832D01*
X034831Y004783D02*
X033294Y004783D01*
X033294Y004735D02*
X034831Y004735D01*
X034831Y004686D02*
X033294Y004686D01*
X033294Y004638D02*
X034831Y004638D01*
X034831Y004589D02*
X033294Y004589D01*
X033294Y004541D02*
X034831Y004541D01*
X034831Y004492D02*
X033294Y004492D01*
X033294Y004444D02*
X034831Y004444D01*
X034831Y004395D02*
X033294Y004395D01*
X033294Y004346D02*
X034831Y004346D01*
X034851Y004298D02*
X033274Y004298D01*
X033254Y004249D02*
X034871Y004249D01*
X034891Y004201D02*
X033234Y004201D01*
X033203Y004152D02*
X034922Y004152D01*
X034970Y004104D02*
X033155Y004104D01*
X033106Y004055D02*
X035019Y004055D01*
X035106Y004007D02*
X033019Y004007D01*
X032194Y004104D02*
X032155Y004104D01*
X032146Y004055D02*
X032106Y004055D01*
X032097Y004007D02*
X032019Y004007D01*
X031466Y003376D02*
X022757Y003376D01*
X022757Y003327D02*
X031418Y003327D01*
X031369Y003279D02*
X022757Y003279D01*
X022757Y003230D02*
X031320Y003230D01*
X031272Y003181D02*
X022757Y003181D01*
X022757Y003133D02*
X031223Y003133D01*
X031175Y003084D02*
X022800Y003084D01*
X022849Y003036D02*
X031126Y003036D01*
X031078Y002987D02*
X022897Y002987D01*
X022946Y002939D02*
X031029Y002939D01*
X030981Y002890D02*
X022994Y002890D01*
X023043Y002842D02*
X030932Y002842D01*
X030884Y002793D02*
X023091Y002793D01*
X023140Y002745D02*
X030835Y002745D01*
X028897Y003473D02*
X026928Y003473D01*
X026976Y003521D02*
X028849Y003521D01*
X028800Y003570D02*
X027025Y003570D01*
X027073Y003618D02*
X028751Y003618D01*
X028703Y003667D02*
X027122Y003667D01*
X027170Y003715D02*
X028654Y003715D01*
X028606Y003764D02*
X027219Y003764D01*
X027268Y003812D02*
X028557Y003812D01*
X028509Y003861D02*
X027316Y003861D01*
X027365Y003910D02*
X028460Y003910D01*
X028412Y003958D02*
X027413Y003958D01*
X027462Y004007D02*
X028106Y004007D01*
X028019Y004055D02*
X027510Y004055D01*
X027559Y004104D02*
X027970Y004104D01*
X027922Y004152D02*
X027607Y004152D01*
X027656Y004201D02*
X027891Y004201D01*
X027871Y004249D02*
X027704Y004249D01*
X027753Y004298D02*
X027851Y004298D01*
X027831Y004346D02*
X027801Y004346D01*
X029076Y003958D02*
X030249Y003958D01*
X034563Y002308D02*
X037686Y002308D01*
X037686Y002356D02*
X034611Y002356D01*
X034660Y002405D02*
X037686Y002405D01*
X037686Y002453D02*
X034708Y002453D01*
X034757Y002502D02*
X037686Y002502D01*
X037686Y002550D02*
X034805Y002550D01*
X034854Y002599D02*
X037692Y002599D01*
X037713Y002647D02*
X034903Y002647D01*
X034951Y002696D02*
X037733Y002696D01*
X037753Y002745D02*
X035000Y002745D01*
X035048Y002793D02*
X037773Y002793D01*
X037793Y002842D02*
X035097Y002842D01*
X035145Y002890D02*
X037817Y002890D01*
X037866Y002939D02*
X035194Y002939D01*
X035242Y002987D02*
X037915Y002987D01*
X037963Y003036D02*
X035291Y003036D01*
X035339Y003084D02*
X038012Y003084D01*
X038090Y003133D02*
X035388Y003133D01*
X035436Y003181D02*
X038207Y003181D01*
X038324Y003230D02*
X035485Y003230D01*
X035009Y005414D02*
X034970Y005414D01*
X034921Y005463D02*
X035083Y005463D01*
X035200Y005511D02*
X034873Y005511D01*
X034824Y005560D02*
X039458Y005560D01*
X039458Y005609D02*
X034776Y005609D01*
X034727Y005657D02*
X039458Y005657D01*
X039458Y005706D02*
X034679Y005706D01*
X034630Y005754D02*
X039458Y005754D01*
X039458Y005803D02*
X034658Y005803D01*
X034706Y005851D02*
X039458Y005851D01*
X039458Y005900D02*
X034755Y005900D01*
X034803Y005948D02*
X039458Y005948D01*
X039458Y005997D02*
X034852Y005997D01*
X034901Y006045D02*
X039458Y006045D01*
X039458Y006094D02*
X034949Y006094D01*
X034998Y006143D02*
X039458Y006143D01*
X039458Y006191D02*
X035046Y006191D01*
X035095Y006240D02*
X039458Y006240D01*
X039458Y006288D02*
X035143Y006288D01*
X035192Y006337D02*
X039458Y006337D01*
X039458Y006385D02*
X035240Y006385D01*
X035289Y006434D02*
X039458Y006434D01*
X039458Y006482D02*
X035337Y006482D01*
X035386Y006531D02*
X039458Y006531D01*
X039458Y006579D02*
X035435Y006579D01*
X035483Y006628D02*
X039458Y006628D01*
X039458Y006677D02*
X035532Y006677D01*
X035580Y006725D02*
X039458Y006725D01*
X039458Y006774D02*
X035629Y006774D01*
X035677Y006822D02*
X039458Y006822D01*
X039458Y006871D02*
X035726Y006871D01*
X035774Y006919D02*
X039458Y006919D01*
X039458Y006968D02*
X035823Y006968D01*
X035871Y007016D02*
X039458Y007016D01*
X039458Y007065D02*
X035920Y007065D01*
X035969Y007113D02*
X039458Y007113D01*
X039458Y007162D02*
X036017Y007162D01*
X036066Y007211D02*
X039458Y007211D01*
X039458Y007259D02*
X036114Y007259D01*
X036163Y007308D02*
X039458Y007308D01*
X039458Y007356D02*
X036211Y007356D01*
X035401Y007211D02*
X027524Y007211D01*
X027572Y007162D02*
X035352Y007162D01*
X035304Y007113D02*
X027621Y007113D01*
X027670Y007065D02*
X035255Y007065D01*
X035207Y007016D02*
X027718Y007016D01*
X027767Y006968D02*
X035158Y006968D01*
X035110Y006919D02*
X027815Y006919D01*
X027864Y006871D02*
X035061Y006871D01*
X035013Y006822D02*
X027912Y006822D01*
X027961Y006774D02*
X034964Y006774D01*
X034916Y006725D02*
X028009Y006725D01*
X028058Y006677D02*
X034867Y006677D01*
X034818Y006628D02*
X028106Y006628D01*
X028155Y006579D02*
X034770Y006579D01*
X034721Y006531D02*
X028204Y006531D01*
X028252Y006482D02*
X034673Y006482D01*
X034624Y006434D02*
X028301Y006434D01*
X028349Y006385D02*
X034576Y006385D01*
X034527Y006337D02*
X028398Y006337D01*
X028446Y006288D02*
X034479Y006288D01*
X034430Y006240D02*
X028495Y006240D01*
X028543Y006191D02*
X034382Y006191D01*
X034333Y006143D02*
X028592Y006143D01*
X028640Y006094D02*
X034284Y006094D01*
X034236Y006045D02*
X028689Y006045D01*
X028737Y005997D02*
X032387Y005997D01*
X032339Y005948D02*
X028786Y005948D01*
X028835Y005900D02*
X032290Y005900D01*
X032242Y005851D02*
X028883Y005851D01*
X027976Y006094D02*
X022757Y006094D01*
X022757Y006143D02*
X027927Y006143D01*
X027879Y006191D02*
X022757Y006191D01*
X022757Y006240D02*
X027830Y006240D01*
X027782Y006288D02*
X022757Y006288D01*
X022757Y006337D02*
X027733Y006337D01*
X027684Y006385D02*
X022790Y006385D01*
X022839Y006434D02*
X027636Y006434D01*
X027587Y006482D02*
X022887Y006482D01*
X022936Y006531D02*
X027539Y006531D01*
X027490Y006579D02*
X022985Y006579D01*
X023033Y006628D02*
X027442Y006628D01*
X027393Y006677D02*
X023082Y006677D01*
X023130Y006725D02*
X027345Y006725D01*
X022564Y008602D02*
X022401Y008535D01*
X022224Y008535D01*
X022060Y008602D01*
X021935Y008728D01*
X021867Y008891D01*
X021867Y009588D01*
X021935Y009752D01*
X022060Y009877D01*
X022224Y009945D01*
X022401Y009945D01*
X022564Y009877D01*
X022591Y009850D01*
X022795Y010055D01*
X020715Y010055D01*
X020577Y010192D01*
X020577Y010387D01*
X020577Y011875D01*
X020497Y011795D01*
X020128Y011795D01*
X020047Y011875D01*
X020047Y011692D01*
X020047Y008837D01*
X020200Y008685D01*
X020497Y008685D01*
X020757Y008424D01*
X020868Y008424D01*
X020867Y008424D02*
X020867Y008055D01*
X020948Y007975D01*
X020677Y007975D01*
X020757Y008055D01*
X020757Y008424D01*
X020757Y008376D02*
X020867Y008376D01*
X020867Y008424D02*
X021053Y008610D01*
X020935Y008728D01*
X020867Y008891D01*
X020867Y009588D01*
X020935Y009752D01*
X021060Y009877D01*
X021224Y009945D01*
X021401Y009945D01*
X021564Y009877D01*
X021690Y009752D01*
X021757Y009588D01*
X021757Y008891D01*
X021690Y008728D01*
X021572Y008610D01*
X021757Y008424D01*
X021757Y008376D02*
X033966Y008376D01*
X033917Y008327D02*
X021757Y008327D01*
X021757Y008278D02*
X033869Y008278D01*
X033820Y008230D02*
X021757Y008230D01*
X021757Y008181D02*
X033772Y008181D01*
X033723Y008133D02*
X021757Y008133D01*
X021757Y008084D02*
X033675Y008084D01*
X033626Y008036D02*
X021738Y008036D01*
X021689Y007987D02*
X033578Y007987D01*
X034209Y008618D02*
X022580Y008618D01*
X022629Y008667D02*
X034257Y008667D01*
X034306Y008715D02*
X022677Y008715D01*
X022705Y008764D02*
X034354Y008764D01*
X034403Y008812D02*
X022725Y008812D01*
X022745Y008861D02*
X034451Y008861D01*
X034500Y008910D02*
X022757Y008910D01*
X022757Y008958D02*
X034549Y008958D01*
X034597Y009007D02*
X022757Y009007D01*
X022757Y009055D02*
X034646Y009055D01*
X034694Y009104D02*
X022757Y009104D01*
X022757Y009152D02*
X034743Y009152D01*
X034791Y009201D02*
X031956Y009201D01*
X032004Y009249D02*
X034840Y009249D01*
X034888Y009298D02*
X032053Y009298D01*
X032101Y009346D02*
X034937Y009346D01*
X034985Y009395D02*
X032150Y009395D01*
X032199Y009444D02*
X035034Y009444D01*
X035083Y009492D02*
X032247Y009492D01*
X032296Y009541D02*
X035131Y009541D01*
X035180Y009589D02*
X032344Y009589D01*
X032393Y009638D02*
X035228Y009638D01*
X035277Y009686D02*
X032441Y009686D01*
X032490Y009735D02*
X035325Y009735D01*
X035374Y009783D02*
X032538Y009783D01*
X032587Y009832D02*
X035422Y009832D01*
X035471Y009880D02*
X032635Y009880D01*
X032684Y009929D02*
X035519Y009929D01*
X035568Y009977D02*
X032733Y009977D01*
X032781Y010026D02*
X035616Y010026D01*
X035665Y010075D02*
X032830Y010075D01*
X032878Y010123D02*
X035714Y010123D01*
X035762Y010172D02*
X032927Y010172D01*
X032975Y010220D02*
X035811Y010220D01*
X035859Y010269D02*
X033024Y010269D01*
X033072Y010317D02*
X035908Y010317D01*
X035956Y010366D02*
X033121Y010366D01*
X033169Y010414D02*
X036005Y010414D01*
X035331Y011628D02*
X035306Y011628D01*
X035349Y011676D02*
X035258Y011676D01*
X035209Y011725D02*
X035369Y011725D01*
X035389Y011774D02*
X035161Y011774D01*
X035112Y011822D02*
X035417Y011822D01*
X035465Y011871D02*
X035064Y011871D01*
X035015Y011919D02*
X035514Y011919D01*
X035594Y011968D02*
X034967Y011968D01*
X034918Y012016D02*
X035712Y012016D01*
X035955Y012065D02*
X034870Y012065D01*
X034821Y012113D02*
X036004Y012113D01*
X036052Y012162D02*
X034772Y012162D01*
X034724Y012210D02*
X036101Y012210D01*
X036149Y012259D02*
X034675Y012259D01*
X034627Y012308D02*
X036198Y012308D01*
X036247Y012356D02*
X034578Y012356D01*
X034530Y012405D02*
X036295Y012405D01*
X036344Y012453D02*
X034481Y012453D01*
X034433Y012502D02*
X036392Y012502D01*
X032892Y012502D02*
X031883Y012502D01*
X031931Y012453D02*
X032844Y012453D01*
X032795Y012405D02*
X031980Y012405D01*
X032028Y012356D02*
X032747Y012356D01*
X032698Y012308D02*
X032077Y012308D01*
X032125Y012259D02*
X032649Y012259D01*
X032601Y012210D02*
X032174Y012210D01*
X032222Y012162D02*
X032552Y012162D01*
X032504Y012113D02*
X032271Y012113D01*
X032320Y012065D02*
X032455Y012065D01*
X029392Y012502D02*
X027433Y012502D01*
X027481Y012453D02*
X029344Y012453D01*
X029295Y012405D02*
X027530Y012405D01*
X027578Y012356D02*
X029247Y012356D01*
X029198Y012308D02*
X027627Y012308D01*
X027675Y012259D02*
X029149Y012259D01*
X029101Y012210D02*
X027724Y012210D01*
X027772Y012162D02*
X029052Y012162D01*
X029004Y012113D02*
X027821Y012113D01*
X027870Y012065D02*
X028955Y012065D01*
X028712Y012016D02*
X027918Y012016D01*
X027967Y011968D02*
X028594Y011968D01*
X028514Y011919D02*
X028015Y011919D01*
X028064Y011871D02*
X028465Y011871D01*
X028417Y011822D02*
X028112Y011822D01*
X028161Y011774D02*
X028389Y011774D01*
X028369Y011725D02*
X028209Y011725D01*
X028258Y011676D02*
X028349Y011676D01*
X028331Y011628D02*
X028306Y011628D01*
X027885Y011385D02*
X026794Y011385D01*
X026794Y011337D02*
X027933Y011337D01*
X027982Y011288D02*
X026794Y011288D01*
X026794Y011240D02*
X028030Y011240D01*
X028079Y011191D02*
X026794Y011191D01*
X026794Y011143D02*
X028127Y011143D01*
X028176Y011094D02*
X026794Y011094D01*
X026794Y011045D02*
X028224Y011045D01*
X028331Y010997D02*
X026794Y010997D01*
X026794Y010948D02*
X028331Y010948D01*
X028331Y010900D02*
X026794Y010900D01*
X026794Y010851D02*
X028331Y010851D01*
X028349Y010803D02*
X026776Y010803D01*
X026756Y010754D02*
X028369Y010754D01*
X028389Y010706D02*
X026736Y010706D01*
X026708Y010657D02*
X028417Y010657D01*
X028465Y010609D02*
X026660Y010609D01*
X026611Y010560D02*
X028514Y010560D01*
X028595Y010511D02*
X026530Y010511D01*
X026413Y010463D02*
X028712Y010463D01*
X029427Y010172D02*
X032262Y010172D01*
X032311Y010220D02*
X029475Y010220D01*
X029524Y010269D02*
X032359Y010269D01*
X032408Y010317D02*
X029572Y010317D01*
X029621Y010366D02*
X032456Y010366D01*
X032505Y010414D02*
X029669Y010414D01*
X029378Y010123D02*
X032214Y010123D01*
X032165Y010075D02*
X029330Y010075D01*
X029281Y010026D02*
X032116Y010026D01*
X032068Y009977D02*
X029233Y009977D01*
X029184Y009929D02*
X032019Y009929D01*
X031971Y009880D02*
X029135Y009880D01*
X029087Y009832D02*
X031922Y009832D01*
X031874Y009783D02*
X029038Y009783D01*
X028990Y009735D02*
X031825Y009735D01*
X031777Y009686D02*
X028941Y009686D01*
X028893Y009638D02*
X031728Y009638D01*
X027836Y011434D02*
X026794Y011434D01*
X026794Y011482D02*
X027787Y011482D01*
X027739Y011531D02*
X026794Y011531D01*
X026794Y011579D02*
X027690Y011579D01*
X027642Y011628D02*
X026794Y011628D01*
X026776Y011676D02*
X027593Y011676D01*
X027545Y011725D02*
X026756Y011725D01*
X026736Y011774D02*
X027496Y011774D01*
X027448Y011822D02*
X026708Y011822D01*
X026660Y011871D02*
X027399Y011871D01*
X027351Y011919D02*
X026611Y011919D01*
X026530Y011968D02*
X027302Y011968D01*
X027253Y012016D02*
X026413Y012016D01*
X026212Y012016D02*
X026071Y012016D01*
X026094Y011968D02*
X026023Y011968D01*
X026014Y011919D02*
X025974Y011919D01*
X025965Y011871D02*
X025926Y011871D01*
X025935Y011880D02*
X025935Y011880D01*
X025917Y011822D02*
X025877Y011822D01*
X025889Y011774D02*
X025829Y011774D01*
X025869Y011725D02*
X025780Y011725D01*
X025776Y011676D02*
X025849Y011676D01*
X025831Y011628D02*
X025794Y011628D01*
X025794Y011579D02*
X025831Y011579D01*
X025831Y011531D02*
X025794Y011531D01*
X025794Y011482D02*
X025831Y011482D01*
X025831Y011434D02*
X025794Y011434D01*
X025794Y011385D02*
X025831Y011385D01*
X025831Y011337D02*
X025794Y011337D01*
X025794Y011288D02*
X025831Y011288D01*
X025831Y011240D02*
X025794Y011240D01*
X025794Y011191D02*
X025831Y011191D01*
X025831Y011143D02*
X025794Y011143D01*
X025794Y011094D02*
X025831Y011094D01*
X025831Y011045D02*
X025794Y011045D01*
X025794Y010997D02*
X025831Y010997D01*
X025831Y010948D02*
X025794Y010948D01*
X025794Y010900D02*
X025831Y010900D01*
X025831Y010851D02*
X025794Y010851D01*
X025776Y010803D02*
X025849Y010803D01*
X025845Y010754D02*
X025756Y010754D01*
X025736Y010706D02*
X025796Y010706D01*
X025748Y010657D02*
X025708Y010657D01*
X025699Y010609D02*
X025660Y010609D01*
X025650Y010560D02*
X025611Y010560D01*
X025602Y010511D02*
X025530Y010511D01*
X025553Y010463D02*
X025413Y010463D01*
X025212Y010463D02*
X024971Y010463D01*
X024923Y010511D02*
X025095Y010511D01*
X025014Y010560D02*
X024874Y010560D01*
X024826Y010609D02*
X024965Y010609D01*
X024917Y010657D02*
X024777Y010657D01*
X024729Y010706D02*
X024889Y010706D01*
X024869Y010754D02*
X024680Y010754D01*
X024632Y010803D02*
X024849Y010803D01*
X024831Y010851D02*
X024583Y010851D01*
X024535Y010900D02*
X024831Y010900D01*
X024831Y010948D02*
X024486Y010948D01*
X024438Y010997D02*
X024831Y010997D01*
X024831Y011045D02*
X024389Y011045D01*
X024340Y011094D02*
X024831Y011094D01*
X024831Y011143D02*
X024292Y011143D01*
X024243Y011191D02*
X024831Y011191D01*
X024831Y011240D02*
X024195Y011240D01*
X024146Y011288D02*
X024831Y011288D01*
X024831Y011337D02*
X024098Y011337D01*
X024049Y011385D02*
X024831Y011385D01*
X024831Y011434D02*
X024001Y011434D01*
X023952Y011482D02*
X024831Y011482D01*
X024831Y011531D02*
X023904Y011531D01*
X023855Y011579D02*
X024831Y011579D01*
X024831Y011628D02*
X023806Y011628D01*
X023758Y011676D02*
X024849Y011676D01*
X024869Y011725D02*
X023709Y011725D01*
X023661Y011774D02*
X024889Y011774D01*
X024917Y011822D02*
X023612Y011822D01*
X023564Y011871D02*
X024965Y011871D01*
X025014Y011919D02*
X023515Y011919D01*
X023467Y011968D02*
X025094Y011968D01*
X025212Y012016D02*
X023418Y012016D01*
X023370Y012065D02*
X025455Y012065D01*
X025504Y012113D02*
X023321Y012113D01*
X023272Y012162D02*
X025458Y012162D01*
X025409Y012210D02*
X023224Y012210D01*
X023175Y012259D02*
X025361Y012259D01*
X022015Y012647D02*
X021609Y012647D01*
X021658Y012696D02*
X021967Y012696D01*
X021928Y012744D02*
X021697Y012744D01*
X021717Y012793D02*
X021908Y012793D01*
X021888Y012842D02*
X021737Y012842D01*
X021757Y012890D02*
X021868Y012890D01*
X021867Y012939D02*
X021757Y012939D01*
X021757Y012987D02*
X021867Y012987D01*
X021867Y013036D02*
X021757Y013036D01*
X021757Y013084D02*
X021867Y013084D01*
X021867Y013133D02*
X021757Y013133D01*
X021757Y013181D02*
X021867Y013181D01*
X021867Y013230D02*
X021757Y013230D01*
X021757Y013278D02*
X021867Y013278D01*
X021867Y013327D02*
X021757Y013327D01*
X021757Y013376D02*
X021867Y013376D01*
X021867Y013424D02*
X021757Y013424D01*
X021757Y013473D02*
X021867Y013473D01*
X021867Y013521D02*
X021757Y013521D01*
X021757Y013570D02*
X021867Y013570D01*
X021880Y013618D02*
X021745Y013618D01*
X021725Y013667D02*
X021900Y013667D01*
X021920Y013715D02*
X021705Y013715D01*
X021678Y013764D02*
X021947Y013764D01*
X021996Y013812D02*
X021629Y013812D01*
X021580Y013861D02*
X022044Y013861D01*
X022139Y013909D02*
X021486Y013909D01*
X021139Y013909D02*
X018486Y013909D01*
X018580Y013861D02*
X021044Y013861D01*
X020996Y013812D02*
X018629Y013812D01*
X018678Y013764D02*
X020947Y013764D01*
X020920Y013715D02*
X018705Y013715D01*
X018725Y013667D02*
X020900Y013667D01*
X020880Y013618D02*
X018745Y013618D01*
X018757Y013570D02*
X020867Y013570D01*
X020867Y013521D02*
X018757Y013521D01*
X018757Y013473D02*
X020867Y013473D01*
X020867Y013424D02*
X018757Y013424D01*
X018757Y013376D02*
X020867Y013376D01*
X020867Y013327D02*
X018757Y013327D01*
X018757Y013278D02*
X020867Y013278D01*
X020867Y013230D02*
X018757Y013230D01*
X019043Y012842D02*
X019532Y012842D01*
X019483Y012793D02*
X019091Y012793D01*
X019140Y012744D02*
X019435Y012744D01*
X020047Y011871D02*
X020052Y011871D01*
X020047Y011822D02*
X020101Y011822D01*
X020047Y011774D02*
X020577Y011774D01*
X020577Y011822D02*
X020524Y011822D01*
X020573Y011871D02*
X020577Y011871D01*
X020577Y011725D02*
X020047Y011725D01*
X020047Y011676D02*
X020577Y011676D01*
X020577Y011628D02*
X020047Y011628D01*
X020047Y011579D02*
X020577Y011579D01*
X020577Y011531D02*
X020047Y011531D01*
X020047Y011482D02*
X020577Y011482D01*
X020577Y011434D02*
X020047Y011434D01*
X020047Y011385D02*
X020577Y011385D01*
X020577Y011337D02*
X020047Y011337D01*
X020047Y011288D02*
X020577Y011288D01*
X020577Y011240D02*
X020047Y011240D01*
X020047Y011191D02*
X020577Y011191D01*
X020577Y011143D02*
X020047Y011143D01*
X020047Y011094D02*
X020577Y011094D01*
X020577Y011045D02*
X020047Y011045D01*
X020047Y010997D02*
X020577Y010997D01*
X020577Y010948D02*
X020047Y010948D01*
X020047Y010900D02*
X020577Y010900D01*
X020577Y010851D02*
X020047Y010851D01*
X020047Y010803D02*
X020577Y010803D01*
X020577Y010754D02*
X020047Y010754D01*
X020047Y010706D02*
X020577Y010706D01*
X020577Y010657D02*
X020047Y010657D01*
X020047Y010609D02*
X020577Y010609D01*
X020577Y010560D02*
X020047Y010560D01*
X020047Y010511D02*
X020577Y010511D01*
X020577Y010463D02*
X020047Y010463D01*
X020047Y010414D02*
X020577Y010414D01*
X020577Y010366D02*
X020047Y010366D01*
X020047Y010317D02*
X020577Y010317D01*
X020577Y010269D02*
X020047Y010269D01*
X020047Y010220D02*
X020577Y010220D01*
X020598Y010172D02*
X020047Y010172D01*
X020047Y010123D02*
X020647Y010123D01*
X020695Y010075D02*
X020047Y010075D01*
X020047Y010026D02*
X022766Y010026D01*
X022718Y009977D02*
X020047Y009977D01*
X020047Y009929D02*
X021186Y009929D01*
X021069Y009880D02*
X020047Y009880D01*
X020047Y009832D02*
X021015Y009832D01*
X020967Y009783D02*
X020047Y009783D01*
X020047Y009735D02*
X020928Y009735D01*
X020908Y009686D02*
X020047Y009686D01*
X020047Y009638D02*
X020888Y009638D01*
X020868Y009589D02*
X020047Y009589D01*
X020047Y009541D02*
X020867Y009541D01*
X020867Y009492D02*
X020047Y009492D01*
X020047Y009444D02*
X020867Y009444D01*
X020867Y009395D02*
X020047Y009395D01*
X020047Y009346D02*
X020867Y009346D01*
X020867Y009298D02*
X020047Y009298D01*
X020047Y009249D02*
X020867Y009249D01*
X020867Y009201D02*
X020047Y009201D01*
X020047Y009152D02*
X020867Y009152D01*
X020867Y009104D02*
X020047Y009104D01*
X020047Y009055D02*
X020867Y009055D01*
X020867Y009007D02*
X020047Y009007D01*
X020047Y008958D02*
X020867Y008958D01*
X020867Y008910D02*
X020047Y008910D01*
X020047Y008861D02*
X020880Y008861D01*
X020900Y008812D02*
X020072Y008812D01*
X020121Y008764D02*
X020920Y008764D01*
X020947Y008715D02*
X020169Y008715D01*
X020515Y008667D02*
X020996Y008667D01*
X021045Y008618D02*
X020563Y008618D01*
X020612Y008570D02*
X021013Y008570D01*
X020965Y008521D02*
X020660Y008521D01*
X020709Y008473D02*
X020916Y008473D01*
X020867Y008327D02*
X020757Y008327D01*
X020757Y008278D02*
X020867Y008278D01*
X020867Y008230D02*
X020757Y008230D01*
X020757Y008181D02*
X020867Y008181D01*
X020867Y008133D02*
X020757Y008133D01*
X020757Y008084D02*
X020867Y008084D01*
X020887Y008036D02*
X020738Y008036D01*
X020689Y007987D02*
X020936Y007987D01*
X019936Y007987D02*
X019897Y007987D01*
X019887Y008036D02*
X019849Y008036D01*
X019867Y008084D02*
X019800Y008084D01*
X019752Y008133D02*
X019867Y008133D01*
X019867Y008181D02*
X019703Y008181D01*
X019654Y008230D02*
X019867Y008230D01*
X019867Y008278D02*
X019606Y008278D01*
X019557Y008327D02*
X019867Y008327D01*
X019844Y008376D02*
X019509Y008376D01*
X019460Y008424D02*
X019796Y008424D01*
X019747Y008473D02*
X019412Y008473D01*
X019363Y008521D02*
X019699Y008521D01*
X019650Y008570D02*
X019315Y008570D01*
X019266Y008618D02*
X019601Y008618D01*
X019577Y008667D02*
X019218Y008667D01*
X019169Y008715D02*
X019577Y008715D01*
X019577Y008764D02*
X019120Y008764D01*
X019072Y008812D02*
X019577Y008812D01*
X019577Y008861D02*
X019023Y008861D01*
X018975Y008910D02*
X019577Y008910D01*
X019577Y008958D02*
X018926Y008958D01*
X018878Y009007D02*
X019577Y009007D01*
X019577Y009055D02*
X018829Y009055D01*
X018781Y009104D02*
X019577Y009104D01*
X019577Y009152D02*
X018757Y009152D01*
X018757Y009201D02*
X019577Y009201D01*
X019577Y009249D02*
X018757Y009249D01*
X018757Y009298D02*
X019577Y009298D01*
X019577Y009346D02*
X018757Y009346D01*
X018757Y009395D02*
X019577Y009395D01*
X019577Y009444D02*
X018757Y009444D01*
X018757Y009492D02*
X019577Y009492D01*
X019577Y009541D02*
X018757Y009541D01*
X018757Y009589D02*
X019577Y009589D01*
X019577Y009638D02*
X018737Y009638D01*
X018717Y009686D02*
X019577Y009686D01*
X019577Y009735D02*
X018697Y009735D01*
X018658Y009783D02*
X019577Y009783D01*
X019577Y009832D02*
X018610Y009832D01*
X018556Y009880D02*
X019577Y009880D01*
X019577Y009929D02*
X018439Y009929D01*
X018186Y009929D02*
X017631Y009929D01*
X017679Y009977D02*
X019577Y009977D01*
X019577Y010026D02*
X017728Y010026D01*
X017757Y010075D02*
X019577Y010075D01*
X019577Y010123D02*
X017757Y010123D01*
X017757Y010172D02*
X019577Y010172D01*
X019577Y010220D02*
X017757Y010220D01*
X017757Y010269D02*
X019577Y010269D01*
X019577Y010317D02*
X017757Y010317D01*
X017757Y010366D02*
X019577Y010366D01*
X019577Y010414D02*
X017757Y010414D01*
X017718Y010463D02*
X019577Y010463D01*
X019577Y010511D02*
X017670Y010511D01*
X017621Y010560D02*
X019577Y010560D01*
X019577Y010609D02*
X017573Y010609D01*
X017524Y010657D02*
X019577Y010657D01*
X019577Y010706D02*
X016079Y010706D01*
X016030Y010754D02*
X019577Y010754D01*
X019577Y010803D02*
X015982Y010803D01*
X015933Y010851D02*
X019577Y010851D01*
X019577Y010900D02*
X015885Y010900D01*
X015836Y010948D02*
X019577Y010948D01*
X019577Y010997D02*
X015788Y010997D01*
X015739Y011045D02*
X019577Y011045D01*
X019577Y011094D02*
X015690Y011094D01*
X015642Y011143D02*
X019577Y011143D01*
X019577Y011191D02*
X015593Y011191D01*
X015545Y011240D02*
X019577Y011240D01*
X019577Y011288D02*
X015496Y011288D01*
X015448Y011337D02*
X019577Y011337D01*
X019577Y011385D02*
X015399Y011385D01*
X015351Y011434D02*
X019577Y011434D01*
X019577Y011482D02*
X015302Y011482D01*
X015254Y011531D02*
X019577Y011531D01*
X017186Y012550D02*
X015834Y012550D01*
X015786Y012599D02*
X017069Y012599D01*
X017015Y012647D02*
X015737Y012647D01*
X015689Y012696D02*
X016967Y012696D01*
X016928Y012744D02*
X015640Y012744D01*
X015591Y012793D02*
X016908Y012793D01*
X016581Y012842D02*
X016044Y012842D01*
X016092Y012890D02*
X016533Y012890D01*
X016484Y012939D02*
X016141Y012939D01*
X016189Y012987D02*
X016436Y012987D01*
X016387Y013036D02*
X016238Y013036D01*
X016257Y013084D02*
X016367Y013084D01*
X016367Y013133D02*
X016257Y013133D01*
X016257Y013181D02*
X016367Y013181D01*
X016367Y013230D02*
X016257Y013230D01*
X016257Y013278D02*
X016367Y013278D01*
X016367Y013327D02*
X016257Y013327D01*
X016209Y013473D02*
X016416Y013473D01*
X016465Y013521D02*
X016160Y013521D01*
X016112Y013570D02*
X016513Y013570D01*
X016562Y013618D02*
X016063Y013618D01*
X016015Y013667D02*
X016610Y013667D01*
X015610Y013667D02*
X015468Y013667D01*
X015516Y013618D02*
X015562Y013618D01*
X015191Y013278D02*
X014256Y013278D01*
X014305Y013230D02*
X015240Y013230D01*
X015288Y013181D02*
X014353Y013181D01*
X014402Y013133D02*
X015337Y013133D01*
X015367Y013084D02*
X015300Y013084D01*
X015349Y013036D02*
X015387Y013036D01*
X015397Y012987D02*
X015436Y012987D01*
X015446Y012939D02*
X015484Y012939D01*
X015494Y012890D02*
X015533Y012890D01*
X015543Y012842D02*
X015581Y012842D01*
X014512Y012308D02*
X014017Y012308D01*
X014017Y012259D02*
X014561Y012259D01*
X014609Y012210D02*
X014017Y012210D01*
X014017Y012162D02*
X014658Y012162D01*
X014706Y012113D02*
X014021Y012113D01*
X014070Y012065D02*
X014755Y012065D01*
X014803Y012016D02*
X014118Y012016D01*
X014114Y012356D02*
X014006Y012356D01*
X013986Y012405D02*
X014065Y012405D01*
X014017Y012453D02*
X013966Y012453D01*
X013977Y012492D02*
X013977Y012492D01*
X013968Y012502D02*
X013940Y012502D01*
X013920Y012550D02*
X013891Y012550D01*
X013871Y012599D02*
X013843Y012599D01*
X013822Y012647D02*
X013751Y012647D01*
X013774Y012696D02*
X013151Y012696D01*
X012623Y012113D02*
X012568Y012113D01*
X012520Y012065D02*
X012643Y012065D01*
X012663Y012016D02*
X012471Y012016D01*
X012423Y011968D02*
X012695Y011968D01*
X012744Y011919D02*
X012374Y011919D01*
X012326Y011871D02*
X012792Y011871D01*
X012898Y011822D02*
X012277Y011822D01*
X012229Y011774D02*
X013696Y011774D01*
X014817Y011968D02*
X014852Y011968D01*
X014865Y011919D02*
X014901Y011919D01*
X014914Y011871D02*
X014949Y011871D01*
X014962Y011822D02*
X014998Y011822D01*
X015011Y011774D02*
X015046Y011774D01*
X015059Y011725D02*
X015095Y011725D01*
X015108Y011676D02*
X015143Y011676D01*
X015156Y011628D02*
X015192Y011628D01*
X015205Y011579D02*
X015240Y011579D01*
X014271Y010948D02*
X013910Y010948D01*
X013953Y010997D02*
X014223Y010997D01*
X014320Y010900D02*
X013862Y010900D01*
X013797Y010851D02*
X014369Y010851D01*
X014417Y010803D02*
X013680Y010803D01*
X013727Y010657D02*
X014563Y010657D01*
X014611Y010609D02*
X013833Y010609D01*
X013881Y010560D02*
X014660Y010560D01*
X014708Y010511D02*
X013930Y010511D01*
X014421Y010463D02*
X014757Y010463D01*
X014805Y010414D02*
X014470Y010414D01*
X014519Y010366D02*
X014854Y010366D01*
X014902Y010317D02*
X014567Y010317D01*
X014616Y010269D02*
X014951Y010269D01*
X015000Y010220D02*
X014664Y010220D01*
X014926Y010172D02*
X015048Y010172D01*
X015043Y010123D02*
X015097Y010123D01*
X015103Y010075D02*
X015145Y010075D01*
X015152Y010026D02*
X015194Y010026D01*
X015193Y009977D02*
X015242Y009977D01*
X015213Y009929D02*
X015277Y009929D01*
X015277Y009880D02*
X015233Y009880D01*
X015253Y009832D02*
X015277Y009832D01*
X015277Y009783D02*
X015255Y009783D01*
X015255Y009735D02*
X015277Y009735D01*
X015277Y009686D02*
X015255Y009686D01*
X015249Y009638D02*
X015277Y009638D01*
X015277Y009589D02*
X015229Y009589D01*
X015209Y009541D02*
X015277Y009541D01*
X015277Y009492D02*
X015189Y009492D01*
X015142Y009444D02*
X015277Y009444D01*
X015277Y009395D02*
X015093Y009395D01*
X015019Y009346D02*
X015277Y009346D01*
X015277Y009298D02*
X014902Y009298D01*
X014723Y009298D02*
X014017Y009298D01*
X014017Y009249D02*
X015277Y009249D01*
X015277Y009201D02*
X014017Y009201D01*
X014017Y009152D02*
X015277Y009152D01*
X015277Y009104D02*
X013998Y009104D01*
X013978Y009055D02*
X015277Y009055D01*
X015277Y009007D02*
X013958Y009007D01*
X013926Y008958D02*
X015277Y008958D01*
X015310Y008910D02*
X013975Y008910D01*
X014023Y008861D02*
X015359Y008861D01*
X015407Y008812D02*
X014072Y008812D01*
X014120Y008764D02*
X015456Y008764D01*
X015504Y008715D02*
X014169Y008715D01*
X014218Y008667D02*
X015553Y008667D01*
X015601Y008618D02*
X014266Y008618D01*
X014315Y008570D02*
X015650Y008570D01*
X015699Y008521D02*
X014363Y008521D01*
X014412Y008473D02*
X015747Y008473D01*
X015796Y008424D02*
X014460Y008424D01*
X014509Y008376D02*
X015844Y008376D01*
X015893Y008327D02*
X014557Y008327D01*
X014606Y008278D02*
X015941Y008278D01*
X015990Y008230D02*
X014654Y008230D01*
X014703Y008181D02*
X014723Y008181D01*
X014902Y008181D02*
X016038Y008181D01*
X016087Y008133D02*
X015019Y008133D01*
X015094Y008084D02*
X016135Y008084D01*
X016184Y008036D02*
X015142Y008036D01*
X015189Y007987D02*
X016233Y007987D01*
X016281Y007939D02*
X015209Y007939D01*
X015229Y007890D02*
X016330Y007890D01*
X016378Y007842D02*
X015249Y007842D01*
X015255Y007793D02*
X016427Y007793D01*
X016475Y007744D02*
X015255Y007744D01*
X015255Y007696D02*
X016524Y007696D01*
X016534Y007647D02*
X016572Y007647D01*
X016583Y007599D02*
X016621Y007599D01*
X016631Y007550D02*
X016669Y007550D01*
X016680Y007502D02*
X016718Y007502D01*
X016728Y007453D02*
X016767Y007453D01*
X016757Y007405D02*
X016815Y007405D01*
X016864Y007356D02*
X016757Y007356D01*
X016757Y007308D02*
X016867Y007308D01*
X016867Y007259D02*
X016757Y007259D01*
X016757Y007211D02*
X016867Y007211D01*
X016867Y007162D02*
X016757Y007162D01*
X016771Y007113D02*
X016867Y007113D01*
X016867Y007065D02*
X016819Y007065D01*
X016868Y007016D02*
X016906Y007016D01*
X016917Y006968D02*
X016955Y006968D01*
X016965Y006919D02*
X017004Y006919D01*
X017014Y006871D02*
X017052Y006871D01*
X016592Y006628D02*
X014506Y006628D01*
X014458Y006677D02*
X016543Y006677D01*
X016495Y006725D02*
X014409Y006725D01*
X014361Y006774D02*
X016446Y006774D01*
X016101Y006822D02*
X014312Y006822D01*
X014264Y006871D02*
X016052Y006871D01*
X016004Y006919D02*
X014215Y006919D01*
X014167Y006968D02*
X015955Y006968D01*
X015906Y007016D02*
X014118Y007016D01*
X014070Y007065D02*
X015867Y007065D01*
X015867Y007113D02*
X014021Y007113D01*
X014017Y007162D02*
X015867Y007162D01*
X015867Y007211D02*
X014017Y007211D01*
X014017Y007259D02*
X015867Y007259D01*
X015867Y007308D02*
X014926Y007308D01*
X015043Y007356D02*
X015867Y007356D01*
X015867Y007405D02*
X015103Y007405D01*
X015152Y007453D02*
X015897Y007453D01*
X015945Y007502D02*
X015193Y007502D01*
X015213Y007550D02*
X015994Y007550D01*
X016042Y007599D02*
X015233Y007599D01*
X015253Y007647D02*
X016091Y007647D01*
X014699Y007308D02*
X014017Y007308D01*
X014006Y007356D02*
X014582Y007356D01*
X014522Y007405D02*
X013986Y007405D01*
X013966Y007453D02*
X014473Y007453D01*
X014432Y007502D02*
X013940Y007502D01*
X013891Y007550D02*
X014412Y007550D01*
X014392Y007599D02*
X013843Y007599D01*
X013751Y007647D02*
X014372Y007647D01*
X014370Y007696D02*
X012597Y007696D01*
X012597Y007744D02*
X014370Y007744D01*
X014370Y007793D02*
X012597Y007793D01*
X012597Y007842D02*
X012851Y007842D01*
X012773Y007890D02*
X012597Y007890D01*
X012597Y007939D02*
X012724Y007939D01*
X012676Y007987D02*
X012597Y007987D01*
X012597Y007647D02*
X012874Y007647D01*
X012782Y007599D02*
X012597Y007599D01*
X012597Y007550D02*
X012734Y007550D01*
X012685Y007502D02*
X012597Y007502D01*
X012597Y007453D02*
X012659Y007453D01*
X012639Y007405D02*
X012597Y007405D01*
X012597Y007356D02*
X012619Y007356D01*
X012607Y007308D02*
X012597Y007308D01*
X012597Y007259D02*
X012607Y007259D01*
X012607Y007211D02*
X012597Y007211D01*
X012597Y007162D02*
X012607Y007162D01*
X012597Y007113D02*
X012623Y007113D01*
X012643Y007065D02*
X012597Y007065D01*
X012597Y007016D02*
X012663Y007016D01*
X012695Y006968D02*
X012597Y006968D01*
X012597Y006919D02*
X012744Y006919D01*
X012792Y006871D02*
X012597Y006871D01*
X012597Y006822D02*
X012898Y006822D01*
X012944Y006677D02*
X012582Y006677D01*
X012597Y006725D02*
X013745Y006725D01*
X013793Y006677D02*
X013681Y006677D01*
X013696Y006774D02*
X012597Y006774D01*
X012533Y006628D02*
X012827Y006628D01*
X012763Y006579D02*
X012485Y006579D01*
X012436Y006531D02*
X012714Y006531D01*
X012671Y006482D02*
X012387Y006482D01*
X012339Y006434D02*
X012651Y006434D01*
X012631Y006385D02*
X012312Y006385D01*
X012312Y006337D02*
X012611Y006337D01*
X012607Y006288D02*
X012312Y006288D01*
X012312Y006240D02*
X012607Y006240D01*
X012607Y006191D02*
X012312Y006191D01*
X012312Y006143D02*
X012611Y006143D01*
X012631Y006094D02*
X012312Y006094D01*
X012312Y006045D02*
X012651Y006045D01*
X012671Y005997D02*
X012277Y005997D01*
X012228Y005948D02*
X012714Y005948D01*
X012763Y005900D02*
X012180Y005900D01*
X012131Y005851D02*
X012827Y005851D01*
X012944Y005803D02*
X012083Y005803D01*
X012034Y005754D02*
X013716Y005754D01*
X014040Y006094D02*
X014376Y006094D01*
X014424Y006045D02*
X014089Y006045D01*
X014137Y005997D02*
X014473Y005997D01*
X014521Y005948D02*
X014186Y005948D01*
X014235Y005900D02*
X014570Y005900D01*
X014619Y005851D02*
X014283Y005851D01*
X014332Y005803D02*
X014667Y005803D01*
X014716Y005754D02*
X014380Y005754D01*
X014429Y005706D02*
X014764Y005706D01*
X014813Y005657D02*
X014477Y005657D01*
X014526Y005609D02*
X014861Y005609D01*
X014910Y005560D02*
X014574Y005560D01*
X014623Y005511D02*
X014958Y005511D01*
X015007Y005463D02*
X014671Y005463D01*
X014720Y005414D02*
X015055Y005414D01*
X015104Y005366D02*
X014769Y005366D01*
X014817Y005317D02*
X015152Y005317D01*
X015201Y005269D02*
X014866Y005269D01*
X015477Y005657D02*
X017006Y005657D01*
X017054Y005609D02*
X015526Y005609D01*
X015574Y005560D02*
X017163Y005560D01*
X016957Y005706D02*
X015429Y005706D01*
X015380Y005754D02*
X016924Y005754D01*
X016904Y005803D02*
X015332Y005803D01*
X015283Y005851D02*
X016884Y005851D01*
X016867Y005900D02*
X015235Y005900D01*
X015186Y005948D02*
X016867Y005948D01*
X016867Y005997D02*
X015137Y005997D01*
X015089Y006045D02*
X016867Y006045D01*
X016867Y006094D02*
X015040Y006094D01*
X014992Y006143D02*
X016867Y006143D01*
X016867Y006191D02*
X014943Y006191D01*
X014895Y006240D02*
X016867Y006240D01*
X016867Y006288D02*
X014846Y006288D01*
X014798Y006337D02*
X016867Y006337D01*
X016835Y006385D02*
X014749Y006385D01*
X014701Y006434D02*
X016786Y006434D01*
X016737Y006482D02*
X014652Y006482D01*
X014604Y006531D02*
X016689Y006531D01*
X016640Y006579D02*
X014555Y006579D01*
X014133Y006337D02*
X014014Y006337D01*
X014017Y006288D02*
X014182Y006288D01*
X014230Y006240D02*
X014017Y006240D01*
X014017Y006191D02*
X014279Y006191D01*
X014327Y006143D02*
X014014Y006143D01*
X013994Y006385D02*
X014085Y006385D01*
X014036Y006434D02*
X013974Y006434D01*
X013987Y006482D02*
X013954Y006482D01*
X013939Y006531D02*
X013910Y006531D01*
X013890Y006579D02*
X013862Y006579D01*
X013842Y006628D02*
X013798Y006628D01*
X012127Y006919D02*
X011297Y006919D01*
X011297Y006871D02*
X012111Y006871D01*
X012063Y006822D02*
X011362Y006822D01*
X011435Y006774D02*
X012014Y006774D01*
X012127Y006968D02*
X011297Y006968D01*
X011297Y007016D02*
X012127Y007016D01*
X012127Y007065D02*
X011297Y007065D01*
X011297Y007113D02*
X012127Y007113D01*
X012127Y007162D02*
X011297Y007162D01*
X011297Y007211D02*
X012127Y007211D01*
X012127Y007259D02*
X011297Y007259D01*
X011297Y007308D02*
X012127Y007308D01*
X012127Y007356D02*
X011297Y007356D01*
X011297Y007405D02*
X012127Y007405D01*
X012127Y007453D02*
X011297Y007453D01*
X011297Y007502D02*
X012127Y007502D01*
X012127Y007550D02*
X011297Y007550D01*
X011297Y007599D02*
X012127Y007599D01*
X012127Y007647D02*
X011297Y007647D01*
X011297Y007696D02*
X012127Y007696D01*
X012127Y007744D02*
X011297Y007744D01*
X011297Y007793D02*
X012127Y007793D01*
X012127Y007842D02*
X011293Y007842D01*
X011244Y007890D02*
X012127Y007890D01*
X012127Y007939D02*
X011196Y007939D01*
X012127Y007987D02*
X007694Y007987D01*
X007646Y008036D02*
X012127Y008036D01*
X012127Y008084D02*
X007597Y008084D01*
X007549Y008133D02*
X012127Y008133D01*
X012127Y008181D02*
X007500Y008181D01*
X007125Y008181D02*
X007000Y008181D01*
X007049Y008133D02*
X007076Y008133D01*
X006625Y008181D02*
X006603Y008181D01*
X006554Y008230D02*
X012127Y008230D01*
X012127Y008278D02*
X006506Y008278D01*
X006457Y008327D02*
X012127Y008327D01*
X012094Y008376D02*
X006409Y008376D01*
X006360Y008424D02*
X012046Y008424D01*
X011997Y008473D02*
X006312Y008473D01*
X006263Y008521D02*
X009299Y008521D01*
X009250Y008570D02*
X006215Y008570D01*
X004653Y009325D02*
X004540Y009212D01*
X004392Y009151D01*
X004232Y009151D01*
X004085Y009212D01*
X003971Y009325D01*
X003910Y009473D01*
X003910Y009633D01*
X003971Y009780D01*
X004085Y009894D01*
X004232Y009955D01*
X004392Y009955D01*
X004540Y009894D01*
X004653Y009780D01*
X004715Y009633D01*
X004715Y009473D01*
X004653Y009325D01*
X004662Y009346D02*
X008367Y009346D01*
X008367Y009298D02*
X004626Y009298D01*
X004578Y009249D02*
X008367Y009249D01*
X008367Y009201D02*
X004514Y009201D01*
X004397Y009152D02*
X008367Y009152D01*
X008367Y009104D02*
X003659Y009104D01*
X003707Y009152D02*
X004228Y009152D01*
X004111Y009201D02*
X003756Y009201D01*
X003804Y009249D02*
X004047Y009249D01*
X003998Y009298D02*
X003847Y009298D01*
X003847Y009346D02*
X003963Y009346D01*
X003942Y009395D02*
X003847Y009395D01*
X003847Y009444D02*
X003922Y009444D01*
X003910Y009492D02*
X003847Y009492D01*
X003847Y009541D02*
X003910Y009541D01*
X003910Y009589D02*
X003847Y009589D01*
X003847Y009638D02*
X003912Y009638D01*
X003932Y009686D02*
X003847Y009686D01*
X003847Y009735D02*
X003953Y009735D01*
X003974Y009783D02*
X003847Y009783D01*
X003847Y009832D02*
X004023Y009832D01*
X004071Y009880D02*
X003847Y009880D01*
X003847Y009929D02*
X004170Y009929D01*
X004455Y009929D02*
X007791Y009929D01*
X007839Y009880D02*
X004553Y009880D01*
X004602Y009832D02*
X007888Y009832D01*
X007936Y009783D02*
X004651Y009783D01*
X004672Y009735D02*
X007985Y009735D01*
X008034Y009686D02*
X004692Y009686D01*
X004713Y009638D02*
X008082Y009638D01*
X008131Y009589D02*
X004715Y009589D01*
X004715Y009541D02*
X008179Y009541D01*
X008228Y009492D02*
X004715Y009492D01*
X004702Y009444D02*
X008276Y009444D01*
X008325Y009395D02*
X004682Y009395D01*
X003847Y009977D02*
X007742Y009977D01*
X007694Y010026D02*
X003847Y010026D01*
X003847Y010075D02*
X007645Y010075D01*
X007597Y010123D02*
X003847Y010123D01*
X003847Y010172D02*
X007548Y010172D01*
X007500Y010220D02*
X003847Y010220D01*
X003847Y010269D02*
X007451Y010269D01*
X007402Y010317D02*
X003847Y010317D01*
X003847Y010366D02*
X007354Y010366D01*
X007305Y010414D02*
X003847Y010414D01*
X003847Y010463D02*
X007257Y010463D01*
X007208Y010511D02*
X003847Y010511D01*
X003847Y010560D02*
X007160Y010560D01*
X007111Y010609D02*
X003847Y010609D01*
X003847Y010657D02*
X007063Y010657D01*
X007014Y010706D02*
X003847Y010706D01*
X003847Y010754D02*
X006966Y010754D01*
X006917Y010803D02*
X003847Y010803D01*
X003847Y010851D02*
X006869Y010851D01*
X006820Y010900D02*
X003847Y010900D01*
X003847Y010948D02*
X006771Y010948D01*
X006723Y010997D02*
X003847Y010997D01*
X003847Y011045D02*
X006674Y011045D01*
X006626Y011094D02*
X003847Y011094D01*
X003847Y011143D02*
X006577Y011143D01*
X006529Y011191D02*
X003847Y011191D01*
X003377Y009929D02*
X002561Y009929D01*
X002678Y009880D02*
X003377Y009880D01*
X003377Y009832D02*
X002795Y009832D01*
X002848Y009783D02*
X003377Y009783D01*
X003377Y009735D02*
X002896Y009735D01*
X002945Y009686D02*
X003377Y009686D01*
X003377Y009638D02*
X002993Y009638D01*
X003016Y009589D02*
X003377Y009589D01*
X003377Y009541D02*
X003036Y009541D01*
X003056Y009492D02*
X003377Y009492D01*
X003334Y009444D02*
X003077Y009444D01*
X003097Y009395D02*
X003285Y009395D01*
X003237Y009346D02*
X003104Y009346D01*
X003104Y009298D02*
X003188Y009298D01*
X003140Y009249D02*
X003104Y009249D01*
X003513Y008958D02*
X008465Y008958D01*
X008513Y008910D02*
X003465Y008910D01*
X003416Y008861D02*
X008562Y008861D01*
X008610Y008812D02*
X003367Y008812D01*
X003319Y008764D02*
X009056Y008764D01*
X009104Y008715D02*
X003270Y008715D01*
X003222Y008667D02*
X009153Y008667D01*
X009201Y008618D02*
X003173Y008618D01*
X003125Y008570D02*
X003460Y008570D01*
X003412Y008521D02*
X003076Y008521D01*
X003562Y009007D02*
X008416Y009007D01*
X008368Y009055D02*
X003610Y009055D01*
X008650Y009735D02*
X010725Y009735D01*
X010677Y009686D02*
X008698Y009686D01*
X009044Y009638D02*
X009851Y009638D01*
X009773Y009589D02*
X009092Y009589D01*
X009141Y009541D02*
X009724Y009541D01*
X009676Y009492D02*
X009189Y009492D01*
X009238Y009444D02*
X009655Y009444D01*
X009635Y009395D02*
X009257Y009395D01*
X009257Y009346D02*
X009615Y009346D01*
X009607Y009298D02*
X009257Y009298D01*
X009257Y009249D02*
X009607Y009249D01*
X009607Y009201D02*
X009284Y009201D01*
X009332Y009152D02*
X009607Y009152D01*
X009627Y009104D02*
X009381Y009104D01*
X009429Y009055D02*
X009647Y009055D01*
X009667Y009007D02*
X009478Y009007D01*
X010958Y009007D02*
X011367Y009007D01*
X011367Y009055D02*
X010978Y009055D01*
X010998Y009104D02*
X011367Y009104D01*
X011367Y009152D02*
X011017Y009152D01*
X011017Y009201D02*
X011394Y009201D01*
X011443Y009249D02*
X011017Y009249D01*
X011017Y009298D02*
X011491Y009298D01*
X011540Y009346D02*
X011010Y009346D01*
X011050Y009395D02*
X011588Y009395D01*
X011584Y009589D02*
X011244Y009589D01*
X011196Y009541D02*
X012724Y009541D01*
X012773Y009589D02*
X012041Y009589D01*
X012090Y009638D02*
X012851Y009638D01*
X012874Y009832D02*
X012257Y009832D01*
X012257Y009880D02*
X012782Y009880D01*
X012734Y009929D02*
X012257Y009929D01*
X012257Y009977D02*
X012685Y009977D01*
X012659Y010026D02*
X012257Y010026D01*
X012257Y010075D02*
X012639Y010075D01*
X012619Y010123D02*
X012257Y010123D01*
X012257Y010172D02*
X012607Y010172D01*
X012607Y010220D02*
X012211Y010220D01*
X012163Y010269D02*
X012607Y010269D01*
X012607Y010317D02*
X012114Y010317D01*
X012066Y010366D02*
X012623Y010366D01*
X012643Y010414D02*
X012017Y010414D01*
X011209Y010754D02*
X014466Y010754D01*
X014514Y010706D02*
X011161Y010706D01*
X009897Y010657D02*
X009024Y010657D01*
X009073Y010609D02*
X009792Y010609D01*
X009743Y010560D02*
X009121Y010560D01*
X009170Y010511D02*
X009695Y010511D01*
X009685Y009977D02*
X009180Y009977D01*
X009131Y009929D02*
X009734Y009929D01*
X009782Y009880D02*
X009082Y009880D01*
X009034Y009832D02*
X009874Y009832D01*
X011099Y009444D02*
X012655Y009444D01*
X012676Y009492D02*
X011147Y009492D01*
X011293Y009638D02*
X011535Y009638D01*
X012036Y009395D02*
X012635Y009395D01*
X012615Y009346D02*
X012085Y009346D01*
X012134Y009298D02*
X012607Y009298D01*
X012607Y009249D02*
X012182Y009249D01*
X012231Y009201D02*
X012607Y009201D01*
X012607Y009152D02*
X012257Y009152D01*
X012257Y009104D02*
X012627Y009104D01*
X012647Y009055D02*
X012257Y009055D01*
X012257Y009007D02*
X012667Y009007D01*
X012705Y008958D02*
X012257Y008958D01*
X012257Y008910D02*
X012753Y008910D01*
X012804Y008861D02*
X012273Y008861D01*
X012322Y008812D02*
X012921Y008812D01*
X012921Y008667D02*
X012468Y008667D01*
X012516Y008618D02*
X012804Y008618D01*
X012753Y008570D02*
X012565Y008570D01*
X012613Y008521D02*
X012705Y008521D01*
X012622Y008512D02*
X012622Y008512D01*
X012419Y008715D02*
X013504Y008715D01*
X013456Y008764D02*
X012371Y008764D01*
X011949Y008521D02*
X011726Y008521D01*
X013774Y007842D02*
X014376Y007842D01*
X014330Y007890D02*
X013852Y007890D01*
X013901Y007939D02*
X014281Y007939D01*
X014233Y007987D02*
X013949Y007987D01*
X013970Y008036D02*
X014184Y008036D01*
X014136Y008084D02*
X013990Y008084D01*
X014010Y008133D02*
X014087Y008133D01*
X014038Y008181D02*
X014017Y008181D01*
X014010Y009346D02*
X014606Y009346D01*
X014531Y009395D02*
X013990Y009395D01*
X013970Y009444D02*
X014483Y009444D01*
X014436Y009492D02*
X013949Y009492D01*
X013901Y009541D02*
X014416Y009541D01*
X014396Y009589D02*
X013852Y009589D01*
X013774Y009638D02*
X014376Y009638D01*
X014370Y009686D02*
X012138Y009686D01*
X012187Y009735D02*
X014370Y009735D01*
X014370Y009783D02*
X012235Y009783D01*
X013751Y009832D02*
X014372Y009832D01*
X014339Y009880D02*
X013842Y009880D01*
X013891Y009929D02*
X014291Y009929D01*
X014242Y009977D02*
X013940Y009977D01*
X016534Y009832D02*
X017015Y009832D01*
X017042Y009880D02*
X016582Y009880D01*
X016631Y009929D02*
X016994Y009929D01*
X016945Y009977D02*
X016680Y009977D01*
X016728Y010026D02*
X016897Y010026D01*
X016867Y010075D02*
X016757Y010075D01*
X016757Y010123D02*
X016867Y010123D01*
X016867Y010172D02*
X016757Y010172D01*
X016757Y010220D02*
X016867Y010220D01*
X016867Y010269D02*
X016757Y010269D01*
X016757Y010317D02*
X016867Y010317D01*
X016867Y010366D02*
X016757Y010366D01*
X016757Y010414D02*
X016867Y010414D01*
X016906Y010463D02*
X016718Y010463D01*
X016670Y010511D02*
X016955Y010511D01*
X017003Y010560D02*
X016621Y010560D01*
X016573Y010609D02*
X017052Y010609D01*
X017101Y010657D02*
X016524Y010657D01*
X017582Y009880D02*
X018069Y009880D01*
X018015Y009832D02*
X017610Y009832D01*
X017658Y009783D02*
X017967Y009783D01*
X017928Y009735D02*
X017697Y009735D01*
X017717Y009686D02*
X017908Y009686D01*
X017888Y009638D02*
X017737Y009638D01*
X017757Y009589D02*
X017868Y009589D01*
X017867Y009541D02*
X017757Y009541D01*
X017757Y009492D02*
X017867Y009492D01*
X017867Y009444D02*
X017757Y009444D01*
X017757Y009395D02*
X017867Y009395D01*
X017867Y009346D02*
X017757Y009346D01*
X017757Y009298D02*
X017867Y009298D01*
X017867Y009249D02*
X017757Y009249D01*
X017757Y009201D02*
X017867Y009201D01*
X017867Y009152D02*
X017757Y009152D01*
X017757Y009104D02*
X017867Y009104D01*
X017867Y009055D02*
X017757Y009055D01*
X017757Y009007D02*
X017867Y009007D01*
X017867Y008958D02*
X017757Y008958D01*
X017757Y008910D02*
X017867Y008910D01*
X017880Y008861D02*
X017745Y008861D01*
X017725Y008812D02*
X017900Y008812D01*
X017920Y008764D02*
X017705Y008764D01*
X017677Y008715D02*
X017947Y008715D01*
X017996Y008667D02*
X017629Y008667D01*
X017580Y008618D02*
X018045Y008618D01*
X018139Y008570D02*
X017486Y008570D01*
X018486Y008570D02*
X018650Y008570D01*
X018602Y008618D02*
X018580Y008618D01*
X021580Y008618D02*
X022045Y008618D01*
X021996Y008667D02*
X021629Y008667D01*
X021677Y008715D02*
X021947Y008715D01*
X021920Y008764D02*
X021705Y008764D01*
X021725Y008812D02*
X021900Y008812D01*
X021880Y008861D02*
X021745Y008861D01*
X021757Y008910D02*
X021867Y008910D01*
X021867Y008958D02*
X021757Y008958D01*
X021757Y009007D02*
X021867Y009007D01*
X021867Y009055D02*
X021757Y009055D01*
X021757Y009104D02*
X021867Y009104D01*
X021867Y009152D02*
X021757Y009152D01*
X021757Y009201D02*
X021867Y009201D01*
X021867Y009249D02*
X021757Y009249D01*
X021757Y009298D02*
X021867Y009298D01*
X021867Y009346D02*
X021757Y009346D01*
X021757Y009395D02*
X021867Y009395D01*
X021867Y009444D02*
X021757Y009444D01*
X021757Y009492D02*
X021867Y009492D01*
X021867Y009541D02*
X021757Y009541D01*
X021757Y009589D02*
X021868Y009589D01*
X021888Y009638D02*
X021737Y009638D01*
X021717Y009686D02*
X021908Y009686D01*
X021928Y009735D02*
X021697Y009735D01*
X021658Y009783D02*
X021967Y009783D01*
X022015Y009832D02*
X021610Y009832D01*
X021556Y009880D02*
X022069Y009880D01*
X022186Y009929D02*
X021439Y009929D01*
X022439Y009929D02*
X022669Y009929D01*
X022621Y009880D02*
X022556Y009880D01*
X022946Y009541D02*
X024129Y009541D01*
X024081Y009589D02*
X022994Y009589D01*
X023043Y009638D02*
X024032Y009638D01*
X023984Y009686D02*
X023091Y009686D01*
X023140Y009735D02*
X023935Y009735D01*
X024178Y009492D02*
X022897Y009492D01*
X022849Y009444D02*
X024226Y009444D01*
X024275Y009395D02*
X022800Y009395D01*
X022757Y009346D02*
X024323Y009346D01*
X024372Y009298D02*
X022757Y009298D01*
X022757Y009249D02*
X024420Y009249D01*
X024469Y009201D02*
X022757Y009201D01*
X022139Y008570D02*
X021612Y008570D01*
X017902Y007162D02*
X017757Y007162D01*
X017757Y007113D02*
X017854Y007113D01*
X017805Y007065D02*
X017757Y007065D01*
X018741Y006628D02*
X020884Y006628D01*
X020867Y006579D02*
X018757Y006579D01*
X018757Y006531D02*
X020867Y006531D01*
X020867Y006482D02*
X018757Y006482D01*
X018757Y006434D02*
X020867Y006434D01*
X020867Y006385D02*
X018757Y006385D01*
X018757Y006337D02*
X020867Y006337D01*
X020867Y006288D02*
X018757Y006288D01*
X018757Y006240D02*
X020867Y006240D01*
X020867Y006191D02*
X018757Y006191D01*
X018757Y006143D02*
X020867Y006143D01*
X020867Y006094D02*
X018790Y006094D01*
X018839Y006045D02*
X020867Y006045D01*
X020867Y005997D02*
X018887Y005997D01*
X018936Y005948D02*
X020867Y005948D01*
X020867Y005900D02*
X018985Y005900D01*
X019033Y005851D02*
X020884Y005851D01*
X020904Y005803D02*
X019082Y005803D01*
X019130Y005754D02*
X020924Y005754D01*
X020957Y005706D02*
X019179Y005706D01*
X019227Y005657D02*
X021006Y005657D01*
X021054Y005609D02*
X019276Y005609D01*
X019324Y005560D02*
X021163Y005560D01*
X021081Y004638D02*
X020544Y004638D01*
X020592Y004589D02*
X021033Y004589D01*
X020984Y004541D02*
X020641Y004541D01*
X020689Y004492D02*
X020936Y004492D01*
X020887Y004444D02*
X020738Y004444D01*
X020757Y004424D02*
X020757Y004055D01*
X020709Y004007D02*
X020916Y004007D01*
X020965Y003958D02*
X020660Y003958D01*
X020612Y003910D02*
X021013Y003910D01*
X021045Y003861D02*
X020563Y003861D01*
X021757Y004055D02*
X021757Y004424D01*
X021738Y004444D02*
X024331Y004444D01*
X024331Y004492D02*
X021689Y004492D01*
X021641Y004541D02*
X024331Y004541D01*
X024331Y004589D02*
X021592Y004589D01*
X021544Y004638D02*
X024331Y004638D01*
X024331Y004686D02*
X020198Y004686D01*
X017757Y004424D02*
X017757Y004055D01*
X018439Y002550D02*
X018669Y002550D01*
X018621Y002599D02*
X018556Y002599D01*
X019383Y002502D02*
X022718Y002502D01*
X022669Y002550D02*
X022439Y002550D01*
X022556Y002599D02*
X022621Y002599D01*
X022767Y002453D02*
X019431Y002453D01*
X011591Y006725D02*
X011508Y006725D01*
X008077Y013327D02*
X007529Y013327D01*
X007578Y013376D02*
X008047Y013376D01*
X007999Y013424D02*
X007626Y013424D01*
X007675Y013473D02*
X007950Y013473D01*
X007902Y013521D02*
X007723Y013521D01*
X007757Y013570D02*
X007867Y013570D01*
X007867Y013618D02*
X007757Y013618D01*
X007757Y013667D02*
X007867Y013667D01*
X007867Y013715D02*
X007757Y013715D01*
X007757Y013764D02*
X007867Y013764D01*
X007867Y013812D02*
X007757Y013812D01*
X007766Y013861D02*
X007867Y013861D01*
X007867Y013909D02*
X007815Y013909D01*
X007863Y013958D02*
X007901Y013958D01*
X007912Y014007D02*
X007950Y014007D01*
X007960Y014055D02*
X007999Y014055D01*
X008009Y014104D02*
X008047Y014104D01*
X008057Y014152D02*
X008096Y014152D01*
D18*
X008012Y014440D02*
X007312Y013740D01*
X007362Y013840D01*
X005912Y013840D01*
X004912Y012840D01*
X003612Y012840D01*
X003612Y009390D01*
X002812Y008590D01*
X002812Y007653D01*
X003312Y008055D02*
X003312Y008090D01*
X003562Y008340D01*
X006112Y008340D01*
X006712Y007740D01*
X006812Y007740D01*
X007312Y007740D01*
X011062Y007740D01*
X011062Y006740D01*
X011812Y006240D01*
X011762Y006240D01*
X011762Y005740D01*
X011237Y005215D01*
X011262Y005190D01*
X011662Y005190D01*
X011662Y003140D01*
X011687Y003115D01*
X010812Y002240D01*
X010312Y002240D01*
X009812Y001740D02*
X010012Y001540D01*
X011112Y001540D01*
X011712Y002140D01*
X012562Y002140D01*
X012662Y002240D01*
X012812Y002240D01*
X013312Y002240D01*
X013462Y002240D01*
X013562Y002340D01*
X014012Y002340D01*
X014012Y003540D01*
X013312Y004240D01*
X013762Y005040D02*
X014462Y004340D01*
X016062Y004340D01*
X016162Y004240D01*
X016312Y004240D01*
X017312Y004240D02*
X017312Y003240D01*
X018312Y003240D02*
X019362Y002190D01*
X034112Y002190D01*
X036312Y004390D01*
X036312Y004740D01*
X035312Y004740D02*
X034287Y005765D01*
X037562Y009040D01*
X037562Y012290D01*
X036512Y012290D01*
X035662Y011440D01*
X035812Y011240D01*
X035712Y011340D01*
X035262Y011340D01*
X034312Y012290D01*
X033012Y012290D01*
X032462Y011740D01*
X032312Y011740D01*
X032312Y011240D01*
X032312Y011740D02*
X031762Y012290D01*
X029512Y012290D01*
X028462Y011240D01*
X028362Y011240D01*
X027312Y012290D01*
X026012Y012290D01*
X025837Y012115D01*
X023512Y014440D01*
X008012Y014440D01*
X008312Y013740D02*
X008312Y012240D01*
X008062Y012240D01*
X007512Y011690D01*
X006362Y011690D01*
X008812Y009240D01*
X008812Y009190D01*
X008762Y009190D01*
X008812Y009240D02*
X008912Y009140D01*
X009012Y009140D01*
X009412Y008740D01*
X011612Y008740D01*
X011812Y008940D01*
X011812Y008990D01*
X012387Y008415D01*
X012362Y008390D01*
X012362Y006790D01*
X011812Y006240D01*
X013312Y006240D02*
X013562Y006240D01*
X014812Y004990D01*
X019562Y004990D01*
X020312Y004240D01*
X021312Y004240D02*
X021312Y003240D01*
X022312Y003240D02*
X023062Y002490D01*
X030912Y002490D01*
X032812Y004390D01*
X032812Y004740D01*
X031812Y004740D02*
X031462Y004740D01*
X032512Y005790D01*
X034262Y005790D01*
X034287Y005765D01*
X031462Y004740D02*
X031362Y004740D01*
X030312Y003690D01*
X029012Y003690D01*
X028462Y004240D01*
X028312Y004240D01*
X028312Y004740D01*
X027862Y004740D01*
X026812Y003690D01*
X025512Y003690D01*
X024962Y004240D01*
X024812Y004240D01*
X024812Y004740D01*
X025812Y004740D02*
X025812Y005090D01*
X025112Y005790D01*
X024512Y005790D01*
X024012Y005290D01*
X019262Y005290D01*
X018312Y006240D01*
X017812Y005790D02*
X017812Y006790D01*
X017862Y006790D01*
X018312Y007240D01*
X020312Y007240D01*
X021312Y007240D02*
X021312Y006240D01*
X022312Y006240D02*
X023062Y006990D01*
X027412Y006990D01*
X029312Y005090D01*
X029312Y004740D01*
X033662Y007740D02*
X036812Y010890D01*
X036812Y011240D01*
X033312Y011240D02*
X033312Y010890D01*
X031812Y009390D01*
X024612Y009390D01*
X024012Y009990D01*
X023062Y009990D01*
X022312Y009240D01*
X021312Y009240D02*
X021312Y008240D01*
X020312Y008240D02*
X019812Y008740D01*
X019812Y011790D01*
X015362Y011790D01*
X014562Y012590D01*
X014212Y012590D01*
X013862Y012940D01*
X013062Y012940D01*
X010362Y010240D01*
X010312Y010240D01*
X008812Y010240D01*
X010312Y009240D02*
X010512Y009440D01*
X010762Y009440D01*
X011212Y009890D01*
X011562Y009890D01*
X011662Y009990D01*
X011812Y009990D01*
X013312Y010240D02*
X014312Y010240D01*
X014812Y009740D01*
X015462Y010090D02*
X014312Y011240D01*
X013312Y011240D01*
X014062Y011740D02*
X014712Y011740D01*
X016212Y010240D01*
X016312Y010240D01*
X015512Y010090D02*
X015462Y010090D01*
X015512Y010090D02*
X015512Y009040D01*
X017312Y007240D01*
X016312Y007240D02*
X017312Y006240D01*
X017812Y005790D02*
X017312Y005290D01*
X015512Y005290D01*
X013762Y007040D01*
X013512Y007040D01*
X013312Y007240D01*
X014812Y007740D02*
X013312Y009240D01*
X012387Y008415D02*
X012562Y008240D01*
X013312Y008240D01*
X010312Y007240D02*
X007912Y007240D01*
X007412Y006740D01*
X007312Y006740D01*
X006812Y006740D01*
X006562Y006740D01*
X006212Y007090D01*
X004962Y007090D01*
X004812Y007240D01*
X004812Y007251D01*
X004312Y006850D02*
X004312Y006840D01*
X004362Y006790D01*
X005762Y006790D01*
X006712Y005840D01*
X008062Y005840D01*
X008162Y005740D01*
X008312Y005740D01*
X008812Y005740D01*
X008912Y005740D01*
X009412Y006240D01*
X010312Y006240D01*
X010312Y005240D02*
X008112Y005240D01*
X007362Y004490D01*
X007312Y004490D01*
X006812Y004490D01*
X006762Y004490D01*
X004812Y006440D01*
X004812Y006448D01*
X004312Y006047D02*
X004312Y006040D01*
X004612Y005740D01*
X004662Y005740D01*
X006112Y004290D01*
X006112Y003090D01*
X006212Y003090D01*
X006512Y002790D01*
X009762Y002790D01*
X010212Y003240D01*
X010312Y003240D01*
X010312Y004240D01*
X010762Y004740D02*
X011237Y005215D01*
X010762Y004740D02*
X008812Y004740D01*
X008562Y004740D01*
X007312Y003490D01*
X006812Y003490D01*
X005612Y003090D02*
X005612Y001740D01*
X009812Y001740D01*
X011687Y003115D02*
X011712Y003140D01*
X012562Y003140D01*
X012662Y003240D01*
X012812Y003240D01*
X013312Y003240D01*
X010812Y003240D02*
X010312Y003240D01*
X008562Y004740D02*
X008312Y004740D01*
X005612Y003090D02*
X004462Y004240D01*
X003312Y004240D01*
X003312Y005645D01*
X013312Y005240D02*
X013512Y005040D01*
X013762Y005040D01*
X018312Y009240D02*
X019812Y007740D01*
X033662Y007740D01*
X029812Y010890D02*
X028612Y009690D01*
X024712Y009690D01*
X024112Y010290D01*
X020812Y010290D01*
X020812Y012440D01*
X020312Y012940D01*
X019962Y012940D01*
X019512Y012490D01*
X019062Y012490D01*
X018312Y013240D01*
X017312Y013240D02*
X016812Y013240D01*
X015812Y013240D02*
X015562Y013240D01*
X015262Y013540D01*
X010362Y013540D01*
X009662Y012840D01*
X009312Y012840D01*
X009312Y011990D01*
X009862Y011440D01*
X010112Y011440D01*
X010312Y011240D01*
X010312Y012240D02*
X011112Y013040D01*
X012762Y013040D01*
X012962Y013240D01*
X013962Y013240D01*
X014312Y012890D01*
X015162Y012890D01*
X015862Y012190D01*
X020262Y012190D01*
X020312Y012240D01*
X021312Y012240D02*
X021312Y013240D01*
X022312Y013240D02*
X022312Y012690D01*
X022412Y012690D01*
X024912Y010190D01*
X025612Y010190D01*
X026312Y010890D01*
X026312Y011240D01*
X025462Y011740D02*
X025837Y012115D01*
X025462Y011740D02*
X025312Y011740D01*
X025312Y011240D01*
X028462Y011240D02*
X028812Y011240D01*
X029812Y011240D02*
X029812Y010890D01*
X017312Y010240D02*
X017312Y009240D01*
X014062Y011740D02*
X013762Y012040D01*
X013512Y012040D01*
X013312Y012240D01*
X006362Y011690D02*
X005862Y011690D01*
X005312Y012240D01*
X003312Y013240D02*
X003312Y013740D01*
X003312Y013240D02*
X002312Y012240D01*
D19*
X002812Y007653D02*
X004312Y007653D01*
X004812Y007251D02*
X003312Y007251D01*
X003312Y006448D02*
X004812Y006448D01*
M02*
