G75*
G70*
%OFA0B0*%
%FSLAX24Y24*%
%IPPOS*%
%LPD*%
%AMOC8*
5,1,8,0,0,1.08239X$1,22.5*
%
%ADD10C,0.0000*%
D10*
X000131Y001240D02*
X000131Y015019D01*
X039501Y015019D01*
X039501Y001240D01*
X000131Y001240D01*
X000721Y002421D02*
X000723Y002469D01*
X000729Y002517D01*
X000739Y002564D01*
X000752Y002610D01*
X000770Y002655D01*
X000790Y002699D01*
X000815Y002741D01*
X000843Y002780D01*
X000873Y002817D01*
X000907Y002851D01*
X000944Y002883D01*
X000982Y002912D01*
X001023Y002937D01*
X001066Y002959D01*
X001111Y002977D01*
X001157Y002991D01*
X001204Y003002D01*
X001252Y003009D01*
X001300Y003012D01*
X001348Y003011D01*
X001396Y003006D01*
X001444Y002997D01*
X001490Y002985D01*
X001535Y002968D01*
X001579Y002948D01*
X001621Y002925D01*
X001661Y002898D01*
X001699Y002868D01*
X001734Y002835D01*
X001766Y002799D01*
X001796Y002761D01*
X001822Y002720D01*
X001844Y002677D01*
X001864Y002633D01*
X001879Y002588D01*
X001891Y002541D01*
X001899Y002493D01*
X001903Y002445D01*
X001903Y002397D01*
X001899Y002349D01*
X001891Y002301D01*
X001879Y002254D01*
X001864Y002209D01*
X001844Y002165D01*
X001822Y002122D01*
X001796Y002081D01*
X001766Y002043D01*
X001734Y002007D01*
X001699Y001974D01*
X001661Y001944D01*
X001621Y001917D01*
X001579Y001894D01*
X001535Y001874D01*
X001490Y001857D01*
X001444Y001845D01*
X001396Y001836D01*
X001348Y001831D01*
X001300Y001830D01*
X001252Y001833D01*
X001204Y001840D01*
X001157Y001851D01*
X001111Y001865D01*
X001066Y001883D01*
X001023Y001905D01*
X000982Y001930D01*
X000944Y001959D01*
X000907Y001991D01*
X000873Y002025D01*
X000843Y002062D01*
X000815Y002101D01*
X000790Y002143D01*
X000770Y002187D01*
X000752Y002232D01*
X000739Y002278D01*
X000729Y002325D01*
X000723Y002373D01*
X000721Y002421D01*
X002254Y003848D02*
X002256Y003891D01*
X002262Y003933D01*
X002272Y003975D01*
X002285Y004016D01*
X002302Y004056D01*
X002323Y004093D01*
X002347Y004129D01*
X002374Y004162D01*
X002404Y004193D01*
X002437Y004221D01*
X002472Y004246D01*
X002509Y004267D01*
X002548Y004285D01*
X002588Y004299D01*
X002630Y004310D01*
X002672Y004317D01*
X002715Y004320D01*
X002758Y004319D01*
X002801Y004314D01*
X002843Y004305D01*
X002884Y004293D01*
X002924Y004277D01*
X002962Y004257D01*
X002998Y004234D01*
X003032Y004207D01*
X003064Y004178D01*
X003092Y004146D01*
X003118Y004111D01*
X003140Y004075D01*
X003159Y004036D01*
X003174Y003996D01*
X003186Y003955D01*
X003194Y003912D01*
X003198Y003869D01*
X003198Y003827D01*
X003194Y003784D01*
X003186Y003741D01*
X003174Y003700D01*
X003159Y003660D01*
X003140Y003621D01*
X003118Y003585D01*
X003092Y003550D01*
X003064Y003518D01*
X003032Y003489D01*
X002998Y003462D01*
X002962Y003439D01*
X002924Y003419D01*
X002884Y003403D01*
X002843Y003391D01*
X002801Y003382D01*
X002758Y003377D01*
X002715Y003376D01*
X002672Y003379D01*
X002630Y003386D01*
X002588Y003397D01*
X002548Y003411D01*
X002509Y003429D01*
X002472Y003450D01*
X002437Y003475D01*
X002404Y003503D01*
X002374Y003534D01*
X002347Y003567D01*
X002323Y003603D01*
X002302Y003640D01*
X002285Y003680D01*
X002272Y003721D01*
X002262Y003763D01*
X002256Y003805D01*
X002254Y003848D01*
X004454Y003553D02*
X004456Y003579D01*
X004462Y003605D01*
X004472Y003630D01*
X004485Y003653D01*
X004501Y003673D01*
X004521Y003691D01*
X004543Y003706D01*
X004566Y003718D01*
X004592Y003726D01*
X004618Y003730D01*
X004644Y003730D01*
X004670Y003726D01*
X004696Y003718D01*
X004720Y003706D01*
X004741Y003691D01*
X004761Y003673D01*
X004777Y003653D01*
X004790Y003630D01*
X004800Y003605D01*
X004806Y003579D01*
X004808Y003553D01*
X004806Y003527D01*
X004800Y003501D01*
X004790Y003476D01*
X004777Y003453D01*
X004761Y003433D01*
X004741Y003415D01*
X004719Y003400D01*
X004696Y003388D01*
X004670Y003380D01*
X004644Y003376D01*
X004618Y003376D01*
X004592Y003380D01*
X004566Y003388D01*
X004542Y003400D01*
X004521Y003415D01*
X004501Y003433D01*
X004485Y003453D01*
X004472Y003476D01*
X004462Y003501D01*
X004456Y003527D01*
X004454Y003553D01*
X002254Y009238D02*
X002256Y009281D01*
X002262Y009323D01*
X002272Y009365D01*
X002285Y009406D01*
X002302Y009446D01*
X002323Y009483D01*
X002347Y009519D01*
X002374Y009552D01*
X002404Y009583D01*
X002437Y009611D01*
X002472Y009636D01*
X002509Y009657D01*
X002548Y009675D01*
X002588Y009689D01*
X002630Y009700D01*
X002672Y009707D01*
X002715Y009710D01*
X002758Y009709D01*
X002801Y009704D01*
X002843Y009695D01*
X002884Y009683D01*
X002924Y009667D01*
X002962Y009647D01*
X002998Y009624D01*
X003032Y009597D01*
X003064Y009568D01*
X003092Y009536D01*
X003118Y009501D01*
X003140Y009465D01*
X003159Y009426D01*
X003174Y009386D01*
X003186Y009345D01*
X003194Y009302D01*
X003198Y009259D01*
X003198Y009217D01*
X003194Y009174D01*
X003186Y009131D01*
X003174Y009090D01*
X003159Y009050D01*
X003140Y009011D01*
X003118Y008975D01*
X003092Y008940D01*
X003064Y008908D01*
X003032Y008879D01*
X002998Y008852D01*
X002962Y008829D01*
X002924Y008809D01*
X002884Y008793D01*
X002843Y008781D01*
X002801Y008772D01*
X002758Y008767D01*
X002715Y008766D01*
X002672Y008769D01*
X002630Y008776D01*
X002588Y008787D01*
X002548Y008801D01*
X002509Y008819D01*
X002472Y008840D01*
X002437Y008865D01*
X002404Y008893D01*
X002374Y008924D01*
X002347Y008957D01*
X002323Y008993D01*
X002302Y009030D01*
X002285Y009070D01*
X002272Y009111D01*
X002262Y009153D01*
X002256Y009195D01*
X002254Y009238D01*
X004454Y009553D02*
X004456Y009579D01*
X004462Y009605D01*
X004472Y009630D01*
X004485Y009653D01*
X004501Y009673D01*
X004521Y009691D01*
X004543Y009706D01*
X004566Y009718D01*
X004592Y009726D01*
X004618Y009730D01*
X004644Y009730D01*
X004670Y009726D01*
X004696Y009718D01*
X004720Y009706D01*
X004741Y009691D01*
X004761Y009673D01*
X004777Y009653D01*
X004790Y009630D01*
X004800Y009605D01*
X004806Y009579D01*
X004808Y009553D01*
X004806Y009527D01*
X004800Y009501D01*
X004790Y009476D01*
X004777Y009453D01*
X004761Y009433D01*
X004741Y009415D01*
X004719Y009400D01*
X004696Y009388D01*
X004670Y009380D01*
X004644Y009376D01*
X004618Y009376D01*
X004592Y009380D01*
X004566Y009388D01*
X004542Y009400D01*
X004521Y009415D01*
X004501Y009433D01*
X004485Y009453D01*
X004472Y009476D01*
X004462Y009501D01*
X004456Y009527D01*
X004454Y009553D01*
X000721Y013838D02*
X000723Y013886D01*
X000729Y013934D01*
X000739Y013981D01*
X000752Y014027D01*
X000770Y014072D01*
X000790Y014116D01*
X000815Y014158D01*
X000843Y014197D01*
X000873Y014234D01*
X000907Y014268D01*
X000944Y014300D01*
X000982Y014329D01*
X001023Y014354D01*
X001066Y014376D01*
X001111Y014394D01*
X001157Y014408D01*
X001204Y014419D01*
X001252Y014426D01*
X001300Y014429D01*
X001348Y014428D01*
X001396Y014423D01*
X001444Y014414D01*
X001490Y014402D01*
X001535Y014385D01*
X001579Y014365D01*
X001621Y014342D01*
X001661Y014315D01*
X001699Y014285D01*
X001734Y014252D01*
X001766Y014216D01*
X001796Y014178D01*
X001822Y014137D01*
X001844Y014094D01*
X001864Y014050D01*
X001879Y014005D01*
X001891Y013958D01*
X001899Y013910D01*
X001903Y013862D01*
X001903Y013814D01*
X001899Y013766D01*
X001891Y013718D01*
X001879Y013671D01*
X001864Y013626D01*
X001844Y013582D01*
X001822Y013539D01*
X001796Y013498D01*
X001766Y013460D01*
X001734Y013424D01*
X001699Y013391D01*
X001661Y013361D01*
X001621Y013334D01*
X001579Y013311D01*
X001535Y013291D01*
X001490Y013274D01*
X001444Y013262D01*
X001396Y013253D01*
X001348Y013248D01*
X001300Y013247D01*
X001252Y013250D01*
X001204Y013257D01*
X001157Y013268D01*
X001111Y013282D01*
X001066Y013300D01*
X001023Y013322D01*
X000982Y013347D01*
X000944Y013376D01*
X000907Y013408D01*
X000873Y013442D01*
X000843Y013479D01*
X000815Y013518D01*
X000790Y013560D01*
X000770Y013604D01*
X000752Y013649D01*
X000739Y013695D01*
X000729Y013742D01*
X000723Y013790D01*
X000721Y013838D01*
X037729Y013838D02*
X037731Y013886D01*
X037737Y013934D01*
X037747Y013981D01*
X037760Y014027D01*
X037778Y014072D01*
X037798Y014116D01*
X037823Y014158D01*
X037851Y014197D01*
X037881Y014234D01*
X037915Y014268D01*
X037952Y014300D01*
X037990Y014329D01*
X038031Y014354D01*
X038074Y014376D01*
X038119Y014394D01*
X038165Y014408D01*
X038212Y014419D01*
X038260Y014426D01*
X038308Y014429D01*
X038356Y014428D01*
X038404Y014423D01*
X038452Y014414D01*
X038498Y014402D01*
X038543Y014385D01*
X038587Y014365D01*
X038629Y014342D01*
X038669Y014315D01*
X038707Y014285D01*
X038742Y014252D01*
X038774Y014216D01*
X038804Y014178D01*
X038830Y014137D01*
X038852Y014094D01*
X038872Y014050D01*
X038887Y014005D01*
X038899Y013958D01*
X038907Y013910D01*
X038911Y013862D01*
X038911Y013814D01*
X038907Y013766D01*
X038899Y013718D01*
X038887Y013671D01*
X038872Y013626D01*
X038852Y013582D01*
X038830Y013539D01*
X038804Y013498D01*
X038774Y013460D01*
X038742Y013424D01*
X038707Y013391D01*
X038669Y013361D01*
X038629Y013334D01*
X038587Y013311D01*
X038543Y013291D01*
X038498Y013274D01*
X038452Y013262D01*
X038404Y013253D01*
X038356Y013248D01*
X038308Y013247D01*
X038260Y013250D01*
X038212Y013257D01*
X038165Y013268D01*
X038119Y013282D01*
X038074Y013300D01*
X038031Y013322D01*
X037990Y013347D01*
X037952Y013376D01*
X037915Y013408D01*
X037881Y013442D01*
X037851Y013479D01*
X037823Y013518D01*
X037798Y013560D01*
X037778Y013604D01*
X037760Y013649D01*
X037747Y013695D01*
X037737Y013742D01*
X037731Y013790D01*
X037729Y013838D01*
X037729Y002421D02*
X037731Y002469D01*
X037737Y002517D01*
X037747Y002564D01*
X037760Y002610D01*
X037778Y002655D01*
X037798Y002699D01*
X037823Y002741D01*
X037851Y002780D01*
X037881Y002817D01*
X037915Y002851D01*
X037952Y002883D01*
X037990Y002912D01*
X038031Y002937D01*
X038074Y002959D01*
X038119Y002977D01*
X038165Y002991D01*
X038212Y003002D01*
X038260Y003009D01*
X038308Y003012D01*
X038356Y003011D01*
X038404Y003006D01*
X038452Y002997D01*
X038498Y002985D01*
X038543Y002968D01*
X038587Y002948D01*
X038629Y002925D01*
X038669Y002898D01*
X038707Y002868D01*
X038742Y002835D01*
X038774Y002799D01*
X038804Y002761D01*
X038830Y002720D01*
X038852Y002677D01*
X038872Y002633D01*
X038887Y002588D01*
X038899Y002541D01*
X038907Y002493D01*
X038911Y002445D01*
X038911Y002397D01*
X038907Y002349D01*
X038899Y002301D01*
X038887Y002254D01*
X038872Y002209D01*
X038852Y002165D01*
X038830Y002122D01*
X038804Y002081D01*
X038774Y002043D01*
X038742Y002007D01*
X038707Y001974D01*
X038669Y001944D01*
X038629Y001917D01*
X038587Y001894D01*
X038543Y001874D01*
X038498Y001857D01*
X038452Y001845D01*
X038404Y001836D01*
X038356Y001831D01*
X038308Y001830D01*
X038260Y001833D01*
X038212Y001840D01*
X038165Y001851D01*
X038119Y001865D01*
X038074Y001883D01*
X038031Y001905D01*
X037990Y001930D01*
X037952Y001959D01*
X037915Y001991D01*
X037881Y002025D01*
X037851Y002062D01*
X037823Y002101D01*
X037798Y002143D01*
X037778Y002187D01*
X037760Y002232D01*
X037747Y002278D01*
X037737Y002325D01*
X037731Y002373D01*
X037729Y002421D01*
M02*
