G75*
G70*
%OFA0B0*%
%FSLAX24Y24*%
%IPPOS*%
%LPD*%
%AMOC8*
5,1,8,0,0,1.08239X$1,22.5*
%
%ADD10OC8,0.0630*%
%ADD11C,0.0594*%
%ADD12OC8,0.0520*%
%ADD13C,0.0520*%
%ADD14C,0.0515*%
%ADD15C,0.0630*%
%ADD16R,0.0515X0.0515*%
D10*
X027978Y006240D03*
X027978Y007240D03*
X032478Y012240D03*
D11*
X003478Y005037D02*
X003478Y004443D01*
X004478Y004443D02*
X004478Y005037D01*
X006978Y005037D02*
X006978Y004443D01*
X007978Y004443D02*
X007978Y005037D01*
X010478Y005037D02*
X010478Y004443D01*
X011478Y004443D02*
X011478Y005037D01*
X013978Y005037D02*
X013978Y004443D01*
X014978Y004443D02*
X014978Y005037D01*
X014478Y010943D02*
X014478Y011537D01*
X013478Y011537D02*
X013478Y010943D01*
X010978Y010943D02*
X010978Y011537D01*
X009978Y011537D02*
X009978Y010943D01*
X007478Y010943D02*
X007478Y011537D01*
X006478Y011537D02*
X006478Y010943D01*
X003978Y010943D02*
X003978Y011537D01*
X002978Y011537D02*
X002978Y010943D01*
D12*
X018478Y012240D03*
X019478Y012240D03*
X022978Y013240D03*
X023978Y013240D03*
X031478Y013740D03*
X032478Y013740D03*
X034478Y012240D03*
X037478Y012240D03*
X030978Y010240D03*
X030978Y009240D03*
X027978Y008990D03*
X027978Y009990D03*
X023478Y010240D03*
X022478Y010240D03*
X019478Y008240D03*
X018478Y008240D03*
X018478Y007240D03*
X019478Y007240D03*
X022478Y007240D03*
X023478Y007240D03*
X030978Y005740D03*
X031478Y005740D03*
X032478Y006740D03*
X032978Y006740D03*
X032978Y007740D03*
X032478Y007740D03*
X031478Y004740D03*
X030978Y004740D03*
X032478Y004490D03*
X032978Y004490D03*
X032978Y003490D03*
X032478Y003490D03*
X029478Y003240D03*
X028978Y003240D03*
X026978Y003240D03*
X026478Y003240D03*
X026478Y002240D03*
X026978Y002240D03*
X028978Y002240D03*
X029478Y002240D03*
X023478Y004240D03*
X022478Y004240D03*
X019478Y004240D03*
X018478Y004240D03*
D13*
X018478Y003500D02*
X018478Y002980D01*
X017478Y002980D02*
X017478Y003500D01*
X016478Y003500D02*
X016478Y002980D01*
X020478Y002980D02*
X020478Y003500D01*
X021478Y003500D02*
X021478Y002980D01*
X022478Y002980D02*
X022478Y003500D01*
X026218Y004240D02*
X026738Y004240D01*
X029218Y004240D02*
X029738Y004240D01*
X029738Y005240D02*
X029218Y005240D01*
X029218Y006240D02*
X029738Y006240D01*
X029738Y007240D02*
X029218Y007240D01*
X029218Y008240D02*
X029738Y008240D01*
X029738Y009240D02*
X029218Y009240D01*
X029218Y010240D02*
X029738Y010240D01*
X029738Y011240D02*
X029218Y011240D01*
X029218Y012240D02*
X029738Y012240D01*
X026738Y012240D02*
X026218Y012240D01*
X026218Y011240D02*
X026738Y011240D01*
X026738Y010240D02*
X026218Y010240D01*
X026218Y009240D02*
X026738Y009240D01*
X026738Y008240D02*
X026218Y008240D01*
X026218Y007240D02*
X026738Y007240D01*
X026738Y006240D02*
X026218Y006240D01*
X026218Y005240D02*
X026738Y005240D01*
X022478Y005980D02*
X022478Y006500D01*
X021478Y006500D02*
X021478Y005980D01*
X020478Y005980D02*
X020478Y006500D01*
X018478Y006500D02*
X018478Y005980D01*
X017478Y005980D02*
X017478Y006500D01*
X016478Y006500D02*
X016478Y005980D01*
X016478Y008980D02*
X016478Y009500D01*
X017478Y009500D02*
X017478Y008980D01*
X018478Y008980D02*
X018478Y009500D01*
X020478Y009500D02*
X020478Y008980D01*
X021478Y008980D02*
X021478Y009500D01*
X022478Y009500D02*
X022478Y008980D01*
X022478Y012980D02*
X022478Y013500D01*
X021478Y013500D02*
X021478Y012980D01*
X020478Y012980D02*
X020478Y013500D01*
X018478Y013500D02*
X018478Y012980D01*
X017478Y012980D02*
X017478Y013500D01*
X016478Y013500D02*
X016478Y012980D01*
X035478Y013480D02*
X035478Y014000D01*
X036478Y014000D02*
X036478Y013480D01*
D14*
X024978Y009740D03*
X024978Y008740D03*
X024978Y007740D03*
D15*
X031478Y012240D03*
D16*
X034978Y008055D03*
X035978Y007653D03*
X034978Y007251D03*
X035978Y006850D03*
X034978Y006448D03*
X035978Y006047D03*
X034978Y005645D03*
X035978Y005244D03*
M02*
