G75*
G70*
%OFA0B0*%
%FSLAX24Y24*%
%IPPOS*%
%LPD*%
%AMOC8*
5,1,8,0,0,1.08239X$1,22.5*
%
%ADD10OC8,0.0630*%
%ADD11C,0.0594*%
%ADD12OC8,0.0520*%
%ADD13C,0.0520*%
%ADD14C,0.0515*%
%ADD15C,0.0630*%
%ADD16R,0.0515X0.0515*%
%ADD17C,0.0050*%
%ADD18C,0.0100*%
%ADD19C,0.0079*%
D10*
X027978Y006240D03*
X027978Y007240D03*
X032478Y012240D03*
D11*
X014478Y011537D02*
X014478Y010943D01*
X013478Y010943D02*
X013478Y011537D01*
X010978Y011537D02*
X010978Y010943D01*
X009978Y010943D02*
X009978Y011537D01*
X007478Y011537D02*
X007478Y010943D01*
X006478Y010943D02*
X006478Y011537D01*
X003978Y011537D02*
X003978Y010943D01*
X002978Y010943D02*
X002978Y011537D01*
X003478Y005037D02*
X003478Y004443D01*
X004478Y004443D02*
X004478Y005037D01*
X006978Y005037D02*
X006978Y004443D01*
X007978Y004443D02*
X007978Y005037D01*
X010478Y005037D02*
X010478Y004443D01*
X011478Y004443D02*
X011478Y005037D01*
X013978Y005037D02*
X013978Y004443D01*
X014978Y004443D02*
X014978Y005037D01*
D12*
X018478Y004240D03*
X019478Y004240D03*
X022478Y004240D03*
X023478Y004240D03*
X026478Y003240D03*
X026978Y003240D03*
X028978Y003240D03*
X029478Y003240D03*
X029478Y002240D03*
X028978Y002240D03*
X026978Y002240D03*
X026478Y002240D03*
X032478Y003490D03*
X032978Y003490D03*
X032978Y004490D03*
X032478Y004490D03*
X031478Y004740D03*
X030978Y004740D03*
X030978Y005740D03*
X031478Y005740D03*
X032478Y006740D03*
X032978Y006740D03*
X032978Y007740D03*
X032478Y007740D03*
X030978Y009240D03*
X030978Y010240D03*
X027978Y009990D03*
X027978Y008990D03*
X023478Y010240D03*
X022478Y010240D03*
X019478Y012240D03*
X018478Y012240D03*
X022978Y013240D03*
X023978Y013240D03*
X031478Y013740D03*
X032478Y013740D03*
X034478Y012240D03*
X037478Y012240D03*
X023478Y007240D03*
X022478Y007240D03*
X019478Y007240D03*
X018478Y007240D03*
X018478Y008240D03*
X019478Y008240D03*
D13*
X018478Y008980D02*
X018478Y009500D01*
X017478Y009500D02*
X017478Y008980D01*
X016478Y008980D02*
X016478Y009500D01*
X020478Y009500D02*
X020478Y008980D01*
X021478Y008980D02*
X021478Y009500D01*
X022478Y009500D02*
X022478Y008980D01*
X026218Y009240D02*
X026738Y009240D01*
X026738Y010240D02*
X026218Y010240D01*
X026218Y011240D02*
X026738Y011240D01*
X026738Y012240D02*
X026218Y012240D01*
X029218Y012240D02*
X029738Y012240D01*
X029738Y011240D02*
X029218Y011240D01*
X029218Y010240D02*
X029738Y010240D01*
X029738Y009240D02*
X029218Y009240D01*
X029218Y008240D02*
X029738Y008240D01*
X029738Y007240D02*
X029218Y007240D01*
X026738Y007240D02*
X026218Y007240D01*
X026218Y008240D02*
X026738Y008240D01*
X022478Y006500D02*
X022478Y005980D01*
X021478Y005980D02*
X021478Y006500D01*
X020478Y006500D02*
X020478Y005980D01*
X018478Y005980D02*
X018478Y006500D01*
X017478Y006500D02*
X017478Y005980D01*
X016478Y005980D02*
X016478Y006500D01*
X016478Y003500D02*
X016478Y002980D01*
X017478Y002980D02*
X017478Y003500D01*
X018478Y003500D02*
X018478Y002980D01*
X020478Y002980D02*
X020478Y003500D01*
X021478Y003500D02*
X021478Y002980D01*
X022478Y002980D02*
X022478Y003500D01*
X026218Y004240D02*
X026738Y004240D01*
X029218Y004240D02*
X029738Y004240D01*
X029738Y005240D02*
X029218Y005240D01*
X029218Y006240D02*
X029738Y006240D01*
X026738Y006240D02*
X026218Y006240D01*
X026218Y005240D02*
X026738Y005240D01*
X022478Y012980D02*
X022478Y013500D01*
X021478Y013500D02*
X021478Y012980D01*
X020478Y012980D02*
X020478Y013500D01*
X018478Y013500D02*
X018478Y012980D01*
X017478Y012980D02*
X017478Y013500D01*
X016478Y013500D02*
X016478Y012980D01*
X035478Y013480D02*
X035478Y014000D01*
X036478Y014000D02*
X036478Y013480D01*
D14*
X024978Y009740D03*
X024978Y008740D03*
X024978Y007740D03*
D15*
X031478Y012240D03*
D16*
X034978Y008055D03*
X035978Y007653D03*
X034978Y007251D03*
X035978Y006850D03*
X034978Y006448D03*
X035978Y006047D03*
X034978Y005645D03*
X035978Y005244D03*
D17*
X028421Y001465D02*
X000478Y001465D01*
X000478Y002248D01*
X000598Y001959D01*
X000827Y001729D01*
X001127Y001605D01*
X001452Y001605D01*
X001751Y001729D01*
X001981Y001959D01*
X002105Y002259D01*
X005277Y002259D01*
X005325Y002211D02*
X002085Y002211D01*
X002105Y002259D02*
X002105Y002583D01*
X001981Y002883D01*
X001751Y003112D01*
X001452Y003236D01*
X001127Y003236D01*
X000827Y003112D01*
X000598Y002883D01*
X000478Y002594D01*
X000478Y014059D01*
X000598Y013770D01*
X000827Y013540D01*
X001127Y013416D01*
X001452Y013416D01*
X001751Y013540D01*
X001981Y013770D01*
X002105Y014070D01*
X002105Y014394D01*
X001981Y014694D01*
X001880Y014794D01*
X039253Y014794D01*
X039253Y001465D01*
X030036Y001465D01*
X030076Y001505D01*
X034081Y001505D01*
X034276Y001505D01*
X034413Y001642D01*
X034413Y003492D01*
X034592Y003671D01*
X034576Y003633D01*
X034576Y003473D01*
X034413Y003473D01*
X034413Y003424D02*
X034596Y003424D01*
X034576Y003473D02*
X034638Y003325D01*
X034751Y003212D01*
X034898Y003151D01*
X035058Y003151D01*
X035206Y003212D01*
X035319Y003325D01*
X035381Y003473D01*
X036285Y003473D01*
X036293Y003453D02*
X036187Y003709D01*
X036187Y003987D01*
X036293Y004243D01*
X036489Y004439D01*
X036745Y004545D01*
X037023Y004545D01*
X037279Y004439D01*
X037475Y004243D01*
X037581Y003987D01*
X037581Y003709D01*
X037475Y003453D01*
X037279Y003257D01*
X037023Y003151D01*
X036745Y003151D01*
X036489Y003257D01*
X036293Y003453D01*
X036321Y003424D02*
X035361Y003424D01*
X035381Y003473D02*
X035381Y003633D01*
X035319Y003780D01*
X035206Y003894D01*
X035058Y003955D01*
X034898Y003955D01*
X034860Y003939D01*
X034926Y004005D01*
X035076Y004005D01*
X035213Y004142D01*
X035213Y004337D01*
X035213Y005203D01*
X035313Y005203D01*
X035421Y005311D01*
X035421Y005822D01*
X035536Y005822D01*
X035536Y005713D01*
X035644Y005604D01*
X036313Y005604D01*
X036421Y005713D01*
X036421Y006381D01*
X036353Y006448D01*
X036421Y006516D01*
X036421Y007184D01*
X036353Y007251D01*
X036421Y007319D01*
X036421Y007987D01*
X036313Y008096D01*
X036213Y008096D01*
X036213Y009034D01*
X036293Y008843D01*
X036489Y008646D01*
X036745Y008540D01*
X037023Y008540D01*
X037279Y008646D01*
X037475Y008843D01*
X037581Y009099D01*
X037581Y009376D01*
X037475Y009633D01*
X037279Y009829D01*
X037023Y009935D01*
X036745Y009935D01*
X036489Y009829D01*
X036293Y009633D01*
X036213Y009441D01*
X036213Y013087D01*
X036076Y013225D01*
X035881Y013225D01*
X033426Y013225D01*
X032923Y013727D01*
X032923Y013924D01*
X032663Y014185D01*
X032366Y014185D01*
X032013Y014537D01*
X031876Y014675D01*
X016376Y014675D01*
X016181Y014675D01*
X013953Y012447D01*
X013876Y012525D01*
X012576Y012525D01*
X012381Y012525D01*
X011460Y011604D01*
X011460Y011632D01*
X011387Y011809D01*
X011251Y011945D01*
X011074Y012018D01*
X010883Y012018D01*
X010882Y012018D01*
X010376Y012525D01*
X010181Y012525D01*
X007931Y012525D01*
X007793Y012387D01*
X007425Y012018D01*
X007383Y012018D01*
X007382Y012018D01*
X007013Y012387D01*
X006876Y012525D01*
X005576Y012525D01*
X005381Y012525D01*
X004460Y011604D01*
X004460Y011632D01*
X004387Y011809D01*
X004251Y011945D01*
X004074Y012018D01*
X003883Y012018D01*
X003882Y012018D01*
X003376Y012525D01*
X003181Y012525D01*
X002131Y012525D01*
X001993Y012387D01*
X001993Y012192D01*
X001993Y009137D01*
X001993Y008942D01*
X005171Y005765D01*
X004801Y005395D01*
X004751Y005445D01*
X004574Y005518D01*
X004383Y005518D01*
X004206Y005445D01*
X004070Y005309D01*
X003997Y005132D01*
X003997Y004347D01*
X004070Y004170D01*
X004206Y004034D01*
X004383Y003961D01*
X004574Y003961D01*
X004751Y004034D01*
X004887Y004170D01*
X004960Y004347D01*
X004960Y004889D01*
X005601Y005530D01*
X005601Y005530D01*
X005626Y005555D01*
X007181Y005555D01*
X007528Y005208D01*
X007497Y005132D01*
X007497Y004347D01*
X007570Y004170D01*
X007706Y004034D01*
X007883Y003961D01*
X008074Y003961D01*
X008251Y004034D01*
X008387Y004170D01*
X008460Y004347D01*
X008460Y004376D01*
X009381Y003455D01*
X009576Y003455D01*
X010876Y003455D01*
X011013Y003592D01*
X011382Y003961D01*
X011383Y003961D01*
X011574Y003961D01*
X011751Y004034D01*
X011887Y004170D01*
X011960Y004347D01*
X011960Y004376D01*
X012881Y003455D01*
X013076Y003455D01*
X014376Y003455D01*
X014513Y003592D01*
X014882Y003961D01*
X014883Y003961D01*
X015074Y003961D01*
X015251Y004034D01*
X015387Y004170D01*
X015460Y004347D01*
X015460Y005132D01*
X015387Y005309D01*
X015251Y005445D01*
X015074Y005518D01*
X014883Y005518D01*
X014706Y005445D01*
X014570Y005309D01*
X014497Y005132D01*
X014497Y004347D01*
X014528Y004271D01*
X014181Y003925D01*
X013076Y003925D01*
X012163Y004837D01*
X012026Y004975D01*
X011960Y004975D01*
X011960Y005132D01*
X011887Y005309D01*
X011751Y005445D01*
X011574Y005518D01*
X011383Y005518D01*
X011206Y005445D01*
X011070Y005309D01*
X010997Y005132D01*
X010997Y004347D01*
X011028Y004271D01*
X010681Y003925D01*
X009576Y003925D01*
X008663Y004837D01*
X008526Y004975D01*
X008460Y004975D01*
X008460Y005132D01*
X008387Y005309D01*
X008251Y005445D01*
X008074Y005518D01*
X007883Y005518D01*
X007882Y005518D01*
X007376Y006025D01*
X007181Y006025D01*
X005626Y006025D01*
X005576Y006025D01*
X002463Y009137D01*
X002463Y012055D01*
X003181Y012055D01*
X003528Y011708D01*
X003497Y011632D01*
X003497Y010847D01*
X003570Y010670D01*
X003706Y010534D01*
X003883Y010461D01*
X004074Y010461D01*
X004251Y010534D01*
X004387Y010670D01*
X004460Y010847D01*
X004460Y011105D01*
X004626Y011105D01*
X004763Y011242D01*
X005576Y012055D01*
X006681Y012055D01*
X007028Y011708D01*
X006997Y011632D01*
X006997Y010847D01*
X007070Y010670D01*
X007206Y010534D01*
X007383Y010461D01*
X007574Y010461D01*
X007751Y010534D01*
X007887Y010670D01*
X007960Y010847D01*
X007960Y011632D01*
X007887Y011809D01*
X007884Y011813D01*
X008126Y012055D01*
X010181Y012055D01*
X010528Y011708D01*
X010497Y011632D01*
X010497Y010847D01*
X010570Y010670D01*
X010706Y010534D01*
X010883Y010461D01*
X011074Y010461D01*
X011251Y010534D01*
X011387Y010670D01*
X011460Y010847D01*
X011460Y011005D01*
X011526Y011005D01*
X011663Y011142D01*
X012576Y012055D01*
X013681Y012055D01*
X013718Y012017D01*
X013718Y012017D01*
X013856Y011880D01*
X013856Y011880D01*
X014028Y011708D01*
X013997Y011632D01*
X013997Y010847D01*
X014070Y010670D01*
X014206Y010534D01*
X014383Y010461D01*
X014574Y010461D01*
X014751Y010534D01*
X014887Y010670D01*
X014960Y010847D01*
X014960Y011632D01*
X014887Y011809D01*
X014751Y011945D01*
X014574Y012018D01*
X014383Y012018D01*
X014382Y012018D01*
X014286Y012115D01*
X016376Y014205D01*
X031681Y014205D01*
X032033Y013852D01*
X032033Y013555D01*
X032294Y013295D01*
X032663Y013295D01*
X032677Y013309D01*
X033231Y012755D01*
X033426Y012755D01*
X035743Y012755D01*
X035743Y008096D01*
X035644Y008096D01*
X035536Y007987D01*
X035536Y007319D01*
X035603Y007251D01*
X035536Y007184D01*
X035536Y007074D01*
X035421Y007074D01*
X035421Y007586D01*
X035353Y007653D01*
X035421Y007721D01*
X035421Y008389D01*
X035313Y008497D01*
X034644Y008497D01*
X034536Y008389D01*
X034536Y008125D01*
X033476Y008125D01*
X033281Y008125D01*
X033252Y008095D01*
X033163Y008185D01*
X032794Y008185D01*
X032728Y008119D01*
X032663Y008185D01*
X032294Y008185D01*
X032084Y007975D01*
X028826Y007975D01*
X028631Y007975D01*
X028493Y007837D01*
X028493Y006865D01*
X028233Y006692D01*
X028186Y006740D01*
X027811Y006740D01*
X027663Y006887D01*
X027663Y008292D01*
X027663Y008342D01*
X027866Y008545D01*
X028041Y008545D01*
X028081Y008505D01*
X030281Y008505D01*
X030476Y008505D01*
X030780Y008809D01*
X030794Y008795D01*
X031163Y008795D01*
X031423Y009055D01*
X035743Y009055D01*
X035743Y009007D02*
X031375Y009007D01*
X031423Y009055D02*
X031423Y009352D01*
X033526Y011455D01*
X034026Y011455D01*
X034163Y011592D01*
X034366Y011795D01*
X034663Y011795D01*
X034923Y012055D01*
X034923Y012424D01*
X034663Y012685D01*
X034294Y012685D01*
X034033Y012424D01*
X034033Y012127D01*
X033831Y011925D01*
X033526Y011925D01*
X033331Y011925D01*
X032376Y011925D01*
X031978Y012322D01*
X031978Y012339D01*
X031902Y012523D01*
X031762Y012664D01*
X031713Y012684D01*
X031713Y013345D01*
X031923Y013555D01*
X031923Y013924D01*
X031663Y014185D01*
X031294Y014185D01*
X031033Y013924D01*
X031033Y013555D01*
X031243Y013345D01*
X031243Y012684D01*
X031195Y012664D01*
X031055Y012523D01*
X030978Y012339D01*
X030978Y012140D01*
X031055Y011956D01*
X031195Y011816D01*
X031379Y011740D01*
X031578Y011740D01*
X031762Y011816D01*
X031791Y011845D01*
X032181Y011455D01*
X032376Y011455D01*
X032861Y011455D01*
X031091Y009685D01*
X030794Y009685D01*
X030533Y009424D01*
X030533Y009227D01*
X030281Y008975D01*
X030103Y008975D01*
X030116Y008988D01*
X030183Y009151D01*
X030183Y009328D01*
X030116Y009492D01*
X029991Y009617D01*
X029827Y009685D01*
X029130Y009685D01*
X029120Y009680D01*
X028813Y009987D01*
X028676Y010125D01*
X028423Y010125D01*
X028423Y010174D01*
X028163Y010435D01*
X027794Y010435D01*
X027533Y010174D01*
X027533Y009805D01*
X027794Y009545D01*
X028163Y009545D01*
X028273Y009655D01*
X028326Y009655D01*
X028481Y009655D01*
X028784Y009352D01*
X028773Y009328D01*
X028773Y009151D01*
X028841Y008988D01*
X028854Y008975D01*
X028423Y008975D01*
X028423Y009174D01*
X028163Y009435D01*
X027794Y009435D01*
X027533Y009174D01*
X027533Y008877D01*
X027306Y008650D01*
X027168Y008512D01*
X027168Y008512D01*
X027131Y008475D01*
X027123Y008475D01*
X027116Y008492D01*
X026991Y008617D01*
X026827Y008685D01*
X026256Y008685D01*
X026366Y008795D01*
X026827Y008795D01*
X026991Y008862D01*
X027116Y008988D01*
X027183Y009151D01*
X027183Y009328D01*
X027116Y009492D01*
X026991Y009617D01*
X026827Y009685D01*
X026130Y009685D01*
X025966Y009617D01*
X025841Y009492D01*
X025773Y009328D01*
X025773Y009151D01*
X025841Y008988D01*
X025868Y008961D01*
X025082Y008176D01*
X025066Y008182D01*
X024890Y008182D01*
X024728Y008115D01*
X024603Y007990D01*
X024536Y007828D01*
X024536Y007652D01*
X024603Y007489D01*
X024728Y007365D01*
X024890Y007297D01*
X025066Y007297D01*
X025229Y007365D01*
X025354Y007489D01*
X025421Y007652D01*
X025421Y007828D01*
X025414Y007843D01*
X025773Y008202D01*
X025773Y008151D01*
X025841Y007988D01*
X025966Y007862D01*
X026130Y007795D01*
X026827Y007795D01*
X026991Y007862D01*
X027116Y007988D01*
X027123Y008005D01*
X027193Y008005D01*
X027193Y006692D01*
X027331Y006555D01*
X027478Y006407D01*
X027478Y006033D01*
X027771Y005740D01*
X027793Y005740D01*
X027793Y005642D01*
X027931Y005505D01*
X028021Y005415D01*
X027893Y005287D01*
X027893Y005092D01*
X027893Y003375D01*
X027423Y003375D01*
X027423Y003424D01*
X027893Y003424D01*
X027893Y003376D02*
X027423Y003376D01*
X027423Y003424D02*
X027163Y003685D01*
X026794Y003685D01*
X026728Y003619D01*
X026663Y003685D01*
X026294Y003685D01*
X026033Y003424D01*
X026033Y003055D01*
X026294Y002795D01*
X026663Y002795D01*
X026728Y002860D01*
X026794Y002795D01*
X027163Y002795D01*
X027273Y002905D01*
X027326Y002905D01*
X027981Y002905D01*
X028006Y002880D01*
X028006Y002880D01*
X028533Y002352D01*
X028533Y002055D01*
X028794Y001795D01*
X029163Y001795D01*
X029228Y001860D01*
X029294Y001795D01*
X029663Y001795D01*
X029923Y002055D01*
X029923Y002424D01*
X029663Y002685D01*
X029294Y002685D01*
X029228Y002619D01*
X029163Y002685D01*
X028866Y002685D01*
X028363Y003187D01*
X028363Y003237D01*
X028363Y004955D01*
X028481Y004955D01*
X028893Y004543D01*
X028841Y004492D01*
X028773Y004328D01*
X028773Y004151D01*
X028841Y003988D01*
X028966Y003862D01*
X029130Y003795D01*
X029243Y003795D01*
X029243Y003634D01*
X029228Y003619D01*
X029163Y003685D01*
X028794Y003685D01*
X028533Y003424D01*
X028533Y003055D01*
X028794Y002795D01*
X029163Y002795D01*
X029228Y002860D01*
X029294Y002795D01*
X029663Y002795D01*
X029677Y002809D01*
X029931Y002555D01*
X030126Y002555D01*
X033776Y002555D01*
X033913Y002692D01*
X033913Y002887D01*
X033913Y005142D01*
X034536Y005765D01*
X034536Y005311D01*
X034644Y005203D01*
X034743Y005203D01*
X034743Y004475D01*
X034731Y004475D01*
X034081Y003825D01*
X033943Y003687D01*
X033943Y001975D01*
X030076Y001975D01*
X029881Y001975D01*
X029681Y001775D01*
X028776Y001775D01*
X028313Y002237D01*
X028176Y002375D01*
X027423Y002375D01*
X027423Y002424D01*
X027163Y002685D01*
X026794Y002685D01*
X026728Y002619D01*
X026663Y002685D01*
X026294Y002685D01*
X026184Y002575D01*
X026131Y002575D01*
X026013Y002575D01*
X026013Y003442D01*
X026366Y003795D01*
X026827Y003795D01*
X026991Y003862D01*
X027116Y003988D01*
X027183Y004151D01*
X027183Y004328D01*
X027116Y004492D01*
X026991Y004617D01*
X026827Y004685D01*
X026130Y004685D01*
X025966Y004617D01*
X025841Y004492D01*
X025773Y004328D01*
X025773Y004151D01*
X025841Y003988D01*
X025868Y003961D01*
X025681Y003775D01*
X025543Y003637D01*
X025543Y002437D01*
X025543Y002242D01*
X025681Y002105D01*
X026033Y002105D01*
X026033Y002055D01*
X026294Y001795D01*
X026663Y001795D01*
X026728Y001860D01*
X026794Y001795D01*
X027163Y001795D01*
X027273Y001905D01*
X027326Y001905D01*
X027981Y001905D01*
X028421Y001465D01*
X028403Y001482D02*
X000478Y001482D01*
X000478Y001531D02*
X028355Y001531D01*
X028306Y001579D02*
X000478Y001579D01*
X000478Y001628D02*
X001072Y001628D01*
X000955Y001677D02*
X000478Y001677D01*
X000478Y001725D02*
X000838Y001725D01*
X000783Y001774D02*
X000478Y001774D01*
X000478Y001822D02*
X000735Y001822D01*
X000686Y001871D02*
X000478Y001871D01*
X000478Y001919D02*
X000638Y001919D01*
X000594Y001968D02*
X000478Y001968D01*
X000478Y002016D02*
X000574Y002016D01*
X000554Y002065D02*
X000478Y002065D01*
X000478Y002113D02*
X000534Y002113D01*
X000514Y002162D02*
X000478Y002162D01*
X000478Y002211D02*
X000494Y002211D01*
X000481Y002599D02*
X000478Y002599D01*
X000478Y002647D02*
X000501Y002647D01*
X000521Y002696D02*
X000478Y002696D01*
X000478Y002745D02*
X000541Y002745D01*
X000561Y002793D02*
X000478Y002793D01*
X000478Y002842D02*
X000581Y002842D01*
X000606Y002890D02*
X000478Y002890D01*
X000478Y002939D02*
X000654Y002939D01*
X000703Y002987D02*
X000478Y002987D01*
X000478Y003036D02*
X000751Y003036D01*
X000800Y003084D02*
X000478Y003084D01*
X000478Y003133D02*
X000878Y003133D01*
X000995Y003181D02*
X000478Y003181D01*
X000478Y003230D02*
X001112Y003230D01*
X001467Y003230D02*
X004306Y003230D01*
X004354Y003181D02*
X001584Y003181D01*
X001701Y003133D02*
X004403Y003133D01*
X004451Y003084D02*
X001779Y003084D01*
X001828Y003036D02*
X004500Y003036D01*
X004549Y002987D02*
X001876Y002987D01*
X001925Y002939D02*
X004597Y002939D01*
X004646Y002890D02*
X001973Y002890D01*
X001998Y002842D02*
X004694Y002842D01*
X004743Y002793D02*
X002018Y002793D01*
X002038Y002745D02*
X004791Y002745D01*
X004840Y002696D02*
X002058Y002696D01*
X002078Y002647D02*
X004888Y002647D01*
X004937Y002599D02*
X002098Y002599D01*
X002105Y002550D02*
X004985Y002550D01*
X005034Y002502D02*
X002105Y002502D01*
X002105Y002453D02*
X005083Y002453D01*
X005131Y002405D02*
X002105Y002405D01*
X002105Y002356D02*
X005180Y002356D01*
X005228Y002308D02*
X002105Y002308D01*
X002065Y002162D02*
X005374Y002162D01*
X005422Y002113D02*
X002045Y002113D01*
X002025Y002065D02*
X005471Y002065D01*
X005519Y002016D02*
X002005Y002016D01*
X001985Y001968D02*
X005568Y001968D01*
X005581Y001955D02*
X003575Y003961D01*
X003574Y003961D01*
X003383Y003961D01*
X003206Y004034D01*
X003070Y004170D01*
X002997Y004347D01*
X002997Y005132D01*
X003070Y005309D01*
X003206Y005445D01*
X003383Y005518D01*
X003574Y005518D01*
X003751Y005445D01*
X003887Y005309D01*
X003960Y005132D01*
X003960Y004347D01*
X003929Y004271D01*
X005776Y002425D01*
X008611Y002425D01*
X007075Y003961D01*
X007074Y003961D01*
X006883Y003961D01*
X006706Y004034D01*
X006570Y004170D01*
X006497Y004347D01*
X006497Y005132D01*
X006570Y005309D01*
X006706Y005445D01*
X006883Y005518D01*
X007074Y005518D01*
X007251Y005445D01*
X007387Y005309D01*
X007460Y005132D01*
X007460Y004347D01*
X007429Y004271D01*
X008976Y002725D01*
X016631Y002725D01*
X017033Y003127D01*
X017033Y003588D01*
X017101Y003752D01*
X017226Y003877D01*
X017390Y003945D01*
X017567Y003945D01*
X017731Y003877D01*
X017856Y003752D01*
X017923Y003588D01*
X017923Y002891D01*
X017856Y002728D01*
X017731Y002602D01*
X017567Y002535D01*
X017390Y002535D01*
X017226Y002602D01*
X017200Y002629D01*
X016996Y002425D01*
X020331Y002425D01*
X021033Y003127D01*
X021033Y003588D01*
X021101Y003752D01*
X021226Y003877D01*
X021390Y003945D01*
X021567Y003945D01*
X021731Y003877D01*
X021856Y003752D01*
X021923Y003588D01*
X021923Y002891D01*
X021856Y002728D01*
X021731Y002602D01*
X021567Y002535D01*
X021390Y002535D01*
X021226Y002602D01*
X021200Y002629D01*
X020663Y002092D01*
X020526Y001955D01*
X005776Y001955D01*
X005581Y001955D01*
X005747Y002453D02*
X008583Y002453D01*
X008534Y002502D02*
X005699Y002502D01*
X005650Y002550D02*
X008485Y002550D01*
X008437Y002599D02*
X005601Y002599D01*
X005553Y002647D02*
X008388Y002647D01*
X008340Y002696D02*
X005504Y002696D01*
X005456Y002745D02*
X008291Y002745D01*
X008243Y002793D02*
X005407Y002793D01*
X005359Y002842D02*
X008194Y002842D01*
X008146Y002890D02*
X005310Y002890D01*
X005262Y002939D02*
X008097Y002939D01*
X008049Y002987D02*
X005213Y002987D01*
X005165Y003036D02*
X008000Y003036D01*
X007951Y003084D02*
X005116Y003084D01*
X005068Y003133D02*
X007903Y003133D01*
X007854Y003181D02*
X005019Y003181D01*
X004970Y003230D02*
X007806Y003230D01*
X007757Y003279D02*
X004922Y003279D01*
X004873Y003327D02*
X007709Y003327D01*
X007660Y003376D02*
X004825Y003376D01*
X004776Y003424D02*
X007612Y003424D01*
X007563Y003473D02*
X004728Y003473D01*
X004679Y003521D02*
X007515Y003521D01*
X007466Y003570D02*
X004631Y003570D01*
X004582Y003618D02*
X007418Y003618D01*
X007369Y003667D02*
X004534Y003667D01*
X004485Y003715D02*
X007320Y003715D01*
X007272Y003764D02*
X004436Y003764D01*
X004388Y003812D02*
X007223Y003812D01*
X007175Y003861D02*
X004339Y003861D01*
X004291Y003910D02*
X007126Y003910D01*
X007078Y003958D02*
X004242Y003958D01*
X004272Y004007D02*
X004194Y004007D01*
X004185Y004055D02*
X004145Y004055D01*
X004136Y004104D02*
X004097Y004104D01*
X004088Y004152D02*
X004048Y004152D01*
X004057Y004201D02*
X004000Y004201D01*
X004037Y004249D02*
X003951Y004249D01*
X003940Y004298D02*
X004017Y004298D01*
X003997Y004346D02*
X003960Y004346D01*
X003960Y004395D02*
X003997Y004395D01*
X003997Y004444D02*
X003960Y004444D01*
X003960Y004492D02*
X003997Y004492D01*
X003997Y004541D02*
X003960Y004541D01*
X003960Y004589D02*
X003997Y004589D01*
X003997Y004638D02*
X003960Y004638D01*
X003960Y004686D02*
X003997Y004686D01*
X003997Y004735D02*
X003960Y004735D01*
X003960Y004783D02*
X003997Y004783D01*
X003997Y004832D02*
X003960Y004832D01*
X003960Y004880D02*
X003997Y004880D01*
X003997Y004929D02*
X003960Y004929D01*
X003960Y004978D02*
X003997Y004978D01*
X003997Y005026D02*
X003960Y005026D01*
X003960Y005075D02*
X003997Y005075D01*
X003997Y005123D02*
X003960Y005123D01*
X003944Y005172D02*
X004013Y005172D01*
X004033Y005220D02*
X003924Y005220D01*
X003904Y005269D02*
X004053Y005269D01*
X004078Y005317D02*
X003879Y005317D01*
X003831Y005366D02*
X004126Y005366D01*
X004175Y005414D02*
X003782Y005414D01*
X003708Y005463D02*
X004249Y005463D01*
X004366Y005511D02*
X003591Y005511D01*
X003366Y005511D02*
X000478Y005511D01*
X000478Y005463D02*
X003249Y005463D01*
X003175Y005414D02*
X000478Y005414D01*
X000478Y005366D02*
X003126Y005366D01*
X003078Y005317D02*
X000478Y005317D01*
X000478Y005269D02*
X003053Y005269D01*
X003033Y005220D02*
X000478Y005220D01*
X000478Y005172D02*
X003013Y005172D01*
X002997Y005123D02*
X000478Y005123D01*
X000478Y005075D02*
X002997Y005075D01*
X002997Y005026D02*
X000478Y005026D01*
X000478Y004978D02*
X002997Y004978D01*
X002997Y004929D02*
X000478Y004929D01*
X000478Y004880D02*
X002997Y004880D01*
X002997Y004832D02*
X000478Y004832D01*
X000478Y004783D02*
X002997Y004783D01*
X002997Y004735D02*
X000478Y004735D01*
X000478Y004686D02*
X002997Y004686D01*
X002997Y004638D02*
X000478Y004638D01*
X000478Y004589D02*
X002997Y004589D01*
X002997Y004541D02*
X000478Y004541D01*
X000478Y004492D02*
X002997Y004492D01*
X002997Y004444D02*
X000478Y004444D01*
X000478Y004395D02*
X002997Y004395D01*
X002997Y004346D02*
X000478Y004346D01*
X000478Y004298D02*
X003017Y004298D01*
X003037Y004249D02*
X000478Y004249D01*
X000478Y004201D02*
X003057Y004201D01*
X003088Y004152D02*
X000478Y004152D01*
X000478Y004104D02*
X003136Y004104D01*
X003185Y004055D02*
X000478Y004055D01*
X000478Y004007D02*
X003272Y004007D01*
X003578Y003958D02*
X000478Y003958D01*
X000478Y003910D02*
X003626Y003910D01*
X003675Y003861D02*
X000478Y003861D01*
X000478Y003812D02*
X003723Y003812D01*
X003772Y003764D02*
X000478Y003764D01*
X000478Y003715D02*
X003820Y003715D01*
X003869Y003667D02*
X000478Y003667D01*
X000478Y003618D02*
X003917Y003618D01*
X003966Y003570D02*
X000478Y003570D01*
X000478Y003521D02*
X004015Y003521D01*
X004063Y003473D02*
X000478Y003473D01*
X000478Y003424D02*
X004112Y003424D01*
X004160Y003376D02*
X000478Y003376D01*
X000478Y003327D02*
X004209Y003327D01*
X004257Y003279D02*
X000478Y003279D01*
X001893Y001871D02*
X026218Y001871D01*
X026170Y001919D02*
X001941Y001919D01*
X001844Y001822D02*
X026267Y001822D01*
X026121Y001968D02*
X020539Y001968D01*
X020587Y002016D02*
X026072Y002016D01*
X026033Y002065D02*
X020636Y002065D01*
X020685Y002113D02*
X025672Y002113D01*
X025624Y002162D02*
X020733Y002162D01*
X020782Y002211D02*
X025575Y002211D01*
X025543Y002259D02*
X020830Y002259D01*
X020879Y002308D02*
X025543Y002308D01*
X025543Y002356D02*
X020927Y002356D01*
X020976Y002405D02*
X025543Y002405D01*
X025543Y002453D02*
X021024Y002453D01*
X021073Y002502D02*
X025543Y002502D01*
X025543Y002550D02*
X022605Y002550D01*
X022567Y002535D02*
X022731Y002602D01*
X022856Y002728D01*
X022923Y002891D01*
X022923Y003588D01*
X022856Y003752D01*
X022738Y003870D01*
X022923Y004055D01*
X023034Y004055D01*
X023033Y004055D02*
X023033Y004424D01*
X023294Y004685D01*
X023663Y004685D01*
X023773Y004575D01*
X023826Y004575D01*
X025231Y004575D01*
X025783Y005127D01*
X025773Y005151D01*
X025773Y005328D01*
X025841Y005492D01*
X025966Y005617D01*
X026130Y005685D01*
X026827Y005685D01*
X026991Y005617D01*
X027116Y005492D01*
X027183Y005328D01*
X027183Y005151D01*
X027116Y004988D01*
X026991Y004862D01*
X026827Y004795D01*
X026130Y004795D01*
X026120Y004799D01*
X025426Y004105D01*
X025231Y004105D01*
X023923Y004105D01*
X023923Y004055D01*
X025813Y004055D01*
X025833Y004007D02*
X023875Y004007D01*
X023923Y004055D02*
X023663Y003795D01*
X023294Y003795D01*
X023033Y004055D01*
X023033Y004104D02*
X022923Y004104D01*
X022923Y004152D02*
X023033Y004152D01*
X023033Y004201D02*
X022923Y004201D01*
X022923Y004249D02*
X023033Y004249D01*
X023033Y004298D02*
X022923Y004298D01*
X022923Y004346D02*
X023033Y004346D01*
X023033Y004395D02*
X022923Y004395D01*
X022923Y004424D02*
X022923Y004055D01*
X022875Y004007D02*
X023082Y004007D01*
X023131Y003958D02*
X022826Y003958D01*
X022778Y003910D02*
X023179Y003910D01*
X023228Y003861D02*
X022746Y003861D01*
X022795Y003812D02*
X023276Y003812D01*
X023681Y003812D02*
X025719Y003812D01*
X025670Y003764D02*
X022843Y003764D01*
X022871Y003715D02*
X025622Y003715D01*
X025573Y003667D02*
X022891Y003667D01*
X022911Y003618D02*
X025543Y003618D01*
X025543Y003570D02*
X022923Y003570D01*
X022923Y003521D02*
X025543Y003521D01*
X025543Y003473D02*
X022923Y003473D01*
X022923Y003424D02*
X025543Y003424D01*
X025543Y003376D02*
X022923Y003376D01*
X022923Y003327D02*
X025543Y003327D01*
X025543Y003279D02*
X022923Y003279D01*
X022923Y003230D02*
X025543Y003230D01*
X025543Y003181D02*
X022923Y003181D01*
X022923Y003133D02*
X025543Y003133D01*
X025543Y003084D02*
X022923Y003084D01*
X022923Y003036D02*
X025543Y003036D01*
X025543Y002987D02*
X022923Y002987D01*
X022923Y002939D02*
X025543Y002939D01*
X025543Y002890D02*
X022923Y002890D01*
X022903Y002842D02*
X025543Y002842D01*
X025543Y002793D02*
X022883Y002793D01*
X022863Y002745D02*
X025543Y002745D01*
X025543Y002696D02*
X022824Y002696D01*
X022776Y002647D02*
X025543Y002647D01*
X025543Y002599D02*
X022722Y002599D01*
X022567Y002535D02*
X022390Y002535D01*
X022226Y002602D01*
X022101Y002728D01*
X022033Y002891D01*
X022033Y003588D01*
X022101Y003752D01*
X022219Y003870D01*
X022033Y004055D01*
X022033Y004424D01*
X022294Y004685D01*
X022663Y004685D01*
X022923Y004424D01*
X022904Y004444D02*
X023053Y004444D01*
X023102Y004492D02*
X022855Y004492D01*
X022807Y004541D02*
X023150Y004541D01*
X023199Y004589D02*
X022758Y004589D01*
X022710Y004638D02*
X023247Y004638D01*
X023710Y004638D02*
X025294Y004638D01*
X025343Y004686D02*
X020257Y004686D01*
X020209Y004638D02*
X022247Y004638D01*
X022199Y004589D02*
X020160Y004589D01*
X020112Y004541D02*
X022150Y004541D01*
X022102Y004492D02*
X020063Y004492D01*
X020015Y004444D02*
X022053Y004444D01*
X022033Y004395D02*
X019966Y004395D01*
X019923Y004352D02*
X019923Y004055D01*
X022034Y004055D01*
X022033Y004104D02*
X019923Y004104D01*
X019923Y004152D02*
X022033Y004152D01*
X022033Y004201D02*
X019923Y004201D01*
X019923Y004249D02*
X022033Y004249D01*
X022033Y004298D02*
X019923Y004298D01*
X019923Y004346D02*
X022033Y004346D01*
X022082Y004007D02*
X019875Y004007D01*
X019923Y004055D02*
X019663Y003795D01*
X019294Y003795D01*
X019033Y004055D01*
X019033Y004424D01*
X019294Y004685D01*
X019591Y004685D01*
X019961Y005055D01*
X015876Y005055D01*
X015681Y005055D01*
X015181Y005555D01*
X014776Y005555D01*
X014429Y005208D01*
X014460Y005132D01*
X014460Y004347D01*
X014387Y004170D01*
X014251Y004034D01*
X014074Y003961D01*
X013883Y003961D01*
X013706Y004034D01*
X013570Y004170D01*
X013497Y004347D01*
X013497Y005132D01*
X013570Y005309D01*
X013706Y005445D01*
X013883Y005518D01*
X014074Y005518D01*
X014075Y005518D01*
X014581Y006025D01*
X014776Y006025D01*
X015376Y006025D01*
X015513Y005887D01*
X015876Y005525D01*
X020431Y005525D01*
X021033Y006127D01*
X021033Y006588D01*
X021101Y006752D01*
X021226Y006877D01*
X021390Y006945D01*
X021441Y006945D01*
X021381Y007005D01*
X019873Y007005D01*
X019663Y006795D01*
X019294Y006795D01*
X019033Y007055D01*
X019033Y007424D01*
X019114Y007505D01*
X018843Y007505D01*
X018923Y007424D01*
X018923Y007055D01*
X018738Y006870D01*
X018856Y006752D01*
X018923Y006588D01*
X018923Y005891D01*
X018856Y005728D01*
X018731Y005602D01*
X018567Y005535D01*
X018390Y005535D01*
X018226Y005602D01*
X018101Y005728D01*
X018033Y005891D01*
X018033Y006588D01*
X018101Y006752D01*
X018219Y006870D01*
X018033Y007055D01*
X018033Y007424D01*
X018114Y007505D01*
X006226Y007505D01*
X006031Y007505D01*
X003075Y010461D01*
X003074Y010461D01*
X002883Y010461D01*
X002706Y010534D01*
X002570Y010670D01*
X002497Y010847D01*
X002497Y011632D01*
X002570Y011809D01*
X002706Y011945D01*
X002883Y012018D01*
X003074Y012018D01*
X003251Y011945D01*
X003387Y011809D01*
X003460Y011632D01*
X003460Y010847D01*
X003429Y010771D01*
X006226Y007975D01*
X018114Y007975D01*
X018033Y008055D01*
X018033Y008424D01*
X018219Y008610D01*
X018101Y008728D01*
X018033Y008891D01*
X018033Y009588D01*
X018101Y009752D01*
X018226Y009877D01*
X018390Y009945D01*
X018567Y009945D01*
X018731Y009877D01*
X018856Y009752D01*
X018923Y009588D01*
X018923Y008891D01*
X018856Y008728D01*
X018738Y008610D01*
X018923Y008424D01*
X019034Y008424D01*
X019033Y008424D02*
X019294Y008685D01*
X019591Y008685D01*
X019743Y008837D01*
X019743Y011692D01*
X019743Y011875D01*
X019663Y011795D01*
X019294Y011795D01*
X019213Y011875D01*
X019213Y010387D01*
X019213Y010192D01*
X019076Y010055D01*
X016996Y010055D01*
X017200Y009850D01*
X017226Y009877D01*
X017390Y009945D01*
X017567Y009945D01*
X017731Y009877D01*
X017856Y009752D01*
X017923Y009588D01*
X017923Y008891D01*
X017856Y008728D01*
X017731Y008602D01*
X017567Y008535D01*
X017390Y008535D01*
X017226Y008602D01*
X017101Y008728D01*
X017033Y008891D01*
X017033Y009352D01*
X016631Y009755D01*
X015876Y009755D01*
X015413Y009292D01*
X015276Y009155D01*
X008076Y009155D01*
X007881Y009155D01*
X006575Y010461D01*
X006574Y010461D01*
X006383Y010461D01*
X006206Y010534D01*
X006070Y010670D01*
X005997Y010847D01*
X005997Y011632D01*
X006070Y011809D01*
X006206Y011945D01*
X006383Y012018D01*
X006574Y012018D01*
X006751Y011945D01*
X006887Y011809D01*
X006960Y011632D01*
X006960Y010847D01*
X006929Y010771D01*
X008076Y009625D01*
X010911Y009625D01*
X010075Y010461D01*
X010074Y010461D01*
X009883Y010461D01*
X009706Y010534D01*
X009570Y010670D01*
X009497Y010847D01*
X009497Y011632D01*
X009570Y011809D01*
X009706Y011945D01*
X009883Y012018D01*
X010074Y012018D01*
X010251Y011945D01*
X010387Y011809D01*
X010460Y011632D01*
X010460Y010847D01*
X010429Y010771D01*
X011276Y009925D01*
X014981Y009925D01*
X015581Y010525D01*
X015776Y010525D01*
X018743Y010525D01*
X018743Y011875D01*
X018663Y011795D01*
X018294Y011795D01*
X018033Y012055D01*
X018033Y012424D01*
X018219Y012610D01*
X018101Y012728D01*
X018033Y012891D01*
X018033Y013588D01*
X018101Y013752D01*
X018226Y013877D01*
X018390Y013945D01*
X018567Y013945D01*
X018731Y013877D01*
X018856Y013752D01*
X018923Y013588D01*
X018923Y012891D01*
X018856Y012728D01*
X018738Y012610D01*
X018777Y012570D01*
X018881Y012675D01*
X019381Y013175D01*
X019576Y013175D01*
X019926Y013175D01*
X020063Y013037D01*
X020376Y012725D01*
X020631Y012725D01*
X021033Y013127D01*
X021033Y013588D01*
X021101Y013752D01*
X021226Y013877D01*
X021390Y013945D01*
X021567Y013945D01*
X021731Y013877D01*
X021856Y013752D01*
X021923Y013588D01*
X021923Y012891D01*
X021856Y012728D01*
X021731Y012602D01*
X021567Y012535D01*
X021390Y012535D01*
X021226Y012602D01*
X021200Y012629D01*
X020996Y012425D01*
X023831Y012425D01*
X024531Y013125D01*
X024726Y013125D01*
X025381Y013125D01*
X025561Y013305D01*
X024626Y013305D01*
X024463Y013142D01*
X024423Y013102D01*
X024423Y013055D01*
X024163Y012795D01*
X023794Y012795D01*
X023533Y013055D01*
X023533Y013424D01*
X023794Y013685D01*
X024163Y013685D01*
X024252Y013595D01*
X024431Y013775D01*
X024626Y013775D01*
X029526Y013775D01*
X029663Y013637D01*
X030226Y013075D01*
X030576Y013075D01*
X030713Y012937D01*
X030713Y012742D01*
X030713Y011892D01*
X030576Y011755D01*
X030173Y011352D01*
X030183Y011328D01*
X030183Y011151D01*
X030116Y010988D01*
X029991Y010862D01*
X029827Y010795D01*
X029206Y010795D01*
X029316Y010685D01*
X029827Y010685D01*
X029991Y010617D01*
X030116Y010492D01*
X030123Y010475D01*
X030584Y010475D01*
X030794Y010685D01*
X031163Y010685D01*
X031423Y010424D01*
X031423Y010055D01*
X031163Y009795D01*
X030794Y009795D01*
X030584Y010005D01*
X030123Y010005D01*
X030116Y009988D01*
X029991Y009862D01*
X029827Y009795D01*
X029130Y009795D01*
X028966Y009862D01*
X028841Y009988D01*
X028773Y010151D01*
X028773Y010328D01*
X028841Y010492D01*
X028843Y010493D01*
X027183Y012152D01*
X027183Y012151D01*
X027116Y011988D01*
X026991Y011862D01*
X026827Y011795D01*
X026130Y011795D01*
X026120Y011799D01*
X025963Y011642D01*
X025826Y011505D01*
X025176Y011505D01*
X023923Y010252D01*
X023923Y010055D01*
X023663Y009795D01*
X023294Y009795D01*
X023033Y010055D01*
X023033Y010424D01*
X023294Y010685D01*
X023663Y010685D01*
X023677Y010670D01*
X024981Y011975D01*
X025176Y011975D01*
X025631Y011975D01*
X025784Y012127D01*
X025773Y012151D01*
X025773Y012328D01*
X025841Y012492D01*
X025966Y012617D01*
X026130Y012685D01*
X026651Y012685D01*
X026631Y012705D01*
X026026Y012705D01*
X025676Y012355D01*
X025481Y012355D01*
X025326Y012355D01*
X024526Y011555D01*
X024331Y011555D01*
X020213Y011555D01*
X020213Y008642D01*
X020076Y008505D01*
X019923Y008352D01*
X019923Y008055D01*
X019843Y007975D01*
X019881Y007975D01*
X021033Y009127D01*
X021033Y009588D01*
X021101Y009752D01*
X021226Y009877D01*
X021390Y009945D01*
X021567Y009945D01*
X021731Y009877D01*
X021856Y009752D01*
X021923Y009588D01*
X021923Y008891D01*
X021856Y008728D01*
X021731Y008602D01*
X021567Y008535D01*
X021390Y008535D01*
X021226Y008602D01*
X021200Y008629D01*
X020213Y007642D01*
X020076Y007505D01*
X019843Y007505D01*
X019873Y007475D01*
X021576Y007475D01*
X021713Y007337D01*
X022026Y007025D01*
X022064Y007025D01*
X022033Y007055D01*
X022033Y007424D01*
X022294Y007685D01*
X022591Y007685D01*
X024043Y009137D01*
X024043Y009992D01*
X024043Y010187D01*
X024181Y010325D01*
X024231Y010325D01*
X025243Y011337D01*
X025008Y011337D01*
X025056Y011385D02*
X025292Y011385D01*
X025243Y011337D02*
X025381Y011475D01*
X025834Y011475D01*
X025841Y011492D01*
X025966Y011617D01*
X026130Y011685D01*
X026827Y011685D01*
X026991Y011617D01*
X027116Y011492D01*
X027183Y011328D01*
X027183Y011151D01*
X027116Y010988D01*
X026991Y010862D01*
X026827Y010795D01*
X026130Y010795D01*
X025966Y010862D01*
X025841Y010988D01*
X025834Y011005D01*
X025576Y011005D01*
X024513Y009942D01*
X024513Y008942D01*
X024376Y008805D01*
X022923Y007352D01*
X022923Y007055D01*
X022738Y006870D01*
X022757Y006850D01*
X023033Y007127D01*
X023033Y007424D01*
X023294Y007685D01*
X023663Y007685D01*
X023923Y007424D01*
X023923Y007055D01*
X023663Y006795D01*
X023366Y006795D01*
X022923Y006352D01*
X022923Y005891D01*
X022856Y005728D01*
X022731Y005602D01*
X022567Y005535D01*
X022566Y005535D01*
X022576Y005525D01*
X024181Y005525D01*
X025784Y007127D01*
X025773Y007151D01*
X025773Y007328D01*
X025841Y007492D01*
X025966Y007617D01*
X026130Y007685D01*
X026827Y007685D01*
X026991Y007617D01*
X027116Y007492D01*
X027183Y007328D01*
X027183Y007151D01*
X027116Y006988D01*
X026991Y006862D01*
X026827Y006795D01*
X026130Y006795D01*
X026120Y006799D01*
X024546Y005225D01*
X024881Y005225D01*
X025784Y006127D01*
X025773Y006151D01*
X025773Y006328D01*
X025841Y006492D01*
X025966Y006617D01*
X026130Y006685D01*
X026827Y006685D01*
X026991Y006617D01*
X027116Y006492D01*
X027183Y006328D01*
X027183Y006151D01*
X027116Y005988D01*
X026991Y005862D01*
X026827Y005795D01*
X026130Y005795D01*
X026120Y005799D01*
X025076Y004755D01*
X024881Y004755D01*
X020326Y004755D01*
X019923Y004352D01*
X019593Y004686D02*
X015460Y004686D01*
X015460Y004638D02*
X018247Y004638D01*
X018294Y004685D02*
X018663Y004685D01*
X018923Y004424D01*
X018923Y004055D01*
X019034Y004055D01*
X019033Y004104D02*
X018923Y004104D01*
X018923Y004152D02*
X019033Y004152D01*
X019033Y004201D02*
X018923Y004201D01*
X018923Y004249D02*
X019033Y004249D01*
X019033Y004298D02*
X018923Y004298D01*
X018923Y004346D02*
X019033Y004346D01*
X019033Y004395D02*
X018923Y004395D01*
X018904Y004444D02*
X019053Y004444D01*
X019102Y004492D02*
X018855Y004492D01*
X018807Y004541D02*
X019150Y004541D01*
X019199Y004589D02*
X018758Y004589D01*
X018710Y004638D02*
X019247Y004638D01*
X019641Y004735D02*
X015460Y004735D01*
X015460Y004783D02*
X019690Y004783D01*
X019738Y004832D02*
X015460Y004832D01*
X015460Y004880D02*
X019787Y004880D01*
X019835Y004929D02*
X015460Y004929D01*
X015460Y004978D02*
X019884Y004978D01*
X019933Y005026D02*
X015460Y005026D01*
X015460Y005075D02*
X015661Y005075D01*
X015613Y005123D02*
X015460Y005123D01*
X015444Y005172D02*
X015564Y005172D01*
X015516Y005220D02*
X015424Y005220D01*
X015404Y005269D02*
X015467Y005269D01*
X015418Y005317D02*
X015379Y005317D01*
X015370Y005366D02*
X015331Y005366D01*
X015321Y005414D02*
X015282Y005414D01*
X015273Y005463D02*
X015208Y005463D01*
X015224Y005511D02*
X015091Y005511D01*
X014866Y005511D02*
X014733Y005511D01*
X014749Y005463D02*
X014684Y005463D01*
X014675Y005414D02*
X014636Y005414D01*
X014626Y005366D02*
X014587Y005366D01*
X014578Y005317D02*
X014538Y005317D01*
X014553Y005269D02*
X014490Y005269D01*
X014533Y005220D02*
X014441Y005220D01*
X014444Y005172D02*
X014513Y005172D01*
X014497Y005123D02*
X014460Y005123D01*
X014460Y005075D02*
X014497Y005075D01*
X014497Y005026D02*
X014460Y005026D01*
X014460Y004978D02*
X014497Y004978D01*
X014497Y004929D02*
X014460Y004929D01*
X014460Y004880D02*
X014497Y004880D01*
X014497Y004832D02*
X014460Y004832D01*
X014460Y004783D02*
X014497Y004783D01*
X014497Y004735D02*
X014460Y004735D01*
X014460Y004686D02*
X014497Y004686D01*
X014497Y004638D02*
X014460Y004638D01*
X014460Y004589D02*
X014497Y004589D01*
X014497Y004541D02*
X014460Y004541D01*
X014460Y004492D02*
X014497Y004492D01*
X014497Y004444D02*
X014460Y004444D01*
X014460Y004395D02*
X014497Y004395D01*
X014497Y004346D02*
X014460Y004346D01*
X014440Y004298D02*
X014517Y004298D01*
X014506Y004249D02*
X014420Y004249D01*
X014400Y004201D02*
X014457Y004201D01*
X014409Y004152D02*
X014369Y004152D01*
X014360Y004104D02*
X014321Y004104D01*
X014312Y004055D02*
X014272Y004055D01*
X014263Y004007D02*
X014185Y004007D01*
X014215Y003958D02*
X013042Y003958D01*
X012994Y004007D02*
X013772Y004007D01*
X013685Y004055D02*
X012945Y004055D01*
X012897Y004104D02*
X013636Y004104D01*
X013588Y004152D02*
X012848Y004152D01*
X012800Y004201D02*
X013557Y004201D01*
X013537Y004249D02*
X012751Y004249D01*
X012703Y004298D02*
X013517Y004298D01*
X013497Y004346D02*
X012654Y004346D01*
X012605Y004395D02*
X013497Y004395D01*
X013497Y004444D02*
X012557Y004444D01*
X012508Y004492D02*
X013497Y004492D01*
X013497Y004541D02*
X012460Y004541D01*
X012411Y004589D02*
X013497Y004589D01*
X013497Y004638D02*
X012363Y004638D01*
X012314Y004686D02*
X013497Y004686D01*
X013497Y004735D02*
X012266Y004735D01*
X012217Y004783D02*
X013497Y004783D01*
X013497Y004832D02*
X012169Y004832D01*
X012120Y004880D02*
X013497Y004880D01*
X013497Y004929D02*
X012071Y004929D01*
X011960Y004978D02*
X013497Y004978D01*
X013497Y005026D02*
X011960Y005026D01*
X011960Y005075D02*
X013497Y005075D01*
X013497Y005123D02*
X011960Y005123D01*
X011944Y005172D02*
X013513Y005172D01*
X013533Y005220D02*
X011924Y005220D01*
X011904Y005269D02*
X013553Y005269D01*
X013578Y005317D02*
X011879Y005317D01*
X011831Y005366D02*
X013626Y005366D01*
X013675Y005414D02*
X011782Y005414D01*
X011708Y005463D02*
X013749Y005463D01*
X013866Y005511D02*
X011591Y005511D01*
X011366Y005511D02*
X011233Y005511D01*
X011249Y005463D02*
X011184Y005463D01*
X011175Y005414D02*
X011136Y005414D01*
X011126Y005366D02*
X011087Y005366D01*
X011078Y005317D02*
X011038Y005317D01*
X011053Y005269D02*
X010990Y005269D01*
X011033Y005220D02*
X010941Y005220D01*
X010929Y005208D02*
X010960Y005132D01*
X010960Y004347D01*
X010887Y004170D01*
X010751Y004034D01*
X010574Y003961D01*
X010383Y003961D01*
X010206Y004034D01*
X010070Y004170D01*
X009997Y004347D01*
X009997Y005132D01*
X010070Y005309D01*
X010206Y005445D01*
X010383Y005518D01*
X010574Y005518D01*
X010575Y005518D01*
X012281Y007225D01*
X012476Y007225D01*
X016826Y007225D01*
X016963Y007087D01*
X017200Y006850D01*
X017226Y006877D01*
X017390Y006945D01*
X017567Y006945D01*
X017731Y006877D01*
X017856Y006752D01*
X017923Y006588D01*
X017923Y005891D01*
X017856Y005728D01*
X017731Y005602D01*
X017567Y005535D01*
X017390Y005535D01*
X017226Y005602D01*
X017101Y005728D01*
X017033Y005891D01*
X017033Y006352D01*
X016631Y006755D01*
X012476Y006755D01*
X010929Y005208D01*
X010944Y005172D02*
X011013Y005172D01*
X010997Y005123D02*
X010960Y005123D01*
X010960Y005075D02*
X010997Y005075D01*
X010997Y005026D02*
X010960Y005026D01*
X010960Y004978D02*
X010997Y004978D01*
X010997Y004929D02*
X010960Y004929D01*
X010960Y004880D02*
X010997Y004880D01*
X010997Y004832D02*
X010960Y004832D01*
X010960Y004783D02*
X010997Y004783D01*
X010997Y004735D02*
X010960Y004735D01*
X010960Y004686D02*
X010997Y004686D01*
X010997Y004638D02*
X010960Y004638D01*
X010960Y004589D02*
X010997Y004589D01*
X010997Y004541D02*
X010960Y004541D01*
X010960Y004492D02*
X010997Y004492D01*
X010997Y004444D02*
X010960Y004444D01*
X010960Y004395D02*
X010997Y004395D01*
X010997Y004346D02*
X010960Y004346D01*
X010940Y004298D02*
X011017Y004298D01*
X011006Y004249D02*
X010920Y004249D01*
X010900Y004201D02*
X010957Y004201D01*
X010909Y004152D02*
X010869Y004152D01*
X010860Y004104D02*
X010821Y004104D01*
X010812Y004055D02*
X010772Y004055D01*
X010763Y004007D02*
X010685Y004007D01*
X010715Y003958D02*
X009542Y003958D01*
X009494Y004007D02*
X010272Y004007D01*
X010185Y004055D02*
X009445Y004055D01*
X009397Y004104D02*
X010136Y004104D01*
X010088Y004152D02*
X009348Y004152D01*
X009300Y004201D02*
X010057Y004201D01*
X010037Y004249D02*
X009251Y004249D01*
X009203Y004298D02*
X010017Y004298D01*
X009997Y004346D02*
X009154Y004346D01*
X009105Y004395D02*
X009997Y004395D01*
X009997Y004444D02*
X009057Y004444D01*
X009008Y004492D02*
X009997Y004492D01*
X009997Y004541D02*
X008960Y004541D01*
X008911Y004589D02*
X009997Y004589D01*
X009997Y004638D02*
X008863Y004638D01*
X008814Y004686D02*
X009997Y004686D01*
X009997Y004735D02*
X008766Y004735D01*
X008717Y004783D02*
X009997Y004783D01*
X009997Y004832D02*
X008669Y004832D01*
X008620Y004880D02*
X009997Y004880D01*
X009997Y004929D02*
X008571Y004929D01*
X008460Y004978D02*
X009997Y004978D01*
X009997Y005026D02*
X008460Y005026D01*
X008460Y005075D02*
X009997Y005075D01*
X009997Y005123D02*
X008460Y005123D01*
X008444Y005172D02*
X010013Y005172D01*
X010033Y005220D02*
X008424Y005220D01*
X008404Y005269D02*
X010053Y005269D01*
X010078Y005317D02*
X008379Y005317D01*
X008331Y005366D02*
X010126Y005366D01*
X010175Y005414D02*
X008282Y005414D01*
X008208Y005463D02*
X010249Y005463D01*
X010366Y005511D02*
X008091Y005511D01*
X007840Y005560D02*
X010616Y005560D01*
X010665Y005609D02*
X007792Y005609D01*
X007743Y005657D02*
X010714Y005657D01*
X010762Y005706D02*
X007695Y005706D01*
X007646Y005754D02*
X010811Y005754D01*
X010859Y005803D02*
X007598Y005803D01*
X007549Y005851D02*
X010908Y005851D01*
X010956Y005900D02*
X007501Y005900D01*
X007452Y005948D02*
X011005Y005948D01*
X011053Y005997D02*
X007403Y005997D01*
X007224Y005511D02*
X007091Y005511D01*
X007208Y005463D02*
X007273Y005463D01*
X007282Y005414D02*
X007321Y005414D01*
X007331Y005366D02*
X007370Y005366D01*
X007379Y005317D02*
X007419Y005317D01*
X007404Y005269D02*
X007467Y005269D01*
X007424Y005220D02*
X007516Y005220D01*
X007513Y005172D02*
X007444Y005172D01*
X007460Y005123D02*
X007497Y005123D01*
X007497Y005075D02*
X007460Y005075D01*
X007460Y005026D02*
X007497Y005026D01*
X007497Y004978D02*
X007460Y004978D01*
X007460Y004929D02*
X007497Y004929D01*
X007497Y004880D02*
X007460Y004880D01*
X007460Y004832D02*
X007497Y004832D01*
X007497Y004783D02*
X007460Y004783D01*
X007460Y004735D02*
X007497Y004735D01*
X007497Y004686D02*
X007460Y004686D01*
X007460Y004638D02*
X007497Y004638D01*
X007497Y004589D02*
X007460Y004589D01*
X007460Y004541D02*
X007497Y004541D01*
X007497Y004492D02*
X007460Y004492D01*
X007460Y004444D02*
X007497Y004444D01*
X007497Y004395D02*
X007460Y004395D01*
X007460Y004346D02*
X007497Y004346D01*
X007517Y004298D02*
X007440Y004298D01*
X007451Y004249D02*
X007537Y004249D01*
X007557Y004201D02*
X007500Y004201D01*
X007548Y004152D02*
X007588Y004152D01*
X007597Y004104D02*
X007636Y004104D01*
X007645Y004055D02*
X007685Y004055D01*
X007694Y004007D02*
X007772Y004007D01*
X007742Y003958D02*
X008878Y003958D01*
X008926Y003910D02*
X007791Y003910D01*
X007839Y003861D02*
X008975Y003861D01*
X009023Y003812D02*
X007888Y003812D01*
X007936Y003764D02*
X009072Y003764D01*
X009120Y003715D02*
X007985Y003715D01*
X008034Y003667D02*
X009169Y003667D01*
X009218Y003618D02*
X008082Y003618D01*
X008131Y003570D02*
X009266Y003570D01*
X009315Y003521D02*
X008179Y003521D01*
X008228Y003473D02*
X009363Y003473D01*
X008616Y003084D02*
X016991Y003084D01*
X017033Y003133D02*
X008568Y003133D01*
X008519Y003181D02*
X017033Y003181D01*
X017033Y003230D02*
X008470Y003230D01*
X008422Y003279D02*
X017033Y003279D01*
X017033Y003327D02*
X008373Y003327D01*
X008325Y003376D02*
X017033Y003376D01*
X017033Y003424D02*
X008276Y003424D01*
X008665Y003036D02*
X016942Y003036D01*
X016894Y002987D02*
X008713Y002987D01*
X008762Y002939D02*
X016845Y002939D01*
X016797Y002890D02*
X008810Y002890D01*
X008859Y002842D02*
X016748Y002842D01*
X016700Y002793D02*
X008907Y002793D01*
X008956Y002745D02*
X016651Y002745D01*
X017073Y002502D02*
X020408Y002502D01*
X020360Y002453D02*
X017024Y002453D01*
X017121Y002550D02*
X017352Y002550D01*
X017235Y002599D02*
X017170Y002599D01*
X017605Y002550D02*
X018352Y002550D01*
X018390Y002535D02*
X018226Y002602D01*
X018101Y002728D01*
X018033Y002891D01*
X018033Y003588D01*
X018101Y003752D01*
X018219Y003870D01*
X018033Y004055D01*
X018033Y004424D01*
X018294Y004685D01*
X018199Y004589D02*
X015460Y004589D01*
X015460Y004541D02*
X018150Y004541D01*
X018102Y004492D02*
X015460Y004492D01*
X015460Y004444D02*
X018053Y004444D01*
X018033Y004395D02*
X015460Y004395D01*
X015460Y004346D02*
X018033Y004346D01*
X018033Y004298D02*
X015440Y004298D01*
X015420Y004249D02*
X018033Y004249D01*
X018033Y004201D02*
X015400Y004201D01*
X015369Y004152D02*
X018033Y004152D01*
X018033Y004104D02*
X015321Y004104D01*
X015272Y004055D02*
X018034Y004055D01*
X018082Y004007D02*
X015185Y004007D01*
X014879Y003958D02*
X018131Y003958D01*
X018179Y003910D02*
X017652Y003910D01*
X017746Y003861D02*
X018211Y003861D01*
X018162Y003812D02*
X017795Y003812D01*
X017843Y003764D02*
X018113Y003764D01*
X018086Y003715D02*
X017871Y003715D01*
X017891Y003667D02*
X018066Y003667D01*
X018046Y003618D02*
X017911Y003618D01*
X017923Y003570D02*
X018033Y003570D01*
X018033Y003521D02*
X017923Y003521D01*
X017923Y003473D02*
X018033Y003473D01*
X018033Y003424D02*
X017923Y003424D01*
X017923Y003376D02*
X018033Y003376D01*
X018033Y003327D02*
X017923Y003327D01*
X017923Y003279D02*
X018033Y003279D01*
X018033Y003230D02*
X017923Y003230D01*
X017923Y003181D02*
X018033Y003181D01*
X018033Y003133D02*
X017923Y003133D01*
X017923Y003084D02*
X018033Y003084D01*
X018033Y003036D02*
X017923Y003036D01*
X017923Y002987D02*
X018033Y002987D01*
X018033Y002939D02*
X017923Y002939D01*
X017923Y002890D02*
X018034Y002890D01*
X018054Y002842D02*
X017903Y002842D01*
X017883Y002793D02*
X018074Y002793D01*
X018094Y002745D02*
X017863Y002745D01*
X017824Y002696D02*
X018133Y002696D01*
X018181Y002647D02*
X017776Y002647D01*
X017722Y002599D02*
X018235Y002599D01*
X018390Y002535D02*
X018567Y002535D01*
X018731Y002602D01*
X018856Y002728D01*
X018923Y002891D01*
X018923Y003588D01*
X018856Y003752D01*
X018738Y003870D01*
X018923Y004055D01*
X018875Y004007D02*
X019082Y004007D01*
X019131Y003958D02*
X018826Y003958D01*
X018778Y003910D02*
X019179Y003910D01*
X019228Y003861D02*
X018746Y003861D01*
X018795Y003812D02*
X019276Y003812D01*
X019681Y003812D02*
X021162Y003812D01*
X021113Y003764D02*
X018843Y003764D01*
X018871Y003715D02*
X021086Y003715D01*
X021066Y003667D02*
X018891Y003667D01*
X018911Y003618D02*
X021046Y003618D01*
X021033Y003570D02*
X018923Y003570D01*
X018923Y003521D02*
X021033Y003521D01*
X021033Y003473D02*
X018923Y003473D01*
X018923Y003424D02*
X021033Y003424D01*
X021033Y003376D02*
X018923Y003376D01*
X018923Y003327D02*
X021033Y003327D01*
X021033Y003279D02*
X018923Y003279D01*
X018923Y003230D02*
X021033Y003230D01*
X021033Y003181D02*
X018923Y003181D01*
X018923Y003133D02*
X021033Y003133D01*
X020991Y003084D02*
X018923Y003084D01*
X018923Y003036D02*
X020942Y003036D01*
X020894Y002987D02*
X018923Y002987D01*
X018923Y002939D02*
X020845Y002939D01*
X020797Y002890D02*
X018923Y002890D01*
X018903Y002842D02*
X020748Y002842D01*
X020700Y002793D02*
X018883Y002793D01*
X018863Y002745D02*
X020651Y002745D01*
X020602Y002696D02*
X018824Y002696D01*
X018776Y002647D02*
X020554Y002647D01*
X020505Y002599D02*
X018722Y002599D01*
X018605Y002550D02*
X020457Y002550D01*
X021121Y002550D02*
X021352Y002550D01*
X021235Y002599D02*
X021170Y002599D01*
X021605Y002550D02*
X022352Y002550D01*
X022235Y002599D02*
X021722Y002599D01*
X021776Y002647D02*
X022181Y002647D01*
X022133Y002696D02*
X021824Y002696D01*
X021863Y002745D02*
X022094Y002745D01*
X022074Y002793D02*
X021883Y002793D01*
X021903Y002842D02*
X022054Y002842D01*
X022034Y002890D02*
X021923Y002890D01*
X021923Y002939D02*
X022033Y002939D01*
X022033Y002987D02*
X021923Y002987D01*
X021923Y003036D02*
X022033Y003036D01*
X022033Y003084D02*
X021923Y003084D01*
X021923Y003133D02*
X022033Y003133D01*
X022033Y003181D02*
X021923Y003181D01*
X021923Y003230D02*
X022033Y003230D01*
X022033Y003279D02*
X021923Y003279D01*
X021923Y003327D02*
X022033Y003327D01*
X022033Y003376D02*
X021923Y003376D01*
X021923Y003424D02*
X022033Y003424D01*
X022033Y003473D02*
X021923Y003473D01*
X021923Y003521D02*
X022033Y003521D01*
X022033Y003570D02*
X021923Y003570D01*
X021911Y003618D02*
X022046Y003618D01*
X022066Y003667D02*
X021891Y003667D01*
X021871Y003715D02*
X022086Y003715D01*
X022113Y003764D02*
X021843Y003764D01*
X021795Y003812D02*
X022162Y003812D01*
X022211Y003861D02*
X021746Y003861D01*
X021652Y003910D02*
X022179Y003910D01*
X022131Y003958D02*
X019826Y003958D01*
X019778Y003910D02*
X021305Y003910D01*
X021211Y003861D02*
X019729Y003861D01*
X020306Y004735D02*
X025391Y004735D01*
X025440Y004783D02*
X025104Y004783D01*
X025153Y004832D02*
X025488Y004832D01*
X025537Y004880D02*
X025202Y004880D01*
X025250Y004929D02*
X025585Y004929D01*
X025634Y004978D02*
X025299Y004978D01*
X025347Y005026D02*
X025683Y005026D01*
X025731Y005075D02*
X025396Y005075D01*
X025444Y005123D02*
X025780Y005123D01*
X025773Y005172D02*
X025493Y005172D01*
X025541Y005220D02*
X025773Y005220D01*
X025773Y005269D02*
X025590Y005269D01*
X025638Y005317D02*
X025773Y005317D01*
X025789Y005366D02*
X025687Y005366D01*
X025736Y005414D02*
X025809Y005414D01*
X025829Y005463D02*
X025784Y005463D01*
X025833Y005511D02*
X025861Y005511D01*
X025881Y005560D02*
X025910Y005560D01*
X025930Y005609D02*
X025958Y005609D01*
X025978Y005657D02*
X026063Y005657D01*
X026027Y005706D02*
X027793Y005706D01*
X027793Y005657D02*
X026893Y005657D01*
X026999Y005609D02*
X027827Y005609D01*
X027876Y005560D02*
X027047Y005560D01*
X027096Y005511D02*
X027924Y005511D01*
X027973Y005463D02*
X027128Y005463D01*
X027148Y005414D02*
X028021Y005414D01*
X027972Y005366D02*
X027168Y005366D01*
X027183Y005317D02*
X027924Y005317D01*
X027893Y005269D02*
X027183Y005269D01*
X027183Y005220D02*
X027893Y005220D01*
X027893Y005172D02*
X027183Y005172D01*
X027172Y005123D02*
X027893Y005123D01*
X027893Y005075D02*
X027152Y005075D01*
X027132Y005026D02*
X027893Y005026D01*
X027893Y004978D02*
X027106Y004978D01*
X027057Y004929D02*
X027893Y004929D01*
X027893Y004880D02*
X027009Y004880D01*
X026917Y004832D02*
X027893Y004832D01*
X027893Y004783D02*
X026104Y004783D01*
X026056Y004735D02*
X027893Y004735D01*
X027893Y004686D02*
X026007Y004686D01*
X026017Y004638D02*
X025959Y004638D01*
X025939Y004589D02*
X025910Y004589D01*
X025890Y004541D02*
X025862Y004541D01*
X025842Y004492D02*
X025813Y004492D01*
X025821Y004444D02*
X025765Y004444D01*
X025801Y004395D02*
X025716Y004395D01*
X025668Y004346D02*
X025781Y004346D01*
X025773Y004298D02*
X025619Y004298D01*
X025570Y004249D02*
X025773Y004249D01*
X025773Y004201D02*
X025522Y004201D01*
X025473Y004152D02*
X025773Y004152D01*
X025793Y004104D02*
X023923Y004104D01*
X023826Y003958D02*
X025865Y003958D01*
X025816Y003910D02*
X023778Y003910D01*
X023729Y003861D02*
X025767Y003861D01*
X026286Y003715D02*
X027893Y003715D01*
X027893Y003667D02*
X027181Y003667D01*
X027229Y003618D02*
X027893Y003618D01*
X027893Y003570D02*
X027278Y003570D01*
X027326Y003521D02*
X027893Y003521D01*
X027893Y003473D02*
X027375Y003473D01*
X027893Y003764D02*
X026335Y003764D01*
X026276Y003667D02*
X026238Y003667D01*
X026228Y003618D02*
X026189Y003618D01*
X026179Y003570D02*
X026141Y003570D01*
X026131Y003521D02*
X026092Y003521D01*
X026082Y003473D02*
X026044Y003473D01*
X026034Y003424D02*
X026013Y003424D01*
X026013Y003376D02*
X026033Y003376D01*
X026033Y003327D02*
X026013Y003327D01*
X026013Y003279D02*
X026033Y003279D01*
X026033Y003230D02*
X026013Y003230D01*
X026013Y003181D02*
X026033Y003181D01*
X026033Y003133D02*
X026013Y003133D01*
X026013Y003084D02*
X026033Y003084D01*
X026053Y003036D02*
X026013Y003036D01*
X026013Y002987D02*
X026102Y002987D01*
X026150Y002939D02*
X026013Y002939D01*
X026013Y002890D02*
X026199Y002890D01*
X026247Y002842D02*
X026013Y002842D01*
X026013Y002793D02*
X028093Y002793D01*
X028141Y002745D02*
X026013Y002745D01*
X026013Y002696D02*
X028190Y002696D01*
X028238Y002647D02*
X027200Y002647D01*
X027249Y002599D02*
X028287Y002599D01*
X028335Y002550D02*
X027297Y002550D01*
X027346Y002502D02*
X028384Y002502D01*
X028433Y002453D02*
X027394Y002453D01*
X027423Y002405D02*
X028481Y002405D01*
X028530Y002356D02*
X028194Y002356D01*
X028243Y002308D02*
X028533Y002308D01*
X028533Y002259D02*
X028291Y002259D01*
X028340Y002211D02*
X028533Y002211D01*
X028533Y002162D02*
X028388Y002162D01*
X028437Y002113D02*
X028533Y002113D01*
X028533Y002065D02*
X028486Y002065D01*
X028534Y002016D02*
X028572Y002016D01*
X028583Y001968D02*
X028621Y001968D01*
X028631Y001919D02*
X028670Y001919D01*
X028680Y001871D02*
X028718Y001871D01*
X028728Y001822D02*
X028767Y001822D01*
X029190Y001822D02*
X029267Y001822D01*
X029690Y001822D02*
X029729Y001822D01*
X029739Y001871D02*
X029777Y001871D01*
X029787Y001919D02*
X029826Y001919D01*
X029836Y001968D02*
X029874Y001968D01*
X029884Y002016D02*
X033943Y002016D01*
X033943Y002065D02*
X029923Y002065D01*
X029923Y002113D02*
X033943Y002113D01*
X033943Y002162D02*
X029923Y002162D01*
X029923Y002211D02*
X033943Y002211D01*
X033943Y002259D02*
X029923Y002259D01*
X029923Y002308D02*
X033943Y002308D01*
X033943Y002356D02*
X029923Y002356D01*
X029923Y002405D02*
X033943Y002405D01*
X033943Y002453D02*
X029894Y002453D01*
X029846Y002502D02*
X033943Y002502D01*
X033943Y002550D02*
X029797Y002550D01*
X029749Y002599D02*
X029887Y002599D01*
X029838Y002647D02*
X029700Y002647D01*
X029790Y002696D02*
X028854Y002696D01*
X028806Y002745D02*
X029741Y002745D01*
X029693Y002793D02*
X028757Y002793D01*
X028747Y002842D02*
X028709Y002842D01*
X028699Y002890D02*
X028660Y002890D01*
X028650Y002939D02*
X028612Y002939D01*
X028602Y002987D02*
X028563Y002987D01*
X028553Y003036D02*
X028515Y003036D01*
X028533Y003084D02*
X028466Y003084D01*
X028418Y003133D02*
X028533Y003133D01*
X028533Y003181D02*
X028369Y003181D01*
X028363Y003230D02*
X028533Y003230D01*
X028533Y003279D02*
X028363Y003279D01*
X028363Y003327D02*
X028533Y003327D01*
X028533Y003376D02*
X028363Y003376D01*
X028363Y003424D02*
X028534Y003424D01*
X028582Y003473D02*
X028363Y003473D01*
X028363Y003521D02*
X028631Y003521D01*
X028679Y003570D02*
X028363Y003570D01*
X028363Y003618D02*
X028728Y003618D01*
X028776Y003667D02*
X028363Y003667D01*
X028363Y003715D02*
X029243Y003715D01*
X029243Y003667D02*
X029181Y003667D01*
X029243Y003764D02*
X028363Y003764D01*
X028363Y003812D02*
X029087Y003812D01*
X028970Y003861D02*
X028363Y003861D01*
X028363Y003910D02*
X028919Y003910D01*
X028871Y003958D02*
X028363Y003958D01*
X028363Y004007D02*
X028833Y004007D01*
X028813Y004055D02*
X028363Y004055D01*
X028363Y004104D02*
X028793Y004104D01*
X028773Y004152D02*
X028363Y004152D01*
X028363Y004201D02*
X028773Y004201D01*
X028773Y004249D02*
X028363Y004249D01*
X028363Y004298D02*
X028773Y004298D01*
X028781Y004346D02*
X028363Y004346D01*
X028363Y004395D02*
X028801Y004395D01*
X028821Y004444D02*
X028363Y004444D01*
X028363Y004492D02*
X028842Y004492D01*
X028890Y004541D02*
X028363Y004541D01*
X028363Y004589D02*
X028847Y004589D01*
X028798Y004638D02*
X028363Y004638D01*
X028363Y004686D02*
X028750Y004686D01*
X028701Y004735D02*
X028363Y004735D01*
X028363Y004783D02*
X028652Y004783D01*
X028604Y004832D02*
X028363Y004832D01*
X028363Y004880D02*
X028555Y004880D01*
X028507Y004929D02*
X028363Y004929D01*
X027893Y004638D02*
X026940Y004638D01*
X027018Y004589D02*
X027893Y004589D01*
X027893Y004541D02*
X027067Y004541D01*
X027115Y004492D02*
X027893Y004492D01*
X027893Y004444D02*
X027136Y004444D01*
X027156Y004395D02*
X027893Y004395D01*
X027893Y004346D02*
X027176Y004346D01*
X027183Y004298D02*
X027893Y004298D01*
X027893Y004249D02*
X027183Y004249D01*
X027183Y004201D02*
X027893Y004201D01*
X027893Y004152D02*
X027183Y004152D01*
X027164Y004104D02*
X027893Y004104D01*
X027893Y004055D02*
X027144Y004055D01*
X027124Y004007D02*
X027893Y004007D01*
X027893Y003958D02*
X027086Y003958D01*
X027038Y003910D02*
X027893Y003910D01*
X027893Y003861D02*
X026987Y003861D01*
X026870Y003812D02*
X027893Y003812D01*
X026776Y003667D02*
X026681Y003667D01*
X026710Y002842D02*
X026747Y002842D01*
X026757Y002647D02*
X026700Y002647D01*
X026257Y002647D02*
X026013Y002647D01*
X026013Y002599D02*
X026208Y002599D01*
X027210Y002842D02*
X028044Y002842D01*
X027996Y002890D02*
X027258Y002890D01*
X029210Y002842D02*
X029247Y002842D01*
X029257Y002647D02*
X029200Y002647D01*
X028015Y001871D02*
X027239Y001871D01*
X027190Y001822D02*
X028064Y001822D01*
X028112Y001774D02*
X001796Y001774D01*
X001741Y001725D02*
X028161Y001725D01*
X028209Y001677D02*
X001624Y001677D01*
X001507Y001628D02*
X028258Y001628D01*
X026767Y001822D02*
X026690Y001822D01*
X030054Y001482D02*
X039253Y001482D01*
X039253Y001531D02*
X034302Y001531D01*
X034351Y001579D02*
X039253Y001579D01*
X039253Y001628D02*
X038515Y001628D01*
X038460Y001605D02*
X038135Y001605D01*
X037835Y001729D01*
X037606Y001959D01*
X037482Y002259D01*
X034413Y002259D01*
X034413Y002211D02*
X037502Y002211D01*
X037482Y002259D02*
X037482Y002583D01*
X037606Y002883D01*
X037835Y003112D01*
X038135Y003236D01*
X038460Y003236D01*
X038759Y003112D01*
X038989Y002883D01*
X039113Y002583D01*
X039113Y002259D01*
X039253Y002259D01*
X039253Y002211D02*
X039093Y002211D01*
X039113Y002259D02*
X038989Y001959D01*
X038759Y001729D01*
X038460Y001605D01*
X038632Y001677D02*
X039253Y001677D01*
X039253Y001725D02*
X038749Y001725D01*
X038804Y001774D02*
X039253Y001774D01*
X039253Y001822D02*
X038852Y001822D01*
X038901Y001871D02*
X039253Y001871D01*
X039253Y001919D02*
X038949Y001919D01*
X038992Y001968D02*
X039253Y001968D01*
X039253Y002016D02*
X039013Y002016D01*
X039033Y002065D02*
X039253Y002065D01*
X039253Y002113D02*
X039053Y002113D01*
X039073Y002162D02*
X039253Y002162D01*
X039253Y002308D02*
X039113Y002308D01*
X039113Y002356D02*
X039253Y002356D01*
X039253Y002405D02*
X039113Y002405D01*
X039113Y002453D02*
X039253Y002453D01*
X039253Y002502D02*
X039113Y002502D01*
X039113Y002550D02*
X039253Y002550D01*
X039253Y002599D02*
X039106Y002599D01*
X039086Y002647D02*
X039253Y002647D01*
X039253Y002696D02*
X039066Y002696D01*
X039046Y002745D02*
X039253Y002745D01*
X039253Y002793D02*
X039026Y002793D01*
X039006Y002842D02*
X039253Y002842D01*
X039253Y002890D02*
X038981Y002890D01*
X038933Y002939D02*
X039253Y002939D01*
X039253Y002987D02*
X038884Y002987D01*
X038836Y003036D02*
X039253Y003036D01*
X039253Y003084D02*
X038787Y003084D01*
X038709Y003133D02*
X039253Y003133D01*
X039253Y003181D02*
X038592Y003181D01*
X038475Y003230D02*
X039253Y003230D01*
X039253Y003279D02*
X037301Y003279D01*
X037349Y003327D02*
X039253Y003327D01*
X039253Y003376D02*
X037398Y003376D01*
X037446Y003424D02*
X039253Y003424D01*
X039253Y003473D02*
X037483Y003473D01*
X037504Y003521D02*
X039253Y003521D01*
X039253Y003570D02*
X037524Y003570D01*
X037544Y003618D02*
X039253Y003618D01*
X039253Y003667D02*
X037564Y003667D01*
X037581Y003715D02*
X039253Y003715D01*
X039253Y003764D02*
X037581Y003764D01*
X037581Y003812D02*
X039253Y003812D01*
X039253Y003861D02*
X037581Y003861D01*
X037581Y003910D02*
X039253Y003910D01*
X039253Y003958D02*
X037581Y003958D01*
X037573Y004007D02*
X039253Y004007D01*
X039253Y004055D02*
X037553Y004055D01*
X037533Y004104D02*
X039253Y004104D01*
X039253Y004152D02*
X037513Y004152D01*
X037493Y004201D02*
X039253Y004201D01*
X039253Y004249D02*
X037469Y004249D01*
X037420Y004298D02*
X039253Y004298D01*
X039253Y004346D02*
X037372Y004346D01*
X037323Y004395D02*
X039253Y004395D01*
X039253Y004444D02*
X037268Y004444D01*
X037151Y004492D02*
X039253Y004492D01*
X039253Y004541D02*
X037034Y004541D01*
X036734Y004541D02*
X035213Y004541D01*
X035213Y004589D02*
X039253Y004589D01*
X039253Y004638D02*
X035213Y004638D01*
X035213Y004686D02*
X039253Y004686D01*
X039253Y004735D02*
X035213Y004735D01*
X035213Y004783D02*
X039253Y004783D01*
X039253Y004832D02*
X035213Y004832D01*
X035213Y004880D02*
X039253Y004880D01*
X039253Y004929D02*
X035213Y004929D01*
X035213Y004978D02*
X039253Y004978D01*
X039253Y005026D02*
X035213Y005026D01*
X035213Y005075D02*
X039253Y005075D01*
X039253Y005123D02*
X035213Y005123D01*
X035213Y005172D02*
X039253Y005172D01*
X039253Y005220D02*
X035330Y005220D01*
X035379Y005269D02*
X039253Y005269D01*
X039253Y005317D02*
X035421Y005317D01*
X035421Y005366D02*
X039253Y005366D01*
X039253Y005414D02*
X035421Y005414D01*
X035421Y005463D02*
X039253Y005463D01*
X039253Y005511D02*
X035421Y005511D01*
X035421Y005560D02*
X039253Y005560D01*
X039253Y005609D02*
X036317Y005609D01*
X036365Y005657D02*
X039253Y005657D01*
X039253Y005706D02*
X036414Y005706D01*
X036421Y005754D02*
X039253Y005754D01*
X039253Y005803D02*
X036421Y005803D01*
X036421Y005851D02*
X039253Y005851D01*
X039253Y005900D02*
X036421Y005900D01*
X036421Y005948D02*
X039253Y005948D01*
X039253Y005997D02*
X036421Y005997D01*
X036421Y006045D02*
X039253Y006045D01*
X039253Y006094D02*
X036421Y006094D01*
X036421Y006143D02*
X039253Y006143D01*
X039253Y006191D02*
X036421Y006191D01*
X036421Y006240D02*
X039253Y006240D01*
X039253Y006288D02*
X036421Y006288D01*
X036421Y006337D02*
X039253Y006337D01*
X039253Y006385D02*
X036416Y006385D01*
X036368Y006434D02*
X039253Y006434D01*
X039253Y006482D02*
X036387Y006482D01*
X036421Y006531D02*
X039253Y006531D01*
X039253Y006579D02*
X036421Y006579D01*
X036421Y006628D02*
X039253Y006628D01*
X039253Y006677D02*
X036421Y006677D01*
X036421Y006725D02*
X039253Y006725D01*
X039253Y006774D02*
X036421Y006774D01*
X036421Y006822D02*
X039253Y006822D01*
X039253Y006871D02*
X036421Y006871D01*
X036421Y006919D02*
X039253Y006919D01*
X039253Y006968D02*
X036421Y006968D01*
X036421Y007016D02*
X039253Y007016D01*
X039253Y007065D02*
X036421Y007065D01*
X036421Y007113D02*
X039253Y007113D01*
X039253Y007162D02*
X036421Y007162D01*
X036394Y007211D02*
X039253Y007211D01*
X039253Y007259D02*
X036361Y007259D01*
X036410Y007308D02*
X039253Y007308D01*
X039253Y007356D02*
X036421Y007356D01*
X036421Y007405D02*
X039253Y007405D01*
X039253Y007453D02*
X036421Y007453D01*
X036421Y007502D02*
X039253Y007502D01*
X039253Y007550D02*
X036421Y007550D01*
X036421Y007599D02*
X039253Y007599D01*
X039253Y007647D02*
X036421Y007647D01*
X036421Y007696D02*
X039253Y007696D01*
X039253Y007744D02*
X036421Y007744D01*
X036421Y007793D02*
X039253Y007793D01*
X039253Y007842D02*
X036421Y007842D01*
X036421Y007890D02*
X039253Y007890D01*
X039253Y007939D02*
X036421Y007939D01*
X036421Y007987D02*
X039253Y007987D01*
X039253Y008036D02*
X036372Y008036D01*
X036324Y008084D02*
X039253Y008084D01*
X039253Y008133D02*
X036213Y008133D01*
X036213Y008181D02*
X039253Y008181D01*
X039253Y008230D02*
X036213Y008230D01*
X036213Y008278D02*
X039253Y008278D01*
X039253Y008327D02*
X036213Y008327D01*
X036213Y008376D02*
X039253Y008376D01*
X039253Y008424D02*
X036213Y008424D01*
X036213Y008473D02*
X039253Y008473D01*
X039253Y008521D02*
X036213Y008521D01*
X036213Y008570D02*
X036674Y008570D01*
X036557Y008618D02*
X036213Y008618D01*
X036213Y008667D02*
X036469Y008667D01*
X036420Y008715D02*
X036213Y008715D01*
X036213Y008764D02*
X036371Y008764D01*
X036323Y008812D02*
X036213Y008812D01*
X036213Y008861D02*
X036285Y008861D01*
X036265Y008910D02*
X036213Y008910D01*
X036213Y008958D02*
X036245Y008958D01*
X036225Y009007D02*
X036213Y009007D01*
X035743Y008958D02*
X031326Y008958D01*
X031278Y008910D02*
X035743Y008910D01*
X035743Y008861D02*
X031229Y008861D01*
X031181Y008812D02*
X035743Y008812D01*
X035743Y008764D02*
X030735Y008764D01*
X030686Y008715D02*
X035743Y008715D01*
X035743Y008667D02*
X030638Y008667D01*
X030589Y008618D02*
X035743Y008618D01*
X035743Y008570D02*
X030541Y008570D01*
X030492Y008521D02*
X035743Y008521D01*
X035743Y008473D02*
X035337Y008473D01*
X035386Y008424D02*
X035743Y008424D01*
X035743Y008376D02*
X035421Y008376D01*
X035421Y008327D02*
X035743Y008327D01*
X035743Y008278D02*
X035421Y008278D01*
X035421Y008230D02*
X035743Y008230D01*
X035743Y008181D02*
X035421Y008181D01*
X035421Y008133D02*
X035743Y008133D01*
X035633Y008084D02*
X035421Y008084D01*
X035421Y008036D02*
X035585Y008036D01*
X035536Y007987D02*
X035421Y007987D01*
X035421Y007939D02*
X035536Y007939D01*
X035536Y007890D02*
X035421Y007890D01*
X035421Y007842D02*
X035536Y007842D01*
X035536Y007793D02*
X035421Y007793D01*
X035421Y007744D02*
X035536Y007744D01*
X035536Y007696D02*
X035396Y007696D01*
X035359Y007647D02*
X035536Y007647D01*
X035536Y007599D02*
X035408Y007599D01*
X035421Y007550D02*
X035536Y007550D01*
X035536Y007502D02*
X035421Y007502D01*
X035421Y007453D02*
X035536Y007453D01*
X035536Y007405D02*
X035421Y007405D01*
X035421Y007356D02*
X035536Y007356D01*
X035547Y007308D02*
X035421Y007308D01*
X035421Y007259D02*
X035596Y007259D01*
X035562Y007211D02*
X035421Y007211D01*
X035421Y007162D02*
X035536Y007162D01*
X035536Y007113D02*
X035421Y007113D01*
X034536Y008133D02*
X033215Y008133D01*
X033166Y008181D02*
X034536Y008181D01*
X034536Y008230D02*
X027663Y008230D01*
X027663Y008278D02*
X034536Y008278D01*
X034536Y008327D02*
X027663Y008327D01*
X027697Y008376D02*
X034536Y008376D01*
X034571Y008424D02*
X027745Y008424D01*
X027794Y008473D02*
X034620Y008473D01*
X034898Y009151D02*
X034751Y009212D01*
X034638Y009325D01*
X034576Y009473D01*
X034576Y009633D01*
X034638Y009780D01*
X034751Y009894D01*
X034898Y009955D01*
X035058Y009955D01*
X035206Y009894D01*
X035319Y009780D01*
X035381Y009633D01*
X035381Y009473D01*
X035319Y009325D01*
X035206Y009212D01*
X035058Y009151D01*
X034898Y009151D01*
X034894Y009152D02*
X031423Y009152D01*
X031423Y009104D02*
X035743Y009104D01*
X035743Y009152D02*
X035063Y009152D01*
X035180Y009201D02*
X035743Y009201D01*
X035743Y009249D02*
X035244Y009249D01*
X035292Y009298D02*
X035743Y009298D01*
X035743Y009346D02*
X035328Y009346D01*
X035348Y009395D02*
X035743Y009395D01*
X035743Y009444D02*
X035369Y009444D01*
X035381Y009492D02*
X035743Y009492D01*
X035743Y009541D02*
X035381Y009541D01*
X035381Y009589D02*
X035743Y009589D01*
X035743Y009638D02*
X035379Y009638D01*
X035358Y009686D02*
X035743Y009686D01*
X035743Y009735D02*
X035338Y009735D01*
X035317Y009783D02*
X035743Y009783D01*
X035743Y009832D02*
X035268Y009832D01*
X035219Y009880D02*
X035743Y009880D01*
X035743Y009929D02*
X035121Y009929D01*
X034836Y009929D02*
X032000Y009929D01*
X032049Y009977D02*
X035743Y009977D01*
X035743Y010026D02*
X032097Y010026D01*
X032146Y010075D02*
X035743Y010075D01*
X035743Y010123D02*
X032194Y010123D01*
X032243Y010172D02*
X035743Y010172D01*
X035743Y010220D02*
X032291Y010220D01*
X032340Y010269D02*
X035743Y010269D01*
X035743Y010317D02*
X032388Y010317D01*
X032437Y010366D02*
X035743Y010366D01*
X035743Y010414D02*
X032485Y010414D01*
X032534Y010463D02*
X035743Y010463D01*
X035743Y010511D02*
X032583Y010511D01*
X032631Y010560D02*
X035743Y010560D01*
X035743Y010609D02*
X032680Y010609D01*
X032728Y010657D02*
X035743Y010657D01*
X035743Y010706D02*
X032777Y010706D01*
X032825Y010754D02*
X035743Y010754D01*
X035743Y010803D02*
X032874Y010803D01*
X032922Y010851D02*
X035743Y010851D01*
X035743Y010900D02*
X032971Y010900D01*
X033019Y010948D02*
X035743Y010948D01*
X035743Y010997D02*
X033068Y010997D01*
X033117Y011045D02*
X035743Y011045D01*
X035743Y011094D02*
X033165Y011094D01*
X033214Y011143D02*
X035743Y011143D01*
X035743Y011191D02*
X033262Y011191D01*
X033311Y011240D02*
X035743Y011240D01*
X035743Y011288D02*
X033359Y011288D01*
X033408Y011337D02*
X035743Y011337D01*
X035743Y011385D02*
X033456Y011385D01*
X033505Y011434D02*
X035743Y011434D01*
X035743Y011482D02*
X034053Y011482D01*
X034102Y011531D02*
X035743Y011531D01*
X035743Y011579D02*
X034151Y011579D01*
X034199Y011628D02*
X035743Y011628D01*
X035743Y011676D02*
X034248Y011676D01*
X034296Y011725D02*
X035743Y011725D01*
X035743Y011774D02*
X034345Y011774D01*
X034690Y011822D02*
X035743Y011822D01*
X035743Y011871D02*
X034739Y011871D01*
X034787Y011919D02*
X035743Y011919D01*
X035743Y011968D02*
X034836Y011968D01*
X034884Y012016D02*
X035743Y012016D01*
X035743Y012065D02*
X034923Y012065D01*
X034923Y012113D02*
X035743Y012113D01*
X035743Y012162D02*
X034923Y012162D01*
X034923Y012210D02*
X035743Y012210D01*
X035743Y012259D02*
X034923Y012259D01*
X034923Y012308D02*
X035743Y012308D01*
X035743Y012356D02*
X034923Y012356D01*
X034923Y012405D02*
X035743Y012405D01*
X035743Y012453D02*
X034894Y012453D01*
X034846Y012502D02*
X035743Y012502D01*
X035743Y012550D02*
X034797Y012550D01*
X034749Y012599D02*
X035743Y012599D01*
X035743Y012647D02*
X034700Y012647D01*
X034257Y012647D02*
X031778Y012647D01*
X031826Y012599D02*
X034208Y012599D01*
X034160Y012550D02*
X031875Y012550D01*
X031911Y012502D02*
X034111Y012502D01*
X034063Y012453D02*
X031931Y012453D01*
X031951Y012405D02*
X034033Y012405D01*
X034033Y012356D02*
X031971Y012356D01*
X031993Y012308D02*
X034033Y012308D01*
X034033Y012259D02*
X032041Y012259D01*
X032090Y012210D02*
X034033Y012210D01*
X034033Y012162D02*
X032138Y012162D01*
X032187Y012113D02*
X034020Y012113D01*
X033971Y012065D02*
X032236Y012065D01*
X032284Y012016D02*
X033923Y012016D01*
X033874Y011968D02*
X032333Y011968D01*
X031911Y011725D02*
X030546Y011725D01*
X030498Y011676D02*
X031959Y011676D01*
X032008Y011628D02*
X030449Y011628D01*
X030401Y011579D02*
X032056Y011579D01*
X032105Y011531D02*
X030352Y011531D01*
X030303Y011482D02*
X032154Y011482D01*
X032646Y011240D02*
X030183Y011240D01*
X030183Y011288D02*
X032695Y011288D01*
X032743Y011337D02*
X030180Y011337D01*
X030206Y011385D02*
X032792Y011385D01*
X032840Y011434D02*
X030255Y011434D01*
X030183Y011191D02*
X032598Y011191D01*
X032549Y011143D02*
X030180Y011143D01*
X030160Y011094D02*
X032500Y011094D01*
X032452Y011045D02*
X030140Y011045D01*
X030120Y010997D02*
X032403Y010997D01*
X032355Y010948D02*
X030076Y010948D01*
X030028Y010900D02*
X032306Y010900D01*
X032258Y010851D02*
X029964Y010851D01*
X029846Y010803D02*
X032209Y010803D01*
X032161Y010754D02*
X029246Y010754D01*
X029295Y010706D02*
X032112Y010706D01*
X032064Y010657D02*
X031190Y010657D01*
X031239Y010609D02*
X032015Y010609D01*
X031966Y010560D02*
X031287Y010560D01*
X031336Y010511D02*
X031918Y010511D01*
X031869Y010463D02*
X031384Y010463D01*
X031423Y010414D02*
X031821Y010414D01*
X031772Y010366D02*
X031423Y010366D01*
X031423Y010317D02*
X031724Y010317D01*
X031675Y010269D02*
X031423Y010269D01*
X031423Y010220D02*
X031627Y010220D01*
X031578Y010172D02*
X031423Y010172D01*
X031423Y010123D02*
X031530Y010123D01*
X031481Y010075D02*
X031423Y010075D01*
X031433Y010026D02*
X031394Y010026D01*
X031384Y009977D02*
X031346Y009977D01*
X031335Y009929D02*
X031297Y009929D01*
X031287Y009880D02*
X031248Y009880D01*
X031238Y009832D02*
X031200Y009832D01*
X031190Y009783D02*
X029017Y009783D01*
X029040Y009832D02*
X028969Y009832D01*
X028948Y009880D02*
X028920Y009880D01*
X028900Y009929D02*
X028871Y009929D01*
X028851Y009977D02*
X028823Y009977D01*
X028825Y010026D02*
X028774Y010026D01*
X028805Y010075D02*
X028726Y010075D01*
X028677Y010123D02*
X028785Y010123D01*
X028773Y010172D02*
X028423Y010172D01*
X028377Y010220D02*
X028773Y010220D01*
X028773Y010269D02*
X028329Y010269D01*
X028280Y010317D02*
X028773Y010317D01*
X028789Y010366D02*
X028232Y010366D01*
X028183Y010414D02*
X028809Y010414D01*
X028829Y010463D02*
X027128Y010463D01*
X027116Y010492D02*
X027183Y010328D01*
X027183Y010151D01*
X027116Y009988D01*
X026991Y009862D01*
X026827Y009795D01*
X026130Y009795D01*
X025966Y009862D01*
X025841Y009988D01*
X025834Y010005D01*
X025576Y010005D01*
X025414Y009843D01*
X025421Y009828D01*
X025421Y009652D01*
X025354Y009489D01*
X025229Y009365D01*
X025066Y009297D01*
X024890Y009297D01*
X024728Y009365D01*
X024603Y009489D01*
X024536Y009652D01*
X024536Y009828D01*
X024603Y009990D01*
X024728Y010115D01*
X024890Y010182D01*
X025066Y010182D01*
X025082Y010176D01*
X025243Y010337D01*
X025381Y010475D01*
X025834Y010475D01*
X025841Y010492D01*
X025966Y010617D01*
X026130Y010685D01*
X026827Y010685D01*
X026991Y010617D01*
X027116Y010492D01*
X027096Y010511D02*
X028824Y010511D01*
X028776Y010560D02*
X027047Y010560D01*
X026999Y010609D02*
X028727Y010609D01*
X028679Y010657D02*
X026893Y010657D01*
X026846Y010803D02*
X028533Y010803D01*
X028485Y010851D02*
X026964Y010851D01*
X027028Y010900D02*
X028436Y010900D01*
X028387Y010948D02*
X027076Y010948D01*
X027120Y010997D02*
X028339Y010997D01*
X028290Y011045D02*
X027140Y011045D01*
X027160Y011094D02*
X028242Y011094D01*
X028193Y011143D02*
X027180Y011143D01*
X027183Y011191D02*
X028145Y011191D01*
X028096Y011240D02*
X027183Y011240D01*
X027183Y011288D02*
X028048Y011288D01*
X027999Y011337D02*
X027180Y011337D01*
X027160Y011385D02*
X027951Y011385D01*
X027902Y011434D02*
X027140Y011434D01*
X027120Y011482D02*
X027854Y011482D01*
X027805Y011531D02*
X027077Y011531D01*
X027028Y011579D02*
X027756Y011579D01*
X027708Y011628D02*
X026964Y011628D01*
X026847Y011676D02*
X027659Y011676D01*
X027611Y011725D02*
X026046Y011725D01*
X025998Y011676D02*
X026110Y011676D01*
X026095Y011774D02*
X027562Y011774D01*
X027514Y011822D02*
X026893Y011822D01*
X026999Y011871D02*
X027465Y011871D01*
X027417Y011919D02*
X027047Y011919D01*
X027096Y011968D02*
X027368Y011968D01*
X027320Y012016D02*
X027128Y012016D01*
X027148Y012065D02*
X027271Y012065D01*
X027222Y012113D02*
X027168Y012113D01*
X025993Y011628D02*
X025949Y011628D01*
X025929Y011579D02*
X025901Y011579D01*
X025880Y011531D02*
X025852Y011531D01*
X025837Y011482D02*
X025153Y011482D01*
X025105Y011434D02*
X025340Y011434D01*
X025195Y011288D02*
X024959Y011288D01*
X024911Y011240D02*
X025146Y011240D01*
X025098Y011191D02*
X024862Y011191D01*
X024814Y011143D02*
X025049Y011143D01*
X025000Y011094D02*
X024765Y011094D01*
X024717Y011045D02*
X024952Y011045D01*
X024903Y010997D02*
X024668Y010997D01*
X024619Y010948D02*
X024855Y010948D01*
X024806Y010900D02*
X024571Y010900D01*
X024522Y010851D02*
X024758Y010851D01*
X024709Y010803D02*
X024474Y010803D01*
X024425Y010754D02*
X024661Y010754D01*
X024612Y010706D02*
X024377Y010706D01*
X024328Y010657D02*
X024564Y010657D01*
X024515Y010609D02*
X024280Y010609D01*
X024231Y010560D02*
X024466Y010560D01*
X024418Y010511D02*
X024183Y010511D01*
X024134Y010463D02*
X024369Y010463D01*
X024321Y010414D02*
X024085Y010414D01*
X024037Y010366D02*
X024272Y010366D01*
X024174Y010317D02*
X023988Y010317D01*
X023940Y010269D02*
X024125Y010269D01*
X024077Y010220D02*
X023923Y010220D01*
X023923Y010172D02*
X024043Y010172D01*
X024043Y010123D02*
X023923Y010123D01*
X023923Y010075D02*
X024043Y010075D01*
X024043Y010026D02*
X023894Y010026D01*
X023846Y009977D02*
X024043Y009977D01*
X024043Y009929D02*
X023797Y009929D01*
X023748Y009880D02*
X024043Y009880D01*
X024043Y009832D02*
X023700Y009832D01*
X024043Y009783D02*
X022824Y009783D01*
X022856Y009752D02*
X022923Y009588D01*
X022923Y008891D01*
X022856Y008728D01*
X022731Y008602D01*
X022567Y008535D01*
X022390Y008535D01*
X022226Y008602D01*
X022101Y008728D01*
X022033Y008891D01*
X022033Y009588D01*
X022101Y009752D01*
X022219Y009870D01*
X022033Y010055D01*
X022033Y010424D01*
X022294Y010685D01*
X022663Y010685D01*
X022923Y010424D01*
X022923Y010055D01*
X022738Y009870D01*
X022856Y009752D01*
X022863Y009735D02*
X024043Y009735D01*
X024043Y009686D02*
X022883Y009686D01*
X022903Y009638D02*
X024043Y009638D01*
X024043Y009589D02*
X022923Y009589D01*
X022923Y009541D02*
X024043Y009541D01*
X024043Y009492D02*
X022923Y009492D01*
X022923Y009444D02*
X024043Y009444D01*
X024043Y009395D02*
X022923Y009395D01*
X022923Y009346D02*
X024043Y009346D01*
X024043Y009298D02*
X022923Y009298D01*
X022923Y009249D02*
X024043Y009249D01*
X024043Y009201D02*
X022923Y009201D01*
X022923Y009152D02*
X024043Y009152D01*
X024010Y009104D02*
X022923Y009104D01*
X022923Y009055D02*
X023962Y009055D01*
X023913Y009007D02*
X022923Y009007D01*
X022923Y008958D02*
X023865Y008958D01*
X023816Y008910D02*
X022923Y008910D01*
X022911Y008861D02*
X023767Y008861D01*
X023719Y008812D02*
X022891Y008812D01*
X022871Y008764D02*
X023670Y008764D01*
X023622Y008715D02*
X022843Y008715D01*
X022795Y008667D02*
X023573Y008667D01*
X023525Y008618D02*
X022746Y008618D01*
X022652Y008570D02*
X023476Y008570D01*
X023428Y008521D02*
X021092Y008521D01*
X021044Y008473D02*
X023379Y008473D01*
X023331Y008424D02*
X020995Y008424D01*
X020947Y008376D02*
X023282Y008376D01*
X023233Y008327D02*
X020898Y008327D01*
X020850Y008278D02*
X023185Y008278D01*
X023136Y008230D02*
X020801Y008230D01*
X020752Y008181D02*
X023088Y008181D01*
X023039Y008133D02*
X020704Y008133D01*
X020655Y008084D02*
X022991Y008084D01*
X022942Y008036D02*
X020607Y008036D01*
X020558Y007987D02*
X022894Y007987D01*
X022845Y007939D02*
X020510Y007939D01*
X020461Y007890D02*
X022797Y007890D01*
X022748Y007842D02*
X020413Y007842D01*
X020364Y007793D02*
X022699Y007793D01*
X022651Y007744D02*
X020316Y007744D01*
X020267Y007696D02*
X022602Y007696D01*
X022257Y007647D02*
X020219Y007647D01*
X020170Y007599D02*
X022208Y007599D01*
X022160Y007550D02*
X020121Y007550D01*
X019846Y007502D02*
X022111Y007502D01*
X022063Y007453D02*
X021597Y007453D01*
X021646Y007405D02*
X022033Y007405D01*
X022033Y007356D02*
X021694Y007356D01*
X021743Y007308D02*
X022033Y007308D01*
X022033Y007259D02*
X021791Y007259D01*
X021840Y007211D02*
X022033Y007211D01*
X022033Y007162D02*
X021888Y007162D01*
X021937Y007113D02*
X022033Y007113D01*
X022033Y007065D02*
X021986Y007065D01*
X021418Y006968D02*
X019836Y006968D01*
X019787Y006919D02*
X021329Y006919D01*
X021220Y006871D02*
X019739Y006871D01*
X019690Y006822D02*
X021172Y006822D01*
X021123Y006774D02*
X018834Y006774D01*
X018867Y006725D02*
X021090Y006725D01*
X021070Y006677D02*
X018887Y006677D01*
X018907Y006628D02*
X021050Y006628D01*
X021033Y006579D02*
X018923Y006579D01*
X018923Y006531D02*
X021033Y006531D01*
X021033Y006482D02*
X018923Y006482D01*
X018923Y006434D02*
X021033Y006434D01*
X021033Y006385D02*
X018923Y006385D01*
X018923Y006337D02*
X021033Y006337D01*
X021033Y006288D02*
X018923Y006288D01*
X018923Y006240D02*
X021033Y006240D01*
X021033Y006191D02*
X018923Y006191D01*
X018923Y006143D02*
X021033Y006143D01*
X021000Y006094D02*
X018923Y006094D01*
X018923Y006045D02*
X020952Y006045D01*
X020903Y005997D02*
X018923Y005997D01*
X018923Y005948D02*
X020855Y005948D01*
X020806Y005900D02*
X018923Y005900D01*
X018907Y005851D02*
X020758Y005851D01*
X020709Y005803D02*
X018887Y005803D01*
X018867Y005754D02*
X020661Y005754D01*
X020612Y005706D02*
X018834Y005706D01*
X018785Y005657D02*
X020564Y005657D01*
X020515Y005609D02*
X018737Y005609D01*
X018628Y005560D02*
X020466Y005560D01*
X018329Y005560D02*
X017628Y005560D01*
X017737Y005609D02*
X018220Y005609D01*
X018172Y005657D02*
X017785Y005657D01*
X017834Y005706D02*
X018123Y005706D01*
X018090Y005754D02*
X017867Y005754D01*
X017887Y005803D02*
X018070Y005803D01*
X018050Y005851D02*
X017907Y005851D01*
X017923Y005900D02*
X018033Y005900D01*
X018033Y005948D02*
X017923Y005948D01*
X017923Y005997D02*
X018033Y005997D01*
X018033Y006045D02*
X017923Y006045D01*
X017923Y006094D02*
X018033Y006094D01*
X018033Y006143D02*
X017923Y006143D01*
X017923Y006191D02*
X018033Y006191D01*
X018033Y006240D02*
X017923Y006240D01*
X017923Y006288D02*
X018033Y006288D01*
X018033Y006337D02*
X017923Y006337D01*
X017923Y006385D02*
X018033Y006385D01*
X018033Y006434D02*
X017923Y006434D01*
X017923Y006482D02*
X018033Y006482D01*
X018033Y006531D02*
X017923Y006531D01*
X017923Y006579D02*
X018033Y006579D01*
X018050Y006628D02*
X017907Y006628D01*
X017887Y006677D02*
X018070Y006677D01*
X018090Y006725D02*
X017867Y006725D01*
X017834Y006774D02*
X018123Y006774D01*
X018172Y006822D02*
X017785Y006822D01*
X017737Y006871D02*
X018218Y006871D01*
X018170Y006919D02*
X017628Y006919D01*
X017329Y006919D02*
X017131Y006919D01*
X017180Y006871D02*
X017220Y006871D01*
X017083Y006968D02*
X018121Y006968D01*
X018073Y007016D02*
X017034Y007016D01*
X016986Y007065D02*
X018033Y007065D01*
X018033Y007113D02*
X016937Y007113D01*
X016888Y007162D02*
X018033Y007162D01*
X018033Y007211D02*
X016840Y007211D01*
X016661Y006725D02*
X012446Y006725D01*
X012398Y006677D02*
X016709Y006677D01*
X016758Y006628D02*
X012349Y006628D01*
X012301Y006579D02*
X016806Y006579D01*
X016855Y006531D02*
X012252Y006531D01*
X012203Y006482D02*
X016903Y006482D01*
X016952Y006434D02*
X012155Y006434D01*
X012106Y006385D02*
X017001Y006385D01*
X017033Y006337D02*
X012058Y006337D01*
X012009Y006288D02*
X017033Y006288D01*
X017033Y006240D02*
X011961Y006240D01*
X011912Y006191D02*
X017033Y006191D01*
X017033Y006143D02*
X011864Y006143D01*
X011815Y006094D02*
X017033Y006094D01*
X017033Y006045D02*
X011767Y006045D01*
X011718Y005997D02*
X014553Y005997D01*
X014505Y005948D02*
X011669Y005948D01*
X011621Y005900D02*
X014456Y005900D01*
X014408Y005851D02*
X011572Y005851D01*
X011524Y005803D02*
X014359Y005803D01*
X014311Y005754D02*
X011475Y005754D01*
X011427Y005706D02*
X014262Y005706D01*
X014214Y005657D02*
X011378Y005657D01*
X011330Y005609D02*
X014165Y005609D01*
X014116Y005560D02*
X011281Y005560D01*
X011102Y006045D02*
X005555Y006045D01*
X005506Y006094D02*
X011150Y006094D01*
X011199Y006143D02*
X005458Y006143D01*
X005409Y006191D02*
X011248Y006191D01*
X011296Y006240D02*
X005361Y006240D01*
X005312Y006288D02*
X011345Y006288D01*
X011393Y006337D02*
X005264Y006337D01*
X005215Y006385D02*
X011442Y006385D01*
X011490Y006434D02*
X005167Y006434D01*
X005118Y006482D02*
X011539Y006482D01*
X011587Y006531D02*
X005069Y006531D01*
X005021Y006579D02*
X011636Y006579D01*
X011684Y006628D02*
X004972Y006628D01*
X004924Y006677D02*
X011733Y006677D01*
X011782Y006725D02*
X004875Y006725D01*
X004827Y006774D02*
X011830Y006774D01*
X011879Y006822D02*
X004778Y006822D01*
X004730Y006871D02*
X011927Y006871D01*
X011976Y006919D02*
X004681Y006919D01*
X004633Y006968D02*
X012024Y006968D01*
X012073Y007016D02*
X004584Y007016D01*
X004536Y007065D02*
X012121Y007065D01*
X012170Y007113D02*
X004487Y007113D01*
X004438Y007162D02*
X012218Y007162D01*
X012267Y007211D02*
X004390Y007211D01*
X004341Y007259D02*
X018033Y007259D01*
X018033Y007308D02*
X004293Y007308D01*
X004244Y007356D02*
X018033Y007356D01*
X018033Y007405D02*
X004196Y007405D01*
X004147Y007453D02*
X018063Y007453D01*
X018111Y007502D02*
X004099Y007502D01*
X004050Y007550D02*
X005985Y007550D01*
X005937Y007599D02*
X004002Y007599D01*
X003953Y007647D02*
X005888Y007647D01*
X005840Y007696D02*
X003904Y007696D01*
X003856Y007744D02*
X005791Y007744D01*
X005743Y007793D02*
X003807Y007793D01*
X003759Y007842D02*
X005694Y007842D01*
X005646Y007890D02*
X003710Y007890D01*
X003662Y007939D02*
X005597Y007939D01*
X005549Y007987D02*
X003613Y007987D01*
X003565Y008036D02*
X005500Y008036D01*
X005451Y008084D02*
X003516Y008084D01*
X003468Y008133D02*
X005403Y008133D01*
X005354Y008181D02*
X003419Y008181D01*
X003370Y008230D02*
X005306Y008230D01*
X005257Y008278D02*
X003322Y008278D01*
X003273Y008327D02*
X005209Y008327D01*
X005160Y008376D02*
X003225Y008376D01*
X003176Y008424D02*
X005112Y008424D01*
X005063Y008473D02*
X003128Y008473D01*
X003079Y008521D02*
X005015Y008521D01*
X004966Y008570D02*
X003031Y008570D01*
X002982Y008618D02*
X004918Y008618D01*
X004869Y008667D02*
X002934Y008667D01*
X002885Y008715D02*
X004820Y008715D01*
X004772Y008764D02*
X002836Y008764D01*
X002788Y008812D02*
X004723Y008812D01*
X004675Y008861D02*
X002739Y008861D01*
X002691Y008910D02*
X004626Y008910D01*
X004578Y008958D02*
X002642Y008958D01*
X002594Y009007D02*
X004529Y009007D01*
X004481Y009055D02*
X002545Y009055D01*
X002497Y009104D02*
X004432Y009104D01*
X004384Y009152D02*
X002463Y009152D01*
X002463Y009201D02*
X004335Y009201D01*
X004286Y009249D02*
X002463Y009249D01*
X002463Y009298D02*
X004238Y009298D01*
X004189Y009346D02*
X002463Y009346D01*
X002463Y009395D02*
X004141Y009395D01*
X004092Y009444D02*
X002463Y009444D01*
X002463Y009492D02*
X004044Y009492D01*
X003995Y009541D02*
X002463Y009541D01*
X002463Y009589D02*
X003947Y009589D01*
X003898Y009638D02*
X002463Y009638D01*
X002463Y009686D02*
X003850Y009686D01*
X003801Y009735D02*
X002463Y009735D01*
X002463Y009783D02*
X003752Y009783D01*
X003704Y009832D02*
X002463Y009832D01*
X002463Y009880D02*
X003655Y009880D01*
X003607Y009929D02*
X002463Y009929D01*
X002463Y009977D02*
X003558Y009977D01*
X003510Y010026D02*
X002463Y010026D01*
X002463Y010075D02*
X003461Y010075D01*
X003413Y010123D02*
X002463Y010123D01*
X002463Y010172D02*
X003364Y010172D01*
X003316Y010220D02*
X002463Y010220D01*
X002463Y010269D02*
X003267Y010269D01*
X003219Y010317D02*
X002463Y010317D01*
X002463Y010366D02*
X003170Y010366D01*
X003121Y010414D02*
X002463Y010414D01*
X002463Y010463D02*
X002878Y010463D01*
X002761Y010511D02*
X002463Y010511D01*
X002463Y010560D02*
X002680Y010560D01*
X002631Y010609D02*
X002463Y010609D01*
X002463Y010657D02*
X002583Y010657D01*
X002555Y010706D02*
X002463Y010706D01*
X002463Y010754D02*
X002535Y010754D01*
X002515Y010803D02*
X002463Y010803D01*
X002463Y010851D02*
X002497Y010851D01*
X002497Y010900D02*
X002463Y010900D01*
X002463Y010948D02*
X002497Y010948D01*
X002497Y010997D02*
X002463Y010997D01*
X002463Y011045D02*
X002497Y011045D01*
X002497Y011094D02*
X002463Y011094D01*
X002463Y011143D02*
X002497Y011143D01*
X002497Y011191D02*
X002463Y011191D01*
X002463Y011240D02*
X002497Y011240D01*
X002497Y011288D02*
X002463Y011288D01*
X002463Y011337D02*
X002497Y011337D01*
X002497Y011385D02*
X002463Y011385D01*
X002463Y011434D02*
X002497Y011434D01*
X002497Y011482D02*
X002463Y011482D01*
X002463Y011531D02*
X002497Y011531D01*
X002497Y011579D02*
X002463Y011579D01*
X002463Y011628D02*
X002497Y011628D01*
X002515Y011676D02*
X002463Y011676D01*
X002463Y011725D02*
X002535Y011725D01*
X002555Y011774D02*
X002463Y011774D01*
X002463Y011822D02*
X002583Y011822D01*
X002631Y011871D02*
X002463Y011871D01*
X002463Y011919D02*
X002680Y011919D01*
X002760Y011968D02*
X002463Y011968D01*
X002463Y012016D02*
X002878Y012016D01*
X003079Y012016D02*
X003220Y012016D01*
X003196Y011968D02*
X003268Y011968D01*
X003277Y011919D02*
X003317Y011919D01*
X003326Y011871D02*
X003365Y011871D01*
X003374Y011822D02*
X003414Y011822D01*
X003402Y011774D02*
X003462Y011774D01*
X003422Y011725D02*
X003511Y011725D01*
X003515Y011676D02*
X003442Y011676D01*
X003460Y011628D02*
X003497Y011628D01*
X003497Y011579D02*
X003460Y011579D01*
X003460Y011531D02*
X003497Y011531D01*
X003497Y011482D02*
X003460Y011482D01*
X003460Y011434D02*
X003497Y011434D01*
X003497Y011385D02*
X003460Y011385D01*
X003460Y011337D02*
X003497Y011337D01*
X003497Y011288D02*
X003460Y011288D01*
X003460Y011240D02*
X003497Y011240D01*
X003497Y011191D02*
X003460Y011191D01*
X003460Y011143D02*
X003497Y011143D01*
X003497Y011094D02*
X003460Y011094D01*
X003460Y011045D02*
X003497Y011045D01*
X003497Y010997D02*
X003460Y010997D01*
X003460Y010948D02*
X003497Y010948D01*
X003497Y010900D02*
X003460Y010900D01*
X003460Y010851D02*
X003497Y010851D01*
X003515Y010803D02*
X003442Y010803D01*
X003446Y010754D02*
X003535Y010754D01*
X003555Y010706D02*
X003495Y010706D01*
X003543Y010657D02*
X003583Y010657D01*
X003592Y010609D02*
X003631Y010609D01*
X003640Y010560D02*
X003680Y010560D01*
X003689Y010511D02*
X003761Y010511D01*
X003738Y010463D02*
X003878Y010463D01*
X003786Y010414D02*
X006621Y010414D01*
X006670Y010366D02*
X003835Y010366D01*
X003883Y010317D02*
X006719Y010317D01*
X006767Y010269D02*
X003932Y010269D01*
X003980Y010220D02*
X006816Y010220D01*
X006864Y010172D02*
X004029Y010172D01*
X004077Y010123D02*
X006913Y010123D01*
X006961Y010075D02*
X004126Y010075D01*
X004174Y010026D02*
X007010Y010026D01*
X007058Y009977D02*
X004223Y009977D01*
X004271Y009929D02*
X007107Y009929D01*
X007155Y009880D02*
X004320Y009880D01*
X004369Y009832D02*
X007204Y009832D01*
X007253Y009783D02*
X004417Y009783D01*
X004466Y009735D02*
X007301Y009735D01*
X007350Y009686D02*
X004514Y009686D01*
X004563Y009638D02*
X007398Y009638D01*
X007447Y009589D02*
X004611Y009589D01*
X004660Y009541D02*
X007495Y009541D01*
X007544Y009492D02*
X004708Y009492D01*
X004757Y009444D02*
X007592Y009444D01*
X007641Y009395D02*
X004805Y009395D01*
X004854Y009346D02*
X007689Y009346D01*
X007738Y009298D02*
X004903Y009298D01*
X004951Y009249D02*
X007786Y009249D01*
X007835Y009201D02*
X005000Y009201D01*
X005048Y009152D02*
X017033Y009152D01*
X017033Y009104D02*
X005097Y009104D01*
X005145Y009055D02*
X017033Y009055D01*
X017033Y009007D02*
X005194Y009007D01*
X005242Y008958D02*
X017033Y008958D01*
X017033Y008910D02*
X005291Y008910D01*
X005339Y008861D02*
X017046Y008861D01*
X017066Y008812D02*
X005388Y008812D01*
X005437Y008764D02*
X017086Y008764D01*
X017113Y008715D02*
X005485Y008715D01*
X005534Y008667D02*
X017162Y008667D01*
X017211Y008618D02*
X005582Y008618D01*
X005631Y008570D02*
X017305Y008570D01*
X017652Y008570D02*
X018179Y008570D01*
X018211Y008618D02*
X017746Y008618D01*
X017795Y008667D02*
X018162Y008667D01*
X018113Y008715D02*
X017843Y008715D01*
X017871Y008764D02*
X018086Y008764D01*
X018066Y008812D02*
X017891Y008812D01*
X017911Y008861D02*
X018046Y008861D01*
X018033Y008910D02*
X017923Y008910D01*
X017923Y008958D02*
X018033Y008958D01*
X018033Y009007D02*
X017923Y009007D01*
X017923Y009055D02*
X018033Y009055D01*
X018033Y009104D02*
X017923Y009104D01*
X017923Y009152D02*
X018033Y009152D01*
X018033Y009201D02*
X017923Y009201D01*
X017923Y009249D02*
X018033Y009249D01*
X018033Y009298D02*
X017923Y009298D01*
X017923Y009346D02*
X018033Y009346D01*
X018033Y009395D02*
X017923Y009395D01*
X017923Y009444D02*
X018033Y009444D01*
X018033Y009492D02*
X017923Y009492D01*
X017923Y009541D02*
X018033Y009541D01*
X018034Y009589D02*
X017923Y009589D01*
X017903Y009638D02*
X018054Y009638D01*
X018074Y009686D02*
X017883Y009686D01*
X017863Y009735D02*
X018094Y009735D01*
X018133Y009783D02*
X017824Y009783D01*
X017776Y009832D02*
X018181Y009832D01*
X018235Y009880D02*
X017722Y009880D01*
X017605Y009929D02*
X018352Y009929D01*
X018605Y009929D02*
X019743Y009929D01*
X019743Y009977D02*
X017073Y009977D01*
X017121Y009929D02*
X017352Y009929D01*
X017235Y009880D02*
X017170Y009880D01*
X017024Y010026D02*
X019743Y010026D01*
X019743Y010075D02*
X019096Y010075D01*
X019144Y010123D02*
X019743Y010123D01*
X019743Y010172D02*
X019193Y010172D01*
X019213Y010220D02*
X019743Y010220D01*
X019743Y010269D02*
X019213Y010269D01*
X019213Y010317D02*
X019743Y010317D01*
X019743Y010366D02*
X019213Y010366D01*
X019213Y010414D02*
X019743Y010414D01*
X019743Y010463D02*
X019213Y010463D01*
X019213Y010511D02*
X019743Y010511D01*
X019743Y010560D02*
X019213Y010560D01*
X019213Y010609D02*
X019743Y010609D01*
X019743Y010657D02*
X019213Y010657D01*
X019213Y010706D02*
X019743Y010706D01*
X019743Y010754D02*
X019213Y010754D01*
X019213Y010803D02*
X019743Y010803D01*
X019743Y010851D02*
X019213Y010851D01*
X019213Y010900D02*
X019743Y010900D01*
X019743Y010948D02*
X019213Y010948D01*
X019213Y010997D02*
X019743Y010997D01*
X019743Y011045D02*
X019213Y011045D01*
X019213Y011094D02*
X019743Y011094D01*
X019743Y011143D02*
X019213Y011143D01*
X019213Y011191D02*
X019743Y011191D01*
X019743Y011240D02*
X019213Y011240D01*
X019213Y011288D02*
X019743Y011288D01*
X019743Y011337D02*
X019213Y011337D01*
X019213Y011385D02*
X019743Y011385D01*
X019743Y011434D02*
X019213Y011434D01*
X019213Y011482D02*
X019743Y011482D01*
X019743Y011531D02*
X019213Y011531D01*
X019213Y011579D02*
X019743Y011579D01*
X019743Y011628D02*
X019213Y011628D01*
X019213Y011676D02*
X019743Y011676D01*
X019743Y011725D02*
X019213Y011725D01*
X019213Y011774D02*
X019743Y011774D01*
X019743Y011822D02*
X019690Y011822D01*
X019739Y011871D02*
X019743Y011871D01*
X019267Y011822D02*
X019213Y011822D01*
X019218Y011871D02*
X019213Y011871D01*
X018743Y011871D02*
X018739Y011871D01*
X018743Y011822D02*
X018690Y011822D01*
X018743Y011774D02*
X016795Y011774D01*
X016843Y011822D02*
X018267Y011822D01*
X018218Y011871D02*
X016892Y011871D01*
X016940Y011919D02*
X018170Y011919D01*
X018121Y011968D02*
X016989Y011968D01*
X017037Y012016D02*
X018073Y012016D01*
X018033Y012065D02*
X017086Y012065D01*
X017134Y012113D02*
X018033Y012113D01*
X018033Y012162D02*
X017183Y012162D01*
X017232Y012210D02*
X018033Y012210D01*
X018033Y012259D02*
X017280Y012259D01*
X017329Y012308D02*
X018033Y012308D01*
X018033Y012356D02*
X017377Y012356D01*
X017426Y012405D02*
X018033Y012405D01*
X018063Y012453D02*
X017474Y012453D01*
X017476Y012455D02*
X015113Y010092D01*
X014976Y009955D01*
X014276Y009955D01*
X014081Y009955D01*
X013575Y010461D01*
X013574Y010461D01*
X013383Y010461D01*
X013206Y010534D01*
X013070Y010670D01*
X012997Y010847D01*
X012997Y011632D01*
X013070Y011809D01*
X013206Y011945D01*
X013383Y012018D01*
X013574Y012018D01*
X013751Y011945D01*
X013887Y011809D01*
X013960Y011632D01*
X013960Y010847D01*
X013929Y010771D01*
X014276Y010425D01*
X014781Y010425D01*
X017096Y012740D01*
X017033Y012891D01*
X017033Y013588D01*
X017101Y013752D01*
X017226Y013877D01*
X017390Y013945D01*
X017567Y013945D01*
X017731Y013877D01*
X017856Y013752D01*
X017923Y013588D01*
X017923Y012891D01*
X017856Y012728D01*
X017731Y012602D01*
X017713Y012595D01*
X017713Y012592D01*
X017576Y012455D01*
X017476Y012455D01*
X017623Y012502D02*
X018111Y012502D01*
X018160Y012550D02*
X017671Y012550D01*
X017722Y012599D02*
X018208Y012599D01*
X018181Y012647D02*
X017775Y012647D01*
X017824Y012696D02*
X018133Y012696D01*
X018094Y012744D02*
X017863Y012744D01*
X017883Y012793D02*
X018074Y012793D01*
X018054Y012842D02*
X017903Y012842D01*
X017923Y012890D02*
X018034Y012890D01*
X018033Y012939D02*
X017923Y012939D01*
X017923Y012987D02*
X018033Y012987D01*
X018033Y013036D02*
X017923Y013036D01*
X017923Y013084D02*
X018033Y013084D01*
X018033Y013133D02*
X017923Y013133D01*
X017923Y013181D02*
X018033Y013181D01*
X018033Y013230D02*
X017923Y013230D01*
X017923Y013278D02*
X018033Y013278D01*
X018033Y013327D02*
X017923Y013327D01*
X017923Y013376D02*
X018033Y013376D01*
X018033Y013424D02*
X017923Y013424D01*
X017923Y013473D02*
X018033Y013473D01*
X018033Y013521D02*
X017923Y013521D01*
X017923Y013570D02*
X018033Y013570D01*
X018046Y013618D02*
X017911Y013618D01*
X017891Y013667D02*
X018066Y013667D01*
X018086Y013715D02*
X017871Y013715D01*
X017844Y013764D02*
X018113Y013764D01*
X018162Y013812D02*
X017795Y013812D01*
X017746Y013861D02*
X018210Y013861D01*
X018305Y013909D02*
X017652Y013909D01*
X017305Y013909D02*
X016081Y013909D01*
X016032Y013861D02*
X017210Y013861D01*
X017162Y013812D02*
X015984Y013812D01*
X015935Y013764D02*
X017113Y013764D01*
X017086Y013715D02*
X015886Y013715D01*
X015838Y013667D02*
X017066Y013667D01*
X017046Y013618D02*
X015789Y013618D01*
X015741Y013570D02*
X017033Y013570D01*
X017033Y013521D02*
X015692Y013521D01*
X015644Y013473D02*
X017033Y013473D01*
X017033Y013424D02*
X015595Y013424D01*
X015547Y013376D02*
X017033Y013376D01*
X017033Y013327D02*
X015498Y013327D01*
X015450Y013278D02*
X017033Y013278D01*
X017033Y013230D02*
X015401Y013230D01*
X015352Y013181D02*
X017033Y013181D01*
X017033Y013133D02*
X015304Y013133D01*
X015255Y013084D02*
X017033Y013084D01*
X017033Y013036D02*
X015207Y013036D01*
X015158Y012987D02*
X017033Y012987D01*
X017033Y012939D02*
X015110Y012939D01*
X015061Y012890D02*
X017034Y012890D01*
X017054Y012842D02*
X015013Y012842D01*
X014964Y012793D02*
X017074Y012793D01*
X017094Y012744D02*
X014916Y012744D01*
X014867Y012696D02*
X017052Y012696D01*
X017004Y012647D02*
X014818Y012647D01*
X014770Y012599D02*
X016955Y012599D01*
X016907Y012550D02*
X014721Y012550D01*
X014673Y012502D02*
X016858Y012502D01*
X016810Y012453D02*
X014624Y012453D01*
X014576Y012405D02*
X016761Y012405D01*
X016713Y012356D02*
X014527Y012356D01*
X014479Y012308D02*
X016664Y012308D01*
X016615Y012259D02*
X014430Y012259D01*
X014382Y012210D02*
X016567Y012210D01*
X016518Y012162D02*
X014333Y012162D01*
X014287Y012113D02*
X016470Y012113D01*
X016421Y012065D02*
X014336Y012065D01*
X014579Y012016D02*
X016373Y012016D01*
X016324Y011968D02*
X014696Y011968D01*
X014777Y011919D02*
X016276Y011919D01*
X016227Y011871D02*
X014826Y011871D01*
X014874Y011822D02*
X016179Y011822D01*
X016130Y011774D02*
X014902Y011774D01*
X014922Y011725D02*
X016081Y011725D01*
X016033Y011676D02*
X014942Y011676D01*
X014960Y011628D02*
X015984Y011628D01*
X015936Y011579D02*
X014960Y011579D01*
X014960Y011531D02*
X015887Y011531D01*
X015839Y011482D02*
X014960Y011482D01*
X014960Y011434D02*
X015790Y011434D01*
X015742Y011385D02*
X014960Y011385D01*
X014960Y011337D02*
X015693Y011337D01*
X015645Y011288D02*
X014960Y011288D01*
X014960Y011240D02*
X015596Y011240D01*
X015548Y011191D02*
X014960Y011191D01*
X014960Y011143D02*
X015499Y011143D01*
X015450Y011094D02*
X014960Y011094D01*
X014960Y011045D02*
X015402Y011045D01*
X015353Y010997D02*
X014960Y010997D01*
X014960Y010948D02*
X015305Y010948D01*
X015256Y010900D02*
X014960Y010900D01*
X014960Y010851D02*
X015208Y010851D01*
X015159Y010803D02*
X014942Y010803D01*
X014922Y010754D02*
X015111Y010754D01*
X015062Y010706D02*
X014902Y010706D01*
X014874Y010657D02*
X015014Y010657D01*
X014965Y010609D02*
X014826Y010609D01*
X014777Y010560D02*
X014916Y010560D01*
X014868Y010511D02*
X014696Y010511D01*
X014579Y010463D02*
X014819Y010463D01*
X014378Y010463D02*
X014237Y010463D01*
X014261Y010511D02*
X014189Y010511D01*
X014180Y010560D02*
X014140Y010560D01*
X014131Y010609D02*
X014092Y010609D01*
X014083Y010657D02*
X014043Y010657D01*
X014055Y010706D02*
X013995Y010706D01*
X014035Y010754D02*
X013946Y010754D01*
X013942Y010803D02*
X014015Y010803D01*
X013997Y010851D02*
X013960Y010851D01*
X013960Y010900D02*
X013997Y010900D01*
X013997Y010948D02*
X013960Y010948D01*
X013960Y010997D02*
X013997Y010997D01*
X013997Y011045D02*
X013960Y011045D01*
X013960Y011094D02*
X013997Y011094D01*
X013997Y011143D02*
X013960Y011143D01*
X013960Y011191D02*
X013997Y011191D01*
X013997Y011240D02*
X013960Y011240D01*
X013960Y011288D02*
X013997Y011288D01*
X013997Y011337D02*
X013960Y011337D01*
X013960Y011385D02*
X013997Y011385D01*
X013997Y011434D02*
X013960Y011434D01*
X013960Y011482D02*
X013997Y011482D01*
X013997Y011531D02*
X013960Y011531D01*
X013960Y011579D02*
X013997Y011579D01*
X013997Y011628D02*
X013960Y011628D01*
X013942Y011676D02*
X014015Y011676D01*
X014011Y011725D02*
X013922Y011725D01*
X013902Y011774D02*
X013962Y011774D01*
X013914Y011822D02*
X013874Y011822D01*
X013865Y011871D02*
X013826Y011871D01*
X013817Y011919D02*
X013777Y011919D01*
X013768Y011968D02*
X013696Y011968D01*
X013719Y012016D02*
X013579Y012016D01*
X013378Y012016D02*
X012537Y012016D01*
X012489Y011968D02*
X013260Y011968D01*
X013180Y011919D02*
X012440Y011919D01*
X012392Y011871D02*
X013131Y011871D01*
X013083Y011822D02*
X012343Y011822D01*
X012295Y011774D02*
X013055Y011774D01*
X013035Y011725D02*
X012246Y011725D01*
X012198Y011676D02*
X013015Y011676D01*
X012997Y011628D02*
X012149Y011628D01*
X012101Y011579D02*
X012997Y011579D01*
X012997Y011531D02*
X012052Y011531D01*
X012003Y011482D02*
X012997Y011482D01*
X012997Y011434D02*
X011955Y011434D01*
X011906Y011385D02*
X012997Y011385D01*
X012997Y011337D02*
X011858Y011337D01*
X011809Y011288D02*
X012997Y011288D01*
X012997Y011240D02*
X011761Y011240D01*
X011712Y011191D02*
X012997Y011191D01*
X012997Y011143D02*
X011664Y011143D01*
X011615Y011094D02*
X012997Y011094D01*
X012997Y011045D02*
X011567Y011045D01*
X011460Y010997D02*
X012997Y010997D01*
X012997Y010948D02*
X011460Y010948D01*
X011460Y010900D02*
X012997Y010900D01*
X012997Y010851D02*
X011460Y010851D01*
X011442Y010803D02*
X013015Y010803D01*
X013035Y010754D02*
X011422Y010754D01*
X011402Y010706D02*
X013055Y010706D01*
X013083Y010657D02*
X011374Y010657D01*
X011326Y010609D02*
X013131Y010609D01*
X013180Y010560D02*
X011277Y010560D01*
X011196Y010511D02*
X013261Y010511D01*
X013378Y010463D02*
X011079Y010463D01*
X010878Y010463D02*
X010737Y010463D01*
X010761Y010511D02*
X010689Y010511D01*
X010680Y010560D02*
X010640Y010560D01*
X010631Y010609D02*
X010592Y010609D01*
X010583Y010657D02*
X010543Y010657D01*
X010555Y010706D02*
X010495Y010706D01*
X010535Y010754D02*
X010446Y010754D01*
X010442Y010803D02*
X010515Y010803D01*
X010497Y010851D02*
X010460Y010851D01*
X010460Y010900D02*
X010497Y010900D01*
X010497Y010948D02*
X010460Y010948D01*
X010460Y010997D02*
X010497Y010997D01*
X010497Y011045D02*
X010460Y011045D01*
X010460Y011094D02*
X010497Y011094D01*
X010497Y011143D02*
X010460Y011143D01*
X010460Y011191D02*
X010497Y011191D01*
X010497Y011240D02*
X010460Y011240D01*
X010460Y011288D02*
X010497Y011288D01*
X010497Y011337D02*
X010460Y011337D01*
X010460Y011385D02*
X010497Y011385D01*
X010497Y011434D02*
X010460Y011434D01*
X010460Y011482D02*
X010497Y011482D01*
X010497Y011531D02*
X010460Y011531D01*
X010460Y011579D02*
X010497Y011579D01*
X010497Y011628D02*
X010460Y011628D01*
X010442Y011676D02*
X010515Y011676D01*
X010511Y011725D02*
X010422Y011725D01*
X010402Y011774D02*
X010462Y011774D01*
X010414Y011822D02*
X010374Y011822D01*
X010365Y011871D02*
X010326Y011871D01*
X010317Y011919D02*
X010277Y011919D01*
X010268Y011968D02*
X010196Y011968D01*
X010219Y012016D02*
X010079Y012016D01*
X009878Y012016D02*
X008087Y012016D01*
X008039Y011968D02*
X009760Y011968D01*
X009680Y011919D02*
X007990Y011919D01*
X007942Y011871D02*
X009631Y011871D01*
X009583Y011822D02*
X007893Y011822D01*
X007902Y011774D02*
X009555Y011774D01*
X009535Y011725D02*
X007922Y011725D01*
X007942Y011676D02*
X009515Y011676D01*
X009497Y011628D02*
X007960Y011628D01*
X007960Y011579D02*
X009497Y011579D01*
X009497Y011531D02*
X007960Y011531D01*
X007960Y011482D02*
X009497Y011482D01*
X009497Y011434D02*
X007960Y011434D01*
X007960Y011385D02*
X009497Y011385D01*
X009497Y011337D02*
X007960Y011337D01*
X007960Y011288D02*
X009497Y011288D01*
X009497Y011240D02*
X007960Y011240D01*
X007960Y011191D02*
X009497Y011191D01*
X009497Y011143D02*
X007960Y011143D01*
X007960Y011094D02*
X009497Y011094D01*
X009497Y011045D02*
X007960Y011045D01*
X007960Y010997D02*
X009497Y010997D01*
X009497Y010948D02*
X007960Y010948D01*
X007960Y010900D02*
X009497Y010900D01*
X009497Y010851D02*
X007960Y010851D01*
X007942Y010803D02*
X009515Y010803D01*
X009535Y010754D02*
X007922Y010754D01*
X007902Y010706D02*
X009555Y010706D01*
X009583Y010657D02*
X007874Y010657D01*
X007826Y010609D02*
X009631Y010609D01*
X009680Y010560D02*
X007777Y010560D01*
X007696Y010511D02*
X009761Y010511D01*
X009878Y010463D02*
X007579Y010463D01*
X007378Y010463D02*
X007237Y010463D01*
X007261Y010511D02*
X007189Y010511D01*
X007180Y010560D02*
X007140Y010560D01*
X007131Y010609D02*
X007092Y010609D01*
X007083Y010657D02*
X007043Y010657D01*
X007055Y010706D02*
X006995Y010706D01*
X007035Y010754D02*
X006946Y010754D01*
X006942Y010803D02*
X007015Y010803D01*
X006997Y010851D02*
X006960Y010851D01*
X006960Y010900D02*
X006997Y010900D01*
X006997Y010948D02*
X006960Y010948D01*
X006960Y010997D02*
X006997Y010997D01*
X006997Y011045D02*
X006960Y011045D01*
X006960Y011094D02*
X006997Y011094D01*
X006997Y011143D02*
X006960Y011143D01*
X006960Y011191D02*
X006997Y011191D01*
X006997Y011240D02*
X006960Y011240D01*
X006960Y011288D02*
X006997Y011288D01*
X006997Y011337D02*
X006960Y011337D01*
X006960Y011385D02*
X006997Y011385D01*
X006997Y011434D02*
X006960Y011434D01*
X006960Y011482D02*
X006997Y011482D01*
X006997Y011531D02*
X006960Y011531D01*
X006960Y011579D02*
X006997Y011579D01*
X006997Y011628D02*
X006960Y011628D01*
X006942Y011676D02*
X007015Y011676D01*
X007011Y011725D02*
X006922Y011725D01*
X006902Y011774D02*
X006962Y011774D01*
X006914Y011822D02*
X006874Y011822D01*
X006865Y011871D02*
X006826Y011871D01*
X006817Y011919D02*
X006777Y011919D01*
X006768Y011968D02*
X006696Y011968D01*
X006720Y012016D02*
X006579Y012016D01*
X006378Y012016D02*
X005537Y012016D01*
X005489Y011968D02*
X006260Y011968D01*
X006180Y011919D02*
X005440Y011919D01*
X005392Y011871D02*
X006131Y011871D01*
X006083Y011822D02*
X005343Y011822D01*
X005295Y011774D02*
X006055Y011774D01*
X006035Y011725D02*
X005246Y011725D01*
X005198Y011676D02*
X006015Y011676D01*
X005997Y011628D02*
X005149Y011628D01*
X005101Y011579D02*
X005997Y011579D01*
X005997Y011531D02*
X005052Y011531D01*
X005003Y011482D02*
X005997Y011482D01*
X005997Y011434D02*
X004955Y011434D01*
X004906Y011385D02*
X005997Y011385D01*
X005997Y011337D02*
X004858Y011337D01*
X004809Y011288D02*
X005997Y011288D01*
X005997Y011240D02*
X004761Y011240D01*
X004712Y011191D02*
X005997Y011191D01*
X005997Y011143D02*
X004664Y011143D01*
X004460Y011094D02*
X005997Y011094D01*
X005997Y011045D02*
X004460Y011045D01*
X004460Y010997D02*
X005997Y010997D01*
X005997Y010948D02*
X004460Y010948D01*
X004460Y010900D02*
X005997Y010900D01*
X005997Y010851D02*
X004460Y010851D01*
X004442Y010803D02*
X006015Y010803D01*
X006035Y010754D02*
X004422Y010754D01*
X004402Y010706D02*
X006055Y010706D01*
X006083Y010657D02*
X004374Y010657D01*
X004326Y010609D02*
X006131Y010609D01*
X006180Y010560D02*
X004277Y010560D01*
X004196Y010511D02*
X006261Y010511D01*
X006378Y010463D02*
X004079Y010463D01*
X001993Y010463D02*
X000478Y010463D01*
X000478Y010511D02*
X001993Y010511D01*
X001993Y010560D02*
X000478Y010560D01*
X000478Y010609D02*
X001993Y010609D01*
X001993Y010657D02*
X000478Y010657D01*
X000478Y010706D02*
X001993Y010706D01*
X001993Y010754D02*
X000478Y010754D01*
X000478Y010803D02*
X001993Y010803D01*
X001993Y010851D02*
X000478Y010851D01*
X000478Y010900D02*
X001993Y010900D01*
X001993Y010948D02*
X000478Y010948D01*
X000478Y010997D02*
X001993Y010997D01*
X001993Y011045D02*
X000478Y011045D01*
X000478Y011094D02*
X001993Y011094D01*
X001993Y011143D02*
X000478Y011143D01*
X000478Y011191D02*
X001993Y011191D01*
X001993Y011240D02*
X000478Y011240D01*
X000478Y011288D02*
X001993Y011288D01*
X001993Y011337D02*
X000478Y011337D01*
X000478Y011385D02*
X001993Y011385D01*
X001993Y011434D02*
X000478Y011434D01*
X000478Y011482D02*
X001993Y011482D01*
X001993Y011531D02*
X000478Y011531D01*
X000478Y011579D02*
X001993Y011579D01*
X001993Y011628D02*
X000478Y011628D01*
X000478Y011676D02*
X001993Y011676D01*
X001993Y011725D02*
X000478Y011725D01*
X000478Y011774D02*
X001993Y011774D01*
X001993Y011822D02*
X000478Y011822D01*
X000478Y011871D02*
X001993Y011871D01*
X001993Y011919D02*
X000478Y011919D01*
X000478Y011968D02*
X001993Y011968D01*
X001993Y012016D02*
X000478Y012016D01*
X000478Y012065D02*
X001993Y012065D01*
X001993Y012113D02*
X000478Y012113D01*
X000478Y012162D02*
X001993Y012162D01*
X001993Y012210D02*
X000478Y012210D01*
X000478Y012259D02*
X001993Y012259D01*
X001993Y012308D02*
X000478Y012308D01*
X000478Y012356D02*
X001993Y012356D01*
X002011Y012405D02*
X000478Y012405D01*
X000478Y012453D02*
X002060Y012453D01*
X002108Y012502D02*
X000478Y012502D01*
X000478Y012550D02*
X014057Y012550D01*
X014105Y012599D02*
X000478Y012599D01*
X000478Y012647D02*
X014154Y012647D01*
X014202Y012696D02*
X000478Y012696D01*
X000478Y012744D02*
X014251Y012744D01*
X014299Y012793D02*
X000478Y012793D01*
X000478Y012842D02*
X014348Y012842D01*
X014397Y012890D02*
X000478Y012890D01*
X000478Y012939D02*
X014445Y012939D01*
X014494Y012987D02*
X000478Y012987D01*
X000478Y013036D02*
X014542Y013036D01*
X014591Y013084D02*
X000478Y013084D01*
X000478Y013133D02*
X014639Y013133D01*
X014688Y013181D02*
X000478Y013181D01*
X000478Y013230D02*
X014736Y013230D01*
X014785Y013278D02*
X000478Y013278D01*
X000478Y013327D02*
X014833Y013327D01*
X014882Y013376D02*
X000478Y013376D01*
X000478Y013424D02*
X001108Y013424D01*
X000991Y013473D02*
X000478Y013473D01*
X000478Y013521D02*
X000874Y013521D01*
X000798Y013570D02*
X000478Y013570D01*
X000478Y013618D02*
X000750Y013618D01*
X000701Y013667D02*
X000478Y013667D01*
X000478Y013715D02*
X000653Y013715D01*
X000604Y013764D02*
X000478Y013764D01*
X000478Y013812D02*
X000580Y013812D01*
X000560Y013861D02*
X000478Y013861D01*
X000478Y013909D02*
X000540Y013909D01*
X000520Y013958D02*
X000478Y013958D01*
X000478Y014007D02*
X000500Y014007D01*
X000480Y014055D02*
X000478Y014055D01*
X001781Y013570D02*
X015076Y013570D01*
X015125Y013618D02*
X001829Y013618D01*
X001878Y013667D02*
X015173Y013667D01*
X015222Y013715D02*
X001926Y013715D01*
X001975Y013764D02*
X015270Y013764D01*
X015319Y013812D02*
X001999Y013812D01*
X002019Y013861D02*
X015367Y013861D01*
X015416Y013909D02*
X002039Y013909D01*
X002059Y013958D02*
X015464Y013958D01*
X015513Y014007D02*
X002079Y014007D01*
X002099Y014055D02*
X015562Y014055D01*
X015610Y014104D02*
X002105Y014104D01*
X002105Y014152D02*
X015659Y014152D01*
X015707Y014201D02*
X002105Y014201D01*
X002105Y014249D02*
X015756Y014249D01*
X015804Y014298D02*
X002105Y014298D01*
X002105Y014346D02*
X015853Y014346D01*
X015901Y014395D02*
X002105Y014395D01*
X002084Y014443D02*
X015950Y014443D01*
X015998Y014492D02*
X002064Y014492D01*
X002044Y014541D02*
X016047Y014541D01*
X016096Y014589D02*
X002024Y014589D01*
X002004Y014638D02*
X016144Y014638D01*
X016372Y014201D02*
X031685Y014201D01*
X031695Y014152D02*
X031734Y014152D01*
X031744Y014104D02*
X031782Y014104D01*
X031792Y014055D02*
X031831Y014055D01*
X031841Y014007D02*
X031879Y014007D01*
X031889Y013958D02*
X031928Y013958D01*
X031923Y013909D02*
X031976Y013909D01*
X032025Y013861D02*
X031923Y013861D01*
X031923Y013812D02*
X032033Y013812D01*
X032033Y013764D02*
X031923Y013764D01*
X031923Y013715D02*
X032033Y013715D01*
X032033Y013667D02*
X031923Y013667D01*
X031923Y013618D02*
X032033Y013618D01*
X032033Y013570D02*
X031923Y013570D01*
X031889Y013521D02*
X032068Y013521D01*
X032116Y013473D02*
X031841Y013473D01*
X031792Y013424D02*
X032165Y013424D01*
X032213Y013376D02*
X031744Y013376D01*
X031713Y013327D02*
X032262Y013327D01*
X032707Y013278D02*
X031713Y013278D01*
X031713Y013230D02*
X032756Y013230D01*
X032804Y013181D02*
X031713Y013181D01*
X031713Y013133D02*
X032853Y013133D01*
X032902Y013084D02*
X031713Y013084D01*
X031713Y013036D02*
X032950Y013036D01*
X032999Y012987D02*
X031713Y012987D01*
X031713Y012939D02*
X033047Y012939D01*
X033096Y012890D02*
X031713Y012890D01*
X031713Y012842D02*
X033144Y012842D01*
X033193Y012793D02*
X031713Y012793D01*
X031713Y012744D02*
X035743Y012744D01*
X035743Y012696D02*
X031713Y012696D01*
X031243Y012696D02*
X030713Y012696D01*
X030713Y012744D02*
X031243Y012744D01*
X031243Y012793D02*
X030713Y012793D01*
X030713Y012842D02*
X031243Y012842D01*
X031243Y012890D02*
X030713Y012890D01*
X030712Y012939D02*
X031243Y012939D01*
X031243Y012987D02*
X030663Y012987D01*
X030615Y013036D02*
X031243Y013036D01*
X031243Y013084D02*
X030216Y013084D01*
X030168Y013133D02*
X031243Y013133D01*
X031243Y013181D02*
X030119Y013181D01*
X030071Y013230D02*
X031243Y013230D01*
X031243Y013278D02*
X030022Y013278D01*
X029973Y013327D02*
X031243Y013327D01*
X031213Y013376D02*
X029925Y013376D01*
X029876Y013424D02*
X031165Y013424D01*
X031116Y013473D02*
X029828Y013473D01*
X029779Y013521D02*
X031068Y013521D01*
X031033Y013570D02*
X029731Y013570D01*
X029682Y013618D02*
X031033Y013618D01*
X031033Y013667D02*
X029634Y013667D01*
X029585Y013715D02*
X031033Y013715D01*
X031033Y013764D02*
X029537Y013764D01*
X031033Y013812D02*
X022795Y013812D01*
X022844Y013764D02*
X024420Y013764D01*
X024372Y013715D02*
X022871Y013715D01*
X022883Y013685D02*
X023163Y013685D01*
X023423Y013424D01*
X023534Y013424D01*
X023533Y013376D02*
X023423Y013376D01*
X023423Y013424D02*
X023423Y013055D01*
X023163Y012795D01*
X022883Y012795D01*
X022856Y012728D01*
X022731Y012602D01*
X022567Y012535D01*
X022390Y012535D01*
X022226Y012602D01*
X022101Y012728D01*
X022033Y012891D01*
X022033Y013588D01*
X022101Y013752D01*
X022226Y013877D01*
X022390Y013945D01*
X022567Y013945D01*
X022731Y013877D01*
X022856Y013752D01*
X022883Y013685D01*
X022746Y013861D02*
X031033Y013861D01*
X031033Y013909D02*
X022652Y013909D01*
X022305Y013909D02*
X021652Y013909D01*
X021746Y013861D02*
X022210Y013861D01*
X022162Y013812D02*
X021795Y013812D01*
X021844Y013764D02*
X022113Y013764D01*
X022086Y013715D02*
X021871Y013715D01*
X021891Y013667D02*
X022066Y013667D01*
X022046Y013618D02*
X021911Y013618D01*
X021923Y013570D02*
X022033Y013570D01*
X022033Y013521D02*
X021923Y013521D01*
X021923Y013473D02*
X022033Y013473D01*
X022033Y013424D02*
X021923Y013424D01*
X021923Y013376D02*
X022033Y013376D01*
X022033Y013327D02*
X021923Y013327D01*
X021923Y013278D02*
X022033Y013278D01*
X022033Y013230D02*
X021923Y013230D01*
X021923Y013181D02*
X022033Y013181D01*
X022033Y013133D02*
X021923Y013133D01*
X021923Y013084D02*
X022033Y013084D01*
X022033Y013036D02*
X021923Y013036D01*
X021923Y012987D02*
X022033Y012987D01*
X022033Y012939D02*
X021923Y012939D01*
X021923Y012890D02*
X022034Y012890D01*
X022054Y012842D02*
X021903Y012842D01*
X021883Y012793D02*
X022074Y012793D01*
X022094Y012744D02*
X021863Y012744D01*
X021824Y012696D02*
X022133Y012696D01*
X022181Y012647D02*
X021775Y012647D01*
X021722Y012599D02*
X022235Y012599D01*
X022352Y012550D02*
X021605Y012550D01*
X021352Y012550D02*
X021121Y012550D01*
X021073Y012502D02*
X023908Y012502D01*
X023957Y012550D02*
X022605Y012550D01*
X022722Y012599D02*
X024005Y012599D01*
X024054Y012647D02*
X022775Y012647D01*
X022824Y012696D02*
X024102Y012696D01*
X024151Y012744D02*
X022863Y012744D01*
X022883Y012793D02*
X024199Y012793D01*
X024210Y012842D02*
X024248Y012842D01*
X024258Y012890D02*
X024297Y012890D01*
X024307Y012939D02*
X024345Y012939D01*
X024355Y012987D02*
X024394Y012987D01*
X024404Y013036D02*
X024442Y013036D01*
X024423Y013084D02*
X024491Y013084D01*
X024454Y013133D02*
X025389Y013133D01*
X025438Y013181D02*
X024502Y013181D01*
X024551Y013230D02*
X025486Y013230D01*
X025535Y013278D02*
X024600Y013278D01*
X024275Y013618D02*
X024229Y013618D01*
X024181Y013667D02*
X024323Y013667D01*
X023776Y013667D02*
X023181Y013667D01*
X023229Y013618D02*
X023728Y013618D01*
X023679Y013570D02*
X023278Y013570D01*
X023326Y013521D02*
X023631Y013521D01*
X023582Y013473D02*
X023375Y013473D01*
X023423Y013327D02*
X023533Y013327D01*
X023533Y013278D02*
X023423Y013278D01*
X023423Y013230D02*
X023533Y013230D01*
X023533Y013181D02*
X023423Y013181D01*
X023423Y013133D02*
X023533Y013133D01*
X023533Y013084D02*
X023423Y013084D01*
X023404Y013036D02*
X023553Y013036D01*
X023602Y012987D02*
X023355Y012987D01*
X023307Y012939D02*
X023650Y012939D01*
X023699Y012890D02*
X023258Y012890D01*
X023210Y012842D02*
X023747Y012842D01*
X023860Y012453D02*
X021024Y012453D01*
X021170Y012599D02*
X021235Y012599D01*
X020651Y012744D02*
X020356Y012744D01*
X020307Y012793D02*
X020699Y012793D01*
X020748Y012842D02*
X020259Y012842D01*
X020210Y012890D02*
X020797Y012890D01*
X020845Y012939D02*
X020162Y012939D01*
X020113Y012987D02*
X020894Y012987D01*
X020942Y013036D02*
X020065Y013036D01*
X020016Y013084D02*
X020991Y013084D01*
X021033Y013133D02*
X019968Y013133D01*
X019339Y013133D02*
X018923Y013133D01*
X018923Y013181D02*
X021033Y013181D01*
X021033Y013230D02*
X018923Y013230D01*
X018923Y013278D02*
X021033Y013278D01*
X021033Y013327D02*
X018923Y013327D01*
X018923Y013376D02*
X021033Y013376D01*
X021033Y013424D02*
X018923Y013424D01*
X018923Y013473D02*
X021033Y013473D01*
X021033Y013521D02*
X018923Y013521D01*
X018923Y013570D02*
X021033Y013570D01*
X021046Y013618D02*
X018911Y013618D01*
X018891Y013667D02*
X021066Y013667D01*
X021086Y013715D02*
X018871Y013715D01*
X018844Y013764D02*
X021113Y013764D01*
X021162Y013812D02*
X018795Y013812D01*
X018746Y013861D02*
X021210Y013861D01*
X021305Y013909D02*
X018652Y013909D01*
X018923Y013084D02*
X019291Y013084D01*
X019242Y013036D02*
X018923Y013036D01*
X018923Y012987D02*
X019194Y012987D01*
X019145Y012939D02*
X018923Y012939D01*
X018923Y012890D02*
X019097Y012890D01*
X019048Y012842D02*
X018903Y012842D01*
X018883Y012793D02*
X018999Y012793D01*
X018951Y012744D02*
X018863Y012744D01*
X018902Y012696D02*
X018824Y012696D01*
X018854Y012647D02*
X018775Y012647D01*
X018749Y012599D02*
X018805Y012599D01*
X018743Y011725D02*
X016746Y011725D01*
X016698Y011676D02*
X018743Y011676D01*
X018743Y011628D02*
X016649Y011628D01*
X016601Y011579D02*
X018743Y011579D01*
X018743Y011531D02*
X016552Y011531D01*
X016503Y011482D02*
X018743Y011482D01*
X018743Y011434D02*
X016455Y011434D01*
X016406Y011385D02*
X018743Y011385D01*
X018743Y011337D02*
X016358Y011337D01*
X016309Y011288D02*
X018743Y011288D01*
X018743Y011240D02*
X016261Y011240D01*
X016212Y011191D02*
X018743Y011191D01*
X018743Y011143D02*
X016164Y011143D01*
X016115Y011094D02*
X018743Y011094D01*
X018743Y011045D02*
X016067Y011045D01*
X016018Y010997D02*
X018743Y010997D01*
X018743Y010948D02*
X015969Y010948D01*
X015921Y010900D02*
X018743Y010900D01*
X018743Y010851D02*
X015872Y010851D01*
X015824Y010803D02*
X018743Y010803D01*
X018743Y010754D02*
X015775Y010754D01*
X015727Y010706D02*
X018743Y010706D01*
X018743Y010657D02*
X015678Y010657D01*
X015630Y010609D02*
X018743Y010609D01*
X018743Y010560D02*
X015581Y010560D01*
X015568Y010511D02*
X015533Y010511D01*
X015519Y010463D02*
X015484Y010463D01*
X015471Y010414D02*
X015435Y010414D01*
X015422Y010366D02*
X015387Y010366D01*
X015374Y010317D02*
X015338Y010317D01*
X015325Y010269D02*
X015290Y010269D01*
X015277Y010220D02*
X015241Y010220D01*
X015228Y010172D02*
X015193Y010172D01*
X015180Y010123D02*
X015144Y010123D01*
X015131Y010075D02*
X015096Y010075D01*
X015082Y010026D02*
X015047Y010026D01*
X015034Y009977D02*
X014999Y009977D01*
X014985Y009929D02*
X011271Y009929D01*
X011223Y009977D02*
X014058Y009977D01*
X014010Y010026D02*
X011174Y010026D01*
X011126Y010075D02*
X013961Y010075D01*
X013913Y010123D02*
X011077Y010123D01*
X011029Y010172D02*
X013864Y010172D01*
X013816Y010220D02*
X010980Y010220D01*
X010932Y010269D02*
X013767Y010269D01*
X013719Y010317D02*
X010883Y010317D01*
X010835Y010366D02*
X013670Y010366D01*
X013621Y010414D02*
X010786Y010414D01*
X010364Y010172D02*
X007529Y010172D01*
X007480Y010220D02*
X010316Y010220D01*
X010267Y010269D02*
X007432Y010269D01*
X007383Y010317D02*
X010219Y010317D01*
X010170Y010366D02*
X007335Y010366D01*
X007286Y010414D02*
X010121Y010414D01*
X010413Y010123D02*
X007577Y010123D01*
X007626Y010075D02*
X010461Y010075D01*
X010510Y010026D02*
X007674Y010026D01*
X007723Y009977D02*
X010558Y009977D01*
X010607Y009929D02*
X007771Y009929D01*
X007820Y009880D02*
X010655Y009880D01*
X010704Y009832D02*
X007869Y009832D01*
X007917Y009783D02*
X010753Y009783D01*
X010801Y009735D02*
X007966Y009735D01*
X008014Y009686D02*
X010850Y009686D01*
X010898Y009638D02*
X008063Y009638D01*
X005728Y008473D02*
X018082Y008473D01*
X018131Y008521D02*
X005679Y008521D01*
X005776Y008424D02*
X018034Y008424D01*
X018033Y008376D02*
X005825Y008376D01*
X005873Y008327D02*
X018033Y008327D01*
X018033Y008278D02*
X005922Y008278D01*
X005971Y008230D02*
X018033Y008230D01*
X018033Y008181D02*
X006019Y008181D01*
X006068Y008133D02*
X018033Y008133D01*
X018033Y008084D02*
X006116Y008084D01*
X006165Y008036D02*
X018053Y008036D01*
X018102Y007987D02*
X006213Y007987D01*
X004017Y006919D02*
X000478Y006919D01*
X000478Y006871D02*
X004065Y006871D01*
X004114Y006822D02*
X000478Y006822D01*
X000478Y006774D02*
X004162Y006774D01*
X004211Y006725D02*
X000478Y006725D01*
X000478Y006677D02*
X004259Y006677D01*
X004308Y006628D02*
X000478Y006628D01*
X000478Y006579D02*
X004356Y006579D01*
X004405Y006531D02*
X000478Y006531D01*
X000478Y006482D02*
X004453Y006482D01*
X004502Y006434D02*
X000478Y006434D01*
X000478Y006385D02*
X004551Y006385D01*
X004599Y006337D02*
X000478Y006337D01*
X000478Y006288D02*
X004648Y006288D01*
X004696Y006240D02*
X000478Y006240D01*
X000478Y006191D02*
X004745Y006191D01*
X004793Y006143D02*
X000478Y006143D01*
X000478Y006094D02*
X004842Y006094D01*
X004890Y006045D02*
X000478Y006045D01*
X000478Y005997D02*
X004939Y005997D01*
X004987Y005948D02*
X000478Y005948D01*
X000478Y005900D02*
X005036Y005900D01*
X005084Y005851D02*
X000478Y005851D01*
X000478Y005803D02*
X005133Y005803D01*
X005161Y005754D02*
X000478Y005754D01*
X000478Y005706D02*
X005112Y005706D01*
X005064Y005657D02*
X000478Y005657D01*
X000478Y005609D02*
X005015Y005609D01*
X004967Y005560D02*
X000478Y005560D01*
X000478Y006968D02*
X003968Y006968D01*
X003919Y007016D02*
X000478Y007016D01*
X000478Y007065D02*
X003871Y007065D01*
X003822Y007113D02*
X000478Y007113D01*
X000478Y007162D02*
X003774Y007162D01*
X003725Y007211D02*
X000478Y007211D01*
X000478Y007259D02*
X003677Y007259D01*
X003628Y007308D02*
X000478Y007308D01*
X000478Y007356D02*
X003580Y007356D01*
X003531Y007405D02*
X000478Y007405D01*
X000478Y007453D02*
X003483Y007453D01*
X003434Y007502D02*
X000478Y007502D01*
X000478Y007550D02*
X003385Y007550D01*
X003337Y007599D02*
X000478Y007599D01*
X000478Y007647D02*
X003288Y007647D01*
X003240Y007696D02*
X000478Y007696D01*
X000478Y007744D02*
X003191Y007744D01*
X003143Y007793D02*
X000478Y007793D01*
X000478Y007842D02*
X003094Y007842D01*
X003046Y007890D02*
X000478Y007890D01*
X000478Y007939D02*
X002997Y007939D01*
X002949Y007987D02*
X000478Y007987D01*
X000478Y008036D02*
X002900Y008036D01*
X002851Y008084D02*
X000478Y008084D01*
X000478Y008133D02*
X002803Y008133D01*
X002754Y008181D02*
X000478Y008181D01*
X000478Y008230D02*
X002706Y008230D01*
X002657Y008278D02*
X000478Y008278D01*
X000478Y008327D02*
X002609Y008327D01*
X002560Y008376D02*
X000478Y008376D01*
X000478Y008424D02*
X002512Y008424D01*
X002463Y008473D02*
X000478Y008473D01*
X000478Y008521D02*
X002415Y008521D01*
X002366Y008570D02*
X000478Y008570D01*
X000478Y008618D02*
X002318Y008618D01*
X002269Y008667D02*
X000478Y008667D01*
X000478Y008715D02*
X002220Y008715D01*
X002172Y008764D02*
X000478Y008764D01*
X000478Y008812D02*
X002123Y008812D01*
X002075Y008861D02*
X000478Y008861D01*
X000478Y008910D02*
X002026Y008910D01*
X001993Y008958D02*
X000478Y008958D01*
X000478Y009007D02*
X001993Y009007D01*
X001993Y009055D02*
X000478Y009055D01*
X000478Y009104D02*
X001993Y009104D01*
X001993Y009152D02*
X000478Y009152D01*
X000478Y009201D02*
X001993Y009201D01*
X001993Y009249D02*
X000478Y009249D01*
X000478Y009298D02*
X001993Y009298D01*
X001993Y009346D02*
X000478Y009346D01*
X000478Y009395D02*
X001993Y009395D01*
X001993Y009444D02*
X000478Y009444D01*
X000478Y009492D02*
X001993Y009492D01*
X001993Y009541D02*
X000478Y009541D01*
X000478Y009589D02*
X001993Y009589D01*
X001993Y009638D02*
X000478Y009638D01*
X000478Y009686D02*
X001993Y009686D01*
X001993Y009735D02*
X000478Y009735D01*
X000478Y009783D02*
X001993Y009783D01*
X001993Y009832D02*
X000478Y009832D01*
X000478Y009880D02*
X001993Y009880D01*
X001993Y009929D02*
X000478Y009929D01*
X000478Y009977D02*
X001993Y009977D01*
X001993Y010026D02*
X000478Y010026D01*
X000478Y010075D02*
X001993Y010075D01*
X001993Y010123D02*
X000478Y010123D01*
X000478Y010172D02*
X001993Y010172D01*
X001993Y010220D02*
X000478Y010220D01*
X000478Y010269D02*
X001993Y010269D01*
X001993Y010317D02*
X000478Y010317D01*
X000478Y010366D02*
X001993Y010366D01*
X001993Y010414D02*
X000478Y010414D01*
X004196Y011968D02*
X004824Y011968D01*
X004873Y012016D02*
X004079Y012016D01*
X004277Y011919D02*
X004776Y011919D01*
X004727Y011871D02*
X004326Y011871D01*
X004374Y011822D02*
X004679Y011822D01*
X004630Y011774D02*
X004402Y011774D01*
X004422Y011725D02*
X004581Y011725D01*
X004533Y011676D02*
X004442Y011676D01*
X004460Y011628D02*
X004484Y011628D01*
X004921Y012065D02*
X003836Y012065D01*
X003787Y012113D02*
X004970Y012113D01*
X005018Y012162D02*
X003739Y012162D01*
X003690Y012210D02*
X005067Y012210D01*
X005115Y012259D02*
X003641Y012259D01*
X003593Y012308D02*
X005164Y012308D01*
X005213Y012356D02*
X003544Y012356D01*
X003496Y012405D02*
X005261Y012405D01*
X005310Y012453D02*
X003447Y012453D01*
X003399Y012502D02*
X005358Y012502D01*
X006899Y012502D02*
X007908Y012502D01*
X007860Y012453D02*
X006947Y012453D01*
X006996Y012405D02*
X007811Y012405D01*
X007763Y012356D02*
X007044Y012356D01*
X007093Y012308D02*
X007714Y012308D01*
X007665Y012259D02*
X007141Y012259D01*
X007190Y012210D02*
X007617Y012210D01*
X007568Y012162D02*
X007239Y012162D01*
X007287Y012113D02*
X007520Y012113D01*
X007471Y012065D02*
X007336Y012065D01*
X010399Y012502D02*
X012358Y012502D01*
X012310Y012453D02*
X010447Y012453D01*
X010496Y012405D02*
X012261Y012405D01*
X012213Y012356D02*
X010544Y012356D01*
X010593Y012308D02*
X012164Y012308D01*
X012115Y012259D02*
X010641Y012259D01*
X010690Y012210D02*
X012067Y012210D01*
X012018Y012162D02*
X010739Y012162D01*
X010787Y012113D02*
X011970Y012113D01*
X011921Y012065D02*
X010836Y012065D01*
X011079Y012016D02*
X011873Y012016D01*
X011824Y011968D02*
X011196Y011968D01*
X011277Y011919D02*
X011776Y011919D01*
X011727Y011871D02*
X011326Y011871D01*
X011374Y011822D02*
X011679Y011822D01*
X011630Y011774D02*
X011402Y011774D01*
X011422Y011725D02*
X011581Y011725D01*
X011533Y011676D02*
X011442Y011676D01*
X011460Y011628D02*
X011484Y011628D01*
X013899Y012502D02*
X014008Y012502D01*
X013960Y012453D02*
X013947Y012453D01*
X014931Y013424D02*
X001471Y013424D01*
X001588Y013473D02*
X014979Y013473D01*
X015028Y013521D02*
X001705Y013521D01*
X001984Y014686D02*
X039253Y014686D01*
X039253Y014638D02*
X038498Y014638D01*
X038460Y014654D02*
X038759Y014529D01*
X038989Y014300D01*
X039113Y014000D01*
X039113Y013676D01*
X038989Y013376D01*
X038759Y013147D01*
X038460Y013023D01*
X038135Y013023D01*
X037835Y013147D01*
X037606Y013376D01*
X037482Y013676D01*
X037482Y014000D01*
X037606Y014300D01*
X037835Y014529D01*
X038135Y014654D01*
X038460Y014654D01*
X038615Y014589D02*
X039253Y014589D01*
X039253Y014541D02*
X038733Y014541D01*
X038797Y014492D02*
X039253Y014492D01*
X039253Y014443D02*
X038845Y014443D01*
X038894Y014395D02*
X039253Y014395D01*
X039253Y014346D02*
X038942Y014346D01*
X038990Y014298D02*
X039253Y014298D01*
X039253Y014249D02*
X039010Y014249D01*
X039030Y014201D02*
X039253Y014201D01*
X039253Y014152D02*
X039050Y014152D01*
X039070Y014104D02*
X039253Y014104D01*
X039253Y014055D02*
X039090Y014055D01*
X039110Y014007D02*
X039253Y014007D01*
X039253Y013958D02*
X039113Y013958D01*
X039113Y013909D02*
X039253Y013909D01*
X039253Y013861D02*
X039113Y013861D01*
X039113Y013812D02*
X039253Y013812D01*
X039253Y013764D02*
X039113Y013764D01*
X039113Y013715D02*
X039253Y013715D01*
X039253Y013667D02*
X039109Y013667D01*
X039089Y013618D02*
X039253Y013618D01*
X039253Y013570D02*
X039069Y013570D01*
X039049Y013521D02*
X039253Y013521D01*
X039253Y013473D02*
X039029Y013473D01*
X039009Y013424D02*
X039253Y013424D01*
X039253Y013376D02*
X038988Y013376D01*
X038940Y013327D02*
X039253Y013327D01*
X039253Y013278D02*
X038891Y013278D01*
X038842Y013230D02*
X039253Y013230D01*
X039253Y013181D02*
X038794Y013181D01*
X038726Y013133D02*
X039253Y013133D01*
X039253Y013084D02*
X038609Y013084D01*
X038491Y013036D02*
X039253Y013036D01*
X039253Y012987D02*
X037063Y012987D01*
X037015Y013036D02*
X038103Y013036D01*
X037986Y013084D02*
X036966Y013084D01*
X036918Y013133D02*
X037869Y013133D01*
X037801Y013181D02*
X036869Y013181D01*
X036839Y013211D02*
X037366Y012685D01*
X037663Y012685D01*
X037923Y012424D01*
X037923Y012055D01*
X037663Y011795D01*
X037294Y011795D01*
X037033Y012055D01*
X037033Y012352D01*
X036381Y013005D01*
X036324Y013062D01*
X036226Y013102D01*
X036101Y013228D01*
X036033Y013391D01*
X036033Y014088D01*
X036101Y014252D01*
X036226Y014377D01*
X036390Y014445D01*
X036567Y014445D01*
X036731Y014377D01*
X036856Y014252D01*
X036923Y014088D01*
X036923Y013391D01*
X036856Y013228D01*
X036839Y013211D01*
X036857Y013230D02*
X037752Y013230D01*
X037704Y013278D02*
X036877Y013278D01*
X036897Y013327D02*
X037655Y013327D01*
X037607Y013376D02*
X036917Y013376D01*
X036923Y013424D02*
X037586Y013424D01*
X037566Y013473D02*
X036923Y013473D01*
X036923Y013521D02*
X037546Y013521D01*
X037526Y013570D02*
X036923Y013570D01*
X036923Y013618D02*
X037506Y013618D01*
X037486Y013667D02*
X036923Y013667D01*
X036923Y013715D02*
X037482Y013715D01*
X037482Y013764D02*
X036923Y013764D01*
X036923Y013812D02*
X037482Y013812D01*
X037482Y013861D02*
X036923Y013861D01*
X036923Y013909D02*
X037482Y013909D01*
X037482Y013958D02*
X036923Y013958D01*
X036923Y014007D02*
X037484Y014007D01*
X037504Y014055D02*
X036923Y014055D01*
X036917Y014104D02*
X037525Y014104D01*
X037545Y014152D02*
X036897Y014152D01*
X036877Y014201D02*
X037565Y014201D01*
X037585Y014249D02*
X036857Y014249D01*
X036810Y014298D02*
X037605Y014298D01*
X037652Y014346D02*
X036761Y014346D01*
X036687Y014395D02*
X037701Y014395D01*
X037749Y014443D02*
X036570Y014443D01*
X036387Y014443D02*
X032107Y014443D01*
X032156Y014395D02*
X036270Y014395D01*
X036196Y014346D02*
X032204Y014346D01*
X032253Y014298D02*
X036147Y014298D01*
X036100Y014249D02*
X032301Y014249D01*
X032350Y014201D02*
X036080Y014201D01*
X036060Y014152D02*
X032695Y014152D01*
X032744Y014104D02*
X036040Y014104D01*
X036033Y014055D02*
X032792Y014055D01*
X032841Y014007D02*
X036033Y014007D01*
X036033Y013958D02*
X032889Y013958D01*
X032923Y013909D02*
X036033Y013909D01*
X036033Y013861D02*
X032923Y013861D01*
X032923Y013812D02*
X036033Y013812D01*
X036033Y013764D02*
X032923Y013764D01*
X032935Y013715D02*
X036033Y013715D01*
X036033Y013667D02*
X032984Y013667D01*
X033032Y013618D02*
X036033Y013618D01*
X036033Y013570D02*
X033081Y013570D01*
X033129Y013521D02*
X036033Y013521D01*
X036033Y013473D02*
X033178Y013473D01*
X033226Y013424D02*
X036033Y013424D01*
X036040Y013376D02*
X033275Y013376D01*
X033323Y013327D02*
X036060Y013327D01*
X036080Y013278D02*
X033372Y013278D01*
X033421Y013230D02*
X036100Y013230D01*
X036119Y013181D02*
X036147Y013181D01*
X036168Y013133D02*
X036196Y013133D01*
X036213Y013084D02*
X036270Y013084D01*
X036213Y013036D02*
X036350Y013036D01*
X036399Y012987D02*
X036213Y012987D01*
X036213Y012939D02*
X036447Y012939D01*
X036496Y012890D02*
X036213Y012890D01*
X036213Y012842D02*
X036544Y012842D01*
X036593Y012793D02*
X036213Y012793D01*
X036213Y012744D02*
X036641Y012744D01*
X036690Y012696D02*
X036213Y012696D01*
X036213Y012647D02*
X036738Y012647D01*
X036787Y012599D02*
X036213Y012599D01*
X036213Y012550D02*
X036836Y012550D01*
X036884Y012502D02*
X036213Y012502D01*
X036213Y012453D02*
X036933Y012453D01*
X036981Y012405D02*
X036213Y012405D01*
X036213Y012356D02*
X037030Y012356D01*
X037033Y012308D02*
X036213Y012308D01*
X036213Y012259D02*
X037033Y012259D01*
X037033Y012210D02*
X036213Y012210D01*
X036213Y012162D02*
X037033Y012162D01*
X037033Y012113D02*
X036213Y012113D01*
X036213Y012065D02*
X037033Y012065D01*
X037073Y012016D02*
X036213Y012016D01*
X036213Y011968D02*
X037121Y011968D01*
X037170Y011919D02*
X036213Y011919D01*
X036213Y011871D02*
X037218Y011871D01*
X037267Y011822D02*
X036213Y011822D01*
X036213Y011774D02*
X039253Y011774D01*
X039253Y011822D02*
X037690Y011822D01*
X037739Y011871D02*
X039253Y011871D01*
X039253Y011919D02*
X037787Y011919D01*
X037836Y011968D02*
X039253Y011968D01*
X039253Y012016D02*
X037884Y012016D01*
X037923Y012065D02*
X039253Y012065D01*
X039253Y012113D02*
X037923Y012113D01*
X037923Y012162D02*
X039253Y012162D01*
X039253Y012210D02*
X037923Y012210D01*
X037923Y012259D02*
X039253Y012259D01*
X039253Y012308D02*
X037923Y012308D01*
X037923Y012356D02*
X039253Y012356D01*
X039253Y012405D02*
X037923Y012405D01*
X037894Y012453D02*
X039253Y012453D01*
X039253Y012502D02*
X037846Y012502D01*
X037797Y012550D02*
X039253Y012550D01*
X039253Y012599D02*
X037749Y012599D01*
X037700Y012647D02*
X039253Y012647D01*
X039253Y012696D02*
X037354Y012696D01*
X037306Y012744D02*
X039253Y012744D01*
X039253Y012793D02*
X037257Y012793D01*
X037209Y012842D02*
X039253Y012842D01*
X039253Y012890D02*
X037160Y012890D01*
X037112Y012939D02*
X039253Y012939D01*
X039253Y011725D02*
X036213Y011725D01*
X036213Y011676D02*
X039253Y011676D01*
X039253Y011628D02*
X036213Y011628D01*
X036213Y011579D02*
X039253Y011579D01*
X039253Y011531D02*
X036213Y011531D01*
X036213Y011482D02*
X039253Y011482D01*
X039253Y011434D02*
X036213Y011434D01*
X036213Y011385D02*
X039253Y011385D01*
X039253Y011337D02*
X036213Y011337D01*
X036213Y011288D02*
X039253Y011288D01*
X039253Y011240D02*
X036213Y011240D01*
X036213Y011191D02*
X039253Y011191D01*
X039253Y011143D02*
X036213Y011143D01*
X036213Y011094D02*
X039253Y011094D01*
X039253Y011045D02*
X036213Y011045D01*
X036213Y010997D02*
X039253Y010997D01*
X039253Y010948D02*
X036213Y010948D01*
X036213Y010900D02*
X039253Y010900D01*
X039253Y010851D02*
X036213Y010851D01*
X036213Y010803D02*
X039253Y010803D01*
X039253Y010754D02*
X036213Y010754D01*
X036213Y010706D02*
X039253Y010706D01*
X039253Y010657D02*
X036213Y010657D01*
X036213Y010609D02*
X039253Y010609D01*
X039253Y010560D02*
X036213Y010560D01*
X036213Y010511D02*
X039253Y010511D01*
X039253Y010463D02*
X036213Y010463D01*
X036213Y010414D02*
X039253Y010414D01*
X039253Y010366D02*
X036213Y010366D01*
X036213Y010317D02*
X039253Y010317D01*
X039253Y010269D02*
X036213Y010269D01*
X036213Y010220D02*
X039253Y010220D01*
X039253Y010172D02*
X036213Y010172D01*
X036213Y010123D02*
X039253Y010123D01*
X039253Y010075D02*
X036213Y010075D01*
X036213Y010026D02*
X039253Y010026D01*
X039253Y009977D02*
X036213Y009977D01*
X036213Y009929D02*
X036730Y009929D01*
X036613Y009880D02*
X036213Y009880D01*
X036213Y009832D02*
X036496Y009832D01*
X036443Y009783D02*
X036213Y009783D01*
X036213Y009735D02*
X036395Y009735D01*
X036346Y009686D02*
X036213Y009686D01*
X036213Y009638D02*
X036298Y009638D01*
X036275Y009589D02*
X036213Y009589D01*
X036213Y009541D02*
X036255Y009541D01*
X036234Y009492D02*
X036213Y009492D01*
X036214Y009444D02*
X036213Y009444D01*
X037038Y009929D02*
X039253Y009929D01*
X039253Y009880D02*
X037155Y009880D01*
X037272Y009832D02*
X039253Y009832D01*
X039253Y009783D02*
X037325Y009783D01*
X037373Y009735D02*
X039253Y009735D01*
X039253Y009686D02*
X037422Y009686D01*
X037470Y009638D02*
X039253Y009638D01*
X039253Y009589D02*
X037493Y009589D01*
X037513Y009541D02*
X039253Y009541D01*
X039253Y009492D02*
X037533Y009492D01*
X037554Y009444D02*
X039253Y009444D01*
X039253Y009395D02*
X037574Y009395D01*
X037581Y009346D02*
X039253Y009346D01*
X039253Y009298D02*
X037581Y009298D01*
X037581Y009249D02*
X039253Y009249D01*
X039253Y009201D02*
X037581Y009201D01*
X037581Y009152D02*
X039253Y009152D01*
X039253Y009104D02*
X037581Y009104D01*
X037563Y009055D02*
X039253Y009055D01*
X039253Y009007D02*
X037543Y009007D01*
X037523Y008958D02*
X039253Y008958D01*
X039253Y008910D02*
X037503Y008910D01*
X037483Y008861D02*
X039253Y008861D01*
X039253Y008812D02*
X037445Y008812D01*
X037396Y008764D02*
X039253Y008764D01*
X039253Y008715D02*
X037348Y008715D01*
X037299Y008667D02*
X039253Y008667D01*
X039253Y008618D02*
X037211Y008618D01*
X037094Y008570D02*
X039253Y008570D01*
X034777Y009201D02*
X031423Y009201D01*
X031423Y009249D02*
X034713Y009249D01*
X034664Y009298D02*
X031423Y009298D01*
X031423Y009346D02*
X034629Y009346D01*
X034609Y009395D02*
X031466Y009395D01*
X031515Y009444D02*
X034588Y009444D01*
X034576Y009492D02*
X031563Y009492D01*
X031612Y009541D02*
X034576Y009541D01*
X034576Y009589D02*
X031660Y009589D01*
X031709Y009638D02*
X034578Y009638D01*
X034598Y009686D02*
X031757Y009686D01*
X031806Y009735D02*
X034619Y009735D01*
X034640Y009783D02*
X031854Y009783D01*
X031903Y009832D02*
X034689Y009832D01*
X034737Y009880D02*
X031951Y009880D01*
X031141Y009735D02*
X029066Y009735D01*
X029114Y009686D02*
X031093Y009686D01*
X030747Y009638D02*
X029940Y009638D01*
X030018Y009589D02*
X030699Y009589D01*
X030650Y009541D02*
X030067Y009541D01*
X030115Y009492D02*
X030602Y009492D01*
X030553Y009444D02*
X030136Y009444D01*
X030156Y009395D02*
X030533Y009395D01*
X030533Y009346D02*
X030176Y009346D01*
X030183Y009298D02*
X030533Y009298D01*
X030533Y009249D02*
X030183Y009249D01*
X030183Y009201D02*
X030507Y009201D01*
X030459Y009152D02*
X030183Y009152D01*
X030164Y009104D02*
X030410Y009104D01*
X030362Y009055D02*
X030144Y009055D01*
X030124Y009007D02*
X030313Y009007D01*
X028833Y009007D02*
X028423Y009007D01*
X028423Y009055D02*
X028813Y009055D01*
X028793Y009104D02*
X028423Y009104D01*
X028423Y009152D02*
X028773Y009152D01*
X028773Y009201D02*
X028397Y009201D01*
X028348Y009249D02*
X028773Y009249D01*
X028773Y009298D02*
X028300Y009298D01*
X028251Y009346D02*
X028781Y009346D01*
X028741Y009395D02*
X028202Y009395D01*
X028207Y009589D02*
X028547Y009589D01*
X028595Y009541D02*
X027067Y009541D01*
X027018Y009589D02*
X027750Y009589D01*
X027701Y009638D02*
X026940Y009638D01*
X026917Y009832D02*
X027533Y009832D01*
X027533Y009880D02*
X027008Y009880D01*
X027057Y009929D02*
X027533Y009929D01*
X027533Y009977D02*
X027106Y009977D01*
X027132Y010026D02*
X027533Y010026D01*
X027533Y010075D02*
X027152Y010075D01*
X027172Y010123D02*
X027533Y010123D01*
X027533Y010172D02*
X027183Y010172D01*
X027183Y010220D02*
X027580Y010220D01*
X027628Y010269D02*
X027183Y010269D01*
X027183Y010317D02*
X027677Y010317D01*
X027725Y010366D02*
X027168Y010366D01*
X027148Y010414D02*
X027774Y010414D01*
X028582Y010754D02*
X025325Y010754D01*
X025277Y010706D02*
X028630Y010706D01*
X029893Y010657D02*
X030767Y010657D01*
X030718Y010609D02*
X029999Y010609D01*
X030047Y010560D02*
X030669Y010560D01*
X030621Y010511D02*
X030096Y010511D01*
X030106Y009977D02*
X030611Y009977D01*
X030660Y009929D02*
X030057Y009929D01*
X030008Y009880D02*
X030708Y009880D01*
X030757Y009832D02*
X029917Y009832D01*
X028692Y009444D02*
X027136Y009444D01*
X027115Y009492D02*
X028644Y009492D01*
X028498Y009638D02*
X028256Y009638D01*
X027754Y009395D02*
X027156Y009395D01*
X027176Y009346D02*
X027706Y009346D01*
X027657Y009298D02*
X027183Y009298D01*
X027183Y009249D02*
X027609Y009249D01*
X027560Y009201D02*
X027183Y009201D01*
X027183Y009152D02*
X027533Y009152D01*
X027533Y009104D02*
X027164Y009104D01*
X027144Y009055D02*
X027533Y009055D01*
X027533Y009007D02*
X027124Y009007D01*
X027086Y008958D02*
X027533Y008958D01*
X027533Y008910D02*
X027038Y008910D01*
X026987Y008861D02*
X027517Y008861D01*
X027469Y008812D02*
X026870Y008812D01*
X026870Y008667D02*
X027323Y008667D01*
X027275Y008618D02*
X026987Y008618D01*
X027038Y008570D02*
X027226Y008570D01*
X027178Y008521D02*
X027086Y008521D01*
X027372Y008715D02*
X026286Y008715D01*
X026335Y008764D02*
X027420Y008764D01*
X027842Y008521D02*
X028065Y008521D01*
X027663Y008181D02*
X032291Y008181D01*
X032242Y008133D02*
X027663Y008133D01*
X027663Y008084D02*
X032194Y008084D01*
X032145Y008036D02*
X027663Y008036D01*
X027663Y007987D02*
X032097Y007987D01*
X032715Y008133D02*
X032742Y008133D01*
X032791Y008181D02*
X032666Y008181D01*
X028595Y007939D02*
X027663Y007939D01*
X027663Y007890D02*
X028547Y007890D01*
X028498Y007842D02*
X027663Y007842D01*
X027663Y007793D02*
X028493Y007793D01*
X028493Y007744D02*
X027663Y007744D01*
X027663Y007696D02*
X028493Y007696D01*
X028493Y007647D02*
X027663Y007647D01*
X027663Y007599D02*
X028493Y007599D01*
X028493Y007550D02*
X027663Y007550D01*
X027663Y007502D02*
X028493Y007502D01*
X028493Y007453D02*
X027663Y007453D01*
X027663Y007405D02*
X028493Y007405D01*
X028493Y007356D02*
X027663Y007356D01*
X027663Y007308D02*
X028493Y007308D01*
X028493Y007259D02*
X027663Y007259D01*
X027663Y007211D02*
X028493Y007211D01*
X028493Y007162D02*
X027663Y007162D01*
X027663Y007113D02*
X028493Y007113D01*
X028493Y007065D02*
X027663Y007065D01*
X027663Y007016D02*
X028493Y007016D01*
X028493Y006968D02*
X027663Y006968D01*
X027663Y006919D02*
X028493Y006919D01*
X028493Y006871D02*
X027680Y006871D01*
X027728Y006822D02*
X028429Y006822D01*
X028356Y006774D02*
X027777Y006774D01*
X028200Y006725D02*
X028283Y006725D01*
X027478Y006385D02*
X027160Y006385D01*
X027180Y006337D02*
X027478Y006337D01*
X027478Y006288D02*
X027183Y006288D01*
X027183Y006240D02*
X027478Y006240D01*
X027478Y006191D02*
X027183Y006191D01*
X027180Y006143D02*
X027478Y006143D01*
X027478Y006094D02*
X027160Y006094D01*
X027140Y006045D02*
X027478Y006045D01*
X027514Y005997D02*
X027120Y005997D01*
X027076Y005948D02*
X027563Y005948D01*
X027611Y005900D02*
X027028Y005900D01*
X026964Y005851D02*
X027660Y005851D01*
X027708Y005803D02*
X026846Y005803D01*
X026075Y005754D02*
X027757Y005754D01*
X027452Y006434D02*
X027140Y006434D01*
X027120Y006482D02*
X027403Y006482D01*
X027355Y006531D02*
X027076Y006531D01*
X027028Y006579D02*
X027306Y006579D01*
X027258Y006628D02*
X026964Y006628D01*
X026847Y006677D02*
X027209Y006677D01*
X027193Y006725D02*
X026046Y006725D01*
X025998Y006677D02*
X026110Y006677D01*
X026095Y006774D02*
X027193Y006774D01*
X027193Y006822D02*
X026893Y006822D01*
X026999Y006871D02*
X027193Y006871D01*
X027193Y006919D02*
X027047Y006919D01*
X027096Y006968D02*
X027193Y006968D01*
X027193Y007016D02*
X027128Y007016D01*
X027148Y007065D02*
X027193Y007065D01*
X027193Y007113D02*
X027168Y007113D01*
X027183Y007162D02*
X027193Y007162D01*
X027193Y007211D02*
X027183Y007211D01*
X027183Y007259D02*
X027193Y007259D01*
X027193Y007308D02*
X027183Y007308D01*
X027193Y007356D02*
X027172Y007356D01*
X027152Y007405D02*
X027193Y007405D01*
X027193Y007453D02*
X027132Y007453D01*
X027106Y007502D02*
X027193Y007502D01*
X027193Y007550D02*
X027057Y007550D01*
X027009Y007599D02*
X027193Y007599D01*
X027193Y007647D02*
X026917Y007647D01*
X027193Y007696D02*
X025421Y007696D01*
X025421Y007744D02*
X027193Y007744D01*
X027193Y007793D02*
X025421Y007793D01*
X025415Y007842D02*
X026017Y007842D01*
X025939Y007890D02*
X025461Y007890D01*
X025510Y007939D02*
X025890Y007939D01*
X025842Y007987D02*
X025558Y007987D01*
X025607Y008036D02*
X025821Y008036D01*
X025801Y008084D02*
X025655Y008084D01*
X025704Y008133D02*
X025781Y008133D01*
X025773Y008181D02*
X025752Y008181D01*
X025428Y008521D02*
X024092Y008521D01*
X024044Y008473D02*
X025379Y008473D01*
X025331Y008424D02*
X023995Y008424D01*
X023947Y008376D02*
X025282Y008376D01*
X025234Y008327D02*
X023898Y008327D01*
X023850Y008278D02*
X025185Y008278D01*
X025136Y008230D02*
X023801Y008230D01*
X023752Y008181D02*
X024889Y008181D01*
X024771Y008133D02*
X023704Y008133D01*
X023655Y008084D02*
X024697Y008084D01*
X024649Y008036D02*
X023607Y008036D01*
X023558Y007987D02*
X024602Y007987D01*
X024582Y007939D02*
X023510Y007939D01*
X023461Y007890D02*
X024562Y007890D01*
X024542Y007842D02*
X023413Y007842D01*
X023364Y007793D02*
X024536Y007793D01*
X024536Y007744D02*
X023316Y007744D01*
X023267Y007696D02*
X024536Y007696D01*
X024538Y007647D02*
X023700Y007647D01*
X023749Y007599D02*
X024558Y007599D01*
X024578Y007550D02*
X023797Y007550D01*
X023846Y007502D02*
X024598Y007502D01*
X024639Y007453D02*
X023894Y007453D01*
X023923Y007405D02*
X024688Y007405D01*
X024748Y007356D02*
X023923Y007356D01*
X023923Y007308D02*
X024865Y007308D01*
X025092Y007308D02*
X025773Y007308D01*
X025773Y007259D02*
X023923Y007259D01*
X023923Y007211D02*
X025773Y007211D01*
X025773Y007162D02*
X023923Y007162D01*
X023923Y007113D02*
X025770Y007113D01*
X025721Y007065D02*
X023923Y007065D01*
X023884Y007016D02*
X025673Y007016D01*
X025624Y006968D02*
X023836Y006968D01*
X023787Y006919D02*
X025576Y006919D01*
X025527Y006871D02*
X023739Y006871D01*
X023690Y006822D02*
X025479Y006822D01*
X025430Y006774D02*
X023345Y006774D01*
X023296Y006725D02*
X025382Y006725D01*
X025333Y006677D02*
X023248Y006677D01*
X023199Y006628D02*
X025284Y006628D01*
X025236Y006579D02*
X023151Y006579D01*
X023102Y006531D02*
X025187Y006531D01*
X025139Y006482D02*
X023053Y006482D01*
X023005Y006434D02*
X025090Y006434D01*
X025042Y006385D02*
X022956Y006385D01*
X022923Y006337D02*
X024993Y006337D01*
X024945Y006288D02*
X022923Y006288D01*
X022923Y006240D02*
X024896Y006240D01*
X024848Y006191D02*
X022923Y006191D01*
X022923Y006143D02*
X024799Y006143D01*
X024750Y006094D02*
X022923Y006094D01*
X022923Y006045D02*
X024702Y006045D01*
X024653Y005997D02*
X022923Y005997D01*
X022923Y005948D02*
X024605Y005948D01*
X024556Y005900D02*
X022923Y005900D01*
X022907Y005851D02*
X024508Y005851D01*
X024459Y005803D02*
X022887Y005803D01*
X022867Y005754D02*
X024411Y005754D01*
X024362Y005706D02*
X022834Y005706D01*
X022785Y005657D02*
X024314Y005657D01*
X024265Y005609D02*
X022737Y005609D01*
X022628Y005560D02*
X024216Y005560D01*
X024735Y005414D02*
X025071Y005414D01*
X025022Y005366D02*
X024687Y005366D01*
X024638Y005317D02*
X024974Y005317D01*
X024925Y005269D02*
X024590Y005269D01*
X024784Y005463D02*
X025119Y005463D01*
X025168Y005511D02*
X024833Y005511D01*
X024881Y005560D02*
X025216Y005560D01*
X025265Y005609D02*
X024930Y005609D01*
X024978Y005657D02*
X025314Y005657D01*
X025362Y005706D02*
X025027Y005706D01*
X025075Y005754D02*
X025411Y005754D01*
X025459Y005803D02*
X025124Y005803D01*
X025172Y005851D02*
X025508Y005851D01*
X025556Y005900D02*
X025221Y005900D01*
X025269Y005948D02*
X025605Y005948D01*
X025653Y005997D02*
X025318Y005997D01*
X025367Y006045D02*
X025702Y006045D01*
X025750Y006094D02*
X025415Y006094D01*
X025464Y006143D02*
X025777Y006143D01*
X025773Y006191D02*
X025512Y006191D01*
X025561Y006240D02*
X025773Y006240D01*
X025773Y006288D02*
X025609Y006288D01*
X025658Y006337D02*
X025777Y006337D01*
X025797Y006385D02*
X025706Y006385D01*
X025755Y006434D02*
X025817Y006434D01*
X025803Y006482D02*
X025837Y006482D01*
X025852Y006531D02*
X025880Y006531D01*
X025901Y006579D02*
X025929Y006579D01*
X025949Y006628D02*
X025993Y006628D01*
X025785Y007356D02*
X025209Y007356D01*
X025269Y007405D02*
X025805Y007405D01*
X025825Y007453D02*
X025318Y007453D01*
X025359Y007502D02*
X025851Y007502D01*
X025900Y007550D02*
X025379Y007550D01*
X025399Y007599D02*
X025948Y007599D01*
X026040Y007647D02*
X025419Y007647D01*
X025088Y008181D02*
X025068Y008181D01*
X025476Y008570D02*
X024141Y008570D01*
X024189Y008618D02*
X025525Y008618D01*
X025573Y008667D02*
X024238Y008667D01*
X024286Y008715D02*
X025622Y008715D01*
X025670Y008764D02*
X024335Y008764D01*
X024384Y008812D02*
X025719Y008812D01*
X025767Y008861D02*
X024432Y008861D01*
X024481Y008910D02*
X025816Y008910D01*
X025865Y008958D02*
X024513Y008958D01*
X024513Y009007D02*
X025833Y009007D01*
X025813Y009055D02*
X024513Y009055D01*
X024513Y009104D02*
X025793Y009104D01*
X025773Y009152D02*
X024513Y009152D01*
X024513Y009201D02*
X025773Y009201D01*
X025773Y009249D02*
X024513Y009249D01*
X024513Y009298D02*
X024889Y009298D01*
X024772Y009346D02*
X024513Y009346D01*
X024513Y009395D02*
X024697Y009395D01*
X024649Y009444D02*
X024513Y009444D01*
X024513Y009492D02*
X024602Y009492D01*
X024582Y009541D02*
X024513Y009541D01*
X024513Y009589D02*
X024562Y009589D01*
X024542Y009638D02*
X024513Y009638D01*
X024513Y009686D02*
X024536Y009686D01*
X024536Y009735D02*
X024513Y009735D01*
X024513Y009783D02*
X024536Y009783D01*
X024538Y009832D02*
X024513Y009832D01*
X024513Y009880D02*
X024558Y009880D01*
X024578Y009929D02*
X024513Y009929D01*
X024549Y009977D02*
X024598Y009977D01*
X024597Y010026D02*
X024639Y010026D01*
X024646Y010075D02*
X024688Y010075D01*
X024694Y010123D02*
X024748Y010123D01*
X024743Y010172D02*
X024865Y010172D01*
X024791Y010220D02*
X025127Y010220D01*
X025175Y010269D02*
X024840Y010269D01*
X024888Y010317D02*
X025224Y010317D01*
X025272Y010366D02*
X024937Y010366D01*
X024985Y010414D02*
X025321Y010414D01*
X025369Y010463D02*
X025034Y010463D01*
X025083Y010511D02*
X025861Y010511D01*
X025909Y010560D02*
X025131Y010560D01*
X025180Y010609D02*
X025958Y010609D01*
X026063Y010657D02*
X025228Y010657D01*
X025374Y010803D02*
X026111Y010803D01*
X025993Y010851D02*
X025422Y010851D01*
X025471Y010900D02*
X025929Y010900D01*
X025880Y010948D02*
X025519Y010948D01*
X025568Y010997D02*
X025837Y010997D01*
X024683Y011676D02*
X024648Y011676D01*
X024634Y011628D02*
X024599Y011628D01*
X024586Y011579D02*
X024551Y011579D01*
X024537Y011531D02*
X020213Y011531D01*
X020213Y011482D02*
X024489Y011482D01*
X024440Y011434D02*
X020213Y011434D01*
X020213Y011385D02*
X024392Y011385D01*
X024343Y011337D02*
X020213Y011337D01*
X020213Y011288D02*
X024295Y011288D01*
X024246Y011240D02*
X020213Y011240D01*
X020213Y011191D02*
X024198Y011191D01*
X024149Y011143D02*
X020213Y011143D01*
X020213Y011094D02*
X024100Y011094D01*
X024052Y011045D02*
X020213Y011045D01*
X020213Y010997D02*
X024003Y010997D01*
X023955Y010948D02*
X020213Y010948D01*
X020213Y010900D02*
X023906Y010900D01*
X023858Y010851D02*
X020213Y010851D01*
X020213Y010803D02*
X023809Y010803D01*
X023761Y010754D02*
X020213Y010754D01*
X020213Y010706D02*
X023712Y010706D01*
X023267Y010657D02*
X022690Y010657D01*
X022739Y010609D02*
X023218Y010609D01*
X023169Y010560D02*
X022787Y010560D01*
X022836Y010511D02*
X023121Y010511D01*
X023072Y010463D02*
X022884Y010463D01*
X022923Y010414D02*
X023033Y010414D01*
X023033Y010366D02*
X022923Y010366D01*
X022923Y010317D02*
X023033Y010317D01*
X023033Y010269D02*
X022923Y010269D01*
X022923Y010220D02*
X023033Y010220D01*
X023033Y010172D02*
X022923Y010172D01*
X022923Y010123D02*
X023033Y010123D01*
X023033Y010075D02*
X022923Y010075D01*
X022894Y010026D02*
X023063Y010026D01*
X023111Y009977D02*
X022846Y009977D01*
X022797Y009929D02*
X023160Y009929D01*
X023208Y009880D02*
X022748Y009880D01*
X022776Y009832D02*
X023257Y009832D01*
X022208Y009880D02*
X021722Y009880D01*
X021776Y009832D02*
X022181Y009832D01*
X022133Y009783D02*
X021824Y009783D01*
X021863Y009735D02*
X022094Y009735D01*
X022074Y009686D02*
X021883Y009686D01*
X021903Y009638D02*
X022054Y009638D01*
X022034Y009589D02*
X021923Y009589D01*
X021923Y009541D02*
X022033Y009541D01*
X022033Y009492D02*
X021923Y009492D01*
X021923Y009444D02*
X022033Y009444D01*
X022033Y009395D02*
X021923Y009395D01*
X021923Y009346D02*
X022033Y009346D01*
X022033Y009298D02*
X021923Y009298D01*
X021923Y009249D02*
X022033Y009249D01*
X022033Y009201D02*
X021923Y009201D01*
X021923Y009152D02*
X022033Y009152D01*
X022033Y009104D02*
X021923Y009104D01*
X021923Y009055D02*
X022033Y009055D01*
X022033Y009007D02*
X021923Y009007D01*
X021923Y008958D02*
X022033Y008958D01*
X022033Y008910D02*
X021923Y008910D01*
X021911Y008861D02*
X022046Y008861D01*
X022066Y008812D02*
X021891Y008812D01*
X021871Y008764D02*
X022086Y008764D01*
X022113Y008715D02*
X021843Y008715D01*
X021795Y008667D02*
X022162Y008667D01*
X022211Y008618D02*
X021746Y008618D01*
X021652Y008570D02*
X022305Y008570D01*
X021305Y008570D02*
X021141Y008570D01*
X021189Y008618D02*
X021211Y008618D01*
X020816Y008910D02*
X020213Y008910D01*
X020213Y008958D02*
X020865Y008958D01*
X020913Y009007D02*
X020213Y009007D01*
X020213Y009055D02*
X020962Y009055D01*
X021010Y009104D02*
X020213Y009104D01*
X020213Y009152D02*
X021033Y009152D01*
X021033Y009201D02*
X020213Y009201D01*
X020213Y009249D02*
X021033Y009249D01*
X021033Y009298D02*
X020213Y009298D01*
X020213Y009346D02*
X021033Y009346D01*
X021033Y009395D02*
X020213Y009395D01*
X020213Y009444D02*
X021033Y009444D01*
X021033Y009492D02*
X020213Y009492D01*
X020213Y009541D02*
X021033Y009541D01*
X021034Y009589D02*
X020213Y009589D01*
X020213Y009638D02*
X021054Y009638D01*
X021074Y009686D02*
X020213Y009686D01*
X020213Y009735D02*
X021094Y009735D01*
X021133Y009783D02*
X020213Y009783D01*
X020213Y009832D02*
X021181Y009832D01*
X021235Y009880D02*
X020213Y009880D01*
X020213Y009929D02*
X021352Y009929D01*
X021605Y009929D02*
X022160Y009929D01*
X022111Y009977D02*
X020213Y009977D01*
X020213Y010026D02*
X022063Y010026D01*
X022033Y010075D02*
X020213Y010075D01*
X020213Y010123D02*
X022033Y010123D01*
X022033Y010172D02*
X020213Y010172D01*
X020213Y010220D02*
X022033Y010220D01*
X022033Y010269D02*
X020213Y010269D01*
X020213Y010317D02*
X022033Y010317D01*
X022033Y010366D02*
X020213Y010366D01*
X020213Y010414D02*
X022033Y010414D01*
X022072Y010463D02*
X020213Y010463D01*
X020213Y010511D02*
X022121Y010511D01*
X022169Y010560D02*
X020213Y010560D01*
X020213Y010609D02*
X022218Y010609D01*
X022267Y010657D02*
X020213Y010657D01*
X019743Y009880D02*
X018722Y009880D01*
X018776Y009832D02*
X019743Y009832D01*
X019743Y009783D02*
X018824Y009783D01*
X018863Y009735D02*
X019743Y009735D01*
X019743Y009686D02*
X018883Y009686D01*
X018903Y009638D02*
X019743Y009638D01*
X019743Y009589D02*
X018923Y009589D01*
X018923Y009541D02*
X019743Y009541D01*
X019743Y009492D02*
X018923Y009492D01*
X018923Y009444D02*
X019743Y009444D01*
X019743Y009395D02*
X018923Y009395D01*
X018923Y009346D02*
X019743Y009346D01*
X019743Y009298D02*
X018923Y009298D01*
X018923Y009249D02*
X019743Y009249D01*
X019743Y009201D02*
X018923Y009201D01*
X018923Y009152D02*
X019743Y009152D01*
X019743Y009104D02*
X018923Y009104D01*
X018923Y009055D02*
X019743Y009055D01*
X019743Y009007D02*
X018923Y009007D01*
X018923Y008958D02*
X019743Y008958D01*
X019743Y008910D02*
X018923Y008910D01*
X018911Y008861D02*
X019743Y008861D01*
X019719Y008812D02*
X018891Y008812D01*
X018871Y008764D02*
X019670Y008764D01*
X019622Y008715D02*
X018843Y008715D01*
X018795Y008667D02*
X019276Y008667D01*
X019228Y008618D02*
X018746Y008618D01*
X018778Y008570D02*
X019179Y008570D01*
X019131Y008521D02*
X018826Y008521D01*
X018875Y008473D02*
X019082Y008473D01*
X019033Y008424D02*
X019033Y008055D01*
X019114Y007975D01*
X018843Y007975D01*
X018923Y008055D01*
X018923Y008424D01*
X018923Y008376D02*
X019033Y008376D01*
X019033Y008327D02*
X018923Y008327D01*
X018923Y008278D02*
X019033Y008278D01*
X019033Y008230D02*
X018923Y008230D01*
X018923Y008181D02*
X019033Y008181D01*
X019033Y008133D02*
X018923Y008133D01*
X018923Y008084D02*
X019033Y008084D01*
X019053Y008036D02*
X018904Y008036D01*
X018855Y007987D02*
X019102Y007987D01*
X019855Y007987D02*
X019894Y007987D01*
X019904Y008036D02*
X019942Y008036D01*
X019923Y008084D02*
X019991Y008084D01*
X020039Y008133D02*
X019923Y008133D01*
X019923Y008181D02*
X020088Y008181D01*
X020136Y008230D02*
X019923Y008230D01*
X019923Y008278D02*
X020185Y008278D01*
X020233Y008327D02*
X019923Y008327D01*
X019947Y008376D02*
X020282Y008376D01*
X020331Y008424D02*
X019995Y008424D01*
X020044Y008473D02*
X020379Y008473D01*
X020428Y008521D02*
X020092Y008521D01*
X020141Y008570D02*
X020476Y008570D01*
X020525Y008618D02*
X020189Y008618D01*
X020213Y008667D02*
X020573Y008667D01*
X020622Y008715D02*
X020213Y008715D01*
X020213Y008764D02*
X020670Y008764D01*
X020719Y008812D02*
X020213Y008812D01*
X020213Y008861D02*
X020767Y008861D01*
X023121Y007550D02*
X023160Y007550D01*
X023170Y007599D02*
X023208Y007599D01*
X023219Y007647D02*
X023257Y007647D01*
X023111Y007502D02*
X023073Y007502D01*
X023063Y007453D02*
X023024Y007453D01*
X023033Y007405D02*
X022976Y007405D01*
X022927Y007356D02*
X023033Y007356D01*
X023033Y007308D02*
X022923Y007308D01*
X022923Y007259D02*
X023033Y007259D01*
X023033Y007211D02*
X022923Y007211D01*
X022923Y007162D02*
X023033Y007162D01*
X023020Y007113D02*
X022923Y007113D01*
X022923Y007065D02*
X022971Y007065D01*
X022923Y007016D02*
X022884Y007016D01*
X022874Y006968D02*
X022836Y006968D01*
X022826Y006919D02*
X022787Y006919D01*
X022777Y006871D02*
X022739Y006871D01*
X019267Y006822D02*
X018785Y006822D01*
X018739Y006871D02*
X019218Y006871D01*
X019170Y006919D02*
X018787Y006919D01*
X018836Y006968D02*
X019121Y006968D01*
X019072Y007016D02*
X018884Y007016D01*
X018923Y007065D02*
X019033Y007065D01*
X019033Y007113D02*
X018923Y007113D01*
X018923Y007162D02*
X019033Y007162D01*
X019033Y007211D02*
X018923Y007211D01*
X018923Y007259D02*
X019033Y007259D01*
X019033Y007308D02*
X018923Y007308D01*
X018923Y007356D02*
X019033Y007356D01*
X019033Y007405D02*
X018923Y007405D01*
X018894Y007453D02*
X019063Y007453D01*
X019111Y007502D02*
X018846Y007502D01*
X017033Y005997D02*
X015404Y005997D01*
X015452Y005948D02*
X017033Y005948D01*
X017033Y005900D02*
X015501Y005900D01*
X015549Y005851D02*
X017050Y005851D01*
X017070Y005803D02*
X015598Y005803D01*
X015646Y005754D02*
X017090Y005754D01*
X017123Y005706D02*
X015695Y005706D01*
X015743Y005657D02*
X017172Y005657D01*
X017220Y005609D02*
X015792Y005609D01*
X015840Y005560D02*
X017329Y005560D01*
X017305Y003910D02*
X014831Y003910D01*
X014782Y003861D02*
X017211Y003861D01*
X017162Y003812D02*
X014734Y003812D01*
X014685Y003764D02*
X017113Y003764D01*
X017086Y003715D02*
X014636Y003715D01*
X014588Y003667D02*
X017066Y003667D01*
X017046Y003618D02*
X014539Y003618D01*
X014491Y003570D02*
X017033Y003570D01*
X017033Y003521D02*
X014442Y003521D01*
X014394Y003473D02*
X017033Y003473D01*
X012863Y003473D02*
X010894Y003473D01*
X010942Y003521D02*
X012815Y003521D01*
X012766Y003570D02*
X010991Y003570D01*
X011039Y003618D02*
X012718Y003618D01*
X012669Y003667D02*
X011088Y003667D01*
X011136Y003715D02*
X012620Y003715D01*
X012572Y003764D02*
X011185Y003764D01*
X011234Y003812D02*
X012523Y003812D01*
X012475Y003861D02*
X011282Y003861D01*
X011331Y003910D02*
X012426Y003910D01*
X012378Y003958D02*
X011379Y003958D01*
X011685Y004007D02*
X012329Y004007D01*
X012281Y004055D02*
X011772Y004055D01*
X011821Y004104D02*
X012232Y004104D01*
X012184Y004152D02*
X011869Y004152D01*
X011900Y004201D02*
X012135Y004201D01*
X012086Y004249D02*
X011920Y004249D01*
X011940Y004298D02*
X012038Y004298D01*
X011989Y004346D02*
X011960Y004346D01*
X008829Y004007D02*
X008185Y004007D01*
X008272Y004055D02*
X008781Y004055D01*
X008732Y004104D02*
X008321Y004104D01*
X008369Y004152D02*
X008684Y004152D01*
X008635Y004201D02*
X008400Y004201D01*
X008420Y004249D02*
X008586Y004249D01*
X008538Y004298D02*
X008440Y004298D01*
X008460Y004346D02*
X008489Y004346D01*
X006772Y004007D02*
X004685Y004007D01*
X004772Y004055D02*
X006685Y004055D01*
X006636Y004104D02*
X004821Y004104D01*
X004869Y004152D02*
X006588Y004152D01*
X006557Y004201D02*
X004900Y004201D01*
X004920Y004249D02*
X006537Y004249D01*
X006517Y004298D02*
X004940Y004298D01*
X004960Y004346D02*
X006497Y004346D01*
X006497Y004395D02*
X004960Y004395D01*
X004960Y004444D02*
X006497Y004444D01*
X006497Y004492D02*
X004960Y004492D01*
X004960Y004541D02*
X006497Y004541D01*
X006497Y004589D02*
X004960Y004589D01*
X004960Y004638D02*
X006497Y004638D01*
X006497Y004686D02*
X004960Y004686D01*
X004960Y004735D02*
X006497Y004735D01*
X006497Y004783D02*
X004960Y004783D01*
X004960Y004832D02*
X006497Y004832D01*
X006497Y004880D02*
X004960Y004880D01*
X005000Y004929D02*
X006497Y004929D01*
X006497Y004978D02*
X005049Y004978D01*
X005097Y005026D02*
X006497Y005026D01*
X006497Y005075D02*
X005146Y005075D01*
X005194Y005123D02*
X006497Y005123D01*
X006513Y005172D02*
X005243Y005172D01*
X005291Y005220D02*
X006533Y005220D01*
X006553Y005269D02*
X005340Y005269D01*
X005388Y005317D02*
X006578Y005317D01*
X006626Y005366D02*
X005437Y005366D01*
X005485Y005414D02*
X006675Y005414D01*
X006749Y005463D02*
X005534Y005463D01*
X005583Y005511D02*
X006866Y005511D01*
X004918Y005511D02*
X004591Y005511D01*
X004708Y005463D02*
X004869Y005463D01*
X004821Y005414D02*
X004782Y005414D01*
X015322Y009201D02*
X017033Y009201D01*
X017033Y009249D02*
X015370Y009249D01*
X015413Y009292D02*
X015413Y009292D01*
X015419Y009298D02*
X017033Y009298D01*
X017033Y009346D02*
X015467Y009346D01*
X015516Y009395D02*
X016991Y009395D01*
X016942Y009444D02*
X015565Y009444D01*
X015613Y009492D02*
X016894Y009492D01*
X016845Y009541D02*
X015662Y009541D01*
X015710Y009589D02*
X016797Y009589D01*
X016748Y009638D02*
X015759Y009638D01*
X015807Y009686D02*
X016700Y009686D01*
X016651Y009735D02*
X015856Y009735D01*
X024696Y011725D02*
X024731Y011725D01*
X024745Y011774D02*
X024780Y011774D01*
X024793Y011822D02*
X024829Y011822D01*
X024842Y011871D02*
X024877Y011871D01*
X024890Y011919D02*
X024926Y011919D01*
X024939Y011968D02*
X024974Y011968D01*
X024987Y012016D02*
X025673Y012016D01*
X025721Y012065D02*
X025036Y012065D01*
X025084Y012113D02*
X025770Y012113D01*
X025773Y012162D02*
X025133Y012162D01*
X025182Y012210D02*
X025773Y012210D01*
X025773Y012259D02*
X025230Y012259D01*
X025279Y012308D02*
X025773Y012308D01*
X025785Y012356D02*
X025677Y012356D01*
X025726Y012405D02*
X025805Y012405D01*
X025825Y012453D02*
X025774Y012453D01*
X025823Y012502D02*
X025851Y012502D01*
X025871Y012550D02*
X025900Y012550D01*
X025920Y012599D02*
X025948Y012599D01*
X025968Y012647D02*
X026040Y012647D01*
X026017Y012696D02*
X026640Y012696D01*
X030595Y011774D02*
X031297Y011774D01*
X031189Y011822D02*
X030643Y011822D01*
X030692Y011871D02*
X031140Y011871D01*
X031092Y011919D02*
X030713Y011919D01*
X030713Y011968D02*
X031050Y011968D01*
X031030Y012016D02*
X030713Y012016D01*
X030713Y012065D02*
X031010Y012065D01*
X030990Y012113D02*
X030713Y012113D01*
X030713Y012162D02*
X030978Y012162D01*
X030978Y012210D02*
X030713Y012210D01*
X030713Y012259D02*
X030978Y012259D01*
X030978Y012308D02*
X030713Y012308D01*
X030713Y012356D02*
X030985Y012356D01*
X031006Y012405D02*
X030713Y012405D01*
X030713Y012453D02*
X031026Y012453D01*
X031046Y012502D02*
X030713Y012502D01*
X030713Y012550D02*
X031082Y012550D01*
X031131Y012599D02*
X030713Y012599D01*
X030713Y012647D02*
X031179Y012647D01*
X031660Y011774D02*
X031862Y011774D01*
X031814Y011822D02*
X031768Y011822D01*
X027653Y009686D02*
X025421Y009686D01*
X025415Y009638D02*
X026017Y009638D01*
X025939Y009589D02*
X025395Y009589D01*
X025375Y009541D02*
X025890Y009541D01*
X025842Y009492D02*
X025355Y009492D01*
X025308Y009444D02*
X025821Y009444D01*
X025801Y009395D02*
X025259Y009395D01*
X025185Y009346D02*
X025781Y009346D01*
X025773Y009298D02*
X025068Y009298D01*
X025421Y009735D02*
X027604Y009735D01*
X027556Y009783D02*
X025421Y009783D01*
X025419Y009832D02*
X026040Y009832D01*
X025948Y009880D02*
X025451Y009880D01*
X025500Y009929D02*
X025900Y009929D01*
X025851Y009977D02*
X025549Y009977D01*
X027115Y007987D02*
X027193Y007987D01*
X027193Y007939D02*
X027067Y007939D01*
X027018Y007890D02*
X027193Y007890D01*
X027193Y007842D02*
X026940Y007842D01*
X034040Y005269D02*
X034578Y005269D01*
X034536Y005317D02*
X034088Y005317D01*
X034137Y005366D02*
X034536Y005366D01*
X034536Y005414D02*
X034186Y005414D01*
X034234Y005463D02*
X034536Y005463D01*
X034536Y005511D02*
X034283Y005511D01*
X034331Y005560D02*
X034536Y005560D01*
X034536Y005609D02*
X034380Y005609D01*
X034428Y005657D02*
X034536Y005657D01*
X034536Y005706D02*
X034477Y005706D01*
X034525Y005754D02*
X034536Y005754D01*
X035421Y005754D02*
X035536Y005754D01*
X035536Y005803D02*
X035421Y005803D01*
X035421Y005706D02*
X035543Y005706D01*
X035591Y005657D02*
X035421Y005657D01*
X035421Y005609D02*
X035640Y005609D01*
X034743Y005172D02*
X033943Y005172D01*
X033913Y005123D02*
X034743Y005123D01*
X034743Y005075D02*
X033913Y005075D01*
X033913Y005026D02*
X034743Y005026D01*
X034743Y004978D02*
X033913Y004978D01*
X033913Y004929D02*
X034743Y004929D01*
X034743Y004880D02*
X033913Y004880D01*
X033913Y004832D02*
X034743Y004832D01*
X034743Y004783D02*
X033913Y004783D01*
X033913Y004735D02*
X034743Y004735D01*
X034743Y004686D02*
X033913Y004686D01*
X033913Y004638D02*
X034743Y004638D01*
X034743Y004589D02*
X033913Y004589D01*
X033913Y004541D02*
X034743Y004541D01*
X034743Y004492D02*
X033913Y004492D01*
X033913Y004444D02*
X034700Y004444D01*
X034651Y004395D02*
X033913Y004395D01*
X033913Y004346D02*
X034603Y004346D01*
X034554Y004298D02*
X033913Y004298D01*
X033913Y004249D02*
X034506Y004249D01*
X034457Y004201D02*
X033913Y004201D01*
X033913Y004152D02*
X034409Y004152D01*
X034360Y004104D02*
X033913Y004104D01*
X033913Y004055D02*
X034312Y004055D01*
X034263Y004007D02*
X033913Y004007D01*
X033913Y003958D02*
X034215Y003958D01*
X034166Y003910D02*
X033913Y003910D01*
X033913Y003861D02*
X034117Y003861D01*
X034069Y003812D02*
X033913Y003812D01*
X033913Y003764D02*
X034020Y003764D01*
X033972Y003715D02*
X033913Y003715D01*
X033913Y003667D02*
X033943Y003667D01*
X033943Y003618D02*
X033913Y003618D01*
X033913Y003570D02*
X033943Y003570D01*
X033943Y003521D02*
X033913Y003521D01*
X033913Y003473D02*
X033943Y003473D01*
X033943Y003424D02*
X033913Y003424D01*
X033913Y003376D02*
X033943Y003376D01*
X033943Y003327D02*
X033913Y003327D01*
X033913Y003279D02*
X033943Y003279D01*
X033943Y003230D02*
X033913Y003230D01*
X033913Y003181D02*
X033943Y003181D01*
X033943Y003133D02*
X033913Y003133D01*
X033913Y003084D02*
X033943Y003084D01*
X033943Y003036D02*
X033913Y003036D01*
X033913Y002987D02*
X033943Y002987D01*
X033943Y002939D02*
X033913Y002939D01*
X033913Y002890D02*
X033943Y002890D01*
X033943Y002842D02*
X033913Y002842D01*
X033913Y002793D02*
X033943Y002793D01*
X033943Y002745D02*
X033913Y002745D01*
X033913Y002696D02*
X033943Y002696D01*
X033943Y002647D02*
X033869Y002647D01*
X033820Y002599D02*
X033943Y002599D01*
X034413Y002599D02*
X037488Y002599D01*
X037482Y002550D02*
X034413Y002550D01*
X034413Y002502D02*
X037482Y002502D01*
X037482Y002453D02*
X034413Y002453D01*
X034413Y002405D02*
X037482Y002405D01*
X037482Y002356D02*
X034413Y002356D01*
X034413Y002308D02*
X037482Y002308D01*
X037522Y002162D02*
X034413Y002162D01*
X034413Y002113D02*
X037542Y002113D01*
X037562Y002065D02*
X034413Y002065D01*
X034413Y002016D02*
X037582Y002016D01*
X037602Y001968D02*
X034413Y001968D01*
X034413Y001919D02*
X037645Y001919D01*
X037694Y001871D02*
X034413Y001871D01*
X034413Y001822D02*
X037743Y001822D01*
X037791Y001774D02*
X034413Y001774D01*
X034413Y001725D02*
X037846Y001725D01*
X037963Y001677D02*
X034413Y001677D01*
X034399Y001628D02*
X038080Y001628D01*
X037509Y002647D02*
X034413Y002647D01*
X034413Y002696D02*
X037529Y002696D01*
X037549Y002745D02*
X034413Y002745D01*
X034413Y002793D02*
X037569Y002793D01*
X037589Y002842D02*
X034413Y002842D01*
X034413Y002890D02*
X037613Y002890D01*
X037662Y002939D02*
X034413Y002939D01*
X034413Y002987D02*
X037710Y002987D01*
X037759Y003036D02*
X034413Y003036D01*
X034413Y003084D02*
X037808Y003084D01*
X037885Y003133D02*
X034413Y003133D01*
X034413Y003181D02*
X034824Y003181D01*
X034732Y003230D02*
X034413Y003230D01*
X034413Y003279D02*
X034684Y003279D01*
X034637Y003327D02*
X034413Y003327D01*
X034413Y003376D02*
X034617Y003376D01*
X034576Y003521D02*
X034442Y003521D01*
X034491Y003570D02*
X034576Y003570D01*
X034576Y003618D02*
X034539Y003618D01*
X034588Y003667D02*
X034590Y003667D01*
X034879Y003958D02*
X036187Y003958D01*
X036187Y003910D02*
X035168Y003910D01*
X035239Y003861D02*
X036187Y003861D01*
X036187Y003812D02*
X035287Y003812D01*
X035326Y003764D02*
X036187Y003764D01*
X036187Y003715D02*
X035346Y003715D01*
X035366Y003667D02*
X036204Y003667D01*
X036224Y003618D02*
X035381Y003618D01*
X035381Y003570D02*
X036244Y003570D01*
X036264Y003521D02*
X035381Y003521D01*
X035340Y003376D02*
X036370Y003376D01*
X036419Y003327D02*
X035320Y003327D01*
X035273Y003279D02*
X036467Y003279D01*
X036553Y003230D02*
X035224Y003230D01*
X035133Y003181D02*
X036671Y003181D01*
X037097Y003181D02*
X038003Y003181D01*
X038120Y003230D02*
X037215Y003230D01*
X036195Y004007D02*
X035078Y004007D01*
X035126Y004055D02*
X036215Y004055D01*
X036235Y004104D02*
X035175Y004104D01*
X035213Y004152D02*
X036255Y004152D01*
X036275Y004201D02*
X035213Y004201D01*
X035213Y004249D02*
X036299Y004249D01*
X036348Y004298D02*
X035213Y004298D01*
X035213Y004346D02*
X036396Y004346D01*
X036445Y004395D02*
X035213Y004395D01*
X035213Y004444D02*
X036499Y004444D01*
X036617Y004492D02*
X035213Y004492D01*
X034627Y005220D02*
X033991Y005220D01*
X025246Y004589D02*
X023758Y004589D01*
X031068Y013958D02*
X016129Y013958D01*
X016178Y014007D02*
X031116Y014007D01*
X031165Y014055D02*
X016226Y014055D01*
X016275Y014104D02*
X031213Y014104D01*
X031262Y014152D02*
X016323Y014152D01*
X001940Y014735D02*
X039253Y014735D01*
X039253Y014783D02*
X001891Y014783D01*
X031913Y014638D02*
X038096Y014638D01*
X037979Y014589D02*
X031961Y014589D01*
X032010Y014541D02*
X037862Y014541D01*
X037798Y014492D02*
X032058Y014492D01*
D18*
X031778Y014440D02*
X016278Y014440D01*
X013953Y012115D01*
X014328Y011740D01*
X014478Y011740D01*
X014478Y011240D01*
X013478Y011240D02*
X013478Y010890D01*
X014178Y010190D01*
X014878Y010190D01*
X017378Y012690D01*
X017478Y012690D01*
X017478Y013240D01*
X018478Y013240D02*
X018478Y012240D01*
X018978Y012440D02*
X018978Y010290D01*
X015678Y010290D01*
X015078Y009690D01*
X011178Y009690D01*
X009978Y010890D01*
X009978Y011240D01*
X010978Y011240D02*
X011328Y011240D01*
X010278Y012290D01*
X008028Y012290D01*
X007478Y011740D01*
X007478Y011240D01*
X006478Y011240D02*
X006478Y010890D01*
X007978Y009390D01*
X015178Y009390D01*
X015778Y009990D01*
X016728Y009990D01*
X017478Y009240D01*
X018478Y009240D02*
X018478Y008240D01*
X019478Y008240D02*
X019978Y008740D01*
X019978Y011790D01*
X024428Y011790D01*
X025228Y012590D01*
X025578Y012590D01*
X025928Y012940D01*
X026728Y012940D01*
X029428Y010240D01*
X029478Y010240D01*
X030978Y010240D01*
X029478Y009240D02*
X029278Y009440D01*
X029028Y009440D01*
X028578Y009890D01*
X028228Y009890D01*
X028128Y009990D01*
X027978Y009990D01*
X026478Y010240D02*
X025478Y010240D01*
X024978Y009740D01*
X024328Y010090D02*
X025478Y011240D01*
X026478Y011240D01*
X025728Y011740D02*
X025078Y011740D01*
X023578Y010240D01*
X023478Y010240D01*
X024278Y010090D02*
X024328Y010090D01*
X024278Y010090D02*
X024278Y009040D01*
X022478Y007240D01*
X021928Y006790D02*
X021478Y007240D01*
X019478Y007240D01*
X019978Y007740D02*
X006128Y007740D01*
X002978Y010890D01*
X002978Y011240D01*
X003978Y011240D02*
X004078Y011340D01*
X004528Y011340D01*
X005478Y012290D01*
X006778Y012290D01*
X007328Y011740D01*
X007478Y011740D01*
X004128Y011440D02*
X003978Y011240D01*
X004128Y011440D02*
X003278Y012290D01*
X002228Y012290D01*
X002228Y009040D01*
X005503Y005765D01*
X004478Y004740D01*
X003478Y004740D02*
X003478Y004390D01*
X005678Y002190D01*
X020428Y002190D01*
X021478Y003240D01*
X022478Y003240D02*
X022478Y004240D01*
X023478Y004240D02*
X023628Y004240D01*
X023728Y004340D01*
X025328Y004340D01*
X026028Y005040D01*
X026278Y005040D01*
X026478Y005240D01*
X026228Y006240D02*
X024978Y004990D01*
X020228Y004990D01*
X019478Y004240D01*
X018478Y004240D02*
X018478Y003240D01*
X017478Y003240D02*
X016728Y002490D01*
X008878Y002490D01*
X006978Y004390D01*
X006978Y004740D01*
X007978Y004740D02*
X008328Y004740D01*
X007278Y005790D01*
X005528Y005790D01*
X005503Y005765D01*
X008328Y004740D02*
X008428Y004740D01*
X009478Y003690D01*
X010778Y003690D01*
X011328Y004240D01*
X011478Y004240D01*
X011478Y004740D01*
X011928Y004740D01*
X012978Y003690D01*
X014278Y003690D01*
X014828Y004240D01*
X014978Y004240D01*
X014978Y004740D01*
X013978Y004740D02*
X013978Y005090D01*
X014678Y005790D01*
X015278Y005790D01*
X015778Y005290D01*
X020528Y005290D01*
X021478Y006240D01*
X022478Y006240D02*
X023478Y007240D01*
X021978Y006790D02*
X021928Y006790D01*
X021978Y006790D02*
X021978Y005790D01*
X022478Y005290D01*
X024278Y005290D01*
X026028Y007040D01*
X026278Y007040D01*
X026478Y007240D01*
X027428Y006790D02*
X027428Y008390D01*
X027403Y008415D01*
X027978Y008990D01*
X027978Y008940D01*
X028178Y008740D01*
X030378Y008740D01*
X030778Y009140D01*
X030878Y009140D01*
X030978Y009240D01*
X033428Y011690D01*
X033928Y011690D01*
X034478Y012240D01*
X033428Y011690D02*
X032278Y011690D01*
X031728Y012240D01*
X031478Y012240D01*
X031478Y013740D01*
X031778Y014440D02*
X032478Y013740D01*
X032578Y013740D01*
X033328Y012990D01*
X035978Y012990D01*
X035978Y007653D01*
X034978Y007290D02*
X034978Y007251D01*
X034978Y007290D02*
X034928Y007340D01*
X033678Y007340D01*
X033078Y006740D01*
X032978Y006740D01*
X032478Y006740D01*
X032378Y006740D01*
X031878Y007240D01*
X029478Y007240D01*
X028728Y006740D02*
X028728Y007740D01*
X032478Y007740D01*
X032978Y007740D01*
X033228Y007740D01*
X033378Y007890D01*
X034828Y007890D01*
X034978Y008040D01*
X034978Y008055D01*
X034478Y006850D02*
X034478Y006840D01*
X033478Y005840D01*
X031728Y005840D01*
X031628Y005740D01*
X031478Y005740D01*
X030978Y005740D01*
X030878Y005740D01*
X030378Y006240D01*
X029478Y006240D01*
X028728Y006740D02*
X027978Y006240D01*
X028028Y006240D01*
X028028Y005740D01*
X028553Y005215D01*
X028528Y005190D01*
X028128Y005190D01*
X028128Y003140D01*
X028103Y003115D01*
X028978Y002240D01*
X029478Y002240D01*
X029978Y001740D02*
X029778Y001540D01*
X028678Y001540D01*
X028078Y002140D01*
X027228Y002140D01*
X027128Y002240D01*
X026978Y002240D01*
X026478Y002240D01*
X026328Y002240D01*
X026228Y002340D01*
X025778Y002340D01*
X025778Y003540D01*
X026478Y004240D01*
X026478Y003240D02*
X026978Y003240D01*
X027128Y003240D01*
X027228Y003140D01*
X028078Y003140D01*
X028103Y003115D01*
X028978Y003240D02*
X029478Y003240D01*
X029578Y003240D01*
X030028Y002790D01*
X033678Y002790D01*
X033678Y005240D01*
X034478Y006040D01*
X034478Y006047D01*
X034378Y006340D02*
X034878Y006340D01*
X034978Y006440D01*
X034978Y006448D01*
X034378Y006340D02*
X033078Y005040D01*
X033078Y004490D01*
X032978Y004490D01*
X032478Y004490D01*
X032428Y004490D01*
X031678Y005240D01*
X029478Y005240D01*
X029028Y004740D02*
X028553Y005215D01*
X029028Y004740D02*
X030978Y004740D01*
X031228Y004740D01*
X032478Y003490D01*
X032978Y003490D01*
X034178Y003590D02*
X034178Y001740D01*
X029978Y001740D01*
X029478Y003240D02*
X029478Y004240D01*
X031228Y004740D02*
X031478Y004740D01*
X034178Y003590D02*
X034828Y004240D01*
X034978Y004240D01*
X034978Y005645D01*
X027978Y006240D02*
X027428Y006790D01*
X026478Y006240D02*
X026228Y006240D01*
X024978Y007740D02*
X026478Y009240D01*
X027403Y008415D02*
X027228Y008240D01*
X026478Y008240D01*
X022478Y009240D02*
X022478Y010240D01*
X021478Y009240D02*
X019978Y007740D01*
X018478Y007240D02*
X018478Y006240D01*
X017478Y006240D02*
X016728Y006990D01*
X012378Y006990D01*
X010478Y005090D01*
X010478Y004740D01*
X011328Y011240D02*
X011428Y011240D01*
X012478Y012290D01*
X013778Y012290D01*
X013953Y012115D01*
X018978Y012440D02*
X019478Y012940D01*
X019828Y012940D01*
X020278Y012490D01*
X020728Y012490D01*
X021478Y013240D01*
X022478Y013240D02*
X022978Y013240D01*
X023978Y013240D02*
X024228Y013240D01*
X024528Y013540D01*
X029428Y013540D01*
X030128Y012840D01*
X030478Y012840D01*
X030478Y011990D01*
X029928Y011440D01*
X029678Y011440D01*
X029478Y011240D01*
X029478Y012240D02*
X028678Y013040D01*
X027028Y013040D01*
X026828Y013240D01*
X025828Y013240D01*
X025478Y012890D01*
X024628Y012890D01*
X023928Y012190D01*
X019528Y012190D01*
X019478Y012240D01*
X025728Y011740D02*
X026028Y012040D01*
X026278Y012040D01*
X026478Y012240D01*
X030978Y009240D02*
X030978Y009190D01*
X031028Y009190D01*
X036478Y013240D02*
X037478Y012240D01*
X036478Y013240D02*
X036478Y013740D01*
D19*
X035978Y006850D02*
X034478Y006850D01*
X034478Y006047D02*
X035978Y006047D01*
M02*
