%
M48
M72
T01C0.0315
T02C0.0320
T03C0.0354
T04C0.0394
T05C0.0945
T06C0.1181
%
T01
X3631Y5244
X4631Y5645
X3631Y6047
X4631Y6448
X3631Y6850
X4631Y7251
X3631Y7653
X4631Y8055
X14631Y7740
X14631Y8740
X14631Y9740
T02
X13131Y10240
X11631Y9990
X10131Y10240
X8631Y10240
X8631Y9240
X10131Y9240
X11631Y8990
X13131Y9240
X13131Y8240
X13131Y7240
X11631Y7240
X10131Y7240
X10131Y8240
X7131Y7740
X6631Y7740
X6631Y6740
X7131Y6740
X8131Y5740
X8631Y5740
X10131Y6240
X11631Y6240
X13131Y6240
X13131Y5240
X13131Y4240
X13131Y3240
X12631Y3240
X10631Y3240
X10131Y3240
X10131Y4240
X8631Y4740
X8131Y4740
X7131Y4490
X6631Y4490
X6631Y3490
X7131Y3490
X10131Y2240
X10631Y2240
X12631Y2240
X13131Y2240
X17131Y3240
X18131Y3240
X19131Y3240
X21131Y3240
X22131Y3240
X23131Y3240
X21131Y4240
X20131Y4240
X17131Y4240
X16131Y4240
X17131Y6240
X18131Y6240
X19131Y6240
X21131Y6240
X22131Y6240
X23131Y6240
X21131Y7240
X20131Y7240
X20131Y8240
X21131Y8240
X21131Y9240
X22131Y9240
X23131Y9240
X19131Y9240
X18131Y9240
X17131Y9240
X17131Y10240
X16131Y10240
X13131Y11240
X13131Y12240
X15631Y13240
X16631Y13240
X17131Y13240
X18131Y13240
X19131Y13240
X21131Y13240
X22131Y13240
X23131Y13240
X21131Y12240
X20131Y12240
X10131Y12240
X8131Y12240
X7131Y12240
X5131Y12240
X2131Y12240
X3131Y13740
X4131Y13740
X7131Y13740
X8131Y13740
X10131Y11240
X16131Y7240
X17131Y7240
X10131Y5240
T03
X4631Y3553
X4631Y9553
T04
X24631Y4740
X25631Y4740
X28131Y4740
X29131Y4740
X31631Y4740
X32631Y4740
X35131Y4740
X36131Y4740
X35631Y11240
X36631Y11240
X33131Y11240
X32131Y11240
X29631Y11240
X28631Y11240
X26131Y11240
X25131Y11240
T05
X2726Y9238
X2726Y3848
T06
X1312Y2421
X1312Y13838
X38320Y13838
X38320Y2421
M30
