%
M48
M72
T01C0.0120
T02C0.0320
T03C0.0394
T04C0.0400
T05C0.0512
T06C0.1181
T07C0.1378
%
T01
X50047Y10180
X52127Y14820
X59047Y14820
T02
X58921Y16240
X57192Y17383
X56192Y17383
X55921Y16240
X54827Y16180
X52867Y17220
X51867Y17220
X51827Y16180
X50747Y16180
X48867Y17220
X47867Y17220
X47747Y16180
X47778Y18589
X50778Y18589
X51794Y18596
X54794Y18596
X55990Y18645
X58990Y18645
X57134Y19948
X56134Y19948
X52994Y19969
X51994Y19969
X48776Y19972
X47776Y19972
T03
X45597Y15588
X44597Y15588
X44597Y14588
X45597Y14588
X45597Y13588
X44597Y13588
X44597Y12588
X45597Y12588
X45597Y11588
X44597Y11588
X44597Y10588
X45597Y10588
X45597Y9588
X44597Y9588
T04
X48607Y4860
X48607Y3860
X48607Y2860
X60351Y9781
X61351Y9781
X61351Y10781
X60351Y10781
X60351Y11781
X61351Y11781
X61351Y12781
X60351Y12781
X60351Y13781
X61351Y13781
X61351Y14781
X60351Y14781
X60351Y15781
X61351Y15781
X61351Y16781
X60351Y16781
X60351Y17781
X61351Y17781
X61351Y18781
X60351Y18781
T05
X59946Y6549
X58962Y6549
X56054Y6549
X55070Y6549
X52136Y6549
X51152Y6549
X51143Y3380
X52127Y3380
X55143Y3380
X56127Y3380
X58957Y3429
X59941Y3429
T06
X61591Y2641
X58835Y19964
T07
X2487Y6879
X2487Y18297
X45007Y18297
X45007Y6879
M30
