G75*
G70*
%OFA0B0*%
%FSLAX24Y24*%
%IPPOS*%
%LPD*%
%AMOC8*
5,1,8,0,0,1.08239X$1,22.5*
%
%ADD10C,0.0000*%
%ADD11C,0.1221*%
%ADD12OC8,0.0640*%
%ADD13C,0.1418*%
%ADD14C,0.0634*%
%ADD15OC8,0.0560*%
%ADD16R,0.0808X0.0808*%
%ADD17C,0.0640*%
D10*
X001798Y006879D02*
X001800Y006931D01*
X001806Y006983D01*
X001816Y007034D01*
X001829Y007084D01*
X001847Y007134D01*
X001868Y007181D01*
X001892Y007227D01*
X001921Y007271D01*
X001952Y007313D01*
X001986Y007352D01*
X002023Y007389D01*
X002063Y007422D01*
X002106Y007453D01*
X002150Y007480D01*
X002196Y007504D01*
X002245Y007524D01*
X002294Y007540D01*
X002345Y007553D01*
X002396Y007562D01*
X002448Y007567D01*
X002500Y007568D01*
X002552Y007565D01*
X002604Y007558D01*
X002655Y007547D01*
X002705Y007533D01*
X002754Y007514D01*
X002801Y007492D01*
X002846Y007467D01*
X002890Y007438D01*
X002931Y007406D01*
X002970Y007371D01*
X003005Y007333D01*
X003038Y007292D01*
X003068Y007250D01*
X003094Y007205D01*
X003117Y007158D01*
X003136Y007109D01*
X003152Y007059D01*
X003164Y007009D01*
X003172Y006957D01*
X003176Y006905D01*
X003176Y006853D01*
X003172Y006801D01*
X003164Y006749D01*
X003152Y006699D01*
X003136Y006649D01*
X003117Y006600D01*
X003094Y006553D01*
X003068Y006508D01*
X003038Y006466D01*
X003005Y006425D01*
X002970Y006387D01*
X002931Y006352D01*
X002890Y006320D01*
X002846Y006291D01*
X002801Y006266D01*
X002754Y006244D01*
X002705Y006225D01*
X002655Y006211D01*
X002604Y006200D01*
X002552Y006193D01*
X002500Y006190D01*
X002448Y006191D01*
X002396Y006196D01*
X002345Y006205D01*
X002294Y006218D01*
X002245Y006234D01*
X002196Y006254D01*
X002150Y006278D01*
X002106Y006305D01*
X002063Y006336D01*
X002023Y006369D01*
X001986Y006406D01*
X001952Y006445D01*
X001921Y006487D01*
X001892Y006531D01*
X001868Y006577D01*
X001847Y006624D01*
X001829Y006674D01*
X001816Y006724D01*
X001806Y006775D01*
X001800Y006827D01*
X001798Y006879D01*
X001798Y018297D02*
X001800Y018349D01*
X001806Y018401D01*
X001816Y018452D01*
X001829Y018502D01*
X001847Y018552D01*
X001868Y018599D01*
X001892Y018645D01*
X001921Y018689D01*
X001952Y018731D01*
X001986Y018770D01*
X002023Y018807D01*
X002063Y018840D01*
X002106Y018871D01*
X002150Y018898D01*
X002196Y018922D01*
X002245Y018942D01*
X002294Y018958D01*
X002345Y018971D01*
X002396Y018980D01*
X002448Y018985D01*
X002500Y018986D01*
X002552Y018983D01*
X002604Y018976D01*
X002655Y018965D01*
X002705Y018951D01*
X002754Y018932D01*
X002801Y018910D01*
X002846Y018885D01*
X002890Y018856D01*
X002931Y018824D01*
X002970Y018789D01*
X003005Y018751D01*
X003038Y018710D01*
X003068Y018668D01*
X003094Y018623D01*
X003117Y018576D01*
X003136Y018527D01*
X003152Y018477D01*
X003164Y018427D01*
X003172Y018375D01*
X003176Y018323D01*
X003176Y018271D01*
X003172Y018219D01*
X003164Y018167D01*
X003152Y018117D01*
X003136Y018067D01*
X003117Y018018D01*
X003094Y017971D01*
X003068Y017926D01*
X003038Y017884D01*
X003005Y017843D01*
X002970Y017805D01*
X002931Y017770D01*
X002890Y017738D01*
X002846Y017709D01*
X002801Y017684D01*
X002754Y017662D01*
X002705Y017643D01*
X002655Y017629D01*
X002604Y017618D01*
X002552Y017611D01*
X002500Y017608D01*
X002448Y017609D01*
X002396Y017614D01*
X002345Y017623D01*
X002294Y017636D01*
X002245Y017652D01*
X002196Y017672D01*
X002150Y017696D01*
X002106Y017723D01*
X002063Y017754D01*
X002023Y017787D01*
X001986Y017824D01*
X001952Y017863D01*
X001921Y017905D01*
X001892Y017949D01*
X001868Y017995D01*
X001847Y018042D01*
X001829Y018092D01*
X001816Y018142D01*
X001806Y018193D01*
X001800Y018245D01*
X001798Y018297D01*
X043087Y021145D02*
X043087Y001460D01*
X062772Y001460D01*
X062772Y021145D01*
X043087Y021145D01*
X044318Y018297D02*
X044320Y018349D01*
X044326Y018401D01*
X044336Y018452D01*
X044349Y018502D01*
X044367Y018552D01*
X044388Y018599D01*
X044412Y018645D01*
X044441Y018689D01*
X044472Y018731D01*
X044506Y018770D01*
X044543Y018807D01*
X044583Y018840D01*
X044626Y018871D01*
X044670Y018898D01*
X044716Y018922D01*
X044765Y018942D01*
X044814Y018958D01*
X044865Y018971D01*
X044916Y018980D01*
X044968Y018985D01*
X045020Y018986D01*
X045072Y018983D01*
X045124Y018976D01*
X045175Y018965D01*
X045225Y018951D01*
X045274Y018932D01*
X045321Y018910D01*
X045366Y018885D01*
X045410Y018856D01*
X045451Y018824D01*
X045490Y018789D01*
X045525Y018751D01*
X045558Y018710D01*
X045588Y018668D01*
X045614Y018623D01*
X045637Y018576D01*
X045656Y018527D01*
X045672Y018477D01*
X045684Y018427D01*
X045692Y018375D01*
X045696Y018323D01*
X045696Y018271D01*
X045692Y018219D01*
X045684Y018167D01*
X045672Y018117D01*
X045656Y018067D01*
X045637Y018018D01*
X045614Y017971D01*
X045588Y017926D01*
X045558Y017884D01*
X045525Y017843D01*
X045490Y017805D01*
X045451Y017770D01*
X045410Y017738D01*
X045366Y017709D01*
X045321Y017684D01*
X045274Y017662D01*
X045225Y017643D01*
X045175Y017629D01*
X045124Y017618D01*
X045072Y017611D01*
X045020Y017608D01*
X044968Y017609D01*
X044916Y017614D01*
X044865Y017623D01*
X044814Y017636D01*
X044765Y017652D01*
X044716Y017672D01*
X044670Y017696D01*
X044626Y017723D01*
X044583Y017754D01*
X044543Y017787D01*
X044506Y017824D01*
X044472Y017863D01*
X044441Y017905D01*
X044412Y017949D01*
X044388Y017995D01*
X044367Y018042D01*
X044349Y018092D01*
X044336Y018142D01*
X044326Y018193D01*
X044320Y018245D01*
X044318Y018297D01*
X058244Y019964D02*
X058246Y020012D01*
X058252Y020060D01*
X058262Y020107D01*
X058275Y020153D01*
X058293Y020198D01*
X058313Y020242D01*
X058338Y020284D01*
X058366Y020323D01*
X058396Y020360D01*
X058430Y020394D01*
X058467Y020426D01*
X058505Y020455D01*
X058546Y020480D01*
X058589Y020502D01*
X058634Y020520D01*
X058680Y020534D01*
X058727Y020545D01*
X058775Y020552D01*
X058823Y020555D01*
X058871Y020554D01*
X058919Y020549D01*
X058967Y020540D01*
X059013Y020528D01*
X059058Y020511D01*
X059102Y020491D01*
X059144Y020468D01*
X059184Y020441D01*
X059222Y020411D01*
X059257Y020378D01*
X059289Y020342D01*
X059319Y020304D01*
X059345Y020263D01*
X059367Y020220D01*
X059387Y020176D01*
X059402Y020131D01*
X059414Y020084D01*
X059422Y020036D01*
X059426Y019988D01*
X059426Y019940D01*
X059422Y019892D01*
X059414Y019844D01*
X059402Y019797D01*
X059387Y019752D01*
X059367Y019708D01*
X059345Y019665D01*
X059319Y019624D01*
X059289Y019586D01*
X059257Y019550D01*
X059222Y019517D01*
X059184Y019487D01*
X059144Y019460D01*
X059102Y019437D01*
X059058Y019417D01*
X059013Y019400D01*
X058967Y019388D01*
X058919Y019379D01*
X058871Y019374D01*
X058823Y019373D01*
X058775Y019376D01*
X058727Y019383D01*
X058680Y019394D01*
X058634Y019408D01*
X058589Y019426D01*
X058546Y019448D01*
X058505Y019473D01*
X058467Y019502D01*
X058430Y019534D01*
X058396Y019568D01*
X058366Y019605D01*
X058338Y019644D01*
X058313Y019686D01*
X058293Y019730D01*
X058275Y019775D01*
X058262Y019821D01*
X058252Y019868D01*
X058246Y019916D01*
X058244Y019964D01*
X044318Y006879D02*
X044320Y006931D01*
X044326Y006983D01*
X044336Y007034D01*
X044349Y007084D01*
X044367Y007134D01*
X044388Y007181D01*
X044412Y007227D01*
X044441Y007271D01*
X044472Y007313D01*
X044506Y007352D01*
X044543Y007389D01*
X044583Y007422D01*
X044626Y007453D01*
X044670Y007480D01*
X044716Y007504D01*
X044765Y007524D01*
X044814Y007540D01*
X044865Y007553D01*
X044916Y007562D01*
X044968Y007567D01*
X045020Y007568D01*
X045072Y007565D01*
X045124Y007558D01*
X045175Y007547D01*
X045225Y007533D01*
X045274Y007514D01*
X045321Y007492D01*
X045366Y007467D01*
X045410Y007438D01*
X045451Y007406D01*
X045490Y007371D01*
X045525Y007333D01*
X045558Y007292D01*
X045588Y007250D01*
X045614Y007205D01*
X045637Y007158D01*
X045656Y007109D01*
X045672Y007059D01*
X045684Y007009D01*
X045692Y006957D01*
X045696Y006905D01*
X045696Y006853D01*
X045692Y006801D01*
X045684Y006749D01*
X045672Y006699D01*
X045656Y006649D01*
X045637Y006600D01*
X045614Y006553D01*
X045588Y006508D01*
X045558Y006466D01*
X045525Y006425D01*
X045490Y006387D01*
X045451Y006352D01*
X045410Y006320D01*
X045366Y006291D01*
X045321Y006266D01*
X045274Y006244D01*
X045225Y006225D01*
X045175Y006211D01*
X045124Y006200D01*
X045072Y006193D01*
X045020Y006190D01*
X044968Y006191D01*
X044916Y006196D01*
X044865Y006205D01*
X044814Y006218D01*
X044765Y006234D01*
X044716Y006254D01*
X044670Y006278D01*
X044626Y006305D01*
X044583Y006336D01*
X044543Y006369D01*
X044506Y006406D01*
X044472Y006445D01*
X044441Y006487D01*
X044412Y006531D01*
X044388Y006577D01*
X044367Y006624D01*
X044349Y006674D01*
X044336Y006724D01*
X044326Y006775D01*
X044320Y006827D01*
X044318Y006879D01*
X061000Y002641D02*
X061002Y002689D01*
X061008Y002737D01*
X061018Y002784D01*
X061031Y002830D01*
X061049Y002875D01*
X061069Y002919D01*
X061094Y002961D01*
X061122Y003000D01*
X061152Y003037D01*
X061186Y003071D01*
X061223Y003103D01*
X061261Y003132D01*
X061302Y003157D01*
X061345Y003179D01*
X061390Y003197D01*
X061436Y003211D01*
X061483Y003222D01*
X061531Y003229D01*
X061579Y003232D01*
X061627Y003231D01*
X061675Y003226D01*
X061723Y003217D01*
X061769Y003205D01*
X061814Y003188D01*
X061858Y003168D01*
X061900Y003145D01*
X061940Y003118D01*
X061978Y003088D01*
X062013Y003055D01*
X062045Y003019D01*
X062075Y002981D01*
X062101Y002940D01*
X062123Y002897D01*
X062143Y002853D01*
X062158Y002808D01*
X062170Y002761D01*
X062178Y002713D01*
X062182Y002665D01*
X062182Y002617D01*
X062178Y002569D01*
X062170Y002521D01*
X062158Y002474D01*
X062143Y002429D01*
X062123Y002385D01*
X062101Y002342D01*
X062075Y002301D01*
X062045Y002263D01*
X062013Y002227D01*
X061978Y002194D01*
X061940Y002164D01*
X061900Y002137D01*
X061858Y002114D01*
X061814Y002094D01*
X061769Y002077D01*
X061723Y002065D01*
X061675Y002056D01*
X061627Y002051D01*
X061579Y002050D01*
X061531Y002053D01*
X061483Y002060D01*
X061436Y002071D01*
X061390Y002085D01*
X061345Y002103D01*
X061302Y002125D01*
X061261Y002150D01*
X061223Y002179D01*
X061186Y002211D01*
X061152Y002245D01*
X061122Y002282D01*
X061094Y002321D01*
X061069Y002363D01*
X061049Y002407D01*
X061031Y002452D01*
X061018Y002498D01*
X061008Y002545D01*
X061002Y002593D01*
X061000Y002641D01*
D11*
X061591Y002641D03*
X058835Y019964D03*
D12*
X060351Y018781D03*
X061351Y018781D03*
X061351Y017781D03*
X060351Y017781D03*
X060351Y016781D03*
X061351Y016781D03*
X061351Y015781D03*
X060351Y015781D03*
X060351Y014781D03*
X061351Y014781D03*
X061351Y013781D03*
X060351Y013781D03*
X060351Y012781D03*
X061351Y012781D03*
X061351Y011781D03*
X060351Y011781D03*
X060351Y010781D03*
X061351Y010781D03*
X061351Y009781D03*
X060351Y009781D03*
D13*
X002487Y006879D03*
X002487Y018297D03*
X045007Y018297D03*
X045007Y006879D03*
D14*
X044597Y009588D03*
X045597Y009588D03*
X045597Y010588D03*
X044597Y010588D03*
X044597Y011588D03*
X045597Y011588D03*
X045597Y012588D03*
X044597Y012588D03*
X044597Y013588D03*
X045597Y013588D03*
X045597Y014588D03*
X044597Y014588D03*
X044597Y015588D03*
X045597Y015588D03*
D15*
X047747Y016180D03*
X047867Y017220D03*
X048867Y017220D03*
X050747Y016180D03*
X051827Y016180D03*
X051867Y017220D03*
X052867Y017220D03*
X054827Y016180D03*
X055921Y016240D03*
X056192Y017383D03*
X057192Y017383D03*
X058921Y016240D03*
X058990Y018645D03*
X055990Y018645D03*
X054794Y018596D03*
X051794Y018596D03*
X050778Y018589D03*
X047778Y018589D03*
X047776Y019972D03*
X048776Y019972D03*
X051994Y019969D03*
X052994Y019969D03*
X056134Y019948D03*
X057134Y019948D03*
D16*
X056054Y006549D03*
X055070Y006549D03*
X052136Y006549D03*
X051152Y006549D03*
X058962Y006549D03*
X059946Y006549D03*
X059941Y003429D03*
X058957Y003429D03*
X056127Y003380D03*
X055143Y003380D03*
X052127Y003380D03*
X051143Y003380D03*
D17*
X048907Y003860D02*
X048307Y003860D01*
X048307Y002860D02*
X048907Y002860D01*
X048907Y004860D02*
X048307Y004860D01*
M02*
