G75*
G70*
%OFA0B0*%
%FSLAX24Y24*%
%IPPOS*%
%LPD*%
%AMOC8*
5,1,8,0,0,1.08239X$1,22.5*
%
%ADD10C,0.0000*%
%ADD11C,0.0060*%
%ADD12C,0.0080*%
%ADD13C,0.0348*%
%ADD14C,0.0030*%
%ADD15C,0.0100*%
%ADD16C,0.0020*%
%ADD17C,0.0010*%
%ADD18C,0.0040*%
%ADD19R,0.0340X0.0240*%
%ADD20C,0.0050*%
%ADD21C,0.0001*%
%ADD22R,0.0200X0.0800*%
%ADD23R,0.0250X0.0200*%
%ADD24R,0.0800X0.0200*%
%ADD25R,0.0200X0.0250*%
D10*
X001180Y001180D02*
X001180Y020865D01*
X020865Y020865D01*
X020865Y001180D01*
X001180Y001180D01*
X019066Y018569D02*
X019058Y018578D01*
X019052Y018589D01*
X019050Y018601D01*
X019052Y018613D01*
X019058Y018624D01*
X019066Y018633D01*
X019077Y018639D01*
X019089Y018641D01*
X019102Y018639D01*
X019113Y018633D01*
X019121Y018624D01*
X019127Y018613D01*
X019129Y018601D01*
X019127Y018589D01*
X019121Y018578D01*
X019113Y018569D01*
X019102Y018564D01*
X019089Y018562D01*
X019077Y018564D01*
X019066Y018569D01*
D11*
X019080Y012180D02*
X018280Y012180D01*
X018180Y012080D01*
X018080Y012180D01*
X017280Y012180D01*
X017180Y012080D01*
X017180Y011280D01*
X017280Y011180D01*
X018080Y011180D01*
X018180Y011280D01*
X018280Y011180D01*
X019080Y011180D01*
X019180Y011280D01*
X019180Y012080D01*
X019080Y012180D01*
X019330Y010680D02*
X017230Y010680D01*
X017230Y010530D01*
X017230Y009830D01*
X017080Y009830D01*
X017080Y009930D02*
X017080Y010430D01*
X017080Y010530D02*
X017230Y010530D01*
X016980Y010380D02*
X016980Y009980D01*
X016880Y010080D02*
X016880Y010280D01*
X017080Y010530D02*
X017043Y010528D01*
X017007Y010522D01*
X016972Y010513D01*
X016938Y010500D01*
X016905Y010483D01*
X016874Y010463D01*
X016846Y010440D01*
X016820Y010414D01*
X016797Y010386D01*
X016777Y010355D01*
X016760Y010322D01*
X016747Y010288D01*
X016738Y010253D01*
X016732Y010217D01*
X016730Y010180D01*
X016732Y010143D01*
X016738Y010107D01*
X016747Y010072D01*
X016760Y010038D01*
X016777Y010005D01*
X016797Y009974D01*
X016820Y009946D01*
X016846Y009920D01*
X016874Y009897D01*
X016905Y009877D01*
X016938Y009860D01*
X016972Y009847D01*
X017007Y009838D01*
X017043Y009832D01*
X017080Y009830D01*
X017230Y009830D02*
X017230Y009680D01*
X019330Y009680D01*
X019330Y010680D01*
X019330Y008180D02*
X017230Y008180D01*
X017230Y008030D01*
X017230Y007330D01*
X017080Y007330D01*
X017080Y007430D02*
X017080Y007930D01*
X017080Y008030D02*
X017230Y008030D01*
X016980Y007880D02*
X016980Y007480D01*
X016880Y007580D02*
X016880Y007780D01*
X017080Y008030D02*
X017043Y008028D01*
X017007Y008022D01*
X016972Y008013D01*
X016938Y008000D01*
X016905Y007983D01*
X016874Y007963D01*
X016846Y007940D01*
X016820Y007914D01*
X016797Y007886D01*
X016777Y007855D01*
X016760Y007822D01*
X016747Y007788D01*
X016738Y007753D01*
X016732Y007717D01*
X016730Y007680D01*
X016732Y007643D01*
X016738Y007607D01*
X016747Y007572D01*
X016760Y007538D01*
X016777Y007505D01*
X016797Y007474D01*
X016820Y007446D01*
X016846Y007420D01*
X016874Y007397D01*
X016905Y007377D01*
X016938Y007360D01*
X016972Y007347D01*
X017007Y007338D01*
X017043Y007332D01*
X017080Y007330D01*
X017230Y007330D02*
X017230Y007180D01*
X019330Y007180D01*
X019330Y008180D01*
X016480Y008430D02*
X016450Y008428D01*
X016420Y008423D01*
X016391Y008414D01*
X016364Y008401D01*
X016338Y008386D01*
X016314Y008367D01*
X016293Y008346D01*
X016274Y008322D01*
X016259Y008296D01*
X016246Y008269D01*
X016237Y008240D01*
X016232Y008210D01*
X016230Y008180D01*
X016232Y008150D01*
X016237Y008120D01*
X016246Y008091D01*
X016259Y008064D01*
X016274Y008038D01*
X016293Y008014D01*
X016314Y007993D01*
X016338Y007974D01*
X016364Y007959D01*
X016391Y007946D01*
X016420Y007937D01*
X016450Y007932D01*
X016480Y007930D01*
X016480Y007080D01*
X001880Y007080D01*
X001880Y009280D01*
X016480Y009280D01*
X016480Y008430D01*
X013930Y011030D02*
X013930Y011830D01*
X013830Y011930D01*
X013030Y011930D01*
X012930Y011830D01*
X012830Y011930D01*
X012030Y011930D01*
X011930Y011830D01*
X011830Y011930D01*
X011030Y011930D01*
X010930Y011830D01*
X010930Y011030D01*
X011030Y010930D01*
X011830Y010930D01*
X011930Y011030D01*
X012030Y010930D01*
X012830Y010930D01*
X012930Y011030D01*
X013030Y010930D01*
X013830Y010930D01*
X013930Y011030D01*
X010980Y005580D02*
X009380Y005580D01*
X009363Y005578D01*
X009346Y005574D01*
X009330Y005567D01*
X009316Y005557D01*
X009303Y005544D01*
X009293Y005530D01*
X009286Y005514D01*
X009282Y005497D01*
X009280Y005480D01*
X009280Y004880D01*
X009282Y004863D01*
X009286Y004846D01*
X009293Y004830D01*
X009303Y004816D01*
X009316Y004803D01*
X009330Y004793D01*
X009346Y004786D01*
X009363Y004782D01*
X009380Y004780D01*
X010980Y004780D01*
X010997Y004782D01*
X011014Y004786D01*
X011030Y004793D01*
X011044Y004803D01*
X011057Y004816D01*
X011067Y004830D01*
X011074Y004846D01*
X011078Y004863D01*
X011080Y004880D01*
X011080Y005480D01*
X011078Y005497D01*
X011074Y005514D01*
X011067Y005530D01*
X011057Y005544D01*
X011044Y005557D01*
X011030Y005567D01*
X011014Y005574D01*
X010997Y005578D01*
X010980Y005580D01*
X010780Y005180D02*
X010180Y005180D01*
X010180Y004930D01*
X010180Y005180D02*
X009930Y005180D01*
X010180Y005180D02*
X010180Y005430D01*
X010180Y005180D02*
X010580Y005430D01*
X010580Y004930D01*
X010180Y005180D01*
X010980Y004580D02*
X009380Y004580D01*
X009363Y004578D01*
X009346Y004574D01*
X009330Y004567D01*
X009316Y004557D01*
X009303Y004544D01*
X009293Y004530D01*
X009286Y004514D01*
X009282Y004497D01*
X009280Y004480D01*
X009280Y003880D01*
X009282Y003863D01*
X009286Y003846D01*
X009293Y003830D01*
X009303Y003816D01*
X009316Y003803D01*
X009330Y003793D01*
X009346Y003786D01*
X009363Y003782D01*
X009380Y003780D01*
X010980Y003780D01*
X010997Y003782D01*
X011014Y003786D01*
X011030Y003793D01*
X011044Y003803D01*
X011057Y003816D01*
X011067Y003830D01*
X011074Y003846D01*
X011078Y003863D01*
X011080Y003880D01*
X011080Y004480D01*
X011078Y004497D01*
X011074Y004514D01*
X011067Y004530D01*
X011057Y004544D01*
X011044Y004557D01*
X011030Y004567D01*
X011014Y004574D01*
X010997Y004578D01*
X010980Y004580D01*
X010430Y004180D02*
X010180Y004180D01*
X010180Y004430D01*
X010180Y004180D02*
X010180Y003930D01*
X010180Y004180D02*
X009780Y003930D01*
X009780Y004430D01*
X010180Y004180D01*
X009580Y004180D01*
X009380Y003580D02*
X010980Y003580D01*
X010997Y003578D01*
X011014Y003574D01*
X011030Y003567D01*
X011044Y003557D01*
X011057Y003544D01*
X011067Y003530D01*
X011074Y003514D01*
X011078Y003497D01*
X011080Y003480D01*
X011080Y002880D01*
X011078Y002863D01*
X011074Y002846D01*
X011067Y002830D01*
X011057Y002816D01*
X011044Y002803D01*
X011030Y002793D01*
X011014Y002786D01*
X010997Y002782D01*
X010980Y002780D01*
X009380Y002780D01*
X009363Y002782D01*
X009346Y002786D01*
X009330Y002793D01*
X009316Y002803D01*
X009303Y002816D01*
X009293Y002830D01*
X009286Y002846D01*
X009282Y002863D01*
X009280Y002880D01*
X009280Y003480D01*
X009282Y003497D01*
X009286Y003514D01*
X009293Y003530D01*
X009303Y003544D01*
X009316Y003557D01*
X009330Y003567D01*
X009346Y003574D01*
X009363Y003578D01*
X009380Y003580D01*
X009930Y003180D02*
X010180Y003180D01*
X010180Y002930D01*
X010180Y003180D02*
X010180Y003430D01*
X010180Y003180D02*
X010580Y003430D01*
X010580Y002930D01*
X010180Y003180D01*
X010780Y003180D01*
X010980Y002580D02*
X009380Y002580D01*
X009363Y002578D01*
X009346Y002574D01*
X009330Y002567D01*
X009316Y002557D01*
X009303Y002544D01*
X009293Y002530D01*
X009286Y002514D01*
X009282Y002497D01*
X009280Y002480D01*
X009280Y001880D01*
X009282Y001863D01*
X009286Y001846D01*
X009293Y001830D01*
X009303Y001816D01*
X009316Y001803D01*
X009330Y001793D01*
X009346Y001786D01*
X009363Y001782D01*
X009380Y001780D01*
X010980Y001780D01*
X010997Y001782D01*
X011014Y001786D01*
X011030Y001793D01*
X011044Y001803D01*
X011057Y001816D01*
X011067Y001830D01*
X011074Y001846D01*
X011078Y001863D01*
X011080Y001880D01*
X011080Y002480D01*
X011078Y002497D01*
X011074Y002514D01*
X011067Y002530D01*
X011057Y002544D01*
X011044Y002557D01*
X011030Y002567D01*
X011014Y002574D01*
X010997Y002578D01*
X010980Y002580D01*
X010430Y002180D02*
X010180Y002180D01*
X010180Y002430D01*
X010180Y002180D02*
X010180Y001930D01*
X010180Y002180D02*
X009780Y001930D01*
X009780Y002430D01*
X010180Y002180D01*
X009580Y002180D01*
X005330Y001680D02*
X003030Y001680D01*
X003030Y005680D01*
X003780Y005680D01*
X003782Y005641D01*
X003788Y005602D01*
X003797Y005564D01*
X003810Y005527D01*
X003827Y005491D01*
X003847Y005458D01*
X003871Y005426D01*
X003897Y005397D01*
X003926Y005371D01*
X003958Y005347D01*
X003991Y005327D01*
X004027Y005310D01*
X004064Y005297D01*
X004102Y005288D01*
X004141Y005282D01*
X004180Y005280D01*
X004219Y005282D01*
X004258Y005288D01*
X004296Y005297D01*
X004333Y005310D01*
X004369Y005327D01*
X004402Y005347D01*
X004434Y005371D01*
X004463Y005397D01*
X004489Y005426D01*
X004513Y005458D01*
X004533Y005491D01*
X004550Y005527D01*
X004563Y005564D01*
X004572Y005602D01*
X004578Y005641D01*
X004580Y005680D01*
X005330Y005680D01*
X005330Y001680D01*
X005540Y007710D02*
X005433Y007817D01*
X005540Y007710D02*
X005753Y007710D01*
X005860Y007817D01*
X005860Y008030D01*
X005753Y008137D01*
X005646Y008137D01*
X005433Y008030D01*
X005433Y008351D01*
X005860Y008351D01*
X005215Y008030D02*
X004788Y008030D01*
X005108Y008351D01*
X005108Y007710D01*
X004571Y007710D02*
X004144Y007710D01*
X004571Y008137D01*
X004571Y008244D01*
X004464Y008351D01*
X004250Y008351D01*
X004144Y008244D01*
X003926Y008244D02*
X003926Y008137D01*
X003819Y008030D01*
X003606Y008030D01*
X003499Y008137D01*
X003499Y008244D01*
X003606Y008351D01*
X003819Y008351D01*
X003926Y008244D01*
X003819Y008030D02*
X003926Y007924D01*
X003926Y007817D01*
X003819Y007710D01*
X003606Y007710D01*
X003499Y007817D01*
X003499Y007924D01*
X003606Y008030D01*
X003282Y008030D02*
X002855Y008030D01*
X003175Y008351D01*
X003175Y007710D01*
X002637Y007817D02*
X002637Y008244D01*
X002530Y008351D01*
X002210Y008351D01*
X002210Y007710D01*
X002530Y007710D01*
X002637Y007817D01*
X003830Y010780D02*
X006530Y010780D01*
X006589Y010782D01*
X006647Y010788D01*
X006706Y010797D01*
X006763Y010811D01*
X006819Y010828D01*
X006874Y010849D01*
X006928Y010873D01*
X006980Y010901D01*
X007030Y010932D01*
X007078Y010966D01*
X007123Y011003D01*
X007166Y011044D01*
X007207Y011087D01*
X007244Y011132D01*
X007278Y011180D01*
X007309Y011230D01*
X007337Y011282D01*
X007361Y011336D01*
X007382Y011391D01*
X007399Y011447D01*
X007413Y011504D01*
X007422Y011563D01*
X007428Y011621D01*
X007430Y011680D01*
X007428Y011739D01*
X007422Y011797D01*
X007413Y011856D01*
X007399Y011913D01*
X007382Y011969D01*
X007361Y012024D01*
X007337Y012078D01*
X007309Y012130D01*
X007278Y012180D01*
X007244Y012228D01*
X007207Y012273D01*
X007166Y012316D01*
X007123Y012357D01*
X007078Y012394D01*
X007030Y012428D01*
X006980Y012459D01*
X006928Y012487D01*
X006874Y012511D01*
X006819Y012532D01*
X006763Y012549D01*
X006706Y012563D01*
X006647Y012572D01*
X006589Y012578D01*
X006530Y012580D01*
X003830Y012580D01*
X004030Y012730D02*
X004180Y012730D01*
X004230Y012780D01*
X006130Y012780D01*
X006180Y012730D01*
X006330Y012730D01*
X006347Y012732D01*
X006364Y012736D01*
X006380Y012743D01*
X006394Y012753D01*
X006407Y012766D01*
X006417Y012780D01*
X006424Y012796D01*
X006428Y012813D01*
X006430Y012830D01*
X006430Y013530D01*
X006428Y013547D01*
X006424Y013564D01*
X006417Y013580D01*
X006407Y013594D01*
X006394Y013607D01*
X006380Y013617D01*
X006364Y013624D01*
X006347Y013628D01*
X006330Y013630D01*
X006180Y013630D01*
X006130Y013580D01*
X004230Y013580D01*
X004180Y013630D01*
X004030Y013630D01*
X004013Y013628D01*
X003996Y013624D01*
X003980Y013617D01*
X003966Y013607D01*
X003953Y013594D01*
X003943Y013580D01*
X003936Y013564D01*
X003932Y013547D01*
X003930Y013530D01*
X003930Y012830D01*
X003932Y012813D01*
X003936Y012796D01*
X003943Y012780D01*
X003953Y012766D01*
X003966Y012753D01*
X003980Y012743D01*
X003996Y012736D01*
X004013Y012732D01*
X004030Y012730D01*
X003830Y012580D02*
X003771Y012578D01*
X003713Y012572D01*
X003654Y012563D01*
X003597Y012549D01*
X003541Y012532D01*
X003486Y012511D01*
X003432Y012487D01*
X003380Y012459D01*
X003330Y012428D01*
X003282Y012394D01*
X003237Y012357D01*
X003194Y012316D01*
X003153Y012273D01*
X003116Y012228D01*
X003082Y012180D01*
X003051Y012130D01*
X003023Y012078D01*
X002999Y012024D01*
X002978Y011969D01*
X002961Y011913D01*
X002947Y011856D01*
X002938Y011797D01*
X002932Y011739D01*
X002930Y011680D01*
X002932Y011621D01*
X002938Y011563D01*
X002947Y011504D01*
X002961Y011447D01*
X002978Y011391D01*
X002999Y011336D01*
X003023Y011282D01*
X003051Y011230D01*
X003082Y011180D01*
X003116Y011132D01*
X003153Y011087D01*
X003194Y011044D01*
X003237Y011003D01*
X003282Y010966D01*
X003330Y010932D01*
X003380Y010901D01*
X003432Y010873D01*
X003486Y010849D01*
X003541Y010828D01*
X003597Y010811D01*
X003654Y010797D01*
X003713Y010788D01*
X003771Y010782D01*
X003830Y010780D01*
X002530Y012080D02*
X002530Y012180D01*
X002480Y012230D01*
X002480Y013130D01*
X002530Y013180D01*
X002530Y013280D01*
X002528Y013297D01*
X002524Y013314D01*
X002517Y013330D01*
X002507Y013344D01*
X002494Y013357D01*
X002480Y013367D01*
X002464Y013374D01*
X002447Y013378D01*
X002430Y013380D01*
X001930Y013380D02*
X001913Y013378D01*
X001896Y013374D01*
X001880Y013367D01*
X001866Y013357D01*
X001853Y013344D01*
X001843Y013330D01*
X001836Y013314D01*
X001832Y013297D01*
X001830Y013280D01*
X001830Y013180D01*
X001880Y013130D01*
X001880Y012230D01*
X001830Y012180D01*
X001830Y012080D01*
X001832Y012063D01*
X001836Y012046D01*
X001843Y012030D01*
X001853Y012016D01*
X001866Y012003D01*
X001880Y011993D01*
X001896Y011986D01*
X001913Y011982D01*
X001930Y011980D01*
X002430Y011980D02*
X002447Y011982D01*
X002464Y011986D01*
X002480Y011993D01*
X002494Y012003D01*
X002507Y012016D01*
X002517Y012030D01*
X002524Y012046D01*
X002528Y012063D01*
X002530Y012080D01*
X006780Y015380D02*
X006780Y016980D01*
X006782Y016997D01*
X006786Y017014D01*
X006793Y017030D01*
X006803Y017044D01*
X006816Y017057D01*
X006830Y017067D01*
X006846Y017074D01*
X006863Y017078D01*
X006880Y017080D01*
X007480Y017080D01*
X007497Y017078D01*
X007514Y017074D01*
X007530Y017067D01*
X007544Y017057D01*
X007557Y017044D01*
X007567Y017030D01*
X007574Y017014D01*
X007578Y016997D01*
X007580Y016980D01*
X007580Y015380D01*
X007578Y015363D01*
X007574Y015346D01*
X007567Y015330D01*
X007557Y015316D01*
X007544Y015303D01*
X007530Y015293D01*
X007514Y015286D01*
X007497Y015282D01*
X007480Y015280D01*
X006880Y015280D01*
X006863Y015282D01*
X006846Y015286D01*
X006830Y015293D01*
X006816Y015303D01*
X006803Y015316D01*
X006793Y015330D01*
X006786Y015346D01*
X006782Y015363D01*
X006780Y015380D01*
X007180Y015930D02*
X007180Y016180D01*
X007430Y016180D01*
X007180Y016180D02*
X006930Y016180D01*
X007180Y016180D02*
X006930Y016580D01*
X007430Y016580D01*
X007180Y016180D01*
X007180Y016780D01*
X015317Y005101D02*
X015210Y004994D01*
X015210Y004887D01*
X015317Y004780D01*
X015530Y004780D01*
X015637Y004674D01*
X015637Y004567D01*
X015530Y004460D01*
X015317Y004460D01*
X015210Y004567D01*
X015317Y005101D02*
X015530Y005101D01*
X015637Y004994D01*
X015855Y004994D02*
X015961Y005101D01*
X016175Y005101D01*
X016282Y004994D01*
X016282Y004887D01*
X016175Y004780D01*
X016282Y004674D01*
X016282Y004567D01*
X016175Y004460D01*
X015961Y004460D01*
X015855Y004567D01*
X016068Y004780D02*
X016175Y004780D01*
D12*
X015180Y004180D02*
X015180Y003680D01*
X015180Y004180D02*
X019180Y004180D01*
X019180Y003680D01*
X019180Y002680D02*
X019180Y002180D01*
X015180Y002180D01*
X015180Y002680D01*
X010704Y014172D02*
X008656Y014172D01*
X008656Y018188D01*
X010704Y018188D01*
X010704Y014172D01*
D13*
X010320Y014526D03*
D14*
X010757Y013815D02*
X010695Y013754D01*
X010695Y013507D01*
X010757Y013445D01*
X010880Y013445D01*
X010942Y013507D01*
X011063Y013445D02*
X011310Y013445D01*
X011187Y013445D02*
X011187Y013815D01*
X011063Y013692D01*
X010942Y013754D02*
X010880Y013815D01*
X010757Y013815D01*
X011432Y013630D02*
X011617Y013630D01*
X011679Y013568D01*
X011679Y013507D01*
X011617Y013445D01*
X011493Y013445D01*
X011432Y013507D01*
X011432Y013630D01*
X011555Y013754D01*
X011679Y013815D01*
X010924Y013004D02*
X010924Y012757D01*
X010862Y012695D01*
X010738Y012695D01*
X010677Y012757D01*
X010924Y013004D01*
X010862Y013065D01*
X010738Y013065D01*
X010677Y013004D01*
X010677Y012757D01*
X010555Y012695D02*
X010308Y012695D01*
X010187Y012695D02*
X010063Y012818D01*
X010125Y012818D02*
X009940Y012818D01*
X009940Y012695D02*
X009940Y013065D01*
X010125Y013065D01*
X010187Y013004D01*
X010187Y012880D01*
X010125Y012818D01*
X010308Y012942D02*
X010432Y013065D01*
X010432Y012695D01*
X010432Y011815D02*
X010432Y011445D01*
X010555Y011445D02*
X010308Y011445D01*
X010187Y011445D02*
X010063Y011568D01*
X010125Y011568D02*
X009940Y011568D01*
X009940Y011445D02*
X009940Y011815D01*
X010125Y011815D01*
X010187Y011754D01*
X010187Y011630D01*
X010125Y011568D01*
X010308Y011692D02*
X010432Y011815D01*
X010677Y011692D02*
X010800Y011815D01*
X010800Y011445D01*
X010677Y011445D02*
X010924Y011445D01*
X009629Y013719D02*
X009436Y013719D01*
X009532Y013719D02*
X009532Y014009D01*
X009436Y013913D01*
X009335Y013961D02*
X009286Y014009D01*
X009189Y014009D01*
X009141Y013961D01*
X009141Y013767D01*
X009189Y013719D01*
X009286Y013719D01*
X009335Y013767D01*
X009041Y013719D02*
X008945Y013719D01*
X008993Y013719D02*
X008993Y014009D01*
X008945Y014009D02*
X009041Y014009D01*
X007824Y013730D02*
X007577Y013730D01*
X007762Y013915D01*
X007762Y013545D01*
X007455Y013607D02*
X007394Y013545D01*
X007270Y013545D01*
X007208Y013607D01*
X007208Y013854D01*
X007270Y013915D01*
X007394Y013915D01*
X007455Y013854D01*
X007394Y012665D02*
X007270Y012665D01*
X007208Y012604D01*
X007208Y012357D01*
X007270Y012295D01*
X007394Y012295D01*
X007455Y012357D01*
X007577Y012357D02*
X007638Y012295D01*
X007762Y012295D01*
X007824Y012357D01*
X007824Y012480D01*
X007762Y012542D01*
X007700Y012542D01*
X007577Y012480D01*
X007577Y012665D01*
X007824Y012665D01*
X007455Y012604D02*
X007394Y012665D01*
X007394Y011165D02*
X007270Y011165D01*
X007208Y011104D01*
X007208Y010857D01*
X007270Y010795D01*
X007394Y010795D01*
X007455Y010857D01*
X007577Y010857D02*
X007577Y010980D01*
X007762Y010980D01*
X007824Y010918D01*
X007824Y010857D01*
X007762Y010795D01*
X007638Y010795D01*
X007577Y010857D01*
X007577Y010980D02*
X007700Y011104D01*
X007824Y011165D01*
X007455Y011104D02*
X007394Y011165D01*
X012695Y006004D02*
X012695Y005757D01*
X012757Y005695D01*
X012880Y005695D01*
X012942Y005757D01*
X013063Y005695D02*
X013310Y005695D01*
X013187Y005695D02*
X013187Y006065D01*
X013063Y005942D01*
X012942Y006004D02*
X012880Y006065D01*
X012757Y006065D01*
X012695Y006004D01*
X013432Y006004D02*
X013493Y006065D01*
X013617Y006065D01*
X013679Y006004D01*
X013679Y005942D01*
X013617Y005880D01*
X013679Y005818D01*
X013679Y005757D01*
X013617Y005695D01*
X013493Y005695D01*
X013432Y005757D01*
X013555Y005880D02*
X013617Y005880D01*
X013512Y004915D02*
X013388Y004915D01*
X013327Y004854D01*
X013512Y004915D02*
X013574Y004854D01*
X013574Y004792D01*
X013327Y004545D01*
X013574Y004545D01*
X013205Y004545D02*
X012958Y004545D01*
X013082Y004545D02*
X013082Y004915D01*
X012958Y004792D01*
X012837Y004854D02*
X012775Y004915D01*
X012652Y004915D01*
X012590Y004854D01*
X012590Y004607D01*
X012652Y004545D01*
X012775Y004545D01*
X012837Y004607D01*
X012880Y003815D02*
X012757Y003815D01*
X012695Y003754D01*
X012695Y003507D01*
X012757Y003445D01*
X012880Y003445D01*
X012942Y003507D01*
X013063Y003445D02*
X013310Y003445D01*
X013432Y003445D02*
X013679Y003445D01*
X013555Y003445D02*
X013555Y003815D01*
X013432Y003692D01*
X013187Y003815D02*
X013187Y003445D01*
X013063Y003692D02*
X013187Y003815D01*
X012942Y003754D02*
X012880Y003815D01*
X012775Y002915D02*
X012652Y002915D01*
X012590Y002854D01*
X012590Y002607D01*
X012652Y002545D01*
X012775Y002545D01*
X012837Y002607D01*
X012958Y002545D02*
X013205Y002545D01*
X013082Y002545D02*
X013082Y002915D01*
X012958Y002792D01*
X012837Y002854D02*
X012775Y002915D01*
X013327Y002854D02*
X013327Y002607D01*
X013574Y002854D01*
X013574Y002607D01*
X013512Y002545D01*
X013388Y002545D01*
X013327Y002607D01*
X013327Y002854D02*
X013388Y002915D01*
X013512Y002915D01*
X013574Y002854D01*
X017345Y006545D02*
X017345Y006915D01*
X017530Y006915D01*
X017592Y006854D01*
X017592Y006730D01*
X017530Y006668D01*
X017345Y006668D01*
X017468Y006668D02*
X017592Y006545D01*
X017713Y006545D02*
X017713Y006607D01*
X017960Y006854D01*
X017960Y006915D01*
X017713Y006915D01*
X018558Y006815D02*
X018558Y006445D01*
X018558Y006568D02*
X018744Y006568D01*
X018805Y006630D01*
X018805Y006754D01*
X018744Y006815D01*
X018558Y006815D01*
X018682Y006568D02*
X018805Y006445D01*
X018927Y006507D02*
X018927Y006568D01*
X018988Y006630D01*
X019112Y006630D01*
X019174Y006568D01*
X019174Y006507D01*
X019112Y006445D01*
X018988Y006445D01*
X018927Y006507D01*
X018988Y006630D02*
X018927Y006692D01*
X018927Y006754D01*
X018988Y006815D01*
X019112Y006815D01*
X019174Y006754D01*
X019174Y006692D01*
X019112Y006630D01*
X019092Y009045D02*
X018968Y009168D01*
X019030Y009168D02*
X018845Y009168D01*
X018845Y009045D02*
X018845Y009415D01*
X019030Y009415D01*
X019092Y009354D01*
X019092Y009230D01*
X019030Y009168D01*
X019213Y009045D02*
X019460Y009292D01*
X019460Y009354D01*
X019398Y009415D01*
X019275Y009415D01*
X019213Y009354D01*
X019213Y009045D02*
X019460Y009045D01*
X017960Y009107D02*
X017960Y009354D01*
X017898Y009415D01*
X017775Y009415D01*
X017713Y009354D01*
X017713Y009292D01*
X017775Y009230D01*
X017960Y009230D01*
X017960Y009107D02*
X017898Y009045D01*
X017775Y009045D01*
X017713Y009107D01*
X017592Y009045D02*
X017468Y009168D01*
X017530Y009168D02*
X017345Y009168D01*
X017345Y009045D02*
X017345Y009415D01*
X017530Y009415D01*
X017592Y009354D01*
X017592Y009230D01*
X017530Y009168D01*
X017595Y013795D02*
X017595Y014165D01*
X017780Y014165D01*
X017842Y014104D01*
X017842Y013980D01*
X017780Y013918D01*
X017595Y013918D01*
X017718Y013918D02*
X017842Y013795D01*
X017963Y013980D02*
X018210Y013980D01*
X018148Y013795D02*
X018148Y014165D01*
X017963Y013980D01*
X018808Y014065D02*
X018808Y013695D01*
X018808Y013818D02*
X018994Y013818D01*
X019055Y013880D01*
X019055Y014004D01*
X018994Y014065D01*
X018808Y014065D01*
X018932Y013818D02*
X019055Y013695D01*
X019177Y013757D02*
X019238Y013695D01*
X019362Y013695D01*
X019424Y013757D01*
X019424Y013818D01*
X019362Y013880D01*
X019300Y013880D01*
X019362Y013880D02*
X019424Y013942D01*
X019424Y014004D01*
X019362Y014065D01*
X019238Y014065D01*
X019177Y014004D01*
X019130Y015195D02*
X019192Y015257D01*
X019130Y015195D02*
X019007Y015195D01*
X018945Y015257D01*
X018945Y015504D01*
X019007Y015565D01*
X019130Y015565D01*
X019192Y015504D01*
X019313Y015565D02*
X019560Y015565D01*
X019560Y015504D01*
X019313Y015257D01*
X019313Y015195D01*
X017960Y015230D02*
X017960Y015107D01*
X017898Y015045D01*
X017775Y015045D01*
X017713Y015107D01*
X017713Y015230D02*
X017837Y015292D01*
X017898Y015292D01*
X017960Y015230D01*
X017960Y015415D02*
X017713Y015415D01*
X017713Y015230D01*
X017592Y015230D02*
X017530Y015168D01*
X017345Y015168D01*
X017345Y015045D02*
X017345Y015415D01*
X017530Y015415D01*
X017592Y015354D01*
X017592Y015230D01*
X017468Y015168D02*
X017592Y015045D01*
X016679Y015380D02*
X016432Y015380D01*
X016617Y015565D01*
X016617Y015195D01*
X016310Y015195D02*
X016063Y015195D01*
X016187Y015195D02*
X016187Y015565D01*
X016063Y015442D01*
X015942Y015504D02*
X015880Y015565D01*
X015757Y015565D01*
X015695Y015504D01*
X015695Y015257D01*
X015757Y015195D01*
X015880Y015195D01*
X015942Y015257D01*
X009060Y018945D02*
X008813Y018945D01*
X008937Y018945D02*
X008937Y019315D01*
X008813Y019192D01*
X008692Y019254D02*
X008630Y019315D01*
X008507Y019315D01*
X008445Y019254D01*
X008445Y019007D01*
X008507Y018945D01*
X008630Y018945D01*
X008692Y019007D01*
X008677Y019945D02*
X008924Y019945D01*
X008800Y019945D02*
X008800Y020315D01*
X008677Y020192D01*
X008555Y020254D02*
X008555Y020130D01*
X008494Y020068D01*
X008308Y020068D01*
X008308Y019945D02*
X008308Y020315D01*
X008494Y020315D01*
X008555Y020254D01*
X008432Y020068D02*
X008555Y019945D01*
X007060Y019945D02*
X006813Y019945D01*
X007060Y020192D01*
X007060Y020254D01*
X006998Y020315D01*
X006875Y020315D01*
X006813Y020254D01*
X006692Y020254D02*
X006630Y020315D01*
X006507Y020315D01*
X006445Y020254D01*
X006445Y020007D01*
X006507Y019945D01*
X006630Y019945D01*
X006692Y020007D01*
X006630Y019315D02*
X006507Y019315D01*
X006445Y019254D01*
X006445Y019007D01*
X006507Y018945D01*
X006630Y018945D01*
X006692Y019007D01*
X006813Y019007D02*
X006875Y018945D01*
X006998Y018945D01*
X007060Y019007D01*
X007060Y019068D01*
X006998Y019130D01*
X006937Y019130D01*
X006998Y019130D02*
X007060Y019192D01*
X007060Y019254D01*
X006998Y019315D01*
X006875Y019315D01*
X006813Y019254D01*
X006692Y019254D02*
X006630Y019315D01*
X008045Y005735D02*
X008190Y005735D01*
X008238Y005687D01*
X008238Y005493D01*
X008190Y005445D01*
X008045Y005445D01*
X008045Y005735D01*
X008340Y005735D02*
X008340Y005590D01*
X008436Y005638D01*
X008485Y005638D01*
X008533Y005590D01*
X008533Y005493D01*
X008485Y005445D01*
X008388Y005445D01*
X008340Y005493D01*
X008340Y005735D02*
X008533Y005735D01*
X008445Y004915D02*
X008300Y004770D01*
X008494Y004770D01*
X008445Y004625D02*
X008445Y004915D01*
X008199Y004867D02*
X008199Y004673D01*
X008151Y004625D01*
X008006Y004625D01*
X008006Y004915D01*
X008151Y004915D01*
X008199Y004867D01*
X007424Y004818D02*
X007362Y004880D01*
X007177Y004880D01*
X007177Y004757D01*
X007238Y004695D01*
X007362Y004695D01*
X007424Y004757D01*
X007424Y004818D01*
X007300Y005004D02*
X007177Y004880D01*
X007055Y004880D02*
X007055Y005004D01*
X006994Y005065D01*
X006808Y005065D01*
X006808Y004695D01*
X006808Y004818D02*
X006994Y004818D01*
X007055Y004880D01*
X006932Y004818D02*
X007055Y004695D01*
X007300Y005004D02*
X007424Y005065D01*
X007380Y003815D02*
X007257Y003815D01*
X007195Y003754D01*
X007195Y003507D01*
X007257Y003445D01*
X007380Y003445D01*
X007442Y003507D01*
X007563Y003507D02*
X007563Y003568D01*
X007625Y003630D01*
X007748Y003630D01*
X007810Y003568D01*
X007810Y003507D01*
X007748Y003445D01*
X007625Y003445D01*
X007563Y003507D01*
X007625Y003630D02*
X007563Y003692D01*
X007563Y003754D01*
X007625Y003815D01*
X007748Y003815D01*
X007810Y003754D01*
X007810Y003692D01*
X007748Y003630D01*
X007442Y003754D02*
X007380Y003815D01*
X008045Y003735D02*
X008045Y003445D01*
X008190Y003445D01*
X008238Y003493D01*
X008238Y003687D01*
X008190Y003735D01*
X008045Y003735D01*
X008340Y003687D02*
X008388Y003735D01*
X008485Y003735D01*
X008533Y003687D01*
X008533Y003638D01*
X008485Y003590D01*
X008533Y003542D01*
X008533Y003493D01*
X008485Y003445D01*
X008388Y003445D01*
X008340Y003493D01*
X008436Y003590D02*
X008485Y003590D01*
X008445Y002915D02*
X008349Y002915D01*
X008300Y002867D01*
X008199Y002867D02*
X008199Y002673D01*
X008151Y002625D01*
X008006Y002625D01*
X008006Y002915D01*
X008151Y002915D01*
X008199Y002867D01*
X008445Y002915D02*
X008494Y002867D01*
X008494Y002818D01*
X008300Y002625D01*
X008494Y002625D01*
X007560Y002630D02*
X007375Y002630D01*
X007313Y002692D01*
X007313Y002754D01*
X007375Y002815D01*
X007498Y002815D01*
X007560Y002754D01*
X007560Y002507D01*
X007498Y002445D01*
X007375Y002445D01*
X007313Y002507D01*
X007192Y002507D02*
X007130Y002445D01*
X007007Y002445D01*
X006945Y002507D01*
X006945Y002754D01*
X007007Y002815D01*
X007130Y002815D01*
X007192Y002754D01*
D15*
X014680Y010680D02*
X016680Y010680D01*
X016680Y013680D01*
X014680Y013680D01*
X014680Y010680D01*
X014180Y013180D02*
X012180Y013180D01*
X012180Y016180D01*
X014180Y016180D01*
X014180Y013180D01*
X014180Y017180D02*
X012180Y017180D01*
X012180Y020180D01*
X014180Y020180D01*
X014180Y017180D01*
X006385Y015357D02*
X004934Y015357D01*
X006385Y015357D02*
X006385Y020003D01*
X004934Y020003D01*
X003385Y020003D02*
X000184Y020003D01*
X000184Y015357D01*
X003385Y015357D01*
D16*
X003729Y016040D02*
X004074Y016040D01*
X004074Y016237D01*
X004271Y016237D02*
X004269Y016264D01*
X004264Y016290D01*
X004255Y016315D01*
X004242Y016339D01*
X004227Y016361D01*
X004208Y016381D01*
X004188Y016398D01*
X004165Y016412D01*
X004140Y016423D01*
X004114Y016430D01*
X004087Y016434D01*
X004061Y016434D01*
X004034Y016430D01*
X004008Y016423D01*
X003983Y016412D01*
X003960Y016398D01*
X003940Y016381D01*
X003921Y016361D01*
X003906Y016339D01*
X003893Y016315D01*
X003884Y016290D01*
X003879Y016264D01*
X003877Y016237D01*
X004074Y016237D01*
X004468Y016336D02*
X004466Y016375D01*
X004460Y016413D01*
X004451Y016450D01*
X004438Y016487D01*
X004421Y016522D01*
X004402Y016555D01*
X004379Y016586D01*
X004353Y016615D01*
X004324Y016641D01*
X004293Y016664D01*
X004260Y016683D01*
X004225Y016700D01*
X004188Y016713D01*
X004151Y016722D01*
X004113Y016728D01*
X004074Y016730D01*
X004035Y016728D01*
X003997Y016722D01*
X003960Y016713D01*
X003923Y016700D01*
X003888Y016683D01*
X003855Y016664D01*
X003824Y016641D01*
X003795Y016615D01*
X003769Y016586D01*
X003746Y016555D01*
X003727Y016522D01*
X003710Y016487D01*
X003697Y016450D01*
X003688Y016413D01*
X003682Y016375D01*
X003680Y016336D01*
X004270Y016237D02*
X004275Y016188D01*
X004277Y016139D01*
X004275Y016090D01*
X004270Y016041D01*
X004271Y016042D02*
X004446Y016042D01*
X003729Y016041D02*
X003712Y016098D01*
X003698Y016157D01*
X003688Y016216D01*
X003682Y016276D01*
X003680Y016336D01*
X003680Y016828D02*
X003975Y017024D01*
X004123Y017172D02*
X004123Y017320D01*
X004271Y017320D01*
X004271Y017172D01*
X004269Y017157D01*
X004265Y017142D01*
X004257Y017129D01*
X004247Y017117D01*
X004234Y017108D01*
X004220Y017102D01*
X004205Y017098D01*
X004189Y017098D01*
X004174Y017102D01*
X004160Y017108D01*
X004147Y017117D01*
X004137Y017129D01*
X004129Y017142D01*
X004125Y017157D01*
X004123Y017172D01*
X003975Y017024D02*
X003977Y016994D01*
X003982Y016965D01*
X003991Y016937D01*
X004003Y016910D01*
X004019Y016884D01*
X004037Y016861D01*
X004058Y016840D01*
X004081Y016822D01*
X004107Y016806D01*
X004134Y016794D01*
X004162Y016785D01*
X004191Y016780D01*
X004221Y016778D01*
X004251Y016780D01*
X004280Y016785D01*
X004308Y016794D01*
X004335Y016806D01*
X004361Y016822D01*
X004384Y016840D01*
X004405Y016861D01*
X004423Y016884D01*
X004439Y016910D01*
X004451Y016937D01*
X004460Y016965D01*
X004465Y016994D01*
X004467Y017024D01*
X004467Y017566D01*
X003680Y017566D01*
X003680Y017320D01*
X003975Y017320D01*
X003680Y017123D01*
X003680Y016828D01*
X003680Y017664D02*
X003877Y017664D01*
X003877Y018107D01*
X003975Y018107D01*
X003975Y017664D01*
X004172Y017664D01*
X004172Y018107D01*
X004271Y018107D01*
X004271Y017664D01*
X004467Y017664D01*
X004467Y018353D01*
X003680Y018353D01*
X003680Y017664D01*
X003680Y018649D02*
X003680Y018944D01*
X003877Y018649D01*
X003680Y018649D02*
X003682Y018622D01*
X003687Y018596D01*
X003696Y018571D01*
X003709Y018547D01*
X003724Y018525D01*
X003743Y018505D01*
X003763Y018488D01*
X003786Y018474D01*
X003811Y018463D01*
X003837Y018456D01*
X003864Y018452D01*
X003890Y018452D01*
X003917Y018456D01*
X003943Y018463D01*
X003968Y018474D01*
X003991Y018488D01*
X004011Y018505D01*
X004030Y018525D01*
X004045Y018547D01*
X004058Y018571D01*
X004067Y018596D01*
X004072Y018622D01*
X004074Y018649D01*
X004271Y018649D02*
X004074Y018944D01*
X003877Y018649D01*
X003680Y018944D02*
X004074Y018944D01*
X004467Y018944D01*
X004467Y018649D01*
X004271Y018649D02*
X004467Y018944D01*
X004467Y019190D01*
X003680Y019190D01*
X003680Y018944D01*
X004074Y018649D02*
X004076Y018622D01*
X004081Y018596D01*
X004090Y018571D01*
X004103Y018547D01*
X004118Y018525D01*
X004137Y018505D01*
X004157Y018488D01*
X004180Y018474D01*
X004205Y018463D01*
X004231Y018456D01*
X004258Y018452D01*
X004284Y018452D01*
X004311Y018456D01*
X004337Y018463D01*
X004362Y018474D01*
X004385Y018488D01*
X004405Y018505D01*
X004424Y018525D01*
X004439Y018547D01*
X004452Y018571D01*
X004461Y018596D01*
X004466Y018622D01*
X004468Y018649D01*
X004467Y016335D02*
X004468Y016260D01*
X004464Y016185D01*
X004457Y016110D01*
X004446Y016036D01*
X003830Y012380D02*
X006530Y012380D01*
X006581Y012378D01*
X006632Y012373D01*
X006682Y012363D01*
X006732Y012350D01*
X006780Y012334D01*
X006827Y012314D01*
X006873Y012290D01*
X006916Y012264D01*
X006958Y012234D01*
X006997Y012201D01*
X007034Y012166D01*
X007068Y012128D01*
X007099Y012087D01*
X007128Y012045D01*
X007153Y012000D01*
X007174Y011954D01*
X007193Y011906D01*
X007207Y011857D01*
X007218Y011807D01*
X007226Y011757D01*
X007230Y011706D01*
X007230Y011654D01*
X007226Y011603D01*
X007218Y011553D01*
X007207Y011503D01*
X007193Y011454D01*
X007174Y011406D01*
X007153Y011360D01*
X007128Y011315D01*
X007099Y011273D01*
X007068Y011232D01*
X007034Y011194D01*
X006997Y011159D01*
X006958Y011126D01*
X006916Y011096D01*
X006873Y011070D01*
X006827Y011046D01*
X006780Y011026D01*
X006732Y011010D01*
X006682Y010997D01*
X006632Y010987D01*
X006581Y010982D01*
X006530Y010980D01*
X003830Y010980D01*
X003779Y010982D01*
X003728Y010987D01*
X003678Y010997D01*
X003628Y011010D01*
X003580Y011026D01*
X003533Y011046D01*
X003487Y011070D01*
X003444Y011096D01*
X003402Y011126D01*
X003363Y011159D01*
X003326Y011194D01*
X003292Y011232D01*
X003261Y011273D01*
X003232Y011315D01*
X003207Y011360D01*
X003186Y011406D01*
X003167Y011454D01*
X003153Y011503D01*
X003142Y011553D01*
X003134Y011603D01*
X003130Y011654D01*
X003130Y011706D01*
X003134Y011757D01*
X003142Y011807D01*
X003153Y011857D01*
X003167Y011906D01*
X003186Y011954D01*
X003207Y012000D01*
X003232Y012045D01*
X003261Y012087D01*
X003292Y012128D01*
X003326Y012166D01*
X003363Y012201D01*
X003402Y012234D01*
X003444Y012264D01*
X003487Y012290D01*
X003533Y012314D01*
X003580Y012334D01*
X003628Y012350D01*
X003678Y012363D01*
X003728Y012373D01*
X003779Y012378D01*
X003830Y012380D01*
X018903Y017627D02*
X018903Y017774D01*
X018976Y017847D01*
X019049Y017774D01*
X019049Y017627D01*
X019049Y017737D02*
X018903Y017737D01*
X019124Y017847D02*
X019270Y017847D01*
X019197Y017847D02*
X019197Y017627D01*
X019418Y017627D02*
X019418Y017847D01*
X019345Y017847D02*
X019491Y017847D01*
X019566Y017847D02*
X019639Y017847D01*
X019602Y017847D02*
X019602Y017627D01*
X019566Y017627D02*
X019639Y017627D01*
X019713Y017627D02*
X019713Y017847D01*
X019860Y017627D01*
X019860Y017847D01*
X019934Y017847D02*
X019934Y017810D01*
X020007Y017737D01*
X020007Y017627D01*
X020007Y017737D02*
X020081Y017810D01*
X020081Y017847D01*
X020155Y017774D02*
X020228Y017847D01*
X020228Y017627D01*
X020155Y017627D02*
X020302Y017627D01*
X020376Y017664D02*
X020523Y017810D01*
X020523Y017664D01*
X020486Y017627D01*
X020413Y017627D01*
X020376Y017664D01*
X020376Y017810D01*
X020413Y017847D01*
X020486Y017847D01*
X020523Y017810D01*
D17*
X003532Y017714D02*
X003482Y017664D01*
X003482Y017689D02*
X003482Y017614D01*
X003532Y017614D02*
X003382Y017614D01*
X003382Y017689D01*
X003407Y017714D01*
X003457Y017714D01*
X003482Y017689D01*
X003507Y017908D02*
X003407Y017908D01*
X003382Y017933D01*
X003382Y017983D01*
X003407Y018008D01*
X003507Y018008D01*
X003532Y017983D01*
X003532Y017933D01*
X003507Y017908D01*
X003532Y018203D02*
X003382Y018203D01*
X003532Y018303D01*
X003382Y018303D01*
X003382Y018497D02*
X003382Y018548D01*
X003382Y018522D02*
X003532Y018522D01*
X003532Y018497D02*
X003532Y018548D01*
X003507Y018743D02*
X003407Y018743D01*
X003382Y018768D01*
X003382Y018818D01*
X003407Y018843D01*
X003507Y018843D02*
X003532Y018818D01*
X003532Y018768D01*
X003507Y018743D01*
X003507Y019038D02*
X003532Y019063D01*
X003532Y019113D01*
X003507Y019138D01*
X003482Y019138D01*
X003457Y019113D01*
X003457Y019063D01*
X003432Y019038D01*
X003407Y019038D01*
X003382Y019063D01*
X003382Y019113D01*
X003407Y019138D01*
X003382Y017419D02*
X003382Y017319D01*
X003382Y017369D02*
X003532Y017369D01*
X003507Y017124D02*
X003532Y017099D01*
X003532Y017049D01*
X003507Y017024D01*
X003407Y017024D01*
X003382Y017049D01*
X003382Y017099D01*
X003407Y017124D01*
X003382Y016830D02*
X003382Y016730D01*
X003532Y016730D01*
X003532Y016830D01*
X003457Y016780D02*
X003457Y016730D01*
X003532Y016535D02*
X003532Y016435D01*
X003382Y016435D01*
X003382Y016240D02*
X003382Y016140D01*
X003532Y016140D01*
X003532Y016240D01*
X003457Y016190D02*
X003457Y016140D01*
D18*
X005319Y015084D02*
X005319Y014777D01*
X005396Y014700D01*
X005549Y014700D01*
X005626Y014777D01*
X005779Y014700D02*
X006086Y014700D01*
X005933Y014700D02*
X005933Y015160D01*
X005779Y015007D01*
X005626Y015084D02*
X005549Y015160D01*
X005396Y015160D01*
X005319Y015084D01*
X006240Y015160D02*
X006240Y014930D01*
X006393Y015007D01*
X006470Y015007D01*
X006547Y014930D01*
X006547Y014777D01*
X006470Y014700D01*
X006316Y014700D01*
X006240Y014777D01*
X006240Y015160D02*
X006547Y015160D01*
X003010Y013306D02*
X003010Y013189D01*
X002952Y013131D01*
X002952Y013005D02*
X002893Y013005D01*
X002835Y012947D01*
X002835Y012830D01*
X002776Y012772D01*
X002718Y012772D01*
X002660Y012830D01*
X002660Y012947D01*
X002718Y013005D01*
X002718Y013131D02*
X002660Y013189D01*
X002660Y013306D01*
X002718Y013364D01*
X002776Y013364D01*
X002835Y013306D01*
X002893Y013364D01*
X002952Y013364D01*
X003010Y013306D01*
X002835Y013306D02*
X002835Y013248D01*
X002952Y013005D02*
X003010Y012947D01*
X003010Y012830D01*
X002952Y012772D01*
X002952Y012646D02*
X002660Y012646D01*
X002660Y012413D02*
X002952Y012413D01*
X003010Y012471D01*
X003010Y012588D01*
X002952Y012646D01*
X003068Y012889D02*
X002601Y012889D01*
X003050Y006160D02*
X003170Y006160D01*
X003110Y006160D02*
X003110Y005800D01*
X003050Y005800D02*
X003170Y005800D01*
X003296Y005860D02*
X003356Y005800D01*
X003476Y005800D01*
X003536Y005860D01*
X003664Y005860D02*
X003724Y005800D01*
X003844Y005800D01*
X003904Y005860D01*
X003904Y005920D01*
X003844Y005980D01*
X003784Y005980D01*
X003844Y005980D02*
X003904Y006040D01*
X003904Y006100D01*
X003844Y006160D01*
X003724Y006160D01*
X003664Y006100D01*
X003536Y006100D02*
X003476Y006160D01*
X003356Y006160D01*
X003296Y006100D01*
X003296Y005860D01*
X011700Y012983D02*
X011700Y013103D01*
X011700Y013043D02*
X012000Y013043D01*
X012060Y012983D01*
X012060Y012923D01*
X012000Y012863D01*
X012060Y013231D02*
X011700Y013231D01*
X011700Y013411D01*
X011760Y013471D01*
X011880Y013471D01*
X011940Y013411D01*
X011940Y013231D01*
X012120Y013600D02*
X012120Y013840D01*
X012060Y013968D02*
X012060Y014088D01*
X012060Y014028D02*
X011700Y014028D01*
X011700Y013968D02*
X011700Y014088D01*
X011760Y014213D02*
X011820Y014213D01*
X011880Y014273D01*
X011880Y014394D01*
X011940Y014454D01*
X012000Y014454D01*
X012060Y014394D01*
X012060Y014273D01*
X012000Y014213D01*
X011760Y014213D02*
X011700Y014273D01*
X011700Y014394D01*
X011760Y014454D01*
X011700Y014582D02*
X011700Y014762D01*
X011760Y014822D01*
X011880Y014822D01*
X011940Y014762D01*
X011940Y014582D01*
X012060Y014582D02*
X011700Y014582D01*
X012000Y015666D02*
X012060Y015726D01*
X012060Y015786D01*
X012000Y015847D01*
X011700Y015847D01*
X011700Y015907D02*
X011700Y015786D01*
X011700Y016035D02*
X011700Y016215D01*
X011760Y016275D01*
X011880Y016275D01*
X011940Y016215D01*
X011940Y016035D01*
X012060Y016035D02*
X011700Y016035D01*
X012120Y016403D02*
X012120Y016643D01*
X012060Y016771D02*
X012060Y016951D01*
X012000Y017012D01*
X011940Y017012D01*
X011880Y016951D01*
X011880Y016771D01*
X012060Y016771D02*
X011700Y016771D01*
X011700Y016951D01*
X011760Y017012D01*
X011820Y017012D01*
X011880Y016951D01*
X012060Y017140D02*
X012060Y017260D01*
X012060Y017200D02*
X011700Y017200D01*
X011700Y017140D02*
X011700Y017260D01*
X011700Y017385D02*
X011700Y017625D01*
X011700Y017505D02*
X012060Y017505D01*
X012060Y017753D02*
X011700Y017753D01*
X011700Y017934D01*
X011760Y017994D01*
X011820Y017994D01*
X011880Y017934D01*
X011880Y017753D01*
X012060Y017753D02*
X012060Y017934D01*
X012000Y017994D01*
X011940Y017994D01*
X011880Y017934D01*
X011880Y018122D02*
X011880Y018362D01*
X011820Y018362D02*
X012060Y018362D01*
X012060Y018490D02*
X011700Y018490D01*
X012060Y018730D01*
X011700Y018730D01*
X011760Y018858D02*
X012000Y018858D01*
X012060Y018918D01*
X012060Y019039D01*
X012000Y019099D01*
X011880Y019099D01*
X011880Y018979D01*
X011760Y019099D02*
X011700Y019039D01*
X011700Y018918D01*
X011760Y018858D01*
X011820Y018362D02*
X011700Y018242D01*
X011820Y018122D01*
X012060Y018122D01*
X012120Y019227D02*
X012120Y019467D01*
X012000Y019595D02*
X012060Y019655D01*
X012060Y019775D01*
X012000Y019835D01*
X011760Y019835D01*
X011700Y019775D01*
X011700Y019655D01*
X011760Y019595D01*
X012000Y019595D01*
X012000Y019963D02*
X011700Y019963D01*
X011700Y020204D02*
X012000Y020204D01*
X012060Y020144D01*
X012060Y020023D01*
X012000Y019963D01*
X011700Y020332D02*
X011700Y020572D01*
X011700Y020452D02*
X012060Y020452D01*
X019320Y011710D02*
X019440Y011710D01*
X019380Y011710D02*
X019380Y011410D01*
X019320Y011350D01*
X019260Y011350D01*
X019200Y011410D01*
X019568Y011350D02*
X019568Y011710D01*
X019748Y011710D01*
X019809Y011650D01*
X019809Y011530D01*
X019748Y011470D01*
X019568Y011470D01*
X019937Y011350D02*
X020177Y011350D01*
X020057Y011350D02*
X020057Y011710D01*
X019937Y011590D01*
X019918Y010610D02*
X020159Y010610D01*
X020159Y010550D01*
X019918Y010310D01*
X019918Y010250D01*
X019790Y010310D02*
X019790Y010550D01*
X019730Y010610D01*
X019550Y010610D01*
X019550Y010250D01*
X019730Y010250D01*
X019790Y010310D01*
X019730Y008110D02*
X019550Y008110D01*
X019550Y007750D01*
X019730Y007750D01*
X019790Y007810D01*
X019790Y008050D01*
X019730Y008110D01*
X019918Y007990D02*
X020038Y008110D01*
X020038Y007750D01*
X019918Y007750D02*
X020159Y007750D01*
X017120Y008218D02*
X017120Y008338D01*
X017120Y008278D02*
X016760Y008278D01*
X016760Y008218D02*
X016760Y008338D01*
X016820Y008463D02*
X017060Y008463D01*
X017120Y008523D01*
X017120Y008644D01*
X017060Y008704D01*
X017120Y008832D02*
X016880Y009072D01*
X016820Y009072D01*
X016760Y009012D01*
X016760Y008892D01*
X016820Y008832D01*
X016820Y008704D02*
X016760Y008644D01*
X016760Y008523D01*
X016820Y008463D01*
X017120Y008832D02*
X017120Y009072D01*
X014410Y010820D02*
X014050Y010820D01*
X014050Y010700D02*
X014050Y010940D01*
X014050Y011068D02*
X014050Y011248D01*
X014110Y011309D01*
X014230Y011309D01*
X014290Y011248D01*
X014290Y011068D01*
X014410Y011068D02*
X014050Y011068D01*
X014050Y011437D02*
X014050Y011557D01*
X014050Y011497D02*
X014410Y011497D01*
X014410Y011437D02*
X014410Y011557D01*
X002467Y020200D02*
X002160Y020200D01*
X002007Y020200D02*
X001700Y020660D01*
X002007Y020660D02*
X001700Y020200D01*
X002160Y020507D02*
X002314Y020660D01*
X002314Y020200D01*
D19*
X003760Y013180D03*
X006600Y013180D03*
D20*
X006509Y010855D02*
X006359Y010855D01*
X006284Y010780D01*
X006284Y010480D01*
X006359Y010405D01*
X006509Y010405D01*
X006584Y010480D01*
X006584Y010780D01*
X006509Y010855D01*
X006745Y010705D02*
X006895Y010855D01*
X006895Y010405D01*
X006745Y010405D02*
X007045Y010405D01*
X006584Y010405D02*
X006434Y010555D01*
X004266Y013805D02*
X003965Y013805D01*
X004116Y013805D02*
X004116Y014255D01*
X003965Y014105D01*
X003805Y013805D02*
X003505Y013805D01*
X003505Y014255D01*
X005705Y015805D02*
X005705Y016030D01*
X005780Y016105D01*
X006080Y016105D01*
X006155Y016030D01*
X006155Y015805D01*
X005705Y015805D01*
X005930Y016265D02*
X005930Y016491D01*
X006005Y016566D01*
X006080Y016566D01*
X006155Y016491D01*
X006155Y016340D01*
X006080Y016265D01*
X005930Y016265D01*
X005780Y016416D01*
X005705Y016566D01*
X011055Y012180D02*
X011130Y012105D01*
X011205Y012105D01*
X011280Y012180D01*
X011280Y012555D01*
X011205Y012555D02*
X011355Y012555D01*
X011515Y012555D02*
X011741Y012555D01*
X011816Y012480D01*
X011816Y012330D01*
X011741Y012255D01*
X011515Y012255D01*
X011515Y012105D02*
X011515Y012555D01*
X011976Y012480D02*
X012051Y012555D01*
X012201Y012555D01*
X012276Y012480D01*
X012276Y012405D01*
X011976Y012105D01*
X012276Y012105D01*
X012512Y010745D02*
X012455Y010689D01*
X012512Y010745D02*
X012625Y010745D01*
X012682Y010689D01*
X012682Y010632D01*
X012455Y010405D01*
X012682Y010405D01*
X013455Y010462D02*
X013512Y010405D01*
X013625Y010405D01*
X013682Y010462D01*
X013682Y010518D01*
X013625Y010575D01*
X013568Y010575D01*
X013625Y010575D02*
X013682Y010632D01*
X013682Y010689D01*
X013625Y010745D01*
X013512Y010745D01*
X013455Y010689D01*
X011682Y010405D02*
X011455Y010405D01*
X011568Y010405D02*
X011568Y010745D01*
X011455Y010632D01*
X014680Y017680D02*
X014680Y019180D01*
X018680Y019180D01*
X018680Y017680D01*
X014680Y017680D01*
X014753Y017753D02*
X014722Y017791D01*
X014699Y017834D01*
X014685Y017881D01*
X014680Y017930D01*
X014685Y017979D01*
X014699Y018026D01*
X014722Y018069D01*
X014753Y018107D01*
X014791Y018138D01*
X014834Y018161D01*
X014881Y018175D01*
X014930Y018180D01*
X014979Y018175D01*
X015026Y018161D01*
X015069Y018138D01*
X015107Y018107D01*
X015138Y018069D01*
X015161Y018026D01*
X015175Y017979D01*
X015180Y017930D01*
X015175Y017881D01*
X015161Y017834D01*
X015138Y017791D01*
X015107Y017753D01*
X015069Y017722D01*
X015026Y017699D01*
X014979Y017685D01*
X014930Y017680D01*
X014881Y017685D01*
X014834Y017699D01*
X014791Y017722D01*
X014753Y017753D01*
X014742Y017767D02*
X015118Y017767D01*
X015151Y017816D02*
X014709Y017816D01*
X014690Y017864D02*
X015170Y017864D01*
X015178Y017913D02*
X014682Y017913D01*
X014683Y017961D02*
X015177Y017961D01*
X015166Y018010D02*
X014694Y018010D01*
X014716Y018058D02*
X015144Y018058D01*
X015107Y018107D02*
X014753Y018107D01*
X014823Y018155D02*
X015037Y018155D01*
X015062Y017719D02*
X014798Y017719D01*
X018893Y017893D02*
X020467Y017893D01*
X020467Y019467D01*
X018893Y019467D01*
X018893Y017893D01*
D21*
X019077Y018564D02*
X019102Y018564D01*
X019104Y018565D02*
X019075Y018565D01*
X019073Y018566D02*
X019106Y018566D01*
X019108Y018567D02*
X019071Y018567D01*
X019069Y018568D02*
X019110Y018568D01*
X019112Y018569D02*
X019067Y018569D01*
X019066Y018570D02*
X019113Y018570D01*
X019114Y018571D02*
X019065Y018571D01*
X019064Y018572D02*
X019115Y018572D01*
X019116Y018573D02*
X019063Y018573D01*
X019062Y018574D02*
X019117Y018574D01*
X019118Y018575D02*
X019061Y018575D01*
X019060Y018576D02*
X019119Y018576D01*
X019120Y018577D02*
X019059Y018577D01*
X019058Y018578D02*
X019121Y018578D01*
X019122Y018579D02*
X019057Y018579D01*
X019057Y018580D02*
X019122Y018580D01*
X019123Y018581D02*
X019056Y018581D01*
X019056Y018582D02*
X019123Y018582D01*
X019124Y018583D02*
X019055Y018583D01*
X019055Y018584D02*
X019124Y018584D01*
X019125Y018585D02*
X019054Y018585D01*
X019054Y018586D02*
X019125Y018586D01*
X019126Y018587D02*
X019053Y018587D01*
X019053Y018588D02*
X019126Y018588D01*
X019127Y018589D02*
X019052Y018589D01*
X019052Y018590D02*
X019127Y018590D01*
X019127Y018591D02*
X019052Y018591D01*
X019052Y018592D02*
X019127Y018592D01*
X019127Y018593D02*
X019051Y018593D01*
X019051Y018594D02*
X019128Y018594D01*
X019128Y018595D02*
X019051Y018595D01*
X019051Y018596D02*
X019128Y018596D01*
X019128Y018597D02*
X019051Y018597D01*
X019051Y018598D02*
X019128Y018598D01*
X019128Y018599D02*
X019050Y018599D01*
X019050Y018600D02*
X019129Y018600D01*
X019129Y018601D02*
X019050Y018601D01*
X019050Y018602D02*
X019129Y018602D01*
X019129Y018603D02*
X019050Y018603D01*
X019050Y018604D02*
X019128Y018604D01*
X019128Y018605D02*
X019051Y018605D01*
X019051Y018606D02*
X019128Y018606D01*
X019128Y018607D02*
X019051Y018607D01*
X019051Y018608D02*
X019128Y018608D01*
X019128Y018609D02*
X019051Y018609D01*
X019051Y018610D02*
X019127Y018610D01*
X019127Y018611D02*
X019052Y018611D01*
X019052Y018612D02*
X019127Y018612D01*
X019127Y018613D02*
X019052Y018613D01*
X019052Y018614D02*
X019127Y018614D01*
X019126Y018615D02*
X019053Y018615D01*
X019053Y018616D02*
X019126Y018616D01*
X019125Y018617D02*
X019054Y018617D01*
X019054Y018618D02*
X019125Y018618D01*
X019124Y018619D02*
X019055Y018619D01*
X019055Y018620D02*
X019124Y018620D01*
X019123Y018621D02*
X019056Y018621D01*
X019056Y018622D02*
X019123Y018622D01*
X019122Y018623D02*
X019057Y018623D01*
X019057Y018624D02*
X019122Y018624D01*
X019121Y018625D02*
X019058Y018625D01*
X019059Y018626D02*
X019120Y018626D01*
X019119Y018627D02*
X019060Y018627D01*
X019061Y018628D02*
X019118Y018628D01*
X019117Y018629D02*
X019062Y018629D01*
X019063Y018630D02*
X019116Y018630D01*
X019115Y018631D02*
X019064Y018631D01*
X019065Y018632D02*
X019114Y018632D01*
X019113Y018633D02*
X019066Y018633D01*
X019068Y018634D02*
X019111Y018634D01*
X019109Y018635D02*
X019070Y018635D01*
X019072Y018636D02*
X019107Y018636D01*
X019105Y018637D02*
X019074Y018637D01*
X019076Y018638D02*
X019103Y018638D01*
X019101Y018639D02*
X019078Y018639D01*
X019084Y018640D02*
X019095Y018640D01*
X019083Y018563D02*
X019096Y018563D01*
D22*
X009530Y005180D03*
X010830Y004180D03*
X009530Y003180D03*
X010830Y002180D03*
D23*
X011205Y002180D03*
X011205Y003180D03*
X011205Y004180D03*
X011205Y005180D03*
X009155Y005180D03*
X009155Y004180D03*
X009155Y003180D03*
X009155Y002180D03*
D24*
X007180Y015530D03*
D25*
X007180Y015155D03*
X007180Y017205D03*
M02*
