G75*
G70*
%OFA0B0*%
%FSLAX24Y24*%
%IPPOS*%
%LPD*%
%AMOC8*
5,1,8,0,0,1.08239X$1,22.5*
%
%ADD10C,0.0000*%
%ADD11R,0.0631X0.0197*%
%ADD12OC8,0.0614*%
%ADD13C,0.1346*%
%ADD14OC8,0.0560*%
%ADD15R,0.0473X0.0434*%
%ADD16C,0.0560*%
%ADD17C,0.0480*%
%ADD18R,0.0434X0.0473*%
%ADD19R,0.0316X0.0434*%
%ADD20R,0.0640X0.0640*%
%ADD21OC8,0.0640*%
%ADD22C,0.0600*%
%ADD23R,0.0290X0.1040*%
%ADD24R,0.0827X0.0512*%
%ADD25C,0.0690*%
%ADD26C,0.0700*%
D10*
X001180Y001180D02*
X001180Y020865D01*
X020865Y020865D01*
X020865Y001180D01*
X001180Y001180D01*
D11*
X008253Y014517D03*
X008253Y014773D03*
X008253Y015028D03*
X008253Y015284D03*
X008253Y015540D03*
X008253Y015796D03*
X008253Y016052D03*
X008253Y016308D03*
X008253Y016564D03*
X008253Y016820D03*
X008253Y017076D03*
X008253Y017332D03*
X008253Y017587D03*
X008253Y017843D03*
X011107Y017843D03*
X011107Y017587D03*
X011107Y017332D03*
X011107Y017076D03*
X011107Y016820D03*
X011107Y016564D03*
X011107Y016308D03*
X011107Y016052D03*
X011107Y015796D03*
X011107Y015540D03*
X011107Y015284D03*
X011107Y015028D03*
X011107Y014773D03*
X011107Y014517D03*
D12*
X006034Y017188D03*
X005247Y017188D03*
X005247Y018172D03*
X006034Y018172D03*
D13*
X004180Y020050D03*
X004180Y015310D03*
D14*
X002180Y013680D03*
X003180Y013180D03*
X002180Y011680D03*
X007180Y013180D03*
D15*
X008095Y013430D03*
X008765Y013430D03*
X009595Y013430D03*
X010265Y013430D03*
X008765Y012180D03*
X008095Y012180D03*
X008095Y010930D03*
X008765Y010930D03*
X012845Y005180D03*
X013515Y005180D03*
X013515Y004180D03*
X012845Y004180D03*
X012845Y003180D03*
X013515Y003180D03*
X013515Y002180D03*
X012845Y002180D03*
X007515Y002180D03*
X006845Y002180D03*
X006845Y003180D03*
X007515Y003180D03*
X015845Y014680D03*
X016515Y014680D03*
X018845Y014680D03*
X019515Y014680D03*
X010015Y019180D03*
X009345Y019180D03*
X008015Y019180D03*
X007345Y019180D03*
X007345Y020180D03*
X008015Y020180D03*
D16*
X007180Y017940D02*
X007180Y017420D01*
X007180Y014940D02*
X007180Y014420D01*
X006680Y009940D02*
X006680Y009420D01*
X007680Y009420D02*
X007680Y009940D01*
X008680Y009940D02*
X008680Y009420D01*
X009680Y009420D02*
X009680Y009940D01*
X010680Y009940D02*
X010680Y009420D01*
X011680Y009420D02*
X011680Y009940D01*
X012680Y009940D02*
X012680Y009420D01*
X013680Y009420D02*
X013680Y009940D01*
X014680Y009940D02*
X014680Y009420D01*
X015680Y009420D02*
X015680Y009940D01*
X017680Y009920D02*
X017680Y010440D01*
X018680Y010440D02*
X018680Y009920D01*
X018680Y007940D02*
X018680Y007420D01*
X017680Y007420D02*
X017680Y007940D01*
X015680Y006940D02*
X015680Y006420D01*
X014680Y006420D02*
X014680Y006940D01*
X013680Y006940D02*
X013680Y006420D01*
X012680Y006420D02*
X012680Y006940D01*
X011680Y006940D02*
X011680Y006420D01*
X010680Y006420D02*
X010680Y006940D01*
X009680Y006940D02*
X009680Y006420D01*
X008680Y006420D02*
X008680Y006940D01*
X007680Y006940D02*
X007680Y006420D01*
X006680Y006420D02*
X006680Y006940D01*
X005680Y006940D02*
X005680Y006420D01*
X004680Y006420D02*
X004680Y006940D01*
X003680Y006940D02*
X003680Y006420D01*
X002680Y006420D02*
X002680Y006940D01*
X002420Y005180D02*
X002940Y005180D01*
X002940Y004180D02*
X002420Y004180D01*
X002420Y003180D02*
X002940Y003180D01*
X002940Y002180D02*
X002420Y002180D01*
X005420Y002180D02*
X005940Y002180D01*
X005940Y003180D02*
X005420Y003180D01*
X005420Y004180D02*
X005940Y004180D01*
X005940Y005180D02*
X005420Y005180D01*
X008420Y005180D02*
X008940Y005180D01*
X008940Y004180D02*
X008420Y004180D01*
X008420Y003180D02*
X008940Y003180D01*
X008940Y002180D02*
X008420Y002180D01*
X011420Y002180D02*
X011940Y002180D01*
X011940Y003180D02*
X011420Y003180D01*
X011420Y004180D02*
X011940Y004180D01*
X011940Y005180D02*
X011420Y005180D01*
X005680Y009420D02*
X005680Y009940D01*
X004680Y009940D02*
X004680Y009420D01*
X003680Y009420D02*
X003680Y009940D01*
X002680Y009940D02*
X002680Y009420D01*
D17*
X004180Y011460D02*
X004180Y011900D01*
X006180Y011900D02*
X006180Y011460D01*
D18*
X009595Y010930D03*
X010265Y010930D03*
X010265Y012180D03*
X009595Y012180D03*
X017345Y013180D03*
X018015Y013180D03*
X018845Y013180D03*
X019515Y013180D03*
X018015Y014680D03*
X017345Y014680D03*
X017345Y008680D03*
X018015Y008680D03*
X018845Y008680D03*
X019515Y008680D03*
X019515Y006180D03*
X018845Y006180D03*
X018015Y006180D03*
X017345Y006180D03*
X007515Y004180D03*
X006845Y004180D03*
X009345Y020180D03*
X010015Y020180D03*
D19*
X019208Y019054D03*
X019680Y019054D03*
X020152Y019054D03*
X020152Y018306D03*
X019680Y018306D03*
X019208Y018306D03*
D20*
X012680Y019680D03*
X012680Y015680D03*
X016180Y011180D03*
D21*
X016180Y012180D03*
X016180Y013180D03*
X015180Y013180D03*
X015180Y012180D03*
X015180Y011180D03*
X013680Y013680D03*
X013680Y014680D03*
X012680Y014680D03*
X012680Y013680D03*
X013680Y015680D03*
X013680Y017680D03*
X013680Y018680D03*
X012680Y018680D03*
X012680Y017680D03*
X013680Y019680D03*
D22*
X017680Y011960D02*
X017680Y011400D01*
X018680Y011400D02*
X018680Y011960D01*
X013430Y011710D02*
X013430Y011150D01*
X012430Y011150D02*
X012430Y011710D01*
X011430Y011710D02*
X011430Y011150D01*
D23*
X015180Y017180D03*
X015680Y017180D03*
X016180Y017180D03*
X016680Y017180D03*
X017180Y017180D03*
X017680Y017180D03*
X018180Y017180D03*
X018180Y019680D03*
X017680Y019680D03*
X017180Y019680D03*
X016680Y019680D03*
X016180Y019680D03*
X015680Y019680D03*
X015180Y019680D03*
D24*
X006231Y014180D03*
X005129Y014180D03*
D25*
X016180Y003505D02*
X016180Y002855D01*
X017180Y002855D02*
X017180Y003505D01*
X018180Y003505D02*
X018180Y002855D01*
D26*
X019180Y003180D03*
X015180Y003180D03*
M02*
