%
M48
M72
T01C0.0120
T02C0.0157
T03C0.0240
T04C0.0320
T05C0.0360
T06C0.0374
T07C0.0400
T08C0.0433
T09C0.0906
%
T01
X6880Y3580
X12480Y2830
X13030Y5580
X16330Y8830
X17980Y9080
X19280Y8280
X18830Y5780
X18880Y12630
X17680Y12830
X16980Y13930
X16480Y15080
X17430Y15380
X15480Y15230
X15430Y16530
X13880Y16480
X11630Y16830
X10630Y15280
X10380Y14530
X10680Y13430
X10680Y12330
X12930Y12830
X9380Y16530
X8730Y16830
X7730Y12530
X7680Y11130
X6080Y9180
X19480Y15080
X20130Y17880
T02
X10180Y18430
X8930Y17680
X8180Y18430
X9180Y15930
T03
X6180Y11680
X4180Y11680
T04
X2680Y2180
X2680Y3180
X2680Y4180
X2680Y5180
X2680Y6680
X3680Y6680
X4680Y6680
X5680Y6680
X6680Y6680
X7680Y6680
X8680Y6680
X9680Y6680
X10680Y6680
X11680Y6680
X12680Y6680
X13680Y6680
X14680Y6680
X15680Y6680
X17680Y7680
X18680Y7680
X18680Y10180
X17680Y10180
X15680Y9680
X14680Y9680
X13680Y9680
X12680Y9680
X11680Y9680
X10680Y9680
X9680Y9680
X8680Y9680
X7680Y9680
X6680Y9680
X5680Y9680
X4680Y9680
X3680Y9680
X2680Y9680
X2180Y11680
X3180Y13180
X2180Y13680
X7180Y13180
X7180Y14680
X7180Y17680
X5680Y5180
X5680Y4180
X5680Y3180
X5680Y2180
X8680Y2180
X8680Y3180
X8680Y4180
X8680Y5180
X11680Y5180
X11680Y4180
X11680Y3180
X11680Y2180
T05
X11430Y11430
X12430Y11430
X13430Y11430
X17680Y11680
X18680Y11680
T06
X6034Y17188
X5247Y17188
X5247Y18172
X6034Y18172
T07
X12680Y17680
X12680Y18680
X13680Y18680
X13680Y17680
X13680Y15680
X12680Y15680
X12680Y14680
X12680Y13680
X13680Y13680
X13680Y14680
X15180Y13180
X15180Y12180
X15180Y11180
X16180Y11180
X16180Y12180
X16180Y13180
X13680Y19680
X12680Y19680
T08
X15180Y3180
X16180Y3180
X17180Y3180
X18180Y3180
X19180Y3180
T09
X4180Y15310
X4180Y20050
M30
