G75*
G70*
%OFA0B0*%
%FSLAX24Y24*%
%IPPOS*%
%LPD*%
%AMOC8*
5,1,8,0,0,1.08239X$1,22.5*
%
%ADD10C,0.0000*%
%ADD11OC8,0.0614*%
%ADD12C,0.1346*%
%ADD13OC8,0.0560*%
%ADD14C,0.0560*%
%ADD15C,0.0480*%
%ADD16R,0.0640X0.0640*%
%ADD17OC8,0.0640*%
%ADD18C,0.0600*%
%ADD19C,0.0690*%
%ADD20C,0.0700*%
D10*
X001180Y001180D02*
X001180Y020865D01*
X020865Y020865D01*
X020865Y001180D01*
X001180Y001180D01*
D11*
X005247Y017188D03*
X006034Y017188D03*
X006034Y018172D03*
X005247Y018172D03*
D12*
X004180Y020050D03*
X004180Y015310D03*
D13*
X002180Y013680D03*
X003180Y013180D03*
X002180Y011680D03*
X007180Y013180D03*
D14*
X007180Y014420D02*
X007180Y014940D01*
X007180Y017420D02*
X007180Y017940D01*
X006680Y009940D02*
X006680Y009420D01*
X007680Y009420D02*
X007680Y009940D01*
X008680Y009940D02*
X008680Y009420D01*
X009680Y009420D02*
X009680Y009940D01*
X010680Y009940D02*
X010680Y009420D01*
X011680Y009420D02*
X011680Y009940D01*
X012680Y009940D02*
X012680Y009420D01*
X013680Y009420D02*
X013680Y009940D01*
X014680Y009940D02*
X014680Y009420D01*
X015680Y009420D02*
X015680Y009940D01*
X017680Y009920D02*
X017680Y010440D01*
X018680Y010440D02*
X018680Y009920D01*
X018680Y007940D02*
X018680Y007420D01*
X017680Y007420D02*
X017680Y007940D01*
X015680Y006940D02*
X015680Y006420D01*
X014680Y006420D02*
X014680Y006940D01*
X013680Y006940D02*
X013680Y006420D01*
X012680Y006420D02*
X012680Y006940D01*
X011680Y006940D02*
X011680Y006420D01*
X010680Y006420D02*
X010680Y006940D01*
X009680Y006940D02*
X009680Y006420D01*
X008680Y006420D02*
X008680Y006940D01*
X007680Y006940D02*
X007680Y006420D01*
X006680Y006420D02*
X006680Y006940D01*
X005680Y006940D02*
X005680Y006420D01*
X004680Y006420D02*
X004680Y006940D01*
X003680Y006940D02*
X003680Y006420D01*
X002680Y006420D02*
X002680Y006940D01*
X002420Y005180D02*
X002940Y005180D01*
X002940Y004180D02*
X002420Y004180D01*
X002420Y003180D02*
X002940Y003180D01*
X002940Y002180D02*
X002420Y002180D01*
X005420Y002180D02*
X005940Y002180D01*
X005940Y003180D02*
X005420Y003180D01*
X005420Y004180D02*
X005940Y004180D01*
X005940Y005180D02*
X005420Y005180D01*
X008420Y005180D02*
X008940Y005180D01*
X008940Y004180D02*
X008420Y004180D01*
X008420Y003180D02*
X008940Y003180D01*
X008940Y002180D02*
X008420Y002180D01*
X011420Y002180D02*
X011940Y002180D01*
X011940Y003180D02*
X011420Y003180D01*
X011420Y004180D02*
X011940Y004180D01*
X011940Y005180D02*
X011420Y005180D01*
X005680Y009420D02*
X005680Y009940D01*
X004680Y009940D02*
X004680Y009420D01*
X003680Y009420D02*
X003680Y009940D01*
X002680Y009940D02*
X002680Y009420D01*
D15*
X004180Y011460D02*
X004180Y011900D01*
X006180Y011900D02*
X006180Y011460D01*
D16*
X012680Y015680D03*
X012680Y019680D03*
X016180Y011180D03*
D17*
X016180Y012180D03*
X016180Y013180D03*
X015180Y013180D03*
X015180Y012180D03*
X015180Y011180D03*
X013680Y013680D03*
X013680Y014680D03*
X012680Y014680D03*
X012680Y013680D03*
X013680Y015680D03*
X013680Y017680D03*
X013680Y018680D03*
X012680Y018680D03*
X012680Y017680D03*
X013680Y019680D03*
D18*
X017680Y011960D02*
X017680Y011400D01*
X018680Y011400D02*
X018680Y011960D01*
X013430Y011710D02*
X013430Y011150D01*
X012430Y011150D02*
X012430Y011710D01*
X011430Y011710D02*
X011430Y011150D01*
D19*
X016180Y003505D02*
X016180Y002855D01*
X017180Y002855D02*
X017180Y003505D01*
X018180Y003505D02*
X018180Y002855D01*
D20*
X019180Y003180D03*
X015180Y003180D03*
M02*
