G75*
G70*
%OFA0B0*%
%FSLAX24Y24*%
%IPPOS*%
%LPD*%
%AMOC8*
5,1,8,0,0,1.08239X$1,22.5*
%
%ADD10C,0.0000*%
%ADD11C,0.0070*%
%ADD12C,0.0060*%
%ADD13C,0.0050*%
%ADD14C,0.0080*%
%ADD15C,0.0100*%
%ADD16C,0.0030*%
%ADD17C,0.0040*%
%ADD18C,0.0020*%
%ADD19C,0.0079*%
%ADD20R,0.0800X0.0200*%
%ADD21R,0.0200X0.0250*%
D10*
X001560Y003750D02*
X001560Y035246D01*
X036993Y035246D01*
X036993Y003750D01*
X001560Y003750D01*
X002840Y005719D02*
X002842Y005771D01*
X002848Y005823D01*
X002858Y005874D01*
X002871Y005924D01*
X002889Y005974D01*
X002910Y006021D01*
X002934Y006067D01*
X002963Y006111D01*
X002994Y006153D01*
X003028Y006192D01*
X003065Y006229D01*
X003105Y006262D01*
X003148Y006293D01*
X003192Y006320D01*
X003238Y006344D01*
X003287Y006364D01*
X003336Y006380D01*
X003387Y006393D01*
X003438Y006402D01*
X003490Y006407D01*
X003542Y006408D01*
X003594Y006405D01*
X003646Y006398D01*
X003697Y006387D01*
X003747Y006373D01*
X003796Y006354D01*
X003843Y006332D01*
X003888Y006307D01*
X003932Y006278D01*
X003973Y006246D01*
X004012Y006211D01*
X004047Y006173D01*
X004080Y006132D01*
X004110Y006090D01*
X004136Y006045D01*
X004159Y005998D01*
X004178Y005949D01*
X004194Y005899D01*
X004206Y005849D01*
X004214Y005797D01*
X004218Y005745D01*
X004218Y005693D01*
X004214Y005641D01*
X004206Y005589D01*
X004194Y005539D01*
X004178Y005489D01*
X004159Y005440D01*
X004136Y005393D01*
X004110Y005348D01*
X004080Y005306D01*
X004047Y005265D01*
X004012Y005227D01*
X003973Y005192D01*
X003932Y005160D01*
X003888Y005131D01*
X003843Y005106D01*
X003796Y005084D01*
X003747Y005065D01*
X003697Y005051D01*
X003646Y005040D01*
X003594Y005033D01*
X003542Y005030D01*
X003490Y005031D01*
X003438Y005036D01*
X003387Y005045D01*
X003336Y005058D01*
X003287Y005074D01*
X003238Y005094D01*
X003192Y005118D01*
X003148Y005145D01*
X003105Y005176D01*
X003065Y005209D01*
X003028Y005246D01*
X002994Y005285D01*
X002963Y005327D01*
X002934Y005371D01*
X002910Y005417D01*
X002889Y005464D01*
X002871Y005514D01*
X002858Y005564D01*
X002848Y005615D01*
X002842Y005667D01*
X002840Y005719D01*
X002840Y033278D02*
X002842Y033330D01*
X002848Y033382D01*
X002858Y033433D01*
X002871Y033483D01*
X002889Y033533D01*
X002910Y033580D01*
X002934Y033626D01*
X002963Y033670D01*
X002994Y033712D01*
X003028Y033751D01*
X003065Y033788D01*
X003105Y033821D01*
X003148Y033852D01*
X003192Y033879D01*
X003238Y033903D01*
X003287Y033923D01*
X003336Y033939D01*
X003387Y033952D01*
X003438Y033961D01*
X003490Y033966D01*
X003542Y033967D01*
X003594Y033964D01*
X003646Y033957D01*
X003697Y033946D01*
X003747Y033932D01*
X003796Y033913D01*
X003843Y033891D01*
X003888Y033866D01*
X003932Y033837D01*
X003973Y033805D01*
X004012Y033770D01*
X004047Y033732D01*
X004080Y033691D01*
X004110Y033649D01*
X004136Y033604D01*
X004159Y033557D01*
X004178Y033508D01*
X004194Y033458D01*
X004206Y033408D01*
X004214Y033356D01*
X004218Y033304D01*
X004218Y033252D01*
X004214Y033200D01*
X004206Y033148D01*
X004194Y033098D01*
X004178Y033048D01*
X004159Y032999D01*
X004136Y032952D01*
X004110Y032907D01*
X004080Y032865D01*
X004047Y032824D01*
X004012Y032786D01*
X003973Y032751D01*
X003932Y032719D01*
X003888Y032690D01*
X003843Y032665D01*
X003796Y032643D01*
X003747Y032624D01*
X003697Y032610D01*
X003646Y032599D01*
X003594Y032592D01*
X003542Y032589D01*
X003490Y032590D01*
X003438Y032595D01*
X003387Y032604D01*
X003336Y032617D01*
X003287Y032633D01*
X003238Y032653D01*
X003192Y032677D01*
X003148Y032704D01*
X003105Y032735D01*
X003065Y032768D01*
X003028Y032805D01*
X002994Y032844D01*
X002963Y032886D01*
X002934Y032930D01*
X002910Y032976D01*
X002889Y033023D01*
X002871Y033073D01*
X002858Y033123D01*
X002848Y033174D01*
X002842Y033226D01*
X002840Y033278D01*
X034336Y033278D02*
X034338Y033330D01*
X034344Y033382D01*
X034354Y033433D01*
X034367Y033483D01*
X034385Y033533D01*
X034406Y033580D01*
X034430Y033626D01*
X034459Y033670D01*
X034490Y033712D01*
X034524Y033751D01*
X034561Y033788D01*
X034601Y033821D01*
X034644Y033852D01*
X034688Y033879D01*
X034734Y033903D01*
X034783Y033923D01*
X034832Y033939D01*
X034883Y033952D01*
X034934Y033961D01*
X034986Y033966D01*
X035038Y033967D01*
X035090Y033964D01*
X035142Y033957D01*
X035193Y033946D01*
X035243Y033932D01*
X035292Y033913D01*
X035339Y033891D01*
X035384Y033866D01*
X035428Y033837D01*
X035469Y033805D01*
X035508Y033770D01*
X035543Y033732D01*
X035576Y033691D01*
X035606Y033649D01*
X035632Y033604D01*
X035655Y033557D01*
X035674Y033508D01*
X035690Y033458D01*
X035702Y033408D01*
X035710Y033356D01*
X035714Y033304D01*
X035714Y033252D01*
X035710Y033200D01*
X035702Y033148D01*
X035690Y033098D01*
X035674Y033048D01*
X035655Y032999D01*
X035632Y032952D01*
X035606Y032907D01*
X035576Y032865D01*
X035543Y032824D01*
X035508Y032786D01*
X035469Y032751D01*
X035428Y032719D01*
X035384Y032690D01*
X035339Y032665D01*
X035292Y032643D01*
X035243Y032624D01*
X035193Y032610D01*
X035142Y032599D01*
X035090Y032592D01*
X035038Y032589D01*
X034986Y032590D01*
X034934Y032595D01*
X034883Y032604D01*
X034832Y032617D01*
X034783Y032633D01*
X034734Y032653D01*
X034688Y032677D01*
X034644Y032704D01*
X034601Y032735D01*
X034561Y032768D01*
X034524Y032805D01*
X034490Y032844D01*
X034459Y032886D01*
X034430Y032930D01*
X034406Y032976D01*
X034385Y033023D01*
X034367Y033073D01*
X034354Y033123D01*
X034344Y033174D01*
X034338Y033226D01*
X034336Y033278D01*
X034336Y005719D02*
X034338Y005771D01*
X034344Y005823D01*
X034354Y005874D01*
X034367Y005924D01*
X034385Y005974D01*
X034406Y006021D01*
X034430Y006067D01*
X034459Y006111D01*
X034490Y006153D01*
X034524Y006192D01*
X034561Y006229D01*
X034601Y006262D01*
X034644Y006293D01*
X034688Y006320D01*
X034734Y006344D01*
X034783Y006364D01*
X034832Y006380D01*
X034883Y006393D01*
X034934Y006402D01*
X034986Y006407D01*
X035038Y006408D01*
X035090Y006405D01*
X035142Y006398D01*
X035193Y006387D01*
X035243Y006373D01*
X035292Y006354D01*
X035339Y006332D01*
X035384Y006307D01*
X035428Y006278D01*
X035469Y006246D01*
X035508Y006211D01*
X035543Y006173D01*
X035576Y006132D01*
X035606Y006090D01*
X035632Y006045D01*
X035655Y005998D01*
X035674Y005949D01*
X035690Y005899D01*
X035702Y005849D01*
X035710Y005797D01*
X035714Y005745D01*
X035714Y005693D01*
X035710Y005641D01*
X035702Y005589D01*
X035690Y005539D01*
X035674Y005489D01*
X035655Y005440D01*
X035632Y005393D01*
X035606Y005348D01*
X035576Y005306D01*
X035543Y005265D01*
X035508Y005227D01*
X035469Y005192D01*
X035428Y005160D01*
X035384Y005131D01*
X035339Y005106D01*
X035292Y005084D01*
X035243Y005065D01*
X035193Y005051D01*
X035142Y005040D01*
X035090Y005033D01*
X035038Y005030D01*
X034986Y005031D01*
X034934Y005036D01*
X034883Y005045D01*
X034832Y005058D01*
X034783Y005074D01*
X034734Y005094D01*
X034688Y005118D01*
X034644Y005145D01*
X034601Y005176D01*
X034561Y005209D01*
X034524Y005246D01*
X034490Y005285D01*
X034459Y005327D01*
X034430Y005371D01*
X034406Y005417D01*
X034385Y005464D01*
X034367Y005514D01*
X034354Y005564D01*
X034344Y005615D01*
X034338Y005667D01*
X034336Y005719D01*
D11*
X026148Y034425D02*
X025985Y034425D01*
X026067Y034425D02*
X026067Y034916D01*
X025985Y034916D01*
X025796Y034670D02*
X025715Y034752D01*
X025551Y034752D01*
X025469Y034670D01*
X025469Y034507D01*
X025551Y034425D01*
X025715Y034425D01*
X025796Y034507D01*
X025796Y034670D01*
X025285Y034752D02*
X025203Y034752D01*
X025040Y034589D01*
X025040Y034752D02*
X025040Y034425D01*
X024859Y034425D02*
X024778Y034507D01*
X024778Y034834D01*
X024696Y034752D02*
X024859Y034752D01*
X024507Y034670D02*
X024507Y034425D01*
X024507Y034670D02*
X024425Y034752D01*
X024180Y034752D01*
X024180Y034425D01*
X023992Y034507D02*
X023992Y034670D01*
X023910Y034752D01*
X023746Y034752D01*
X023665Y034670D01*
X023665Y034507D01*
X023746Y034425D01*
X023910Y034425D01*
X023992Y034507D01*
X023476Y034507D02*
X023394Y034425D01*
X023231Y034425D01*
X023149Y034507D01*
X023149Y034834D01*
X023231Y034916D01*
X023394Y034916D01*
X023476Y034834D01*
X022965Y034752D02*
X022883Y034752D01*
X022719Y034589D01*
X022719Y034752D02*
X022719Y034425D01*
X022531Y034507D02*
X022531Y034670D01*
X022449Y034752D01*
X022285Y034752D01*
X022204Y034670D01*
X022204Y034507D01*
X022285Y034425D01*
X022449Y034425D01*
X022531Y034507D01*
X022023Y034425D02*
X021942Y034507D01*
X021942Y034834D01*
X021860Y034752D02*
X022023Y034752D01*
X021671Y034670D02*
X021589Y034752D01*
X021426Y034752D01*
X021344Y034670D01*
X021344Y034507D01*
X021426Y034425D01*
X021589Y034425D01*
X021671Y034507D01*
X021671Y034670D01*
X021156Y034916D02*
X021156Y034425D01*
X020829Y034425D02*
X020829Y034916D01*
X020992Y034752D01*
X021156Y034916D01*
X020640Y034344D02*
X020313Y034344D01*
X020043Y034425D02*
X019879Y034425D01*
X019797Y034507D01*
X019797Y034670D01*
X019879Y034752D01*
X020043Y034752D01*
X020124Y034670D01*
X020124Y034589D01*
X019797Y034589D01*
X019617Y034425D02*
X019454Y034425D01*
X019535Y034425D02*
X019535Y034916D01*
X019454Y034916D01*
X019265Y034752D02*
X019265Y034425D01*
X019020Y034425D01*
X018938Y034507D01*
X018938Y034752D01*
X018749Y034752D02*
X018504Y034752D01*
X018422Y034670D01*
X018422Y034507D01*
X018504Y034425D01*
X018749Y034425D01*
X018749Y034916D01*
X018234Y034670D02*
X018152Y034752D01*
X017988Y034752D01*
X017907Y034670D01*
X017907Y034507D01*
X017988Y034425D01*
X018152Y034425D01*
X018234Y034507D01*
X018234Y034670D01*
X017718Y034670D02*
X017718Y034425D01*
X017554Y034425D02*
X017554Y034670D01*
X017636Y034752D01*
X017718Y034670D01*
X017554Y034670D02*
X017473Y034752D01*
X017391Y034752D01*
X017391Y034425D01*
X016699Y034425D02*
X016618Y034425D01*
X016618Y034507D01*
X016699Y034507D01*
X016699Y034425D01*
X016429Y034507D02*
X016347Y034425D01*
X016184Y034425D01*
X016102Y034507D01*
X015926Y034507D02*
X015926Y034425D01*
X015844Y034425D01*
X015844Y034507D01*
X015926Y034507D01*
X015655Y034507D02*
X015655Y034916D01*
X015328Y034916D02*
X015328Y034507D01*
X015410Y034425D01*
X015574Y034425D01*
X015655Y034507D01*
X016102Y034752D02*
X016184Y034670D01*
X016347Y034670D01*
X016429Y034589D01*
X016429Y034507D01*
X016429Y034834D02*
X016347Y034916D01*
X016184Y034916D01*
X016102Y034834D01*
X016102Y034752D01*
X015152Y034507D02*
X015152Y034425D01*
X015071Y034425D01*
X015071Y034507D01*
X015152Y034507D01*
X014718Y034425D02*
X014718Y034916D01*
X014555Y034916D02*
X014882Y034916D01*
D12*
X014500Y033370D02*
X013900Y033370D01*
X013883Y033368D01*
X013866Y033364D01*
X013850Y033357D01*
X013836Y033347D01*
X013823Y033334D01*
X013813Y033320D01*
X013806Y033304D01*
X013802Y033287D01*
X013800Y033270D01*
X013800Y031670D01*
X013802Y031653D01*
X013806Y031636D01*
X013813Y031620D01*
X013823Y031606D01*
X013836Y031593D01*
X013850Y031583D01*
X013866Y031576D01*
X013883Y031572D01*
X013900Y031570D01*
X014500Y031570D01*
X014517Y031572D01*
X014534Y031576D01*
X014550Y031583D01*
X014564Y031593D01*
X014577Y031606D01*
X014587Y031620D01*
X014594Y031636D01*
X014598Y031653D01*
X014600Y031670D01*
X014600Y033270D01*
X014598Y033287D01*
X014594Y033304D01*
X014587Y033320D01*
X014577Y033334D01*
X014564Y033347D01*
X014550Y033357D01*
X014534Y033364D01*
X014517Y033368D01*
X014500Y033370D01*
X014200Y032720D02*
X014200Y032470D01*
X013950Y032470D01*
X014200Y032470D02*
X013950Y032070D01*
X014450Y032070D01*
X014200Y032470D01*
X014450Y032470D01*
X014200Y032470D02*
X014200Y031870D01*
X011660Y029350D02*
X011662Y029416D01*
X011668Y029481D01*
X011678Y029546D01*
X011691Y029611D01*
X011709Y029674D01*
X011730Y029737D01*
X011755Y029797D01*
X011784Y029857D01*
X011816Y029914D01*
X011851Y029970D01*
X011890Y030023D01*
X011932Y030074D01*
X011976Y030122D01*
X012024Y030167D01*
X012074Y030210D01*
X012127Y030249D01*
X012182Y030286D01*
X012239Y030319D01*
X012298Y030348D01*
X012358Y030374D01*
X012420Y030396D01*
X012483Y030415D01*
X012547Y030429D01*
X012612Y030440D01*
X012678Y030447D01*
X012744Y030450D01*
X012809Y030449D01*
X012875Y030444D01*
X012940Y030435D01*
X013005Y030422D01*
X013068Y030406D01*
X013131Y030386D01*
X013192Y030361D01*
X013252Y030334D01*
X013310Y030303D01*
X013366Y030268D01*
X013420Y030230D01*
X013471Y030189D01*
X013520Y030145D01*
X013566Y030098D01*
X013610Y030049D01*
X013650Y029997D01*
X013687Y029942D01*
X013721Y029886D01*
X013751Y029827D01*
X013778Y029767D01*
X013801Y029706D01*
X013820Y029643D01*
X013836Y029579D01*
X013848Y029514D01*
X013856Y029449D01*
X013860Y029383D01*
X013860Y029317D01*
X013856Y029251D01*
X013848Y029186D01*
X013836Y029121D01*
X013820Y029057D01*
X013801Y028994D01*
X013778Y028933D01*
X013751Y028873D01*
X013721Y028814D01*
X013687Y028758D01*
X013650Y028703D01*
X013610Y028651D01*
X013566Y028602D01*
X013520Y028555D01*
X013471Y028511D01*
X013420Y028470D01*
X013366Y028432D01*
X013310Y028397D01*
X013252Y028366D01*
X013192Y028339D01*
X013131Y028314D01*
X013068Y028294D01*
X013005Y028278D01*
X012940Y028265D01*
X012875Y028256D01*
X012809Y028251D01*
X012744Y028250D01*
X012678Y028253D01*
X012612Y028260D01*
X012547Y028271D01*
X012483Y028285D01*
X012420Y028304D01*
X012358Y028326D01*
X012298Y028352D01*
X012239Y028381D01*
X012182Y028414D01*
X012127Y028451D01*
X012074Y028490D01*
X012024Y028533D01*
X011976Y028578D01*
X011932Y028626D01*
X011890Y028677D01*
X011851Y028730D01*
X011816Y028786D01*
X011784Y028843D01*
X011755Y028903D01*
X011730Y028963D01*
X011709Y029026D01*
X011691Y029089D01*
X011678Y029154D01*
X011668Y029219D01*
X011662Y029284D01*
X011660Y029350D01*
X011710Y029350D02*
X011910Y029350D01*
X011810Y029250D02*
X011810Y029450D01*
X010420Y029420D02*
X010418Y029403D01*
X010414Y029386D01*
X010407Y029370D01*
X010397Y029356D01*
X010384Y029343D01*
X010370Y029333D01*
X010354Y029326D01*
X010337Y029322D01*
X010320Y029320D01*
X010220Y029320D01*
X010170Y029370D01*
X009270Y029370D01*
X009220Y029320D01*
X009120Y029320D01*
X009103Y029322D01*
X009086Y029326D01*
X009070Y029333D01*
X009056Y029343D01*
X009043Y029356D01*
X009033Y029370D01*
X009026Y029386D01*
X009022Y029403D01*
X009020Y029420D01*
X009020Y029920D02*
X009022Y029937D01*
X009026Y029954D01*
X009033Y029970D01*
X009043Y029984D01*
X009056Y029997D01*
X009070Y030007D01*
X009086Y030014D01*
X009103Y030018D01*
X009120Y030020D01*
X009220Y030020D01*
X009270Y029970D01*
X010170Y029970D01*
X010220Y030020D01*
X010320Y030020D01*
X010337Y030018D01*
X010354Y030014D01*
X010370Y030007D01*
X010384Y029997D01*
X010397Y029984D01*
X010407Y029970D01*
X010414Y029954D01*
X010418Y029937D01*
X010420Y029920D01*
X005480Y031647D02*
X005373Y031540D01*
X005160Y031540D01*
X005053Y031647D01*
X005053Y031861D02*
X005266Y031967D01*
X005373Y031967D01*
X005480Y031861D01*
X005480Y031647D01*
X005480Y032181D02*
X005053Y032181D01*
X005053Y031861D01*
X004835Y031861D02*
X004408Y031861D01*
X004728Y032181D01*
X004728Y031540D01*
X004191Y031540D02*
X003764Y031540D01*
X004191Y031967D01*
X004191Y032074D01*
X004084Y032181D01*
X003870Y032181D01*
X003764Y032074D01*
X003546Y032074D02*
X003546Y031967D01*
X003439Y031861D01*
X003226Y031861D01*
X003119Y031967D01*
X003119Y032074D01*
X003226Y032181D01*
X003439Y032181D01*
X003546Y032074D01*
X003439Y031861D02*
X003546Y031754D01*
X003546Y031647D01*
X003439Y031540D01*
X003226Y031540D01*
X003119Y031647D01*
X003119Y031754D01*
X003226Y031861D01*
X002902Y031861D02*
X002475Y031861D01*
X002795Y032181D01*
X002795Y031540D01*
X002257Y031647D02*
X002257Y032074D01*
X002150Y032181D01*
X001830Y032181D01*
X001830Y031540D01*
X002150Y031540D01*
X002257Y031647D01*
X002779Y023498D02*
X002529Y023248D01*
X002529Y022748D01*
X002779Y022498D01*
X004279Y022498D01*
X004529Y022248D01*
X004529Y021748D01*
X004279Y021498D01*
X002779Y021498D01*
X002529Y021248D01*
X002529Y020748D01*
X002779Y020498D01*
X004279Y020498D01*
X004529Y020248D01*
X004529Y019748D01*
X004279Y019498D01*
X002779Y019498D01*
X002529Y019248D01*
X002529Y018748D01*
X002779Y018498D01*
X004279Y018498D01*
X004529Y018248D01*
X004529Y017748D01*
X004279Y017498D01*
X002779Y017498D01*
X002529Y017248D01*
X002529Y016748D01*
X002779Y016498D01*
X002529Y016248D01*
X002529Y015748D01*
X002779Y015498D01*
X004279Y015498D01*
X004529Y015748D01*
X004529Y016248D01*
X004279Y016498D01*
X002779Y016498D01*
X002779Y017498D02*
X002529Y017748D01*
X002529Y018248D01*
X002779Y018498D01*
X002779Y019498D02*
X002529Y019748D01*
X002529Y020248D01*
X002779Y020498D01*
X002779Y021498D02*
X002529Y021748D01*
X002529Y022248D01*
X002779Y022498D01*
X002779Y023498D02*
X004279Y023498D01*
X004529Y023248D01*
X004529Y022748D01*
X004279Y022498D01*
X004279Y021498D02*
X004529Y021248D01*
X004529Y020748D01*
X004279Y020498D01*
X004279Y019498D02*
X004529Y019248D01*
X004529Y018748D01*
X004279Y018498D01*
X005440Y018520D02*
X005540Y018520D01*
X005590Y018570D01*
X006490Y018570D01*
X006540Y018520D01*
X006640Y018520D01*
X006657Y018522D01*
X006674Y018526D01*
X006690Y018533D01*
X006704Y018543D01*
X006717Y018556D01*
X006727Y018570D01*
X006734Y018586D01*
X006738Y018603D01*
X006740Y018620D01*
X006740Y019120D02*
X006738Y019137D01*
X006734Y019154D01*
X006727Y019170D01*
X006717Y019184D01*
X006704Y019197D01*
X006690Y019207D01*
X006674Y019214D01*
X006657Y019218D01*
X006640Y019220D01*
X006540Y019220D01*
X006490Y019170D01*
X005590Y019170D01*
X005540Y019220D01*
X005440Y019220D01*
X005423Y019218D01*
X005406Y019214D01*
X005390Y019207D01*
X005376Y019197D01*
X005363Y019184D01*
X005353Y019170D01*
X005346Y019154D01*
X005342Y019137D01*
X005340Y019120D01*
X005340Y018620D02*
X005342Y018603D01*
X005346Y018586D01*
X005353Y018570D01*
X005363Y018556D01*
X005376Y018543D01*
X005390Y018533D01*
X005406Y018526D01*
X005423Y018522D01*
X005440Y018520D01*
X005690Y019703D02*
X005690Y019853D01*
X005540Y019853D01*
X005690Y019853D02*
X005690Y020003D01*
X005690Y019853D02*
X005840Y019853D01*
X005090Y020503D02*
X005092Y020569D01*
X005098Y020634D01*
X005108Y020699D01*
X005121Y020764D01*
X005139Y020827D01*
X005160Y020890D01*
X005185Y020950D01*
X005214Y021010D01*
X005246Y021067D01*
X005281Y021123D01*
X005320Y021176D01*
X005362Y021227D01*
X005406Y021275D01*
X005454Y021320D01*
X005504Y021363D01*
X005557Y021402D01*
X005612Y021439D01*
X005669Y021472D01*
X005728Y021501D01*
X005788Y021527D01*
X005850Y021549D01*
X005913Y021568D01*
X005977Y021582D01*
X006042Y021593D01*
X006108Y021600D01*
X006174Y021603D01*
X006239Y021602D01*
X006305Y021597D01*
X006370Y021588D01*
X006435Y021575D01*
X006498Y021559D01*
X006561Y021539D01*
X006622Y021514D01*
X006682Y021487D01*
X006740Y021456D01*
X006796Y021421D01*
X006850Y021383D01*
X006901Y021342D01*
X006950Y021298D01*
X006996Y021251D01*
X007040Y021202D01*
X007080Y021150D01*
X007117Y021095D01*
X007151Y021039D01*
X007181Y020980D01*
X007208Y020920D01*
X007231Y020859D01*
X007250Y020796D01*
X007266Y020732D01*
X007278Y020667D01*
X007286Y020602D01*
X007290Y020536D01*
X007290Y020470D01*
X007286Y020404D01*
X007278Y020339D01*
X007266Y020274D01*
X007250Y020210D01*
X007231Y020147D01*
X007208Y020086D01*
X007181Y020026D01*
X007151Y019967D01*
X007117Y019911D01*
X007080Y019856D01*
X007040Y019804D01*
X006996Y019755D01*
X006950Y019708D01*
X006901Y019664D01*
X006850Y019623D01*
X006796Y019585D01*
X006740Y019550D01*
X006682Y019519D01*
X006622Y019492D01*
X006561Y019467D01*
X006498Y019447D01*
X006435Y019431D01*
X006370Y019418D01*
X006305Y019409D01*
X006239Y019404D01*
X006174Y019403D01*
X006108Y019406D01*
X006042Y019413D01*
X005977Y019424D01*
X005913Y019438D01*
X005850Y019457D01*
X005788Y019479D01*
X005728Y019505D01*
X005669Y019534D01*
X005612Y019567D01*
X005557Y019604D01*
X005504Y019643D01*
X005454Y019686D01*
X005406Y019731D01*
X005362Y019779D01*
X005320Y019830D01*
X005281Y019883D01*
X005246Y019939D01*
X005214Y019996D01*
X005185Y020056D01*
X005160Y020116D01*
X005139Y020179D01*
X005121Y020242D01*
X005108Y020307D01*
X005098Y020372D01*
X005092Y020437D01*
X005090Y020503D01*
X004279Y017498D02*
X004529Y017248D01*
X004529Y016748D01*
X004279Y016498D01*
X007385Y018978D02*
X007387Y019041D01*
X007393Y019103D01*
X007403Y019165D01*
X007416Y019227D01*
X007434Y019287D01*
X007455Y019346D01*
X007480Y019404D01*
X007509Y019460D01*
X007541Y019514D01*
X007576Y019566D01*
X007614Y019615D01*
X007656Y019663D01*
X007700Y019707D01*
X007748Y019749D01*
X007797Y019787D01*
X007849Y019822D01*
X007903Y019854D01*
X007959Y019883D01*
X008017Y019908D01*
X008076Y019929D01*
X008136Y019947D01*
X008198Y019960D01*
X008260Y019970D01*
X008322Y019976D01*
X008385Y019978D01*
X008448Y019976D01*
X008510Y019970D01*
X008572Y019960D01*
X008634Y019947D01*
X008694Y019929D01*
X008753Y019908D01*
X008811Y019883D01*
X008867Y019854D01*
X008921Y019822D01*
X008973Y019787D01*
X009022Y019749D01*
X009070Y019707D01*
X009114Y019663D01*
X009156Y019615D01*
X009194Y019566D01*
X009229Y019514D01*
X009261Y019460D01*
X009290Y019404D01*
X009315Y019346D01*
X009336Y019287D01*
X009354Y019227D01*
X009367Y019165D01*
X009377Y019103D01*
X009383Y019041D01*
X009385Y018978D01*
X009383Y018915D01*
X009377Y018853D01*
X009367Y018791D01*
X009354Y018729D01*
X009336Y018669D01*
X009315Y018610D01*
X009290Y018552D01*
X009261Y018496D01*
X009229Y018442D01*
X009194Y018390D01*
X009156Y018341D01*
X009114Y018293D01*
X009070Y018249D01*
X009022Y018207D01*
X008973Y018169D01*
X008921Y018134D01*
X008867Y018102D01*
X008811Y018073D01*
X008753Y018048D01*
X008694Y018027D01*
X008634Y018009D01*
X008572Y017996D01*
X008510Y017986D01*
X008448Y017980D01*
X008385Y017978D01*
X008322Y017980D01*
X008260Y017986D01*
X008198Y017996D01*
X008136Y018009D01*
X008076Y018027D01*
X008017Y018048D01*
X007959Y018073D01*
X007903Y018102D01*
X007849Y018134D01*
X007797Y018169D01*
X007748Y018207D01*
X007700Y018249D01*
X007656Y018293D01*
X007614Y018341D01*
X007576Y018390D01*
X007541Y018442D01*
X007509Y018496D01*
X007480Y018552D01*
X007455Y018610D01*
X007434Y018669D01*
X007416Y018729D01*
X007403Y018791D01*
X007393Y018853D01*
X007387Y018915D01*
X007385Y018978D01*
X008985Y019378D02*
X009185Y019378D01*
X009085Y019478D02*
X009085Y019278D01*
X009600Y021670D02*
X009602Y021715D01*
X009607Y021761D01*
X009615Y021805D01*
X009627Y021849D01*
X009643Y021892D01*
X009661Y021934D01*
X009683Y021974D01*
X009707Y022012D01*
X009734Y022048D01*
X009764Y022083D01*
X009797Y022114D01*
X009832Y022144D01*
X010800Y021670D02*
X010798Y021623D01*
X010792Y021575D01*
X010783Y021529D01*
X010770Y021483D01*
X010754Y021439D01*
X010733Y021395D01*
X010710Y021354D01*
X010684Y021315D01*
X010654Y021278D01*
X010621Y021243D01*
X010586Y021211D01*
X010549Y021182D01*
X010800Y021670D02*
X010798Y021716D01*
X010793Y021762D01*
X010784Y021808D01*
X010772Y021853D01*
X010756Y021896D01*
X010737Y021938D01*
X010714Y021979D01*
X010689Y022018D01*
X010661Y022054D01*
X010630Y022089D01*
X010596Y022121D01*
X010560Y022150D01*
X009600Y021670D02*
X009602Y021625D01*
X009607Y021579D01*
X009615Y021535D01*
X009627Y021491D01*
X009643Y021448D01*
X009661Y021406D01*
X009683Y021366D01*
X009707Y021328D01*
X009734Y021292D01*
X009764Y021257D01*
X009797Y021226D01*
X009832Y021196D01*
X011440Y021670D02*
X011442Y021717D01*
X011448Y021765D01*
X011457Y021811D01*
X011470Y021857D01*
X011486Y021901D01*
X011507Y021945D01*
X011530Y021986D01*
X011556Y022025D01*
X011586Y022062D01*
X011619Y022097D01*
X011654Y022129D01*
X011691Y022158D01*
X012640Y021670D02*
X012638Y021625D01*
X012633Y021579D01*
X012625Y021535D01*
X012613Y021491D01*
X012597Y021448D01*
X012579Y021406D01*
X012557Y021366D01*
X012533Y021328D01*
X012506Y021292D01*
X012476Y021257D01*
X012443Y021226D01*
X012408Y021196D01*
X012640Y021670D02*
X012638Y021715D01*
X012633Y021761D01*
X012625Y021805D01*
X012613Y021849D01*
X012597Y021892D01*
X012579Y021934D01*
X012557Y021974D01*
X012533Y022012D01*
X012506Y022048D01*
X012476Y022083D01*
X012443Y022114D01*
X012408Y022144D01*
X011440Y021670D02*
X011442Y021624D01*
X011447Y021578D01*
X011456Y021532D01*
X011468Y021487D01*
X011484Y021444D01*
X011503Y021402D01*
X011526Y021361D01*
X011551Y021322D01*
X011579Y021286D01*
X011610Y021251D01*
X011644Y021219D01*
X011680Y021190D01*
X012720Y016470D02*
X012718Y016423D01*
X012712Y016375D01*
X012703Y016329D01*
X012690Y016283D01*
X012674Y016239D01*
X012653Y016195D01*
X012630Y016154D01*
X012604Y016115D01*
X012574Y016078D01*
X012541Y016043D01*
X012506Y016011D01*
X012469Y015982D01*
X011520Y016470D02*
X011522Y016515D01*
X011527Y016561D01*
X011535Y016605D01*
X011547Y016649D01*
X011563Y016692D01*
X011581Y016734D01*
X011603Y016774D01*
X011627Y016812D01*
X011654Y016848D01*
X011684Y016883D01*
X011717Y016914D01*
X011752Y016944D01*
X011520Y016470D02*
X011522Y016425D01*
X011527Y016379D01*
X011535Y016335D01*
X011547Y016291D01*
X011563Y016248D01*
X011581Y016206D01*
X011603Y016166D01*
X011627Y016128D01*
X011654Y016092D01*
X011684Y016057D01*
X011717Y016026D01*
X011752Y015996D01*
X012720Y016470D02*
X012718Y016516D01*
X012713Y016562D01*
X012704Y016608D01*
X012692Y016653D01*
X012676Y016696D01*
X012657Y016738D01*
X012634Y016779D01*
X012609Y016818D01*
X012581Y016854D01*
X012550Y016889D01*
X012516Y016921D01*
X012480Y016950D01*
X010880Y016470D02*
X010878Y016425D01*
X010873Y016379D01*
X010865Y016335D01*
X010853Y016291D01*
X010837Y016248D01*
X010819Y016206D01*
X010797Y016166D01*
X010773Y016128D01*
X010746Y016092D01*
X010716Y016057D01*
X010683Y016026D01*
X010648Y015996D01*
X009680Y016470D02*
X009682Y016517D01*
X009688Y016565D01*
X009697Y016611D01*
X009710Y016657D01*
X009726Y016701D01*
X009747Y016745D01*
X009770Y016786D01*
X009796Y016825D01*
X009826Y016862D01*
X009859Y016897D01*
X009894Y016929D01*
X009931Y016958D01*
X009680Y016470D02*
X009682Y016424D01*
X009687Y016378D01*
X009696Y016332D01*
X009708Y016287D01*
X009724Y016244D01*
X009743Y016202D01*
X009766Y016161D01*
X009791Y016122D01*
X009819Y016086D01*
X009850Y016051D01*
X009884Y016019D01*
X009920Y015990D01*
X010880Y016470D02*
X010878Y016515D01*
X010873Y016561D01*
X010865Y016605D01*
X010853Y016649D01*
X010837Y016692D01*
X010819Y016734D01*
X010797Y016774D01*
X010773Y016812D01*
X010746Y016848D01*
X010716Y016883D01*
X010683Y016914D01*
X010648Y016944D01*
X017475Y015303D02*
X020175Y015303D01*
X020234Y015301D01*
X020292Y015295D01*
X020351Y015286D01*
X020408Y015272D01*
X020464Y015255D01*
X020519Y015234D01*
X020573Y015210D01*
X020625Y015182D01*
X020675Y015151D01*
X020723Y015117D01*
X020768Y015080D01*
X020811Y015039D01*
X020852Y014996D01*
X020889Y014951D01*
X020923Y014903D01*
X020954Y014853D01*
X020982Y014801D01*
X021006Y014747D01*
X021027Y014692D01*
X021044Y014636D01*
X021058Y014579D01*
X021067Y014520D01*
X021073Y014462D01*
X021075Y014403D01*
X021073Y014344D01*
X021067Y014286D01*
X021058Y014227D01*
X021044Y014170D01*
X021027Y014114D01*
X021006Y014059D01*
X020982Y014005D01*
X020954Y013953D01*
X020923Y013903D01*
X020889Y013855D01*
X020852Y013810D01*
X020811Y013767D01*
X020768Y013726D01*
X020723Y013689D01*
X020675Y013655D01*
X020625Y013624D01*
X020573Y013596D01*
X020519Y013572D01*
X020464Y013551D01*
X020408Y013534D01*
X020351Y013520D01*
X020292Y013511D01*
X020234Y013505D01*
X020175Y013503D01*
X017475Y013503D01*
X017416Y013505D01*
X017358Y013511D01*
X017299Y013520D01*
X017242Y013534D01*
X017186Y013551D01*
X017131Y013572D01*
X017077Y013596D01*
X017025Y013624D01*
X016975Y013655D01*
X016927Y013689D01*
X016882Y013726D01*
X016839Y013767D01*
X016798Y013810D01*
X016761Y013855D01*
X016727Y013903D01*
X016696Y013953D01*
X016668Y014005D01*
X016644Y014059D01*
X016623Y014114D01*
X016606Y014170D01*
X016592Y014227D01*
X016583Y014286D01*
X016577Y014344D01*
X016575Y014403D01*
X016577Y014462D01*
X016583Y014520D01*
X016592Y014579D01*
X016606Y014636D01*
X016623Y014692D01*
X016644Y014747D01*
X016668Y014801D01*
X016696Y014853D01*
X016727Y014903D01*
X016761Y014951D01*
X016798Y014996D01*
X016839Y015039D01*
X016882Y015080D01*
X016927Y015117D01*
X016975Y015151D01*
X017025Y015182D01*
X017077Y015210D01*
X017131Y015234D01*
X017186Y015255D01*
X017242Y015272D01*
X017299Y015286D01*
X017358Y015295D01*
X017416Y015301D01*
X017475Y015303D01*
X012240Y009060D02*
X012140Y009060D01*
X012090Y009010D01*
X011190Y009010D01*
X011140Y009060D01*
X011040Y009060D01*
X011023Y009058D01*
X011006Y009054D01*
X010990Y009047D01*
X010976Y009037D01*
X010963Y009024D01*
X010953Y009010D01*
X010946Y008994D01*
X010942Y008977D01*
X010940Y008960D01*
X010940Y008460D02*
X010942Y008443D01*
X010946Y008426D01*
X010953Y008410D01*
X010963Y008396D01*
X010976Y008383D01*
X010990Y008373D01*
X011006Y008366D01*
X011023Y008362D01*
X011040Y008360D01*
X011140Y008360D01*
X011190Y008410D01*
X012090Y008410D01*
X012140Y008360D01*
X012240Y008360D01*
X012257Y008362D01*
X012274Y008366D01*
X012290Y008373D01*
X012304Y008383D01*
X012317Y008396D01*
X012327Y008410D01*
X012334Y008426D01*
X012338Y008443D01*
X012340Y008460D01*
X012340Y008960D02*
X012338Y008977D01*
X012334Y008994D01*
X012327Y009010D01*
X012317Y009024D01*
X012304Y009037D01*
X012290Y009047D01*
X012274Y009054D01*
X012257Y009058D01*
X012240Y009060D01*
X013340Y007130D02*
X013940Y007130D01*
X013957Y007128D01*
X013974Y007124D01*
X013990Y007117D01*
X014004Y007107D01*
X014017Y007094D01*
X014027Y007080D01*
X014034Y007064D01*
X014038Y007047D01*
X014040Y007030D01*
X014040Y005430D01*
X014038Y005413D01*
X014034Y005396D01*
X014027Y005380D01*
X014017Y005366D01*
X014004Y005353D01*
X013990Y005343D01*
X013974Y005336D01*
X013957Y005332D01*
X013940Y005330D01*
X013340Y005330D01*
X013323Y005332D01*
X013306Y005336D01*
X013290Y005343D01*
X013276Y005353D01*
X013263Y005366D01*
X013253Y005380D01*
X013246Y005396D01*
X013242Y005413D01*
X013240Y005430D01*
X013240Y007030D01*
X013242Y007047D01*
X013246Y007064D01*
X013253Y007080D01*
X013263Y007094D01*
X013276Y007107D01*
X013290Y007117D01*
X013306Y007124D01*
X013323Y007128D01*
X013340Y007130D01*
X013640Y006480D02*
X013640Y006230D01*
X013390Y006230D01*
X013640Y006230D02*
X013390Y005830D01*
X013890Y005830D01*
X013640Y006230D01*
X013890Y006230D01*
X013640Y006230D02*
X013640Y005630D01*
X017560Y005550D02*
X017560Y004550D01*
X021560Y004550D01*
X021560Y005550D01*
X021560Y006150D01*
X021521Y006152D01*
X021482Y006158D01*
X021444Y006167D01*
X021407Y006180D01*
X021371Y006197D01*
X021338Y006217D01*
X021306Y006241D01*
X021277Y006267D01*
X021251Y006296D01*
X021227Y006328D01*
X021207Y006361D01*
X021190Y006397D01*
X021177Y006434D01*
X021168Y006472D01*
X021162Y006511D01*
X021160Y006550D01*
X021162Y006589D01*
X021168Y006628D01*
X021177Y006666D01*
X021190Y006703D01*
X021207Y006739D01*
X021227Y006772D01*
X021251Y006804D01*
X021277Y006833D01*
X021306Y006859D01*
X021338Y006883D01*
X021371Y006903D01*
X021407Y006920D01*
X021444Y006933D01*
X021482Y006942D01*
X021521Y006948D01*
X021560Y006950D01*
X021560Y007550D01*
X017560Y007550D01*
X017560Y008550D01*
X021560Y008550D01*
X021560Y007550D01*
X021560Y005550D02*
X017560Y005550D01*
X017560Y007550D01*
X023850Y008010D02*
X023900Y007960D01*
X023900Y007060D01*
X023850Y007010D01*
X023850Y006910D01*
X023852Y006893D01*
X023856Y006876D01*
X023863Y006860D01*
X023873Y006846D01*
X023886Y006833D01*
X023900Y006823D01*
X023916Y006816D01*
X023933Y006812D01*
X023950Y006810D01*
X024450Y006810D02*
X024467Y006812D01*
X024484Y006816D01*
X024500Y006823D01*
X024514Y006833D01*
X024527Y006846D01*
X024537Y006860D01*
X024544Y006876D01*
X024548Y006893D01*
X024550Y006910D01*
X024550Y007010D01*
X024500Y007060D01*
X024500Y007960D01*
X024550Y008010D01*
X024550Y008110D01*
X024548Y008127D01*
X024544Y008144D01*
X024537Y008160D01*
X024527Y008174D01*
X024514Y008187D01*
X024500Y008197D01*
X024484Y008204D01*
X024467Y008208D01*
X024450Y008210D01*
X023950Y008210D02*
X023933Y008208D01*
X023916Y008204D01*
X023900Y008197D01*
X023886Y008187D01*
X023873Y008174D01*
X023863Y008160D01*
X023856Y008144D01*
X023852Y008127D01*
X023850Y008110D01*
X023850Y008010D01*
X024780Y007130D02*
X025380Y007130D01*
X025397Y007128D01*
X025414Y007124D01*
X025430Y007117D01*
X025444Y007107D01*
X025457Y007094D01*
X025467Y007080D01*
X025474Y007064D01*
X025478Y007047D01*
X025480Y007030D01*
X025480Y005430D01*
X025478Y005413D01*
X025474Y005396D01*
X025467Y005380D01*
X025457Y005366D01*
X025444Y005353D01*
X025430Y005343D01*
X025414Y005336D01*
X025397Y005332D01*
X025380Y005330D01*
X024780Y005330D01*
X024763Y005332D01*
X024746Y005336D01*
X024730Y005343D01*
X024716Y005353D01*
X024703Y005366D01*
X024693Y005380D01*
X024686Y005396D01*
X024682Y005413D01*
X024680Y005430D01*
X024680Y007030D01*
X024682Y007047D01*
X024686Y007064D01*
X024693Y007080D01*
X024703Y007094D01*
X024716Y007107D01*
X024730Y007117D01*
X024746Y007124D01*
X024763Y007128D01*
X024780Y007130D01*
X025080Y006830D02*
X025080Y006230D01*
X025330Y006230D01*
X025080Y006230D02*
X025080Y005980D01*
X025080Y006230D02*
X024830Y006230D01*
X025080Y006230D02*
X024830Y006630D01*
X025330Y006630D01*
X025080Y006230D01*
X025240Y008460D02*
X025240Y008660D01*
X025340Y008560D02*
X025140Y008560D01*
X024140Y009510D02*
X024142Y009576D01*
X024148Y009641D01*
X024158Y009706D01*
X024171Y009771D01*
X024189Y009834D01*
X024210Y009897D01*
X024235Y009957D01*
X024264Y010017D01*
X024296Y010074D01*
X024331Y010130D01*
X024370Y010183D01*
X024412Y010234D01*
X024456Y010282D01*
X024504Y010327D01*
X024554Y010370D01*
X024607Y010409D01*
X024662Y010446D01*
X024719Y010479D01*
X024778Y010508D01*
X024838Y010534D01*
X024900Y010556D01*
X024963Y010575D01*
X025027Y010589D01*
X025092Y010600D01*
X025158Y010607D01*
X025224Y010610D01*
X025289Y010609D01*
X025355Y010604D01*
X025420Y010595D01*
X025485Y010582D01*
X025548Y010566D01*
X025611Y010546D01*
X025672Y010521D01*
X025732Y010494D01*
X025790Y010463D01*
X025846Y010428D01*
X025900Y010390D01*
X025951Y010349D01*
X026000Y010305D01*
X026046Y010258D01*
X026090Y010209D01*
X026130Y010157D01*
X026167Y010102D01*
X026201Y010046D01*
X026231Y009987D01*
X026258Y009927D01*
X026281Y009866D01*
X026300Y009803D01*
X026316Y009739D01*
X026328Y009674D01*
X026336Y009609D01*
X026340Y009543D01*
X026340Y009477D01*
X026336Y009411D01*
X026328Y009346D01*
X026316Y009281D01*
X026300Y009217D01*
X026281Y009154D01*
X026258Y009093D01*
X026231Y009033D01*
X026201Y008974D01*
X026167Y008918D01*
X026130Y008863D01*
X026090Y008811D01*
X026046Y008762D01*
X026000Y008715D01*
X025951Y008671D01*
X025900Y008630D01*
X025846Y008592D01*
X025790Y008557D01*
X025732Y008526D01*
X025672Y008499D01*
X025611Y008474D01*
X025548Y008454D01*
X025485Y008438D01*
X025420Y008425D01*
X025355Y008416D01*
X025289Y008411D01*
X025224Y008410D01*
X025158Y008413D01*
X025092Y008420D01*
X025027Y008431D01*
X024963Y008445D01*
X024900Y008464D01*
X024838Y008486D01*
X024778Y008512D01*
X024719Y008541D01*
X024662Y008574D01*
X024607Y008611D01*
X024554Y008650D01*
X024504Y008693D01*
X024456Y008738D01*
X024412Y008786D01*
X024370Y008837D01*
X024331Y008890D01*
X024296Y008946D01*
X024264Y009003D01*
X024235Y009063D01*
X024210Y009123D01*
X024189Y009186D01*
X024171Y009249D01*
X024158Y009314D01*
X024148Y009379D01*
X024142Y009444D01*
X024140Y009510D01*
X023520Y016230D02*
X023522Y016277D01*
X023528Y016325D01*
X023537Y016371D01*
X023550Y016417D01*
X023566Y016461D01*
X023587Y016505D01*
X023610Y016546D01*
X023636Y016585D01*
X023666Y016622D01*
X023699Y016657D01*
X023734Y016689D01*
X023771Y016718D01*
X024720Y016230D02*
X024718Y016185D01*
X024713Y016139D01*
X024705Y016095D01*
X024693Y016051D01*
X024677Y016008D01*
X024659Y015966D01*
X024637Y015926D01*
X024613Y015888D01*
X024586Y015852D01*
X024556Y015817D01*
X024523Y015786D01*
X024488Y015756D01*
X024720Y016230D02*
X024718Y016275D01*
X024713Y016321D01*
X024705Y016365D01*
X024693Y016409D01*
X024677Y016452D01*
X024659Y016494D01*
X024637Y016534D01*
X024613Y016572D01*
X024586Y016608D01*
X024556Y016643D01*
X024523Y016674D01*
X024488Y016704D01*
X023520Y016230D02*
X023522Y016184D01*
X023527Y016138D01*
X023536Y016092D01*
X023548Y016047D01*
X023564Y016004D01*
X023583Y015962D01*
X023606Y015921D01*
X023631Y015882D01*
X023659Y015846D01*
X023690Y015811D01*
X023724Y015779D01*
X023760Y015750D01*
X025360Y016230D02*
X025362Y016275D01*
X025367Y016321D01*
X025375Y016365D01*
X025387Y016409D01*
X025403Y016452D01*
X025421Y016494D01*
X025443Y016534D01*
X025467Y016572D01*
X025494Y016608D01*
X025524Y016643D01*
X025557Y016674D01*
X025592Y016704D01*
X026560Y016230D02*
X026558Y016183D01*
X026552Y016135D01*
X026543Y016089D01*
X026530Y016043D01*
X026514Y015999D01*
X026493Y015955D01*
X026470Y015914D01*
X026444Y015875D01*
X026414Y015838D01*
X026381Y015803D01*
X026346Y015771D01*
X026309Y015742D01*
X026560Y016230D02*
X026558Y016276D01*
X026553Y016322D01*
X026544Y016368D01*
X026532Y016413D01*
X026516Y016456D01*
X026497Y016498D01*
X026474Y016539D01*
X026449Y016578D01*
X026421Y016614D01*
X026390Y016649D01*
X026356Y016681D01*
X026320Y016710D01*
X025360Y016230D02*
X025362Y016185D01*
X025367Y016139D01*
X025375Y016095D01*
X025387Y016051D01*
X025403Y016008D01*
X025421Y015966D01*
X025443Y015926D01*
X025467Y015888D01*
X025494Y015852D01*
X025524Y015817D01*
X025557Y015786D01*
X025592Y015756D01*
X027900Y017960D02*
X027900Y020260D01*
X034900Y020260D01*
X034900Y019510D01*
X034861Y019508D01*
X034822Y019502D01*
X034784Y019493D01*
X034747Y019480D01*
X034711Y019463D01*
X034678Y019443D01*
X034646Y019419D01*
X034617Y019393D01*
X034591Y019364D01*
X034567Y019332D01*
X034547Y019299D01*
X034530Y019263D01*
X034517Y019226D01*
X034508Y019188D01*
X034502Y019149D01*
X034500Y019110D01*
X034502Y019071D01*
X034508Y019032D01*
X034517Y018994D01*
X034530Y018957D01*
X034547Y018921D01*
X034567Y018888D01*
X034591Y018856D01*
X034617Y018827D01*
X034646Y018801D01*
X034678Y018777D01*
X034711Y018757D01*
X034747Y018740D01*
X034784Y018727D01*
X034822Y018718D01*
X034861Y018712D01*
X034900Y018710D01*
X034900Y017960D01*
X027900Y017960D01*
X025245Y021571D02*
X025247Y021618D01*
X025253Y021666D01*
X025262Y021712D01*
X025275Y021758D01*
X025291Y021802D01*
X025312Y021846D01*
X025335Y021887D01*
X025361Y021926D01*
X025391Y021963D01*
X025424Y021998D01*
X025459Y022030D01*
X025496Y022059D01*
X026445Y021571D02*
X026443Y021526D01*
X026438Y021480D01*
X026430Y021436D01*
X026418Y021392D01*
X026402Y021349D01*
X026384Y021307D01*
X026362Y021267D01*
X026338Y021229D01*
X026311Y021193D01*
X026281Y021158D01*
X026248Y021127D01*
X026213Y021097D01*
X026445Y021571D02*
X026443Y021616D01*
X026438Y021662D01*
X026430Y021706D01*
X026418Y021750D01*
X026402Y021793D01*
X026384Y021835D01*
X026362Y021875D01*
X026338Y021913D01*
X026311Y021949D01*
X026281Y021984D01*
X026248Y022015D01*
X026213Y022045D01*
X025245Y021571D02*
X025247Y021525D01*
X025252Y021479D01*
X025261Y021433D01*
X025273Y021388D01*
X025289Y021345D01*
X025308Y021303D01*
X025331Y021262D01*
X025356Y021223D01*
X025384Y021187D01*
X025415Y021152D01*
X025449Y021120D01*
X025485Y021091D01*
X023520Y022045D02*
X023485Y022015D01*
X023452Y021984D01*
X023422Y021949D01*
X023395Y021913D01*
X023371Y021875D01*
X023349Y021835D01*
X023331Y021793D01*
X023315Y021750D01*
X023303Y021706D01*
X023295Y021662D01*
X023290Y021616D01*
X023288Y021571D01*
X024248Y022051D02*
X024284Y022022D01*
X024318Y021990D01*
X024349Y021955D01*
X024377Y021919D01*
X024402Y021880D01*
X024425Y021839D01*
X024444Y021797D01*
X024460Y021754D01*
X024472Y021709D01*
X024481Y021663D01*
X024486Y021617D01*
X024488Y021571D01*
X023520Y021097D02*
X023485Y021127D01*
X023452Y021158D01*
X023422Y021193D01*
X023395Y021229D01*
X023371Y021267D01*
X023349Y021307D01*
X023331Y021349D01*
X023315Y021392D01*
X023303Y021436D01*
X023295Y021480D01*
X023290Y021526D01*
X023288Y021571D01*
X024237Y021083D02*
X024274Y021112D01*
X024309Y021144D01*
X024342Y021179D01*
X024372Y021216D01*
X024398Y021255D01*
X024421Y021296D01*
X024442Y021340D01*
X024458Y021384D01*
X024471Y021430D01*
X024480Y021476D01*
X024486Y021524D01*
X024488Y021571D01*
X026887Y029173D02*
X026987Y029173D01*
X027037Y029223D01*
X027937Y029223D01*
X027987Y029173D01*
X028087Y029173D01*
X028104Y029175D01*
X028121Y029179D01*
X028137Y029186D01*
X028151Y029196D01*
X028164Y029209D01*
X028174Y029223D01*
X028181Y029239D01*
X028185Y029256D01*
X028187Y029273D01*
X028187Y029773D02*
X028185Y029790D01*
X028181Y029807D01*
X028174Y029823D01*
X028164Y029837D01*
X028151Y029850D01*
X028137Y029860D01*
X028121Y029867D01*
X028104Y029871D01*
X028087Y029873D01*
X027987Y029873D01*
X027937Y029823D01*
X027037Y029823D01*
X026987Y029873D01*
X026887Y029873D01*
X026870Y029871D01*
X026853Y029867D01*
X026837Y029860D01*
X026823Y029850D01*
X026810Y029837D01*
X026800Y029823D01*
X026793Y029807D01*
X026789Y029790D01*
X026787Y029773D01*
X026787Y029273D02*
X026789Y029256D01*
X026793Y029239D01*
X026800Y029223D01*
X026810Y029209D01*
X026823Y029196D01*
X026837Y029186D01*
X026853Y029179D01*
X026870Y029175D01*
X026887Y029173D01*
X025140Y031650D02*
X024540Y031650D01*
X024523Y031652D01*
X024506Y031656D01*
X024490Y031663D01*
X024476Y031673D01*
X024463Y031686D01*
X024453Y031700D01*
X024446Y031716D01*
X024442Y031733D01*
X024440Y031750D01*
X024440Y033350D01*
X024442Y033367D01*
X024446Y033384D01*
X024453Y033400D01*
X024463Y033414D01*
X024476Y033427D01*
X024490Y033437D01*
X024506Y033444D01*
X024523Y033448D01*
X024540Y033450D01*
X025140Y033450D01*
X025157Y033448D01*
X025174Y033444D01*
X025190Y033437D01*
X025204Y033427D01*
X025217Y033414D01*
X025227Y033400D01*
X025234Y033384D01*
X025238Y033367D01*
X025240Y033350D01*
X025240Y031750D01*
X025238Y031733D01*
X025234Y031716D01*
X025227Y031700D01*
X025217Y031686D01*
X025204Y031673D01*
X025190Y031663D01*
X025174Y031656D01*
X025157Y031652D01*
X025140Y031650D01*
X024840Y032300D02*
X024840Y032550D01*
X025090Y032550D01*
X024840Y032550D02*
X024590Y032950D01*
X025090Y032950D01*
X024840Y032550D01*
X024590Y032550D01*
X024840Y032550D02*
X024840Y033150D01*
X023790Y029770D02*
X023790Y029570D01*
X023690Y029670D02*
X023890Y029670D01*
X021740Y029670D02*
X021742Y029736D01*
X021748Y029801D01*
X021758Y029866D01*
X021771Y029931D01*
X021789Y029994D01*
X021810Y030057D01*
X021835Y030117D01*
X021864Y030177D01*
X021896Y030234D01*
X021931Y030290D01*
X021970Y030343D01*
X022012Y030394D01*
X022056Y030442D01*
X022104Y030487D01*
X022154Y030530D01*
X022207Y030569D01*
X022262Y030606D01*
X022319Y030639D01*
X022378Y030668D01*
X022438Y030694D01*
X022500Y030716D01*
X022563Y030735D01*
X022627Y030749D01*
X022692Y030760D01*
X022758Y030767D01*
X022824Y030770D01*
X022889Y030769D01*
X022955Y030764D01*
X023020Y030755D01*
X023085Y030742D01*
X023148Y030726D01*
X023211Y030706D01*
X023272Y030681D01*
X023332Y030654D01*
X023390Y030623D01*
X023446Y030588D01*
X023500Y030550D01*
X023551Y030509D01*
X023600Y030465D01*
X023646Y030418D01*
X023690Y030369D01*
X023730Y030317D01*
X023767Y030262D01*
X023801Y030206D01*
X023831Y030147D01*
X023858Y030087D01*
X023881Y030026D01*
X023900Y029963D01*
X023916Y029899D01*
X023928Y029834D01*
X023936Y029769D01*
X023940Y029703D01*
X023940Y029637D01*
X023936Y029571D01*
X023928Y029506D01*
X023916Y029441D01*
X023900Y029377D01*
X023881Y029314D01*
X023858Y029253D01*
X023831Y029193D01*
X023801Y029134D01*
X023767Y029078D01*
X023730Y029023D01*
X023690Y028971D01*
X023646Y028922D01*
X023600Y028875D01*
X023551Y028831D01*
X023500Y028790D01*
X023446Y028752D01*
X023390Y028717D01*
X023332Y028686D01*
X023272Y028659D01*
X023211Y028634D01*
X023148Y028614D01*
X023085Y028598D01*
X023020Y028585D01*
X022955Y028576D01*
X022889Y028571D01*
X022824Y028570D01*
X022758Y028573D01*
X022692Y028580D01*
X022627Y028591D01*
X022563Y028605D01*
X022500Y028624D01*
X022438Y028646D01*
X022378Y028672D01*
X022319Y028701D01*
X022262Y028734D01*
X022207Y028771D01*
X022154Y028810D01*
X022104Y028853D01*
X022056Y028898D01*
X022012Y028946D01*
X021970Y028997D01*
X021931Y029050D01*
X021896Y029106D01*
X021864Y029163D01*
X021835Y029223D01*
X021810Y029283D01*
X021789Y029346D01*
X021771Y029409D01*
X021758Y029474D01*
X021748Y029539D01*
X021742Y029604D01*
X021740Y029670D01*
X021080Y030230D02*
X021080Y031230D01*
X021080Y031830D01*
X021041Y031832D01*
X021002Y031838D01*
X020964Y031847D01*
X020927Y031860D01*
X020891Y031877D01*
X020858Y031897D01*
X020826Y031921D01*
X020797Y031947D01*
X020771Y031976D01*
X020747Y032008D01*
X020727Y032041D01*
X020710Y032077D01*
X020697Y032114D01*
X020688Y032152D01*
X020682Y032191D01*
X020680Y032230D01*
X020682Y032269D01*
X020688Y032308D01*
X020697Y032346D01*
X020710Y032383D01*
X020727Y032419D01*
X020747Y032452D01*
X020771Y032484D01*
X020797Y032513D01*
X020826Y032539D01*
X020858Y032563D01*
X020891Y032583D01*
X020927Y032600D01*
X020964Y032613D01*
X021002Y032622D01*
X021041Y032628D01*
X021080Y032630D01*
X021080Y033230D01*
X017080Y033230D01*
X017080Y034230D01*
X021080Y034230D01*
X021080Y033230D01*
X021080Y031230D02*
X017080Y031230D01*
X017080Y033230D01*
X017080Y031230D02*
X017080Y030230D01*
X021080Y030230D01*
X008750Y009370D02*
X008750Y009170D01*
X008650Y009270D02*
X008850Y009270D01*
X006700Y009270D02*
X006702Y009336D01*
X006708Y009401D01*
X006718Y009466D01*
X006731Y009531D01*
X006749Y009594D01*
X006770Y009657D01*
X006795Y009717D01*
X006824Y009777D01*
X006856Y009834D01*
X006891Y009890D01*
X006930Y009943D01*
X006972Y009994D01*
X007016Y010042D01*
X007064Y010087D01*
X007114Y010130D01*
X007167Y010169D01*
X007222Y010206D01*
X007279Y010239D01*
X007338Y010268D01*
X007398Y010294D01*
X007460Y010316D01*
X007523Y010335D01*
X007587Y010349D01*
X007652Y010360D01*
X007718Y010367D01*
X007784Y010370D01*
X007849Y010369D01*
X007915Y010364D01*
X007980Y010355D01*
X008045Y010342D01*
X008108Y010326D01*
X008171Y010306D01*
X008232Y010281D01*
X008292Y010254D01*
X008350Y010223D01*
X008406Y010188D01*
X008460Y010150D01*
X008511Y010109D01*
X008560Y010065D01*
X008606Y010018D01*
X008650Y009969D01*
X008690Y009917D01*
X008727Y009862D01*
X008761Y009806D01*
X008791Y009747D01*
X008818Y009687D01*
X008841Y009626D01*
X008860Y009563D01*
X008876Y009499D01*
X008888Y009434D01*
X008896Y009369D01*
X008900Y009303D01*
X008900Y009237D01*
X008896Y009171D01*
X008888Y009106D01*
X008876Y009041D01*
X008860Y008977D01*
X008841Y008914D01*
X008818Y008853D01*
X008791Y008793D01*
X008761Y008734D01*
X008727Y008678D01*
X008690Y008623D01*
X008650Y008571D01*
X008606Y008522D01*
X008560Y008475D01*
X008511Y008431D01*
X008460Y008390D01*
X008406Y008352D01*
X008350Y008317D01*
X008292Y008286D01*
X008232Y008259D01*
X008171Y008234D01*
X008108Y008214D01*
X008045Y008198D01*
X007980Y008185D01*
X007915Y008176D01*
X007849Y008171D01*
X007784Y008170D01*
X007718Y008173D01*
X007652Y008180D01*
X007587Y008191D01*
X007523Y008205D01*
X007460Y008224D01*
X007398Y008246D01*
X007338Y008272D01*
X007279Y008301D01*
X007222Y008334D01*
X007167Y008371D01*
X007114Y008410D01*
X007064Y008453D01*
X007016Y008498D01*
X006972Y008546D01*
X006930Y008597D01*
X006891Y008650D01*
X006856Y008706D01*
X006824Y008763D01*
X006795Y008823D01*
X006770Y008883D01*
X006749Y008946D01*
X006731Y009009D01*
X006718Y009074D01*
X006708Y009139D01*
X006702Y009204D01*
X006700Y009270D01*
D13*
X006315Y009795D02*
X006315Y009870D01*
X006615Y010171D01*
X006615Y010246D01*
X006315Y010246D01*
X006154Y010171D02*
X006154Y010096D01*
X005854Y009795D01*
X006154Y009795D01*
X006154Y010171D02*
X006079Y010246D01*
X005929Y010246D01*
X005854Y010171D01*
X005694Y010171D02*
X005619Y010246D01*
X005469Y010246D01*
X005394Y010171D01*
X005394Y009870D01*
X005469Y009795D01*
X005619Y009795D01*
X005694Y009870D01*
X004852Y009560D02*
X004458Y009560D01*
X004655Y009363D02*
X004655Y009757D01*
X005049Y009166D02*
X002096Y009166D01*
X002096Y011135D01*
X005049Y011135D01*
X005049Y009166D01*
X004820Y008150D02*
X004820Y004150D01*
X012820Y004150D01*
X012820Y008150D01*
X004820Y008150D01*
X005049Y012126D02*
X002096Y012126D01*
X002096Y014095D01*
X005049Y014095D01*
X005049Y012126D01*
X004852Y012520D02*
X004458Y012520D01*
X004655Y012323D02*
X004655Y012717D01*
X007685Y016622D02*
X007985Y016622D01*
X008060Y016697D01*
X008060Y016847D01*
X007985Y016922D01*
X008060Y017082D02*
X008060Y017383D01*
X008060Y017232D02*
X007610Y017232D01*
X007760Y017082D01*
X007685Y016922D02*
X007610Y016847D01*
X007610Y016697D01*
X007685Y016622D01*
X007835Y017543D02*
X007835Y017843D01*
X008060Y017768D02*
X007610Y017768D01*
X007835Y017543D01*
X009313Y017445D02*
X009614Y017445D01*
X009774Y017445D02*
X009774Y017896D01*
X010074Y017896D01*
X010234Y017896D02*
X010234Y017445D01*
X010459Y017445D01*
X010534Y017520D01*
X010534Y017821D01*
X010459Y017896D01*
X010234Y017896D01*
X009924Y017670D02*
X009774Y017670D01*
X009774Y017445D02*
X010074Y017445D01*
X010695Y017520D02*
X010770Y017445D01*
X010920Y017445D01*
X010995Y017520D01*
X010995Y017670D01*
X010920Y017746D01*
X010845Y017746D01*
X010695Y017670D01*
X010695Y017896D01*
X010995Y017896D01*
X011455Y017896D02*
X011455Y017445D01*
X011755Y017445D01*
X011915Y017445D02*
X012216Y017445D01*
X012376Y017445D02*
X012601Y017445D01*
X012676Y017520D01*
X012676Y017821D01*
X012601Y017896D01*
X012376Y017896D01*
X012376Y017445D01*
X012066Y017670D02*
X011915Y017670D01*
X011915Y017445D02*
X011915Y017896D01*
X012216Y017896D01*
X012836Y017670D02*
X012836Y017520D01*
X012911Y017445D01*
X013061Y017445D01*
X013136Y017520D01*
X013136Y017595D01*
X013061Y017670D01*
X012836Y017670D01*
X012986Y017821D01*
X013136Y017896D01*
X012660Y014888D02*
X010140Y014888D01*
X010140Y009573D01*
X012660Y009573D01*
X012660Y014888D01*
X009313Y017445D02*
X009313Y017896D01*
X005565Y021653D02*
X005565Y021803D01*
X005490Y021878D01*
X005565Y022038D02*
X005565Y022338D01*
X005565Y022188D02*
X005115Y022188D01*
X005265Y022038D01*
X005190Y021878D02*
X005115Y021803D01*
X005115Y021653D01*
X005190Y021578D01*
X005490Y021578D01*
X005565Y021653D01*
X005565Y022499D02*
X005265Y022799D01*
X005190Y022799D01*
X005115Y022724D01*
X005115Y022574D01*
X005190Y022499D01*
X005565Y022499D02*
X005565Y022799D01*
X005344Y024446D02*
X005344Y026415D01*
X002391Y026415D01*
X002391Y024446D01*
X005344Y024446D01*
X003817Y024170D02*
X003817Y023719D01*
X003517Y024170D01*
X003517Y023719D01*
X003357Y023719D02*
X003357Y024170D01*
X003057Y024170D02*
X003057Y023719D01*
X002897Y023794D02*
X002897Y024095D01*
X002822Y024170D01*
X002671Y024170D01*
X002596Y024095D01*
X002596Y023794D01*
X002671Y023719D01*
X002822Y023719D01*
X002897Y023794D01*
X003057Y024170D02*
X003357Y023719D01*
X002436Y023794D02*
X002361Y023719D01*
X002211Y023719D01*
X002136Y023794D01*
X002136Y024095D01*
X002211Y024170D01*
X002361Y024170D01*
X002436Y024095D01*
X002785Y025824D02*
X002785Y026218D01*
X002588Y026021D02*
X002982Y026021D01*
X002391Y027406D02*
X005344Y027406D01*
X005344Y029375D01*
X002391Y029375D01*
X002391Y027406D01*
X002785Y028784D02*
X002785Y029178D01*
X002588Y028981D02*
X002982Y028981D01*
X005380Y030550D02*
X013380Y030550D01*
X013380Y034550D01*
X005380Y034550D01*
X005380Y030550D01*
X007820Y028648D02*
X007820Y023333D01*
X010340Y023333D01*
X010340Y028648D01*
X007820Y028648D01*
X009624Y028675D02*
X009624Y029126D01*
X009924Y029126D01*
X010085Y028976D02*
X010235Y029126D01*
X010235Y028675D01*
X010085Y028675D02*
X010385Y028675D01*
X009774Y028900D02*
X009624Y028900D01*
X013595Y029810D02*
X013670Y029735D01*
X013820Y029735D01*
X013895Y029810D01*
X014055Y029735D02*
X014356Y030036D01*
X014356Y030111D01*
X014281Y030186D01*
X014130Y030186D01*
X014055Y030111D01*
X013895Y030111D02*
X013820Y030186D01*
X013670Y030186D01*
X013595Y030111D01*
X013595Y029810D01*
X014055Y029735D02*
X014356Y029735D01*
X015310Y031405D02*
X015310Y033055D01*
X015175Y033185D02*
X015175Y032885D01*
X014875Y033185D01*
X014800Y033185D01*
X014725Y033110D01*
X014725Y032960D01*
X014800Y032885D01*
X014800Y032725D02*
X014725Y032650D01*
X014725Y032424D01*
X015175Y032424D01*
X015175Y032650D01*
X015100Y032725D01*
X014800Y032725D01*
X015910Y032678D02*
X015910Y032783D01*
X015513Y033180D02*
X015459Y033153D01*
X015408Y033123D01*
X015358Y033090D01*
X015310Y033055D01*
X015535Y033775D02*
X015535Y034226D01*
X015385Y034226D02*
X015685Y034226D01*
X015845Y034076D02*
X015996Y034226D01*
X015996Y033775D01*
X016146Y033775D02*
X015845Y033775D01*
X016407Y033180D02*
X016464Y033151D01*
X016520Y033118D01*
X016573Y033083D01*
X016624Y033043D01*
X016672Y033001D01*
X016718Y032956D01*
X016761Y032909D01*
X016801Y032859D01*
X016838Y032806D01*
X016871Y032751D01*
X016902Y032695D01*
X016928Y032636D01*
X016951Y032576D01*
X016971Y032515D01*
X016986Y032453D01*
X016998Y032390D01*
X017006Y032326D01*
X017010Y032262D01*
X017010Y032198D01*
X017006Y032134D01*
X016998Y032070D01*
X016986Y032007D01*
X016971Y031945D01*
X016951Y031884D01*
X016928Y031824D01*
X016902Y031765D01*
X016871Y031709D01*
X016838Y031654D01*
X016801Y031601D01*
X016761Y031551D01*
X016718Y031504D01*
X016672Y031459D01*
X016624Y031417D01*
X016573Y031377D01*
X016520Y031342D01*
X016464Y031309D01*
X016407Y031280D01*
X015910Y031678D02*
X015910Y031783D01*
X015522Y031276D02*
X015466Y031303D01*
X015412Y031334D01*
X015360Y031368D01*
X015310Y031405D01*
X021255Y032078D02*
X021255Y032228D01*
X021255Y032153D02*
X021705Y032153D01*
X021705Y032078D02*
X021705Y032228D01*
X021630Y032384D02*
X021330Y032384D01*
X021255Y032460D01*
X021255Y032610D01*
X021330Y032685D01*
X021405Y032845D02*
X021255Y032995D01*
X021705Y032995D01*
X021705Y032845D02*
X021705Y033145D01*
X021630Y032685D02*
X021705Y032610D01*
X021705Y032460D01*
X021630Y032384D01*
X023278Y033184D02*
X023334Y033157D01*
X023388Y033126D01*
X023440Y033092D01*
X023490Y033055D01*
X023490Y031405D01*
X023865Y031725D02*
X023865Y031950D01*
X023940Y032026D01*
X024240Y032026D01*
X024315Y031950D01*
X024315Y031725D01*
X023865Y031725D01*
X024015Y032186D02*
X023865Y032336D01*
X024315Y032336D01*
X024315Y032186D02*
X024315Y032486D01*
X023385Y033675D02*
X023085Y033675D01*
X023385Y033976D01*
X023385Y034051D01*
X023310Y034126D01*
X023160Y034126D01*
X023085Y034051D01*
X022924Y034126D02*
X022624Y034126D01*
X022774Y034126D02*
X022774Y033675D01*
X022890Y032783D02*
X022890Y032678D01*
X022393Y033180D02*
X022336Y033151D01*
X022280Y033118D01*
X022227Y033083D01*
X022176Y033043D01*
X022128Y033001D01*
X022082Y032956D01*
X022039Y032909D01*
X021999Y032859D01*
X021962Y032806D01*
X021929Y032751D01*
X021898Y032695D01*
X021872Y032636D01*
X021849Y032576D01*
X021829Y032515D01*
X021814Y032453D01*
X021802Y032390D01*
X021794Y032326D01*
X021790Y032262D01*
X021790Y032198D01*
X021794Y032134D01*
X021802Y032070D01*
X021814Y032007D01*
X021829Y031945D01*
X021849Y031884D01*
X021872Y031824D01*
X021898Y031765D01*
X021929Y031709D01*
X021962Y031654D01*
X021999Y031601D01*
X022039Y031551D01*
X022082Y031504D01*
X022128Y031459D01*
X022176Y031417D01*
X022227Y031377D01*
X022280Y031342D01*
X022336Y031309D01*
X022393Y031280D01*
X022890Y031678D02*
X022890Y031783D01*
X023287Y031280D02*
X023341Y031307D01*
X023392Y031337D01*
X023442Y031370D01*
X023490Y031405D01*
X023529Y030646D02*
X023454Y030571D01*
X023454Y030270D01*
X023529Y030195D01*
X023679Y030195D01*
X023754Y030270D01*
X023915Y030195D02*
X024215Y030195D01*
X024065Y030195D02*
X024065Y030646D01*
X023915Y030496D01*
X023754Y030571D02*
X023679Y030646D01*
X023529Y030646D01*
X024956Y028794D02*
X024956Y023479D01*
X027476Y023479D01*
X027476Y028794D01*
X024956Y028794D01*
X025740Y030550D02*
X033740Y030550D01*
X033740Y034550D01*
X025740Y034550D01*
X025740Y030550D01*
X027432Y030439D02*
X027432Y029988D01*
X027432Y030213D02*
X027582Y030213D01*
X027432Y030439D02*
X027732Y030439D01*
X027892Y030364D02*
X027968Y030439D01*
X028118Y030439D01*
X028193Y030364D01*
X028193Y030288D01*
X027892Y029988D01*
X028193Y029988D01*
X033472Y029510D02*
X033472Y027541D01*
X036425Y027541D01*
X036425Y029510D01*
X033472Y029510D01*
X033669Y029116D02*
X034063Y029116D01*
X033866Y029313D02*
X033866Y028919D01*
X033472Y026500D02*
X036425Y026500D01*
X036425Y024531D01*
X033472Y024531D01*
X033472Y026500D01*
X033669Y026106D02*
X034063Y026106D01*
X033866Y026303D02*
X033866Y025909D01*
X035150Y020175D02*
X035225Y020175D01*
X035300Y020100D01*
X035375Y020175D01*
X035450Y020175D01*
X035525Y020100D01*
X035525Y019950D01*
X035450Y019875D01*
X035450Y019715D02*
X035525Y019640D01*
X035525Y019490D01*
X035450Y019414D01*
X035150Y019414D01*
X035075Y019490D01*
X035075Y019640D01*
X035150Y019715D01*
X035150Y019875D02*
X035075Y019950D01*
X035075Y020100D01*
X035150Y020175D01*
X035300Y020100D02*
X035300Y020025D01*
X035525Y019258D02*
X035525Y019108D01*
X035525Y019183D02*
X035075Y019183D01*
X035075Y019108D02*
X035075Y019258D01*
X030740Y014808D02*
X028220Y014808D01*
X028220Y009493D01*
X030740Y009493D01*
X030740Y014808D01*
X033376Y014575D02*
X033376Y012606D01*
X036329Y012606D01*
X036329Y014575D01*
X033376Y014575D01*
X035738Y013000D02*
X036132Y013000D01*
X035935Y012803D02*
X035935Y013197D01*
X036329Y011695D02*
X033376Y011695D01*
X033376Y009726D01*
X036329Y009726D01*
X036329Y011695D01*
X035935Y010317D02*
X035935Y009923D01*
X036132Y010120D02*
X035738Y010120D01*
X033820Y008230D02*
X025820Y008230D01*
X025820Y004230D01*
X033820Y004230D01*
X033820Y008230D01*
X024555Y006091D02*
X024105Y006091D01*
X024330Y005866D01*
X024330Y006166D01*
X024480Y005706D02*
X024180Y005706D01*
X024105Y005630D01*
X024105Y005405D01*
X024555Y005405D01*
X024555Y005630D01*
X024480Y005706D01*
X023570Y005405D02*
X023570Y007055D01*
X022970Y006783D02*
X022970Y006678D01*
X023358Y007184D02*
X023414Y007157D01*
X023468Y007126D01*
X023520Y007092D01*
X023570Y007055D01*
X022473Y007180D02*
X022416Y007151D01*
X022360Y007118D01*
X022307Y007083D01*
X022256Y007043D01*
X022208Y007001D01*
X022162Y006956D01*
X022119Y006909D01*
X022079Y006859D01*
X022042Y006806D01*
X022009Y006751D01*
X021978Y006695D01*
X021952Y006636D01*
X021929Y006576D01*
X021909Y006515D01*
X021894Y006453D01*
X021882Y006390D01*
X021874Y006326D01*
X021870Y006262D01*
X021870Y006198D01*
X021874Y006134D01*
X021882Y006070D01*
X021894Y006007D01*
X021909Y005945D01*
X021929Y005884D01*
X021952Y005824D01*
X021978Y005765D01*
X022009Y005709D01*
X022042Y005654D01*
X022079Y005601D01*
X022119Y005551D01*
X022162Y005504D01*
X022208Y005459D01*
X022256Y005417D01*
X022307Y005377D01*
X022360Y005342D01*
X022416Y005309D01*
X022473Y005280D01*
X022534Y004766D02*
X022534Y004315D01*
X022845Y004540D02*
X023145Y004540D01*
X023070Y004315D02*
X023070Y004766D01*
X022845Y004540D01*
X022684Y004766D02*
X022384Y004766D01*
X022970Y005678D02*
X022970Y005783D01*
X023367Y005280D02*
X023421Y005307D01*
X023472Y005337D01*
X023522Y005370D01*
X023570Y005405D01*
X022185Y006398D02*
X022185Y006548D01*
X022185Y006473D02*
X021735Y006473D01*
X021735Y006398D02*
X021735Y006548D01*
X021810Y006704D02*
X021735Y006780D01*
X021735Y006930D01*
X021810Y007005D01*
X021960Y007165D02*
X021735Y007390D01*
X022185Y007390D01*
X021960Y007465D02*
X021960Y007165D01*
X022110Y007005D02*
X022185Y006930D01*
X022185Y006780D01*
X022110Y006704D01*
X021810Y006704D01*
X022669Y009075D02*
X022819Y009075D01*
X022894Y009150D01*
X023054Y009075D02*
X023354Y009376D01*
X023354Y009451D01*
X023279Y009526D01*
X023129Y009526D01*
X023054Y009451D01*
X022894Y009451D02*
X022819Y009526D01*
X022669Y009526D01*
X022594Y009451D01*
X022594Y009150D01*
X022669Y009075D01*
X023054Y009075D02*
X023354Y009075D01*
X023515Y009150D02*
X023590Y009075D01*
X023740Y009075D01*
X023815Y009150D01*
X023815Y009225D01*
X023740Y009300D01*
X023515Y009300D01*
X023515Y009150D01*
X023515Y009300D02*
X023665Y009451D01*
X023815Y009526D01*
X017531Y015398D02*
X017231Y015398D01*
X017381Y015398D02*
X017381Y015849D01*
X017231Y015699D01*
X017071Y015774D02*
X017071Y015473D01*
X016996Y015398D01*
X016845Y015398D01*
X016770Y015473D01*
X016770Y015774D01*
X016845Y015849D01*
X016996Y015849D01*
X017071Y015774D01*
X016920Y015548D02*
X017071Y015398D01*
X023313Y017125D02*
X023614Y017125D01*
X023774Y017125D02*
X023774Y017576D01*
X024074Y017576D01*
X024234Y017576D02*
X024234Y017125D01*
X024459Y017125D01*
X024534Y017200D01*
X024534Y017501D01*
X024459Y017576D01*
X024234Y017576D01*
X023924Y017350D02*
X023774Y017350D01*
X023774Y017125D02*
X024074Y017125D01*
X024695Y017125D02*
X024695Y017200D01*
X024995Y017501D01*
X024995Y017576D01*
X024695Y017576D01*
X025295Y017576D02*
X025295Y017125D01*
X025595Y017125D01*
X025755Y017125D02*
X025755Y017576D01*
X026056Y017576D01*
X026216Y017576D02*
X026441Y017576D01*
X026516Y017501D01*
X026516Y017200D01*
X026441Y017125D01*
X026216Y017125D01*
X026216Y017576D01*
X025906Y017350D02*
X025755Y017350D01*
X025755Y017125D02*
X026056Y017125D01*
X026676Y017200D02*
X026676Y017275D01*
X026751Y017350D01*
X026901Y017350D01*
X026976Y017275D01*
X026976Y017200D01*
X026901Y017125D01*
X026751Y017125D01*
X026676Y017200D01*
X026751Y017350D02*
X026676Y017426D01*
X026676Y017501D01*
X026751Y017576D01*
X026901Y017576D01*
X026976Y017501D01*
X026976Y017426D01*
X026901Y017350D01*
X023313Y017576D02*
X023313Y017125D01*
X023294Y022493D02*
X022994Y022493D01*
X022994Y022943D01*
X023454Y022943D02*
X023454Y022493D01*
X023755Y022493D01*
X023915Y022493D02*
X024140Y022493D01*
X024215Y022568D01*
X024215Y022868D01*
X024140Y022943D01*
X023915Y022943D01*
X023915Y022493D01*
X023604Y022718D02*
X023454Y022718D01*
X023454Y022943D02*
X023755Y022943D01*
X024375Y022868D02*
X024450Y022943D01*
X024600Y022943D01*
X024675Y022868D01*
X024675Y022793D01*
X024600Y022718D01*
X024675Y022643D01*
X024675Y022568D01*
X024600Y022493D01*
X024450Y022493D01*
X024375Y022568D01*
X024525Y022718D02*
X024600Y022718D01*
X025196Y022520D02*
X025196Y022970D01*
X025196Y022520D02*
X025496Y022520D01*
X025656Y022520D02*
X025957Y022520D01*
X026117Y022520D02*
X026117Y022970D01*
X026342Y022970D01*
X026417Y022895D01*
X026417Y022595D01*
X026342Y022520D01*
X026117Y022520D01*
X025807Y022745D02*
X025656Y022745D01*
X025656Y022970D02*
X025656Y022520D01*
X025656Y022970D02*
X025957Y022970D01*
X026577Y022745D02*
X026878Y022745D01*
X026802Y022520D02*
X026802Y022970D01*
X026577Y022745D01*
X018386Y023385D02*
X018086Y023385D01*
X018236Y023385D02*
X018236Y023836D01*
X018086Y023686D01*
X017926Y023761D02*
X017926Y023610D01*
X017851Y023535D01*
X017625Y023535D01*
X017625Y023385D02*
X017625Y023836D01*
X017851Y023836D01*
X017926Y023761D01*
X017465Y023836D02*
X017315Y023836D01*
X017390Y023836D02*
X017390Y023460D01*
X017315Y023385D01*
X017240Y023385D01*
X017165Y023460D01*
X012995Y022941D02*
X012995Y022866D01*
X012695Y022565D01*
X012995Y022565D01*
X012995Y022941D02*
X012920Y023016D01*
X012770Y023016D01*
X012695Y022941D01*
X012534Y022941D02*
X012459Y023016D01*
X012234Y023016D01*
X012234Y022565D01*
X012459Y022565D01*
X012534Y022640D01*
X012534Y022941D01*
X012074Y023016D02*
X011774Y023016D01*
X011774Y022565D01*
X012074Y022565D01*
X011924Y022790D02*
X011774Y022790D01*
X011614Y022565D02*
X011313Y022565D01*
X011313Y023016D01*
X010915Y022565D02*
X010615Y022565D01*
X010765Y022565D02*
X010765Y023016D01*
X010615Y022866D01*
X010454Y022941D02*
X010379Y023016D01*
X010154Y023016D01*
X010154Y022565D01*
X010379Y022565D01*
X010454Y022640D01*
X010454Y022941D01*
X009994Y023016D02*
X009694Y023016D01*
X009694Y022565D01*
X009994Y022565D01*
X009844Y022790D02*
X009694Y022790D01*
X009534Y022565D02*
X009233Y022565D01*
X009233Y023016D01*
X011304Y009446D02*
X011604Y009446D01*
X011454Y009220D02*
X011304Y009220D01*
X011304Y008995D02*
X011304Y009446D01*
X011765Y009220D02*
X012065Y009220D01*
X011990Y008995D02*
X011990Y009446D01*
X011765Y009220D01*
X014165Y006870D02*
X014240Y006945D01*
X014315Y006945D01*
X014390Y006870D01*
X014465Y006945D01*
X014540Y006945D01*
X014615Y006870D01*
X014615Y006720D01*
X014540Y006645D01*
X014540Y006485D02*
X014240Y006485D01*
X014165Y006410D01*
X014165Y006184D01*
X014615Y006184D01*
X014615Y006410D01*
X014540Y006485D01*
X014240Y006645D02*
X014165Y006720D01*
X014165Y006870D01*
X014390Y006870D02*
X014390Y006795D01*
X015150Y007055D02*
X015150Y005405D01*
X015750Y005678D02*
X015750Y005783D01*
X015362Y005276D02*
X015306Y005303D01*
X015252Y005334D01*
X015200Y005368D01*
X015150Y005405D01*
X016247Y005280D02*
X016304Y005309D01*
X016360Y005342D01*
X016413Y005377D01*
X016464Y005417D01*
X016512Y005459D01*
X016558Y005504D01*
X016601Y005551D01*
X016641Y005601D01*
X016678Y005654D01*
X016711Y005709D01*
X016742Y005765D01*
X016768Y005824D01*
X016791Y005884D01*
X016811Y005945D01*
X016826Y006007D01*
X016838Y006070D01*
X016846Y006134D01*
X016850Y006198D01*
X016850Y006262D01*
X016846Y006326D01*
X016838Y006390D01*
X016826Y006453D01*
X016811Y006515D01*
X016791Y006576D01*
X016768Y006636D01*
X016742Y006695D01*
X016711Y006751D01*
X016678Y006806D01*
X016641Y006859D01*
X016601Y006909D01*
X016558Y006956D01*
X016512Y007001D01*
X016464Y007043D01*
X016413Y007083D01*
X016360Y007118D01*
X016304Y007151D01*
X016247Y007180D01*
X016151Y007695D02*
X016000Y007695D01*
X015925Y007770D01*
X016076Y007920D02*
X016151Y007920D01*
X016226Y007845D01*
X016226Y007770D01*
X016151Y007695D01*
X016151Y007920D02*
X016226Y007996D01*
X016226Y008071D01*
X016151Y008146D01*
X016000Y008146D01*
X015925Y008071D01*
X015765Y008146D02*
X015465Y008146D01*
X015615Y008146D02*
X015615Y007695D01*
X015750Y006783D02*
X015750Y006678D01*
X015353Y007180D02*
X015299Y007153D01*
X015248Y007123D01*
X015198Y007090D01*
X015150Y007055D01*
D14*
X018534Y016684D02*
X016084Y019134D01*
X016084Y019356D01*
X018534Y021806D01*
X018757Y021806D01*
X021207Y019356D01*
X021207Y019134D01*
X018757Y016684D01*
X018534Y016684D01*
D15*
X016307Y019245D02*
X016309Y019265D01*
X016314Y019285D01*
X016324Y019303D01*
X016336Y019320D01*
X016351Y019334D01*
X016369Y019344D01*
X016388Y019352D01*
X016408Y019356D01*
X016428Y019356D01*
X016448Y019352D01*
X016467Y019344D01*
X016485Y019334D01*
X016500Y019320D01*
X016512Y019303D01*
X016522Y019285D01*
X016527Y019265D01*
X016529Y019245D01*
X016527Y019225D01*
X016522Y019205D01*
X016512Y019187D01*
X016500Y019170D01*
X016485Y019156D01*
X016467Y019146D01*
X016448Y019138D01*
X016428Y019134D01*
X016408Y019134D01*
X016388Y019138D01*
X016369Y019146D01*
X016351Y019156D01*
X016336Y019170D01*
X016324Y019187D01*
X016314Y019205D01*
X016309Y019225D01*
X016307Y019245D01*
X011723Y017165D02*
X011675Y017135D01*
X011630Y017102D01*
X011587Y017066D01*
X011546Y017028D01*
X011509Y016986D01*
X011474Y016942D01*
X011443Y016896D01*
X011414Y016847D01*
X011390Y016797D01*
X011369Y016745D01*
X011351Y016691D01*
X011338Y016637D01*
X011328Y016582D01*
X011322Y016526D01*
X011320Y016470D01*
X012496Y017176D02*
X012543Y017149D01*
X012588Y017119D01*
X012631Y017086D01*
X012671Y017050D01*
X012709Y017011D01*
X012744Y016970D01*
X012777Y016927D01*
X012806Y016882D01*
X012832Y016834D01*
X012855Y016785D01*
X012875Y016735D01*
X012891Y016684D01*
X012904Y016631D01*
X012913Y016578D01*
X012918Y016524D01*
X012920Y016470D01*
X011603Y015859D02*
X011564Y015895D01*
X011526Y015934D01*
X011492Y015974D01*
X011460Y016017D01*
X011432Y016062D01*
X011406Y016109D01*
X011383Y016158D01*
X011364Y016208D01*
X011348Y016259D01*
X011336Y016311D01*
X011327Y016363D01*
X011322Y016417D01*
X011320Y016470D01*
X012632Y015855D02*
X012672Y015891D01*
X012710Y015930D01*
X012745Y015971D01*
X012777Y016014D01*
X012807Y016059D01*
X012833Y016106D01*
X012855Y016155D01*
X012875Y016206D01*
X012891Y016257D01*
X012904Y016309D01*
X012913Y016363D01*
X012918Y016416D01*
X012920Y016470D01*
X009904Y015764D02*
X009857Y015791D01*
X009812Y015821D01*
X009769Y015854D01*
X009729Y015890D01*
X009691Y015929D01*
X009656Y015970D01*
X009623Y016013D01*
X009594Y016058D01*
X009568Y016106D01*
X009545Y016155D01*
X009525Y016205D01*
X009509Y016256D01*
X009496Y016309D01*
X009487Y016362D01*
X009482Y016416D01*
X009480Y016470D01*
X010677Y015775D02*
X010725Y015805D01*
X010770Y015838D01*
X010813Y015874D01*
X010854Y015912D01*
X010891Y015954D01*
X010926Y015998D01*
X010957Y016044D01*
X010986Y016093D01*
X011010Y016143D01*
X011031Y016195D01*
X011049Y016249D01*
X011062Y016303D01*
X011072Y016358D01*
X011078Y016414D01*
X011080Y016470D01*
X011078Y016523D01*
X011073Y016577D01*
X011064Y016629D01*
X011052Y016681D01*
X011036Y016732D01*
X011017Y016782D01*
X010994Y016831D01*
X010968Y016878D01*
X010940Y016923D01*
X010908Y016966D01*
X010874Y017006D01*
X010836Y017045D01*
X010797Y017081D01*
X009768Y017085D02*
X009728Y017049D01*
X009690Y017010D01*
X009655Y016969D01*
X009623Y016926D01*
X009593Y016881D01*
X009567Y016834D01*
X009545Y016785D01*
X009525Y016734D01*
X009509Y016683D01*
X009496Y016631D01*
X009487Y016577D01*
X009482Y016524D01*
X009480Y016470D01*
X011000Y021670D02*
X010998Y021724D01*
X010993Y021778D01*
X010984Y021831D01*
X010971Y021884D01*
X010955Y021935D01*
X010935Y021985D01*
X010912Y022034D01*
X010886Y022082D01*
X010857Y022127D01*
X010824Y022170D01*
X010789Y022211D01*
X010751Y022250D01*
X010711Y022286D01*
X010668Y022319D01*
X010623Y022349D01*
X010576Y022376D01*
X009803Y022365D02*
X009755Y022335D01*
X009710Y022302D01*
X009667Y022266D01*
X009626Y022228D01*
X009589Y022186D01*
X009554Y022142D01*
X009523Y022096D01*
X009494Y022047D01*
X009470Y021997D01*
X009449Y021945D01*
X009431Y021891D01*
X009418Y021837D01*
X009408Y021782D01*
X009402Y021726D01*
X009400Y021670D01*
X009402Y021617D01*
X009407Y021563D01*
X009416Y021511D01*
X009428Y021459D01*
X009444Y021408D01*
X009463Y021358D01*
X009486Y021309D01*
X009512Y021262D01*
X009540Y021217D01*
X009572Y021174D01*
X009606Y021134D01*
X009644Y021095D01*
X009683Y021059D01*
X010712Y021055D02*
X010752Y021091D01*
X010790Y021130D01*
X010825Y021171D01*
X010857Y021214D01*
X010887Y021259D01*
X010913Y021306D01*
X010935Y021355D01*
X010955Y021406D01*
X010971Y021457D01*
X010984Y021509D01*
X010993Y021563D01*
X010998Y021616D01*
X011000Y021670D01*
X012437Y020975D02*
X012485Y021005D01*
X012530Y021038D01*
X012573Y021074D01*
X012614Y021112D01*
X012651Y021154D01*
X012686Y021198D01*
X012717Y021244D01*
X012746Y021293D01*
X012770Y021343D01*
X012791Y021395D01*
X012809Y021449D01*
X012822Y021503D01*
X012832Y021558D01*
X012838Y021614D01*
X012840Y021670D01*
X011664Y020964D02*
X011617Y020991D01*
X011572Y021021D01*
X011529Y021054D01*
X011489Y021090D01*
X011451Y021129D01*
X011416Y021170D01*
X011383Y021213D01*
X011354Y021258D01*
X011328Y021306D01*
X011305Y021355D01*
X011285Y021405D01*
X011269Y021456D01*
X011256Y021509D01*
X011247Y021562D01*
X011242Y021616D01*
X011240Y021670D01*
X012557Y022281D02*
X012596Y022245D01*
X012634Y022206D01*
X012668Y022166D01*
X012700Y022123D01*
X012728Y022078D01*
X012754Y022031D01*
X012777Y021982D01*
X012796Y021932D01*
X012812Y021881D01*
X012824Y021829D01*
X012833Y021777D01*
X012838Y021723D01*
X012840Y021670D01*
X011528Y022285D02*
X011488Y022249D01*
X011450Y022210D01*
X011415Y022169D01*
X011383Y022126D01*
X011353Y022081D01*
X011327Y022034D01*
X011305Y021985D01*
X011285Y021934D01*
X011269Y021883D01*
X011256Y021831D01*
X011247Y021777D01*
X011242Y021724D01*
X011240Y021670D01*
X017140Y024110D02*
X017140Y026110D01*
X022140Y026110D01*
X022140Y024110D01*
X017140Y024110D01*
X023088Y021571D02*
X023090Y021627D01*
X023096Y021683D01*
X023106Y021738D01*
X023119Y021792D01*
X023137Y021846D01*
X023158Y021898D01*
X023182Y021948D01*
X023211Y021997D01*
X023242Y022043D01*
X023277Y022087D01*
X023314Y022129D01*
X023355Y022167D01*
X023398Y022203D01*
X023443Y022236D01*
X023491Y022266D01*
X024688Y021571D02*
X024686Y021517D01*
X024681Y021464D01*
X024672Y021410D01*
X024659Y021358D01*
X024643Y021307D01*
X024623Y021256D01*
X024601Y021207D01*
X024575Y021160D01*
X024545Y021115D01*
X024513Y021072D01*
X024478Y021031D01*
X024440Y020992D01*
X024400Y020956D01*
X024688Y021571D02*
X024686Y021625D01*
X024681Y021679D01*
X024672Y021732D01*
X024659Y021785D01*
X024643Y021836D01*
X024623Y021886D01*
X024600Y021935D01*
X024574Y021983D01*
X024545Y022028D01*
X024512Y022071D01*
X024477Y022112D01*
X024439Y022151D01*
X024399Y022187D01*
X024356Y022220D01*
X024311Y022250D01*
X024264Y022277D01*
X023088Y021571D02*
X023090Y021518D01*
X023095Y021464D01*
X023104Y021412D01*
X023116Y021360D01*
X023132Y021309D01*
X023151Y021259D01*
X023174Y021210D01*
X023200Y021163D01*
X023228Y021118D01*
X023260Y021075D01*
X023294Y021035D01*
X023332Y020996D01*
X023371Y020960D01*
X026242Y020876D02*
X026290Y020906D01*
X026335Y020939D01*
X026378Y020975D01*
X026419Y021013D01*
X026456Y021055D01*
X026491Y021099D01*
X026522Y021145D01*
X026551Y021194D01*
X026575Y021244D01*
X026596Y021296D01*
X026614Y021350D01*
X026627Y021404D01*
X026637Y021459D01*
X026643Y021515D01*
X026645Y021571D01*
X025469Y020865D02*
X025422Y020892D01*
X025377Y020922D01*
X025334Y020955D01*
X025294Y020991D01*
X025256Y021030D01*
X025221Y021071D01*
X025188Y021114D01*
X025159Y021159D01*
X025133Y021207D01*
X025110Y021256D01*
X025090Y021306D01*
X025074Y021357D01*
X025061Y021410D01*
X025052Y021463D01*
X025047Y021517D01*
X025045Y021571D01*
X026362Y022182D02*
X026401Y022146D01*
X026439Y022107D01*
X026473Y022067D01*
X026505Y022024D01*
X026533Y021979D01*
X026559Y021932D01*
X026582Y021883D01*
X026601Y021833D01*
X026617Y021782D01*
X026629Y021730D01*
X026638Y021678D01*
X026643Y021624D01*
X026645Y021571D01*
X025333Y022186D02*
X025293Y022150D01*
X025255Y022111D01*
X025220Y022070D01*
X025188Y022027D01*
X025158Y021982D01*
X025132Y021935D01*
X025110Y021886D01*
X025090Y021835D01*
X025074Y021784D01*
X025061Y021732D01*
X025052Y021678D01*
X025047Y021625D01*
X025045Y021571D01*
X025563Y016925D02*
X025515Y016895D01*
X025470Y016862D01*
X025427Y016826D01*
X025386Y016788D01*
X025349Y016746D01*
X025314Y016702D01*
X025283Y016656D01*
X025254Y016607D01*
X025230Y016557D01*
X025209Y016505D01*
X025191Y016451D01*
X025178Y016397D01*
X025168Y016342D01*
X025162Y016286D01*
X025160Y016230D01*
X026336Y016936D02*
X026383Y016909D01*
X026428Y016879D01*
X026471Y016846D01*
X026511Y016810D01*
X026549Y016771D01*
X026584Y016730D01*
X026617Y016687D01*
X026646Y016642D01*
X026672Y016594D01*
X026695Y016545D01*
X026715Y016495D01*
X026731Y016444D01*
X026744Y016391D01*
X026753Y016338D01*
X026758Y016284D01*
X026760Y016230D01*
X025443Y015619D02*
X025404Y015655D01*
X025366Y015694D01*
X025332Y015734D01*
X025300Y015777D01*
X025272Y015822D01*
X025246Y015869D01*
X025223Y015918D01*
X025204Y015968D01*
X025188Y016019D01*
X025176Y016071D01*
X025167Y016123D01*
X025162Y016177D01*
X025160Y016230D01*
X026472Y015615D02*
X026512Y015651D01*
X026550Y015690D01*
X026585Y015731D01*
X026617Y015774D01*
X026647Y015819D01*
X026673Y015866D01*
X026695Y015915D01*
X026715Y015966D01*
X026731Y016017D01*
X026744Y016069D01*
X026753Y016123D01*
X026758Y016176D01*
X026760Y016230D01*
X023744Y015524D02*
X023697Y015551D01*
X023652Y015581D01*
X023609Y015614D01*
X023569Y015650D01*
X023531Y015689D01*
X023496Y015730D01*
X023463Y015773D01*
X023434Y015818D01*
X023408Y015866D01*
X023385Y015915D01*
X023365Y015965D01*
X023349Y016016D01*
X023336Y016069D01*
X023327Y016122D01*
X023322Y016176D01*
X023320Y016230D01*
X024517Y015535D02*
X024565Y015565D01*
X024610Y015598D01*
X024653Y015634D01*
X024694Y015672D01*
X024731Y015714D01*
X024766Y015758D01*
X024797Y015804D01*
X024826Y015853D01*
X024850Y015903D01*
X024871Y015955D01*
X024889Y016009D01*
X024902Y016063D01*
X024912Y016118D01*
X024918Y016174D01*
X024920Y016230D01*
X024918Y016283D01*
X024913Y016337D01*
X024904Y016389D01*
X024892Y016441D01*
X024876Y016492D01*
X024857Y016542D01*
X024834Y016591D01*
X024808Y016638D01*
X024780Y016683D01*
X024748Y016726D01*
X024714Y016766D01*
X024676Y016805D01*
X024637Y016841D01*
X023608Y016845D02*
X023568Y016809D01*
X023530Y016770D01*
X023495Y016729D01*
X023463Y016686D01*
X023433Y016641D01*
X023407Y016594D01*
X023385Y016545D01*
X023365Y016494D01*
X023349Y016443D01*
X023336Y016391D01*
X023327Y016337D01*
X023322Y016284D01*
X023320Y016230D01*
D16*
X015644Y020154D02*
X015507Y020017D01*
X015507Y020291D01*
X015473Y020325D01*
X015405Y020325D01*
X015336Y020257D01*
X015336Y020188D01*
X015265Y020117D02*
X015196Y020117D01*
X015128Y020049D01*
X015128Y019980D01*
X015265Y019843D01*
X015333Y019843D01*
X015402Y019912D01*
X015402Y019980D01*
X015229Y019739D02*
X015160Y019670D01*
X015194Y019704D02*
X014989Y019910D01*
X014955Y019875D02*
X015023Y019944D01*
D17*
X014865Y020083D02*
X014865Y020390D01*
X014788Y020466D01*
X014634Y020466D01*
X014558Y020390D01*
X014558Y020313D01*
X014634Y020236D01*
X014865Y020236D01*
X014865Y020083D02*
X014788Y020006D01*
X014634Y020006D01*
X014558Y020083D01*
X014404Y020006D02*
X014097Y020006D01*
X013944Y020006D02*
X013790Y020159D01*
X013867Y020159D02*
X013637Y020159D01*
X013637Y020006D02*
X013637Y020466D01*
X013867Y020466D01*
X013944Y020390D01*
X013944Y020236D01*
X013867Y020159D01*
X014097Y020313D02*
X014251Y020466D01*
X014251Y020006D01*
X014756Y017715D02*
X014679Y017639D01*
X014679Y017332D01*
X014756Y017255D01*
X014910Y017255D01*
X014986Y017332D01*
X015140Y017255D02*
X015447Y017255D01*
X015293Y017255D02*
X015293Y017715D01*
X015140Y017562D01*
X014986Y017639D02*
X014910Y017715D01*
X014756Y017715D01*
X015600Y017715D02*
X015600Y017485D01*
X015754Y017562D01*
X015830Y017562D01*
X015907Y017485D01*
X015907Y017332D01*
X015830Y017255D01*
X015677Y017255D01*
X015600Y017332D01*
X015600Y017715D02*
X015907Y017715D01*
X013510Y017250D02*
X013510Y017097D01*
X013433Y017020D01*
X013126Y017327D01*
X013433Y017327D01*
X013510Y017250D01*
X013433Y017020D02*
X013126Y017020D01*
X013050Y017097D01*
X013050Y017250D01*
X013126Y017327D01*
X013126Y016866D02*
X013050Y016790D01*
X013050Y016636D01*
X013126Y016559D01*
X013126Y016406D02*
X013280Y016406D01*
X013357Y016329D01*
X013357Y016099D01*
X013510Y016099D02*
X013050Y016099D01*
X013050Y016329D01*
X013126Y016406D01*
X013357Y016253D02*
X013510Y016406D01*
X013510Y016559D02*
X013203Y016866D01*
X013126Y016866D01*
X013510Y016866D02*
X013510Y016559D01*
X014746Y013628D02*
X014823Y013628D01*
X014900Y013551D01*
X014900Y013398D01*
X014823Y013321D01*
X014746Y013321D01*
X014670Y013398D01*
X014670Y013551D01*
X014746Y013628D01*
X014900Y013551D02*
X014977Y013628D01*
X015053Y013628D01*
X015130Y013551D01*
X015130Y013398D01*
X015053Y013321D01*
X014977Y013321D01*
X014900Y013398D01*
X015130Y013168D02*
X015130Y012861D01*
X015130Y013014D02*
X014670Y013014D01*
X014823Y012861D01*
X014746Y012707D02*
X014670Y012630D01*
X014670Y012477D01*
X014746Y012400D01*
X015053Y012400D01*
X015130Y012477D01*
X015130Y012630D01*
X015053Y012707D01*
X017728Y013005D02*
X017805Y012928D01*
X017958Y012928D01*
X018035Y013005D01*
X018189Y012928D02*
X018495Y013235D01*
X018495Y013312D01*
X018419Y013389D01*
X018265Y013389D01*
X018189Y013312D01*
X018035Y013312D02*
X017958Y013389D01*
X017805Y013389D01*
X017728Y013312D01*
X017728Y013005D01*
X018189Y012928D02*
X018495Y012928D01*
X018649Y012928D02*
X018956Y012928D01*
X018802Y012928D02*
X018802Y013389D01*
X018649Y013235D01*
X018708Y012181D02*
X018631Y012104D01*
X018708Y012181D02*
X018861Y012181D01*
X018938Y012104D01*
X018938Y012027D01*
X018631Y011720D01*
X018938Y011720D01*
X018477Y011797D02*
X018401Y011720D01*
X018247Y011720D01*
X018170Y011797D01*
X018017Y011720D02*
X017863Y011874D01*
X017940Y011874D02*
X017710Y011874D01*
X017710Y011720D02*
X017710Y012181D01*
X017940Y012181D01*
X018017Y012104D01*
X018017Y011950D01*
X017940Y011874D01*
X018170Y012104D02*
X018247Y012181D01*
X018401Y012181D01*
X018477Y012104D01*
X018477Y012027D01*
X018401Y011950D01*
X018477Y011874D01*
X018477Y011797D01*
X018401Y011950D02*
X018324Y011950D01*
X018359Y010981D02*
X018206Y010981D01*
X018129Y010904D01*
X017976Y010904D02*
X017976Y010750D01*
X017899Y010674D01*
X017669Y010674D01*
X017822Y010674D02*
X017976Y010520D01*
X018129Y010597D02*
X018206Y010520D01*
X018359Y010520D01*
X018436Y010597D01*
X018436Y010674D01*
X018359Y010750D01*
X018283Y010750D01*
X018359Y010750D02*
X018436Y010827D01*
X018436Y010904D01*
X018359Y010981D01*
X018590Y010981D02*
X018590Y010750D01*
X018743Y010827D01*
X018820Y010827D01*
X018897Y010750D01*
X018897Y010597D01*
X018820Y010520D01*
X018666Y010520D01*
X018590Y010597D01*
X018590Y010981D02*
X018897Y010981D01*
X019790Y011061D02*
X019790Y010600D01*
X019790Y010754D02*
X020020Y010754D01*
X020097Y010830D01*
X020097Y010984D01*
X020020Y011061D01*
X019790Y011061D01*
X019943Y010754D02*
X020097Y010600D01*
X020250Y010677D02*
X020327Y010600D01*
X020481Y010600D01*
X020557Y010677D01*
X020557Y010754D01*
X020481Y010830D01*
X020404Y010830D01*
X020481Y010830D02*
X020557Y010907D01*
X020557Y010984D01*
X020481Y011061D01*
X020327Y011061D01*
X020250Y010984D01*
X020711Y010830D02*
X021018Y010830D01*
X020941Y010600D02*
X020941Y011061D01*
X020711Y010830D01*
X020711Y009861D02*
X021018Y009861D01*
X021018Y009784D01*
X020711Y009477D01*
X020711Y009400D01*
X020557Y009477D02*
X020481Y009400D01*
X020327Y009400D01*
X020250Y009477D01*
X020097Y009400D02*
X019943Y009554D01*
X020020Y009554D02*
X019790Y009554D01*
X019790Y009400D02*
X019790Y009861D01*
X020020Y009861D01*
X020097Y009784D01*
X020097Y009630D01*
X020020Y009554D01*
X020250Y009784D02*
X020327Y009861D01*
X020481Y009861D01*
X020557Y009784D01*
X020557Y009707D01*
X020481Y009630D01*
X020557Y009554D01*
X020557Y009477D01*
X020481Y009630D02*
X020404Y009630D01*
X018897Y009781D02*
X018743Y009704D01*
X018590Y009550D01*
X018820Y009550D01*
X018897Y009474D01*
X018897Y009397D01*
X018820Y009320D01*
X018666Y009320D01*
X018590Y009397D01*
X018590Y009550D01*
X018436Y009474D02*
X018436Y009397D01*
X018359Y009320D01*
X018206Y009320D01*
X018129Y009397D01*
X017976Y009320D02*
X017822Y009474D01*
X017899Y009474D02*
X017669Y009474D01*
X017669Y009320D02*
X017669Y009781D01*
X017899Y009781D01*
X017976Y009704D01*
X017976Y009550D01*
X017899Y009474D01*
X018129Y009704D02*
X018206Y009781D01*
X018359Y009781D01*
X018436Y009704D01*
X018436Y009627D01*
X018359Y009550D01*
X018436Y009474D01*
X018359Y009550D02*
X018283Y009550D01*
X017669Y010520D02*
X017669Y010981D01*
X017899Y010981D01*
X017976Y010904D01*
X019749Y011720D02*
X019749Y012181D01*
X019979Y012181D01*
X020056Y012104D01*
X020056Y011950D01*
X019979Y011874D01*
X019749Y011874D01*
X019902Y011874D02*
X020056Y011720D01*
X020209Y011797D02*
X020286Y011720D01*
X020439Y011720D01*
X020516Y011797D01*
X020516Y011874D01*
X020439Y011950D01*
X020363Y011950D01*
X020439Y011950D02*
X020516Y012027D01*
X020516Y012104D01*
X020439Y012181D01*
X020286Y012181D01*
X020209Y012104D01*
X020670Y012104D02*
X020746Y012181D01*
X020900Y012181D01*
X020977Y012104D01*
X020977Y012027D01*
X020900Y011950D01*
X020977Y011874D01*
X020977Y011797D01*
X020900Y011720D01*
X020746Y011720D01*
X020670Y011797D01*
X020823Y011950D02*
X020900Y011950D01*
X020903Y012939D02*
X020750Y012939D01*
X020673Y013016D01*
X020980Y013323D01*
X020980Y013016D01*
X020903Y012939D01*
X020673Y013016D02*
X020673Y013323D01*
X020750Y013400D01*
X020903Y013400D01*
X020980Y013323D01*
X020520Y013323D02*
X020443Y013400D01*
X020289Y013400D01*
X020213Y013323D01*
X020059Y013323D02*
X019982Y013400D01*
X019829Y013400D01*
X019752Y013323D01*
X019752Y013016D01*
X019829Y012939D01*
X019982Y012939D01*
X020059Y013016D01*
X020213Y012939D02*
X020520Y013246D01*
X020520Y013323D01*
X020520Y012939D02*
X020213Y012939D01*
X023009Y012204D02*
X023009Y011897D01*
X023086Y011820D01*
X023239Y011820D01*
X023316Y011897D01*
X023469Y011820D02*
X023776Y012127D01*
X023776Y012204D01*
X023699Y012281D01*
X023546Y012281D01*
X023469Y012204D01*
X023316Y012204D02*
X023239Y012281D01*
X023086Y012281D01*
X023009Y012204D01*
X023469Y011820D02*
X023776Y011820D01*
X023930Y011897D02*
X024006Y011820D01*
X024160Y011820D01*
X024237Y011897D01*
X024237Y011974D01*
X024160Y012050D01*
X024083Y012050D01*
X024160Y012050D02*
X024237Y012127D01*
X024237Y012204D01*
X024160Y012281D01*
X024006Y012281D01*
X023930Y012204D01*
X025029Y012261D02*
X025029Y011800D01*
X025029Y011954D02*
X025259Y011954D01*
X025336Y012030D01*
X025336Y012184D01*
X025259Y012261D01*
X025029Y012261D01*
X025182Y011954D02*
X025336Y011800D01*
X025489Y011877D02*
X025566Y011800D01*
X025719Y011800D01*
X025796Y011877D01*
X025796Y011954D01*
X025719Y012030D01*
X025643Y012030D01*
X025719Y012030D02*
X025796Y012107D01*
X025796Y012184D01*
X025719Y012261D01*
X025566Y012261D01*
X025489Y012184D01*
X025950Y012107D02*
X026103Y012261D01*
X026103Y011800D01*
X025950Y011800D02*
X026257Y011800D01*
X026180Y013000D02*
X026026Y013000D01*
X025950Y013077D01*
X026026Y013230D02*
X026257Y013230D01*
X026257Y013077D02*
X026257Y013384D01*
X026180Y013461D01*
X026026Y013461D01*
X025950Y013384D01*
X025950Y013307D01*
X026026Y013230D01*
X025796Y013307D02*
X025796Y013384D01*
X025719Y013461D01*
X025566Y013461D01*
X025489Y013384D01*
X025336Y013384D02*
X025336Y013230D01*
X025259Y013154D01*
X025029Y013154D01*
X025182Y013154D02*
X025336Y013000D01*
X025489Y013000D02*
X025796Y013307D01*
X025796Y013000D02*
X025489Y013000D01*
X025336Y013384D02*
X025259Y013461D01*
X025029Y013461D01*
X025029Y013000D01*
X026180Y013000D02*
X026257Y013077D01*
X025910Y014340D02*
X025910Y014417D01*
X026217Y014724D01*
X026217Y014801D01*
X025910Y014801D01*
X025756Y014724D02*
X025679Y014801D01*
X025526Y014801D01*
X025449Y014724D01*
X025296Y014724D02*
X025296Y014570D01*
X025219Y014494D01*
X024989Y014494D01*
X025142Y014494D02*
X025296Y014340D01*
X025449Y014340D02*
X025756Y014647D01*
X025756Y014724D01*
X025756Y014340D02*
X025449Y014340D01*
X025296Y014724D02*
X025219Y014801D01*
X024989Y014801D01*
X024989Y014340D01*
X024237Y014684D02*
X023930Y014377D01*
X023930Y014300D01*
X023776Y014300D02*
X023469Y014300D01*
X023623Y014300D02*
X023623Y014761D01*
X023469Y014607D01*
X023316Y014684D02*
X023239Y014761D01*
X023086Y014761D01*
X023009Y014684D01*
X023009Y014377D01*
X023086Y014300D01*
X023239Y014300D01*
X023316Y014377D01*
X023930Y014761D02*
X024237Y014761D01*
X024237Y014684D01*
X026650Y014569D02*
X026726Y014646D01*
X026880Y014646D01*
X026957Y014569D01*
X026957Y014339D01*
X027110Y014339D02*
X026650Y014339D01*
X026650Y014569D01*
X026726Y014799D02*
X026650Y014876D01*
X026650Y015030D01*
X026726Y015106D01*
X026803Y015106D01*
X027110Y014799D01*
X027110Y015106D01*
X027110Y015260D02*
X027110Y015567D01*
X027110Y015413D02*
X026650Y015413D01*
X026803Y015260D01*
X027110Y014646D02*
X026957Y014493D01*
X028149Y016360D02*
X028149Y016821D01*
X028379Y016821D01*
X028456Y016744D01*
X028456Y016590D01*
X028379Y016514D01*
X028149Y016514D01*
X028302Y016514D02*
X028456Y016360D01*
X028609Y016360D02*
X028916Y016667D01*
X028916Y016744D01*
X028839Y016821D01*
X028686Y016821D01*
X028609Y016744D01*
X028609Y016360D02*
X028916Y016360D01*
X029070Y016360D02*
X029377Y016667D01*
X029377Y016744D01*
X029300Y016821D01*
X029146Y016821D01*
X029070Y016744D01*
X029070Y016360D02*
X029377Y016360D01*
X029950Y016440D02*
X029950Y016901D01*
X030180Y016901D01*
X030257Y016824D01*
X030257Y016670D01*
X030180Y016594D01*
X029950Y016594D01*
X030103Y016594D02*
X030257Y016440D01*
X030410Y016440D02*
X030717Y016747D01*
X030717Y016824D01*
X030641Y016901D01*
X030487Y016901D01*
X030410Y016824D01*
X030410Y016440D02*
X030717Y016440D01*
X030871Y016517D02*
X030948Y016440D01*
X031101Y016440D01*
X031178Y016517D01*
X031178Y016594D01*
X031101Y016670D01*
X031024Y016670D01*
X031101Y016670D02*
X031178Y016747D01*
X031178Y016824D01*
X031101Y016901D01*
X030948Y016901D01*
X030871Y016824D01*
X031429Y016901D02*
X031429Y016440D01*
X031429Y016594D02*
X031659Y016594D01*
X031736Y016670D01*
X031736Y016824D01*
X031659Y016901D01*
X031429Y016901D01*
X031582Y016594D02*
X031736Y016440D01*
X031889Y016440D02*
X032196Y016747D01*
X032196Y016824D01*
X032119Y016901D01*
X031966Y016901D01*
X031889Y016824D01*
X031889Y016440D02*
X032196Y016440D01*
X032350Y016670D02*
X032657Y016670D01*
X032580Y016440D02*
X032580Y016901D01*
X032350Y016670D01*
X033230Y016594D02*
X033460Y016594D01*
X033537Y016670D01*
X033537Y016824D01*
X033460Y016901D01*
X033230Y016901D01*
X033230Y016440D01*
X033383Y016594D02*
X033537Y016440D01*
X033690Y016440D02*
X033997Y016747D01*
X033997Y016824D01*
X033921Y016901D01*
X033767Y016901D01*
X033690Y016824D01*
X033690Y016440D02*
X033997Y016440D01*
X034151Y016517D02*
X034228Y016440D01*
X034381Y016440D01*
X034458Y016517D01*
X034458Y016670D01*
X034381Y016747D01*
X034304Y016747D01*
X034151Y016670D01*
X034151Y016901D01*
X034458Y016901D01*
X032481Y019300D02*
X032328Y019300D01*
X032251Y019377D01*
X032097Y019300D02*
X031790Y019300D01*
X031944Y019300D02*
X031944Y019761D01*
X031790Y019607D01*
X031637Y019684D02*
X031560Y019761D01*
X031407Y019761D01*
X031330Y019684D01*
X031330Y019377D01*
X031407Y019300D01*
X031560Y019300D01*
X031637Y019377D01*
X032251Y019684D02*
X032328Y019761D01*
X032481Y019761D01*
X032558Y019684D01*
X032558Y019607D01*
X032481Y019530D01*
X032558Y019454D01*
X032558Y019377D01*
X032481Y019300D01*
X032481Y019530D02*
X032404Y019530D01*
X032497Y022280D02*
X032343Y022434D01*
X032420Y022434D02*
X032190Y022434D01*
X032190Y022280D02*
X032190Y022741D01*
X032420Y022741D01*
X032497Y022664D01*
X032497Y022510D01*
X032420Y022434D01*
X032650Y022587D02*
X032804Y022741D01*
X032804Y022280D01*
X032957Y022280D02*
X032650Y022280D01*
X033111Y022357D02*
X033188Y022280D01*
X033341Y022280D01*
X033418Y022357D01*
X033418Y022434D01*
X033341Y022510D01*
X033111Y022510D01*
X033111Y022357D01*
X033111Y022510D02*
X033264Y022664D01*
X033418Y022741D01*
X033021Y023560D02*
X033021Y024021D01*
X032791Y023790D01*
X033098Y023790D01*
X032637Y023560D02*
X032330Y023560D01*
X032177Y023560D02*
X032023Y023714D01*
X032100Y023714D02*
X031870Y023714D01*
X031870Y023560D02*
X031870Y024021D01*
X032100Y024021D01*
X032177Y023944D01*
X032177Y023790D01*
X032100Y023714D01*
X032330Y023867D02*
X032484Y024021D01*
X032484Y023560D01*
X031217Y023637D02*
X031140Y023560D01*
X030986Y023560D01*
X030910Y023637D01*
X030756Y023560D02*
X030449Y023560D01*
X030296Y023560D02*
X030142Y023714D01*
X030219Y023714D02*
X029989Y023714D01*
X029989Y023560D02*
X029989Y024021D01*
X030219Y024021D01*
X030296Y023944D01*
X030296Y023790D01*
X030219Y023714D01*
X030449Y023867D02*
X030603Y024021D01*
X030603Y023560D01*
X030910Y023944D02*
X030986Y024021D01*
X031140Y024021D01*
X031217Y023944D01*
X031217Y023867D01*
X031140Y023790D01*
X031217Y023714D01*
X031217Y023637D01*
X031140Y023790D02*
X031063Y023790D01*
X030910Y022741D02*
X030910Y022510D01*
X031063Y022587D01*
X031140Y022587D01*
X031217Y022510D01*
X031217Y022357D01*
X031140Y022280D01*
X030986Y022280D01*
X030910Y022357D01*
X030756Y022280D02*
X030449Y022280D01*
X030296Y022280D02*
X030142Y022434D01*
X030219Y022434D02*
X029989Y022434D01*
X029989Y022280D02*
X029989Y022741D01*
X030219Y022741D01*
X030296Y022664D01*
X030296Y022510D01*
X030219Y022434D01*
X030449Y022587D02*
X030603Y022741D01*
X030603Y022280D01*
X030910Y022741D02*
X031217Y022741D01*
X031151Y025100D02*
X031458Y025100D01*
X031304Y025100D02*
X031304Y025561D01*
X031151Y025407D01*
X030997Y025100D02*
X030690Y025100D01*
X030537Y025100D02*
X030383Y025254D01*
X030460Y025254D02*
X030230Y025254D01*
X030230Y025100D02*
X030230Y025561D01*
X030460Y025561D01*
X030537Y025484D01*
X030537Y025330D01*
X030460Y025254D01*
X030690Y025407D02*
X030844Y025561D01*
X030844Y025100D01*
X030881Y026280D02*
X030957Y026357D01*
X030957Y026664D01*
X030881Y026741D01*
X030727Y026741D01*
X030650Y026664D01*
X030650Y026587D01*
X030727Y026510D01*
X030957Y026510D01*
X030881Y026280D02*
X030727Y026280D01*
X030650Y026357D01*
X030497Y026280D02*
X030343Y026434D01*
X030420Y026434D02*
X030190Y026434D01*
X030190Y026280D02*
X030190Y026741D01*
X030420Y026741D01*
X030497Y026664D01*
X030497Y026510D01*
X030420Y026434D01*
X030531Y027423D02*
X030377Y027577D01*
X030454Y027577D02*
X030224Y027577D01*
X030224Y027423D02*
X030224Y027884D01*
X030454Y027884D01*
X030531Y027807D01*
X030531Y027653D01*
X030454Y027577D01*
X030684Y027500D02*
X030684Y027423D01*
X030684Y027500D02*
X030991Y027807D01*
X030991Y027884D01*
X030684Y027884D01*
X032105Y027790D02*
X032105Y027483D01*
X032181Y027407D01*
X032335Y027407D01*
X032412Y027483D01*
X032565Y027483D02*
X032642Y027407D01*
X032795Y027407D01*
X032872Y027483D01*
X032872Y027637D01*
X032795Y027714D01*
X032719Y027714D01*
X032565Y027637D01*
X032565Y027867D01*
X032872Y027867D01*
X032412Y027790D02*
X032335Y027867D01*
X032181Y027867D01*
X032105Y027790D01*
X032037Y028620D02*
X032191Y028620D01*
X032268Y028697D01*
X032421Y028697D02*
X032498Y028620D01*
X032651Y028620D01*
X032728Y028697D01*
X032728Y028774D01*
X032651Y028850D01*
X032575Y028850D01*
X032651Y028850D02*
X032728Y028927D01*
X032728Y029004D01*
X032651Y029081D01*
X032498Y029081D01*
X032421Y029004D01*
X032268Y029004D02*
X032191Y029081D01*
X032037Y029081D01*
X031961Y029004D01*
X031961Y028697D01*
X032037Y028620D01*
X033461Y029546D02*
X033461Y029853D01*
X033614Y030006D01*
X033768Y029853D01*
X033768Y029546D01*
X033921Y029469D02*
X034228Y029469D01*
X034382Y029546D02*
X034382Y030006D01*
X034612Y030006D01*
X034689Y029929D01*
X034689Y029776D01*
X034612Y029699D01*
X034382Y029699D01*
X034842Y029699D02*
X035072Y029699D01*
X035149Y029776D01*
X035149Y029929D01*
X035072Y030006D01*
X034842Y030006D01*
X034842Y029546D01*
X034996Y029699D02*
X035149Y029546D01*
X035303Y029546D02*
X035609Y029546D01*
X035763Y029699D02*
X035916Y029546D01*
X036070Y029699D01*
X036070Y030006D01*
X035763Y030006D02*
X035763Y029699D01*
X035456Y029776D02*
X035303Y029776D01*
X035303Y030006D02*
X035303Y029546D01*
X035303Y030006D02*
X035609Y030006D01*
X033768Y029776D02*
X033461Y029776D01*
X033614Y026996D02*
X033768Y026842D01*
X033768Y026535D01*
X033921Y026459D02*
X034228Y026459D01*
X034382Y026535D02*
X034382Y026996D01*
X034689Y026535D01*
X034689Y026996D01*
X034842Y026996D02*
X034842Y026535D01*
X035149Y026535D01*
X035303Y026535D02*
X035609Y026996D01*
X035763Y026996D02*
X036070Y026996D01*
X035916Y026996D02*
X035916Y026535D01*
X035609Y026535D02*
X035303Y026996D01*
X035149Y026996D02*
X034842Y026996D01*
X034842Y026766D02*
X034996Y026766D01*
X033768Y026766D02*
X033461Y026766D01*
X033461Y026842D02*
X033614Y026996D01*
X033461Y026842D02*
X033461Y026535D01*
X033040Y025321D02*
X032886Y025321D01*
X032810Y025244D01*
X032810Y025167D01*
X032886Y025090D01*
X033117Y025090D01*
X033117Y024937D02*
X033117Y025244D01*
X033040Y025321D01*
X032656Y025244D02*
X032579Y025321D01*
X032426Y025321D01*
X032349Y025244D01*
X032349Y024937D01*
X032426Y024860D01*
X032579Y024860D01*
X032656Y024937D01*
X032810Y024937D02*
X032886Y024860D01*
X033040Y024860D01*
X033117Y024937D01*
X033840Y034510D02*
X033840Y034817D01*
X033993Y034971D01*
X034147Y034817D01*
X034147Y034510D01*
X034147Y034740D02*
X033840Y034740D01*
X023107Y025381D02*
X023030Y025381D01*
X022723Y025688D01*
X022646Y025688D01*
X022646Y025381D01*
X022723Y025227D02*
X022646Y025150D01*
X022646Y024997D01*
X022723Y024920D01*
X023030Y024920D01*
X023107Y024997D01*
X023107Y025150D01*
X023030Y025227D01*
X021761Y027480D02*
X021837Y027557D01*
X021837Y027634D01*
X021761Y027710D01*
X021530Y027710D01*
X021530Y027557D01*
X021607Y027480D01*
X021761Y027480D01*
X021530Y027710D02*
X021684Y027864D01*
X021837Y027941D01*
X021377Y027864D02*
X021377Y027710D01*
X021300Y027634D01*
X021070Y027634D01*
X021223Y027634D02*
X021377Y027480D01*
X021070Y027480D02*
X021070Y027941D01*
X021300Y027941D01*
X021377Y027864D01*
X021377Y028840D02*
X021223Y028994D01*
X021300Y028994D02*
X021070Y028994D01*
X021070Y028840D02*
X021070Y029301D01*
X021300Y029301D01*
X021377Y029224D01*
X021377Y029070D01*
X021300Y028994D01*
X021530Y028840D02*
X021837Y029147D01*
X021837Y029224D01*
X021761Y029301D01*
X021607Y029301D01*
X021530Y029224D01*
X021530Y028840D02*
X021837Y028840D01*
X020257Y027941D02*
X019950Y027941D01*
X019950Y027710D01*
X020103Y027787D01*
X020180Y027787D01*
X020257Y027710D01*
X020257Y027557D01*
X020180Y027480D01*
X020026Y027480D01*
X019950Y027557D01*
X019796Y027480D02*
X019643Y027634D01*
X019719Y027634D02*
X019489Y027634D01*
X019489Y027480D02*
X019489Y027941D01*
X019719Y027941D01*
X019796Y027864D01*
X019796Y027710D01*
X019719Y027634D01*
X019829Y028776D02*
X019752Y028853D01*
X019829Y028776D02*
X019982Y028776D01*
X020059Y028853D01*
X020059Y028929D01*
X019982Y029006D01*
X019906Y029006D01*
X019982Y029006D02*
X020059Y029083D01*
X020059Y029160D01*
X019982Y029236D01*
X019829Y029236D01*
X019752Y029160D01*
X019599Y029160D02*
X019599Y029006D01*
X019522Y028929D01*
X019292Y028929D01*
X019292Y028776D02*
X019292Y029236D01*
X019522Y029236D01*
X019599Y029160D01*
X019445Y028929D02*
X019599Y028776D01*
X018577Y028840D02*
X018270Y028840D01*
X018423Y028840D02*
X018423Y029301D01*
X018270Y029147D01*
X018116Y029070D02*
X018039Y028994D01*
X017809Y028994D01*
X017963Y028994D02*
X018116Y028840D01*
X018116Y029070D02*
X018116Y029224D01*
X018039Y029301D01*
X017809Y029301D01*
X017809Y028840D01*
X017809Y028021D02*
X018039Y028021D01*
X018116Y027944D01*
X018116Y027790D01*
X018039Y027714D01*
X017809Y027714D01*
X017963Y027714D02*
X018116Y027560D01*
X018270Y027790D02*
X018577Y027790D01*
X018500Y027560D02*
X018500Y028021D01*
X018270Y027790D01*
X017809Y027560D02*
X017809Y028021D01*
X015357Y027721D02*
X015203Y027644D01*
X015050Y027490D01*
X015280Y027490D01*
X015357Y027414D01*
X015357Y027337D01*
X015280Y027260D01*
X015126Y027260D01*
X015050Y027337D01*
X015050Y027490D01*
X014896Y027337D02*
X014819Y027260D01*
X014666Y027260D01*
X014589Y027337D01*
X014589Y027644D01*
X014666Y027721D01*
X014819Y027721D01*
X014896Y027644D01*
X014840Y028660D02*
X014687Y028660D01*
X014610Y028737D01*
X014610Y029044D01*
X014687Y029121D01*
X014840Y029121D01*
X014917Y029044D01*
X015070Y028890D02*
X015377Y028890D01*
X015301Y028660D02*
X015301Y029121D01*
X015070Y028890D01*
X014917Y028737D02*
X014840Y028660D01*
X013117Y027784D02*
X013117Y027707D01*
X013041Y027630D01*
X012887Y027630D01*
X012810Y027707D01*
X012810Y027784D01*
X012887Y027861D01*
X013041Y027861D01*
X013117Y027784D01*
X013041Y027630D02*
X013117Y027554D01*
X013117Y027477D01*
X013041Y027400D01*
X012887Y027400D01*
X012810Y027477D01*
X012810Y027554D01*
X012887Y027630D01*
X012657Y027630D02*
X012657Y027784D01*
X012580Y027861D01*
X012350Y027861D01*
X012350Y027400D01*
X012350Y027554D02*
X012580Y027554D01*
X012657Y027630D01*
X012503Y027554D02*
X012657Y027400D01*
X012580Y026581D02*
X012350Y026581D01*
X012350Y026120D01*
X012350Y026274D02*
X012580Y026274D01*
X012657Y026350D01*
X012657Y026504D01*
X012580Y026581D01*
X012810Y026427D02*
X012964Y026581D01*
X012964Y026120D01*
X013117Y026120D02*
X012810Y026120D01*
X012657Y026120D02*
X012503Y026274D01*
X013271Y026197D02*
X013578Y026504D01*
X013578Y026197D01*
X013501Y026120D01*
X013348Y026120D01*
X013271Y026197D01*
X013271Y026504D01*
X013348Y026581D01*
X013501Y026581D01*
X013578Y026504D01*
X013541Y025241D02*
X013388Y025241D01*
X013311Y025164D01*
X013541Y025241D02*
X013618Y025164D01*
X013618Y025087D01*
X013311Y024780D01*
X013618Y024780D01*
X014369Y024777D02*
X014446Y024700D01*
X014599Y024700D01*
X014676Y024777D01*
X014829Y024700D02*
X015136Y024700D01*
X014983Y024700D02*
X014983Y025161D01*
X014829Y025007D01*
X014676Y025084D02*
X014599Y025161D01*
X014446Y025161D01*
X014369Y025084D01*
X014369Y024777D01*
X015290Y024777D02*
X015366Y024700D01*
X015520Y024700D01*
X015597Y024777D01*
X015597Y025084D01*
X015290Y024777D01*
X015290Y025084D01*
X015366Y025161D01*
X015520Y025161D01*
X015597Y025084D01*
X015701Y022646D02*
X015624Y022569D01*
X015624Y022262D01*
X015701Y022186D01*
X015854Y022186D01*
X015931Y022262D01*
X016084Y022186D02*
X016391Y022186D01*
X016238Y022186D02*
X016238Y022646D01*
X016084Y022493D01*
X015931Y022569D02*
X015854Y022646D01*
X015701Y022646D01*
X016545Y022493D02*
X016698Y022646D01*
X016698Y022186D01*
X016545Y022186D02*
X016852Y022186D01*
X020469Y022491D02*
X020930Y022491D01*
X020930Y022644D02*
X020930Y022337D01*
X020930Y022184D02*
X020930Y021877D01*
X020469Y021877D01*
X020623Y022337D02*
X020469Y022491D01*
X021826Y022623D02*
X021826Y022316D01*
X021826Y022623D02*
X021902Y022623D01*
X022209Y022316D01*
X022286Y022316D01*
X022286Y022162D02*
X022286Y021855D01*
X022286Y021702D02*
X022133Y021549D01*
X022133Y021625D02*
X022133Y021395D01*
X022286Y021395D02*
X021826Y021395D01*
X021826Y021625D01*
X021902Y021702D01*
X022056Y021702D01*
X022133Y021625D01*
X021979Y021855D02*
X021826Y022009D01*
X022286Y022009D01*
X013157Y024780D02*
X012850Y024780D01*
X012697Y024780D02*
X012543Y024934D01*
X012620Y024934D02*
X012390Y024934D01*
X012390Y024780D02*
X012390Y025241D01*
X012620Y025241D01*
X012697Y025164D01*
X012697Y025010D01*
X012620Y024934D01*
X012850Y025087D02*
X013004Y025241D01*
X013004Y024780D01*
X008150Y022491D02*
X008150Y022338D01*
X008073Y022261D01*
X007997Y022261D01*
X007920Y022338D01*
X007920Y022491D01*
X007997Y022568D01*
X008073Y022568D01*
X008150Y022491D01*
X007920Y022491D02*
X007843Y022568D01*
X007766Y022568D01*
X007690Y022491D01*
X007690Y022338D01*
X007766Y022261D01*
X007843Y022261D01*
X007920Y022338D01*
X008150Y022108D02*
X008150Y021801D01*
X008150Y021954D02*
X007690Y021954D01*
X007843Y021801D01*
X007766Y021647D02*
X007920Y021647D01*
X007997Y021570D01*
X007997Y021340D01*
X008150Y021340D02*
X007690Y021340D01*
X007690Y021570D01*
X007766Y021647D01*
X007997Y021494D02*
X008150Y021647D01*
X005810Y023976D02*
X005810Y024130D01*
X005733Y024206D01*
X005733Y024360D02*
X005657Y024360D01*
X005580Y024437D01*
X005580Y024590D01*
X005657Y024667D01*
X005733Y024667D01*
X005810Y024590D01*
X005810Y024437D01*
X005733Y024360D01*
X005580Y024437D02*
X005503Y024360D01*
X005426Y024360D01*
X005350Y024437D01*
X005350Y024590D01*
X005426Y024667D01*
X005503Y024667D01*
X005580Y024590D01*
X005426Y024206D02*
X005350Y024130D01*
X005350Y023976D01*
X005426Y023899D01*
X005733Y023899D01*
X005810Y023976D01*
X004835Y026450D02*
X004835Y026911D01*
X004682Y026911D02*
X004989Y026911D01*
X004528Y026911D02*
X004222Y026450D01*
X004068Y026450D02*
X003761Y026450D01*
X003761Y026911D01*
X004068Y026911D01*
X004222Y026911D02*
X004528Y026450D01*
X003915Y026680D02*
X003761Y026680D01*
X003608Y026450D02*
X003608Y026911D01*
X003301Y026911D02*
X003301Y026450D01*
X003147Y026374D02*
X002840Y026374D01*
X002687Y026527D02*
X002610Y026450D01*
X002380Y026450D01*
X002380Y026911D01*
X002610Y026911D01*
X002687Y026834D01*
X002687Y026757D01*
X002610Y026680D01*
X002380Y026680D01*
X002610Y026680D02*
X002687Y026604D01*
X002687Y026527D01*
X003301Y026911D02*
X003608Y026450D01*
X003147Y029334D02*
X002840Y029334D01*
X002687Y029487D02*
X002610Y029410D01*
X002380Y029410D01*
X002380Y029871D01*
X002610Y029871D01*
X002687Y029794D01*
X002687Y029717D01*
X002610Y029640D01*
X002380Y029640D01*
X002610Y029640D02*
X002687Y029564D01*
X002687Y029487D01*
X003301Y029410D02*
X003301Y029871D01*
X003531Y029871D01*
X003608Y029794D01*
X003608Y029640D01*
X003531Y029564D01*
X003301Y029564D01*
X003761Y029564D02*
X003991Y029564D01*
X004068Y029640D01*
X004068Y029794D01*
X003991Y029871D01*
X003761Y029871D01*
X003761Y029410D01*
X003915Y029564D02*
X004068Y029410D01*
X004222Y029410D02*
X004528Y029410D01*
X004682Y029564D02*
X004682Y029871D01*
X004528Y029871D02*
X004222Y029871D01*
X004222Y029410D01*
X004222Y029640D02*
X004375Y029640D01*
X004682Y029564D02*
X004835Y029410D01*
X004989Y029564D01*
X004989Y029871D01*
X005090Y034450D02*
X004860Y034450D01*
X004860Y034911D01*
X005090Y034911D01*
X005167Y034834D01*
X005167Y034757D01*
X005090Y034680D01*
X004860Y034680D01*
X005090Y034680D02*
X005167Y034604D01*
X005167Y034527D01*
X005090Y034450D01*
X006150Y018421D02*
X006384Y018421D01*
X006509Y018362D02*
X006567Y018421D01*
X006684Y018421D01*
X006743Y018362D01*
X006743Y018304D01*
X006684Y018245D01*
X006743Y018187D01*
X006743Y018129D01*
X006684Y018070D01*
X006567Y018070D01*
X006509Y018129D01*
X006626Y018245D02*
X006684Y018245D01*
X006267Y018245D02*
X006150Y018245D01*
X006150Y018070D02*
X006150Y018421D01*
X005943Y015801D02*
X005943Y015340D01*
X006096Y015340D02*
X005789Y015340D01*
X005636Y015417D02*
X005559Y015340D01*
X005406Y015340D01*
X005329Y015417D01*
X005329Y015724D01*
X005406Y015801D01*
X005559Y015801D01*
X005636Y015724D01*
X005789Y015647D02*
X005943Y015801D01*
X006250Y015570D02*
X006480Y015570D01*
X006557Y015494D01*
X006557Y015417D01*
X006480Y015340D01*
X006326Y015340D01*
X006250Y015417D01*
X006250Y015570D01*
X006403Y015724D01*
X006557Y015801D01*
X007069Y015761D02*
X007069Y015300D01*
X007069Y015454D02*
X007299Y015454D01*
X007376Y015530D01*
X007376Y015684D01*
X007299Y015761D01*
X007069Y015761D01*
X007222Y015454D02*
X007376Y015300D01*
X007529Y015300D02*
X007836Y015607D01*
X007836Y015684D01*
X007759Y015761D01*
X007606Y015761D01*
X007529Y015684D01*
X007529Y015300D02*
X007836Y015300D01*
X007990Y015377D02*
X008066Y015300D01*
X008220Y015300D01*
X008297Y015377D01*
X008297Y015454D01*
X008220Y015530D01*
X007990Y015530D01*
X007990Y015377D01*
X007990Y015530D02*
X008143Y015684D01*
X008297Y015761D01*
X008260Y014341D02*
X008106Y014341D01*
X008030Y014264D01*
X008030Y014187D01*
X008106Y014110D01*
X008260Y014110D01*
X008337Y014034D01*
X008337Y013957D01*
X008260Y013880D01*
X008106Y013880D01*
X008030Y013957D01*
X008030Y014034D01*
X008106Y014110D01*
X008260Y014110D02*
X008337Y014187D01*
X008337Y014264D01*
X008260Y014341D01*
X007876Y014264D02*
X007876Y014187D01*
X007569Y013880D01*
X007876Y013880D01*
X007876Y014264D02*
X007799Y014341D01*
X007646Y014341D01*
X007569Y014264D01*
X007416Y014264D02*
X007416Y014110D01*
X007339Y014034D01*
X007109Y014034D01*
X007262Y014034D02*
X007416Y013880D01*
X007109Y013880D02*
X007109Y014341D01*
X007339Y014341D01*
X007416Y014264D01*
X007339Y013221D02*
X007416Y013144D01*
X007416Y012990D01*
X007339Y012914D01*
X007109Y012914D01*
X007262Y012914D02*
X007416Y012760D01*
X007569Y012837D02*
X007646Y012760D01*
X007799Y012760D01*
X007876Y012837D01*
X007876Y012914D01*
X007799Y012990D01*
X007723Y012990D01*
X007799Y012990D02*
X007876Y013067D01*
X007876Y013144D01*
X007799Y013221D01*
X007646Y013221D01*
X007569Y013144D01*
X007339Y013221D02*
X007109Y013221D01*
X007109Y012760D01*
X006557Y012780D02*
X006250Y012780D01*
X006557Y013087D01*
X006557Y013164D01*
X006480Y013241D01*
X006326Y013241D01*
X006250Y013164D01*
X006096Y013164D02*
X006096Y013087D01*
X005789Y012780D01*
X006096Y012780D01*
X006096Y013164D02*
X006019Y013241D01*
X005866Y013241D01*
X005789Y013164D01*
X005636Y013164D02*
X005559Y013241D01*
X005406Y013241D01*
X005329Y013164D01*
X005329Y012857D01*
X005406Y012780D01*
X005559Y012780D01*
X005636Y012857D01*
X005559Y012041D02*
X005406Y012041D01*
X005329Y011964D01*
X005329Y011657D01*
X005406Y011580D01*
X005559Y011580D01*
X005636Y011657D01*
X005789Y011580D02*
X006096Y011887D01*
X006096Y011964D01*
X006019Y012041D01*
X005866Y012041D01*
X005789Y011964D01*
X005636Y011964D02*
X005559Y012041D01*
X005789Y011580D02*
X006096Y011580D01*
X006250Y011810D02*
X006557Y011810D01*
X006480Y011580D02*
X006480Y012041D01*
X006250Y011810D01*
X004947Y012091D02*
X004640Y012091D01*
X004793Y012091D02*
X004793Y011630D01*
X004486Y011630D02*
X004179Y012091D01*
X004026Y012091D02*
X003719Y012091D01*
X003719Y011630D01*
X004026Y011630D01*
X004179Y011630D02*
X004486Y012091D01*
X003872Y011860D02*
X003719Y011860D01*
X003565Y011630D02*
X003565Y012091D01*
X003258Y012091D02*
X003258Y011630D01*
X003105Y011554D02*
X002798Y011554D01*
X002645Y011707D02*
X002568Y011630D01*
X002414Y011630D01*
X002338Y011707D01*
X002338Y012014D01*
X002414Y012091D01*
X002568Y012091D01*
X002645Y012014D01*
X003258Y012091D02*
X003565Y011630D01*
X003489Y009131D02*
X003565Y009054D01*
X003565Y008900D01*
X003489Y008824D01*
X003258Y008824D01*
X003258Y008670D02*
X003258Y009131D01*
X003489Y009131D01*
X003719Y009131D02*
X003719Y008670D01*
X003719Y008824D02*
X003949Y008824D01*
X004026Y008900D01*
X004026Y009054D01*
X003949Y009131D01*
X003719Y009131D01*
X003872Y008824D02*
X004026Y008670D01*
X004179Y008670D02*
X004486Y008670D01*
X004640Y008824D02*
X004793Y008670D01*
X004947Y008824D01*
X004947Y009131D01*
X004640Y009131D02*
X004640Y008824D01*
X004333Y008900D02*
X004179Y008900D01*
X004179Y008670D02*
X004179Y009131D01*
X004486Y009131D01*
X005660Y008594D02*
X005660Y008287D01*
X005736Y008210D01*
X005890Y008210D01*
X005967Y008287D01*
X005967Y008594D02*
X005890Y008671D01*
X005736Y008671D01*
X005660Y008594D01*
X003105Y008594D02*
X002798Y008594D01*
X002645Y008747D02*
X002568Y008670D01*
X002414Y008670D01*
X002338Y008747D01*
X002338Y009054D01*
X002414Y009131D01*
X002568Y009131D01*
X002645Y009054D01*
X008030Y012837D02*
X008337Y013144D01*
X008337Y012837D01*
X008260Y012760D01*
X008106Y012760D01*
X008030Y012837D01*
X008030Y013144D01*
X008106Y013221D01*
X008260Y013221D01*
X008337Y013144D01*
X023009Y011004D02*
X023009Y010697D01*
X023086Y010620D01*
X023239Y010620D01*
X023316Y010697D01*
X023469Y010620D02*
X023776Y010927D01*
X023776Y011004D01*
X023699Y011081D01*
X023546Y011081D01*
X023469Y011004D01*
X023316Y011004D02*
X023239Y011081D01*
X023086Y011081D01*
X023009Y011004D01*
X023469Y010620D02*
X023776Y010620D01*
X023930Y010697D02*
X024006Y010620D01*
X024160Y010620D01*
X024237Y010697D01*
X024237Y010850D01*
X024160Y010927D01*
X024083Y010927D01*
X023930Y010850D01*
X023930Y011081D01*
X024237Y011081D01*
X032240Y008811D02*
X032240Y008350D01*
X032470Y008350D01*
X032547Y008427D01*
X032547Y008734D01*
X032470Y008811D01*
X032240Y008811D01*
X033618Y009230D02*
X033848Y009230D01*
X033925Y009307D01*
X033925Y009614D01*
X033848Y009691D01*
X033618Y009691D01*
X033618Y009230D01*
X034078Y009154D02*
X034385Y009154D01*
X034538Y009230D02*
X034538Y009691D01*
X034769Y009691D01*
X034845Y009614D01*
X034845Y009460D01*
X034769Y009384D01*
X034538Y009384D01*
X034999Y009384D02*
X035229Y009384D01*
X035306Y009460D01*
X035306Y009614D01*
X035229Y009691D01*
X034999Y009691D01*
X034999Y009230D01*
X035152Y009384D02*
X035306Y009230D01*
X035459Y009230D02*
X035459Y009691D01*
X035766Y009691D01*
X035920Y009691D02*
X035920Y009384D01*
X036073Y009230D01*
X036227Y009384D01*
X036227Y009691D01*
X035766Y009230D02*
X035459Y009230D01*
X035459Y009460D02*
X035613Y009460D01*
X035766Y012110D02*
X035459Y012571D01*
X035306Y012571D02*
X034999Y012571D01*
X034999Y012110D01*
X035306Y012110D01*
X035459Y012110D02*
X035766Y012571D01*
X035920Y012571D02*
X036227Y012571D01*
X036073Y012571D02*
X036073Y012110D01*
X035152Y012340D02*
X034999Y012340D01*
X034845Y012110D02*
X034845Y012571D01*
X034538Y012571D02*
X034538Y012110D01*
X034385Y012034D02*
X034078Y012034D01*
X033925Y012187D02*
X033925Y012494D01*
X033848Y012571D01*
X033618Y012571D01*
X033618Y012110D01*
X033848Y012110D01*
X033925Y012187D01*
X034538Y012571D02*
X034845Y012110D01*
X033210Y012557D02*
X033210Y012710D01*
X033133Y012787D01*
X033210Y012941D02*
X033210Y013248D01*
X033210Y013094D02*
X032750Y013094D01*
X032903Y012941D01*
X032826Y012787D02*
X032750Y012710D01*
X032750Y012557D01*
X032826Y012480D01*
X033133Y012480D01*
X033210Y012557D01*
X033133Y013401D02*
X033210Y013478D01*
X033210Y013631D01*
X033133Y013708D01*
X032826Y013708D01*
X032750Y013631D01*
X032750Y013478D01*
X032826Y013401D01*
X032903Y013401D01*
X032980Y013478D01*
X032980Y013708D01*
D18*
X020175Y013703D02*
X017475Y013703D01*
X017424Y013705D01*
X017373Y013710D01*
X017323Y013720D01*
X017273Y013733D01*
X017225Y013749D01*
X017178Y013769D01*
X017132Y013793D01*
X017089Y013819D01*
X017047Y013849D01*
X017008Y013882D01*
X016971Y013917D01*
X016937Y013955D01*
X016906Y013996D01*
X016877Y014038D01*
X016852Y014083D01*
X016831Y014129D01*
X016812Y014177D01*
X016798Y014226D01*
X016787Y014276D01*
X016779Y014326D01*
X016775Y014377D01*
X016775Y014429D01*
X016779Y014480D01*
X016787Y014530D01*
X016798Y014580D01*
X016812Y014629D01*
X016831Y014677D01*
X016852Y014723D01*
X016877Y014768D01*
X016906Y014810D01*
X016937Y014851D01*
X016971Y014889D01*
X017008Y014924D01*
X017047Y014957D01*
X017089Y014987D01*
X017132Y015013D01*
X017178Y015037D01*
X017225Y015057D01*
X017273Y015073D01*
X017323Y015086D01*
X017373Y015096D01*
X017424Y015101D01*
X017475Y015103D01*
X020175Y015103D01*
X020226Y015101D01*
X020277Y015096D01*
X020327Y015086D01*
X020377Y015073D01*
X020425Y015057D01*
X020472Y015037D01*
X020518Y015013D01*
X020561Y014987D01*
X020603Y014957D01*
X020642Y014924D01*
X020679Y014889D01*
X020713Y014851D01*
X020744Y014810D01*
X020773Y014768D01*
X020798Y014723D01*
X020819Y014677D01*
X020838Y014629D01*
X020852Y014580D01*
X020863Y014530D01*
X020871Y014480D01*
X020875Y014429D01*
X020875Y014377D01*
X020871Y014326D01*
X020863Y014276D01*
X020852Y014226D01*
X020838Y014177D01*
X020819Y014129D01*
X020798Y014083D01*
X020773Y014038D01*
X020744Y013996D01*
X020713Y013955D01*
X020679Y013917D01*
X020642Y013882D01*
X020603Y013849D01*
X020561Y013819D01*
X020518Y013793D01*
X020472Y013769D01*
X020425Y013749D01*
X020377Y013733D01*
X020327Y013720D01*
X020277Y013710D01*
X020226Y013705D01*
X020175Y013703D01*
D19*
X012365Y010150D02*
X012379Y010109D01*
X012384Y010065D01*
X012379Y010021D01*
X012365Y009980D01*
X012341Y009942D01*
X012310Y009911D01*
X012273Y009888D01*
X012231Y009873D01*
X012187Y009868D01*
X012144Y009873D01*
X012102Y009888D01*
X012065Y009911D01*
X012033Y009942D01*
X012010Y009980D01*
X011995Y010021D01*
X011991Y010065D01*
X011995Y010109D01*
X012010Y010150D01*
X012033Y010188D01*
X012065Y010219D01*
X012102Y010242D01*
X012144Y010257D01*
X012187Y010262D01*
X012231Y010257D01*
X012273Y010242D01*
X012310Y010219D01*
X012341Y010188D01*
X012365Y010150D01*
X012358Y010161D02*
X012017Y010161D01*
X011993Y010084D02*
X012382Y010084D01*
X012374Y010007D02*
X012001Y010007D01*
X012046Y009930D02*
X012329Y009930D01*
X012279Y010238D02*
X012096Y010238D01*
X030071Y009985D02*
X030075Y009941D01*
X030090Y009900D01*
X030113Y009862D01*
X030145Y009831D01*
X030182Y009808D01*
X030224Y009793D01*
X030267Y009788D01*
X030311Y009793D01*
X030353Y009808D01*
X030390Y009831D01*
X030421Y009862D01*
X030445Y009900D01*
X030459Y009941D01*
X030464Y009985D01*
X030459Y010029D01*
X030445Y010070D01*
X030421Y010108D01*
X030390Y010139D01*
X030353Y010162D01*
X030311Y010177D01*
X030267Y010182D01*
X030224Y010177D01*
X030182Y010162D01*
X030145Y010139D01*
X030113Y010108D01*
X030090Y010070D01*
X030075Y010029D01*
X030071Y009985D01*
X030073Y010007D02*
X030462Y010007D01*
X030455Y009930D02*
X030080Y009930D01*
X030123Y009852D02*
X030411Y009852D01*
X030436Y010084D02*
X030099Y010084D01*
X030180Y010161D02*
X030354Y010161D01*
X025472Y028110D02*
X025514Y028124D01*
X025551Y028148D01*
X025582Y028179D01*
X025606Y028216D01*
X025620Y028258D01*
X025625Y028302D01*
X025620Y028346D01*
X025606Y028387D01*
X025582Y028425D01*
X025551Y028456D01*
X025514Y028479D01*
X025472Y028494D01*
X025428Y028499D01*
X025385Y028494D01*
X025343Y028479D01*
X025306Y028456D01*
X025274Y028425D01*
X025251Y028387D01*
X025236Y028346D01*
X025231Y028302D01*
X025236Y028258D01*
X025251Y028216D01*
X025274Y028179D01*
X025306Y028148D01*
X025343Y028124D01*
X025385Y028110D01*
X025428Y028105D01*
X025472Y028110D01*
X025561Y028158D02*
X025295Y028158D01*
X025244Y028235D02*
X025612Y028235D01*
X025624Y028313D02*
X025233Y028313D01*
X025253Y028390D02*
X025604Y028390D01*
X025533Y028467D02*
X025324Y028467D01*
X008489Y028156D02*
X008485Y028112D01*
X008470Y028070D01*
X008447Y028033D01*
X008415Y028002D01*
X008378Y027978D01*
X008336Y027964D01*
X008293Y027959D01*
X008249Y027964D01*
X008207Y027978D01*
X008170Y028002D01*
X008139Y028033D01*
X008115Y028070D01*
X008101Y028112D01*
X008096Y028156D01*
X008101Y028199D01*
X008115Y028241D01*
X008139Y028278D01*
X008170Y028310D01*
X008207Y028333D01*
X008249Y028348D01*
X008293Y028352D01*
X008336Y028348D01*
X008378Y028333D01*
X008415Y028310D01*
X008447Y028278D01*
X008470Y028241D01*
X008485Y028199D01*
X008489Y028156D01*
X008489Y028158D02*
X008096Y028158D01*
X008111Y028081D02*
X008474Y028081D01*
X008417Y028004D02*
X008168Y028004D01*
X008113Y028235D02*
X008472Y028235D01*
X008410Y028313D02*
X008175Y028313D01*
D20*
X014200Y033120D03*
X024840Y031900D03*
X013640Y006880D03*
X025080Y005580D03*
D21*
X025080Y005205D03*
X025080Y007255D03*
X013640Y007255D03*
X013640Y005205D03*
X014200Y031445D03*
X014200Y033495D03*
X024840Y033575D03*
X024840Y031525D03*
M02*
