G75*
G70*
%OFA0B0*%
%FSLAX24Y24*%
%IPPOS*%
%LPD*%
%AMOC8*
5,1,8,0,0,1.08239X$1,22.5*
%
%ADD10C,0.0000*%
%ADD11C,0.1438*%
%ADD12R,0.3040X0.5360*%
%ADD13C,0.0160*%
%ADD14R,0.2960X0.5280*%
%ADD15R,0.2880X0.5280*%
%ADD16OC8,0.0660*%
%ADD17R,0.0651X0.0257*%
%ADD18R,0.0257X0.0651*%
%ADD19R,0.0454X0.0493*%
%ADD20R,0.0690X0.0532*%
%ADD21C,0.0460*%
%ADD22R,0.0493X0.0454*%
%ADD23OC8,0.0560*%
%ADD24C,0.0560*%
%ADD25OC8,0.0690*%
%ADD26C,0.0690*%
%ADD27OC8,0.0540*%
%ADD28R,0.0847X0.0257*%
%ADD29R,0.0847X0.1399*%
%ADD30R,0.0828X0.0828*%
%ADD31R,0.0660X0.0660*%
%ADD32R,0.0710X0.0710*%
%ADD33C,0.0540*%
%ADD34R,0.0690X0.0770*%
%ADD35OC8,0.0680*%
%ADD36C,0.0680*%
%ADD37C,0.0575*%
%ADD38C,0.0398*%
%ADD39C,0.0457*%
%ADD40C,0.0496*%
%ADD41C,0.0378*%
%ADD42C,0.0417*%
%ADD43OC8,0.0575*%
%ADD44OC8,0.0457*%
%ADD45OC8,0.0398*%
D10*
X001560Y003750D02*
X001560Y035246D01*
X036993Y035246D01*
X036993Y003750D01*
X001560Y003750D01*
X002840Y005719D02*
X002842Y005771D01*
X002848Y005823D01*
X002858Y005874D01*
X002871Y005924D01*
X002889Y005974D01*
X002910Y006021D01*
X002934Y006067D01*
X002963Y006111D01*
X002994Y006153D01*
X003028Y006192D01*
X003065Y006229D01*
X003105Y006262D01*
X003148Y006293D01*
X003192Y006320D01*
X003238Y006344D01*
X003287Y006364D01*
X003336Y006380D01*
X003387Y006393D01*
X003438Y006402D01*
X003490Y006407D01*
X003542Y006408D01*
X003594Y006405D01*
X003646Y006398D01*
X003697Y006387D01*
X003747Y006373D01*
X003796Y006354D01*
X003843Y006332D01*
X003888Y006307D01*
X003932Y006278D01*
X003973Y006246D01*
X004012Y006211D01*
X004047Y006173D01*
X004080Y006132D01*
X004110Y006090D01*
X004136Y006045D01*
X004159Y005998D01*
X004178Y005949D01*
X004194Y005899D01*
X004206Y005849D01*
X004214Y005797D01*
X004218Y005745D01*
X004218Y005693D01*
X004214Y005641D01*
X004206Y005589D01*
X004194Y005539D01*
X004178Y005489D01*
X004159Y005440D01*
X004136Y005393D01*
X004110Y005348D01*
X004080Y005306D01*
X004047Y005265D01*
X004012Y005227D01*
X003973Y005192D01*
X003932Y005160D01*
X003888Y005131D01*
X003843Y005106D01*
X003796Y005084D01*
X003747Y005065D01*
X003697Y005051D01*
X003646Y005040D01*
X003594Y005033D01*
X003542Y005030D01*
X003490Y005031D01*
X003438Y005036D01*
X003387Y005045D01*
X003336Y005058D01*
X003287Y005074D01*
X003238Y005094D01*
X003192Y005118D01*
X003148Y005145D01*
X003105Y005176D01*
X003065Y005209D01*
X003028Y005246D01*
X002994Y005285D01*
X002963Y005327D01*
X002934Y005371D01*
X002910Y005417D01*
X002889Y005464D01*
X002871Y005514D01*
X002858Y005564D01*
X002848Y005615D01*
X002842Y005667D01*
X002840Y005719D01*
X002840Y033278D02*
X002842Y033330D01*
X002848Y033382D01*
X002858Y033433D01*
X002871Y033483D01*
X002889Y033533D01*
X002910Y033580D01*
X002934Y033626D01*
X002963Y033670D01*
X002994Y033712D01*
X003028Y033751D01*
X003065Y033788D01*
X003105Y033821D01*
X003148Y033852D01*
X003192Y033879D01*
X003238Y033903D01*
X003287Y033923D01*
X003336Y033939D01*
X003387Y033952D01*
X003438Y033961D01*
X003490Y033966D01*
X003542Y033967D01*
X003594Y033964D01*
X003646Y033957D01*
X003697Y033946D01*
X003747Y033932D01*
X003796Y033913D01*
X003843Y033891D01*
X003888Y033866D01*
X003932Y033837D01*
X003973Y033805D01*
X004012Y033770D01*
X004047Y033732D01*
X004080Y033691D01*
X004110Y033649D01*
X004136Y033604D01*
X004159Y033557D01*
X004178Y033508D01*
X004194Y033458D01*
X004206Y033408D01*
X004214Y033356D01*
X004218Y033304D01*
X004218Y033252D01*
X004214Y033200D01*
X004206Y033148D01*
X004194Y033098D01*
X004178Y033048D01*
X004159Y032999D01*
X004136Y032952D01*
X004110Y032907D01*
X004080Y032865D01*
X004047Y032824D01*
X004012Y032786D01*
X003973Y032751D01*
X003932Y032719D01*
X003888Y032690D01*
X003843Y032665D01*
X003796Y032643D01*
X003747Y032624D01*
X003697Y032610D01*
X003646Y032599D01*
X003594Y032592D01*
X003542Y032589D01*
X003490Y032590D01*
X003438Y032595D01*
X003387Y032604D01*
X003336Y032617D01*
X003287Y032633D01*
X003238Y032653D01*
X003192Y032677D01*
X003148Y032704D01*
X003105Y032735D01*
X003065Y032768D01*
X003028Y032805D01*
X002994Y032844D01*
X002963Y032886D01*
X002934Y032930D01*
X002910Y032976D01*
X002889Y033023D01*
X002871Y033073D01*
X002858Y033123D01*
X002848Y033174D01*
X002842Y033226D01*
X002840Y033278D01*
X034336Y033278D02*
X034338Y033330D01*
X034344Y033382D01*
X034354Y033433D01*
X034367Y033483D01*
X034385Y033533D01*
X034406Y033580D01*
X034430Y033626D01*
X034459Y033670D01*
X034490Y033712D01*
X034524Y033751D01*
X034561Y033788D01*
X034601Y033821D01*
X034644Y033852D01*
X034688Y033879D01*
X034734Y033903D01*
X034783Y033923D01*
X034832Y033939D01*
X034883Y033952D01*
X034934Y033961D01*
X034986Y033966D01*
X035038Y033967D01*
X035090Y033964D01*
X035142Y033957D01*
X035193Y033946D01*
X035243Y033932D01*
X035292Y033913D01*
X035339Y033891D01*
X035384Y033866D01*
X035428Y033837D01*
X035469Y033805D01*
X035508Y033770D01*
X035543Y033732D01*
X035576Y033691D01*
X035606Y033649D01*
X035632Y033604D01*
X035655Y033557D01*
X035674Y033508D01*
X035690Y033458D01*
X035702Y033408D01*
X035710Y033356D01*
X035714Y033304D01*
X035714Y033252D01*
X035710Y033200D01*
X035702Y033148D01*
X035690Y033098D01*
X035674Y033048D01*
X035655Y032999D01*
X035632Y032952D01*
X035606Y032907D01*
X035576Y032865D01*
X035543Y032824D01*
X035508Y032786D01*
X035469Y032751D01*
X035428Y032719D01*
X035384Y032690D01*
X035339Y032665D01*
X035292Y032643D01*
X035243Y032624D01*
X035193Y032610D01*
X035142Y032599D01*
X035090Y032592D01*
X035038Y032589D01*
X034986Y032590D01*
X034934Y032595D01*
X034883Y032604D01*
X034832Y032617D01*
X034783Y032633D01*
X034734Y032653D01*
X034688Y032677D01*
X034644Y032704D01*
X034601Y032735D01*
X034561Y032768D01*
X034524Y032805D01*
X034490Y032844D01*
X034459Y032886D01*
X034430Y032930D01*
X034406Y032976D01*
X034385Y033023D01*
X034367Y033073D01*
X034354Y033123D01*
X034344Y033174D01*
X034338Y033226D01*
X034336Y033278D01*
X034336Y005719D02*
X034338Y005771D01*
X034344Y005823D01*
X034354Y005874D01*
X034367Y005924D01*
X034385Y005974D01*
X034406Y006021D01*
X034430Y006067D01*
X034459Y006111D01*
X034490Y006153D01*
X034524Y006192D01*
X034561Y006229D01*
X034601Y006262D01*
X034644Y006293D01*
X034688Y006320D01*
X034734Y006344D01*
X034783Y006364D01*
X034832Y006380D01*
X034883Y006393D01*
X034934Y006402D01*
X034986Y006407D01*
X035038Y006408D01*
X035090Y006405D01*
X035142Y006398D01*
X035193Y006387D01*
X035243Y006373D01*
X035292Y006354D01*
X035339Y006332D01*
X035384Y006307D01*
X035428Y006278D01*
X035469Y006246D01*
X035508Y006211D01*
X035543Y006173D01*
X035576Y006132D01*
X035606Y006090D01*
X035632Y006045D01*
X035655Y005998D01*
X035674Y005949D01*
X035690Y005899D01*
X035702Y005849D01*
X035710Y005797D01*
X035714Y005745D01*
X035714Y005693D01*
X035710Y005641D01*
X035702Y005589D01*
X035690Y005539D01*
X035674Y005489D01*
X035655Y005440D01*
X035632Y005393D01*
X035606Y005348D01*
X035576Y005306D01*
X035543Y005265D01*
X035508Y005227D01*
X035469Y005192D01*
X035428Y005160D01*
X035384Y005131D01*
X035339Y005106D01*
X035292Y005084D01*
X035243Y005065D01*
X035193Y005051D01*
X035142Y005040D01*
X035090Y005033D01*
X035038Y005030D01*
X034986Y005031D01*
X034934Y005036D01*
X034883Y005045D01*
X034832Y005058D01*
X034783Y005074D01*
X034734Y005094D01*
X034688Y005118D01*
X034644Y005145D01*
X034601Y005176D01*
X034561Y005209D01*
X034524Y005246D01*
X034490Y005285D01*
X034459Y005327D01*
X034430Y005371D01*
X034406Y005417D01*
X034385Y005464D01*
X034367Y005514D01*
X034354Y005564D01*
X034344Y005615D01*
X034338Y005667D01*
X034336Y005719D01*
D11*
X035025Y005719D03*
X035025Y033278D03*
X003529Y033278D03*
X003529Y005719D03*
D12*
X009080Y026030D03*
D13*
X024760Y026099D02*
X027640Y026099D01*
X027640Y026257D02*
X024760Y026257D01*
X024760Y026416D02*
X027640Y026416D01*
X027640Y026574D02*
X024760Y026574D01*
X024760Y026733D02*
X027640Y026733D01*
X027640Y026891D02*
X024760Y026891D01*
X024760Y027050D02*
X027640Y027050D01*
X027640Y027208D02*
X024760Y027208D01*
X024760Y027367D02*
X027640Y027367D01*
X027640Y027525D02*
X024760Y027525D01*
X024760Y027684D02*
X027640Y027684D01*
X027640Y027842D02*
X024760Y027842D01*
X024760Y028001D02*
X027640Y028001D01*
X027640Y028159D02*
X024760Y028159D01*
X024760Y028318D02*
X027640Y028318D01*
X027640Y028476D02*
X024760Y028476D01*
X024760Y028550D02*
X024840Y028630D01*
X027640Y028630D01*
X027640Y023830D01*
X027400Y023590D01*
X024760Y023590D01*
X024760Y028550D01*
X024760Y025940D02*
X027640Y025940D01*
X027640Y025782D02*
X024760Y025782D01*
X024760Y025623D02*
X027640Y025623D01*
X027640Y025465D02*
X024760Y025465D01*
X024760Y025306D02*
X027640Y025306D01*
X027640Y025148D02*
X024760Y025148D01*
X024760Y024989D02*
X027640Y024989D01*
X027640Y024831D02*
X024760Y024831D01*
X024760Y024672D02*
X027640Y024672D01*
X027640Y024514D02*
X024760Y024514D01*
X024760Y024355D02*
X027640Y024355D01*
X027640Y024197D02*
X024760Y024197D01*
X024760Y024038D02*
X027640Y024038D01*
X027640Y023880D02*
X024760Y023880D01*
X024760Y023721D02*
X027531Y023721D01*
D14*
X029520Y012230D03*
D15*
X011400Y012310D03*
D16*
X004029Y015998D03*
X004029Y016998D03*
X004029Y017998D03*
X004029Y018998D03*
X004029Y019998D03*
X004029Y020998D03*
X004029Y021998D03*
X004029Y022998D03*
X003029Y022998D03*
X003029Y021998D03*
X003029Y020998D03*
X003029Y019998D03*
X003029Y018998D03*
X003029Y017998D03*
X003029Y016998D03*
X003029Y015998D03*
X017640Y025610D03*
X018640Y025610D03*
X018640Y024610D03*
X019640Y024610D03*
X020640Y024610D03*
X021640Y024610D03*
X021640Y025610D03*
X020640Y025610D03*
X019640Y025610D03*
D17*
G36*
X019466Y022112D02*
X019007Y021653D01*
X018826Y021834D01*
X019285Y022293D01*
X019466Y022112D01*
G37*
G36*
X019689Y021890D02*
X019230Y021431D01*
X019049Y021612D01*
X019508Y022071D01*
X019689Y021890D01*
G37*
G36*
X019912Y021667D02*
X019453Y021208D01*
X019272Y021389D01*
X019731Y021848D01*
X019912Y021667D01*
G37*
G36*
X020135Y021444D02*
X019676Y020985D01*
X019495Y021166D01*
X019954Y021625D01*
X020135Y021444D01*
G37*
G36*
X020357Y021221D02*
X019898Y020762D01*
X019717Y020943D01*
X020176Y021402D01*
X020357Y021221D01*
G37*
G36*
X020580Y020999D02*
X020121Y020540D01*
X019940Y020721D01*
X020399Y021180D01*
X020580Y020999D01*
G37*
G36*
X020803Y020776D02*
X020344Y020317D01*
X020163Y020498D01*
X020622Y020957D01*
X020803Y020776D01*
G37*
G36*
X021025Y020553D02*
X020566Y020094D01*
X020385Y020275D01*
X020844Y020734D01*
X021025Y020553D01*
G37*
G36*
X021248Y020331D02*
X020789Y019872D01*
X020608Y020053D01*
X021067Y020512D01*
X021248Y020331D01*
G37*
G36*
X021471Y020108D02*
X021012Y019649D01*
X020831Y019830D01*
X021290Y020289D01*
X021471Y020108D01*
G37*
G36*
X021694Y019885D02*
X021235Y019426D01*
X021054Y019607D01*
X021513Y020066D01*
X021694Y019885D01*
G37*
G36*
X018464Y016656D02*
X018005Y016197D01*
X017824Y016378D01*
X018283Y016837D01*
X018464Y016656D01*
G37*
G36*
X018242Y016879D02*
X017783Y016420D01*
X017602Y016601D01*
X018061Y017060D01*
X018242Y016879D01*
G37*
G36*
X018019Y017101D02*
X017560Y016642D01*
X017379Y016823D01*
X017838Y017282D01*
X018019Y017101D01*
G37*
G36*
X017796Y017324D02*
X017337Y016865D01*
X017156Y017046D01*
X017615Y017505D01*
X017796Y017324D01*
G37*
G36*
X017573Y017547D02*
X017114Y017088D01*
X016933Y017269D01*
X017392Y017728D01*
X017573Y017547D01*
G37*
G36*
X017351Y017769D02*
X016892Y017310D01*
X016711Y017491D01*
X017170Y017950D01*
X017351Y017769D01*
G37*
G36*
X017128Y017992D02*
X016669Y017533D01*
X016488Y017714D01*
X016947Y018173D01*
X017128Y017992D01*
G37*
G36*
X016905Y018215D02*
X016446Y017756D01*
X016265Y017937D01*
X016724Y018396D01*
X016905Y018215D01*
G37*
G36*
X016683Y018438D02*
X016224Y017979D01*
X016043Y018160D01*
X016502Y018619D01*
X016683Y018438D01*
G37*
G36*
X016460Y018660D02*
X016001Y018201D01*
X015820Y018382D01*
X016279Y018841D01*
X016460Y018660D01*
G37*
G36*
X016237Y018883D02*
X015778Y018424D01*
X015597Y018605D01*
X016056Y019064D01*
X016237Y018883D01*
G37*
D18*
G36*
X016237Y019607D02*
X016056Y019426D01*
X015597Y019885D01*
X015778Y020066D01*
X016237Y019607D01*
G37*
G36*
X016460Y019830D02*
X016279Y019649D01*
X015820Y020108D01*
X016001Y020289D01*
X016460Y019830D01*
G37*
G36*
X016683Y020053D02*
X016502Y019872D01*
X016043Y020331D01*
X016224Y020512D01*
X016683Y020053D01*
G37*
G36*
X016905Y020275D02*
X016724Y020094D01*
X016265Y020553D01*
X016446Y020734D01*
X016905Y020275D01*
G37*
G36*
X017128Y020498D02*
X016947Y020317D01*
X016488Y020776D01*
X016669Y020957D01*
X017128Y020498D01*
G37*
G36*
X017351Y020721D02*
X017170Y020540D01*
X016711Y020999D01*
X016892Y021180D01*
X017351Y020721D01*
G37*
G36*
X017573Y020943D02*
X017392Y020762D01*
X016933Y021221D01*
X017114Y021402D01*
X017573Y020943D01*
G37*
G36*
X017796Y021166D02*
X017615Y020985D01*
X017156Y021444D01*
X017337Y021625D01*
X017796Y021166D01*
G37*
G36*
X018019Y021389D02*
X017838Y021208D01*
X017379Y021667D01*
X017560Y021848D01*
X018019Y021389D01*
G37*
G36*
X018242Y021612D02*
X018061Y021431D01*
X017602Y021890D01*
X017783Y022071D01*
X018242Y021612D01*
G37*
G36*
X018464Y021834D02*
X018283Y021653D01*
X017824Y022112D01*
X018005Y022293D01*
X018464Y021834D01*
G37*
G36*
X021694Y018605D02*
X021513Y018424D01*
X021054Y018883D01*
X021235Y019064D01*
X021694Y018605D01*
G37*
G36*
X021471Y018382D02*
X021290Y018201D01*
X020831Y018660D01*
X021012Y018841D01*
X021471Y018382D01*
G37*
G36*
X021248Y018160D02*
X021067Y017979D01*
X020608Y018438D01*
X020789Y018619D01*
X021248Y018160D01*
G37*
G36*
X021025Y017937D02*
X020844Y017756D01*
X020385Y018215D01*
X020566Y018396D01*
X021025Y017937D01*
G37*
G36*
X020803Y017714D02*
X020622Y017533D01*
X020163Y017992D01*
X020344Y018173D01*
X020803Y017714D01*
G37*
G36*
X020580Y017491D02*
X020399Y017310D01*
X019940Y017769D01*
X020121Y017950D01*
X020580Y017491D01*
G37*
G36*
X020357Y017269D02*
X020176Y017088D01*
X019717Y017547D01*
X019898Y017728D01*
X020357Y017269D01*
G37*
G36*
X020135Y017046D02*
X019954Y016865D01*
X019495Y017324D01*
X019676Y017505D01*
X020135Y017046D01*
G37*
G36*
X019912Y016823D02*
X019731Y016642D01*
X019272Y017101D01*
X019453Y017282D01*
X019912Y016823D01*
G37*
G36*
X019689Y016601D02*
X019508Y016420D01*
X019049Y016879D01*
X019230Y017060D01*
X019689Y016601D01*
G37*
G36*
X019466Y016378D02*
X019285Y016197D01*
X018826Y016656D01*
X019007Y016837D01*
X019466Y016378D01*
G37*
D19*
X020025Y011350D03*
X020695Y011350D03*
X020695Y010230D03*
X020025Y010230D03*
X020025Y009030D03*
X020695Y009030D03*
X018615Y009030D03*
X017945Y009030D03*
X017945Y010150D03*
X018615Y010150D03*
X018615Y011350D03*
X017945Y011350D03*
X014280Y012536D03*
X014280Y013205D03*
X008055Y013590D03*
X007385Y013590D03*
X007385Y012390D03*
X008055Y012390D03*
X013872Y019636D03*
X014542Y019636D03*
X013255Y025750D03*
X012585Y025750D03*
X012585Y026950D03*
X013255Y026950D03*
X017545Y027190D03*
X018215Y027190D03*
X019305Y027110D03*
X019975Y027110D03*
X021065Y027110D03*
X021735Y027110D03*
X021735Y028470D03*
X021065Y028470D03*
X019956Y028406D03*
X019287Y028406D03*
X018215Y028470D03*
X017545Y028470D03*
X023497Y026226D03*
X023497Y025556D03*
X030185Y025910D03*
X030855Y025910D03*
X030889Y027053D03*
X030219Y027053D03*
X030265Y023190D03*
X030935Y023190D03*
X032185Y023190D03*
X032855Y023190D03*
X032855Y021910D03*
X032185Y021910D03*
X030935Y021910D03*
X030265Y021910D03*
X030105Y016070D03*
X030775Y016070D03*
X031705Y016070D03*
X032375Y016070D03*
X033465Y016070D03*
X034135Y016070D03*
X032360Y013125D03*
X032360Y012456D03*
X029095Y016070D03*
X028425Y016070D03*
X025975Y012630D03*
X025305Y012630D03*
X025305Y011430D03*
X025975Y011430D03*
X005640Y025016D03*
X005640Y025685D03*
D20*
X021380Y022698D03*
X021380Y021517D03*
D21*
X019825Y014603D02*
X019825Y014203D01*
X017825Y014203D02*
X017825Y014603D01*
D22*
X017943Y012498D03*
X018613Y012498D03*
X019969Y012549D03*
X020638Y012549D03*
X023305Y011430D03*
X023975Y011430D03*
X023975Y010310D03*
X023305Y010310D03*
X023305Y013990D03*
X023975Y013990D03*
X027320Y015736D03*
X027320Y016405D03*
X031225Y019030D03*
X031895Y019030D03*
X032185Y024470D03*
X032855Y024470D03*
X032850Y027097D03*
X032181Y027097D03*
X032176Y028270D03*
X032845Y028270D03*
X022656Y022060D03*
X022656Y021390D03*
X016349Y021836D03*
X015679Y021836D03*
X015335Y024310D03*
X014665Y024310D03*
X014825Y026950D03*
X015495Y026950D03*
X015495Y028230D03*
X014825Y028230D03*
X008520Y022005D03*
X008520Y021336D03*
X013880Y016965D03*
X013880Y016296D03*
X015376Y016945D03*
X016045Y016945D03*
X006295Y014950D03*
X005625Y014950D03*
X005625Y012390D03*
X006295Y012390D03*
X006295Y011190D03*
X005625Y011190D03*
D23*
X008385Y018578D03*
D24*
X008385Y019378D03*
D25*
X006190Y021003D03*
D26*
X006190Y020003D03*
D27*
X007040Y018870D03*
X005040Y018870D03*
X010280Y016970D03*
X010280Y015970D03*
X012120Y015970D03*
X012120Y016970D03*
X012040Y021170D03*
X012040Y022170D03*
X010200Y022170D03*
X010200Y021170D03*
X010720Y029670D03*
X008720Y029670D03*
X023888Y022071D03*
X023888Y021071D03*
X025845Y021071D03*
X025845Y022071D03*
X025960Y016730D03*
X025960Y015730D03*
X024120Y015730D03*
X024120Y016730D03*
X024200Y008510D03*
X024200Y006510D03*
X012640Y008710D03*
X010640Y008710D03*
X026487Y029523D03*
X028487Y029523D03*
D28*
X028184Y028302D03*
X028184Y027908D03*
X028184Y027514D03*
X028184Y027121D03*
X028184Y025152D03*
X028184Y024758D03*
X028184Y024365D03*
X028184Y023971D03*
X024247Y023971D03*
X024247Y024365D03*
X024247Y024758D03*
X024247Y025152D03*
X024247Y027121D03*
X024247Y027514D03*
X024247Y027908D03*
X024247Y028302D03*
X011049Y028156D03*
X011049Y027762D03*
X011049Y027368D03*
X011049Y026975D03*
X011049Y025006D03*
X011049Y024612D03*
X011049Y024219D03*
X011049Y023825D03*
X007111Y023825D03*
X007111Y024219D03*
X007111Y024612D03*
X007111Y025006D03*
X007111Y026975D03*
X007111Y027368D03*
X007111Y027762D03*
X007111Y028156D03*
X009431Y014396D03*
X009431Y014002D03*
X009431Y013608D03*
X009431Y013215D03*
X009431Y011246D03*
X009431Y010852D03*
X009431Y010459D03*
X009431Y010065D03*
X013369Y010065D03*
X013369Y010459D03*
X013369Y010852D03*
X013369Y011246D03*
X013369Y013215D03*
X013369Y013608D03*
X013369Y014002D03*
X013369Y014396D03*
X027511Y014316D03*
X027511Y013922D03*
X027511Y013528D03*
X027511Y013135D03*
X027511Y011166D03*
X027511Y010772D03*
X027511Y010379D03*
X027511Y009985D03*
X031449Y009985D03*
X031449Y010379D03*
X031449Y010772D03*
X031449Y011166D03*
X031449Y013135D03*
X031449Y013528D03*
X031449Y013922D03*
X031449Y014316D03*
D29*
X031449Y012150D03*
X027511Y012150D03*
X013369Y012230D03*
X009431Y012230D03*
X011049Y025990D03*
X007111Y025990D03*
X024247Y026136D03*
X028184Y026136D03*
D30*
X034457Y025515D03*
X035441Y025515D03*
X035441Y028526D03*
X034457Y028526D03*
X034360Y013590D03*
X035344Y013590D03*
X035344Y010710D03*
X034360Y010710D03*
X004360Y025430D03*
X003376Y025430D03*
X003376Y028390D03*
X004360Y028390D03*
X004064Y013110D03*
X003080Y013110D03*
X003080Y010150D03*
X004064Y010150D03*
D31*
X017640Y024610D03*
D32*
X012880Y031050D03*
X009880Y031050D03*
X007880Y031050D03*
X005880Y031050D03*
X005880Y034050D03*
X007880Y034050D03*
X009880Y034050D03*
X012880Y034050D03*
X026240Y034050D03*
X026240Y031050D03*
X029240Y031050D03*
X031240Y031050D03*
X033240Y031050D03*
X033240Y034050D03*
X031240Y034050D03*
X029240Y034050D03*
X029320Y007730D03*
X031320Y007730D03*
X033320Y007730D03*
X033320Y004730D03*
X031320Y004730D03*
X029320Y004730D03*
X026320Y004730D03*
X026320Y007730D03*
X012320Y007650D03*
X012320Y004650D03*
X009320Y004650D03*
X007320Y004650D03*
X005320Y004650D03*
X005320Y007650D03*
X007320Y007650D03*
X009320Y007650D03*
D33*
X013640Y007490D02*
X013640Y007970D01*
X015560Y007230D02*
X016040Y007230D01*
X016040Y006230D02*
X015560Y006230D01*
X015560Y005230D02*
X016040Y005230D01*
X018060Y005290D02*
X018060Y004810D01*
X019060Y004810D02*
X019060Y005290D01*
X020060Y005290D02*
X020060Y004810D01*
X021060Y004810D02*
X021060Y005290D01*
X022680Y005230D02*
X023160Y005230D01*
X023160Y006230D02*
X022680Y006230D01*
X022680Y007230D02*
X023160Y007230D01*
X025080Y007490D02*
X025080Y007970D01*
X025080Y004970D02*
X025080Y004490D01*
X021060Y007810D02*
X021060Y008290D01*
X020060Y008290D02*
X020060Y007810D01*
X019060Y007810D02*
X019060Y008290D01*
X018060Y008290D02*
X018060Y007810D01*
X013640Y004970D02*
X013640Y004490D01*
X028400Y017370D02*
X028400Y017850D01*
X029400Y017850D02*
X029400Y017370D01*
X030400Y017370D02*
X030400Y017850D01*
X031400Y017850D02*
X031400Y017370D01*
X032400Y017370D02*
X032400Y017850D01*
X033400Y017850D02*
X033400Y017370D01*
X034400Y017370D02*
X034400Y017850D01*
X034400Y020370D02*
X034400Y020850D01*
X033400Y020850D02*
X033400Y020370D01*
X032400Y020370D02*
X032400Y020850D01*
X031400Y020850D02*
X031400Y020370D01*
X030400Y020370D02*
X030400Y020850D01*
X029400Y020850D02*
X029400Y020370D01*
X028400Y020370D02*
X028400Y020850D01*
X020580Y030490D02*
X020580Y030970D01*
X019580Y030970D02*
X019580Y030490D01*
X018580Y030490D02*
X018580Y030970D01*
X017580Y030970D02*
X017580Y030490D01*
X016200Y031230D02*
X015720Y031230D01*
X015720Y032230D02*
X016200Y032230D01*
X016200Y033230D02*
X015720Y033230D01*
X014200Y033730D02*
X014200Y034210D01*
X014200Y031210D02*
X014200Y030730D01*
X017580Y033490D02*
X017580Y033970D01*
X018580Y033970D02*
X018580Y033490D01*
X019580Y033490D02*
X019580Y033970D01*
X020580Y033970D02*
X020580Y033490D01*
X022600Y033230D02*
X023080Y033230D01*
X023080Y032230D02*
X022600Y032230D01*
X022600Y031230D02*
X023080Y031230D01*
X024840Y031290D02*
X024840Y030810D01*
X024840Y033810D02*
X024840Y034290D01*
D34*
X030040Y024630D03*
X031160Y024630D03*
X026200Y013910D03*
X025080Y013910D03*
X013480Y024310D03*
X012360Y024310D03*
X008200Y014870D03*
X007080Y014870D03*
D35*
X007300Y009270D03*
X025240Y010010D03*
X013260Y029350D03*
X022340Y029670D03*
D36*
X023340Y029670D03*
X012260Y029350D03*
X008300Y009270D03*
X025240Y009010D03*
D37*
X022360Y011270D03*
X024040Y013110D03*
X024360Y015030D03*
X014040Y019030D03*
D38*
X013400Y021670D03*
X013160Y022390D03*
X013160Y023510D03*
X010280Y023670D03*
X009800Y023670D03*
X009800Y024150D03*
X010280Y024150D03*
X010280Y024630D03*
X009800Y024630D03*
X009800Y025110D03*
X010280Y025110D03*
X010280Y025590D03*
X009800Y025590D03*
X009800Y026070D03*
X010280Y026070D03*
X010280Y026550D03*
X009800Y026550D03*
X009320Y026550D03*
X009320Y026070D03*
X009320Y025590D03*
X008840Y025590D03*
X008360Y025590D03*
X007880Y025590D03*
X007880Y026070D03*
X008360Y026070D03*
X008840Y026070D03*
X008840Y026550D03*
X008360Y026550D03*
X007880Y026550D03*
X007880Y027030D03*
X008360Y027030D03*
X008840Y027030D03*
X009320Y027030D03*
X009320Y027510D03*
X008840Y027510D03*
X008360Y027510D03*
X007880Y027510D03*
X007880Y027990D03*
X008360Y027990D03*
X008840Y027990D03*
X009320Y027990D03*
X009320Y028470D03*
X008840Y028470D03*
X008360Y028470D03*
X007880Y028470D03*
X009800Y028470D03*
X009800Y027990D03*
X009800Y027510D03*
X009800Y027030D03*
X010280Y027030D03*
X010280Y027510D03*
X010280Y027990D03*
X010280Y028470D03*
X011800Y028390D03*
X011800Y027270D03*
X014440Y026310D03*
X016280Y026710D03*
X017640Y026390D03*
X018680Y026710D03*
X020600Y026710D03*
X021720Y026390D03*
X022360Y027910D03*
X023280Y027910D03*
X023560Y028310D03*
X023440Y026990D03*
X025000Y027030D03*
X025480Y027030D03*
X025960Y027030D03*
X025960Y027510D03*
X025480Y027510D03*
X025000Y027510D03*
X025000Y027990D03*
X025480Y027990D03*
X025960Y027990D03*
X025960Y028470D03*
X025480Y028470D03*
X025000Y028470D03*
X026440Y028470D03*
X026440Y027990D03*
X026440Y027510D03*
X026440Y027030D03*
X026920Y027030D03*
X027400Y027030D03*
X027400Y027510D03*
X026920Y027510D03*
X026920Y027990D03*
X027400Y027990D03*
X027400Y028470D03*
X026920Y028470D03*
X026920Y026550D03*
X026920Y026070D03*
X026920Y025590D03*
X026440Y025590D03*
X026440Y026070D03*
X026440Y026550D03*
X025960Y026550D03*
X025960Y026070D03*
X025960Y025590D03*
X025480Y025590D03*
X025000Y025590D03*
X025000Y026070D03*
X025480Y026070D03*
X025480Y026550D03*
X025000Y026550D03*
X025000Y025110D03*
X025000Y024630D03*
X025000Y024150D03*
X025000Y023670D03*
X025480Y023670D03*
X025960Y023670D03*
X025960Y024150D03*
X025480Y024150D03*
X025480Y024630D03*
X025960Y024630D03*
X025960Y025110D03*
X025480Y025110D03*
X026440Y025110D03*
X026440Y024630D03*
X026440Y024150D03*
X026440Y023670D03*
X026920Y023670D03*
X026920Y024150D03*
X027400Y024150D03*
X027400Y023750D03*
X027400Y024630D03*
X026920Y024630D03*
X026920Y025110D03*
X027400Y025110D03*
X027400Y025590D03*
X027400Y026070D03*
X027400Y026550D03*
X028840Y028310D03*
X029640Y027510D03*
X029320Y024950D03*
X029320Y023510D03*
X028840Y023510D03*
X029800Y023510D03*
X028440Y022150D03*
X028120Y022470D03*
X027800Y022790D03*
X026200Y019910D03*
X024360Y018470D03*
X023800Y018470D03*
X023160Y017590D03*
X022840Y016230D03*
X021240Y015750D03*
X021160Y015270D03*
X020600Y016870D03*
X021320Y017910D03*
X017720Y016070D03*
X017240Y016550D03*
X015640Y014630D03*
X014760Y012070D03*
X015160Y011430D03*
X014280Y010070D03*
X012600Y009910D03*
X012120Y009910D03*
X012120Y010390D03*
X012600Y010390D03*
X012600Y010870D03*
X012120Y010870D03*
X011640Y010870D03*
X011640Y010390D03*
X011640Y009910D03*
X011160Y009910D03*
X010680Y009910D03*
X010200Y009910D03*
X010200Y010390D03*
X010680Y010390D03*
X011160Y010390D03*
X011160Y010870D03*
X010680Y010870D03*
X010200Y010870D03*
X010200Y011350D03*
X010680Y011350D03*
X011160Y011350D03*
X011640Y011350D03*
X011640Y011830D03*
X011160Y011830D03*
X010680Y011830D03*
X010200Y011830D03*
X010200Y012310D03*
X010680Y012310D03*
X011160Y012310D03*
X011640Y012310D03*
X012120Y012310D03*
X012120Y011830D03*
X012120Y011350D03*
X012600Y011350D03*
X012600Y011830D03*
X012600Y012310D03*
X012600Y012790D03*
X012120Y012790D03*
X012120Y013270D03*
X012600Y013270D03*
X012600Y013750D03*
X012120Y013750D03*
X012120Y014230D03*
X012600Y014230D03*
X012600Y014710D03*
X012120Y014710D03*
X011640Y014710D03*
X011160Y014710D03*
X010680Y014710D03*
X010200Y014710D03*
X010200Y014230D03*
X010200Y013750D03*
X010200Y013270D03*
X010200Y012790D03*
X010680Y012790D03*
X011160Y012790D03*
X011640Y012790D03*
X011640Y013270D03*
X011160Y013270D03*
X010680Y013270D03*
X010680Y013750D03*
X011160Y013750D03*
X011640Y013750D03*
X011640Y014230D03*
X011160Y014230D03*
X010680Y014230D03*
X007400Y011910D03*
X008760Y010870D03*
X007880Y010070D03*
X007880Y023670D03*
X008360Y023670D03*
X008840Y023670D03*
X009320Y023670D03*
X009320Y024150D03*
X008840Y024150D03*
X008360Y024150D03*
X007880Y024150D03*
X007880Y024630D03*
X008360Y024630D03*
X008840Y024630D03*
X009320Y024630D03*
X009320Y025110D03*
X008840Y025110D03*
X008360Y025110D03*
X007880Y025110D03*
X006040Y024590D03*
X006040Y026070D03*
X005840Y026710D03*
X005880Y027190D03*
X019240Y029030D03*
X022920Y024870D03*
X022800Y023990D03*
X021960Y023990D03*
X028280Y014630D03*
X028760Y014630D03*
X028760Y014150D03*
X028760Y013670D03*
X028760Y013190D03*
X028280Y013190D03*
X028280Y013670D03*
X028280Y014150D03*
X029240Y014150D03*
X029240Y013670D03*
X029240Y013190D03*
X029720Y013190D03*
X030200Y013190D03*
X030680Y013190D03*
X030680Y013670D03*
X030200Y013670D03*
X029720Y013670D03*
X029720Y014150D03*
X030200Y014150D03*
X030680Y014150D03*
X030680Y014630D03*
X030200Y014630D03*
X029720Y014630D03*
X029240Y014630D03*
X029240Y012710D03*
X029240Y012230D03*
X029240Y011750D03*
X029240Y011270D03*
X029720Y011270D03*
X030200Y011270D03*
X030680Y011270D03*
X030680Y011750D03*
X030200Y011750D03*
X029720Y011750D03*
X029720Y012230D03*
X030200Y012230D03*
X030680Y012230D03*
X030680Y012710D03*
X030200Y012710D03*
X029720Y012710D03*
X028760Y012710D03*
X028760Y012230D03*
X028760Y011750D03*
X028760Y011270D03*
X028280Y011270D03*
X028280Y011750D03*
X028280Y012230D03*
X028280Y012710D03*
X028280Y010790D03*
X028280Y010310D03*
X028280Y009830D03*
X028760Y009830D03*
X028760Y010310D03*
X028760Y010790D03*
X029240Y010790D03*
X029240Y010310D03*
X029240Y009830D03*
X029720Y009830D03*
X030200Y009830D03*
X030680Y009830D03*
X030680Y010310D03*
X030200Y010310D03*
X029720Y010310D03*
X029720Y010790D03*
X030200Y010790D03*
X030680Y010790D03*
X032120Y009990D03*
X032280Y010790D03*
X025960Y009990D03*
X024760Y010710D03*
X034840Y019110D03*
D39*
X007080Y021350D03*
D40*
X011000Y018390D03*
X011560Y019430D03*
X013800Y023510D03*
X017480Y019670D03*
X018280Y022870D03*
X023960Y020070D03*
X027240Y021910D03*
X030680Y018550D03*
X023320Y012550D03*
X019320Y011350D03*
X017400Y010710D03*
X006840Y013590D03*
X005800Y014070D03*
X017640Y029590D03*
X015160Y030070D03*
X024040Y028870D03*
X024520Y029910D03*
D41*
X020280Y022630D03*
X020280Y022230D03*
X020760Y022230D03*
X019800Y022630D03*
X017480Y022630D03*
X017400Y022230D03*
X017000Y022230D03*
X017000Y021830D03*
X016320Y021110D03*
X015880Y021110D03*
X015880Y020630D03*
X015400Y020630D03*
X015160Y018630D03*
X015160Y018230D03*
X014520Y018630D03*
X015560Y017990D03*
X016840Y018630D03*
X019160Y019270D03*
X019320Y018870D03*
X019880Y016230D03*
X019800Y015830D03*
X017240Y016070D03*
X016200Y014150D03*
X021560Y012550D03*
X013160Y021270D03*
X009240Y018790D03*
X009240Y016470D03*
X005640Y017190D03*
X005160Y017030D03*
X004840Y017510D03*
X005160Y017830D03*
X005640Y018150D03*
X004840Y015990D03*
D42*
X009720Y017190D03*
X009720Y019430D03*
X014840Y023830D03*
X021800Y018230D03*
X022120Y017910D03*
X024520Y016310D03*
X025480Y016310D03*
X026280Y017910D03*
X025880Y020230D03*
X023320Y021430D03*
X023320Y023430D03*
X018920Y016230D03*
X019960Y015190D03*
D43*
X015640Y008790D03*
X011160Y006070D03*
X027480Y015190D03*
X032760Y015190D03*
X030680Y023910D03*
X032280Y029510D03*
X028680Y032150D03*
X022440Y026390D03*
X005640Y028230D03*
D44*
X006440Y024230D03*
X017480Y027750D03*
X018760Y029670D03*
X019960Y029670D03*
X021720Y031510D03*
X019560Y009590D03*
X017400Y008950D03*
X018600Y007030D03*
X019560Y007030D03*
D45*
X015960Y026390D03*
M02*
