G75*
G70*
%OFA0B0*%
%FSLAX24Y24*%
%IPPOS*%
%LPD*%
%AMOC8*
5,1,8,0,0,1.08239X$1,22.5*
%
%ADD10C,0.0000*%
%ADD11R,0.0709X0.0709*%
%ADD12C,0.0520*%
%ADD13C,0.0650*%
%ADD14C,0.0660*%
%ADD15C,0.0740*%
%ADD16C,0.0160*%
%ADD17OC8,0.0356*%
D10*
X002180Y000680D02*
X002180Y022334D01*
X033676Y022334D01*
X033676Y000680D01*
X002180Y000680D01*
D11*
X031680Y005180D03*
X031680Y006180D03*
X031680Y007180D03*
X031680Y008180D03*
X031680Y009164D03*
X031680Y013180D03*
X031680Y014180D03*
X031680Y015180D03*
X031680Y016180D03*
X031680Y017164D03*
D12*
X027430Y016190D02*
X027430Y015670D01*
X026430Y015670D02*
X026430Y016190D01*
X023430Y016190D02*
X023430Y015670D01*
X022430Y015670D02*
X022430Y016190D01*
X019430Y016190D02*
X019430Y015670D01*
X018430Y015670D02*
X018430Y016190D01*
X015430Y016190D02*
X015430Y015670D01*
X014430Y015670D02*
X014430Y016190D01*
X011430Y016190D02*
X011430Y015670D01*
X010430Y015670D02*
X010430Y016190D01*
X007430Y016190D02*
X007430Y015670D01*
X006430Y015670D02*
X006430Y016190D01*
X006430Y013190D02*
X006430Y012670D01*
X007430Y012670D02*
X007430Y013190D01*
X010430Y013190D02*
X010430Y012670D01*
X011430Y012670D02*
X011430Y013190D01*
X014430Y013190D02*
X014430Y012670D01*
X015430Y012670D02*
X015430Y013190D01*
X018430Y013190D02*
X018430Y012670D01*
X019430Y012670D02*
X019430Y013190D01*
X022430Y013190D02*
X022430Y012670D01*
X023430Y012670D02*
X023430Y013190D01*
X026430Y013190D02*
X026430Y012670D01*
X027430Y012670D02*
X027430Y013190D01*
X014180Y020920D02*
X014180Y021440D01*
X013180Y021440D02*
X013180Y020920D01*
X007680Y020920D02*
X007680Y021440D01*
X006680Y021440D02*
X006680Y020920D01*
D13*
X006605Y007680D02*
X007255Y007680D01*
X007255Y006680D02*
X006605Y006680D01*
X006605Y005680D02*
X007255Y005680D01*
X010605Y005680D02*
X011255Y005680D01*
X011255Y006680D02*
X010605Y006680D01*
X010605Y007680D02*
X011255Y007680D01*
X014605Y007680D02*
X015255Y007680D01*
X015255Y006680D02*
X014605Y006680D01*
X014605Y005680D02*
X015255Y005680D01*
X018605Y005680D02*
X019255Y005680D01*
X019255Y006680D02*
X018605Y006680D01*
X018605Y007680D02*
X019255Y007680D01*
X022605Y007680D02*
X023255Y007680D01*
X023255Y006680D02*
X022605Y006680D01*
X022605Y005680D02*
X023255Y005680D01*
X026605Y005680D02*
X027255Y005680D01*
X027255Y006680D02*
X026605Y006680D01*
X026605Y007680D02*
X027255Y007680D01*
D14*
X026930Y008680D03*
X022930Y008680D03*
X018930Y008680D03*
X014930Y008680D03*
X010930Y008680D03*
X006930Y008680D03*
X006930Y004680D03*
X010930Y004680D03*
X014930Y004680D03*
X018930Y004680D03*
X022930Y004680D03*
X026930Y004680D03*
D15*
X027180Y001680D03*
X028180Y001680D03*
X029180Y001680D03*
X030180Y001680D03*
X031180Y001680D03*
X032180Y001680D03*
X025180Y001680D03*
X024180Y001680D03*
X023180Y001680D03*
X022180Y001680D03*
X021180Y001680D03*
X020180Y001680D03*
X019680Y020680D03*
X018680Y020680D03*
X017680Y020680D03*
X016680Y020680D03*
X020680Y020680D03*
X021680Y020680D03*
X022680Y020680D03*
X023680Y020680D03*
X025180Y020680D03*
X026180Y020680D03*
X027180Y020680D03*
X028180Y020680D03*
X029180Y020680D03*
X030180Y020680D03*
X031180Y020680D03*
X032180Y020680D03*
D16*
X032180Y014680D01*
X031680Y014180D01*
X032174Y014153D02*
X033496Y014153D01*
X033496Y014311D02*
X032174Y014311D01*
X032174Y014363D02*
X032271Y014460D01*
X032400Y014589D01*
X032400Y020219D01*
X032469Y020248D01*
X032612Y020391D01*
X032690Y020579D01*
X032690Y020781D01*
X032612Y020969D01*
X032469Y021112D01*
X032281Y021190D01*
X032079Y021190D01*
X031891Y021112D01*
X031748Y020969D01*
X031680Y020806D01*
X031612Y020969D01*
X031469Y021112D01*
X031281Y021190D01*
X031079Y021190D01*
X030891Y021112D01*
X030748Y020969D01*
X030680Y020806D01*
X030612Y020969D01*
X030469Y021112D01*
X030281Y021190D01*
X030079Y021190D01*
X029891Y021112D01*
X029748Y020969D01*
X029680Y020806D01*
X029612Y020969D01*
X029469Y021112D01*
X029281Y021190D01*
X029079Y021190D01*
X028891Y021112D01*
X028748Y020969D01*
X028680Y020806D01*
X028612Y020969D01*
X028469Y021112D01*
X028281Y021190D01*
X028079Y021190D01*
X027891Y021112D01*
X027748Y020969D01*
X027680Y020806D01*
X027612Y020969D01*
X027469Y021112D01*
X027281Y021190D01*
X027079Y021190D01*
X026891Y021112D01*
X026748Y020969D01*
X026680Y020806D01*
X026612Y020969D01*
X026469Y021112D01*
X026281Y021190D01*
X026079Y021190D01*
X025891Y021112D01*
X025748Y020969D01*
X025680Y020806D01*
X025612Y020969D01*
X025469Y021112D01*
X025281Y021190D01*
X025079Y021190D01*
X024891Y021112D01*
X024748Y020969D01*
X024670Y020781D01*
X024670Y020579D01*
X024748Y020391D01*
X024891Y020248D01*
X024960Y020219D01*
X024960Y018771D01*
X024089Y017900D01*
X021711Y017900D01*
X023900Y020089D01*
X023900Y020219D01*
X023969Y020248D01*
X024112Y020391D01*
X024190Y020579D01*
X024190Y020781D01*
X024112Y020969D01*
X023969Y021112D01*
X023781Y021190D01*
X023579Y021190D01*
X023391Y021112D01*
X023248Y020969D01*
X023180Y020806D01*
X023112Y020969D01*
X022969Y021112D01*
X022781Y021190D01*
X022579Y021190D01*
X022391Y021112D01*
X022248Y020969D01*
X022180Y020806D01*
X022112Y020969D01*
X021969Y021112D01*
X021781Y021190D01*
X021579Y021190D01*
X021391Y021112D01*
X021248Y020969D01*
X021180Y020806D01*
X021112Y020969D01*
X020969Y021112D01*
X020781Y021190D01*
X020579Y021190D01*
X020391Y021112D01*
X020248Y020969D01*
X020180Y020806D01*
X020112Y020969D01*
X019969Y021112D01*
X019781Y021190D01*
X019579Y021190D01*
X019391Y021112D01*
X019248Y020969D01*
X019180Y020806D01*
X019112Y020969D01*
X018969Y021112D01*
X018781Y021190D01*
X018579Y021190D01*
X018391Y021112D01*
X018248Y020969D01*
X018201Y020856D01*
X018190Y020891D01*
X018150Y020968D01*
X018100Y021038D01*
X018038Y021100D01*
X017968Y021150D01*
X017891Y021190D01*
X017809Y021216D01*
X017723Y021230D01*
X017700Y021230D01*
X017700Y020700D01*
X017660Y020700D01*
X017660Y021230D01*
X017637Y021230D01*
X017551Y021216D01*
X017469Y021190D01*
X017392Y021150D01*
X017322Y021100D01*
X017260Y021038D01*
X017210Y020968D01*
X017170Y020891D01*
X017159Y020856D01*
X017112Y020969D01*
X016969Y021112D01*
X016781Y021190D01*
X016579Y021190D01*
X016391Y021112D01*
X016248Y020969D01*
X016170Y020781D01*
X016170Y020579D01*
X016248Y020391D01*
X016391Y020248D01*
X016579Y020170D01*
X016781Y020170D01*
X016969Y020248D01*
X017112Y020391D01*
X017159Y020504D01*
X017170Y020469D01*
X017210Y020392D01*
X017260Y020322D01*
X017322Y020260D01*
X017392Y020210D01*
X017469Y020170D01*
X017551Y020144D01*
X017637Y020130D01*
X017660Y020130D01*
X017660Y020660D01*
X017700Y020660D01*
X017700Y020130D01*
X017723Y020130D01*
X017809Y020144D01*
X017891Y020170D01*
X017968Y020210D01*
X018038Y020260D01*
X018100Y020322D01*
X018150Y020392D01*
X018190Y020469D01*
X018201Y020504D01*
X018248Y020391D01*
X018391Y020248D01*
X018423Y020234D01*
X018089Y019900D01*
X012089Y019900D01*
X008589Y016400D01*
X008460Y016271D01*
X008460Y011771D01*
X005589Y008900D01*
X005460Y008771D01*
X005460Y007089D01*
X005960Y006589D01*
X006089Y006460D01*
X006193Y006460D01*
X006211Y006417D01*
X006342Y006286D01*
X006513Y006215D01*
X007347Y006215D01*
X007518Y006286D01*
X007649Y006417D01*
X007720Y006588D01*
X007720Y006772D01*
X007649Y006943D01*
X007518Y007074D01*
X007347Y007145D01*
X006513Y007145D01*
X006342Y007074D01*
X006219Y006952D01*
X005900Y007271D01*
X005900Y008589D01*
X008900Y011589D01*
X008900Y016089D01*
X008960Y016149D01*
X008960Y009771D01*
X008187Y008998D01*
X008048Y008998D01*
X007862Y008812D01*
X007862Y008548D01*
X008048Y008362D01*
X008312Y008362D01*
X008498Y008548D01*
X008498Y008687D01*
X009400Y009589D01*
X009400Y016089D01*
X012271Y018960D01*
X018771Y018960D01*
X018900Y019089D01*
X019900Y020089D01*
X019900Y020219D01*
X019969Y020248D01*
X020112Y020391D01*
X020180Y020554D01*
X020248Y020391D01*
X020391Y020248D01*
X020460Y020219D01*
X020460Y019271D01*
X020089Y018900D01*
X015089Y018900D01*
X014960Y018771D01*
X012589Y016400D01*
X012589Y016400D01*
X012460Y016271D01*
X012460Y011771D01*
X009589Y008900D01*
X009460Y008771D01*
X009460Y007089D01*
X009960Y006589D01*
X010089Y006460D01*
X010193Y006460D01*
X010211Y006417D01*
X010342Y006286D01*
X010513Y006215D01*
X011347Y006215D01*
X011518Y006286D01*
X011649Y006417D01*
X011720Y006588D01*
X011720Y006772D01*
X011649Y006943D01*
X011518Y007074D01*
X011347Y007145D01*
X010513Y007145D01*
X010342Y007074D01*
X010219Y006952D01*
X009900Y007271D01*
X009900Y008589D01*
X012900Y011589D01*
X012900Y016089D01*
X012960Y016149D01*
X012960Y009771D01*
X012187Y008998D01*
X012048Y008998D01*
X011862Y008812D01*
X011862Y008548D01*
X012048Y008362D01*
X012312Y008362D01*
X012498Y008548D01*
X012498Y008687D01*
X013400Y009589D01*
X013400Y016089D01*
X015271Y017960D01*
X020649Y017960D01*
X020589Y017900D01*
X018089Y017900D01*
X016589Y016400D01*
X016460Y016271D01*
X016460Y011771D01*
X013589Y008900D01*
X013460Y008771D01*
X013460Y007089D01*
X013960Y006589D01*
X014089Y006460D01*
X014193Y006460D01*
X014211Y006417D01*
X014342Y006286D01*
X014513Y006215D01*
X015347Y006215D01*
X015518Y006286D01*
X015649Y006417D01*
X015720Y006588D01*
X015720Y006772D01*
X015649Y006943D01*
X015518Y007074D01*
X015347Y007145D01*
X014513Y007145D01*
X014342Y007074D01*
X014219Y006952D01*
X013900Y007271D01*
X013900Y008589D01*
X016900Y011589D01*
X016900Y016089D01*
X016960Y016149D01*
X016960Y009771D01*
X016187Y008998D01*
X016048Y008998D01*
X015862Y008812D01*
X015862Y008548D01*
X016048Y008362D01*
X016312Y008362D01*
X016498Y008548D01*
X016498Y008687D01*
X017400Y009589D01*
X017400Y016089D01*
X018271Y016960D01*
X020649Y016960D01*
X020589Y016900D01*
X020460Y016771D01*
X020460Y011936D01*
X018424Y009900D01*
X018295Y009771D01*
X018295Y009606D01*
X017589Y008900D01*
X017460Y008771D01*
X017460Y007089D01*
X017960Y006589D01*
X018089Y006460D01*
X018193Y006460D01*
X018211Y006417D01*
X018342Y006286D01*
X018513Y006215D01*
X019347Y006215D01*
X019518Y006286D01*
X019649Y006417D01*
X019720Y006588D01*
X019720Y006772D01*
X019649Y006943D01*
X019518Y007074D01*
X019347Y007145D01*
X018513Y007145D01*
X018342Y007074D01*
X018219Y006952D01*
X017900Y007271D01*
X017900Y008589D01*
X018735Y009424D01*
X018735Y009589D01*
X020900Y011754D01*
X020900Y016589D01*
X020960Y016649D01*
X020960Y009771D01*
X020187Y008998D01*
X020048Y008998D01*
X019862Y008812D01*
X019862Y008548D01*
X020048Y008362D01*
X020312Y008362D01*
X020498Y008548D01*
X020498Y008687D01*
X021400Y009589D01*
X021400Y016589D01*
X021771Y016960D01*
X024771Y016960D01*
X024900Y017089D01*
X026400Y018589D01*
X026400Y020219D01*
X026469Y020248D01*
X026612Y020391D01*
X026680Y020554D01*
X026748Y020391D01*
X026891Y020248D01*
X026960Y020219D01*
X026960Y018771D01*
X024589Y016400D01*
X024460Y016271D01*
X024460Y011771D01*
X021589Y008900D01*
X021460Y008771D01*
X021460Y007089D01*
X021960Y006589D01*
X022089Y006460D01*
X022193Y006460D01*
X022211Y006417D01*
X022342Y006286D01*
X022513Y006215D01*
X023347Y006215D01*
X023518Y006286D01*
X023649Y006417D01*
X023720Y006588D01*
X023720Y006772D01*
X023649Y006943D01*
X023518Y007074D01*
X023347Y007145D01*
X022513Y007145D01*
X022342Y007074D01*
X022219Y006952D01*
X021900Y007271D01*
X021900Y008589D01*
X024900Y011589D01*
X024900Y016089D01*
X027400Y018589D01*
X027400Y020219D01*
X027469Y020248D01*
X027612Y020391D01*
X027680Y020554D01*
X027748Y020391D01*
X027891Y020248D01*
X027960Y020219D01*
X027960Y018771D01*
X025089Y015900D01*
X024960Y015771D01*
X024960Y009271D01*
X024589Y008900D01*
X024410Y008900D01*
X024312Y008998D01*
X024048Y008998D01*
X023862Y008812D01*
X023862Y008548D01*
X024048Y008362D01*
X024312Y008362D01*
X024410Y008460D01*
X024771Y008460D01*
X024900Y008589D01*
X025400Y009089D01*
X025400Y015589D01*
X026030Y016219D01*
X026030Y015590D01*
X026091Y015443D01*
X026203Y015331D01*
X026350Y015270D01*
X026510Y015270D01*
X026657Y015331D01*
X026769Y015443D01*
X026830Y015590D01*
X026830Y016270D01*
X026769Y016417D01*
X026657Y016529D01*
X026510Y016590D01*
X026401Y016590D01*
X028400Y018589D01*
X028400Y020219D01*
X028469Y020248D01*
X028612Y020391D01*
X028680Y020554D01*
X028748Y020391D01*
X028891Y020248D01*
X028960Y020219D01*
X028960Y018771D01*
X028589Y018400D01*
X028460Y018271D01*
X028460Y012271D01*
X026589Y010400D01*
X026460Y010271D01*
X026460Y009771D01*
X025589Y008900D01*
X025460Y008771D01*
X025460Y007089D01*
X025960Y006589D01*
X026089Y006460D01*
X026193Y006460D01*
X026211Y006417D01*
X026342Y006286D01*
X026513Y006215D01*
X027347Y006215D01*
X027518Y006286D01*
X027649Y006417D01*
X027720Y006588D01*
X027720Y006772D01*
X027649Y006943D01*
X027518Y007074D01*
X027347Y007145D01*
X026513Y007145D01*
X026342Y007074D01*
X026219Y006952D01*
X025900Y007271D01*
X025900Y008589D01*
X026900Y009589D01*
X026900Y010089D01*
X028900Y012089D01*
X028900Y018089D01*
X029400Y018589D01*
X029400Y020219D01*
X029469Y020248D01*
X029612Y020391D01*
X029680Y020554D01*
X029748Y020391D01*
X029891Y020248D01*
X029960Y020219D01*
X029960Y018771D01*
X029089Y017900D01*
X029089Y017900D01*
X028960Y017771D01*
X028960Y009271D01*
X028589Y008900D01*
X028410Y008900D01*
X028312Y008998D01*
X028048Y008998D01*
X027862Y008812D01*
X027862Y008548D01*
X028048Y008362D01*
X028312Y008362D01*
X028410Y008460D01*
X028771Y008460D01*
X028900Y008589D01*
X029400Y009089D01*
X029400Y017589D01*
X030271Y018460D01*
X030271Y018460D01*
X030400Y018589D01*
X030400Y020219D01*
X030469Y020248D01*
X030612Y020391D01*
X030680Y020554D01*
X030748Y020391D01*
X030891Y020248D01*
X031079Y020170D01*
X031281Y020170D01*
X031469Y020248D01*
X031612Y020391D01*
X031680Y020554D01*
X031748Y020391D01*
X031891Y020248D01*
X031960Y020219D01*
X031960Y017659D01*
X031268Y017659D01*
X031186Y017577D01*
X031186Y017400D01*
X031089Y017400D01*
X030960Y017271D01*
X030960Y012589D01*
X031089Y012460D01*
X031460Y012460D01*
X031460Y009659D01*
X031268Y009659D01*
X031186Y009577D01*
X031186Y008752D01*
X031265Y008672D01*
X031186Y008592D01*
X031186Y007997D01*
X029089Y005900D01*
X027667Y005900D01*
X027649Y005943D01*
X027518Y006074D01*
X027347Y006145D01*
X026513Y006145D01*
X026342Y006074D01*
X026211Y005943D01*
X026193Y005900D01*
X023667Y005900D01*
X023649Y005943D01*
X023518Y006074D01*
X023347Y006145D01*
X022513Y006145D01*
X022342Y006074D01*
X022211Y005943D01*
X022193Y005900D01*
X019667Y005900D01*
X019649Y005943D01*
X019518Y006074D01*
X019347Y006145D01*
X018513Y006145D01*
X018342Y006074D01*
X018211Y005943D01*
X018193Y005900D01*
X015667Y005900D01*
X015649Y005943D01*
X015518Y006074D01*
X015347Y006145D01*
X014513Y006145D01*
X014342Y006074D01*
X014211Y005943D01*
X014193Y005900D01*
X011667Y005900D01*
X011649Y005943D01*
X011518Y006074D01*
X011347Y006145D01*
X010513Y006145D01*
X010342Y006074D01*
X010211Y005943D01*
X010193Y005900D01*
X007667Y005900D01*
X007649Y005943D01*
X007518Y006074D01*
X007347Y006145D01*
X006513Y006145D01*
X006342Y006074D01*
X006219Y005952D01*
X004900Y007271D01*
X004900Y018589D01*
X006882Y020571D01*
X006907Y020581D01*
X007019Y020693D01*
X007080Y020840D01*
X007080Y021520D01*
X007019Y021667D01*
X006907Y021779D01*
X006760Y021840D01*
X006600Y021840D01*
X006453Y021779D01*
X006341Y021667D01*
X006280Y021520D01*
X006280Y020840D01*
X006341Y020693D01*
X006362Y020673D01*
X004589Y018900D01*
X004460Y018771D01*
X004460Y007089D01*
X005960Y005589D01*
X006089Y005460D01*
X006193Y005460D01*
X006211Y005417D01*
X006342Y005286D01*
X006513Y005215D01*
X007347Y005215D01*
X007518Y005286D01*
X007649Y005417D01*
X007667Y005460D01*
X010193Y005460D01*
X010211Y005417D01*
X010342Y005286D01*
X010513Y005215D01*
X011347Y005215D01*
X011518Y005286D01*
X011649Y005417D01*
X011667Y005460D01*
X014193Y005460D01*
X014211Y005417D01*
X014342Y005286D01*
X014513Y005215D01*
X015347Y005215D01*
X015518Y005286D01*
X015649Y005417D01*
X015667Y005460D01*
X018193Y005460D01*
X018211Y005417D01*
X018342Y005286D01*
X018513Y005215D01*
X019347Y005215D01*
X019518Y005286D01*
X019649Y005417D01*
X019667Y005460D01*
X020460Y005460D01*
X020460Y004589D01*
X020589Y004460D01*
X021960Y003089D01*
X021960Y002141D01*
X021891Y002112D01*
X021748Y001969D01*
X021680Y001806D01*
X021612Y001969D01*
X021469Y002112D01*
X021281Y002190D01*
X021079Y002190D01*
X020891Y002112D01*
X020748Y001969D01*
X020680Y001806D01*
X020612Y001969D01*
X020469Y002112D01*
X020281Y002190D01*
X020079Y002190D01*
X019891Y002112D01*
X019748Y001969D01*
X019670Y001781D01*
X019670Y001579D01*
X019748Y001391D01*
X019891Y001248D01*
X020079Y001170D01*
X020281Y001170D01*
X020469Y001248D01*
X020612Y001391D01*
X020680Y001554D01*
X020748Y001391D01*
X020891Y001248D01*
X021079Y001170D01*
X021281Y001170D01*
X021469Y001248D01*
X021612Y001391D01*
X021680Y001554D01*
X021748Y001391D01*
X021891Y001248D01*
X022079Y001170D01*
X022281Y001170D01*
X022469Y001248D01*
X022612Y001391D01*
X022659Y001504D01*
X022670Y001469D01*
X022710Y001392D01*
X022760Y001322D01*
X022822Y001260D01*
X022892Y001210D01*
X022969Y001170D01*
X023051Y001144D01*
X023137Y001130D01*
X023160Y001130D01*
X023160Y001660D01*
X023200Y001660D01*
X023200Y001700D01*
X023160Y001700D01*
X023160Y002230D01*
X023137Y002230D01*
X023051Y002216D01*
X022969Y002190D01*
X022892Y002150D01*
X022822Y002100D01*
X022760Y002038D01*
X022710Y001968D01*
X022670Y001891D01*
X022659Y001856D01*
X022612Y001969D01*
X022469Y002112D01*
X022400Y002141D01*
X022400Y003271D01*
X020900Y004771D01*
X020900Y005460D01*
X022193Y005460D01*
X022211Y005417D01*
X022342Y005286D01*
X022513Y005215D01*
X023347Y005215D01*
X023518Y005286D01*
X023649Y005417D01*
X023667Y005460D01*
X026193Y005460D01*
X026211Y005417D01*
X026342Y005286D01*
X026513Y005215D01*
X027347Y005215D01*
X027518Y005286D01*
X027649Y005417D01*
X027667Y005460D01*
X029271Y005460D01*
X029400Y005589D01*
X031186Y007375D01*
X031186Y006768D01*
X031268Y006686D01*
X032092Y006686D01*
X032174Y006768D01*
X032174Y007592D01*
X032092Y007674D01*
X031485Y007674D01*
X031497Y007686D01*
X032092Y007686D01*
X032174Y007768D01*
X032174Y008592D01*
X032095Y008672D01*
X032174Y008752D01*
X032174Y009577D01*
X032092Y009659D01*
X031900Y009659D01*
X031900Y012646D01*
X032058Y012646D01*
X032104Y012658D01*
X032145Y012682D01*
X032178Y012715D01*
X032202Y012756D01*
X032214Y012802D01*
X032214Y013142D01*
X031718Y013142D01*
X031718Y013218D01*
X032214Y013218D01*
X032214Y013558D01*
X032202Y013604D01*
X032178Y013645D01*
X032145Y013678D01*
X032107Y013700D01*
X032174Y013768D01*
X032174Y014363D01*
X032281Y014470D02*
X033496Y014470D01*
X033496Y014628D02*
X032400Y014628D01*
X032400Y014787D02*
X033496Y014787D01*
X033496Y014945D02*
X032400Y014945D01*
X032400Y015104D02*
X033496Y015104D01*
X033496Y015262D02*
X032400Y015262D01*
X032400Y015421D02*
X033496Y015421D01*
X033496Y015579D02*
X032400Y015579D01*
X032400Y015738D02*
X033496Y015738D01*
X033496Y015896D02*
X032400Y015896D01*
X032400Y016055D02*
X033496Y016055D01*
X033496Y016213D02*
X032400Y016213D01*
X032400Y016372D02*
X033496Y016372D01*
X033496Y016530D02*
X032400Y016530D01*
X032400Y016689D02*
X033496Y016689D01*
X033496Y016847D02*
X032400Y016847D01*
X032400Y017006D02*
X033496Y017006D01*
X033496Y017164D02*
X032400Y017164D01*
X032400Y017323D02*
X033496Y017323D01*
X033496Y017481D02*
X032400Y017481D01*
X032400Y017640D02*
X033496Y017640D01*
X033496Y017798D02*
X032400Y017798D01*
X032400Y017957D02*
X033496Y017957D01*
X033496Y018115D02*
X032400Y018115D01*
X032400Y018274D02*
X033496Y018274D01*
X033496Y018432D02*
X032400Y018432D01*
X032400Y018591D02*
X033496Y018591D01*
X033496Y018749D02*
X032400Y018749D01*
X032400Y018908D02*
X033496Y018908D01*
X033496Y019066D02*
X032400Y019066D01*
X032400Y019225D02*
X033496Y019225D01*
X033496Y019383D02*
X032400Y019383D01*
X032400Y019542D02*
X033496Y019542D01*
X033496Y019700D02*
X032400Y019700D01*
X032400Y019859D02*
X033496Y019859D01*
X033496Y020017D02*
X032400Y020017D01*
X032400Y020176D02*
X033496Y020176D01*
X033496Y020334D02*
X032555Y020334D01*
X032654Y020493D02*
X033496Y020493D01*
X033496Y020651D02*
X032690Y020651D01*
X032678Y020810D02*
X033496Y020810D01*
X033496Y020968D02*
X032613Y020968D01*
X032435Y021127D02*
X033496Y021127D01*
X033496Y021285D02*
X014580Y021285D01*
X014580Y021127D02*
X016425Y021127D01*
X016247Y020968D02*
X014580Y020968D01*
X014580Y020840D02*
X014580Y021520D01*
X014519Y021667D01*
X014407Y021779D01*
X014260Y021840D01*
X014100Y021840D01*
X013953Y021779D01*
X013841Y021667D01*
X013780Y021520D01*
X013780Y020840D01*
X013841Y020693D01*
X013953Y020581D01*
X014100Y020520D01*
X014260Y020520D01*
X014407Y020581D01*
X014519Y020693D01*
X014580Y020840D01*
X014567Y020810D02*
X016182Y020810D01*
X016170Y020651D02*
X014477Y020651D01*
X013883Y020651D02*
X013477Y020651D01*
X013519Y020693D02*
X013580Y020840D01*
X013580Y021520D01*
X013519Y021667D01*
X013407Y021779D01*
X013260Y021840D01*
X013100Y021840D01*
X012953Y021779D01*
X012841Y021667D01*
X012780Y021520D01*
X012780Y020840D01*
X012841Y020693D01*
X012953Y020581D01*
X013100Y020520D01*
X013260Y020520D01*
X013407Y020581D01*
X013519Y020693D01*
X013567Y020810D02*
X013793Y020810D01*
X013780Y020968D02*
X013580Y020968D01*
X013580Y021127D02*
X013780Y021127D01*
X013780Y021285D02*
X013580Y021285D01*
X013580Y021444D02*
X013780Y021444D01*
X013814Y021602D02*
X013546Y021602D01*
X013425Y021761D02*
X013935Y021761D01*
X014425Y021761D02*
X033496Y021761D01*
X033496Y021919D02*
X002360Y021919D01*
X002360Y021761D02*
X006435Y021761D01*
X006314Y021602D02*
X002360Y021602D01*
X002360Y021444D02*
X006280Y021444D01*
X006280Y021285D02*
X002360Y021285D01*
X002360Y021127D02*
X006280Y021127D01*
X006280Y020968D02*
X002360Y020968D01*
X002360Y020810D02*
X006293Y020810D01*
X006340Y020651D02*
X002360Y020651D01*
X002360Y020493D02*
X006181Y020493D01*
X006023Y020334D02*
X002360Y020334D01*
X002360Y020176D02*
X005864Y020176D01*
X005706Y020017D02*
X002360Y020017D01*
X002360Y019859D02*
X005547Y019859D01*
X005389Y019700D02*
X002360Y019700D01*
X002360Y019542D02*
X005230Y019542D01*
X005072Y019383D02*
X002360Y019383D01*
X002360Y019225D02*
X004913Y019225D01*
X004755Y019066D02*
X002360Y019066D01*
X002360Y018908D02*
X004596Y018908D01*
X004460Y018749D02*
X002360Y018749D01*
X002360Y018591D02*
X004460Y018591D01*
X004460Y018432D02*
X002360Y018432D01*
X002360Y018274D02*
X004460Y018274D01*
X004460Y018115D02*
X002360Y018115D01*
X002360Y017957D02*
X004460Y017957D01*
X004460Y017798D02*
X002360Y017798D01*
X002360Y017640D02*
X004460Y017640D01*
X004460Y017481D02*
X002360Y017481D01*
X002360Y017323D02*
X004460Y017323D01*
X004460Y017164D02*
X002360Y017164D01*
X002360Y017006D02*
X004460Y017006D01*
X004460Y016847D02*
X002360Y016847D01*
X002360Y016689D02*
X004460Y016689D01*
X004460Y016530D02*
X002360Y016530D01*
X002360Y016372D02*
X004460Y016372D01*
X004460Y016213D02*
X002360Y016213D01*
X002360Y016055D02*
X004460Y016055D01*
X004460Y015896D02*
X002360Y015896D01*
X002360Y015738D02*
X004460Y015738D01*
X004460Y015579D02*
X002360Y015579D01*
X002360Y015421D02*
X004460Y015421D01*
X004460Y015262D02*
X002360Y015262D01*
X002360Y015104D02*
X004460Y015104D01*
X004460Y014945D02*
X002360Y014945D01*
X002360Y014787D02*
X004460Y014787D01*
X004460Y014628D02*
X002360Y014628D01*
X002360Y014470D02*
X004460Y014470D01*
X004460Y014311D02*
X002360Y014311D01*
X002360Y014153D02*
X004460Y014153D01*
X004460Y013994D02*
X002360Y013994D01*
X002360Y013836D02*
X004460Y013836D01*
X004460Y013677D02*
X002360Y013677D01*
X002360Y013519D02*
X004460Y013519D01*
X004460Y013360D02*
X002360Y013360D01*
X002360Y013202D02*
X004460Y013202D01*
X004460Y013043D02*
X002360Y013043D01*
X002360Y012885D02*
X004460Y012885D01*
X004460Y012726D02*
X002360Y012726D01*
X002360Y012568D02*
X004460Y012568D01*
X004460Y012409D02*
X002360Y012409D01*
X002360Y012251D02*
X004460Y012251D01*
X004460Y012092D02*
X002360Y012092D01*
X002360Y011934D02*
X004460Y011934D01*
X004460Y011775D02*
X002360Y011775D01*
X002360Y011617D02*
X004460Y011617D01*
X004460Y011458D02*
X002360Y011458D01*
X002360Y011300D02*
X004460Y011300D01*
X004460Y011141D02*
X002360Y011141D01*
X002360Y010983D02*
X004460Y010983D01*
X004460Y010824D02*
X002360Y010824D01*
X002360Y010666D02*
X004460Y010666D01*
X004460Y010507D02*
X002360Y010507D01*
X002360Y010349D02*
X004460Y010349D01*
X004460Y010190D02*
X002360Y010190D01*
X002360Y010032D02*
X004460Y010032D01*
X004460Y009873D02*
X002360Y009873D01*
X002360Y009715D02*
X004460Y009715D01*
X004460Y009556D02*
X002360Y009556D01*
X002360Y009398D02*
X004460Y009398D01*
X004460Y009239D02*
X002360Y009239D01*
X002360Y009081D02*
X004460Y009081D01*
X004460Y008922D02*
X002360Y008922D01*
X002360Y008764D02*
X004460Y008764D01*
X004460Y008605D02*
X002360Y008605D01*
X002360Y008447D02*
X004460Y008447D01*
X004460Y008288D02*
X002360Y008288D01*
X002360Y008130D02*
X004460Y008130D01*
X004460Y007971D02*
X002360Y007971D01*
X002360Y007813D02*
X004460Y007813D01*
X004460Y007654D02*
X002360Y007654D01*
X002360Y007496D02*
X004460Y007496D01*
X004460Y007337D02*
X002360Y007337D01*
X002360Y007179D02*
X004460Y007179D01*
X004529Y007020D02*
X002360Y007020D01*
X002360Y006862D02*
X004687Y006862D01*
X004846Y006703D02*
X002360Y006703D01*
X002360Y006545D02*
X005004Y006545D01*
X005163Y006386D02*
X002360Y006386D01*
X002360Y006228D02*
X005321Y006228D01*
X005480Y006069D02*
X002360Y006069D01*
X002360Y005911D02*
X005638Y005911D01*
X005797Y005752D02*
X002360Y005752D01*
X002360Y005594D02*
X005955Y005594D01*
X006180Y005680D02*
X006930Y005680D01*
X010930Y005680D01*
X014930Y005680D01*
X018930Y005680D01*
X020680Y005680D01*
X020680Y004680D01*
X022180Y003180D01*
X022180Y001680D01*
X022535Y001314D02*
X022768Y001314D01*
X022669Y001473D02*
X022646Y001473D01*
X023014Y001156D02*
X002360Y001156D01*
X002360Y001314D02*
X019825Y001314D01*
X019714Y001473D02*
X002360Y001473D01*
X002360Y001631D02*
X019670Y001631D01*
X019673Y001790D02*
X002360Y001790D01*
X002360Y001948D02*
X019739Y001948D01*
X019885Y002107D02*
X002360Y002107D01*
X002360Y002265D02*
X021960Y002265D01*
X021960Y002424D02*
X002360Y002424D01*
X002360Y002582D02*
X021960Y002582D01*
X021960Y002741D02*
X002360Y002741D01*
X002360Y002899D02*
X021960Y002899D01*
X021960Y003058D02*
X002360Y003058D01*
X002360Y003216D02*
X021833Y003216D01*
X021674Y003375D02*
X002360Y003375D01*
X002360Y003533D02*
X021516Y003533D01*
X021357Y003692D02*
X002360Y003692D01*
X002360Y003850D02*
X021199Y003850D01*
X021040Y004009D02*
X002360Y004009D01*
X002360Y004167D02*
X020882Y004167D01*
X020723Y004326D02*
X019240Y004326D01*
X019196Y004282D02*
X019328Y004414D01*
X019400Y004587D01*
X019400Y004773D01*
X019328Y004946D01*
X019196Y005078D01*
X019023Y005150D01*
X018837Y005150D01*
X018664Y005078D01*
X018532Y004946D01*
X018460Y004773D01*
X018460Y004587D01*
X018532Y004414D01*
X018664Y004282D01*
X018837Y004210D01*
X019023Y004210D01*
X019196Y004282D01*
X019358Y004484D02*
X020565Y004484D01*
X020460Y004643D02*
X019400Y004643D01*
X019389Y004801D02*
X020460Y004801D01*
X020460Y004960D02*
X019315Y004960D01*
X019101Y005118D02*
X020460Y005118D01*
X020460Y005277D02*
X019495Y005277D01*
X019656Y005435D02*
X020460Y005435D01*
X020680Y005680D02*
X022930Y005680D01*
X026930Y005680D01*
X029180Y005680D01*
X031680Y008180D01*
X031186Y008130D02*
X027485Y008130D01*
X027519Y008112D02*
X027449Y008148D01*
X027373Y008172D01*
X027295Y008185D01*
X026958Y008185D01*
X026958Y007708D01*
X026902Y007708D01*
X026902Y008185D01*
X026565Y008185D01*
X026487Y008172D01*
X026411Y008148D01*
X026341Y008112D01*
X026276Y008065D01*
X026220Y008009D01*
X026173Y007945D01*
X026137Y007874D01*
X026113Y007798D01*
X026100Y007720D01*
X026100Y007708D01*
X026902Y007708D01*
X026902Y007652D01*
X026958Y007652D01*
X026958Y007708D01*
X027760Y007708D01*
X027760Y007720D01*
X027747Y007798D01*
X027723Y007874D01*
X027687Y007945D01*
X027640Y008009D01*
X027584Y008065D01*
X027519Y008112D01*
X027667Y007971D02*
X031160Y007971D01*
X031001Y007813D02*
X027743Y007813D01*
X027760Y007652D02*
X026958Y007652D01*
X026958Y007175D01*
X027295Y007175D01*
X027373Y007188D01*
X027449Y007212D01*
X027519Y007248D01*
X027584Y007295D01*
X027640Y007351D01*
X027687Y007415D01*
X027723Y007486D01*
X027747Y007562D01*
X027760Y007640D01*
X027760Y007652D01*
X027726Y007496D02*
X030684Y007496D01*
X030843Y007654D02*
X026958Y007654D01*
X026902Y007654D02*
X025900Y007654D01*
X025900Y007496D02*
X026134Y007496D01*
X026137Y007486D02*
X026173Y007415D01*
X026220Y007351D01*
X026276Y007295D01*
X026341Y007248D01*
X026411Y007212D01*
X026487Y007188D01*
X026565Y007175D01*
X026902Y007175D01*
X026902Y007652D01*
X026100Y007652D01*
X026100Y007640D01*
X026113Y007562D01*
X026137Y007486D01*
X026234Y007337D02*
X025900Y007337D01*
X025993Y007179D02*
X026545Y007179D01*
X026288Y007020D02*
X026151Y007020D01*
X026180Y006680D02*
X025680Y007180D01*
X025680Y008680D01*
X026680Y009680D01*
X026680Y010180D01*
X028680Y012180D01*
X028680Y018180D01*
X029180Y018680D01*
X029180Y020680D01*
X029654Y020493D02*
X029706Y020493D01*
X029805Y020334D02*
X029555Y020334D01*
X029400Y020176D02*
X029960Y020176D01*
X029960Y020017D02*
X029400Y020017D01*
X029400Y019859D02*
X029960Y019859D01*
X029960Y019700D02*
X029400Y019700D01*
X029400Y019542D02*
X029960Y019542D01*
X029960Y019383D02*
X029400Y019383D01*
X029400Y019225D02*
X029960Y019225D01*
X029960Y019066D02*
X029400Y019066D01*
X029400Y018908D02*
X029960Y018908D01*
X029938Y018749D02*
X029400Y018749D01*
X029400Y018591D02*
X029779Y018591D01*
X029621Y018432D02*
X029243Y018432D01*
X029085Y018274D02*
X029462Y018274D01*
X029304Y018115D02*
X028926Y018115D01*
X028900Y017957D02*
X029145Y017957D01*
X028987Y017798D02*
X028900Y017798D01*
X028900Y017640D02*
X028960Y017640D01*
X028960Y017481D02*
X028900Y017481D01*
X028900Y017323D02*
X028960Y017323D01*
X028960Y017164D02*
X028900Y017164D01*
X028900Y017006D02*
X028960Y017006D01*
X028960Y016847D02*
X028900Y016847D01*
X028900Y016689D02*
X028960Y016689D01*
X028960Y016530D02*
X028900Y016530D01*
X028900Y016372D02*
X028960Y016372D01*
X028960Y016213D02*
X028900Y016213D01*
X028900Y016055D02*
X028960Y016055D01*
X028960Y015896D02*
X028900Y015896D01*
X028900Y015738D02*
X028960Y015738D01*
X028960Y015579D02*
X028900Y015579D01*
X028900Y015421D02*
X028960Y015421D01*
X028960Y015262D02*
X028900Y015262D01*
X028900Y015104D02*
X028960Y015104D01*
X028960Y014945D02*
X028900Y014945D01*
X028900Y014787D02*
X028960Y014787D01*
X028960Y014628D02*
X028900Y014628D01*
X028900Y014470D02*
X028960Y014470D01*
X028960Y014311D02*
X028900Y014311D01*
X028900Y014153D02*
X028960Y014153D01*
X028960Y013994D02*
X028900Y013994D01*
X028900Y013836D02*
X028960Y013836D01*
X028960Y013677D02*
X028900Y013677D01*
X028900Y013519D02*
X028960Y013519D01*
X028960Y013360D02*
X028900Y013360D01*
X028900Y013202D02*
X028960Y013202D01*
X028960Y013043D02*
X028900Y013043D01*
X028900Y012885D02*
X028960Y012885D01*
X028960Y012726D02*
X028900Y012726D01*
X028900Y012568D02*
X028960Y012568D01*
X028960Y012409D02*
X028900Y012409D01*
X028900Y012251D02*
X028960Y012251D01*
X028960Y012092D02*
X028900Y012092D01*
X028960Y011934D02*
X028745Y011934D01*
X028586Y011775D02*
X028960Y011775D01*
X028960Y011617D02*
X028428Y011617D01*
X028269Y011458D02*
X028960Y011458D01*
X028960Y011300D02*
X028111Y011300D01*
X027952Y011141D02*
X028960Y011141D01*
X028960Y010983D02*
X027794Y010983D01*
X027635Y010824D02*
X028960Y010824D01*
X028960Y010666D02*
X027477Y010666D01*
X027318Y010507D02*
X028960Y010507D01*
X028960Y010349D02*
X027160Y010349D01*
X027001Y010190D02*
X028960Y010190D01*
X028960Y010032D02*
X026900Y010032D01*
X026900Y009873D02*
X028960Y009873D01*
X028960Y009715D02*
X026900Y009715D01*
X026867Y009556D02*
X028960Y009556D01*
X028960Y009398D02*
X026709Y009398D01*
X026550Y009239D02*
X028928Y009239D01*
X028769Y009081D02*
X027191Y009081D01*
X027196Y009078D02*
X027023Y009150D01*
X026837Y009150D01*
X026664Y009078D01*
X026532Y008946D01*
X026460Y008773D01*
X026460Y008587D01*
X026532Y008414D01*
X026664Y008282D01*
X026837Y008210D01*
X027023Y008210D01*
X027196Y008282D01*
X027328Y008414D01*
X027400Y008587D01*
X027400Y008773D01*
X027328Y008946D01*
X027196Y009078D01*
X027338Y008922D02*
X027972Y008922D01*
X027862Y008764D02*
X027400Y008764D01*
X027400Y008605D02*
X027862Y008605D01*
X027964Y008447D02*
X027342Y008447D01*
X027203Y008288D02*
X031186Y008288D01*
X031186Y008447D02*
X028396Y008447D01*
X028180Y008680D02*
X028680Y008680D01*
X029180Y009180D01*
X029180Y017680D01*
X030180Y018680D01*
X030180Y020680D01*
X030555Y020334D02*
X030805Y020334D01*
X030706Y020493D02*
X030654Y020493D01*
X030400Y020176D02*
X031065Y020176D01*
X031295Y020176D02*
X031960Y020176D01*
X031960Y020017D02*
X030400Y020017D01*
X030400Y019859D02*
X031960Y019859D01*
X031960Y019700D02*
X030400Y019700D01*
X030400Y019542D02*
X031960Y019542D01*
X031960Y019383D02*
X030400Y019383D01*
X030400Y019225D02*
X031960Y019225D01*
X031960Y019066D02*
X030400Y019066D01*
X030400Y018908D02*
X031960Y018908D01*
X031960Y018749D02*
X030400Y018749D01*
X030400Y018591D02*
X031960Y018591D01*
X031960Y018432D02*
X030243Y018432D01*
X030085Y018274D02*
X031960Y018274D01*
X031960Y018115D02*
X029926Y018115D01*
X029768Y017957D02*
X031960Y017957D01*
X031960Y017798D02*
X029609Y017798D01*
X029451Y017640D02*
X031249Y017640D01*
X031186Y017481D02*
X029400Y017481D01*
X029400Y017323D02*
X031011Y017323D01*
X030960Y017164D02*
X029400Y017164D01*
X029400Y017006D02*
X030960Y017006D01*
X030960Y016847D02*
X029400Y016847D01*
X029400Y016689D02*
X030960Y016689D01*
X030960Y016530D02*
X029400Y016530D01*
X029400Y016372D02*
X030960Y016372D01*
X030960Y016213D02*
X029400Y016213D01*
X029400Y016055D02*
X030960Y016055D01*
X030960Y015896D02*
X029400Y015896D01*
X029400Y015738D02*
X030960Y015738D01*
X030960Y015579D02*
X029400Y015579D01*
X029400Y015421D02*
X030960Y015421D01*
X030960Y015262D02*
X029400Y015262D01*
X029400Y015104D02*
X030960Y015104D01*
X030960Y014945D02*
X029400Y014945D01*
X029400Y014787D02*
X030960Y014787D01*
X030960Y014628D02*
X029400Y014628D01*
X029400Y014470D02*
X030960Y014470D01*
X030960Y014311D02*
X029400Y014311D01*
X029400Y014153D02*
X030960Y014153D01*
X030960Y013994D02*
X029400Y013994D01*
X029400Y013836D02*
X030960Y013836D01*
X030960Y013677D02*
X029400Y013677D01*
X029400Y013519D02*
X030960Y013519D01*
X030960Y013360D02*
X029400Y013360D01*
X029400Y013202D02*
X030960Y013202D01*
X030960Y013043D02*
X029400Y013043D01*
X029400Y012885D02*
X030960Y012885D01*
X030960Y012726D02*
X029400Y012726D01*
X029400Y012568D02*
X030981Y012568D01*
X031180Y012680D02*
X031180Y017180D01*
X031680Y017180D01*
X031680Y017164D01*
X028938Y018749D02*
X028400Y018749D01*
X028400Y018591D02*
X028779Y018591D01*
X028621Y018432D02*
X028243Y018432D01*
X028085Y018274D02*
X028462Y018274D01*
X028460Y018115D02*
X027926Y018115D01*
X027768Y017957D02*
X028460Y017957D01*
X028460Y017798D02*
X027609Y017798D01*
X027451Y017640D02*
X028460Y017640D01*
X028460Y017481D02*
X027292Y017481D01*
X027134Y017323D02*
X028460Y017323D01*
X028460Y017164D02*
X026975Y017164D01*
X026817Y017006D02*
X028460Y017006D01*
X028460Y016847D02*
X026658Y016847D01*
X026500Y016689D02*
X028460Y016689D01*
X028460Y016530D02*
X027711Y016530D01*
X027717Y016526D02*
X027661Y016566D01*
X027599Y016598D01*
X027533Y016619D01*
X027465Y016630D01*
X027430Y016630D01*
X027430Y015930D01*
X027870Y015930D01*
X027870Y016225D01*
X027859Y016293D01*
X027838Y016359D01*
X027806Y016421D01*
X027766Y016477D01*
X027717Y016526D01*
X027831Y016372D02*
X028460Y016372D01*
X028460Y016213D02*
X027870Y016213D01*
X027870Y016055D02*
X028460Y016055D01*
X028460Y015896D02*
X027870Y015896D01*
X027870Y015930D02*
X027430Y015930D01*
X027430Y015930D01*
X027430Y015930D01*
X027430Y015230D01*
X027465Y015230D01*
X027533Y015241D01*
X027599Y015262D01*
X027661Y015294D01*
X027717Y015334D01*
X027766Y015383D01*
X027806Y015439D01*
X027838Y015501D01*
X027859Y015567D01*
X027870Y015635D01*
X027870Y015930D01*
X027870Y015738D02*
X028460Y015738D01*
X028460Y015579D02*
X027861Y015579D01*
X027793Y015421D02*
X028460Y015421D01*
X028460Y015262D02*
X027598Y015262D01*
X027430Y015262D02*
X027430Y015262D01*
X027430Y015230D02*
X027430Y015930D01*
X027430Y015930D01*
X027430Y015930D01*
X026990Y015930D01*
X026990Y016225D01*
X027001Y016293D01*
X027022Y016359D01*
X027054Y016421D01*
X027094Y016477D01*
X027143Y016526D01*
X027199Y016566D01*
X027261Y016598D01*
X027327Y016619D01*
X027395Y016630D01*
X027430Y016630D01*
X027430Y015930D01*
X026990Y015930D01*
X026990Y015635D01*
X027001Y015567D01*
X027022Y015501D01*
X027054Y015439D01*
X027094Y015383D01*
X027143Y015334D01*
X027199Y015294D01*
X027261Y015262D01*
X027327Y015241D01*
X027395Y015230D01*
X027430Y015230D01*
X027262Y015262D02*
X025400Y015262D01*
X025400Y015104D02*
X028460Y015104D01*
X028460Y014945D02*
X025400Y014945D01*
X025400Y014787D02*
X028460Y014787D01*
X028460Y014628D02*
X025400Y014628D01*
X025400Y014470D02*
X028460Y014470D01*
X028460Y014311D02*
X025400Y014311D01*
X025400Y014153D02*
X028460Y014153D01*
X028460Y013994D02*
X025400Y013994D01*
X025400Y013836D02*
X028460Y013836D01*
X028460Y013677D02*
X025400Y013677D01*
X025400Y013519D02*
X026193Y013519D01*
X026203Y013529D02*
X026091Y013417D01*
X026030Y013270D01*
X026030Y012590D01*
X026091Y012443D01*
X026203Y012331D01*
X026350Y012270D01*
X026510Y012270D01*
X026657Y012331D01*
X026769Y012443D01*
X026830Y012590D01*
X026830Y013270D01*
X026769Y013417D01*
X026657Y013529D01*
X026510Y013590D01*
X026350Y013590D01*
X026203Y013529D01*
X026067Y013360D02*
X025400Y013360D01*
X025400Y013202D02*
X026030Y013202D01*
X026030Y013043D02*
X025400Y013043D01*
X025400Y012885D02*
X026030Y012885D01*
X026030Y012726D02*
X025400Y012726D01*
X025400Y012568D02*
X026039Y012568D01*
X026125Y012409D02*
X025400Y012409D01*
X025400Y012251D02*
X027297Y012251D01*
X027327Y012241D02*
X027395Y012230D01*
X027430Y012230D01*
X027465Y012230D01*
X027533Y012241D01*
X027599Y012262D01*
X027661Y012294D01*
X027717Y012334D01*
X027766Y012383D01*
X027806Y012439D01*
X027838Y012501D01*
X027859Y012567D01*
X027870Y012635D01*
X027870Y012930D01*
X027870Y013225D01*
X027859Y013293D01*
X027838Y013359D01*
X027806Y013421D01*
X027766Y013477D01*
X027717Y013526D01*
X027661Y013566D01*
X027599Y013598D01*
X027533Y013619D01*
X027465Y013630D01*
X027430Y013630D01*
X027430Y012930D01*
X027870Y012930D01*
X027430Y012930D01*
X027430Y012930D01*
X027430Y012930D01*
X027430Y012230D01*
X027430Y012930D01*
X027430Y012930D01*
X027430Y012930D01*
X026990Y012930D01*
X026990Y013225D01*
X027001Y013293D01*
X027022Y013359D01*
X027054Y013421D01*
X027094Y013477D01*
X027143Y013526D01*
X027199Y013566D01*
X027261Y013598D01*
X027327Y013619D01*
X027395Y013630D01*
X027430Y013630D01*
X027430Y012930D01*
X026990Y012930D01*
X026990Y012635D01*
X027001Y012567D01*
X027022Y012501D01*
X027054Y012439D01*
X027094Y012383D01*
X027143Y012334D01*
X027199Y012294D01*
X027261Y012262D01*
X027327Y012241D01*
X027430Y012251D02*
X027430Y012251D01*
X027563Y012251D02*
X028439Y012251D01*
X028460Y012409D02*
X027784Y012409D01*
X027859Y012568D02*
X028460Y012568D01*
X028460Y012726D02*
X027870Y012726D01*
X027870Y012885D02*
X028460Y012885D01*
X028460Y013043D02*
X027870Y013043D01*
X027870Y013202D02*
X028460Y013202D01*
X028460Y013360D02*
X027837Y013360D01*
X027724Y013519D02*
X028460Y013519D01*
X027430Y013519D02*
X027430Y013519D01*
X027430Y013360D02*
X027430Y013360D01*
X027430Y013202D02*
X027430Y013202D01*
X027430Y013043D02*
X027430Y013043D01*
X027430Y012885D02*
X027430Y012885D01*
X027430Y012726D02*
X027430Y012726D01*
X027430Y012568D02*
X027430Y012568D01*
X027430Y012409D02*
X027430Y012409D01*
X027076Y012409D02*
X026735Y012409D01*
X026821Y012568D02*
X027001Y012568D01*
X026990Y012726D02*
X026830Y012726D01*
X026830Y012885D02*
X026990Y012885D01*
X026990Y013043D02*
X026830Y013043D01*
X026830Y013202D02*
X026990Y013202D01*
X027023Y013360D02*
X026793Y013360D01*
X026667Y013519D02*
X027136Y013519D01*
X028281Y012092D02*
X025400Y012092D01*
X025400Y011934D02*
X028122Y011934D01*
X027964Y011775D02*
X025400Y011775D01*
X025400Y011617D02*
X027805Y011617D01*
X027647Y011458D02*
X025400Y011458D01*
X025400Y011300D02*
X027488Y011300D01*
X027330Y011141D02*
X025400Y011141D01*
X025400Y010983D02*
X027171Y010983D01*
X027013Y010824D02*
X025400Y010824D01*
X025400Y010666D02*
X026854Y010666D01*
X026696Y010507D02*
X025400Y010507D01*
X025400Y010349D02*
X026537Y010349D01*
X026460Y010190D02*
X025400Y010190D01*
X025400Y010032D02*
X026460Y010032D01*
X026460Y009873D02*
X025400Y009873D01*
X025400Y009715D02*
X026403Y009715D01*
X026245Y009556D02*
X025400Y009556D01*
X025400Y009398D02*
X026086Y009398D01*
X025928Y009239D02*
X025400Y009239D01*
X025392Y009081D02*
X025769Y009081D01*
X025611Y008922D02*
X025233Y008922D01*
X025075Y008764D02*
X025460Y008764D01*
X025460Y008605D02*
X024916Y008605D01*
X024680Y008680D02*
X024180Y008680D01*
X024396Y008447D02*
X025460Y008447D01*
X025460Y008288D02*
X023203Y008288D01*
X023196Y008282D02*
X023328Y008414D01*
X023400Y008587D01*
X023400Y008773D01*
X023328Y008946D01*
X023196Y009078D01*
X023023Y009150D01*
X022837Y009150D01*
X022664Y009078D01*
X022532Y008946D01*
X022460Y008773D01*
X022460Y008587D01*
X022532Y008414D01*
X022664Y008282D01*
X022837Y008210D01*
X023023Y008210D01*
X023196Y008282D01*
X023295Y008185D02*
X022958Y008185D01*
X022958Y007708D01*
X022902Y007708D01*
X022902Y008185D01*
X022565Y008185D01*
X022487Y008172D01*
X022411Y008148D01*
X022341Y008112D01*
X022276Y008065D01*
X022220Y008009D01*
X022173Y007945D01*
X022137Y007874D01*
X022113Y007798D01*
X022100Y007720D01*
X022100Y007708D01*
X022902Y007708D01*
X022902Y007652D01*
X022958Y007652D01*
X022958Y007708D01*
X023760Y007708D01*
X023760Y007720D01*
X023747Y007798D01*
X023723Y007874D01*
X023687Y007945D01*
X023640Y008009D01*
X023584Y008065D01*
X023519Y008112D01*
X023449Y008148D01*
X023373Y008172D01*
X023295Y008185D01*
X023485Y008130D02*
X025460Y008130D01*
X025460Y007971D02*
X023667Y007971D01*
X023743Y007813D02*
X025460Y007813D01*
X025460Y007654D02*
X022958Y007654D01*
X022958Y007652D02*
X023760Y007652D01*
X023760Y007640D01*
X023747Y007562D01*
X023723Y007486D01*
X023687Y007415D01*
X023640Y007351D01*
X023584Y007295D01*
X023519Y007248D01*
X023449Y007212D01*
X023373Y007188D01*
X023295Y007175D01*
X022958Y007175D01*
X022958Y007652D01*
X022902Y007652D02*
X022902Y007175D01*
X022565Y007175D01*
X022487Y007188D01*
X022411Y007212D01*
X022341Y007248D01*
X022276Y007295D01*
X022220Y007351D01*
X022173Y007415D01*
X022137Y007486D01*
X022113Y007562D01*
X022100Y007640D01*
X022100Y007652D01*
X022902Y007652D01*
X022902Y007654D02*
X021900Y007654D01*
X021900Y007496D02*
X022134Y007496D01*
X022234Y007337D02*
X021900Y007337D01*
X021993Y007179D02*
X022545Y007179D01*
X022288Y007020D02*
X022151Y007020D01*
X022180Y006680D02*
X022930Y006680D01*
X023572Y007020D02*
X025529Y007020D01*
X025460Y007179D02*
X023315Y007179D01*
X023626Y007337D02*
X025460Y007337D01*
X025460Y007496D02*
X023726Y007496D01*
X023683Y006862D02*
X025687Y006862D01*
X025846Y006703D02*
X023720Y006703D01*
X023702Y006545D02*
X026004Y006545D01*
X026180Y006680D02*
X026930Y006680D01*
X027180Y006680D01*
X027572Y007020D02*
X030209Y007020D01*
X030367Y007179D02*
X027315Y007179D01*
X027626Y007337D02*
X030526Y007337D01*
X030831Y007020D02*
X031186Y007020D01*
X031186Y006862D02*
X030673Y006862D01*
X030514Y006703D02*
X031250Y006703D01*
X031268Y006674D02*
X031186Y006592D01*
X031186Y005997D01*
X027350Y002161D01*
X027281Y002190D01*
X027079Y002190D01*
X026891Y002112D01*
X026748Y001969D01*
X026670Y001781D01*
X026670Y001579D01*
X026748Y001391D01*
X026891Y001248D01*
X027079Y001170D01*
X027281Y001170D01*
X027469Y001248D01*
X027612Y001391D01*
X027680Y001554D01*
X027748Y001391D01*
X027891Y001248D01*
X028079Y001170D01*
X028281Y001170D01*
X028469Y001248D01*
X028612Y001391D01*
X028680Y001554D01*
X028748Y001391D01*
X028891Y001248D01*
X029079Y001170D01*
X029281Y001170D01*
X029469Y001248D01*
X029612Y001391D01*
X029680Y001554D01*
X029748Y001391D01*
X029891Y001248D01*
X030079Y001170D01*
X030281Y001170D01*
X030469Y001248D01*
X030612Y001391D01*
X030680Y001554D01*
X030748Y001391D01*
X030891Y001248D01*
X031079Y001170D01*
X031281Y001170D01*
X031469Y001248D01*
X031612Y001391D01*
X031680Y001554D01*
X031748Y001391D01*
X031891Y001248D01*
X032079Y001170D01*
X032281Y001170D01*
X032469Y001248D01*
X032612Y001391D01*
X032690Y001579D01*
X032690Y001781D01*
X032612Y001969D01*
X032469Y002112D01*
X032281Y002190D01*
X032079Y002190D01*
X031891Y002112D01*
X031748Y001969D01*
X031680Y001806D01*
X031612Y001969D01*
X031469Y002112D01*
X031281Y002190D01*
X031079Y002190D01*
X030891Y002112D01*
X030748Y001969D01*
X030680Y001806D01*
X030612Y001969D01*
X030469Y002112D01*
X030281Y002190D01*
X030079Y002190D01*
X029891Y002112D01*
X029748Y001969D01*
X029680Y001806D01*
X029612Y001969D01*
X029469Y002112D01*
X029281Y002190D01*
X029079Y002190D01*
X028891Y002112D01*
X028748Y001969D01*
X028680Y001806D01*
X028612Y001969D01*
X028469Y002112D01*
X028281Y002190D01*
X028079Y002190D01*
X027946Y002135D01*
X031146Y005335D01*
X031146Y005218D01*
X031642Y005218D01*
X031642Y005142D01*
X031718Y005142D01*
X031718Y005218D01*
X032214Y005218D01*
X032214Y005558D01*
X032202Y005604D01*
X032178Y005645D01*
X032145Y005678D01*
X032107Y005700D01*
X032174Y005768D01*
X032174Y006592D01*
X032092Y006674D01*
X031268Y006674D01*
X031186Y006545D02*
X030356Y006545D01*
X030197Y006386D02*
X031186Y006386D01*
X031186Y006228D02*
X030039Y006228D01*
X029880Y006069D02*
X031186Y006069D01*
X031099Y005911D02*
X029722Y005911D01*
X029563Y005752D02*
X030941Y005752D01*
X030782Y005594D02*
X029405Y005594D01*
X029099Y005911D02*
X027662Y005911D01*
X027523Y006069D02*
X029258Y006069D01*
X029416Y006228D02*
X027377Y006228D01*
X027618Y006386D02*
X029575Y006386D01*
X029733Y006545D02*
X027702Y006545D01*
X027720Y006703D02*
X029892Y006703D01*
X030050Y006862D02*
X027683Y006862D01*
X026958Y007179D02*
X026902Y007179D01*
X026902Y007337D02*
X026958Y007337D01*
X026958Y007496D02*
X026902Y007496D01*
X026902Y007813D02*
X026958Y007813D01*
X026958Y007971D02*
X026902Y007971D01*
X026902Y008130D02*
X026958Y008130D01*
X026657Y008288D02*
X025900Y008288D01*
X025900Y008130D02*
X026375Y008130D01*
X026193Y007971D02*
X025900Y007971D01*
X025900Y007813D02*
X026117Y007813D01*
X025900Y008447D02*
X026518Y008447D01*
X026460Y008605D02*
X025916Y008605D01*
X026075Y008764D02*
X026460Y008764D01*
X026522Y008922D02*
X026233Y008922D01*
X026392Y009081D02*
X026669Y009081D01*
X025180Y009180D02*
X024680Y008680D01*
X024611Y008922D02*
X024388Y008922D01*
X024769Y009081D02*
X023191Y009081D01*
X023338Y008922D02*
X023972Y008922D01*
X023862Y008764D02*
X023400Y008764D01*
X023400Y008605D02*
X023862Y008605D01*
X023964Y008447D02*
X023342Y008447D01*
X022958Y008130D02*
X022902Y008130D01*
X022902Y007971D02*
X022958Y007971D01*
X022958Y007813D02*
X022902Y007813D01*
X022902Y007496D02*
X022958Y007496D01*
X022958Y007337D02*
X022902Y007337D01*
X022902Y007179D02*
X022958Y007179D01*
X022180Y006680D02*
X021680Y007180D01*
X021680Y008680D01*
X024680Y011680D01*
X024680Y016180D01*
X027180Y018680D01*
X027180Y020680D01*
X026706Y020493D02*
X026654Y020493D01*
X026555Y020334D02*
X026805Y020334D01*
X026960Y020176D02*
X026400Y020176D01*
X026400Y020017D02*
X026960Y020017D01*
X026960Y019859D02*
X026400Y019859D01*
X026400Y019700D02*
X026960Y019700D01*
X026960Y019542D02*
X026400Y019542D01*
X026400Y019383D02*
X026960Y019383D01*
X026960Y019225D02*
X026400Y019225D01*
X026400Y019066D02*
X026960Y019066D01*
X026960Y018908D02*
X026400Y018908D01*
X026400Y018749D02*
X026938Y018749D01*
X026779Y018591D02*
X026400Y018591D01*
X026243Y018432D02*
X026621Y018432D01*
X026462Y018274D02*
X026085Y018274D01*
X025926Y018115D02*
X026304Y018115D01*
X026145Y017957D02*
X025768Y017957D01*
X025609Y017798D02*
X025987Y017798D01*
X025828Y017640D02*
X025451Y017640D01*
X025292Y017481D02*
X025670Y017481D01*
X025511Y017323D02*
X025134Y017323D01*
X024975Y017164D02*
X025353Y017164D01*
X025194Y017006D02*
X024817Y017006D01*
X024680Y017180D02*
X021680Y017180D01*
X021180Y016680D01*
X021180Y009680D01*
X020180Y008680D01*
X020396Y008447D02*
X021460Y008447D01*
X021460Y008605D02*
X020498Y008605D01*
X020575Y008764D02*
X021460Y008764D01*
X021611Y008922D02*
X020733Y008922D01*
X020892Y009081D02*
X021769Y009081D01*
X021928Y009239D02*
X021050Y009239D01*
X021209Y009398D02*
X022086Y009398D01*
X022245Y009556D02*
X021367Y009556D01*
X021400Y009715D02*
X022403Y009715D01*
X022562Y009873D02*
X021400Y009873D01*
X021400Y010032D02*
X022720Y010032D01*
X022879Y010190D02*
X021400Y010190D01*
X021400Y010349D02*
X023037Y010349D01*
X023196Y010507D02*
X021400Y010507D01*
X021400Y010666D02*
X023354Y010666D01*
X023513Y010824D02*
X021400Y010824D01*
X021400Y010983D02*
X023671Y010983D01*
X023830Y011141D02*
X021400Y011141D01*
X021400Y011300D02*
X023988Y011300D01*
X024147Y011458D02*
X021400Y011458D01*
X021400Y011617D02*
X024305Y011617D01*
X024460Y011775D02*
X021400Y011775D01*
X021400Y011934D02*
X024460Y011934D01*
X024460Y012092D02*
X021400Y012092D01*
X021400Y012251D02*
X023297Y012251D01*
X023327Y012241D02*
X023395Y012230D01*
X023430Y012230D01*
X023465Y012230D01*
X023533Y012241D01*
X023599Y012262D01*
X023661Y012294D01*
X023717Y012334D01*
X023766Y012383D01*
X023806Y012439D01*
X023838Y012501D01*
X023859Y012567D01*
X023870Y012635D01*
X023870Y012930D01*
X023870Y013225D01*
X023859Y013293D01*
X023838Y013359D01*
X023806Y013421D01*
X023766Y013477D01*
X023717Y013526D01*
X023661Y013566D01*
X023599Y013598D01*
X023533Y013619D01*
X023465Y013630D01*
X023430Y013630D01*
X023430Y012930D01*
X023870Y012930D01*
X023430Y012930D01*
X023430Y012930D01*
X023430Y012930D01*
X023430Y012230D01*
X023430Y012930D01*
X023430Y012930D01*
X023430Y012930D01*
X022990Y012930D01*
X022990Y013225D01*
X023001Y013293D01*
X023022Y013359D01*
X023054Y013421D01*
X023094Y013477D01*
X023143Y013526D01*
X023199Y013566D01*
X023261Y013598D01*
X023327Y013619D01*
X023395Y013630D01*
X023430Y013630D01*
X023430Y012930D01*
X022990Y012930D01*
X022990Y012635D01*
X023001Y012567D01*
X023022Y012501D01*
X023054Y012439D01*
X023094Y012383D01*
X023143Y012334D01*
X023199Y012294D01*
X023261Y012262D01*
X023327Y012241D01*
X023430Y012251D02*
X023430Y012251D01*
X023563Y012251D02*
X024460Y012251D01*
X024460Y012409D02*
X023784Y012409D01*
X023859Y012568D02*
X024460Y012568D01*
X024460Y012726D02*
X023870Y012726D01*
X023870Y012885D02*
X024460Y012885D01*
X024460Y013043D02*
X023870Y013043D01*
X023870Y013202D02*
X024460Y013202D01*
X024460Y013360D02*
X023837Y013360D01*
X023724Y013519D02*
X024460Y013519D01*
X024460Y013677D02*
X021400Y013677D01*
X021400Y013519D02*
X022193Y013519D01*
X022203Y013529D02*
X022091Y013417D01*
X022030Y013270D01*
X022030Y012590D01*
X022091Y012443D01*
X022203Y012331D01*
X022350Y012270D01*
X022510Y012270D01*
X022657Y012331D01*
X022769Y012443D01*
X022830Y012590D01*
X022830Y013270D01*
X022769Y013417D01*
X022657Y013529D01*
X022510Y013590D01*
X022350Y013590D01*
X022203Y013529D01*
X022067Y013360D02*
X021400Y013360D01*
X021400Y013202D02*
X022030Y013202D01*
X022030Y013043D02*
X021400Y013043D01*
X021400Y012885D02*
X022030Y012885D01*
X022030Y012726D02*
X021400Y012726D01*
X021400Y012568D02*
X022039Y012568D01*
X022125Y012409D02*
X021400Y012409D01*
X020960Y012409D02*
X020900Y012409D01*
X020900Y012251D02*
X020960Y012251D01*
X020960Y012092D02*
X020900Y012092D01*
X020900Y011934D02*
X020960Y011934D01*
X020960Y011775D02*
X020900Y011775D01*
X020960Y011617D02*
X020762Y011617D01*
X020604Y011458D02*
X020960Y011458D01*
X020960Y011300D02*
X020445Y011300D01*
X020287Y011141D02*
X020960Y011141D01*
X020960Y010983D02*
X020128Y010983D01*
X019970Y010824D02*
X020960Y010824D01*
X020960Y010666D02*
X019811Y010666D01*
X019653Y010507D02*
X020960Y010507D01*
X020960Y010349D02*
X019494Y010349D01*
X019336Y010190D02*
X020960Y010190D01*
X020960Y010032D02*
X019177Y010032D01*
X019019Y009873D02*
X020960Y009873D01*
X020903Y009715D02*
X018860Y009715D01*
X018735Y009556D02*
X020745Y009556D01*
X020586Y009398D02*
X018709Y009398D01*
X018550Y009239D02*
X020428Y009239D01*
X020269Y009081D02*
X019191Y009081D01*
X019196Y009078D02*
X019023Y009150D01*
X018837Y009150D01*
X018664Y009078D01*
X018532Y008946D01*
X018460Y008773D01*
X018460Y008587D01*
X018532Y008414D01*
X018664Y008282D01*
X018837Y008210D01*
X019023Y008210D01*
X019196Y008282D01*
X019328Y008414D01*
X019400Y008587D01*
X019400Y008773D01*
X019328Y008946D01*
X019196Y009078D01*
X019338Y008922D02*
X019972Y008922D01*
X019862Y008764D02*
X019400Y008764D01*
X019400Y008605D02*
X019862Y008605D01*
X019964Y008447D02*
X019342Y008447D01*
X019203Y008288D02*
X021460Y008288D01*
X021460Y008130D02*
X019485Y008130D01*
X019519Y008112D02*
X019449Y008148D01*
X019373Y008172D01*
X019295Y008185D01*
X018958Y008185D01*
X018958Y007708D01*
X018902Y007708D01*
X018902Y008185D01*
X018565Y008185D01*
X018487Y008172D01*
X018411Y008148D01*
X018341Y008112D01*
X018276Y008065D01*
X018220Y008009D01*
X018173Y007945D01*
X018137Y007874D01*
X018113Y007798D01*
X018100Y007720D01*
X018100Y007708D01*
X018902Y007708D01*
X018902Y007652D01*
X018958Y007652D01*
X018958Y007708D01*
X019760Y007708D01*
X019760Y007720D01*
X019747Y007798D01*
X019723Y007874D01*
X019687Y007945D01*
X019640Y008009D01*
X019584Y008065D01*
X019519Y008112D01*
X019667Y007971D02*
X021460Y007971D01*
X021460Y007813D02*
X019743Y007813D01*
X019760Y007652D02*
X018958Y007652D01*
X018958Y007175D01*
X019295Y007175D01*
X019373Y007188D01*
X019449Y007212D01*
X019519Y007248D01*
X019584Y007295D01*
X019640Y007351D01*
X019687Y007415D01*
X019723Y007486D01*
X019747Y007562D01*
X019760Y007640D01*
X019760Y007652D01*
X019726Y007496D02*
X021460Y007496D01*
X021460Y007654D02*
X018958Y007654D01*
X018902Y007654D02*
X017900Y007654D01*
X017900Y007496D02*
X018134Y007496D01*
X018137Y007486D02*
X018173Y007415D01*
X018220Y007351D01*
X018276Y007295D01*
X018341Y007248D01*
X018411Y007212D01*
X018487Y007188D01*
X018565Y007175D01*
X018902Y007175D01*
X018902Y007652D01*
X018100Y007652D01*
X018100Y007640D01*
X018113Y007562D01*
X018137Y007486D01*
X018234Y007337D02*
X017900Y007337D01*
X017993Y007179D02*
X018545Y007179D01*
X018288Y007020D02*
X018151Y007020D01*
X018180Y006680D02*
X018930Y006680D01*
X018902Y007179D02*
X018958Y007179D01*
X018958Y007337D02*
X018902Y007337D01*
X018902Y007496D02*
X018958Y007496D01*
X018958Y007813D02*
X018902Y007813D01*
X018902Y007971D02*
X018958Y007971D01*
X018958Y008130D02*
X018902Y008130D01*
X018657Y008288D02*
X017900Y008288D01*
X017900Y008130D02*
X018375Y008130D01*
X018193Y007971D02*
X017900Y007971D01*
X017900Y007813D02*
X018117Y007813D01*
X017460Y007813D02*
X015743Y007813D01*
X015747Y007798D02*
X015723Y007874D01*
X015687Y007945D01*
X015640Y008009D01*
X015584Y008065D01*
X015519Y008112D01*
X015449Y008148D01*
X015373Y008172D01*
X015295Y008185D01*
X014958Y008185D01*
X014958Y007708D01*
X014902Y007708D01*
X014902Y008185D01*
X014565Y008185D01*
X014487Y008172D01*
X014411Y008148D01*
X014341Y008112D01*
X014276Y008065D01*
X014220Y008009D01*
X014173Y007945D01*
X014137Y007874D01*
X014113Y007798D01*
X014100Y007720D01*
X014100Y007708D01*
X014902Y007708D01*
X014902Y007652D01*
X014958Y007652D01*
X014958Y007708D01*
X015760Y007708D01*
X015760Y007720D01*
X015747Y007798D01*
X015760Y007652D02*
X014958Y007652D01*
X014958Y007175D01*
X015295Y007175D01*
X015373Y007188D01*
X015449Y007212D01*
X015519Y007248D01*
X015584Y007295D01*
X015640Y007351D01*
X015687Y007415D01*
X015723Y007486D01*
X015747Y007562D01*
X015760Y007640D01*
X015760Y007652D01*
X015726Y007496D02*
X017460Y007496D01*
X017460Y007654D02*
X014958Y007654D01*
X014902Y007654D02*
X013900Y007654D01*
X013900Y007496D02*
X014134Y007496D01*
X014137Y007486D02*
X014173Y007415D01*
X014220Y007351D01*
X014276Y007295D01*
X014341Y007248D01*
X014411Y007212D01*
X014487Y007188D01*
X014565Y007175D01*
X014902Y007175D01*
X014902Y007652D01*
X014100Y007652D01*
X014100Y007640D01*
X014113Y007562D01*
X014137Y007486D01*
X014234Y007337D02*
X013900Y007337D01*
X013993Y007179D02*
X014545Y007179D01*
X014288Y007020D02*
X014151Y007020D01*
X014180Y006680D02*
X013680Y007180D01*
X013680Y008680D01*
X016680Y011680D01*
X016680Y016180D01*
X018180Y017680D01*
X020680Y017680D01*
X022680Y019680D01*
X022680Y020680D01*
X022182Y020810D02*
X022178Y020810D01*
X022113Y020968D02*
X022247Y020968D01*
X022425Y021127D02*
X021935Y021127D01*
X021425Y021127D02*
X020935Y021127D01*
X021113Y020968D02*
X021247Y020968D01*
X021182Y020810D02*
X021178Y020810D01*
X020680Y020680D02*
X020680Y019180D01*
X020180Y018680D01*
X015180Y018680D01*
X012680Y016180D01*
X012680Y011680D01*
X009680Y008680D01*
X009680Y007180D01*
X010180Y006680D01*
X010930Y006680D01*
X010902Y007175D02*
X010565Y007175D01*
X010487Y007188D01*
X010411Y007212D01*
X010341Y007248D01*
X010276Y007295D01*
X010220Y007351D01*
X010173Y007415D01*
X010137Y007486D01*
X010113Y007562D01*
X010100Y007640D01*
X010100Y007652D01*
X010902Y007652D01*
X010958Y007652D01*
X010958Y007708D01*
X010902Y007708D01*
X010902Y008185D01*
X010565Y008185D01*
X010487Y008172D01*
X010411Y008148D01*
X010341Y008112D01*
X010276Y008065D01*
X010220Y008009D01*
X010173Y007945D01*
X010137Y007874D01*
X010113Y007798D01*
X010100Y007720D01*
X010100Y007708D01*
X010902Y007708D01*
X010902Y007652D01*
X010902Y007175D01*
X010902Y007179D02*
X010958Y007179D01*
X010958Y007175D02*
X011295Y007175D01*
X011373Y007188D01*
X011449Y007212D01*
X011519Y007248D01*
X011584Y007295D01*
X011640Y007351D01*
X011687Y007415D01*
X011723Y007486D01*
X011747Y007562D01*
X011760Y007640D01*
X011760Y007652D01*
X010958Y007652D01*
X010958Y007175D01*
X010958Y007337D02*
X010902Y007337D01*
X010902Y007496D02*
X010958Y007496D01*
X010958Y007654D02*
X013460Y007654D01*
X013460Y007496D02*
X011726Y007496D01*
X011626Y007337D02*
X013460Y007337D01*
X013460Y007179D02*
X011315Y007179D01*
X011572Y007020D02*
X013529Y007020D01*
X013687Y006862D02*
X011683Y006862D01*
X011720Y006703D02*
X013846Y006703D01*
X014004Y006545D02*
X011702Y006545D01*
X011618Y006386D02*
X014242Y006386D01*
X014483Y006228D02*
X011377Y006228D01*
X011523Y006069D02*
X014337Y006069D01*
X014198Y005911D02*
X011662Y005911D01*
X011656Y005435D02*
X014204Y005435D01*
X014365Y005277D02*
X011495Y005277D01*
X011196Y005078D02*
X011328Y004946D01*
X011400Y004773D01*
X011400Y004587D01*
X011328Y004414D01*
X011196Y004282D01*
X011023Y004210D01*
X010837Y004210D01*
X010664Y004282D01*
X010532Y004414D01*
X010460Y004587D01*
X010460Y004773D01*
X010532Y004946D01*
X010664Y005078D01*
X010837Y005150D01*
X011023Y005150D01*
X011196Y005078D01*
X011101Y005118D02*
X014759Y005118D01*
X014837Y005150D02*
X014664Y005078D01*
X014532Y004946D01*
X014460Y004773D01*
X014460Y004587D01*
X014532Y004414D01*
X014664Y004282D01*
X014837Y004210D01*
X015023Y004210D01*
X015196Y004282D01*
X015328Y004414D01*
X015400Y004587D01*
X015400Y004773D01*
X015328Y004946D01*
X015196Y005078D01*
X015023Y005150D01*
X014837Y005150D01*
X015101Y005118D02*
X018759Y005118D01*
X018545Y004960D02*
X015315Y004960D01*
X015389Y004801D02*
X018471Y004801D01*
X018460Y004643D02*
X015400Y004643D01*
X015358Y004484D02*
X018502Y004484D01*
X018620Y004326D02*
X015240Y004326D01*
X014620Y004326D02*
X011240Y004326D01*
X011358Y004484D02*
X014502Y004484D01*
X014460Y004643D02*
X011400Y004643D01*
X011389Y004801D02*
X014471Y004801D01*
X014545Y004960D02*
X011315Y004960D01*
X010759Y005118D02*
X007101Y005118D01*
X007023Y005150D02*
X006837Y005150D01*
X006664Y005078D01*
X006532Y004946D01*
X006460Y004773D01*
X006460Y004587D01*
X006532Y004414D01*
X006664Y004282D01*
X006837Y004210D01*
X007023Y004210D01*
X007196Y004282D01*
X007328Y004414D01*
X007400Y004587D01*
X007400Y004773D01*
X007328Y004946D01*
X007196Y005078D01*
X007023Y005150D01*
X006759Y005118D02*
X002360Y005118D01*
X002360Y004960D02*
X006545Y004960D01*
X006471Y004801D02*
X002360Y004801D01*
X002360Y004643D02*
X006460Y004643D01*
X006502Y004484D02*
X002360Y004484D01*
X002360Y004326D02*
X006620Y004326D01*
X007240Y004326D02*
X010620Y004326D01*
X010502Y004484D02*
X007358Y004484D01*
X007400Y004643D02*
X010460Y004643D01*
X010471Y004801D02*
X007389Y004801D01*
X007315Y004960D02*
X010545Y004960D01*
X010365Y005277D02*
X007495Y005277D01*
X007656Y005435D02*
X010204Y005435D01*
X010198Y005911D02*
X007662Y005911D01*
X007523Y006069D02*
X010337Y006069D01*
X010483Y006228D02*
X007377Y006228D01*
X007618Y006386D02*
X010242Y006386D01*
X010004Y006545D02*
X007702Y006545D01*
X007720Y006703D02*
X009846Y006703D01*
X009687Y006862D02*
X007683Y006862D01*
X007572Y007020D02*
X009529Y007020D01*
X009460Y007179D02*
X007315Y007179D01*
X007295Y007175D02*
X007373Y007188D01*
X007449Y007212D01*
X007519Y007248D01*
X007584Y007295D01*
X007640Y007351D01*
X007687Y007415D01*
X007723Y007486D01*
X007747Y007562D01*
X007760Y007640D01*
X007760Y007652D01*
X006958Y007652D01*
X006958Y007708D01*
X006902Y007708D01*
X006902Y008185D01*
X006565Y008185D01*
X006487Y008172D01*
X006411Y008148D01*
X006341Y008112D01*
X006276Y008065D01*
X006220Y008009D01*
X006173Y007945D01*
X006137Y007874D01*
X006113Y007798D01*
X006100Y007720D01*
X006100Y007708D01*
X006902Y007708D01*
X006902Y007652D01*
X006958Y007652D01*
X006958Y007175D01*
X007295Y007175D01*
X006958Y007179D02*
X006902Y007179D01*
X006902Y007175D02*
X006902Y007652D01*
X006100Y007652D01*
X006100Y007640D01*
X006113Y007562D01*
X006137Y007486D01*
X006173Y007415D01*
X006220Y007351D01*
X006276Y007295D01*
X006341Y007248D01*
X006411Y007212D01*
X006487Y007188D01*
X006565Y007175D01*
X006902Y007175D01*
X006902Y007337D02*
X006958Y007337D01*
X006958Y007496D02*
X006902Y007496D01*
X006902Y007654D02*
X005900Y007654D01*
X005900Y007496D02*
X006134Y007496D01*
X006234Y007337D02*
X005900Y007337D01*
X005993Y007179D02*
X006545Y007179D01*
X006288Y007020D02*
X006151Y007020D01*
X006180Y006680D02*
X005680Y007180D01*
X005680Y008680D01*
X008680Y011680D01*
X008680Y016180D01*
X012180Y019680D01*
X018180Y019680D01*
X018680Y020180D01*
X018680Y020680D01*
X018206Y020493D02*
X018197Y020493D01*
X018108Y020334D02*
X018305Y020334D01*
X018364Y020176D02*
X017901Y020176D01*
X017700Y020176D02*
X017660Y020176D01*
X017660Y020334D02*
X017700Y020334D01*
X017700Y020493D02*
X017660Y020493D01*
X017660Y020651D02*
X017700Y020651D01*
X017700Y020810D02*
X017660Y020810D01*
X017660Y020968D02*
X017700Y020968D01*
X017700Y021127D02*
X017660Y021127D01*
X017359Y021127D02*
X016935Y021127D01*
X017113Y020968D02*
X017209Y020968D01*
X017163Y020493D02*
X017154Y020493D01*
X017252Y020334D02*
X017055Y020334D01*
X016795Y020176D02*
X017459Y020176D01*
X018206Y020017D02*
X006328Y020017D01*
X006170Y019859D02*
X012047Y019859D01*
X011889Y019700D02*
X006011Y019700D01*
X005853Y019542D02*
X011730Y019542D01*
X011572Y019383D02*
X005694Y019383D01*
X005536Y019225D02*
X011413Y019225D01*
X011255Y019066D02*
X005377Y019066D01*
X005219Y018908D02*
X011096Y018908D01*
X010938Y018749D02*
X005060Y018749D01*
X004902Y018591D02*
X010779Y018591D01*
X010621Y018432D02*
X004900Y018432D01*
X004900Y018274D02*
X010462Y018274D01*
X010304Y018115D02*
X004900Y018115D01*
X004900Y017957D02*
X010145Y017957D01*
X009987Y017798D02*
X004900Y017798D01*
X004900Y017640D02*
X009828Y017640D01*
X009670Y017481D02*
X004900Y017481D01*
X004900Y017323D02*
X009511Y017323D01*
X009353Y017164D02*
X004900Y017164D01*
X004900Y017006D02*
X009194Y017006D01*
X009036Y016847D02*
X004900Y016847D01*
X004900Y016689D02*
X008877Y016689D01*
X008719Y016530D02*
X007711Y016530D01*
X007717Y016526D02*
X007661Y016566D01*
X007599Y016598D01*
X007533Y016619D01*
X007465Y016630D01*
X007430Y016630D01*
X007430Y015930D01*
X007870Y015930D01*
X007870Y016225D01*
X007859Y016293D01*
X007838Y016359D01*
X007806Y016421D01*
X007766Y016477D01*
X007717Y016526D01*
X007831Y016372D02*
X008560Y016372D01*
X008460Y016213D02*
X007870Y016213D01*
X007870Y016055D02*
X008460Y016055D01*
X008460Y015896D02*
X007870Y015896D01*
X007870Y015930D02*
X007430Y015930D01*
X007430Y015930D01*
X007430Y015930D01*
X007430Y015230D01*
X007465Y015230D01*
X007533Y015241D01*
X007599Y015262D01*
X007661Y015294D01*
X007717Y015334D01*
X007766Y015383D01*
X007806Y015439D01*
X007838Y015501D01*
X007859Y015567D01*
X007870Y015635D01*
X007870Y015930D01*
X007870Y015738D02*
X008460Y015738D01*
X008460Y015579D02*
X007861Y015579D01*
X007793Y015421D02*
X008460Y015421D01*
X008460Y015262D02*
X007598Y015262D01*
X007430Y015262D02*
X007430Y015262D01*
X007430Y015230D02*
X007430Y015930D01*
X007430Y015930D01*
X007430Y015930D01*
X006990Y015930D01*
X006990Y016225D01*
X007001Y016293D01*
X007022Y016359D01*
X007054Y016421D01*
X007094Y016477D01*
X007143Y016526D01*
X007199Y016566D01*
X007261Y016598D01*
X007327Y016619D01*
X007395Y016630D01*
X007430Y016630D01*
X007430Y015930D01*
X006990Y015930D01*
X006990Y015635D01*
X007001Y015567D01*
X007022Y015501D01*
X007054Y015439D01*
X007094Y015383D01*
X007143Y015334D01*
X007199Y015294D01*
X007261Y015262D01*
X007327Y015241D01*
X007395Y015230D01*
X007430Y015230D01*
X007262Y015262D02*
X004900Y015262D01*
X004900Y015104D02*
X008460Y015104D01*
X008460Y014945D02*
X004900Y014945D01*
X004900Y014787D02*
X008460Y014787D01*
X008460Y014628D02*
X004900Y014628D01*
X004900Y014470D02*
X008460Y014470D01*
X008460Y014311D02*
X004900Y014311D01*
X004900Y014153D02*
X008460Y014153D01*
X008460Y013994D02*
X004900Y013994D01*
X004900Y013836D02*
X008460Y013836D01*
X008460Y013677D02*
X004900Y013677D01*
X004900Y013519D02*
X006193Y013519D01*
X006203Y013529D02*
X006091Y013417D01*
X006030Y013270D01*
X006030Y012590D01*
X006091Y012443D01*
X006203Y012331D01*
X006350Y012270D01*
X006510Y012270D01*
X006657Y012331D01*
X006769Y012443D01*
X006830Y012590D01*
X006830Y013270D01*
X006769Y013417D01*
X006657Y013529D01*
X006510Y013590D01*
X006350Y013590D01*
X006203Y013529D01*
X006067Y013360D02*
X004900Y013360D01*
X004900Y013202D02*
X006030Y013202D01*
X006030Y013043D02*
X004900Y013043D01*
X004900Y012885D02*
X006030Y012885D01*
X006030Y012726D02*
X004900Y012726D01*
X004900Y012568D02*
X006039Y012568D01*
X006125Y012409D02*
X004900Y012409D01*
X004900Y012251D02*
X007297Y012251D01*
X007327Y012241D02*
X007395Y012230D01*
X007430Y012230D01*
X007465Y012230D01*
X007533Y012241D01*
X007599Y012262D01*
X007661Y012294D01*
X007717Y012334D01*
X007766Y012383D01*
X007806Y012439D01*
X007838Y012501D01*
X007859Y012567D01*
X007870Y012635D01*
X007870Y012930D01*
X007870Y013225D01*
X007859Y013293D01*
X007838Y013359D01*
X007806Y013421D01*
X007766Y013477D01*
X007717Y013526D01*
X007661Y013566D01*
X007599Y013598D01*
X007533Y013619D01*
X007465Y013630D01*
X007430Y013630D01*
X007430Y012930D01*
X007870Y012930D01*
X007430Y012930D01*
X007430Y012930D01*
X007430Y012930D01*
X007430Y012230D01*
X007430Y012930D01*
X007430Y012930D01*
X007430Y012930D01*
X006990Y012930D01*
X006990Y013225D01*
X007001Y013293D01*
X007022Y013359D01*
X007054Y013421D01*
X007094Y013477D01*
X007143Y013526D01*
X007199Y013566D01*
X007261Y013598D01*
X007327Y013619D01*
X007395Y013630D01*
X007430Y013630D01*
X007430Y012930D01*
X006990Y012930D01*
X006990Y012635D01*
X007001Y012567D01*
X007022Y012501D01*
X007054Y012439D01*
X007094Y012383D01*
X007143Y012334D01*
X007199Y012294D01*
X007261Y012262D01*
X007327Y012241D01*
X007430Y012251D02*
X007430Y012251D01*
X007563Y012251D02*
X008460Y012251D01*
X008460Y012409D02*
X007784Y012409D01*
X007859Y012568D02*
X008460Y012568D01*
X008460Y012726D02*
X007870Y012726D01*
X007870Y012885D02*
X008460Y012885D01*
X008460Y013043D02*
X007870Y013043D01*
X007870Y013202D02*
X008460Y013202D01*
X008460Y013360D02*
X007837Y013360D01*
X007724Y013519D02*
X008460Y013519D01*
X008900Y013519D02*
X008960Y013519D01*
X008960Y013677D02*
X008900Y013677D01*
X008900Y013836D02*
X008960Y013836D01*
X008960Y013994D02*
X008900Y013994D01*
X008900Y014153D02*
X008960Y014153D01*
X008960Y014311D02*
X008900Y014311D01*
X008900Y014470D02*
X008960Y014470D01*
X008960Y014628D02*
X008900Y014628D01*
X008900Y014787D02*
X008960Y014787D01*
X008960Y014945D02*
X008900Y014945D01*
X008900Y015104D02*
X008960Y015104D01*
X008960Y015262D02*
X008900Y015262D01*
X008900Y015421D02*
X008960Y015421D01*
X008960Y015579D02*
X008900Y015579D01*
X008900Y015738D02*
X008960Y015738D01*
X008960Y015896D02*
X008900Y015896D01*
X008900Y016055D02*
X008960Y016055D01*
X009180Y016180D02*
X009180Y009680D01*
X008180Y008680D01*
X008396Y008447D02*
X009460Y008447D01*
X009460Y008605D02*
X008498Y008605D01*
X008575Y008764D02*
X009460Y008764D01*
X009611Y008922D02*
X008733Y008922D01*
X008892Y009081D02*
X009769Y009081D01*
X009928Y009239D02*
X009050Y009239D01*
X009209Y009398D02*
X010086Y009398D01*
X010245Y009556D02*
X009367Y009556D01*
X009400Y009715D02*
X010403Y009715D01*
X010562Y009873D02*
X009400Y009873D01*
X009400Y010032D02*
X010720Y010032D01*
X010879Y010190D02*
X009400Y010190D01*
X009400Y010349D02*
X011037Y010349D01*
X011196Y010507D02*
X009400Y010507D01*
X009400Y010666D02*
X011354Y010666D01*
X011513Y010824D02*
X009400Y010824D01*
X009400Y010983D02*
X011671Y010983D01*
X011830Y011141D02*
X009400Y011141D01*
X009400Y011300D02*
X011988Y011300D01*
X012147Y011458D02*
X009400Y011458D01*
X009400Y011617D02*
X012305Y011617D01*
X012460Y011775D02*
X009400Y011775D01*
X009400Y011934D02*
X012460Y011934D01*
X012460Y012092D02*
X009400Y012092D01*
X009400Y012251D02*
X011297Y012251D01*
X011327Y012241D02*
X011395Y012230D01*
X011430Y012230D01*
X011465Y012230D01*
X011533Y012241D01*
X011599Y012262D01*
X011661Y012294D01*
X011717Y012334D01*
X011766Y012383D01*
X011806Y012439D01*
X011838Y012501D01*
X011859Y012567D01*
X011870Y012635D01*
X011870Y012930D01*
X011870Y013225D01*
X011859Y013293D01*
X011838Y013359D01*
X011806Y013421D01*
X011766Y013477D01*
X011717Y013526D01*
X011661Y013566D01*
X011599Y013598D01*
X011533Y013619D01*
X011465Y013630D01*
X011430Y013630D01*
X011430Y012930D01*
X011870Y012930D01*
X011430Y012930D01*
X011430Y012930D01*
X011430Y012930D01*
X011430Y012230D01*
X011430Y012930D01*
X011430Y012930D01*
X011430Y012930D01*
X010990Y012930D01*
X010990Y013225D01*
X011001Y013293D01*
X011022Y013359D01*
X011054Y013421D01*
X011094Y013477D01*
X011143Y013526D01*
X011199Y013566D01*
X011261Y013598D01*
X011327Y013619D01*
X011395Y013630D01*
X011430Y013630D01*
X011430Y012930D01*
X010990Y012930D01*
X010990Y012635D01*
X011001Y012567D01*
X011022Y012501D01*
X011054Y012439D01*
X011094Y012383D01*
X011143Y012334D01*
X011199Y012294D01*
X011261Y012262D01*
X011327Y012241D01*
X011430Y012251D02*
X011430Y012251D01*
X011563Y012251D02*
X012460Y012251D01*
X012460Y012409D02*
X011784Y012409D01*
X011859Y012568D02*
X012460Y012568D01*
X012460Y012726D02*
X011870Y012726D01*
X011870Y012885D02*
X012460Y012885D01*
X012460Y013043D02*
X011870Y013043D01*
X011870Y013202D02*
X012460Y013202D01*
X012460Y013360D02*
X011837Y013360D01*
X011724Y013519D02*
X012460Y013519D01*
X012460Y013677D02*
X009400Y013677D01*
X009400Y013519D02*
X010193Y013519D01*
X010203Y013529D02*
X010091Y013417D01*
X010030Y013270D01*
X010030Y012590D01*
X010091Y012443D01*
X010203Y012331D01*
X010350Y012270D01*
X010510Y012270D01*
X010657Y012331D01*
X010769Y012443D01*
X010830Y012590D01*
X010830Y013270D01*
X010769Y013417D01*
X010657Y013529D01*
X010510Y013590D01*
X010350Y013590D01*
X010203Y013529D01*
X010067Y013360D02*
X009400Y013360D01*
X009400Y013202D02*
X010030Y013202D01*
X010030Y013043D02*
X009400Y013043D01*
X009400Y012885D02*
X010030Y012885D01*
X010030Y012726D02*
X009400Y012726D01*
X009400Y012568D02*
X010039Y012568D01*
X010125Y012409D02*
X009400Y012409D01*
X008960Y012409D02*
X008900Y012409D01*
X008900Y012251D02*
X008960Y012251D01*
X008960Y012092D02*
X008900Y012092D01*
X008900Y011934D02*
X008960Y011934D01*
X008960Y011775D02*
X008900Y011775D01*
X008900Y011617D02*
X008960Y011617D01*
X008960Y011458D02*
X008769Y011458D01*
X008611Y011300D02*
X008960Y011300D01*
X008960Y011141D02*
X008452Y011141D01*
X008294Y010983D02*
X008960Y010983D01*
X008960Y010824D02*
X008135Y010824D01*
X007977Y010666D02*
X008960Y010666D01*
X008960Y010507D02*
X007818Y010507D01*
X007660Y010349D02*
X008960Y010349D01*
X008960Y010190D02*
X007501Y010190D01*
X007343Y010032D02*
X008960Y010032D01*
X008960Y009873D02*
X007184Y009873D01*
X007026Y009715D02*
X008903Y009715D01*
X008745Y009556D02*
X006867Y009556D01*
X006709Y009398D02*
X008586Y009398D01*
X008428Y009239D02*
X006550Y009239D01*
X006664Y009078D02*
X006532Y008946D01*
X006460Y008773D01*
X006460Y008587D01*
X006532Y008414D01*
X006664Y008282D01*
X006837Y008210D01*
X007023Y008210D01*
X007196Y008282D01*
X007328Y008414D01*
X007400Y008587D01*
X007400Y008773D01*
X007328Y008946D01*
X007196Y009078D01*
X007023Y009150D01*
X006837Y009150D01*
X006664Y009078D01*
X006669Y009081D02*
X006392Y009081D01*
X006522Y008922D02*
X006233Y008922D01*
X006075Y008764D02*
X006460Y008764D01*
X006460Y008605D02*
X005916Y008605D01*
X005900Y008447D02*
X006518Y008447D01*
X006657Y008288D02*
X005900Y008288D01*
X005900Y008130D02*
X006375Y008130D01*
X006193Y007971D02*
X005900Y007971D01*
X005900Y007813D02*
X006117Y007813D01*
X005460Y007813D02*
X004900Y007813D01*
X004900Y007971D02*
X005460Y007971D01*
X005460Y008130D02*
X004900Y008130D01*
X004900Y008288D02*
X005460Y008288D01*
X005460Y008447D02*
X004900Y008447D01*
X004900Y008605D02*
X005460Y008605D01*
X005460Y008764D02*
X004900Y008764D01*
X004900Y008922D02*
X005611Y008922D01*
X005769Y009081D02*
X004900Y009081D01*
X004900Y009239D02*
X005928Y009239D01*
X006086Y009398D02*
X004900Y009398D01*
X004900Y009556D02*
X006245Y009556D01*
X006403Y009715D02*
X004900Y009715D01*
X004900Y009873D02*
X006562Y009873D01*
X006720Y010032D02*
X004900Y010032D01*
X004900Y010190D02*
X006879Y010190D01*
X007037Y010349D02*
X004900Y010349D01*
X004900Y010507D02*
X007196Y010507D01*
X007354Y010666D02*
X004900Y010666D01*
X004900Y010824D02*
X007513Y010824D01*
X007671Y010983D02*
X004900Y010983D01*
X004900Y011141D02*
X007830Y011141D01*
X007988Y011300D02*
X004900Y011300D01*
X004900Y011458D02*
X008147Y011458D01*
X008305Y011617D02*
X004900Y011617D01*
X004900Y011775D02*
X008460Y011775D01*
X008460Y011934D02*
X004900Y011934D01*
X004900Y012092D02*
X008460Y012092D01*
X008900Y012568D02*
X008960Y012568D01*
X008960Y012726D02*
X008900Y012726D01*
X008900Y012885D02*
X008960Y012885D01*
X008960Y013043D02*
X008900Y013043D01*
X008900Y013202D02*
X008960Y013202D01*
X008960Y013360D02*
X008900Y013360D01*
X009400Y013836D02*
X012460Y013836D01*
X012460Y013994D02*
X009400Y013994D01*
X009400Y014153D02*
X012460Y014153D01*
X012460Y014311D02*
X009400Y014311D01*
X009400Y014470D02*
X012460Y014470D01*
X012460Y014628D02*
X009400Y014628D01*
X009400Y014787D02*
X012460Y014787D01*
X012460Y014945D02*
X009400Y014945D01*
X009400Y015104D02*
X012460Y015104D01*
X012460Y015262D02*
X011598Y015262D01*
X011599Y015262D02*
X011661Y015294D01*
X011717Y015334D01*
X011766Y015383D01*
X011806Y015439D01*
X011838Y015501D01*
X011859Y015567D01*
X011870Y015635D01*
X011870Y015930D01*
X011870Y016225D01*
X011859Y016293D01*
X011838Y016359D01*
X011806Y016421D01*
X011766Y016477D01*
X011717Y016526D01*
X011661Y016566D01*
X011599Y016598D01*
X011533Y016619D01*
X011465Y016630D01*
X011430Y016630D01*
X011430Y015930D01*
X011870Y015930D01*
X011430Y015930D01*
X011430Y015930D01*
X011430Y015930D01*
X011430Y015230D01*
X011465Y015230D01*
X011533Y015241D01*
X011599Y015262D01*
X011430Y015262D02*
X011430Y015262D01*
X011430Y015230D02*
X011430Y015930D01*
X011430Y015930D01*
X011430Y015930D01*
X010990Y015930D01*
X010990Y016225D01*
X011001Y016293D01*
X011022Y016359D01*
X011054Y016421D01*
X011094Y016477D01*
X011143Y016526D01*
X011199Y016566D01*
X011261Y016598D01*
X011327Y016619D01*
X011395Y016630D01*
X011430Y016630D01*
X011430Y015930D01*
X010990Y015930D01*
X010990Y015635D01*
X011001Y015567D01*
X011022Y015501D01*
X011054Y015439D01*
X011094Y015383D01*
X011143Y015334D01*
X011199Y015294D01*
X011261Y015262D01*
X011327Y015241D01*
X011395Y015230D01*
X011430Y015230D01*
X011262Y015262D02*
X009400Y015262D01*
X009400Y015421D02*
X010114Y015421D01*
X010091Y015443D02*
X010203Y015331D01*
X010350Y015270D01*
X010510Y015270D01*
X010657Y015331D01*
X010769Y015443D01*
X010830Y015590D01*
X010830Y016270D01*
X010769Y016417D01*
X010657Y016529D01*
X010510Y016590D01*
X010350Y016590D01*
X010203Y016529D01*
X010091Y016417D01*
X010030Y016270D01*
X010030Y015590D01*
X010091Y015443D01*
X010035Y015579D02*
X009400Y015579D01*
X009400Y015738D02*
X010030Y015738D01*
X010030Y015896D02*
X009400Y015896D01*
X009400Y016055D02*
X010030Y016055D01*
X010030Y016213D02*
X009524Y016213D01*
X009683Y016372D02*
X010072Y016372D01*
X010206Y016530D02*
X009841Y016530D01*
X010000Y016689D02*
X012877Y016689D01*
X013036Y016847D02*
X010158Y016847D01*
X010317Y017006D02*
X013194Y017006D01*
X013353Y017164D02*
X010475Y017164D01*
X010634Y017323D02*
X013511Y017323D01*
X013670Y017481D02*
X010792Y017481D01*
X010951Y017640D02*
X013828Y017640D01*
X013987Y017798D02*
X011109Y017798D01*
X011268Y017957D02*
X014145Y017957D01*
X014304Y018115D02*
X011426Y018115D01*
X011585Y018274D02*
X014462Y018274D01*
X014621Y018432D02*
X011743Y018432D01*
X011902Y018591D02*
X014779Y018591D01*
X014938Y018749D02*
X012060Y018749D01*
X012219Y018908D02*
X020096Y018908D01*
X020255Y019066D02*
X018877Y019066D01*
X019036Y019225D02*
X020413Y019225D01*
X020460Y019383D02*
X019194Y019383D01*
X019353Y019542D02*
X020460Y019542D01*
X020460Y019700D02*
X019511Y019700D01*
X019670Y019859D02*
X020460Y019859D01*
X020460Y020017D02*
X019828Y020017D01*
X019900Y020176D02*
X020460Y020176D01*
X020305Y020334D02*
X020055Y020334D01*
X020154Y020493D02*
X020206Y020493D01*
X019680Y020680D02*
X019680Y020180D01*
X018680Y019180D01*
X012180Y019180D01*
X009180Y016180D01*
X010654Y016530D02*
X011149Y016530D01*
X011029Y016372D02*
X010788Y016372D01*
X010830Y016213D02*
X010990Y016213D01*
X010990Y016055D02*
X010830Y016055D01*
X010830Y015896D02*
X010990Y015896D01*
X010990Y015738D02*
X010830Y015738D01*
X010825Y015579D02*
X010999Y015579D01*
X011067Y015421D02*
X010746Y015421D01*
X011430Y015421D02*
X011430Y015421D01*
X011430Y015579D02*
X011430Y015579D01*
X011430Y015738D02*
X011430Y015738D01*
X011430Y015896D02*
X011430Y015896D01*
X011430Y016055D02*
X011430Y016055D01*
X011430Y016213D02*
X011430Y016213D01*
X011430Y016372D02*
X011430Y016372D01*
X011430Y016530D02*
X011430Y016530D01*
X011711Y016530D02*
X012719Y016530D01*
X012560Y016372D02*
X011831Y016372D01*
X011870Y016213D02*
X012460Y016213D01*
X012460Y016055D02*
X011870Y016055D01*
X011870Y015896D02*
X012460Y015896D01*
X012460Y015738D02*
X011870Y015738D01*
X011861Y015579D02*
X012460Y015579D01*
X012460Y015421D02*
X011793Y015421D01*
X012900Y015421D02*
X012960Y015421D01*
X012960Y015579D02*
X012900Y015579D01*
X012900Y015738D02*
X012960Y015738D01*
X012960Y015896D02*
X012900Y015896D01*
X012900Y016055D02*
X012960Y016055D01*
X013180Y016180D02*
X013180Y009680D01*
X012180Y008680D01*
X012396Y008447D02*
X013460Y008447D01*
X013460Y008605D02*
X012498Y008605D01*
X012575Y008764D02*
X013460Y008764D01*
X013611Y008922D02*
X012733Y008922D01*
X012892Y009081D02*
X013769Y009081D01*
X013928Y009239D02*
X013050Y009239D01*
X013209Y009398D02*
X014086Y009398D01*
X014245Y009556D02*
X013367Y009556D01*
X013400Y009715D02*
X014403Y009715D01*
X014562Y009873D02*
X013400Y009873D01*
X013400Y010032D02*
X014720Y010032D01*
X014879Y010190D02*
X013400Y010190D01*
X013400Y010349D02*
X015037Y010349D01*
X015196Y010507D02*
X013400Y010507D01*
X013400Y010666D02*
X015354Y010666D01*
X015513Y010824D02*
X013400Y010824D01*
X013400Y010983D02*
X015671Y010983D01*
X015830Y011141D02*
X013400Y011141D01*
X013400Y011300D02*
X015988Y011300D01*
X016147Y011458D02*
X013400Y011458D01*
X013400Y011617D02*
X016305Y011617D01*
X016460Y011775D02*
X013400Y011775D01*
X013400Y011934D02*
X016460Y011934D01*
X016460Y012092D02*
X013400Y012092D01*
X013400Y012251D02*
X015297Y012251D01*
X015327Y012241D02*
X015395Y012230D01*
X015430Y012230D01*
X015465Y012230D01*
X015533Y012241D01*
X015599Y012262D01*
X015661Y012294D01*
X015717Y012334D01*
X015766Y012383D01*
X015806Y012439D01*
X015838Y012501D01*
X015859Y012567D01*
X015870Y012635D01*
X015870Y012930D01*
X015870Y013225D01*
X015859Y013293D01*
X015838Y013359D01*
X015806Y013421D01*
X015766Y013477D01*
X015717Y013526D01*
X015661Y013566D01*
X015599Y013598D01*
X015533Y013619D01*
X015465Y013630D01*
X015430Y013630D01*
X015430Y012930D01*
X015870Y012930D01*
X015430Y012930D01*
X015430Y012930D01*
X015430Y012930D01*
X015430Y012230D01*
X015430Y012930D01*
X015430Y012930D01*
X015430Y012930D01*
X014990Y012930D01*
X014990Y013225D01*
X015001Y013293D01*
X015022Y013359D01*
X015054Y013421D01*
X015094Y013477D01*
X015143Y013526D01*
X015199Y013566D01*
X015261Y013598D01*
X015327Y013619D01*
X015395Y013630D01*
X015430Y013630D01*
X015430Y012930D01*
X014990Y012930D01*
X014990Y012635D01*
X015001Y012567D01*
X015022Y012501D01*
X015054Y012439D01*
X015094Y012383D01*
X015143Y012334D01*
X015199Y012294D01*
X015261Y012262D01*
X015327Y012241D01*
X015430Y012251D02*
X015430Y012251D01*
X015563Y012251D02*
X016460Y012251D01*
X016460Y012409D02*
X015784Y012409D01*
X015859Y012568D02*
X016460Y012568D01*
X016460Y012726D02*
X015870Y012726D01*
X015870Y012885D02*
X016460Y012885D01*
X016460Y013043D02*
X015870Y013043D01*
X015870Y013202D02*
X016460Y013202D01*
X016460Y013360D02*
X015837Y013360D01*
X015724Y013519D02*
X016460Y013519D01*
X016460Y013677D02*
X013400Y013677D01*
X013400Y013519D02*
X014193Y013519D01*
X014203Y013529D02*
X014091Y013417D01*
X014030Y013270D01*
X014030Y012590D01*
X014091Y012443D01*
X014203Y012331D01*
X014350Y012270D01*
X014510Y012270D01*
X014657Y012331D01*
X014769Y012443D01*
X014830Y012590D01*
X014830Y013270D01*
X014769Y013417D01*
X014657Y013529D01*
X014510Y013590D01*
X014350Y013590D01*
X014203Y013529D01*
X014067Y013360D02*
X013400Y013360D01*
X013400Y013202D02*
X014030Y013202D01*
X014030Y013043D02*
X013400Y013043D01*
X013400Y012885D02*
X014030Y012885D01*
X014030Y012726D02*
X013400Y012726D01*
X013400Y012568D02*
X014039Y012568D01*
X014125Y012409D02*
X013400Y012409D01*
X012960Y012409D02*
X012900Y012409D01*
X012900Y012251D02*
X012960Y012251D01*
X012960Y012092D02*
X012900Y012092D01*
X012900Y011934D02*
X012960Y011934D01*
X012960Y011775D02*
X012900Y011775D01*
X012900Y011617D02*
X012960Y011617D01*
X012960Y011458D02*
X012769Y011458D01*
X012611Y011300D02*
X012960Y011300D01*
X012960Y011141D02*
X012452Y011141D01*
X012294Y010983D02*
X012960Y010983D01*
X012960Y010824D02*
X012135Y010824D01*
X011977Y010666D02*
X012960Y010666D01*
X012960Y010507D02*
X011818Y010507D01*
X011660Y010349D02*
X012960Y010349D01*
X012960Y010190D02*
X011501Y010190D01*
X011343Y010032D02*
X012960Y010032D01*
X012960Y009873D02*
X011184Y009873D01*
X011026Y009715D02*
X012903Y009715D01*
X012745Y009556D02*
X010867Y009556D01*
X010709Y009398D02*
X012586Y009398D01*
X012428Y009239D02*
X010550Y009239D01*
X010664Y009078D02*
X010532Y008946D01*
X010460Y008773D01*
X010460Y008587D01*
X010532Y008414D01*
X010664Y008282D01*
X010837Y008210D01*
X011023Y008210D01*
X011196Y008282D01*
X011328Y008414D01*
X011400Y008587D01*
X011400Y008773D01*
X011328Y008946D01*
X011196Y009078D01*
X011023Y009150D01*
X010837Y009150D01*
X010664Y009078D01*
X010669Y009081D02*
X010392Y009081D01*
X010522Y008922D02*
X010233Y008922D01*
X010075Y008764D02*
X010460Y008764D01*
X010460Y008605D02*
X009916Y008605D01*
X009900Y008447D02*
X010518Y008447D01*
X010657Y008288D02*
X009900Y008288D01*
X009900Y008130D02*
X010375Y008130D01*
X010193Y007971D02*
X009900Y007971D01*
X009900Y007813D02*
X010117Y007813D01*
X009900Y007654D02*
X010902Y007654D01*
X010958Y007708D02*
X010958Y008185D01*
X011295Y008185D01*
X011373Y008172D01*
X011449Y008148D01*
X011519Y008112D01*
X011584Y008065D01*
X011640Y008009D01*
X011687Y007945D01*
X011723Y007874D01*
X011747Y007798D01*
X011760Y007720D01*
X011760Y007708D01*
X010958Y007708D01*
X010958Y007813D02*
X010902Y007813D01*
X010902Y007971D02*
X010958Y007971D01*
X010958Y008130D02*
X010902Y008130D01*
X011203Y008288D02*
X013460Y008288D01*
X013460Y008130D02*
X011485Y008130D01*
X011667Y007971D02*
X013460Y007971D01*
X013460Y007813D02*
X011743Y007813D01*
X011964Y008447D02*
X011342Y008447D01*
X011400Y008605D02*
X011862Y008605D01*
X011862Y008764D02*
X011400Y008764D01*
X011338Y008922D02*
X011972Y008922D01*
X012269Y009081D02*
X011191Y009081D01*
X009460Y008288D02*
X007203Y008288D01*
X007295Y008185D02*
X006958Y008185D01*
X006958Y007708D01*
X007760Y007708D01*
X007760Y007720D01*
X007747Y007798D01*
X007723Y007874D01*
X007687Y007945D01*
X007640Y008009D01*
X007584Y008065D01*
X007519Y008112D01*
X007449Y008148D01*
X007373Y008172D01*
X007295Y008185D01*
X007485Y008130D02*
X009460Y008130D01*
X009460Y007971D02*
X007667Y007971D01*
X007743Y007813D02*
X009460Y007813D01*
X009460Y007654D02*
X006958Y007654D01*
X006958Y007813D02*
X006902Y007813D01*
X006902Y007971D02*
X006958Y007971D01*
X006958Y008130D02*
X006902Y008130D01*
X007342Y008447D02*
X007964Y008447D01*
X007862Y008605D02*
X007400Y008605D01*
X007400Y008764D02*
X007862Y008764D01*
X007972Y008922D02*
X007338Y008922D01*
X007191Y009081D02*
X008269Y009081D01*
X007726Y007496D02*
X009460Y007496D01*
X009460Y007337D02*
X007626Y007337D01*
X006930Y006680D02*
X006180Y006680D01*
X006004Y006545D02*
X005627Y006545D01*
X005468Y006703D02*
X005846Y006703D01*
X005687Y006862D02*
X005310Y006862D01*
X005151Y007020D02*
X005529Y007020D01*
X005460Y007179D02*
X004993Y007179D01*
X004900Y007337D02*
X005460Y007337D01*
X005460Y007496D02*
X004900Y007496D01*
X004900Y007654D02*
X005460Y007654D01*
X004680Y007180D02*
X006180Y005680D01*
X006204Y005435D02*
X002360Y005435D01*
X002360Y005277D02*
X006365Y005277D01*
X006337Y006069D02*
X006102Y006069D01*
X005944Y006228D02*
X006483Y006228D01*
X006242Y006386D02*
X005785Y006386D01*
X004680Y007180D02*
X004680Y018680D01*
X006680Y020680D01*
X006680Y021180D01*
X007080Y021127D02*
X007280Y021127D01*
X007280Y021285D02*
X007080Y021285D01*
X007080Y021444D02*
X007280Y021444D01*
X007280Y021520D02*
X007341Y021667D01*
X007453Y021779D01*
X007600Y021840D01*
X007760Y021840D01*
X007907Y021779D01*
X008019Y021667D01*
X008080Y021520D01*
X008080Y020840D01*
X008019Y020693D01*
X007907Y020581D01*
X007760Y020520D01*
X007600Y020520D01*
X007453Y020581D01*
X007341Y020693D01*
X007280Y020840D01*
X007280Y021520D01*
X007314Y021602D02*
X007046Y021602D01*
X006925Y021761D02*
X007435Y021761D01*
X007925Y021761D02*
X012935Y021761D01*
X012814Y021602D02*
X008046Y021602D01*
X008080Y021444D02*
X012780Y021444D01*
X012780Y021285D02*
X008080Y021285D01*
X008080Y021127D02*
X012780Y021127D01*
X012780Y020968D02*
X008080Y020968D01*
X008067Y020810D02*
X012793Y020810D01*
X012883Y020651D02*
X007977Y020651D01*
X007383Y020651D02*
X006977Y020651D01*
X007067Y020810D02*
X007293Y020810D01*
X007280Y020968D02*
X007080Y020968D01*
X006804Y020493D02*
X016206Y020493D01*
X016305Y020334D02*
X006645Y020334D01*
X006487Y020176D02*
X016565Y020176D01*
X018001Y021127D02*
X018425Y021127D01*
X018247Y020968D02*
X018151Y020968D01*
X018935Y021127D02*
X019425Y021127D01*
X019247Y020968D02*
X019113Y020968D01*
X019178Y020810D02*
X019182Y020810D01*
X019935Y021127D02*
X020425Y021127D01*
X020247Y020968D02*
X020113Y020968D01*
X020178Y020810D02*
X020182Y020810D01*
X021680Y020680D02*
X021680Y019180D01*
X020680Y018180D01*
X015180Y018180D01*
X013180Y016180D01*
X013400Y016055D02*
X014030Y016055D01*
X014030Y016213D02*
X013524Y016213D01*
X013683Y016372D02*
X014072Y016372D01*
X014091Y016417D02*
X014030Y016270D01*
X014030Y015590D01*
X014091Y015443D01*
X014203Y015331D01*
X014350Y015270D01*
X014510Y015270D01*
X014657Y015331D01*
X014769Y015443D01*
X014830Y015590D01*
X014830Y016270D01*
X014769Y016417D01*
X014657Y016529D01*
X014510Y016590D01*
X014350Y016590D01*
X014203Y016529D01*
X014091Y016417D01*
X014206Y016530D02*
X013841Y016530D01*
X014000Y016689D02*
X016877Y016689D01*
X017036Y016847D02*
X014158Y016847D01*
X014317Y017006D02*
X017194Y017006D01*
X017353Y017164D02*
X014475Y017164D01*
X014634Y017323D02*
X017511Y017323D01*
X017670Y017481D02*
X014792Y017481D01*
X014951Y017640D02*
X017828Y017640D01*
X017987Y017798D02*
X015109Y017798D01*
X015268Y017957D02*
X020645Y017957D01*
X021680Y017680D02*
X020680Y016680D01*
X020680Y011845D01*
X018515Y009680D01*
X018515Y009515D01*
X017680Y008680D01*
X017680Y007180D01*
X018180Y006680D01*
X018004Y006545D02*
X015702Y006545D01*
X015720Y006703D02*
X017846Y006703D01*
X017687Y006862D02*
X015683Y006862D01*
X015572Y007020D02*
X017529Y007020D01*
X017460Y007179D02*
X015315Y007179D01*
X015626Y007337D02*
X017460Y007337D01*
X017460Y007971D02*
X015667Y007971D01*
X015485Y008130D02*
X017460Y008130D01*
X017460Y008288D02*
X015203Y008288D01*
X015196Y008282D02*
X015328Y008414D01*
X015400Y008587D01*
X015400Y008773D01*
X015328Y008946D01*
X015196Y009078D01*
X015023Y009150D01*
X014837Y009150D01*
X014664Y009078D01*
X014532Y008946D01*
X014460Y008773D01*
X014460Y008587D01*
X014532Y008414D01*
X014664Y008282D01*
X014837Y008210D01*
X015023Y008210D01*
X015196Y008282D01*
X015342Y008447D02*
X015964Y008447D01*
X015862Y008605D02*
X015400Y008605D01*
X015400Y008764D02*
X015862Y008764D01*
X015972Y008922D02*
X015338Y008922D01*
X015191Y009081D02*
X016269Y009081D01*
X016428Y009239D02*
X014550Y009239D01*
X014669Y009081D02*
X014392Y009081D01*
X014522Y008922D02*
X014233Y008922D01*
X014075Y008764D02*
X014460Y008764D01*
X014460Y008605D02*
X013916Y008605D01*
X013900Y008447D02*
X014518Y008447D01*
X014657Y008288D02*
X013900Y008288D01*
X013900Y008130D02*
X014375Y008130D01*
X014193Y007971D02*
X013900Y007971D01*
X013900Y007813D02*
X014117Y007813D01*
X014902Y007813D02*
X014958Y007813D01*
X014958Y007971D02*
X014902Y007971D01*
X014902Y008130D02*
X014958Y008130D01*
X014958Y007496D02*
X014902Y007496D01*
X014902Y007337D02*
X014958Y007337D01*
X014958Y007179D02*
X014902Y007179D01*
X014930Y006680D02*
X014180Y006680D01*
X015377Y006228D02*
X018483Y006228D01*
X018337Y006069D02*
X015523Y006069D01*
X015662Y005911D02*
X018198Y005911D01*
X018204Y005435D02*
X015656Y005435D01*
X015495Y005277D02*
X018365Y005277D01*
X019523Y006069D02*
X022337Y006069D01*
X022198Y005911D02*
X019662Y005911D01*
X019377Y006228D02*
X022483Y006228D01*
X022242Y006386D02*
X019618Y006386D01*
X019702Y006545D02*
X022004Y006545D01*
X021846Y006703D02*
X019720Y006703D01*
X019683Y006862D02*
X021687Y006862D01*
X021529Y007020D02*
X019572Y007020D01*
X019315Y007179D02*
X021460Y007179D01*
X021460Y007337D02*
X019626Y007337D01*
X018242Y006386D02*
X015618Y006386D01*
X016396Y008447D02*
X017460Y008447D01*
X017460Y008605D02*
X016498Y008605D01*
X016575Y008764D02*
X017460Y008764D01*
X017611Y008922D02*
X016733Y008922D01*
X016892Y009081D02*
X017769Y009081D01*
X017928Y009239D02*
X017050Y009239D01*
X017209Y009398D02*
X018086Y009398D01*
X018245Y009556D02*
X017367Y009556D01*
X017400Y009715D02*
X018295Y009715D01*
X018397Y009873D02*
X017400Y009873D01*
X017400Y010032D02*
X018555Y010032D01*
X018714Y010190D02*
X017400Y010190D01*
X017400Y010349D02*
X018872Y010349D01*
X019031Y010507D02*
X017400Y010507D01*
X017400Y010666D02*
X019189Y010666D01*
X019348Y010824D02*
X017400Y010824D01*
X017400Y010983D02*
X019506Y010983D01*
X019665Y011141D02*
X017400Y011141D01*
X017400Y011300D02*
X019823Y011300D01*
X019982Y011458D02*
X017400Y011458D01*
X017400Y011617D02*
X020140Y011617D01*
X020299Y011775D02*
X017400Y011775D01*
X017400Y011934D02*
X020457Y011934D01*
X020460Y012092D02*
X017400Y012092D01*
X017400Y012251D02*
X019297Y012251D01*
X019327Y012241D02*
X019395Y012230D01*
X019430Y012230D01*
X019465Y012230D01*
X019533Y012241D01*
X019599Y012262D01*
X019661Y012294D01*
X019717Y012334D01*
X019766Y012383D01*
X019806Y012439D01*
X019838Y012501D01*
X019859Y012567D01*
X019870Y012635D01*
X019870Y012930D01*
X019870Y013225D01*
X019859Y013293D01*
X019838Y013359D01*
X019806Y013421D01*
X019766Y013477D01*
X019717Y013526D01*
X019661Y013566D01*
X019599Y013598D01*
X019533Y013619D01*
X019465Y013630D01*
X019430Y013630D01*
X019430Y012930D01*
X019870Y012930D01*
X019430Y012930D01*
X019430Y012930D01*
X019430Y012930D01*
X019430Y012230D01*
X019430Y012930D01*
X019430Y012930D01*
X019430Y012930D01*
X018990Y012930D01*
X018990Y013225D01*
X019001Y013293D01*
X019022Y013359D01*
X019054Y013421D01*
X019094Y013477D01*
X019143Y013526D01*
X019199Y013566D01*
X019261Y013598D01*
X019327Y013619D01*
X019395Y013630D01*
X019430Y013630D01*
X019430Y012930D01*
X018990Y012930D01*
X018990Y012635D01*
X019001Y012567D01*
X019022Y012501D01*
X019054Y012439D01*
X019094Y012383D01*
X019143Y012334D01*
X019199Y012294D01*
X019261Y012262D01*
X019327Y012241D01*
X019430Y012251D02*
X019430Y012251D01*
X019563Y012251D02*
X020460Y012251D01*
X020460Y012409D02*
X019784Y012409D01*
X019859Y012568D02*
X020460Y012568D01*
X020460Y012726D02*
X019870Y012726D01*
X019870Y012885D02*
X020460Y012885D01*
X020460Y013043D02*
X019870Y013043D01*
X019870Y013202D02*
X020460Y013202D01*
X020460Y013360D02*
X019837Y013360D01*
X019724Y013519D02*
X020460Y013519D01*
X020460Y013677D02*
X017400Y013677D01*
X017400Y013519D02*
X018193Y013519D01*
X018203Y013529D02*
X018091Y013417D01*
X018030Y013270D01*
X018030Y012590D01*
X018091Y012443D01*
X018203Y012331D01*
X018350Y012270D01*
X018510Y012270D01*
X018657Y012331D01*
X018769Y012443D01*
X018830Y012590D01*
X018830Y013270D01*
X018769Y013417D01*
X018657Y013529D01*
X018510Y013590D01*
X018350Y013590D01*
X018203Y013529D01*
X018067Y013360D02*
X017400Y013360D01*
X017400Y013202D02*
X018030Y013202D01*
X018030Y013043D02*
X017400Y013043D01*
X017400Y012885D02*
X018030Y012885D01*
X018030Y012726D02*
X017400Y012726D01*
X017400Y012568D02*
X018039Y012568D01*
X018125Y012409D02*
X017400Y012409D01*
X016960Y012409D02*
X016900Y012409D01*
X016900Y012251D02*
X016960Y012251D01*
X016960Y012092D02*
X016900Y012092D01*
X016900Y011934D02*
X016960Y011934D01*
X016960Y011775D02*
X016900Y011775D01*
X016900Y011617D02*
X016960Y011617D01*
X016960Y011458D02*
X016769Y011458D01*
X016611Y011300D02*
X016960Y011300D01*
X016960Y011141D02*
X016452Y011141D01*
X016294Y010983D02*
X016960Y010983D01*
X016960Y010824D02*
X016135Y010824D01*
X015977Y010666D02*
X016960Y010666D01*
X016960Y010507D02*
X015818Y010507D01*
X015660Y010349D02*
X016960Y010349D01*
X016960Y010190D02*
X015501Y010190D01*
X015343Y010032D02*
X016960Y010032D01*
X016960Y009873D02*
X015184Y009873D01*
X015026Y009715D02*
X016903Y009715D01*
X016745Y009556D02*
X014867Y009556D01*
X014709Y009398D02*
X016586Y009398D01*
X017180Y009680D02*
X016180Y008680D01*
X017180Y009680D02*
X017180Y016180D01*
X018180Y017180D01*
X020680Y017180D01*
X023680Y020180D01*
X023680Y020680D01*
X024154Y020493D02*
X024706Y020493D01*
X024670Y020651D02*
X024190Y020651D01*
X024178Y020810D02*
X024682Y020810D01*
X024747Y020968D02*
X024113Y020968D01*
X023935Y021127D02*
X024925Y021127D01*
X025435Y021127D02*
X025925Y021127D01*
X025747Y020968D02*
X025613Y020968D01*
X025678Y020810D02*
X025682Y020810D01*
X025180Y020680D02*
X025180Y018680D01*
X024180Y017680D01*
X021680Y017680D01*
X021768Y017957D02*
X024145Y017957D01*
X024304Y018115D02*
X021926Y018115D01*
X022085Y018274D02*
X024462Y018274D01*
X024621Y018432D02*
X022243Y018432D01*
X022402Y018591D02*
X024779Y018591D01*
X024938Y018749D02*
X022560Y018749D01*
X022719Y018908D02*
X024960Y018908D01*
X024960Y019066D02*
X022877Y019066D01*
X023036Y019225D02*
X024960Y019225D01*
X024960Y019383D02*
X023194Y019383D01*
X023353Y019542D02*
X024960Y019542D01*
X024960Y019700D02*
X023511Y019700D01*
X023670Y019859D02*
X024960Y019859D01*
X024960Y020017D02*
X023828Y020017D01*
X023900Y020176D02*
X024960Y020176D01*
X024805Y020334D02*
X024055Y020334D01*
X023247Y020968D02*
X023113Y020968D01*
X023178Y020810D02*
X023182Y020810D01*
X023425Y021127D02*
X022935Y021127D01*
X026180Y020680D02*
X026180Y018680D01*
X024680Y017180D01*
X025036Y016847D02*
X021658Y016847D01*
X021500Y016689D02*
X024877Y016689D01*
X024719Y016530D02*
X023711Y016530D01*
X023717Y016526D02*
X023661Y016566D01*
X023599Y016598D01*
X023533Y016619D01*
X023465Y016630D01*
X023430Y016630D01*
X023430Y015930D01*
X023870Y015930D01*
X023870Y016225D01*
X023859Y016293D01*
X023838Y016359D01*
X023806Y016421D01*
X023766Y016477D01*
X023717Y016526D01*
X023831Y016372D02*
X024560Y016372D01*
X024460Y016213D02*
X023870Y016213D01*
X023870Y016055D02*
X024460Y016055D01*
X024460Y015896D02*
X023870Y015896D01*
X023870Y015930D02*
X023430Y015930D01*
X023430Y015930D01*
X023430Y015930D01*
X023430Y015230D01*
X023465Y015230D01*
X023533Y015241D01*
X023599Y015262D01*
X023661Y015294D01*
X023717Y015334D01*
X023766Y015383D01*
X023806Y015439D01*
X023838Y015501D01*
X023859Y015567D01*
X023870Y015635D01*
X023870Y015930D01*
X023870Y015738D02*
X024460Y015738D01*
X024460Y015579D02*
X023861Y015579D01*
X023793Y015421D02*
X024460Y015421D01*
X024460Y015262D02*
X023598Y015262D01*
X023430Y015262D02*
X023430Y015262D01*
X023430Y015230D02*
X023430Y015930D01*
X023430Y015930D01*
X023430Y015930D01*
X022990Y015930D01*
X022990Y016225D01*
X023001Y016293D01*
X023022Y016359D01*
X023054Y016421D01*
X023094Y016477D01*
X023143Y016526D01*
X023199Y016566D01*
X023261Y016598D01*
X023327Y016619D01*
X023395Y016630D01*
X023430Y016630D01*
X023430Y015930D01*
X022990Y015930D01*
X022990Y015635D01*
X023001Y015567D01*
X023022Y015501D01*
X023054Y015439D01*
X023094Y015383D01*
X023143Y015334D01*
X023199Y015294D01*
X023261Y015262D01*
X023327Y015241D01*
X023395Y015230D01*
X023430Y015230D01*
X023262Y015262D02*
X021400Y015262D01*
X021400Y015104D02*
X024460Y015104D01*
X024460Y014945D02*
X021400Y014945D01*
X021400Y014787D02*
X024460Y014787D01*
X024460Y014628D02*
X021400Y014628D01*
X021400Y014470D02*
X024460Y014470D01*
X024460Y014311D02*
X021400Y014311D01*
X021400Y014153D02*
X024460Y014153D01*
X024460Y013994D02*
X021400Y013994D01*
X021400Y013836D02*
X024460Y013836D01*
X024900Y013836D02*
X024960Y013836D01*
X024960Y013994D02*
X024900Y013994D01*
X024900Y014153D02*
X024960Y014153D01*
X024960Y014311D02*
X024900Y014311D01*
X024900Y014470D02*
X024960Y014470D01*
X024960Y014628D02*
X024900Y014628D01*
X024900Y014787D02*
X024960Y014787D01*
X024960Y014945D02*
X024900Y014945D01*
X024900Y015104D02*
X024960Y015104D01*
X024960Y015262D02*
X024900Y015262D01*
X024900Y015421D02*
X024960Y015421D01*
X024960Y015579D02*
X024900Y015579D01*
X024900Y015738D02*
X024960Y015738D01*
X024900Y015896D02*
X025085Y015896D01*
X025243Y016055D02*
X024900Y016055D01*
X025024Y016213D02*
X025402Y016213D01*
X025560Y016372D02*
X025183Y016372D01*
X025341Y016530D02*
X025719Y016530D01*
X025877Y016689D02*
X025500Y016689D01*
X025658Y016847D02*
X026036Y016847D01*
X026194Y017006D02*
X025817Y017006D01*
X025975Y017164D02*
X026353Y017164D01*
X026511Y017323D02*
X026134Y017323D01*
X026292Y017481D02*
X026670Y017481D01*
X026828Y017640D02*
X026451Y017640D01*
X026609Y017798D02*
X026987Y017798D01*
X027145Y017957D02*
X026768Y017957D01*
X026926Y018115D02*
X027304Y018115D01*
X027462Y018274D02*
X027085Y018274D01*
X027243Y018432D02*
X027621Y018432D01*
X027779Y018591D02*
X027400Y018591D01*
X027400Y018749D02*
X027938Y018749D01*
X027960Y018908D02*
X027400Y018908D01*
X027400Y019066D02*
X027960Y019066D01*
X027960Y019225D02*
X027400Y019225D01*
X027400Y019383D02*
X027960Y019383D01*
X027960Y019542D02*
X027400Y019542D01*
X027400Y019700D02*
X027960Y019700D01*
X027960Y019859D02*
X027400Y019859D01*
X027400Y020017D02*
X027960Y020017D01*
X027960Y020176D02*
X027400Y020176D01*
X027555Y020334D02*
X027805Y020334D01*
X027706Y020493D02*
X027654Y020493D01*
X028180Y020680D02*
X028180Y018680D01*
X025180Y015680D01*
X025180Y009180D01*
X024928Y009239D02*
X022550Y009239D01*
X022669Y009081D02*
X022392Y009081D01*
X022522Y008922D02*
X022233Y008922D01*
X022075Y008764D02*
X022460Y008764D01*
X022460Y008605D02*
X021916Y008605D01*
X021900Y008447D02*
X022518Y008447D01*
X022657Y008288D02*
X021900Y008288D01*
X021900Y008130D02*
X022375Y008130D01*
X022193Y007971D02*
X021900Y007971D01*
X021900Y007813D02*
X022117Y007813D01*
X023618Y006386D02*
X026242Y006386D01*
X026483Y006228D02*
X023377Y006228D01*
X023523Y006069D02*
X026337Y006069D01*
X026198Y005911D02*
X023662Y005911D01*
X023656Y005435D02*
X026204Y005435D01*
X026365Y005277D02*
X023495Y005277D01*
X023196Y005078D02*
X023328Y004946D01*
X023400Y004773D01*
X023400Y004587D01*
X023328Y004414D01*
X023196Y004282D01*
X023023Y004210D01*
X022837Y004210D01*
X022664Y004282D01*
X022532Y004414D01*
X022460Y004587D01*
X022460Y004773D01*
X022532Y004946D01*
X022664Y005078D01*
X022837Y005150D01*
X023023Y005150D01*
X023196Y005078D01*
X023101Y005118D02*
X026759Y005118D01*
X026837Y005150D02*
X026664Y005078D01*
X026532Y004946D01*
X026460Y004773D01*
X026460Y004587D01*
X026532Y004414D01*
X026664Y004282D01*
X026837Y004210D01*
X027023Y004210D01*
X027196Y004282D01*
X027328Y004414D01*
X027400Y004587D01*
X027400Y004773D01*
X027328Y004946D01*
X027196Y005078D01*
X027023Y005150D01*
X026837Y005150D01*
X027101Y005118D02*
X030307Y005118D01*
X030465Y005277D02*
X027495Y005277D01*
X027656Y005435D02*
X030624Y005435D01*
X030929Y005118D02*
X031146Y005118D01*
X031146Y005142D02*
X031146Y004802D01*
X031158Y004756D01*
X031182Y004715D01*
X031215Y004682D01*
X031256Y004658D01*
X031302Y004646D01*
X031642Y004646D01*
X031642Y005142D01*
X031146Y005142D01*
X031146Y005277D02*
X031088Y005277D01*
X031146Y004960D02*
X030771Y004960D01*
X030612Y004801D02*
X031146Y004801D01*
X031642Y004801D02*
X031718Y004801D01*
X031718Y004646D02*
X032058Y004646D01*
X032104Y004658D01*
X032145Y004682D01*
X032178Y004715D01*
X032202Y004756D01*
X032214Y004802D01*
X032214Y005142D01*
X031718Y005142D01*
X031718Y004646D01*
X031718Y004960D02*
X031642Y004960D01*
X031642Y005118D02*
X031718Y005118D01*
X032214Y005118D02*
X033496Y005118D01*
X033496Y004960D02*
X032214Y004960D01*
X032214Y004801D02*
X033496Y004801D01*
X033496Y004643D02*
X030454Y004643D01*
X030295Y004484D02*
X033496Y004484D01*
X033496Y004326D02*
X030137Y004326D01*
X029978Y004167D02*
X033496Y004167D01*
X033496Y004009D02*
X029820Y004009D01*
X029661Y003850D02*
X033496Y003850D01*
X033496Y003692D02*
X029503Y003692D01*
X029344Y003533D02*
X033496Y003533D01*
X033496Y003375D02*
X029186Y003375D01*
X029027Y003216D02*
X033496Y003216D01*
X033496Y003058D02*
X028869Y003058D01*
X028710Y002899D02*
X033496Y002899D01*
X033496Y002741D02*
X028552Y002741D01*
X028393Y002582D02*
X033496Y002582D01*
X033496Y002424D02*
X028235Y002424D01*
X028076Y002265D02*
X033496Y002265D01*
X033496Y002107D02*
X032475Y002107D01*
X032621Y001948D02*
X033496Y001948D01*
X033496Y001790D02*
X032687Y001790D01*
X032690Y001631D02*
X033496Y001631D01*
X033496Y001473D02*
X032646Y001473D01*
X032535Y001314D02*
X033496Y001314D01*
X033496Y001156D02*
X024346Y001156D01*
X024309Y001144D02*
X024391Y001170D01*
X024468Y001210D01*
X024538Y001260D01*
X024600Y001322D01*
X024650Y001392D01*
X024690Y001469D01*
X024701Y001504D01*
X024748Y001391D01*
X024891Y001248D01*
X025079Y001170D01*
X025281Y001170D01*
X025469Y001248D01*
X025612Y001391D01*
X025690Y001579D01*
X025690Y001781D01*
X025612Y001969D01*
X025469Y002112D01*
X025281Y002190D01*
X025079Y002190D01*
X024891Y002112D01*
X024748Y001969D01*
X024701Y001856D01*
X024690Y001891D01*
X024650Y001968D01*
X024600Y002038D01*
X024538Y002100D01*
X024468Y002150D01*
X024391Y002190D01*
X024309Y002216D01*
X024223Y002230D01*
X024200Y002230D01*
X024200Y001700D01*
X024160Y001700D01*
X024160Y002230D01*
X024137Y002230D01*
X024051Y002216D01*
X023969Y002190D01*
X023892Y002150D01*
X023822Y002100D01*
X023760Y002038D01*
X023710Y001968D01*
X023680Y001910D01*
X023650Y001968D01*
X023600Y002038D01*
X023538Y002100D01*
X023468Y002150D01*
X023391Y002190D01*
X023309Y002216D01*
X023223Y002230D01*
X023200Y002230D01*
X023200Y001700D01*
X024160Y001700D01*
X024160Y001660D01*
X024200Y001660D01*
X024200Y001130D01*
X024223Y001130D01*
X024309Y001144D01*
X024200Y001156D02*
X024160Y001156D01*
X024160Y001130D02*
X024160Y001660D01*
X023630Y001660D01*
X023200Y001660D01*
X023200Y001130D01*
X023223Y001130D01*
X023309Y001144D01*
X023391Y001170D01*
X023468Y001210D01*
X023538Y001260D01*
X023600Y001322D01*
X023650Y001392D01*
X023680Y001450D01*
X023710Y001392D01*
X023760Y001322D01*
X023822Y001260D01*
X023892Y001210D01*
X023969Y001170D01*
X024051Y001144D01*
X024137Y001130D01*
X024160Y001130D01*
X024014Y001156D02*
X023346Y001156D01*
X023200Y001156D02*
X023160Y001156D01*
X023160Y001314D02*
X023200Y001314D01*
X023200Y001473D02*
X023160Y001473D01*
X023160Y001631D02*
X023200Y001631D01*
X023200Y001790D02*
X023160Y001790D01*
X023160Y001948D02*
X023200Y001948D01*
X023200Y002107D02*
X023160Y002107D01*
X022831Y002107D02*
X022475Y002107D01*
X022400Y002265D02*
X027454Y002265D01*
X027612Y002424D02*
X022400Y002424D01*
X022400Y002582D02*
X027771Y002582D01*
X027929Y002741D02*
X022400Y002741D01*
X022400Y002899D02*
X028088Y002899D01*
X028246Y003058D02*
X022400Y003058D01*
X022400Y003216D02*
X028405Y003216D01*
X028563Y003375D02*
X022297Y003375D01*
X022138Y003533D02*
X028722Y003533D01*
X028880Y003692D02*
X021980Y003692D01*
X021821Y003850D02*
X029039Y003850D01*
X029197Y004009D02*
X021663Y004009D01*
X021504Y004167D02*
X029356Y004167D01*
X029514Y004326D02*
X027240Y004326D01*
X027358Y004484D02*
X029673Y004484D01*
X029831Y004643D02*
X027400Y004643D01*
X027389Y004801D02*
X029990Y004801D01*
X030148Y004960D02*
X027315Y004960D01*
X026545Y004960D02*
X023315Y004960D01*
X023389Y004801D02*
X026471Y004801D01*
X026460Y004643D02*
X023400Y004643D01*
X023358Y004484D02*
X026502Y004484D01*
X026620Y004326D02*
X023240Y004326D01*
X022620Y004326D02*
X021346Y004326D01*
X021187Y004484D02*
X022502Y004484D01*
X022460Y004643D02*
X021029Y004643D01*
X020900Y004801D02*
X022471Y004801D01*
X022545Y004960D02*
X020900Y004960D01*
X020900Y005118D02*
X022759Y005118D01*
X022365Y005277D02*
X020900Y005277D01*
X020900Y005435D02*
X022204Y005435D01*
X018518Y008447D02*
X017900Y008447D01*
X017916Y008605D02*
X018460Y008605D01*
X018460Y008764D02*
X018075Y008764D01*
X018233Y008922D02*
X018522Y008922D01*
X018392Y009081D02*
X018669Y009081D01*
X022709Y009398D02*
X024960Y009398D01*
X024960Y009556D02*
X022867Y009556D01*
X023026Y009715D02*
X024960Y009715D01*
X024960Y009873D02*
X023184Y009873D01*
X023343Y010032D02*
X024960Y010032D01*
X024960Y010190D02*
X023501Y010190D01*
X023660Y010349D02*
X024960Y010349D01*
X024960Y010507D02*
X023818Y010507D01*
X023977Y010666D02*
X024960Y010666D01*
X024960Y010824D02*
X024135Y010824D01*
X024294Y010983D02*
X024960Y010983D01*
X024960Y011141D02*
X024452Y011141D01*
X024611Y011300D02*
X024960Y011300D01*
X024960Y011458D02*
X024769Y011458D01*
X024900Y011617D02*
X024960Y011617D01*
X024960Y011775D02*
X024900Y011775D01*
X024900Y011934D02*
X024960Y011934D01*
X024960Y012092D02*
X024900Y012092D01*
X024900Y012251D02*
X024960Y012251D01*
X024960Y012409D02*
X024900Y012409D01*
X024900Y012568D02*
X024960Y012568D01*
X024960Y012726D02*
X024900Y012726D01*
X024900Y012885D02*
X024960Y012885D01*
X024960Y013043D02*
X024900Y013043D01*
X024900Y013202D02*
X024960Y013202D01*
X024960Y013360D02*
X024900Y013360D01*
X024900Y013519D02*
X024960Y013519D01*
X024960Y013677D02*
X024900Y013677D01*
X023430Y013519D02*
X023430Y013519D01*
X023430Y013360D02*
X023430Y013360D01*
X023430Y013202D02*
X023430Y013202D01*
X023430Y013043D02*
X023430Y013043D01*
X023430Y012885D02*
X023430Y012885D01*
X023430Y012726D02*
X023430Y012726D01*
X023430Y012568D02*
X023430Y012568D01*
X023430Y012409D02*
X023430Y012409D01*
X023076Y012409D02*
X022735Y012409D01*
X022821Y012568D02*
X023001Y012568D01*
X022990Y012726D02*
X022830Y012726D01*
X022830Y012885D02*
X022990Y012885D01*
X022990Y013043D02*
X022830Y013043D01*
X022830Y013202D02*
X022990Y013202D01*
X023023Y013360D02*
X022793Y013360D01*
X022667Y013519D02*
X023136Y013519D01*
X020960Y013519D02*
X020900Y013519D01*
X020900Y013677D02*
X020960Y013677D01*
X020960Y013836D02*
X020900Y013836D01*
X020900Y013994D02*
X020960Y013994D01*
X020960Y014153D02*
X020900Y014153D01*
X020900Y014311D02*
X020960Y014311D01*
X020960Y014470D02*
X020900Y014470D01*
X020900Y014628D02*
X020960Y014628D01*
X020960Y014787D02*
X020900Y014787D01*
X020900Y014945D02*
X020960Y014945D01*
X020960Y015104D02*
X020900Y015104D01*
X020900Y015262D02*
X020960Y015262D01*
X020960Y015421D02*
X020900Y015421D01*
X020900Y015579D02*
X020960Y015579D01*
X020960Y015738D02*
X020900Y015738D01*
X020900Y015896D02*
X020960Y015896D01*
X020960Y016055D02*
X020900Y016055D01*
X020900Y016213D02*
X020960Y016213D01*
X020960Y016372D02*
X020900Y016372D01*
X020900Y016530D02*
X020960Y016530D01*
X020460Y016530D02*
X019711Y016530D01*
X019717Y016526D02*
X019661Y016566D01*
X019599Y016598D01*
X019533Y016619D01*
X019465Y016630D01*
X019430Y016630D01*
X019430Y015930D01*
X019870Y015930D01*
X019870Y016225D01*
X019859Y016293D01*
X019838Y016359D01*
X019806Y016421D01*
X019766Y016477D01*
X019717Y016526D01*
X019831Y016372D02*
X020460Y016372D01*
X020460Y016213D02*
X019870Y016213D01*
X019870Y016055D02*
X020460Y016055D01*
X020460Y015896D02*
X019870Y015896D01*
X019870Y015930D02*
X019430Y015930D01*
X019430Y015930D01*
X019430Y015930D01*
X019430Y015230D01*
X019465Y015230D01*
X019533Y015241D01*
X019599Y015262D01*
X019661Y015294D01*
X019717Y015334D01*
X019766Y015383D01*
X019806Y015439D01*
X019838Y015501D01*
X019859Y015567D01*
X019870Y015635D01*
X019870Y015930D01*
X019870Y015738D02*
X020460Y015738D01*
X020460Y015579D02*
X019861Y015579D01*
X019793Y015421D02*
X020460Y015421D01*
X020460Y015262D02*
X019598Y015262D01*
X019430Y015262D02*
X019430Y015262D01*
X019430Y015230D02*
X019430Y015930D01*
X019430Y015930D01*
X019430Y015930D01*
X018990Y015930D01*
X018990Y016225D01*
X019001Y016293D01*
X019022Y016359D01*
X019054Y016421D01*
X019094Y016477D01*
X019143Y016526D01*
X019199Y016566D01*
X019261Y016598D01*
X019327Y016619D01*
X019395Y016630D01*
X019430Y016630D01*
X019430Y015930D01*
X018990Y015930D01*
X018990Y015635D01*
X019001Y015567D01*
X019022Y015501D01*
X019054Y015439D01*
X019094Y015383D01*
X019143Y015334D01*
X019199Y015294D01*
X019261Y015262D01*
X019327Y015241D01*
X019395Y015230D01*
X019430Y015230D01*
X019262Y015262D02*
X017400Y015262D01*
X017400Y015104D02*
X020460Y015104D01*
X020460Y014945D02*
X017400Y014945D01*
X017400Y014787D02*
X020460Y014787D01*
X020460Y014628D02*
X017400Y014628D01*
X017400Y014470D02*
X020460Y014470D01*
X020460Y014311D02*
X017400Y014311D01*
X017400Y014153D02*
X020460Y014153D01*
X020460Y013994D02*
X017400Y013994D01*
X017400Y013836D02*
X020460Y013836D01*
X020900Y013360D02*
X020960Y013360D01*
X020960Y013202D02*
X020900Y013202D01*
X020900Y013043D02*
X020960Y013043D01*
X020960Y012885D02*
X020900Y012885D01*
X020900Y012726D02*
X020960Y012726D01*
X020960Y012568D02*
X020900Y012568D01*
X019430Y012568D02*
X019430Y012568D01*
X019430Y012726D02*
X019430Y012726D01*
X019430Y012885D02*
X019430Y012885D01*
X019430Y013043D02*
X019430Y013043D01*
X019430Y013202D02*
X019430Y013202D01*
X019430Y013360D02*
X019430Y013360D01*
X019430Y013519D02*
X019430Y013519D01*
X019136Y013519D02*
X018667Y013519D01*
X018793Y013360D02*
X019023Y013360D01*
X018990Y013202D02*
X018830Y013202D01*
X018830Y013043D02*
X018990Y013043D01*
X018990Y012885D02*
X018830Y012885D01*
X018830Y012726D02*
X018990Y012726D01*
X019001Y012568D02*
X018821Y012568D01*
X018735Y012409D02*
X019076Y012409D01*
X019430Y012409D02*
X019430Y012409D01*
X016960Y012568D02*
X016900Y012568D01*
X016900Y012726D02*
X016960Y012726D01*
X016960Y012885D02*
X016900Y012885D01*
X016900Y013043D02*
X016960Y013043D01*
X016960Y013202D02*
X016900Y013202D01*
X016900Y013360D02*
X016960Y013360D01*
X016960Y013519D02*
X016900Y013519D01*
X016900Y013677D02*
X016960Y013677D01*
X016960Y013836D02*
X016900Y013836D01*
X016900Y013994D02*
X016960Y013994D01*
X016960Y014153D02*
X016900Y014153D01*
X016900Y014311D02*
X016960Y014311D01*
X016960Y014470D02*
X016900Y014470D01*
X016900Y014628D02*
X016960Y014628D01*
X016960Y014787D02*
X016900Y014787D01*
X016900Y014945D02*
X016960Y014945D01*
X016960Y015104D02*
X016900Y015104D01*
X016900Y015262D02*
X016960Y015262D01*
X016960Y015421D02*
X016900Y015421D01*
X016900Y015579D02*
X016960Y015579D01*
X016960Y015738D02*
X016900Y015738D01*
X016900Y015896D02*
X016960Y015896D01*
X016960Y016055D02*
X016900Y016055D01*
X016460Y016055D02*
X015870Y016055D01*
X015870Y015930D02*
X015870Y016225D01*
X015859Y016293D01*
X015838Y016359D01*
X015806Y016421D01*
X015766Y016477D01*
X015717Y016526D01*
X015661Y016566D01*
X015599Y016598D01*
X015533Y016619D01*
X015465Y016630D01*
X015430Y016630D01*
X015430Y015930D01*
X015870Y015930D01*
X015430Y015930D01*
X015430Y015930D01*
X015430Y015930D01*
X015430Y015230D01*
X015465Y015230D01*
X015533Y015241D01*
X015599Y015262D01*
X015661Y015294D01*
X015717Y015334D01*
X015766Y015383D01*
X015806Y015439D01*
X015838Y015501D01*
X015859Y015567D01*
X015870Y015635D01*
X015870Y015930D01*
X015870Y015896D02*
X016460Y015896D01*
X016460Y015738D02*
X015870Y015738D01*
X015861Y015579D02*
X016460Y015579D01*
X016460Y015421D02*
X015793Y015421D01*
X015598Y015262D02*
X016460Y015262D01*
X016460Y015104D02*
X013400Y015104D01*
X013400Y015262D02*
X015262Y015262D01*
X015261Y015262D02*
X015327Y015241D01*
X015395Y015230D01*
X015430Y015230D01*
X015430Y015930D01*
X015430Y015930D01*
X015430Y015930D01*
X014990Y015930D01*
X014990Y016225D01*
X015001Y016293D01*
X015022Y016359D01*
X015054Y016421D01*
X015094Y016477D01*
X015143Y016526D01*
X015199Y016566D01*
X015261Y016598D01*
X015327Y016619D01*
X015395Y016630D01*
X015430Y016630D01*
X015430Y015930D01*
X014990Y015930D01*
X014990Y015635D01*
X015001Y015567D01*
X015022Y015501D01*
X015054Y015439D01*
X015094Y015383D01*
X015143Y015334D01*
X015199Y015294D01*
X015261Y015262D01*
X015430Y015262D02*
X015430Y015262D01*
X015430Y015421D02*
X015430Y015421D01*
X015430Y015579D02*
X015430Y015579D01*
X015430Y015738D02*
X015430Y015738D01*
X015430Y015896D02*
X015430Y015896D01*
X015430Y016055D02*
X015430Y016055D01*
X015430Y016213D02*
X015430Y016213D01*
X015430Y016372D02*
X015430Y016372D01*
X015430Y016530D02*
X015430Y016530D01*
X015149Y016530D02*
X014654Y016530D01*
X014788Y016372D02*
X015029Y016372D01*
X014990Y016213D02*
X014830Y016213D01*
X014830Y016055D02*
X014990Y016055D01*
X014990Y015896D02*
X014830Y015896D01*
X014830Y015738D02*
X014990Y015738D01*
X014999Y015579D02*
X014825Y015579D01*
X014746Y015421D02*
X015067Y015421D01*
X014114Y015421D02*
X013400Y015421D01*
X013400Y015579D02*
X014035Y015579D01*
X014030Y015738D02*
X013400Y015738D01*
X013400Y015896D02*
X014030Y015896D01*
X012960Y015262D02*
X012900Y015262D01*
X012900Y015104D02*
X012960Y015104D01*
X012960Y014945D02*
X012900Y014945D01*
X012900Y014787D02*
X012960Y014787D01*
X012960Y014628D02*
X012900Y014628D01*
X012900Y014470D02*
X012960Y014470D01*
X012960Y014311D02*
X012900Y014311D01*
X012900Y014153D02*
X012960Y014153D01*
X012960Y013994D02*
X012900Y013994D01*
X012900Y013836D02*
X012960Y013836D01*
X012960Y013677D02*
X012900Y013677D01*
X012900Y013519D02*
X012960Y013519D01*
X012960Y013360D02*
X012900Y013360D01*
X012900Y013202D02*
X012960Y013202D01*
X012960Y013043D02*
X012900Y013043D01*
X012900Y012885D02*
X012960Y012885D01*
X012960Y012726D02*
X012900Y012726D01*
X012900Y012568D02*
X012960Y012568D01*
X011430Y012568D02*
X011430Y012568D01*
X011430Y012726D02*
X011430Y012726D01*
X011430Y012885D02*
X011430Y012885D01*
X011430Y013043D02*
X011430Y013043D01*
X011430Y013202D02*
X011430Y013202D01*
X011430Y013360D02*
X011430Y013360D01*
X011430Y013519D02*
X011430Y013519D01*
X011136Y013519D02*
X010667Y013519D01*
X010793Y013360D02*
X011023Y013360D01*
X010990Y013202D02*
X010830Y013202D01*
X010830Y013043D02*
X010990Y013043D01*
X010990Y012885D02*
X010830Y012885D01*
X010830Y012726D02*
X010990Y012726D01*
X011001Y012568D02*
X010821Y012568D01*
X010735Y012409D02*
X011076Y012409D01*
X011430Y012409D02*
X011430Y012409D01*
X013400Y013836D02*
X016460Y013836D01*
X016460Y013994D02*
X013400Y013994D01*
X013400Y014153D02*
X016460Y014153D01*
X016460Y014311D02*
X013400Y014311D01*
X013400Y014470D02*
X016460Y014470D01*
X016460Y014628D02*
X013400Y014628D01*
X013400Y014787D02*
X016460Y014787D01*
X016460Y014945D02*
X013400Y014945D01*
X014667Y013519D02*
X015136Y013519D01*
X015023Y013360D02*
X014793Y013360D01*
X014830Y013202D02*
X014990Y013202D01*
X014990Y013043D02*
X014830Y013043D01*
X014830Y012885D02*
X014990Y012885D01*
X014990Y012726D02*
X014830Y012726D01*
X014821Y012568D02*
X015001Y012568D01*
X015076Y012409D02*
X014735Y012409D01*
X015430Y012409D02*
X015430Y012409D01*
X015430Y012568D02*
X015430Y012568D01*
X015430Y012726D02*
X015430Y012726D01*
X015430Y012885D02*
X015430Y012885D01*
X015430Y013043D02*
X015430Y013043D01*
X015430Y013202D02*
X015430Y013202D01*
X015430Y013360D02*
X015430Y013360D01*
X015430Y013519D02*
X015430Y013519D01*
X017400Y015421D02*
X018114Y015421D01*
X018091Y015443D02*
X018203Y015331D01*
X018350Y015270D01*
X018510Y015270D01*
X018657Y015331D01*
X018769Y015443D01*
X018830Y015590D01*
X018830Y016270D01*
X018769Y016417D01*
X018657Y016529D01*
X018510Y016590D01*
X018350Y016590D01*
X018203Y016529D01*
X018091Y016417D01*
X018030Y016270D01*
X018030Y015590D01*
X018091Y015443D01*
X018035Y015579D02*
X017400Y015579D01*
X017400Y015738D02*
X018030Y015738D01*
X018030Y015896D02*
X017400Y015896D01*
X017400Y016055D02*
X018030Y016055D01*
X018030Y016213D02*
X017524Y016213D01*
X017683Y016372D02*
X018072Y016372D01*
X018206Y016530D02*
X017841Y016530D01*
X018000Y016689D02*
X020460Y016689D01*
X020536Y016847D02*
X018158Y016847D01*
X018654Y016530D02*
X019149Y016530D01*
X019029Y016372D02*
X018788Y016372D01*
X018830Y016213D02*
X018990Y016213D01*
X018990Y016055D02*
X018830Y016055D01*
X018830Y015896D02*
X018990Y015896D01*
X018990Y015738D02*
X018830Y015738D01*
X018825Y015579D02*
X018999Y015579D01*
X019067Y015421D02*
X018746Y015421D01*
X019430Y015421D02*
X019430Y015421D01*
X019430Y015579D02*
X019430Y015579D01*
X019430Y015738D02*
X019430Y015738D01*
X019430Y015896D02*
X019430Y015896D01*
X019430Y016055D02*
X019430Y016055D01*
X019430Y016213D02*
X019430Y016213D01*
X019430Y016372D02*
X019430Y016372D01*
X019430Y016530D02*
X019430Y016530D01*
X021400Y016530D02*
X022206Y016530D01*
X022203Y016529D02*
X022091Y016417D01*
X022030Y016270D01*
X022030Y015590D01*
X022091Y015443D01*
X022203Y015331D01*
X022350Y015270D01*
X022510Y015270D01*
X022657Y015331D01*
X022769Y015443D01*
X022830Y015590D01*
X022830Y016270D01*
X022769Y016417D01*
X022657Y016529D01*
X022510Y016590D01*
X022350Y016590D01*
X022203Y016529D01*
X022072Y016372D02*
X021400Y016372D01*
X021400Y016213D02*
X022030Y016213D01*
X022030Y016055D02*
X021400Y016055D01*
X021400Y015896D02*
X022030Y015896D01*
X022030Y015738D02*
X021400Y015738D01*
X021400Y015579D02*
X022035Y015579D01*
X022114Y015421D02*
X021400Y015421D01*
X022746Y015421D02*
X023067Y015421D01*
X022999Y015579D02*
X022825Y015579D01*
X022830Y015738D02*
X022990Y015738D01*
X022990Y015896D02*
X022830Y015896D01*
X022830Y016055D02*
X022990Y016055D01*
X022990Y016213D02*
X022830Y016213D01*
X022788Y016372D02*
X023029Y016372D01*
X023149Y016530D02*
X022654Y016530D01*
X023430Y016530D02*
X023430Y016530D01*
X023430Y016372D02*
X023430Y016372D01*
X023430Y016213D02*
X023430Y016213D01*
X023430Y016055D02*
X023430Y016055D01*
X023430Y015896D02*
X023430Y015896D01*
X023430Y015738D02*
X023430Y015738D01*
X023430Y015579D02*
X023430Y015579D01*
X023430Y015421D02*
X023430Y015421D01*
X025400Y015421D02*
X026114Y015421D01*
X026035Y015579D02*
X025400Y015579D01*
X025549Y015738D02*
X026030Y015738D01*
X026030Y015896D02*
X025707Y015896D01*
X025866Y016055D02*
X026030Y016055D01*
X026024Y016213D02*
X026030Y016213D01*
X026654Y016530D02*
X027149Y016530D01*
X027029Y016372D02*
X026788Y016372D01*
X026830Y016213D02*
X026990Y016213D01*
X026990Y016055D02*
X026830Y016055D01*
X026830Y015896D02*
X026990Y015896D01*
X026990Y015738D02*
X026830Y015738D01*
X026825Y015579D02*
X026999Y015579D01*
X027067Y015421D02*
X026746Y015421D01*
X027430Y015421D02*
X027430Y015421D01*
X027430Y015579D02*
X027430Y015579D01*
X027430Y015738D02*
X027430Y015738D01*
X027430Y015896D02*
X027430Y015896D01*
X027430Y016055D02*
X027430Y016055D01*
X027430Y016213D02*
X027430Y016213D01*
X027430Y016372D02*
X027430Y016372D01*
X027430Y016530D02*
X027430Y016530D01*
X028400Y018908D02*
X028960Y018908D01*
X028960Y019066D02*
X028400Y019066D01*
X028400Y019225D02*
X028960Y019225D01*
X028960Y019383D02*
X028400Y019383D01*
X028400Y019542D02*
X028960Y019542D01*
X028960Y019700D02*
X028400Y019700D01*
X028400Y019859D02*
X028960Y019859D01*
X028960Y020017D02*
X028400Y020017D01*
X028400Y020176D02*
X028960Y020176D01*
X028805Y020334D02*
X028555Y020334D01*
X028654Y020493D02*
X028706Y020493D01*
X028682Y020810D02*
X028678Y020810D01*
X028613Y020968D02*
X028747Y020968D01*
X028925Y021127D02*
X028435Y021127D01*
X027925Y021127D02*
X027435Y021127D01*
X027613Y020968D02*
X027747Y020968D01*
X027682Y020810D02*
X027678Y020810D01*
X026925Y021127D02*
X026435Y021127D01*
X026613Y020968D02*
X026747Y020968D01*
X026682Y020810D02*
X026678Y020810D01*
X029435Y021127D02*
X029925Y021127D01*
X029747Y020968D02*
X029613Y020968D01*
X029678Y020810D02*
X029682Y020810D01*
X030435Y021127D02*
X030925Y021127D01*
X030747Y020968D02*
X030613Y020968D01*
X030678Y020810D02*
X030682Y020810D01*
X031435Y021127D02*
X031925Y021127D01*
X031747Y020968D02*
X031613Y020968D01*
X031678Y020810D02*
X031682Y020810D01*
X031706Y020493D02*
X031654Y020493D01*
X031555Y020334D02*
X031805Y020334D01*
X033496Y021444D02*
X014580Y021444D01*
X014546Y021602D02*
X033496Y021602D01*
X033496Y022078D02*
X002360Y022078D01*
X002360Y022154D02*
X033496Y022154D01*
X033496Y000860D01*
X002360Y000860D01*
X002360Y022154D01*
X004900Y016530D02*
X006206Y016530D01*
X006203Y016529D02*
X006091Y016417D01*
X006030Y016270D01*
X006030Y015590D01*
X006091Y015443D01*
X006203Y015331D01*
X006350Y015270D01*
X006510Y015270D01*
X006657Y015331D01*
X006769Y015443D01*
X006830Y015590D01*
X006830Y016270D01*
X006769Y016417D01*
X006657Y016529D01*
X006510Y016590D01*
X006350Y016590D01*
X006203Y016529D01*
X006072Y016372D02*
X004900Y016372D01*
X004900Y016213D02*
X006030Y016213D01*
X006030Y016055D02*
X004900Y016055D01*
X004900Y015896D02*
X006030Y015896D01*
X006030Y015738D02*
X004900Y015738D01*
X004900Y015579D02*
X006035Y015579D01*
X006114Y015421D02*
X004900Y015421D01*
X006746Y015421D02*
X007067Y015421D01*
X006999Y015579D02*
X006825Y015579D01*
X006830Y015738D02*
X006990Y015738D01*
X006990Y015896D02*
X006830Y015896D01*
X006830Y016055D02*
X006990Y016055D01*
X006990Y016213D02*
X006830Y016213D01*
X006788Y016372D02*
X007029Y016372D01*
X007149Y016530D02*
X006654Y016530D01*
X007430Y016530D02*
X007430Y016530D01*
X007430Y016372D02*
X007430Y016372D01*
X007430Y016213D02*
X007430Y016213D01*
X007430Y016055D02*
X007430Y016055D01*
X007430Y015896D02*
X007430Y015896D01*
X007430Y015738D02*
X007430Y015738D01*
X007430Y015579D02*
X007430Y015579D01*
X007430Y015421D02*
X007430Y015421D01*
X007430Y013519D02*
X007430Y013519D01*
X007430Y013360D02*
X007430Y013360D01*
X007430Y013202D02*
X007430Y013202D01*
X007430Y013043D02*
X007430Y013043D01*
X007430Y012885D02*
X007430Y012885D01*
X007430Y012726D02*
X007430Y012726D01*
X007430Y012568D02*
X007430Y012568D01*
X007430Y012409D02*
X007430Y012409D01*
X007076Y012409D02*
X006735Y012409D01*
X006821Y012568D02*
X007001Y012568D01*
X006990Y012726D02*
X006830Y012726D01*
X006830Y012885D02*
X006990Y012885D01*
X006990Y013043D02*
X006830Y013043D01*
X006830Y013202D02*
X006990Y013202D01*
X007023Y013360D02*
X006793Y013360D01*
X006667Y013519D02*
X007136Y013519D01*
X014960Y018771D02*
X014960Y018771D01*
X015711Y016530D02*
X016719Y016530D01*
X016560Y016372D02*
X015831Y016372D01*
X015870Y016213D02*
X016460Y016213D01*
X028388Y008922D02*
X028611Y008922D01*
X029075Y008764D02*
X031186Y008764D01*
X031186Y008922D02*
X029233Y008922D01*
X029392Y009081D02*
X031186Y009081D01*
X031186Y009239D02*
X029400Y009239D01*
X029400Y009398D02*
X031186Y009398D01*
X031186Y009556D02*
X029400Y009556D01*
X029400Y009715D02*
X031460Y009715D01*
X031460Y009873D02*
X029400Y009873D01*
X029400Y010032D02*
X031460Y010032D01*
X031460Y010190D02*
X029400Y010190D01*
X029400Y010349D02*
X031460Y010349D01*
X031460Y010507D02*
X029400Y010507D01*
X029400Y010666D02*
X031460Y010666D01*
X031460Y010824D02*
X029400Y010824D01*
X029400Y010983D02*
X031460Y010983D01*
X031460Y011141D02*
X029400Y011141D01*
X029400Y011300D02*
X031460Y011300D01*
X031460Y011458D02*
X029400Y011458D01*
X029400Y011617D02*
X031460Y011617D01*
X031460Y011775D02*
X029400Y011775D01*
X029400Y011934D02*
X031460Y011934D01*
X031460Y012092D02*
X029400Y012092D01*
X029400Y012251D02*
X031460Y012251D01*
X031460Y012409D02*
X029400Y012409D01*
X031180Y012680D02*
X031680Y012680D01*
X031680Y009164D01*
X032174Y009239D02*
X033496Y009239D01*
X033496Y009081D02*
X032174Y009081D01*
X032174Y008922D02*
X033496Y008922D01*
X033496Y008764D02*
X032174Y008764D01*
X032162Y008605D02*
X033496Y008605D01*
X033496Y008447D02*
X032174Y008447D01*
X032174Y008288D02*
X033496Y008288D01*
X033496Y008130D02*
X032174Y008130D01*
X032174Y007971D02*
X033496Y007971D01*
X033496Y007813D02*
X032174Y007813D01*
X032113Y007654D02*
X033496Y007654D01*
X033496Y007496D02*
X032174Y007496D01*
X032174Y007337D02*
X033496Y007337D01*
X033496Y007179D02*
X032174Y007179D01*
X032174Y007020D02*
X033496Y007020D01*
X033496Y006862D02*
X032174Y006862D01*
X032110Y006703D02*
X033496Y006703D01*
X033496Y006545D02*
X032174Y006545D01*
X032174Y006386D02*
X033496Y006386D01*
X033496Y006228D02*
X032174Y006228D01*
X032174Y006069D02*
X033496Y006069D01*
X033496Y005911D02*
X032174Y005911D01*
X032159Y005752D02*
X033496Y005752D01*
X033496Y005594D02*
X032205Y005594D01*
X032214Y005435D02*
X033496Y005435D01*
X033496Y005277D02*
X032214Y005277D01*
X031680Y006180D02*
X027180Y001680D01*
X027535Y001314D02*
X027825Y001314D01*
X027714Y001473D02*
X027646Y001473D01*
X028535Y001314D02*
X028825Y001314D01*
X028714Y001473D02*
X028646Y001473D01*
X028621Y001948D02*
X028739Y001948D01*
X028885Y002107D02*
X028475Y002107D01*
X029475Y002107D02*
X029885Y002107D01*
X029739Y001948D02*
X029621Y001948D01*
X029646Y001473D02*
X029714Y001473D01*
X029825Y001314D02*
X029535Y001314D01*
X030535Y001314D02*
X030825Y001314D01*
X030714Y001473D02*
X030646Y001473D01*
X030621Y001948D02*
X030739Y001948D01*
X030885Y002107D02*
X030475Y002107D01*
X031475Y002107D02*
X031885Y002107D01*
X031739Y001948D02*
X031621Y001948D01*
X031646Y001473D02*
X031714Y001473D01*
X031825Y001314D02*
X031535Y001314D01*
X033496Y000997D02*
X002360Y000997D01*
X010151Y007020D02*
X010288Y007020D01*
X010545Y007179D02*
X009993Y007179D01*
X009900Y007337D02*
X010234Y007337D01*
X010134Y007496D02*
X009900Y007496D01*
X020475Y002107D02*
X020885Y002107D01*
X020739Y001948D02*
X020621Y001948D01*
X020646Y001473D02*
X020714Y001473D01*
X020825Y001314D02*
X020535Y001314D01*
X021535Y001314D02*
X021825Y001314D01*
X021714Y001473D02*
X021646Y001473D01*
X021621Y001948D02*
X021739Y001948D01*
X021885Y002107D02*
X021475Y002107D01*
X022621Y001948D02*
X022699Y001948D01*
X023529Y002107D02*
X023831Y002107D01*
X023699Y001948D02*
X023661Y001948D01*
X024160Y001948D02*
X024200Y001948D01*
X024200Y001790D02*
X024160Y001790D01*
X024160Y001631D02*
X024200Y001631D01*
X024200Y001473D02*
X024160Y001473D01*
X024160Y001314D02*
X024200Y001314D01*
X024592Y001314D02*
X024825Y001314D01*
X024714Y001473D02*
X024691Y001473D01*
X024661Y001948D02*
X024739Y001948D01*
X024885Y002107D02*
X024529Y002107D01*
X024200Y002107D02*
X024160Y002107D01*
X023768Y001314D02*
X023592Y001314D01*
X025535Y001314D02*
X026825Y001314D01*
X026714Y001473D02*
X025646Y001473D01*
X025690Y001631D02*
X026670Y001631D01*
X026673Y001790D02*
X025687Y001790D01*
X025621Y001948D02*
X026739Y001948D01*
X026885Y002107D02*
X025475Y002107D01*
X030990Y007179D02*
X031186Y007179D01*
X031186Y007337D02*
X031148Y007337D01*
X031198Y008605D02*
X028916Y008605D01*
X031900Y009715D02*
X033496Y009715D01*
X033496Y009873D02*
X031900Y009873D01*
X031900Y010032D02*
X033496Y010032D01*
X033496Y010190D02*
X031900Y010190D01*
X031900Y010349D02*
X033496Y010349D01*
X033496Y010507D02*
X031900Y010507D01*
X031900Y010666D02*
X033496Y010666D01*
X033496Y010824D02*
X031900Y010824D01*
X031900Y010983D02*
X033496Y010983D01*
X033496Y011141D02*
X031900Y011141D01*
X031900Y011300D02*
X033496Y011300D01*
X033496Y011458D02*
X031900Y011458D01*
X031900Y011617D02*
X033496Y011617D01*
X033496Y011775D02*
X031900Y011775D01*
X031900Y011934D02*
X033496Y011934D01*
X033496Y012092D02*
X031900Y012092D01*
X031900Y012251D02*
X033496Y012251D01*
X033496Y012409D02*
X031900Y012409D01*
X031900Y012568D02*
X033496Y012568D01*
X033496Y012726D02*
X032185Y012726D01*
X032214Y012885D02*
X033496Y012885D01*
X033496Y013043D02*
X032214Y013043D01*
X032214Y013360D02*
X033496Y013360D01*
X033496Y013202D02*
X031718Y013202D01*
X032214Y013519D02*
X033496Y013519D01*
X033496Y013677D02*
X032146Y013677D01*
X032174Y013836D02*
X033496Y013836D01*
X033496Y013994D02*
X032174Y013994D01*
X032174Y009556D02*
X033496Y009556D01*
X033496Y009398D02*
X032174Y009398D01*
D17*
X028180Y008680D03*
X024180Y008680D03*
X020180Y008680D03*
X016180Y008680D03*
X012180Y008680D03*
X008180Y008680D03*
M02*
