G75*
G70*
%OFA0B0*%
%FSLAX24Y24*%
%IPPOS*%
%LPD*%
%AMOC8*
5,1,8,0,0,1.08239X$1,22.5*
%
%ADD10C,0.0000*%
%ADD11C,0.0060*%
D10*
X002180Y000680D02*
X002180Y022334D01*
X033676Y022334D01*
X033676Y000680D01*
X002180Y000680D01*
D11*
X003107Y002710D02*
X003000Y002817D01*
X003000Y002924D01*
X003107Y003030D01*
X003427Y003030D01*
X003427Y002817D01*
X003320Y002710D01*
X003107Y002710D01*
X003427Y003030D02*
X003214Y003244D01*
X003000Y003351D01*
X003645Y003244D02*
X004072Y002817D01*
X003965Y002710D01*
X003752Y002710D01*
X003645Y002817D01*
X003645Y003244D01*
X003752Y003351D01*
X003965Y003351D01*
X004072Y003244D01*
X004072Y002817D01*
X004289Y002817D02*
X004289Y002924D01*
X004396Y003030D01*
X004716Y003030D01*
X004716Y002817D01*
X004610Y002710D01*
X004396Y002710D01*
X004289Y002817D01*
X004503Y003244D02*
X004716Y003030D01*
X004503Y003244D02*
X004289Y003351D01*
X005147Y003351D02*
X005147Y002710D01*
X004934Y002710D02*
X005361Y002710D01*
X005578Y002817D02*
X005578Y002924D01*
X005685Y003030D01*
X006005Y003030D01*
X006005Y002817D01*
X005899Y002710D01*
X005685Y002710D01*
X005578Y002817D01*
X005361Y003137D02*
X005147Y003351D01*
X005578Y003351D02*
X005792Y003244D01*
X006005Y003030D01*
X006223Y002817D02*
X006223Y003244D01*
X006330Y003351D01*
X006650Y003351D01*
X006650Y002710D01*
X006330Y002710D01*
X006223Y002817D01*
M02*
