%
M48
M72
T01C0.0236
T02C0.0320
T03C0.0400
T04C0.0433
T05C0.0472
%
T01
X8180Y8680
X12180Y8680
X16180Y8680
X20180Y8680
X24180Y8680
X28180Y8680
T02
X27430Y12930
X26430Y12930
X23430Y12930
X22430Y12930
X19430Y12930
X18430Y12930
X15430Y12930
X14430Y12930
X11430Y12930
X10430Y12930
X7430Y12930
X6430Y12930
X6430Y15930
X7430Y15930
X10430Y15930
X11430Y15930
X14430Y15930
X15430Y15930
X18430Y15930
X19430Y15930
X22430Y15930
X23430Y15930
X26430Y15930
X27430Y15930
X14180Y21180
X13180Y21180
X7680Y21180
X6680Y21180
T03
X16680Y20680
X17680Y20680
X18680Y20680
X19680Y20680
X20680Y20680
X21680Y20680
X22680Y20680
X23680Y20680
X25180Y20680
X26180Y20680
X27180Y20680
X28180Y20680
X29180Y20680
X30180Y20680
X31180Y20680
X32180Y20680
X32180Y1680
X31180Y1680
X30180Y1680
X29180Y1680
X28180Y1680
X27180Y1680
X25180Y1680
X24180Y1680
X23180Y1680
X22180Y1680
X21180Y1680
X20180Y1680
T04
X6930Y4680
X6930Y5680
X6930Y6680
X6930Y7680
X6930Y8680
X10930Y8680
X10930Y7680
X10930Y6680
X10930Y5680
X10930Y4680
X14930Y4680
X14930Y5680
X14930Y6680
X14930Y7680
X14930Y8680
X18930Y8680
X18930Y7680
X18930Y6680
X18930Y5680
X18930Y4680
X22930Y4680
X22930Y5680
X22930Y6680
X22930Y7680
X22930Y8680
X26930Y8680
X26930Y7680
X26930Y6680
X26930Y5680
X26930Y4680
T05
X31680Y5180
X31680Y6180
X31680Y7180
X31680Y8180
X31680Y9164
X31680Y13180
X31680Y14180
X31680Y15180
X31680Y16180
X31680Y17164
M30
