G75*
G70*
%OFA0B0*%
%FSLAX24Y24*%
%IPPOS*%
%LPD*%
%AMOC8*
5,1,8,0,0,1.08239X$1,22.5*
%
%ADD10C,0.0000*%
%ADD11R,0.0515X0.0515*%
%ADD12C,0.0377*%
%ADD13C,0.0277*%
%ADD14C,0.0120*%
%ADD15C,0.0258*%
%ADD16C,0.0100*%
%ADD17C,0.0060*%
%ADD18C,0.0160*%
%ADD19C,0.0150*%
D10*
X000900Y000980D02*
X000900Y010035D01*
X006018Y010035D01*
X006018Y000980D01*
X000900Y000980D01*
D11*
X002753Y001459D03*
X002753Y002167D03*
X004406Y002167D03*
X004406Y001459D03*
X004165Y008729D03*
X004165Y009438D03*
X002512Y009438D03*
X002512Y008729D03*
D12*
X001569Y006620D02*
X001191Y006620D01*
X001191Y006120D02*
X001569Y006120D01*
X001569Y005620D02*
X001191Y005620D01*
X001191Y005120D02*
X001569Y005120D01*
X001569Y004620D02*
X001191Y004620D01*
X005351Y004620D02*
X005729Y004620D01*
X005729Y005120D02*
X005351Y005120D01*
X005351Y005620D02*
X005729Y005620D01*
X005729Y006120D02*
X005351Y006120D01*
X005351Y006620D02*
X005729Y006620D01*
D13*
X005540Y007540D03*
X004660Y004740D03*
X004980Y004020D03*
X004420Y002660D03*
X003860Y003060D03*
X003380Y003860D03*
X003420Y005300D03*
X003140Y006020D03*
X002820Y006260D03*
X002180Y005540D03*
X001620Y003620D03*
X003540Y006420D03*
X001700Y008180D03*
X001380Y007380D03*
D14*
X002820Y006260D02*
X002820Y003460D01*
X003620Y002660D01*
X004420Y002660D01*
X003300Y002340D02*
X003300Y001620D01*
X003139Y001459D01*
X003300Y002340D02*
X002020Y003620D01*
X001620Y003620D01*
X003060Y003540D02*
X003060Y005540D01*
X003140Y005660D01*
X003140Y006020D02*
X003140Y007780D01*
X003340Y007980D01*
X004420Y007980D01*
X005460Y006180D02*
X005530Y006110D01*
X005540Y006100D01*
X005540Y005620D02*
X005460Y005540D01*
X005060Y005540D01*
X004660Y005140D01*
X004660Y004740D01*
D15*
X003860Y005660D03*
X004100Y006500D03*
X004420Y007980D03*
D16*
X004100Y006500D02*
X004420Y006180D01*
X005480Y006180D01*
X005540Y006120D01*
X005060Y005540D02*
X004820Y005780D01*
X004820Y005860D01*
X004100Y005860D01*
X003860Y006100D01*
X003700Y006100D01*
X003540Y005940D01*
X003220Y005940D01*
X003140Y006020D01*
X003140Y005660D02*
X003860Y005660D01*
X003060Y003540D02*
X003540Y003060D01*
X003860Y003060D01*
D17*
X005530Y006110D02*
X005540Y006120D01*
D18*
X005540Y006620D02*
X004983Y006620D01*
X004983Y006584D01*
X004997Y006512D01*
X005025Y006445D01*
X005048Y006410D01*
X004515Y006410D01*
X004409Y006516D01*
X004409Y006561D01*
X004362Y006675D01*
X004275Y006762D01*
X004161Y006809D01*
X004039Y006809D01*
X003925Y006762D01*
X003838Y006675D01*
X003791Y006561D01*
X003791Y006439D01*
X003836Y006330D01*
X003605Y006330D01*
X003445Y006170D01*
X003423Y006170D01*
X003410Y006201D01*
X003380Y006231D01*
X003380Y007681D01*
X003439Y007740D01*
X004223Y007740D01*
X004245Y007718D01*
X004359Y007671D01*
X004481Y007671D01*
X004595Y007718D01*
X004682Y007805D01*
X004729Y007919D01*
X004729Y008041D01*
X004682Y008155D01*
X004595Y008242D01*
X004481Y008289D01*
X004359Y008289D01*
X004245Y008242D01*
X004223Y008220D01*
X003292Y008220D01*
X003204Y008183D01*
X003137Y008116D01*
X002937Y007916D01*
X002900Y007828D01*
X002900Y006572D01*
X002883Y006579D01*
X002767Y006579D01*
X002767Y008292D01*
X002844Y008292D01*
X002949Y008397D01*
X002949Y009061D01*
X002927Y009083D01*
X002949Y009106D01*
X002949Y009770D01*
X002864Y009855D01*
X003813Y009855D01*
X003728Y009770D01*
X003728Y009106D01*
X003750Y009083D01*
X003728Y009061D01*
X003728Y008397D01*
X003833Y008292D01*
X004497Y008292D01*
X004603Y008397D01*
X004603Y009061D01*
X004580Y009083D01*
X004603Y009106D01*
X004603Y009770D01*
X004517Y009855D01*
X005838Y009855D01*
X005838Y006974D01*
X005836Y006974D01*
X005765Y006989D01*
X005540Y006989D01*
X005315Y006989D01*
X005244Y006974D01*
X005177Y006947D01*
X005116Y006906D01*
X005065Y006855D01*
X005025Y006795D01*
X004997Y006728D01*
X004983Y006656D01*
X004983Y006620D01*
X005540Y006620D01*
X005540Y006620D01*
X005540Y006989D01*
X005540Y006620D01*
X005540Y006620D01*
X005540Y006686D02*
X005540Y006686D01*
X005540Y006845D02*
X005540Y006845D01*
X005838Y007003D02*
X003380Y007003D01*
X003380Y007162D02*
X005838Y007162D01*
X005838Y007320D02*
X003380Y007320D01*
X003380Y007479D02*
X005838Y007479D01*
X005838Y007637D02*
X003380Y007637D01*
X003133Y008113D02*
X002767Y008113D01*
X002767Y008271D02*
X004315Y008271D01*
X004525Y008271D02*
X005838Y008271D01*
X005838Y008113D02*
X004699Y008113D01*
X004729Y007954D02*
X005838Y007954D01*
X005838Y007796D02*
X004672Y007796D01*
X004603Y008430D02*
X005838Y008430D01*
X005838Y008588D02*
X004603Y008588D01*
X004603Y008747D02*
X005838Y008747D01*
X005838Y008905D02*
X004603Y008905D01*
X004600Y009064D02*
X005838Y009064D01*
X005838Y009222D02*
X004603Y009222D01*
X004603Y009381D02*
X005838Y009381D01*
X005838Y009539D02*
X004603Y009539D01*
X004603Y009698D02*
X005838Y009698D01*
X005058Y006845D02*
X003380Y006845D01*
X003380Y006686D02*
X003849Y006686D01*
X003791Y006528D02*
X003380Y006528D01*
X003380Y006369D02*
X003820Y006369D01*
X003485Y006211D02*
X003400Y006211D01*
X002900Y006686D02*
X002767Y006686D01*
X002767Y006845D02*
X002900Y006845D01*
X002900Y007003D02*
X002767Y007003D01*
X002767Y007162D02*
X002900Y007162D01*
X002900Y007320D02*
X002767Y007320D01*
X002767Y007479D02*
X002900Y007479D01*
X002900Y007637D02*
X002767Y007637D01*
X002767Y007796D02*
X002900Y007796D01*
X002975Y007954D02*
X002767Y007954D01*
X003137Y008116D02*
X003137Y008116D01*
X002949Y008430D02*
X003728Y008430D01*
X003728Y008588D02*
X002949Y008588D01*
X002949Y008747D02*
X003728Y008747D01*
X003728Y008905D02*
X002949Y008905D01*
X002947Y009064D02*
X003730Y009064D01*
X003728Y009222D02*
X002949Y009222D01*
X002949Y009381D02*
X003728Y009381D01*
X003728Y009539D02*
X002949Y009539D01*
X002949Y009698D02*
X003728Y009698D01*
X002257Y008292D02*
X002257Y004064D01*
X001889Y004431D01*
X001937Y004547D01*
X001937Y004693D01*
X001881Y004829D01*
X001840Y004870D01*
X001881Y004911D01*
X001937Y005047D01*
X001937Y005193D01*
X001881Y005329D01*
X001840Y005370D01*
X001881Y005411D01*
X001937Y005547D01*
X001937Y005693D01*
X001881Y005829D01*
X001840Y005870D01*
X001881Y005911D01*
X001937Y006047D01*
X001937Y006193D01*
X001881Y006329D01*
X001840Y006370D01*
X001855Y006385D01*
X001895Y006445D01*
X001923Y006512D01*
X001937Y006584D01*
X001937Y006620D01*
X001937Y006656D01*
X001923Y006728D01*
X001895Y006795D01*
X001855Y006855D01*
X001804Y006906D01*
X001743Y006947D01*
X001676Y006974D01*
X001605Y006989D01*
X001380Y006989D01*
X001155Y006989D01*
X001084Y006974D01*
X001080Y006973D01*
X001080Y009855D01*
X002159Y009855D01*
X002074Y009770D01*
X002074Y009106D01*
X002096Y009083D01*
X002074Y009061D01*
X002074Y008397D01*
X002180Y008292D01*
X002257Y008292D01*
X002257Y008271D02*
X001080Y008271D01*
X001080Y008113D02*
X002257Y008113D01*
X002257Y007954D02*
X001080Y007954D01*
X001080Y007796D02*
X002257Y007796D01*
X002257Y007637D02*
X001080Y007637D01*
X001080Y007479D02*
X002257Y007479D01*
X002257Y007320D02*
X001080Y007320D01*
X001080Y007162D02*
X002257Y007162D01*
X002257Y007003D02*
X001080Y007003D01*
X001380Y006989D02*
X001380Y006620D01*
X001380Y006620D01*
X001380Y006989D01*
X001380Y006845D02*
X001380Y006845D01*
X001380Y006686D02*
X001380Y006686D01*
X001380Y006620D02*
X001937Y006620D01*
X001380Y006620D01*
X001380Y006620D01*
X001841Y006369D02*
X002257Y006369D01*
X002257Y006528D02*
X001926Y006528D01*
X001931Y006686D02*
X002257Y006686D01*
X002257Y006845D02*
X001862Y006845D01*
X001930Y006211D02*
X002257Y006211D01*
X002257Y006052D02*
X001937Y006052D01*
X001863Y005894D02*
X002257Y005894D01*
X002257Y005735D02*
X001920Y005735D01*
X001937Y005577D02*
X002257Y005577D01*
X002257Y005418D02*
X001884Y005418D01*
X001910Y005260D02*
X002257Y005260D01*
X002257Y005101D02*
X001937Y005101D01*
X001894Y004943D02*
X002257Y004943D01*
X002257Y004784D02*
X001900Y004784D01*
X001937Y004626D02*
X002257Y004626D01*
X002257Y004467D02*
X001904Y004467D01*
X002012Y004309D02*
X002257Y004309D01*
X002257Y004150D02*
X002171Y004150D01*
X003300Y004150D02*
X004689Y004150D01*
X004710Y004201D02*
X004661Y004083D01*
X004661Y003957D01*
X004710Y003839D01*
X004799Y003750D01*
X004917Y003701D01*
X004938Y003701D01*
X005445Y003194D01*
X005445Y001886D01*
X005273Y001714D01*
X004844Y001714D01*
X004844Y001791D01*
X004822Y001813D01*
X004844Y001835D01*
X004844Y002499D01*
X004739Y002604D01*
X004739Y002723D01*
X004690Y002841D01*
X004601Y002930D01*
X004483Y002979D01*
X004357Y002979D01*
X004239Y002930D01*
X004209Y002900D01*
X004139Y002900D01*
X004179Y002997D01*
X004179Y003123D01*
X004130Y003241D01*
X004041Y003330D01*
X003923Y003379D01*
X003797Y003379D01*
X003679Y003330D01*
X003639Y003290D01*
X003635Y003290D01*
X003300Y003625D01*
X003300Y005430D01*
X003653Y005430D01*
X003685Y005398D01*
X003799Y005351D01*
X003921Y005351D01*
X004035Y005398D01*
X004122Y005485D01*
X004169Y005599D01*
X004169Y005630D01*
X004645Y005630D01*
X004728Y005547D01*
X004457Y005276D01*
X004420Y005188D01*
X004420Y004951D01*
X004390Y004921D01*
X004341Y004803D01*
X004341Y004677D01*
X004390Y004559D01*
X004479Y004470D01*
X004597Y004421D01*
X004723Y004421D01*
X004841Y004470D01*
X004930Y004559D01*
X004979Y004677D01*
X004979Y004803D01*
X004930Y004921D01*
X004900Y004951D01*
X004900Y005041D01*
X004983Y005123D01*
X004983Y005047D01*
X005039Y004911D01*
X005080Y004870D01*
X005039Y004829D01*
X004983Y004693D01*
X004983Y004547D01*
X005039Y004411D01*
X005143Y004308D01*
X005278Y004251D01*
X005802Y004251D01*
X005838Y004266D01*
X005838Y003523D01*
X005299Y004062D01*
X005299Y004083D01*
X005250Y004201D01*
X005161Y004290D01*
X005043Y004339D01*
X004917Y004339D01*
X004799Y004290D01*
X004710Y004201D01*
X004844Y004309D02*
X003300Y004309D01*
X003300Y004467D02*
X004486Y004467D01*
X004362Y004626D02*
X003300Y004626D01*
X003300Y004784D02*
X004341Y004784D01*
X004412Y004943D02*
X003300Y004943D01*
X003300Y005101D02*
X004420Y005101D01*
X004450Y005260D02*
X003300Y005260D01*
X003300Y005418D02*
X003665Y005418D01*
X004055Y005418D02*
X004599Y005418D01*
X004698Y005577D02*
X004160Y005577D01*
X004409Y006528D02*
X004994Y006528D01*
X004989Y006686D02*
X004351Y006686D01*
X004960Y005101D02*
X004983Y005101D01*
X005026Y004943D02*
X004908Y004943D01*
X004979Y004784D02*
X005020Y004784D01*
X004983Y004626D02*
X004958Y004626D01*
X005016Y004467D02*
X004834Y004467D01*
X005116Y004309D02*
X005142Y004309D01*
X005271Y004150D02*
X005838Y004150D01*
X005838Y003992D02*
X005369Y003992D01*
X005528Y003833D02*
X005838Y003833D01*
X005838Y003675D02*
X005686Y003675D01*
X005440Y003199D02*
X004147Y003199D01*
X004179Y003041D02*
X005445Y003041D01*
X005445Y002882D02*
X004649Y002882D01*
X004739Y002724D02*
X005445Y002724D01*
X005445Y002565D02*
X004778Y002565D01*
X004844Y002407D02*
X005445Y002407D01*
X005445Y002248D02*
X004844Y002248D01*
X004844Y002090D02*
X005445Y002090D01*
X005445Y001931D02*
X004844Y001931D01*
X004844Y001773D02*
X005332Y001773D01*
X005282Y003358D02*
X003975Y003358D01*
X003745Y003358D02*
X003568Y003358D01*
X003409Y003516D02*
X005123Y003516D01*
X004965Y003675D02*
X003300Y003675D01*
X003300Y003833D02*
X004716Y003833D01*
X004661Y003992D02*
X003300Y003992D01*
X002074Y008430D02*
X001080Y008430D01*
X001080Y008588D02*
X002074Y008588D01*
X002074Y008747D02*
X001080Y008747D01*
X001080Y008905D02*
X002074Y008905D01*
X002077Y009064D02*
X001080Y009064D01*
X001080Y009222D02*
X002074Y009222D01*
X002074Y009381D02*
X001080Y009381D01*
X001080Y009539D02*
X002074Y009539D01*
X002074Y009698D02*
X001080Y009698D01*
D19*
X002512Y008729D02*
X002512Y003472D01*
X002500Y003460D01*
X003780Y002180D01*
X004400Y002180D01*
X004406Y002167D01*
X004400Y002180D02*
X004420Y002180D01*
X004406Y001459D02*
X005379Y001459D01*
X005700Y001780D01*
X005700Y003300D01*
X004980Y004020D01*
X003139Y001459D02*
X002753Y001459D01*
X002500Y003460D02*
X001380Y004580D01*
X001380Y004620D01*
M02*
