G75*
G70*
%OFA0B0*%
%FSLAX24Y24*%
%IPPOS*%
%LPD*%
%AMOC8*
5,1,8,0,0,1.08239X$1,22.5*
%
%ADD10C,0.0000*%
%ADD11C,0.0030*%
%ADD12C,0.0050*%
D10*
X000900Y000980D02*
X000900Y010035D01*
X006018Y010035D01*
X006018Y000980D01*
X000900Y000980D01*
D11*
X002237Y005555D02*
X002483Y005555D01*
X002360Y005555D02*
X002360Y005925D01*
X002483Y005802D01*
X002605Y005864D02*
X002852Y005617D01*
X002852Y005555D01*
X002973Y005617D02*
X002973Y005678D01*
X003035Y005740D01*
X003097Y005740D01*
X003035Y005740D02*
X002973Y005802D01*
X002973Y005864D01*
X003035Y005925D01*
X003158Y005925D01*
X003220Y005864D01*
X003341Y005864D02*
X003341Y005802D01*
X003403Y005740D01*
X003341Y005678D01*
X003341Y005617D01*
X003403Y005555D01*
X003527Y005555D01*
X003588Y005617D01*
X003710Y005617D02*
X003710Y005740D01*
X003772Y005802D01*
X003833Y005802D01*
X003957Y005740D01*
X003957Y005925D01*
X003710Y005925D01*
X003588Y005864D02*
X003527Y005925D01*
X003403Y005925D01*
X003341Y005864D01*
X003403Y005740D02*
X003465Y005740D01*
X003710Y005617D02*
X003772Y005555D01*
X003895Y005555D01*
X003957Y005617D01*
X004078Y005617D02*
X004078Y005864D01*
X004140Y005925D01*
X004325Y005925D01*
X004325Y005555D01*
X004140Y005555D01*
X004078Y005617D01*
X003220Y005617D02*
X003158Y005555D01*
X003035Y005555D01*
X002973Y005617D01*
X002852Y005925D02*
X002605Y005925D01*
X002605Y005864D01*
D12*
X002787Y008375D02*
X003732Y008375D01*
X003890Y008532D01*
X003890Y009831D01*
X002787Y009831D01*
X002787Y008414D01*
X003186Y002522D02*
X004131Y002522D01*
X004131Y002482D02*
X004131Y001065D01*
X003029Y001065D01*
X003029Y002364D01*
X003186Y002522D01*
M02*
