G75*
G70*
%OFA0B0*%
%FSLAX24Y24*%
%IPPOS*%
%LPD*%
%AMOC8*
5,1,8,0,0,1.08239X$1,22.5*
%
%ADD10C,0.0000*%
%ADD11OC8,0.0660*%
%ADD12C,0.0660*%
%ADD13R,0.0926X0.0926*%
%ADD14C,0.0926*%
%ADD15C,0.1182*%
%ADD16OC8,0.0640*%
%ADD17C,0.0560*%
%ADD18C,0.0709*%
%ADD19OC8,0.0560*%
%ADD20C,0.1221*%
%ADD21C,0.0640*%
%ADD22C,0.0594*%
%ADD23C,0.0670*%
%ADD24C,0.0900*%
%ADD25C,0.0808*%
%ADD26C,0.1024*%
%ADD27C,0.1040*%
%ADD28OC8,0.1040*%
%ADD29C,0.0700*%
%ADD30C,0.1700*%
D10*
X000576Y008842D02*
X000576Y028527D01*
X039946Y028527D01*
X039946Y008842D01*
X000576Y008842D01*
X003978Y012255D02*
X004765Y012255D01*
X004791Y012257D01*
X004816Y012262D01*
X004840Y012270D01*
X004863Y012281D01*
X004885Y012296D01*
X004904Y012313D01*
X004921Y012332D01*
X004936Y012353D01*
X004947Y012377D01*
X004955Y012401D01*
X004960Y012426D01*
X004962Y012452D01*
X004960Y012478D01*
X004955Y012503D01*
X004947Y012527D01*
X004936Y012550D01*
X004921Y012572D01*
X004904Y012591D01*
X004885Y012608D01*
X004864Y012623D01*
X004840Y012634D01*
X004816Y012642D01*
X004791Y012647D01*
X004765Y012649D01*
X003978Y012649D01*
X003952Y012647D01*
X003927Y012642D01*
X003903Y012634D01*
X003879Y012623D01*
X003858Y012608D01*
X003839Y012591D01*
X003822Y012572D01*
X003807Y012551D01*
X003796Y012527D01*
X003788Y012503D01*
X003783Y012478D01*
X003781Y012452D01*
X003783Y012426D01*
X003788Y012401D01*
X003796Y012377D01*
X003807Y012354D01*
X003822Y012332D01*
X003839Y012313D01*
X003858Y012296D01*
X003879Y012281D01*
X003903Y012270D01*
X003927Y012262D01*
X003952Y012257D01*
X003978Y012255D01*
X005356Y013850D02*
X005356Y014834D01*
X005553Y015031D02*
X005579Y015029D01*
X005604Y015024D01*
X005628Y015016D01*
X005652Y015005D01*
X005673Y014990D01*
X005692Y014973D01*
X005709Y014954D01*
X005724Y014932D01*
X005735Y014909D01*
X005743Y014885D01*
X005748Y014860D01*
X005750Y014834D01*
X005750Y013850D01*
X005748Y013824D01*
X005743Y013799D01*
X005735Y013775D01*
X005724Y013751D01*
X005709Y013730D01*
X005692Y013711D01*
X005673Y013694D01*
X005651Y013679D01*
X005628Y013668D01*
X005604Y013660D01*
X005579Y013655D01*
X005553Y013653D01*
X005527Y013655D01*
X005502Y013660D01*
X005478Y013668D01*
X005454Y013679D01*
X005433Y013694D01*
X005414Y013711D01*
X005397Y013730D01*
X005382Y013752D01*
X005371Y013775D01*
X005363Y013799D01*
X005358Y013824D01*
X005356Y013850D01*
X005356Y014834D02*
X005358Y014860D01*
X005363Y014885D01*
X005371Y014909D01*
X005382Y014933D01*
X005397Y014954D01*
X005414Y014973D01*
X005433Y014990D01*
X005454Y015005D01*
X005478Y015016D01*
X005502Y015024D01*
X005527Y015029D01*
X005553Y015031D01*
X004765Y016755D02*
X003978Y016755D01*
X003781Y016952D02*
X003783Y016978D01*
X003788Y017003D01*
X003796Y017027D01*
X003807Y017051D01*
X003822Y017072D01*
X003839Y017091D01*
X003858Y017108D01*
X003879Y017123D01*
X003903Y017134D01*
X003927Y017142D01*
X003952Y017147D01*
X003978Y017149D01*
X004765Y017149D01*
X004962Y016952D02*
X004960Y016926D01*
X004955Y016901D01*
X004947Y016877D01*
X004936Y016853D01*
X004921Y016832D01*
X004904Y016813D01*
X004885Y016796D01*
X004863Y016781D01*
X004840Y016770D01*
X004816Y016762D01*
X004791Y016757D01*
X004765Y016755D01*
X004962Y016952D02*
X004960Y016978D01*
X004955Y017003D01*
X004947Y017027D01*
X004936Y017050D01*
X004921Y017072D01*
X004904Y017091D01*
X004885Y017108D01*
X004864Y017123D01*
X004840Y017134D01*
X004816Y017142D01*
X004791Y017147D01*
X004765Y017149D01*
X003978Y016755D02*
X003952Y016757D01*
X003927Y016762D01*
X003903Y016770D01*
X003879Y016781D01*
X003858Y016796D01*
X003839Y016813D01*
X003822Y016832D01*
X003807Y016854D01*
X003796Y016877D01*
X003788Y016901D01*
X003783Y016926D01*
X003781Y016952D01*
X003387Y018448D02*
X003387Y019236D01*
X003388Y019236D02*
X003386Y019262D01*
X003381Y019287D01*
X003373Y019311D01*
X003362Y019334D01*
X003347Y019356D01*
X003330Y019375D01*
X003311Y019392D01*
X003290Y019407D01*
X003266Y019418D01*
X003242Y019426D01*
X003217Y019431D01*
X003191Y019433D01*
X003165Y019431D01*
X003140Y019426D01*
X003116Y019418D01*
X003092Y019407D01*
X003071Y019392D01*
X003052Y019375D01*
X003035Y019356D01*
X003020Y019335D01*
X003009Y019311D01*
X003001Y019287D01*
X002996Y019262D01*
X002994Y019236D01*
X002994Y018448D01*
X003191Y018251D02*
X003217Y018253D01*
X003242Y018258D01*
X003266Y018266D01*
X003289Y018277D01*
X003311Y018292D01*
X003330Y018309D01*
X003347Y018328D01*
X003362Y018349D01*
X003373Y018373D01*
X003381Y018397D01*
X003386Y018422D01*
X003388Y018448D01*
X003191Y018251D02*
X003165Y018253D01*
X003140Y018258D01*
X003116Y018266D01*
X003092Y018277D01*
X003071Y018292D01*
X003052Y018309D01*
X003035Y018328D01*
X003020Y018350D01*
X003009Y018373D01*
X003001Y018397D01*
X002996Y018422D01*
X002994Y018448D01*
X005356Y018350D02*
X005356Y019334D01*
X005553Y019531D02*
X005579Y019529D01*
X005604Y019524D01*
X005628Y019516D01*
X005652Y019505D01*
X005673Y019490D01*
X005692Y019473D01*
X005709Y019454D01*
X005724Y019432D01*
X005735Y019409D01*
X005743Y019385D01*
X005748Y019360D01*
X005750Y019334D01*
X005750Y018350D01*
X005748Y018324D01*
X005743Y018299D01*
X005735Y018275D01*
X005724Y018251D01*
X005709Y018230D01*
X005692Y018211D01*
X005673Y018194D01*
X005651Y018179D01*
X005628Y018168D01*
X005604Y018160D01*
X005579Y018155D01*
X005553Y018153D01*
X005527Y018155D01*
X005502Y018160D01*
X005478Y018168D01*
X005454Y018179D01*
X005433Y018194D01*
X005414Y018211D01*
X005397Y018230D01*
X005382Y018252D01*
X005371Y018275D01*
X005363Y018299D01*
X005358Y018324D01*
X005356Y018350D01*
X005356Y019334D02*
X005358Y019360D01*
X005363Y019385D01*
X005371Y019409D01*
X005382Y019433D01*
X005397Y019454D01*
X005414Y019473D01*
X005433Y019490D01*
X005454Y019505D01*
X005478Y019516D01*
X005502Y019524D01*
X005527Y019529D01*
X005553Y019531D01*
X004765Y021255D02*
X003978Y021255D01*
X003781Y021452D02*
X003783Y021478D01*
X003788Y021503D01*
X003796Y021527D01*
X003807Y021551D01*
X003822Y021572D01*
X003839Y021591D01*
X003858Y021608D01*
X003879Y021623D01*
X003903Y021634D01*
X003927Y021642D01*
X003952Y021647D01*
X003978Y021649D01*
X004765Y021649D01*
X004962Y021452D02*
X004960Y021426D01*
X004955Y021401D01*
X004947Y021377D01*
X004936Y021353D01*
X004921Y021332D01*
X004904Y021313D01*
X004885Y021296D01*
X004863Y021281D01*
X004840Y021270D01*
X004816Y021262D01*
X004791Y021257D01*
X004765Y021255D01*
X004962Y021452D02*
X004960Y021478D01*
X004955Y021503D01*
X004947Y021527D01*
X004936Y021550D01*
X004921Y021572D01*
X004904Y021591D01*
X004885Y021608D01*
X004864Y021623D01*
X004840Y021634D01*
X004816Y021642D01*
X004791Y021647D01*
X004765Y021649D01*
X003978Y021255D02*
X003952Y021257D01*
X003927Y021262D01*
X003903Y021270D01*
X003879Y021281D01*
X003858Y021296D01*
X003839Y021313D01*
X003822Y021332D01*
X003807Y021354D01*
X003796Y021377D01*
X003788Y021401D01*
X003783Y021426D01*
X003781Y021452D01*
X003387Y022948D02*
X003387Y023736D01*
X003388Y023736D02*
X003386Y023762D01*
X003381Y023787D01*
X003373Y023811D01*
X003362Y023834D01*
X003347Y023856D01*
X003330Y023875D01*
X003311Y023892D01*
X003290Y023907D01*
X003266Y023918D01*
X003242Y023926D01*
X003217Y023931D01*
X003191Y023933D01*
X003165Y023931D01*
X003140Y023926D01*
X003116Y023918D01*
X003092Y023907D01*
X003071Y023892D01*
X003052Y023875D01*
X003035Y023856D01*
X003020Y023835D01*
X003009Y023811D01*
X003001Y023787D01*
X002996Y023762D01*
X002994Y023736D01*
X002994Y022948D01*
X003191Y022751D02*
X003217Y022753D01*
X003242Y022758D01*
X003266Y022766D01*
X003289Y022777D01*
X003311Y022792D01*
X003330Y022809D01*
X003347Y022828D01*
X003362Y022849D01*
X003373Y022873D01*
X003381Y022897D01*
X003386Y022922D01*
X003388Y022948D01*
X003191Y022751D02*
X003165Y022753D01*
X003140Y022758D01*
X003116Y022766D01*
X003092Y022777D01*
X003071Y022792D01*
X003052Y022809D01*
X003035Y022828D01*
X003020Y022850D01*
X003009Y022873D01*
X003001Y022897D01*
X002996Y022922D01*
X002994Y022948D01*
X005356Y022850D02*
X005356Y023834D01*
X005553Y024031D02*
X005579Y024029D01*
X005604Y024024D01*
X005628Y024016D01*
X005652Y024005D01*
X005673Y023990D01*
X005692Y023973D01*
X005709Y023954D01*
X005724Y023932D01*
X005735Y023909D01*
X005743Y023885D01*
X005748Y023860D01*
X005750Y023834D01*
X005750Y022850D01*
X005748Y022824D01*
X005743Y022799D01*
X005735Y022775D01*
X005724Y022751D01*
X005709Y022730D01*
X005692Y022711D01*
X005673Y022694D01*
X005651Y022679D01*
X005628Y022668D01*
X005604Y022660D01*
X005579Y022655D01*
X005553Y022653D01*
X005527Y022655D01*
X005502Y022660D01*
X005478Y022668D01*
X005454Y022679D01*
X005433Y022694D01*
X005414Y022711D01*
X005397Y022730D01*
X005382Y022752D01*
X005371Y022775D01*
X005363Y022799D01*
X005358Y022824D01*
X005356Y022850D01*
X005356Y023834D02*
X005358Y023860D01*
X005363Y023885D01*
X005371Y023909D01*
X005382Y023933D01*
X005397Y023954D01*
X005414Y023973D01*
X005433Y023990D01*
X005454Y024005D01*
X005478Y024016D01*
X005502Y024024D01*
X005527Y024029D01*
X005553Y024031D01*
X007352Y027326D02*
X007354Y027361D01*
X007360Y027396D01*
X007370Y027430D01*
X007383Y027463D01*
X007400Y027494D01*
X007421Y027522D01*
X007444Y027549D01*
X007471Y027572D01*
X007499Y027593D01*
X007530Y027610D01*
X007563Y027623D01*
X007597Y027633D01*
X007632Y027639D01*
X007667Y027641D01*
X007702Y027639D01*
X007737Y027633D01*
X007771Y027623D01*
X007804Y027610D01*
X007835Y027593D01*
X007863Y027572D01*
X007890Y027549D01*
X007913Y027522D01*
X007934Y027494D01*
X007951Y027463D01*
X007964Y027430D01*
X007974Y027396D01*
X007980Y027361D01*
X007982Y027326D01*
X007980Y027291D01*
X007974Y027256D01*
X007964Y027222D01*
X007951Y027189D01*
X007934Y027158D01*
X007913Y027130D01*
X007890Y027103D01*
X007863Y027080D01*
X007835Y027059D01*
X007804Y027042D01*
X007771Y027029D01*
X007737Y027019D01*
X007702Y027013D01*
X007667Y027011D01*
X007632Y027013D01*
X007597Y027019D01*
X007563Y027029D01*
X007530Y027042D01*
X007499Y027059D01*
X007471Y027080D01*
X007444Y027103D01*
X007421Y027130D01*
X007400Y027158D01*
X007383Y027189D01*
X007370Y027222D01*
X007360Y027256D01*
X007354Y027291D01*
X007352Y027326D01*
X016171Y027326D02*
X016173Y027361D01*
X016179Y027396D01*
X016189Y027430D01*
X016202Y027463D01*
X016219Y027494D01*
X016240Y027522D01*
X016263Y027549D01*
X016290Y027572D01*
X016318Y027593D01*
X016349Y027610D01*
X016382Y027623D01*
X016416Y027633D01*
X016451Y027639D01*
X016486Y027641D01*
X016521Y027639D01*
X016556Y027633D01*
X016590Y027623D01*
X016623Y027610D01*
X016654Y027593D01*
X016682Y027572D01*
X016709Y027549D01*
X016732Y027522D01*
X016753Y027494D01*
X016770Y027463D01*
X016783Y027430D01*
X016793Y027396D01*
X016799Y027361D01*
X016801Y027326D01*
X016799Y027291D01*
X016793Y027256D01*
X016783Y027222D01*
X016770Y027189D01*
X016753Y027158D01*
X016732Y027130D01*
X016709Y027103D01*
X016682Y027080D01*
X016654Y027059D01*
X016623Y027042D01*
X016590Y027029D01*
X016556Y027019D01*
X016521Y027013D01*
X016486Y027011D01*
X016451Y027013D01*
X016416Y027019D01*
X016382Y027029D01*
X016349Y027042D01*
X016318Y027059D01*
X016290Y027080D01*
X016263Y027103D01*
X016240Y027130D01*
X016219Y027158D01*
X016202Y027189D01*
X016189Y027222D01*
X016179Y027256D01*
X016173Y027291D01*
X016171Y027326D01*
X003387Y014736D02*
X003387Y013948D01*
X003388Y013948D02*
X003386Y013922D01*
X003381Y013897D01*
X003373Y013873D01*
X003362Y013849D01*
X003347Y013828D01*
X003330Y013809D01*
X003311Y013792D01*
X003289Y013777D01*
X003266Y013766D01*
X003242Y013758D01*
X003217Y013753D01*
X003191Y013751D01*
X003165Y013753D01*
X003140Y013758D01*
X003116Y013766D01*
X003092Y013777D01*
X003071Y013792D01*
X003052Y013809D01*
X003035Y013828D01*
X003020Y013850D01*
X003009Y013873D01*
X003001Y013897D01*
X002996Y013922D01*
X002994Y013948D01*
X002994Y014736D01*
X003191Y014933D02*
X003217Y014931D01*
X003242Y014926D01*
X003266Y014918D01*
X003290Y014907D01*
X003311Y014892D01*
X003330Y014875D01*
X003347Y014856D01*
X003362Y014834D01*
X003373Y014811D01*
X003381Y014787D01*
X003386Y014762D01*
X003388Y014736D01*
X003191Y014933D02*
X003165Y014931D01*
X003140Y014926D01*
X003116Y014918D01*
X003092Y014907D01*
X003071Y014892D01*
X003052Y014875D01*
X003035Y014856D01*
X003020Y014835D01*
X003009Y014811D01*
X003001Y014787D01*
X002996Y014762D01*
X002994Y014736D01*
D11*
X009076Y013542D03*
X017076Y015842D03*
D12*
X016076Y015842D03*
X009076Y014542D03*
D13*
X015076Y011342D03*
D14*
X013517Y011342D03*
X011958Y011342D03*
X010399Y011342D03*
X008840Y011342D03*
X007281Y011342D03*
X005722Y011342D03*
X004163Y011342D03*
D15*
X017482Y012381D03*
X019135Y012381D03*
X020789Y012381D03*
X022443Y012381D03*
X024096Y012381D03*
X025750Y012381D03*
X027403Y012381D03*
X029057Y012381D03*
X030710Y012381D03*
X032364Y012381D03*
X034017Y012381D03*
X035671Y012381D03*
X035671Y010216D03*
X034017Y010216D03*
X032364Y010216D03*
X030710Y010216D03*
X029057Y010216D03*
X027403Y010216D03*
X025750Y010216D03*
X024096Y010216D03*
X022443Y010216D03*
X020789Y010216D03*
X019135Y010216D03*
X017482Y010216D03*
D16*
X015376Y013342D03*
X013076Y016342D03*
X017076Y017342D03*
X022576Y014342D03*
X031076Y015842D03*
X038076Y017842D03*
X031076Y024842D03*
X022576Y023342D03*
X019576Y024342D03*
X020076Y026842D03*
X015376Y022342D03*
D17*
X027576Y016102D02*
X027576Y015582D01*
X028576Y015582D02*
X028576Y016102D01*
X033076Y016582D02*
X033076Y017102D01*
X034076Y017102D02*
X034076Y016582D01*
X034076Y015602D02*
X034076Y015082D01*
X033076Y015082D02*
X033076Y015602D01*
X033076Y014102D02*
X033076Y013582D01*
X034076Y013582D02*
X034076Y014102D01*
D18*
X035576Y016842D03*
X035576Y019842D03*
X028076Y018342D03*
X025076Y018342D03*
X007576Y015842D03*
X006926Y016442D03*
X006926Y019442D03*
X007576Y012842D03*
D19*
X037076Y015842D03*
X037076Y019842D03*
D20*
X033761Y020366D03*
X033761Y023121D03*
X027856Y023121D03*
X025887Y023121D03*
X023919Y023121D03*
X023919Y020366D03*
X025887Y020366D03*
X027856Y020366D03*
D21*
X013376Y014342D02*
X013376Y013742D01*
X012376Y013742D02*
X012376Y014342D01*
X011376Y014342D02*
X011376Y013742D01*
D22*
X010738Y022758D02*
X010738Y023312D01*
X011407Y024293D02*
X011407Y024847D01*
X012746Y024847D02*
X012746Y024293D01*
X013415Y023312D02*
X013415Y022758D01*
X012076Y022758D02*
X012076Y023312D01*
D23*
X007667Y027326D03*
X016486Y027326D03*
D24*
X018608Y018342D03*
X022545Y018342D03*
D25*
X022576Y026842D03*
X024576Y026842D03*
X027576Y026842D03*
X029576Y026842D03*
X032576Y026842D03*
X034576Y026842D03*
X038076Y023842D03*
X038076Y021842D03*
D26*
X005553Y022850D02*
X005553Y023834D01*
X003191Y023834D02*
X003191Y022850D01*
X003880Y021452D02*
X004864Y021452D01*
X005553Y019334D02*
X005553Y018350D01*
X004864Y016952D02*
X003880Y016952D01*
X003191Y018350D02*
X003191Y019334D01*
X003191Y014834D02*
X003191Y013850D01*
X003880Y012452D02*
X004864Y012452D01*
X005553Y013850D02*
X005553Y014834D01*
D27*
X008576Y019342D03*
X014576Y019342D03*
D28*
X012576Y019342D03*
X010576Y019342D03*
D29*
X016076Y018342D03*
X016076Y022342D03*
D30*
X002545Y026559D03*
X002545Y010810D03*
X037978Y010810D03*
X037978Y026559D03*
M02*
