G75*
G70*
%OFA0B0*%
%FSLAX24Y24*%
%IPPOS*%
%LPD*%
%AMOC8*
5,1,8,0,0,1.08239X$1,22.5*
%
%ADD10C,0.0000*%
%ADD11OC8,0.0620*%
%ADD12C,0.0620*%
%ADD13R,0.0886X0.0886*%
%ADD14C,0.0886*%
%ADD15C,0.1142*%
%ADD16OC8,0.0600*%
%ADD17C,0.0520*%
%ADD18C,0.0669*%
%ADD19OC8,0.0520*%
%ADD20C,0.1181*%
%ADD21C,0.0600*%
%ADD22C,0.0554*%
%ADD23C,0.0860*%
%ADD24C,0.0768*%
%ADD25C,0.0984*%
%ADD26C,0.1000*%
%ADD27OC8,0.1000*%
%ADD28C,0.0660*%
%ADD29C,0.0400*%
%ADD30C,0.0500*%
%ADD31C,0.0160*%
%ADD32C,0.1660*%
%ADD33C,0.0591*%
%ADD34C,0.0860*%
%ADD35C,0.0060*%
%ADD36C,0.1000*%
%ADD37C,0.0100*%
%ADD38C,0.0356*%
D10*
X000576Y008842D02*
X000576Y028527D01*
X039946Y028527D01*
X039946Y008842D01*
X000576Y008842D01*
X003978Y012255D02*
X004765Y012255D01*
X004791Y012257D01*
X004816Y012262D01*
X004840Y012270D01*
X004863Y012281D01*
X004885Y012296D01*
X004904Y012313D01*
X004921Y012332D01*
X004936Y012353D01*
X004947Y012377D01*
X004955Y012401D01*
X004960Y012426D01*
X004962Y012452D01*
X004960Y012478D01*
X004955Y012503D01*
X004947Y012527D01*
X004936Y012550D01*
X004921Y012572D01*
X004904Y012591D01*
X004885Y012608D01*
X004864Y012623D01*
X004840Y012634D01*
X004816Y012642D01*
X004791Y012647D01*
X004765Y012649D01*
X003978Y012649D01*
X003952Y012647D01*
X003927Y012642D01*
X003903Y012634D01*
X003879Y012623D01*
X003858Y012608D01*
X003839Y012591D01*
X003822Y012572D01*
X003807Y012551D01*
X003796Y012527D01*
X003788Y012503D01*
X003783Y012478D01*
X003781Y012452D01*
X003783Y012426D01*
X003788Y012401D01*
X003796Y012377D01*
X003807Y012354D01*
X003822Y012332D01*
X003839Y012313D01*
X003858Y012296D01*
X003879Y012281D01*
X003903Y012270D01*
X003927Y012262D01*
X003952Y012257D01*
X003978Y012255D01*
X005356Y013850D02*
X005356Y014834D01*
X005553Y015031D02*
X005579Y015029D01*
X005604Y015024D01*
X005628Y015016D01*
X005652Y015005D01*
X005673Y014990D01*
X005692Y014973D01*
X005709Y014954D01*
X005724Y014932D01*
X005735Y014909D01*
X005743Y014885D01*
X005748Y014860D01*
X005750Y014834D01*
X005750Y013850D01*
X005748Y013824D01*
X005743Y013799D01*
X005735Y013775D01*
X005724Y013751D01*
X005709Y013730D01*
X005692Y013711D01*
X005673Y013694D01*
X005651Y013679D01*
X005628Y013668D01*
X005604Y013660D01*
X005579Y013655D01*
X005553Y013653D01*
X005527Y013655D01*
X005502Y013660D01*
X005478Y013668D01*
X005454Y013679D01*
X005433Y013694D01*
X005414Y013711D01*
X005397Y013730D01*
X005382Y013752D01*
X005371Y013775D01*
X005363Y013799D01*
X005358Y013824D01*
X005356Y013850D01*
X005356Y014834D02*
X005358Y014860D01*
X005363Y014885D01*
X005371Y014909D01*
X005382Y014933D01*
X005397Y014954D01*
X005414Y014973D01*
X005433Y014990D01*
X005454Y015005D01*
X005478Y015016D01*
X005502Y015024D01*
X005527Y015029D01*
X005553Y015031D01*
X004765Y016755D02*
X003978Y016755D01*
X003781Y016952D02*
X003783Y016978D01*
X003788Y017003D01*
X003796Y017027D01*
X003807Y017051D01*
X003822Y017072D01*
X003839Y017091D01*
X003858Y017108D01*
X003879Y017123D01*
X003903Y017134D01*
X003927Y017142D01*
X003952Y017147D01*
X003978Y017149D01*
X004765Y017149D01*
X004962Y016952D02*
X004960Y016926D01*
X004955Y016901D01*
X004947Y016877D01*
X004936Y016853D01*
X004921Y016832D01*
X004904Y016813D01*
X004885Y016796D01*
X004863Y016781D01*
X004840Y016770D01*
X004816Y016762D01*
X004791Y016757D01*
X004765Y016755D01*
X004962Y016952D02*
X004960Y016978D01*
X004955Y017003D01*
X004947Y017027D01*
X004936Y017050D01*
X004921Y017072D01*
X004904Y017091D01*
X004885Y017108D01*
X004864Y017123D01*
X004840Y017134D01*
X004816Y017142D01*
X004791Y017147D01*
X004765Y017149D01*
X003978Y016755D02*
X003952Y016757D01*
X003927Y016762D01*
X003903Y016770D01*
X003879Y016781D01*
X003858Y016796D01*
X003839Y016813D01*
X003822Y016832D01*
X003807Y016854D01*
X003796Y016877D01*
X003788Y016901D01*
X003783Y016926D01*
X003781Y016952D01*
X003387Y018448D02*
X003387Y019236D01*
X003388Y019236D02*
X003386Y019262D01*
X003381Y019287D01*
X003373Y019311D01*
X003362Y019334D01*
X003347Y019356D01*
X003330Y019375D01*
X003311Y019392D01*
X003290Y019407D01*
X003266Y019418D01*
X003242Y019426D01*
X003217Y019431D01*
X003191Y019433D01*
X003165Y019431D01*
X003140Y019426D01*
X003116Y019418D01*
X003092Y019407D01*
X003071Y019392D01*
X003052Y019375D01*
X003035Y019356D01*
X003020Y019335D01*
X003009Y019311D01*
X003001Y019287D01*
X002996Y019262D01*
X002994Y019236D01*
X002994Y018448D01*
X003191Y018251D02*
X003217Y018253D01*
X003242Y018258D01*
X003266Y018266D01*
X003289Y018277D01*
X003311Y018292D01*
X003330Y018309D01*
X003347Y018328D01*
X003362Y018349D01*
X003373Y018373D01*
X003381Y018397D01*
X003386Y018422D01*
X003388Y018448D01*
X003191Y018251D02*
X003165Y018253D01*
X003140Y018258D01*
X003116Y018266D01*
X003092Y018277D01*
X003071Y018292D01*
X003052Y018309D01*
X003035Y018328D01*
X003020Y018350D01*
X003009Y018373D01*
X003001Y018397D01*
X002996Y018422D01*
X002994Y018448D01*
X005356Y018350D02*
X005356Y019334D01*
X005553Y019531D02*
X005579Y019529D01*
X005604Y019524D01*
X005628Y019516D01*
X005652Y019505D01*
X005673Y019490D01*
X005692Y019473D01*
X005709Y019454D01*
X005724Y019432D01*
X005735Y019409D01*
X005743Y019385D01*
X005748Y019360D01*
X005750Y019334D01*
X005750Y018350D01*
X005748Y018324D01*
X005743Y018299D01*
X005735Y018275D01*
X005724Y018251D01*
X005709Y018230D01*
X005692Y018211D01*
X005673Y018194D01*
X005651Y018179D01*
X005628Y018168D01*
X005604Y018160D01*
X005579Y018155D01*
X005553Y018153D01*
X005527Y018155D01*
X005502Y018160D01*
X005478Y018168D01*
X005454Y018179D01*
X005433Y018194D01*
X005414Y018211D01*
X005397Y018230D01*
X005382Y018252D01*
X005371Y018275D01*
X005363Y018299D01*
X005358Y018324D01*
X005356Y018350D01*
X005356Y019334D02*
X005358Y019360D01*
X005363Y019385D01*
X005371Y019409D01*
X005382Y019433D01*
X005397Y019454D01*
X005414Y019473D01*
X005433Y019490D01*
X005454Y019505D01*
X005478Y019516D01*
X005502Y019524D01*
X005527Y019529D01*
X005553Y019531D01*
X004765Y021255D02*
X003978Y021255D01*
X003781Y021452D02*
X003783Y021478D01*
X003788Y021503D01*
X003796Y021527D01*
X003807Y021551D01*
X003822Y021572D01*
X003839Y021591D01*
X003858Y021608D01*
X003879Y021623D01*
X003903Y021634D01*
X003927Y021642D01*
X003952Y021647D01*
X003978Y021649D01*
X004765Y021649D01*
X004962Y021452D02*
X004960Y021426D01*
X004955Y021401D01*
X004947Y021377D01*
X004936Y021353D01*
X004921Y021332D01*
X004904Y021313D01*
X004885Y021296D01*
X004863Y021281D01*
X004840Y021270D01*
X004816Y021262D01*
X004791Y021257D01*
X004765Y021255D01*
X004962Y021452D02*
X004960Y021478D01*
X004955Y021503D01*
X004947Y021527D01*
X004936Y021550D01*
X004921Y021572D01*
X004904Y021591D01*
X004885Y021608D01*
X004864Y021623D01*
X004840Y021634D01*
X004816Y021642D01*
X004791Y021647D01*
X004765Y021649D01*
X003978Y021255D02*
X003952Y021257D01*
X003927Y021262D01*
X003903Y021270D01*
X003879Y021281D01*
X003858Y021296D01*
X003839Y021313D01*
X003822Y021332D01*
X003807Y021354D01*
X003796Y021377D01*
X003788Y021401D01*
X003783Y021426D01*
X003781Y021452D01*
X003387Y022948D02*
X003387Y023736D01*
X003388Y023736D02*
X003386Y023762D01*
X003381Y023787D01*
X003373Y023811D01*
X003362Y023834D01*
X003347Y023856D01*
X003330Y023875D01*
X003311Y023892D01*
X003290Y023907D01*
X003266Y023918D01*
X003242Y023926D01*
X003217Y023931D01*
X003191Y023933D01*
X003165Y023931D01*
X003140Y023926D01*
X003116Y023918D01*
X003092Y023907D01*
X003071Y023892D01*
X003052Y023875D01*
X003035Y023856D01*
X003020Y023835D01*
X003009Y023811D01*
X003001Y023787D01*
X002996Y023762D01*
X002994Y023736D01*
X002994Y022948D01*
X003191Y022751D02*
X003217Y022753D01*
X003242Y022758D01*
X003266Y022766D01*
X003289Y022777D01*
X003311Y022792D01*
X003330Y022809D01*
X003347Y022828D01*
X003362Y022849D01*
X003373Y022873D01*
X003381Y022897D01*
X003386Y022922D01*
X003388Y022948D01*
X003191Y022751D02*
X003165Y022753D01*
X003140Y022758D01*
X003116Y022766D01*
X003092Y022777D01*
X003071Y022792D01*
X003052Y022809D01*
X003035Y022828D01*
X003020Y022850D01*
X003009Y022873D01*
X003001Y022897D01*
X002996Y022922D01*
X002994Y022948D01*
X005356Y022850D02*
X005356Y023834D01*
X005553Y024031D02*
X005579Y024029D01*
X005604Y024024D01*
X005628Y024016D01*
X005652Y024005D01*
X005673Y023990D01*
X005692Y023973D01*
X005709Y023954D01*
X005724Y023932D01*
X005735Y023909D01*
X005743Y023885D01*
X005748Y023860D01*
X005750Y023834D01*
X005750Y022850D01*
X005748Y022824D01*
X005743Y022799D01*
X005735Y022775D01*
X005724Y022751D01*
X005709Y022730D01*
X005692Y022711D01*
X005673Y022694D01*
X005651Y022679D01*
X005628Y022668D01*
X005604Y022660D01*
X005579Y022655D01*
X005553Y022653D01*
X005527Y022655D01*
X005502Y022660D01*
X005478Y022668D01*
X005454Y022679D01*
X005433Y022694D01*
X005414Y022711D01*
X005397Y022730D01*
X005382Y022752D01*
X005371Y022775D01*
X005363Y022799D01*
X005358Y022824D01*
X005356Y022850D01*
X005356Y023834D02*
X005358Y023860D01*
X005363Y023885D01*
X005371Y023909D01*
X005382Y023933D01*
X005397Y023954D01*
X005414Y023973D01*
X005433Y023990D01*
X005454Y024005D01*
X005478Y024016D01*
X005502Y024024D01*
X005527Y024029D01*
X005553Y024031D01*
X007352Y027326D02*
X007354Y027361D01*
X007360Y027396D01*
X007370Y027430D01*
X007383Y027463D01*
X007400Y027494D01*
X007421Y027522D01*
X007444Y027549D01*
X007471Y027572D01*
X007499Y027593D01*
X007530Y027610D01*
X007563Y027623D01*
X007597Y027633D01*
X007632Y027639D01*
X007667Y027641D01*
X007702Y027639D01*
X007737Y027633D01*
X007771Y027623D01*
X007804Y027610D01*
X007835Y027593D01*
X007863Y027572D01*
X007890Y027549D01*
X007913Y027522D01*
X007934Y027494D01*
X007951Y027463D01*
X007964Y027430D01*
X007974Y027396D01*
X007980Y027361D01*
X007982Y027326D01*
X007980Y027291D01*
X007974Y027256D01*
X007964Y027222D01*
X007951Y027189D01*
X007934Y027158D01*
X007913Y027130D01*
X007890Y027103D01*
X007863Y027080D01*
X007835Y027059D01*
X007804Y027042D01*
X007771Y027029D01*
X007737Y027019D01*
X007702Y027013D01*
X007667Y027011D01*
X007632Y027013D01*
X007597Y027019D01*
X007563Y027029D01*
X007530Y027042D01*
X007499Y027059D01*
X007471Y027080D01*
X007444Y027103D01*
X007421Y027130D01*
X007400Y027158D01*
X007383Y027189D01*
X007370Y027222D01*
X007360Y027256D01*
X007354Y027291D01*
X007352Y027326D01*
X016171Y027326D02*
X016173Y027361D01*
X016179Y027396D01*
X016189Y027430D01*
X016202Y027463D01*
X016219Y027494D01*
X016240Y027522D01*
X016263Y027549D01*
X016290Y027572D01*
X016318Y027593D01*
X016349Y027610D01*
X016382Y027623D01*
X016416Y027633D01*
X016451Y027639D01*
X016486Y027641D01*
X016521Y027639D01*
X016556Y027633D01*
X016590Y027623D01*
X016623Y027610D01*
X016654Y027593D01*
X016682Y027572D01*
X016709Y027549D01*
X016732Y027522D01*
X016753Y027494D01*
X016770Y027463D01*
X016783Y027430D01*
X016793Y027396D01*
X016799Y027361D01*
X016801Y027326D01*
X016799Y027291D01*
X016793Y027256D01*
X016783Y027222D01*
X016770Y027189D01*
X016753Y027158D01*
X016732Y027130D01*
X016709Y027103D01*
X016682Y027080D01*
X016654Y027059D01*
X016623Y027042D01*
X016590Y027029D01*
X016556Y027019D01*
X016521Y027013D01*
X016486Y027011D01*
X016451Y027013D01*
X016416Y027019D01*
X016382Y027029D01*
X016349Y027042D01*
X016318Y027059D01*
X016290Y027080D01*
X016263Y027103D01*
X016240Y027130D01*
X016219Y027158D01*
X016202Y027189D01*
X016189Y027222D01*
X016179Y027256D01*
X016173Y027291D01*
X016171Y027326D01*
X003387Y014736D02*
X003387Y013948D01*
X003388Y013948D02*
X003386Y013922D01*
X003381Y013897D01*
X003373Y013873D01*
X003362Y013849D01*
X003347Y013828D01*
X003330Y013809D01*
X003311Y013792D01*
X003289Y013777D01*
X003266Y013766D01*
X003242Y013758D01*
X003217Y013753D01*
X003191Y013751D01*
X003165Y013753D01*
X003140Y013758D01*
X003116Y013766D01*
X003092Y013777D01*
X003071Y013792D01*
X003052Y013809D01*
X003035Y013828D01*
X003020Y013850D01*
X003009Y013873D01*
X003001Y013897D01*
X002996Y013922D01*
X002994Y013948D01*
X002994Y014736D01*
X003191Y014933D02*
X003217Y014931D01*
X003242Y014926D01*
X003266Y014918D01*
X003290Y014907D01*
X003311Y014892D01*
X003330Y014875D01*
X003347Y014856D01*
X003362Y014834D01*
X003373Y014811D01*
X003381Y014787D01*
X003386Y014762D01*
X003388Y014736D01*
X003191Y014933D02*
X003165Y014931D01*
X003140Y014926D01*
X003116Y014918D01*
X003092Y014907D01*
X003071Y014892D01*
X003052Y014875D01*
X003035Y014856D01*
X003020Y014835D01*
X003009Y014811D01*
X003001Y014787D01*
X002996Y014762D01*
X002994Y014736D01*
D11*
X009076Y013542D03*
X017076Y015842D03*
D12*
X016076Y015842D03*
X009076Y014542D03*
D13*
X015076Y011342D03*
D14*
X013517Y011342D03*
X011958Y011342D03*
X010399Y011342D03*
X008840Y011342D03*
X007281Y011342D03*
X005722Y011342D03*
X004163Y011342D03*
D15*
X017482Y012381D03*
X019135Y012381D03*
X020789Y012381D03*
X022443Y012381D03*
X024096Y012381D03*
X025750Y012381D03*
X027403Y012381D03*
X029057Y012381D03*
X030710Y012381D03*
X032364Y012381D03*
X034017Y012381D03*
X035671Y012381D03*
X035671Y010216D03*
X034017Y010216D03*
X032364Y010216D03*
X030710Y010216D03*
X029057Y010216D03*
X027403Y010216D03*
X025750Y010216D03*
X024096Y010216D03*
X022443Y010216D03*
X020789Y010216D03*
X019135Y010216D03*
X017482Y010216D03*
D16*
X015376Y013342D03*
X013076Y016342D03*
X017076Y017342D03*
X022576Y014342D03*
X031076Y015842D03*
X038076Y017842D03*
X031076Y024842D03*
X022576Y023342D03*
X019576Y024342D03*
X020076Y026842D03*
X015376Y022342D03*
D17*
X027576Y016102D02*
X027576Y015582D01*
X028576Y015582D02*
X028576Y016102D01*
X033076Y016582D02*
X033076Y017102D01*
X034076Y017102D02*
X034076Y016582D01*
X034076Y015602D02*
X034076Y015082D01*
X033076Y015082D02*
X033076Y015602D01*
X033076Y014102D02*
X033076Y013582D01*
X034076Y013582D02*
X034076Y014102D01*
D18*
X035576Y016842D03*
X035576Y019842D03*
X028076Y018342D03*
X025076Y018342D03*
X007576Y015842D03*
X006926Y016442D03*
X006926Y019442D03*
X007576Y012842D03*
D19*
X037076Y015842D03*
X037076Y019842D03*
D20*
X033761Y020366D03*
X033761Y023121D03*
X027856Y023121D03*
X025887Y023121D03*
X023919Y023121D03*
X023919Y020366D03*
X025887Y020366D03*
X027856Y020366D03*
D21*
X013376Y014342D02*
X013376Y013742D01*
X012376Y013742D02*
X012376Y014342D01*
X011376Y014342D02*
X011376Y013742D01*
D22*
X010738Y022758D02*
X010738Y023312D01*
X011407Y024293D02*
X011407Y024847D01*
X012746Y024847D02*
X012746Y024293D01*
X013415Y023312D02*
X013415Y022758D01*
X012076Y022758D02*
X012076Y023312D01*
D23*
X018608Y018342D03*
X022545Y018342D03*
D24*
X022576Y026842D03*
X024576Y026842D03*
X027576Y026842D03*
X029576Y026842D03*
X032576Y026842D03*
X034576Y026842D03*
X038076Y023842D03*
X038076Y021842D03*
D25*
X005553Y022850D02*
X005553Y023834D01*
X003191Y023834D02*
X003191Y022850D01*
X003880Y021452D02*
X004864Y021452D01*
X005553Y019334D02*
X005553Y018350D01*
X004864Y016952D02*
X003880Y016952D01*
X003191Y018350D02*
X003191Y019334D01*
X003191Y014834D02*
X003191Y013850D01*
X003880Y012452D02*
X004864Y012452D01*
X005553Y013850D02*
X005553Y014834D01*
D26*
X008576Y019342D03*
X014576Y019342D03*
D27*
X012576Y019342D03*
X010576Y019342D03*
D28*
X016076Y018342D03*
X016076Y022342D03*
D29*
X013376Y015842D02*
X007576Y015842D01*
X013376Y014142D02*
X013376Y014042D01*
D30*
X013376Y014142D02*
X013376Y015842D01*
X016076Y015842D01*
X016076Y016342D01*
X016326Y016592D01*
X022326Y016592D01*
X023826Y018092D01*
X023826Y018592D01*
X022576Y019842D01*
X022576Y020842D01*
X023576Y021842D01*
X024076Y021842D01*
X024876Y022642D01*
X024876Y024092D01*
X026326Y024092D01*
X028076Y025842D01*
X031576Y025842D01*
X032576Y026842D01*
X034576Y026842D01*
X032576Y021842D02*
X027576Y021842D01*
X026076Y020342D01*
X025576Y020342D01*
X022576Y018342D02*
X021576Y019342D01*
X021576Y019310D01*
X022576Y014342D02*
X022443Y014208D01*
X022443Y012381D01*
X020789Y012381D01*
X019135Y012381D01*
X019076Y012342D02*
X018076Y013342D01*
X015376Y013342D01*
X013376Y015842D02*
X013376Y016042D01*
X013076Y016342D01*
X022443Y012381D02*
X023482Y011342D01*
X026576Y011342D01*
X027403Y010515D01*
X027403Y010216D01*
X027450Y010216D01*
X028076Y010842D01*
X028076Y011342D01*
X030076Y011342D01*
X030710Y010708D01*
X030710Y010216D01*
X033761Y020366D02*
X033761Y020657D01*
X032576Y021842D01*
X011407Y024570D02*
X011376Y024640D01*
D31*
X010990Y024220D02*
X010893Y024317D01*
X010806Y024526D01*
X010806Y025151D01*
X010799Y025173D01*
X010806Y025264D01*
X010806Y025355D01*
X010815Y025376D01*
X010817Y025399D01*
X010858Y025480D01*
X010893Y025565D01*
X010909Y025581D01*
X010919Y025601D01*
X010989Y025660D01*
X011053Y025725D01*
X011074Y025734D01*
X011689Y026260D01*
X011753Y026325D01*
X011774Y026334D01*
X011792Y026349D01*
X011878Y026377D01*
X011963Y026412D01*
X011986Y026412D01*
X012007Y026419D01*
X012098Y026412D01*
X013190Y026412D01*
X013399Y026325D01*
X013560Y026165D01*
X014760Y024965D01*
X014846Y024755D01*
X014846Y022378D01*
X014902Y022322D01*
X015356Y022322D01*
X015356Y022362D01*
X014896Y022362D01*
X014896Y022541D01*
X015178Y022822D01*
X015356Y022822D01*
X015356Y022362D01*
X015396Y022362D01*
X015396Y022822D01*
X015575Y022822D01*
X015705Y022692D01*
X015744Y022731D01*
X015809Y022778D01*
X015881Y022815D01*
X015957Y022839D01*
X016036Y022852D01*
X016046Y022852D01*
X016046Y022372D01*
X016046Y022312D01*
X015856Y022312D01*
X015856Y022322D01*
X015396Y022322D01*
X015396Y021862D01*
X015575Y021862D01*
X015705Y021992D01*
X015744Y021953D01*
X015809Y021906D01*
X015881Y021869D01*
X015957Y021845D01*
X016036Y021832D01*
X016046Y021832D01*
X016046Y022312D01*
X016106Y022312D01*
X016106Y021832D01*
X016117Y021832D01*
X016196Y021845D01*
X016272Y021869D01*
X016344Y021906D01*
X016409Y021953D01*
X016465Y022010D01*
X016513Y022075D01*
X016549Y022146D01*
X016574Y022223D01*
X016586Y022302D01*
X016586Y022312D01*
X016106Y022312D01*
X016106Y022372D01*
X016046Y022372D01*
X015856Y022372D01*
X015856Y022362D01*
X015396Y022362D01*
X015396Y022322D01*
X015356Y022322D01*
X015356Y021868D01*
X016560Y020665D01*
X016646Y020455D01*
X016646Y018912D01*
X018172Y018912D01*
X018185Y018925D01*
X018394Y019012D01*
X018621Y019012D01*
X018831Y018925D01*
X018931Y018825D01*
X019091Y018665D01*
X019178Y018455D01*
X019178Y018229D01*
X019091Y018019D01*
X018984Y017912D01*
X021340Y017912D01*
X021755Y018326D01*
X021093Y018988D01*
X021006Y019197D01*
X021006Y024455D01*
X021093Y024665D01*
X021253Y024825D01*
X021853Y025425D01*
X022063Y025512D01*
X025840Y025512D01*
X027006Y026678D01*
X027006Y026955D01*
X027093Y027165D01*
X027253Y027325D01*
X027463Y027412D01*
X027690Y027412D01*
X027899Y027325D01*
X028060Y027165D01*
X028146Y026955D01*
X028146Y026329D01*
X028106Y026232D01*
X031415Y026232D01*
X032053Y026870D01*
X032053Y026946D01*
X032132Y027139D01*
X032280Y027286D01*
X032472Y027366D01*
X032681Y027366D01*
X032873Y027286D01*
X032927Y027232D01*
X034226Y027232D01*
X034280Y027286D01*
X034472Y027366D01*
X034681Y027366D01*
X034873Y027286D01*
X035020Y027139D01*
X035100Y026946D01*
X035100Y026738D01*
X035020Y026545D01*
X034873Y026398D01*
X034681Y026318D01*
X034472Y026318D01*
X034280Y026398D01*
X034226Y026452D01*
X032927Y026452D01*
X032873Y026398D01*
X032681Y026318D01*
X032604Y026318D01*
X031797Y025511D01*
X031654Y025452D01*
X028238Y025452D01*
X026547Y023761D01*
X026404Y023702D01*
X026340Y023702D01*
X026507Y023535D01*
X026618Y023267D01*
X026618Y022976D01*
X026507Y022708D01*
X026301Y022502D01*
X026033Y022391D01*
X025742Y022391D01*
X025474Y022502D01*
X025268Y022708D01*
X025266Y022712D01*
X025266Y022564D01*
X025207Y022421D01*
X025097Y022311D01*
X024297Y021511D01*
X024154Y021452D01*
X023738Y021452D01*
X022966Y020680D01*
X022966Y020004D01*
X024157Y018813D01*
X024216Y018670D01*
X024216Y018014D01*
X024157Y017871D01*
X024047Y017761D01*
X024047Y017761D01*
X022657Y016371D01*
X022657Y016371D01*
X022547Y016261D01*
X022404Y016202D01*
X017409Y016202D01*
X017566Y016045D01*
X017566Y015842D01*
X017076Y015842D01*
X017076Y015842D01*
X016586Y015842D01*
X016586Y016045D01*
X016743Y016202D01*
X016488Y016202D01*
X016466Y016180D01*
X016466Y016076D01*
X016526Y015931D01*
X016526Y015752D01*
X016458Y015587D01*
X016331Y015460D01*
X016166Y015392D01*
X015987Y015392D01*
X015842Y015452D01*
X013766Y015452D01*
X013766Y014550D01*
X013816Y014429D01*
X013816Y013654D01*
X013749Y013493D01*
X013626Y013369D01*
X013464Y013302D01*
X013289Y013302D01*
X013127Y013369D01*
X013003Y013493D01*
X012936Y013654D01*
X012936Y014429D01*
X012986Y014550D01*
X012986Y015502D01*
X007908Y015502D01*
X007845Y015440D01*
X007671Y015367D01*
X007482Y015367D01*
X007308Y015440D01*
X007246Y015501D01*
X007246Y013183D01*
X007308Y013244D01*
X007482Y013317D01*
X007671Y013317D01*
X007845Y013244D01*
X007979Y013111D01*
X008051Y012936D01*
X008051Y012748D01*
X007979Y012573D01*
X007845Y012440D01*
X007671Y012367D01*
X007482Y012367D01*
X007308Y012440D01*
X007253Y012494D01*
X007246Y012470D01*
X007246Y012429D01*
X007218Y012361D01*
X007200Y012291D01*
X007175Y012257D01*
X007160Y012219D01*
X007108Y012168D01*
X006827Y011793D01*
X006919Y011885D01*
X007154Y011982D01*
X008967Y011982D01*
X009203Y011885D01*
X009383Y011704D01*
X009480Y011469D01*
X009480Y011215D01*
X009383Y010979D01*
X009203Y010799D01*
X008967Y010702D01*
X007154Y010702D01*
X006919Y010799D01*
X006739Y010979D01*
X006641Y011215D01*
X006641Y011469D01*
X006711Y011638D01*
X006164Y010909D01*
X005969Y010794D01*
X005897Y010783D01*
X005838Y010759D01*
X005606Y010759D01*
X005392Y010848D01*
X005228Y011012D01*
X005139Y011226D01*
X005139Y011458D01*
X005228Y011672D01*
X005392Y011836D01*
X005454Y011862D01*
X006106Y012732D01*
X006106Y013535D01*
X006089Y013492D01*
X005911Y013314D01*
X005678Y013218D01*
X005427Y013218D01*
X005195Y013314D01*
X005017Y013492D01*
X004921Y013724D01*
X004921Y014960D01*
X005006Y015167D01*
X005006Y016072D01*
X004996Y016114D01*
X005006Y016184D01*
X005006Y016255D01*
X005023Y016295D01*
X005023Y016299D01*
X004995Y016292D01*
X004908Y016280D01*
X004390Y016280D01*
X004390Y016934D01*
X004353Y016934D01*
X003207Y016934D01*
X003207Y016908D01*
X003219Y016821D01*
X003242Y016736D01*
X003275Y016654D01*
X003319Y016578D01*
X003373Y016508D01*
X003435Y016446D01*
X003505Y016392D01*
X003582Y016348D01*
X003663Y016314D01*
X003748Y016292D01*
X003835Y016280D01*
X004353Y016280D01*
X004353Y016934D01*
X004353Y016971D01*
X004353Y017624D01*
X003835Y017624D01*
X003748Y017613D01*
X003663Y017590D01*
X003582Y017556D01*
X003505Y017512D01*
X003435Y017459D01*
X003373Y017396D01*
X003319Y017326D01*
X003275Y017250D01*
X003242Y017169D01*
X003219Y017084D01*
X000970Y017084D01*
X000970Y017242D02*
X003272Y017242D01*
X003219Y017084D02*
X003207Y016996D01*
X003207Y016971D01*
X004353Y016971D01*
X004390Y016971D01*
X004390Y017624D01*
X004908Y017624D01*
X004995Y017613D01*
X005080Y017590D01*
X005162Y017556D01*
X005238Y017512D01*
X005306Y017460D01*
X005306Y017484D01*
X005194Y017672D01*
X005006Y017672D01*
X004906Y017772D01*
X004906Y018912D01*
X004921Y018927D01*
X004921Y019460D01*
X005017Y019692D01*
X005195Y019870D01*
X005372Y019943D01*
X005503Y020075D01*
X005506Y020078D01*
X005506Y021254D01*
X005502Y021236D01*
X005468Y021154D01*
X005424Y021078D01*
X005370Y021008D01*
X005308Y020946D01*
X005238Y020892D01*
X005162Y020848D01*
X005080Y020814D01*
X004995Y020792D01*
X004908Y020780D01*
X004390Y020780D01*
X004390Y021434D01*
X004353Y021434D01*
X003207Y021434D01*
X003207Y021408D01*
X003219Y021321D01*
X003242Y021236D01*
X003275Y021154D01*
X003319Y021078D01*
X003373Y021008D01*
X003435Y020946D01*
X003505Y020892D01*
X003582Y020848D01*
X003663Y020814D01*
X003748Y020792D01*
X003835Y020780D01*
X004353Y020780D01*
X004353Y021434D01*
X004353Y021471D01*
X004353Y022124D01*
X003835Y022124D01*
X003748Y022113D01*
X003663Y022090D01*
X003582Y022056D01*
X003505Y022012D01*
X003435Y021959D01*
X003373Y021896D01*
X003319Y021826D01*
X003275Y021750D01*
X003242Y021669D01*
X003219Y021584D01*
X003207Y021496D01*
X003207Y021471D01*
X004353Y021471D01*
X004390Y021471D01*
X004390Y022124D01*
X004908Y022124D01*
X004995Y022113D01*
X005062Y022095D01*
X005030Y022172D01*
X005006Y022172D01*
X004906Y022272D01*
X004906Y023412D01*
X004921Y023427D01*
X004921Y023960D01*
X005017Y024192D01*
X005195Y024370D01*
X005427Y024466D01*
X005678Y024466D01*
X005882Y024382D01*
X006140Y024382D01*
X010141Y027812D01*
X010214Y027885D01*
X010237Y027894D01*
X010257Y027911D01*
X010354Y027943D01*
X010449Y027982D01*
X010474Y027982D01*
X010499Y027990D01*
X010601Y027982D01*
X013704Y027982D01*
X013939Y027885D01*
X016791Y025032D01*
X017655Y025032D01*
X017766Y024921D01*
X017766Y023263D01*
X017655Y023152D01*
X015498Y023152D01*
X015386Y023263D01*
X015386Y024627D01*
X013311Y026702D01*
X010813Y026702D01*
X006812Y023272D01*
X006739Y023199D01*
X006715Y023190D01*
X006696Y023173D01*
X006599Y023141D01*
X006504Y023102D01*
X006478Y023102D01*
X006454Y023094D01*
X006352Y023102D01*
X006241Y023102D01*
X006185Y023045D01*
X006185Y022724D01*
X006146Y022631D01*
X006146Y022578D01*
X006399Y022325D01*
X006560Y022165D01*
X006646Y021955D01*
X006646Y019833D01*
X006658Y019844D01*
X006832Y019917D01*
X007021Y019917D01*
X007195Y019844D01*
X007329Y019711D01*
X007401Y019536D01*
X007401Y019348D01*
X007329Y019173D01*
X007195Y019040D01*
X007021Y018967D01*
X006832Y018967D01*
X006658Y019040D01*
X006524Y019173D01*
X006452Y019348D01*
X006452Y019411D01*
X006310Y019269D01*
X006246Y019206D01*
X006246Y018772D01*
X006185Y018710D01*
X006185Y018236D01*
X006329Y017995D01*
X006360Y017965D01*
X006387Y017899D01*
X006423Y017838D01*
X006430Y017795D01*
X006446Y017755D01*
X006446Y017684D01*
X006457Y017614D01*
X006446Y017572D01*
X006446Y017033D01*
X006553Y017269D01*
X006593Y017365D01*
X006600Y017372D01*
X006604Y017381D01*
X006680Y017452D01*
X006753Y017525D01*
X006763Y017529D01*
X006770Y017536D01*
X006867Y017572D01*
X006963Y017612D01*
X006973Y017612D01*
X006982Y017615D01*
X007086Y017612D01*
X012259Y017612D01*
X012506Y017718D01*
X006446Y017718D01*
X006446Y017559D02*
X006833Y017559D01*
X006626Y017401D02*
X006446Y017401D01*
X006446Y017242D02*
X006541Y017242D01*
X006469Y017084D02*
X006446Y017084D01*
X006400Y017876D02*
X012506Y017876D01*
X012506Y017955D02*
X012506Y017718D01*
X012506Y017955D02*
X012593Y018165D01*
X013964Y019536D01*
X014034Y019704D01*
X014214Y019885D01*
X014449Y019982D01*
X014704Y019982D01*
X014939Y019885D01*
X015119Y019704D01*
X015216Y019469D01*
X015216Y019215D01*
X015119Y018979D01*
X014939Y018799D01*
X014770Y018729D01*
X013952Y017912D01*
X015700Y017912D01*
X015593Y018019D01*
X015506Y018229D01*
X015506Y020106D01*
X013953Y021659D01*
X013793Y021819D01*
X013706Y022029D01*
X013706Y022459D01*
X013651Y022404D01*
X013498Y022341D01*
X013332Y022341D01*
X013179Y022404D01*
X013061Y022521D01*
X012998Y022675D01*
X012998Y023395D01*
X013061Y023548D01*
X013179Y023666D01*
X013332Y023729D01*
X013498Y023729D01*
X013651Y023666D01*
X013706Y023611D01*
X013706Y024406D01*
X013149Y024963D01*
X013163Y024930D01*
X013163Y024210D01*
X013099Y024057D01*
X012982Y023939D01*
X012829Y023876D01*
X012663Y023876D01*
X012509Y023939D01*
X012392Y024057D01*
X012329Y024210D01*
X012329Y024930D01*
X012392Y025084D01*
X012509Y025201D01*
X012663Y025265D01*
X012829Y025265D01*
X012861Y025251D01*
X012840Y025272D01*
X012287Y025272D01*
X011946Y024980D01*
X011946Y024526D01*
X011860Y024317D01*
X011824Y024281D01*
X011824Y024210D01*
X011761Y024057D01*
X011643Y023939D01*
X011490Y023876D01*
X011324Y023876D01*
X011171Y023939D01*
X011053Y024057D01*
X010990Y024210D01*
X010990Y024220D01*
X010990Y024216D02*
X007913Y024216D01*
X007728Y024058D02*
X011053Y024058D01*
X011267Y023899D02*
X007544Y023899D01*
X007359Y023741D02*
X011917Y023741D01*
X011901Y023736D02*
X011837Y023703D01*
X011779Y023661D01*
X011728Y023610D01*
X011685Y023552D01*
X011653Y023488D01*
X011630Y023419D01*
X011619Y023348D01*
X011619Y023043D01*
X012068Y023043D01*
X012068Y023026D01*
X012085Y023026D01*
X012085Y022301D01*
X012112Y022301D01*
X012183Y022312D01*
X012252Y022334D01*
X012316Y022367D01*
X012374Y022409D01*
X012425Y022460D01*
X012467Y022518D01*
X012500Y022582D01*
X012522Y022651D01*
X012534Y022722D01*
X012534Y023026D01*
X012085Y023026D01*
X012085Y023043D01*
X012534Y023043D01*
X012534Y023348D01*
X012522Y023419D01*
X012500Y023488D01*
X012467Y023552D01*
X012425Y023610D01*
X012374Y023661D01*
X012316Y023703D01*
X012252Y023736D01*
X012183Y023758D01*
X012112Y023769D01*
X012085Y023769D01*
X012085Y023043D01*
X012068Y023043D01*
X012068Y023769D01*
X012040Y023769D01*
X011969Y023758D01*
X011901Y023736D01*
X012068Y023741D02*
X012085Y023741D01*
X012236Y023741D02*
X013706Y023741D01*
X013706Y023899D02*
X012885Y023899D01*
X013100Y024058D02*
X013706Y024058D01*
X013706Y024216D02*
X013163Y024216D01*
X013163Y024375D02*
X013706Y024375D01*
X013579Y024533D02*
X013163Y024533D01*
X013163Y024692D02*
X013420Y024692D01*
X013262Y024850D02*
X013163Y024850D01*
X012476Y025167D02*
X012165Y025167D01*
X011980Y025009D02*
X012361Y025009D01*
X012329Y024850D02*
X011946Y024850D01*
X011946Y024692D02*
X012329Y024692D01*
X012329Y024533D02*
X011946Y024533D01*
X011884Y024375D02*
X012329Y024375D01*
X012329Y024216D02*
X011824Y024216D01*
X011761Y024058D02*
X012392Y024058D01*
X012606Y023899D02*
X011547Y023899D01*
X011708Y023582D02*
X011057Y023582D01*
X011091Y023548D02*
X010974Y023666D01*
X010821Y023729D01*
X010655Y023729D01*
X010501Y023666D01*
X010384Y023548D01*
X010321Y023395D01*
X010321Y022675D01*
X010384Y022521D01*
X010501Y022404D01*
X010655Y022341D01*
X010821Y022341D01*
X010974Y022404D01*
X011091Y022521D01*
X011155Y022675D01*
X011155Y023395D01*
X011091Y023548D01*
X011143Y023424D02*
X011632Y023424D01*
X011619Y023265D02*
X011155Y023265D01*
X011155Y023107D02*
X011619Y023107D01*
X011619Y023026D02*
X011619Y022722D01*
X011630Y022651D01*
X011653Y022582D01*
X011685Y022518D01*
X011728Y022460D01*
X011779Y022409D01*
X011837Y022367D01*
X011901Y022334D01*
X011969Y022312D01*
X012040Y022301D01*
X012068Y022301D01*
X012068Y023026D01*
X011619Y023026D01*
X011619Y022948D02*
X011155Y022948D01*
X011155Y022790D02*
X011619Y022790D01*
X011637Y022631D02*
X011137Y022631D01*
X011043Y022473D02*
X011718Y022473D01*
X011961Y022314D02*
X006410Y022314D01*
X006563Y022156D02*
X013706Y022156D01*
X013706Y022314D02*
X012192Y022314D01*
X012085Y022314D02*
X012068Y022314D01*
X012068Y022473D02*
X012085Y022473D01*
X012068Y022631D02*
X012085Y022631D01*
X012068Y022790D02*
X012085Y022790D01*
X012068Y022948D02*
X012085Y022948D01*
X012068Y023107D02*
X012085Y023107D01*
X012068Y023265D02*
X012085Y023265D01*
X012068Y023424D02*
X012085Y023424D01*
X012068Y023582D02*
X012085Y023582D01*
X012445Y023582D02*
X013095Y023582D01*
X013010Y023424D02*
X012521Y023424D01*
X012534Y023265D02*
X012998Y023265D01*
X012998Y023107D02*
X012534Y023107D01*
X012534Y022948D02*
X012998Y022948D01*
X012998Y022790D02*
X012534Y022790D01*
X012516Y022631D02*
X013016Y022631D01*
X013110Y022473D02*
X012435Y022473D01*
X013719Y021997D02*
X006629Y021997D01*
X006646Y021839D02*
X013785Y021839D01*
X013932Y021680D02*
X006646Y021680D01*
X006646Y021522D02*
X014090Y021522D01*
X014249Y021363D02*
X006646Y021363D01*
X006646Y021205D02*
X014407Y021205D01*
X014566Y021046D02*
X006646Y021046D01*
X006646Y020888D02*
X014724Y020888D01*
X014883Y020729D02*
X006646Y020729D01*
X006646Y020571D02*
X015041Y020571D01*
X015200Y020412D02*
X006646Y020412D01*
X006646Y020254D02*
X015358Y020254D01*
X015506Y020095D02*
X006646Y020095D01*
X006646Y019937D02*
X008340Y019937D01*
X008449Y019982D02*
X008214Y019885D01*
X008034Y019704D01*
X007936Y019469D01*
X007936Y019215D01*
X008034Y018979D01*
X008214Y018799D01*
X008449Y018702D01*
X008704Y018702D01*
X008939Y018799D01*
X009119Y018979D01*
X009216Y019215D01*
X009216Y019469D01*
X009119Y019704D01*
X008939Y019885D01*
X008704Y019982D01*
X008449Y019982D01*
X008812Y019937D02*
X010210Y019937D01*
X010295Y020022D02*
X009896Y019624D01*
X009896Y019362D01*
X010556Y019362D01*
X010556Y019322D01*
X009896Y019322D01*
X009896Y019060D01*
X010295Y018662D01*
X010556Y018662D01*
X010556Y019322D01*
X010596Y019322D01*
X010596Y018662D01*
X010858Y018662D01*
X011256Y019060D01*
X011256Y019322D01*
X010596Y019322D01*
X010596Y019362D01*
X010556Y019362D01*
X010556Y020022D01*
X010295Y020022D01*
X010556Y019937D02*
X010596Y019937D01*
X010596Y020022D02*
X010858Y020022D01*
X011256Y019624D01*
X011256Y019362D01*
X010596Y019362D01*
X010596Y020022D01*
X010596Y019778D02*
X010556Y019778D01*
X010556Y019620D02*
X010596Y019620D01*
X010596Y019461D02*
X010556Y019461D01*
X010556Y019303D02*
X010596Y019303D01*
X010596Y019144D02*
X010556Y019144D01*
X010556Y018986D02*
X010596Y018986D01*
X010596Y018827D02*
X010556Y018827D01*
X010556Y018669D02*
X010596Y018669D01*
X010865Y018669D02*
X012288Y018669D01*
X012295Y018662D02*
X012556Y018662D01*
X012556Y019322D01*
X011896Y019322D01*
X011896Y019060D01*
X012295Y018662D01*
X012129Y018827D02*
X011024Y018827D01*
X011182Y018986D02*
X011971Y018986D01*
X011896Y019144D02*
X011256Y019144D01*
X011256Y019303D02*
X011896Y019303D01*
X011896Y019362D02*
X012556Y019362D01*
X012556Y019322D01*
X012596Y019322D01*
X012596Y018662D01*
X012858Y018662D01*
X013256Y019060D01*
X013256Y019322D01*
X012596Y019322D01*
X012596Y019362D01*
X012556Y019362D01*
X012556Y020022D01*
X012295Y020022D01*
X011896Y019624D01*
X011896Y019362D01*
X011896Y019461D02*
X011256Y019461D01*
X011256Y019620D02*
X011896Y019620D01*
X012051Y019778D02*
X011102Y019778D01*
X010943Y019937D02*
X012210Y019937D01*
X012556Y019937D02*
X012596Y019937D01*
X012596Y020022D02*
X012858Y020022D01*
X013256Y019624D01*
X013256Y019362D01*
X012596Y019362D01*
X012596Y020022D01*
X012596Y019778D02*
X012556Y019778D01*
X012556Y019620D02*
X012596Y019620D01*
X012596Y019461D02*
X012556Y019461D01*
X012556Y019303D02*
X012596Y019303D01*
X012596Y019144D02*
X012556Y019144D01*
X012556Y018986D02*
X012596Y018986D01*
X012596Y018827D02*
X012556Y018827D01*
X012556Y018669D02*
X012596Y018669D01*
X012865Y018669D02*
X013097Y018669D01*
X013024Y018827D02*
X013256Y018827D01*
X013182Y018986D02*
X013414Y018986D01*
X013256Y019144D02*
X013573Y019144D01*
X013731Y019303D02*
X013256Y019303D01*
X013256Y019461D02*
X013890Y019461D01*
X013999Y019620D02*
X013256Y019620D01*
X013102Y019778D02*
X014108Y019778D01*
X014340Y019937D02*
X012943Y019937D01*
X012939Y018510D02*
X006185Y018510D01*
X006185Y018352D02*
X012780Y018352D01*
X012622Y018193D02*
X006210Y018193D01*
X006305Y018035D02*
X012539Y018035D01*
X014075Y018035D02*
X015587Y018035D01*
X015521Y018193D02*
X014234Y018193D01*
X014392Y018352D02*
X015506Y018352D01*
X015506Y018510D02*
X014551Y018510D01*
X014709Y018669D02*
X015506Y018669D01*
X015506Y018827D02*
X014967Y018827D01*
X015122Y018986D02*
X015506Y018986D01*
X015506Y019144D02*
X015187Y019144D01*
X015216Y019303D02*
X015506Y019303D01*
X015506Y019461D02*
X015216Y019461D01*
X015154Y019620D02*
X015506Y019620D01*
X015506Y019778D02*
X015045Y019778D01*
X014812Y019937D02*
X015506Y019937D01*
X016646Y019937D02*
X021006Y019937D01*
X021006Y020095D02*
X016646Y020095D01*
X016646Y020254D02*
X021006Y020254D01*
X021006Y020412D02*
X016646Y020412D01*
X016598Y020571D02*
X021006Y020571D01*
X021006Y020729D02*
X016495Y020729D01*
X016336Y020888D02*
X021006Y020888D01*
X021006Y021046D02*
X016178Y021046D01*
X016019Y021205D02*
X021006Y021205D01*
X021006Y021363D02*
X015861Y021363D01*
X015702Y021522D02*
X021006Y021522D01*
X021006Y021680D02*
X015544Y021680D01*
X015385Y021839D02*
X015992Y021839D01*
X016046Y021839D02*
X016106Y021839D01*
X016161Y021839D02*
X021006Y021839D01*
X021006Y021997D02*
X016453Y021997D01*
X016552Y022156D02*
X021006Y022156D01*
X021006Y022314D02*
X016106Y022314D01*
X016106Y022372D02*
X016586Y022372D01*
X016586Y022382D01*
X016574Y022461D01*
X016549Y022538D01*
X016513Y022609D01*
X016465Y022674D01*
X016409Y022731D01*
X016344Y022778D01*
X016272Y022815D01*
X016196Y022839D01*
X016117Y022852D01*
X016106Y022852D01*
X016106Y022372D01*
X016046Y022314D02*
X015856Y022314D01*
X016046Y022156D02*
X016106Y022156D01*
X016106Y021997D02*
X016046Y021997D01*
X015396Y021997D02*
X015356Y021997D01*
X015356Y022156D02*
X015396Y022156D01*
X015396Y022314D02*
X015356Y022314D01*
X015356Y022473D02*
X015396Y022473D01*
X015396Y022631D02*
X015356Y022631D01*
X015356Y022790D02*
X015396Y022790D01*
X015607Y022790D02*
X015832Y022790D01*
X016046Y022790D02*
X016106Y022790D01*
X016106Y022631D02*
X016046Y022631D01*
X016046Y022473D02*
X016106Y022473D01*
X016320Y022790D02*
X021006Y022790D01*
X021006Y022948D02*
X014846Y022948D01*
X014846Y022790D02*
X015146Y022790D01*
X014987Y022631D02*
X014846Y022631D01*
X014846Y022473D02*
X014896Y022473D01*
X014846Y023107D02*
X021006Y023107D01*
X021006Y023265D02*
X017766Y023265D01*
X017766Y023424D02*
X021006Y023424D01*
X021006Y023582D02*
X017766Y023582D01*
X017766Y023741D02*
X021006Y023741D01*
X021006Y023899D02*
X017766Y023899D01*
X017766Y024058D02*
X019238Y024058D01*
X019136Y024160D02*
X019394Y023902D01*
X019759Y023902D01*
X020016Y024160D01*
X020016Y024524D01*
X019759Y024782D01*
X019394Y024782D01*
X019136Y024524D01*
X019136Y024160D01*
X019136Y024216D02*
X017766Y024216D01*
X017766Y024375D02*
X019136Y024375D01*
X019146Y024533D02*
X017766Y024533D01*
X017766Y024692D02*
X019304Y024692D01*
X019849Y024692D02*
X021120Y024692D01*
X021039Y024533D02*
X020007Y024533D01*
X020016Y024375D02*
X021006Y024375D01*
X021006Y024216D02*
X020016Y024216D01*
X019915Y024058D02*
X021006Y024058D01*
X021279Y024850D02*
X017766Y024850D01*
X017678Y025009D02*
X021437Y025009D01*
X021596Y025167D02*
X016656Y025167D01*
X016497Y025326D02*
X021754Y025326D01*
X021997Y025484D02*
X016339Y025484D01*
X016180Y025643D02*
X025971Y025643D01*
X026130Y025801D02*
X016022Y025801D01*
X015863Y025960D02*
X026288Y025960D01*
X026447Y026118D02*
X015705Y026118D01*
X015546Y026277D02*
X026605Y026277D01*
X026764Y026435D02*
X024911Y026435D01*
X024873Y026398D02*
X025020Y026545D01*
X025100Y026738D01*
X025100Y026946D01*
X025020Y027139D01*
X024873Y027286D01*
X024681Y027366D01*
X024472Y027366D01*
X024280Y027286D01*
X024132Y027139D01*
X024053Y026946D01*
X024053Y026738D01*
X024132Y026545D01*
X024280Y026398D01*
X024472Y026318D01*
X024681Y026318D01*
X024873Y026398D01*
X025041Y026594D02*
X026922Y026594D01*
X027006Y026752D02*
X025100Y026752D01*
X025100Y026911D02*
X027006Y026911D01*
X027054Y027069D02*
X025049Y027069D01*
X024931Y027228D02*
X027156Y027228D01*
X027402Y027386D02*
X016881Y027386D01*
X016881Y027405D02*
X016821Y027550D01*
X016710Y027661D01*
X016564Y027721D01*
X016407Y027721D01*
X016262Y027661D01*
X016151Y027550D01*
X016091Y027405D01*
X016091Y027248D01*
X016151Y027102D01*
X016262Y026991D01*
X016407Y026931D01*
X016564Y026931D01*
X016710Y026991D01*
X016821Y027102D01*
X016881Y027248D01*
X016881Y027405D01*
X016823Y027545D02*
X039553Y027545D01*
X039553Y027703D02*
X016607Y027703D01*
X016365Y027703D02*
X014120Y027703D01*
X014278Y027545D02*
X016149Y027545D01*
X016091Y027386D02*
X014437Y027386D01*
X014595Y027228D02*
X016099Y027228D01*
X016184Y027069D02*
X014754Y027069D01*
X014912Y026911D02*
X019636Y026911D01*
X019636Y027024D02*
X019636Y026660D01*
X019894Y026402D01*
X020259Y026402D01*
X020516Y026660D01*
X020516Y027024D01*
X020259Y027282D01*
X019894Y027282D01*
X019636Y027024D01*
X019682Y027069D02*
X016788Y027069D01*
X016873Y027228D02*
X019840Y027228D01*
X020313Y027228D02*
X022222Y027228D01*
X022280Y027286D02*
X022132Y027139D01*
X022053Y026946D01*
X022053Y026738D01*
X022132Y026545D01*
X022280Y026398D01*
X022472Y026318D01*
X022681Y026318D01*
X022873Y026398D01*
X023020Y026545D01*
X023100Y026738D01*
X023100Y026946D01*
X023020Y027139D01*
X022873Y027286D01*
X022681Y027366D01*
X022472Y027366D01*
X022280Y027286D01*
X022104Y027069D02*
X020471Y027069D01*
X020516Y026911D02*
X022053Y026911D01*
X022053Y026752D02*
X020516Y026752D01*
X020451Y026594D02*
X022112Y026594D01*
X022242Y026435D02*
X020292Y026435D01*
X019861Y026435D02*
X015388Y026435D01*
X015229Y026594D02*
X019702Y026594D01*
X019636Y026752D02*
X015071Y026752D01*
X014212Y025801D02*
X013923Y025801D01*
X014053Y025960D02*
X013764Y025960D01*
X013895Y026118D02*
X013606Y026118D01*
X013736Y026277D02*
X013447Y026277D01*
X013578Y026435D02*
X010502Y026435D01*
X010317Y026277D02*
X011705Y026277D01*
X011523Y026118D02*
X010132Y026118D01*
X009947Y025960D02*
X011338Y025960D01*
X011153Y025801D02*
X009763Y025801D01*
X009578Y025643D02*
X010968Y025643D01*
X010860Y025484D02*
X009393Y025484D01*
X009208Y025326D02*
X010806Y025326D01*
X010801Y025167D02*
X009023Y025167D01*
X008838Y025009D02*
X010806Y025009D01*
X010806Y024850D02*
X008653Y024850D01*
X008468Y024692D02*
X010806Y024692D01*
X010806Y024533D02*
X008283Y024533D01*
X008098Y024375D02*
X010869Y024375D01*
X010418Y023582D02*
X007174Y023582D01*
X006989Y023424D02*
X010333Y023424D01*
X010321Y023265D02*
X006805Y023265D01*
X006516Y023107D02*
X010321Y023107D01*
X010321Y022948D02*
X006185Y022948D01*
X006185Y022790D02*
X010321Y022790D01*
X010339Y022631D02*
X006147Y022631D01*
X006251Y022473D02*
X010433Y022473D01*
X010051Y019778D02*
X009045Y019778D01*
X009154Y019620D02*
X009896Y019620D01*
X009896Y019461D02*
X009216Y019461D01*
X009216Y019303D02*
X009896Y019303D01*
X009896Y019144D02*
X009187Y019144D01*
X009122Y018986D02*
X009971Y018986D01*
X010129Y018827D02*
X008967Y018827D01*
X008186Y018827D02*
X006246Y018827D01*
X006246Y018986D02*
X006787Y018986D01*
X007066Y018986D02*
X008031Y018986D01*
X007965Y019144D02*
X007300Y019144D01*
X007383Y019303D02*
X007936Y019303D01*
X007936Y019461D02*
X007401Y019461D01*
X007366Y019620D02*
X007999Y019620D01*
X008108Y019778D02*
X007261Y019778D01*
X006470Y019303D02*
X006343Y019303D01*
X006246Y019144D02*
X006553Y019144D01*
X006185Y018669D02*
X010288Y018669D01*
X007905Y015499D02*
X012986Y015499D01*
X012986Y015340D02*
X007246Y015340D01*
X007246Y015182D02*
X012986Y015182D01*
X012986Y015023D02*
X007246Y015023D01*
X007246Y014865D02*
X008763Y014865D01*
X008821Y014923D02*
X008695Y014797D01*
X008626Y014631D01*
X008626Y014452D01*
X008695Y014287D01*
X008821Y014160D01*
X008987Y014092D01*
X009166Y014092D01*
X009331Y014160D01*
X009458Y014287D01*
X009526Y014452D01*
X009526Y014631D01*
X009458Y014797D01*
X009331Y014923D01*
X009166Y014992D01*
X008987Y014992D01*
X008821Y014923D01*
X008657Y014706D02*
X007246Y014706D01*
X007246Y014548D02*
X008626Y014548D01*
X008652Y014389D02*
X007246Y014389D01*
X007246Y014231D02*
X008751Y014231D01*
X008873Y014032D02*
X008586Y013745D01*
X008586Y013542D01*
X009076Y013542D01*
X009076Y013542D01*
X008586Y013542D01*
X008586Y013339D01*
X008873Y013052D01*
X009076Y013052D01*
X009076Y013542D01*
X009076Y014032D01*
X008873Y014032D01*
X008755Y013914D02*
X007246Y013914D01*
X007246Y014072D02*
X010936Y014072D01*
X010936Y013914D02*
X009397Y013914D01*
X009279Y014032D02*
X009566Y013745D01*
X009566Y013542D01*
X009076Y013542D01*
X009076Y013542D01*
X009076Y013542D01*
X009076Y014032D01*
X009279Y014032D01*
X009402Y014231D02*
X010936Y014231D01*
X010936Y014389D02*
X009500Y014389D01*
X009526Y014548D02*
X010985Y014548D01*
X011003Y014591D02*
X010936Y014429D01*
X010936Y013654D01*
X011003Y013493D01*
X011127Y013369D01*
X011289Y013302D01*
X011464Y013302D01*
X011626Y013369D01*
X011749Y013493D01*
X011816Y013654D01*
X011816Y014429D01*
X011749Y014591D01*
X011626Y014715D01*
X011464Y014782D01*
X011289Y014782D01*
X011127Y014715D01*
X011003Y014591D01*
X011119Y014706D02*
X009495Y014706D01*
X009390Y014865D02*
X012986Y014865D01*
X012986Y014706D02*
X012691Y014706D01*
X012689Y014708D02*
X012628Y014753D01*
X012561Y014787D01*
X012489Y014810D01*
X012414Y014822D01*
X012396Y014822D01*
X012396Y014062D01*
X012356Y014062D01*
X012356Y014022D01*
X011896Y014022D01*
X011896Y013704D01*
X011908Y013630D01*
X011932Y013558D01*
X011966Y013490D01*
X012010Y013429D01*
X012064Y013376D01*
X012125Y013331D01*
X012192Y013297D01*
X012264Y013274D01*
X012339Y013262D01*
X012356Y013262D01*
X012356Y014022D01*
X012396Y014022D01*
X012396Y013262D01*
X012414Y013262D01*
X012489Y013274D01*
X012561Y013297D01*
X012628Y013331D01*
X012689Y013376D01*
X012743Y013429D01*
X012787Y013490D01*
X012821Y013558D01*
X012845Y013630D01*
X012856Y013704D01*
X012856Y014022D01*
X012396Y014022D01*
X012396Y014062D01*
X012856Y014062D01*
X012856Y014380D01*
X012845Y014454D01*
X012821Y014526D01*
X012787Y014594D01*
X012743Y014655D01*
X012689Y014708D01*
X012810Y014548D02*
X012985Y014548D01*
X012936Y014389D02*
X012855Y014389D01*
X012856Y014231D02*
X012936Y014231D01*
X012936Y014072D02*
X012856Y014072D01*
X012856Y013914D02*
X012936Y013914D01*
X012936Y013755D02*
X012856Y013755D01*
X012834Y013597D02*
X012960Y013597D01*
X013058Y013438D02*
X012749Y013438D01*
X012508Y013280D02*
X014936Y013280D01*
X014936Y013160D02*
X014936Y013524D01*
X015194Y013782D01*
X015559Y013782D01*
X015609Y013732D01*
X018154Y013732D01*
X018297Y013673D01*
X018912Y013058D01*
X018994Y013092D01*
X019277Y013092D01*
X019538Y012984D01*
X019738Y012784D01*
X019743Y012771D01*
X020181Y012771D01*
X020186Y012784D01*
X020386Y012984D01*
X020648Y013092D01*
X020930Y013092D01*
X021192Y012984D01*
X021392Y012784D01*
X021397Y012771D01*
X021835Y012771D01*
X021840Y012784D01*
X022040Y012984D01*
X022053Y012989D01*
X022053Y014286D01*
X022112Y014429D01*
X022136Y014454D01*
X022136Y014524D01*
X022394Y014782D01*
X022759Y014782D01*
X023016Y014524D01*
X023016Y014160D01*
X022833Y013976D01*
X022833Y012989D01*
X022845Y012984D01*
X023045Y012784D01*
X023153Y012523D01*
X023153Y012240D01*
X023148Y012227D01*
X023643Y011732D01*
X023806Y011732D01*
X023693Y011779D01*
X023493Y011979D01*
X023385Y012240D01*
X023385Y012523D01*
X023493Y012784D01*
X023693Y012984D01*
X023955Y013092D01*
X024237Y013092D01*
X024499Y012984D01*
X024699Y012784D01*
X024807Y012523D01*
X024807Y012240D01*
X024699Y011979D01*
X024499Y011779D01*
X024386Y011732D01*
X025373Y011732D01*
X025332Y011756D01*
X025253Y011816D01*
X025184Y011885D01*
X025124Y011963D01*
X025075Y012049D01*
X025037Y012139D01*
X025012Y012235D01*
X025003Y012301D01*
X025670Y012301D01*
X025670Y012461D01*
X025003Y012461D01*
X025012Y012528D01*
X025037Y012623D01*
X025075Y012714D01*
X025124Y012799D01*
X025184Y012877D01*
X025253Y012947D01*
X025332Y013007D01*
X025417Y013056D01*
X025508Y013094D01*
X025603Y013119D01*
X025670Y013128D01*
X025670Y012461D01*
X025830Y012461D01*
X026496Y012461D01*
X026488Y012528D01*
X026462Y012623D01*
X026424Y012714D01*
X026375Y012799D01*
X026315Y012877D01*
X026246Y012947D01*
X026168Y013007D01*
X026082Y013056D01*
X025991Y013094D01*
X025896Y013119D01*
X025830Y013128D01*
X025830Y012461D01*
X025830Y012301D01*
X026496Y012301D01*
X026488Y012235D01*
X026462Y012139D01*
X026424Y012049D01*
X026375Y011963D01*
X026315Y011885D01*
X026246Y011816D01*
X026168Y011756D01*
X026127Y011732D01*
X026654Y011732D01*
X026797Y011673D01*
X026907Y011563D01*
X027543Y010927D01*
X027545Y010927D01*
X027591Y010908D01*
X027686Y011004D01*
X027686Y011420D01*
X027746Y011563D01*
X027855Y011673D01*
X027999Y011732D01*
X028680Y011732D01*
X028639Y011756D01*
X028561Y011816D01*
X028491Y011885D01*
X028431Y011963D01*
X028382Y012049D01*
X028344Y012139D01*
X028319Y012235D01*
X028310Y012301D01*
X028977Y012301D01*
X028977Y012461D01*
X028310Y012461D01*
X028319Y012528D01*
X028344Y012623D01*
X028382Y012714D01*
X028431Y012799D01*
X028491Y012877D01*
X028561Y012947D01*
X028639Y013007D01*
X028724Y013056D01*
X028815Y013094D01*
X028910Y013119D01*
X028977Y013128D01*
X028977Y012461D01*
X029137Y012461D01*
X029804Y012461D01*
X029795Y012528D01*
X029769Y012623D01*
X029732Y012714D01*
X029682Y012799D01*
X029622Y012877D01*
X029553Y012947D01*
X029475Y013007D01*
X029390Y013056D01*
X029299Y013094D01*
X029203Y013119D01*
X029137Y013128D01*
X029137Y012461D01*
X029137Y012301D01*
X029804Y012301D01*
X029795Y012235D01*
X029769Y012139D01*
X029732Y012049D01*
X029682Y011963D01*
X029622Y011885D01*
X029553Y011816D01*
X029475Y011756D01*
X029434Y011732D01*
X030154Y011732D01*
X030297Y011673D01*
X030407Y011563D01*
X031041Y010929D01*
X031081Y010832D01*
X031113Y010819D01*
X031313Y010619D01*
X031421Y010357D01*
X031421Y010075D01*
X031313Y009813D01*
X031113Y009613D01*
X030852Y009505D01*
X030569Y009505D01*
X030308Y009613D01*
X030108Y009813D01*
X029999Y010075D01*
X029999Y010357D01*
X030108Y010619D01*
X030178Y010689D01*
X029915Y010952D01*
X029211Y010952D01*
X029299Y010929D01*
X029390Y010891D01*
X029475Y010842D01*
X029553Y010782D01*
X029622Y010712D01*
X029682Y010634D01*
X029732Y010549D01*
X029769Y010458D01*
X029795Y010363D01*
X029804Y010296D01*
X029137Y010296D01*
X029137Y010136D01*
X029804Y010136D01*
X029795Y010069D01*
X029769Y009974D01*
X029732Y009883D01*
X029682Y009798D01*
X029622Y009720D01*
X029553Y009650D01*
X029475Y009590D01*
X029390Y009541D01*
X029299Y009503D01*
X029203Y009478D01*
X029137Y009469D01*
X029137Y010136D01*
X028977Y010136D01*
X028977Y009469D01*
X028910Y009478D01*
X028815Y009503D01*
X028724Y009541D01*
X028639Y009590D01*
X028561Y009650D01*
X028491Y009720D01*
X028431Y009798D01*
X028382Y009883D01*
X028344Y009974D01*
X028319Y010069D01*
X028310Y010136D01*
X028977Y010136D01*
X028977Y010296D01*
X028310Y010296D01*
X028319Y010363D01*
X028344Y010458D01*
X028382Y010549D01*
X028431Y010634D01*
X028491Y010712D01*
X028561Y010782D01*
X028639Y010842D01*
X028724Y010891D01*
X028815Y010929D01*
X028902Y010952D01*
X028466Y010952D01*
X028466Y010764D01*
X028407Y010621D01*
X028114Y010328D01*
X028114Y010075D01*
X028006Y009813D01*
X027806Y009613D01*
X027545Y009505D01*
X027262Y009505D01*
X027000Y009613D01*
X026801Y009813D01*
X026692Y010075D01*
X026692Y010357D01*
X026785Y010582D01*
X026415Y010952D01*
X025904Y010952D01*
X025991Y010929D01*
X026082Y010891D01*
X026168Y010842D01*
X026246Y010782D01*
X026315Y010712D01*
X026375Y010634D01*
X026424Y010549D01*
X026462Y010458D01*
X026488Y010363D01*
X026496Y010296D01*
X025830Y010296D01*
X025830Y010136D01*
X026496Y010136D01*
X026488Y010069D01*
X026462Y009974D01*
X026424Y009883D01*
X026375Y009798D01*
X026315Y009720D01*
X026246Y009650D01*
X026168Y009590D01*
X026082Y009541D01*
X025991Y009503D01*
X025896Y009478D01*
X025830Y009469D01*
X025830Y010136D01*
X025670Y010136D01*
X025670Y009469D01*
X025603Y009478D01*
X025508Y009503D01*
X025417Y009541D01*
X025332Y009590D01*
X025253Y009650D01*
X025184Y009720D01*
X025124Y009798D01*
X025075Y009883D01*
X025037Y009974D01*
X025012Y010069D01*
X025003Y010136D01*
X025670Y010136D01*
X025670Y010296D01*
X025003Y010296D01*
X025012Y010363D01*
X025037Y010458D01*
X025075Y010549D01*
X025124Y010634D01*
X025184Y010712D01*
X025253Y010782D01*
X025332Y010842D01*
X025417Y010891D01*
X025508Y010929D01*
X025595Y010952D01*
X023404Y010952D01*
X023261Y011011D01*
X022597Y011676D01*
X022584Y011670D01*
X022301Y011670D01*
X022040Y011779D01*
X021840Y011979D01*
X021835Y011991D01*
X021397Y011991D01*
X021392Y011979D01*
X021192Y011779D01*
X020930Y011670D01*
X020648Y011670D01*
X020386Y011779D01*
X020186Y011979D01*
X020181Y011991D01*
X019743Y011991D01*
X019738Y011979D01*
X019538Y011779D01*
X019277Y011670D01*
X018994Y011670D01*
X018733Y011779D01*
X018533Y011979D01*
X018425Y012240D01*
X018425Y012442D01*
X018160Y012707D01*
X018194Y012623D01*
X018220Y012528D01*
X018229Y012461D01*
X017562Y012461D01*
X017562Y012301D01*
X017562Y011635D01*
X017629Y011643D01*
X017724Y011669D01*
X017815Y011706D01*
X017900Y011756D01*
X017978Y011816D01*
X018048Y011885D01*
X018108Y011963D01*
X018157Y012049D01*
X018194Y012139D01*
X018220Y012235D01*
X018229Y012301D01*
X017562Y012301D01*
X017402Y012301D01*
X017402Y011635D01*
X017335Y011643D01*
X017240Y011669D01*
X017149Y011706D01*
X017064Y011756D01*
X016986Y011816D01*
X016916Y011885D01*
X016856Y011963D01*
X016807Y012049D01*
X016769Y012139D01*
X016744Y012235D01*
X016735Y012301D01*
X017402Y012301D01*
X017402Y012461D01*
X016735Y012461D01*
X016744Y012528D01*
X016769Y012623D01*
X016807Y012714D01*
X016856Y012799D01*
X016916Y012877D01*
X016986Y012947D01*
X016992Y012952D01*
X015609Y012952D01*
X015559Y012902D01*
X015194Y012902D01*
X014936Y013160D01*
X014975Y013121D02*
X009349Y013121D01*
X009279Y013052D02*
X009566Y013339D01*
X009566Y013542D01*
X009076Y013542D01*
X009076Y013052D01*
X009279Y013052D01*
X009076Y013121D02*
X009076Y013121D01*
X009076Y013280D02*
X009076Y013280D01*
X009076Y013438D02*
X009076Y013438D01*
X009076Y013542D02*
X009076Y013542D01*
X009076Y013597D02*
X009076Y013597D01*
X009076Y013755D02*
X009076Y013755D01*
X009076Y013914D02*
X009076Y013914D01*
X008597Y013755D02*
X007246Y013755D01*
X007246Y013597D02*
X008586Y013597D01*
X008586Y013438D02*
X007246Y013438D01*
X007246Y013280D02*
X007394Y013280D01*
X007759Y013280D02*
X008645Y013280D01*
X008804Y013121D02*
X007968Y013121D01*
X008040Y012963D02*
X015133Y012963D01*
X014936Y013438D02*
X013695Y013438D01*
X013793Y013597D02*
X015009Y013597D01*
X015168Y013755D02*
X013816Y013755D01*
X013816Y013914D02*
X022053Y013914D01*
X022053Y014072D02*
X013816Y014072D01*
X013816Y014231D02*
X022053Y014231D01*
X022096Y014389D02*
X013816Y014389D01*
X013767Y014548D02*
X022160Y014548D01*
X022319Y014706D02*
X013766Y014706D01*
X013766Y014865D02*
X032693Y014865D01*
X032700Y014851D02*
X032741Y014795D01*
X032790Y014746D01*
X032846Y014706D01*
X032907Y014674D01*
X032973Y014653D01*
X033042Y014642D01*
X033076Y014642D01*
X033076Y015342D01*
X033076Y015342D01*
X032636Y015342D01*
X032636Y015637D01*
X032647Y015705D01*
X032669Y015771D01*
X032700Y015833D01*
X032741Y015889D01*
X032790Y015938D01*
X032846Y015978D01*
X032907Y016010D01*
X032973Y016031D01*
X033042Y016042D01*
X033076Y016042D01*
X033076Y015342D01*
X032636Y015342D01*
X032636Y015047D01*
X032647Y014979D01*
X032669Y014913D01*
X032700Y014851D01*
X032640Y015023D02*
X013766Y015023D01*
X013766Y015182D02*
X027392Y015182D01*
X027407Y015174D02*
X027473Y015153D01*
X027542Y015142D01*
X027576Y015142D01*
X027576Y015842D01*
X027576Y015842D01*
X027136Y015842D01*
X027136Y016137D01*
X027147Y016205D01*
X027169Y016271D01*
X027200Y016333D01*
X027241Y016389D01*
X027290Y016438D01*
X027346Y016478D01*
X027407Y016510D01*
X027473Y016531D01*
X027542Y016542D01*
X027576Y016542D01*
X027576Y015842D01*
X027136Y015842D01*
X027136Y015547D01*
X027147Y015479D01*
X027169Y015413D01*
X027200Y015351D01*
X027241Y015295D01*
X027290Y015246D01*
X027346Y015206D01*
X027407Y015174D01*
X027576Y015182D02*
X027576Y015182D01*
X027576Y015142D02*
X027611Y015142D01*
X027679Y015153D01*
X027745Y015174D01*
X027807Y015206D01*
X027863Y015246D01*
X027912Y015295D01*
X027953Y015351D01*
X027984Y015413D01*
X028006Y015479D01*
X028016Y015547D01*
X028016Y015842D01*
X028016Y016137D01*
X028006Y016205D01*
X027984Y016271D01*
X027953Y016333D01*
X027912Y016389D01*
X027863Y016438D01*
X027807Y016478D01*
X027745Y016510D01*
X027679Y016531D01*
X027611Y016542D01*
X027576Y016542D01*
X027576Y015842D01*
X027576Y015842D01*
X027576Y015842D01*
X027576Y015142D01*
X027761Y015182D02*
X028497Y015182D01*
X028656Y015182D01*
X032636Y015182D01*
X032636Y015340D02*
X028901Y015340D01*
X028915Y015355D02*
X028976Y015502D01*
X028976Y016182D01*
X028915Y016329D01*
X028803Y016441D01*
X028656Y016502D01*
X028497Y016502D01*
X028350Y016441D01*
X028237Y016329D01*
X028176Y016182D01*
X028176Y015502D01*
X028237Y015355D01*
X028350Y015243D01*
X028497Y015182D01*
X028656Y015182D02*
X028803Y015243D01*
X028915Y015355D01*
X028975Y015499D02*
X030797Y015499D01*
X030894Y015402D02*
X031259Y015402D01*
X031516Y015660D01*
X031516Y016024D01*
X031259Y016282D01*
X030894Y016282D01*
X030636Y016024D01*
X030636Y015660D01*
X030894Y015402D01*
X030639Y015657D02*
X028976Y015657D01*
X028976Y015816D02*
X030636Y015816D01*
X030636Y015974D02*
X028976Y015974D01*
X028976Y016133D02*
X030745Y016133D01*
X031408Y016133D02*
X036745Y016133D01*
X036636Y016024D02*
X036636Y015842D01*
X037076Y015842D01*
X037076Y015842D01*
X036636Y015842D01*
X036636Y015660D01*
X036894Y015402D01*
X037076Y015402D01*
X037076Y015842D01*
X037076Y016282D01*
X036894Y016282D01*
X036636Y016024D01*
X036636Y015974D02*
X034222Y015974D01*
X034156Y016002D02*
X034303Y015941D01*
X034415Y015829D01*
X034476Y015682D01*
X034476Y015002D01*
X034415Y014855D01*
X034303Y014743D01*
X034156Y014682D01*
X033997Y014682D01*
X033850Y014743D01*
X033737Y014855D01*
X033676Y015002D01*
X033676Y015682D01*
X033737Y015829D01*
X033850Y015941D01*
X033997Y016002D01*
X034156Y016002D01*
X034156Y016182D02*
X034303Y016243D01*
X034415Y016355D01*
X034476Y016502D01*
X034476Y017182D01*
X034415Y017329D01*
X034303Y017441D01*
X034156Y017502D01*
X033997Y017502D01*
X033850Y017441D01*
X033737Y017329D01*
X033676Y017182D01*
X033676Y016502D01*
X033737Y016355D01*
X033850Y016243D01*
X033997Y016182D01*
X034156Y016182D01*
X034352Y016291D02*
X039553Y016291D01*
X039553Y016133D02*
X037408Y016133D01*
X037516Y016024D02*
X037259Y016282D01*
X037076Y016282D01*
X037076Y015842D01*
X037076Y015842D01*
X037076Y015842D01*
X037076Y015402D01*
X037259Y015402D01*
X037516Y015660D01*
X037516Y015842D01*
X037516Y016024D01*
X037516Y015974D02*
X039553Y015974D01*
X039553Y015816D02*
X037516Y015816D01*
X037516Y015842D02*
X037076Y015842D01*
X037516Y015842D01*
X037514Y015657D02*
X039553Y015657D01*
X039553Y015499D02*
X037356Y015499D01*
X037076Y015499D02*
X037076Y015499D01*
X037076Y015657D02*
X037076Y015657D01*
X037076Y015816D02*
X037076Y015816D01*
X037076Y015842D02*
X037076Y015842D01*
X037076Y015974D02*
X037076Y015974D01*
X037076Y016133D02*
X037076Y016133D01*
X036636Y015816D02*
X034421Y015816D01*
X034476Y015657D02*
X036639Y015657D01*
X036797Y015499D02*
X034476Y015499D01*
X034476Y015340D02*
X039553Y015340D01*
X039553Y015182D02*
X034476Y015182D01*
X034476Y015023D02*
X039553Y015023D01*
X039553Y014865D02*
X034419Y014865D01*
X034215Y014706D02*
X039553Y014706D01*
X039553Y014548D02*
X022993Y014548D01*
X023016Y014389D02*
X032742Y014389D01*
X032741Y014389D02*
X032700Y014333D01*
X032669Y014271D01*
X032647Y014205D01*
X032636Y014137D01*
X032636Y013842D01*
X033076Y013842D01*
X033076Y013842D01*
X032636Y013842D01*
X032636Y013547D01*
X032647Y013479D01*
X032669Y013413D01*
X032700Y013351D01*
X032741Y013295D01*
X032790Y013246D01*
X032846Y013206D01*
X032907Y013174D01*
X032973Y013153D01*
X033042Y013142D01*
X033076Y013142D01*
X033076Y013842D01*
X033076Y014542D01*
X033042Y014542D01*
X032973Y014531D01*
X032907Y014510D01*
X032846Y014478D01*
X032790Y014438D01*
X032741Y014389D01*
X032656Y014231D02*
X023016Y014231D01*
X022929Y014072D02*
X032636Y014072D01*
X032636Y013914D02*
X022833Y013914D01*
X022833Y013755D02*
X032636Y013755D01*
X032636Y013597D02*
X022833Y013597D01*
X022833Y013438D02*
X032660Y013438D01*
X032756Y013280D02*
X022833Y013280D01*
X022833Y013121D02*
X025619Y013121D01*
X025670Y013121D02*
X025830Y013121D01*
X025880Y013121D02*
X027272Y013121D01*
X027256Y013119D02*
X027161Y013094D01*
X027070Y013056D01*
X026985Y013007D01*
X026907Y012947D01*
X026837Y012877D01*
X026777Y012799D01*
X026728Y012714D01*
X026691Y012623D01*
X026665Y012528D01*
X026656Y012461D01*
X027323Y012461D01*
X027323Y012301D01*
X027483Y012301D01*
X027483Y011635D01*
X027550Y011643D01*
X027645Y011669D01*
X027736Y011706D01*
X027821Y011756D01*
X027899Y011816D01*
X027969Y011885D01*
X028029Y011963D01*
X028078Y012049D01*
X028116Y012139D01*
X028141Y012235D01*
X028150Y012301D01*
X027483Y012301D01*
X027483Y012461D01*
X028150Y012461D01*
X028141Y012528D01*
X028116Y012623D01*
X028078Y012714D01*
X028029Y012799D01*
X027969Y012877D01*
X027899Y012947D01*
X027821Y013007D01*
X027736Y013056D01*
X027645Y013094D01*
X027550Y013119D01*
X027483Y013128D01*
X027483Y012461D01*
X027323Y012461D01*
X027323Y013128D01*
X027256Y013119D01*
X027323Y013121D02*
X027483Y013121D01*
X027534Y013121D02*
X028926Y013121D01*
X028977Y013121D02*
X029137Y013121D01*
X029187Y013121D02*
X030580Y013121D01*
X030563Y013119D02*
X030468Y013094D01*
X030377Y013056D01*
X030292Y013007D01*
X030214Y012947D01*
X030144Y012877D01*
X030085Y012799D01*
X030035Y012714D01*
X029998Y012623D01*
X029972Y012528D01*
X029963Y012461D01*
X030630Y012461D01*
X030630Y012301D01*
X030790Y012301D01*
X030790Y011635D01*
X030857Y011643D01*
X030952Y011669D01*
X031043Y011706D01*
X031128Y011756D01*
X031206Y011816D01*
X031276Y011885D01*
X031336Y011963D01*
X031385Y012049D01*
X031423Y012139D01*
X031448Y012235D01*
X031457Y012301D01*
X030790Y012301D01*
X030790Y012461D01*
X031457Y012461D01*
X031448Y012528D01*
X031423Y012623D01*
X031385Y012714D01*
X031336Y012799D01*
X031276Y012877D01*
X031206Y012947D01*
X031128Y013007D01*
X031043Y013056D01*
X030952Y013094D01*
X030857Y013119D01*
X030790Y013128D01*
X030790Y012461D01*
X030630Y012461D01*
X030630Y013128D01*
X030563Y013119D01*
X030630Y013121D02*
X030790Y013121D01*
X030841Y013121D02*
X032233Y013121D01*
X032217Y013119D02*
X032122Y013094D01*
X032031Y013056D01*
X031946Y013007D01*
X031868Y012947D01*
X031798Y012877D01*
X031738Y012799D01*
X031689Y012714D01*
X031651Y012623D01*
X031626Y012528D01*
X031617Y012461D01*
X032284Y012461D01*
X032284Y012301D01*
X032444Y012301D01*
X032444Y012461D01*
X033111Y012461D01*
X033102Y012528D01*
X033076Y012623D01*
X033039Y012714D01*
X032989Y012799D01*
X032930Y012877D01*
X032860Y012947D01*
X032782Y013007D01*
X032697Y013056D01*
X032606Y013094D01*
X032511Y013119D01*
X032444Y013128D01*
X032444Y012461D01*
X032284Y012461D01*
X032284Y013128D01*
X032217Y013119D01*
X032284Y013121D02*
X032444Y013121D01*
X032494Y013121D02*
X039553Y013121D01*
X039553Y012963D02*
X036095Y012963D01*
X036074Y012984D02*
X035812Y013092D01*
X035529Y013092D01*
X035268Y012984D01*
X035068Y012784D01*
X034960Y012523D01*
X034960Y012240D01*
X035068Y011979D01*
X035268Y011779D01*
X035529Y011670D01*
X035812Y011670D01*
X036074Y011779D01*
X036274Y011979D01*
X036382Y012240D01*
X036382Y012523D01*
X036274Y012784D01*
X036074Y012984D01*
X036253Y012804D02*
X039553Y012804D01*
X039553Y012646D02*
X036331Y012646D01*
X036382Y012487D02*
X039553Y012487D01*
X039553Y012329D02*
X036382Y012329D01*
X036353Y012170D02*
X039553Y012170D01*
X039553Y012012D02*
X036287Y012012D01*
X036148Y011853D02*
X039553Y011853D01*
X039553Y011695D02*
X035871Y011695D01*
X035470Y011695D02*
X034218Y011695D01*
X034159Y011670D02*
X034420Y011779D01*
X034620Y011979D01*
X034728Y012240D01*
X034728Y012523D01*
X034620Y012784D01*
X034420Y012984D01*
X034159Y013092D01*
X033876Y013092D01*
X033615Y012984D01*
X033415Y012784D01*
X033306Y012523D01*
X033306Y012240D01*
X033415Y011979D01*
X033615Y011779D01*
X033876Y011670D01*
X034159Y011670D01*
X033817Y011695D02*
X032669Y011695D01*
X032697Y011706D02*
X032782Y011756D01*
X032860Y011816D01*
X032930Y011885D01*
X032989Y011963D01*
X033039Y012049D01*
X033076Y012139D01*
X033102Y012235D01*
X033111Y012301D01*
X032444Y012301D01*
X032444Y011635D01*
X032511Y011643D01*
X032606Y011669D01*
X032697Y011706D01*
X032898Y011853D02*
X033540Y011853D01*
X033401Y012012D02*
X033018Y012012D01*
X033085Y012170D02*
X033335Y012170D01*
X033306Y012329D02*
X032444Y012329D01*
X032444Y012487D02*
X032284Y012487D01*
X032284Y012329D02*
X030790Y012329D01*
X030790Y012487D02*
X030630Y012487D01*
X030630Y012329D02*
X029137Y012329D01*
X029137Y012487D02*
X028977Y012487D01*
X028977Y012329D02*
X027483Y012329D01*
X027483Y012487D02*
X027323Y012487D01*
X027323Y012329D02*
X025830Y012329D01*
X025830Y012487D02*
X025670Y012487D01*
X025670Y012329D02*
X024807Y012329D01*
X024807Y012487D02*
X025006Y012487D01*
X025046Y012646D02*
X024756Y012646D01*
X024678Y012804D02*
X025128Y012804D01*
X025274Y012963D02*
X024520Y012963D01*
X023672Y012963D02*
X022866Y012963D01*
X023025Y012804D02*
X023514Y012804D01*
X023436Y012646D02*
X023102Y012646D01*
X023153Y012487D02*
X023385Y012487D01*
X023385Y012329D02*
X023153Y012329D01*
X023205Y012170D02*
X023414Y012170D01*
X023363Y012012D02*
X023480Y012012D01*
X023522Y011853D02*
X023619Y011853D01*
X023053Y011219D02*
X015699Y011219D01*
X015699Y011274D02*
X015144Y011274D01*
X015144Y010719D01*
X015543Y010719D01*
X015589Y010731D01*
X015630Y010755D01*
X015663Y010789D01*
X015687Y010830D01*
X015699Y010875D01*
X015699Y011274D01*
X015699Y011410D02*
X015699Y011809D01*
X015687Y011854D01*
X015663Y011895D01*
X015630Y011929D01*
X015589Y011953D01*
X015543Y011965D01*
X015144Y011965D01*
X015144Y011410D01*
X015009Y011410D01*
X015009Y011965D01*
X014610Y011965D01*
X014564Y011953D01*
X014523Y011929D01*
X014489Y011895D01*
X014466Y011854D01*
X014453Y011809D01*
X014453Y011410D01*
X015009Y011410D01*
X015009Y011274D01*
X015144Y011274D01*
X015144Y011410D01*
X015699Y011410D01*
X015699Y011536D02*
X022736Y011536D01*
X022894Y011378D02*
X015144Y011378D01*
X015009Y011378D02*
X013585Y011378D01*
X013585Y011410D02*
X014137Y011410D01*
X014125Y011488D01*
X014095Y011581D01*
X014050Y011668D01*
X013992Y011748D01*
X013923Y011817D01*
X013844Y011875D01*
X013756Y011919D01*
X013663Y011950D01*
X013585Y011962D01*
X013585Y011410D01*
X013450Y011410D01*
X013450Y011962D01*
X013371Y011950D01*
X013278Y011919D01*
X013191Y011875D01*
X013112Y011817D01*
X013042Y011748D01*
X012985Y011668D01*
X012940Y011581D01*
X012910Y011488D01*
X012897Y011410D01*
X013450Y011410D01*
X013450Y011274D01*
X013585Y011274D01*
X013585Y010722D01*
X013663Y010734D01*
X013756Y010765D01*
X013844Y010809D01*
X013923Y010867D01*
X013992Y010936D01*
X014050Y011015D01*
X014095Y011103D01*
X014125Y011196D01*
X014137Y011274D01*
X013585Y011274D01*
X013585Y011410D01*
X013585Y011536D02*
X013450Y011536D01*
X013450Y011378D02*
X012026Y011378D01*
X012026Y011410D02*
X012578Y011410D01*
X012566Y011488D01*
X012536Y011581D01*
X012491Y011668D01*
X012433Y011748D01*
X012364Y011817D01*
X012285Y011875D01*
X012197Y011919D01*
X012104Y011950D01*
X012026Y011962D01*
X012026Y011410D01*
X011891Y011410D01*
X011891Y011962D01*
X011812Y011950D01*
X011719Y011919D01*
X011632Y011875D01*
X011552Y011817D01*
X011483Y011748D01*
X011426Y011668D01*
X011381Y011581D01*
X011351Y011488D01*
X011338Y011410D01*
X011891Y011410D01*
X011891Y011274D01*
X012026Y011274D01*
X012026Y010722D01*
X012104Y010734D01*
X012197Y010765D01*
X012285Y010809D01*
X012364Y010867D01*
X012433Y010936D01*
X012491Y011015D01*
X012536Y011103D01*
X012566Y011196D01*
X012578Y011274D01*
X012026Y011274D01*
X012026Y011410D01*
X012026Y011536D02*
X011891Y011536D01*
X011891Y011378D02*
X010467Y011378D01*
X010467Y011410D02*
X011019Y011410D01*
X011007Y011488D01*
X010976Y011581D01*
X010932Y011668D01*
X010874Y011748D01*
X010805Y011817D01*
X010726Y011875D01*
X010638Y011919D01*
X010545Y011950D01*
X010467Y011962D01*
X010467Y011410D01*
X010332Y011410D01*
X010332Y011962D01*
X010253Y011950D01*
X010160Y011919D01*
X010073Y011875D01*
X009993Y011817D01*
X009924Y011748D01*
X009866Y011668D01*
X009822Y011581D01*
X009792Y011488D01*
X009779Y011410D01*
X010332Y011410D01*
X010332Y011274D01*
X010467Y011274D01*
X010467Y010722D01*
X010545Y010734D01*
X010638Y010765D01*
X010726Y010809D01*
X010805Y010867D01*
X010874Y010936D01*
X010932Y011015D01*
X010976Y011103D01*
X011007Y011196D01*
X011019Y011274D01*
X010467Y011274D01*
X010467Y011410D01*
X010467Y011536D02*
X010332Y011536D01*
X010332Y011378D02*
X009480Y011378D01*
X009480Y011219D02*
X009788Y011219D01*
X009792Y011196D02*
X009822Y011103D01*
X009866Y011015D01*
X009924Y010936D01*
X009993Y010867D01*
X010073Y010809D01*
X010160Y010765D01*
X010253Y010734D01*
X010332Y010722D01*
X010332Y011274D01*
X009779Y011274D01*
X009792Y011196D01*
X009843Y011061D02*
X009416Y011061D01*
X009306Y010902D02*
X009958Y010902D01*
X010224Y010744D02*
X009069Y010744D01*
X009452Y011536D02*
X009807Y011536D01*
X009886Y011695D02*
X009387Y011695D01*
X009234Y011853D02*
X010043Y011853D01*
X010332Y011853D02*
X010467Y011853D01*
X010467Y011695D02*
X010332Y011695D01*
X010755Y011853D02*
X011603Y011853D01*
X011445Y011695D02*
X010913Y011695D01*
X010991Y011536D02*
X011366Y011536D01*
X011338Y011274D02*
X011351Y011196D01*
X011381Y011103D01*
X011426Y011015D01*
X011483Y010936D01*
X011552Y010867D01*
X011632Y010809D01*
X011719Y010765D01*
X011812Y010734D01*
X011891Y010722D01*
X011891Y011274D01*
X011338Y011274D01*
X011347Y011219D02*
X011010Y011219D01*
X010955Y011061D02*
X011402Y011061D01*
X011517Y010902D02*
X010841Y010902D01*
X010575Y010744D02*
X011783Y010744D01*
X011891Y010744D02*
X012026Y010744D01*
X012134Y010744D02*
X013342Y010744D01*
X013371Y010734D02*
X013450Y010722D01*
X013450Y011274D01*
X012897Y011274D01*
X012910Y011196D01*
X012940Y011103D01*
X012985Y011015D01*
X013042Y010936D01*
X013112Y010867D01*
X013191Y010809D01*
X013278Y010765D01*
X013371Y010734D01*
X013450Y010744D02*
X013585Y010744D01*
X013693Y010744D02*
X014542Y010744D01*
X014523Y010755D02*
X014564Y010731D01*
X014610Y010719D01*
X015009Y010719D01*
X015009Y011274D01*
X014453Y011274D01*
X014453Y010875D01*
X014466Y010830D01*
X014489Y010789D01*
X014523Y010755D01*
X014453Y010902D02*
X013959Y010902D01*
X014073Y011061D02*
X014453Y011061D01*
X014453Y011219D02*
X014129Y011219D01*
X014109Y011536D02*
X014453Y011536D01*
X014453Y011695D02*
X014031Y011695D01*
X013873Y011853D02*
X014465Y011853D01*
X015009Y011853D02*
X015144Y011853D01*
X015144Y011695D02*
X015009Y011695D01*
X015009Y011536D02*
X015144Y011536D01*
X015144Y011219D02*
X015009Y011219D01*
X015009Y011061D02*
X015144Y011061D01*
X015144Y010902D02*
X015009Y010902D01*
X015009Y010744D02*
X015144Y010744D01*
X015611Y010744D02*
X017005Y010744D01*
X017079Y010819D02*
X016879Y010619D01*
X016771Y010357D01*
X016771Y010075D01*
X016879Y009813D01*
X017079Y009613D01*
X017340Y009505D01*
X017623Y009505D01*
X017885Y009613D01*
X018085Y009813D01*
X018193Y010075D01*
X018193Y010357D01*
X018085Y010619D01*
X017885Y010819D01*
X017623Y010927D01*
X017340Y010927D01*
X017079Y010819D01*
X017282Y010902D02*
X015699Y010902D01*
X015699Y011061D02*
X023211Y011061D01*
X022920Y010744D02*
X023619Y010744D01*
X023693Y010819D02*
X023493Y010619D01*
X023385Y010357D01*
X023385Y010075D01*
X023493Y009813D01*
X023693Y009613D01*
X023955Y009505D01*
X024237Y009505D01*
X024499Y009613D01*
X024699Y009813D01*
X024807Y010075D01*
X024807Y010357D01*
X024699Y010619D01*
X024499Y010819D01*
X024237Y010927D01*
X023955Y010927D01*
X023693Y010819D01*
X023896Y010902D02*
X022643Y010902D01*
X022584Y010927D02*
X022301Y010927D01*
X022040Y010819D01*
X021840Y010619D01*
X021732Y010357D01*
X021732Y010075D01*
X021840Y009813D01*
X022040Y009613D01*
X022301Y009505D01*
X022584Y009505D01*
X022845Y009613D01*
X023045Y009813D01*
X023153Y010075D01*
X023153Y010357D01*
X023045Y010619D01*
X022845Y010819D01*
X022584Y010927D01*
X022242Y010902D02*
X020989Y010902D01*
X020930Y010927D02*
X020648Y010927D01*
X020386Y010819D01*
X020186Y010619D01*
X020078Y010357D01*
X020078Y010075D01*
X020186Y009813D01*
X020386Y009613D01*
X020648Y009505D01*
X020930Y009505D01*
X021192Y009613D01*
X021392Y009813D01*
X021500Y010075D01*
X021500Y010357D01*
X021392Y010619D01*
X021192Y010819D01*
X020930Y010927D01*
X020589Y010902D02*
X019336Y010902D01*
X019277Y010927D02*
X019538Y010819D01*
X019738Y010619D01*
X019846Y010357D01*
X019846Y010075D01*
X019738Y009813D01*
X019538Y009613D01*
X019277Y009505D01*
X018994Y009505D01*
X018733Y009613D01*
X018533Y009813D01*
X018425Y010075D01*
X018425Y010357D01*
X018533Y010619D01*
X018733Y010819D01*
X018994Y010927D01*
X019277Y010927D01*
X018935Y010902D02*
X017682Y010902D01*
X017959Y010744D02*
X018658Y010744D01*
X018519Y010585D02*
X018098Y010585D01*
X018164Y010427D02*
X018453Y010427D01*
X018425Y010268D02*
X018193Y010268D01*
X018193Y010110D02*
X018425Y010110D01*
X018476Y009951D02*
X018142Y009951D01*
X018064Y009793D02*
X018553Y009793D01*
X018712Y009634D02*
X017906Y009634D01*
X017058Y009634D02*
X000970Y009634D01*
X000970Y009476D02*
X025618Y009476D01*
X025670Y009476D02*
X025830Y009476D01*
X025881Y009476D02*
X028925Y009476D01*
X028977Y009476D02*
X029137Y009476D01*
X029188Y009476D02*
X032232Y009476D01*
X032217Y009478D02*
X032284Y009469D01*
X032284Y010136D01*
X032444Y010136D01*
X032444Y010296D01*
X033111Y010296D01*
X033102Y010363D01*
X033076Y010458D01*
X033039Y010549D01*
X032989Y010634D01*
X032930Y010712D01*
X032860Y010782D01*
X032782Y010842D01*
X032697Y010891D01*
X032606Y010929D01*
X032511Y010954D01*
X032444Y010963D01*
X032444Y010296D01*
X032284Y010296D01*
X032284Y010963D01*
X032217Y010954D01*
X032122Y010929D01*
X032031Y010891D01*
X031946Y010842D01*
X031868Y010782D01*
X031798Y010712D01*
X031738Y010634D01*
X031689Y010549D01*
X031651Y010458D01*
X031626Y010363D01*
X031617Y010296D01*
X032284Y010296D01*
X032284Y010136D01*
X031617Y010136D01*
X031626Y010069D01*
X031651Y009974D01*
X031689Y009883D01*
X031738Y009798D01*
X031798Y009720D01*
X031868Y009650D01*
X031946Y009590D01*
X032031Y009541D01*
X032122Y009503D01*
X032217Y009478D01*
X032284Y009476D02*
X032444Y009476D01*
X032444Y009469D02*
X032511Y009478D01*
X032606Y009503D01*
X032697Y009541D01*
X032782Y009590D01*
X032860Y009650D01*
X032930Y009720D01*
X032989Y009798D01*
X033039Y009883D01*
X033076Y009974D01*
X033102Y010069D01*
X033111Y010136D01*
X032444Y010136D01*
X032444Y009469D01*
X032495Y009476D02*
X039553Y009476D01*
X039553Y009634D02*
X036095Y009634D01*
X036074Y009613D02*
X036274Y009813D01*
X036382Y010075D01*
X036382Y010357D01*
X036274Y010619D01*
X036074Y010819D01*
X035812Y010927D01*
X035529Y010927D01*
X035268Y010819D01*
X035068Y010619D01*
X034960Y010357D01*
X034960Y010075D01*
X035068Y009813D01*
X035268Y009613D01*
X035529Y009505D01*
X035812Y009505D01*
X036074Y009613D01*
X036253Y009793D02*
X039553Y009793D01*
X039553Y009951D02*
X036331Y009951D01*
X036382Y010110D02*
X039553Y010110D01*
X039553Y010268D02*
X036382Y010268D01*
X036353Y010427D02*
X039553Y010427D01*
X039553Y010585D02*
X036287Y010585D01*
X036148Y010744D02*
X039553Y010744D01*
X039553Y010902D02*
X035871Y010902D01*
X035471Y010902D02*
X034218Y010902D01*
X034159Y010927D02*
X034420Y010819D01*
X034620Y010619D01*
X034728Y010357D01*
X034728Y010075D01*
X034620Y009813D01*
X034420Y009613D01*
X034159Y009505D01*
X033876Y009505D01*
X033615Y009613D01*
X033415Y009813D01*
X033306Y010075D01*
X033306Y010357D01*
X033415Y010619D01*
X033615Y010819D01*
X033876Y010927D01*
X034159Y010927D01*
X033817Y010902D02*
X032669Y010902D01*
X032444Y010902D02*
X032284Y010902D01*
X032284Y010744D02*
X032444Y010744D01*
X032444Y010585D02*
X032284Y010585D01*
X032284Y010427D02*
X032444Y010427D01*
X032444Y010268D02*
X033306Y010268D01*
X033306Y010110D02*
X033107Y010110D01*
X033067Y009951D02*
X033357Y009951D01*
X033435Y009793D02*
X032986Y009793D01*
X032839Y009634D02*
X033594Y009634D01*
X034441Y009634D02*
X035247Y009634D01*
X035089Y009793D02*
X034600Y009793D01*
X034677Y009951D02*
X035011Y009951D01*
X034960Y010110D02*
X034728Y010110D01*
X034728Y010268D02*
X034960Y010268D01*
X034989Y010427D02*
X034699Y010427D01*
X034634Y010585D02*
X035054Y010585D01*
X035194Y010744D02*
X034495Y010744D01*
X033540Y010744D02*
X032898Y010744D01*
X033017Y010585D02*
X033401Y010585D01*
X033335Y010427D02*
X033085Y010427D01*
X032444Y010110D02*
X032284Y010110D01*
X032284Y010268D02*
X031421Y010268D01*
X031421Y010110D02*
X031620Y010110D01*
X031661Y009951D02*
X031370Y009951D01*
X031293Y009793D02*
X031742Y009793D01*
X031888Y009634D02*
X031134Y009634D01*
X030286Y009634D02*
X029532Y009634D01*
X029679Y009793D02*
X030128Y009793D01*
X030050Y009951D02*
X029760Y009951D01*
X029800Y010110D02*
X029999Y010110D01*
X029999Y010268D02*
X029137Y010268D01*
X029137Y010110D02*
X028977Y010110D01*
X028977Y010268D02*
X028114Y010268D01*
X028114Y010110D02*
X028313Y010110D01*
X028354Y009951D02*
X028063Y009951D01*
X027985Y009793D02*
X028435Y009793D01*
X028581Y009634D02*
X027827Y009634D01*
X026979Y009634D02*
X026225Y009634D01*
X026371Y009793D02*
X026821Y009793D01*
X026743Y009951D02*
X026453Y009951D01*
X026493Y010110D02*
X026692Y010110D01*
X026692Y010268D02*
X025830Y010268D01*
X025830Y010110D02*
X025670Y010110D01*
X025670Y010268D02*
X024807Y010268D01*
X024807Y010110D02*
X025006Y010110D01*
X025046Y009951D02*
X024756Y009951D01*
X024678Y009793D02*
X025128Y009793D01*
X025274Y009634D02*
X024520Y009634D01*
X023672Y009634D02*
X022866Y009634D01*
X023025Y009793D02*
X023514Y009793D01*
X023436Y009951D02*
X023102Y009951D01*
X023153Y010110D02*
X023385Y010110D01*
X023385Y010268D02*
X023153Y010268D01*
X023125Y010427D02*
X023414Y010427D01*
X023480Y010585D02*
X023059Y010585D01*
X021965Y010744D02*
X021266Y010744D01*
X021405Y010585D02*
X021826Y010585D01*
X021760Y010427D02*
X021471Y010427D01*
X021500Y010268D02*
X021732Y010268D01*
X021732Y010110D02*
X021500Y010110D01*
X021449Y009951D02*
X021783Y009951D01*
X021860Y009793D02*
X021371Y009793D01*
X021213Y009634D02*
X022019Y009634D01*
X020365Y009634D02*
X019559Y009634D01*
X019718Y009793D02*
X020207Y009793D01*
X020129Y009951D02*
X019795Y009951D01*
X019846Y010110D02*
X020078Y010110D01*
X020078Y010268D02*
X019846Y010268D01*
X019817Y010427D02*
X020107Y010427D01*
X020173Y010585D02*
X019752Y010585D01*
X019613Y010744D02*
X020312Y010744D01*
X020588Y011695D02*
X019336Y011695D01*
X019613Y011853D02*
X020312Y011853D01*
X020990Y011695D02*
X022242Y011695D01*
X021965Y011853D02*
X021266Y011853D01*
X021371Y012804D02*
X021860Y012804D01*
X022019Y012963D02*
X021213Y012963D01*
X020365Y012963D02*
X019559Y012963D01*
X019718Y012804D02*
X020207Y012804D01*
X018935Y011695D02*
X017787Y011695D01*
X017562Y011695D02*
X017402Y011695D01*
X017402Y011853D02*
X017562Y011853D01*
X017562Y012012D02*
X017402Y012012D01*
X017402Y012170D02*
X017562Y012170D01*
X017562Y012329D02*
X018425Y012329D01*
X018453Y012170D02*
X018203Y012170D01*
X018136Y012012D02*
X018519Y012012D01*
X018658Y011853D02*
X018016Y011853D01*
X018225Y012487D02*
X018379Y012487D01*
X018221Y012646D02*
X018185Y012646D01*
X018848Y013121D02*
X022053Y013121D01*
X022053Y013280D02*
X018690Y013280D01*
X018531Y013438D02*
X022053Y013438D01*
X022053Y013597D02*
X018373Y013597D01*
X017402Y012329D02*
X007210Y012329D01*
X007251Y012487D02*
X007260Y012487D01*
X007111Y012170D02*
X016761Y012170D01*
X016828Y012012D02*
X006991Y012012D01*
X006888Y011853D02*
X006873Y011853D01*
X006669Y011536D02*
X006635Y011536D01*
X006641Y011378D02*
X006516Y011378D01*
X006397Y011219D02*
X006641Y011219D01*
X006705Y011061D02*
X006278Y011061D01*
X006153Y010902D02*
X006816Y010902D01*
X007052Y010744D02*
X000970Y010744D01*
X000970Y010902D02*
X003778Y010902D01*
X003833Y010848D02*
X004047Y010759D01*
X004279Y010759D01*
X004493Y010848D01*
X004657Y011012D01*
X004746Y011226D01*
X004746Y011458D01*
X004657Y011672D01*
X004549Y011780D01*
X004908Y011780D01*
X004995Y011792D01*
X005080Y011814D01*
X005162Y011848D01*
X005238Y011892D01*
X005308Y011946D01*
X005370Y012008D01*
X005424Y012078D01*
X005468Y012154D01*
X005502Y012236D01*
X005524Y012321D01*
X005536Y012408D01*
X005536Y012434D01*
X004390Y012434D01*
X004390Y012471D01*
X004353Y012471D01*
X004353Y013124D01*
X003835Y013124D01*
X003748Y013113D01*
X003663Y013090D01*
X003582Y013056D01*
X003505Y013012D01*
X003435Y012959D01*
X003373Y012896D01*
X003319Y012826D01*
X003275Y012750D01*
X003242Y012669D01*
X003219Y012584D01*
X003207Y012496D01*
X003207Y012471D01*
X004353Y012471D01*
X004353Y012434D01*
X003207Y012434D01*
X003207Y012408D01*
X003219Y012321D01*
X003242Y012236D01*
X003275Y012154D01*
X003319Y012078D01*
X003373Y012008D01*
X003435Y011946D01*
X003505Y011892D01*
X003582Y011848D01*
X003663Y011814D01*
X003748Y011792D01*
X003784Y011787D01*
X003669Y011672D01*
X003580Y011458D01*
X003580Y011226D01*
X003669Y011012D01*
X003833Y010848D01*
X003648Y011061D02*
X000970Y011061D01*
X000970Y011219D02*
X003583Y011219D01*
X003580Y011378D02*
X000970Y011378D01*
X000970Y011536D02*
X003613Y011536D01*
X003692Y011695D02*
X000970Y011695D01*
X000970Y011853D02*
X003572Y011853D01*
X003370Y012012D02*
X000970Y012012D01*
X000970Y012170D02*
X003269Y012170D01*
X003218Y012329D02*
X000970Y012329D01*
X000970Y012487D02*
X003207Y012487D01*
X003236Y012646D02*
X000970Y012646D01*
X000970Y012804D02*
X003307Y012804D01*
X003441Y012963D02*
X000970Y012963D01*
X000970Y013121D02*
X003814Y013121D01*
X003635Y013343D02*
X003565Y013290D01*
X003488Y013246D01*
X003407Y013212D01*
X003322Y013189D01*
X003235Y013178D01*
X003209Y013178D01*
X003209Y014324D01*
X003209Y014360D01*
X003863Y014360D01*
X003863Y014878D01*
X003851Y014966D01*
X003828Y015051D01*
X003795Y015132D01*
X003751Y015208D01*
X003697Y015278D01*
X003635Y015341D01*
X003565Y015394D01*
X003488Y015438D01*
X003407Y015472D01*
X003322Y015495D01*
X003235Y015506D01*
X003209Y015506D01*
X003209Y014360D01*
X003172Y014360D01*
X003172Y014324D01*
X002518Y014324D01*
X002518Y013806D01*
X002530Y013718D01*
X002553Y013633D01*
X002586Y013552D01*
X002630Y013476D01*
X002684Y013406D01*
X002746Y013343D01*
X002816Y013290D01*
X002893Y013246D01*
X002974Y013212D01*
X003059Y013189D01*
X003146Y013178D01*
X003172Y013178D01*
X003172Y014324D01*
X003209Y014324D01*
X003863Y014324D01*
X003863Y013806D01*
X003851Y013718D01*
X003828Y013633D01*
X003795Y013552D01*
X003751Y013476D01*
X003697Y013406D01*
X003635Y013343D01*
X003548Y013280D02*
X005277Y013280D01*
X005162Y013056D02*
X005080Y013090D01*
X004995Y013113D01*
X004908Y013124D01*
X004390Y013124D01*
X004390Y012471D01*
X005536Y012471D01*
X005536Y012496D01*
X005524Y012584D01*
X005502Y012669D01*
X005468Y012750D01*
X005424Y012826D01*
X005370Y012896D01*
X005308Y012959D01*
X005238Y013012D01*
X005162Y013056D01*
X005302Y012963D02*
X006106Y012963D01*
X006106Y013121D02*
X004930Y013121D01*
X005070Y013438D02*
X003722Y013438D01*
X003813Y013597D02*
X004973Y013597D01*
X004921Y013755D02*
X003856Y013755D01*
X003863Y013914D02*
X004921Y013914D01*
X004921Y014072D02*
X003863Y014072D01*
X003863Y014231D02*
X004921Y014231D01*
X004921Y014389D02*
X003863Y014389D01*
X003863Y014548D02*
X004921Y014548D01*
X004921Y014706D02*
X003863Y014706D01*
X003863Y014865D02*
X004921Y014865D01*
X004947Y015023D02*
X003836Y015023D01*
X003766Y015182D02*
X005006Y015182D01*
X005006Y015340D02*
X003635Y015340D01*
X003290Y015499D02*
X005006Y015499D01*
X005006Y015657D02*
X000970Y015657D01*
X000970Y015499D02*
X003091Y015499D01*
X003059Y015495D02*
X002974Y015472D01*
X002893Y015438D01*
X002816Y015394D01*
X002746Y015341D01*
X002684Y015278D01*
X002630Y015208D01*
X002586Y015132D01*
X002553Y015051D01*
X002530Y014966D01*
X002518Y014878D01*
X002518Y014360D01*
X003172Y014360D01*
X003172Y015506D01*
X003146Y015506D01*
X003059Y015495D01*
X003172Y015499D02*
X003209Y015499D01*
X003209Y015340D02*
X003172Y015340D01*
X003172Y015182D02*
X003209Y015182D01*
X003209Y015023D02*
X003172Y015023D01*
X003172Y014865D02*
X003209Y014865D01*
X003209Y014706D02*
X003172Y014706D01*
X003172Y014548D02*
X003209Y014548D01*
X003209Y014389D02*
X003172Y014389D01*
X003172Y014231D02*
X003209Y014231D01*
X003209Y014072D02*
X003172Y014072D01*
X003172Y013914D02*
X003209Y013914D01*
X003209Y013755D02*
X003172Y013755D01*
X003172Y013597D02*
X003209Y013597D01*
X003209Y013438D02*
X003172Y013438D01*
X003172Y013280D02*
X003209Y013280D01*
X002833Y013280D02*
X000970Y013280D01*
X000970Y013438D02*
X002659Y013438D01*
X002568Y013597D02*
X000970Y013597D01*
X000970Y013755D02*
X002525Y013755D01*
X002518Y013914D02*
X000970Y013914D01*
X000970Y014072D02*
X002518Y014072D01*
X002518Y014231D02*
X000970Y014231D01*
X000970Y014389D02*
X002518Y014389D01*
X002518Y014548D02*
X000970Y014548D01*
X000970Y014706D02*
X002518Y014706D01*
X002518Y014865D02*
X000970Y014865D01*
X000970Y015023D02*
X002545Y015023D01*
X002615Y015182D02*
X000970Y015182D01*
X000970Y015340D02*
X002746Y015340D01*
X003431Y016450D02*
X000970Y016450D01*
X000970Y016608D02*
X003302Y016608D01*
X003233Y016767D02*
X000970Y016767D01*
X000970Y016925D02*
X003207Y016925D01*
X003378Y017401D02*
X000970Y017401D01*
X000970Y017559D02*
X003589Y017559D01*
X003488Y017746D02*
X003565Y017790D01*
X003635Y017843D01*
X003697Y017906D01*
X003751Y017976D01*
X003795Y018052D01*
X003828Y018133D01*
X003851Y018218D01*
X003863Y018306D01*
X003863Y018824D01*
X003209Y018824D01*
X003209Y018860D01*
X003863Y018860D01*
X003863Y019378D01*
X003851Y019466D01*
X003828Y019551D01*
X003795Y019632D01*
X003751Y019708D01*
X003697Y019778D01*
X003635Y019841D01*
X003565Y019894D01*
X003488Y019938D01*
X003407Y019972D01*
X003322Y019995D01*
X003235Y020006D01*
X003209Y020006D01*
X003209Y018860D01*
X003172Y018860D01*
X003172Y018824D01*
X002518Y018824D01*
X002518Y018306D01*
X002530Y018218D01*
X002553Y018133D01*
X002586Y018052D01*
X002630Y017976D01*
X002684Y017906D01*
X002746Y017843D01*
X002816Y017790D01*
X002893Y017746D01*
X002974Y017712D01*
X003059Y017689D01*
X003146Y017678D01*
X003172Y017678D01*
X003172Y018824D01*
X003209Y018824D01*
X003209Y017678D01*
X003235Y017678D01*
X003322Y017689D01*
X003407Y017712D01*
X003488Y017746D01*
X003421Y017718D02*
X004960Y017718D01*
X004906Y017876D02*
X003668Y017876D01*
X003785Y018035D02*
X004906Y018035D01*
X004906Y018193D02*
X003844Y018193D01*
X003863Y018352D02*
X004906Y018352D01*
X004906Y018510D02*
X003863Y018510D01*
X003863Y018669D02*
X004906Y018669D01*
X004906Y018827D02*
X003209Y018827D01*
X003172Y018827D02*
X000970Y018827D01*
X000970Y018669D02*
X002518Y018669D01*
X002518Y018510D02*
X000970Y018510D01*
X000970Y018352D02*
X002518Y018352D01*
X002537Y018193D02*
X000970Y018193D01*
X000970Y018035D02*
X002596Y018035D01*
X002713Y017876D02*
X000970Y017876D01*
X000970Y017718D02*
X002960Y017718D01*
X003172Y017718D02*
X003209Y017718D01*
X003209Y017876D02*
X003172Y017876D01*
X003172Y018035D02*
X003209Y018035D01*
X003209Y018193D02*
X003172Y018193D01*
X003172Y018352D02*
X003209Y018352D01*
X003209Y018510D02*
X003172Y018510D01*
X003172Y018669D02*
X003209Y018669D01*
X003172Y018860D02*
X002518Y018860D01*
X002518Y019378D01*
X002530Y019466D01*
X002553Y019551D01*
X002586Y019632D01*
X002630Y019708D01*
X002684Y019778D01*
X002746Y019841D01*
X002816Y019894D01*
X002893Y019938D01*
X002974Y019972D01*
X003059Y019995D01*
X003146Y020006D01*
X003172Y020006D01*
X003172Y018860D01*
X003172Y018986D02*
X003209Y018986D01*
X003209Y019144D02*
X003172Y019144D01*
X003172Y019303D02*
X003209Y019303D01*
X003209Y019461D02*
X003172Y019461D01*
X003172Y019620D02*
X003209Y019620D01*
X003209Y019778D02*
X003172Y019778D01*
X003172Y019937D02*
X003209Y019937D01*
X003491Y019937D02*
X005356Y019937D01*
X005506Y020095D02*
X000970Y020095D01*
X000970Y019937D02*
X002891Y019937D01*
X002684Y019778D02*
X000970Y019778D01*
X000970Y019620D02*
X002581Y019620D01*
X002529Y019461D02*
X000970Y019461D01*
X000970Y019303D02*
X002518Y019303D01*
X002518Y019144D02*
X000970Y019144D01*
X000970Y018986D02*
X002518Y018986D01*
X003863Y018986D02*
X004921Y018986D01*
X004921Y019144D02*
X003863Y019144D01*
X003863Y019303D02*
X004921Y019303D01*
X004921Y019461D02*
X003852Y019461D01*
X003800Y019620D02*
X004987Y019620D01*
X005103Y019778D02*
X003697Y019778D01*
X003513Y020888D02*
X000970Y020888D01*
X000970Y021046D02*
X003344Y021046D01*
X003254Y021205D02*
X000970Y021205D01*
X000970Y021363D02*
X003213Y021363D01*
X003211Y021522D02*
X000970Y021522D01*
X000970Y021680D02*
X003247Y021680D01*
X003329Y021839D02*
X000970Y021839D01*
X000970Y021997D02*
X003486Y021997D01*
X003407Y022212D02*
X003488Y022246D01*
X003565Y022290D01*
X003635Y022343D01*
X003697Y022406D01*
X003751Y022476D01*
X003795Y022552D01*
X003828Y022633D01*
X003851Y022718D01*
X003863Y022806D01*
X003863Y023324D01*
X003209Y023324D01*
X003209Y023360D01*
X003863Y023360D01*
X003863Y023878D01*
X003851Y023966D01*
X003828Y024051D01*
X003795Y024132D01*
X003751Y024208D01*
X003697Y024278D01*
X003635Y024341D01*
X003565Y024394D01*
X003488Y024438D01*
X003407Y024472D01*
X003322Y024495D01*
X003235Y024506D01*
X003209Y024506D01*
X003209Y023360D01*
X003172Y023360D01*
X003172Y023324D01*
X002518Y023324D01*
X002518Y022806D01*
X002530Y022718D01*
X002553Y022633D01*
X002586Y022552D01*
X002630Y022476D01*
X002684Y022406D01*
X002746Y022343D01*
X002816Y022290D01*
X002893Y022246D01*
X002974Y022212D01*
X003059Y022189D01*
X003146Y022178D01*
X003172Y022178D01*
X003172Y023324D01*
X003209Y023324D01*
X003209Y022178D01*
X003235Y022178D01*
X003322Y022189D01*
X003407Y022212D01*
X003597Y022314D02*
X004906Y022314D01*
X004906Y022473D02*
X003749Y022473D01*
X003828Y022631D02*
X004906Y022631D01*
X004906Y022790D02*
X003861Y022790D01*
X003863Y022948D02*
X004906Y022948D01*
X004906Y023107D02*
X003863Y023107D01*
X003863Y023265D02*
X004906Y023265D01*
X004918Y023424D02*
X003863Y023424D01*
X003863Y023582D02*
X004921Y023582D01*
X004921Y023741D02*
X003863Y023741D01*
X003860Y023899D02*
X004921Y023899D01*
X004961Y024058D02*
X003825Y024058D01*
X003744Y024216D02*
X005041Y024216D01*
X005207Y024375D02*
X003590Y024375D01*
X003209Y024375D02*
X003172Y024375D01*
X003172Y024506D02*
X003146Y024506D01*
X003059Y024495D01*
X002974Y024472D01*
X002893Y024438D01*
X002816Y024394D01*
X002746Y024341D01*
X002684Y024278D01*
X002630Y024208D01*
X002586Y024132D01*
X002553Y024051D01*
X002530Y023966D01*
X002518Y023878D01*
X002518Y023360D01*
X003172Y023360D01*
X003172Y024506D01*
X003172Y024216D02*
X003209Y024216D01*
X003209Y024058D02*
X003172Y024058D01*
X003172Y023899D02*
X003209Y023899D01*
X003209Y023741D02*
X003172Y023741D01*
X003172Y023582D02*
X003209Y023582D01*
X003209Y023424D02*
X003172Y023424D01*
X003172Y023265D02*
X003209Y023265D01*
X003209Y023107D02*
X003172Y023107D01*
X003172Y022948D02*
X003209Y022948D01*
X003209Y022790D02*
X003172Y022790D01*
X003172Y022631D02*
X003209Y022631D01*
X003209Y022473D02*
X003172Y022473D01*
X003172Y022314D02*
X003209Y022314D01*
X002784Y022314D02*
X000970Y022314D01*
X000970Y022156D02*
X005036Y022156D01*
X004390Y021997D02*
X004353Y021997D01*
X004353Y021839D02*
X004390Y021839D01*
X004390Y021680D02*
X004353Y021680D01*
X004353Y021522D02*
X004390Y021522D01*
X004390Y021363D02*
X004353Y021363D01*
X004353Y021205D02*
X004390Y021205D01*
X004390Y021046D02*
X004353Y021046D01*
X004353Y020888D02*
X004390Y020888D01*
X005231Y020888D02*
X005506Y020888D01*
X005506Y021046D02*
X005400Y021046D01*
X005489Y021205D02*
X005506Y021205D01*
X005506Y020729D02*
X000970Y020729D01*
X000970Y020571D02*
X005506Y020571D01*
X005506Y020412D02*
X000970Y020412D01*
X000970Y020254D02*
X005506Y020254D01*
X002633Y022473D02*
X000970Y022473D01*
X000970Y022631D02*
X002553Y022631D01*
X002521Y022790D02*
X000970Y022790D01*
X000970Y022948D02*
X002518Y022948D01*
X002518Y023107D02*
X000970Y023107D01*
X000970Y023265D02*
X002518Y023265D01*
X002518Y023424D02*
X000970Y023424D01*
X000970Y023582D02*
X002518Y023582D01*
X002518Y023741D02*
X000970Y023741D01*
X000970Y023899D02*
X002521Y023899D01*
X002556Y024058D02*
X000970Y024058D01*
X000970Y024216D02*
X002637Y024216D01*
X002791Y024375D02*
X000970Y024375D01*
X000970Y024533D02*
X006316Y024533D01*
X006501Y024692D02*
X000970Y024692D01*
X000970Y024850D02*
X006686Y024850D01*
X006871Y025009D02*
X000970Y025009D01*
X000970Y025167D02*
X007056Y025167D01*
X007241Y025326D02*
X000970Y025326D01*
X000970Y025484D02*
X007426Y025484D01*
X007611Y025643D02*
X000970Y025643D01*
X000970Y025801D02*
X007796Y025801D01*
X007981Y025960D02*
X000970Y025960D01*
X000970Y026118D02*
X008166Y026118D01*
X008350Y026277D02*
X000970Y026277D01*
X000970Y026435D02*
X008535Y026435D01*
X008720Y026594D02*
X000970Y026594D01*
X000970Y026752D02*
X008905Y026752D01*
X009090Y026911D02*
X000970Y026911D01*
X000970Y027069D02*
X007365Y027069D01*
X007332Y027102D02*
X007443Y026991D01*
X007588Y026931D01*
X007745Y026931D01*
X007891Y026991D01*
X008002Y027102D01*
X008062Y027248D01*
X008062Y027405D01*
X008002Y027550D01*
X007891Y027661D01*
X007745Y027721D01*
X007588Y027721D01*
X007443Y027661D01*
X007332Y027550D01*
X007272Y027405D01*
X007272Y027248D01*
X007332Y027102D01*
X007280Y027228D02*
X000970Y027228D01*
X000970Y027386D02*
X007272Y027386D01*
X007330Y027545D02*
X000970Y027545D01*
X000970Y027703D02*
X007546Y027703D01*
X007788Y027703D02*
X010015Y027703D01*
X010191Y027862D02*
X000970Y027862D01*
X000970Y028020D02*
X039553Y028020D01*
X039553Y028133D02*
X039553Y009236D01*
X000970Y009236D01*
X000970Y028133D01*
X039553Y028133D01*
X039553Y027862D02*
X013961Y027862D01*
X013419Y026594D02*
X010687Y026594D01*
X009830Y027545D02*
X008004Y027545D01*
X008062Y027386D02*
X009645Y027386D01*
X009460Y027228D02*
X008054Y027228D01*
X007969Y027069D02*
X009275Y027069D01*
X014081Y025643D02*
X014370Y025643D01*
X014240Y025484D02*
X014529Y025484D01*
X014398Y025326D02*
X014687Y025326D01*
X014557Y025167D02*
X014846Y025167D01*
X014715Y025009D02*
X015004Y025009D01*
X015163Y024850D02*
X014807Y024850D01*
X014846Y024692D02*
X015321Y024692D01*
X015386Y024533D02*
X014846Y024533D01*
X014846Y024375D02*
X015386Y024375D01*
X015386Y024216D02*
X014846Y024216D01*
X014846Y024058D02*
X015386Y024058D01*
X015386Y023899D02*
X014846Y023899D01*
X014846Y023741D02*
X015386Y023741D01*
X015386Y023582D02*
X014846Y023582D01*
X014846Y023424D02*
X015386Y023424D01*
X015386Y023265D02*
X014846Y023265D01*
X016496Y022631D02*
X021006Y022631D01*
X021006Y022473D02*
X016570Y022473D01*
X016646Y019778D02*
X021006Y019778D01*
X021006Y019620D02*
X016646Y019620D01*
X016646Y019461D02*
X021006Y019461D01*
X021006Y019303D02*
X016646Y019303D01*
X016646Y019144D02*
X021028Y019144D01*
X021095Y018986D02*
X018684Y018986D01*
X018928Y018827D02*
X021253Y018827D01*
X021412Y018669D02*
X019087Y018669D01*
X019155Y018510D02*
X021570Y018510D01*
X021729Y018352D02*
X019178Y018352D01*
X019163Y018193D02*
X021622Y018193D01*
X021463Y018035D02*
X019098Y018035D01*
X018332Y018986D02*
X016646Y018986D01*
X016674Y016133D02*
X016466Y016133D01*
X016509Y015974D02*
X016586Y015974D01*
X016586Y015842D02*
X016586Y015639D01*
X016873Y015352D01*
X017076Y015352D01*
X017076Y015842D01*
X016586Y015842D01*
X016586Y015816D02*
X016526Y015816D01*
X016487Y015657D02*
X016586Y015657D01*
X016726Y015499D02*
X016370Y015499D01*
X017076Y015499D02*
X017076Y015499D01*
X017076Y015352D02*
X017279Y015352D01*
X017566Y015639D01*
X017566Y015842D01*
X017076Y015842D01*
X017076Y015842D01*
X017076Y015352D01*
X017076Y015657D02*
X017076Y015657D01*
X017076Y015816D02*
X017076Y015816D01*
X017076Y015842D02*
X017076Y015842D01*
X017426Y015499D02*
X027144Y015499D01*
X027136Y015657D02*
X017566Y015657D01*
X017566Y015816D02*
X027136Y015816D01*
X027136Y015974D02*
X017566Y015974D01*
X017478Y016133D02*
X027136Y016133D01*
X027179Y016291D02*
X022577Y016291D01*
X022736Y016450D02*
X027307Y016450D01*
X027576Y016450D02*
X027576Y016450D01*
X027576Y016291D02*
X027576Y016291D01*
X027576Y016133D02*
X027576Y016133D01*
X027576Y015974D02*
X027576Y015974D01*
X027576Y015842D02*
X028016Y015842D01*
X027576Y015842D01*
X027576Y015842D01*
X027576Y015816D02*
X027576Y015816D01*
X027576Y015657D02*
X027576Y015657D01*
X027576Y015499D02*
X027576Y015499D01*
X027576Y015340D02*
X027576Y015340D01*
X027208Y015340D02*
X013766Y015340D01*
X012356Y014822D02*
X012356Y014062D01*
X011896Y014062D01*
X011896Y014380D01*
X011908Y014454D01*
X011932Y014526D01*
X011966Y014594D01*
X012010Y014655D01*
X012064Y014708D01*
X012125Y014753D01*
X012192Y014787D01*
X012264Y014810D01*
X012339Y014822D01*
X012356Y014822D01*
X012356Y014706D02*
X012396Y014706D01*
X012396Y014548D02*
X012356Y014548D01*
X012356Y014389D02*
X012396Y014389D01*
X012396Y014231D02*
X012356Y014231D01*
X012356Y014072D02*
X012396Y014072D01*
X012396Y013914D02*
X012356Y013914D01*
X012356Y013755D02*
X012396Y013755D01*
X012396Y013597D02*
X012356Y013597D01*
X012356Y013438D02*
X012396Y013438D01*
X012396Y013280D02*
X012356Y013280D01*
X012245Y013280D02*
X009507Y013280D01*
X009566Y013438D02*
X011058Y013438D01*
X010960Y013597D02*
X009566Y013597D01*
X009556Y013755D02*
X010936Y013755D01*
X011695Y013438D02*
X012004Y013438D01*
X011919Y013597D02*
X011793Y013597D01*
X011816Y013755D02*
X011896Y013755D01*
X011896Y013914D02*
X011816Y013914D01*
X011816Y014072D02*
X011896Y014072D01*
X011896Y014231D02*
X011816Y014231D01*
X011816Y014389D02*
X011898Y014389D01*
X011943Y014548D02*
X011767Y014548D01*
X011634Y014706D02*
X012062Y014706D01*
X012026Y011853D02*
X011891Y011853D01*
X011891Y011695D02*
X012026Y011695D01*
X012314Y011853D02*
X013162Y011853D01*
X013004Y011695D02*
X012472Y011695D01*
X012550Y011536D02*
X012926Y011536D01*
X012906Y011219D02*
X012570Y011219D01*
X012514Y011061D02*
X012961Y011061D01*
X013076Y010902D02*
X012400Y010902D01*
X012026Y010902D02*
X011891Y010902D01*
X011891Y011061D02*
X012026Y011061D01*
X012026Y011219D02*
X011891Y011219D01*
X010467Y011219D02*
X010332Y011219D01*
X010332Y011061D02*
X010467Y011061D01*
X010467Y010902D02*
X010332Y010902D01*
X010332Y010744D02*
X010467Y010744D01*
X008051Y012804D02*
X016860Y012804D01*
X016779Y012646D02*
X008009Y012646D01*
X007893Y012487D02*
X016739Y012487D01*
X016948Y011853D02*
X015687Y011853D01*
X015699Y011695D02*
X017177Y011695D01*
X016866Y010585D02*
X000970Y010585D01*
X000970Y010427D02*
X016800Y010427D01*
X016771Y010268D02*
X000970Y010268D01*
X000970Y010110D02*
X016771Y010110D01*
X016822Y009951D02*
X000970Y009951D01*
X000970Y009793D02*
X016900Y009793D01*
X013585Y010902D02*
X013450Y010902D01*
X013450Y011061D02*
X013585Y011061D01*
X013585Y011219D02*
X013450Y011219D01*
X013450Y011695D02*
X013585Y011695D01*
X013585Y011853D02*
X013450Y011853D01*
X015585Y013755D02*
X022053Y013755D01*
X022834Y014706D02*
X032845Y014706D01*
X033076Y014706D02*
X033076Y014706D01*
X033076Y014642D02*
X033111Y014642D01*
X033179Y014653D01*
X033245Y014674D01*
X033307Y014706D01*
X033363Y014746D01*
X033412Y014795D01*
X033453Y014851D01*
X033484Y014913D01*
X033506Y014979D01*
X033516Y015047D01*
X033516Y015342D01*
X033516Y015637D01*
X033506Y015705D01*
X033484Y015771D01*
X033453Y015833D01*
X033412Y015889D01*
X033363Y015938D01*
X033307Y015978D01*
X033245Y016010D01*
X033179Y016031D01*
X033111Y016042D01*
X033076Y016042D01*
X033076Y015342D01*
X033076Y015342D01*
X033076Y015342D01*
X033076Y014642D01*
X033076Y014542D02*
X033076Y013842D01*
X033076Y013842D01*
X033076Y013842D01*
X033076Y013142D01*
X033111Y013142D01*
X033179Y013153D01*
X033245Y013174D01*
X033307Y013206D01*
X033363Y013246D01*
X033412Y013295D01*
X033453Y013351D01*
X033484Y013413D01*
X033506Y013479D01*
X033516Y013547D01*
X033516Y013842D01*
X033516Y014137D01*
X033506Y014205D01*
X033484Y014271D01*
X033453Y014333D01*
X033412Y014389D01*
X033363Y014438D01*
X033307Y014478D01*
X033245Y014510D01*
X033179Y014531D01*
X033111Y014542D01*
X033076Y014542D01*
X033076Y014389D02*
X033076Y014389D01*
X033076Y014231D02*
X033076Y014231D01*
X033076Y014072D02*
X033076Y014072D01*
X033076Y013914D02*
X033076Y013914D01*
X033076Y013842D02*
X033516Y013842D01*
X033076Y013842D01*
X033076Y013842D01*
X033076Y013755D02*
X033076Y013755D01*
X033076Y013597D02*
X033076Y013597D01*
X033076Y013438D02*
X033076Y013438D01*
X033076Y013280D02*
X033076Y013280D01*
X033397Y013280D02*
X033813Y013280D01*
X033850Y013243D02*
X033997Y013182D01*
X034156Y013182D01*
X034303Y013243D01*
X034415Y013355D01*
X034476Y013502D01*
X034476Y014182D01*
X034415Y014329D01*
X034303Y014441D01*
X034156Y014502D01*
X033997Y014502D01*
X033850Y014441D01*
X033737Y014329D01*
X033676Y014182D01*
X033676Y013502D01*
X033737Y013355D01*
X033850Y013243D01*
X033703Y013438D02*
X033492Y013438D01*
X033516Y013597D02*
X033676Y013597D01*
X033676Y013755D02*
X033516Y013755D01*
X033516Y013914D02*
X033676Y013914D01*
X033676Y014072D02*
X033516Y014072D01*
X033497Y014231D02*
X033697Y014231D01*
X033798Y014389D02*
X033411Y014389D01*
X033308Y014706D02*
X033938Y014706D01*
X033733Y014865D02*
X033460Y014865D01*
X033513Y015023D02*
X033676Y015023D01*
X033676Y015182D02*
X033516Y015182D01*
X033516Y015340D02*
X033676Y015340D01*
X033676Y015499D02*
X033516Y015499D01*
X033516Y015342D02*
X033076Y015342D01*
X033076Y015342D01*
X033516Y015342D01*
X033513Y015657D02*
X033676Y015657D01*
X033732Y015816D02*
X033461Y015816D01*
X033312Y015974D02*
X033930Y015974D01*
X033801Y016291D02*
X033408Y016291D01*
X033412Y016295D02*
X033453Y016351D01*
X033484Y016413D01*
X033506Y016479D01*
X033516Y016547D01*
X033516Y016842D01*
X033516Y017137D01*
X033506Y017205D01*
X033484Y017271D01*
X033453Y017333D01*
X033412Y017389D01*
X033363Y017438D01*
X033307Y017478D01*
X033245Y017510D01*
X033179Y017531D01*
X033111Y017542D01*
X033076Y017542D01*
X033042Y017542D01*
X032973Y017531D01*
X032907Y017510D01*
X032846Y017478D01*
X032790Y017438D01*
X032741Y017389D01*
X032700Y017333D01*
X032669Y017271D01*
X032647Y017205D01*
X032636Y017137D01*
X032636Y016842D01*
X033076Y016842D01*
X033076Y016842D01*
X032636Y016842D01*
X032636Y016547D01*
X032647Y016479D01*
X032669Y016413D01*
X032700Y016351D01*
X032741Y016295D01*
X032790Y016246D01*
X032846Y016206D01*
X032907Y016174D01*
X032973Y016153D01*
X033042Y016142D01*
X033076Y016142D01*
X033076Y016842D01*
X033076Y017542D01*
X033076Y016842D01*
X033076Y016842D01*
X033076Y016842D01*
X033076Y016142D01*
X033111Y016142D01*
X033179Y016153D01*
X033245Y016174D01*
X033307Y016206D01*
X033363Y016246D01*
X033412Y016295D01*
X033496Y016450D02*
X033698Y016450D01*
X033676Y016608D02*
X033516Y016608D01*
X033516Y016767D02*
X033676Y016767D01*
X033676Y016925D02*
X033516Y016925D01*
X033516Y016842D02*
X033076Y016842D01*
X033076Y016842D01*
X033516Y016842D01*
X033516Y017084D02*
X033676Y017084D01*
X033702Y017242D02*
X033493Y017242D01*
X033400Y017401D02*
X033810Y017401D01*
X034343Y017401D02*
X037839Y017401D01*
X037878Y017362D02*
X038056Y017362D01*
X038056Y017822D01*
X037596Y017822D01*
X037596Y017643D01*
X037878Y017362D01*
X038056Y017401D02*
X038096Y017401D01*
X038096Y017362D02*
X038275Y017362D01*
X038556Y017643D01*
X038556Y017822D01*
X038096Y017822D01*
X038096Y017362D01*
X038096Y017559D02*
X038056Y017559D01*
X038056Y017718D02*
X038096Y017718D01*
X038096Y017822D02*
X038056Y017822D01*
X038056Y017862D01*
X037596Y017862D01*
X037596Y018041D01*
X037878Y018322D01*
X038056Y018322D01*
X038056Y017862D01*
X038096Y017862D01*
X038096Y018322D01*
X038275Y018322D01*
X038556Y018041D01*
X038556Y017862D01*
X038096Y017862D01*
X038096Y017822D01*
X038096Y017876D02*
X038056Y017876D01*
X038056Y018035D02*
X038096Y018035D01*
X038096Y018193D02*
X038056Y018193D01*
X037749Y018193D02*
X028529Y018193D01*
X028551Y018248D02*
X028479Y018073D01*
X028345Y017940D01*
X028171Y017867D01*
X027982Y017867D01*
X027808Y017940D01*
X027674Y018073D01*
X027602Y018248D01*
X027602Y018436D01*
X027674Y018611D01*
X027808Y018744D01*
X027982Y018817D01*
X028171Y018817D01*
X028345Y018744D01*
X028479Y018611D01*
X028551Y018436D01*
X028551Y018248D01*
X028551Y018352D02*
X039553Y018352D01*
X039553Y018510D02*
X028520Y018510D01*
X028421Y018669D02*
X039553Y018669D01*
X039553Y018827D02*
X024142Y018827D01*
X024216Y018669D02*
X024732Y018669D01*
X024674Y018611D02*
X024602Y018436D01*
X024602Y018248D01*
X024674Y018073D01*
X024808Y017940D01*
X024982Y017867D01*
X025171Y017867D01*
X025345Y017940D01*
X025479Y018073D01*
X025551Y018248D01*
X025551Y018436D01*
X025479Y018611D01*
X025345Y018744D01*
X025171Y018817D01*
X024982Y018817D01*
X024808Y018744D01*
X024674Y018611D01*
X024632Y018510D02*
X024216Y018510D01*
X024216Y018352D02*
X024602Y018352D01*
X024624Y018193D02*
X024216Y018193D01*
X024216Y018035D02*
X024712Y018035D01*
X024960Y017876D02*
X024159Y017876D01*
X024004Y017718D02*
X037596Y017718D01*
X037596Y017876D02*
X028193Y017876D01*
X027960Y017876D02*
X025193Y017876D01*
X025441Y018035D02*
X027712Y018035D01*
X027624Y018193D02*
X025529Y018193D01*
X025551Y018352D02*
X027602Y018352D01*
X027632Y018510D02*
X025520Y018510D01*
X025421Y018669D02*
X027732Y018669D01*
X028441Y018035D02*
X037596Y018035D01*
X037680Y017559D02*
X023845Y017559D01*
X023687Y017401D02*
X032753Y017401D01*
X032659Y017242D02*
X023528Y017242D01*
X023370Y017084D02*
X032636Y017084D01*
X032636Y016925D02*
X023211Y016925D01*
X023053Y016767D02*
X032636Y016767D01*
X032636Y016608D02*
X022894Y016608D01*
X022267Y017084D02*
X022124Y017084D01*
X022165Y016982D02*
X022022Y016982D01*
X023060Y018019D01*
X023146Y018229D01*
X023146Y018455D01*
X023060Y018665D01*
X022899Y018825D01*
X022845Y018847D01*
X022146Y019547D01*
X022146Y023093D01*
X022378Y022862D01*
X022556Y022862D01*
X022556Y023322D01*
X022596Y023322D01*
X022596Y022862D01*
X022775Y022862D01*
X023056Y023143D01*
X023056Y023322D01*
X022596Y023322D01*
X022596Y023362D01*
X022556Y023362D01*
X022556Y023822D01*
X022378Y023822D01*
X022146Y023591D01*
X022146Y024106D01*
X022412Y024372D01*
X024605Y024372D01*
X024546Y024313D01*
X024486Y024170D01*
X024486Y023587D01*
X024333Y023741D01*
X024064Y023852D01*
X023774Y023852D01*
X023505Y023741D01*
X023300Y023535D01*
X023188Y023267D01*
X023188Y022976D01*
X023300Y022708D01*
X023505Y022502D01*
X023774Y022391D01*
X024064Y022391D01*
X024081Y022398D01*
X023915Y022232D01*
X023499Y022232D01*
X023355Y022173D01*
X023246Y022063D01*
X022246Y021063D01*
X022186Y020920D01*
X022186Y019764D01*
X022246Y019621D01*
X022355Y019511D01*
X023436Y018430D01*
X023436Y018254D01*
X022165Y016982D01*
X022283Y017242D02*
X022425Y017242D01*
X022441Y017401D02*
X022584Y017401D01*
X022600Y017559D02*
X022742Y017559D01*
X022758Y017718D02*
X022901Y017718D01*
X022917Y017876D02*
X023059Y017876D01*
X023066Y018035D02*
X023218Y018035D01*
X023132Y018193D02*
X023376Y018193D01*
X023436Y018352D02*
X023146Y018352D01*
X023124Y018510D02*
X023356Y018510D01*
X023198Y018669D02*
X023055Y018669D01*
X023039Y018827D02*
X022894Y018827D01*
X022881Y018986D02*
X022707Y018986D01*
X022722Y019144D02*
X022548Y019144D01*
X022564Y019303D02*
X022390Y019303D01*
X022405Y019461D02*
X022231Y019461D01*
X022355Y019511D02*
X022355Y019511D01*
X022247Y019620D02*
X022146Y019620D01*
X022146Y019778D02*
X022186Y019778D01*
X022186Y019937D02*
X022146Y019937D01*
X022146Y020095D02*
X022186Y020095D01*
X022186Y020254D02*
X022146Y020254D01*
X022146Y020412D02*
X022186Y020412D01*
X022186Y020571D02*
X022146Y020571D01*
X022146Y020729D02*
X022186Y020729D01*
X022186Y020888D02*
X022146Y020888D01*
X022146Y021046D02*
X022239Y021046D01*
X022146Y021205D02*
X022388Y021205D01*
X022546Y021363D02*
X022146Y021363D01*
X022146Y021522D02*
X022705Y021522D01*
X022863Y021680D02*
X022146Y021680D01*
X022146Y021839D02*
X023022Y021839D01*
X023180Y021997D02*
X022146Y021997D01*
X022146Y022156D02*
X023339Y022156D01*
X023576Y022473D02*
X022146Y022473D01*
X022146Y022631D02*
X023376Y022631D01*
X023265Y022790D02*
X022146Y022790D01*
X022146Y022948D02*
X022291Y022948D01*
X022556Y022948D02*
X022596Y022948D01*
X022596Y023107D02*
X022556Y023107D01*
X022556Y023265D02*
X022596Y023265D01*
X022596Y023362D02*
X023056Y023362D01*
X023056Y023541D01*
X022775Y023822D01*
X022596Y023822D01*
X022596Y023362D01*
X022596Y023424D02*
X022556Y023424D01*
X022556Y023582D02*
X022596Y023582D01*
X022596Y023741D02*
X022556Y023741D01*
X022297Y023741D02*
X022146Y023741D01*
X022146Y023899D02*
X024486Y023899D01*
X024486Y023741D02*
X024332Y023741D01*
X024486Y024058D02*
X022146Y024058D01*
X022257Y024216D02*
X024506Y024216D01*
X023505Y023741D02*
X022856Y023741D01*
X023015Y023582D02*
X023347Y023582D01*
X023253Y023424D02*
X023056Y023424D01*
X023056Y023265D02*
X023188Y023265D01*
X023188Y023107D02*
X023020Y023107D01*
X022862Y022948D02*
X023200Y022948D01*
X023997Y022314D02*
X022146Y022314D01*
X023332Y021046D02*
X023654Y021046D01*
X023774Y021096D02*
X023505Y020985D01*
X023300Y020779D01*
X023188Y020511D01*
X023188Y020220D01*
X023300Y019952D01*
X023505Y019746D01*
X023774Y019635D01*
X024064Y019635D01*
X024333Y019746D01*
X024538Y019952D01*
X024649Y020220D01*
X024649Y020511D01*
X024538Y020779D01*
X024333Y020985D01*
X024064Y021096D01*
X023774Y021096D01*
X023649Y021363D02*
X026546Y021363D01*
X026388Y021205D02*
X023491Y021205D01*
X023408Y020888D02*
X023174Y020888D01*
X023279Y020729D02*
X023015Y020729D01*
X022966Y020571D02*
X023213Y020571D01*
X023188Y020412D02*
X022966Y020412D01*
X022966Y020254D02*
X023188Y020254D01*
X023240Y020095D02*
X022966Y020095D01*
X023033Y019937D02*
X023314Y019937D01*
X023191Y019778D02*
X023473Y019778D01*
X023350Y019620D02*
X035155Y019620D01*
X035174Y019573D02*
X035308Y019440D01*
X035482Y019367D01*
X035671Y019367D01*
X035845Y019440D01*
X035979Y019573D01*
X036051Y019748D01*
X036051Y019936D01*
X035979Y020111D01*
X035845Y020244D01*
X035671Y020317D01*
X035482Y020317D01*
X035308Y020244D01*
X035174Y020111D01*
X035102Y019936D01*
X035102Y019748D01*
X035174Y019573D01*
X035286Y019461D02*
X023508Y019461D01*
X023667Y019303D02*
X039553Y019303D01*
X039553Y019461D02*
X037262Y019461D01*
X037242Y019442D02*
X037476Y019676D01*
X037476Y020008D01*
X037242Y020242D01*
X036911Y020242D01*
X036676Y020008D01*
X036676Y019676D01*
X036911Y019442D01*
X037242Y019442D01*
X037420Y019620D02*
X039553Y019620D01*
X039553Y019778D02*
X037476Y019778D01*
X037476Y019937D02*
X039553Y019937D01*
X039553Y020095D02*
X037389Y020095D01*
X036764Y020095D02*
X035985Y020095D01*
X036051Y019937D02*
X036676Y019937D01*
X036676Y019778D02*
X036051Y019778D01*
X035998Y019620D02*
X036733Y019620D01*
X036891Y019461D02*
X035867Y019461D01*
X035822Y020254D02*
X039553Y020254D01*
X039553Y020412D02*
X034492Y020412D01*
X034492Y020511D02*
X034381Y020779D01*
X034175Y020985D01*
X033907Y021096D01*
X033874Y021096D01*
X032907Y022063D01*
X032797Y022173D01*
X032654Y022232D01*
X027499Y022232D01*
X027355Y022173D01*
X026207Y021024D01*
X026033Y021096D01*
X025742Y021096D01*
X025474Y020985D01*
X025268Y020779D01*
X025157Y020511D01*
X025157Y020220D01*
X025268Y019952D01*
X025474Y019746D01*
X025742Y019635D01*
X026033Y019635D01*
X026301Y019746D01*
X026507Y019952D01*
X026618Y020220D01*
X026618Y020332D01*
X027738Y021452D01*
X032415Y021452D01*
X033126Y020741D01*
X033031Y020511D01*
X033031Y020220D01*
X033142Y019952D01*
X033348Y019746D01*
X033616Y019635D01*
X033907Y019635D01*
X034175Y019746D01*
X034381Y019952D01*
X034492Y020220D01*
X034492Y020511D01*
X034467Y020571D02*
X039553Y020571D01*
X039553Y020729D02*
X034401Y020729D01*
X034272Y020888D02*
X039553Y020888D01*
X039553Y021046D02*
X034027Y021046D01*
X033765Y021205D02*
X039553Y021205D01*
X039553Y021363D02*
X038377Y021363D01*
X038372Y021360D02*
X038444Y021412D01*
X038506Y021475D01*
X038559Y021546D01*
X038599Y021626D01*
X038626Y021710D01*
X038640Y021794D01*
X038124Y021794D01*
X038124Y021279D01*
X038208Y021292D01*
X038293Y021319D01*
X038372Y021360D01*
X038541Y021522D02*
X039553Y021522D01*
X039553Y021680D02*
X038617Y021680D01*
X038640Y021890D02*
X038124Y021890D01*
X038028Y021890D01*
X038028Y021794D01*
X037513Y021794D01*
X037526Y021710D01*
X037554Y021626D01*
X037594Y021546D01*
X037646Y021475D01*
X037709Y021412D01*
X037781Y021360D01*
X037860Y021319D01*
X037944Y021292D01*
X038028Y021279D01*
X038028Y021794D01*
X038124Y021794D01*
X038124Y021890D01*
X038124Y022405D01*
X038208Y022392D01*
X038293Y022365D01*
X038372Y022324D01*
X038444Y022272D01*
X038506Y022209D01*
X038559Y022137D01*
X038599Y022058D01*
X038626Y021974D01*
X038640Y021890D01*
X038619Y021997D02*
X039553Y021997D01*
X039553Y021839D02*
X038124Y021839D01*
X038028Y021839D02*
X033131Y021839D01*
X033289Y021680D02*
X037536Y021680D01*
X037612Y021522D02*
X033448Y021522D01*
X033606Y021363D02*
X037776Y021363D01*
X038028Y021363D02*
X038124Y021363D01*
X038124Y021522D02*
X038028Y021522D01*
X038028Y021680D02*
X038124Y021680D01*
X038028Y021890D02*
X037513Y021890D01*
X037526Y021974D01*
X037554Y022058D01*
X037594Y022137D01*
X037646Y022209D01*
X037709Y022272D01*
X037781Y022324D01*
X037860Y022365D01*
X037944Y022392D01*
X038028Y022405D01*
X038028Y021890D01*
X038028Y021997D02*
X038124Y021997D01*
X038124Y022156D02*
X038028Y022156D01*
X038028Y022314D02*
X038124Y022314D01*
X038385Y022314D02*
X039553Y022314D01*
X039553Y022156D02*
X038545Y022156D01*
X037767Y022314D02*
X025100Y022314D01*
X025229Y022473D02*
X025544Y022473D01*
X025344Y022631D02*
X025266Y022631D01*
X024942Y022156D02*
X027339Y022156D01*
X027180Y021997D02*
X024783Y021997D01*
X024625Y021839D02*
X027022Y021839D01*
X026863Y021680D02*
X024466Y021680D01*
X024308Y021522D02*
X026705Y021522D01*
X026229Y021046D02*
X026153Y021046D01*
X025622Y021046D02*
X024184Y021046D01*
X024430Y020888D02*
X025377Y020888D01*
X025247Y020729D02*
X024559Y020729D01*
X024625Y020571D02*
X025182Y020571D01*
X025157Y020412D02*
X024649Y020412D01*
X024649Y020254D02*
X025157Y020254D01*
X025209Y020095D02*
X024598Y020095D01*
X024523Y019937D02*
X025283Y019937D01*
X025441Y019778D02*
X024365Y019778D01*
X023825Y019144D02*
X039553Y019144D01*
X039553Y018986D02*
X023984Y018986D01*
X026333Y019778D02*
X027410Y019778D01*
X027442Y019746D02*
X027711Y019635D01*
X028001Y019635D01*
X028270Y019746D01*
X028475Y019952D01*
X028586Y020220D01*
X028586Y020511D01*
X028475Y020779D01*
X028270Y020985D01*
X028001Y021096D01*
X027711Y021096D01*
X027442Y020985D01*
X027237Y020779D01*
X027125Y020511D01*
X027125Y020220D01*
X027237Y019952D01*
X027442Y019746D01*
X027251Y019937D02*
X026492Y019937D01*
X026566Y020095D02*
X027177Y020095D01*
X027125Y020254D02*
X026618Y020254D01*
X026698Y020412D02*
X027125Y020412D01*
X027150Y020571D02*
X026857Y020571D01*
X027015Y020729D02*
X027216Y020729D01*
X027174Y020888D02*
X027345Y020888D01*
X027332Y021046D02*
X027591Y021046D01*
X027491Y021205D02*
X032662Y021205D01*
X032820Y021046D02*
X028121Y021046D01*
X028367Y020888D02*
X032979Y020888D01*
X033121Y020729D02*
X028496Y020729D01*
X028562Y020571D02*
X033056Y020571D01*
X033031Y020412D02*
X028586Y020412D01*
X028586Y020254D02*
X033031Y020254D01*
X033083Y020095D02*
X028535Y020095D01*
X028460Y019937D02*
X033157Y019937D01*
X033315Y019778D02*
X028302Y019778D01*
X027649Y021363D02*
X032503Y021363D01*
X032972Y021997D02*
X037534Y021997D01*
X037608Y022156D02*
X032814Y022156D01*
X033218Y022631D02*
X028399Y022631D01*
X028475Y022708D02*
X028270Y022502D01*
X028001Y022391D01*
X027711Y022391D01*
X027442Y022502D01*
X027237Y022708D01*
X027125Y022976D01*
X027125Y023267D01*
X027237Y023535D01*
X027442Y023741D01*
X027711Y023852D01*
X028001Y023852D01*
X028270Y023741D01*
X028475Y023535D01*
X028586Y023267D01*
X028586Y022976D01*
X028475Y022708D01*
X028509Y022790D02*
X033108Y022790D01*
X033142Y022708D02*
X033348Y022502D01*
X033616Y022391D01*
X033907Y022391D01*
X034175Y022502D01*
X034381Y022708D01*
X034492Y022976D01*
X034492Y023267D01*
X034381Y023535D01*
X034175Y023741D01*
X037521Y023741D01*
X037526Y023710D02*
X037554Y023626D01*
X037594Y023546D01*
X037646Y023475D01*
X037709Y023412D01*
X037781Y023360D01*
X037860Y023319D01*
X037944Y023292D01*
X038028Y023279D01*
X038028Y023794D01*
X037513Y023794D01*
X037526Y023710D01*
X037576Y023582D02*
X034334Y023582D01*
X034427Y023424D02*
X037697Y023424D01*
X038028Y023424D02*
X038124Y023424D01*
X038124Y023279D02*
X038208Y023292D01*
X038293Y023319D01*
X038372Y023360D01*
X038444Y023412D01*
X038506Y023475D01*
X038559Y023546D01*
X038599Y023626D01*
X038626Y023710D01*
X038640Y023794D01*
X038124Y023794D01*
X038124Y023279D01*
X038124Y023582D02*
X038028Y023582D01*
X038028Y023741D02*
X038124Y023741D01*
X038124Y023794D02*
X038028Y023794D01*
X038028Y023890D01*
X037513Y023890D01*
X037526Y023974D01*
X037554Y024058D01*
X026844Y024058D01*
X027002Y024216D02*
X037653Y024216D01*
X037646Y024209D02*
X037594Y024137D01*
X037554Y024058D01*
X037515Y023899D02*
X026685Y023899D01*
X026498Y023741D02*
X027442Y023741D01*
X027284Y023582D02*
X026460Y023582D01*
X026553Y023424D02*
X027190Y023424D01*
X027125Y023265D02*
X026618Y023265D01*
X026618Y023107D02*
X027125Y023107D01*
X027137Y022948D02*
X026606Y022948D01*
X026541Y022790D02*
X027202Y022790D01*
X027313Y022631D02*
X026431Y022631D01*
X026231Y022473D02*
X027513Y022473D01*
X028199Y022473D02*
X033418Y022473D01*
X033142Y022708D02*
X033031Y022976D01*
X033031Y023267D01*
X033142Y023535D01*
X033348Y023741D01*
X028269Y023741D01*
X028428Y023582D02*
X033189Y023582D01*
X033096Y023424D02*
X028521Y023424D01*
X028586Y023265D02*
X033031Y023265D01*
X033031Y023107D02*
X028586Y023107D01*
X028575Y022948D02*
X033042Y022948D01*
X034105Y022473D02*
X039553Y022473D01*
X039553Y022631D02*
X034305Y022631D01*
X034415Y022790D02*
X039553Y022790D01*
X039553Y022948D02*
X034480Y022948D01*
X034492Y023107D02*
X039553Y023107D01*
X039553Y023265D02*
X034492Y023265D01*
X034175Y023741D02*
X033907Y023852D01*
X033616Y023852D01*
X033348Y023741D01*
X031516Y024660D02*
X031516Y025024D01*
X031259Y025282D01*
X030894Y025282D01*
X030636Y025024D01*
X030636Y024660D01*
X030894Y024402D01*
X031259Y024402D01*
X031516Y024660D01*
X031516Y024692D02*
X039553Y024692D01*
X039553Y024850D02*
X031516Y024850D01*
X031516Y025009D02*
X039553Y025009D01*
X039553Y025167D02*
X031373Y025167D01*
X031732Y025484D02*
X039553Y025484D01*
X039553Y025326D02*
X028112Y025326D01*
X027953Y025167D02*
X030780Y025167D01*
X030636Y025009D02*
X027795Y025009D01*
X027636Y024850D02*
X030636Y024850D01*
X030636Y024692D02*
X027478Y024692D01*
X027319Y024533D02*
X030763Y024533D01*
X031390Y024533D02*
X039553Y024533D01*
X039553Y024375D02*
X038261Y024375D01*
X038293Y024365D02*
X038208Y024392D01*
X038124Y024405D01*
X038124Y023890D01*
X038028Y023890D01*
X038028Y024405D01*
X037944Y024392D01*
X037860Y024365D01*
X037781Y024324D01*
X037709Y024272D01*
X037646Y024209D01*
X037892Y024375D02*
X027161Y024375D01*
X028125Y026277D02*
X031460Y026277D01*
X031618Y026435D02*
X029911Y026435D01*
X029873Y026398D02*
X030020Y026545D01*
X030100Y026738D01*
X030100Y026946D01*
X030020Y027139D01*
X029873Y027286D01*
X029681Y027366D01*
X029472Y027366D01*
X029280Y027286D01*
X029132Y027139D01*
X029053Y026946D01*
X029053Y026738D01*
X029132Y026545D01*
X029280Y026398D01*
X029472Y026318D01*
X029681Y026318D01*
X029873Y026398D01*
X030041Y026594D02*
X031777Y026594D01*
X031935Y026752D02*
X030100Y026752D01*
X030100Y026911D02*
X032053Y026911D01*
X032104Y027069D02*
X030049Y027069D01*
X029931Y027228D02*
X032222Y027228D01*
X032563Y026277D02*
X039553Y026277D01*
X039553Y026435D02*
X034911Y026435D01*
X035041Y026594D02*
X039553Y026594D01*
X039553Y026752D02*
X035100Y026752D01*
X035100Y026911D02*
X039553Y026911D01*
X039553Y027069D02*
X035049Y027069D01*
X034931Y027228D02*
X039553Y027228D01*
X039553Y027386D02*
X027751Y027386D01*
X027996Y027228D02*
X029222Y027228D01*
X029104Y027069D02*
X028099Y027069D01*
X028146Y026911D02*
X029053Y026911D01*
X029053Y026752D02*
X028146Y026752D01*
X028146Y026594D02*
X029112Y026594D01*
X029242Y026435D02*
X028146Y026435D01*
X024242Y026435D02*
X022911Y026435D01*
X023041Y026594D02*
X024112Y026594D01*
X024053Y026752D02*
X023100Y026752D01*
X023100Y026911D02*
X024053Y026911D01*
X024104Y027069D02*
X023049Y027069D01*
X022931Y027228D02*
X024222Y027228D01*
X031929Y025643D02*
X039553Y025643D01*
X039553Y025801D02*
X032087Y025801D01*
X032246Y025960D02*
X039553Y025960D01*
X039553Y026118D02*
X032404Y026118D01*
X032911Y026435D02*
X034242Y026435D01*
X038028Y024375D02*
X038124Y024375D01*
X038124Y024216D02*
X038028Y024216D01*
X038028Y024058D02*
X038124Y024058D01*
X038124Y023899D02*
X038028Y023899D01*
X038124Y023890D02*
X038640Y023890D01*
X038626Y023974D01*
X038599Y024058D01*
X039553Y024058D01*
X039553Y024216D02*
X038499Y024216D01*
X038506Y024209D02*
X038444Y024272D01*
X038372Y024324D01*
X038293Y024365D01*
X038506Y024209D02*
X038559Y024137D01*
X038599Y024058D01*
X038638Y023899D02*
X039553Y023899D01*
X039553Y023741D02*
X038631Y023741D01*
X038577Y023582D02*
X039553Y023582D01*
X039553Y023424D02*
X038456Y023424D01*
X038124Y023794D02*
X038124Y023890D01*
X035331Y020254D02*
X034492Y020254D01*
X034440Y020095D02*
X035168Y020095D01*
X035102Y019937D02*
X034366Y019937D01*
X034207Y019778D02*
X035102Y019778D01*
X035482Y017317D02*
X035308Y017244D01*
X035174Y017111D01*
X035102Y016936D01*
X035102Y016748D01*
X035174Y016573D01*
X035308Y016440D01*
X035482Y016367D01*
X035671Y016367D01*
X035845Y016440D01*
X035979Y016573D01*
X036051Y016748D01*
X036051Y016936D01*
X035979Y017111D01*
X035845Y017244D01*
X035671Y017317D01*
X035482Y017317D01*
X035306Y017242D02*
X034451Y017242D01*
X034476Y017084D02*
X035163Y017084D01*
X035102Y016925D02*
X034476Y016925D01*
X034476Y016767D02*
X035102Y016767D01*
X035159Y016608D02*
X034476Y016608D01*
X034455Y016450D02*
X035297Y016450D01*
X035856Y016450D02*
X039553Y016450D01*
X039553Y016608D02*
X035993Y016608D01*
X036051Y016767D02*
X039553Y016767D01*
X039553Y016925D02*
X036051Y016925D01*
X035990Y017084D02*
X039553Y017084D01*
X039553Y017242D02*
X035847Y017242D01*
X038314Y017401D02*
X039553Y017401D01*
X039553Y017559D02*
X038473Y017559D01*
X038556Y017718D02*
X039553Y017718D01*
X039553Y017876D02*
X038556Y017876D01*
X038556Y018035D02*
X039553Y018035D01*
X039553Y018193D02*
X038404Y018193D01*
X039553Y014389D02*
X034355Y014389D01*
X034456Y014231D02*
X039553Y014231D01*
X039553Y014072D02*
X034476Y014072D01*
X034476Y013914D02*
X039553Y013914D01*
X039553Y013755D02*
X034476Y013755D01*
X034476Y013597D02*
X039553Y013597D01*
X039553Y013438D02*
X034450Y013438D01*
X034340Y013280D02*
X039553Y013280D01*
X039553Y011536D02*
X030433Y011536D01*
X030468Y011669D02*
X030563Y011643D01*
X030630Y011635D01*
X030630Y012301D01*
X029963Y012301D01*
X029972Y012235D01*
X029998Y012139D01*
X030035Y012049D01*
X030085Y011963D01*
X030144Y011885D01*
X030214Y011816D01*
X030292Y011756D01*
X030377Y011706D01*
X030468Y011669D01*
X030405Y011695D02*
X030243Y011695D01*
X030176Y011853D02*
X029591Y011853D01*
X029710Y012012D02*
X030056Y012012D01*
X029989Y012170D02*
X029778Y012170D01*
X029800Y012487D02*
X029967Y012487D01*
X030007Y012646D02*
X029760Y012646D01*
X029678Y012804D02*
X030088Y012804D01*
X030235Y012963D02*
X029532Y012963D01*
X029137Y012963D02*
X028977Y012963D01*
X028977Y012804D02*
X029137Y012804D01*
X029137Y012646D02*
X028977Y012646D01*
X028581Y012963D02*
X027879Y012963D01*
X028025Y012804D02*
X028435Y012804D01*
X028354Y012646D02*
X028106Y012646D01*
X028147Y012487D02*
X028313Y012487D01*
X028336Y012170D02*
X028124Y012170D01*
X028057Y012012D02*
X028403Y012012D01*
X028523Y011853D02*
X027937Y011853D01*
X027909Y011695D02*
X027708Y011695D01*
X027735Y011536D02*
X026933Y011536D01*
X027070Y011706D02*
X027161Y011669D01*
X027256Y011643D01*
X027323Y011635D01*
X027323Y012301D01*
X026656Y012301D01*
X026665Y012235D01*
X026691Y012139D01*
X026728Y012049D01*
X026777Y011963D01*
X026837Y011885D01*
X026907Y011816D01*
X026985Y011756D01*
X027070Y011706D01*
X027098Y011695D02*
X026743Y011695D01*
X026869Y011853D02*
X026284Y011853D01*
X026403Y012012D02*
X026749Y012012D01*
X026682Y012170D02*
X026470Y012170D01*
X026493Y012487D02*
X026660Y012487D01*
X026700Y012646D02*
X026453Y012646D01*
X026371Y012804D02*
X026781Y012804D01*
X026928Y012963D02*
X026225Y012963D01*
X025830Y012963D02*
X025670Y012963D01*
X025670Y012804D02*
X025830Y012804D01*
X025830Y012646D02*
X025670Y012646D01*
X025029Y012170D02*
X024778Y012170D01*
X024713Y012012D02*
X025096Y012012D01*
X025216Y011853D02*
X024574Y011853D01*
X024296Y010902D02*
X025445Y010902D01*
X025216Y010744D02*
X024573Y010744D01*
X024712Y010585D02*
X025096Y010585D01*
X025029Y010427D02*
X024778Y010427D01*
X025670Y009951D02*
X025830Y009951D01*
X025830Y009793D02*
X025670Y009793D01*
X025670Y009634D02*
X025830Y009634D01*
X026470Y010427D02*
X026721Y010427D01*
X026781Y010585D02*
X026403Y010585D01*
X026284Y010744D02*
X026623Y010744D01*
X026464Y010902D02*
X026054Y010902D01*
X027092Y011378D02*
X027686Y011378D01*
X027686Y011219D02*
X027250Y011219D01*
X027409Y011061D02*
X027686Y011061D01*
X027483Y011695D02*
X027323Y011695D01*
X027323Y011853D02*
X027483Y011853D01*
X027483Y012012D02*
X027323Y012012D01*
X027323Y012170D02*
X027483Y012170D01*
X027483Y012646D02*
X027323Y012646D01*
X027323Y012804D02*
X027483Y012804D01*
X027483Y012963D02*
X027323Y012963D01*
X028466Y010902D02*
X028752Y010902D01*
X028523Y010744D02*
X028458Y010744D01*
X028403Y010585D02*
X028371Y010585D01*
X028336Y010427D02*
X028213Y010427D01*
X028977Y009951D02*
X029137Y009951D01*
X029137Y009793D02*
X028977Y009793D01*
X028977Y009634D02*
X029137Y009634D01*
X029778Y010427D02*
X030028Y010427D01*
X030094Y010585D02*
X029710Y010585D01*
X029591Y010744D02*
X030123Y010744D01*
X029964Y010902D02*
X029361Y010902D01*
X030592Y011378D02*
X039553Y011378D01*
X039553Y011219D02*
X030750Y011219D01*
X030909Y011061D02*
X039553Y011061D01*
X039553Y009317D02*
X000970Y009317D01*
X004548Y010902D02*
X005337Y010902D01*
X005207Y011061D02*
X004678Y011061D01*
X004743Y011219D02*
X005142Y011219D01*
X005139Y011378D02*
X004746Y011378D01*
X004713Y011536D02*
X005172Y011536D01*
X005251Y011695D02*
X004634Y011695D01*
X005171Y011853D02*
X005434Y011853D01*
X005373Y012012D02*
X005566Y012012D01*
X005475Y012170D02*
X005685Y012170D01*
X005804Y012329D02*
X005525Y012329D01*
X005536Y012487D02*
X005923Y012487D01*
X006042Y012646D02*
X005508Y012646D01*
X005436Y012804D02*
X006106Y012804D01*
X006106Y013280D02*
X005829Y013280D01*
X006035Y013438D02*
X006106Y013438D01*
X004390Y013121D02*
X004353Y013121D01*
X004353Y012963D02*
X004390Y012963D01*
X004390Y012804D02*
X004353Y012804D01*
X004353Y012646D02*
X004390Y012646D01*
X004390Y012487D02*
X004353Y012487D01*
X007246Y015499D02*
X007248Y015499D01*
X005006Y015816D02*
X000970Y015816D01*
X000970Y015974D02*
X005006Y015974D01*
X004999Y016133D02*
X000970Y016133D01*
X000970Y016291D02*
X003749Y016291D01*
X004353Y016291D02*
X004390Y016291D01*
X004390Y016450D02*
X004353Y016450D01*
X004353Y016608D02*
X004390Y016608D01*
X004390Y016767D02*
X004353Y016767D01*
X004353Y016925D02*
X004390Y016925D01*
X004390Y017084D02*
X004353Y017084D01*
X004353Y017242D02*
X004390Y017242D01*
X004390Y017401D02*
X004353Y017401D01*
X004353Y017559D02*
X004390Y017559D01*
X005154Y017559D02*
X005261Y017559D01*
X005021Y016291D02*
X004994Y016291D01*
X027846Y016450D02*
X028371Y016450D01*
X028222Y016291D02*
X027974Y016291D01*
X028016Y016133D02*
X028176Y016133D01*
X028176Y015974D02*
X028016Y015974D01*
X028016Y015816D02*
X028176Y015816D01*
X028176Y015657D02*
X028016Y015657D01*
X028009Y015499D02*
X028178Y015499D01*
X028252Y015340D02*
X027945Y015340D01*
X028931Y016291D02*
X032745Y016291D01*
X032657Y016450D02*
X028781Y016450D01*
X031356Y015499D02*
X032636Y015499D01*
X032640Y015657D02*
X031514Y015657D01*
X031516Y015816D02*
X032692Y015816D01*
X032841Y015974D02*
X031516Y015974D01*
X033076Y015974D02*
X033076Y015974D01*
X033076Y015816D02*
X033076Y015816D01*
X033076Y015657D02*
X033076Y015657D01*
X033076Y015499D02*
X033076Y015499D01*
X033076Y015340D02*
X033076Y015340D01*
X033076Y015182D02*
X033076Y015182D01*
X033076Y015023D02*
X033076Y015023D01*
X033076Y014865D02*
X033076Y014865D01*
X033076Y016291D02*
X033076Y016291D01*
X033076Y016450D02*
X033076Y016450D01*
X033076Y016608D02*
X033076Y016608D01*
X033076Y016767D02*
X033076Y016767D01*
X033076Y016925D02*
X033076Y016925D01*
X033076Y017084D02*
X033076Y017084D01*
X033076Y017242D02*
X033076Y017242D01*
X033076Y017401D02*
X033076Y017401D01*
X032839Y012963D02*
X033594Y012963D01*
X033435Y012804D02*
X032986Y012804D01*
X033067Y012646D02*
X033358Y012646D01*
X033306Y012487D02*
X033107Y012487D01*
X032444Y012646D02*
X032284Y012646D01*
X032284Y012804D02*
X032444Y012804D01*
X032444Y012963D02*
X032284Y012963D01*
X031888Y012963D02*
X031186Y012963D01*
X031332Y012804D02*
X031742Y012804D01*
X031661Y012646D02*
X031413Y012646D01*
X031454Y012487D02*
X031620Y012487D01*
X031617Y012301D02*
X031626Y012235D01*
X031651Y012139D01*
X031689Y012049D01*
X031738Y011963D01*
X031798Y011885D01*
X031868Y011816D01*
X031946Y011756D01*
X032031Y011706D01*
X032122Y011669D01*
X032217Y011643D01*
X032284Y011635D01*
X032284Y012301D01*
X031617Y012301D01*
X031643Y012170D02*
X031431Y012170D01*
X031364Y012012D02*
X031710Y012012D01*
X031830Y011853D02*
X031244Y011853D01*
X031015Y011695D02*
X032059Y011695D01*
X032284Y011695D02*
X032444Y011695D01*
X032444Y011853D02*
X032284Y011853D01*
X032284Y012012D02*
X032444Y012012D01*
X032444Y012170D02*
X032284Y012170D01*
X032059Y010902D02*
X031052Y010902D01*
X031188Y010744D02*
X031830Y010744D01*
X031710Y010585D02*
X031327Y010585D01*
X031392Y010427D02*
X031643Y010427D01*
X032284Y009951D02*
X032444Y009951D01*
X032444Y009793D02*
X032284Y009793D01*
X032284Y009634D02*
X032444Y009634D01*
X030790Y011695D02*
X030630Y011695D01*
X030630Y011853D02*
X030790Y011853D01*
X030790Y012012D02*
X030630Y012012D01*
X030630Y012170D02*
X030790Y012170D01*
X030790Y012646D02*
X030630Y012646D01*
X030630Y012804D02*
X030790Y012804D01*
X030790Y012963D02*
X030630Y012963D01*
X034441Y012963D02*
X035247Y012963D01*
X035089Y012804D02*
X034600Y012804D01*
X034677Y012646D02*
X035011Y012646D01*
X034960Y012487D02*
X034728Y012487D01*
X034728Y012329D02*
X034960Y012329D01*
X034989Y012170D02*
X034699Y012170D01*
X034634Y012012D02*
X035054Y012012D01*
X035193Y011853D02*
X034495Y011853D01*
D32*
X037978Y010810D03*
X037978Y026559D03*
X002545Y026559D03*
X002545Y010810D03*
D33*
X009576Y012342D03*
X015076Y012342D03*
X015576Y014342D03*
X018576Y014342D03*
X020576Y014342D03*
X024076Y014342D03*
X026576Y014342D03*
X028576Y013842D03*
X031076Y018342D03*
X029076Y020342D03*
X031076Y020842D03*
X034576Y021342D03*
X036576Y021342D03*
X035576Y024842D03*
X033576Y024842D03*
X031076Y027342D03*
X029076Y024842D03*
X026826Y027592D03*
X024576Y025842D03*
X022076Y025842D03*
X020576Y027842D03*
X020576Y023342D03*
X020576Y020842D03*
X018076Y020842D03*
X020576Y018342D03*
X025076Y021342D03*
X026576Y019342D03*
X015076Y018342D03*
X011576Y018342D03*
X008076Y023342D03*
X005076Y026342D03*
X015076Y024342D03*
D34*
X014276Y024642D02*
X013076Y025842D01*
X012076Y025842D01*
X011376Y025242D01*
X011376Y024640D01*
X014276Y024642D02*
X014276Y022142D01*
X016076Y020342D01*
X016076Y018342D01*
X018576Y018342D01*
X018608Y018342D02*
X018508Y018442D01*
X017076Y017342D02*
X021576Y017342D01*
X022576Y018342D01*
X022545Y018342D02*
X021576Y019310D01*
X021576Y019342D02*
X021576Y024342D01*
X022176Y024942D01*
X026076Y024942D01*
X027576Y026442D01*
X027576Y026842D01*
X017076Y017342D02*
X013076Y017342D01*
X013076Y017842D01*
X014576Y019342D01*
X013076Y017342D02*
X012376Y017042D01*
X007076Y017042D01*
X006826Y016492D01*
X006676Y016042D01*
X006676Y012542D01*
X005776Y011342D01*
X005576Y014342D02*
X005576Y016142D01*
X005876Y016642D01*
X005876Y017642D01*
X005576Y018142D01*
X005576Y019342D01*
X005826Y019592D01*
X006076Y019842D01*
X006076Y021842D01*
X005576Y022342D01*
X005576Y023342D01*
X005553Y014342D02*
X005576Y014342D01*
D35*
X006826Y016492D02*
X007076Y016342D01*
X006926Y016442D01*
X005876Y017642D02*
X005576Y017842D01*
X005076Y017842D01*
X005076Y018842D01*
X005553Y018842D01*
X005826Y019092D02*
X006076Y018842D01*
X006076Y019342D01*
X005826Y019592D01*
X005576Y022342D02*
X005076Y022342D01*
X005076Y023342D01*
X005553Y023342D01*
X018576Y018342D02*
X018608Y018342D01*
X019135Y012381D02*
X019076Y012342D01*
X025887Y020366D02*
X026076Y020342D01*
X005776Y011342D02*
X005722Y011342D01*
D36*
X007281Y011342D02*
X008840Y011342D01*
X005576Y023342D02*
X005976Y023742D01*
X006376Y023742D01*
X010576Y027342D01*
X013576Y027342D01*
X016576Y024342D01*
D37*
X015576Y024307D02*
X017576Y024307D01*
X017576Y024405D02*
X015576Y024405D01*
X015576Y024504D02*
X017576Y024504D01*
X017576Y024602D02*
X015576Y024602D01*
X015576Y024701D02*
X017576Y024701D01*
X017576Y024799D02*
X015576Y024799D01*
X015576Y024842D02*
X017576Y024842D01*
X017576Y023342D01*
X015576Y023342D01*
X015576Y024842D01*
X015576Y024208D02*
X017576Y024208D01*
X017576Y024110D02*
X015576Y024110D01*
X015576Y024011D02*
X017576Y024011D01*
X017576Y023913D02*
X015576Y023913D01*
X015576Y023814D02*
X017576Y023814D01*
X017576Y023716D02*
X015576Y023716D01*
X015576Y023617D02*
X017576Y023617D01*
X017576Y023519D02*
X015576Y023519D01*
X015576Y023420D02*
X017576Y023420D01*
D38*
X017276Y023642D03*
X016776Y023642D03*
X016276Y023642D03*
X015776Y023642D03*
X015776Y024142D03*
X016276Y024142D03*
X016776Y024142D03*
X017276Y024142D03*
X017276Y024642D03*
X016776Y024642D03*
X016276Y024642D03*
X015776Y024642D03*
M02*
