%
M48
M72
T01C0.0236
T02C0.0320
T03C0.0354
T04C0.0394
T05C0.0400
T06C0.0433
T07C0.0440
T08C0.0472
T09C0.0512
T10C0.0591
T11C0.0630
T12C0.0709
T13C0.0787
T14C0.1260
%
T01
X15776Y24642
X16276Y24642
X16776Y24642
X17276Y24642
X17276Y24142
X16776Y24142
X16276Y24142
X15776Y24142
X15776Y23642
X16276Y23642
X16776Y23642
X17276Y23642
T02
X16076Y15842
X17076Y15842
X9076Y14542
X9076Y13542
X27576Y15842
X28576Y15842
X33076Y15342
X34076Y15342
X34076Y16842
X33076Y16842
X33076Y13842
X34076Y13842
X37076Y15842
X37076Y19842
T03
X11407Y24570
X12746Y24570
X13415Y23035
X12076Y23035
X10738Y23035
T04
X5076Y26342
X5553Y23342
X3191Y23342
X4372Y21452
X5553Y18842
X4372Y16952
X3191Y18842
X3191Y14342
X4372Y12452
X5553Y14342
X9576Y12342
X15076Y12342
X15576Y14342
X18576Y14342
X20576Y14342
X24076Y14342
X26576Y14342
X28576Y13842
X31076Y18342
X29076Y20342
X31076Y20842
X34576Y21342
X36576Y21342
X35576Y24842
X33576Y24842
X31076Y27342
X29076Y24842
X26826Y27592
X24576Y25842
X22076Y25842
X20576Y27842
X15076Y24342
X18076Y20842
X20576Y20842
X20576Y23342
X25076Y21342
X26576Y19342
X20576Y18342
X15076Y18342
X11576Y18342
X8076Y23342
T05
X15376Y22342
X14576Y19342
X12576Y19342
X10576Y19342
X8576Y19342
X11376Y14042
X12376Y14042
X13376Y14042
X15376Y13342
X13076Y16342
X17076Y17342
X22576Y14342
X31076Y15842
X38076Y17842
X31076Y24842
X22576Y23342
X19576Y24342
X20076Y26842
T06
X6926Y19442
X6926Y16442
X7576Y15842
X7576Y12842
X25076Y18342
X28076Y18342
X35576Y19842
X35576Y16842
T07
X16076Y22342
X16076Y18342
T08
X18608Y18342
X22545Y18342
T09
X22576Y26842
X24576Y26842
X27576Y26842
X29576Y26842
X32576Y26842
X34576Y26842
X38076Y23842
X38076Y21842
T10
X4163Y11342
X5722Y11342
X7281Y11342
X8840Y11342
X10399Y11342
X11958Y11342
X13517Y11342
X15076Y11342
T11
X7667Y27326
X16486Y27326
T12
X17482Y12381
X19135Y12381
X20789Y12381
X22443Y12381
X24096Y12381
X25750Y12381
X27403Y12381
X29057Y12381
X30710Y12381
X32364Y12381
X34017Y12381
X35671Y12381
X35671Y10216
X34017Y10216
X32364Y10216
X30710Y10216
X29057Y10216
X27403Y10216
X25750Y10216
X24096Y10216
X22443Y10216
X20789Y10216
X19135Y10216
X17482Y10216
T13
X23919Y23121
X25887Y23121
X27856Y23121
X27856Y20366
X25887Y20366
X23919Y20366
X33761Y20366
X33761Y23121
T14
X2545Y10810
X2545Y26559
X37978Y10810
X37978Y26559
M30
