G75*
G70*
%OFA0B0*%
%FSLAX24Y24*%
%IPPOS*%
%LPD*%
%AMOC8*
5,1,8,0,0,1.08239X$1,22.5*
%
%ADD10C,0.0000*%
%ADD11OC8,0.0620*%
%ADD12C,0.0620*%
%ADD13R,0.0433X0.0394*%
%ADD14R,0.0886X0.0886*%
%ADD15C,0.0886*%
%ADD16C,0.1142*%
%ADD17OC8,0.0600*%
%ADD18C,0.0520*%
%ADD19C,0.0669*%
%ADD20R,0.0394X0.0433*%
%ADD21OC8,0.0520*%
%ADD22C,0.1181*%
%ADD23R,0.0709X0.0630*%
%ADD24C,0.0600*%
%ADD25C,0.0554*%
%ADD26C,0.0860*%
%ADD27C,0.0768*%
%ADD28C,0.0984*%
%ADD29C,0.1000*%
%ADD30OC8,0.1000*%
%ADD31C,0.0660*%
%ADD32C,0.0500*%
%ADD33C,0.0100*%
%ADD34C,0.0060*%
%ADD35C,0.0160*%
%ADD36C,0.1660*%
%ADD37C,0.0591*%
%ADD38C,0.0860*%
%ADD39C,0.1000*%
%ADD40C,0.0400*%
%ADD41C,0.0240*%
%ADD42C,0.0760*%
%ADD43C,0.0356*%
D10*
X000576Y008842D02*
X000576Y028527D01*
X039946Y028527D01*
X039946Y008842D01*
X000576Y008842D01*
X003978Y012255D02*
X004765Y012255D01*
X004791Y012257D01*
X004816Y012262D01*
X004840Y012270D01*
X004863Y012281D01*
X004885Y012296D01*
X004904Y012313D01*
X004921Y012332D01*
X004936Y012353D01*
X004947Y012377D01*
X004955Y012401D01*
X004960Y012426D01*
X004962Y012452D01*
X004960Y012478D01*
X004955Y012503D01*
X004947Y012527D01*
X004936Y012550D01*
X004921Y012572D01*
X004904Y012591D01*
X004885Y012608D01*
X004864Y012623D01*
X004840Y012634D01*
X004816Y012642D01*
X004791Y012647D01*
X004765Y012649D01*
X003978Y012649D01*
X003952Y012647D01*
X003927Y012642D01*
X003903Y012634D01*
X003879Y012623D01*
X003858Y012608D01*
X003839Y012591D01*
X003822Y012572D01*
X003807Y012551D01*
X003796Y012527D01*
X003788Y012503D01*
X003783Y012478D01*
X003781Y012452D01*
X003783Y012426D01*
X003788Y012401D01*
X003796Y012377D01*
X003807Y012354D01*
X003822Y012332D01*
X003839Y012313D01*
X003858Y012296D01*
X003879Y012281D01*
X003903Y012270D01*
X003927Y012262D01*
X003952Y012257D01*
X003978Y012255D01*
X005356Y013850D02*
X005356Y014834D01*
X005553Y015031D02*
X005579Y015029D01*
X005604Y015024D01*
X005628Y015016D01*
X005652Y015005D01*
X005673Y014990D01*
X005692Y014973D01*
X005709Y014954D01*
X005724Y014932D01*
X005735Y014909D01*
X005743Y014885D01*
X005748Y014860D01*
X005750Y014834D01*
X005750Y013850D01*
X005748Y013824D01*
X005743Y013799D01*
X005735Y013775D01*
X005724Y013751D01*
X005709Y013730D01*
X005692Y013711D01*
X005673Y013694D01*
X005651Y013679D01*
X005628Y013668D01*
X005604Y013660D01*
X005579Y013655D01*
X005553Y013653D01*
X005527Y013655D01*
X005502Y013660D01*
X005478Y013668D01*
X005454Y013679D01*
X005433Y013694D01*
X005414Y013711D01*
X005397Y013730D01*
X005382Y013752D01*
X005371Y013775D01*
X005363Y013799D01*
X005358Y013824D01*
X005356Y013850D01*
X005356Y014834D02*
X005358Y014860D01*
X005363Y014885D01*
X005371Y014909D01*
X005382Y014933D01*
X005397Y014954D01*
X005414Y014973D01*
X005433Y014990D01*
X005454Y015005D01*
X005478Y015016D01*
X005502Y015024D01*
X005527Y015029D01*
X005553Y015031D01*
X004765Y016755D02*
X003978Y016755D01*
X003781Y016952D02*
X003783Y016978D01*
X003788Y017003D01*
X003796Y017027D01*
X003807Y017051D01*
X003822Y017072D01*
X003839Y017091D01*
X003858Y017108D01*
X003879Y017123D01*
X003903Y017134D01*
X003927Y017142D01*
X003952Y017147D01*
X003978Y017149D01*
X004765Y017149D01*
X004962Y016952D02*
X004960Y016926D01*
X004955Y016901D01*
X004947Y016877D01*
X004936Y016853D01*
X004921Y016832D01*
X004904Y016813D01*
X004885Y016796D01*
X004863Y016781D01*
X004840Y016770D01*
X004816Y016762D01*
X004791Y016757D01*
X004765Y016755D01*
X004962Y016952D02*
X004960Y016978D01*
X004955Y017003D01*
X004947Y017027D01*
X004936Y017050D01*
X004921Y017072D01*
X004904Y017091D01*
X004885Y017108D01*
X004864Y017123D01*
X004840Y017134D01*
X004816Y017142D01*
X004791Y017147D01*
X004765Y017149D01*
X003978Y016755D02*
X003952Y016757D01*
X003927Y016762D01*
X003903Y016770D01*
X003879Y016781D01*
X003858Y016796D01*
X003839Y016813D01*
X003822Y016832D01*
X003807Y016854D01*
X003796Y016877D01*
X003788Y016901D01*
X003783Y016926D01*
X003781Y016952D01*
X003387Y018448D02*
X003387Y019236D01*
X003388Y019236D02*
X003386Y019262D01*
X003381Y019287D01*
X003373Y019311D01*
X003362Y019334D01*
X003347Y019356D01*
X003330Y019375D01*
X003311Y019392D01*
X003290Y019407D01*
X003266Y019418D01*
X003242Y019426D01*
X003217Y019431D01*
X003191Y019433D01*
X003165Y019431D01*
X003140Y019426D01*
X003116Y019418D01*
X003092Y019407D01*
X003071Y019392D01*
X003052Y019375D01*
X003035Y019356D01*
X003020Y019335D01*
X003009Y019311D01*
X003001Y019287D01*
X002996Y019262D01*
X002994Y019236D01*
X002994Y018448D01*
X003191Y018251D02*
X003217Y018253D01*
X003242Y018258D01*
X003266Y018266D01*
X003289Y018277D01*
X003311Y018292D01*
X003330Y018309D01*
X003347Y018328D01*
X003362Y018349D01*
X003373Y018373D01*
X003381Y018397D01*
X003386Y018422D01*
X003388Y018448D01*
X003191Y018251D02*
X003165Y018253D01*
X003140Y018258D01*
X003116Y018266D01*
X003092Y018277D01*
X003071Y018292D01*
X003052Y018309D01*
X003035Y018328D01*
X003020Y018350D01*
X003009Y018373D01*
X003001Y018397D01*
X002996Y018422D01*
X002994Y018448D01*
X005356Y018350D02*
X005356Y019334D01*
X005553Y019531D02*
X005579Y019529D01*
X005604Y019524D01*
X005628Y019516D01*
X005652Y019505D01*
X005673Y019490D01*
X005692Y019473D01*
X005709Y019454D01*
X005724Y019432D01*
X005735Y019409D01*
X005743Y019385D01*
X005748Y019360D01*
X005750Y019334D01*
X005750Y018350D01*
X005748Y018324D01*
X005743Y018299D01*
X005735Y018275D01*
X005724Y018251D01*
X005709Y018230D01*
X005692Y018211D01*
X005673Y018194D01*
X005651Y018179D01*
X005628Y018168D01*
X005604Y018160D01*
X005579Y018155D01*
X005553Y018153D01*
X005527Y018155D01*
X005502Y018160D01*
X005478Y018168D01*
X005454Y018179D01*
X005433Y018194D01*
X005414Y018211D01*
X005397Y018230D01*
X005382Y018252D01*
X005371Y018275D01*
X005363Y018299D01*
X005358Y018324D01*
X005356Y018350D01*
X005356Y019334D02*
X005358Y019360D01*
X005363Y019385D01*
X005371Y019409D01*
X005382Y019433D01*
X005397Y019454D01*
X005414Y019473D01*
X005433Y019490D01*
X005454Y019505D01*
X005478Y019516D01*
X005502Y019524D01*
X005527Y019529D01*
X005553Y019531D01*
X004765Y021255D02*
X003978Y021255D01*
X003781Y021452D02*
X003783Y021478D01*
X003788Y021503D01*
X003796Y021527D01*
X003807Y021551D01*
X003822Y021572D01*
X003839Y021591D01*
X003858Y021608D01*
X003879Y021623D01*
X003903Y021634D01*
X003927Y021642D01*
X003952Y021647D01*
X003978Y021649D01*
X004765Y021649D01*
X004962Y021452D02*
X004960Y021426D01*
X004955Y021401D01*
X004947Y021377D01*
X004936Y021353D01*
X004921Y021332D01*
X004904Y021313D01*
X004885Y021296D01*
X004863Y021281D01*
X004840Y021270D01*
X004816Y021262D01*
X004791Y021257D01*
X004765Y021255D01*
X004962Y021452D02*
X004960Y021478D01*
X004955Y021503D01*
X004947Y021527D01*
X004936Y021550D01*
X004921Y021572D01*
X004904Y021591D01*
X004885Y021608D01*
X004864Y021623D01*
X004840Y021634D01*
X004816Y021642D01*
X004791Y021647D01*
X004765Y021649D01*
X003978Y021255D02*
X003952Y021257D01*
X003927Y021262D01*
X003903Y021270D01*
X003879Y021281D01*
X003858Y021296D01*
X003839Y021313D01*
X003822Y021332D01*
X003807Y021354D01*
X003796Y021377D01*
X003788Y021401D01*
X003783Y021426D01*
X003781Y021452D01*
X003387Y022948D02*
X003387Y023736D01*
X003388Y023736D02*
X003386Y023762D01*
X003381Y023787D01*
X003373Y023811D01*
X003362Y023834D01*
X003347Y023856D01*
X003330Y023875D01*
X003311Y023892D01*
X003290Y023907D01*
X003266Y023918D01*
X003242Y023926D01*
X003217Y023931D01*
X003191Y023933D01*
X003165Y023931D01*
X003140Y023926D01*
X003116Y023918D01*
X003092Y023907D01*
X003071Y023892D01*
X003052Y023875D01*
X003035Y023856D01*
X003020Y023835D01*
X003009Y023811D01*
X003001Y023787D01*
X002996Y023762D01*
X002994Y023736D01*
X002994Y022948D01*
X003191Y022751D02*
X003217Y022753D01*
X003242Y022758D01*
X003266Y022766D01*
X003289Y022777D01*
X003311Y022792D01*
X003330Y022809D01*
X003347Y022828D01*
X003362Y022849D01*
X003373Y022873D01*
X003381Y022897D01*
X003386Y022922D01*
X003388Y022948D01*
X003191Y022751D02*
X003165Y022753D01*
X003140Y022758D01*
X003116Y022766D01*
X003092Y022777D01*
X003071Y022792D01*
X003052Y022809D01*
X003035Y022828D01*
X003020Y022850D01*
X003009Y022873D01*
X003001Y022897D01*
X002996Y022922D01*
X002994Y022948D01*
X005356Y022850D02*
X005356Y023834D01*
X005553Y024031D02*
X005579Y024029D01*
X005604Y024024D01*
X005628Y024016D01*
X005652Y024005D01*
X005673Y023990D01*
X005692Y023973D01*
X005709Y023954D01*
X005724Y023932D01*
X005735Y023909D01*
X005743Y023885D01*
X005748Y023860D01*
X005750Y023834D01*
X005750Y022850D01*
X005748Y022824D01*
X005743Y022799D01*
X005735Y022775D01*
X005724Y022751D01*
X005709Y022730D01*
X005692Y022711D01*
X005673Y022694D01*
X005651Y022679D01*
X005628Y022668D01*
X005604Y022660D01*
X005579Y022655D01*
X005553Y022653D01*
X005527Y022655D01*
X005502Y022660D01*
X005478Y022668D01*
X005454Y022679D01*
X005433Y022694D01*
X005414Y022711D01*
X005397Y022730D01*
X005382Y022752D01*
X005371Y022775D01*
X005363Y022799D01*
X005358Y022824D01*
X005356Y022850D01*
X005356Y023834D02*
X005358Y023860D01*
X005363Y023885D01*
X005371Y023909D01*
X005382Y023933D01*
X005397Y023954D01*
X005414Y023973D01*
X005433Y023990D01*
X005454Y024005D01*
X005478Y024016D01*
X005502Y024024D01*
X005527Y024029D01*
X005553Y024031D01*
X007352Y027326D02*
X007354Y027361D01*
X007360Y027396D01*
X007370Y027430D01*
X007383Y027463D01*
X007400Y027494D01*
X007421Y027522D01*
X007444Y027549D01*
X007471Y027572D01*
X007499Y027593D01*
X007530Y027610D01*
X007563Y027623D01*
X007597Y027633D01*
X007632Y027639D01*
X007667Y027641D01*
X007702Y027639D01*
X007737Y027633D01*
X007771Y027623D01*
X007804Y027610D01*
X007835Y027593D01*
X007863Y027572D01*
X007890Y027549D01*
X007913Y027522D01*
X007934Y027494D01*
X007951Y027463D01*
X007964Y027430D01*
X007974Y027396D01*
X007980Y027361D01*
X007982Y027326D01*
X007980Y027291D01*
X007974Y027256D01*
X007964Y027222D01*
X007951Y027189D01*
X007934Y027158D01*
X007913Y027130D01*
X007890Y027103D01*
X007863Y027080D01*
X007835Y027059D01*
X007804Y027042D01*
X007771Y027029D01*
X007737Y027019D01*
X007702Y027013D01*
X007667Y027011D01*
X007632Y027013D01*
X007597Y027019D01*
X007563Y027029D01*
X007530Y027042D01*
X007499Y027059D01*
X007471Y027080D01*
X007444Y027103D01*
X007421Y027130D01*
X007400Y027158D01*
X007383Y027189D01*
X007370Y027222D01*
X007360Y027256D01*
X007354Y027291D01*
X007352Y027326D01*
X016171Y027326D02*
X016173Y027361D01*
X016179Y027396D01*
X016189Y027430D01*
X016202Y027463D01*
X016219Y027494D01*
X016240Y027522D01*
X016263Y027549D01*
X016290Y027572D01*
X016318Y027593D01*
X016349Y027610D01*
X016382Y027623D01*
X016416Y027633D01*
X016451Y027639D01*
X016486Y027641D01*
X016521Y027639D01*
X016556Y027633D01*
X016590Y027623D01*
X016623Y027610D01*
X016654Y027593D01*
X016682Y027572D01*
X016709Y027549D01*
X016732Y027522D01*
X016753Y027494D01*
X016770Y027463D01*
X016783Y027430D01*
X016793Y027396D01*
X016799Y027361D01*
X016801Y027326D01*
X016799Y027291D01*
X016793Y027256D01*
X016783Y027222D01*
X016770Y027189D01*
X016753Y027158D01*
X016732Y027130D01*
X016709Y027103D01*
X016682Y027080D01*
X016654Y027059D01*
X016623Y027042D01*
X016590Y027029D01*
X016556Y027019D01*
X016521Y027013D01*
X016486Y027011D01*
X016451Y027013D01*
X016416Y027019D01*
X016382Y027029D01*
X016349Y027042D01*
X016318Y027059D01*
X016290Y027080D01*
X016263Y027103D01*
X016240Y027130D01*
X016219Y027158D01*
X016202Y027189D01*
X016189Y027222D01*
X016179Y027256D01*
X016173Y027291D01*
X016171Y027326D01*
X003387Y014736D02*
X003387Y013948D01*
X003388Y013948D02*
X003386Y013922D01*
X003381Y013897D01*
X003373Y013873D01*
X003362Y013849D01*
X003347Y013828D01*
X003330Y013809D01*
X003311Y013792D01*
X003289Y013777D01*
X003266Y013766D01*
X003242Y013758D01*
X003217Y013753D01*
X003191Y013751D01*
X003165Y013753D01*
X003140Y013758D01*
X003116Y013766D01*
X003092Y013777D01*
X003071Y013792D01*
X003052Y013809D01*
X003035Y013828D01*
X003020Y013850D01*
X003009Y013873D01*
X003001Y013897D01*
X002996Y013922D01*
X002994Y013948D01*
X002994Y014736D01*
X003191Y014933D02*
X003217Y014931D01*
X003242Y014926D01*
X003266Y014918D01*
X003290Y014907D01*
X003311Y014892D01*
X003330Y014875D01*
X003347Y014856D01*
X003362Y014834D01*
X003373Y014811D01*
X003381Y014787D01*
X003386Y014762D01*
X003388Y014736D01*
X003191Y014933D02*
X003165Y014931D01*
X003140Y014926D01*
X003116Y014918D01*
X003092Y014907D01*
X003071Y014892D01*
X003052Y014875D01*
X003035Y014856D01*
X003020Y014835D01*
X003009Y014811D01*
X003001Y014787D01*
X002996Y014762D01*
X002994Y014736D01*
D11*
X009076Y013542D03*
X017076Y015842D03*
D12*
X016076Y015842D03*
X009076Y014542D03*
D13*
X011442Y012342D03*
X012111Y012342D03*
X012842Y012342D03*
X013511Y012342D03*
X012411Y021942D03*
X011742Y021942D03*
X010711Y021942D03*
X010042Y021942D03*
D14*
X015076Y011342D03*
D15*
X013517Y011342D03*
X011958Y011342D03*
X010399Y011342D03*
X008840Y011342D03*
X007281Y011342D03*
X005722Y011342D03*
X004163Y011342D03*
D16*
X017482Y012381D03*
X019135Y012381D03*
X020789Y012381D03*
X022443Y012381D03*
X024096Y012381D03*
X025750Y012381D03*
X027403Y012381D03*
X029057Y012381D03*
X030710Y012381D03*
X032364Y012381D03*
X034017Y012381D03*
X035671Y012381D03*
X035671Y010216D03*
X034017Y010216D03*
X032364Y010216D03*
X030710Y010216D03*
X029057Y010216D03*
X027403Y010216D03*
X025750Y010216D03*
X024096Y010216D03*
X022443Y010216D03*
X020789Y010216D03*
X019135Y010216D03*
X017482Y010216D03*
D17*
X015376Y013342D03*
X013076Y016342D03*
X017076Y017342D03*
X022576Y014342D03*
X031076Y015842D03*
X038076Y017842D03*
X031076Y024842D03*
X022576Y023342D03*
X019576Y024342D03*
X020076Y026842D03*
X015376Y022342D03*
D18*
X027576Y016102D02*
X027576Y015582D01*
X028576Y015582D02*
X028576Y016102D01*
X033076Y016582D02*
X033076Y017102D01*
X034076Y017102D02*
X034076Y016582D01*
X034076Y015602D02*
X034076Y015082D01*
X033076Y015082D02*
X033076Y015602D01*
X033076Y014102D02*
X033076Y013582D01*
X034076Y013582D02*
X034076Y014102D01*
D19*
X035576Y016842D03*
X035576Y019842D03*
X028076Y018342D03*
X025076Y018342D03*
X007576Y015842D03*
X006926Y016442D03*
X006926Y019442D03*
X007576Y012842D03*
D20*
X027742Y014842D03*
X028411Y014842D03*
X037242Y014842D03*
X037911Y014842D03*
X037911Y013842D03*
X037242Y013842D03*
X037242Y012842D03*
X037911Y012842D03*
D21*
X037076Y015842D03*
X037076Y019842D03*
D22*
X033761Y020366D03*
X033761Y023121D03*
X027856Y023121D03*
X025887Y023121D03*
X023919Y023121D03*
X023919Y020366D03*
X025887Y020366D03*
X027856Y020366D03*
D23*
X017576Y019893D03*
X017576Y018791D03*
D24*
X013376Y014342D02*
X013376Y013742D01*
X012376Y013742D02*
X012376Y014342D01*
X011376Y014342D02*
X011376Y013742D01*
D25*
X010738Y022758D02*
X010738Y023312D01*
X011407Y024293D02*
X011407Y024847D01*
X012746Y024847D02*
X012746Y024293D01*
X013415Y023312D02*
X013415Y022758D01*
X012076Y022758D02*
X012076Y023312D01*
D26*
X018608Y018342D03*
X022545Y018342D03*
D27*
X022576Y026842D03*
X024576Y026842D03*
X027576Y026842D03*
X029576Y026842D03*
X032576Y026842D03*
X034576Y026842D03*
X038076Y023842D03*
X038076Y021842D03*
D28*
X005553Y022850D02*
X005553Y023834D01*
X003191Y023834D02*
X003191Y022850D01*
X003880Y021452D02*
X004864Y021452D01*
X005553Y019334D02*
X005553Y018350D01*
X004864Y016952D02*
X003880Y016952D01*
X003191Y018350D02*
X003191Y019334D01*
X003191Y014834D02*
X003191Y013850D01*
X003880Y012452D02*
X004864Y012452D01*
X005553Y013850D02*
X005553Y014834D01*
D29*
X008576Y019342D03*
X014576Y019342D03*
D30*
X012576Y019342D03*
X010576Y019342D03*
D31*
X016076Y018342D03*
X016076Y022342D03*
D32*
X016576Y020842D02*
X014576Y020842D01*
X013415Y022003D01*
X013415Y023035D01*
X012746Y021842D02*
X012746Y021173D01*
X014576Y019342D01*
X016576Y020842D02*
X017576Y019842D01*
X012746Y021842D02*
X012746Y024570D01*
X010738Y023035D02*
X010476Y023096D01*
X010269Y023035D02*
X010738Y023035D01*
X007026Y019342D02*
X006926Y019442D01*
X007026Y019342D02*
X008576Y019342D01*
X007576Y015842D02*
X006476Y014742D01*
X006476Y010742D01*
X006076Y010342D01*
X004576Y010342D01*
X004576Y010842D01*
X004076Y011342D01*
X004163Y011342D02*
X004163Y011329D01*
X007576Y012342D02*
X007742Y012507D01*
X007742Y012677D01*
X007576Y012842D01*
X009076Y014542D02*
X009576Y014042D01*
X009876Y014042D01*
X011076Y014042D02*
X011442Y013677D01*
X011442Y012342D01*
X013511Y012342D02*
X013511Y013907D01*
X013376Y014042D01*
X024576Y018342D02*
X025076Y018342D01*
X026076Y017342D01*
X030076Y017342D01*
X031076Y016342D01*
X031076Y015842D01*
X028076Y018342D02*
X027856Y018562D01*
X025887Y020366D02*
X026076Y020555D01*
X028076Y022842D02*
X027797Y023121D01*
X027576Y023342D01*
X029576Y023342D01*
X031076Y024842D01*
X032576Y026842D02*
X034576Y026842D01*
X027856Y023121D02*
X027797Y023121D01*
X026076Y023310D02*
X025887Y023121D01*
D33*
X029576Y026842D02*
X030076Y026342D01*
X035176Y026342D01*
X036976Y024542D01*
X038376Y024542D01*
X038876Y024042D01*
X038876Y014142D01*
X038576Y013842D01*
X037911Y013842D01*
X037242Y013842D02*
X036076Y013842D01*
X034576Y015342D01*
X034076Y015342D01*
X035576Y016342D02*
X035576Y016842D01*
X035576Y016342D02*
X036576Y015342D01*
X037576Y015342D01*
X037911Y015007D01*
X037911Y014842D01*
X037242Y014842D02*
X036076Y014842D01*
X034076Y016842D01*
X034076Y013842D02*
X035076Y013842D01*
X035576Y013342D01*
X036076Y013342D01*
X036576Y012842D01*
X037242Y012842D01*
X037911Y012842D02*
X038576Y012842D01*
X039076Y013342D01*
X039076Y024342D01*
X038576Y024842D01*
X037076Y024842D01*
X035076Y026842D01*
X034576Y026842D01*
X028576Y015842D02*
X027742Y015007D01*
X027742Y014842D01*
X028576Y014842D02*
X029076Y014842D01*
X030076Y013842D01*
X032076Y013842D01*
X033176Y012742D01*
X033176Y009942D01*
X032576Y009342D01*
X025076Y009342D01*
X024202Y010216D01*
X024096Y010216D01*
X017576Y023342D02*
X015576Y023342D01*
X015576Y024842D01*
X017576Y024842D01*
X017576Y023342D01*
X017576Y023420D02*
X015576Y023420D01*
X015576Y023519D02*
X017576Y023519D01*
X017576Y023617D02*
X015576Y023617D01*
X015576Y023716D02*
X017576Y023716D01*
X017576Y023814D02*
X015576Y023814D01*
X015576Y023913D02*
X017576Y023913D01*
X017576Y024011D02*
X015576Y024011D01*
X015576Y024110D02*
X017576Y024110D01*
X017576Y024208D02*
X015576Y024208D01*
X015576Y024307D02*
X017576Y024307D01*
X017576Y024405D02*
X015576Y024405D01*
X015576Y024504D02*
X017576Y024504D01*
X017576Y024602D02*
X015576Y024602D01*
X015576Y024701D02*
X017576Y024701D01*
X017576Y024799D02*
X015576Y024799D01*
D34*
X012746Y021842D02*
X012576Y021842D01*
X012411Y021942D01*
X010076Y021842D02*
X010042Y021942D01*
X010076Y021842D02*
X009576Y021842D01*
X009326Y022092D01*
X005576Y023342D02*
X005553Y023342D01*
X005076Y023342D01*
X017576Y019893D02*
X017576Y019842D01*
X007576Y011342D02*
X007281Y011342D01*
X004163Y011342D02*
X004076Y011342D01*
X028411Y014842D02*
X028576Y014842D01*
D35*
X028748Y015032D02*
X028748Y015116D01*
X028675Y015190D01*
X028803Y015243D01*
X028915Y015355D01*
X028976Y015502D01*
X028976Y016182D01*
X028915Y016329D01*
X028803Y016441D01*
X028656Y016502D01*
X028497Y016502D01*
X028350Y016441D01*
X028237Y016329D01*
X028176Y016182D01*
X028176Y015711D01*
X028016Y015551D01*
X028016Y015842D01*
X028016Y016137D01*
X028006Y016205D01*
X027984Y016271D01*
X027953Y016333D01*
X027912Y016389D01*
X027863Y016438D01*
X027807Y016478D01*
X027745Y016510D01*
X027679Y016531D01*
X027611Y016542D01*
X027576Y016542D01*
X027542Y016542D01*
X027473Y016531D01*
X027407Y016510D01*
X027346Y016478D01*
X027290Y016438D01*
X027241Y016389D01*
X027200Y016333D01*
X027169Y016271D01*
X027147Y016205D01*
X027136Y016137D01*
X027136Y015842D01*
X027576Y015842D01*
X027576Y015842D01*
X027136Y015842D01*
X027136Y015547D01*
X027147Y015479D01*
X027169Y015413D01*
X027200Y015351D01*
X027241Y015295D01*
X027290Y015246D01*
X027346Y015206D01*
X027407Y015174D01*
X027449Y015161D01*
X027405Y015116D01*
X027405Y014567D01*
X027487Y014485D01*
X027997Y014485D01*
X028076Y014565D01*
X028156Y014485D01*
X028666Y014485D01*
X028748Y014567D01*
X028748Y014652D01*
X028998Y014652D01*
X029998Y013652D01*
X031998Y013652D01*
X032538Y013112D01*
X032511Y013119D01*
X032444Y013128D01*
X032444Y012461D01*
X032284Y012461D01*
X032284Y012301D01*
X032444Y012301D01*
X032444Y011635D01*
X032511Y011643D01*
X032606Y011669D01*
X032697Y011706D01*
X032782Y011756D01*
X032860Y011816D01*
X032930Y011885D01*
X032986Y011959D01*
X032986Y010638D01*
X032930Y010712D01*
X032860Y010782D01*
X032782Y010842D01*
X032697Y010891D01*
X032606Y010929D01*
X032511Y010954D01*
X032444Y010963D01*
X032444Y010296D01*
X032284Y010296D01*
X032284Y010963D01*
X032217Y010954D01*
X032122Y010929D01*
X032031Y010891D01*
X031946Y010842D01*
X031868Y010782D01*
X031798Y010712D01*
X031738Y010634D01*
X031689Y010549D01*
X031651Y010458D01*
X031626Y010363D01*
X031617Y010296D01*
X032284Y010296D01*
X032284Y010136D01*
X031617Y010136D01*
X031626Y010069D01*
X031651Y009974D01*
X031689Y009883D01*
X031738Y009798D01*
X031798Y009720D01*
X031868Y009650D01*
X031946Y009590D01*
X032031Y009541D01*
X032053Y009532D01*
X030916Y009532D01*
X031113Y009613D01*
X031313Y009813D01*
X031421Y010075D01*
X031421Y010357D01*
X031313Y010619D01*
X031113Y010819D01*
X030852Y010927D01*
X030569Y010927D01*
X030308Y010819D01*
X030108Y010619D01*
X029999Y010357D01*
X029999Y010075D01*
X030108Y009813D01*
X030308Y009613D01*
X030504Y009532D01*
X029367Y009532D01*
X029390Y009541D01*
X029475Y009590D01*
X029553Y009650D01*
X029622Y009720D01*
X029682Y009798D01*
X029732Y009883D01*
X029769Y009974D01*
X029795Y010069D01*
X029804Y010136D01*
X029137Y010136D01*
X029137Y010296D01*
X029804Y010296D01*
X029795Y010363D01*
X029769Y010458D01*
X029732Y010549D01*
X029682Y010634D01*
X029622Y010712D01*
X029553Y010782D01*
X029475Y010842D01*
X029390Y010891D01*
X029299Y010929D01*
X029203Y010954D01*
X029137Y010963D01*
X029137Y010296D01*
X028977Y010296D01*
X028977Y010963D01*
X028910Y010954D01*
X028815Y010929D01*
X028724Y010891D01*
X028639Y010842D01*
X028561Y010782D01*
X028491Y010712D01*
X028431Y010634D01*
X028382Y010549D01*
X028344Y010458D01*
X028319Y010363D01*
X028310Y010296D01*
X028977Y010296D01*
X028977Y010136D01*
X028310Y010136D01*
X028319Y010069D01*
X028344Y009974D01*
X028382Y009883D01*
X028431Y009798D01*
X028491Y009720D01*
X028561Y009650D01*
X028639Y009590D01*
X028724Y009541D01*
X028746Y009532D01*
X027609Y009532D01*
X027806Y009613D01*
X028006Y009813D01*
X028114Y010075D01*
X028114Y010357D01*
X028006Y010619D01*
X027806Y010819D01*
X027545Y010927D01*
X027262Y010927D01*
X027000Y010819D01*
X026801Y010619D01*
X026692Y010357D01*
X026692Y010075D01*
X026801Y009813D01*
X027000Y009613D01*
X027197Y009532D01*
X026060Y009532D01*
X026082Y009541D01*
X026168Y009590D01*
X026246Y009650D01*
X026315Y009720D01*
X026375Y009798D01*
X026424Y009883D01*
X026462Y009974D01*
X026488Y010069D01*
X026496Y010136D01*
X025830Y010136D01*
X025830Y010296D01*
X026496Y010296D01*
X026488Y010363D01*
X026462Y010458D01*
X026424Y010549D01*
X026375Y010634D01*
X026315Y010712D01*
X026246Y010782D01*
X026168Y010842D01*
X026082Y010891D01*
X025991Y010929D01*
X025896Y010954D01*
X025830Y010963D01*
X025830Y010296D01*
X025670Y010296D01*
X025670Y010963D01*
X025603Y010954D01*
X025508Y010929D01*
X025417Y010891D01*
X025332Y010842D01*
X025253Y010782D01*
X025184Y010712D01*
X025124Y010634D01*
X025075Y010549D01*
X025037Y010458D01*
X025012Y010363D01*
X025003Y010296D01*
X025670Y010296D01*
X025670Y010136D01*
X025003Y010136D01*
X025012Y010069D01*
X025037Y009974D01*
X025075Y009883D01*
X025124Y009798D01*
X025184Y009720D01*
X025253Y009650D01*
X025332Y009590D01*
X025417Y009541D01*
X025439Y009532D01*
X025155Y009532D01*
X024750Y009937D01*
X024807Y010075D01*
X024807Y010357D01*
X024699Y010619D01*
X024499Y010819D01*
X024237Y010927D01*
X023955Y010927D01*
X023693Y010819D01*
X023493Y010619D01*
X023385Y010357D01*
X023385Y010075D01*
X023493Y009813D01*
X023693Y009613D01*
X023955Y009505D01*
X024237Y009505D01*
X024499Y009613D01*
X024518Y009632D01*
X024886Y009263D01*
X024914Y009236D01*
X000970Y009236D01*
X000970Y028133D01*
X039553Y028133D01*
X039553Y009236D01*
X032739Y009236D01*
X033255Y009752D01*
X033366Y009863D01*
X033366Y009930D01*
X033415Y009813D01*
X033615Y009613D01*
X033876Y009505D01*
X034159Y009505D01*
X034420Y009613D01*
X034620Y009813D01*
X034728Y010075D01*
X034728Y010357D01*
X034620Y010619D01*
X034420Y010819D01*
X034159Y010927D01*
X033876Y010927D01*
X033615Y010819D01*
X033415Y010619D01*
X033366Y010502D01*
X033366Y012095D01*
X033415Y011979D01*
X033615Y011779D01*
X033876Y011670D01*
X034159Y011670D01*
X034420Y011779D01*
X034620Y011979D01*
X034728Y012240D01*
X034728Y012523D01*
X034620Y012784D01*
X034420Y012984D01*
X034159Y013092D01*
X033876Y013092D01*
X033615Y012984D01*
X033415Y012784D01*
X033366Y012667D01*
X033366Y012821D01*
X033045Y013142D01*
X033076Y013142D01*
X033076Y013842D01*
X033076Y013842D01*
X032636Y013842D01*
X032636Y014137D01*
X032647Y014205D01*
X032669Y014271D01*
X032700Y014333D01*
X032741Y014389D01*
X032790Y014438D01*
X032846Y014478D01*
X032907Y014510D01*
X032973Y014531D01*
X033042Y014542D01*
X033076Y014542D01*
X033076Y013842D01*
X032636Y013842D01*
X032636Y013551D01*
X032266Y013921D01*
X032155Y014032D01*
X030155Y014032D01*
X029266Y014921D01*
X029155Y015032D01*
X028748Y015032D01*
X028682Y015182D02*
X032636Y015182D01*
X032636Y015047D02*
X032647Y014979D01*
X032669Y014913D01*
X032700Y014851D01*
X032741Y014795D01*
X032790Y014746D01*
X032846Y014706D01*
X032907Y014674D01*
X032973Y014653D01*
X033042Y014642D01*
X033076Y014642D01*
X033076Y015342D01*
X033076Y015342D01*
X032636Y015342D01*
X032636Y015637D01*
X032647Y015705D01*
X032669Y015771D01*
X032700Y015833D01*
X032741Y015889D01*
X032790Y015938D01*
X032846Y015978D01*
X032907Y016010D01*
X032973Y016031D01*
X033042Y016042D01*
X033076Y016042D01*
X033076Y015342D01*
X032636Y015342D01*
X032636Y015047D01*
X032640Y015023D02*
X029164Y015023D01*
X029322Y014865D02*
X032693Y014865D01*
X032845Y014706D02*
X029481Y014706D01*
X029639Y014548D02*
X035102Y014548D01*
X035260Y014389D02*
X034355Y014389D01*
X034303Y014441D02*
X034156Y014502D01*
X033997Y014502D01*
X033850Y014441D01*
X033737Y014329D01*
X033676Y014182D01*
X033676Y013502D01*
X033737Y013355D01*
X033850Y013243D01*
X033997Y013182D01*
X034156Y013182D01*
X034303Y013243D01*
X034415Y013355D01*
X034476Y013502D01*
X034476Y013652D01*
X034998Y013652D01*
X035386Y013263D01*
X035498Y013152D01*
X035998Y013152D01*
X036386Y012763D01*
X036498Y012652D01*
X036905Y012652D01*
X036905Y012567D01*
X036987Y012485D01*
X037497Y012485D01*
X037576Y012565D01*
X037656Y012485D01*
X038166Y012485D01*
X038248Y012567D01*
X038248Y012652D01*
X038655Y012652D01*
X039155Y013152D01*
X039266Y013263D01*
X039266Y024421D01*
X038766Y024921D01*
X038655Y025032D01*
X037155Y025032D01*
X035266Y026921D01*
X035155Y027032D01*
X035065Y027032D01*
X035020Y027139D01*
X034873Y027286D01*
X034681Y027366D01*
X034472Y027366D01*
X034280Y027286D01*
X034226Y027232D01*
X032927Y027232D01*
X032873Y027286D01*
X032681Y027366D01*
X032472Y027366D01*
X032280Y027286D01*
X032132Y027139D01*
X032053Y026946D01*
X032053Y026738D01*
X032132Y026545D01*
X032146Y026532D01*
X030155Y026532D01*
X030091Y026596D01*
X030146Y026729D01*
X030146Y026955D01*
X030060Y027165D01*
X029899Y027325D01*
X029690Y027412D01*
X027463Y027412D01*
X027253Y027325D01*
X027093Y027165D01*
X027006Y026955D01*
X027006Y026729D01*
X027093Y026519D01*
X027253Y026359D01*
X027463Y026272D01*
X029690Y026272D01*
X029823Y026327D01*
X029886Y026263D01*
X029998Y026152D01*
X035098Y026152D01*
X036786Y024463D01*
X036898Y024352D01*
X037835Y024352D01*
X037781Y024324D01*
X037709Y024272D01*
X037646Y024209D01*
X037594Y024137D01*
X037554Y024058D01*
X030844Y024058D01*
X031002Y024216D02*
X037653Y024216D01*
X037554Y024058D02*
X037526Y023974D01*
X037513Y023890D01*
X038028Y023890D01*
X038028Y023794D01*
X037513Y023794D01*
X037526Y023710D01*
X037554Y023626D01*
X037594Y023546D01*
X037646Y023475D01*
X037709Y023412D01*
X037781Y023360D01*
X037860Y023319D01*
X037944Y023292D01*
X038028Y023279D01*
X038028Y023794D01*
X038124Y023794D01*
X038124Y023279D01*
X038208Y023292D01*
X038293Y023319D01*
X038372Y023360D01*
X038444Y023412D01*
X038506Y023475D01*
X038559Y023546D01*
X038599Y023626D01*
X038626Y023710D01*
X038640Y023794D01*
X038124Y023794D01*
X038124Y023890D01*
X038640Y023890D01*
X038626Y023974D01*
X038603Y024047D01*
X038686Y023963D01*
X038686Y014221D01*
X038498Y014032D01*
X038248Y014032D01*
X038248Y014116D01*
X038166Y014199D01*
X037656Y014199D01*
X037576Y014119D01*
X037497Y014199D01*
X036987Y014199D01*
X036905Y014116D01*
X036905Y014032D01*
X036155Y014032D01*
X034766Y015421D01*
X034655Y015532D01*
X034476Y015532D01*
X034476Y015682D01*
X034415Y015829D01*
X034303Y015941D01*
X034156Y016002D01*
X033997Y016002D01*
X033850Y015941D01*
X033737Y015829D01*
X033676Y015682D01*
X033676Y015002D01*
X033737Y014855D01*
X033850Y014743D01*
X033997Y014682D01*
X034156Y014682D01*
X034303Y014743D01*
X034415Y014855D01*
X034476Y015002D01*
X034476Y015152D01*
X034498Y015152D01*
X035998Y013652D01*
X036905Y013652D01*
X036905Y013567D01*
X036987Y013485D01*
X037497Y013485D01*
X037576Y013565D01*
X037656Y013485D01*
X038166Y013485D01*
X038248Y013567D01*
X038248Y013652D01*
X038655Y013652D01*
X038766Y013763D01*
X038886Y013883D01*
X038886Y013421D01*
X038498Y013032D01*
X038248Y013032D01*
X038248Y013116D01*
X038166Y013199D01*
X037656Y013199D01*
X037576Y013119D01*
X037497Y013199D01*
X036987Y013199D01*
X036905Y013116D01*
X036905Y013032D01*
X036655Y013032D01*
X036155Y013532D01*
X035655Y013532D01*
X035155Y014032D01*
X034476Y014032D01*
X034476Y014182D01*
X034415Y014329D01*
X034303Y014441D01*
X034456Y014231D02*
X035419Y014231D01*
X035577Y014072D02*
X034476Y014072D01*
X034476Y013597D02*
X035053Y013597D01*
X035211Y013438D02*
X034450Y013438D01*
X034340Y013280D02*
X035370Y013280D01*
X035529Y013092D02*
X035268Y012984D01*
X035068Y012784D01*
X034960Y012523D01*
X034960Y012240D01*
X035068Y011979D01*
X035268Y011779D01*
X035529Y011670D01*
X035812Y011670D01*
X036074Y011779D01*
X036274Y011979D01*
X036382Y012240D01*
X036382Y012523D01*
X036274Y012784D01*
X036074Y012984D01*
X035812Y013092D01*
X035529Y013092D01*
X035247Y012963D02*
X034441Y012963D01*
X034600Y012804D02*
X035089Y012804D01*
X035011Y012646D02*
X034677Y012646D01*
X034728Y012487D02*
X034960Y012487D01*
X034960Y012329D02*
X034728Y012329D01*
X034699Y012170D02*
X034989Y012170D01*
X035054Y012012D02*
X034634Y012012D01*
X034495Y011853D02*
X035193Y011853D01*
X035470Y011695D02*
X034218Y011695D01*
X033817Y011695D02*
X033366Y011695D01*
X033366Y011853D02*
X033540Y011853D01*
X033401Y012012D02*
X033366Y012012D01*
X032986Y011853D02*
X032898Y011853D01*
X032986Y011695D02*
X032669Y011695D01*
X032444Y011695D02*
X032284Y011695D01*
X032284Y011635D02*
X032284Y012301D01*
X031617Y012301D01*
X031626Y012235D01*
X031651Y012139D01*
X031689Y012049D01*
X031738Y011963D01*
X031798Y011885D01*
X031868Y011816D01*
X031946Y011756D01*
X032031Y011706D01*
X032122Y011669D01*
X032217Y011643D01*
X032284Y011635D01*
X032284Y011853D02*
X032444Y011853D01*
X032444Y012012D02*
X032284Y012012D01*
X032284Y012170D02*
X032444Y012170D01*
X032284Y012329D02*
X030790Y012329D01*
X030790Y012301D02*
X030790Y012461D01*
X031457Y012461D01*
X031448Y012528D01*
X031423Y012623D01*
X031385Y012714D01*
X031336Y012799D01*
X031276Y012877D01*
X031206Y012947D01*
X031128Y013007D01*
X031043Y013056D01*
X030952Y013094D01*
X030857Y013119D01*
X030790Y013128D01*
X030790Y012461D01*
X030630Y012461D01*
X030630Y012301D01*
X030790Y012301D01*
X030790Y011635D01*
X030857Y011643D01*
X030952Y011669D01*
X031043Y011706D01*
X031128Y011756D01*
X031206Y011816D01*
X031276Y011885D01*
X031336Y011963D01*
X031385Y012049D01*
X031423Y012139D01*
X031448Y012235D01*
X031457Y012301D01*
X030790Y012301D01*
X030790Y012170D02*
X030630Y012170D01*
X030630Y012301D02*
X030630Y011635D01*
X030563Y011643D01*
X030468Y011669D01*
X030377Y011706D01*
X030292Y011756D01*
X030214Y011816D01*
X030144Y011885D01*
X030085Y011963D01*
X030035Y012049D01*
X029998Y012139D01*
X029972Y012235D01*
X029963Y012301D01*
X030630Y012301D01*
X030630Y012329D02*
X029137Y012329D01*
X029137Y012301D02*
X029137Y012461D01*
X029804Y012461D01*
X029795Y012528D01*
X029769Y012623D01*
X029732Y012714D01*
X029682Y012799D01*
X029622Y012877D01*
X029553Y012947D01*
X029475Y013007D01*
X029390Y013056D01*
X029299Y013094D01*
X029203Y013119D01*
X029137Y013128D01*
X029137Y012461D01*
X028977Y012461D01*
X028977Y012301D01*
X029137Y012301D01*
X029804Y012301D01*
X029795Y012235D01*
X029769Y012139D01*
X029732Y012049D01*
X029682Y011963D01*
X029622Y011885D01*
X029553Y011816D01*
X029475Y011756D01*
X029390Y011706D01*
X029299Y011669D01*
X029203Y011643D01*
X029137Y011635D01*
X029137Y012301D01*
X029137Y012170D02*
X028977Y012170D01*
X028977Y012301D02*
X028977Y011635D01*
X028910Y011643D01*
X028815Y011669D01*
X028724Y011706D01*
X028639Y011756D01*
X028561Y011816D01*
X028491Y011885D01*
X028431Y011963D01*
X028382Y012049D01*
X028344Y012139D01*
X028319Y012235D01*
X028310Y012301D01*
X028977Y012301D01*
X028977Y012329D02*
X027483Y012329D01*
X027483Y012301D02*
X027483Y012461D01*
X028150Y012461D01*
X028141Y012528D01*
X028116Y012623D01*
X028078Y012714D01*
X028029Y012799D01*
X027969Y012877D01*
X027899Y012947D01*
X027821Y013007D01*
X027736Y013056D01*
X027645Y013094D01*
X027550Y013119D01*
X027483Y013128D01*
X027483Y012461D01*
X027323Y012461D01*
X027323Y012301D01*
X027483Y012301D01*
X027483Y011635D01*
X027550Y011643D01*
X027645Y011669D01*
X027736Y011706D01*
X027821Y011756D01*
X027899Y011816D01*
X027969Y011885D01*
X028029Y011963D01*
X028078Y012049D01*
X028116Y012139D01*
X028141Y012235D01*
X028150Y012301D01*
X027483Y012301D01*
X027483Y012170D02*
X027323Y012170D01*
X027323Y012301D02*
X027323Y011635D01*
X027256Y011643D01*
X027161Y011669D01*
X027070Y011706D01*
X026985Y011756D01*
X026907Y011816D01*
X026837Y011885D01*
X026777Y011963D01*
X026728Y012049D01*
X026691Y012139D01*
X026665Y012235D01*
X026656Y012301D01*
X027323Y012301D01*
X027323Y012329D02*
X025830Y012329D01*
X025830Y012301D02*
X025830Y012461D01*
X026496Y012461D01*
X026488Y012528D01*
X026462Y012623D01*
X026424Y012714D01*
X026375Y012799D01*
X026315Y012877D01*
X026246Y012947D01*
X026168Y013007D01*
X026082Y013056D01*
X025991Y013094D01*
X025896Y013119D01*
X025830Y013128D01*
X025830Y012461D01*
X025670Y012461D01*
X025670Y012301D01*
X025830Y012301D01*
X026496Y012301D01*
X026488Y012235D01*
X026462Y012139D01*
X026424Y012049D01*
X026375Y011963D01*
X026315Y011885D01*
X026246Y011816D01*
X026168Y011756D01*
X026082Y011706D01*
X025991Y011669D01*
X025896Y011643D01*
X025830Y011635D01*
X025830Y012301D01*
X025830Y012170D02*
X025670Y012170D01*
X025670Y012301D02*
X025670Y011635D01*
X025603Y011643D01*
X025508Y011669D01*
X025417Y011706D01*
X025332Y011756D01*
X025253Y011816D01*
X025184Y011885D01*
X025124Y011963D01*
X025075Y012049D01*
X025037Y012139D01*
X025012Y012235D01*
X025003Y012301D01*
X025670Y012301D01*
X025670Y012329D02*
X024807Y012329D01*
X024807Y012240D02*
X024807Y012523D01*
X024699Y012784D01*
X024499Y012984D01*
X024237Y013092D01*
X023955Y013092D01*
X023693Y012984D01*
X023493Y012784D01*
X023385Y012523D01*
X023385Y012240D01*
X023493Y011979D01*
X023693Y011779D01*
X023955Y011670D01*
X024237Y011670D01*
X024499Y011779D01*
X024699Y011979D01*
X024807Y012240D01*
X024778Y012170D02*
X025029Y012170D01*
X025096Y012012D02*
X024713Y012012D01*
X024574Y011853D02*
X025216Y011853D01*
X025445Y011695D02*
X024297Y011695D01*
X023896Y011695D02*
X022643Y011695D01*
X022584Y011670D02*
X022845Y011779D01*
X023045Y011979D01*
X023153Y012240D01*
X023153Y012523D01*
X023045Y012784D01*
X022845Y012984D01*
X022584Y013092D01*
X022301Y013092D01*
X022040Y012984D01*
X021840Y012784D01*
X021732Y012523D01*
X021732Y012240D01*
X021840Y011979D01*
X022040Y011779D01*
X022301Y011670D01*
X022584Y011670D01*
X022242Y011695D02*
X020990Y011695D01*
X020930Y011670D02*
X021192Y011779D01*
X021392Y011979D01*
X021500Y012240D01*
X021500Y012523D01*
X021392Y012784D01*
X021192Y012984D01*
X020930Y013092D01*
X020648Y013092D01*
X020386Y012984D01*
X020186Y012784D01*
X020078Y012523D01*
X020078Y012240D01*
X020186Y011979D01*
X020386Y011779D01*
X020648Y011670D01*
X020930Y011670D01*
X020588Y011695D02*
X019336Y011695D01*
X019277Y011670D02*
X019538Y011779D01*
X019738Y011979D01*
X019846Y012240D01*
X019846Y012523D01*
X019738Y012784D01*
X019538Y012984D01*
X019277Y013092D01*
X018994Y013092D01*
X018733Y012984D01*
X018533Y012784D01*
X018425Y012523D01*
X018425Y012240D01*
X018531Y011982D01*
X018449Y011982D01*
X018214Y011885D01*
X018191Y011862D01*
X018024Y011862D01*
X018048Y011885D01*
X018108Y011963D01*
X018157Y012049D01*
X018194Y012139D01*
X018220Y012235D01*
X018229Y012301D01*
X017562Y012301D01*
X017562Y012461D01*
X018229Y012461D01*
X018220Y012528D01*
X018194Y012623D01*
X018157Y012714D01*
X018108Y012799D01*
X018048Y012877D01*
X017978Y012947D01*
X017900Y013007D01*
X017815Y013056D01*
X017724Y013094D01*
X017629Y013119D01*
X017562Y013128D01*
X017562Y012461D01*
X017402Y012461D01*
X017402Y013128D01*
X017335Y013119D01*
X017240Y013094D01*
X017149Y013056D01*
X017064Y013007D01*
X016986Y012947D01*
X016966Y012928D01*
X016966Y013327D01*
X020341Y016702D01*
X024204Y016702D01*
X024439Y016799D01*
X025253Y017614D01*
X025855Y017011D01*
X025999Y016952D01*
X029915Y016952D01*
X030686Y016180D01*
X030686Y016074D01*
X030636Y016024D01*
X030636Y015660D01*
X030894Y015402D01*
X031259Y015402D01*
X031516Y015660D01*
X031516Y016024D01*
X031466Y016074D01*
X031466Y016420D01*
X031407Y016563D01*
X031297Y016673D01*
X030297Y017673D01*
X030154Y017732D01*
X026238Y017732D01*
X025716Y018254D01*
X025716Y018469D01*
X025619Y018704D01*
X025439Y018885D01*
X025204Y018982D01*
X024949Y018982D01*
X024873Y018950D01*
X024559Y019265D01*
X024559Y020002D01*
X024649Y020220D01*
X024649Y020511D01*
X024559Y020730D01*
X024559Y022758D01*
X024649Y022976D01*
X024649Y023267D01*
X024559Y023485D01*
X024559Y024127D01*
X024461Y024362D01*
X023939Y024885D01*
X023704Y024982D01*
X017705Y024982D01*
X017655Y025032D01*
X015498Y025032D01*
X015386Y024921D01*
X015386Y023263D01*
X015498Y023152D01*
X017655Y023152D01*
X017766Y023263D01*
X017766Y023702D01*
X022258Y023702D01*
X022096Y023541D01*
X022096Y023362D01*
X022556Y023362D01*
X022556Y023322D01*
X022096Y023322D01*
X022096Y023143D01*
X022378Y022862D01*
X022556Y022862D01*
X022556Y023322D01*
X022596Y023322D01*
X022596Y022862D01*
X022775Y022862D01*
X023056Y023143D01*
X023056Y023322D01*
X022596Y023322D01*
X022596Y023362D01*
X023056Y023362D01*
X023056Y023541D01*
X022895Y023702D01*
X023279Y023702D01*
X023279Y023485D01*
X023188Y023267D01*
X023188Y022976D01*
X023279Y022758D01*
X023279Y020730D01*
X023188Y020511D01*
X023188Y020220D01*
X023279Y020002D01*
X023279Y018872D01*
X023376Y018637D01*
X023921Y018092D01*
X023811Y017982D01*
X022991Y017982D01*
X023028Y018019D01*
X023115Y018229D01*
X023115Y018455D01*
X023028Y018665D01*
X022868Y018825D01*
X022658Y018912D01*
X022432Y018912D01*
X022222Y018825D01*
X022062Y018665D01*
X021975Y018455D01*
X021975Y018229D01*
X022062Y018019D01*
X022099Y017982D01*
X019949Y017982D01*
X019714Y017885D01*
X019534Y017704D01*
X017566Y015737D01*
X017566Y015842D01*
X017566Y016045D01*
X017279Y016332D01*
X017076Y016332D01*
X016873Y016332D01*
X016586Y016045D01*
X016586Y015842D01*
X017076Y015842D01*
X017076Y015842D01*
X016586Y015842D01*
X016586Y015639D01*
X016873Y015352D01*
X017076Y015352D01*
X017076Y015842D01*
X017076Y016332D01*
X017076Y015842D01*
X017076Y015842D01*
X017076Y015842D01*
X017076Y015352D01*
X017181Y015352D01*
X015784Y013954D01*
X015686Y013719D01*
X015686Y013654D01*
X015559Y013782D01*
X015194Y013782D01*
X014936Y013524D01*
X014936Y013160D01*
X015194Y012902D01*
X015559Y012902D01*
X015686Y013030D01*
X015686Y011855D01*
X015663Y011895D01*
X015630Y011929D01*
X015589Y011953D01*
X015543Y011965D01*
X015144Y011965D01*
X015144Y011410D01*
X015009Y011410D01*
X015009Y011965D01*
X014610Y011965D01*
X014564Y011953D01*
X014523Y011929D01*
X014489Y011895D01*
X014466Y011854D01*
X014453Y011809D01*
X014453Y011410D01*
X015009Y011410D01*
X015009Y011274D01*
X015144Y011274D01*
X015144Y010719D01*
X015543Y010719D01*
X015589Y010731D01*
X015630Y010755D01*
X015663Y010789D01*
X015687Y010830D01*
X015699Y010875D01*
X015699Y011274D01*
X015144Y011274D01*
X015144Y011410D01*
X015699Y011410D01*
X015699Y011433D01*
X015784Y011229D01*
X015964Y011049D01*
X016214Y010799D01*
X016449Y010702D01*
X016704Y010702D01*
X016939Y010799D01*
X016961Y010822D01*
X017087Y010822D01*
X017079Y010819D01*
X016879Y010619D01*
X016771Y010357D01*
X016771Y010075D01*
X016879Y009813D01*
X017079Y009613D01*
X017340Y009505D01*
X017623Y009505D01*
X017885Y009613D01*
X018085Y009813D01*
X018193Y010075D01*
X018193Y010357D01*
X018085Y010619D01*
X017885Y010819D01*
X017876Y010822D01*
X018191Y010822D01*
X018492Y010521D01*
X018425Y010357D01*
X018425Y010075D01*
X018533Y009813D01*
X018733Y009613D01*
X018994Y009505D01*
X019277Y009505D01*
X019448Y009576D01*
X020476Y009576D01*
X020648Y009505D01*
X020930Y009505D01*
X021192Y009613D01*
X021392Y009813D01*
X021500Y010075D01*
X021500Y010357D01*
X021392Y010619D01*
X021192Y010819D01*
X020930Y010927D01*
X020648Y010927D01*
X020476Y010856D01*
X019967Y010856D01*
X019153Y011670D01*
X019277Y011670D01*
X019287Y011536D02*
X032986Y011536D01*
X032986Y011378D02*
X019445Y011378D01*
X019604Y011219D02*
X032986Y011219D01*
X032986Y011061D02*
X019762Y011061D01*
X019921Y010902D02*
X020589Y010902D01*
X020989Y010902D02*
X022242Y010902D01*
X022301Y010927D02*
X022040Y010819D01*
X021840Y010619D01*
X021732Y010357D01*
X021732Y010075D01*
X021840Y009813D01*
X022040Y009613D01*
X022301Y009505D01*
X022584Y009505D01*
X022845Y009613D01*
X023045Y009813D01*
X023153Y010075D01*
X023153Y010357D01*
X023045Y010619D01*
X022845Y010819D01*
X022584Y010927D01*
X022301Y010927D01*
X022643Y010902D02*
X023896Y010902D01*
X023619Y010744D02*
X022920Y010744D01*
X023059Y010585D02*
X023480Y010585D01*
X023414Y010427D02*
X023125Y010427D01*
X023153Y010268D02*
X023385Y010268D01*
X023385Y010110D02*
X023153Y010110D01*
X023102Y009951D02*
X023436Y009951D01*
X023514Y009793D02*
X023025Y009793D01*
X022866Y009634D02*
X023672Y009634D01*
X024674Y009476D02*
X000970Y009476D01*
X000970Y009634D02*
X017058Y009634D01*
X016900Y009793D02*
X000970Y009793D01*
X000970Y009951D02*
X016822Y009951D01*
X016771Y010110D02*
X006396Y010110D01*
X006407Y010121D02*
X006807Y010521D01*
X006866Y010664D01*
X006866Y010932D01*
X006951Y010848D01*
X007165Y010759D01*
X007311Y010759D01*
X007449Y010702D01*
X009204Y010702D01*
X009439Y010799D01*
X009619Y010979D01*
X009716Y011215D01*
X009716Y011469D01*
X009619Y011704D01*
X009439Y011885D01*
X009204Y011982D01*
X008216Y011982D01*
X008216Y014077D01*
X008576Y014437D01*
X008673Y014340D01*
X008695Y014287D01*
X008821Y014160D01*
X008875Y014138D01*
X008981Y014032D01*
X008873Y014032D01*
X008586Y013745D01*
X008586Y013542D01*
X009076Y013542D01*
X009076Y013542D01*
X008586Y013542D01*
X008586Y013339D01*
X008873Y013052D01*
X009076Y013052D01*
X009076Y013542D01*
X009076Y013542D01*
X009076Y013052D01*
X009279Y013052D01*
X009566Y013339D01*
X009566Y013478D01*
X009749Y013402D01*
X011052Y013402D01*
X011052Y012264D01*
X011085Y012184D01*
X011085Y012087D01*
X011167Y012005D01*
X011236Y012005D01*
X011364Y011952D01*
X011519Y011952D01*
X011648Y012005D01*
X011716Y012005D01*
X011749Y012038D01*
X011750Y012035D01*
X011784Y012001D01*
X011825Y011977D01*
X011871Y011965D01*
X012093Y011965D01*
X012093Y012324D01*
X012129Y012324D01*
X012129Y011965D01*
X012351Y011965D01*
X012397Y011977D01*
X012438Y012001D01*
X012472Y012035D01*
X012476Y012043D01*
X012481Y012035D01*
X012515Y012001D01*
X012556Y011977D01*
X012601Y011965D01*
X012823Y011965D01*
X012823Y012324D01*
X012445Y012324D01*
X012129Y012324D01*
X012129Y012360D01*
X012093Y012360D01*
X012093Y012719D01*
X011871Y012719D01*
X011832Y012708D01*
X011832Y013592D01*
X011903Y013663D01*
X011908Y013630D01*
X011932Y013558D01*
X011966Y013490D01*
X012010Y013429D01*
X012064Y013376D01*
X012125Y013331D01*
X012192Y013297D01*
X012264Y013274D01*
X012339Y013262D01*
X012356Y013262D01*
X012356Y014022D01*
X012396Y014022D01*
X012396Y013262D01*
X012414Y013262D01*
X012489Y013274D01*
X012561Y013297D01*
X012628Y013331D01*
X012689Y013376D01*
X012743Y013429D01*
X012787Y013490D01*
X012821Y013558D01*
X012845Y013630D01*
X012856Y013704D01*
X012856Y014022D01*
X012396Y014022D01*
X012396Y014062D01*
X012356Y014062D01*
X012356Y014822D01*
X012339Y014822D01*
X012264Y014810D01*
X012192Y014787D01*
X012125Y014753D01*
X012064Y014708D01*
X012010Y014655D01*
X011966Y014594D01*
X011932Y014526D01*
X011908Y014454D01*
X011903Y014421D01*
X011762Y014562D01*
X011749Y014591D01*
X011626Y014715D01*
X011464Y014782D01*
X011289Y014782D01*
X011127Y014715D01*
X011094Y014682D01*
X010141Y014682D01*
X009216Y015607D01*
X009216Y021077D01*
X009756Y021616D01*
X009767Y021605D01*
X010316Y021605D01*
X010349Y021638D01*
X010350Y021635D01*
X010384Y021601D01*
X010425Y021577D01*
X010471Y021565D01*
X010693Y021565D01*
X010693Y021924D01*
X010729Y021924D01*
X010729Y021565D01*
X010951Y021565D01*
X010997Y021577D01*
X011038Y021601D01*
X011072Y021635D01*
X011095Y021676D01*
X011108Y021721D01*
X011108Y021924D01*
X010729Y021924D01*
X010729Y021960D01*
X010693Y021960D01*
X010693Y022319D01*
X010471Y022319D01*
X010454Y022314D01*
X010531Y022392D01*
X010655Y022341D01*
X010821Y022341D01*
X010974Y022404D01*
X011091Y022521D01*
X011155Y022675D01*
X011155Y023395D01*
X011116Y023488D01*
X011116Y023994D01*
X011171Y023939D01*
X011324Y023876D01*
X011490Y023876D01*
X011643Y023939D01*
X011761Y024057D01*
X011824Y024210D01*
X011824Y024930D01*
X011761Y025084D01*
X011643Y025201D01*
X011641Y025202D01*
X012511Y025202D01*
X012509Y025201D01*
X012392Y025084D01*
X012329Y024930D01*
X012329Y024210D01*
X012356Y024145D01*
X012356Y023674D01*
X012316Y023703D01*
X012252Y023736D01*
X012183Y023758D01*
X012112Y023769D01*
X012085Y023769D01*
X012085Y023043D01*
X012068Y023043D01*
X012068Y023026D01*
X012085Y023026D01*
X012085Y022301D01*
X012112Y022301D01*
X012183Y022312D01*
X012252Y022334D01*
X012316Y022367D01*
X012356Y022396D01*
X012356Y022279D01*
X012136Y022279D01*
X012104Y022246D01*
X012102Y022249D01*
X012069Y022283D01*
X012037Y022301D01*
X012040Y022301D01*
X012068Y022301D01*
X012068Y023026D01*
X011619Y023026D01*
X011619Y022722D01*
X011630Y022651D01*
X011653Y022582D01*
X011685Y022518D01*
X011728Y022460D01*
X011779Y022409D01*
X011837Y022367D01*
X011901Y022334D01*
X011948Y022319D01*
X011760Y022319D01*
X011760Y021960D01*
X011723Y021960D01*
X011723Y021924D01*
X011345Y021924D01*
X011345Y021721D01*
X011357Y021676D01*
X011381Y021635D01*
X011415Y021601D01*
X011456Y021577D01*
X011501Y021565D01*
X011723Y021565D01*
X011723Y021924D01*
X011760Y021924D01*
X011760Y021565D01*
X011982Y021565D01*
X012028Y021577D01*
X012069Y021601D01*
X012102Y021635D01*
X012104Y021638D01*
X012136Y021605D01*
X012356Y021605D01*
X012356Y021095D01*
X012415Y020952D01*
X013936Y019430D01*
X013936Y019215D01*
X014034Y018979D01*
X014214Y018799D01*
X014449Y018702D01*
X014704Y018702D01*
X014939Y018799D01*
X015119Y018979D01*
X015216Y019215D01*
X015216Y019469D01*
X015119Y019704D01*
X014939Y019885D01*
X014704Y019982D01*
X014488Y019982D01*
X013136Y021334D01*
X013136Y021731D01*
X014246Y020621D01*
X014355Y020511D01*
X014499Y020452D01*
X016415Y020452D01*
X017082Y019785D01*
X017082Y019520D01*
X017164Y019438D01*
X017989Y019438D01*
X018071Y019520D01*
X018071Y020266D01*
X017989Y020348D01*
X017622Y020348D01*
X016797Y021173D01*
X016654Y021232D01*
X014738Y021232D01*
X013805Y022165D01*
X013805Y022609D01*
X013832Y022675D01*
X013832Y023395D01*
X013769Y023548D01*
X013651Y023666D01*
X013498Y023729D01*
X013332Y023729D01*
X013179Y023666D01*
X013136Y023623D01*
X013136Y024145D01*
X013163Y024210D01*
X013163Y024930D01*
X013099Y025084D01*
X012982Y025201D01*
X012980Y025202D01*
X018204Y025202D01*
X018439Y025299D01*
X019341Y026202D01*
X025311Y026202D01*
X025436Y026077D01*
X025436Y023704D01*
X025268Y023535D01*
X025157Y023267D01*
X025157Y022976D01*
X025268Y022708D01*
X025436Y022539D01*
X025436Y020948D01*
X025268Y020779D01*
X025157Y020511D01*
X025157Y020220D01*
X025268Y019952D01*
X025474Y019746D01*
X025742Y019635D01*
X026033Y019635D01*
X026301Y019746D01*
X026507Y019952D01*
X026597Y020170D01*
X026619Y020192D01*
X026716Y020427D01*
X026716Y026469D01*
X026619Y026704D01*
X026439Y026885D01*
X025939Y027385D01*
X025704Y027482D01*
X018949Y027482D01*
X018714Y027385D01*
X018534Y027204D01*
X017811Y026482D01*
X010949Y026482D01*
X010714Y026385D01*
X010114Y025785D01*
X009934Y025604D01*
X009836Y025369D01*
X009836Y023507D01*
X008964Y022635D01*
X008964Y022635D01*
X008034Y021704D01*
X007936Y021469D01*
X007936Y019732D01*
X007308Y019732D01*
X007195Y019844D01*
X007021Y019917D01*
X006832Y019917D01*
X006658Y019844D01*
X006524Y019711D01*
X006452Y019536D01*
X006452Y019348D01*
X006524Y019173D01*
X006658Y019040D01*
X006832Y018967D01*
X006912Y018967D01*
X006949Y018952D01*
X007936Y018952D01*
X007936Y016153D01*
X007845Y016244D01*
X007671Y016317D01*
X007482Y016317D01*
X007369Y016270D01*
X007401Y016348D01*
X007401Y016536D01*
X007329Y016711D01*
X007195Y016844D01*
X007021Y016917D01*
X006832Y016917D01*
X006658Y016844D01*
X006524Y016711D01*
X006452Y016536D01*
X006452Y016348D01*
X006524Y016173D01*
X006658Y016040D01*
X006832Y015967D01*
X007021Y015967D01*
X007134Y016014D01*
X007102Y015936D01*
X007102Y015919D01*
X006173Y014990D01*
X006089Y015192D01*
X005911Y015370D01*
X005678Y015466D01*
X005427Y015466D01*
X005195Y015370D01*
X005017Y015192D01*
X004921Y014960D01*
X004921Y013724D01*
X005017Y013492D01*
X005195Y013314D01*
X005427Y013218D01*
X005678Y013218D01*
X005911Y013314D01*
X006086Y013490D01*
X006086Y011802D01*
X006052Y011836D01*
X005838Y011925D01*
X005606Y011925D01*
X005392Y011836D01*
X005228Y011672D01*
X005139Y011458D01*
X005139Y011226D01*
X005228Y011012D01*
X005392Y010848D01*
X005606Y010759D01*
X005838Y010759D01*
X006015Y010833D01*
X005915Y010732D01*
X004966Y010732D01*
X004966Y010920D01*
X004907Y011063D01*
X004745Y011225D01*
X004746Y011226D01*
X004746Y011458D01*
X004657Y011672D01*
X004549Y011780D01*
X004908Y011780D01*
X004995Y011792D01*
X005080Y011814D01*
X005162Y011848D01*
X005238Y011892D01*
X005308Y011946D01*
X005370Y012008D01*
X005424Y012078D01*
X005468Y012154D01*
X005502Y012236D01*
X005524Y012321D01*
X005536Y012408D01*
X005536Y012434D01*
X004390Y012434D01*
X004390Y012471D01*
X004353Y012471D01*
X004353Y013124D01*
X003835Y013124D01*
X003748Y013113D01*
X003663Y013090D01*
X003582Y013056D01*
X003505Y013012D01*
X003435Y012959D01*
X003373Y012896D01*
X003319Y012826D01*
X003275Y012750D01*
X003242Y012669D01*
X003219Y012584D01*
X003207Y012496D01*
X003207Y012471D01*
X004353Y012471D01*
X004353Y012434D01*
X003207Y012434D01*
X003207Y012408D01*
X003219Y012321D01*
X003242Y012236D01*
X003275Y012154D01*
X003319Y012078D01*
X003373Y012008D01*
X003435Y011946D01*
X003505Y011892D01*
X003582Y011848D01*
X003663Y011814D01*
X003748Y011792D01*
X003784Y011787D01*
X003669Y011672D01*
X003580Y011458D01*
X003580Y011226D01*
X003669Y011012D01*
X003833Y010848D01*
X004047Y010759D01*
X004108Y010759D01*
X004186Y010680D01*
X004186Y010264D01*
X004246Y010121D01*
X004355Y010011D01*
X004499Y009952D01*
X006154Y009952D01*
X006297Y010011D01*
X006407Y010121D01*
X006554Y010268D02*
X016771Y010268D01*
X016800Y010427D02*
X006713Y010427D01*
X006834Y010585D02*
X016866Y010585D01*
X016805Y010744D02*
X017005Y010744D01*
X016348Y010744D02*
X015611Y010744D01*
X015699Y010902D02*
X016111Y010902D01*
X015952Y011061D02*
X015699Y011061D01*
X015699Y011219D02*
X015794Y011219D01*
X015722Y011378D02*
X015144Y011378D01*
X015009Y011378D02*
X013585Y011378D01*
X013585Y011410D02*
X014137Y011410D01*
X014125Y011488D01*
X014095Y011581D01*
X014050Y011668D01*
X013992Y011748D01*
X013923Y011817D01*
X013844Y011875D01*
X013756Y011919D01*
X013663Y011950D01*
X013605Y011959D01*
X013717Y012005D01*
X013786Y012005D01*
X013868Y012087D01*
X013868Y012184D01*
X013901Y012264D01*
X013901Y013985D01*
X013842Y014128D01*
X013816Y014154D01*
X013816Y014429D01*
X013749Y014591D01*
X013626Y014715D01*
X013464Y014782D01*
X013289Y014782D01*
X013127Y014715D01*
X013003Y014591D01*
X012936Y014429D01*
X012936Y013654D01*
X013003Y013493D01*
X013121Y013375D01*
X013121Y012708D01*
X013082Y012719D01*
X012860Y012719D01*
X012860Y012360D01*
X012823Y012360D01*
X012823Y012324D01*
X012860Y012324D01*
X012860Y011965D01*
X013082Y011965D01*
X013128Y011977D01*
X013169Y012001D01*
X013202Y012035D01*
X013204Y012038D01*
X013236Y012005D01*
X013305Y012005D01*
X013421Y011957D01*
X013371Y011950D01*
X013278Y011919D01*
X013191Y011875D01*
X013112Y011817D01*
X013042Y011748D01*
X012985Y011668D01*
X012940Y011581D01*
X012910Y011488D01*
X012897Y011410D01*
X013450Y011410D01*
X013450Y011274D01*
X013585Y011274D01*
X013585Y010722D01*
X013663Y010734D01*
X013756Y010765D01*
X013844Y010809D01*
X013923Y010867D01*
X013992Y010936D01*
X014050Y011015D01*
X014095Y011103D01*
X014125Y011196D01*
X014137Y011274D01*
X013585Y011274D01*
X013585Y011410D01*
X013450Y011378D02*
X012026Y011378D01*
X012026Y011410D02*
X012578Y011410D01*
X012566Y011488D01*
X012536Y011581D01*
X012491Y011668D01*
X012433Y011748D01*
X012364Y011817D01*
X012285Y011875D01*
X012197Y011919D01*
X012104Y011950D01*
X012026Y011962D01*
X012026Y011410D01*
X011891Y011410D01*
X011891Y011962D01*
X011812Y011950D01*
X011719Y011919D01*
X011632Y011875D01*
X011552Y011817D01*
X011483Y011748D01*
X011426Y011668D01*
X011381Y011581D01*
X011351Y011488D01*
X011338Y011410D01*
X011891Y011410D01*
X011891Y011274D01*
X012026Y011274D01*
X012026Y010722D01*
X012104Y010734D01*
X012197Y010765D01*
X012285Y010809D01*
X012364Y010867D01*
X012433Y010936D01*
X012491Y011015D01*
X012536Y011103D01*
X012566Y011196D01*
X012578Y011274D01*
X012026Y011274D01*
X012026Y011410D01*
X012026Y011536D02*
X011891Y011536D01*
X011891Y011378D02*
X010467Y011378D01*
X010467Y011410D02*
X011019Y011410D01*
X011007Y011488D01*
X010976Y011581D01*
X010932Y011668D01*
X010874Y011748D01*
X010805Y011817D01*
X010726Y011875D01*
X010638Y011919D01*
X010545Y011950D01*
X010467Y011962D01*
X010467Y011410D01*
X010332Y011410D01*
X010332Y011962D01*
X010253Y011950D01*
X010160Y011919D01*
X010073Y011875D01*
X009993Y011817D01*
X009924Y011748D01*
X009866Y011668D01*
X009822Y011581D01*
X009792Y011488D01*
X009779Y011410D01*
X010332Y011410D01*
X010332Y011274D01*
X010467Y011274D01*
X010467Y010722D01*
X010545Y010734D01*
X010638Y010765D01*
X010726Y010809D01*
X010805Y010867D01*
X010874Y010936D01*
X010932Y011015D01*
X010976Y011103D01*
X011007Y011196D01*
X011019Y011274D01*
X010467Y011274D01*
X010467Y011410D01*
X010467Y011536D02*
X010332Y011536D01*
X010332Y011378D02*
X009716Y011378D01*
X009779Y011274D02*
X009792Y011196D01*
X009822Y011103D01*
X009866Y011015D01*
X009924Y010936D01*
X009993Y010867D01*
X010073Y010809D01*
X010160Y010765D01*
X010253Y010734D01*
X010332Y010722D01*
X010332Y011274D01*
X009779Y011274D01*
X009788Y011219D02*
X009716Y011219D01*
X009653Y011061D02*
X009843Y011061D01*
X009958Y010902D02*
X009542Y010902D01*
X009305Y010744D02*
X010224Y010744D01*
X010332Y010744D02*
X010467Y010744D01*
X010575Y010744D02*
X011783Y010744D01*
X011812Y010734D02*
X011891Y010722D01*
X011891Y011274D01*
X011338Y011274D01*
X011351Y011196D01*
X011381Y011103D01*
X011426Y011015D01*
X011483Y010936D01*
X011552Y010867D01*
X011632Y010809D01*
X011719Y010765D01*
X011812Y010734D01*
X011891Y010744D02*
X012026Y010744D01*
X012134Y010744D02*
X013342Y010744D01*
X013371Y010734D02*
X013450Y010722D01*
X013450Y011274D01*
X012897Y011274D01*
X012910Y011196D01*
X012940Y011103D01*
X012985Y011015D01*
X013042Y010936D01*
X013112Y010867D01*
X013191Y010809D01*
X013278Y010765D01*
X013371Y010734D01*
X013450Y010744D02*
X013585Y010744D01*
X013693Y010744D02*
X014542Y010744D01*
X014523Y010755D02*
X014564Y010731D01*
X014610Y010719D01*
X015009Y010719D01*
X015009Y011274D01*
X014453Y011274D01*
X014453Y010875D01*
X014466Y010830D01*
X014489Y010789D01*
X014523Y010755D01*
X014453Y010902D02*
X013959Y010902D01*
X014073Y011061D02*
X014453Y011061D01*
X014453Y011219D02*
X014129Y011219D01*
X014109Y011536D02*
X014453Y011536D01*
X014453Y011695D02*
X014031Y011695D01*
X013873Y011853D02*
X014465Y011853D01*
X013868Y012170D02*
X015686Y012170D01*
X015686Y012012D02*
X013792Y012012D01*
X013901Y012329D02*
X015686Y012329D01*
X015686Y012487D02*
X013901Y012487D01*
X013901Y012646D02*
X015686Y012646D01*
X015686Y012804D02*
X013901Y012804D01*
X013901Y012963D02*
X015133Y012963D01*
X014975Y013121D02*
X013901Y013121D01*
X013901Y013280D02*
X014936Y013280D01*
X014936Y013438D02*
X013901Y013438D01*
X013901Y013597D02*
X015009Y013597D01*
X015168Y013755D02*
X013901Y013755D01*
X013901Y013914D02*
X015767Y013914D01*
X015701Y013755D02*
X015585Y013755D01*
X015902Y014072D02*
X013865Y014072D01*
X013816Y014231D02*
X016060Y014231D01*
X016219Y014389D02*
X013816Y014389D01*
X013767Y014548D02*
X016377Y014548D01*
X016536Y014706D02*
X013634Y014706D01*
X013119Y014706D02*
X012691Y014706D01*
X012689Y014708D02*
X012628Y014753D01*
X012561Y014787D01*
X012489Y014810D01*
X012414Y014822D01*
X012396Y014822D01*
X012396Y014062D01*
X012856Y014062D01*
X012856Y014380D01*
X012845Y014454D01*
X012821Y014526D01*
X012787Y014594D01*
X012743Y014655D01*
X012689Y014708D01*
X012810Y014548D02*
X012985Y014548D01*
X012936Y014389D02*
X012855Y014389D01*
X012856Y014231D02*
X012936Y014231D01*
X012936Y014072D02*
X012856Y014072D01*
X012856Y013914D02*
X012936Y013914D01*
X012936Y013755D02*
X012856Y013755D01*
X012834Y013597D02*
X012960Y013597D01*
X013058Y013438D02*
X012749Y013438D01*
X012508Y013280D02*
X013121Y013280D01*
X013121Y013121D02*
X011832Y013121D01*
X011832Y012963D02*
X013121Y012963D01*
X013121Y012804D02*
X011832Y012804D01*
X012093Y012646D02*
X012129Y012646D01*
X012129Y012719D02*
X012129Y012360D01*
X012823Y012360D01*
X012823Y012719D01*
X012601Y012719D01*
X012556Y012707D01*
X012515Y012683D01*
X012481Y012649D01*
X012476Y012641D01*
X012472Y012649D01*
X012438Y012683D01*
X012397Y012707D01*
X012351Y012719D01*
X012129Y012719D01*
X012129Y012487D02*
X012093Y012487D01*
X012129Y012329D02*
X012823Y012329D01*
X012823Y012487D02*
X012860Y012487D01*
X012860Y012646D02*
X012823Y012646D01*
X012479Y012646D02*
X012474Y012646D01*
X012129Y012170D02*
X012093Y012170D01*
X012093Y012012D02*
X012129Y012012D01*
X012026Y011853D02*
X011891Y011853D01*
X011891Y011695D02*
X012026Y011695D01*
X012314Y011853D02*
X013162Y011853D01*
X013180Y012012D02*
X013230Y012012D01*
X012860Y012012D02*
X012823Y012012D01*
X012823Y012170D02*
X012860Y012170D01*
X012504Y012012D02*
X012449Y012012D01*
X012472Y011695D02*
X013004Y011695D01*
X012926Y011536D02*
X012550Y011536D01*
X012570Y011219D02*
X012906Y011219D01*
X012961Y011061D02*
X012514Y011061D01*
X012400Y010902D02*
X013076Y010902D01*
X013450Y010902D02*
X013585Y010902D01*
X013585Y011061D02*
X013450Y011061D01*
X013450Y011219D02*
X013585Y011219D01*
X015009Y011219D02*
X015144Y011219D01*
X015144Y011061D02*
X015009Y011061D01*
X015009Y010902D02*
X015144Y010902D01*
X015144Y010744D02*
X015009Y010744D01*
X015009Y011536D02*
X015144Y011536D01*
X015144Y011695D02*
X015009Y011695D01*
X015009Y011853D02*
X015144Y011853D01*
X015620Y012963D02*
X015686Y012963D01*
X016966Y012963D02*
X017006Y012963D01*
X016966Y013121D02*
X017351Y013121D01*
X017402Y013121D02*
X017562Y013121D01*
X017613Y013121D02*
X025619Y013121D01*
X025603Y013119D02*
X025508Y013094D01*
X025417Y013056D01*
X025332Y013007D01*
X025253Y012947D01*
X025184Y012877D01*
X025124Y012799D01*
X025075Y012714D01*
X025037Y012623D01*
X025012Y012528D01*
X025003Y012461D01*
X025670Y012461D01*
X025670Y013128D01*
X025603Y013119D01*
X025670Y013121D02*
X025830Y013121D01*
X025880Y013121D02*
X027272Y013121D01*
X027256Y013119D02*
X027161Y013094D01*
X027070Y013056D01*
X026985Y013007D01*
X026907Y012947D01*
X026837Y012877D01*
X026777Y012799D01*
X026728Y012714D01*
X026691Y012623D01*
X026665Y012528D01*
X026656Y012461D01*
X027323Y012461D01*
X027323Y013128D01*
X027256Y013119D01*
X027323Y013121D02*
X027483Y013121D01*
X027534Y013121D02*
X028926Y013121D01*
X028910Y013119D02*
X028815Y013094D01*
X028724Y013056D01*
X028639Y013007D01*
X028561Y012947D01*
X028491Y012877D01*
X028431Y012799D01*
X028382Y012714D01*
X028344Y012623D01*
X028319Y012528D01*
X028310Y012461D01*
X028977Y012461D01*
X028977Y013128D01*
X028910Y013119D01*
X028977Y013121D02*
X029137Y013121D01*
X029187Y013121D02*
X030580Y013121D01*
X030563Y013119D02*
X030468Y013094D01*
X030377Y013056D01*
X030292Y013007D01*
X030214Y012947D01*
X030144Y012877D01*
X030085Y012799D01*
X030035Y012714D01*
X029998Y012623D01*
X029972Y012528D01*
X029963Y012461D01*
X030630Y012461D01*
X030630Y013128D01*
X030563Y013119D01*
X030630Y013121D02*
X030790Y013121D01*
X030841Y013121D02*
X032233Y013121D01*
X032217Y013119D02*
X032122Y013094D01*
X032031Y013056D01*
X031946Y013007D01*
X031868Y012947D01*
X031798Y012877D01*
X031738Y012799D01*
X031689Y012714D01*
X031651Y012623D01*
X031626Y012528D01*
X031617Y012461D01*
X032284Y012461D01*
X032284Y013128D01*
X032217Y013119D01*
X032284Y013121D02*
X032444Y013121D01*
X032494Y013121D02*
X032528Y013121D01*
X032444Y012963D02*
X032284Y012963D01*
X032284Y012804D02*
X032444Y012804D01*
X032444Y012646D02*
X032284Y012646D01*
X032284Y012487D02*
X032444Y012487D01*
X031888Y012963D02*
X031186Y012963D01*
X031332Y012804D02*
X031742Y012804D01*
X031661Y012646D02*
X031413Y012646D01*
X031454Y012487D02*
X031620Y012487D01*
X031643Y012170D02*
X031431Y012170D01*
X031364Y012012D02*
X031710Y012012D01*
X031830Y011853D02*
X031244Y011853D01*
X031015Y011695D02*
X032059Y011695D01*
X032059Y010902D02*
X030910Y010902D01*
X031188Y010744D02*
X031830Y010744D01*
X031710Y010585D02*
X031327Y010585D01*
X031392Y010427D02*
X031643Y010427D01*
X031421Y010268D02*
X032284Y010268D01*
X032284Y010427D02*
X032444Y010427D01*
X032444Y010585D02*
X032284Y010585D01*
X032284Y010744D02*
X032444Y010744D01*
X032444Y010902D02*
X032284Y010902D01*
X032669Y010902D02*
X032986Y010902D01*
X032986Y010744D02*
X032898Y010744D01*
X033366Y010744D02*
X033540Y010744D01*
X033401Y010585D02*
X033366Y010585D01*
X033366Y010902D02*
X033817Y010902D01*
X034218Y010902D02*
X035471Y010902D01*
X035529Y010927D02*
X035268Y010819D01*
X035068Y010619D01*
X034960Y010357D01*
X034960Y010075D01*
X035068Y009813D01*
X035268Y009613D01*
X035529Y009505D01*
X035812Y009505D01*
X036074Y009613D01*
X036274Y009813D01*
X036382Y010075D01*
X036382Y010357D01*
X036274Y010619D01*
X036074Y010819D01*
X035812Y010927D01*
X035529Y010927D01*
X035871Y010902D02*
X039553Y010902D01*
X039553Y010744D02*
X036148Y010744D01*
X036287Y010585D02*
X039553Y010585D01*
X039553Y010427D02*
X036353Y010427D01*
X036382Y010268D02*
X039553Y010268D01*
X039553Y010110D02*
X036382Y010110D01*
X036331Y009951D02*
X039553Y009951D01*
X039553Y009793D02*
X036253Y009793D01*
X036095Y009634D02*
X039553Y009634D01*
X039553Y009476D02*
X032979Y009476D01*
X032821Y009317D02*
X039553Y009317D01*
X039553Y011061D02*
X033366Y011061D01*
X033366Y011219D02*
X039553Y011219D01*
X039553Y011378D02*
X033366Y011378D01*
X033366Y011536D02*
X039553Y011536D01*
X039553Y011695D02*
X035871Y011695D01*
X036148Y011853D02*
X039553Y011853D01*
X039553Y012012D02*
X036287Y012012D01*
X036353Y012170D02*
X039553Y012170D01*
X039553Y012329D02*
X036382Y012329D01*
X036382Y012487D02*
X036985Y012487D01*
X036905Y012646D02*
X036331Y012646D01*
X036345Y012804D02*
X036253Y012804D01*
X036187Y012963D02*
X036095Y012963D01*
X036028Y013121D02*
X033066Y013121D01*
X033076Y013142D02*
X033111Y013142D01*
X033179Y013153D01*
X033245Y013174D01*
X033307Y013206D01*
X033363Y013246D01*
X033412Y013295D01*
X033453Y013351D01*
X033484Y013413D01*
X033506Y013479D01*
X033516Y013547D01*
X033516Y013842D01*
X033516Y014137D01*
X033506Y014205D01*
X033484Y014271D01*
X033453Y014333D01*
X033412Y014389D01*
X033363Y014438D01*
X033307Y014478D01*
X033245Y014510D01*
X033179Y014531D01*
X033111Y014542D01*
X033076Y014542D01*
X033076Y013842D01*
X033076Y013842D01*
X033076Y013842D01*
X033076Y013142D01*
X033076Y013280D02*
X033076Y013280D01*
X033076Y013438D02*
X033076Y013438D01*
X033076Y013597D02*
X033076Y013597D01*
X033076Y013755D02*
X033076Y013755D01*
X033076Y013842D02*
X033076Y013842D01*
X033516Y013842D01*
X033076Y013842D01*
X033076Y013914D02*
X033076Y013914D01*
X033076Y014072D02*
X033076Y014072D01*
X033076Y014231D02*
X033076Y014231D01*
X033076Y014389D02*
X033076Y014389D01*
X033076Y014642D02*
X033111Y014642D01*
X033179Y014653D01*
X033245Y014674D01*
X033307Y014706D01*
X033363Y014746D01*
X033412Y014795D01*
X033453Y014851D01*
X033484Y014913D01*
X033506Y014979D01*
X033516Y015047D01*
X033516Y015342D01*
X033516Y015637D01*
X033506Y015705D01*
X033484Y015771D01*
X033453Y015833D01*
X033412Y015889D01*
X033363Y015938D01*
X033307Y015978D01*
X033245Y016010D01*
X033179Y016031D01*
X033111Y016042D01*
X033076Y016042D01*
X033076Y015342D01*
X033076Y015342D01*
X033076Y015342D01*
X033076Y014642D01*
X033076Y014706D02*
X033076Y014706D01*
X033076Y014865D02*
X033076Y014865D01*
X033076Y015023D02*
X033076Y015023D01*
X033076Y015182D02*
X033076Y015182D01*
X033076Y015340D02*
X033076Y015340D01*
X033076Y015342D02*
X033076Y015342D01*
X033516Y015342D01*
X033076Y015342D01*
X033076Y015499D02*
X033076Y015499D01*
X033076Y015657D02*
X033076Y015657D01*
X033076Y015816D02*
X033076Y015816D01*
X033076Y015974D02*
X033076Y015974D01*
X033076Y016142D02*
X033111Y016142D01*
X033179Y016153D01*
X033245Y016174D01*
X033307Y016206D01*
X033363Y016246D01*
X033412Y016295D01*
X033453Y016351D01*
X033484Y016413D01*
X033506Y016479D01*
X033516Y016547D01*
X033516Y016842D01*
X033516Y017137D01*
X033506Y017205D01*
X033484Y017271D01*
X033453Y017333D01*
X033412Y017389D01*
X033363Y017438D01*
X033307Y017478D01*
X033245Y017510D01*
X033179Y017531D01*
X033111Y017542D01*
X033076Y017542D01*
X033042Y017542D01*
X032973Y017531D01*
X032907Y017510D01*
X032846Y017478D01*
X032790Y017438D01*
X032741Y017389D01*
X032700Y017333D01*
X032669Y017271D01*
X032647Y017205D01*
X032636Y017137D01*
X032636Y016842D01*
X033076Y016842D01*
X033076Y016842D01*
X032636Y016842D01*
X032636Y016547D01*
X032647Y016479D01*
X032669Y016413D01*
X032700Y016351D01*
X032741Y016295D01*
X032790Y016246D01*
X032846Y016206D01*
X032907Y016174D01*
X032973Y016153D01*
X033042Y016142D01*
X033076Y016142D01*
X033076Y016842D01*
X033076Y017542D01*
X033076Y016842D01*
X033076Y016842D01*
X033076Y016842D01*
X033076Y016142D01*
X033076Y016291D02*
X033076Y016291D01*
X033076Y016450D02*
X033076Y016450D01*
X033076Y016608D02*
X033076Y016608D01*
X033076Y016767D02*
X033076Y016767D01*
X033076Y016842D02*
X033076Y016842D01*
X033516Y016842D01*
X033076Y016842D01*
X033076Y016925D02*
X033076Y016925D01*
X033076Y017084D02*
X033076Y017084D01*
X033076Y017242D02*
X033076Y017242D01*
X033076Y017401D02*
X033076Y017401D01*
X032753Y017401D02*
X030569Y017401D01*
X030727Y017242D02*
X032659Y017242D01*
X032636Y017084D02*
X030886Y017084D01*
X031044Y016925D02*
X032636Y016925D01*
X032636Y016767D02*
X031203Y016767D01*
X031361Y016608D02*
X032636Y016608D01*
X032657Y016450D02*
X031454Y016450D01*
X031466Y016291D02*
X032745Y016291D01*
X032841Y015974D02*
X031516Y015974D01*
X031516Y015816D02*
X032692Y015816D01*
X032640Y015657D02*
X031514Y015657D01*
X031356Y015499D02*
X032636Y015499D01*
X032636Y015340D02*
X028901Y015340D01*
X028975Y015499D02*
X030797Y015499D01*
X030639Y015657D02*
X028976Y015657D01*
X028976Y015816D02*
X030636Y015816D01*
X030636Y015974D02*
X028976Y015974D01*
X028976Y016133D02*
X030686Y016133D01*
X030575Y016291D02*
X028931Y016291D01*
X028781Y016450D02*
X030417Y016450D01*
X030258Y016608D02*
X020248Y016608D01*
X020089Y016450D02*
X027307Y016450D01*
X027179Y016291D02*
X019931Y016291D01*
X019772Y016133D02*
X027136Y016133D01*
X027136Y015974D02*
X019614Y015974D01*
X019455Y015816D02*
X027136Y015816D01*
X027136Y015657D02*
X019297Y015657D01*
X019138Y015499D02*
X027144Y015499D01*
X027208Y015340D02*
X018980Y015340D01*
X018821Y015182D02*
X027392Y015182D01*
X027405Y015023D02*
X018663Y015023D01*
X018504Y014865D02*
X027405Y014865D01*
X027405Y014706D02*
X022834Y014706D01*
X022759Y014782D02*
X022394Y014782D01*
X022136Y014524D01*
X022136Y014160D01*
X022394Y013902D01*
X022759Y013902D01*
X023016Y014160D01*
X023016Y014524D01*
X022759Y014782D01*
X022993Y014548D02*
X027424Y014548D01*
X028059Y014548D02*
X028094Y014548D01*
X028728Y014548D02*
X029102Y014548D01*
X029260Y014389D02*
X023016Y014389D01*
X023016Y014231D02*
X029419Y014231D01*
X029577Y014072D02*
X022929Y014072D01*
X022771Y013914D02*
X029736Y013914D01*
X029894Y013755D02*
X017395Y013755D01*
X017236Y013597D02*
X032053Y013597D01*
X032211Y013438D02*
X017078Y013438D01*
X016966Y013280D02*
X032370Y013280D01*
X032590Y013597D02*
X032636Y013597D01*
X032636Y013755D02*
X032432Y013755D01*
X032273Y013914D02*
X032636Y013914D01*
X032636Y014072D02*
X030115Y014072D01*
X029956Y014231D02*
X032656Y014231D01*
X032742Y014389D02*
X029798Y014389D01*
X029532Y012963D02*
X030235Y012963D01*
X030088Y012804D02*
X029678Y012804D01*
X029760Y012646D02*
X030007Y012646D01*
X029967Y012487D02*
X029800Y012487D01*
X029778Y012170D02*
X029989Y012170D01*
X030056Y012012D02*
X029710Y012012D01*
X029591Y011853D02*
X030176Y011853D01*
X030405Y011695D02*
X029362Y011695D01*
X029137Y011695D02*
X028977Y011695D01*
X028977Y011853D02*
X029137Y011853D01*
X029137Y012012D02*
X028977Y012012D01*
X028752Y011695D02*
X027708Y011695D01*
X027483Y011695D02*
X027323Y011695D01*
X027323Y011853D02*
X027483Y011853D01*
X027483Y012012D02*
X027323Y012012D01*
X027098Y011695D02*
X026055Y011695D01*
X025830Y011695D02*
X025670Y011695D01*
X025670Y011853D02*
X025830Y011853D01*
X025830Y012012D02*
X025670Y012012D01*
X025670Y012487D02*
X025830Y012487D01*
X025830Y012646D02*
X025670Y012646D01*
X025670Y012804D02*
X025830Y012804D01*
X025830Y012963D02*
X025670Y012963D01*
X025274Y012963D02*
X024520Y012963D01*
X024678Y012804D02*
X025128Y012804D01*
X025046Y012646D02*
X024756Y012646D01*
X024807Y012487D02*
X025006Y012487D01*
X026225Y012963D02*
X026928Y012963D01*
X026781Y012804D02*
X026371Y012804D01*
X026453Y012646D02*
X026700Y012646D01*
X026660Y012487D02*
X026493Y012487D01*
X026470Y012170D02*
X026682Y012170D01*
X026749Y012012D02*
X026403Y012012D01*
X026284Y011853D02*
X026869Y011853D01*
X027323Y012487D02*
X027483Y012487D01*
X027483Y012646D02*
X027323Y012646D01*
X027323Y012804D02*
X027483Y012804D01*
X027483Y012963D02*
X027323Y012963D01*
X027879Y012963D02*
X028581Y012963D01*
X028435Y012804D02*
X028025Y012804D01*
X028106Y012646D02*
X028354Y012646D01*
X028313Y012487D02*
X028147Y012487D01*
X028124Y012170D02*
X028336Y012170D01*
X028403Y012012D02*
X028057Y012012D01*
X027937Y011853D02*
X028523Y011853D01*
X028977Y012487D02*
X029137Y012487D01*
X029137Y012646D02*
X028977Y012646D01*
X028977Y012804D02*
X029137Y012804D01*
X029137Y012963D02*
X028977Y012963D01*
X030630Y012963D02*
X030790Y012963D01*
X030790Y012804D02*
X030630Y012804D01*
X030630Y012646D02*
X030790Y012646D01*
X030790Y012487D02*
X030630Y012487D01*
X030630Y012012D02*
X030790Y012012D01*
X030790Y011853D02*
X030630Y011853D01*
X030630Y011695D02*
X030790Y011695D01*
X030510Y010902D02*
X029361Y010902D01*
X029137Y010902D02*
X028977Y010902D01*
X028977Y010744D02*
X029137Y010744D01*
X029137Y010585D02*
X028977Y010585D01*
X028977Y010427D02*
X029137Y010427D01*
X029137Y010268D02*
X029999Y010268D01*
X029999Y010110D02*
X029800Y010110D01*
X029760Y009951D02*
X030050Y009951D01*
X030128Y009793D02*
X029679Y009793D01*
X029532Y009634D02*
X030286Y009634D01*
X031134Y009634D02*
X031888Y009634D01*
X031742Y009793D02*
X031293Y009793D01*
X031370Y009951D02*
X031661Y009951D01*
X031620Y010110D02*
X031421Y010110D01*
X030233Y010744D02*
X029591Y010744D01*
X029710Y010585D02*
X030094Y010585D01*
X030028Y010427D02*
X029778Y010427D01*
X028977Y010268D02*
X028114Y010268D01*
X028114Y010110D02*
X028313Y010110D01*
X028354Y009951D02*
X028063Y009951D01*
X027985Y009793D02*
X028435Y009793D01*
X028581Y009634D02*
X027827Y009634D01*
X026979Y009634D02*
X026225Y009634D01*
X026371Y009793D02*
X026821Y009793D01*
X026743Y009951D02*
X026453Y009951D01*
X026493Y010110D02*
X026692Y010110D01*
X026692Y010268D02*
X025830Y010268D01*
X025830Y010427D02*
X025670Y010427D01*
X025670Y010585D02*
X025830Y010585D01*
X025830Y010744D02*
X025670Y010744D01*
X025670Y010902D02*
X025830Y010902D01*
X026054Y010902D02*
X027203Y010902D01*
X026926Y010744D02*
X026284Y010744D01*
X026403Y010585D02*
X026787Y010585D01*
X026721Y010427D02*
X026470Y010427D01*
X025670Y010268D02*
X024807Y010268D01*
X024807Y010110D02*
X025006Y010110D01*
X025046Y009951D02*
X024756Y009951D01*
X024894Y009793D02*
X025128Y009793D01*
X025053Y009634D02*
X025274Y009634D01*
X024832Y009317D02*
X000970Y009317D01*
X000970Y010110D02*
X004257Y010110D01*
X004186Y010268D02*
X000970Y010268D01*
X000970Y010427D02*
X004186Y010427D01*
X004186Y010585D02*
X000970Y010585D01*
X000970Y010744D02*
X004123Y010744D01*
X003778Y010902D02*
X000970Y010902D01*
X000970Y011061D02*
X003648Y011061D01*
X003583Y011219D02*
X000970Y011219D01*
X000970Y011378D02*
X003580Y011378D01*
X003613Y011536D02*
X000970Y011536D01*
X000970Y011695D02*
X003692Y011695D01*
X003572Y011853D02*
X000970Y011853D01*
X000970Y012012D02*
X003370Y012012D01*
X003269Y012170D02*
X000970Y012170D01*
X000970Y012329D02*
X003218Y012329D01*
X003207Y012487D02*
X000970Y012487D01*
X000970Y012646D02*
X003236Y012646D01*
X003307Y012804D02*
X000970Y012804D01*
X000970Y012963D02*
X003441Y012963D01*
X003407Y013212D02*
X003488Y013246D01*
X003565Y013290D01*
X003635Y013343D01*
X003697Y013406D01*
X003751Y013476D01*
X003795Y013552D01*
X003828Y013633D01*
X003851Y013718D01*
X003863Y013806D01*
X003863Y014324D01*
X003209Y014324D01*
X003209Y014360D01*
X003863Y014360D01*
X003863Y014878D01*
X003851Y014966D01*
X003828Y015051D01*
X003795Y015132D01*
X003751Y015208D01*
X003697Y015278D01*
X003635Y015341D01*
X003565Y015394D01*
X003488Y015438D01*
X003407Y015472D01*
X003322Y015495D01*
X003235Y015506D01*
X003209Y015506D01*
X003209Y014360D01*
X003172Y014360D01*
X003172Y014324D01*
X002518Y014324D01*
X002518Y013806D01*
X002530Y013718D01*
X002553Y013633D01*
X002586Y013552D01*
X002630Y013476D01*
X002684Y013406D01*
X002746Y013343D01*
X002816Y013290D01*
X002893Y013246D01*
X002974Y013212D01*
X003059Y013189D01*
X003146Y013178D01*
X003172Y013178D01*
X003172Y014324D01*
X003209Y014324D01*
X003209Y013178D01*
X003235Y013178D01*
X003322Y013189D01*
X003407Y013212D01*
X003548Y013280D02*
X005277Y013280D01*
X005162Y013056D02*
X005080Y013090D01*
X004995Y013113D01*
X004908Y013124D01*
X004390Y013124D01*
X004390Y012471D01*
X005536Y012471D01*
X005536Y012496D01*
X005524Y012584D01*
X005502Y012669D01*
X005468Y012750D01*
X005424Y012826D01*
X005370Y012896D01*
X005308Y012959D01*
X005238Y013012D01*
X005162Y013056D01*
X005302Y012963D02*
X006086Y012963D01*
X006086Y013121D02*
X004930Y013121D01*
X005070Y013438D02*
X003722Y013438D01*
X003813Y013597D02*
X004973Y013597D01*
X004921Y013755D02*
X003856Y013755D01*
X003863Y013914D02*
X004921Y013914D01*
X004921Y014072D02*
X003863Y014072D01*
X003863Y014231D02*
X004921Y014231D01*
X004921Y014389D02*
X003863Y014389D01*
X003863Y014548D02*
X004921Y014548D01*
X004921Y014706D02*
X003863Y014706D01*
X003863Y014865D02*
X004921Y014865D01*
X004947Y015023D02*
X003836Y015023D01*
X003766Y015182D02*
X005013Y015182D01*
X005165Y015340D02*
X003635Y015340D01*
X003290Y015499D02*
X006682Y015499D01*
X006840Y015657D02*
X000970Y015657D01*
X000970Y015499D02*
X003091Y015499D01*
X003059Y015495D02*
X002974Y015472D01*
X002893Y015438D01*
X002816Y015394D01*
X002746Y015341D01*
X002684Y015278D01*
X002630Y015208D01*
X002586Y015132D01*
X002553Y015051D01*
X002530Y014966D01*
X002518Y014878D01*
X002518Y014360D01*
X003172Y014360D01*
X003172Y015506D01*
X003146Y015506D01*
X003059Y015495D01*
X003172Y015499D02*
X003209Y015499D01*
X003209Y015340D02*
X003172Y015340D01*
X003172Y015182D02*
X003209Y015182D01*
X003209Y015023D02*
X003172Y015023D01*
X003172Y014865D02*
X003209Y014865D01*
X003209Y014706D02*
X003172Y014706D01*
X003172Y014548D02*
X003209Y014548D01*
X003209Y014389D02*
X003172Y014389D01*
X003172Y014231D02*
X003209Y014231D01*
X003209Y014072D02*
X003172Y014072D01*
X003172Y013914D02*
X003209Y013914D01*
X003209Y013755D02*
X003172Y013755D01*
X003172Y013597D02*
X003209Y013597D01*
X003209Y013438D02*
X003172Y013438D01*
X003172Y013280D02*
X003209Y013280D01*
X002833Y013280D02*
X000970Y013280D01*
X000970Y013438D02*
X002659Y013438D01*
X002568Y013597D02*
X000970Y013597D01*
X000970Y013755D02*
X002525Y013755D01*
X002518Y013914D02*
X000970Y013914D01*
X000970Y014072D02*
X002518Y014072D01*
X002518Y014231D02*
X000970Y014231D01*
X000970Y014389D02*
X002518Y014389D01*
X002518Y014548D02*
X000970Y014548D01*
X000970Y014706D02*
X002518Y014706D01*
X002518Y014865D02*
X000970Y014865D01*
X000970Y015023D02*
X002545Y015023D01*
X002615Y015182D02*
X000970Y015182D01*
X000970Y015340D02*
X002746Y015340D01*
X003505Y016392D02*
X003582Y016348D01*
X003663Y016314D01*
X003748Y016292D01*
X003835Y016280D01*
X004353Y016280D01*
X004353Y016934D01*
X003207Y016934D01*
X003207Y016908D01*
X003219Y016821D01*
X003242Y016736D01*
X003275Y016654D01*
X003319Y016578D01*
X003373Y016508D01*
X003435Y016446D01*
X003505Y016392D01*
X003431Y016450D02*
X000970Y016450D01*
X000970Y016608D02*
X003302Y016608D01*
X003233Y016767D02*
X000970Y016767D01*
X000970Y016925D02*
X003207Y016925D01*
X003207Y016971D02*
X004353Y016971D01*
X004353Y017624D01*
X003835Y017624D01*
X003748Y017613D01*
X003663Y017590D01*
X003582Y017556D01*
X003505Y017512D01*
X003435Y017459D01*
X003373Y017396D01*
X003319Y017326D01*
X003275Y017250D01*
X003242Y017169D01*
X003219Y017084D01*
X000970Y017084D01*
X000970Y017242D02*
X003272Y017242D01*
X003219Y017084D02*
X003207Y016996D01*
X003207Y016971D01*
X003378Y017401D02*
X000970Y017401D01*
X000970Y017559D02*
X003589Y017559D01*
X003488Y017746D02*
X003565Y017790D01*
X003635Y017843D01*
X003697Y017906D01*
X003751Y017976D01*
X003795Y018052D01*
X003828Y018133D01*
X003851Y018218D01*
X003863Y018306D01*
X003863Y018824D01*
X003209Y018824D01*
X003209Y018860D01*
X003863Y018860D01*
X003863Y019378D01*
X003851Y019466D01*
X003828Y019551D01*
X003795Y019632D01*
X003751Y019708D01*
X003697Y019778D01*
X003635Y019841D01*
X003565Y019894D01*
X003488Y019938D01*
X003407Y019972D01*
X003322Y019995D01*
X003235Y020006D01*
X003209Y020006D01*
X003209Y018860D01*
X003172Y018860D01*
X003172Y018824D01*
X002518Y018824D01*
X002518Y018306D01*
X002530Y018218D01*
X002553Y018133D01*
X002586Y018052D01*
X002630Y017976D01*
X002684Y017906D01*
X002746Y017843D01*
X002816Y017790D01*
X002893Y017746D01*
X002974Y017712D01*
X003059Y017689D01*
X003146Y017678D01*
X003172Y017678D01*
X003172Y018824D01*
X003209Y018824D01*
X003209Y017678D01*
X003235Y017678D01*
X003322Y017689D01*
X003407Y017712D01*
X003488Y017746D01*
X003421Y017718D02*
X005426Y017718D01*
X005427Y017718D02*
X005678Y017718D01*
X005911Y017814D01*
X006089Y017992D01*
X006185Y018224D01*
X006185Y019460D01*
X006089Y019692D01*
X005911Y019870D01*
X005678Y019966D01*
X005427Y019966D01*
X005195Y019870D01*
X005017Y019692D01*
X004921Y019460D01*
X004921Y018224D01*
X005017Y017992D01*
X005195Y017814D01*
X005427Y017718D01*
X005679Y017718D02*
X007936Y017718D01*
X007936Y017876D02*
X005973Y017876D01*
X006107Y018035D02*
X007936Y018035D01*
X007936Y018193D02*
X006172Y018193D01*
X006185Y018352D02*
X007936Y018352D01*
X007936Y018510D02*
X006185Y018510D01*
X006185Y018669D02*
X007936Y018669D01*
X007936Y018827D02*
X006185Y018827D01*
X006185Y018986D02*
X006787Y018986D01*
X006553Y019144D02*
X006185Y019144D01*
X006185Y019303D02*
X006470Y019303D01*
X006452Y019461D02*
X006184Y019461D01*
X006119Y019620D02*
X006486Y019620D01*
X006592Y019778D02*
X006002Y019778D01*
X005749Y019937D02*
X007936Y019937D01*
X007936Y020095D02*
X000970Y020095D01*
X000970Y019937D02*
X002891Y019937D01*
X002893Y019938D02*
X002816Y019894D01*
X002746Y019841D01*
X002684Y019778D01*
X002630Y019708D01*
X002586Y019632D01*
X002553Y019551D01*
X002530Y019466D01*
X002518Y019378D01*
X002518Y018860D01*
X003172Y018860D01*
X003172Y020006D01*
X003146Y020006D01*
X003059Y019995D01*
X002974Y019972D01*
X002893Y019938D01*
X002684Y019778D02*
X000970Y019778D01*
X000970Y019620D02*
X002581Y019620D01*
X002529Y019461D02*
X000970Y019461D01*
X000970Y019303D02*
X002518Y019303D01*
X002518Y019144D02*
X000970Y019144D01*
X000970Y018986D02*
X002518Y018986D01*
X002518Y018669D02*
X000970Y018669D01*
X000970Y018827D02*
X003172Y018827D01*
X003209Y018827D02*
X004921Y018827D01*
X004921Y018669D02*
X003863Y018669D01*
X003863Y018510D02*
X004921Y018510D01*
X004921Y018352D02*
X003863Y018352D01*
X003844Y018193D02*
X004933Y018193D01*
X004999Y018035D02*
X003785Y018035D01*
X003668Y017876D02*
X005132Y017876D01*
X005080Y017590D02*
X004995Y017613D01*
X004908Y017624D01*
X004390Y017624D01*
X004390Y016971D01*
X004353Y016971D01*
X004353Y016934D01*
X004390Y016934D01*
X004390Y016971D01*
X005536Y016971D01*
X005536Y016996D01*
X005524Y017084D01*
X007936Y017084D01*
X007936Y017242D02*
X005471Y017242D01*
X005468Y017250D02*
X005424Y017326D01*
X005370Y017396D01*
X005308Y017459D01*
X005238Y017512D01*
X005162Y017556D01*
X005080Y017590D01*
X005154Y017559D02*
X007936Y017559D01*
X007936Y017401D02*
X005366Y017401D01*
X005468Y017250D02*
X005502Y017169D01*
X005524Y017084D01*
X005536Y016934D02*
X004390Y016934D01*
X004390Y016280D01*
X004908Y016280D01*
X004995Y016292D01*
X005080Y016314D01*
X005162Y016348D01*
X005238Y016392D01*
X005308Y016446D01*
X005370Y016508D01*
X005424Y016578D01*
X005468Y016654D01*
X005502Y016736D01*
X005524Y016821D01*
X005536Y016908D01*
X005536Y016934D01*
X005536Y016925D02*
X007936Y016925D01*
X007936Y016767D02*
X007273Y016767D01*
X007371Y016608D02*
X007936Y016608D01*
X007936Y016450D02*
X007401Y016450D01*
X007378Y016291D02*
X007421Y016291D01*
X007731Y016291D02*
X007936Y016291D01*
X007118Y015974D02*
X007038Y015974D01*
X006999Y015816D02*
X000970Y015816D01*
X000970Y015974D02*
X006815Y015974D01*
X006564Y016133D02*
X000970Y016133D01*
X000970Y016291D02*
X003749Y016291D01*
X004353Y016291D02*
X004390Y016291D01*
X004390Y016450D02*
X004353Y016450D01*
X004353Y016608D02*
X004390Y016608D01*
X004390Y016767D02*
X004353Y016767D01*
X004353Y016925D02*
X004390Y016925D01*
X004390Y017084D02*
X004353Y017084D01*
X004353Y017242D02*
X004390Y017242D01*
X004390Y017401D02*
X004353Y017401D01*
X004353Y017559D02*
X004390Y017559D01*
X003209Y017718D02*
X003172Y017718D01*
X003172Y017876D02*
X003209Y017876D01*
X003209Y018035D02*
X003172Y018035D01*
X003172Y018193D02*
X003209Y018193D01*
X003209Y018352D02*
X003172Y018352D01*
X003172Y018510D02*
X003209Y018510D01*
X003209Y018669D02*
X003172Y018669D01*
X003172Y018986D02*
X003209Y018986D01*
X003209Y019144D02*
X003172Y019144D01*
X003172Y019303D02*
X003209Y019303D01*
X003209Y019461D02*
X003172Y019461D01*
X003172Y019620D02*
X003209Y019620D01*
X003209Y019778D02*
X003172Y019778D01*
X003172Y019937D02*
X003209Y019937D01*
X003491Y019937D02*
X005356Y019937D01*
X005103Y019778D02*
X003697Y019778D01*
X003800Y019620D02*
X004987Y019620D01*
X004921Y019461D02*
X003852Y019461D01*
X003863Y019303D02*
X004921Y019303D01*
X004921Y019144D02*
X003863Y019144D01*
X003863Y018986D02*
X004921Y018986D01*
X002960Y017718D02*
X000970Y017718D01*
X000970Y017876D02*
X002713Y017876D01*
X002596Y018035D02*
X000970Y018035D01*
X000970Y018193D02*
X002537Y018193D01*
X002518Y018352D02*
X000970Y018352D01*
X000970Y018510D02*
X002518Y018510D01*
X000970Y020254D02*
X007936Y020254D01*
X007936Y020412D02*
X000970Y020412D01*
X000970Y020571D02*
X007936Y020571D01*
X007936Y020729D02*
X000970Y020729D01*
X000970Y020888D02*
X003513Y020888D01*
X003505Y020892D02*
X003582Y020848D01*
X003663Y020814D01*
X003748Y020792D01*
X003835Y020780D01*
X004353Y020780D01*
X004353Y021434D01*
X003207Y021434D01*
X003207Y021408D01*
X003219Y021321D01*
X003242Y021236D01*
X003275Y021154D01*
X003319Y021078D01*
X003373Y021008D01*
X003435Y020946D01*
X003505Y020892D01*
X003344Y021046D02*
X000970Y021046D01*
X000970Y021205D02*
X003254Y021205D01*
X003213Y021363D02*
X000970Y021363D01*
X000970Y021522D02*
X003211Y021522D01*
X003207Y021496D02*
X003207Y021471D01*
X004353Y021471D01*
X004353Y022124D01*
X003835Y022124D01*
X003748Y022113D01*
X003663Y022090D01*
X003582Y022056D01*
X003505Y022012D01*
X003435Y021959D01*
X003373Y021896D01*
X003319Y021826D01*
X003275Y021750D01*
X003242Y021669D01*
X003219Y021584D01*
X003207Y021496D01*
X003247Y021680D02*
X000970Y021680D01*
X000970Y021839D02*
X003329Y021839D01*
X003486Y021997D02*
X000970Y021997D01*
X000970Y022156D02*
X008485Y022156D01*
X008327Y021997D02*
X005257Y021997D01*
X005238Y022012D02*
X005162Y022056D01*
X005080Y022090D01*
X004995Y022113D01*
X004908Y022124D01*
X004390Y022124D01*
X004390Y021471D01*
X004353Y021471D01*
X004353Y021434D01*
X004390Y021434D01*
X004390Y021471D01*
X005536Y021471D01*
X005536Y021496D01*
X005524Y021584D01*
X005502Y021669D01*
X005468Y021750D01*
X005424Y021826D01*
X005370Y021896D01*
X005308Y021959D01*
X005238Y022012D01*
X005414Y021839D02*
X008168Y021839D01*
X008024Y021680D02*
X005497Y021680D01*
X005533Y021522D02*
X007958Y021522D01*
X007936Y021363D02*
X005530Y021363D01*
X005524Y021321D02*
X005536Y021408D01*
X005536Y021434D01*
X004390Y021434D01*
X004390Y020780D01*
X004908Y020780D01*
X004995Y020792D01*
X005080Y020814D01*
X005162Y020848D01*
X005238Y020892D01*
X005308Y020946D01*
X005370Y021008D01*
X005424Y021078D01*
X005468Y021154D01*
X005502Y021236D01*
X005524Y021321D01*
X005489Y021205D02*
X007936Y021205D01*
X007936Y021046D02*
X005400Y021046D01*
X005231Y020888D02*
X007936Y020888D01*
X007936Y019778D02*
X007261Y019778D01*
X009216Y019778D02*
X010051Y019778D01*
X009896Y019624D02*
X009896Y019362D01*
X010556Y019362D01*
X010556Y019322D01*
X009896Y019322D01*
X009896Y019060D01*
X010295Y018662D01*
X010556Y018662D01*
X010556Y019322D01*
X010596Y019322D01*
X010596Y018662D01*
X010858Y018662D01*
X011256Y019060D01*
X011256Y019322D01*
X010596Y019322D01*
X010596Y019362D01*
X010556Y019362D01*
X010556Y020022D01*
X010295Y020022D01*
X009896Y019624D01*
X009896Y019620D02*
X009216Y019620D01*
X009216Y019461D02*
X009896Y019461D01*
X009896Y019303D02*
X009216Y019303D01*
X009216Y019144D02*
X009896Y019144D01*
X009971Y018986D02*
X009216Y018986D01*
X009216Y018827D02*
X010129Y018827D01*
X010288Y018669D02*
X009216Y018669D01*
X009216Y018510D02*
X015637Y018510D01*
X015606Y018435D02*
X015678Y018608D01*
X015810Y018740D01*
X015983Y018812D01*
X016170Y018812D01*
X016343Y018740D01*
X016475Y018608D01*
X016546Y018435D01*
X016546Y018248D01*
X016475Y018076D01*
X016343Y017944D01*
X016170Y017872D01*
X015983Y017872D01*
X015810Y017944D01*
X015678Y018076D01*
X015606Y018248D01*
X015606Y018435D01*
X015606Y018352D02*
X009216Y018352D01*
X009216Y018193D02*
X015629Y018193D01*
X015719Y018035D02*
X009216Y018035D01*
X009216Y017876D02*
X015972Y017876D01*
X016181Y017876D02*
X018267Y017876D01*
X018285Y017859D02*
X018494Y017772D01*
X018721Y017772D01*
X018931Y017859D01*
X019091Y018019D01*
X019178Y018229D01*
X019178Y018455D01*
X019091Y018665D01*
X018931Y018825D01*
X018721Y018912D01*
X018494Y018912D01*
X018285Y018825D01*
X018125Y018665D01*
X018111Y018631D01*
X018111Y018713D01*
X017654Y018713D01*
X017654Y018296D01*
X017954Y018296D01*
X018000Y018308D01*
X018038Y018330D01*
X018038Y018229D01*
X018125Y018019D01*
X018285Y017859D01*
X018118Y018035D02*
X016434Y018035D01*
X016524Y018193D02*
X018052Y018193D01*
X017654Y018352D02*
X017499Y018352D01*
X017499Y018296D02*
X017499Y018713D01*
X017654Y018713D01*
X017654Y018868D01*
X018111Y018868D01*
X018111Y019129D01*
X018098Y019175D01*
X018075Y019216D01*
X018041Y019250D01*
X018000Y019273D01*
X017954Y019286D01*
X017654Y019286D01*
X017654Y018868D01*
X017499Y018868D01*
X017499Y018713D01*
X017042Y018713D01*
X017042Y018452D01*
X017054Y018406D01*
X017078Y018365D01*
X017112Y018332D01*
X017153Y018308D01*
X017198Y018296D01*
X017499Y018296D01*
X017499Y018510D02*
X017654Y018510D01*
X017654Y018669D02*
X017499Y018669D01*
X017499Y018827D02*
X014967Y018827D01*
X015122Y018986D02*
X017042Y018986D01*
X017042Y018868D02*
X017499Y018868D01*
X017499Y019286D01*
X017198Y019286D01*
X017153Y019273D01*
X017112Y019250D01*
X017078Y019216D01*
X017054Y019175D01*
X017042Y019129D01*
X017042Y018868D01*
X017042Y018669D02*
X016414Y018669D01*
X016515Y018510D02*
X017042Y018510D01*
X017091Y018352D02*
X016546Y018352D01*
X016894Y017782D02*
X016636Y017524D01*
X016636Y017160D01*
X016894Y016902D01*
X017259Y016902D01*
X017516Y017160D01*
X017516Y017524D01*
X017259Y017782D01*
X016894Y017782D01*
X016830Y017718D02*
X009216Y017718D01*
X009216Y017559D02*
X016672Y017559D01*
X016636Y017401D02*
X009216Y017401D01*
X009216Y017242D02*
X016636Y017242D01*
X016712Y017084D02*
X009216Y017084D01*
X009216Y016925D02*
X016871Y016925D01*
X017282Y016925D02*
X018755Y016925D01*
X018596Y016767D02*
X013274Y016767D01*
X013259Y016782D02*
X012894Y016782D01*
X012636Y016524D01*
X012636Y016160D01*
X012894Y015902D01*
X013259Y015902D01*
X013516Y016160D01*
X013516Y016524D01*
X013259Y016782D01*
X013432Y016608D02*
X018438Y016608D01*
X018279Y016450D02*
X013516Y016450D01*
X013516Y016291D02*
X015986Y016291D01*
X015987Y016292D02*
X015821Y016223D01*
X015695Y016097D01*
X015626Y015931D01*
X015626Y015752D01*
X015695Y015587D01*
X015821Y015460D01*
X015987Y015392D01*
X016166Y015392D01*
X016331Y015460D01*
X016458Y015587D01*
X016526Y015752D01*
X016526Y015931D01*
X016458Y016097D01*
X016331Y016223D01*
X016166Y016292D01*
X015987Y016292D01*
X016167Y016291D02*
X016833Y016291D01*
X016674Y016133D02*
X016422Y016133D01*
X016509Y015974D02*
X016586Y015974D01*
X016586Y015816D02*
X016526Y015816D01*
X016487Y015657D02*
X016586Y015657D01*
X016726Y015499D02*
X016370Y015499D01*
X015783Y015499D02*
X009324Y015499D01*
X009216Y015657D02*
X015666Y015657D01*
X015626Y015816D02*
X009216Y015816D01*
X009216Y015974D02*
X012822Y015974D01*
X012663Y016133D02*
X009216Y016133D01*
X009216Y016291D02*
X012636Y016291D01*
X012636Y016450D02*
X009216Y016450D01*
X009216Y016608D02*
X012721Y016608D01*
X012879Y016767D02*
X009216Y016767D01*
X009483Y015340D02*
X017170Y015340D01*
X017076Y015499D02*
X017076Y015499D01*
X017076Y015657D02*
X017076Y015657D01*
X017076Y015816D02*
X017076Y015816D01*
X017076Y015842D02*
X017076Y015842D01*
X017566Y015842D01*
X017076Y015842D01*
X017076Y015974D02*
X017076Y015974D01*
X017076Y016133D02*
X017076Y016133D01*
X017076Y016291D02*
X017076Y016291D01*
X017320Y016291D02*
X018121Y016291D01*
X017962Y016133D02*
X017478Y016133D01*
X017566Y015974D02*
X017804Y015974D01*
X017645Y015816D02*
X017566Y015816D01*
X017011Y015182D02*
X009641Y015182D01*
X009800Y015023D02*
X016853Y015023D01*
X016694Y014865D02*
X009958Y014865D01*
X010117Y014706D02*
X011119Y014706D01*
X011634Y014706D02*
X012062Y014706D01*
X011943Y014548D02*
X011775Y014548D01*
X012356Y014548D02*
X012396Y014548D01*
X012396Y014706D02*
X012356Y014706D01*
X012356Y014389D02*
X012396Y014389D01*
X012396Y014231D02*
X012356Y014231D01*
X012356Y014072D02*
X012396Y014072D01*
X012396Y013914D02*
X012356Y013914D01*
X012356Y013755D02*
X012396Y013755D01*
X012396Y013597D02*
X012356Y013597D01*
X012356Y013438D02*
X012396Y013438D01*
X012396Y013280D02*
X012356Y013280D01*
X012245Y013280D02*
X011832Y013280D01*
X011832Y013438D02*
X012004Y013438D01*
X011919Y013597D02*
X011836Y013597D01*
X011052Y013280D02*
X009507Y013280D01*
X009566Y013438D02*
X009661Y013438D01*
X009349Y013121D02*
X011052Y013121D01*
X011052Y012963D02*
X008216Y012963D01*
X008216Y013121D02*
X008804Y013121D01*
X008645Y013280D02*
X008216Y013280D01*
X008216Y013438D02*
X008586Y013438D01*
X008586Y013597D02*
X008216Y013597D01*
X008216Y013755D02*
X008597Y013755D01*
X008755Y013914D02*
X008216Y013914D01*
X008216Y014072D02*
X008941Y014072D01*
X008751Y014231D02*
X008370Y014231D01*
X008529Y014389D02*
X008624Y014389D01*
X009076Y013438D02*
X009076Y013438D01*
X009076Y013280D02*
X009076Y013280D01*
X009076Y013121D02*
X009076Y013121D01*
X008216Y012804D02*
X011052Y012804D01*
X011052Y012646D02*
X008216Y012646D01*
X008216Y012487D02*
X011052Y012487D01*
X011052Y012329D02*
X008216Y012329D01*
X008216Y012170D02*
X011085Y012170D01*
X011160Y012012D02*
X008216Y012012D01*
X009470Y011853D02*
X010043Y011853D01*
X009886Y011695D02*
X009623Y011695D01*
X009689Y011536D02*
X009807Y011536D01*
X010332Y011695D02*
X010467Y011695D01*
X010467Y011853D02*
X010332Y011853D01*
X010755Y011853D02*
X011603Y011853D01*
X011723Y012012D02*
X011773Y012012D01*
X011445Y011695D02*
X010913Y011695D01*
X010991Y011536D02*
X011366Y011536D01*
X011347Y011219D02*
X011010Y011219D01*
X010955Y011061D02*
X011402Y011061D01*
X011517Y010902D02*
X010841Y010902D01*
X010467Y010902D02*
X010332Y010902D01*
X010332Y011061D02*
X010467Y011061D01*
X010467Y011219D02*
X010332Y011219D01*
X011891Y011219D02*
X012026Y011219D01*
X012026Y011061D02*
X011891Y011061D01*
X011891Y010902D02*
X012026Y010902D01*
X007348Y010744D02*
X006866Y010744D01*
X006866Y010902D02*
X006896Y010902D01*
X005927Y010744D02*
X004966Y010744D01*
X004966Y010902D02*
X005337Y010902D01*
X005207Y011061D02*
X004908Y011061D01*
X004750Y011219D02*
X005142Y011219D01*
X005139Y011378D02*
X004746Y011378D01*
X004713Y011536D02*
X005172Y011536D01*
X005251Y011695D02*
X004634Y011695D01*
X005171Y011853D02*
X005434Y011853D01*
X005373Y012012D02*
X006086Y012012D01*
X006086Y012170D02*
X005475Y012170D01*
X005525Y012329D02*
X006086Y012329D01*
X006086Y012487D02*
X005536Y012487D01*
X005508Y012646D02*
X006086Y012646D01*
X006086Y012804D02*
X005436Y012804D01*
X005829Y013280D02*
X006086Y013280D01*
X006086Y013438D02*
X006035Y013438D01*
X004390Y013121D02*
X004353Y013121D01*
X004353Y012963D02*
X004390Y012963D01*
X004390Y012804D02*
X004353Y012804D01*
X004353Y012646D02*
X004390Y012646D01*
X004390Y012487D02*
X004353Y012487D01*
X003814Y013121D02*
X000970Y013121D01*
X004994Y016291D02*
X006475Y016291D01*
X006452Y016450D02*
X005312Y016450D01*
X005441Y016608D02*
X006482Y016608D01*
X006580Y016767D02*
X005510Y016767D01*
X005940Y015340D02*
X006523Y015340D01*
X006365Y015182D02*
X006093Y015182D01*
X006159Y015023D02*
X006206Y015023D01*
X006086Y011853D02*
X006010Y011853D01*
X013331Y015974D02*
X015644Y015974D01*
X015731Y016133D02*
X013490Y016133D01*
X012858Y018662D02*
X013256Y019060D01*
X013256Y019322D01*
X012596Y019322D01*
X012596Y018662D01*
X012858Y018662D01*
X012865Y018669D02*
X015739Y018669D01*
X015187Y019144D02*
X017046Y019144D01*
X017141Y019461D02*
X015216Y019461D01*
X015216Y019303D02*
X023279Y019303D01*
X023279Y019461D02*
X018012Y019461D01*
X018071Y019620D02*
X023279Y019620D01*
X023279Y019778D02*
X018071Y019778D01*
X018071Y019937D02*
X023279Y019937D01*
X023240Y020095D02*
X018071Y020095D01*
X018071Y020254D02*
X023188Y020254D01*
X023188Y020412D02*
X017557Y020412D01*
X017399Y020571D02*
X023213Y020571D01*
X023279Y020729D02*
X017240Y020729D01*
X017082Y020888D02*
X023279Y020888D01*
X023279Y021046D02*
X016923Y021046D01*
X016719Y021205D02*
X023279Y021205D01*
X023279Y021363D02*
X014606Y021363D01*
X014448Y021522D02*
X023279Y021522D01*
X023279Y021680D02*
X014289Y021680D01*
X014131Y021839D02*
X015992Y021839D01*
X015957Y021845D02*
X016036Y021832D01*
X016046Y021832D01*
X016046Y022312D01*
X015856Y022312D01*
X015856Y022322D01*
X015396Y022322D01*
X015396Y021862D01*
X015575Y021862D01*
X015705Y021992D01*
X015744Y021953D01*
X015809Y021906D01*
X015881Y021869D01*
X015957Y021845D01*
X016046Y021839D02*
X016106Y021839D01*
X016106Y021832D02*
X016117Y021832D01*
X016196Y021845D01*
X016272Y021869D01*
X016344Y021906D01*
X016409Y021953D01*
X016465Y022010D01*
X016513Y022075D01*
X016549Y022146D01*
X016574Y022223D01*
X016586Y022302D01*
X016586Y022312D01*
X016106Y022312D01*
X016106Y021832D01*
X016161Y021839D02*
X023279Y021839D01*
X023279Y021997D02*
X016453Y021997D01*
X016552Y022156D02*
X023279Y022156D01*
X023279Y022314D02*
X016106Y022314D01*
X016106Y022312D02*
X016106Y022372D01*
X016046Y022372D01*
X016046Y022312D01*
X016106Y022312D01*
X016046Y022314D02*
X015856Y022314D01*
X015856Y022362D02*
X015396Y022362D01*
X015356Y022362D01*
X015356Y022322D01*
X014896Y022322D01*
X014896Y022143D01*
X015178Y021862D01*
X015356Y021862D01*
X015356Y022322D01*
X015396Y022322D01*
X015396Y022362D01*
X015396Y022822D01*
X015575Y022822D01*
X015705Y022692D01*
X015744Y022731D01*
X015809Y022778D01*
X015881Y022815D01*
X015957Y022839D01*
X016036Y022852D01*
X016046Y022852D01*
X016046Y022372D01*
X015856Y022372D01*
X015856Y022362D01*
X016046Y022473D02*
X016106Y022473D01*
X016106Y022372D02*
X016106Y022852D01*
X016117Y022852D01*
X016196Y022839D01*
X016272Y022815D01*
X016344Y022778D01*
X016409Y022731D01*
X016465Y022674D01*
X016513Y022609D01*
X016549Y022538D01*
X016574Y022461D01*
X016586Y022382D01*
X016586Y022372D01*
X016106Y022372D01*
X016106Y022156D02*
X016046Y022156D01*
X016046Y021997D02*
X016106Y021997D01*
X016106Y022631D02*
X016046Y022631D01*
X016046Y022790D02*
X016106Y022790D01*
X016320Y022790D02*
X023265Y022790D01*
X023279Y022631D02*
X016496Y022631D01*
X016570Y022473D02*
X023279Y022473D01*
X023200Y022948D02*
X022862Y022948D01*
X023020Y023107D02*
X023188Y023107D01*
X023188Y023265D02*
X023056Y023265D01*
X023056Y023424D02*
X023253Y023424D01*
X023279Y023582D02*
X023015Y023582D01*
X022596Y023265D02*
X022556Y023265D01*
X022556Y023107D02*
X022596Y023107D01*
X022596Y022948D02*
X022556Y022948D01*
X022291Y022948D02*
X013832Y022948D01*
X013832Y022790D02*
X015146Y022790D01*
X015178Y022822D02*
X014896Y022541D01*
X014896Y022362D01*
X015356Y022362D01*
X015356Y022822D01*
X015178Y022822D01*
X015356Y022790D02*
X015396Y022790D01*
X015396Y022631D02*
X015356Y022631D01*
X015356Y022473D02*
X015396Y022473D01*
X015396Y022314D02*
X015356Y022314D01*
X015356Y022156D02*
X015396Y022156D01*
X015396Y021997D02*
X015356Y021997D01*
X015042Y021997D02*
X013972Y021997D01*
X013814Y022156D02*
X014896Y022156D01*
X014896Y022314D02*
X013805Y022314D01*
X013805Y022473D02*
X014896Y022473D01*
X014987Y022631D02*
X013814Y022631D01*
X013832Y023107D02*
X022133Y023107D01*
X022096Y023265D02*
X017766Y023265D01*
X017766Y023424D02*
X022096Y023424D01*
X022138Y023582D02*
X017766Y023582D01*
X017678Y025009D02*
X025436Y025009D01*
X025436Y025167D02*
X013016Y025167D01*
X013130Y025009D02*
X015475Y025009D01*
X015386Y024850D02*
X013163Y024850D01*
X013163Y024692D02*
X015386Y024692D01*
X015386Y024533D02*
X013163Y024533D01*
X013163Y024375D02*
X015386Y024375D01*
X015386Y024216D02*
X013163Y024216D01*
X013136Y024058D02*
X015386Y024058D01*
X015386Y023899D02*
X013136Y023899D01*
X013136Y023741D02*
X015386Y023741D01*
X015386Y023582D02*
X013734Y023582D01*
X013820Y023424D02*
X015386Y023424D01*
X015386Y023265D02*
X013832Y023265D01*
X012356Y023741D02*
X012236Y023741D01*
X012085Y023741D02*
X012068Y023741D01*
X012068Y023769D02*
X012040Y023769D01*
X011969Y023758D01*
X011901Y023736D01*
X011837Y023703D01*
X011779Y023661D01*
X011728Y023610D01*
X011685Y023552D01*
X011653Y023488D01*
X011630Y023419D01*
X011619Y023348D01*
X011619Y023043D01*
X012068Y023043D01*
X012068Y023769D01*
X011917Y023741D02*
X011116Y023741D01*
X011116Y023899D02*
X011267Y023899D01*
X011547Y023899D02*
X012356Y023899D01*
X012356Y024058D02*
X011761Y024058D01*
X011824Y024216D02*
X012329Y024216D01*
X012329Y024375D02*
X011824Y024375D01*
X011824Y024533D02*
X012329Y024533D01*
X012329Y024692D02*
X011824Y024692D01*
X011824Y024850D02*
X012329Y024850D01*
X012361Y025009D02*
X011792Y025009D01*
X011677Y025167D02*
X012476Y025167D01*
X012085Y023582D02*
X012068Y023582D01*
X012068Y023424D02*
X012085Y023424D01*
X012068Y023265D02*
X012085Y023265D01*
X012068Y023107D02*
X012085Y023107D01*
X012068Y022948D02*
X012085Y022948D01*
X012068Y022790D02*
X012085Y022790D01*
X012068Y022631D02*
X012085Y022631D01*
X012068Y022473D02*
X012085Y022473D01*
X012068Y022314D02*
X012085Y022314D01*
X012192Y022314D02*
X012356Y022314D01*
X011760Y022314D02*
X011723Y022314D01*
X011723Y022319D02*
X011501Y022319D01*
X011456Y022307D01*
X011415Y022283D01*
X011381Y022249D01*
X011357Y022208D01*
X011345Y022163D01*
X011345Y021960D01*
X011723Y021960D01*
X011723Y022319D01*
X011718Y022473D02*
X011043Y022473D01*
X010997Y022307D02*
X010951Y022319D01*
X010729Y022319D01*
X010729Y021960D01*
X011108Y021960D01*
X011108Y022163D01*
X011095Y022208D01*
X011072Y022249D01*
X011038Y022283D01*
X010997Y022307D01*
X010967Y022314D02*
X011485Y022314D01*
X011345Y022156D02*
X011108Y022156D01*
X011108Y021997D02*
X011345Y021997D01*
X011345Y021839D02*
X011108Y021839D01*
X011097Y021680D02*
X011356Y021680D01*
X011723Y021680D02*
X011760Y021680D01*
X011760Y021839D02*
X011723Y021839D01*
X011723Y021997D02*
X011760Y021997D01*
X011760Y022156D02*
X011723Y022156D01*
X011637Y022631D02*
X011137Y022631D01*
X011155Y022790D02*
X011619Y022790D01*
X011619Y022948D02*
X011155Y022948D01*
X011155Y023107D02*
X011619Y023107D01*
X011619Y023265D02*
X011155Y023265D01*
X011143Y023424D02*
X011632Y023424D01*
X011708Y023582D02*
X011116Y023582D01*
X009836Y023582D02*
X006185Y023582D01*
X006185Y023424D02*
X009753Y023424D01*
X009595Y023265D02*
X006185Y023265D01*
X006185Y023107D02*
X009436Y023107D01*
X009278Y022948D02*
X006185Y022948D01*
X006185Y022790D02*
X009119Y022790D01*
X008961Y022631D02*
X006147Y022631D01*
X006185Y022724D02*
X006089Y022492D01*
X005911Y022314D01*
X005678Y022218D01*
X005427Y022218D01*
X005195Y022314D01*
X005017Y022492D01*
X004921Y022724D01*
X004921Y023257D01*
X004906Y023272D01*
X004906Y023412D01*
X004921Y023427D01*
X004921Y023960D01*
X005017Y024192D01*
X005195Y024370D01*
X005427Y024466D01*
X005678Y024466D01*
X005911Y024370D01*
X006089Y024192D01*
X006185Y023960D01*
X006185Y022724D01*
X006070Y022473D02*
X008802Y022473D01*
X008644Y022314D02*
X005911Y022314D01*
X005194Y022314D02*
X003597Y022314D01*
X003565Y022290D02*
X003635Y022343D01*
X003697Y022406D01*
X003751Y022476D01*
X003795Y022552D01*
X003828Y022633D01*
X003851Y022718D01*
X003863Y022806D01*
X003863Y023324D01*
X003209Y023324D01*
X003209Y023360D01*
X003863Y023360D01*
X003863Y023878D01*
X003851Y023966D01*
X003828Y024051D01*
X003795Y024132D01*
X003751Y024208D01*
X003697Y024278D01*
X003635Y024341D01*
X003565Y024394D01*
X003488Y024438D01*
X003407Y024472D01*
X003322Y024495D01*
X003235Y024506D01*
X003209Y024506D01*
X003209Y023360D01*
X003172Y023360D01*
X003172Y023324D01*
X002518Y023324D01*
X002518Y022806D01*
X002530Y022718D01*
X002553Y022633D01*
X002586Y022552D01*
X002630Y022476D01*
X002684Y022406D01*
X002746Y022343D01*
X002816Y022290D01*
X002893Y022246D01*
X002974Y022212D01*
X003059Y022189D01*
X003146Y022178D01*
X003172Y022178D01*
X003172Y023324D01*
X003209Y023324D01*
X003209Y022178D01*
X003235Y022178D01*
X003322Y022189D01*
X003407Y022212D01*
X003488Y022246D01*
X003565Y022290D01*
X003749Y022473D02*
X005036Y022473D01*
X004959Y022631D02*
X003828Y022631D01*
X003861Y022790D02*
X004921Y022790D01*
X004921Y022948D02*
X003863Y022948D01*
X003863Y023107D02*
X004921Y023107D01*
X004912Y023265D02*
X003863Y023265D01*
X003863Y023424D02*
X004918Y023424D01*
X004921Y023582D02*
X003863Y023582D01*
X003863Y023741D02*
X004921Y023741D01*
X004921Y023899D02*
X003860Y023899D01*
X003825Y024058D02*
X004961Y024058D01*
X005041Y024216D02*
X003744Y024216D01*
X003590Y024375D02*
X005207Y024375D01*
X005899Y024375D02*
X009836Y024375D01*
X009836Y024533D02*
X000970Y024533D01*
X000970Y024375D02*
X002791Y024375D01*
X002816Y024394D02*
X002746Y024341D01*
X002684Y024278D01*
X002630Y024208D01*
X002586Y024132D01*
X002553Y024051D01*
X002530Y023966D01*
X002518Y023878D01*
X002518Y023360D01*
X003172Y023360D01*
X003172Y024506D01*
X003146Y024506D01*
X003059Y024495D01*
X002974Y024472D01*
X002893Y024438D01*
X002816Y024394D01*
X002637Y024216D02*
X000970Y024216D01*
X000970Y024058D02*
X002556Y024058D01*
X002521Y023899D02*
X000970Y023899D01*
X000970Y023741D02*
X002518Y023741D01*
X002518Y023582D02*
X000970Y023582D01*
X000970Y023424D02*
X002518Y023424D01*
X002518Y023265D02*
X000970Y023265D01*
X000970Y023107D02*
X002518Y023107D01*
X002518Y022948D02*
X000970Y022948D01*
X000970Y022790D02*
X002521Y022790D01*
X002553Y022631D02*
X000970Y022631D01*
X000970Y022473D02*
X002633Y022473D01*
X002784Y022314D02*
X000970Y022314D01*
X003172Y022314D02*
X003209Y022314D01*
X003209Y022473D02*
X003172Y022473D01*
X003172Y022631D02*
X003209Y022631D01*
X003209Y022790D02*
X003172Y022790D01*
X003172Y022948D02*
X003209Y022948D01*
X003209Y023107D02*
X003172Y023107D01*
X003172Y023265D02*
X003209Y023265D01*
X003209Y023424D02*
X003172Y023424D01*
X003172Y023582D02*
X003209Y023582D01*
X003209Y023741D02*
X003172Y023741D01*
X003172Y023899D02*
X003209Y023899D01*
X003209Y024058D02*
X003172Y024058D01*
X003172Y024216D02*
X003209Y024216D01*
X003209Y024375D02*
X003172Y024375D01*
X000970Y024692D02*
X009836Y024692D01*
X009836Y024850D02*
X000970Y024850D01*
X000970Y025009D02*
X009836Y025009D01*
X009836Y025167D02*
X000970Y025167D01*
X000970Y025326D02*
X009836Y025326D01*
X009884Y025484D02*
X000970Y025484D01*
X000970Y025643D02*
X009972Y025643D01*
X010131Y025801D02*
X000970Y025801D01*
X000970Y025960D02*
X010289Y025960D01*
X010448Y026118D02*
X000970Y026118D01*
X000970Y026277D02*
X010606Y026277D01*
X010837Y026435D02*
X000970Y026435D01*
X000970Y026594D02*
X017923Y026594D01*
X018082Y026752D02*
X000970Y026752D01*
X000970Y026911D02*
X018240Y026911D01*
X018399Y027069D02*
X016788Y027069D01*
X016821Y027102D02*
X016881Y027248D01*
X016881Y027405D01*
X016821Y027550D01*
X016710Y027661D01*
X016564Y027721D01*
X016407Y027721D01*
X016262Y027661D01*
X016151Y027550D01*
X016091Y027405D01*
X016091Y027248D01*
X016151Y027102D01*
X016262Y026991D01*
X016407Y026931D01*
X016564Y026931D01*
X016710Y026991D01*
X016821Y027102D01*
X016873Y027228D02*
X018557Y027228D01*
X018719Y027386D02*
X016881Y027386D01*
X016823Y027545D02*
X039553Y027545D01*
X039553Y027703D02*
X016607Y027703D01*
X016365Y027703D02*
X007788Y027703D01*
X007745Y027721D02*
X007588Y027721D01*
X007443Y027661D01*
X007332Y027550D01*
X007272Y027405D01*
X007272Y027248D01*
X007332Y027102D01*
X007443Y026991D01*
X007588Y026931D01*
X007745Y026931D01*
X007891Y026991D01*
X008002Y027102D01*
X008062Y027248D01*
X008062Y027405D01*
X008002Y027550D01*
X007891Y027661D01*
X007745Y027721D01*
X007546Y027703D02*
X000970Y027703D01*
X000970Y027545D02*
X007330Y027545D01*
X007272Y027386D02*
X000970Y027386D01*
X000970Y027228D02*
X007280Y027228D01*
X007365Y027069D02*
X000970Y027069D01*
X000970Y027862D02*
X039553Y027862D01*
X039553Y028020D02*
X000970Y028020D01*
X006064Y024216D02*
X009836Y024216D01*
X009836Y024058D02*
X006144Y024058D01*
X006185Y023899D02*
X009836Y023899D01*
X009836Y023741D02*
X006185Y023741D01*
X004390Y021997D02*
X004353Y021997D01*
X004353Y021839D02*
X004390Y021839D01*
X004390Y021680D02*
X004353Y021680D01*
X004353Y021522D02*
X004390Y021522D01*
X004390Y021363D02*
X004353Y021363D01*
X004353Y021205D02*
X004390Y021205D01*
X004390Y021046D02*
X004353Y021046D01*
X004353Y020888D02*
X004390Y020888D01*
X009216Y020888D02*
X012479Y020888D01*
X012376Y021046D02*
X009216Y021046D01*
X009344Y021205D02*
X012356Y021205D01*
X012356Y021363D02*
X009503Y021363D01*
X009661Y021522D02*
X012356Y021522D01*
X013136Y021522D02*
X013345Y021522D01*
X013503Y021363D02*
X013136Y021363D01*
X013265Y021205D02*
X013662Y021205D01*
X013820Y021046D02*
X013423Y021046D01*
X013582Y020888D02*
X013979Y020888D01*
X014137Y020729D02*
X013740Y020729D01*
X013899Y020571D02*
X014296Y020571D01*
X014057Y020412D02*
X016454Y020412D01*
X016613Y020254D02*
X014216Y020254D01*
X014374Y020095D02*
X016771Y020095D01*
X016930Y019937D02*
X014812Y019937D01*
X015045Y019778D02*
X017082Y019778D01*
X017082Y019620D02*
X015154Y019620D01*
X014186Y018827D02*
X013024Y018827D01*
X013182Y018986D02*
X014031Y018986D01*
X013965Y019144D02*
X013256Y019144D01*
X013256Y019303D02*
X013936Y019303D01*
X013905Y019461D02*
X013256Y019461D01*
X013256Y019362D02*
X013256Y019624D01*
X012858Y020022D01*
X012596Y020022D01*
X012596Y019362D01*
X012556Y019362D01*
X012556Y019322D01*
X011896Y019322D01*
X011896Y019060D01*
X012295Y018662D01*
X012556Y018662D01*
X012556Y019322D01*
X012596Y019322D01*
X012596Y019362D01*
X013256Y019362D01*
X013256Y019620D02*
X013747Y019620D01*
X013588Y019778D02*
X013102Y019778D01*
X012943Y019937D02*
X013430Y019937D01*
X013271Y020095D02*
X009216Y020095D01*
X009216Y019937D02*
X010210Y019937D01*
X010556Y019937D02*
X010596Y019937D01*
X010596Y020022D02*
X010858Y020022D01*
X011256Y019624D01*
X011256Y019362D01*
X010596Y019362D01*
X010596Y020022D01*
X010596Y019778D02*
X010556Y019778D01*
X010556Y019620D02*
X010596Y019620D01*
X010596Y019461D02*
X010556Y019461D01*
X010556Y019303D02*
X010596Y019303D01*
X010596Y019144D02*
X010556Y019144D01*
X010556Y018986D02*
X010596Y018986D01*
X010596Y018827D02*
X010556Y018827D01*
X010556Y018669D02*
X010596Y018669D01*
X010865Y018669D02*
X012288Y018669D01*
X012129Y018827D02*
X011024Y018827D01*
X011182Y018986D02*
X011971Y018986D01*
X011896Y019144D02*
X011256Y019144D01*
X011256Y019303D02*
X011896Y019303D01*
X011896Y019362D02*
X012556Y019362D01*
X012556Y020022D01*
X012295Y020022D01*
X011896Y019624D01*
X011896Y019362D01*
X011896Y019461D02*
X011256Y019461D01*
X011256Y019620D02*
X011896Y019620D01*
X012051Y019778D02*
X011102Y019778D01*
X010943Y019937D02*
X012210Y019937D01*
X012556Y019937D02*
X012596Y019937D01*
X012596Y019778D02*
X012556Y019778D01*
X012556Y019620D02*
X012596Y019620D01*
X012596Y019461D02*
X012556Y019461D01*
X012556Y019303D02*
X012596Y019303D01*
X012596Y019144D02*
X012556Y019144D01*
X012556Y018986D02*
X012596Y018986D01*
X012596Y018827D02*
X012556Y018827D01*
X012556Y018669D02*
X012596Y018669D01*
X013113Y020254D02*
X009216Y020254D01*
X009216Y020412D02*
X012954Y020412D01*
X012796Y020571D02*
X009216Y020571D01*
X009216Y020729D02*
X012637Y020729D01*
X013136Y021680D02*
X013186Y021680D01*
X010729Y021680D02*
X010693Y021680D01*
X010693Y021839D02*
X010729Y021839D01*
X010729Y021997D02*
X010693Y021997D01*
X010693Y022156D02*
X010729Y022156D01*
X010729Y022314D02*
X010693Y022314D01*
X010455Y022314D02*
X010454Y022314D01*
X015607Y022790D02*
X015832Y022790D01*
X018466Y025326D02*
X025436Y025326D01*
X025436Y025484D02*
X018624Y025484D01*
X018783Y025643D02*
X025436Y025643D01*
X025436Y025801D02*
X018941Y025801D01*
X019100Y025960D02*
X025436Y025960D01*
X025395Y026118D02*
X019258Y026118D01*
X016184Y027069D02*
X007969Y027069D01*
X008054Y027228D02*
X016099Y027228D01*
X016091Y027386D02*
X008062Y027386D01*
X008004Y027545D02*
X016149Y027545D01*
X023973Y024850D02*
X025436Y024850D01*
X025436Y024692D02*
X024131Y024692D01*
X024290Y024533D02*
X025436Y024533D01*
X025436Y024375D02*
X024448Y024375D01*
X024522Y024216D02*
X025436Y024216D01*
X025436Y024058D02*
X024559Y024058D01*
X024559Y023899D02*
X025436Y023899D01*
X025436Y023741D02*
X024559Y023741D01*
X024559Y023582D02*
X025315Y023582D01*
X025222Y023424D02*
X024584Y023424D01*
X024649Y023265D02*
X025157Y023265D01*
X025157Y023107D02*
X024649Y023107D01*
X024638Y022948D02*
X025168Y022948D01*
X025234Y022790D02*
X024572Y022790D01*
X024559Y022631D02*
X025344Y022631D01*
X025436Y022473D02*
X024559Y022473D01*
X024559Y022314D02*
X025436Y022314D01*
X025436Y022156D02*
X024559Y022156D01*
X024559Y021997D02*
X025436Y021997D01*
X025436Y021839D02*
X024559Y021839D01*
X024559Y021680D02*
X025436Y021680D01*
X025436Y021522D02*
X024559Y021522D01*
X024559Y021363D02*
X025436Y021363D01*
X025436Y021205D02*
X024559Y021205D01*
X024559Y021046D02*
X025436Y021046D01*
X025377Y020888D02*
X024559Y020888D01*
X024559Y020729D02*
X025247Y020729D01*
X025182Y020571D02*
X024625Y020571D01*
X024649Y020412D02*
X025157Y020412D01*
X025157Y020254D02*
X024649Y020254D01*
X024598Y020095D02*
X025209Y020095D01*
X025283Y019937D02*
X024559Y019937D01*
X024559Y019778D02*
X025441Y019778D01*
X026333Y019778D02*
X027216Y019778D01*
X027216Y019620D02*
X024559Y019620D01*
X024559Y019461D02*
X027216Y019461D01*
X027216Y019303D02*
X024559Y019303D01*
X024679Y019144D02*
X027216Y019144D01*
X027216Y018986D02*
X024837Y018986D01*
X025496Y018827D02*
X027216Y018827D01*
X027216Y018669D02*
X025634Y018669D01*
X025699Y018510D02*
X027216Y018510D01*
X027216Y018435D02*
X027313Y018200D01*
X027493Y018020D01*
X027729Y017922D01*
X027849Y017922D01*
X027982Y017867D01*
X028171Y017867D01*
X028345Y017940D01*
X028479Y018073D01*
X028551Y018248D01*
X028551Y018436D01*
X028496Y018569D01*
X028496Y020002D01*
X028586Y020220D01*
X028586Y020511D01*
X028496Y020730D01*
X028496Y022758D01*
X028576Y022952D01*
X029654Y022952D01*
X029797Y023011D01*
X029907Y023121D01*
X031188Y024402D01*
X031259Y024402D01*
X031516Y024660D01*
X031516Y025024D01*
X031259Y025282D01*
X030894Y025282D01*
X030636Y025024D01*
X030636Y024954D01*
X029415Y023732D01*
X028279Y023732D01*
X028270Y023741D01*
X028001Y023852D01*
X027711Y023852D01*
X027442Y023741D01*
X027387Y023686D01*
X027355Y023673D01*
X027246Y023563D01*
X027186Y023420D01*
X027186Y023414D01*
X027125Y023267D01*
X027125Y022976D01*
X027216Y022758D01*
X027216Y020730D01*
X027125Y020511D01*
X027125Y020220D01*
X027216Y020002D01*
X027216Y018435D01*
X027250Y018352D02*
X025716Y018352D01*
X025776Y018193D02*
X027320Y018193D01*
X027478Y018035D02*
X025935Y018035D01*
X026093Y017876D02*
X027960Y017876D01*
X028193Y017876D02*
X035061Y017876D01*
X035220Y017718D02*
X030188Y017718D01*
X030410Y017559D02*
X035236Y017559D01*
X035236Y017701D02*
X035236Y017173D01*
X035174Y017111D01*
X035102Y016936D01*
X035102Y016748D01*
X035174Y016573D01*
X035308Y016440D01*
X035386Y016407D01*
X035386Y016263D01*
X035498Y016152D01*
X036498Y015152D01*
X036940Y015152D01*
X036905Y015116D01*
X036905Y015032D01*
X036155Y015032D01*
X034476Y016711D01*
X034476Y017182D01*
X034415Y017329D01*
X034303Y017441D01*
X034156Y017502D01*
X033997Y017502D01*
X033850Y017441D01*
X033737Y017329D01*
X033676Y017182D01*
X033676Y016502D01*
X033737Y016355D01*
X033850Y016243D01*
X033997Y016182D01*
X034156Y016182D01*
X034303Y016243D01*
X034355Y016295D01*
X035998Y014652D01*
X036905Y014652D01*
X036905Y014567D01*
X036987Y014485D01*
X037497Y014485D01*
X037576Y014565D01*
X037656Y014485D01*
X038166Y014485D01*
X038248Y014567D01*
X038248Y015116D01*
X038166Y015199D01*
X037989Y015199D01*
X037766Y015421D01*
X037655Y015532D01*
X037389Y015532D01*
X037516Y015660D01*
X037516Y015842D01*
X037516Y016024D01*
X037259Y016282D01*
X037076Y016282D01*
X036894Y016282D01*
X036636Y016024D01*
X036636Y015842D01*
X037076Y015842D01*
X037076Y015842D01*
X036636Y015842D01*
X036636Y015660D01*
X036764Y015532D01*
X036655Y015532D01*
X035776Y016411D01*
X035845Y016440D01*
X035979Y016573D01*
X036051Y016748D01*
X036051Y016936D01*
X035979Y017111D01*
X035916Y017173D01*
X035916Y017910D01*
X035865Y018035D01*
X034159Y019740D01*
X034175Y019746D01*
X034381Y019952D01*
X034492Y020220D01*
X034492Y020511D01*
X034381Y020779D01*
X034175Y020985D01*
X033907Y021096D01*
X033616Y021096D01*
X033348Y020985D01*
X033142Y020779D01*
X033031Y020511D01*
X033031Y020220D01*
X033142Y019952D01*
X033348Y019746D01*
X033421Y019716D01*
X033421Y019589D01*
X033473Y019464D01*
X035236Y017701D01*
X035236Y017401D02*
X034343Y017401D01*
X034451Y017242D02*
X035236Y017242D01*
X035163Y017084D02*
X034476Y017084D01*
X034476Y016925D02*
X035102Y016925D01*
X035102Y016767D02*
X034476Y016767D01*
X034579Y016608D02*
X035159Y016608D01*
X035297Y016450D02*
X034737Y016450D01*
X034896Y016291D02*
X035386Y016291D01*
X035517Y016133D02*
X035054Y016133D01*
X035213Y015974D02*
X035675Y015974D01*
X035834Y015816D02*
X035371Y015816D01*
X035530Y015657D02*
X035992Y015657D01*
X036151Y015499D02*
X035688Y015499D01*
X035847Y015340D02*
X036309Y015340D01*
X036468Y015182D02*
X036005Y015182D01*
X035785Y014865D02*
X035322Y014865D01*
X035164Y015023D02*
X035626Y015023D01*
X035468Y015182D02*
X035005Y015182D01*
X034847Y015340D02*
X035309Y015340D01*
X035151Y015499D02*
X034688Y015499D01*
X034476Y015657D02*
X034992Y015657D01*
X034834Y015816D02*
X034421Y015816D01*
X034222Y015974D02*
X034675Y015974D01*
X034517Y016133D02*
X031466Y016133D01*
X030100Y016767D02*
X024361Y016767D01*
X024565Y016925D02*
X029941Y016925D01*
X028371Y016450D02*
X027846Y016450D01*
X027974Y016291D02*
X028222Y016291D01*
X028176Y016133D02*
X028016Y016133D01*
X028016Y015974D02*
X028176Y015974D01*
X028176Y015816D02*
X028016Y015816D01*
X028016Y015842D02*
X027576Y015842D01*
X027576Y016542D01*
X027576Y015842D01*
X027576Y015842D01*
X028016Y015842D01*
X028016Y015657D02*
X028123Y015657D01*
X027576Y015842D02*
X027576Y015842D01*
X027576Y015974D02*
X027576Y015974D01*
X027576Y016133D02*
X027576Y016133D01*
X027576Y016291D02*
X027576Y016291D01*
X027576Y016450D02*
X027576Y016450D01*
X025783Y017084D02*
X024723Y017084D01*
X024882Y017242D02*
X025624Y017242D01*
X025466Y017401D02*
X025040Y017401D01*
X025199Y017559D02*
X025307Y017559D01*
X023864Y018035D02*
X023035Y018035D01*
X023100Y018193D02*
X023820Y018193D01*
X023661Y018352D02*
X023115Y018352D01*
X023092Y018510D02*
X023503Y018510D01*
X023363Y018669D02*
X023024Y018669D01*
X022862Y018827D02*
X023297Y018827D01*
X023279Y018986D02*
X018111Y018986D01*
X018107Y019144D02*
X023279Y019144D01*
X022228Y018827D02*
X018925Y018827D01*
X019087Y018669D02*
X022066Y018669D01*
X021998Y018510D02*
X019155Y018510D01*
X019178Y018352D02*
X021975Y018352D01*
X021989Y018193D02*
X019163Y018193D01*
X019098Y018035D02*
X022055Y018035D01*
X019706Y017876D02*
X018948Y017876D01*
X019389Y017559D02*
X017481Y017559D01*
X017516Y017401D02*
X019230Y017401D01*
X019072Y017242D02*
X017516Y017242D01*
X017441Y017084D02*
X018913Y017084D01*
X019547Y017718D02*
X017323Y017718D01*
X018111Y018669D02*
X018129Y018669D01*
X018291Y018827D02*
X017654Y018827D01*
X017654Y018986D02*
X017499Y018986D01*
X017499Y019144D02*
X017654Y019144D01*
X018346Y014706D02*
X022319Y014706D01*
X022160Y014548D02*
X018187Y014548D01*
X018029Y014389D02*
X022136Y014389D01*
X022136Y014231D02*
X017870Y014231D01*
X017712Y014072D02*
X022224Y014072D01*
X022382Y013914D02*
X017553Y013914D01*
X017562Y012963D02*
X017402Y012963D01*
X017402Y012804D02*
X017562Y012804D01*
X017562Y012646D02*
X017402Y012646D01*
X017402Y012487D02*
X017562Y012487D01*
X017562Y012329D02*
X018425Y012329D01*
X018425Y012487D02*
X018225Y012487D01*
X018185Y012646D02*
X018476Y012646D01*
X018553Y012804D02*
X018104Y012804D01*
X017957Y012963D02*
X018712Y012963D01*
X019559Y012963D02*
X020365Y012963D01*
X020207Y012804D02*
X019718Y012804D01*
X019795Y012646D02*
X020129Y012646D01*
X020078Y012487D02*
X019846Y012487D01*
X019846Y012329D02*
X020078Y012329D01*
X020107Y012170D02*
X019818Y012170D01*
X019752Y012012D02*
X020173Y012012D01*
X020312Y011853D02*
X019613Y011853D01*
X018519Y012012D02*
X018136Y012012D01*
X018203Y012170D02*
X018453Y012170D01*
X018269Y010744D02*
X017959Y010744D01*
X018098Y010585D02*
X018428Y010585D01*
X018453Y010427D02*
X018164Y010427D01*
X018193Y010268D02*
X018425Y010268D01*
X018425Y010110D02*
X018193Y010110D01*
X018142Y009951D02*
X018476Y009951D01*
X018553Y009793D02*
X018064Y009793D01*
X017906Y009634D02*
X018712Y009634D01*
X021213Y009634D02*
X022019Y009634D01*
X021860Y009793D02*
X021371Y009793D01*
X021449Y009951D02*
X021783Y009951D01*
X021732Y010110D02*
X021500Y010110D01*
X021500Y010268D02*
X021732Y010268D01*
X021760Y010427D02*
X021471Y010427D01*
X021405Y010585D02*
X021826Y010585D01*
X021965Y010744D02*
X021266Y010744D01*
X021266Y011853D02*
X021965Y011853D01*
X021826Y012012D02*
X021405Y012012D01*
X021471Y012170D02*
X021760Y012170D01*
X021732Y012329D02*
X021500Y012329D01*
X021500Y012487D02*
X021732Y012487D01*
X021783Y012646D02*
X021449Y012646D01*
X021371Y012804D02*
X021860Y012804D01*
X022019Y012963D02*
X021213Y012963D01*
X022866Y012963D02*
X023672Y012963D01*
X023514Y012804D02*
X023025Y012804D01*
X023102Y012646D02*
X023436Y012646D01*
X023385Y012487D02*
X023153Y012487D01*
X023153Y012329D02*
X023385Y012329D01*
X023414Y012170D02*
X023125Y012170D01*
X023059Y012012D02*
X023480Y012012D01*
X023619Y011853D02*
X022920Y011853D01*
X024296Y010902D02*
X025445Y010902D01*
X025216Y010744D02*
X024573Y010744D01*
X024712Y010585D02*
X025096Y010585D01*
X025029Y010427D02*
X024778Y010427D01*
X027603Y010902D02*
X028752Y010902D01*
X028523Y010744D02*
X027880Y010744D01*
X028020Y010585D02*
X028403Y010585D01*
X028336Y010427D02*
X028085Y010427D01*
X033138Y009634D02*
X033594Y009634D01*
X033435Y009793D02*
X033296Y009793D01*
X034441Y009634D02*
X035247Y009634D01*
X035089Y009793D02*
X034600Y009793D01*
X034677Y009951D02*
X035011Y009951D01*
X034960Y010110D02*
X034728Y010110D01*
X034728Y010268D02*
X034960Y010268D01*
X034989Y010427D02*
X034699Y010427D01*
X034634Y010585D02*
X035054Y010585D01*
X035194Y010744D02*
X034495Y010744D01*
X033435Y012804D02*
X033366Y012804D01*
X033224Y012963D02*
X033594Y012963D01*
X033397Y013280D02*
X033813Y013280D01*
X033703Y013438D02*
X033492Y013438D01*
X033516Y013597D02*
X033676Y013597D01*
X033676Y013755D02*
X033516Y013755D01*
X033516Y013914D02*
X033676Y013914D01*
X033676Y014072D02*
X033516Y014072D01*
X033497Y014231D02*
X033697Y014231D01*
X033798Y014389D02*
X033411Y014389D01*
X033308Y014706D02*
X033938Y014706D01*
X033733Y014865D02*
X033460Y014865D01*
X033513Y015023D02*
X033676Y015023D01*
X033676Y015182D02*
X033516Y015182D01*
X033516Y015340D02*
X033676Y015340D01*
X033676Y015499D02*
X033516Y015499D01*
X033513Y015657D02*
X033676Y015657D01*
X033732Y015816D02*
X033461Y015816D01*
X033312Y015974D02*
X033930Y015974D01*
X033801Y016291D02*
X033408Y016291D01*
X033496Y016450D02*
X033698Y016450D01*
X033676Y016608D02*
X033516Y016608D01*
X033516Y016767D02*
X033676Y016767D01*
X033676Y016925D02*
X033516Y016925D01*
X033516Y017084D02*
X033676Y017084D01*
X033702Y017242D02*
X033493Y017242D01*
X033400Y017401D02*
X033810Y017401D01*
X034903Y018035D02*
X028441Y018035D01*
X028529Y018193D02*
X034744Y018193D01*
X034586Y018352D02*
X028551Y018352D01*
X028520Y018510D02*
X034427Y018510D01*
X034269Y018669D02*
X028496Y018669D01*
X028496Y018827D02*
X034110Y018827D01*
X033952Y018986D02*
X028496Y018986D01*
X028496Y019144D02*
X033793Y019144D01*
X033635Y019303D02*
X028496Y019303D01*
X028496Y019461D02*
X033476Y019461D01*
X033421Y019620D02*
X028496Y019620D01*
X028496Y019778D02*
X033315Y019778D01*
X033157Y019937D02*
X028496Y019937D01*
X028535Y020095D02*
X033083Y020095D01*
X033031Y020254D02*
X028586Y020254D01*
X028586Y020412D02*
X033031Y020412D01*
X033056Y020571D02*
X028562Y020571D01*
X028496Y020729D02*
X033121Y020729D01*
X033251Y020888D02*
X028496Y020888D01*
X028496Y021046D02*
X033496Y021046D01*
X034027Y021046D02*
X035236Y021046D01*
X035236Y020888D02*
X034272Y020888D01*
X034401Y020729D02*
X035236Y020729D01*
X035236Y020571D02*
X034467Y020571D01*
X034492Y020412D02*
X035236Y020412D01*
X035236Y020254D02*
X034492Y020254D01*
X034440Y020095D02*
X035168Y020095D01*
X035174Y020111D02*
X035236Y020173D01*
X035236Y021701D01*
X034436Y022502D01*
X034175Y022502D01*
X033907Y022391D01*
X033616Y022391D01*
X033348Y022502D01*
X033142Y022708D01*
X033031Y022976D01*
X033031Y023267D01*
X033142Y023535D01*
X033348Y023741D01*
X030527Y023741D01*
X030685Y023899D02*
X037515Y023899D01*
X037521Y023741D02*
X034175Y023741D01*
X033907Y023852D01*
X033616Y023852D01*
X033348Y023741D01*
X033189Y023582D02*
X030368Y023582D01*
X030210Y023424D02*
X033096Y023424D01*
X033031Y023265D02*
X030051Y023265D01*
X029893Y023107D02*
X033031Y023107D01*
X033042Y022948D02*
X028575Y022948D01*
X028509Y022790D02*
X033108Y022790D01*
X033218Y022631D02*
X028496Y022631D01*
X028496Y022473D02*
X033418Y022473D01*
X034105Y022473D02*
X034465Y022473D01*
X034623Y022314D02*
X028496Y022314D01*
X028496Y022156D02*
X034782Y022156D01*
X034940Y021997D02*
X028496Y021997D01*
X028496Y021839D02*
X035099Y021839D01*
X035236Y021680D02*
X028496Y021680D01*
X028496Y021522D02*
X035236Y021522D01*
X035236Y021363D02*
X028496Y021363D01*
X028496Y021205D02*
X035236Y021205D01*
X035916Y021205D02*
X038686Y021205D01*
X038686Y021363D02*
X038377Y021363D01*
X038372Y021360D02*
X038444Y021412D01*
X038506Y021475D01*
X038559Y021546D01*
X038599Y021626D01*
X038626Y021710D01*
X038640Y021794D01*
X038124Y021794D01*
X038124Y021279D01*
X038208Y021292D01*
X038293Y021319D01*
X038372Y021360D01*
X038541Y021522D02*
X038686Y021522D01*
X038686Y021680D02*
X038617Y021680D01*
X038686Y021839D02*
X038124Y021839D01*
X038124Y021794D02*
X038124Y021890D01*
X038028Y021890D01*
X038028Y021794D01*
X037513Y021794D01*
X037526Y021710D01*
X037554Y021626D01*
X037594Y021546D01*
X037646Y021475D01*
X037709Y021412D01*
X037781Y021360D01*
X037860Y021319D01*
X037944Y021292D01*
X038028Y021279D01*
X038028Y021794D01*
X038124Y021794D01*
X038124Y021890D02*
X038640Y021890D01*
X038626Y021974D01*
X038599Y022058D01*
X038559Y022137D01*
X038506Y022209D01*
X038444Y022272D01*
X038372Y022324D01*
X038293Y022365D01*
X038208Y022392D01*
X038124Y022405D01*
X038124Y021890D01*
X038028Y021890D02*
X038028Y022405D01*
X037944Y022392D01*
X037860Y022365D01*
X037781Y022324D01*
X037709Y022272D01*
X037646Y022209D01*
X037594Y022137D01*
X037554Y022058D01*
X037526Y021974D01*
X037513Y021890D01*
X038028Y021890D01*
X038028Y021839D02*
X035916Y021839D01*
X035916Y021910D02*
X035865Y022035D01*
X034865Y023035D01*
X034769Y023130D01*
X034644Y023182D01*
X034492Y023182D01*
X034492Y023267D01*
X034381Y023535D01*
X034175Y023741D01*
X034334Y023582D02*
X037576Y023582D01*
X037697Y023424D02*
X034427Y023424D01*
X034492Y023265D02*
X038686Y023265D01*
X038686Y023107D02*
X034792Y023107D01*
X034951Y022948D02*
X038686Y022948D01*
X038686Y022790D02*
X035109Y022790D01*
X035268Y022631D02*
X038686Y022631D01*
X038686Y022473D02*
X035426Y022473D01*
X035585Y022314D02*
X037767Y022314D01*
X037608Y022156D02*
X035743Y022156D01*
X035880Y021997D02*
X037534Y021997D01*
X037536Y021680D02*
X035916Y021680D01*
X035916Y021522D02*
X037612Y021522D01*
X037776Y021363D02*
X035916Y021363D01*
X035916Y021046D02*
X038686Y021046D01*
X038686Y020888D02*
X035916Y020888D01*
X035916Y020729D02*
X038686Y020729D01*
X038686Y020571D02*
X035916Y020571D01*
X035916Y020412D02*
X038686Y020412D01*
X038686Y020254D02*
X035916Y020254D01*
X035916Y020182D02*
X035916Y021910D01*
X035916Y020182D02*
X036851Y020182D01*
X036911Y020242D01*
X037242Y020242D01*
X037476Y020008D01*
X037476Y019676D01*
X037242Y019442D01*
X036911Y019442D01*
X036851Y019502D01*
X035908Y019502D01*
X035845Y019440D01*
X035671Y019367D01*
X035482Y019367D01*
X035308Y019440D01*
X035174Y019573D01*
X035102Y019748D01*
X035102Y019936D01*
X035174Y020111D01*
X035102Y019937D02*
X034366Y019937D01*
X034207Y019778D02*
X035102Y019778D01*
X035155Y019620D02*
X034279Y019620D01*
X034438Y019461D02*
X035286Y019461D01*
X034755Y019144D02*
X038686Y019144D01*
X038686Y018986D02*
X034913Y018986D01*
X035072Y018827D02*
X038686Y018827D01*
X038686Y018669D02*
X035230Y018669D01*
X035389Y018510D02*
X038686Y018510D01*
X038686Y018352D02*
X035547Y018352D01*
X035706Y018193D02*
X037749Y018193D01*
X037878Y018322D02*
X037596Y018041D01*
X037596Y017862D01*
X038056Y017862D01*
X038056Y017822D01*
X037596Y017822D01*
X037596Y017643D01*
X037878Y017362D01*
X038056Y017362D01*
X038056Y017822D01*
X038096Y017822D01*
X038096Y017362D01*
X038275Y017362D01*
X038556Y017643D01*
X038556Y017822D01*
X038096Y017822D01*
X038096Y017862D01*
X038056Y017862D01*
X038056Y018322D01*
X037878Y018322D01*
X038096Y018322D02*
X038275Y018322D01*
X038556Y018041D01*
X038556Y017862D01*
X038096Y017862D01*
X038096Y018322D01*
X038096Y018193D02*
X038056Y018193D01*
X038056Y018035D02*
X038096Y018035D01*
X038096Y017876D02*
X038056Y017876D01*
X038056Y017718D02*
X038096Y017718D01*
X038096Y017559D02*
X038056Y017559D01*
X038056Y017401D02*
X038096Y017401D01*
X038314Y017401D02*
X038686Y017401D01*
X038686Y017559D02*
X038473Y017559D01*
X038556Y017718D02*
X038686Y017718D01*
X038686Y017876D02*
X038556Y017876D01*
X038556Y018035D02*
X038686Y018035D01*
X038686Y018193D02*
X038404Y018193D01*
X037596Y018035D02*
X035864Y018035D01*
X035916Y017876D02*
X037596Y017876D01*
X037596Y017718D02*
X035916Y017718D01*
X035916Y017559D02*
X037680Y017559D01*
X037839Y017401D02*
X035916Y017401D01*
X035916Y017242D02*
X038686Y017242D01*
X038686Y017084D02*
X035990Y017084D01*
X036051Y016925D02*
X038686Y016925D01*
X038686Y016767D02*
X036051Y016767D01*
X035993Y016608D02*
X038686Y016608D01*
X038686Y016450D02*
X035856Y016450D01*
X035896Y016291D02*
X038686Y016291D01*
X038686Y016133D02*
X037408Y016133D01*
X037516Y015974D02*
X038686Y015974D01*
X038686Y015816D02*
X037516Y015816D01*
X037516Y015842D02*
X037076Y015842D01*
X037076Y016282D01*
X037076Y015842D01*
X037076Y015842D01*
X037516Y015842D01*
X037514Y015657D02*
X038686Y015657D01*
X038686Y015499D02*
X037688Y015499D01*
X037847Y015340D02*
X038686Y015340D01*
X038686Y015182D02*
X038182Y015182D01*
X038248Y015023D02*
X038686Y015023D01*
X038686Y014865D02*
X038248Y014865D01*
X038248Y014706D02*
X038686Y014706D01*
X038686Y014548D02*
X038228Y014548D01*
X038248Y014072D02*
X038538Y014072D01*
X038686Y014231D02*
X035956Y014231D01*
X035798Y014389D02*
X038686Y014389D01*
X039266Y014389D02*
X039553Y014389D01*
X039553Y014231D02*
X039266Y014231D01*
X039266Y014072D02*
X039553Y014072D01*
X039553Y013914D02*
X039266Y013914D01*
X039266Y013755D02*
X039553Y013755D01*
X039553Y013597D02*
X039266Y013597D01*
X039266Y013438D02*
X039553Y013438D01*
X039553Y013280D02*
X039266Y013280D01*
X039125Y013121D02*
X039553Y013121D01*
X039553Y012963D02*
X038966Y012963D01*
X038808Y012804D02*
X039553Y012804D01*
X039553Y012646D02*
X038248Y012646D01*
X038168Y012487D02*
X039553Y012487D01*
X038746Y013280D02*
X036407Y013280D01*
X036249Y013438D02*
X038886Y013438D01*
X038886Y013597D02*
X038248Y013597D01*
X038759Y013755D02*
X038886Y013755D01*
X038587Y013121D02*
X038243Y013121D01*
X037579Y013121D02*
X037574Y013121D01*
X037499Y012487D02*
X037654Y012487D01*
X036910Y013121D02*
X036566Y013121D01*
X036905Y013597D02*
X035590Y013597D01*
X035432Y013755D02*
X035894Y013755D01*
X035736Y013914D02*
X035273Y013914D01*
X035639Y014548D02*
X036924Y014548D01*
X036905Y014072D02*
X036115Y014072D01*
X035943Y014706D02*
X035481Y014706D01*
X034943Y014706D02*
X034215Y014706D01*
X034419Y014865D02*
X034785Y014865D01*
X034626Y015023D02*
X034476Y015023D01*
X034358Y016291D02*
X034352Y016291D01*
X036054Y016133D02*
X036745Y016133D01*
X036636Y015974D02*
X036213Y015974D01*
X036371Y015816D02*
X036636Y015816D01*
X036639Y015657D02*
X036530Y015657D01*
X037076Y015842D02*
X037076Y015842D01*
X037076Y015974D02*
X037076Y015974D01*
X037076Y016133D02*
X037076Y016133D01*
X037559Y014548D02*
X037594Y014548D01*
X039266Y014548D02*
X039553Y014548D01*
X039553Y014706D02*
X039266Y014706D01*
X039266Y014865D02*
X039553Y014865D01*
X039553Y015023D02*
X039266Y015023D01*
X039266Y015182D02*
X039553Y015182D01*
X039553Y015340D02*
X039266Y015340D01*
X039266Y015499D02*
X039553Y015499D01*
X039553Y015657D02*
X039266Y015657D01*
X039266Y015816D02*
X039553Y015816D01*
X039553Y015974D02*
X039266Y015974D01*
X039266Y016133D02*
X039553Y016133D01*
X039553Y016291D02*
X039266Y016291D01*
X039266Y016450D02*
X039553Y016450D01*
X039553Y016608D02*
X039266Y016608D01*
X039266Y016767D02*
X039553Y016767D01*
X039553Y016925D02*
X039266Y016925D01*
X039266Y017084D02*
X039553Y017084D01*
X039553Y017242D02*
X039266Y017242D01*
X039266Y017401D02*
X039553Y017401D01*
X039553Y017559D02*
X039266Y017559D01*
X039266Y017718D02*
X039553Y017718D01*
X039553Y017876D02*
X039266Y017876D01*
X039266Y018035D02*
X039553Y018035D01*
X039553Y018193D02*
X039266Y018193D01*
X039266Y018352D02*
X039553Y018352D01*
X039553Y018510D02*
X039266Y018510D01*
X039266Y018669D02*
X039553Y018669D01*
X039553Y018827D02*
X039266Y018827D01*
X039266Y018986D02*
X039553Y018986D01*
X039553Y019144D02*
X039266Y019144D01*
X039266Y019303D02*
X039553Y019303D01*
X039553Y019461D02*
X039266Y019461D01*
X039266Y019620D02*
X039553Y019620D01*
X039553Y019778D02*
X039266Y019778D01*
X039266Y019937D02*
X039553Y019937D01*
X039553Y020095D02*
X039266Y020095D01*
X039266Y020254D02*
X039553Y020254D01*
X039553Y020412D02*
X039266Y020412D01*
X039266Y020571D02*
X039553Y020571D01*
X039553Y020729D02*
X039266Y020729D01*
X039266Y020888D02*
X039553Y020888D01*
X039553Y021046D02*
X039266Y021046D01*
X039266Y021205D02*
X039553Y021205D01*
X039553Y021363D02*
X039266Y021363D01*
X039266Y021522D02*
X039553Y021522D01*
X039553Y021680D02*
X039266Y021680D01*
X039266Y021839D02*
X039553Y021839D01*
X039553Y021997D02*
X039266Y021997D01*
X039266Y022156D02*
X039553Y022156D01*
X039553Y022314D02*
X039266Y022314D01*
X039266Y022473D02*
X039553Y022473D01*
X039553Y022631D02*
X039266Y022631D01*
X039266Y022790D02*
X039553Y022790D01*
X039553Y022948D02*
X039266Y022948D01*
X039266Y023107D02*
X039553Y023107D01*
X039553Y023265D02*
X039266Y023265D01*
X039266Y023424D02*
X039553Y023424D01*
X039553Y023582D02*
X039266Y023582D01*
X039266Y023741D02*
X039553Y023741D01*
X039553Y023899D02*
X039266Y023899D01*
X039266Y024058D02*
X039553Y024058D01*
X039553Y024216D02*
X039266Y024216D01*
X039266Y024375D02*
X039553Y024375D01*
X039553Y024533D02*
X039154Y024533D01*
X038995Y024692D02*
X039553Y024692D01*
X039553Y024850D02*
X038837Y024850D01*
X038678Y025009D02*
X039553Y025009D01*
X039553Y025167D02*
X037020Y025167D01*
X036861Y025326D02*
X039553Y025326D01*
X039553Y025484D02*
X036703Y025484D01*
X036544Y025643D02*
X039553Y025643D01*
X039553Y025801D02*
X036386Y025801D01*
X036227Y025960D02*
X039553Y025960D01*
X039553Y026118D02*
X036069Y026118D01*
X035910Y026277D02*
X039553Y026277D01*
X039553Y026435D02*
X035752Y026435D01*
X035593Y026594D02*
X039553Y026594D01*
X039553Y026752D02*
X035435Y026752D01*
X035276Y026911D02*
X039553Y026911D01*
X039553Y027069D02*
X035049Y027069D01*
X034931Y027228D02*
X039553Y027228D01*
X039553Y027386D02*
X029751Y027386D01*
X029996Y027228D02*
X032222Y027228D01*
X032104Y027069D02*
X030099Y027069D01*
X030146Y026911D02*
X032053Y026911D01*
X032053Y026752D02*
X030146Y026752D01*
X030093Y026594D02*
X032112Y026594D01*
X031373Y025167D02*
X036082Y025167D01*
X036241Y025009D02*
X031516Y025009D01*
X031516Y024850D02*
X036399Y024850D01*
X036558Y024692D02*
X031516Y024692D01*
X031390Y024533D02*
X036716Y024533D01*
X036875Y024375D02*
X031161Y024375D01*
X030533Y024850D02*
X026716Y024850D01*
X026716Y024692D02*
X030375Y024692D01*
X030216Y024533D02*
X026716Y024533D01*
X026716Y024375D02*
X030058Y024375D01*
X029899Y024216D02*
X026716Y024216D01*
X026716Y024058D02*
X029741Y024058D01*
X029582Y023899D02*
X026716Y023899D01*
X026716Y023741D02*
X027442Y023741D01*
X027265Y023582D02*
X026716Y023582D01*
X026716Y023424D02*
X027188Y023424D01*
X027125Y023265D02*
X026716Y023265D01*
X026716Y023107D02*
X027125Y023107D01*
X027137Y022948D02*
X026716Y022948D01*
X026716Y022790D02*
X027202Y022790D01*
X027216Y022631D02*
X026716Y022631D01*
X026716Y022473D02*
X027216Y022473D01*
X027216Y022314D02*
X026716Y022314D01*
X026716Y022156D02*
X027216Y022156D01*
X027216Y021997D02*
X026716Y021997D01*
X026716Y021839D02*
X027216Y021839D01*
X027216Y021680D02*
X026716Y021680D01*
X026716Y021522D02*
X027216Y021522D01*
X027216Y021363D02*
X026716Y021363D01*
X026716Y021205D02*
X027216Y021205D01*
X027216Y021046D02*
X026716Y021046D01*
X026716Y020888D02*
X027216Y020888D01*
X027216Y020729D02*
X026716Y020729D01*
X026716Y020571D02*
X027150Y020571D01*
X027125Y020412D02*
X026710Y020412D01*
X026645Y020254D02*
X027125Y020254D01*
X027177Y020095D02*
X026566Y020095D01*
X026492Y019937D02*
X027216Y019937D01*
X028269Y023741D02*
X029424Y023741D01*
X030636Y025009D02*
X026716Y025009D01*
X026716Y025167D02*
X030780Y025167D01*
X029873Y026277D02*
X029702Y026277D01*
X027451Y026277D02*
X026716Y026277D01*
X026716Y026435D02*
X027177Y026435D01*
X027062Y026594D02*
X026665Y026594D01*
X026571Y026752D02*
X027006Y026752D01*
X027006Y026911D02*
X026412Y026911D01*
X026254Y027069D02*
X027054Y027069D01*
X027156Y027228D02*
X026095Y027228D01*
X025934Y027386D02*
X027402Y027386D01*
X026716Y026118D02*
X035131Y026118D01*
X035290Y025960D02*
X026716Y025960D01*
X026716Y025801D02*
X035448Y025801D01*
X035607Y025643D02*
X026716Y025643D01*
X026716Y025484D02*
X035765Y025484D01*
X035924Y025326D02*
X026716Y025326D01*
X034596Y019303D02*
X038686Y019303D01*
X038686Y019461D02*
X037262Y019461D01*
X037420Y019620D02*
X038686Y019620D01*
X038686Y019778D02*
X037476Y019778D01*
X037476Y019937D02*
X038686Y019937D01*
X038686Y020095D02*
X037389Y020095D01*
X036891Y019461D02*
X035867Y019461D01*
X038028Y021363D02*
X038124Y021363D01*
X038124Y021522D02*
X038028Y021522D01*
X038028Y021680D02*
X038124Y021680D01*
X038124Y021997D02*
X038028Y021997D01*
X038028Y022156D02*
X038124Y022156D01*
X038124Y022314D02*
X038028Y022314D01*
X038385Y022314D02*
X038686Y022314D01*
X038686Y022156D02*
X038545Y022156D01*
X038619Y021997D02*
X038686Y021997D01*
X038686Y023424D02*
X038456Y023424D01*
X038577Y023582D02*
X038686Y023582D01*
X038686Y023741D02*
X038631Y023741D01*
X038638Y023899D02*
X038686Y023899D01*
X038124Y023741D02*
X038028Y023741D01*
X038028Y023582D02*
X038124Y023582D01*
X038124Y023424D02*
X038028Y023424D01*
D36*
X037978Y026559D03*
X037978Y010810D03*
X002545Y010810D03*
X002545Y026559D03*
D37*
X005076Y026342D03*
X008076Y023342D03*
X011576Y018342D03*
X015076Y018342D03*
X018076Y020842D03*
X020576Y020842D03*
X020576Y023342D03*
X022076Y025842D03*
X020576Y027842D03*
X024576Y025842D03*
X026826Y027592D03*
X029076Y024842D03*
X031076Y027342D03*
X033576Y024842D03*
X035576Y024842D03*
X034576Y021342D03*
X036576Y021342D03*
X031076Y020842D03*
X029076Y020342D03*
X026576Y019342D03*
X025076Y021342D03*
X020576Y018342D03*
X020576Y014342D03*
X018576Y014342D03*
X015576Y014342D03*
X015076Y012342D03*
X009576Y012342D03*
X024076Y014342D03*
X026576Y014342D03*
X028576Y013842D03*
X031076Y018342D03*
X015076Y024342D03*
D38*
X027576Y026842D02*
X029576Y026842D01*
D39*
X026076Y026342D02*
X026076Y023310D01*
X026076Y020555D01*
X027856Y020366D02*
X027856Y018562D01*
X027856Y020366D02*
X027856Y023121D01*
X026076Y026342D02*
X025576Y026842D01*
X024576Y026842D01*
X022576Y026842D01*
X020076Y026842D01*
X019076Y026842D01*
X018076Y025842D01*
X011076Y025842D01*
X010476Y025242D01*
X010476Y023096D01*
X010269Y023035D02*
X009326Y022092D01*
X008576Y021342D01*
X008576Y019342D01*
X008576Y015342D01*
X009876Y014042D01*
X011076Y014042D01*
X011376Y014042D01*
X008576Y015342D02*
X007576Y014342D01*
X007576Y012842D01*
X007576Y012342D01*
X007576Y011342D01*
X009076Y011342D01*
X016326Y011592D02*
X016326Y013592D01*
X020076Y017342D01*
X024076Y017342D01*
X025076Y018342D01*
X024576Y018342D02*
X023919Y018999D01*
X023919Y020366D01*
X023919Y023121D01*
X023919Y023999D01*
X023576Y024342D01*
X019576Y024342D01*
X016576Y024342D01*
X016326Y011592D02*
X016576Y011342D01*
X018576Y011342D02*
X019702Y010216D01*
X020789Y010216D01*
X019135Y010216D01*
D40*
X033761Y019657D02*
X035576Y017842D01*
X035576Y016842D01*
X033761Y019657D02*
X033761Y020366D01*
X035576Y019842D02*
X035576Y021842D01*
X034576Y022842D01*
X034041Y022842D01*
X033761Y023121D01*
X035576Y019842D02*
X037076Y019842D01*
D41*
X007911Y012507D02*
X007576Y012842D01*
D42*
X016576Y011342D02*
X018576Y011342D01*
D43*
X017276Y023642D03*
X016776Y023642D03*
X016276Y023642D03*
X015776Y023642D03*
X015776Y024142D03*
X016276Y024142D03*
X016776Y024142D03*
X017276Y024142D03*
X017276Y024642D03*
X016776Y024642D03*
X016276Y024642D03*
X015776Y024642D03*
M02*
