G75*
G70*
%OFA0B0*%
%FSLAX24Y24*%
%IPPOS*%
%LPD*%
%AMOC8*
5,1,8,0,0,1.08239X$1,22.5*
%
%ADD10C,0.0000*%
%ADD11C,0.0010*%
%ADD12C,0.0020*%
%ADD13C,0.0050*%
D10*
X000900Y000980D02*
X000900Y010035D01*
X006018Y010035D01*
X006018Y000980D01*
X000900Y000980D01*
D11*
X005385Y001781D02*
X005535Y001781D01*
X005535Y001731D02*
X005535Y001831D01*
X005485Y001878D02*
X005385Y001878D01*
X005435Y001878D02*
X005485Y001929D01*
X005485Y001954D01*
X005485Y002026D02*
X005485Y002076D01*
X005460Y002101D01*
X005385Y002101D01*
X005385Y002026D01*
X005410Y002001D01*
X005435Y002026D01*
X005435Y002101D01*
X005385Y002149D02*
X005385Y002199D01*
X005385Y002174D02*
X005485Y002174D01*
X005485Y002149D01*
X005535Y002174D02*
X005560Y002174D01*
X005485Y002247D02*
X005485Y002322D01*
X005460Y002347D01*
X005385Y002347D01*
X005410Y002394D02*
X005385Y002419D01*
X005385Y002469D01*
X005410Y002494D01*
X005435Y002494D01*
X005460Y002469D01*
X005460Y002419D01*
X005485Y002394D01*
X005510Y002394D01*
X005535Y002419D01*
X005535Y002469D01*
X005510Y002494D01*
X005460Y002541D02*
X005410Y002541D01*
X005385Y002566D01*
X005385Y002617D01*
X005435Y002642D02*
X005435Y002541D01*
X005460Y002541D02*
X005485Y002566D01*
X005485Y002617D01*
X005460Y002642D01*
X005435Y002642D01*
X005435Y002689D02*
X005485Y002739D01*
X005485Y002764D01*
X005485Y002812D02*
X005485Y002837D01*
X005385Y002837D01*
X005385Y002812D02*
X005385Y002862D01*
X005410Y002910D02*
X005435Y002935D01*
X005435Y003010D01*
X005460Y003010D02*
X005385Y003010D01*
X005385Y002935D01*
X005410Y002910D01*
X005485Y002935D02*
X005485Y002985D01*
X005460Y003010D01*
X005385Y003057D02*
X005385Y003107D01*
X005385Y003082D02*
X005535Y003082D01*
X005535Y003057D01*
X005510Y003155D02*
X005485Y003155D01*
X005460Y003180D01*
X005460Y003230D01*
X005435Y003255D01*
X005410Y003255D01*
X005385Y003230D01*
X005385Y003180D01*
X005410Y003155D01*
X005510Y003155D02*
X005535Y003180D01*
X005535Y003230D01*
X005510Y003255D01*
X005460Y003303D02*
X005410Y003303D01*
X005385Y003328D01*
X005385Y003378D01*
X005435Y003403D02*
X005435Y003303D01*
X005460Y003303D02*
X005485Y003328D01*
X005485Y003378D01*
X005460Y003403D01*
X005435Y003403D01*
X005385Y003450D02*
X005485Y003450D01*
X005485Y003525D01*
X005460Y003550D01*
X005385Y003550D01*
X005385Y003597D02*
X005385Y003672D01*
X005410Y003697D01*
X005435Y003672D01*
X005435Y003622D01*
X005460Y003597D01*
X005485Y003622D01*
X005485Y003697D01*
X005460Y003745D02*
X005410Y003745D01*
X005385Y003770D01*
X005385Y003820D01*
X005410Y003845D01*
X005460Y003845D01*
X005485Y003820D01*
X005485Y003770D01*
X005460Y003745D01*
X005435Y003892D02*
X005485Y003942D01*
X005485Y003967D01*
X005485Y003892D02*
X005385Y003892D01*
X005385Y004162D02*
X005535Y004162D01*
X005535Y004237D01*
X005510Y004262D01*
X005460Y004262D01*
X005435Y004237D01*
X005435Y004162D01*
X005435Y004212D02*
X005385Y004262D01*
X005410Y004309D02*
X005460Y004309D01*
X005485Y004334D01*
X005485Y004384D01*
X005460Y004409D01*
X005435Y004409D01*
X005435Y004309D01*
X005410Y004309D02*
X005385Y004334D01*
X005385Y004384D01*
X005385Y004507D02*
X005485Y004557D01*
X005410Y004604D02*
X005410Y004629D01*
X005385Y004629D01*
X005385Y004604D01*
X005410Y004604D01*
X005385Y004678D02*
X005485Y004678D01*
X005535Y004728D01*
X005485Y004778D01*
X005385Y004778D01*
X005460Y004778D02*
X005460Y004678D01*
X005385Y004507D02*
X005485Y004457D01*
X005535Y002837D02*
X005560Y002837D01*
X005485Y002689D02*
X005385Y002689D01*
X005385Y002247D02*
X005485Y002247D01*
D12*
X005630Y002197D02*
X005630Y002124D01*
X005667Y002087D01*
X005850Y002087D01*
X005850Y002234D02*
X005667Y002234D01*
X005630Y002197D01*
X005630Y002308D02*
X005630Y002345D01*
X005667Y002345D01*
X005667Y002308D01*
X005630Y002308D01*
X005667Y002419D02*
X005630Y002455D01*
X005630Y002529D01*
X005667Y002565D01*
X005703Y002565D01*
X005740Y002529D01*
X005740Y002455D01*
X005777Y002419D01*
X005813Y002419D01*
X005850Y002455D01*
X005850Y002529D01*
X005813Y002565D01*
X005667Y002640D02*
X005667Y002676D01*
X005630Y002676D01*
X005630Y002640D01*
X005667Y002640D01*
X005667Y002013D02*
X005630Y002013D01*
X005630Y001977D01*
X005667Y001977D01*
X005667Y002013D01*
X005630Y001829D02*
X005850Y001829D01*
X005850Y001756D02*
X005850Y001902D01*
D13*
X004131Y002482D02*
X004131Y001065D01*
X003029Y001065D01*
X003029Y002364D01*
X003186Y002522D01*
X004131Y002522D01*
X003732Y008415D02*
X002787Y008415D01*
X002787Y008454D02*
X002787Y009871D01*
X003890Y009871D01*
X003890Y008572D01*
X003732Y008415D01*
M02*
