G75*
G70*
%OFA0B0*%
%FSLAX24Y24*%
%IPPOS*%
%LPD*%
%AMOC8*
5,1,8,0,0,1.08239X$1,22.5*
%
%ADD10C,0.0000*%
%ADD11R,0.0515X0.0515*%
%ADD12C,0.0317*%
%ADD13C,0.0080*%
%ADD14C,0.0160*%
%ADD15C,0.0100*%
%ADD16C,0.0356*%
D10*
X000900Y000980D02*
X000900Y010035D01*
X006018Y010035D01*
X006018Y000980D01*
X000900Y000980D01*
D11*
X002753Y001459D03*
X002753Y002167D03*
X004406Y002167D03*
X004406Y001459D03*
X004165Y008769D03*
X004165Y009478D03*
X002512Y009478D03*
X002512Y008769D03*
D12*
X003140Y008900D03*
X003540Y008420D03*
X003540Y007780D03*
X003140Y006660D03*
X002820Y006020D03*
X002915Y005045D03*
X003220Y004420D03*
X003860Y004820D03*
X004420Y004660D03*
X004740Y005140D03*
X005220Y005700D03*
X005620Y006100D03*
X005140Y006660D03*
X004820Y007380D03*
X004260Y006180D03*
X003860Y006180D03*
X004900Y004260D03*
X004500Y003060D03*
X003460Y003020D03*
X001860Y005220D03*
X001780Y005700D03*
X001300Y006100D03*
X001700Y006900D03*
X001700Y008740D03*
X001700Y004420D03*
X001540Y002940D03*
X005540Y001460D03*
D13*
X004740Y002740D02*
X004340Y002740D01*
X004020Y003060D01*
X004020Y003940D01*
X003860Y004100D01*
X001940Y004100D01*
X001940Y004180D01*
X001700Y004420D01*
X002820Y006020D02*
X002820Y007380D01*
X004820Y007380D01*
X005220Y007220D02*
X004900Y006900D01*
X004100Y006900D01*
X003860Y006660D01*
X003860Y006180D01*
X004340Y005140D02*
X004740Y005140D01*
X004340Y005140D02*
X004020Y004820D01*
X003860Y004820D01*
X004900Y004260D02*
X004900Y002900D01*
X004740Y002740D01*
X005220Y007220D02*
X005220Y007540D01*
X004980Y007780D01*
X003540Y007780D01*
X003140Y008340D02*
X001700Y006900D01*
X003140Y008340D02*
X003140Y008900D01*
D14*
X002831Y008342D02*
X001727Y007238D01*
X001633Y007238D01*
X001508Y007187D01*
X001413Y007092D01*
X001362Y006967D01*
X001362Y006833D01*
X001413Y006708D01*
X001508Y006613D01*
X001633Y006562D01*
X001767Y006562D01*
X001892Y006613D01*
X001987Y006708D01*
X002038Y006833D01*
X002038Y006927D01*
X003296Y008185D01*
X003348Y008133D01*
X003428Y008100D01*
X003348Y008067D01*
X003253Y007972D01*
X003202Y007847D01*
X003202Y007713D01*
X003248Y007600D01*
X002729Y007600D01*
X002600Y007471D01*
X002600Y006279D01*
X002533Y006212D01*
X002482Y006087D01*
X002482Y006006D01*
X002240Y006247D01*
X002167Y006320D01*
X002072Y006360D01*
X001519Y006360D01*
X001492Y006387D01*
X001367Y006438D01*
X001233Y006438D01*
X001108Y006387D01*
X001080Y006359D01*
X001080Y009855D01*
X002119Y009855D01*
X002074Y009810D01*
X002074Y009146D01*
X002100Y009120D01*
X002086Y009096D01*
X002074Y009050D01*
X002074Y008769D01*
X002074Y008488D01*
X002086Y008442D01*
X002110Y008401D01*
X002144Y008368D01*
X002185Y008344D01*
X002230Y008332D01*
X002512Y008332D01*
X002793Y008332D01*
X002831Y008342D01*
X002760Y008271D02*
X001080Y008271D01*
X001080Y008113D02*
X002601Y008113D01*
X002443Y007954D02*
X001080Y007954D01*
X001080Y007796D02*
X002284Y007796D01*
X002126Y007637D02*
X001080Y007637D01*
X001080Y007479D02*
X001967Y007479D01*
X001809Y007320D02*
X001080Y007320D01*
X001080Y007162D02*
X001483Y007162D01*
X001376Y007003D02*
X001080Y007003D01*
X001080Y006845D02*
X001362Y006845D01*
X001435Y006686D02*
X001080Y006686D01*
X001080Y006528D02*
X002600Y006528D01*
X002600Y006369D02*
X001510Y006369D01*
X001300Y006100D02*
X001300Y005140D01*
X001100Y004980D01*
X001100Y002180D01*
X001300Y002180D01*
X001503Y001876D02*
X001604Y001977D01*
X001658Y002109D01*
X001658Y002251D01*
X001604Y002383D01*
X001503Y002484D01*
X001371Y002538D01*
X001360Y002538D01*
X001360Y004855D01*
X001434Y004914D01*
X001447Y004920D01*
X001474Y004946D01*
X001503Y004969D01*
X001510Y004982D01*
X001520Y004993D01*
X001535Y005027D01*
X001553Y005060D01*
X001554Y005075D01*
X001560Y005088D01*
X001560Y005126D01*
X001564Y005163D01*
X001560Y005177D01*
X001560Y005441D01*
X001588Y005413D01*
X001713Y005362D01*
X001847Y005362D01*
X001922Y005393D01*
X002365Y004950D01*
X002499Y004815D01*
X002666Y004815D01*
X002723Y004758D01*
X002847Y004707D01*
X002855Y004707D01*
X002868Y004689D01*
X002870Y004689D01*
X002931Y004606D01*
X002882Y004487D01*
X002882Y004353D01*
X002895Y004320D01*
X002111Y004320D01*
X002038Y004393D01*
X002038Y004487D01*
X001987Y004612D01*
X001892Y004707D01*
X001767Y004758D01*
X001633Y004758D01*
X001508Y004707D01*
X001413Y004612D01*
X001362Y004487D01*
X001362Y004353D01*
X001413Y004228D01*
X001508Y004133D01*
X001633Y004082D01*
X001720Y004082D01*
X001720Y004009D01*
X001849Y003880D01*
X003769Y003880D01*
X003800Y003849D01*
X003800Y002969D01*
X003929Y002840D01*
X004164Y002605D01*
X004125Y002605D01*
X004079Y002592D01*
X004038Y002569D01*
X004005Y002535D01*
X003981Y002494D01*
X003969Y002448D01*
X003969Y002167D01*
X003969Y001886D01*
X003981Y001840D01*
X003995Y001817D01*
X003969Y001791D01*
X003969Y001160D01*
X003190Y001160D01*
X003190Y001791D01*
X003168Y001813D01*
X003190Y001835D01*
X003190Y002499D01*
X003085Y002605D01*
X002421Y002605D01*
X002315Y002499D01*
X002315Y001835D01*
X002338Y001813D01*
X002315Y001791D01*
X002315Y001160D01*
X001080Y001160D01*
X001080Y001894D01*
X001097Y001876D01*
X001229Y001822D01*
X001371Y001822D01*
X001503Y001876D01*
X001557Y001931D02*
X002315Y001931D01*
X002315Y001773D02*
X001080Y001773D01*
X001080Y001614D02*
X002315Y001614D01*
X002315Y001456D02*
X001080Y001456D01*
X001080Y001297D02*
X002315Y001297D01*
X002315Y002090D02*
X001650Y002090D01*
X001658Y002248D02*
X002315Y002248D01*
X002315Y002407D02*
X001580Y002407D01*
X001360Y002565D02*
X002381Y002565D01*
X003125Y002565D02*
X004035Y002565D01*
X004045Y002724D02*
X001360Y002724D01*
X001360Y002882D02*
X003887Y002882D01*
X003929Y002840D02*
X003929Y002840D01*
X003800Y003041D02*
X001360Y003041D01*
X001360Y003199D02*
X003800Y003199D01*
X003800Y003358D02*
X001360Y003358D01*
X001360Y003516D02*
X003800Y003516D01*
X003800Y003675D02*
X001360Y003675D01*
X001360Y003833D02*
X003800Y003833D01*
X002882Y004467D02*
X002038Y004467D01*
X001973Y004626D02*
X002916Y004626D01*
X002697Y004784D02*
X001360Y004784D01*
X001360Y004626D02*
X001427Y004626D01*
X001362Y004467D02*
X001360Y004467D01*
X001360Y004309D02*
X001380Y004309D01*
X001360Y004150D02*
X001491Y004150D01*
X001360Y003992D02*
X001737Y003992D01*
X001470Y004943D02*
X002372Y004943D01*
X002214Y005101D02*
X001560Y005101D01*
X001560Y005260D02*
X002055Y005260D01*
X001583Y005418D02*
X001560Y005418D01*
X001300Y006100D02*
X002020Y006100D01*
X002500Y005620D01*
X003380Y005620D01*
X003620Y005860D01*
X004420Y005860D01*
X004500Y005940D01*
X004740Y005940D01*
X004900Y006100D01*
X005620Y006100D01*
X005401Y006360D02*
X004848Y006360D01*
X004753Y006320D01*
X004632Y006200D01*
X004448Y006200D01*
X004353Y006160D01*
X004312Y006120D01*
X004198Y006120D01*
X004198Y006247D01*
X004147Y006372D01*
X004080Y006439D01*
X004080Y006569D01*
X004191Y006680D01*
X004991Y006680D01*
X005120Y006809D01*
X005440Y007129D01*
X005440Y007631D01*
X005311Y007760D01*
X005071Y008000D01*
X003799Y008000D01*
X003732Y008067D01*
X003652Y008100D01*
X003732Y008133D01*
X003827Y008228D01*
X003870Y008332D01*
X004497Y008332D01*
X004603Y008437D01*
X004603Y009101D01*
X004580Y009123D01*
X004603Y009146D01*
X004603Y009810D01*
X004557Y009855D01*
X005838Y009855D01*
X005838Y006360D01*
X005812Y006387D01*
X005687Y006438D01*
X005553Y006438D01*
X005428Y006387D01*
X005401Y006360D01*
X005410Y006369D02*
X004148Y006369D01*
X004080Y006528D02*
X005838Y006528D01*
X005830Y006369D02*
X005838Y006369D01*
X005838Y006686D02*
X004997Y006686D01*
X005156Y006845D02*
X005838Y006845D01*
X005838Y007003D02*
X005314Y007003D01*
X005440Y007162D02*
X005838Y007162D01*
X005838Y007320D02*
X005440Y007320D01*
X005440Y007479D02*
X005838Y007479D01*
X005838Y007637D02*
X005434Y007637D01*
X005276Y007796D02*
X005838Y007796D01*
X005838Y007954D02*
X005117Y007954D01*
X004595Y008430D02*
X005838Y008430D01*
X005838Y008588D02*
X004603Y008588D01*
X004603Y008747D02*
X005838Y008747D01*
X005838Y008905D02*
X004603Y008905D01*
X004603Y009064D02*
X005838Y009064D01*
X005838Y009222D02*
X004603Y009222D01*
X004603Y009381D02*
X005838Y009381D01*
X005838Y009539D02*
X004603Y009539D01*
X004603Y009698D02*
X005838Y009698D01*
X005838Y008271D02*
X003845Y008271D01*
X003682Y008113D02*
X005838Y008113D01*
X004601Y007120D02*
X004009Y007120D01*
X003769Y006880D01*
X003640Y006751D01*
X003640Y006439D01*
X003573Y006372D01*
X003522Y006247D01*
X003522Y006113D01*
X003526Y006102D01*
X003473Y006080D01*
X003272Y005880D01*
X003128Y005880D01*
X003158Y005953D01*
X003158Y006087D01*
X003107Y006212D01*
X003040Y006279D01*
X003040Y007160D01*
X004561Y007160D01*
X004601Y007120D01*
X004643Y006211D02*
X004198Y006211D01*
X003733Y006845D02*
X003040Y006845D01*
X003040Y006686D02*
X003640Y006686D01*
X003640Y006528D02*
X003040Y006528D01*
X003040Y006369D02*
X003572Y006369D01*
X003522Y006211D02*
X003107Y006211D01*
X003158Y006052D02*
X003444Y006052D01*
X003286Y005894D02*
X003134Y005894D01*
X002533Y006211D02*
X002277Y006211D01*
X002436Y006052D02*
X002482Y006052D01*
X002600Y006686D02*
X001965Y006686D01*
X002038Y006845D02*
X002600Y006845D01*
X002600Y007003D02*
X002114Y007003D01*
X002273Y007162D02*
X002600Y007162D01*
X002600Y007320D02*
X002431Y007320D01*
X002590Y007479D02*
X002607Y007479D01*
X002748Y007637D02*
X003233Y007637D01*
X003202Y007796D02*
X002907Y007796D01*
X003065Y007954D02*
X003246Y007954D01*
X003224Y008113D02*
X003398Y008113D01*
X003040Y007003D02*
X003892Y007003D01*
X004828Y005470D02*
X004971Y005470D01*
X005028Y005413D01*
X005153Y005362D01*
X005287Y005362D01*
X005412Y005413D01*
X005507Y005508D01*
X005558Y005633D01*
X005558Y005762D01*
X005687Y005762D01*
X005812Y005813D01*
X005838Y005840D01*
X005838Y001160D01*
X004844Y001160D01*
X004844Y001791D01*
X004818Y001817D01*
X004832Y001840D01*
X004844Y001886D01*
X004844Y002167D01*
X004406Y002167D01*
X003969Y002167D01*
X004406Y002167D01*
X004406Y002167D01*
X004406Y002167D01*
X004844Y002167D01*
X004844Y002448D01*
X004832Y002494D01*
X004817Y002520D01*
X004831Y002520D01*
X005120Y002809D01*
X005120Y004001D01*
X005187Y004068D01*
X005238Y004193D01*
X005238Y004327D01*
X005187Y004452D01*
X005092Y004547D01*
X004967Y004598D01*
X004833Y004598D01*
X004746Y004562D01*
X004758Y004593D01*
X004758Y004727D01*
X004728Y004802D01*
X004807Y004802D01*
X004932Y004853D01*
X005027Y004948D01*
X005078Y005073D01*
X005078Y005207D01*
X005027Y005332D01*
X004932Y005427D01*
X004828Y005470D01*
X004941Y005418D02*
X005023Y005418D01*
X005057Y005260D02*
X005838Y005260D01*
X005838Y005418D02*
X005417Y005418D01*
X005535Y005577D02*
X005838Y005577D01*
X005838Y005735D02*
X005558Y005735D01*
X005838Y005101D02*
X005078Y005101D01*
X005021Y004943D02*
X005838Y004943D01*
X005838Y004784D02*
X004735Y004784D01*
X004758Y004626D02*
X005838Y004626D01*
X005838Y004467D02*
X005172Y004467D01*
X005238Y004309D02*
X005838Y004309D01*
X005838Y004150D02*
X005221Y004150D01*
X005120Y003992D02*
X005838Y003992D01*
X005838Y003833D02*
X005120Y003833D01*
X005120Y003675D02*
X005838Y003675D01*
X005838Y003516D02*
X005120Y003516D01*
X005120Y003358D02*
X005838Y003358D01*
X005838Y003199D02*
X005120Y003199D01*
X005120Y003041D02*
X005838Y003041D01*
X005838Y002882D02*
X005120Y002882D01*
X005035Y002724D02*
X005838Y002724D01*
X005838Y002565D02*
X004876Y002565D01*
X004844Y002407D02*
X005838Y002407D01*
X005838Y002248D02*
X004844Y002248D01*
X004844Y002090D02*
X005838Y002090D01*
X005838Y001931D02*
X004844Y001931D01*
X004844Y001773D02*
X005838Y001773D01*
X005838Y001614D02*
X004844Y001614D01*
X004844Y001456D02*
X005838Y001456D01*
X005838Y001297D02*
X004844Y001297D01*
X003969Y001297D02*
X003190Y001297D01*
X003190Y001456D02*
X003969Y001456D01*
X003969Y001614D02*
X003190Y001614D01*
X003190Y001773D02*
X003969Y001773D01*
X003969Y001931D02*
X003190Y001931D01*
X003190Y002090D02*
X003969Y002090D01*
X003969Y002248D02*
X003190Y002248D01*
X003190Y002407D02*
X003969Y002407D01*
X001090Y006369D02*
X001080Y006369D01*
X001080Y008430D02*
X002094Y008430D01*
X002074Y008588D02*
X001080Y008588D01*
X001080Y008747D02*
X002074Y008747D01*
X002074Y008769D02*
X002512Y008769D01*
X002512Y008332D01*
X002512Y008769D01*
X002512Y008769D01*
X002512Y008769D01*
X002074Y008769D01*
X002074Y008905D02*
X001080Y008905D01*
X001080Y009064D02*
X002078Y009064D01*
X002074Y009222D02*
X001080Y009222D01*
X001080Y009381D02*
X002074Y009381D01*
X002074Y009539D02*
X001080Y009539D01*
X001080Y009698D02*
X002074Y009698D01*
X002512Y008747D02*
X002512Y008747D01*
X002512Y008588D02*
X002512Y008588D01*
X002512Y008430D02*
X002512Y008430D01*
D15*
X002512Y009478D02*
X003042Y009478D01*
X003540Y008980D01*
X003540Y008420D01*
X004580Y005700D02*
X004500Y005620D01*
X003700Y005620D01*
X003140Y005060D01*
X003040Y005060D01*
X002915Y005045D01*
X003020Y005000D01*
X002900Y005040D01*
X003000Y004900D01*
X003220Y004600D01*
X003220Y004420D01*
X003040Y005060D02*
X002980Y005060D01*
X002915Y005045D02*
X002595Y005045D01*
X001940Y005700D01*
X001780Y005700D01*
X004420Y004660D02*
X004500Y004580D01*
X004500Y003060D01*
X004580Y005700D02*
X005220Y005700D01*
D16*
X001300Y002180D03*
M02*
