%
M48
M72
T01C0.0197
T02C0.0236
T03C0.0315
%
T01
X1540Y2940
X1700Y4420
X1860Y5220
X1780Y5700
X1300Y6100
X1700Y6900
X2820Y6020
X3140Y6660
X3860Y6180
X4260Y6180
X4740Y5140
X4420Y4660
X4900Y4260
X4500Y3060
X3460Y3020
X3220Y4420
X2915Y5045
X3860Y4820
X5140Y6660
X5620Y6100
X5220Y5700
X4820Y7380
X3540Y7780
X3540Y8420
X3140Y8900
X1700Y8740
X5540Y1460
T02
X1300Y2180
T03
X2753Y2167
X2753Y1459
X4406Y1459
X4406Y2167
X4165Y8769
X4165Y9478
X2512Y9478
X2512Y8769
M30
