G75*
G70*
%OFA0B0*%
%FSLAX24Y24*%
%IPPOS*%
%LPD*%
%AMOC8*
5,1,8,0,0,1.08239X$1,22.5*
%
%ADD10C,0.0000*%
%ADD11C,0.0020*%
%ADD12C,0.0001*%
%ADD13C,0.0050*%
%ADD14C,0.0080*%
%ADD15C,0.0256*%
D10*
X000900Y000980D02*
X000900Y010035D01*
X006018Y010035D01*
X006018Y000980D01*
X000900Y000980D01*
X003440Y003748D02*
X003434Y003759D01*
X003432Y003771D01*
X003434Y003783D01*
X003440Y003794D01*
X003449Y003803D01*
X003459Y003808D01*
X003472Y003810D01*
X003484Y003808D01*
X003495Y003803D01*
X003504Y003794D01*
X003509Y003783D01*
X003511Y003771D01*
X003509Y003759D01*
X003504Y003748D01*
X003495Y003739D01*
X003484Y003733D01*
X003472Y003731D01*
X003459Y003733D01*
X003449Y003739D01*
X003440Y003748D01*
X004608Y007034D02*
X004620Y007032D01*
X004632Y007034D01*
X004643Y007040D01*
X004652Y007048D01*
X004658Y007059D01*
X004660Y007071D01*
X004658Y007084D01*
X004652Y007095D01*
X004643Y007103D01*
X004632Y007109D01*
X004620Y007111D01*
X004608Y007109D01*
X004597Y007103D01*
X004588Y007095D01*
X004583Y007084D01*
X004581Y007071D01*
X004583Y007059D01*
X004588Y007048D01*
X004597Y007040D01*
X004608Y007034D01*
D11*
X004643Y007826D02*
X004606Y007862D01*
X004753Y008009D01*
X004753Y007862D01*
X004716Y007826D01*
X004643Y007826D01*
X004606Y007862D02*
X004606Y008009D01*
X004643Y008046D01*
X004716Y008046D01*
X004753Y008009D01*
X004832Y008211D02*
X004612Y008211D01*
X004612Y008321D01*
X004649Y008357D01*
X004796Y008357D01*
X004832Y008321D01*
X004832Y008211D01*
X004832Y008432D02*
X004832Y008578D01*
X004832Y008505D02*
X004612Y008505D01*
X004685Y008432D01*
X004635Y008828D02*
X004672Y008864D01*
X004672Y008938D01*
X004709Y008974D01*
X004746Y008974D01*
X004782Y008938D01*
X004782Y008864D01*
X004746Y008828D01*
X004635Y008828D02*
X004599Y008828D01*
X004562Y008864D01*
X004562Y008938D01*
X004599Y008974D01*
X004672Y009049D02*
X004672Y009195D01*
X004635Y009270D02*
X004562Y009343D01*
X004782Y009343D01*
X004782Y009270D02*
X004782Y009416D01*
X004746Y009491D02*
X004782Y009527D01*
X004782Y009601D01*
X004746Y009637D01*
X004709Y009637D01*
X004672Y009601D01*
X004672Y009564D01*
X004672Y009601D02*
X004635Y009637D01*
X004599Y009637D01*
X004562Y009601D01*
X004562Y009527D01*
X004599Y009491D01*
X004562Y009712D02*
X004562Y009858D01*
X004562Y009785D02*
X004782Y009785D01*
X004458Y008046D02*
X004385Y007973D01*
X004311Y008009D02*
X004311Y008046D01*
X004311Y008009D02*
X004237Y007936D01*
X004237Y007826D01*
X004237Y007936D02*
X004164Y008009D01*
X004164Y008046D01*
X004090Y008046D02*
X004090Y007826D01*
X003943Y008046D01*
X003943Y007826D01*
X003869Y007826D02*
X003796Y007826D01*
X003832Y007826D02*
X003832Y008046D01*
X003796Y008046D02*
X003869Y008046D01*
X003722Y008046D02*
X003575Y008046D01*
X003648Y008046D02*
X003648Y007826D01*
X003501Y008046D02*
X003354Y008046D01*
X003427Y008046D02*
X003427Y007826D01*
X003280Y007826D02*
X003280Y007973D01*
X003206Y008046D01*
X003133Y007973D01*
X003133Y007826D01*
X003133Y007936D02*
X003280Y007936D01*
X002668Y008200D02*
X002521Y008200D01*
X002594Y008200D02*
X002594Y008420D01*
X002521Y008347D01*
X002447Y008383D02*
X002447Y008310D01*
X002410Y008273D01*
X002300Y008273D01*
X002300Y008200D02*
X002300Y008420D01*
X002410Y008420D01*
X002447Y008383D01*
X002373Y008273D02*
X002447Y008200D01*
X001940Y007886D02*
X001940Y007739D01*
X001793Y007886D01*
X001757Y007886D01*
X001720Y007849D01*
X001720Y007776D01*
X001757Y007739D01*
X001757Y007665D02*
X001830Y007665D01*
X001867Y007628D01*
X001867Y007518D01*
X001940Y007518D02*
X001720Y007518D01*
X001720Y007628D01*
X001757Y007665D01*
X001867Y007591D02*
X001940Y007665D01*
X002358Y007120D02*
X002468Y007120D01*
X002505Y007083D01*
X002505Y007010D01*
X002468Y006973D01*
X002358Y006973D01*
X002358Y006900D02*
X002358Y007120D01*
X002431Y006973D02*
X002505Y006900D01*
X002579Y006937D02*
X002616Y006900D01*
X002689Y006900D01*
X002726Y006937D01*
X002726Y006973D01*
X002689Y007010D01*
X002652Y007010D01*
X002689Y007010D02*
X002726Y007047D01*
X002726Y007083D01*
X002689Y007120D01*
X002616Y007120D01*
X002579Y007083D01*
X001850Y006467D02*
X001850Y006321D01*
X001703Y006467D01*
X001666Y006467D01*
X001630Y006431D01*
X001630Y006357D01*
X001666Y006321D01*
X001666Y006246D02*
X001630Y006210D01*
X001630Y006136D01*
X001666Y006100D01*
X001813Y006100D01*
X001850Y006136D01*
X001850Y006210D01*
X001813Y006246D01*
X001850Y006026D02*
X001850Y005952D01*
X001850Y005989D02*
X001630Y005989D01*
X001630Y005952D02*
X001630Y006026D01*
X001678Y003760D02*
X001788Y003760D01*
X001825Y003723D01*
X001825Y003650D01*
X001788Y003613D01*
X001678Y003613D01*
X001678Y003540D02*
X001678Y003760D01*
X001751Y003613D02*
X001825Y003540D01*
X001899Y003650D02*
X002046Y003650D01*
X002009Y003540D02*
X002009Y003760D01*
X001899Y003650D01*
X001921Y003380D02*
X001921Y003270D01*
X001994Y003307D01*
X002031Y003307D01*
X002068Y003270D01*
X002068Y003197D01*
X002031Y003160D01*
X001958Y003160D01*
X001921Y003197D01*
X001847Y003160D02*
X001773Y003233D01*
X001810Y003233D02*
X001700Y003233D01*
X001700Y003160D02*
X001700Y003380D01*
X001810Y003380D01*
X001847Y003343D01*
X001847Y003270D01*
X001810Y003233D01*
X001921Y003380D02*
X002068Y003380D01*
X002165Y002819D02*
X002128Y002782D01*
X002128Y002708D01*
X002165Y002672D01*
X002165Y002598D02*
X002128Y002561D01*
X002128Y002451D01*
X002348Y002451D01*
X002348Y002561D01*
X002312Y002598D01*
X002165Y002598D01*
X002348Y002672D02*
X002202Y002819D01*
X002165Y002819D01*
X002348Y002819D02*
X002348Y002672D01*
X002098Y002122D02*
X002098Y001975D01*
X002098Y002048D02*
X002318Y002048D01*
X002282Y001901D02*
X002318Y001864D01*
X002318Y001790D01*
X002282Y001754D01*
X002318Y001680D02*
X002318Y001533D01*
X002318Y001606D02*
X002098Y001606D01*
X002172Y001533D01*
X002208Y001459D02*
X002208Y001312D01*
X002245Y001238D02*
X002282Y001238D01*
X002318Y001201D01*
X002318Y001127D01*
X002282Y001091D01*
X002208Y001127D02*
X002208Y001201D01*
X002245Y001238D01*
X002208Y001127D02*
X002172Y001091D01*
X002135Y001091D01*
X002098Y001127D01*
X002098Y001201D01*
X002135Y001238D01*
X002135Y001754D02*
X002098Y001790D01*
X002098Y001864D01*
X002135Y001901D01*
X002172Y001901D01*
X002208Y001864D01*
X002245Y001901D01*
X002282Y001901D01*
X002208Y001864D02*
X002208Y001827D01*
X003165Y002596D02*
X003165Y002743D01*
X003238Y002817D01*
X003312Y002743D01*
X003312Y002596D01*
X003312Y002707D02*
X003165Y002707D01*
X003386Y002817D02*
X003533Y002817D01*
X003607Y002817D02*
X003754Y002817D01*
X003828Y002817D02*
X003901Y002817D01*
X003864Y002817D02*
X003864Y002596D01*
X003828Y002596D02*
X003901Y002596D01*
X003975Y002596D02*
X003975Y002817D01*
X004122Y002596D01*
X004122Y002817D01*
X004196Y002817D02*
X004196Y002780D01*
X004269Y002707D01*
X004269Y002596D01*
X004269Y002707D02*
X004343Y002780D01*
X004343Y002817D01*
X004417Y002743D02*
X004490Y002817D01*
X004490Y002596D01*
X004417Y002596D02*
X004564Y002596D01*
X004638Y002633D02*
X004785Y002780D01*
X004785Y002633D01*
X004748Y002596D01*
X004675Y002596D01*
X004638Y002633D01*
X004638Y002780D01*
X004675Y002817D01*
X004748Y002817D01*
X004785Y002780D01*
X005318Y002803D02*
X005318Y002729D01*
X005354Y002692D01*
X005501Y002692D01*
X005538Y002729D01*
X005538Y002803D01*
X005501Y002839D01*
X005501Y002913D02*
X005538Y002950D01*
X005538Y003024D01*
X005501Y003060D01*
X005465Y003060D01*
X005428Y003024D01*
X005428Y002987D01*
X005428Y003024D02*
X005391Y003060D01*
X005354Y003060D01*
X005318Y003024D01*
X005318Y002950D01*
X005354Y002913D01*
X005354Y002839D02*
X005318Y002803D01*
X005290Y004487D02*
X005253Y004524D01*
X005290Y004487D02*
X005363Y004487D01*
X005400Y004524D01*
X005400Y004560D01*
X005363Y004597D01*
X005327Y004597D01*
X005363Y004597D02*
X005400Y004634D01*
X005400Y004670D01*
X005363Y004707D01*
X005290Y004707D01*
X005253Y004670D01*
X005179Y004670D02*
X005142Y004707D01*
X005069Y004707D01*
X005032Y004670D01*
X005032Y004524D01*
X005069Y004487D01*
X005142Y004487D01*
X005179Y004524D01*
X004958Y004487D02*
X004885Y004487D01*
X004922Y004487D02*
X004922Y004707D01*
X004958Y004707D02*
X004885Y004707D01*
X004919Y005895D02*
X004919Y006116D01*
X004846Y006042D01*
X004772Y006079D02*
X004735Y006116D01*
X004662Y006116D01*
X004625Y006079D01*
X004625Y005932D01*
X004662Y005895D01*
X004735Y005895D01*
X004772Y005932D01*
X004846Y005895D02*
X004993Y005895D01*
X004551Y005895D02*
X004478Y005895D01*
X004514Y005895D02*
X004514Y006116D01*
X004478Y006116D02*
X004551Y006116D01*
X003760Y005548D02*
X003760Y005401D01*
X003613Y005548D01*
X003577Y005548D01*
X003540Y005511D01*
X003540Y005438D01*
X003577Y005401D01*
X003577Y005327D02*
X003540Y005290D01*
X003540Y005217D01*
X003577Y005180D01*
X003723Y005180D01*
X003760Y005217D01*
X003760Y005290D01*
X003723Y005327D01*
X003680Y002817D02*
X003680Y002596D01*
X003459Y002596D02*
X003459Y002817D01*
X003880Y001966D02*
X003917Y001892D01*
X003990Y001819D01*
X003990Y001929D01*
X004027Y001966D01*
X004063Y001966D01*
X004100Y001929D01*
X004100Y001856D01*
X004063Y001819D01*
X003990Y001819D01*
X003990Y001745D02*
X003917Y001745D01*
X003880Y001708D01*
X003880Y001598D01*
X004100Y001598D01*
X004027Y001598D02*
X004027Y001708D01*
X003990Y001745D01*
X004027Y001671D02*
X004100Y001745D01*
X005540Y007255D02*
X005503Y007291D01*
X005503Y007365D01*
X005540Y007402D01*
X005576Y007476D02*
X005503Y007549D01*
X005723Y007549D01*
X005723Y007476D02*
X005723Y007622D01*
X005686Y007402D02*
X005723Y007365D01*
X005723Y007291D01*
X005686Y007255D01*
X005540Y007255D01*
X004532Y007826D02*
X004385Y007826D01*
X004458Y007826D02*
X004458Y008046D01*
X001450Y008510D02*
X001450Y008620D01*
X001413Y008657D01*
X001267Y008657D01*
X001230Y008620D01*
X001230Y008510D01*
X001450Y008510D01*
X001340Y008731D02*
X001340Y008878D01*
X001340Y008952D02*
X001303Y009025D01*
X001303Y009062D01*
X001340Y009099D01*
X001413Y009099D01*
X001450Y009062D01*
X001450Y008989D01*
X001413Y008952D01*
X001340Y008952D02*
X001230Y008952D01*
X001230Y009099D01*
X001340Y009173D02*
X001340Y009320D01*
X001303Y009394D02*
X001267Y009394D01*
X001230Y009431D01*
X001230Y009504D01*
X001267Y009541D01*
X001413Y009541D01*
X001450Y009504D01*
X001450Y009431D01*
X001413Y009394D01*
X001340Y009431D02*
X001340Y009541D01*
X001413Y009615D02*
X001450Y009615D01*
X001413Y009615D02*
X001267Y009762D01*
X001230Y009762D01*
X001230Y009615D01*
X001340Y009431D02*
X001303Y009394D01*
X001230Y009283D02*
X001340Y009173D01*
X001450Y009283D02*
X001230Y009283D01*
X001230Y008841D02*
X001340Y008731D01*
X001450Y008841D02*
X001230Y008841D01*
D12*
X004582Y007081D02*
X004658Y007081D01*
X004658Y007082D02*
X004582Y007082D01*
X004583Y007083D02*
X004658Y007083D01*
X004657Y007084D02*
X004583Y007084D01*
X004583Y007085D02*
X004657Y007085D01*
X004656Y007086D02*
X004584Y007086D01*
X004584Y007087D02*
X004656Y007087D01*
X004655Y007088D02*
X004585Y007088D01*
X004585Y007089D02*
X004655Y007089D01*
X004654Y007090D02*
X004586Y007090D01*
X004586Y007091D02*
X004654Y007091D01*
X004653Y007092D02*
X004587Y007092D01*
X004587Y007093D02*
X004653Y007093D01*
X004652Y007094D02*
X004588Y007094D01*
X004589Y007095D02*
X004652Y007095D01*
X004651Y007096D02*
X004590Y007096D01*
X004591Y007097D02*
X004650Y007097D01*
X004649Y007098D02*
X004592Y007098D01*
X004593Y007099D02*
X004648Y007099D01*
X004647Y007100D02*
X004594Y007100D01*
X004595Y007101D02*
X004646Y007101D01*
X004645Y007102D02*
X004596Y007102D01*
X004597Y007103D02*
X004644Y007103D01*
X004642Y007104D02*
X004598Y007104D01*
X004600Y007105D02*
X004640Y007105D01*
X004638Y007106D02*
X004602Y007106D01*
X004604Y007107D02*
X004636Y007107D01*
X004634Y007108D02*
X004606Y007108D01*
X004608Y007109D02*
X004632Y007109D01*
X004626Y007110D02*
X004614Y007110D01*
X004582Y007080D02*
X004658Y007080D01*
X004658Y007079D02*
X004582Y007079D01*
X004582Y007078D02*
X004658Y007078D01*
X004659Y007077D02*
X004582Y007077D01*
X004581Y007076D02*
X004659Y007076D01*
X004659Y007075D02*
X004581Y007075D01*
X004581Y007074D02*
X004659Y007074D01*
X004659Y007073D02*
X004581Y007073D01*
X004581Y007072D02*
X004659Y007072D01*
X004659Y007071D02*
X004581Y007071D01*
X004581Y007070D02*
X004659Y007070D01*
X004659Y007069D02*
X004581Y007069D01*
X004581Y007068D02*
X004659Y007068D01*
X004659Y007067D02*
X004581Y007067D01*
X004582Y007066D02*
X004659Y007066D01*
X004658Y007065D02*
X004582Y007065D01*
X004582Y007064D02*
X004658Y007064D01*
X004658Y007063D02*
X004582Y007063D01*
X004582Y007062D02*
X004658Y007062D01*
X004658Y007061D02*
X004582Y007061D01*
X004583Y007060D02*
X004658Y007060D01*
X004657Y007059D02*
X004583Y007059D01*
X004583Y007058D02*
X004657Y007058D01*
X004656Y007057D02*
X004584Y007057D01*
X004584Y007056D02*
X004656Y007056D01*
X004655Y007055D02*
X004585Y007055D01*
X004585Y007054D02*
X004655Y007054D01*
X004654Y007053D02*
X004586Y007053D01*
X004586Y007052D02*
X004654Y007052D01*
X004653Y007051D02*
X004587Y007051D01*
X004587Y007050D02*
X004653Y007050D01*
X004652Y007049D02*
X004588Y007049D01*
X004589Y007048D02*
X004652Y007048D01*
X004651Y007047D02*
X004590Y007047D01*
X004591Y007046D02*
X004650Y007046D01*
X004649Y007045D02*
X004592Y007045D01*
X004593Y007044D02*
X004648Y007044D01*
X004647Y007043D02*
X004594Y007043D01*
X004595Y007042D02*
X004646Y007042D01*
X004645Y007041D02*
X004596Y007041D01*
X004597Y007040D02*
X004644Y007040D01*
X004642Y007039D02*
X004598Y007039D01*
X004600Y007038D02*
X004640Y007038D01*
X004638Y007037D02*
X004602Y007037D01*
X004604Y007036D02*
X004636Y007036D01*
X004634Y007035D02*
X004606Y007035D01*
X004608Y007034D02*
X004632Y007034D01*
X004626Y007033D02*
X004614Y007033D01*
X003483Y003808D02*
X003460Y003808D01*
X003458Y003807D02*
X003486Y003807D01*
X003488Y003806D02*
X003456Y003806D01*
X003454Y003805D02*
X003490Y003805D01*
X003492Y003804D02*
X003452Y003804D01*
X003450Y003803D02*
X003494Y003803D01*
X003495Y003802D02*
X003448Y003802D01*
X003447Y003801D02*
X003496Y003801D01*
X003497Y003800D02*
X003446Y003800D01*
X003445Y003799D02*
X003498Y003799D01*
X003499Y003798D02*
X003444Y003798D01*
X003443Y003797D02*
X003500Y003797D01*
X003501Y003796D02*
X003442Y003796D01*
X003441Y003795D02*
X003502Y003795D01*
X003503Y003794D02*
X003440Y003794D01*
X003439Y003793D02*
X003504Y003793D01*
X003504Y003792D02*
X003439Y003792D01*
X003438Y003791D02*
X003505Y003791D01*
X003505Y003790D02*
X003438Y003790D01*
X003437Y003789D02*
X003506Y003789D01*
X003506Y003788D02*
X003437Y003788D01*
X003436Y003787D02*
X003507Y003787D01*
X003507Y003786D02*
X003436Y003786D01*
X003435Y003785D02*
X003508Y003785D01*
X003508Y003784D02*
X003435Y003784D01*
X003434Y003783D02*
X003509Y003783D01*
X003509Y003782D02*
X003434Y003782D01*
X003434Y003781D02*
X003509Y003781D01*
X003510Y003780D02*
X003434Y003780D01*
X003434Y003779D02*
X003510Y003779D01*
X003510Y003778D02*
X003433Y003778D01*
X003433Y003777D02*
X003510Y003777D01*
X003510Y003776D02*
X003433Y003776D01*
X003433Y003775D02*
X003510Y003775D01*
X003510Y003774D02*
X003433Y003774D01*
X003433Y003773D02*
X003511Y003773D01*
X003511Y003772D02*
X003433Y003772D01*
X003432Y003771D02*
X003511Y003771D01*
X003511Y003770D02*
X003432Y003770D01*
X003433Y003769D02*
X003511Y003769D01*
X003511Y003768D02*
X003433Y003768D01*
X003433Y003767D02*
X003510Y003767D01*
X003510Y003766D02*
X003433Y003766D01*
X003433Y003765D02*
X003510Y003765D01*
X003510Y003764D02*
X003433Y003764D01*
X003433Y003763D02*
X003510Y003763D01*
X003510Y003762D02*
X003434Y003762D01*
X003434Y003761D02*
X003510Y003761D01*
X003509Y003760D02*
X003434Y003760D01*
X003434Y003759D02*
X003509Y003759D01*
X003509Y003758D02*
X003434Y003758D01*
X003435Y003757D02*
X003508Y003757D01*
X003508Y003756D02*
X003435Y003756D01*
X003436Y003755D02*
X003507Y003755D01*
X003507Y003754D02*
X003436Y003754D01*
X003437Y003753D02*
X003506Y003753D01*
X003506Y003752D02*
X003437Y003752D01*
X003438Y003751D02*
X003505Y003751D01*
X003505Y003750D02*
X003438Y003750D01*
X003439Y003749D02*
X003504Y003749D01*
X003504Y003748D02*
X003439Y003748D01*
X003440Y003747D02*
X003503Y003747D01*
X003502Y003746D02*
X003441Y003746D01*
X003442Y003745D02*
X003501Y003745D01*
X003500Y003744D02*
X003443Y003744D01*
X003444Y003743D02*
X003499Y003743D01*
X003498Y003742D02*
X003445Y003742D01*
X003446Y003741D02*
X003497Y003741D01*
X003496Y003740D02*
X003447Y003740D01*
X003448Y003739D02*
X003495Y003739D01*
X003494Y003738D02*
X003450Y003738D01*
X003452Y003737D02*
X003492Y003737D01*
X003490Y003736D02*
X003454Y003736D01*
X003456Y003735D02*
X003488Y003735D01*
X003486Y003734D02*
X003457Y003734D01*
X003459Y003733D02*
X003484Y003733D01*
X003478Y003732D02*
X003466Y003732D01*
X003466Y003809D02*
X003477Y003809D01*
D13*
X003275Y003062D02*
X004850Y003062D01*
X004850Y004637D01*
X003275Y004637D01*
X003275Y003062D01*
X002078Y003001D02*
X001078Y003001D01*
X001078Y001001D01*
X002078Y001001D01*
X002078Y003001D01*
X003242Y006205D02*
X004817Y006205D01*
X004817Y007780D01*
X003242Y007780D01*
X003242Y006205D01*
X004882Y008083D02*
X005882Y008083D01*
X005882Y010083D01*
X004882Y010083D01*
X004882Y008083D01*
D14*
X002971Y006306D02*
X001869Y006306D01*
X001869Y004614D01*
X002971Y004614D01*
X002971Y006306D01*
D15*
X002676Y006100D03*
M02*
