G75*
G70*
%OFA0B0*%
%FSLAX24Y24*%
%IPPOS*%
%LPD*%
%AMOC8*
5,1,8,0,0,1.08239X$1,22.5*
%
%ADD10C,0.1320*%
%ADD11C,0.0540*%
%ADD12OC8,0.0540*%
%ADD13C,0.0720*%
%ADD14C,0.0460*%
%ADD15OC8,0.0690*%
%ADD16OC8,0.0660*%
%ADD17R,0.0660X0.0660*%
%ADD18C,0.1060*%
%ADD19OC8,0.1060*%
%ADD20C,0.0847*%
%ADD21R,0.0535X0.0535*%
%ADD22R,0.0946X0.0946*%
%ADD23C,0.0946*%
%ADD24R,0.0614X0.0614*%
%ADD25C,0.0460*%
%ADD26C,0.0417*%
%ADD27C,0.0457*%
%ADD28C,0.0496*%
D10*
X002684Y002664D03*
X002684Y032191D03*
X065676Y032191D03*
X065676Y002664D03*
D11*
X064716Y021955D02*
X064716Y022435D01*
X063716Y022435D02*
X063716Y021955D01*
X063716Y023455D02*
X063716Y023935D01*
X064716Y023935D02*
X064716Y023455D01*
X064716Y024955D02*
X064716Y025435D01*
X063716Y025435D02*
X063716Y024955D01*
X063716Y026455D02*
X063716Y026935D01*
X064716Y026935D02*
X064716Y026455D01*
X021716Y025855D02*
X021716Y025375D01*
X020716Y025375D02*
X020716Y025855D01*
X020716Y028535D02*
X020716Y029015D01*
X021716Y029015D02*
X021716Y028535D01*
X007716Y022535D02*
X007716Y022055D01*
X006716Y022055D02*
X006716Y022535D01*
X006716Y019035D02*
X006716Y018555D01*
X007716Y018555D02*
X007716Y019035D01*
X020716Y020455D02*
X020716Y020935D01*
X021716Y020935D02*
X021716Y020455D01*
X021716Y016935D02*
X021716Y016455D01*
X020716Y016455D02*
X020716Y016935D01*
D12*
X019716Y018695D03*
X017416Y018235D03*
X022716Y018695D03*
X024216Y018425D03*
X024216Y015425D03*
X017416Y014235D03*
X008716Y020795D03*
X005716Y020795D03*
X003216Y020295D03*
X003216Y024295D03*
X005716Y024295D03*
X008716Y024295D03*
X018536Y023495D03*
X024216Y024435D03*
X024216Y027435D03*
X022556Y027435D03*
X019556Y027435D03*
X018536Y027495D03*
X038716Y027695D03*
X038716Y026655D03*
X038716Y025735D03*
X038716Y024695D03*
X041716Y024695D03*
X041716Y025735D03*
X041716Y026655D03*
X041716Y027695D03*
X041716Y028695D03*
X038716Y028695D03*
X059156Y026695D03*
X059156Y025355D03*
X059156Y023695D03*
X059156Y022195D03*
X062156Y022195D03*
X062156Y023695D03*
X062156Y025355D03*
X062156Y026695D03*
D13*
X023976Y031095D03*
X019976Y031095D03*
X010776Y025735D03*
X006776Y025735D03*
X014856Y021355D03*
X018856Y021355D03*
D14*
X054756Y015875D02*
X054756Y015475D01*
X056756Y015475D02*
X056756Y015875D01*
D15*
X056936Y017355D03*
X055936Y017355D03*
X054876Y017315D03*
X053876Y017315D03*
X050836Y016735D03*
X049836Y016735D03*
X047676Y026565D03*
X047676Y027565D03*
D16*
X049216Y031195D03*
X050216Y031195D03*
X051216Y031195D03*
X052216Y031195D03*
X053216Y031195D03*
X054216Y031195D03*
X055216Y031195D03*
X056216Y031195D03*
X057216Y031195D03*
X058216Y031195D03*
X058216Y032195D03*
X057216Y032195D03*
X056216Y032195D03*
X055216Y032195D03*
X054216Y032195D03*
X053216Y032195D03*
X052216Y032195D03*
X051216Y032195D03*
X050216Y032195D03*
X049216Y032195D03*
X041216Y021695D03*
X041216Y020695D03*
X040216Y020695D03*
X040216Y021695D03*
X039216Y021695D03*
X042716Y010195D03*
X043716Y010195D03*
X044716Y010195D03*
X045716Y010195D03*
X046716Y010195D03*
X047716Y010195D03*
X048716Y010195D03*
X049716Y010195D03*
X049716Y009195D03*
X048716Y009195D03*
X047716Y009195D03*
X046716Y009195D03*
X045716Y009195D03*
X044716Y009195D03*
X043716Y009195D03*
X042716Y009195D03*
X042716Y004695D03*
X043716Y004695D03*
X044716Y004695D03*
X045716Y004695D03*
X046716Y004695D03*
X047716Y004695D03*
X048716Y004695D03*
X049716Y004695D03*
X049716Y003695D03*
X048716Y003695D03*
X047716Y003695D03*
X046716Y003695D03*
X045716Y003695D03*
X044716Y003695D03*
X043716Y003695D03*
X042716Y003695D03*
X055216Y003695D03*
X056216Y003695D03*
X057216Y003695D03*
X058216Y003695D03*
X059216Y003695D03*
X060216Y003695D03*
X061216Y003695D03*
X062216Y003695D03*
X062216Y004695D03*
X061216Y004695D03*
X060216Y004695D03*
X059216Y004695D03*
X058216Y004695D03*
X057216Y004695D03*
X056216Y004695D03*
X055216Y004695D03*
X055216Y009195D03*
X056216Y009195D03*
X057216Y009195D03*
X058216Y009195D03*
X059216Y009195D03*
X060216Y009195D03*
X061216Y009195D03*
X062216Y009195D03*
X062216Y010195D03*
X061216Y010195D03*
X060216Y010195D03*
X059216Y010195D03*
X058216Y010195D03*
X057216Y010195D03*
X056216Y010195D03*
X055216Y010195D03*
X028466Y010195D03*
X027466Y010195D03*
X026466Y010195D03*
X025466Y010195D03*
X024466Y010195D03*
X023466Y010195D03*
X022466Y010195D03*
X021466Y010195D03*
X021466Y009195D03*
X022466Y009195D03*
X023466Y009195D03*
X024466Y009195D03*
X025466Y009195D03*
X026466Y009195D03*
X027466Y009195D03*
X028466Y009195D03*
X028466Y004695D03*
X027466Y004695D03*
X026466Y004695D03*
X025466Y004695D03*
X024466Y004695D03*
X023466Y004695D03*
X022466Y004695D03*
X021466Y004695D03*
X021466Y003695D03*
X022466Y003695D03*
X023466Y003695D03*
X024466Y003695D03*
X025466Y003695D03*
X026466Y003695D03*
X027466Y003695D03*
X028466Y003695D03*
X013466Y003695D03*
X012466Y003695D03*
X011466Y003695D03*
X010466Y003695D03*
X009466Y003695D03*
X008466Y003695D03*
X007466Y003695D03*
X006466Y003695D03*
X006466Y004695D03*
X007466Y004695D03*
X008466Y004695D03*
X009466Y004695D03*
X010466Y004695D03*
X011466Y004695D03*
X012466Y004695D03*
X013466Y004695D03*
X013466Y009195D03*
X012466Y009195D03*
X011466Y009195D03*
X010466Y009195D03*
X009466Y009195D03*
X008466Y009195D03*
X007466Y009195D03*
X006466Y009195D03*
X006466Y010195D03*
X007466Y010195D03*
X008466Y010195D03*
X009466Y010195D03*
X010466Y010195D03*
X011466Y010195D03*
X012466Y010195D03*
X013466Y010195D03*
D17*
X039216Y020695D03*
D18*
X014716Y013935D03*
X004716Y014795D03*
X012796Y022195D03*
D19*
X012796Y024195D03*
X002716Y014795D03*
X012716Y013935D03*
D20*
X024397Y013573D03*
X035027Y013573D03*
X035027Y032668D03*
X024397Y032668D03*
D21*
X027940Y013786D03*
X027940Y012786D03*
X028940Y012786D03*
X029940Y012786D03*
X029940Y013786D03*
X028940Y013786D03*
X030940Y013786D03*
X031940Y013786D03*
X031940Y012786D03*
X030940Y012786D03*
D22*
X012076Y017335D03*
X013996Y026935D03*
X005676Y031415D03*
X003116Y028375D03*
D23*
X004675Y028375D03*
X007235Y031415D03*
X008794Y031415D03*
X010353Y031415D03*
X011912Y031415D03*
X013471Y031415D03*
X015030Y031415D03*
X016589Y031415D03*
X013996Y028494D03*
X012076Y018894D03*
D24*
X020216Y011195D03*
X019716Y005535D03*
X039216Y005535D03*
X039216Y010195D03*
X053716Y010195D03*
X053716Y005535D03*
D25*
X051676Y011455D03*
X034116Y018655D03*
D26*
X032556Y016855D03*
X032716Y016215D03*
X038836Y014615D03*
X039256Y014215D03*
X041036Y014935D03*
X041496Y013975D03*
X043276Y014935D03*
X044236Y015095D03*
X043596Y015735D03*
X044716Y016535D03*
X046956Y017175D03*
X049196Y017495D03*
X050296Y017655D03*
X051596Y017335D03*
X053196Y015255D03*
X048216Y013975D03*
X047896Y014295D03*
X046176Y014615D03*
X045516Y012695D03*
X047116Y012695D03*
X042496Y012335D03*
X037596Y008995D03*
X045516Y008215D03*
X048256Y006855D03*
X047116Y018455D03*
X045516Y019415D03*
X047756Y019735D03*
X048076Y020535D03*
X049676Y021015D03*
X050316Y021495D03*
X048396Y022135D03*
X047436Y023235D03*
X046936Y022735D03*
X046836Y021375D03*
X044976Y023315D03*
X045456Y023875D03*
X047596Y025175D03*
X048876Y024375D03*
X048876Y023735D03*
X051336Y024635D03*
X049036Y025815D03*
X049616Y028535D03*
X050376Y028635D03*
X048816Y029915D03*
X048336Y030235D03*
X045936Y030315D03*
X044856Y029915D03*
X043276Y028535D03*
X037356Y023735D03*
X037516Y023095D03*
X029196Y022455D03*
X019436Y008855D03*
X026936Y006775D03*
X053436Y021355D03*
X054156Y023415D03*
X055136Y023815D03*
D27*
X054956Y022935D03*
X054476Y022455D03*
X054956Y021975D03*
X054476Y021655D03*
X053836Y020535D03*
X053356Y020535D03*
X053356Y020055D03*
X052396Y019575D03*
X052396Y019095D03*
X051916Y019095D03*
X050156Y019415D03*
X049516Y019415D03*
X049676Y020055D03*
X051596Y025495D03*
X051596Y025975D03*
X050956Y025815D03*
X050956Y026295D03*
X048396Y028535D03*
X060556Y015575D03*
X064556Y010455D03*
X063436Y009175D03*
X061676Y006855D03*
X060716Y006535D03*
X062796Y006135D03*
X057996Y006535D03*
X057436Y006135D03*
X057356Y006855D03*
X050476Y008375D03*
X049196Y006535D03*
X049756Y006135D03*
X047756Y006615D03*
X047436Y006135D03*
X045356Y006135D03*
X044876Y006455D03*
X044396Y006775D03*
X038156Y010615D03*
X037676Y010935D03*
X037676Y012375D03*
X038156Y012695D03*
X037196Y012695D03*
X036716Y012375D03*
X027436Y006455D03*
X026636Y006135D03*
X026156Y006455D03*
X024396Y006135D03*
X023916Y006455D03*
X023436Y006775D03*
X018636Y008535D03*
X016236Y008375D03*
X015916Y006775D03*
X016396Y006455D03*
X014796Y006615D03*
X013516Y006775D03*
X012396Y006615D03*
X011916Y006295D03*
X015756Y011015D03*
X057516Y002455D03*
D28*
X056236Y002935D03*
X054156Y004695D03*
X026956Y010935D03*
M02*
