G75*
G70*
%OFA0B0*%
%FSLAX24Y24*%
%IPPOS*%
%LPD*%
%AMOC8*
5,1,8,0,0,1.08239X$1,22.5*
%
%ADD10C,0.0000*%
%ADD11C,0.0030*%
D10*
X001140Y001460D02*
X001140Y032956D01*
X036573Y032956D01*
X036573Y001460D01*
X001140Y001460D01*
X002479Y003429D02*
X002481Y003479D01*
X002487Y003529D01*
X002497Y003578D01*
X002511Y003626D01*
X002528Y003673D01*
X002549Y003718D01*
X002574Y003762D01*
X002602Y003803D01*
X002634Y003842D01*
X002668Y003879D01*
X002705Y003913D01*
X002745Y003943D01*
X002787Y003970D01*
X002831Y003994D01*
X002877Y004015D01*
X002924Y004031D01*
X002972Y004044D01*
X003022Y004053D01*
X003071Y004058D01*
X003122Y004059D01*
X003172Y004056D01*
X003221Y004049D01*
X003270Y004038D01*
X003318Y004023D01*
X003364Y004005D01*
X003409Y003983D01*
X003452Y003957D01*
X003493Y003928D01*
X003532Y003896D01*
X003568Y003861D01*
X003600Y003823D01*
X003630Y003783D01*
X003657Y003740D01*
X003680Y003696D01*
X003699Y003650D01*
X003715Y003602D01*
X003727Y003553D01*
X003735Y003504D01*
X003739Y003454D01*
X003739Y003404D01*
X003735Y003354D01*
X003727Y003305D01*
X003715Y003256D01*
X003699Y003208D01*
X003680Y003162D01*
X003657Y003118D01*
X003630Y003075D01*
X003600Y003035D01*
X003568Y002997D01*
X003532Y002962D01*
X003493Y002930D01*
X003452Y002901D01*
X003409Y002875D01*
X003364Y002853D01*
X003318Y002835D01*
X003270Y002820D01*
X003221Y002809D01*
X003172Y002802D01*
X003122Y002799D01*
X003071Y002800D01*
X003022Y002805D01*
X002972Y002814D01*
X002924Y002827D01*
X002877Y002843D01*
X002831Y002864D01*
X002787Y002888D01*
X002745Y002915D01*
X002705Y002945D01*
X002668Y002979D01*
X002634Y003016D01*
X002602Y003055D01*
X002574Y003096D01*
X002549Y003140D01*
X002528Y003185D01*
X002511Y003232D01*
X002497Y003280D01*
X002487Y003329D01*
X002481Y003379D01*
X002479Y003429D01*
X002479Y030988D02*
X002481Y031038D01*
X002487Y031088D01*
X002497Y031137D01*
X002511Y031185D01*
X002528Y031232D01*
X002549Y031277D01*
X002574Y031321D01*
X002602Y031362D01*
X002634Y031401D01*
X002668Y031438D01*
X002705Y031472D01*
X002745Y031502D01*
X002787Y031529D01*
X002831Y031553D01*
X002877Y031574D01*
X002924Y031590D01*
X002972Y031603D01*
X003022Y031612D01*
X003071Y031617D01*
X003122Y031618D01*
X003172Y031615D01*
X003221Y031608D01*
X003270Y031597D01*
X003318Y031582D01*
X003364Y031564D01*
X003409Y031542D01*
X003452Y031516D01*
X003493Y031487D01*
X003532Y031455D01*
X003568Y031420D01*
X003600Y031382D01*
X003630Y031342D01*
X003657Y031299D01*
X003680Y031255D01*
X003699Y031209D01*
X003715Y031161D01*
X003727Y031112D01*
X003735Y031063D01*
X003739Y031013D01*
X003739Y030963D01*
X003735Y030913D01*
X003727Y030864D01*
X003715Y030815D01*
X003699Y030767D01*
X003680Y030721D01*
X003657Y030677D01*
X003630Y030634D01*
X003600Y030594D01*
X003568Y030556D01*
X003532Y030521D01*
X003493Y030489D01*
X003452Y030460D01*
X003409Y030434D01*
X003364Y030412D01*
X003318Y030394D01*
X003270Y030379D01*
X003221Y030368D01*
X003172Y030361D01*
X003122Y030358D01*
X003071Y030359D01*
X003022Y030364D01*
X002972Y030373D01*
X002924Y030386D01*
X002877Y030402D01*
X002831Y030423D01*
X002787Y030447D01*
X002745Y030474D01*
X002705Y030504D01*
X002668Y030538D01*
X002634Y030575D01*
X002602Y030614D01*
X002574Y030655D01*
X002549Y030699D01*
X002528Y030744D01*
X002511Y030791D01*
X002497Y030839D01*
X002487Y030888D01*
X002481Y030938D01*
X002479Y030988D01*
X033975Y030988D02*
X033977Y031038D01*
X033983Y031088D01*
X033993Y031137D01*
X034007Y031185D01*
X034024Y031232D01*
X034045Y031277D01*
X034070Y031321D01*
X034098Y031362D01*
X034130Y031401D01*
X034164Y031438D01*
X034201Y031472D01*
X034241Y031502D01*
X034283Y031529D01*
X034327Y031553D01*
X034373Y031574D01*
X034420Y031590D01*
X034468Y031603D01*
X034518Y031612D01*
X034567Y031617D01*
X034618Y031618D01*
X034668Y031615D01*
X034717Y031608D01*
X034766Y031597D01*
X034814Y031582D01*
X034860Y031564D01*
X034905Y031542D01*
X034948Y031516D01*
X034989Y031487D01*
X035028Y031455D01*
X035064Y031420D01*
X035096Y031382D01*
X035126Y031342D01*
X035153Y031299D01*
X035176Y031255D01*
X035195Y031209D01*
X035211Y031161D01*
X035223Y031112D01*
X035231Y031063D01*
X035235Y031013D01*
X035235Y030963D01*
X035231Y030913D01*
X035223Y030864D01*
X035211Y030815D01*
X035195Y030767D01*
X035176Y030721D01*
X035153Y030677D01*
X035126Y030634D01*
X035096Y030594D01*
X035064Y030556D01*
X035028Y030521D01*
X034989Y030489D01*
X034948Y030460D01*
X034905Y030434D01*
X034860Y030412D01*
X034814Y030394D01*
X034766Y030379D01*
X034717Y030368D01*
X034668Y030361D01*
X034618Y030358D01*
X034567Y030359D01*
X034518Y030364D01*
X034468Y030373D01*
X034420Y030386D01*
X034373Y030402D01*
X034327Y030423D01*
X034283Y030447D01*
X034241Y030474D01*
X034201Y030504D01*
X034164Y030538D01*
X034130Y030575D01*
X034098Y030614D01*
X034070Y030655D01*
X034045Y030699D01*
X034024Y030744D01*
X034007Y030791D01*
X033993Y030839D01*
X033983Y030888D01*
X033977Y030938D01*
X033975Y030988D01*
X033975Y003429D02*
X033977Y003479D01*
X033983Y003529D01*
X033993Y003578D01*
X034007Y003626D01*
X034024Y003673D01*
X034045Y003718D01*
X034070Y003762D01*
X034098Y003803D01*
X034130Y003842D01*
X034164Y003879D01*
X034201Y003913D01*
X034241Y003943D01*
X034283Y003970D01*
X034327Y003994D01*
X034373Y004015D01*
X034420Y004031D01*
X034468Y004044D01*
X034518Y004053D01*
X034567Y004058D01*
X034618Y004059D01*
X034668Y004056D01*
X034717Y004049D01*
X034766Y004038D01*
X034814Y004023D01*
X034860Y004005D01*
X034905Y003983D01*
X034948Y003957D01*
X034989Y003928D01*
X035028Y003896D01*
X035064Y003861D01*
X035096Y003823D01*
X035126Y003783D01*
X035153Y003740D01*
X035176Y003696D01*
X035195Y003650D01*
X035211Y003602D01*
X035223Y003553D01*
X035231Y003504D01*
X035235Y003454D01*
X035235Y003404D01*
X035231Y003354D01*
X035223Y003305D01*
X035211Y003256D01*
X035195Y003208D01*
X035176Y003162D01*
X035153Y003118D01*
X035126Y003075D01*
X035096Y003035D01*
X035064Y002997D01*
X035028Y002962D01*
X034989Y002930D01*
X034948Y002901D01*
X034905Y002875D01*
X034860Y002853D01*
X034814Y002835D01*
X034766Y002820D01*
X034717Y002809D01*
X034668Y002802D01*
X034618Y002799D01*
X034567Y002800D01*
X034518Y002805D01*
X034468Y002814D01*
X034420Y002827D01*
X034373Y002843D01*
X034327Y002864D01*
X034283Y002888D01*
X034241Y002915D01*
X034201Y002945D01*
X034164Y002979D01*
X034130Y003016D01*
X034098Y003055D01*
X034070Y003096D01*
X034045Y003140D01*
X034024Y003185D01*
X034007Y003232D01*
X033993Y003280D01*
X033983Y003329D01*
X033977Y003379D01*
X033975Y003429D01*
D11*
X026534Y005713D02*
X026485Y005665D01*
X026388Y005665D01*
X026340Y005713D01*
X026239Y005665D02*
X026045Y005665D01*
X026142Y005665D02*
X026142Y005955D01*
X026239Y005858D01*
X026340Y005907D02*
X026388Y005955D01*
X026485Y005955D01*
X026534Y005907D01*
X026534Y005713D01*
X025944Y005713D02*
X025751Y005907D01*
X025751Y005713D01*
X025799Y005665D01*
X025896Y005665D01*
X025944Y005713D01*
X025944Y005907D01*
X025896Y005955D01*
X025799Y005955D01*
X025751Y005907D01*
X025650Y005907D02*
X025601Y005955D01*
X025505Y005955D01*
X025456Y005907D01*
X025650Y005713D01*
X025601Y005665D01*
X025505Y005665D01*
X025456Y005713D01*
X025456Y005907D01*
X025650Y005907D02*
X025650Y005713D01*
X025836Y011165D02*
X026030Y011165D01*
X025836Y011358D01*
X025836Y011407D01*
X025885Y011455D01*
X025981Y011455D01*
X026030Y011407D01*
X026131Y011407D02*
X026324Y011213D01*
X026276Y011165D01*
X026179Y011165D01*
X026131Y011213D01*
X026131Y011407D01*
X026179Y011455D01*
X026276Y011455D01*
X026324Y011407D01*
X026324Y011213D01*
X026425Y011165D02*
X026619Y011165D01*
X026522Y011165D02*
X026522Y011455D01*
X026619Y011358D01*
X026720Y011407D02*
X026768Y011455D01*
X026865Y011455D01*
X026914Y011407D01*
X026914Y011213D01*
X026865Y011165D01*
X026768Y011165D01*
X026720Y011213D01*
X026659Y017085D02*
X026465Y017085D01*
X026562Y017085D02*
X026562Y017375D01*
X026659Y017278D01*
X026760Y017327D02*
X026808Y017375D01*
X026905Y017375D01*
X026954Y017327D01*
X026954Y017133D01*
X026905Y017085D01*
X026808Y017085D01*
X026760Y017133D01*
X026364Y017133D02*
X026171Y017327D01*
X026171Y017133D01*
X026219Y017085D01*
X026316Y017085D01*
X026364Y017133D01*
X026364Y017327D01*
X026316Y017375D01*
X026219Y017375D01*
X026171Y017327D01*
X026070Y017327D02*
X026021Y017375D01*
X025925Y017375D01*
X025876Y017327D01*
X025876Y017278D01*
X025925Y017230D01*
X025876Y017182D01*
X025876Y017133D01*
X025925Y017085D01*
X026021Y017085D01*
X026070Y017133D01*
X025973Y017230D02*
X025925Y017230D01*
X025956Y022545D02*
X026004Y022593D01*
X025811Y022787D01*
X025811Y022593D01*
X025859Y022545D01*
X025956Y022545D01*
X026004Y022593D02*
X026004Y022787D01*
X025956Y022835D01*
X025859Y022835D01*
X025811Y022787D01*
X025710Y022835D02*
X025710Y022690D01*
X025613Y022738D01*
X025565Y022738D01*
X025516Y022690D01*
X025516Y022593D01*
X025565Y022545D01*
X025661Y022545D01*
X025710Y022593D01*
X025710Y022835D02*
X025516Y022835D01*
X026105Y022545D02*
X026299Y022545D01*
X026202Y022545D02*
X026202Y022835D01*
X026299Y022738D01*
X026400Y022787D02*
X026448Y022835D01*
X026545Y022835D01*
X026594Y022787D01*
X026594Y022593D01*
X026545Y022545D01*
X026448Y022545D01*
X026400Y022593D01*
X026445Y028085D02*
X026348Y028085D01*
X026300Y028133D01*
X026199Y028085D02*
X026005Y028085D01*
X026102Y028085D02*
X026102Y028375D01*
X026199Y028278D01*
X026300Y028327D02*
X026348Y028375D01*
X026445Y028375D01*
X026494Y028327D01*
X026494Y028133D01*
X026445Y028085D01*
X025904Y028133D02*
X025856Y028085D01*
X025759Y028085D01*
X025711Y028133D01*
X025711Y028327D01*
X025904Y028133D01*
X025904Y028327D01*
X025856Y028375D01*
X025759Y028375D01*
X025711Y028327D01*
X025610Y028230D02*
X025465Y028230D01*
X025416Y028182D01*
X025416Y028133D01*
X025465Y028085D01*
X025561Y028085D01*
X025610Y028133D01*
X025610Y028230D01*
X025513Y028327D01*
X025416Y028375D01*
X010974Y022407D02*
X010974Y022213D01*
X010925Y022165D01*
X010828Y022165D01*
X010780Y022213D01*
X010679Y022165D02*
X010485Y022165D01*
X010582Y022165D02*
X010582Y022455D01*
X010679Y022358D01*
X010780Y022407D02*
X010828Y022455D01*
X010925Y022455D01*
X010974Y022407D01*
X010384Y022407D02*
X010384Y022213D01*
X010191Y022407D01*
X010191Y022213D01*
X010239Y022165D01*
X010336Y022165D01*
X010384Y022213D01*
X010384Y022407D02*
X010336Y022455D01*
X010239Y022455D01*
X010191Y022407D01*
X010090Y022310D02*
X009896Y022310D01*
X009945Y022165D02*
X009945Y022455D01*
X010090Y022310D01*
X010155Y028085D02*
X010349Y028085D01*
X010252Y028085D02*
X010252Y028375D01*
X010349Y028278D01*
X010450Y028327D02*
X010498Y028375D01*
X010595Y028375D01*
X010644Y028327D01*
X010644Y028133D01*
X010595Y028085D01*
X010498Y028085D01*
X010450Y028133D01*
X010054Y028133D02*
X010006Y028085D01*
X009909Y028085D01*
X009861Y028133D01*
X009861Y028327D01*
X010054Y028133D01*
X010054Y028327D01*
X010006Y028375D01*
X009909Y028375D01*
X009861Y028327D01*
X009760Y028375D02*
X009566Y028375D01*
X009566Y028327D01*
X009760Y028133D01*
X009760Y028085D01*
X009739Y006235D02*
X009691Y006187D01*
X009884Y005993D01*
X009836Y005945D01*
X009739Y005945D01*
X009691Y005993D01*
X009691Y006187D01*
X009739Y006235D02*
X009836Y006235D01*
X009884Y006187D01*
X009884Y005993D01*
X009985Y005945D02*
X010179Y005945D01*
X010082Y005945D02*
X010082Y006235D01*
X010179Y006138D01*
X010280Y006187D02*
X010328Y006235D01*
X010425Y006235D01*
X010474Y006187D01*
X010474Y005993D01*
X010425Y005945D01*
X010328Y005945D01*
X010280Y005993D01*
X009590Y005945D02*
X009396Y005945D01*
X009493Y005945D02*
X009493Y006235D01*
X009590Y006138D01*
M02*
