G75*
G70*
%OFA0B0*%
%FSLAX24Y24*%
%IPPOS*%
%LPD*%
%AMOC8*
5,1,8,0,0,1.08239X$1,22.5*
%
%ADD10C,0.0000*%
%ADD11C,0.0475*%
%ADD12OC8,0.0600*%
%ADD13C,0.0400*%
%ADD14R,0.0433X0.0394*%
%ADD15OC8,0.0480*%
%ADD16OC8,0.0630*%
%ADD17R,0.0768X0.0768*%
%ADD18R,0.0600X0.0600*%
%ADD19C,0.0630*%
%ADD20C,0.0160*%
%ADD21C,0.0397*%
%ADD22C,0.0080*%
%ADD23C,0.0357*%
%ADD24C,0.0436*%
%ADD25C,0.0200*%
%ADD26C,0.0100*%
D10*
X001140Y001460D02*
X001140Y032956D01*
X036573Y032956D01*
X036573Y001460D01*
X001140Y001460D01*
X002479Y003429D02*
X002481Y003479D01*
X002487Y003529D01*
X002497Y003578D01*
X002511Y003626D01*
X002528Y003673D01*
X002549Y003718D01*
X002574Y003762D01*
X002602Y003803D01*
X002634Y003842D01*
X002668Y003879D01*
X002705Y003913D01*
X002745Y003943D01*
X002787Y003970D01*
X002831Y003994D01*
X002877Y004015D01*
X002924Y004031D01*
X002972Y004044D01*
X003022Y004053D01*
X003071Y004058D01*
X003122Y004059D01*
X003172Y004056D01*
X003221Y004049D01*
X003270Y004038D01*
X003318Y004023D01*
X003364Y004005D01*
X003409Y003983D01*
X003452Y003957D01*
X003493Y003928D01*
X003532Y003896D01*
X003568Y003861D01*
X003600Y003823D01*
X003630Y003783D01*
X003657Y003740D01*
X003680Y003696D01*
X003699Y003650D01*
X003715Y003602D01*
X003727Y003553D01*
X003735Y003504D01*
X003739Y003454D01*
X003739Y003404D01*
X003735Y003354D01*
X003727Y003305D01*
X003715Y003256D01*
X003699Y003208D01*
X003680Y003162D01*
X003657Y003118D01*
X003630Y003075D01*
X003600Y003035D01*
X003568Y002997D01*
X003532Y002962D01*
X003493Y002930D01*
X003452Y002901D01*
X003409Y002875D01*
X003364Y002853D01*
X003318Y002835D01*
X003270Y002820D01*
X003221Y002809D01*
X003172Y002802D01*
X003122Y002799D01*
X003071Y002800D01*
X003022Y002805D01*
X002972Y002814D01*
X002924Y002827D01*
X002877Y002843D01*
X002831Y002864D01*
X002787Y002888D01*
X002745Y002915D01*
X002705Y002945D01*
X002668Y002979D01*
X002634Y003016D01*
X002602Y003055D01*
X002574Y003096D01*
X002549Y003140D01*
X002528Y003185D01*
X002511Y003232D01*
X002497Y003280D01*
X002487Y003329D01*
X002481Y003379D01*
X002479Y003429D01*
X002479Y030988D02*
X002481Y031038D01*
X002487Y031088D01*
X002497Y031137D01*
X002511Y031185D01*
X002528Y031232D01*
X002549Y031277D01*
X002574Y031321D01*
X002602Y031362D01*
X002634Y031401D01*
X002668Y031438D01*
X002705Y031472D01*
X002745Y031502D01*
X002787Y031529D01*
X002831Y031553D01*
X002877Y031574D01*
X002924Y031590D01*
X002972Y031603D01*
X003022Y031612D01*
X003071Y031617D01*
X003122Y031618D01*
X003172Y031615D01*
X003221Y031608D01*
X003270Y031597D01*
X003318Y031582D01*
X003364Y031564D01*
X003409Y031542D01*
X003452Y031516D01*
X003493Y031487D01*
X003532Y031455D01*
X003568Y031420D01*
X003600Y031382D01*
X003630Y031342D01*
X003657Y031299D01*
X003680Y031255D01*
X003699Y031209D01*
X003715Y031161D01*
X003727Y031112D01*
X003735Y031063D01*
X003739Y031013D01*
X003739Y030963D01*
X003735Y030913D01*
X003727Y030864D01*
X003715Y030815D01*
X003699Y030767D01*
X003680Y030721D01*
X003657Y030677D01*
X003630Y030634D01*
X003600Y030594D01*
X003568Y030556D01*
X003532Y030521D01*
X003493Y030489D01*
X003452Y030460D01*
X003409Y030434D01*
X003364Y030412D01*
X003318Y030394D01*
X003270Y030379D01*
X003221Y030368D01*
X003172Y030361D01*
X003122Y030358D01*
X003071Y030359D01*
X003022Y030364D01*
X002972Y030373D01*
X002924Y030386D01*
X002877Y030402D01*
X002831Y030423D01*
X002787Y030447D01*
X002745Y030474D01*
X002705Y030504D01*
X002668Y030538D01*
X002634Y030575D01*
X002602Y030614D01*
X002574Y030655D01*
X002549Y030699D01*
X002528Y030744D01*
X002511Y030791D01*
X002497Y030839D01*
X002487Y030888D01*
X002481Y030938D01*
X002479Y030988D01*
X033975Y030988D02*
X033977Y031038D01*
X033983Y031088D01*
X033993Y031137D01*
X034007Y031185D01*
X034024Y031232D01*
X034045Y031277D01*
X034070Y031321D01*
X034098Y031362D01*
X034130Y031401D01*
X034164Y031438D01*
X034201Y031472D01*
X034241Y031502D01*
X034283Y031529D01*
X034327Y031553D01*
X034373Y031574D01*
X034420Y031590D01*
X034468Y031603D01*
X034518Y031612D01*
X034567Y031617D01*
X034618Y031618D01*
X034668Y031615D01*
X034717Y031608D01*
X034766Y031597D01*
X034814Y031582D01*
X034860Y031564D01*
X034905Y031542D01*
X034948Y031516D01*
X034989Y031487D01*
X035028Y031455D01*
X035064Y031420D01*
X035096Y031382D01*
X035126Y031342D01*
X035153Y031299D01*
X035176Y031255D01*
X035195Y031209D01*
X035211Y031161D01*
X035223Y031112D01*
X035231Y031063D01*
X035235Y031013D01*
X035235Y030963D01*
X035231Y030913D01*
X035223Y030864D01*
X035211Y030815D01*
X035195Y030767D01*
X035176Y030721D01*
X035153Y030677D01*
X035126Y030634D01*
X035096Y030594D01*
X035064Y030556D01*
X035028Y030521D01*
X034989Y030489D01*
X034948Y030460D01*
X034905Y030434D01*
X034860Y030412D01*
X034814Y030394D01*
X034766Y030379D01*
X034717Y030368D01*
X034668Y030361D01*
X034618Y030358D01*
X034567Y030359D01*
X034518Y030364D01*
X034468Y030373D01*
X034420Y030386D01*
X034373Y030402D01*
X034327Y030423D01*
X034283Y030447D01*
X034241Y030474D01*
X034201Y030504D01*
X034164Y030538D01*
X034130Y030575D01*
X034098Y030614D01*
X034070Y030655D01*
X034045Y030699D01*
X034024Y030744D01*
X034007Y030791D01*
X033993Y030839D01*
X033983Y030888D01*
X033977Y030938D01*
X033975Y030988D01*
X033975Y003429D02*
X033977Y003479D01*
X033983Y003529D01*
X033993Y003578D01*
X034007Y003626D01*
X034024Y003673D01*
X034045Y003718D01*
X034070Y003762D01*
X034098Y003803D01*
X034130Y003842D01*
X034164Y003879D01*
X034201Y003913D01*
X034241Y003943D01*
X034283Y003970D01*
X034327Y003994D01*
X034373Y004015D01*
X034420Y004031D01*
X034468Y004044D01*
X034518Y004053D01*
X034567Y004058D01*
X034618Y004059D01*
X034668Y004056D01*
X034717Y004049D01*
X034766Y004038D01*
X034814Y004023D01*
X034860Y004005D01*
X034905Y003983D01*
X034948Y003957D01*
X034989Y003928D01*
X035028Y003896D01*
X035064Y003861D01*
X035096Y003823D01*
X035126Y003783D01*
X035153Y003740D01*
X035176Y003696D01*
X035195Y003650D01*
X035211Y003602D01*
X035223Y003553D01*
X035231Y003504D01*
X035235Y003454D01*
X035235Y003404D01*
X035231Y003354D01*
X035223Y003305D01*
X035211Y003256D01*
X035195Y003208D01*
X035176Y003162D01*
X035153Y003118D01*
X035126Y003075D01*
X035096Y003035D01*
X035064Y002997D01*
X035028Y002962D01*
X034989Y002930D01*
X034948Y002901D01*
X034905Y002875D01*
X034860Y002853D01*
X034814Y002835D01*
X034766Y002820D01*
X034717Y002809D01*
X034668Y002802D01*
X034618Y002799D01*
X034567Y002800D01*
X034518Y002805D01*
X034468Y002814D01*
X034420Y002827D01*
X034373Y002843D01*
X034327Y002864D01*
X034283Y002888D01*
X034241Y002915D01*
X034201Y002945D01*
X034164Y002979D01*
X034130Y003016D01*
X034098Y003055D01*
X034070Y003096D01*
X034045Y003140D01*
X034024Y003185D01*
X034007Y003232D01*
X033993Y003280D01*
X033983Y003329D01*
X033977Y003379D01*
X033975Y003429D01*
D11*
X032280Y007303D02*
X032280Y007777D01*
X031280Y007777D02*
X031280Y007303D01*
X030280Y007303D02*
X030280Y007777D01*
X029280Y007777D02*
X029280Y007303D01*
X028280Y007303D02*
X028280Y007777D01*
X027280Y007777D02*
X027280Y007303D01*
X026280Y007303D02*
X026280Y007777D01*
X025280Y007777D02*
X025280Y007303D01*
X024280Y007303D02*
X024280Y007777D01*
X023280Y007777D02*
X023280Y007303D01*
X023200Y012583D02*
X023200Y013057D01*
X024200Y013057D02*
X024200Y012583D01*
X025200Y012583D02*
X025200Y013057D01*
X026200Y013057D02*
X026200Y012583D01*
X027200Y012583D02*
X027200Y013057D01*
X028200Y013057D02*
X028200Y012583D01*
X029200Y012583D02*
X029200Y013057D01*
X030200Y013057D02*
X030200Y012583D01*
X031200Y012583D02*
X031200Y013057D01*
X032200Y013057D02*
X032200Y012583D01*
X032120Y018423D02*
X032120Y018897D01*
X031120Y018897D02*
X031120Y018423D01*
X030120Y018423D02*
X030120Y018897D01*
X029120Y018897D02*
X029120Y018423D01*
X028120Y018423D02*
X028120Y018897D01*
X027120Y018897D02*
X027120Y018423D01*
X026120Y018423D02*
X026120Y018897D01*
X025120Y018897D02*
X025120Y018423D01*
X024120Y018423D02*
X024120Y018897D01*
X023120Y018897D02*
X023120Y018423D01*
X022960Y023783D02*
X022960Y024257D01*
X023960Y024257D02*
X023960Y023783D01*
X024960Y023783D02*
X024960Y024257D01*
X025960Y024257D02*
X025960Y023783D01*
X026960Y023783D02*
X026960Y024257D01*
X027960Y024257D02*
X027960Y023783D01*
X028960Y023783D02*
X028960Y024257D01*
X029960Y024257D02*
X029960Y023783D01*
X030960Y023783D02*
X030960Y024257D01*
X031960Y024257D02*
X031960Y023783D01*
X031800Y029383D02*
X031800Y029857D01*
X030800Y029857D02*
X030800Y029383D01*
X029800Y029383D02*
X029800Y029857D01*
X028800Y029857D02*
X028800Y029383D01*
X027800Y029383D02*
X027800Y029857D01*
X026800Y029857D02*
X026800Y029383D01*
X025800Y029383D02*
X025800Y029857D01*
X024800Y029857D02*
X024800Y029383D01*
X023800Y029383D02*
X023800Y029857D01*
X022800Y029857D02*
X022800Y029383D01*
X015880Y029383D02*
X015880Y029857D01*
X014880Y029857D02*
X014880Y029383D01*
X013880Y029383D02*
X013880Y029857D01*
X012880Y029857D02*
X012880Y029383D01*
X011880Y029383D02*
X011880Y029857D01*
X010880Y029857D02*
X010880Y029383D01*
X009880Y029383D02*
X009880Y029857D01*
X008880Y029857D02*
X008880Y029383D01*
X007880Y029383D02*
X007880Y029857D01*
X006880Y029857D02*
X006880Y029383D01*
X006740Y024017D02*
X006740Y023543D01*
X007740Y023543D02*
X007740Y024017D01*
X008740Y024017D02*
X008740Y023543D01*
X009740Y023543D02*
X009740Y024017D01*
X010740Y024017D02*
X010740Y023543D01*
X011740Y023543D02*
X011740Y024017D01*
X012740Y024017D02*
X012740Y023543D01*
X013740Y023543D02*
X013740Y024017D01*
X014740Y024017D02*
X014740Y023543D01*
X015740Y023543D02*
X015740Y024017D01*
X015240Y007697D02*
X015240Y007223D01*
X014240Y007223D02*
X014240Y007697D01*
X013240Y007697D02*
X013240Y007223D01*
X012240Y007223D02*
X012240Y007697D01*
X011240Y007697D02*
X011240Y007223D01*
X010240Y007223D02*
X010240Y007697D01*
X009240Y007697D02*
X009240Y007223D01*
X008240Y007223D02*
X008240Y007697D01*
X007240Y007697D02*
X007240Y007223D01*
X006240Y007223D02*
X006240Y007697D01*
D12*
X003609Y013708D03*
X003609Y014708D03*
X003609Y015708D03*
X003609Y016708D03*
X003609Y017708D03*
X003609Y018708D03*
X003609Y019708D03*
X003609Y020708D03*
X002609Y020708D03*
X002609Y019708D03*
X002609Y018708D03*
X002609Y017708D03*
X002609Y016708D03*
X002609Y015708D03*
X002609Y014708D03*
X002609Y013708D03*
X016880Y015140D03*
X016880Y016140D03*
X017880Y016140D03*
X017880Y017140D03*
X017880Y018140D03*
X016880Y018140D03*
X016880Y017140D03*
X016880Y019140D03*
X017880Y019140D03*
D13*
X011040Y012225D02*
X011040Y011825D01*
X009040Y011825D02*
X009040Y012225D01*
D14*
X009225Y006500D03*
X009895Y006500D03*
X025285Y006220D03*
X025955Y006220D03*
X025665Y011720D03*
X026335Y011720D03*
X026375Y017640D03*
X025705Y017640D03*
X026015Y023100D03*
X025345Y023100D03*
X025245Y028640D03*
X025915Y028640D03*
X010395Y022720D03*
X009725Y022720D03*
X009395Y028640D03*
X010065Y028640D03*
D15*
X008325Y031335D03*
X006325Y031335D03*
X004340Y027960D03*
X004340Y026960D03*
X002580Y026960D03*
X002580Y027960D03*
X006370Y025695D03*
X008370Y025695D03*
X004480Y023460D03*
X004480Y022460D03*
X002680Y022460D03*
X002680Y023460D03*
X013120Y025660D03*
X016120Y025660D03*
X016105Y031320D03*
X013105Y031320D03*
X023125Y031190D03*
X026125Y031190D03*
X030305Y031130D03*
X032305Y031130D03*
X033220Y028520D03*
X033220Y027520D03*
X034980Y027520D03*
X034980Y028520D03*
X032160Y025470D03*
X030160Y025470D03*
X033300Y022520D03*
X033300Y021520D03*
X032095Y020255D03*
X030095Y020255D03*
X033220Y017000D03*
X033220Y016000D03*
X035060Y016000D03*
X035060Y017000D03*
X032355Y014270D03*
X030355Y014270D03*
X033300Y011240D03*
X033300Y010240D03*
X032635Y008945D03*
X030635Y008945D03*
X033300Y006120D03*
X033300Y005120D03*
X034980Y005120D03*
X034980Y006120D03*
X035060Y010240D03*
X035060Y011240D03*
X026320Y009060D03*
X023320Y009060D03*
X023080Y014340D03*
X026080Y014340D03*
X025920Y020260D03*
X022920Y020260D03*
X023015Y025555D03*
X026015Y025555D03*
X035060Y022520D03*
X035060Y021520D03*
X015280Y009460D03*
X012280Y009460D03*
X007130Y009315D03*
X005130Y009315D03*
X005170Y012365D03*
X007170Y012365D03*
X004340Y006360D03*
X004340Y005360D03*
X002420Y005360D03*
X002420Y006360D03*
D16*
X004040Y009300D03*
X009020Y009460D03*
X011020Y009460D03*
X015060Y012200D03*
X017700Y012120D03*
X027100Y014340D03*
X029100Y014340D03*
X030920Y016340D03*
X028940Y020260D03*
X026940Y020260D03*
X030760Y021940D03*
X029100Y025540D03*
X027100Y025540D03*
X030600Y027540D03*
X029180Y031220D03*
X027180Y031220D03*
X016040Y027700D03*
X011880Y025660D03*
X009880Y025660D03*
X009800Y031320D03*
X011800Y031320D03*
X008520Y019540D03*
X027340Y009060D03*
X029340Y009060D03*
X030920Y010740D03*
X030600Y005460D03*
D17*
X020740Y007380D03*
X020740Y008364D03*
X017620Y008420D03*
X017620Y007436D03*
X020740Y012900D03*
X020740Y013884D03*
X020820Y018660D03*
X020820Y019644D03*
X020740Y024180D03*
X020740Y025164D03*
X018100Y025140D03*
X018100Y024156D03*
X018180Y029436D03*
X018180Y030420D03*
X020740Y030444D03*
X020740Y029460D03*
D18*
X017880Y015140D03*
D19*
X017700Y011120D03*
X015060Y011200D03*
X007520Y019540D03*
X015040Y027700D03*
X029600Y027540D03*
X029760Y021940D03*
X029920Y016340D03*
X029920Y010740D03*
X029600Y005460D03*
X003040Y009300D03*
D20*
X002600Y009068D02*
X001420Y009068D01*
X001420Y008910D02*
X002730Y008910D01*
X002760Y008880D02*
X002942Y008805D01*
X003138Y008805D01*
X003320Y008880D01*
X003460Y009020D01*
X003491Y009095D01*
X003565Y009169D01*
X003565Y009103D01*
X003843Y008825D01*
X004040Y008825D01*
X004237Y008825D01*
X004515Y009103D01*
X004515Y009169D01*
X004543Y009141D01*
X004621Y009063D01*
X004724Y009020D01*
X004831Y009020D01*
X004956Y008895D01*
X005304Y008895D01*
X005550Y009141D01*
X005550Y009489D01*
X005304Y009735D01*
X004956Y009735D01*
X004849Y009627D01*
X004419Y010057D01*
X004316Y010100D01*
X003764Y010100D01*
X003661Y010057D01*
X003583Y009979D01*
X003322Y009718D01*
X003320Y009720D01*
X003138Y009795D01*
X002942Y009795D01*
X002760Y009720D01*
X002620Y009580D01*
X002545Y009398D01*
X002545Y009202D01*
X002620Y009020D01*
X002760Y008880D01*
X002545Y009227D02*
X001420Y009227D01*
X001420Y009385D02*
X002545Y009385D01*
X002605Y009544D02*
X001420Y009544D01*
X001420Y009702D02*
X002742Y009702D01*
X003465Y009861D02*
X001420Y009861D01*
X001420Y010019D02*
X003623Y010019D01*
X004040Y009300D02*
X004040Y009300D01*
X004040Y008825D01*
X004040Y009300D01*
X004040Y009227D02*
X004040Y009227D01*
X004040Y009068D02*
X004040Y009068D01*
X004040Y008910D02*
X004040Y008910D01*
X004321Y008910D02*
X004942Y008910D01*
X004616Y009068D02*
X004480Y009068D01*
X004774Y009702D02*
X004923Y009702D01*
X004615Y009861D02*
X006850Y009861D01*
X006850Y010019D02*
X004457Y010019D01*
X005337Y009702D02*
X006850Y009702D01*
X006850Y009629D02*
X006710Y009489D01*
X006710Y009141D01*
X006956Y008895D01*
X007304Y008895D01*
X007550Y009141D01*
X007550Y009489D01*
X007410Y009629D01*
X007410Y010214D01*
X007656Y010460D01*
X014252Y010460D01*
X012020Y008227D01*
X011980Y008132D01*
X011980Y008000D01*
X011903Y007923D01*
X011843Y007777D01*
X011843Y007143D01*
X011903Y006997D01*
X011906Y006994D01*
X011592Y006680D01*
X010271Y006680D01*
X010271Y006763D01*
X010209Y006825D01*
X010319Y006825D01*
X010465Y006886D01*
X010577Y006997D01*
X010637Y007143D01*
X010637Y007520D01*
X010843Y007315D01*
X010843Y007143D01*
X010903Y006997D01*
X011015Y006886D01*
X011161Y006825D01*
X011319Y006825D01*
X011465Y006886D01*
X011577Y006997D01*
X011637Y007143D01*
X011637Y007777D01*
X011577Y007923D01*
X011465Y008034D01*
X011319Y008095D01*
X011161Y008095D01*
X011015Y008034D01*
X010903Y007923D01*
X010900Y007915D01*
X010900Y008143D01*
X010783Y008260D01*
X009977Y008260D01*
X009796Y008079D01*
X009673Y008079D01*
X009548Y008027D01*
X009510Y007989D01*
X009465Y008034D01*
X009319Y008095D01*
X009161Y008095D01*
X009015Y008034D01*
X008903Y007923D01*
X008843Y007777D01*
X008843Y007143D01*
X008903Y006997D01*
X009015Y006886D01*
X009084Y006857D01*
X008988Y006857D01*
X008947Y006846D01*
X008911Y006825D01*
X008881Y006795D01*
X008860Y006759D01*
X008849Y006718D01*
X008849Y006518D01*
X009207Y006518D01*
X009207Y006482D01*
X008849Y006482D01*
X008849Y006282D01*
X008852Y006270D01*
X007009Y006270D01*
X006932Y006347D01*
X006807Y006399D01*
X006673Y006399D01*
X006575Y006359D01*
X006950Y006733D01*
X006950Y006773D01*
X007049Y006872D01*
X007161Y006825D01*
X007319Y006825D01*
X007465Y006886D01*
X007577Y006997D01*
X007637Y007143D01*
X007637Y007777D01*
X007577Y007923D01*
X007465Y008034D01*
X007319Y008095D01*
X007161Y008095D01*
X007015Y008034D01*
X006903Y007923D01*
X006843Y007777D01*
X006843Y007260D01*
X006653Y007070D01*
X006530Y006947D01*
X006530Y006907D01*
X006253Y006630D01*
X004636Y006630D01*
X004506Y006760D01*
X004174Y006760D01*
X004004Y006590D01*
X002756Y006590D01*
X002586Y006760D01*
X002254Y006760D01*
X002020Y006526D01*
X002020Y006194D01*
X002254Y005960D01*
X002586Y005960D01*
X002796Y006170D01*
X003964Y006170D01*
X004174Y005960D01*
X004506Y005960D01*
X004740Y006194D01*
X004740Y006203D01*
X004747Y006210D01*
X006427Y006210D01*
X006441Y006225D01*
X006401Y006127D01*
X006401Y005993D01*
X006453Y005868D01*
X006548Y005773D01*
X006673Y005721D01*
X006807Y005721D01*
X006932Y005773D01*
X007009Y005850D01*
X010387Y005850D01*
X010507Y005970D01*
X011907Y005970D01*
X012547Y006610D01*
X014467Y006610D01*
X014889Y007032D01*
X014903Y006997D01*
X015015Y006886D01*
X015161Y006825D01*
X015319Y006825D01*
X015465Y006886D01*
X015577Y006997D01*
X015637Y007143D01*
X015637Y007210D01*
X017076Y007210D01*
X017076Y006986D01*
X017170Y006892D01*
X018070Y006892D01*
X018164Y006986D01*
X018164Y007886D01*
X018122Y007928D01*
X018164Y007970D01*
X018164Y008870D01*
X018070Y008964D01*
X017170Y008964D01*
X017076Y008870D01*
X017076Y008630D01*
X013529Y008630D01*
X013452Y008707D01*
X013327Y008759D01*
X013286Y008759D01*
X014528Y010000D01*
X017192Y010000D01*
X017287Y010040D01*
X017360Y010113D01*
X017740Y010492D01*
X018513Y009720D01*
X018608Y009680D01*
X028072Y009680D01*
X028240Y009512D01*
X028240Y008608D01*
X028280Y008513D01*
X028353Y008440D01*
X028898Y007894D01*
X028883Y007857D01*
X028883Y007223D01*
X028943Y007077D01*
X029040Y006980D01*
X029040Y006200D01*
X028947Y006200D01*
X028964Y006217D01*
X029018Y006349D01*
X029018Y006491D01*
X028964Y006623D01*
X028863Y006724D01*
X028731Y006778D01*
X028589Y006778D01*
X028523Y006751D01*
X028307Y006895D01*
X028298Y006905D01*
X028359Y006905D01*
X028505Y006966D01*
X028617Y007077D01*
X028677Y007223D01*
X028677Y007857D01*
X028617Y008003D01*
X028505Y008114D01*
X028359Y008175D01*
X028201Y008175D01*
X028055Y008114D01*
X027943Y008003D01*
X027883Y007857D01*
X027883Y007320D01*
X027677Y007525D01*
X027677Y007857D01*
X027617Y008003D01*
X027505Y008114D01*
X027359Y008175D01*
X027201Y008175D01*
X027055Y008114D01*
X026943Y008003D01*
X026883Y007857D01*
X026883Y007223D01*
X026943Y007077D01*
X027055Y006966D01*
X027201Y006905D01*
X027359Y006905D01*
X027505Y006966D01*
X027588Y007049D01*
X027996Y006641D01*
X028000Y006620D01*
X028053Y006585D01*
X028097Y006540D01*
X028119Y006540D01*
X028302Y006419D01*
X028302Y006349D01*
X028356Y006217D01*
X028373Y006200D01*
X026528Y006200D01*
X026331Y006397D01*
X026331Y006483D01*
X026237Y006577D01*
X025672Y006577D01*
X025620Y006525D01*
X025600Y006545D01*
X025564Y006566D01*
X025523Y006577D01*
X025304Y006577D01*
X025304Y006238D01*
X025267Y006238D01*
X025267Y006202D01*
X024909Y006202D01*
X024909Y006002D01*
X024912Y005990D01*
X023947Y005990D01*
X021577Y008360D01*
X022067Y008850D01*
X022964Y008850D01*
X023154Y008660D01*
X023486Y008660D01*
X023720Y008894D01*
X023720Y009226D01*
X023486Y009460D01*
X023154Y009460D01*
X022964Y009270D01*
X021893Y009270D01*
X021284Y008661D01*
X021284Y008814D01*
X021190Y008908D01*
X020290Y008908D01*
X020196Y008814D01*
X020196Y007914D01*
X020238Y007872D01*
X020196Y007830D01*
X020196Y006930D01*
X020290Y006836D01*
X021190Y006836D01*
X021284Y006930D01*
X021284Y007830D01*
X021242Y007872D01*
X021284Y007914D01*
X021284Y008059D01*
X023773Y005570D01*
X026133Y005570D01*
X026213Y005490D01*
X028613Y005490D01*
X029413Y004690D01*
X031827Y004690D01*
X031950Y004813D01*
X031950Y007070D01*
X032055Y006966D01*
X032201Y006905D01*
X032359Y006905D01*
X032505Y006966D01*
X032617Y007077D01*
X032677Y007223D01*
X032677Y007857D01*
X032617Y008003D01*
X032505Y008114D01*
X032359Y008175D01*
X032201Y008175D01*
X032055Y008114D01*
X031943Y008003D01*
X031883Y007857D01*
X031883Y007700D01*
X031677Y007494D01*
X031677Y007857D01*
X031617Y008003D01*
X031505Y008114D01*
X031359Y008175D01*
X031201Y008175D01*
X031055Y008114D01*
X030943Y008003D01*
X030883Y007857D01*
X030883Y007223D01*
X030943Y007077D01*
X031055Y006966D01*
X031201Y006905D01*
X031359Y006905D01*
X031505Y006966D01*
X031530Y006990D01*
X031530Y005110D01*
X030922Y005110D01*
X031075Y005263D01*
X031075Y005460D01*
X031075Y005657D01*
X030797Y005935D01*
X030600Y005935D01*
X030600Y005460D01*
X030600Y005460D01*
X031075Y005460D01*
X030600Y005460D01*
X030600Y005460D01*
X030600Y005460D01*
X030125Y005460D01*
X030125Y005657D01*
X030403Y005935D01*
X030600Y005935D01*
X030600Y005460D01*
X030125Y005460D01*
X030125Y005263D01*
X030278Y005110D01*
X029950Y005110D01*
X030020Y005180D01*
X030095Y005362D01*
X030095Y005558D01*
X030020Y005740D01*
X030208Y005740D01*
X030125Y005581D02*
X030086Y005581D01*
X030095Y005423D02*
X030125Y005423D01*
X030125Y005264D02*
X030055Y005264D01*
X030020Y005740D02*
X029880Y005880D01*
X029698Y005955D01*
X029560Y005955D01*
X029560Y007020D01*
X029617Y007077D01*
X029677Y007223D01*
X029677Y007857D01*
X029617Y008003D01*
X029505Y008114D01*
X029359Y008175D01*
X029353Y008175D01*
X028760Y008768D01*
X028760Y009672D01*
X028720Y009767D01*
X028548Y009940D01*
X029420Y010813D01*
X029425Y010824D01*
X029425Y010642D01*
X029500Y010460D01*
X029640Y010320D01*
X029822Y010245D01*
X030018Y010245D01*
X030200Y010320D01*
X030340Y010460D01*
X030415Y010642D01*
X030415Y010838D01*
X030340Y011020D01*
X030200Y011160D01*
X030018Y011235D01*
X029822Y011235D01*
X029640Y011160D01*
X029500Y011020D01*
X029460Y010923D01*
X029460Y012280D01*
X029537Y012357D01*
X029597Y012503D01*
X029597Y013137D01*
X029537Y013283D01*
X029425Y013394D01*
X029405Y013403D01*
X028943Y013865D01*
X029297Y013865D01*
X029575Y014143D01*
X029575Y014537D01*
X029297Y014815D01*
X028903Y014815D01*
X028625Y014537D01*
X028625Y014183D01*
X028600Y014208D01*
X028600Y017032D01*
X029287Y017720D01*
X029360Y017793D01*
X029400Y017888D01*
X029400Y018140D01*
X029457Y018197D01*
X029517Y018343D01*
X029517Y018977D01*
X029457Y019123D01*
X029345Y019234D01*
X029199Y019295D01*
X029113Y019295D01*
X028600Y019808D01*
X028600Y019928D01*
X028743Y019785D01*
X029137Y019785D01*
X029387Y020036D01*
X030108Y019315D01*
X030037Y019315D01*
X029884Y019251D01*
X029766Y019134D01*
X029703Y018981D01*
X029703Y018339D01*
X029766Y018186D01*
X029884Y018069D01*
X030037Y018005D01*
X030203Y018005D01*
X030356Y018069D01*
X030450Y018162D01*
X030450Y016933D01*
X030573Y016810D01*
X030718Y016810D01*
X030445Y016537D01*
X030445Y016340D01*
X030920Y016340D01*
X031395Y016340D01*
X031395Y016537D01*
X031122Y016810D01*
X032844Y016810D01*
X033054Y016600D01*
X033386Y016600D01*
X033596Y016810D01*
X034684Y016810D01*
X034894Y016600D01*
X035226Y016600D01*
X035460Y016834D01*
X035460Y017166D01*
X035226Y017400D01*
X034894Y017400D01*
X034724Y017230D01*
X033556Y017230D01*
X033386Y017400D01*
X033054Y017400D01*
X032884Y017230D01*
X030870Y017230D01*
X030870Y018110D01*
X030895Y018086D01*
X031041Y018025D01*
X031199Y018025D01*
X031345Y018086D01*
X031457Y018197D01*
X031517Y018343D01*
X031517Y018977D01*
X031457Y019123D01*
X031345Y019234D01*
X031199Y019295D01*
X031041Y019295D01*
X030895Y019234D01*
X030839Y019178D01*
X030747Y019270D01*
X030182Y019835D01*
X030269Y019835D01*
X030515Y020081D01*
X030515Y020429D01*
X030269Y020675D01*
X029921Y020675D01*
X029675Y020429D01*
X029675Y020342D01*
X029547Y020470D01*
X029402Y020470D01*
X029137Y020735D01*
X028743Y020735D01*
X028600Y020592D01*
X028600Y022792D01*
X028967Y023160D01*
X029040Y023233D01*
X029080Y023328D01*
X029080Y023402D01*
X029185Y023446D01*
X029297Y023557D01*
X029357Y023703D01*
X029357Y024337D01*
X029297Y024483D01*
X029220Y024560D01*
X029220Y024572D01*
X029180Y024667D01*
X029107Y024740D01*
X028600Y025248D01*
X028600Y028392D01*
X028967Y028760D01*
X029040Y028833D01*
X029080Y028928D01*
X029080Y029100D01*
X029137Y029157D01*
X029197Y029303D01*
X029197Y029937D01*
X029137Y030083D01*
X029025Y030194D01*
X028879Y030255D01*
X028721Y030255D01*
X028575Y030194D01*
X028463Y030083D01*
X028403Y029937D01*
X028403Y029303D01*
X028463Y029157D01*
X028546Y029074D01*
X028337Y028865D01*
X028252Y028900D01*
X026291Y028900D01*
X026291Y028903D01*
X026197Y028997D01*
X025908Y028997D01*
X026025Y029046D01*
X026137Y029157D01*
X026197Y029303D01*
X026197Y029937D01*
X026137Y030083D01*
X026025Y030194D01*
X025879Y030255D01*
X025721Y030255D01*
X025575Y030194D01*
X025463Y030083D01*
X025403Y029937D01*
X025403Y029303D01*
X025463Y029157D01*
X025575Y029046D01*
X025692Y028997D01*
X025632Y028997D01*
X025580Y028945D01*
X025560Y028965D01*
X025524Y028986D01*
X025483Y028997D01*
X025264Y028997D01*
X025264Y028658D01*
X025227Y028658D01*
X025227Y028622D01*
X024869Y028622D01*
X024869Y028422D01*
X024880Y028381D01*
X024901Y028345D01*
X024931Y028315D01*
X024967Y028294D01*
X025008Y028283D01*
X025227Y028283D01*
X025227Y028622D01*
X025264Y028622D01*
X025264Y028283D01*
X025483Y028283D01*
X025524Y028294D01*
X025560Y028315D01*
X025580Y028335D01*
X025632Y028283D01*
X026197Y028283D01*
X026291Y028377D01*
X026291Y028380D01*
X028080Y028380D01*
X028080Y026520D01*
X014200Y026520D01*
X014200Y027592D01*
X014160Y027687D01*
X014087Y027760D01*
X013140Y028708D01*
X013140Y029080D01*
X013217Y029157D01*
X013277Y029303D01*
X013277Y029937D01*
X013217Y030083D01*
X013105Y030194D01*
X012959Y030255D01*
X012801Y030255D01*
X012655Y030194D01*
X012543Y030083D01*
X012483Y029937D01*
X012483Y029303D01*
X012543Y029157D01*
X012620Y029080D01*
X012620Y028860D01*
X010441Y028860D01*
X010441Y028903D01*
X010347Y028997D01*
X009988Y028997D01*
X010105Y029046D01*
X010217Y029157D01*
X010277Y029303D01*
X010277Y029937D01*
X010217Y030083D01*
X010105Y030194D01*
X009959Y030255D01*
X009801Y030255D01*
X009655Y030194D01*
X009543Y030083D01*
X009483Y029937D01*
X009483Y029303D01*
X009543Y029157D01*
X009655Y029046D01*
X009779Y028994D01*
X009730Y028945D01*
X009710Y028965D01*
X009674Y028986D01*
X009633Y028997D01*
X009414Y028997D01*
X009414Y028658D01*
X009377Y028658D01*
X009377Y028622D01*
X009019Y028622D01*
X009019Y028422D01*
X009030Y028381D01*
X009051Y028345D01*
X009081Y028315D01*
X009117Y028294D01*
X009158Y028283D01*
X009377Y028283D01*
X009377Y028622D01*
X009414Y028622D01*
X009414Y028283D01*
X009633Y028283D01*
X009674Y028294D01*
X009710Y028315D01*
X009730Y028335D01*
X009782Y028283D01*
X010347Y028283D01*
X010404Y028340D01*
X012772Y028340D01*
X013680Y027432D01*
X013680Y026552D01*
X013567Y026599D01*
X013433Y026599D01*
X013308Y026547D01*
X013271Y026510D01*
X010533Y026510D01*
X010117Y026094D01*
X010077Y026135D01*
X009683Y026135D01*
X009405Y025857D01*
X009405Y025463D01*
X009683Y025185D01*
X010077Y025185D01*
X010355Y025463D01*
X010355Y025738D01*
X010707Y026090D01*
X011638Y026090D01*
X011405Y025857D01*
X011405Y025463D01*
X011683Y025185D01*
X012077Y025185D01*
X012355Y025463D01*
X012355Y025468D01*
X012373Y025450D01*
X012764Y025450D01*
X012954Y025260D01*
X013286Y025260D01*
X013520Y025494D01*
X013520Y025826D01*
X013419Y025927D01*
X013433Y025921D01*
X013567Y025921D01*
X013680Y025968D01*
X013680Y025088D01*
X013672Y025080D01*
X012928Y025080D01*
X012833Y025040D01*
X012673Y024880D01*
X012600Y024807D01*
X012560Y024712D01*
X012560Y024373D01*
X012515Y024354D01*
X012403Y024243D01*
X012343Y024097D01*
X012343Y023463D01*
X012403Y023317D01*
X012476Y023244D01*
X012232Y023000D01*
X010754Y023000D01*
X010677Y023077D01*
X010112Y023077D01*
X010060Y023025D01*
X010040Y023045D01*
X010004Y023066D01*
X009963Y023077D01*
X009744Y023077D01*
X009744Y022738D01*
X009707Y022738D01*
X009707Y022702D01*
X009349Y022702D01*
X009349Y022502D01*
X009360Y022461D01*
X009381Y022425D01*
X009411Y022395D01*
X009447Y022374D01*
X009488Y022363D01*
X009707Y022363D01*
X009707Y022702D01*
X009744Y022702D01*
X009744Y022363D01*
X009963Y022363D01*
X010004Y022374D01*
X010040Y022395D01*
X010060Y022415D01*
X010112Y022363D01*
X010130Y022363D01*
X010130Y022347D01*
X009773Y021990D01*
X009693Y021990D01*
X009570Y021867D01*
X009219Y021516D01*
X009215Y021518D01*
X009065Y021518D01*
X008926Y021461D01*
X008819Y021354D01*
X008762Y021215D01*
X008762Y021065D01*
X008819Y020926D01*
X008926Y020819D01*
X009065Y020762D01*
X009215Y020762D01*
X009354Y020819D01*
X009461Y020926D01*
X009518Y021065D01*
X009518Y021215D01*
X009516Y021219D01*
X009867Y021570D01*
X009947Y021570D01*
X010070Y021693D01*
X010070Y021693D01*
X010550Y022173D01*
X010550Y022363D01*
X010677Y022363D01*
X010771Y022457D01*
X010771Y022480D01*
X012392Y022480D01*
X012487Y022520D01*
X012560Y022593D01*
X012960Y022993D01*
X013000Y023088D01*
X013000Y023240D01*
X013077Y023317D01*
X013137Y023463D01*
X013137Y024097D01*
X013080Y024235D01*
X013080Y024552D01*
X013088Y024560D01*
X013832Y024560D01*
X013927Y024600D01*
X014000Y024673D01*
X014160Y024833D01*
X014200Y024928D01*
X014200Y026000D01*
X015894Y026000D01*
X015720Y025826D01*
X015720Y025494D01*
X015954Y025260D01*
X016286Y025260D01*
X016520Y025494D01*
X016520Y025826D01*
X016346Y026000D01*
X023583Y026000D01*
X023359Y025776D01*
X023181Y025955D01*
X022849Y025955D01*
X022644Y025750D01*
X022613Y025750D01*
X022333Y025470D01*
X021284Y025470D01*
X021284Y025614D01*
X021190Y025708D01*
X020290Y025708D01*
X020196Y025614D01*
X020196Y024714D01*
X020238Y024672D01*
X020196Y024630D01*
X020196Y023730D01*
X020290Y023636D01*
X021190Y023636D01*
X021284Y023730D01*
X021284Y024630D01*
X021242Y024672D01*
X021284Y024714D01*
X021284Y025050D01*
X022507Y025050D01*
X022630Y025173D01*
X022731Y025274D01*
X022849Y025155D01*
X023181Y025155D01*
X023356Y025330D01*
X023507Y025330D01*
X023630Y025453D01*
X023987Y025810D01*
X025704Y025810D01*
X025615Y025721D01*
X025615Y025389D01*
X025849Y025155D01*
X026181Y025155D01*
X026316Y025290D01*
X026678Y025290D01*
X026903Y025065D01*
X027297Y025065D01*
X027575Y025343D01*
X027575Y025690D01*
X027711Y025690D01*
X027788Y025613D01*
X027913Y025561D01*
X028047Y025561D01*
X028080Y025575D01*
X028080Y025088D01*
X028120Y024993D01*
X028193Y024920D01*
X028626Y024486D01*
X028623Y024483D01*
X028563Y024337D01*
X028563Y023938D01*
X028560Y023932D01*
X028560Y023488D01*
X028340Y023268D01*
X028287Y023320D01*
X028192Y023360D01*
X026391Y023360D01*
X026391Y023363D01*
X026297Y023457D01*
X026196Y023457D01*
X026297Y023557D01*
X026357Y023703D01*
X026357Y024337D01*
X026297Y024483D01*
X026185Y024594D01*
X026039Y024655D01*
X025881Y024655D01*
X025735Y024594D01*
X025623Y024483D01*
X025563Y024337D01*
X025563Y023703D01*
X025623Y023557D01*
X025728Y023453D01*
X025680Y023405D01*
X025660Y023425D01*
X025624Y023446D01*
X025583Y023457D01*
X025364Y023457D01*
X025364Y023118D01*
X025327Y023118D01*
X025327Y023082D01*
X024969Y023082D01*
X024969Y022882D01*
X024980Y022841D01*
X025001Y022805D01*
X025031Y022775D01*
X025067Y022754D01*
X025108Y022743D01*
X025327Y022743D01*
X025327Y023082D01*
X025364Y023082D01*
X025364Y022743D01*
X025583Y022743D01*
X025624Y022754D01*
X025660Y022775D01*
X025680Y022795D01*
X025732Y022743D01*
X026297Y022743D01*
X026391Y022837D01*
X026391Y022840D01*
X028032Y022840D01*
X028080Y022792D01*
X028080Y021465D01*
X028047Y021479D01*
X027913Y021479D01*
X027788Y021427D01*
X027693Y021332D01*
X027641Y021207D01*
X027641Y021098D01*
X027573Y021030D01*
X023933Y021030D01*
X023373Y020470D01*
X023276Y020470D01*
X023086Y020660D01*
X022754Y020660D01*
X022520Y020426D01*
X022520Y020417D01*
X022173Y020070D01*
X021364Y020070D01*
X021364Y020094D01*
X021270Y020188D01*
X020370Y020188D01*
X020276Y020094D01*
X020276Y019194D01*
X020318Y019152D01*
X020276Y019110D01*
X020276Y018341D01*
X020267Y018350D01*
X018321Y018350D01*
X018071Y018600D01*
X017689Y018600D01*
X017420Y018331D01*
X017420Y017949D01*
X017689Y017680D01*
X018071Y017680D01*
X018321Y017930D01*
X020093Y017930D01*
X020213Y017810D01*
X025329Y017810D01*
X025329Y017658D01*
X025687Y017658D01*
X025687Y017622D01*
X025329Y017622D01*
X025329Y017422D01*
X025340Y017381D01*
X025361Y017345D01*
X025391Y017315D01*
X025427Y017294D01*
X025468Y017283D01*
X025687Y017283D01*
X025687Y017622D01*
X025724Y017622D01*
X025724Y017283D01*
X025943Y017283D01*
X025984Y017294D01*
X026020Y017315D01*
X026040Y017335D01*
X026092Y017283D01*
X026657Y017283D01*
X026751Y017377D01*
X026751Y017380D01*
X027572Y017380D01*
X028080Y016872D01*
X028080Y014048D01*
X028104Y013990D01*
X027422Y013990D01*
X027575Y014143D01*
X027575Y014537D01*
X027297Y014815D01*
X026903Y014815D01*
X026638Y014550D01*
X026436Y014550D01*
X026246Y014740D01*
X025914Y014740D01*
X025680Y014506D01*
X025680Y014174D01*
X025864Y013990D01*
X024267Y013990D01*
X023830Y014427D01*
X023707Y014550D01*
X023436Y014550D01*
X023246Y014740D01*
X022914Y014740D01*
X022680Y014506D01*
X022680Y014497D01*
X022413Y014230D01*
X021284Y014230D01*
X021284Y014334D01*
X021190Y014428D01*
X020290Y014428D01*
X020196Y014334D01*
X020196Y013434D01*
X020238Y013392D01*
X020196Y013350D01*
X020196Y012450D01*
X020290Y012356D01*
X021190Y012356D01*
X021284Y012450D01*
X021284Y013350D01*
X021242Y013392D01*
X021284Y013434D01*
X021284Y013810D01*
X022587Y013810D01*
X022710Y013933D01*
X022816Y014039D01*
X022914Y013940D01*
X023246Y013940D01*
X023436Y014130D01*
X023533Y014130D01*
X024093Y013570D01*
X028213Y013570D01*
X028363Y013420D01*
X028279Y013455D01*
X028121Y013455D01*
X027975Y013394D01*
X027863Y013283D01*
X027803Y013137D01*
X027803Y012503D01*
X027805Y012498D01*
X027597Y012705D01*
X027597Y013137D01*
X027537Y013283D01*
X027425Y013394D01*
X027279Y013455D01*
X027121Y013455D01*
X026975Y013394D01*
X026863Y013283D01*
X026803Y013137D01*
X026803Y012503D01*
X026863Y012357D01*
X026975Y012246D01*
X027121Y012185D01*
X027279Y012185D01*
X027425Y012246D01*
X027458Y012279D01*
X027757Y011980D01*
X026711Y011980D01*
X026711Y011983D01*
X026617Y012077D01*
X026052Y012077D01*
X026000Y012025D01*
X025980Y012045D01*
X025944Y012066D01*
X025903Y012077D01*
X025684Y012077D01*
X025684Y011738D01*
X025647Y011738D01*
X025647Y011702D01*
X025289Y011702D01*
X025289Y011502D01*
X025300Y011461D01*
X025321Y011425D01*
X025351Y011395D01*
X025387Y011374D01*
X025428Y011363D01*
X025647Y011363D01*
X025647Y011702D01*
X025684Y011702D01*
X025684Y011363D01*
X025903Y011363D01*
X025944Y011374D01*
X025980Y011395D01*
X026000Y011415D01*
X026052Y011363D01*
X026617Y011363D01*
X026711Y011457D01*
X026711Y011460D01*
X028940Y011460D01*
X028940Y011068D01*
X028072Y010200D01*
X018768Y010200D01*
X018107Y010861D01*
X018175Y011026D01*
X018175Y011214D01*
X018103Y011389D01*
X017969Y011523D01*
X017794Y011595D01*
X017606Y011595D01*
X017431Y011523D01*
X017297Y011389D01*
X017225Y011214D01*
X017225Y011026D01*
X017297Y010851D01*
X017330Y010818D01*
X017032Y010520D01*
X014776Y010520D01*
X014961Y010705D01*
X014962Y010705D01*
X015158Y010705D01*
X015340Y010780D01*
X015480Y010920D01*
X015555Y011102D01*
X015555Y011298D01*
X015480Y011480D01*
X015340Y011620D01*
X015158Y011695D01*
X014962Y011695D01*
X014780Y011620D01*
X014640Y011480D01*
X014565Y011298D01*
X014565Y011102D01*
X014565Y011101D01*
X014484Y011020D01*
X008296Y011020D01*
X007980Y011336D01*
X007980Y012716D01*
X007937Y012819D01*
X006060Y014696D01*
X006060Y016303D01*
X006113Y016281D01*
X006247Y016281D01*
X006372Y016333D01*
X006459Y016420D01*
X009181Y016420D01*
X009268Y016333D01*
X009393Y016281D01*
X009527Y016281D01*
X009652Y016333D01*
X009747Y016428D01*
X009799Y016553D01*
X009799Y016687D01*
X009755Y016794D01*
X009833Y016761D01*
X009967Y016761D01*
X010092Y016813D01*
X010179Y016900D01*
X014541Y016900D01*
X014533Y016892D01*
X014481Y016767D01*
X014481Y016633D01*
X014533Y016508D01*
X014628Y016413D01*
X014753Y016361D01*
X014887Y016361D01*
X015012Y016413D01*
X015099Y016500D01*
X016589Y016500D01*
X016420Y016331D01*
X016420Y015949D01*
X016689Y015680D01*
X017071Y015680D01*
X017340Y015949D01*
X017340Y016331D01*
X017171Y016500D01*
X017177Y016500D01*
X017420Y016257D01*
X017420Y015949D01*
X017689Y015680D01*
X018071Y015680D01*
X018340Y015949D01*
X018340Y016331D01*
X018071Y016600D01*
X017689Y016600D01*
X017666Y016577D01*
X017343Y016900D01*
X017291Y016900D01*
X017340Y016949D01*
X017340Y017331D01*
X017071Y017600D01*
X016689Y017600D01*
X016420Y017331D01*
X016420Y017303D01*
X016417Y017300D01*
X010179Y017300D01*
X010092Y017387D01*
X009967Y017439D01*
X009833Y017439D01*
X009708Y017387D01*
X009613Y017292D01*
X009561Y017167D01*
X009561Y017033D01*
X009605Y016926D01*
X009527Y016959D01*
X009393Y016959D01*
X009268Y016907D01*
X009181Y016820D01*
X006459Y016820D01*
X006372Y016907D01*
X006247Y016959D01*
X006113Y016959D01*
X006060Y016937D01*
X006060Y025032D01*
X006134Y025063D01*
X006346Y025275D01*
X006544Y025275D01*
X006790Y025521D01*
X006790Y025869D01*
X006650Y026009D01*
X006650Y029058D01*
X006692Y029030D01*
X006764Y029000D01*
X006841Y028985D01*
X006880Y028985D01*
X006919Y028985D01*
X006996Y029000D01*
X007068Y029030D01*
X007133Y029074D01*
X007189Y029129D01*
X007232Y029194D01*
X007262Y029267D01*
X007277Y029343D01*
X007277Y029620D01*
X007277Y029897D01*
X007262Y029973D01*
X007232Y030046D01*
X007189Y030111D01*
X007133Y030166D01*
X007068Y030210D01*
X006996Y030240D01*
X006919Y030255D01*
X006880Y030255D01*
X006841Y030255D01*
X006764Y030240D01*
X006692Y030210D01*
X006650Y030182D01*
X006650Y031066D01*
X006745Y031161D01*
X006745Y031509D01*
X006499Y031755D01*
X006151Y031755D01*
X005905Y031509D01*
X005905Y031161D01*
X006090Y030976D01*
X006090Y027701D01*
X006047Y027719D01*
X005913Y027719D01*
X005788Y027667D01*
X005693Y027572D01*
X005641Y027447D01*
X005641Y027324D01*
X005497Y027180D01*
X004686Y027180D01*
X004506Y027360D01*
X004174Y027360D01*
X003994Y027180D01*
X002926Y027180D01*
X002746Y027360D01*
X002414Y027360D01*
X002180Y027126D01*
X002180Y026794D01*
X002414Y026560D01*
X002746Y026560D01*
X002966Y026780D01*
X003954Y026780D01*
X004174Y026560D01*
X004506Y026560D01*
X004726Y026780D01*
X005663Y026780D01*
X005780Y026897D01*
X005924Y027041D01*
X006047Y027041D01*
X006090Y027059D01*
X006090Y026009D01*
X005950Y025869D01*
X005950Y025671D01*
X005859Y025580D01*
X005724Y025580D01*
X005621Y025537D01*
X005543Y025459D01*
X005500Y025356D01*
X005500Y020988D01*
X004007Y020988D01*
X003807Y021188D01*
X003410Y021188D01*
X003202Y020980D01*
X003015Y020980D01*
X002807Y021188D01*
X002410Y021188D01*
X002129Y020907D01*
X002129Y020509D01*
X002410Y020228D01*
X002807Y020228D01*
X002999Y020420D01*
X003218Y020420D01*
X003410Y020228D01*
X003807Y020228D01*
X004007Y020428D01*
X005500Y020428D01*
X005500Y016417D01*
X005447Y016439D01*
X005313Y016439D01*
X005188Y016387D01*
X005101Y016300D01*
X003903Y016300D01*
X003877Y016326D01*
X004069Y016517D01*
X004069Y016899D01*
X003799Y017168D01*
X003418Y017168D01*
X003149Y016899D01*
X003149Y016517D01*
X003332Y016334D01*
X002982Y015985D01*
X002799Y016168D01*
X002418Y016168D01*
X002149Y015899D01*
X002149Y015517D01*
X002418Y015248D01*
X002799Y015248D01*
X003051Y015500D01*
X003063Y015500D01*
X003149Y015586D01*
X003149Y015517D01*
X003332Y015334D01*
X002982Y014985D01*
X002799Y015168D01*
X002418Y015168D01*
X002149Y014899D01*
X002149Y014517D01*
X002418Y014248D01*
X002799Y014248D01*
X003051Y014500D01*
X003063Y014500D01*
X003149Y014586D01*
X003149Y014517D01*
X003418Y014248D01*
X003799Y014248D01*
X004051Y014500D01*
X005101Y014500D01*
X005188Y014413D01*
X005313Y014361D01*
X005447Y014361D01*
X005557Y014407D01*
X005621Y014343D01*
X006392Y013572D01*
X006327Y013599D01*
X006193Y013599D01*
X006068Y013547D01*
X005981Y013460D01*
X005299Y013460D01*
X005347Y013508D01*
X005399Y013633D01*
X005399Y013767D01*
X005347Y013892D01*
X005252Y013987D01*
X005127Y014039D01*
X004993Y014039D01*
X004868Y013987D01*
X004781Y013900D01*
X004067Y013900D01*
X003799Y014168D01*
X003418Y014168D01*
X003149Y013899D01*
X003149Y013854D01*
X003103Y013900D01*
X003067Y013900D01*
X002799Y014168D01*
X002418Y014168D01*
X002149Y013899D01*
X002149Y013517D01*
X002418Y013248D01*
X002799Y013248D01*
X002994Y013443D01*
X003260Y013177D01*
X003377Y013060D01*
X005981Y013060D01*
X006068Y012973D01*
X006193Y012921D01*
X006327Y012921D01*
X006452Y012973D01*
X006547Y013068D01*
X006599Y013193D01*
X006599Y013327D01*
X006572Y013392D01*
X007199Y012765D01*
X007004Y012765D01*
X006770Y012531D01*
X006770Y012199D01*
X007004Y011965D01*
X007336Y011965D01*
X007420Y012049D01*
X007420Y011164D01*
X007463Y011061D01*
X007504Y011020D01*
X007484Y011020D01*
X007381Y010977D01*
X007303Y010899D01*
X006893Y010489D01*
X006850Y010386D01*
X006850Y009629D01*
X006765Y009544D02*
X005495Y009544D01*
X005550Y009385D02*
X006710Y009385D01*
X006710Y009227D02*
X005550Y009227D01*
X005477Y009068D02*
X006783Y009068D01*
X006942Y008910D02*
X005318Y008910D01*
X005987Y008006D02*
X005931Y007951D01*
X005888Y007886D01*
X005858Y007813D01*
X005843Y007737D01*
X005843Y007460D01*
X005843Y007183D01*
X005858Y007107D01*
X005888Y007034D01*
X005931Y006969D01*
X005987Y006914D01*
X006052Y006870D01*
X006124Y006840D01*
X006201Y006825D01*
X006240Y006825D01*
X006279Y006825D01*
X006356Y006840D01*
X006428Y006870D01*
X006493Y006914D01*
X006549Y006969D01*
X006592Y007034D01*
X006622Y007107D01*
X006637Y007183D01*
X006637Y007460D01*
X006637Y007737D01*
X006622Y007813D01*
X006592Y007886D01*
X006549Y007951D01*
X006493Y008006D01*
X006428Y008050D01*
X006356Y008080D01*
X006279Y008095D01*
X006240Y008095D01*
X006201Y008095D01*
X006124Y008080D01*
X006052Y008050D01*
X005987Y008006D01*
X005939Y007959D02*
X001420Y007959D01*
X001420Y008117D02*
X009834Y008117D01*
X009843Y007416D02*
X009843Y007143D01*
X009903Y006997D01*
X010015Y006886D01*
X010084Y006857D01*
X009612Y006857D01*
X009560Y006805D01*
X009540Y006825D01*
X009504Y006846D01*
X009463Y006857D01*
X009396Y006857D01*
X009465Y006886D01*
X009577Y006997D01*
X009637Y007143D01*
X009637Y007416D01*
X009673Y007401D01*
X009807Y007401D01*
X009843Y007416D01*
X009843Y007325D02*
X009637Y007325D01*
X009637Y007166D02*
X009843Y007166D01*
X009899Y007008D02*
X009581Y007008D01*
X009604Y006849D02*
X009492Y006849D01*
X009518Y006518D02*
X009518Y006482D01*
X009244Y006482D01*
X009244Y006518D01*
X009518Y006518D01*
X008958Y006849D02*
X008377Y006849D01*
X008319Y006825D02*
X008465Y006886D01*
X008577Y006997D01*
X008637Y007143D01*
X008637Y007777D01*
X008577Y007923D01*
X008465Y008034D01*
X008319Y008095D01*
X008161Y008095D01*
X008015Y008034D01*
X007903Y007923D01*
X007843Y007777D01*
X007843Y007143D01*
X007903Y006997D01*
X008015Y006886D01*
X008161Y006825D01*
X008319Y006825D01*
X008103Y006849D02*
X007377Y006849D01*
X007581Y007008D02*
X007899Y007008D01*
X007843Y007166D02*
X007637Y007166D01*
X007637Y007325D02*
X007843Y007325D01*
X007843Y007483D02*
X007637Y007483D01*
X007637Y007642D02*
X007843Y007642D01*
X007852Y007800D02*
X007628Y007800D01*
X007541Y007959D02*
X007939Y007959D01*
X008541Y007959D02*
X008939Y007959D01*
X008852Y007800D02*
X008628Y007800D01*
X008637Y007642D02*
X008843Y007642D01*
X008843Y007483D02*
X008637Y007483D01*
X008637Y007325D02*
X008843Y007325D01*
X008843Y007166D02*
X008637Y007166D01*
X008581Y007008D02*
X008899Y007008D01*
X008849Y006691D02*
X006907Y006691D01*
X007026Y006849D02*
X007103Y006849D01*
X006749Y007166D02*
X006634Y007166D01*
X006637Y007325D02*
X006843Y007325D01*
X006843Y007483D02*
X006637Y007483D01*
X006637Y007460D02*
X006240Y007460D01*
X006240Y007460D01*
X006240Y007460D01*
X006240Y008095D01*
X006240Y007460D01*
X006637Y007460D01*
X006637Y007642D02*
X006843Y007642D01*
X006852Y007800D02*
X006625Y007800D01*
X006541Y007959D02*
X006939Y007959D01*
X006240Y007959D02*
X006240Y007959D01*
X006240Y007800D02*
X006240Y007800D01*
X006240Y007642D02*
X006240Y007642D01*
X006240Y007483D02*
X006240Y007483D01*
X006240Y007460D02*
X006240Y007460D01*
X006240Y006825D01*
X006240Y007460D01*
X006240Y007460D01*
X005843Y007460D01*
X006240Y007460D01*
X006240Y007325D02*
X006240Y007325D01*
X006240Y007166D02*
X006240Y007166D01*
X006240Y007008D02*
X006240Y007008D01*
X006240Y006849D02*
X006240Y006849D01*
X006377Y006849D02*
X006472Y006849D01*
X006574Y007008D02*
X006591Y007008D01*
X006314Y006691D02*
X004575Y006691D01*
X004105Y006691D02*
X002655Y006691D01*
X002185Y006691D02*
X001420Y006691D01*
X001420Y006849D02*
X006103Y006849D01*
X005906Y007008D02*
X001420Y007008D01*
X001420Y007166D02*
X005846Y007166D01*
X005843Y007325D02*
X001420Y007325D01*
X001420Y007483D02*
X005843Y007483D01*
X005843Y007642D02*
X001420Y007642D01*
X001420Y007800D02*
X005855Y007800D01*
X006749Y006532D02*
X008849Y006532D01*
X008849Y006374D02*
X006868Y006374D01*
X006612Y006374D02*
X006590Y006374D01*
X006438Y006215D02*
X006432Y006215D01*
X006401Y006057D02*
X004602Y006057D01*
X004506Y005760D02*
X004174Y005760D01*
X003994Y005580D01*
X002766Y005580D01*
X002586Y005760D01*
X002254Y005760D01*
X002020Y005526D01*
X002020Y005194D01*
X002254Y004960D01*
X002586Y004960D01*
X002806Y005180D01*
X003954Y005180D01*
X004174Y004960D01*
X004506Y004960D01*
X004740Y005194D01*
X004740Y005526D01*
X004506Y005760D01*
X004526Y005740D02*
X006629Y005740D01*
X006851Y005740D02*
X023604Y005740D01*
X023445Y005898D02*
X010435Y005898D01*
X010271Y006691D02*
X011603Y006691D01*
X011761Y006849D02*
X011377Y006849D01*
X011581Y007008D02*
X011899Y007008D01*
X011843Y007166D02*
X011637Y007166D01*
X011637Y007325D02*
X011843Y007325D01*
X011843Y007483D02*
X011637Y007483D01*
X011637Y007642D02*
X011843Y007642D01*
X011852Y007800D02*
X011628Y007800D01*
X011541Y007959D02*
X011939Y007959D01*
X011980Y008117D02*
X010900Y008117D01*
X010900Y007959D02*
X010939Y007959D01*
X010674Y007483D02*
X010637Y007483D01*
X010637Y007325D02*
X010833Y007325D01*
X010843Y007166D02*
X010637Y007166D01*
X010581Y007008D02*
X010899Y007008D01*
X011103Y006849D02*
X010377Y006849D01*
X011993Y006057D02*
X023287Y006057D01*
X023128Y006215D02*
X012152Y006215D01*
X012310Y006374D02*
X022970Y006374D01*
X022811Y006532D02*
X012469Y006532D01*
X012068Y008276D02*
X001420Y008276D01*
X001420Y008434D02*
X012226Y008434D01*
X012385Y008593D02*
X001420Y008593D01*
X001420Y008751D02*
X012543Y008751D01*
X012702Y008910D02*
X007318Y008910D01*
X007477Y009068D02*
X008740Y009068D01*
X008823Y008985D02*
X008545Y009263D01*
X008545Y009657D01*
X008823Y009935D01*
X009217Y009935D01*
X009495Y009657D01*
X009495Y009263D01*
X009217Y008985D01*
X008823Y008985D01*
X008582Y009227D02*
X007550Y009227D01*
X007550Y009385D02*
X008545Y009385D01*
X008545Y009544D02*
X007495Y009544D01*
X007410Y009702D02*
X008590Y009702D01*
X008749Y009861D02*
X007410Y009861D01*
X007410Y010019D02*
X013811Y010019D01*
X013653Y009861D02*
X011291Y009861D01*
X011217Y009935D02*
X010823Y009935D01*
X010545Y009657D01*
X010545Y009263D01*
X010823Y008985D01*
X011217Y008985D01*
X011495Y009263D01*
X011495Y009657D01*
X011217Y009935D01*
X011450Y009702D02*
X011956Y009702D01*
X011880Y009626D02*
X011880Y009294D01*
X012114Y009060D01*
X012446Y009060D01*
X012680Y009294D01*
X012680Y009626D01*
X012446Y009860D01*
X012114Y009860D01*
X011880Y009626D01*
X011880Y009544D02*
X011495Y009544D01*
X011495Y009385D02*
X011880Y009385D01*
X011948Y009227D02*
X011458Y009227D01*
X011300Y009068D02*
X012106Y009068D01*
X012454Y009068D02*
X012860Y009068D01*
X013019Y009227D02*
X012612Y009227D01*
X012680Y009385D02*
X013177Y009385D01*
X013336Y009544D02*
X012680Y009544D01*
X012604Y009702D02*
X013494Y009702D01*
X013913Y009385D02*
X014880Y009385D01*
X014880Y009294D02*
X015114Y009060D01*
X015446Y009060D01*
X015680Y009294D01*
X015680Y009626D01*
X015446Y009860D01*
X015114Y009860D01*
X014880Y009626D01*
X014880Y009294D01*
X014948Y009227D02*
X013754Y009227D01*
X013596Y009068D02*
X015106Y009068D01*
X015454Y009068D02*
X021691Y009068D01*
X021533Y008910D02*
X018124Y008910D01*
X018164Y008751D02*
X020196Y008751D01*
X020196Y008593D02*
X018164Y008593D01*
X018164Y008434D02*
X020196Y008434D01*
X020196Y008276D02*
X018164Y008276D01*
X018164Y008117D02*
X020196Y008117D01*
X020196Y007959D02*
X018153Y007959D01*
X018164Y007800D02*
X020196Y007800D01*
X020196Y007642D02*
X018164Y007642D01*
X018164Y007483D02*
X020196Y007483D01*
X020196Y007325D02*
X018164Y007325D01*
X018164Y007166D02*
X020196Y007166D01*
X020196Y007008D02*
X018164Y007008D01*
X017076Y007008D02*
X015581Y007008D01*
X015637Y007166D02*
X017076Y007166D01*
X015377Y006849D02*
X020277Y006849D01*
X021203Y006849D02*
X022494Y006849D01*
X022653Y006691D02*
X014547Y006691D01*
X014706Y006849D02*
X015103Y006849D01*
X014899Y007008D02*
X014864Y007008D01*
X013346Y008751D02*
X017076Y008751D01*
X017116Y008910D02*
X013437Y008910D01*
X014071Y009544D02*
X014880Y009544D01*
X014956Y009702D02*
X014230Y009702D01*
X014388Y009861D02*
X018372Y009861D01*
X018213Y010019D02*
X017238Y010019D01*
X017425Y010178D02*
X018055Y010178D01*
X017896Y010336D02*
X017584Y010336D01*
X017165Y010653D02*
X014909Y010653D01*
X014565Y011129D02*
X008187Y011129D01*
X008029Y011287D02*
X014565Y011287D01*
X014626Y011446D02*
X007980Y011446D01*
X007980Y011604D02*
X008752Y011604D01*
X008735Y011621D02*
X008836Y011520D01*
X008968Y011465D01*
X009112Y011465D01*
X009244Y011520D01*
X009345Y011621D01*
X009400Y011753D01*
X009400Y012297D01*
X009345Y012429D01*
X009244Y012530D01*
X009112Y012585D01*
X008968Y012585D01*
X008836Y012530D01*
X008735Y012429D01*
X008680Y012297D01*
X008680Y011753D01*
X008735Y011621D01*
X008680Y011763D02*
X007980Y011763D01*
X007980Y011921D02*
X008680Y011921D01*
X008680Y012080D02*
X007980Y012080D01*
X007980Y012238D02*
X008680Y012238D01*
X008721Y012397D02*
X007980Y012397D01*
X007980Y012555D02*
X008896Y012555D01*
X009184Y012555D02*
X010896Y012555D01*
X010836Y012530D02*
X010735Y012429D01*
X010680Y012297D01*
X010680Y011753D01*
X010735Y011621D01*
X010836Y011520D01*
X010968Y011465D01*
X011112Y011465D01*
X011244Y011520D01*
X011345Y011621D01*
X011400Y011753D01*
X011400Y012297D01*
X011345Y012429D01*
X011244Y012530D01*
X011112Y012585D01*
X010968Y012585D01*
X010836Y012530D01*
X010721Y012397D02*
X009359Y012397D01*
X009400Y012238D02*
X010680Y012238D01*
X010680Y012080D02*
X009400Y012080D01*
X009400Y011921D02*
X010680Y011921D01*
X010680Y011763D02*
X009400Y011763D01*
X009328Y011604D02*
X010752Y011604D01*
X011328Y011604D02*
X014764Y011604D01*
X014863Y011725D02*
X014585Y012003D01*
X014585Y012200D01*
X015060Y012200D01*
X015060Y012200D01*
X015060Y012675D01*
X015257Y012675D01*
X015535Y012397D01*
X015535Y012200D01*
X015060Y012200D01*
X015060Y012200D01*
X015060Y012200D01*
X015060Y012675D01*
X014863Y012675D01*
X014585Y012397D01*
X014585Y012200D01*
X015060Y012200D01*
X015535Y012200D01*
X015535Y012003D01*
X015257Y011725D01*
X015060Y011725D01*
X015060Y012200D01*
X015060Y012200D01*
X015060Y011725D01*
X014863Y011725D01*
X014826Y011763D02*
X011400Y011763D01*
X011400Y011921D02*
X014667Y011921D01*
X014585Y012080D02*
X011400Y012080D01*
X011400Y012238D02*
X014585Y012238D01*
X014585Y012397D02*
X011359Y012397D01*
X011184Y012555D02*
X014743Y012555D01*
X015060Y012555D02*
X015060Y012555D01*
X015060Y012397D02*
X015060Y012397D01*
X015060Y012238D02*
X015060Y012238D01*
X015060Y012080D02*
X015060Y012080D01*
X015060Y011921D02*
X015060Y011921D01*
X015060Y011763D02*
X015060Y011763D01*
X015294Y011763D02*
X017386Y011763D01*
X017503Y011645D02*
X017225Y011923D01*
X017225Y012120D01*
X017700Y012120D01*
X017700Y012120D01*
X017700Y012595D01*
X017897Y012595D01*
X018175Y012317D01*
X018175Y012120D01*
X017700Y012120D01*
X017700Y012120D01*
X017700Y012120D01*
X017700Y012595D01*
X017503Y012595D01*
X017225Y012317D01*
X017225Y012120D01*
X017700Y012120D01*
X018175Y012120D01*
X018175Y011923D01*
X017897Y011645D01*
X017700Y011645D01*
X017700Y012120D01*
X017700Y012120D01*
X017700Y011645D01*
X017503Y011645D01*
X017700Y011763D02*
X017700Y011763D01*
X017700Y011921D02*
X017700Y011921D01*
X017700Y012080D02*
X017700Y012080D01*
X017700Y012238D02*
X017700Y012238D01*
X017700Y012397D02*
X017700Y012397D01*
X017700Y012555D02*
X017700Y012555D01*
X017937Y012555D02*
X020196Y012555D01*
X020196Y012714D02*
X007980Y012714D01*
X007884Y012872D02*
X020196Y012872D01*
X020196Y013031D02*
X007725Y013031D01*
X007567Y013189D02*
X020196Y013189D01*
X020196Y013348D02*
X007408Y013348D01*
X007250Y013506D02*
X020196Y013506D01*
X020196Y013665D02*
X007091Y013665D01*
X006933Y013823D02*
X020196Y013823D01*
X020196Y013982D02*
X006774Y013982D01*
X006616Y014140D02*
X020196Y014140D01*
X020196Y014299D02*
X006457Y014299D01*
X006299Y014457D02*
X022640Y014457D01*
X022790Y014616D02*
X006140Y014616D01*
X006060Y014774D02*
X016595Y014774D01*
X016689Y014680D02*
X016420Y014949D01*
X016420Y015120D01*
X016860Y015120D01*
X016860Y015160D01*
X016860Y015600D01*
X016689Y015600D01*
X016420Y015331D01*
X016420Y015160D01*
X016860Y015160D01*
X016900Y015160D01*
X016900Y015600D01*
X017071Y015600D01*
X017340Y015331D01*
X017340Y015160D01*
X016900Y015160D01*
X016900Y015120D01*
X017340Y015120D01*
X017340Y014949D01*
X017071Y014680D01*
X016900Y014680D01*
X016900Y015120D01*
X016860Y015120D01*
X016860Y014680D01*
X016689Y014680D01*
X016860Y014774D02*
X016900Y014774D01*
X016900Y014933D02*
X016860Y014933D01*
X016860Y015091D02*
X016900Y015091D01*
X016900Y015250D02*
X016860Y015250D01*
X016860Y015408D02*
X016900Y015408D01*
X016900Y015567D02*
X016860Y015567D01*
X016656Y015567D02*
X006060Y015567D01*
X006060Y015725D02*
X016644Y015725D01*
X016486Y015884D02*
X006060Y015884D01*
X006060Y016042D02*
X016420Y016042D01*
X016420Y016201D02*
X006060Y016201D01*
X006398Y016359D02*
X009242Y016359D01*
X009678Y016359D02*
X016448Y016359D01*
X017116Y015725D02*
X017644Y015725D01*
X017514Y015600D02*
X017420Y015506D01*
X017420Y014774D01*
X017165Y014774D01*
X017323Y014933D02*
X017420Y014933D01*
X017420Y015091D02*
X017340Y015091D01*
X017340Y015250D02*
X017420Y015250D01*
X017420Y015408D02*
X017263Y015408D01*
X017104Y015567D02*
X017480Y015567D01*
X017514Y015600D02*
X018246Y015600D01*
X018340Y015506D01*
X018340Y014774D01*
X026862Y014774D01*
X026704Y014616D02*
X026370Y014616D01*
X025790Y014616D02*
X023370Y014616D01*
X023800Y014457D02*
X025680Y014457D01*
X025680Y014299D02*
X023958Y014299D01*
X024117Y014140D02*
X025714Y014140D01*
X025975Y013394D02*
X025863Y013283D01*
X025803Y013137D01*
X025803Y012503D01*
X025863Y012357D01*
X025975Y012246D01*
X026121Y012185D01*
X026279Y012185D01*
X026425Y012246D01*
X026537Y012357D01*
X026597Y012503D01*
X026597Y013137D01*
X026537Y013283D01*
X026425Y013394D01*
X026279Y013455D01*
X026121Y013455D01*
X025975Y013394D01*
X025928Y013348D02*
X025472Y013348D01*
X025425Y013394D02*
X025537Y013283D01*
X025597Y013137D01*
X025597Y012503D01*
X025537Y012357D01*
X025425Y012246D01*
X025279Y012185D01*
X025121Y012185D01*
X024975Y012246D01*
X024863Y012357D01*
X024803Y012503D01*
X024803Y013137D01*
X024863Y013283D01*
X024975Y013394D01*
X025121Y013455D01*
X025279Y013455D01*
X025425Y013394D01*
X025576Y013189D02*
X025824Y013189D01*
X025803Y013031D02*
X025597Y013031D01*
X025597Y012872D02*
X025803Y012872D01*
X025803Y012714D02*
X025597Y012714D01*
X025597Y012555D02*
X025803Y012555D01*
X025847Y012397D02*
X025553Y012397D01*
X025407Y012238D02*
X025993Y012238D01*
X025647Y012077D02*
X025647Y011738D01*
X025289Y011738D01*
X025289Y011938D01*
X025300Y011979D01*
X025321Y012015D01*
X025351Y012045D01*
X025387Y012066D01*
X025428Y012077D01*
X025647Y012077D01*
X025647Y011921D02*
X025684Y011921D01*
X025684Y011763D02*
X025647Y011763D01*
X025647Y011604D02*
X025684Y011604D01*
X025684Y011446D02*
X025647Y011446D01*
X025309Y011446D02*
X018046Y011446D01*
X018145Y011287D02*
X028940Y011287D01*
X028940Y011129D02*
X018175Y011129D01*
X018152Y010970D02*
X028842Y010970D01*
X028684Y010812D02*
X018156Y010812D01*
X018315Y010653D02*
X028525Y010653D01*
X028367Y010495D02*
X018473Y010495D01*
X018632Y010336D02*
X028208Y010336D01*
X028627Y010019D02*
X032955Y010019D01*
X032900Y010074D02*
X032900Y010406D01*
X033134Y010640D01*
X033466Y010640D01*
X033646Y010460D01*
X034714Y010460D01*
X034894Y010640D01*
X035226Y010640D01*
X035460Y010406D01*
X035460Y010074D01*
X035226Y009840D01*
X034894Y009840D01*
X034674Y010060D01*
X033686Y010060D01*
X033466Y009840D01*
X033134Y009840D01*
X032900Y010074D01*
X032900Y010178D02*
X028785Y010178D01*
X028944Y010336D02*
X029624Y010336D01*
X029486Y010495D02*
X029102Y010495D01*
X029261Y010653D02*
X029425Y010653D01*
X029419Y010812D02*
X029425Y010812D01*
X029460Y010970D02*
X029479Y010970D01*
X029460Y011129D02*
X029608Y011129D01*
X029460Y011287D02*
X032900Y011287D01*
X032900Y011406D02*
X032900Y011074D01*
X033134Y010840D01*
X033466Y010840D01*
X033676Y011050D01*
X034684Y011050D01*
X034894Y010840D01*
X035226Y010840D01*
X035460Y011074D01*
X035460Y011406D01*
X035226Y011640D01*
X034894Y011640D01*
X034724Y011470D01*
X033636Y011470D01*
X033466Y011640D01*
X033134Y011640D01*
X032900Y011406D01*
X032940Y011446D02*
X029460Y011446D01*
X029460Y011604D02*
X033098Y011604D01*
X033502Y011604D02*
X034858Y011604D01*
X035262Y011604D02*
X036293Y011604D01*
X036293Y011446D02*
X035420Y011446D01*
X035460Y011287D02*
X036293Y011287D01*
X036293Y011129D02*
X035460Y011129D01*
X035356Y010970D02*
X036293Y010970D01*
X036293Y010812D02*
X031395Y010812D01*
X031395Y010740D02*
X031395Y010937D01*
X031117Y011215D01*
X030920Y011215D01*
X030920Y010740D01*
X031395Y010740D01*
X030920Y010740D01*
X030920Y010740D01*
X030920Y010740D01*
X030920Y010265D01*
X031117Y010265D01*
X031395Y010543D01*
X031395Y010740D01*
X031395Y010653D02*
X036293Y010653D01*
X036293Y010495D02*
X035371Y010495D01*
X035460Y010336D02*
X036293Y010336D01*
X036293Y010178D02*
X035460Y010178D01*
X035405Y010019D02*
X036293Y010019D01*
X036293Y009861D02*
X035246Y009861D01*
X034874Y009861D02*
X033486Y009861D01*
X033645Y010019D02*
X034715Y010019D01*
X034749Y010495D02*
X033611Y010495D01*
X032989Y010495D02*
X031346Y010495D01*
X031188Y010336D02*
X032900Y010336D01*
X033114Y009861D02*
X028627Y009861D01*
X028747Y009702D02*
X036293Y009702D01*
X036293Y009544D02*
X028760Y009544D01*
X028760Y009385D02*
X028993Y009385D01*
X028865Y009257D02*
X028865Y008863D01*
X029143Y008585D01*
X029537Y008585D01*
X029815Y008863D01*
X029815Y009257D01*
X029537Y009535D01*
X029143Y009535D01*
X028865Y009257D01*
X028865Y009227D02*
X028760Y009227D01*
X028760Y009068D02*
X028865Y009068D01*
X028865Y008910D02*
X028760Y008910D01*
X028777Y008751D02*
X028977Y008751D01*
X028935Y008593D02*
X029136Y008593D01*
X029094Y008434D02*
X036293Y008434D01*
X036293Y008276D02*
X029252Y008276D01*
X029499Y008117D02*
X030029Y008117D01*
X030044Y008131D02*
X029926Y008014D01*
X029863Y007861D01*
X029863Y007219D01*
X029926Y007066D01*
X030044Y006949D01*
X030197Y006885D01*
X030363Y006885D01*
X030516Y006949D01*
X030634Y007066D01*
X030697Y007219D01*
X030697Y007861D01*
X030634Y008014D01*
X030516Y008131D01*
X030363Y008195D01*
X030197Y008195D01*
X030044Y008131D01*
X029903Y007959D02*
X029635Y007959D01*
X029677Y007800D02*
X029863Y007800D01*
X029863Y007642D02*
X029677Y007642D01*
X029677Y007483D02*
X029863Y007483D01*
X029863Y007325D02*
X029677Y007325D01*
X029654Y007166D02*
X029885Y007166D01*
X029985Y007008D02*
X029560Y007008D01*
X029560Y006849D02*
X031530Y006849D01*
X031530Y006691D02*
X029560Y006691D01*
X029560Y006532D02*
X031530Y006532D01*
X031530Y006374D02*
X029560Y006374D01*
X029560Y006215D02*
X031530Y006215D01*
X031530Y006057D02*
X029560Y006057D01*
X029836Y005898D02*
X030366Y005898D01*
X030600Y005898D02*
X030600Y005898D01*
X030600Y005740D02*
X030600Y005740D01*
X030600Y005581D02*
X030600Y005581D01*
X030834Y005898D02*
X031530Y005898D01*
X031530Y005740D02*
X030992Y005740D01*
X031075Y005581D02*
X031530Y005581D01*
X031530Y005423D02*
X031075Y005423D01*
X031075Y005264D02*
X031530Y005264D01*
X031950Y005264D02*
X032900Y005264D01*
X032900Y005286D02*
X032900Y004954D01*
X033134Y004720D01*
X033466Y004720D01*
X033686Y004940D01*
X034594Y004940D01*
X034814Y004720D01*
X035146Y004720D01*
X035380Y004954D01*
X035380Y005286D01*
X035146Y005520D01*
X034814Y005520D01*
X034634Y005340D01*
X033646Y005340D01*
X033466Y005520D01*
X033134Y005520D01*
X032900Y005286D01*
X032900Y005106D02*
X031950Y005106D01*
X031950Y004947D02*
X032907Y004947D01*
X033066Y004789D02*
X031925Y004789D01*
X031950Y005423D02*
X033037Y005423D01*
X033134Y005720D02*
X033466Y005720D01*
X033676Y005930D01*
X034604Y005930D01*
X034814Y005720D01*
X035146Y005720D01*
X035380Y005954D01*
X035380Y006286D01*
X035146Y006520D01*
X034814Y006520D01*
X034644Y006350D01*
X033636Y006350D01*
X033466Y006520D01*
X033134Y006520D01*
X032900Y006286D01*
X032900Y005954D01*
X033134Y005720D01*
X033115Y005740D02*
X031950Y005740D01*
X031950Y005898D02*
X032956Y005898D01*
X032900Y006057D02*
X031950Y006057D01*
X031950Y006215D02*
X032900Y006215D01*
X032988Y006374D02*
X031950Y006374D01*
X031950Y006532D02*
X036293Y006532D01*
X036293Y006374D02*
X035292Y006374D01*
X035380Y006215D02*
X036293Y006215D01*
X036293Y006057D02*
X035380Y006057D01*
X035324Y005898D02*
X036293Y005898D01*
X036293Y005740D02*
X035165Y005740D01*
X035243Y005423D02*
X036293Y005423D01*
X036293Y005581D02*
X031950Y005581D01*
X031950Y006691D02*
X036293Y006691D01*
X036293Y006849D02*
X031950Y006849D01*
X031950Y007008D02*
X032013Y007008D01*
X032547Y007008D02*
X036293Y007008D01*
X036293Y007166D02*
X032654Y007166D01*
X032677Y007325D02*
X036293Y007325D01*
X036293Y007483D02*
X032677Y007483D01*
X032677Y007642D02*
X036293Y007642D01*
X036293Y007800D02*
X032677Y007800D01*
X032635Y007959D02*
X036293Y007959D01*
X036293Y008117D02*
X032499Y008117D01*
X032461Y008525D02*
X032809Y008525D01*
X033055Y008771D01*
X033055Y009119D01*
X032809Y009365D01*
X032461Y009365D01*
X032215Y009119D01*
X032215Y008771D01*
X032461Y008525D01*
X032394Y008593D02*
X030876Y008593D01*
X030809Y008525D02*
X030461Y008525D01*
X030215Y008771D01*
X030215Y009119D01*
X030461Y009365D01*
X030809Y009365D01*
X031055Y009119D01*
X031055Y008771D01*
X030809Y008525D01*
X031035Y008751D02*
X032235Y008751D01*
X032215Y008910D02*
X031055Y008910D01*
X031055Y009068D02*
X032215Y009068D01*
X032323Y009227D02*
X030947Y009227D01*
X030323Y009227D02*
X029815Y009227D01*
X029815Y009068D02*
X030215Y009068D01*
X030215Y008910D02*
X029815Y008910D01*
X029703Y008751D02*
X030235Y008751D01*
X030394Y008593D02*
X029544Y008593D01*
X029687Y009385D02*
X036293Y009385D01*
X036293Y009227D02*
X032947Y009227D01*
X033055Y009068D02*
X036293Y009068D01*
X036293Y008910D02*
X033055Y008910D01*
X033035Y008751D02*
X036293Y008751D01*
X036293Y008593D02*
X032876Y008593D01*
X032061Y008117D02*
X031499Y008117D01*
X031635Y007959D02*
X031925Y007959D01*
X031883Y007800D02*
X031677Y007800D01*
X031677Y007642D02*
X031825Y007642D01*
X031061Y008117D02*
X030531Y008117D01*
X030657Y007959D02*
X030925Y007959D01*
X030883Y007800D02*
X030697Y007800D01*
X030697Y007642D02*
X030883Y007642D01*
X030883Y007483D02*
X030697Y007483D01*
X030697Y007325D02*
X030883Y007325D01*
X030906Y007166D02*
X030675Y007166D01*
X030575Y007008D02*
X031013Y007008D01*
X029040Y006849D02*
X028377Y006849D01*
X028547Y007008D02*
X029013Y007008D01*
X028906Y007166D02*
X028654Y007166D01*
X028677Y007325D02*
X028883Y007325D01*
X028883Y007483D02*
X028677Y007483D01*
X028677Y007642D02*
X028883Y007642D01*
X028883Y007800D02*
X028677Y007800D01*
X028635Y007959D02*
X028834Y007959D01*
X028675Y008117D02*
X028499Y008117D01*
X028517Y008276D02*
X021661Y008276D01*
X021651Y008434D02*
X028358Y008434D01*
X028247Y008593D02*
X027544Y008593D01*
X027537Y008585D02*
X027815Y008863D01*
X027815Y009257D01*
X027537Y009535D01*
X027143Y009535D01*
X026878Y009270D01*
X026676Y009270D01*
X026486Y009460D01*
X026154Y009460D01*
X025920Y009226D01*
X025920Y008894D01*
X026154Y008660D01*
X026486Y008660D01*
X026676Y008850D01*
X026878Y008850D01*
X027143Y008585D01*
X027537Y008585D01*
X027703Y008751D02*
X028240Y008751D01*
X028240Y008910D02*
X027815Y008910D01*
X027815Y009068D02*
X028240Y009068D01*
X028240Y009227D02*
X027815Y009227D01*
X027687Y009385D02*
X028240Y009385D01*
X028209Y009544D02*
X015680Y009544D01*
X015680Y009385D02*
X023079Y009385D01*
X023561Y009385D02*
X026079Y009385D01*
X025921Y009227D02*
X023719Y009227D01*
X023720Y009068D02*
X025920Y009068D01*
X025920Y008910D02*
X023720Y008910D01*
X023577Y008751D02*
X026063Y008751D01*
X026577Y008751D02*
X026977Y008751D01*
X027136Y008593D02*
X021809Y008593D01*
X021968Y008751D02*
X023063Y008751D01*
X023164Y008160D02*
X023092Y008130D01*
X023027Y008086D01*
X022971Y008031D01*
X022928Y007966D01*
X022898Y007893D01*
X022883Y007817D01*
X022883Y007540D01*
X022883Y007263D01*
X022898Y007187D01*
X022928Y007114D01*
X022971Y007049D01*
X023027Y006994D01*
X023092Y006950D01*
X023164Y006920D01*
X023241Y006905D01*
X023280Y006905D01*
X023319Y006905D01*
X023396Y006920D01*
X023468Y006950D01*
X023533Y006994D01*
X023589Y007049D01*
X023632Y007114D01*
X023662Y007187D01*
X023677Y007263D01*
X023677Y007540D01*
X023677Y007817D01*
X023662Y007893D01*
X023632Y007966D01*
X023589Y008031D01*
X023533Y008086D01*
X023468Y008130D01*
X023396Y008160D01*
X023319Y008175D01*
X023280Y008175D01*
X023241Y008175D01*
X023164Y008160D01*
X023073Y008117D02*
X021820Y008117D01*
X021978Y007959D02*
X022925Y007959D01*
X022883Y007800D02*
X022137Y007800D01*
X022295Y007642D02*
X022883Y007642D01*
X022883Y007540D02*
X023280Y007540D01*
X023677Y007540D01*
X023280Y007540D01*
X023280Y007540D01*
X023280Y007540D01*
X023280Y008175D01*
X023280Y007540D01*
X023280Y006905D01*
X023280Y007540D01*
X023280Y007540D01*
X023280Y007540D01*
X022883Y007540D01*
X022883Y007483D02*
X022454Y007483D01*
X022612Y007325D02*
X022883Y007325D01*
X022906Y007166D02*
X022771Y007166D01*
X022929Y007008D02*
X023013Y007008D01*
X023088Y006849D02*
X027788Y006849D01*
X027630Y007008D02*
X027547Y007008D01*
X027878Y007325D02*
X027883Y007325D01*
X027883Y007483D02*
X027720Y007483D01*
X027677Y007642D02*
X027883Y007642D01*
X027883Y007800D02*
X027677Y007800D01*
X027635Y007959D02*
X027925Y007959D01*
X028061Y008117D02*
X027499Y008117D01*
X027061Y008117D02*
X026499Y008117D01*
X026505Y008114D02*
X026359Y008175D01*
X026201Y008175D01*
X026055Y008114D01*
X025943Y008003D01*
X025883Y007857D01*
X025883Y007223D01*
X025943Y007077D01*
X026055Y006966D01*
X026201Y006905D01*
X026359Y006905D01*
X026505Y006966D01*
X026617Y007077D01*
X026677Y007223D01*
X026677Y007857D01*
X026617Y008003D01*
X026505Y008114D01*
X026635Y007959D02*
X026925Y007959D01*
X026883Y007800D02*
X026677Y007800D01*
X026677Y007642D02*
X026883Y007642D01*
X026883Y007483D02*
X026677Y007483D01*
X026677Y007325D02*
X026883Y007325D01*
X026906Y007166D02*
X026654Y007166D01*
X026547Y007008D02*
X027013Y007008D01*
X026282Y006532D02*
X028131Y006532D01*
X028302Y006374D02*
X026354Y006374D01*
X026513Y006215D02*
X028358Y006215D01*
X028962Y006215D02*
X029040Y006215D01*
X029040Y006374D02*
X029018Y006374D01*
X029002Y006532D02*
X029040Y006532D01*
X029040Y006691D02*
X028896Y006691D01*
X027947Y006691D02*
X023246Y006691D01*
X023405Y006532D02*
X024958Y006532D01*
X024971Y006545D02*
X024941Y006515D01*
X024920Y006479D01*
X024909Y006438D01*
X024909Y006238D01*
X025267Y006238D01*
X025267Y006577D01*
X025048Y006577D01*
X025007Y006566D01*
X024971Y006545D01*
X024909Y006374D02*
X023563Y006374D01*
X023722Y006215D02*
X025267Y006215D01*
X025267Y006374D02*
X025304Y006374D01*
X025304Y006532D02*
X025267Y006532D01*
X025613Y006532D02*
X025627Y006532D01*
X025505Y006966D02*
X025617Y007077D01*
X025677Y007223D01*
X025677Y007857D01*
X025617Y008003D01*
X025505Y008114D01*
X025359Y008175D01*
X025201Y008175D01*
X025055Y008114D01*
X024943Y008003D01*
X024883Y007857D01*
X024883Y007223D01*
X024943Y007077D01*
X025055Y006966D01*
X025201Y006905D01*
X025359Y006905D01*
X025505Y006966D01*
X025547Y007008D02*
X026013Y007008D01*
X025906Y007166D02*
X025654Y007166D01*
X025677Y007325D02*
X025883Y007325D01*
X025883Y007483D02*
X025677Y007483D01*
X025677Y007642D02*
X025883Y007642D01*
X025883Y007800D02*
X025677Y007800D01*
X025635Y007959D02*
X025925Y007959D01*
X026061Y008117D02*
X025499Y008117D01*
X025061Y008117D02*
X024499Y008117D01*
X024505Y008114D02*
X024359Y008175D01*
X024201Y008175D01*
X024055Y008114D01*
X023943Y008003D01*
X023883Y007857D01*
X023883Y007223D01*
X023943Y007077D01*
X024055Y006966D01*
X024201Y006905D01*
X024359Y006905D01*
X024505Y006966D01*
X024617Y007077D01*
X024677Y007223D01*
X024677Y007857D01*
X024617Y008003D01*
X024505Y008114D01*
X024635Y007959D02*
X024925Y007959D01*
X024883Y007800D02*
X024677Y007800D01*
X024677Y007642D02*
X024883Y007642D01*
X024883Y007483D02*
X024677Y007483D01*
X024677Y007325D02*
X024883Y007325D01*
X024906Y007166D02*
X024654Y007166D01*
X024547Y007008D02*
X025013Y007008D01*
X024909Y006057D02*
X023880Y006057D01*
X023762Y005581D02*
X004685Y005581D01*
X004740Y005423D02*
X028681Y005423D01*
X028839Y005264D02*
X004740Y005264D01*
X004651Y005106D02*
X028998Y005106D01*
X029156Y004947D02*
X001420Y004947D01*
X001420Y004789D02*
X029315Y004789D01*
X033534Y004789D02*
X034746Y004789D01*
X034786Y004338D02*
X034424Y004338D01*
X034089Y004200D01*
X033833Y003944D01*
X033695Y003609D01*
X033695Y003248D01*
X033833Y002913D01*
X034089Y002657D01*
X034424Y002519D01*
X034786Y002519D01*
X035120Y002657D01*
X035376Y002913D01*
X035514Y003248D01*
X035514Y003609D01*
X035376Y003944D01*
X035120Y004200D01*
X034786Y004338D01*
X034847Y004313D02*
X036293Y004313D01*
X036293Y004155D02*
X035165Y004155D01*
X035324Y003996D02*
X036293Y003996D01*
X036293Y003838D02*
X035420Y003838D01*
X035486Y003679D02*
X036293Y003679D01*
X036293Y003521D02*
X035514Y003521D01*
X035514Y003362D02*
X036293Y003362D01*
X036293Y003204D02*
X035496Y003204D01*
X035431Y003045D02*
X036293Y003045D01*
X036293Y002887D02*
X035349Y002887D01*
X035191Y002728D02*
X036293Y002728D01*
X036293Y002570D02*
X034908Y002570D01*
X034301Y002570D02*
X003412Y002570D01*
X003289Y002519D02*
X003624Y002657D01*
X003880Y002913D01*
X004018Y003248D01*
X004018Y003609D01*
X003880Y003944D01*
X003624Y004200D01*
X003289Y004338D01*
X002928Y004338D01*
X002593Y004200D01*
X002337Y003944D01*
X002199Y003609D01*
X002199Y003248D01*
X002337Y002913D01*
X002593Y002657D01*
X002928Y002519D01*
X003289Y002519D01*
X003695Y002728D02*
X034018Y002728D01*
X033860Y002887D02*
X003853Y002887D01*
X003935Y003045D02*
X033779Y003045D01*
X033713Y003204D02*
X004000Y003204D01*
X004018Y003362D02*
X033695Y003362D01*
X033695Y003521D02*
X004018Y003521D01*
X003990Y003679D02*
X033723Y003679D01*
X033789Y003838D02*
X003924Y003838D01*
X003828Y003996D02*
X033885Y003996D01*
X034044Y004155D02*
X003669Y004155D01*
X003351Y004313D02*
X034362Y004313D01*
X035214Y004789D02*
X036293Y004789D01*
X036293Y004947D02*
X035373Y004947D01*
X035380Y005106D02*
X036293Y005106D01*
X036293Y005264D02*
X035380Y005264D01*
X034717Y005423D02*
X033563Y005423D01*
X033485Y005740D02*
X034795Y005740D01*
X034636Y005898D02*
X033644Y005898D01*
X033612Y006374D02*
X034668Y006374D01*
X036293Y004630D02*
X001420Y004630D01*
X001420Y004472D02*
X036293Y004472D01*
X036293Y002411D02*
X001420Y002411D01*
X001420Y002253D02*
X036293Y002253D01*
X036293Y002094D02*
X001420Y002094D01*
X001420Y001936D02*
X036293Y001936D01*
X036293Y001777D02*
X001420Y001777D01*
X001420Y001740D02*
X001420Y032676D01*
X036293Y032676D01*
X036293Y001740D01*
X001420Y001740D01*
X001420Y002570D02*
X002805Y002570D01*
X002522Y002728D02*
X001420Y002728D01*
X001420Y002887D02*
X002364Y002887D01*
X002282Y003045D02*
X001420Y003045D01*
X001420Y003204D02*
X002217Y003204D01*
X002199Y003362D02*
X001420Y003362D01*
X001420Y003521D02*
X002199Y003521D01*
X002227Y003679D02*
X001420Y003679D01*
X001420Y003838D02*
X002293Y003838D01*
X002389Y003996D02*
X001420Y003996D01*
X001420Y004155D02*
X002548Y004155D01*
X002866Y004313D02*
X001420Y004313D01*
X001420Y005106D02*
X002109Y005106D01*
X002020Y005264D02*
X001420Y005264D01*
X001420Y005423D02*
X002020Y005423D01*
X002075Y005581D02*
X001420Y005581D01*
X001420Y005740D02*
X002234Y005740D01*
X002158Y006057D02*
X001420Y006057D01*
X001420Y006215D02*
X002020Y006215D01*
X002020Y006374D02*
X001420Y006374D01*
X001420Y006532D02*
X002026Y006532D01*
X002682Y006057D02*
X004078Y006057D01*
X004154Y005740D02*
X002606Y005740D01*
X002765Y005581D02*
X003995Y005581D01*
X004029Y005106D02*
X002731Y005106D01*
X001420Y005898D02*
X006440Y005898D01*
X003759Y008910D02*
X003350Y008910D01*
X003480Y009068D02*
X003600Y009068D01*
X001420Y010178D02*
X006850Y010178D01*
X006850Y010336D02*
X001420Y010336D01*
X001420Y010495D02*
X006899Y010495D01*
X007057Y010653D02*
X001420Y010653D01*
X001420Y010812D02*
X007216Y010812D01*
X007374Y010970D02*
X001420Y010970D01*
X001420Y011129D02*
X007435Y011129D01*
X007420Y011287D02*
X001420Y011287D01*
X001420Y011446D02*
X007420Y011446D01*
X007420Y011604D02*
X001420Y011604D01*
X001420Y011763D02*
X007420Y011763D01*
X007420Y011921D02*
X001420Y011921D01*
X001420Y012080D02*
X004890Y012080D01*
X005004Y011965D02*
X004770Y012199D01*
X004770Y012531D01*
X005004Y012765D01*
X005336Y012765D01*
X005570Y012531D01*
X005570Y012199D01*
X005336Y011965D01*
X005004Y011965D01*
X004770Y012238D02*
X001420Y012238D01*
X001420Y012397D02*
X004770Y012397D01*
X004794Y012555D02*
X001420Y012555D01*
X001420Y012714D02*
X004953Y012714D01*
X005387Y012714D02*
X006953Y012714D01*
X007092Y012872D02*
X001420Y012872D01*
X001420Y013031D02*
X006010Y013031D01*
X006027Y013506D02*
X005345Y013506D01*
X005399Y013665D02*
X006300Y013665D01*
X006141Y013823D02*
X005376Y013823D01*
X005258Y013982D02*
X005983Y013982D01*
X005824Y014140D02*
X003827Y014140D01*
X003850Y014299D02*
X005665Y014299D01*
X005144Y014457D02*
X004008Y014457D01*
X003986Y013982D02*
X004862Y013982D01*
X005226Y015003D02*
X005239Y015033D01*
X005239Y015167D01*
X005187Y015292D01*
X005092Y015387D01*
X004967Y015439D01*
X004833Y015439D01*
X004708Y015387D01*
X004621Y015300D01*
X003903Y015300D01*
X003877Y015326D01*
X004069Y015517D01*
X004069Y015688D01*
X003629Y015688D01*
X003629Y015728D01*
X004069Y015728D01*
X004069Y015899D01*
X004067Y015900D01*
X005101Y015900D01*
X005188Y015813D01*
X005313Y015761D01*
X005447Y015761D01*
X005500Y015783D01*
X005500Y015017D01*
X005447Y015039D01*
X005313Y015039D01*
X005226Y015003D01*
X005239Y015091D02*
X005500Y015091D01*
X005500Y015250D02*
X005205Y015250D01*
X005042Y015408D02*
X005500Y015408D01*
X005500Y015567D02*
X004069Y015567D01*
X003959Y015408D02*
X004758Y015408D01*
X005117Y015884D02*
X004069Y015884D01*
X003629Y015725D02*
X005500Y015725D01*
X006060Y015408D02*
X016497Y015408D01*
X016420Y015250D02*
X006060Y015250D01*
X006060Y015091D02*
X016420Y015091D01*
X016437Y014933D02*
X006060Y014933D01*
X005160Y016359D02*
X003910Y016359D01*
X004069Y016518D02*
X005500Y016518D01*
X005500Y016676D02*
X004069Y016676D01*
X004069Y016835D02*
X005500Y016835D01*
X005500Y016993D02*
X003974Y016993D01*
X003816Y017152D02*
X005500Y017152D01*
X005500Y017310D02*
X003861Y017310D01*
X003799Y017248D02*
X004069Y017517D01*
X004069Y017688D01*
X003629Y017688D01*
X003629Y017728D01*
X004069Y017728D01*
X004069Y017899D01*
X003799Y018168D01*
X003629Y018168D01*
X003629Y017728D01*
X003589Y017728D01*
X003589Y018168D01*
X003418Y018168D01*
X003149Y017899D01*
X003149Y017728D01*
X003588Y017728D01*
X003588Y017688D01*
X003149Y017688D01*
X003149Y017517D01*
X003418Y017248D01*
X003589Y017248D01*
X003589Y017688D01*
X003629Y017688D01*
X003629Y017248D01*
X003799Y017248D01*
X003629Y017310D02*
X003589Y017310D01*
X003589Y017469D02*
X003629Y017469D01*
X003629Y017627D02*
X003589Y017627D01*
X003589Y017786D02*
X003629Y017786D01*
X003629Y017944D02*
X003589Y017944D01*
X003589Y018103D02*
X003629Y018103D01*
X003799Y018248D02*
X003418Y018248D01*
X003149Y018517D01*
X003149Y018899D01*
X003418Y019168D01*
X003799Y019168D01*
X004057Y018910D01*
X004351Y018910D01*
X004428Y018987D01*
X004553Y019039D01*
X004687Y019039D01*
X004812Y018987D01*
X004907Y018892D01*
X004959Y018767D01*
X004959Y018633D01*
X004907Y018508D01*
X004812Y018413D01*
X004687Y018361D01*
X004553Y018361D01*
X004428Y018413D01*
X004351Y018490D01*
X004041Y018490D01*
X003799Y018248D01*
X003812Y018261D02*
X005500Y018261D01*
X005500Y018103D02*
X003865Y018103D01*
X004023Y017944D02*
X005500Y017944D01*
X005500Y017786D02*
X004069Y017786D01*
X004069Y017627D02*
X005500Y017627D01*
X005500Y017469D02*
X004020Y017469D01*
X003356Y017310D02*
X002861Y017310D01*
X002799Y017248D02*
X003069Y017517D01*
X003069Y017688D01*
X002629Y017688D01*
X002629Y017728D01*
X003069Y017728D01*
X003069Y017899D01*
X002799Y018168D01*
X002629Y018168D01*
X002629Y017728D01*
X002589Y017728D01*
X002589Y018168D01*
X002418Y018168D01*
X002149Y017899D01*
X002149Y017728D01*
X002588Y017728D01*
X002588Y017688D01*
X002149Y017688D01*
X002149Y017517D01*
X002418Y017248D01*
X002589Y017248D01*
X002589Y017688D01*
X002629Y017688D01*
X002629Y017248D01*
X002799Y017248D01*
X002799Y017168D02*
X002629Y017168D01*
X002629Y016728D01*
X003069Y016728D01*
X003069Y016899D01*
X002799Y017168D01*
X002816Y017152D02*
X003401Y017152D01*
X003243Y016993D02*
X002974Y016993D01*
X003069Y016835D02*
X003149Y016835D01*
X003149Y016676D02*
X003069Y016676D01*
X003069Y016688D02*
X002629Y016688D01*
X002629Y016728D01*
X002589Y016728D01*
X002589Y017168D01*
X002418Y017168D01*
X002149Y016899D01*
X002149Y016728D01*
X002588Y016728D01*
X002588Y016688D01*
X002149Y016688D01*
X002149Y016517D01*
X002418Y016248D01*
X002589Y016248D01*
X002589Y016688D01*
X002629Y016688D01*
X002629Y016248D01*
X002799Y016248D01*
X003069Y016517D01*
X003069Y016688D01*
X003069Y016518D02*
X003149Y016518D01*
X003307Y016359D02*
X002910Y016359D01*
X002629Y016359D02*
X002589Y016359D01*
X002589Y016518D02*
X002629Y016518D01*
X002629Y016676D02*
X002589Y016676D01*
X002589Y016835D02*
X002629Y016835D01*
X002629Y016993D02*
X002589Y016993D01*
X002589Y017152D02*
X002629Y017152D01*
X002629Y017310D02*
X002589Y017310D01*
X002589Y017469D02*
X002629Y017469D01*
X002629Y017627D02*
X002589Y017627D01*
X002589Y017786D02*
X002629Y017786D01*
X002629Y017944D02*
X002589Y017944D01*
X002589Y018103D02*
X002629Y018103D01*
X002629Y018248D02*
X002799Y018248D01*
X003069Y018517D01*
X003069Y018688D01*
X002629Y018688D01*
X002629Y018728D01*
X003069Y018728D01*
X003069Y018899D01*
X002799Y019168D01*
X002629Y019168D01*
X002629Y018728D01*
X002589Y018728D01*
X002589Y019168D01*
X002418Y019168D01*
X002149Y018899D01*
X002149Y018728D01*
X002588Y018728D01*
X002588Y018688D01*
X002149Y018688D01*
X002149Y018517D01*
X002418Y018248D01*
X002589Y018248D01*
X002589Y018688D01*
X002629Y018688D01*
X002629Y018248D01*
X002629Y018261D02*
X002589Y018261D01*
X002589Y018420D02*
X002629Y018420D01*
X002629Y018578D02*
X002589Y018578D01*
X002589Y018737D02*
X002629Y018737D01*
X002629Y018895D02*
X002589Y018895D01*
X002589Y019054D02*
X002629Y019054D01*
X002629Y019248D02*
X002799Y019248D01*
X003069Y019517D01*
X003069Y019688D01*
X002629Y019688D01*
X002629Y019728D01*
X003069Y019728D01*
X003069Y019899D01*
X002799Y020168D01*
X002629Y020168D01*
X002629Y019728D01*
X002589Y019728D01*
X002589Y020168D01*
X002418Y020168D01*
X002149Y019899D01*
X002149Y019728D01*
X002588Y019728D01*
X002588Y019688D01*
X002149Y019688D01*
X002149Y019517D01*
X002418Y019248D01*
X002589Y019248D01*
X002589Y019688D01*
X002629Y019688D01*
X002629Y019248D01*
X002629Y019371D02*
X002589Y019371D01*
X002589Y019529D02*
X002629Y019529D01*
X002629Y019688D02*
X002589Y019688D01*
X002589Y019846D02*
X002629Y019846D01*
X002629Y020005D02*
X002589Y020005D01*
X002589Y020163D02*
X002629Y020163D01*
X002804Y020163D02*
X003385Y020163D01*
X003410Y020188D02*
X003129Y019907D01*
X003129Y019509D01*
X003410Y019228D01*
X003807Y019228D01*
X004089Y019509D01*
X004089Y019907D01*
X003807Y020188D01*
X003410Y020188D01*
X003316Y020322D02*
X002901Y020322D01*
X002963Y020005D02*
X003226Y020005D01*
X003129Y019846D02*
X003069Y019846D01*
X003069Y019688D02*
X003129Y019688D01*
X003129Y019529D02*
X003069Y019529D01*
X002922Y019371D02*
X003267Y019371D01*
X003303Y019054D02*
X002914Y019054D01*
X003069Y018895D02*
X003149Y018895D01*
X003149Y018737D02*
X003069Y018737D01*
X003069Y018578D02*
X003149Y018578D01*
X003246Y018420D02*
X002971Y018420D01*
X002812Y018261D02*
X003405Y018261D01*
X003352Y018103D02*
X002865Y018103D01*
X003023Y017944D02*
X003194Y017944D01*
X003149Y017786D02*
X003069Y017786D01*
X003069Y017627D02*
X003149Y017627D01*
X003197Y017469D02*
X003020Y017469D01*
X002356Y017310D02*
X001420Y017310D01*
X001420Y017152D02*
X002401Y017152D01*
X002243Y016993D02*
X001420Y016993D01*
X001420Y016835D02*
X002149Y016835D01*
X002149Y016676D02*
X001420Y016676D01*
X001420Y016518D02*
X002149Y016518D01*
X002307Y016359D02*
X001420Y016359D01*
X001420Y016201D02*
X003198Y016201D01*
X003039Y016042D02*
X002925Y016042D01*
X003129Y015567D02*
X003149Y015567D01*
X003258Y015408D02*
X002959Y015408D01*
X002801Y015250D02*
X003247Y015250D01*
X003088Y015091D02*
X002876Y015091D01*
X002416Y015250D02*
X001420Y015250D01*
X001420Y015408D02*
X002258Y015408D01*
X002149Y015567D02*
X001420Y015567D01*
X001420Y015725D02*
X002149Y015725D01*
X002149Y015884D02*
X001420Y015884D01*
X001420Y016042D02*
X002292Y016042D01*
X002341Y015091D02*
X001420Y015091D01*
X001420Y014933D02*
X002182Y014933D01*
X002149Y014774D02*
X001420Y014774D01*
X001420Y014616D02*
X002149Y014616D01*
X002209Y014457D02*
X001420Y014457D01*
X001420Y014299D02*
X002367Y014299D01*
X002390Y014140D02*
X001420Y014140D01*
X001420Y013982D02*
X002231Y013982D01*
X002149Y013823D02*
X001420Y013823D01*
X001420Y013665D02*
X002149Y013665D01*
X002160Y013506D02*
X001420Y013506D01*
X001420Y013348D02*
X002318Y013348D01*
X002899Y013348D02*
X003090Y013348D01*
X003248Y013189D02*
X001420Y013189D01*
X002827Y014140D02*
X003390Y014140D01*
X003367Y014299D02*
X002850Y014299D01*
X003008Y014457D02*
X003209Y014457D01*
X003231Y013982D02*
X002986Y013982D01*
X005546Y012555D02*
X006794Y012555D01*
X006770Y012397D02*
X005570Y012397D01*
X005570Y012238D02*
X006770Y012238D01*
X006890Y012080D02*
X005450Y012080D01*
X006510Y013031D02*
X006934Y013031D01*
X006775Y013189D02*
X006597Y013189D01*
X006590Y013348D02*
X006617Y013348D01*
X007532Y010336D02*
X014128Y010336D01*
X013970Y010178D02*
X007410Y010178D01*
X009291Y009861D02*
X010749Y009861D01*
X010590Y009702D02*
X009450Y009702D01*
X009495Y009544D02*
X010545Y009544D01*
X010545Y009385D02*
X009495Y009385D01*
X009458Y009227D02*
X010582Y009227D01*
X010740Y009068D02*
X009300Y009068D01*
X015612Y009227D02*
X021850Y009227D01*
X021374Y008751D02*
X021284Y008751D01*
X021284Y007959D02*
X021385Y007959D01*
X021284Y007800D02*
X021543Y007800D01*
X021702Y007642D02*
X021284Y007642D01*
X021284Y007483D02*
X021860Y007483D01*
X022019Y007325D02*
X021284Y007325D01*
X021284Y007166D02*
X022177Y007166D01*
X022336Y007008D02*
X021284Y007008D01*
X023280Y007008D02*
X023280Y007008D01*
X023280Y007166D02*
X023280Y007166D01*
X023280Y007325D02*
X023280Y007325D01*
X023280Y007483D02*
X023280Y007483D01*
X023280Y007642D02*
X023280Y007642D01*
X023280Y007800D02*
X023280Y007800D01*
X023280Y007959D02*
X023280Y007959D01*
X023280Y008117D02*
X023280Y008117D01*
X023487Y008117D02*
X024061Y008117D01*
X023925Y007959D02*
X023635Y007959D01*
X023677Y007800D02*
X023883Y007800D01*
X023883Y007642D02*
X023677Y007642D01*
X023677Y007483D02*
X023883Y007483D01*
X023883Y007325D02*
X023677Y007325D01*
X023654Y007166D02*
X023906Y007166D01*
X024013Y007008D02*
X023547Y007008D01*
X026561Y009385D02*
X026993Y009385D01*
X026700Y011446D02*
X028940Y011446D01*
X029460Y011763D02*
X036293Y011763D01*
X036293Y011921D02*
X029460Y011921D01*
X029460Y012080D02*
X036293Y012080D01*
X036293Y012238D02*
X032407Y012238D01*
X032425Y012246D02*
X032537Y012357D01*
X032597Y012503D01*
X032597Y013137D01*
X032537Y013283D01*
X032425Y013394D01*
X032279Y013455D01*
X032121Y013455D01*
X031975Y013394D01*
X031863Y013283D01*
X031803Y013137D01*
X031803Y012503D01*
X031863Y012357D01*
X031975Y012246D01*
X032121Y012185D01*
X032279Y012185D01*
X032425Y012246D01*
X032553Y012397D02*
X036293Y012397D01*
X036293Y012555D02*
X032597Y012555D01*
X032597Y012714D02*
X036293Y012714D01*
X036293Y012872D02*
X032597Y012872D01*
X032597Y013031D02*
X036293Y013031D01*
X036293Y013189D02*
X032576Y013189D01*
X032472Y013348D02*
X036293Y013348D01*
X036293Y013506D02*
X029302Y013506D01*
X029143Y013665D02*
X036293Y013665D01*
X036293Y013823D02*
X028985Y013823D01*
X029413Y013982D02*
X030050Y013982D01*
X029935Y014096D02*
X030181Y013850D01*
X030529Y013850D01*
X030775Y014096D01*
X030775Y014444D01*
X030529Y014690D01*
X030181Y014690D01*
X029935Y014444D01*
X029935Y014096D01*
X029935Y014140D02*
X029572Y014140D01*
X029575Y014299D02*
X029935Y014299D01*
X029948Y014457D02*
X029575Y014457D01*
X029496Y014616D02*
X030107Y014616D01*
X030603Y014616D02*
X032107Y014616D01*
X032181Y014690D02*
X031935Y014444D01*
X031935Y014096D01*
X032181Y013850D01*
X032529Y013850D01*
X032775Y014096D01*
X032775Y014444D01*
X032529Y014690D01*
X032181Y014690D01*
X031948Y014457D02*
X030762Y014457D01*
X030775Y014299D02*
X031935Y014299D01*
X031935Y014140D02*
X030775Y014140D01*
X030660Y013982D02*
X032050Y013982D01*
X031425Y013394D02*
X031279Y013455D01*
X031121Y013455D01*
X030975Y013394D01*
X030863Y013283D01*
X030803Y013137D01*
X030803Y012503D01*
X030863Y012357D01*
X030975Y012246D01*
X031121Y012185D01*
X031279Y012185D01*
X031425Y012246D01*
X031537Y012357D01*
X031597Y012503D01*
X031597Y013137D01*
X031537Y013283D01*
X031425Y013394D01*
X031472Y013348D02*
X031928Y013348D01*
X031824Y013189D02*
X031576Y013189D01*
X031597Y013031D02*
X031803Y013031D01*
X031803Y012872D02*
X031597Y012872D01*
X031597Y012714D02*
X031803Y012714D01*
X031803Y012555D02*
X031597Y012555D01*
X031553Y012397D02*
X031847Y012397D01*
X031993Y012238D02*
X031407Y012238D01*
X030993Y012238D02*
X030446Y012238D01*
X030436Y012229D02*
X030554Y012346D01*
X030617Y012499D01*
X030617Y013141D01*
X030554Y013294D01*
X030436Y013411D01*
X030283Y013475D01*
X030117Y013475D01*
X029964Y013411D01*
X029846Y013294D01*
X029783Y013141D01*
X029783Y012499D01*
X029846Y012346D01*
X029964Y012229D01*
X030117Y012165D01*
X030283Y012165D01*
X030436Y012229D01*
X030575Y012397D02*
X030847Y012397D01*
X030803Y012555D02*
X030617Y012555D01*
X030617Y012714D02*
X030803Y012714D01*
X030803Y012872D02*
X030617Y012872D01*
X030617Y013031D02*
X030803Y013031D01*
X030824Y013189D02*
X030597Y013189D01*
X030500Y013348D02*
X030928Y013348D01*
X029900Y013348D02*
X029472Y013348D01*
X029576Y013189D02*
X029803Y013189D01*
X029783Y013031D02*
X029597Y013031D01*
X029597Y012872D02*
X029783Y012872D01*
X029783Y012714D02*
X029597Y012714D01*
X029597Y012555D02*
X029783Y012555D01*
X029825Y012397D02*
X029553Y012397D01*
X029460Y012238D02*
X029954Y012238D01*
X030232Y011129D02*
X030637Y011129D01*
X030723Y011215D02*
X030445Y010937D01*
X030445Y010740D01*
X030920Y010740D01*
X030920Y010740D01*
X030920Y010740D01*
X030920Y011215D01*
X030723Y011215D01*
X030920Y011129D02*
X030920Y011129D01*
X030920Y010970D02*
X030920Y010970D01*
X030920Y010812D02*
X030920Y010812D01*
X030920Y010740D02*
X030445Y010740D01*
X030445Y010543D01*
X030723Y010265D01*
X030920Y010265D01*
X030920Y010740D01*
X030920Y010653D02*
X030920Y010653D01*
X030920Y010495D02*
X030920Y010495D01*
X030920Y010336D02*
X030920Y010336D01*
X030652Y010336D02*
X030216Y010336D01*
X030354Y010495D02*
X030494Y010495D01*
X030445Y010653D02*
X030415Y010653D01*
X030415Y010812D02*
X030445Y010812D01*
X030478Y010970D02*
X030361Y010970D01*
X031203Y011129D02*
X032900Y011129D01*
X033004Y010970D02*
X031362Y010970D01*
X033596Y010970D02*
X034764Y010970D01*
X036293Y013982D02*
X032660Y013982D01*
X032775Y014140D02*
X036293Y014140D01*
X036293Y014299D02*
X032775Y014299D01*
X032762Y014457D02*
X036293Y014457D01*
X036293Y014616D02*
X032603Y014616D01*
X033054Y015600D02*
X033386Y015600D01*
X033606Y015820D01*
X034674Y015820D01*
X034894Y015600D01*
X035226Y015600D01*
X035460Y015834D01*
X035460Y016166D01*
X035226Y016400D01*
X034894Y016400D01*
X034714Y016220D01*
X033566Y016220D01*
X033386Y016400D01*
X033054Y016400D01*
X032820Y016166D01*
X032820Y015834D01*
X033054Y015600D01*
X032929Y015725D02*
X028600Y015725D01*
X028600Y015567D02*
X036293Y015567D01*
X036293Y015725D02*
X035351Y015725D01*
X035460Y015884D02*
X036293Y015884D01*
X036293Y016042D02*
X035460Y016042D01*
X035425Y016201D02*
X036293Y016201D01*
X036293Y016359D02*
X035267Y016359D01*
X035302Y016676D02*
X036293Y016676D01*
X036293Y016518D02*
X031395Y016518D01*
X031395Y016359D02*
X033013Y016359D01*
X032855Y016201D02*
X031395Y016201D01*
X031395Y016143D02*
X031395Y016340D01*
X030920Y016340D01*
X030920Y016340D01*
X030920Y015865D01*
X031117Y015865D01*
X031395Y016143D01*
X031294Y016042D02*
X032820Y016042D01*
X032820Y015884D02*
X031135Y015884D01*
X030920Y015884D02*
X030920Y015884D01*
X030920Y015865D02*
X030920Y016340D01*
X030920Y016340D01*
X030920Y016340D01*
X030445Y016340D01*
X030445Y016143D01*
X030723Y015865D01*
X030920Y015865D01*
X030920Y016042D02*
X030920Y016042D01*
X030920Y016201D02*
X030920Y016201D01*
X030705Y015884D02*
X030111Y015884D01*
X030200Y015920D02*
X030340Y016060D01*
X030415Y016242D01*
X030415Y016438D01*
X030340Y016620D01*
X030200Y016760D01*
X030018Y016835D01*
X029822Y016835D01*
X029640Y016760D01*
X029500Y016620D01*
X029425Y016438D01*
X029425Y016242D01*
X029500Y016060D01*
X029640Y015920D01*
X029822Y015845D01*
X030018Y015845D01*
X030200Y015920D01*
X030322Y016042D02*
X030546Y016042D01*
X030445Y016201D02*
X030398Y016201D01*
X030415Y016359D02*
X030445Y016359D01*
X030445Y016518D02*
X030382Y016518D01*
X030284Y016676D02*
X030584Y016676D01*
X030548Y016835D02*
X030020Y016835D01*
X029820Y016835D02*
X028600Y016835D01*
X028600Y016993D02*
X030450Y016993D01*
X030450Y017152D02*
X028719Y017152D01*
X028878Y017310D02*
X030450Y017310D01*
X030450Y017469D02*
X029036Y017469D01*
X029195Y017627D02*
X030450Y017627D01*
X030450Y017786D02*
X029353Y017786D01*
X029400Y017944D02*
X030450Y017944D01*
X030450Y018103D02*
X030390Y018103D01*
X030870Y018103D02*
X030878Y018103D01*
X030870Y017944D02*
X036293Y017944D01*
X036293Y017786D02*
X030870Y017786D01*
X030870Y017627D02*
X036293Y017627D01*
X036293Y017469D02*
X030870Y017469D01*
X030870Y017310D02*
X032964Y017310D01*
X033476Y017310D02*
X034804Y017310D01*
X035316Y017310D02*
X036293Y017310D01*
X036293Y017152D02*
X035460Y017152D01*
X035460Y016993D02*
X036293Y016993D01*
X036293Y016835D02*
X035460Y016835D01*
X034818Y016676D02*
X033462Y016676D01*
X033427Y016359D02*
X034853Y016359D01*
X034769Y015725D02*
X033511Y015725D01*
X032978Y016676D02*
X031256Y016676D01*
X031362Y018103D02*
X031878Y018103D01*
X031895Y018086D02*
X032041Y018025D01*
X032199Y018025D01*
X032345Y018086D01*
X032457Y018197D01*
X032517Y018343D01*
X032517Y018977D01*
X032457Y019123D01*
X032345Y019234D01*
X032199Y019295D01*
X032041Y019295D01*
X031895Y019234D01*
X031783Y019123D01*
X031723Y018977D01*
X031723Y018343D01*
X031783Y018197D01*
X031895Y018086D01*
X031757Y018261D02*
X031483Y018261D01*
X031517Y018420D02*
X031723Y018420D01*
X031723Y018578D02*
X031517Y018578D01*
X031517Y018737D02*
X031723Y018737D01*
X031723Y018895D02*
X031517Y018895D01*
X031486Y019054D02*
X031754Y019054D01*
X031872Y019212D02*
X031368Y019212D01*
X030872Y019212D02*
X030805Y019212D01*
X030646Y019371D02*
X036293Y019371D01*
X036293Y019529D02*
X030488Y019529D01*
X030329Y019688D02*
X036293Y019688D01*
X036293Y019846D02*
X032280Y019846D01*
X032269Y019835D02*
X032515Y020081D01*
X032515Y020429D01*
X032269Y020675D01*
X031921Y020675D01*
X031675Y020429D01*
X031675Y020081D01*
X031921Y019835D01*
X032269Y019835D01*
X032438Y020005D02*
X036293Y020005D01*
X036293Y020163D02*
X032515Y020163D01*
X032515Y020322D02*
X036293Y020322D01*
X036293Y020480D02*
X032464Y020480D01*
X032305Y020639D02*
X036293Y020639D01*
X036293Y020797D02*
X028600Y020797D01*
X028600Y020639D02*
X028647Y020639D01*
X028600Y020956D02*
X036293Y020956D01*
X036293Y021114D02*
X028600Y021114D01*
X028600Y021273D02*
X032982Y021273D01*
X032900Y021354D02*
X032900Y021686D01*
X033134Y021920D01*
X033466Y021920D01*
X033646Y021740D01*
X034714Y021740D01*
X034894Y021920D01*
X035226Y021920D01*
X035460Y021686D01*
X035460Y021354D01*
X035226Y021120D01*
X034894Y021120D01*
X034674Y021340D01*
X033686Y021340D01*
X033466Y021120D01*
X033134Y021120D01*
X032900Y021354D01*
X032900Y021431D02*
X028600Y021431D01*
X028600Y021590D02*
X029410Y021590D01*
X029340Y021660D02*
X029480Y021520D01*
X029662Y021445D01*
X029858Y021445D01*
X030040Y021520D01*
X030180Y021660D01*
X030255Y021842D01*
X030255Y022038D01*
X030180Y022220D01*
X030040Y022360D01*
X029858Y022435D01*
X029662Y022435D01*
X029480Y022360D01*
X029340Y022220D01*
X029265Y022038D01*
X029265Y021842D01*
X029340Y021660D01*
X029304Y021748D02*
X028600Y021748D01*
X028600Y021907D02*
X029265Y021907D01*
X029276Y022065D02*
X028600Y022065D01*
X028600Y022224D02*
X029343Y022224D01*
X029534Y022382D02*
X028600Y022382D01*
X028600Y022541D02*
X032362Y022541D01*
X032204Y022699D02*
X028600Y022699D01*
X028665Y022858D02*
X032045Y022858D01*
X031887Y023016D02*
X028824Y023016D01*
X028967Y023160D02*
X028967Y023160D01*
X028982Y023175D02*
X031728Y023175D01*
X031570Y023333D02*
X029080Y023333D01*
X029231Y023492D02*
X029661Y023492D01*
X029606Y023546D02*
X029724Y023429D01*
X029877Y023365D01*
X030043Y023365D01*
X030196Y023429D01*
X030314Y023546D01*
X030377Y023699D01*
X030377Y024341D01*
X030314Y024494D01*
X030196Y024611D01*
X030043Y024675D01*
X029877Y024675D01*
X029724Y024611D01*
X029606Y024494D01*
X029543Y024341D01*
X029543Y023699D01*
X029606Y023546D01*
X029563Y023650D02*
X029335Y023650D01*
X029357Y023809D02*
X029543Y023809D01*
X029543Y023967D02*
X029357Y023967D01*
X029357Y024126D02*
X029543Y024126D01*
X029543Y024284D02*
X029357Y024284D01*
X029314Y024443D02*
X029585Y024443D01*
X029713Y024601D02*
X029208Y024601D01*
X029107Y024740D02*
X029107Y024740D01*
X029088Y024760D02*
X031210Y024760D01*
X031210Y024770D02*
X031210Y024570D01*
X031185Y024594D01*
X031039Y024655D01*
X030881Y024655D01*
X030735Y024594D01*
X030623Y024483D01*
X030563Y024337D01*
X030563Y023703D01*
X030623Y023557D01*
X030735Y023446D01*
X030881Y023385D01*
X031039Y023385D01*
X031185Y023446D01*
X031297Y023557D01*
X031311Y023592D01*
X031333Y023570D01*
X032573Y022330D01*
X032924Y022330D01*
X033134Y022120D01*
X033466Y022120D01*
X033676Y022330D01*
X034684Y022330D01*
X034894Y022120D01*
X035226Y022120D01*
X035460Y022354D01*
X035460Y022686D01*
X035226Y022920D01*
X034894Y022920D01*
X034724Y022750D01*
X033636Y022750D01*
X033466Y022920D01*
X033134Y022920D01*
X032964Y022750D01*
X032747Y022750D01*
X032091Y023406D01*
X032185Y023446D01*
X032297Y023557D01*
X032357Y023703D01*
X032357Y024337D01*
X032297Y024483D01*
X032185Y024594D01*
X032039Y024655D01*
X031881Y024655D01*
X031735Y024594D01*
X031630Y024490D01*
X031630Y025067D01*
X031507Y025190D01*
X030474Y025190D01*
X030580Y025296D01*
X030580Y025644D01*
X030334Y025890D01*
X029986Y025890D01*
X029740Y025644D01*
X029740Y025597D01*
X029710Y025627D01*
X029587Y025750D01*
X029562Y025750D01*
X029297Y026015D01*
X028903Y026015D01*
X028625Y025737D01*
X028625Y025343D01*
X028903Y025065D01*
X029297Y025065D01*
X029487Y025256D01*
X029973Y024770D01*
X031210Y024770D01*
X031210Y024601D02*
X031169Y024601D01*
X030751Y024601D02*
X030207Y024601D01*
X030335Y024443D02*
X030606Y024443D01*
X030563Y024284D02*
X030377Y024284D01*
X030377Y024126D02*
X030563Y024126D01*
X030563Y023967D02*
X030377Y023967D01*
X030377Y023809D02*
X030563Y023809D01*
X030585Y023650D02*
X030357Y023650D01*
X030259Y023492D02*
X030689Y023492D01*
X031231Y023492D02*
X031411Y023492D01*
X032164Y023333D02*
X036293Y023333D01*
X036293Y023175D02*
X032322Y023175D01*
X032481Y023016D02*
X036293Y023016D01*
X036293Y022858D02*
X035288Y022858D01*
X035447Y022699D02*
X036293Y022699D01*
X036293Y022541D02*
X035460Y022541D01*
X035460Y022382D02*
X036293Y022382D01*
X036293Y022224D02*
X035329Y022224D01*
X035239Y021907D02*
X036293Y021907D01*
X036293Y022065D02*
X031235Y022065D01*
X031235Y022137D02*
X030957Y022415D01*
X030760Y022415D01*
X030760Y021940D01*
X031235Y021940D01*
X031235Y022137D01*
X031148Y022224D02*
X033031Y022224D01*
X033121Y021907D02*
X031235Y021907D01*
X031235Y021940D02*
X031235Y021743D01*
X030957Y021465D01*
X030760Y021465D01*
X030760Y021940D01*
X030760Y021940D01*
X030760Y021940D01*
X031235Y021940D01*
X031235Y021748D02*
X032962Y021748D01*
X032900Y021590D02*
X031081Y021590D01*
X030760Y021590D02*
X030760Y021590D01*
X030760Y021465D02*
X030760Y021940D01*
X030760Y021940D01*
X030760Y021940D01*
X030285Y021940D01*
X030285Y022137D01*
X030563Y022415D01*
X030760Y022415D01*
X030760Y021940D01*
X030285Y021940D01*
X030285Y021743D01*
X030563Y021465D01*
X030760Y021465D01*
X030760Y021748D02*
X030760Y021748D01*
X030760Y021907D02*
X030760Y021907D01*
X030760Y022065D02*
X030760Y022065D01*
X030760Y022224D02*
X030760Y022224D01*
X030760Y022382D02*
X030760Y022382D01*
X030990Y022382D02*
X032521Y022382D01*
X032639Y022858D02*
X033072Y022858D01*
X033528Y022858D02*
X034832Y022858D01*
X034791Y022224D02*
X033569Y022224D01*
X033479Y021907D02*
X034881Y021907D01*
X034722Y021748D02*
X033638Y021748D01*
X033618Y021273D02*
X034742Y021273D01*
X035378Y021273D02*
X036293Y021273D01*
X036293Y021431D02*
X035460Y021431D01*
X035460Y021590D02*
X036293Y021590D01*
X036293Y021748D02*
X035398Y021748D01*
X036293Y023492D02*
X032231Y023492D01*
X032335Y023650D02*
X036293Y023650D01*
X036293Y023809D02*
X032357Y023809D01*
X032357Y023967D02*
X036293Y023967D01*
X036293Y024126D02*
X032357Y024126D01*
X032357Y024284D02*
X036293Y024284D01*
X036293Y024443D02*
X032314Y024443D01*
X032169Y024601D02*
X036293Y024601D01*
X036293Y024760D02*
X031630Y024760D01*
X031630Y024918D02*
X036293Y024918D01*
X036293Y025077D02*
X032361Y025077D01*
X032334Y025050D02*
X032580Y025296D01*
X032580Y025644D01*
X032334Y025890D01*
X031986Y025890D01*
X031740Y025644D01*
X031740Y025296D01*
X031986Y025050D01*
X032334Y025050D01*
X032519Y025235D02*
X036293Y025235D01*
X036293Y025394D02*
X032580Y025394D01*
X032580Y025552D02*
X036293Y025552D01*
X036293Y025711D02*
X032513Y025711D01*
X032355Y025869D02*
X036293Y025869D01*
X036293Y026028D02*
X028600Y026028D01*
X028600Y026186D02*
X036293Y026186D01*
X036293Y026345D02*
X028600Y026345D01*
X028600Y026503D02*
X036293Y026503D01*
X036293Y026662D02*
X028600Y026662D01*
X028600Y026820D02*
X036293Y026820D01*
X036293Y026979D02*
X028600Y026979D01*
X028600Y027137D02*
X029303Y027137D01*
X029320Y027120D02*
X029502Y027045D01*
X029698Y027045D01*
X029880Y027120D01*
X030020Y027260D01*
X030095Y027442D01*
X030095Y027638D01*
X030020Y027820D01*
X029880Y027960D01*
X029698Y028035D01*
X029502Y028035D01*
X029320Y027960D01*
X029180Y027820D01*
X029105Y027638D01*
X029105Y027442D01*
X029180Y027260D01*
X029320Y027120D01*
X029165Y027296D02*
X028600Y027296D01*
X028600Y027454D02*
X029105Y027454D01*
X029105Y027613D02*
X028600Y027613D01*
X028600Y027771D02*
X029160Y027771D01*
X029290Y027930D02*
X028600Y027930D01*
X028600Y028088D02*
X036293Y028088D01*
X036293Y027930D02*
X030882Y027930D01*
X030797Y028015D02*
X030600Y028015D01*
X030600Y027540D01*
X031075Y027540D01*
X031075Y027737D01*
X030797Y028015D01*
X030600Y028015D02*
X030600Y027540D01*
X030600Y027540D01*
X030600Y027540D01*
X031075Y027540D01*
X031075Y027343D01*
X030797Y027065D01*
X030600Y027065D01*
X030600Y027540D01*
X030600Y027540D01*
X030600Y027540D01*
X030125Y027540D01*
X030125Y027737D01*
X030403Y028015D01*
X030600Y028015D01*
X030600Y027930D02*
X030600Y027930D01*
X030600Y027771D02*
X030600Y027771D01*
X030600Y027613D02*
X030600Y027613D01*
X030600Y027540D02*
X030125Y027540D01*
X030125Y027343D01*
X030403Y027065D01*
X030600Y027065D01*
X030600Y027540D01*
X030600Y027454D02*
X030600Y027454D01*
X030600Y027296D02*
X030600Y027296D01*
X030600Y027137D02*
X030600Y027137D01*
X030869Y027137D02*
X033037Y027137D01*
X033054Y027120D02*
X033386Y027120D01*
X033606Y027340D01*
X034594Y027340D01*
X034814Y027120D01*
X035146Y027120D01*
X035380Y027354D01*
X035380Y027686D01*
X035146Y027920D01*
X034814Y027920D01*
X034634Y027740D01*
X033566Y027740D01*
X033386Y027920D01*
X033054Y027920D01*
X032820Y027686D01*
X032820Y027354D01*
X033054Y027120D01*
X032879Y027296D02*
X031027Y027296D01*
X031075Y027454D02*
X032820Y027454D01*
X032820Y027613D02*
X031075Y027613D01*
X031041Y027771D02*
X032905Y027771D01*
X033054Y028120D02*
X032820Y028354D01*
X032820Y028686D01*
X033054Y028920D01*
X033386Y028920D01*
X033556Y028750D01*
X034644Y028750D01*
X034814Y028920D01*
X035146Y028920D01*
X035380Y028686D01*
X035380Y028354D01*
X035146Y028120D01*
X034814Y028120D01*
X034604Y028330D01*
X033596Y028330D01*
X033386Y028120D01*
X033054Y028120D01*
X032928Y028247D02*
X028600Y028247D01*
X028613Y028405D02*
X032820Y028405D01*
X032820Y028564D02*
X028771Y028564D01*
X028930Y028722D02*
X032856Y028722D01*
X033015Y028881D02*
X029060Y028881D01*
X029080Y029039D02*
X029553Y029039D01*
X029564Y029029D02*
X029717Y028965D01*
X029883Y028965D01*
X030036Y029029D01*
X030154Y029146D01*
X030217Y029299D01*
X030217Y029941D01*
X030154Y030094D01*
X030036Y030211D01*
X029883Y030275D01*
X029717Y030275D01*
X029564Y030211D01*
X029446Y030094D01*
X029383Y029941D01*
X029383Y029299D01*
X029446Y029146D01*
X029564Y029029D01*
X029425Y029198D02*
X029154Y029198D01*
X029197Y029356D02*
X029383Y029356D01*
X029383Y029515D02*
X029197Y029515D01*
X029197Y029673D02*
X029383Y029673D01*
X029383Y029832D02*
X029197Y029832D01*
X029175Y029990D02*
X029403Y029990D01*
X029501Y030149D02*
X029071Y030149D01*
X028529Y030149D02*
X028071Y030149D01*
X028025Y030194D02*
X028137Y030083D01*
X028197Y029937D01*
X028197Y029303D01*
X028137Y029157D01*
X028025Y029046D01*
X027879Y028985D01*
X027721Y028985D01*
X027575Y029046D01*
X027463Y029157D01*
X027403Y029303D01*
X027403Y029937D01*
X027463Y030083D01*
X027575Y030194D01*
X027721Y030255D01*
X027879Y030255D01*
X028025Y030194D01*
X028175Y029990D02*
X028425Y029990D01*
X028403Y029832D02*
X028197Y029832D01*
X028197Y029673D02*
X028403Y029673D01*
X028403Y029515D02*
X028197Y029515D01*
X028197Y029356D02*
X028403Y029356D01*
X028446Y029198D02*
X028154Y029198D01*
X028009Y029039D02*
X028511Y029039D01*
X028353Y028881D02*
X028299Y028881D01*
X027591Y029039D02*
X027009Y029039D01*
X027025Y029046D02*
X027137Y029157D01*
X027197Y029303D01*
X027197Y029937D01*
X027137Y030083D01*
X027025Y030194D01*
X026879Y030255D01*
X026721Y030255D01*
X026575Y030194D01*
X026463Y030083D01*
X026403Y029937D01*
X026403Y029303D01*
X026463Y029157D01*
X026575Y029046D01*
X026721Y028985D01*
X026879Y028985D01*
X027025Y029046D01*
X027154Y029198D02*
X027446Y029198D01*
X027403Y029356D02*
X027197Y029356D01*
X027197Y029515D02*
X027403Y029515D01*
X027403Y029673D02*
X027197Y029673D01*
X027197Y029832D02*
X027403Y029832D01*
X027425Y029990D02*
X027175Y029990D01*
X027071Y030149D02*
X027529Y030149D01*
X027377Y030745D02*
X026983Y030745D01*
X026758Y030970D01*
X026471Y030970D01*
X026291Y030790D01*
X025959Y030790D01*
X025725Y031024D01*
X025725Y031356D01*
X025959Y031590D01*
X026291Y031590D01*
X026491Y031390D01*
X026693Y031390D01*
X026705Y031402D01*
X026705Y031417D01*
X026983Y031695D01*
X027377Y031695D01*
X027655Y031417D01*
X027655Y031023D01*
X027377Y030745D01*
X027414Y030783D02*
X028946Y030783D01*
X028983Y030745D02*
X029377Y030745D01*
X029655Y031023D01*
X029655Y031417D01*
X029377Y031695D01*
X028983Y031695D01*
X028705Y031417D01*
X028705Y031023D01*
X028983Y030745D01*
X028787Y030941D02*
X027573Y030941D01*
X027655Y031100D02*
X028705Y031100D01*
X028705Y031258D02*
X027655Y031258D01*
X027655Y031417D02*
X028705Y031417D01*
X028863Y031575D02*
X027497Y031575D01*
X026863Y031575D02*
X026306Y031575D01*
X026464Y031417D02*
X026705Y031417D01*
X026787Y030941D02*
X026442Y030941D01*
X026946Y030783D02*
X023954Y030783D01*
X024027Y030710D02*
X023630Y031107D01*
X023525Y031212D01*
X023525Y031356D01*
X023291Y031590D01*
X022959Y031590D01*
X022725Y031356D01*
X022725Y031302D01*
X022293Y030870D01*
X021284Y030870D01*
X021284Y030894D01*
X021190Y030988D01*
X020290Y030988D01*
X020196Y030894D01*
X020196Y029994D01*
X020238Y029952D01*
X020196Y029910D01*
X020196Y029010D01*
X020290Y028916D01*
X021190Y028916D01*
X021284Y029010D01*
X021284Y029910D01*
X021242Y029952D01*
X021284Y029994D01*
X021284Y030427D01*
X021307Y030450D01*
X022467Y030450D01*
X022590Y030573D01*
X022883Y030866D01*
X022959Y030790D01*
X023291Y030790D01*
X023311Y030810D01*
X023333Y030810D01*
X023853Y030290D01*
X031013Y030290D01*
X031293Y030010D01*
X031333Y030010D01*
X031404Y029939D01*
X031403Y029937D01*
X031403Y029303D01*
X031463Y029157D01*
X031575Y029046D01*
X031721Y028985D01*
X031879Y028985D01*
X032025Y029046D01*
X032137Y029157D01*
X032197Y029303D01*
X032197Y029937D01*
X032137Y030083D01*
X032025Y030194D01*
X031879Y030255D01*
X031721Y030255D01*
X031693Y030244D01*
X031630Y030307D01*
X031507Y030430D01*
X031467Y030430D01*
X031310Y030587D01*
X031187Y030710D01*
X024027Y030710D01*
X023796Y030941D02*
X025808Y030941D01*
X025725Y031100D02*
X023637Y031100D01*
X023525Y031258D02*
X025725Y031258D01*
X025786Y031417D02*
X023464Y031417D01*
X023306Y031575D02*
X025944Y031575D01*
X025025Y030194D02*
X024879Y030255D01*
X024721Y030255D01*
X024575Y030194D01*
X024463Y030083D01*
X024403Y029937D01*
X024403Y029303D01*
X024463Y029157D01*
X024575Y029046D01*
X024721Y028985D01*
X024879Y028985D01*
X025025Y029046D01*
X025137Y029157D01*
X025197Y029303D01*
X025197Y029937D01*
X025137Y030083D01*
X025025Y030194D01*
X025071Y030149D02*
X025529Y030149D01*
X025425Y029990D02*
X025175Y029990D01*
X025197Y029832D02*
X025403Y029832D01*
X025403Y029673D02*
X025197Y029673D01*
X025197Y029515D02*
X025403Y029515D01*
X025403Y029356D02*
X025197Y029356D01*
X025154Y029198D02*
X025446Y029198D01*
X025591Y029039D02*
X025009Y029039D01*
X025008Y028997D02*
X024967Y028986D01*
X024931Y028965D01*
X024901Y028935D01*
X024880Y028899D01*
X024869Y028858D01*
X024869Y028658D01*
X025227Y028658D01*
X025227Y028997D01*
X025008Y028997D01*
X024875Y028881D02*
X013140Y028881D01*
X013140Y029039D02*
X013633Y029039D01*
X013644Y029029D02*
X013797Y028965D01*
X013963Y028965D01*
X014116Y029029D01*
X014234Y029146D01*
X014297Y029299D01*
X014297Y029941D01*
X014234Y030094D01*
X014116Y030211D01*
X013963Y030275D01*
X013797Y030275D01*
X013644Y030211D01*
X013526Y030094D01*
X013463Y029941D01*
X013463Y029299D01*
X013526Y029146D01*
X013644Y029029D01*
X013505Y029198D02*
X013234Y029198D01*
X013277Y029356D02*
X013463Y029356D01*
X013463Y029515D02*
X013277Y029515D01*
X013277Y029673D02*
X013463Y029673D01*
X013463Y029832D02*
X013277Y029832D01*
X013255Y029990D02*
X013483Y029990D01*
X013581Y030149D02*
X013151Y030149D01*
X012609Y030149D02*
X012151Y030149D01*
X012105Y030194D02*
X012217Y030083D01*
X012277Y029937D01*
X012277Y029303D01*
X012217Y029157D01*
X012105Y029046D01*
X011959Y028985D01*
X011801Y028985D01*
X011655Y029046D01*
X011543Y029157D01*
X011483Y029303D01*
X011483Y029937D01*
X011543Y030083D01*
X011655Y030194D01*
X011801Y030255D01*
X011959Y030255D01*
X012105Y030194D01*
X012255Y029990D02*
X012505Y029990D01*
X012483Y029832D02*
X012277Y029832D01*
X012277Y029673D02*
X012483Y029673D01*
X012483Y029515D02*
X012277Y029515D01*
X012277Y029356D02*
X012483Y029356D01*
X012526Y029198D02*
X012234Y029198D01*
X012089Y029039D02*
X012620Y029039D01*
X012620Y028881D02*
X010441Y028881D01*
X010655Y029046D02*
X010801Y028985D01*
X010959Y028985D01*
X011105Y029046D01*
X011217Y029157D01*
X011277Y029303D01*
X011277Y029937D01*
X011217Y030083D01*
X011105Y030194D01*
X010959Y030255D01*
X010801Y030255D01*
X010655Y030194D01*
X010543Y030083D01*
X010483Y029937D01*
X010483Y029303D01*
X010543Y029157D01*
X010655Y029046D01*
X010671Y029039D02*
X010089Y029039D01*
X010234Y029198D02*
X010526Y029198D01*
X010483Y029356D02*
X010277Y029356D01*
X010277Y029515D02*
X010483Y029515D01*
X010483Y029673D02*
X010277Y029673D01*
X010277Y029832D02*
X010483Y029832D01*
X010505Y029990D02*
X010255Y029990D01*
X010151Y030149D02*
X010609Y030149D01*
X010653Y030410D02*
X015853Y030410D01*
X016043Y030220D01*
X015959Y030255D01*
X015801Y030255D01*
X015655Y030194D01*
X015543Y030083D01*
X015483Y029937D01*
X015483Y029303D01*
X015543Y029157D01*
X015655Y029046D01*
X015801Y028985D01*
X015959Y028985D01*
X016105Y029046D01*
X016217Y029157D01*
X016277Y029303D01*
X016277Y029410D01*
X016333Y029410D01*
X016533Y029210D01*
X017636Y029210D01*
X017636Y028986D01*
X017730Y028892D01*
X018630Y028892D01*
X018724Y028986D01*
X018724Y029886D01*
X018682Y029928D01*
X018724Y029970D01*
X018724Y030870D01*
X018630Y030964D01*
X017730Y030964D01*
X017636Y030870D01*
X017636Y030630D01*
X016227Y030630D01*
X016150Y030707D01*
X016027Y030830D01*
X010827Y030830D01*
X010275Y031382D01*
X010275Y031517D01*
X009997Y031795D01*
X009603Y031795D01*
X009325Y031517D01*
X009325Y031123D01*
X009603Y030845D01*
X009997Y030845D01*
X010107Y030956D01*
X010653Y030410D01*
X010597Y030466D02*
X006650Y030466D01*
X006650Y030624D02*
X010439Y030624D01*
X010280Y030783D02*
X006650Y030783D01*
X006650Y030941D02*
X008125Y030941D01*
X008151Y030915D02*
X008499Y030915D01*
X008745Y031161D01*
X008745Y031509D01*
X008499Y031755D01*
X008151Y031755D01*
X007905Y031509D01*
X007905Y031161D01*
X008151Y030915D01*
X007966Y031100D02*
X006684Y031100D01*
X006745Y031258D02*
X007905Y031258D01*
X007905Y031417D02*
X006745Y031417D01*
X006679Y031575D02*
X007971Y031575D01*
X008130Y031734D02*
X006520Y031734D01*
X006130Y031734D02*
X003649Y031734D01*
X003624Y031759D02*
X003289Y031897D01*
X002928Y031897D01*
X002593Y031759D01*
X002337Y031503D01*
X002199Y031169D01*
X002199Y030807D01*
X002337Y030472D01*
X002593Y030216D01*
X002928Y030078D01*
X003289Y030078D01*
X003624Y030216D01*
X003880Y030472D01*
X004018Y030807D01*
X004018Y031169D01*
X003880Y031503D01*
X003624Y031759D01*
X003808Y031575D02*
X005971Y031575D01*
X005905Y031417D02*
X003916Y031417D01*
X003981Y031258D02*
X005905Y031258D01*
X005966Y031100D02*
X004018Y031100D01*
X004018Y030941D02*
X006090Y030941D01*
X006090Y030783D02*
X004008Y030783D01*
X003943Y030624D02*
X006090Y030624D01*
X006090Y030466D02*
X003873Y030466D01*
X003715Y030307D02*
X006090Y030307D01*
X006090Y030149D02*
X003461Y030149D01*
X002756Y030149D02*
X001420Y030149D01*
X001420Y030307D02*
X002502Y030307D01*
X002344Y030466D02*
X001420Y030466D01*
X001420Y030624D02*
X002274Y030624D01*
X002209Y030783D02*
X001420Y030783D01*
X001420Y030941D02*
X002199Y030941D01*
X002199Y031100D02*
X001420Y031100D01*
X001420Y031258D02*
X002236Y031258D01*
X002301Y031417D02*
X001420Y031417D01*
X001420Y031575D02*
X002409Y031575D01*
X002568Y031734D02*
X001420Y031734D01*
X001420Y031892D02*
X002914Y031892D01*
X003303Y031892D02*
X034410Y031892D01*
X034424Y031897D02*
X034089Y031759D01*
X033833Y031503D01*
X033695Y031169D01*
X033695Y030807D01*
X033833Y030472D01*
X034089Y030216D01*
X034424Y030078D01*
X034786Y030078D01*
X035120Y030216D01*
X035376Y030472D01*
X035514Y030807D01*
X035514Y031169D01*
X035376Y031503D01*
X035120Y031759D01*
X034786Y031897D01*
X034424Y031897D01*
X034799Y031892D02*
X036293Y031892D01*
X036293Y031734D02*
X035145Y031734D01*
X035304Y031575D02*
X036293Y031575D01*
X036293Y031417D02*
X035412Y031417D01*
X035477Y031258D02*
X036293Y031258D01*
X036293Y031100D02*
X035514Y031100D01*
X035514Y030941D02*
X036293Y030941D01*
X036293Y030783D02*
X035505Y030783D01*
X035439Y030624D02*
X036293Y030624D01*
X036293Y030466D02*
X035369Y030466D01*
X035211Y030307D02*
X036293Y030307D01*
X036293Y030149D02*
X034957Y030149D01*
X034252Y030149D02*
X032071Y030149D01*
X032175Y029990D02*
X036293Y029990D01*
X036293Y029832D02*
X032197Y029832D01*
X032197Y029673D02*
X036293Y029673D01*
X036293Y029515D02*
X032197Y029515D01*
X032197Y029356D02*
X036293Y029356D01*
X036293Y029198D02*
X032154Y029198D01*
X032009Y029039D02*
X036293Y029039D01*
X036293Y028881D02*
X035185Y028881D01*
X035344Y028722D02*
X036293Y028722D01*
X036293Y028564D02*
X035380Y028564D01*
X035380Y028405D02*
X036293Y028405D01*
X036293Y028247D02*
X035272Y028247D01*
X035295Y027771D02*
X036293Y027771D01*
X036293Y027613D02*
X035380Y027613D01*
X035380Y027454D02*
X036293Y027454D01*
X036293Y027296D02*
X035321Y027296D01*
X035163Y027137D02*
X036293Y027137D01*
X034797Y027137D02*
X033403Y027137D01*
X033561Y027296D02*
X034639Y027296D01*
X034665Y027771D02*
X033535Y027771D01*
X033512Y028247D02*
X034688Y028247D01*
X034775Y028881D02*
X033425Y028881D01*
X033998Y030307D02*
X031630Y030307D01*
X031431Y030466D02*
X033840Y030466D01*
X033770Y030624D02*
X031273Y030624D01*
X031025Y030194D02*
X030879Y030255D01*
X030721Y030255D01*
X030575Y030194D01*
X030463Y030083D01*
X030403Y029937D01*
X030403Y029303D01*
X030463Y029157D01*
X030575Y029046D01*
X030721Y028985D01*
X030879Y028985D01*
X031025Y029046D01*
X031137Y029157D01*
X031197Y029303D01*
X031197Y029937D01*
X031137Y030083D01*
X031025Y030194D01*
X031071Y030149D02*
X031154Y030149D01*
X031175Y029990D02*
X031353Y029990D01*
X031403Y029832D02*
X031197Y029832D01*
X031197Y029673D02*
X031403Y029673D01*
X031403Y029515D02*
X031197Y029515D01*
X031197Y029356D02*
X031403Y029356D01*
X031446Y029198D02*
X031154Y029198D01*
X031009Y029039D02*
X031591Y029039D01*
X030591Y029039D02*
X030047Y029039D01*
X030175Y029198D02*
X030446Y029198D01*
X030403Y029356D02*
X030217Y029356D01*
X030217Y029515D02*
X030403Y029515D01*
X030403Y029673D02*
X030217Y029673D01*
X030217Y029832D02*
X030403Y029832D01*
X030425Y029990D02*
X030197Y029990D01*
X030099Y030149D02*
X030529Y030149D01*
X030479Y030710D02*
X030131Y030710D01*
X029885Y030956D01*
X029885Y031304D01*
X030131Y031550D01*
X030479Y031550D01*
X030725Y031304D01*
X030725Y030956D01*
X030479Y030710D01*
X030552Y030783D02*
X032058Y030783D01*
X032131Y030710D02*
X032479Y030710D01*
X032725Y030956D01*
X032725Y031304D01*
X032479Y031550D01*
X032131Y031550D01*
X031885Y031304D01*
X031885Y030956D01*
X032131Y030710D01*
X031900Y030941D02*
X030710Y030941D01*
X030725Y031100D02*
X031885Y031100D01*
X031885Y031258D02*
X030725Y031258D01*
X030612Y031417D02*
X031998Y031417D01*
X032612Y031417D02*
X033797Y031417D01*
X033732Y031258D02*
X032725Y031258D01*
X032725Y031100D02*
X033695Y031100D01*
X033695Y030941D02*
X032710Y030941D01*
X032552Y030783D02*
X033705Y030783D01*
X033905Y031575D02*
X029497Y031575D01*
X029655Y031417D02*
X029998Y031417D01*
X029885Y031258D02*
X029655Y031258D01*
X029655Y031100D02*
X029885Y031100D01*
X029900Y030941D02*
X029573Y030941D01*
X029414Y030783D02*
X030058Y030783D01*
X028080Y028247D02*
X013601Y028247D01*
X013443Y028405D02*
X024873Y028405D01*
X024869Y028564D02*
X013284Y028564D01*
X013140Y028722D02*
X024869Y028722D01*
X025227Y028722D02*
X025264Y028722D01*
X025264Y028564D02*
X025227Y028564D01*
X025227Y028405D02*
X025264Y028405D01*
X025264Y028881D02*
X025227Y028881D01*
X024591Y029039D02*
X024009Y029039D01*
X024025Y029046D02*
X024137Y029157D01*
X024197Y029303D01*
X024197Y029937D01*
X024137Y030083D01*
X024025Y030194D01*
X023879Y030255D01*
X023721Y030255D01*
X023575Y030194D01*
X023463Y030083D01*
X023403Y029937D01*
X023403Y029303D01*
X023463Y029157D01*
X023575Y029046D01*
X023721Y028985D01*
X023879Y028985D01*
X024025Y029046D01*
X024154Y029198D02*
X024446Y029198D01*
X024403Y029356D02*
X024197Y029356D01*
X024197Y029515D02*
X024403Y029515D01*
X024403Y029673D02*
X024197Y029673D01*
X024197Y029832D02*
X024403Y029832D01*
X024425Y029990D02*
X024175Y029990D01*
X024071Y030149D02*
X024529Y030149D01*
X023836Y030307D02*
X021284Y030307D01*
X021284Y030149D02*
X022529Y030149D01*
X022547Y030166D02*
X022491Y030111D01*
X022448Y030046D01*
X022418Y029973D01*
X022403Y029897D01*
X022403Y029620D01*
X022403Y029343D01*
X022418Y029267D01*
X022448Y029194D01*
X022491Y029129D01*
X022547Y029074D01*
X022612Y029030D01*
X022684Y029000D01*
X022761Y028985D01*
X022800Y028985D01*
X022839Y028985D01*
X022916Y029000D01*
X022988Y029030D01*
X023053Y029074D01*
X023109Y029129D01*
X023152Y029194D01*
X023182Y029267D01*
X023197Y029343D01*
X023197Y029620D01*
X023197Y029897D01*
X023182Y029973D01*
X023152Y030046D01*
X023109Y030111D01*
X023053Y030166D01*
X022988Y030210D01*
X022916Y030240D01*
X022839Y030255D01*
X022800Y030255D01*
X022761Y030255D01*
X022684Y030240D01*
X022612Y030210D01*
X022547Y030166D01*
X022425Y029990D02*
X021280Y029990D01*
X021284Y029832D02*
X022403Y029832D01*
X022403Y029673D02*
X021284Y029673D01*
X021284Y029515D02*
X022403Y029515D01*
X022403Y029620D02*
X022800Y029620D01*
X023197Y029620D01*
X022800Y029620D01*
X022800Y029620D01*
X022800Y029620D01*
X022800Y030255D01*
X022800Y029620D01*
X022800Y028985D01*
X022800Y029620D01*
X022800Y029620D01*
X022800Y029620D01*
X022403Y029620D01*
X022403Y029356D02*
X021284Y029356D01*
X021284Y029198D02*
X022446Y029198D01*
X022599Y029039D02*
X021284Y029039D01*
X020196Y029039D02*
X018724Y029039D01*
X018724Y029198D02*
X020196Y029198D01*
X020196Y029356D02*
X018724Y029356D01*
X018724Y029515D02*
X020196Y029515D01*
X020196Y029673D02*
X018724Y029673D01*
X018724Y029832D02*
X020196Y029832D01*
X020200Y029990D02*
X018724Y029990D01*
X018724Y030149D02*
X020196Y030149D01*
X020196Y030307D02*
X018724Y030307D01*
X018724Y030466D02*
X020196Y030466D01*
X020196Y030624D02*
X018724Y030624D01*
X018724Y030783D02*
X020196Y030783D01*
X020243Y030941D02*
X018653Y030941D01*
X017707Y030941D02*
X016292Y030941D01*
X016271Y030920D02*
X016505Y031154D01*
X016505Y031486D01*
X016271Y031720D01*
X015939Y031720D01*
X015705Y031486D01*
X015705Y031154D01*
X015939Y030920D01*
X016271Y030920D01*
X016074Y030783D02*
X017636Y030783D01*
X016505Y031258D02*
X022681Y031258D01*
X022786Y031417D02*
X016505Y031417D01*
X016416Y031575D02*
X022944Y031575D01*
X022523Y031100D02*
X016450Y031100D01*
X015918Y030941D02*
X013292Y030941D01*
X013271Y030920D02*
X013505Y031154D01*
X013505Y031486D01*
X013271Y031720D01*
X012939Y031720D01*
X012769Y031550D01*
X012242Y031550D01*
X011997Y031795D01*
X011603Y031795D01*
X011325Y031517D01*
X011325Y031123D01*
X011603Y030845D01*
X011997Y030845D01*
X012275Y031123D01*
X012275Y031130D01*
X012729Y031130D01*
X012939Y030920D01*
X013271Y030920D01*
X013450Y031100D02*
X015760Y031100D01*
X015705Y031258D02*
X013505Y031258D01*
X013505Y031417D02*
X015705Y031417D01*
X015794Y031575D02*
X013416Y031575D01*
X012794Y031575D02*
X012217Y031575D01*
X012058Y031734D02*
X034064Y031734D01*
X036293Y032051D02*
X001420Y032051D01*
X001420Y032209D02*
X036293Y032209D01*
X036293Y032368D02*
X001420Y032368D01*
X001420Y032526D02*
X036293Y032526D01*
X030318Y027930D02*
X029910Y027930D01*
X030040Y027771D02*
X030159Y027771D01*
X030125Y027613D02*
X030095Y027613D01*
X030095Y027454D02*
X030125Y027454D01*
X030173Y027296D02*
X030035Y027296D01*
X029897Y027137D02*
X030331Y027137D01*
X030355Y025869D02*
X031965Y025869D01*
X031807Y025711D02*
X030513Y025711D01*
X030580Y025552D02*
X031740Y025552D01*
X031740Y025394D02*
X030580Y025394D01*
X030519Y025235D02*
X031801Y025235D01*
X031959Y025077D02*
X031620Y025077D01*
X031630Y024601D02*
X031751Y024601D01*
X029965Y025869D02*
X029443Y025869D01*
X029626Y025711D02*
X029807Y025711D01*
X029508Y025235D02*
X029467Y025235D01*
X029308Y025077D02*
X029666Y025077D01*
X029825Y024918D02*
X028930Y024918D01*
X028892Y025077D02*
X028771Y025077D01*
X028733Y025235D02*
X028613Y025235D01*
X028600Y025394D02*
X028625Y025394D01*
X028625Y025552D02*
X028600Y025552D01*
X028600Y025711D02*
X028625Y025711D01*
X028600Y025869D02*
X028757Y025869D01*
X028080Y025552D02*
X027575Y025552D01*
X027575Y025394D02*
X028080Y025394D01*
X028080Y025235D02*
X027467Y025235D01*
X027308Y025077D02*
X028085Y025077D01*
X028193Y024920D02*
X028193Y024920D01*
X028194Y024918D02*
X021284Y024918D01*
X021284Y024760D02*
X028353Y024760D01*
X028511Y024601D02*
X028169Y024601D01*
X028185Y024594D02*
X028039Y024655D01*
X027881Y024655D01*
X027735Y024594D01*
X027623Y024483D01*
X027563Y024337D01*
X027563Y023703D01*
X027623Y023557D01*
X027735Y023446D01*
X027881Y023385D01*
X028039Y023385D01*
X028185Y023446D01*
X028297Y023557D01*
X028357Y023703D01*
X028357Y024337D01*
X028297Y024483D01*
X028185Y024594D01*
X028314Y024443D02*
X028606Y024443D01*
X028563Y024284D02*
X028357Y024284D01*
X028357Y024126D02*
X028563Y024126D01*
X028563Y023967D02*
X028357Y023967D01*
X028357Y023809D02*
X028560Y023809D01*
X028560Y023650D02*
X028335Y023650D01*
X028231Y023492D02*
X028560Y023492D01*
X028405Y023333D02*
X028257Y023333D01*
X027689Y023492D02*
X027231Y023492D01*
X027185Y023446D02*
X027297Y023557D01*
X027357Y023703D01*
X027357Y024337D01*
X027297Y024483D01*
X027185Y024594D01*
X027039Y024655D01*
X026881Y024655D01*
X026735Y024594D01*
X026623Y024483D01*
X026563Y024337D01*
X026563Y023703D01*
X026623Y023557D01*
X026735Y023446D01*
X026881Y023385D01*
X027039Y023385D01*
X027185Y023446D01*
X027335Y023650D02*
X027585Y023650D01*
X027563Y023809D02*
X027357Y023809D01*
X027357Y023967D02*
X027563Y023967D01*
X027563Y024126D02*
X027357Y024126D01*
X027357Y024284D02*
X027563Y024284D01*
X027606Y024443D02*
X027314Y024443D01*
X027169Y024601D02*
X027751Y024601D01*
X026892Y025077D02*
X022534Y025077D01*
X022692Y025235D02*
X022769Y025235D01*
X022415Y025552D02*
X021284Y025552D01*
X021284Y024601D02*
X022759Y024601D01*
X022772Y024610D02*
X022707Y024566D01*
X022651Y024511D01*
X022608Y024446D01*
X022578Y024373D01*
X022563Y024297D01*
X022563Y024020D01*
X022563Y023743D01*
X022578Y023667D01*
X022608Y023594D01*
X022651Y023529D01*
X022707Y023474D01*
X022772Y023430D01*
X022844Y023400D01*
X022921Y023385D01*
X022960Y023385D01*
X022999Y023385D01*
X023076Y023400D01*
X023148Y023430D01*
X023213Y023474D01*
X023269Y023529D01*
X023312Y023594D01*
X023342Y023667D01*
X023357Y023743D01*
X023357Y024020D01*
X023357Y024297D01*
X023342Y024373D01*
X023312Y024446D01*
X023269Y024511D01*
X023213Y024566D01*
X023148Y024610D01*
X023076Y024640D01*
X022999Y024655D01*
X022960Y024655D01*
X022921Y024655D01*
X022844Y024640D01*
X022772Y024610D01*
X022960Y024601D02*
X022960Y024601D01*
X022960Y024655D02*
X022960Y024020D01*
X023357Y024020D01*
X022960Y024020D01*
X022960Y024020D01*
X022960Y024020D01*
X022960Y024655D01*
X023161Y024601D02*
X023751Y024601D01*
X023735Y024594D02*
X023623Y024483D01*
X023563Y024337D01*
X023563Y023703D01*
X023623Y023557D01*
X023735Y023446D01*
X023881Y023385D01*
X024039Y023385D01*
X024185Y023446D01*
X024297Y023557D01*
X024357Y023703D01*
X024357Y024337D01*
X024297Y024483D01*
X024185Y024594D01*
X024039Y024655D01*
X023881Y024655D01*
X023735Y024594D01*
X023606Y024443D02*
X023314Y024443D01*
X023357Y024284D02*
X023563Y024284D01*
X023563Y024126D02*
X023357Y024126D01*
X023357Y023967D02*
X023563Y023967D01*
X023563Y023809D02*
X023357Y023809D01*
X023335Y023650D02*
X023585Y023650D01*
X023689Y023492D02*
X023231Y023492D01*
X022960Y023492D02*
X022960Y023492D01*
X022960Y023385D02*
X022960Y024020D01*
X022960Y024020D01*
X022960Y024020D01*
X022563Y024020D01*
X022960Y024020D01*
X022960Y023385D01*
X022960Y023650D02*
X022960Y023650D01*
X022960Y023809D02*
X022960Y023809D01*
X022960Y023967D02*
X022960Y023967D01*
X022960Y024126D02*
X022960Y024126D01*
X022960Y024284D02*
X022960Y024284D01*
X022960Y024443D02*
X022960Y024443D01*
X022606Y024443D02*
X021284Y024443D01*
X021284Y024284D02*
X022563Y024284D01*
X022563Y024126D02*
X021284Y024126D01*
X021284Y023967D02*
X022563Y023967D01*
X022563Y023809D02*
X021284Y023809D01*
X021204Y023650D02*
X022585Y023650D01*
X022689Y023492D02*
X016137Y023492D01*
X016137Y023463D02*
X016137Y023570D01*
X016387Y023570D01*
X016510Y023693D01*
X016747Y023930D01*
X017556Y023930D01*
X017556Y023706D01*
X017650Y023612D01*
X018550Y023612D01*
X018644Y023706D01*
X018644Y024606D01*
X018602Y024648D01*
X018644Y024690D01*
X018644Y025590D01*
X018550Y025684D01*
X017650Y025684D01*
X017556Y025590D01*
X017556Y024690D01*
X017598Y024648D01*
X017556Y024606D01*
X017556Y024350D01*
X016573Y024350D01*
X016213Y023990D01*
X016137Y023990D01*
X016137Y024097D01*
X016077Y024243D01*
X015965Y024354D01*
X015819Y024415D01*
X015661Y024415D01*
X015515Y024354D01*
X015403Y024243D01*
X015343Y024097D01*
X015343Y023463D01*
X015403Y023317D01*
X015515Y023206D01*
X015661Y023145D01*
X015819Y023145D01*
X015965Y023206D01*
X016077Y023317D01*
X016137Y023463D01*
X016083Y023333D02*
X024973Y023333D01*
X024969Y023318D02*
X024969Y023118D01*
X025327Y023118D01*
X025327Y023457D01*
X025196Y023457D01*
X025297Y023557D01*
X025357Y023703D01*
X025357Y024337D01*
X025297Y024483D01*
X025185Y024594D01*
X025039Y024655D01*
X024881Y024655D01*
X024735Y024594D01*
X024623Y024483D01*
X024563Y024337D01*
X024563Y023703D01*
X024623Y023557D01*
X024735Y023446D01*
X024881Y023385D01*
X024995Y023385D01*
X024980Y023359D01*
X024969Y023318D01*
X024969Y023175D02*
X015890Y023175D01*
X015590Y023175D02*
X014890Y023175D01*
X014819Y023145D02*
X014965Y023206D01*
X015077Y023317D01*
X015137Y023463D01*
X015137Y024097D01*
X015077Y024243D01*
X014965Y024354D01*
X014819Y024415D01*
X014661Y024415D01*
X014515Y024354D01*
X014403Y024243D01*
X014343Y024097D01*
X014343Y023463D01*
X014403Y023317D01*
X014515Y023206D01*
X014661Y023145D01*
X014819Y023145D01*
X014590Y023175D02*
X013943Y023175D01*
X013976Y023189D02*
X014094Y023306D01*
X014157Y023459D01*
X014157Y024101D01*
X014094Y024254D01*
X013976Y024371D01*
X013823Y024435D01*
X013657Y024435D01*
X013504Y024371D01*
X013386Y024254D01*
X013323Y024101D01*
X013323Y023459D01*
X013386Y023306D01*
X013504Y023189D01*
X013657Y023125D01*
X013823Y023125D01*
X013976Y023189D01*
X014105Y023333D02*
X014397Y023333D01*
X014343Y023492D02*
X014157Y023492D01*
X014157Y023650D02*
X014343Y023650D01*
X014343Y023809D02*
X014157Y023809D01*
X014157Y023967D02*
X014343Y023967D01*
X014355Y024126D02*
X014147Y024126D01*
X014064Y024284D02*
X014444Y024284D01*
X013929Y024601D02*
X017556Y024601D01*
X017556Y024443D02*
X013080Y024443D01*
X013080Y024284D02*
X013416Y024284D01*
X013333Y024126D02*
X013125Y024126D01*
X013137Y023967D02*
X013323Y023967D01*
X013323Y023809D02*
X013137Y023809D01*
X013137Y023650D02*
X013323Y023650D01*
X013323Y023492D02*
X013137Y023492D01*
X013083Y023333D02*
X013375Y023333D01*
X013537Y023175D02*
X013000Y023175D01*
X012970Y023016D02*
X024969Y023016D01*
X024975Y022858D02*
X012825Y022858D01*
X012667Y022699D02*
X028080Y022699D01*
X028080Y022541D02*
X012508Y022541D01*
X012248Y023016D02*
X010738Y023016D01*
X010661Y023145D02*
X010819Y023145D01*
X010965Y023206D01*
X011077Y023317D01*
X011137Y023463D01*
X011137Y024097D01*
X011077Y024243D01*
X010965Y024354D01*
X010819Y024415D01*
X010661Y024415D01*
X010515Y024354D01*
X010403Y024243D01*
X010343Y024097D01*
X010343Y023463D01*
X010403Y023317D01*
X010515Y023206D01*
X010661Y023145D01*
X010590Y023175D02*
X009890Y023175D01*
X009819Y023145D02*
X009965Y023206D01*
X010077Y023317D01*
X010137Y023463D01*
X010137Y024097D01*
X010077Y024243D01*
X009965Y024354D01*
X009819Y024415D01*
X009661Y024415D01*
X009515Y024354D01*
X009403Y024243D01*
X009343Y024097D01*
X009343Y023463D01*
X009403Y023317D01*
X009515Y023206D01*
X009661Y023145D01*
X009819Y023145D01*
X009707Y023077D02*
X009488Y023077D01*
X009447Y023066D01*
X009411Y023045D01*
X009381Y023015D01*
X009360Y022979D01*
X009349Y022938D01*
X009349Y022738D01*
X009707Y022738D01*
X009707Y023077D01*
X009707Y023016D02*
X009744Y023016D01*
X009744Y022858D02*
X009707Y022858D01*
X009707Y022699D02*
X009744Y022699D01*
X009744Y022541D02*
X009707Y022541D01*
X009707Y022382D02*
X009744Y022382D01*
X010017Y022382D02*
X010093Y022382D01*
X010007Y022224D02*
X006060Y022224D01*
X006060Y022382D02*
X009433Y022382D01*
X009349Y022541D02*
X006060Y022541D01*
X006060Y022699D02*
X009349Y022699D01*
X009349Y022858D02*
X006060Y022858D01*
X006060Y023016D02*
X009382Y023016D01*
X009590Y023175D02*
X008890Y023175D01*
X008819Y023145D02*
X008965Y023206D01*
X009077Y023317D01*
X009137Y023463D01*
X009137Y024097D01*
X009077Y024243D01*
X008965Y024354D01*
X008819Y024415D01*
X008661Y024415D01*
X008515Y024354D01*
X008403Y024243D01*
X008343Y024097D01*
X008343Y023463D01*
X008403Y023317D01*
X008515Y023206D01*
X008661Y023145D01*
X008819Y023145D01*
X008590Y023175D02*
X007890Y023175D01*
X007819Y023145D02*
X007965Y023206D01*
X008077Y023317D01*
X008137Y023463D01*
X008137Y024097D01*
X008077Y024243D01*
X007965Y024354D01*
X007819Y024415D01*
X007661Y024415D01*
X007515Y024354D01*
X007403Y024243D01*
X007343Y024097D01*
X007343Y023463D01*
X007403Y023317D01*
X007515Y023206D01*
X007661Y023145D01*
X007819Y023145D01*
X007590Y023175D02*
X006890Y023175D01*
X006856Y023160D02*
X006928Y023190D01*
X006993Y023234D01*
X007049Y023289D01*
X007092Y023354D01*
X007122Y023427D01*
X007137Y023503D01*
X007137Y023780D01*
X007137Y024057D01*
X007122Y024133D01*
X007092Y024206D01*
X007049Y024271D01*
X006993Y024326D01*
X006928Y024370D01*
X006856Y024400D01*
X006779Y024415D01*
X006740Y024415D01*
X006701Y024415D01*
X006624Y024400D01*
X006552Y024370D01*
X006487Y024326D01*
X006431Y024271D01*
X006388Y024206D01*
X006358Y024133D01*
X006343Y024057D01*
X006343Y023780D01*
X006343Y023503D01*
X006358Y023427D01*
X006388Y023354D01*
X006431Y023289D01*
X006487Y023234D01*
X006552Y023190D01*
X006624Y023160D01*
X006701Y023145D01*
X006740Y023145D01*
X006779Y023145D01*
X006856Y023160D01*
X006740Y023175D02*
X006740Y023175D01*
X006740Y023145D02*
X006740Y023780D01*
X007137Y023780D01*
X006740Y023780D01*
X006740Y023780D01*
X006740Y023780D01*
X006740Y024415D01*
X006740Y023780D01*
X006740Y023780D01*
X006740Y023780D01*
X006343Y023780D01*
X006740Y023780D01*
X006740Y023145D01*
X006590Y023175D02*
X006060Y023175D01*
X006060Y023333D02*
X006402Y023333D01*
X006345Y023492D02*
X006060Y023492D01*
X006060Y023650D02*
X006343Y023650D01*
X006343Y023809D02*
X006060Y023809D01*
X006060Y023967D02*
X006343Y023967D01*
X006356Y024126D02*
X006060Y024126D01*
X006060Y024284D02*
X006444Y024284D01*
X006740Y024284D02*
X006740Y024284D01*
X006740Y024126D02*
X006740Y024126D01*
X006740Y023967D02*
X006740Y023967D01*
X006740Y023809D02*
X006740Y023809D01*
X006740Y023650D02*
X006740Y023650D01*
X006740Y023492D02*
X006740Y023492D01*
X006740Y023333D02*
X006740Y023333D01*
X007078Y023333D02*
X007397Y023333D01*
X007343Y023492D02*
X007135Y023492D01*
X007137Y023650D02*
X007343Y023650D01*
X007343Y023809D02*
X007137Y023809D01*
X007137Y023967D02*
X007343Y023967D01*
X007355Y024126D02*
X007124Y024126D01*
X007036Y024284D02*
X007444Y024284D01*
X008036Y024284D02*
X008444Y024284D01*
X008355Y024126D02*
X008125Y024126D01*
X008137Y023967D02*
X008343Y023967D01*
X008343Y023809D02*
X008137Y023809D01*
X008137Y023650D02*
X008343Y023650D01*
X008343Y023492D02*
X008137Y023492D01*
X008083Y023333D02*
X008397Y023333D01*
X009083Y023333D02*
X009397Y023333D01*
X009343Y023492D02*
X009137Y023492D01*
X009137Y023650D02*
X009343Y023650D01*
X009343Y023809D02*
X009137Y023809D01*
X009137Y023967D02*
X009343Y023967D01*
X009355Y024126D02*
X009125Y024126D01*
X009036Y024284D02*
X009444Y024284D01*
X010036Y024284D02*
X010444Y024284D01*
X010355Y024126D02*
X010125Y024126D01*
X010137Y023967D02*
X010343Y023967D01*
X010343Y023809D02*
X010137Y023809D01*
X010137Y023650D02*
X010343Y023650D01*
X010343Y023492D02*
X010137Y023492D01*
X010083Y023333D02*
X010397Y023333D01*
X010890Y023175D02*
X011590Y023175D01*
X011661Y023145D02*
X011819Y023145D01*
X011965Y023206D01*
X012077Y023317D01*
X012137Y023463D01*
X012137Y024097D01*
X012077Y024243D01*
X011965Y024354D01*
X011819Y024415D01*
X011661Y024415D01*
X011515Y024354D01*
X011403Y024243D01*
X011343Y024097D01*
X011343Y023463D01*
X011403Y023317D01*
X011515Y023206D01*
X011661Y023145D01*
X011890Y023175D02*
X012407Y023175D01*
X012397Y023333D02*
X012083Y023333D01*
X012137Y023492D02*
X012343Y023492D01*
X012343Y023650D02*
X012137Y023650D01*
X012137Y023809D02*
X012343Y023809D01*
X012343Y023967D02*
X012137Y023967D01*
X012125Y024126D02*
X012355Y024126D01*
X012444Y024284D02*
X012036Y024284D01*
X012560Y024443D02*
X006060Y024443D01*
X006060Y024601D02*
X012560Y024601D01*
X012580Y024760D02*
X006060Y024760D01*
X006060Y024918D02*
X012710Y024918D01*
X012920Y025077D02*
X006148Y025077D01*
X006306Y025235D02*
X009633Y025235D01*
X009475Y025394D02*
X008663Y025394D01*
X008544Y025275D02*
X008790Y025521D01*
X008790Y025869D01*
X008544Y026115D01*
X008196Y026115D01*
X007950Y025869D01*
X007950Y025521D01*
X008196Y025275D01*
X008544Y025275D01*
X008790Y025552D02*
X009405Y025552D01*
X009405Y025711D02*
X008790Y025711D01*
X008790Y025869D02*
X009417Y025869D01*
X009576Y026028D02*
X008631Y026028D01*
X008109Y026028D02*
X006650Y026028D01*
X006650Y026186D02*
X010209Y026186D01*
X010368Y026345D02*
X006650Y026345D01*
X006650Y026503D02*
X010526Y026503D01*
X010645Y026028D02*
X011576Y026028D01*
X011417Y025869D02*
X010486Y025869D01*
X010355Y025711D02*
X011405Y025711D01*
X011405Y025552D02*
X010355Y025552D01*
X010285Y025394D02*
X011475Y025394D01*
X011633Y025235D02*
X010127Y025235D01*
X011036Y024284D02*
X011444Y024284D01*
X011355Y024126D02*
X011125Y024126D01*
X011137Y023967D02*
X011343Y023967D01*
X011343Y023809D02*
X011137Y023809D01*
X011137Y023650D02*
X011343Y023650D01*
X011343Y023492D02*
X011137Y023492D01*
X011083Y023333D02*
X011397Y023333D01*
X010696Y022382D02*
X028080Y022382D01*
X028080Y022224D02*
X010550Y022224D01*
X010442Y022065D02*
X028080Y022065D01*
X028080Y021907D02*
X010284Y021907D01*
X010125Y021748D02*
X028080Y021748D01*
X028080Y021590D02*
X009967Y021590D01*
X009728Y021431D02*
X027797Y021431D01*
X027668Y021273D02*
X009570Y021273D01*
X009518Y021114D02*
X027641Y021114D01*
X027938Y020801D02*
X028047Y020801D01*
X028080Y020815D01*
X028080Y019648D01*
X028120Y019553D01*
X028193Y019480D01*
X028723Y018950D01*
X028723Y018343D01*
X028783Y018197D01*
X028880Y018100D01*
X028880Y018048D01*
X028260Y017428D01*
X028126Y017561D01*
X028247Y017561D01*
X028372Y017613D01*
X028467Y017708D01*
X028519Y017833D01*
X028519Y017967D01*
X028467Y018092D01*
X028409Y018150D01*
X028457Y018197D01*
X028517Y018343D01*
X028517Y018977D01*
X028457Y019123D01*
X028345Y019234D01*
X028199Y019295D01*
X028041Y019295D01*
X027895Y019234D01*
X027783Y019123D01*
X027723Y018977D01*
X027723Y018600D01*
X027517Y018805D01*
X027517Y018977D01*
X027457Y019123D01*
X027345Y019234D01*
X027199Y019295D01*
X027041Y019295D01*
X026895Y019234D01*
X026783Y019123D01*
X026723Y018977D01*
X026723Y018343D01*
X026783Y018197D01*
X026895Y018086D01*
X027041Y018025D01*
X027199Y018025D01*
X027345Y018086D01*
X027457Y018197D01*
X027460Y018205D01*
X027460Y017900D01*
X026751Y017900D01*
X026751Y017903D01*
X026657Y017997D01*
X026260Y017997D01*
X026227Y018030D01*
X026222Y018035D01*
X026345Y018086D01*
X026457Y018197D01*
X026517Y018343D01*
X026517Y018977D01*
X026457Y019123D01*
X026345Y019234D01*
X026199Y019295D01*
X026041Y019295D01*
X025895Y019234D01*
X025783Y019123D01*
X025723Y018977D01*
X025723Y018343D01*
X025753Y018270D01*
X025487Y018270D01*
X025517Y018343D01*
X025517Y018977D01*
X025457Y019123D01*
X025345Y019234D01*
X025199Y019295D01*
X025041Y019295D01*
X024895Y019234D01*
X024783Y019123D01*
X024723Y018977D01*
X024723Y018343D01*
X024770Y018230D01*
X024470Y018230D01*
X024517Y018343D01*
X024517Y018977D01*
X024457Y019123D01*
X024345Y019234D01*
X024199Y019295D01*
X024041Y019295D01*
X023895Y019234D01*
X023783Y019123D01*
X023723Y018977D01*
X023723Y018343D01*
X023770Y018230D01*
X023469Y018230D01*
X023472Y018234D01*
X023502Y018307D01*
X023517Y018383D01*
X023517Y018660D01*
X023517Y018937D01*
X023502Y019013D01*
X023472Y019086D01*
X023429Y019151D01*
X023373Y019206D01*
X023308Y019250D01*
X023236Y019280D01*
X023159Y019295D01*
X023120Y019295D01*
X023081Y019295D01*
X023004Y019280D01*
X022932Y019250D01*
X022867Y019206D01*
X022811Y019151D01*
X022768Y019086D01*
X022738Y019013D01*
X022723Y018937D01*
X022723Y018660D01*
X022723Y018383D01*
X022738Y018307D01*
X022768Y018234D01*
X022771Y018230D01*
X021364Y018230D01*
X021364Y019110D01*
X021322Y019152D01*
X021364Y019194D01*
X021364Y019627D01*
X021387Y019650D01*
X022347Y019650D01*
X022470Y019773D01*
X022656Y019959D01*
X022754Y019860D01*
X023086Y019860D01*
X023276Y020050D01*
X023547Y020050D01*
X023670Y020173D01*
X024107Y020610D01*
X025704Y020610D01*
X025520Y020426D01*
X025520Y020094D01*
X025754Y019860D01*
X026086Y019860D01*
X026276Y020050D01*
X026478Y020050D01*
X026743Y019785D01*
X027137Y019785D01*
X027415Y020063D01*
X027415Y020457D01*
X027262Y020610D01*
X027747Y020610D01*
X027870Y020733D01*
X027938Y020801D01*
X027934Y020797D02*
X028080Y020797D01*
X028080Y020639D02*
X027776Y020639D01*
X028080Y020480D02*
X027392Y020480D01*
X027415Y020322D02*
X028080Y020322D01*
X028080Y020163D02*
X027415Y020163D01*
X027356Y020005D02*
X028080Y020005D01*
X028080Y019846D02*
X027198Y019846D01*
X027368Y019212D02*
X027872Y019212D01*
X027754Y019054D02*
X027486Y019054D01*
X027517Y018895D02*
X027723Y018895D01*
X027723Y018737D02*
X027586Y018737D01*
X027460Y018103D02*
X027362Y018103D01*
X027460Y017944D02*
X026710Y017944D01*
X026878Y018103D02*
X026362Y018103D01*
X026483Y018261D02*
X026757Y018261D01*
X026723Y018420D02*
X026517Y018420D01*
X026517Y018578D02*
X026723Y018578D01*
X026723Y018737D02*
X026517Y018737D01*
X026517Y018895D02*
X026723Y018895D01*
X026754Y019054D02*
X026486Y019054D01*
X026368Y019212D02*
X026872Y019212D01*
X026682Y019846D02*
X022543Y019846D01*
X022385Y019688D02*
X028080Y019688D01*
X028143Y019529D02*
X021364Y019529D01*
X021364Y019371D02*
X028302Y019371D01*
X028368Y019212D02*
X028460Y019212D01*
X028486Y019054D02*
X028619Y019054D01*
X028517Y018895D02*
X028723Y018895D01*
X028723Y018737D02*
X028517Y018737D01*
X028517Y018578D02*
X028723Y018578D01*
X028723Y018420D02*
X028517Y018420D01*
X028483Y018261D02*
X028757Y018261D01*
X028878Y018103D02*
X028457Y018103D01*
X028519Y017944D02*
X028776Y017944D01*
X028618Y017786D02*
X028499Y017786D01*
X028459Y017627D02*
X028386Y017627D01*
X028301Y017469D02*
X028219Y017469D01*
X027801Y017152D02*
X018340Y017152D01*
X018340Y017310D02*
X025399Y017310D01*
X025329Y017469D02*
X018202Y017469D01*
X018071Y017600D02*
X018340Y017331D01*
X018340Y016949D01*
X018071Y016680D01*
X017689Y016680D01*
X017420Y016949D01*
X017420Y017331D01*
X017689Y017600D01*
X018071Y017600D01*
X018176Y017786D02*
X025329Y017786D01*
X025687Y017627D02*
X006060Y017627D01*
X006060Y017469D02*
X016558Y017469D01*
X016420Y017310D02*
X010169Y017310D01*
X010114Y016835D02*
X014509Y016835D01*
X014481Y016676D02*
X009799Y016676D01*
X009784Y016518D02*
X014529Y016518D01*
X014527Y017761D02*
X014652Y017813D01*
X014747Y017908D01*
X014799Y018033D01*
X014799Y018156D01*
X016263Y019620D01*
X017057Y019620D01*
X017420Y019257D01*
X017420Y018949D01*
X017689Y018680D01*
X018071Y018680D01*
X018340Y018949D01*
X018340Y019331D01*
X018071Y019600D01*
X017689Y019600D01*
X017666Y019577D01*
X017223Y020020D01*
X016097Y020020D01*
X015980Y019903D01*
X014516Y018439D01*
X014393Y018439D01*
X014268Y018387D01*
X014173Y018292D01*
X014121Y018167D01*
X014121Y018033D01*
X014173Y017908D01*
X014268Y017813D01*
X014393Y017761D01*
X014527Y017761D01*
X014586Y017786D02*
X016584Y017786D01*
X016689Y017680D02*
X017071Y017680D01*
X017340Y017949D01*
X017340Y018331D01*
X017071Y018600D01*
X016689Y018600D01*
X016420Y018331D01*
X016420Y017949D01*
X016689Y017680D01*
X016425Y017944D02*
X014762Y017944D01*
X014799Y018103D02*
X016420Y018103D01*
X016420Y018261D02*
X014904Y018261D01*
X015062Y018420D02*
X016509Y018420D01*
X016667Y018578D02*
X015221Y018578D01*
X015379Y018737D02*
X016633Y018737D01*
X016689Y018680D02*
X016420Y018949D01*
X016420Y019120D01*
X016860Y019120D01*
X016860Y019160D01*
X016860Y019600D01*
X016689Y019600D01*
X016420Y019331D01*
X016420Y019160D01*
X016860Y019160D01*
X016900Y019160D01*
X016900Y019600D01*
X017071Y019600D01*
X017340Y019331D01*
X017340Y019160D01*
X016900Y019160D01*
X016900Y019120D01*
X017340Y019120D01*
X017340Y018949D01*
X017071Y018680D01*
X016900Y018680D01*
X016900Y019120D01*
X016860Y019120D01*
X016860Y018680D01*
X016689Y018680D01*
X016860Y018737D02*
X016900Y018737D01*
X016900Y018895D02*
X016860Y018895D01*
X016860Y019054D02*
X016900Y019054D01*
X016900Y019212D02*
X016860Y019212D01*
X016860Y019371D02*
X016900Y019371D01*
X016900Y019529D02*
X016860Y019529D01*
X016618Y019529D02*
X016172Y019529D01*
X016013Y019371D02*
X016460Y019371D01*
X016420Y019212D02*
X015855Y019212D01*
X015696Y019054D02*
X016420Y019054D01*
X016474Y018895D02*
X015538Y018895D01*
X015289Y019212D02*
X008864Y019212D01*
X008995Y019343D02*
X008995Y019540D01*
X008995Y019737D01*
X008717Y020015D01*
X008520Y020015D01*
X008520Y019540D01*
X008995Y019540D01*
X008520Y019540D01*
X008520Y019540D01*
X008520Y019540D01*
X008520Y019065D01*
X008717Y019065D01*
X008995Y019343D01*
X008995Y019371D02*
X015448Y019371D01*
X015606Y019529D02*
X008995Y019529D01*
X008995Y019688D02*
X015765Y019688D01*
X015923Y019846D02*
X008886Y019846D01*
X008727Y020005D02*
X016082Y020005D01*
X017142Y019529D02*
X017148Y019529D01*
X017300Y019371D02*
X017307Y019371D01*
X017340Y019212D02*
X017420Y019212D01*
X017420Y019054D02*
X017340Y019054D01*
X017286Y018895D02*
X017474Y018895D01*
X017633Y018737D02*
X017127Y018737D01*
X017093Y018578D02*
X017667Y018578D01*
X017509Y018420D02*
X017251Y018420D01*
X017340Y018261D02*
X017420Y018261D01*
X017420Y018103D02*
X017340Y018103D01*
X017335Y017944D02*
X017425Y017944D01*
X017584Y017786D02*
X017176Y017786D01*
X017202Y017469D02*
X017558Y017469D01*
X017420Y017310D02*
X017340Y017310D01*
X017340Y017152D02*
X017420Y017152D01*
X017420Y016993D02*
X017340Y016993D01*
X017408Y016835D02*
X017535Y016835D01*
X017567Y016676D02*
X028080Y016676D01*
X028080Y016518D02*
X018153Y016518D01*
X018312Y016359D02*
X028080Y016359D01*
X028080Y016201D02*
X018340Y016201D01*
X018340Y016042D02*
X028080Y016042D01*
X028080Y015884D02*
X018274Y015884D01*
X018116Y015725D02*
X028080Y015725D01*
X028080Y015567D02*
X018280Y015567D01*
X018340Y015408D02*
X028080Y015408D01*
X028080Y015250D02*
X018340Y015250D01*
X018340Y015091D02*
X028080Y015091D01*
X028080Y014933D02*
X018340Y014933D01*
X018340Y014774D02*
X018246Y014680D01*
X017514Y014680D01*
X017420Y014774D01*
X017486Y015884D02*
X017274Y015884D01*
X017340Y016042D02*
X017420Y016042D01*
X017420Y016201D02*
X017340Y016201D01*
X017318Y016359D02*
X017312Y016359D01*
X018225Y016835D02*
X028080Y016835D01*
X027959Y016993D02*
X018340Y016993D01*
X018251Y018420D02*
X020276Y018420D01*
X020276Y018578D02*
X018093Y018578D01*
X018127Y018737D02*
X020276Y018737D01*
X020276Y018895D02*
X018286Y018895D01*
X018340Y019054D02*
X020276Y019054D01*
X020276Y019212D02*
X018340Y019212D01*
X018300Y019371D02*
X020276Y019371D01*
X020276Y019529D02*
X018142Y019529D01*
X017555Y019688D02*
X020276Y019688D01*
X020276Y019846D02*
X017397Y019846D01*
X017238Y020005D02*
X020276Y020005D01*
X020345Y020163D02*
X006060Y020163D01*
X006060Y020005D02*
X007348Y020005D01*
X007422Y020035D02*
X007240Y019960D01*
X007100Y019820D01*
X007025Y019638D01*
X007025Y019442D01*
X007100Y019260D01*
X007240Y019120D01*
X007422Y019045D01*
X007618Y019045D01*
X007800Y019120D01*
X007940Y019260D01*
X008015Y019442D01*
X008015Y019638D01*
X007940Y019820D01*
X007800Y019960D01*
X007618Y020035D01*
X007422Y020035D01*
X007692Y020005D02*
X008313Y020005D01*
X008323Y020015D02*
X008045Y019737D01*
X008045Y019540D01*
X008520Y019540D01*
X008520Y019540D01*
X008520Y019540D01*
X008520Y020015D01*
X008323Y020015D01*
X008520Y020005D02*
X008520Y020005D01*
X008520Y019846D02*
X008520Y019846D01*
X008520Y019688D02*
X008520Y019688D01*
X008520Y019540D02*
X008045Y019540D01*
X008045Y019343D01*
X008323Y019065D01*
X008520Y019065D01*
X008520Y019540D01*
X008520Y019529D02*
X008520Y019529D01*
X008520Y019371D02*
X008520Y019371D01*
X008520Y019212D02*
X008520Y019212D01*
X008176Y019212D02*
X007892Y019212D01*
X007986Y019371D02*
X008045Y019371D01*
X008045Y019529D02*
X008015Y019529D01*
X007995Y019688D02*
X008045Y019688D01*
X008154Y019846D02*
X007914Y019846D01*
X007126Y019846D02*
X006060Y019846D01*
X006060Y019688D02*
X007045Y019688D01*
X007025Y019529D02*
X006060Y019529D01*
X006060Y019371D02*
X007054Y019371D01*
X007148Y019212D02*
X006060Y019212D01*
X006060Y019054D02*
X007401Y019054D01*
X007639Y019054D02*
X015131Y019054D01*
X014972Y018895D02*
X006060Y018895D01*
X006060Y018737D02*
X014814Y018737D01*
X014655Y018578D02*
X006060Y018578D01*
X006060Y018420D02*
X014346Y018420D01*
X014160Y018261D02*
X006060Y018261D01*
X006060Y018103D02*
X014121Y018103D01*
X014158Y017944D02*
X006060Y017944D01*
X006060Y017786D02*
X014334Y017786D01*
X009631Y017310D02*
X006060Y017310D01*
X006060Y017152D02*
X009561Y017152D01*
X009578Y016993D02*
X006060Y016993D01*
X006445Y016835D02*
X009195Y016835D01*
X005500Y018420D02*
X004819Y018420D01*
X004936Y018578D02*
X005500Y018578D01*
X005500Y018737D02*
X004959Y018737D01*
X004904Y018895D02*
X005500Y018895D01*
X005500Y019054D02*
X003914Y019054D01*
X003950Y019371D02*
X005500Y019371D01*
X005500Y019529D02*
X004089Y019529D01*
X004089Y019688D02*
X005500Y019688D01*
X005500Y019846D02*
X004089Y019846D01*
X003991Y020005D02*
X005500Y020005D01*
X005500Y020163D02*
X003832Y020163D01*
X003901Y020322D02*
X005500Y020322D01*
X006060Y020322D02*
X022425Y020322D01*
X022574Y020480D02*
X006060Y020480D01*
X006060Y020639D02*
X022733Y020639D01*
X023107Y020639D02*
X023542Y020639D01*
X023700Y020797D02*
X009300Y020797D01*
X009473Y020956D02*
X023859Y020956D01*
X023977Y020480D02*
X025574Y020480D01*
X025520Y020322D02*
X023819Y020322D01*
X023660Y020163D02*
X025520Y020163D01*
X025610Y020005D02*
X023230Y020005D01*
X023266Y020480D02*
X023383Y020480D01*
X022266Y020163D02*
X021295Y020163D01*
X021364Y019212D02*
X022875Y019212D01*
X022754Y019054D02*
X021364Y019054D01*
X021364Y018895D02*
X022723Y018895D01*
X022723Y018737D02*
X021364Y018737D01*
X021364Y018578D02*
X022723Y018578D01*
X022723Y018660D02*
X023120Y018660D01*
X023120Y018660D01*
X023120Y019295D01*
X023120Y018660D01*
X023517Y018660D01*
X023120Y018660D01*
X023120Y018660D01*
X023120Y018660D01*
X022723Y018660D01*
X022723Y018420D02*
X021364Y018420D01*
X021364Y018261D02*
X022757Y018261D01*
X023120Y018737D02*
X023120Y018737D01*
X023120Y018895D02*
X023120Y018895D01*
X023120Y019054D02*
X023120Y019054D01*
X023120Y019212D02*
X023120Y019212D01*
X023365Y019212D02*
X023872Y019212D01*
X023754Y019054D02*
X023486Y019054D01*
X023517Y018895D02*
X023723Y018895D01*
X023723Y018737D02*
X023517Y018737D01*
X023517Y018578D02*
X023723Y018578D01*
X023723Y018420D02*
X023517Y018420D01*
X023483Y018261D02*
X023757Y018261D01*
X024483Y018261D02*
X024757Y018261D01*
X024723Y018420D02*
X024517Y018420D01*
X024517Y018578D02*
X024723Y018578D01*
X024723Y018737D02*
X024517Y018737D01*
X024517Y018895D02*
X024723Y018895D01*
X024754Y019054D02*
X024486Y019054D01*
X024368Y019212D02*
X024872Y019212D01*
X025368Y019212D02*
X025872Y019212D01*
X025754Y019054D02*
X025486Y019054D01*
X025517Y018895D02*
X025723Y018895D01*
X025723Y018737D02*
X025517Y018737D01*
X025517Y018578D02*
X025723Y018578D01*
X025723Y018420D02*
X025517Y018420D01*
X025687Y017469D02*
X025724Y017469D01*
X025724Y017310D02*
X025687Y017310D01*
X026011Y017310D02*
X026065Y017310D01*
X026684Y017310D02*
X027642Y017310D01*
X028600Y016676D02*
X029556Y016676D01*
X029458Y016518D02*
X028600Y016518D01*
X028600Y016359D02*
X029425Y016359D01*
X029442Y016201D02*
X028600Y016201D01*
X028600Y016042D02*
X029518Y016042D01*
X029729Y015884D02*
X028600Y015884D01*
X028600Y015408D02*
X036293Y015408D01*
X036293Y015250D02*
X028600Y015250D01*
X028600Y015091D02*
X036293Y015091D01*
X036293Y014933D02*
X028600Y014933D01*
X028600Y014774D02*
X028862Y014774D01*
X028704Y014616D02*
X028600Y014616D01*
X028600Y014457D02*
X028625Y014457D01*
X028625Y014299D02*
X028600Y014299D01*
X028080Y014299D02*
X027575Y014299D01*
X027575Y014457D02*
X028080Y014457D01*
X028080Y014616D02*
X027496Y014616D01*
X027338Y014774D02*
X028080Y014774D01*
X028080Y014140D02*
X027572Y014140D01*
X028277Y013506D02*
X021284Y013506D01*
X021284Y013348D02*
X022928Y013348D01*
X022947Y013366D02*
X022891Y013311D01*
X022848Y013246D01*
X022818Y013173D01*
X022803Y013097D01*
X022803Y012820D01*
X022803Y012543D01*
X022818Y012467D01*
X022848Y012394D01*
X022891Y012329D01*
X022947Y012274D01*
X023012Y012230D01*
X023084Y012200D01*
X023161Y012185D01*
X023200Y012185D01*
X023239Y012185D01*
X023316Y012200D01*
X023388Y012230D01*
X023453Y012274D01*
X023509Y012329D01*
X023552Y012394D01*
X023582Y012467D01*
X023597Y012543D01*
X023597Y012820D01*
X023597Y013097D01*
X023582Y013173D01*
X023552Y013246D01*
X023509Y013311D01*
X023453Y013366D01*
X023388Y013410D01*
X023316Y013440D01*
X023239Y013455D01*
X023200Y013455D01*
X023161Y013455D01*
X023084Y013440D01*
X023012Y013410D01*
X022947Y013366D01*
X022824Y013189D02*
X021284Y013189D01*
X021284Y013031D02*
X022803Y013031D01*
X022803Y012872D02*
X021284Y012872D01*
X021284Y012714D02*
X022803Y012714D01*
X022803Y012820D02*
X023200Y012820D01*
X023597Y012820D01*
X023200Y012820D01*
X023200Y012820D01*
X023200Y012820D01*
X023200Y013455D01*
X023200Y012820D01*
X023200Y012185D01*
X023200Y012820D01*
X023200Y012820D01*
X023200Y012820D01*
X022803Y012820D01*
X022803Y012555D02*
X021284Y012555D01*
X021231Y012397D02*
X022847Y012397D01*
X023000Y012238D02*
X018175Y012238D01*
X018175Y012080D02*
X027658Y012080D01*
X027499Y012238D02*
X027407Y012238D01*
X026993Y012238D02*
X026407Y012238D01*
X026553Y012397D02*
X026847Y012397D01*
X026803Y012555D02*
X026597Y012555D01*
X026597Y012714D02*
X026803Y012714D01*
X026803Y012872D02*
X026597Y012872D01*
X026597Y013031D02*
X026803Y013031D01*
X026824Y013189D02*
X026576Y013189D01*
X026472Y013348D02*
X026928Y013348D01*
X027472Y013348D02*
X027928Y013348D01*
X027824Y013189D02*
X027576Y013189D01*
X027597Y013031D02*
X027803Y013031D01*
X027803Y012872D02*
X027597Y012872D01*
X027597Y012714D02*
X027803Y012714D01*
X027803Y012555D02*
X027748Y012555D01*
X025289Y011921D02*
X018173Y011921D01*
X018014Y011763D02*
X025289Y011763D01*
X025289Y011604D02*
X015356Y011604D01*
X015494Y011446D02*
X017354Y011446D01*
X017255Y011287D02*
X015555Y011287D01*
X015555Y011129D02*
X017225Y011129D01*
X017248Y010970D02*
X015501Y010970D01*
X015372Y010812D02*
X017324Y010812D01*
X017227Y011921D02*
X015453Y011921D01*
X015535Y012080D02*
X017225Y012080D01*
X017225Y012238D02*
X015535Y012238D01*
X015535Y012397D02*
X017305Y012397D01*
X017463Y012555D02*
X015377Y012555D01*
X018095Y012397D02*
X020249Y012397D01*
X021284Y013665D02*
X023998Y013665D01*
X023840Y013823D02*
X022600Y013823D01*
X022759Y013982D02*
X022873Y013982D01*
X023287Y013982D02*
X023681Y013982D01*
X023975Y013394D02*
X023863Y013283D01*
X023803Y013137D01*
X023803Y012503D01*
X023863Y012357D01*
X023975Y012246D01*
X024121Y012185D01*
X024279Y012185D01*
X024425Y012246D01*
X024537Y012357D01*
X024597Y012503D01*
X024597Y013137D01*
X024537Y013283D01*
X024425Y013394D01*
X024279Y013455D01*
X024121Y013455D01*
X023975Y013394D01*
X023928Y013348D02*
X023472Y013348D01*
X023576Y013189D02*
X023824Y013189D01*
X023803Y013031D02*
X023597Y013031D01*
X023597Y012872D02*
X023803Y012872D01*
X023803Y012714D02*
X023597Y012714D01*
X023597Y012555D02*
X023803Y012555D01*
X023847Y012397D02*
X023553Y012397D01*
X023400Y012238D02*
X023993Y012238D01*
X024407Y012238D02*
X024993Y012238D01*
X024847Y012397D02*
X024553Y012397D01*
X024597Y012555D02*
X024803Y012555D01*
X024803Y012714D02*
X024597Y012714D01*
X024597Y012872D02*
X024803Y012872D01*
X024803Y013031D02*
X024597Y013031D01*
X024576Y013189D02*
X024824Y013189D01*
X024928Y013348D02*
X024472Y013348D01*
X023200Y013348D02*
X023200Y013348D01*
X023200Y013189D02*
X023200Y013189D01*
X023200Y013031D02*
X023200Y013031D01*
X023200Y012872D02*
X023200Y012872D01*
X023200Y012714D02*
X023200Y012714D01*
X023200Y012555D02*
X023200Y012555D01*
X023200Y012397D02*
X023200Y012397D01*
X023200Y012238D02*
X023200Y012238D01*
X022482Y014299D02*
X021284Y014299D01*
X018555Y009702D02*
X015604Y009702D01*
X005500Y019212D02*
X001420Y019212D01*
X001420Y019054D02*
X002303Y019054D01*
X002149Y018895D02*
X001420Y018895D01*
X001420Y018737D02*
X002149Y018737D01*
X002149Y018578D02*
X001420Y018578D01*
X001420Y018420D02*
X002246Y018420D01*
X002405Y018261D02*
X001420Y018261D01*
X001420Y018103D02*
X002352Y018103D01*
X002194Y017944D02*
X001420Y017944D01*
X001420Y017786D02*
X002149Y017786D01*
X002149Y017627D02*
X001420Y017627D01*
X001420Y017469D02*
X002197Y017469D01*
X003971Y018420D02*
X004421Y018420D01*
X002413Y020163D02*
X001420Y020163D01*
X001420Y020005D02*
X002254Y020005D01*
X002149Y019846D02*
X001420Y019846D01*
X001420Y019688D02*
X002149Y019688D01*
X002149Y019529D02*
X001420Y019529D01*
X001420Y019371D02*
X002295Y019371D01*
X002316Y020322D02*
X001420Y020322D01*
X001420Y020480D02*
X002158Y020480D01*
X002129Y020639D02*
X001420Y020639D01*
X001420Y020797D02*
X002129Y020797D01*
X002177Y020956D02*
X001420Y020956D01*
X001420Y021114D02*
X002336Y021114D01*
X002881Y021114D02*
X003336Y021114D01*
X003881Y021114D02*
X005500Y021114D01*
X005500Y021273D02*
X001420Y021273D01*
X001420Y021431D02*
X004834Y021431D01*
X004766Y021459D02*
X004905Y021402D01*
X005055Y021402D01*
X005194Y021459D01*
X005301Y021566D01*
X005358Y021705D01*
X005358Y021855D01*
X005301Y021994D01*
X005194Y022101D01*
X005190Y022102D01*
X005190Y023467D01*
X005067Y023590D01*
X004880Y023590D01*
X004880Y023626D01*
X004646Y023860D01*
X004314Y023860D01*
X004124Y023670D01*
X003036Y023670D01*
X002846Y023860D01*
X002514Y023860D01*
X002280Y023626D01*
X002280Y023294D01*
X002514Y023060D01*
X002846Y023060D01*
X003036Y023250D01*
X004124Y023250D01*
X004314Y023060D01*
X004646Y023060D01*
X004756Y023170D01*
X004770Y023170D01*
X004770Y022736D01*
X004646Y022860D01*
X004314Y022860D01*
X004114Y022660D01*
X003046Y022660D01*
X002846Y022860D01*
X002514Y022860D01*
X002280Y022626D01*
X002280Y022294D01*
X002514Y022060D01*
X002846Y022060D01*
X003046Y022260D01*
X004114Y022260D01*
X004314Y022060D01*
X004646Y022060D01*
X004770Y022184D01*
X004770Y022102D01*
X004766Y022101D01*
X004659Y021994D01*
X004602Y021855D01*
X004602Y021705D01*
X004659Y021566D01*
X004766Y021459D01*
X004650Y021590D02*
X001420Y021590D01*
X001420Y021748D02*
X004602Y021748D01*
X004623Y021907D02*
X001420Y021907D01*
X001420Y022065D02*
X002509Y022065D01*
X002351Y022224D02*
X001420Y022224D01*
X001420Y022382D02*
X002280Y022382D01*
X002280Y022541D02*
X001420Y022541D01*
X001420Y022699D02*
X002353Y022699D01*
X002512Y022858D02*
X001420Y022858D01*
X001420Y023016D02*
X004770Y023016D01*
X004770Y022858D02*
X004648Y022858D01*
X004312Y022858D02*
X002848Y022858D01*
X003007Y022699D02*
X004153Y022699D01*
X004200Y023175D02*
X002960Y023175D01*
X002400Y023175D02*
X001420Y023175D01*
X001420Y023333D02*
X002280Y023333D01*
X002280Y023492D02*
X001420Y023492D01*
X001420Y023650D02*
X002304Y023650D01*
X002463Y023809D02*
X001420Y023809D01*
X001420Y023967D02*
X005500Y023967D01*
X005500Y023809D02*
X004697Y023809D01*
X004856Y023650D02*
X005500Y023650D01*
X005500Y023492D02*
X005165Y023492D01*
X005190Y023333D02*
X005500Y023333D01*
X005500Y023175D02*
X005190Y023175D01*
X005190Y023016D02*
X005500Y023016D01*
X005500Y022858D02*
X005190Y022858D01*
X005190Y022699D02*
X005500Y022699D01*
X005500Y022541D02*
X005190Y022541D01*
X005190Y022382D02*
X005500Y022382D01*
X005500Y022224D02*
X005190Y022224D01*
X005230Y022065D02*
X005500Y022065D01*
X005500Y021907D02*
X005337Y021907D01*
X005358Y021748D02*
X005500Y021748D01*
X005500Y021590D02*
X005310Y021590D01*
X005126Y021431D02*
X005500Y021431D01*
X006060Y021431D02*
X008896Y021431D01*
X008786Y021273D02*
X006060Y021273D01*
X006060Y021114D02*
X008762Y021114D01*
X008807Y020956D02*
X006060Y020956D01*
X006060Y020797D02*
X008980Y020797D01*
X009293Y021590D02*
X006060Y021590D01*
X006060Y021748D02*
X009451Y021748D01*
X009610Y021907D02*
X006060Y021907D01*
X006060Y022065D02*
X009848Y022065D01*
X012127Y025235D02*
X013680Y025235D01*
X013680Y025394D02*
X013419Y025394D01*
X013520Y025552D02*
X013680Y025552D01*
X013680Y025711D02*
X013520Y025711D01*
X013477Y025869D02*
X013680Y025869D01*
X014200Y025869D02*
X015763Y025869D01*
X015720Y025711D02*
X014200Y025711D01*
X014200Y025552D02*
X015720Y025552D01*
X015821Y025394D02*
X014200Y025394D01*
X014200Y025235D02*
X017556Y025235D01*
X017556Y025077D02*
X014200Y025077D01*
X014196Y024918D02*
X017556Y024918D01*
X017556Y024760D02*
X014087Y024760D01*
X015036Y024284D02*
X015444Y024284D01*
X015355Y024126D02*
X015125Y024126D01*
X015137Y023967D02*
X015343Y023967D01*
X015343Y023809D02*
X015137Y023809D01*
X015137Y023650D02*
X015343Y023650D01*
X015343Y023492D02*
X015137Y023492D01*
X015083Y023333D02*
X015397Y023333D01*
X016125Y024126D02*
X016349Y024126D01*
X016507Y024284D02*
X016036Y024284D01*
X016626Y023809D02*
X017556Y023809D01*
X017612Y023650D02*
X016467Y023650D01*
X018588Y023650D02*
X020276Y023650D01*
X020196Y023809D02*
X018644Y023809D01*
X018644Y023967D02*
X020196Y023967D01*
X020196Y024126D02*
X018644Y024126D01*
X018644Y024284D02*
X020196Y024284D01*
X020196Y024443D02*
X018644Y024443D01*
X018644Y024601D02*
X020196Y024601D01*
X020196Y024760D02*
X018644Y024760D01*
X018644Y024918D02*
X020196Y024918D01*
X020196Y025077D02*
X018644Y025077D01*
X018644Y025235D02*
X020196Y025235D01*
X020196Y025394D02*
X018644Y025394D01*
X018644Y025552D02*
X020196Y025552D01*
X022574Y025711D02*
X016520Y025711D01*
X016520Y025552D02*
X017556Y025552D01*
X017556Y025394D02*
X016419Y025394D01*
X016477Y025869D02*
X022763Y025869D01*
X023267Y025869D02*
X023452Y025869D01*
X023729Y025552D02*
X025615Y025552D01*
X025615Y025394D02*
X023571Y025394D01*
X023261Y025235D02*
X025769Y025235D01*
X026261Y025235D02*
X026733Y025235D01*
X026751Y024601D02*
X026169Y024601D01*
X026314Y024443D02*
X026606Y024443D01*
X026563Y024284D02*
X026357Y024284D01*
X026357Y024126D02*
X026563Y024126D01*
X026563Y023967D02*
X026357Y023967D01*
X026357Y023809D02*
X026563Y023809D01*
X026585Y023650D02*
X026335Y023650D01*
X026231Y023492D02*
X026689Y023492D01*
X025689Y023492D02*
X025231Y023492D01*
X025327Y023333D02*
X025364Y023333D01*
X025364Y023175D02*
X025327Y023175D01*
X025327Y023016D02*
X025364Y023016D01*
X025364Y022858D02*
X025327Y022858D01*
X025335Y023650D02*
X025585Y023650D01*
X025563Y023809D02*
X025357Y023809D01*
X025357Y023967D02*
X025563Y023967D01*
X025563Y024126D02*
X025357Y024126D01*
X025357Y024284D02*
X025563Y024284D01*
X025606Y024443D02*
X025314Y024443D01*
X025169Y024601D02*
X025751Y024601D01*
X024751Y024601D02*
X024169Y024601D01*
X024314Y024443D02*
X024606Y024443D01*
X024563Y024284D02*
X024357Y024284D01*
X024357Y024126D02*
X024563Y024126D01*
X024563Y023967D02*
X024357Y023967D01*
X024357Y023809D02*
X024563Y023809D01*
X024585Y023650D02*
X024335Y023650D01*
X024231Y023492D02*
X024689Y023492D01*
X023888Y025711D02*
X025615Y025711D01*
X028080Y026662D02*
X014200Y026662D01*
X014200Y026820D02*
X028080Y026820D01*
X028080Y026979D02*
X014200Y026979D01*
X014200Y027137D02*
X028080Y027137D01*
X028080Y027296D02*
X016307Y027296D01*
X016237Y027225D02*
X016515Y027503D01*
X016515Y027700D01*
X016515Y027897D01*
X016237Y028175D01*
X016040Y028175D01*
X016040Y027700D01*
X016515Y027700D01*
X016040Y027700D01*
X016040Y027700D01*
X016040Y027700D01*
X016040Y027225D01*
X016237Y027225D01*
X016040Y027225D02*
X016040Y027700D01*
X016040Y027700D01*
X016040Y027700D01*
X015565Y027700D01*
X015565Y027897D01*
X015843Y028175D01*
X016040Y028175D01*
X016040Y027700D01*
X015565Y027700D01*
X015565Y027503D01*
X015843Y027225D01*
X016040Y027225D01*
X016040Y027296D02*
X016040Y027296D01*
X016040Y027454D02*
X016040Y027454D01*
X016040Y027613D02*
X016040Y027613D01*
X016040Y027771D02*
X016040Y027771D01*
X016040Y027930D02*
X016040Y027930D01*
X016040Y028088D02*
X016040Y028088D01*
X016324Y028088D02*
X028080Y028088D01*
X028080Y027930D02*
X016482Y027930D01*
X016515Y027771D02*
X028080Y027771D01*
X028080Y027613D02*
X016515Y027613D01*
X016466Y027454D02*
X028080Y027454D01*
X026591Y029039D02*
X026009Y029039D01*
X026154Y029198D02*
X026446Y029198D01*
X026403Y029356D02*
X026197Y029356D01*
X026197Y029515D02*
X026403Y029515D01*
X026403Y029673D02*
X026197Y029673D01*
X026197Y029832D02*
X026403Y029832D01*
X026425Y029990D02*
X026175Y029990D01*
X026071Y030149D02*
X026529Y030149D01*
X023677Y030466D02*
X022483Y030466D01*
X022641Y030624D02*
X023519Y030624D01*
X023360Y030783D02*
X022800Y030783D01*
X022364Y030941D02*
X021237Y030941D01*
X022800Y030149D02*
X022800Y030149D01*
X022800Y029990D02*
X022800Y029990D01*
X022800Y029832D02*
X022800Y029832D01*
X022800Y029673D02*
X022800Y029673D01*
X022800Y029515D02*
X022800Y029515D01*
X022800Y029356D02*
X022800Y029356D01*
X022800Y029198D02*
X022800Y029198D01*
X022800Y029039D02*
X022800Y029039D01*
X023001Y029039D02*
X023591Y029039D01*
X023446Y029198D02*
X023154Y029198D01*
X023197Y029356D02*
X023403Y029356D01*
X023403Y029515D02*
X023197Y029515D01*
X023197Y029673D02*
X023403Y029673D01*
X023403Y029832D02*
X023197Y029832D01*
X023175Y029990D02*
X023425Y029990D01*
X023529Y030149D02*
X023071Y030149D01*
X017636Y029198D02*
X016234Y029198D01*
X016277Y029356D02*
X016387Y029356D01*
X016089Y029039D02*
X017636Y029039D01*
X015956Y030307D02*
X006650Y030307D01*
X006880Y030255D02*
X006880Y029620D01*
X006880Y029620D01*
X006880Y030255D01*
X006880Y030149D02*
X006880Y030149D01*
X006880Y029990D02*
X006880Y029990D01*
X006880Y029832D02*
X006880Y029832D01*
X006880Y029673D02*
X006880Y029673D01*
X006880Y029620D02*
X007277Y029620D01*
X006880Y029620D01*
X006880Y029620D01*
X006880Y028985D01*
X006880Y029620D01*
X006880Y029620D01*
X006880Y029515D02*
X006880Y029515D01*
X006880Y029356D02*
X006880Y029356D01*
X006880Y029198D02*
X006880Y029198D01*
X006880Y029039D02*
X006880Y029039D01*
X007081Y029039D02*
X007671Y029039D01*
X007655Y029046D02*
X007801Y028985D01*
X007959Y028985D01*
X008105Y029046D01*
X008217Y029157D01*
X008277Y029303D01*
X008277Y029937D01*
X008217Y030083D01*
X008105Y030194D01*
X007959Y030255D01*
X007801Y030255D01*
X007655Y030194D01*
X007543Y030083D01*
X007483Y029937D01*
X007483Y029303D01*
X007543Y029157D01*
X007655Y029046D01*
X007526Y029198D02*
X007234Y029198D01*
X007277Y029356D02*
X007483Y029356D01*
X007483Y029515D02*
X007277Y029515D01*
X007277Y029673D02*
X007483Y029673D01*
X007483Y029832D02*
X007277Y029832D01*
X007255Y029990D02*
X007505Y029990D01*
X007609Y030149D02*
X007151Y030149D01*
X008151Y030149D02*
X008609Y030149D01*
X008655Y030194D02*
X008543Y030083D01*
X008483Y029937D01*
X008483Y029303D01*
X008543Y029157D01*
X008655Y029046D01*
X008801Y028985D01*
X008959Y028985D01*
X009105Y029046D01*
X009217Y029157D01*
X009277Y029303D01*
X009277Y029937D01*
X009217Y030083D01*
X009105Y030194D01*
X008959Y030255D01*
X008801Y030255D01*
X008655Y030194D01*
X008505Y029990D02*
X008255Y029990D01*
X008277Y029832D02*
X008483Y029832D01*
X008483Y029673D02*
X008277Y029673D01*
X008277Y029515D02*
X008483Y029515D01*
X008483Y029356D02*
X008277Y029356D01*
X008234Y029198D02*
X008526Y029198D01*
X008671Y029039D02*
X008089Y029039D01*
X009019Y028858D02*
X009019Y028658D01*
X009377Y028658D01*
X009377Y028997D01*
X009158Y028997D01*
X009117Y028986D01*
X009081Y028965D01*
X009051Y028935D01*
X009030Y028899D01*
X009019Y028858D01*
X009025Y028881D02*
X006650Y028881D01*
X006650Y029039D02*
X006679Y029039D01*
X006650Y028722D02*
X009019Y028722D01*
X009019Y028564D02*
X006650Y028564D01*
X006650Y028405D02*
X009023Y028405D01*
X009377Y028405D02*
X009414Y028405D01*
X009414Y028564D02*
X009377Y028564D01*
X009377Y028722D02*
X009414Y028722D01*
X009414Y028881D02*
X009377Y028881D01*
X009089Y029039D02*
X009671Y029039D01*
X009526Y029198D02*
X009234Y029198D01*
X009277Y029356D02*
X009483Y029356D01*
X009483Y029515D02*
X009277Y029515D01*
X009277Y029673D02*
X009483Y029673D01*
X009483Y029832D02*
X009277Y029832D01*
X009255Y029990D02*
X009505Y029990D01*
X009609Y030149D02*
X009151Y030149D01*
X009507Y030941D02*
X008525Y030941D01*
X008684Y031100D02*
X009349Y031100D01*
X009325Y031258D02*
X008745Y031258D01*
X008745Y031417D02*
X009325Y031417D01*
X009383Y031575D02*
X008679Y031575D01*
X008520Y031734D02*
X009542Y031734D01*
X010058Y031734D02*
X011542Y031734D01*
X011383Y031575D02*
X010217Y031575D01*
X010275Y031417D02*
X011325Y031417D01*
X011325Y031258D02*
X010399Y031258D01*
X010557Y031100D02*
X011349Y031100D01*
X011507Y030941D02*
X010716Y030941D01*
X010122Y030941D02*
X010093Y030941D01*
X011151Y030149D02*
X011609Y030149D01*
X011505Y029990D02*
X011255Y029990D01*
X011277Y029832D02*
X011483Y029832D01*
X011483Y029673D02*
X011277Y029673D01*
X011277Y029515D02*
X011483Y029515D01*
X011483Y029356D02*
X011277Y029356D01*
X011234Y029198D02*
X011526Y029198D01*
X011671Y029039D02*
X011089Y029039D01*
X012866Y028247D02*
X006650Y028247D01*
X006650Y028088D02*
X013024Y028088D01*
X013183Y027930D02*
X006650Y027930D01*
X006650Y027771D02*
X013341Y027771D01*
X013500Y027613D02*
X006650Y027613D01*
X006650Y027454D02*
X013658Y027454D01*
X013680Y027296D02*
X006650Y027296D01*
X006650Y027137D02*
X013680Y027137D01*
X013680Y026979D02*
X006650Y026979D01*
X006650Y026820D02*
X013680Y026820D01*
X013680Y026662D02*
X006650Y026662D01*
X006090Y026662D02*
X004607Y026662D01*
X004073Y026662D02*
X002847Y026662D01*
X002313Y026662D02*
X001420Y026662D01*
X001420Y026820D02*
X002180Y026820D01*
X002180Y026979D02*
X001420Y026979D01*
X001420Y027137D02*
X002191Y027137D01*
X002350Y027296D02*
X001420Y027296D01*
X001420Y027454D02*
X005644Y027454D01*
X005613Y027296D02*
X004570Y027296D01*
X004506Y027560D02*
X004174Y027560D01*
X003964Y027770D01*
X002956Y027770D01*
X002746Y027560D01*
X002414Y027560D01*
X002180Y027794D01*
X002180Y028126D01*
X002414Y028360D01*
X002746Y028360D01*
X002916Y028190D01*
X004004Y028190D01*
X004174Y028360D01*
X004506Y028360D01*
X004740Y028126D01*
X004740Y027794D01*
X004506Y027560D01*
X004558Y027613D02*
X005733Y027613D01*
X006090Y027771D02*
X004717Y027771D01*
X004740Y027930D02*
X006090Y027930D01*
X006090Y028088D02*
X004740Y028088D01*
X004619Y028247D02*
X006090Y028247D01*
X006090Y028405D02*
X001420Y028405D01*
X001420Y028247D02*
X002301Y028247D01*
X002180Y028088D02*
X001420Y028088D01*
X001420Y027930D02*
X002180Y027930D01*
X002203Y027771D02*
X001420Y027771D01*
X001420Y027613D02*
X002362Y027613D01*
X002798Y027613D02*
X004122Y027613D01*
X004110Y027296D02*
X002810Y027296D01*
X002859Y028247D02*
X004061Y028247D01*
X005703Y026820D02*
X006090Y026820D01*
X006090Y026979D02*
X005861Y026979D01*
X006090Y026503D02*
X001420Y026503D01*
X001420Y026345D02*
X006090Y026345D01*
X006090Y026186D02*
X001420Y026186D01*
X001420Y026028D02*
X006090Y026028D01*
X005950Y025869D02*
X001420Y025869D01*
X001420Y025711D02*
X005950Y025711D01*
X005657Y025552D02*
X001420Y025552D01*
X001420Y025394D02*
X005516Y025394D01*
X005500Y025235D02*
X001420Y025235D01*
X001420Y025077D02*
X005500Y025077D01*
X005500Y024918D02*
X001420Y024918D01*
X001420Y024760D02*
X005500Y024760D01*
X005500Y024601D02*
X001420Y024601D01*
X001420Y024443D02*
X005500Y024443D01*
X005500Y024284D02*
X001420Y024284D01*
X001420Y024126D02*
X005500Y024126D01*
X004263Y023809D02*
X002897Y023809D01*
X003009Y022224D02*
X004151Y022224D01*
X004309Y022065D02*
X002851Y022065D01*
X004651Y022065D02*
X004730Y022065D01*
X006663Y025394D02*
X008077Y025394D01*
X007950Y025552D02*
X006790Y025552D01*
X006790Y025711D02*
X007950Y025711D01*
X007950Y025869D02*
X006790Y025869D01*
X006090Y028564D02*
X001420Y028564D01*
X001420Y028722D02*
X006090Y028722D01*
X006090Y028881D02*
X001420Y028881D01*
X001420Y029039D02*
X006090Y029039D01*
X006090Y029198D02*
X001420Y029198D01*
X001420Y029356D02*
X006090Y029356D01*
X006090Y029515D02*
X001420Y029515D01*
X001420Y029673D02*
X006090Y029673D01*
X006090Y029832D02*
X001420Y029832D01*
X001420Y029990D02*
X006090Y029990D01*
X012093Y030941D02*
X012918Y030941D01*
X012760Y031100D02*
X012251Y031100D01*
X014179Y030149D02*
X014609Y030149D01*
X014655Y030194D02*
X014543Y030083D01*
X014483Y029937D01*
X014483Y029303D01*
X014543Y029157D01*
X014655Y029046D01*
X014801Y028985D01*
X014959Y028985D01*
X015105Y029046D01*
X015217Y029157D01*
X015277Y029303D01*
X015277Y029937D01*
X015217Y030083D01*
X015105Y030194D01*
X014959Y030255D01*
X014801Y030255D01*
X014655Y030194D01*
X014505Y029990D02*
X014277Y029990D01*
X014297Y029832D02*
X014483Y029832D01*
X014483Y029673D02*
X014297Y029673D01*
X014297Y029515D02*
X014483Y029515D01*
X014483Y029356D02*
X014297Y029356D01*
X014255Y029198D02*
X014526Y029198D01*
X014671Y029039D02*
X014127Y029039D01*
X014760Y028120D02*
X014620Y027980D01*
X014545Y027798D01*
X014545Y027602D01*
X014620Y027420D01*
X014760Y027280D01*
X014942Y027205D01*
X015138Y027205D01*
X015320Y027280D01*
X015460Y027420D01*
X015535Y027602D01*
X015535Y027798D01*
X015460Y027980D01*
X015320Y028120D01*
X015138Y028195D01*
X014942Y028195D01*
X014760Y028120D01*
X014728Y028088D02*
X013760Y028088D01*
X013918Y027930D02*
X014599Y027930D01*
X014545Y027771D02*
X014077Y027771D01*
X014087Y027760D02*
X014087Y027760D01*
X014191Y027613D02*
X014545Y027613D01*
X014606Y027454D02*
X014200Y027454D01*
X014200Y027296D02*
X014744Y027296D01*
X015336Y027296D02*
X015773Y027296D01*
X015614Y027454D02*
X015474Y027454D01*
X015535Y027613D02*
X015565Y027613D01*
X015565Y027771D02*
X015535Y027771D01*
X015481Y027930D02*
X015598Y027930D01*
X015756Y028088D02*
X015352Y028088D01*
X015089Y029039D02*
X015671Y029039D01*
X015526Y029198D02*
X015234Y029198D01*
X015277Y029356D02*
X015483Y029356D01*
X015483Y029515D02*
X015277Y029515D01*
X015277Y029673D02*
X015483Y029673D01*
X015483Y029832D02*
X015277Y029832D01*
X015255Y029990D02*
X015505Y029990D01*
X015609Y030149D02*
X015151Y030149D01*
X012821Y025394D02*
X012285Y025394D01*
X026230Y020005D02*
X026524Y020005D01*
X028600Y019846D02*
X028682Y019846D01*
X028720Y019688D02*
X029735Y019688D01*
X029577Y019846D02*
X029198Y019846D01*
X029356Y020005D02*
X029418Y020005D01*
X029392Y020480D02*
X029726Y020480D01*
X029885Y020639D02*
X029233Y020639D01*
X030110Y021590D02*
X030439Y021590D01*
X030285Y021748D02*
X030216Y021748D01*
X030255Y021907D02*
X030285Y021907D01*
X030285Y022065D02*
X030244Y022065D01*
X030177Y022224D02*
X030372Y022224D01*
X030530Y022382D02*
X029986Y022382D01*
X030305Y020639D02*
X031885Y020639D01*
X031726Y020480D02*
X030464Y020480D01*
X030515Y020322D02*
X031675Y020322D01*
X031675Y020163D02*
X030515Y020163D01*
X030438Y020005D02*
X031752Y020005D01*
X031910Y019846D02*
X030280Y019846D01*
X029894Y019529D02*
X028879Y019529D01*
X029037Y019371D02*
X030052Y019371D01*
X029844Y019212D02*
X029368Y019212D01*
X029486Y019054D02*
X029733Y019054D01*
X029703Y018895D02*
X029517Y018895D01*
X029517Y018737D02*
X029703Y018737D01*
X029703Y018578D02*
X029517Y018578D01*
X029517Y018420D02*
X029703Y018420D01*
X029735Y018261D02*
X029483Y018261D01*
X029400Y018103D02*
X029850Y018103D01*
X032362Y018103D02*
X036293Y018103D01*
X036293Y018261D02*
X032483Y018261D01*
X032517Y018420D02*
X036293Y018420D01*
X036293Y018578D02*
X032517Y018578D01*
X032517Y018737D02*
X036293Y018737D01*
X036293Y018895D02*
X032517Y018895D01*
X032486Y019054D02*
X036293Y019054D01*
X036293Y019212D02*
X032368Y019212D01*
X029338Y014774D02*
X036293Y014774D01*
D21*
X028500Y012140D03*
X028180Y011300D03*
X025300Y006740D03*
X022900Y005780D03*
X023860Y002740D03*
X028660Y006420D03*
X029140Y002740D03*
X022580Y011060D03*
X027860Y016660D03*
X022260Y016980D03*
X018260Y020500D03*
X015060Y020340D03*
X012500Y022260D03*
X011260Y023180D03*
X008340Y023060D03*
X003540Y025140D03*
X008500Y029020D03*
X011380Y029020D03*
X012660Y032180D03*
X018900Y032180D03*
X022260Y027700D03*
X027300Y029060D03*
X027860Y027060D03*
X027460Y023500D03*
X022260Y022260D03*
X014100Y015380D03*
X008180Y008660D03*
X006100Y010900D03*
X003380Y011540D03*
X004660Y007380D03*
X005300Y003540D03*
X009140Y003540D03*
X009140Y005300D03*
X013300Y005460D03*
X013300Y003540D03*
X016340Y002740D03*
X005140Y032020D03*
D22*
X001700Y032700D02*
X001540Y032540D01*
X001700Y032700D02*
X030820Y032700D01*
X030820Y031300D01*
X033220Y027540D02*
X033220Y027520D01*
X033220Y027540D02*
X034980Y027540D01*
X034980Y027520D01*
X035060Y021540D02*
X033300Y021540D01*
X033300Y021520D01*
X035060Y021540D02*
X035060Y021520D01*
X035060Y016020D02*
X033220Y016020D01*
X033220Y016000D01*
X035060Y016020D02*
X035060Y016000D01*
X035060Y010260D02*
X033300Y010260D01*
X033300Y010240D01*
X035060Y010260D02*
X035060Y010240D01*
X034980Y005140D02*
X033300Y005140D01*
X033300Y005120D01*
X034980Y005140D02*
X034980Y005120D01*
X028660Y006420D02*
X028180Y006740D01*
X027380Y007540D01*
X027280Y007540D01*
X027880Y012140D02*
X027200Y012820D01*
X027880Y012140D02*
X028500Y012140D01*
X028180Y017900D02*
X027660Y017900D01*
X027660Y018380D01*
X027380Y018660D01*
X027120Y018660D01*
X017880Y019140D02*
X017660Y019140D01*
X017660Y019300D01*
X017140Y019820D01*
X016180Y019820D01*
X014460Y018100D01*
X014820Y016700D02*
X017260Y016700D01*
X017660Y016300D01*
X017660Y016140D01*
X017880Y016140D01*
X016880Y017140D02*
X016540Y017140D01*
X016500Y017100D01*
X009900Y017100D01*
X009460Y016620D02*
X006180Y016620D01*
X005380Y016100D02*
X003820Y016100D01*
X003780Y016140D01*
X003420Y016140D01*
X002980Y015700D01*
X002620Y015700D01*
X002609Y015708D01*
X003420Y015140D02*
X002980Y014700D01*
X002620Y014700D01*
X002609Y014708D01*
X003420Y015140D02*
X003780Y015140D01*
X003820Y015100D01*
X004900Y015100D01*
X005380Y014700D02*
X003620Y014700D01*
X003609Y014708D01*
X003609Y013708D02*
X003620Y013700D01*
X005060Y013700D01*
X006260Y013260D02*
X003460Y013260D01*
X003020Y013700D01*
X002620Y013700D01*
X002609Y013708D01*
X001540Y008340D02*
X010980Y008340D01*
X011260Y008060D01*
X011420Y008060D01*
X011700Y007780D01*
X011700Y006860D01*
X010060Y006860D01*
X010020Y006900D01*
X009700Y006900D01*
X009460Y006660D01*
X009460Y006500D01*
X009225Y006500D01*
X009740Y007740D02*
X010060Y008060D01*
X010700Y008060D01*
X010700Y007740D01*
X010980Y007460D01*
X011240Y007460D01*
X011220Y007480D01*
X004340Y005380D02*
X004340Y005360D01*
X004340Y005380D02*
X002420Y005380D01*
X002420Y005360D01*
X002680Y022460D02*
X004480Y022460D01*
X004340Y026960D02*
X004340Y026980D01*
X005580Y026980D01*
X005980Y027380D01*
X004340Y026980D02*
X002580Y026980D01*
X002580Y026960D01*
D23*
X005980Y027380D03*
X013500Y026260D03*
X004620Y018700D03*
X006180Y016620D03*
X005380Y016100D03*
X004900Y015100D03*
X005380Y014700D03*
X005060Y013700D03*
X006260Y013260D03*
X009460Y016620D03*
X009900Y017100D03*
X014460Y018100D03*
X014820Y016700D03*
X013260Y008420D03*
X009740Y007740D03*
X006740Y006060D03*
X028180Y017900D03*
X027980Y021140D03*
X027980Y025900D03*
X030820Y031300D03*
X028700Y013100D03*
D24*
X009140Y021140D03*
X004980Y021780D03*
X008980Y027060D03*
D25*
X010065Y028600D02*
X010065Y028640D01*
X010065Y028600D02*
X012880Y028600D01*
X013940Y027540D01*
X013940Y026260D01*
X028340Y026260D01*
X028340Y028500D01*
X028200Y028640D01*
X025915Y028640D01*
X028340Y028500D02*
X028820Y028980D01*
X028820Y029600D01*
X028800Y029620D01*
X028340Y026260D02*
X028340Y025140D01*
X028960Y024520D01*
X028960Y024020D01*
X028820Y023880D01*
X028820Y023380D01*
X028340Y022900D01*
X028140Y023100D01*
X026015Y023100D01*
X028340Y022900D02*
X028340Y019700D01*
X029120Y018920D01*
X029120Y018660D01*
X029140Y018640D01*
X029140Y017940D01*
X028340Y017140D01*
X028340Y016980D01*
X027680Y017640D01*
X026375Y017640D01*
X028340Y016980D02*
X028340Y014100D01*
X029200Y013240D01*
X029200Y012820D01*
X029200Y011860D01*
X029060Y011720D01*
X026335Y011720D01*
X028180Y009940D02*
X029200Y010960D01*
X029200Y011860D01*
X028180Y009940D02*
X018660Y009940D01*
X017700Y010900D01*
X017700Y010820D01*
X017140Y010260D01*
X014420Y010260D01*
X012240Y008080D01*
X012240Y007460D01*
X012240Y006960D01*
X011700Y006420D01*
X009975Y006420D01*
X009895Y006500D01*
X007130Y009315D02*
X007130Y010330D01*
X007540Y010740D01*
X008180Y010740D01*
X014600Y010740D01*
X015060Y011200D01*
X017700Y011120D02*
X017700Y010900D01*
X025955Y006220D02*
X026140Y006220D01*
X026420Y005940D01*
X029300Y005940D01*
X029300Y007540D01*
X029298Y007460D01*
X029280Y007540D02*
X029280Y007880D01*
X028500Y008660D01*
X028500Y009620D01*
X028180Y009940D01*
X012740Y023140D02*
X012340Y022740D01*
X010420Y022740D01*
X010400Y022720D01*
X010395Y022720D01*
X010415Y022740D01*
X010420Y022740D01*
X012740Y023140D02*
X012740Y023780D01*
X012820Y023860D01*
X012820Y024660D01*
X012980Y024820D01*
X013780Y024820D01*
X013940Y024980D01*
X013940Y026260D01*
X012880Y028600D02*
X012880Y029620D01*
X006370Y031290D02*
X006370Y025695D01*
X005975Y025300D01*
X005780Y025300D01*
X005780Y020660D01*
X005732Y020708D01*
X003609Y020708D01*
X003580Y020700D01*
X002620Y020700D01*
X002609Y020708D01*
X005780Y020660D02*
X005780Y014580D01*
X007700Y012660D01*
X007700Y011220D01*
X008180Y010740D01*
X005130Y009315D02*
X005100Y009300D01*
X004780Y009300D01*
X004260Y009820D01*
X003820Y009820D01*
X003300Y009300D01*
X003040Y009300D01*
X006370Y031290D02*
X006325Y031335D01*
D26*
X009800Y031320D02*
X009820Y031340D01*
X010020Y031340D01*
X010740Y030620D01*
X015940Y030620D01*
X016140Y030420D01*
X018180Y030420D01*
X018180Y029436D02*
X018180Y029420D01*
X016620Y029420D01*
X016420Y029620D01*
X015880Y029620D01*
X013105Y031320D02*
X013100Y031340D01*
X011820Y031340D01*
X011800Y031320D01*
X010620Y026300D02*
X009980Y025660D01*
X009880Y025660D01*
X010620Y026300D02*
X013460Y026300D01*
X013500Y026260D01*
X013120Y025660D02*
X012460Y025660D01*
X012420Y025700D01*
X012260Y025700D01*
X012220Y025660D01*
X011880Y025660D01*
X010395Y022720D02*
X010340Y022660D01*
X010340Y022260D01*
X009860Y021780D01*
X009780Y021780D01*
X009140Y021140D01*
X004980Y021780D02*
X004980Y023380D01*
X004500Y023380D01*
X004500Y023420D01*
X004480Y023460D01*
X002680Y023460D01*
X002580Y027960D02*
X002580Y027980D01*
X004340Y027980D01*
X004340Y027960D01*
X004620Y018700D02*
X003620Y018700D01*
X003609Y018708D01*
X013260Y008420D02*
X017620Y008420D01*
X017620Y007436D02*
X017620Y007420D01*
X015660Y007420D01*
X015620Y007460D01*
X015240Y007460D01*
X014820Y007460D01*
X014820Y007260D01*
X014380Y006820D01*
X012460Y006820D01*
X011820Y006180D01*
X010420Y006180D01*
X010300Y006060D01*
X006740Y006060D01*
X006340Y006420D02*
X004660Y006420D01*
X004620Y006380D01*
X004340Y006380D01*
X004340Y006360D01*
X004300Y006380D01*
X002420Y006380D01*
X002420Y006360D01*
X006340Y006420D02*
X006740Y006820D01*
X006740Y006860D01*
X007060Y007180D01*
X007060Y007420D01*
X007100Y007460D01*
X007240Y007460D01*
X017880Y018140D02*
X020180Y018140D01*
X020300Y018020D01*
X025260Y018020D01*
X025300Y018060D01*
X025900Y018060D01*
X026140Y017820D01*
X026140Y017660D01*
X026300Y017660D01*
X026375Y017640D01*
X025920Y020260D02*
X026940Y020260D01*
X027660Y020820D02*
X024020Y020820D01*
X023460Y020260D01*
X022920Y020260D01*
X022660Y020260D01*
X022260Y019860D01*
X021300Y019860D01*
X021100Y019660D01*
X020820Y019660D01*
X020820Y019644D01*
X016660Y024140D02*
X016300Y023780D01*
X015740Y023780D01*
X016660Y024140D02*
X018100Y024140D01*
X018100Y024156D01*
X020740Y025164D02*
X020740Y025180D01*
X021020Y025180D01*
X021100Y025260D01*
X022420Y025260D01*
X022700Y025540D01*
X022980Y025540D01*
X023015Y025555D01*
X023060Y025540D01*
X023420Y025540D01*
X023900Y026020D01*
X026540Y026020D01*
X026580Y025980D01*
X026900Y025980D01*
X026940Y026020D01*
X027260Y026020D01*
X027380Y025900D01*
X027980Y025900D01*
X027100Y025540D02*
X026740Y025540D01*
X026700Y025500D01*
X026340Y025500D01*
X026300Y025540D01*
X026020Y025540D01*
X026015Y025555D01*
X029100Y025540D02*
X029500Y025540D01*
X030060Y024980D01*
X031420Y024980D01*
X031420Y023780D01*
X032660Y022540D01*
X033260Y022540D01*
X033300Y022520D01*
X033300Y022540D01*
X035060Y022540D01*
X035060Y022520D01*
X030660Y019060D02*
X030660Y017020D01*
X033180Y017020D01*
X033220Y017000D01*
X033220Y017020D01*
X035060Y017020D01*
X035060Y017000D01*
X030660Y019060D02*
X029460Y020260D01*
X028940Y020260D01*
X027980Y021140D02*
X027660Y020820D01*
X027100Y014340D02*
X026080Y014340D01*
X024180Y013780D02*
X023620Y014340D01*
X023080Y014340D01*
X022820Y014340D01*
X022500Y014020D01*
X021140Y014020D01*
X021020Y013900D01*
X020740Y013900D01*
X020740Y013884D01*
X024180Y013780D02*
X028300Y013780D01*
X028700Y013380D01*
X028700Y013100D01*
X027340Y009060D02*
X026320Y009060D01*
X023320Y009060D02*
X021980Y009060D01*
X021300Y008380D01*
X021300Y008340D01*
X023860Y005780D01*
X026220Y005780D01*
X026300Y005700D01*
X028700Y005700D01*
X029500Y004900D01*
X031740Y004900D01*
X031740Y007260D01*
X032020Y007540D01*
X032280Y007540D01*
X033300Y006140D02*
X033300Y006120D01*
X033300Y006140D02*
X034980Y006140D01*
X034980Y006120D01*
X035060Y011240D02*
X035060Y011260D01*
X033300Y011260D01*
X033300Y011240D01*
X029280Y007540D02*
X029300Y007460D01*
X029298Y007460D01*
X021300Y008380D02*
X020740Y008380D01*
X020740Y008364D01*
X033220Y028520D02*
X033220Y028540D01*
X034980Y028540D01*
X034980Y028520D01*
X031800Y029620D02*
X031700Y029620D01*
X031660Y029660D01*
X031660Y029980D01*
X031420Y030220D01*
X031380Y030220D01*
X031100Y030500D01*
X023940Y030500D01*
X023420Y031020D01*
X023340Y031020D01*
X023180Y031180D01*
X023140Y031180D01*
X023125Y031190D01*
X023100Y031180D01*
X022900Y031180D01*
X022380Y030660D01*
X021220Y030660D01*
X021020Y030460D01*
X020740Y030460D01*
X020740Y030444D01*
X026125Y031190D02*
X026140Y031180D01*
X026780Y031180D01*
X026820Y031220D01*
X027180Y031220D01*
M02*
