G75*
G70*
%OFA0B0*%
%FSLAX24Y24*%
%IPPOS*%
%LPD*%
%AMOC8*
5,1,8,0,0,1.08239X$1,22.5*
%
%ADD10C,0.0000*%
%ADD11C,0.1320*%
%ADD12C,0.0535*%
%ADD13OC8,0.0660*%
%ADD14C,0.0460*%
%ADD15R,0.0493X0.0454*%
%ADD16OC8,0.0540*%
%ADD17OC8,0.0690*%
%ADD18R,0.0828X0.0828*%
%ADD19R,0.0660X0.0660*%
%ADD20C,0.0690*%
%ADD21C,0.0457*%
%ADD22C,0.0417*%
%ADD23C,0.0496*%
D10*
X001140Y001460D02*
X001140Y032956D01*
X036573Y032956D01*
X036573Y001460D01*
X001140Y001460D01*
X002479Y003429D02*
X002481Y003479D01*
X002487Y003529D01*
X002497Y003578D01*
X002511Y003626D01*
X002528Y003673D01*
X002549Y003718D01*
X002574Y003762D01*
X002602Y003803D01*
X002634Y003842D01*
X002668Y003879D01*
X002705Y003913D01*
X002745Y003943D01*
X002787Y003970D01*
X002831Y003994D01*
X002877Y004015D01*
X002924Y004031D01*
X002972Y004044D01*
X003022Y004053D01*
X003071Y004058D01*
X003122Y004059D01*
X003172Y004056D01*
X003221Y004049D01*
X003270Y004038D01*
X003318Y004023D01*
X003364Y004005D01*
X003409Y003983D01*
X003452Y003957D01*
X003493Y003928D01*
X003532Y003896D01*
X003568Y003861D01*
X003600Y003823D01*
X003630Y003783D01*
X003657Y003740D01*
X003680Y003696D01*
X003699Y003650D01*
X003715Y003602D01*
X003727Y003553D01*
X003735Y003504D01*
X003739Y003454D01*
X003739Y003404D01*
X003735Y003354D01*
X003727Y003305D01*
X003715Y003256D01*
X003699Y003208D01*
X003680Y003162D01*
X003657Y003118D01*
X003630Y003075D01*
X003600Y003035D01*
X003568Y002997D01*
X003532Y002962D01*
X003493Y002930D01*
X003452Y002901D01*
X003409Y002875D01*
X003364Y002853D01*
X003318Y002835D01*
X003270Y002820D01*
X003221Y002809D01*
X003172Y002802D01*
X003122Y002799D01*
X003071Y002800D01*
X003022Y002805D01*
X002972Y002814D01*
X002924Y002827D01*
X002877Y002843D01*
X002831Y002864D01*
X002787Y002888D01*
X002745Y002915D01*
X002705Y002945D01*
X002668Y002979D01*
X002634Y003016D01*
X002602Y003055D01*
X002574Y003096D01*
X002549Y003140D01*
X002528Y003185D01*
X002511Y003232D01*
X002497Y003280D01*
X002487Y003329D01*
X002481Y003379D01*
X002479Y003429D01*
X002479Y030988D02*
X002481Y031038D01*
X002487Y031088D01*
X002497Y031137D01*
X002511Y031185D01*
X002528Y031232D01*
X002549Y031277D01*
X002574Y031321D01*
X002602Y031362D01*
X002634Y031401D01*
X002668Y031438D01*
X002705Y031472D01*
X002745Y031502D01*
X002787Y031529D01*
X002831Y031553D01*
X002877Y031574D01*
X002924Y031590D01*
X002972Y031603D01*
X003022Y031612D01*
X003071Y031617D01*
X003122Y031618D01*
X003172Y031615D01*
X003221Y031608D01*
X003270Y031597D01*
X003318Y031582D01*
X003364Y031564D01*
X003409Y031542D01*
X003452Y031516D01*
X003493Y031487D01*
X003532Y031455D01*
X003568Y031420D01*
X003600Y031382D01*
X003630Y031342D01*
X003657Y031299D01*
X003680Y031255D01*
X003699Y031209D01*
X003715Y031161D01*
X003727Y031112D01*
X003735Y031063D01*
X003739Y031013D01*
X003739Y030963D01*
X003735Y030913D01*
X003727Y030864D01*
X003715Y030815D01*
X003699Y030767D01*
X003680Y030721D01*
X003657Y030677D01*
X003630Y030634D01*
X003600Y030594D01*
X003568Y030556D01*
X003532Y030521D01*
X003493Y030489D01*
X003452Y030460D01*
X003409Y030434D01*
X003364Y030412D01*
X003318Y030394D01*
X003270Y030379D01*
X003221Y030368D01*
X003172Y030361D01*
X003122Y030358D01*
X003071Y030359D01*
X003022Y030364D01*
X002972Y030373D01*
X002924Y030386D01*
X002877Y030402D01*
X002831Y030423D01*
X002787Y030447D01*
X002745Y030474D01*
X002705Y030504D01*
X002668Y030538D01*
X002634Y030575D01*
X002602Y030614D01*
X002574Y030655D01*
X002549Y030699D01*
X002528Y030744D01*
X002511Y030791D01*
X002497Y030839D01*
X002487Y030888D01*
X002481Y030938D01*
X002479Y030988D01*
X033975Y030988D02*
X033977Y031038D01*
X033983Y031088D01*
X033993Y031137D01*
X034007Y031185D01*
X034024Y031232D01*
X034045Y031277D01*
X034070Y031321D01*
X034098Y031362D01*
X034130Y031401D01*
X034164Y031438D01*
X034201Y031472D01*
X034241Y031502D01*
X034283Y031529D01*
X034327Y031553D01*
X034373Y031574D01*
X034420Y031590D01*
X034468Y031603D01*
X034518Y031612D01*
X034567Y031617D01*
X034618Y031618D01*
X034668Y031615D01*
X034717Y031608D01*
X034766Y031597D01*
X034814Y031582D01*
X034860Y031564D01*
X034905Y031542D01*
X034948Y031516D01*
X034989Y031487D01*
X035028Y031455D01*
X035064Y031420D01*
X035096Y031382D01*
X035126Y031342D01*
X035153Y031299D01*
X035176Y031255D01*
X035195Y031209D01*
X035211Y031161D01*
X035223Y031112D01*
X035231Y031063D01*
X035235Y031013D01*
X035235Y030963D01*
X035231Y030913D01*
X035223Y030864D01*
X035211Y030815D01*
X035195Y030767D01*
X035176Y030721D01*
X035153Y030677D01*
X035126Y030634D01*
X035096Y030594D01*
X035064Y030556D01*
X035028Y030521D01*
X034989Y030489D01*
X034948Y030460D01*
X034905Y030434D01*
X034860Y030412D01*
X034814Y030394D01*
X034766Y030379D01*
X034717Y030368D01*
X034668Y030361D01*
X034618Y030358D01*
X034567Y030359D01*
X034518Y030364D01*
X034468Y030373D01*
X034420Y030386D01*
X034373Y030402D01*
X034327Y030423D01*
X034283Y030447D01*
X034241Y030474D01*
X034201Y030504D01*
X034164Y030538D01*
X034130Y030575D01*
X034098Y030614D01*
X034070Y030655D01*
X034045Y030699D01*
X034024Y030744D01*
X034007Y030791D01*
X033993Y030839D01*
X033983Y030888D01*
X033977Y030938D01*
X033975Y030988D01*
X033975Y003429D02*
X033977Y003479D01*
X033983Y003529D01*
X033993Y003578D01*
X034007Y003626D01*
X034024Y003673D01*
X034045Y003718D01*
X034070Y003762D01*
X034098Y003803D01*
X034130Y003842D01*
X034164Y003879D01*
X034201Y003913D01*
X034241Y003943D01*
X034283Y003970D01*
X034327Y003994D01*
X034373Y004015D01*
X034420Y004031D01*
X034468Y004044D01*
X034518Y004053D01*
X034567Y004058D01*
X034618Y004059D01*
X034668Y004056D01*
X034717Y004049D01*
X034766Y004038D01*
X034814Y004023D01*
X034860Y004005D01*
X034905Y003983D01*
X034948Y003957D01*
X034989Y003928D01*
X035028Y003896D01*
X035064Y003861D01*
X035096Y003823D01*
X035126Y003783D01*
X035153Y003740D01*
X035176Y003696D01*
X035195Y003650D01*
X035211Y003602D01*
X035223Y003553D01*
X035231Y003504D01*
X035235Y003454D01*
X035235Y003404D01*
X035231Y003354D01*
X035223Y003305D01*
X035211Y003256D01*
X035195Y003208D01*
X035176Y003162D01*
X035153Y003118D01*
X035126Y003075D01*
X035096Y003035D01*
X035064Y002997D01*
X035028Y002962D01*
X034989Y002930D01*
X034948Y002901D01*
X034905Y002875D01*
X034860Y002853D01*
X034814Y002835D01*
X034766Y002820D01*
X034717Y002809D01*
X034668Y002802D01*
X034618Y002799D01*
X034567Y002800D01*
X034518Y002805D01*
X034468Y002814D01*
X034420Y002827D01*
X034373Y002843D01*
X034327Y002864D01*
X034283Y002888D01*
X034241Y002915D01*
X034201Y002945D01*
X034164Y002979D01*
X034130Y003016D01*
X034098Y003055D01*
X034070Y003096D01*
X034045Y003140D01*
X034024Y003185D01*
X034007Y003232D01*
X033993Y003280D01*
X033983Y003329D01*
X033977Y003379D01*
X033975Y003429D01*
D11*
X034605Y003429D03*
X034605Y030988D03*
X003109Y030988D03*
X003109Y003429D03*
D12*
X006240Y007223D02*
X006240Y007697D01*
X007240Y007697D02*
X007240Y007223D01*
X008240Y007223D02*
X008240Y007697D01*
X009240Y007697D02*
X009240Y007223D01*
X010240Y007223D02*
X010240Y007697D01*
X011240Y007697D02*
X011240Y007223D01*
X012240Y007223D02*
X012240Y007697D01*
X013240Y007697D02*
X013240Y007223D01*
X014240Y007223D02*
X014240Y007697D01*
X015240Y007697D02*
X015240Y007223D01*
X023280Y007303D02*
X023280Y007777D01*
X024280Y007777D02*
X024280Y007303D01*
X025280Y007303D02*
X025280Y007777D01*
X026280Y007777D02*
X026280Y007303D01*
X027280Y007303D02*
X027280Y007777D01*
X028280Y007777D02*
X028280Y007303D01*
X029280Y007303D02*
X029280Y007777D01*
X030280Y007777D02*
X030280Y007303D01*
X031280Y007303D02*
X031280Y007777D01*
X032280Y007777D02*
X032280Y007303D01*
X032200Y012583D02*
X032200Y013057D01*
X031200Y013057D02*
X031200Y012583D01*
X030200Y012583D02*
X030200Y013057D01*
X029200Y013057D02*
X029200Y012583D01*
X028200Y012583D02*
X028200Y013057D01*
X027200Y013057D02*
X027200Y012583D01*
X026200Y012583D02*
X026200Y013057D01*
X025200Y013057D02*
X025200Y012583D01*
X024200Y012583D02*
X024200Y013057D01*
X023200Y013057D02*
X023200Y012583D01*
X023120Y018423D02*
X023120Y018897D01*
X024120Y018897D02*
X024120Y018423D01*
X025120Y018423D02*
X025120Y018897D01*
X026120Y018897D02*
X026120Y018423D01*
X027120Y018423D02*
X027120Y018897D01*
X028120Y018897D02*
X028120Y018423D01*
X029120Y018423D02*
X029120Y018897D01*
X030120Y018897D02*
X030120Y018423D01*
X031120Y018423D02*
X031120Y018897D01*
X032120Y018897D02*
X032120Y018423D01*
X031960Y023783D02*
X031960Y024257D01*
X030960Y024257D02*
X030960Y023783D01*
X029960Y023783D02*
X029960Y024257D01*
X028960Y024257D02*
X028960Y023783D01*
X027960Y023783D02*
X027960Y024257D01*
X026960Y024257D02*
X026960Y023783D01*
X025960Y023783D02*
X025960Y024257D01*
X024960Y024257D02*
X024960Y023783D01*
X023960Y023783D02*
X023960Y024257D01*
X022960Y024257D02*
X022960Y023783D01*
X022800Y029383D02*
X022800Y029857D01*
X023800Y029857D02*
X023800Y029383D01*
X024800Y029383D02*
X024800Y029857D01*
X025800Y029857D02*
X025800Y029383D01*
X026800Y029383D02*
X026800Y029857D01*
X027800Y029857D02*
X027800Y029383D01*
X028800Y029383D02*
X028800Y029857D01*
X029800Y029857D02*
X029800Y029383D01*
X030800Y029383D02*
X030800Y029857D01*
X031800Y029857D02*
X031800Y029383D01*
X015880Y029383D02*
X015880Y029857D01*
X014880Y029857D02*
X014880Y029383D01*
X013880Y029383D02*
X013880Y029857D01*
X012880Y029857D02*
X012880Y029383D01*
X011880Y029383D02*
X011880Y029857D01*
X010880Y029857D02*
X010880Y029383D01*
X009880Y029383D02*
X009880Y029857D01*
X008880Y029857D02*
X008880Y029383D01*
X007880Y029383D02*
X007880Y029857D01*
X006880Y029857D02*
X006880Y029383D01*
X006740Y024017D02*
X006740Y023543D01*
X007740Y023543D02*
X007740Y024017D01*
X008740Y024017D02*
X008740Y023543D01*
X009740Y023543D02*
X009740Y024017D01*
X010740Y024017D02*
X010740Y023543D01*
X011740Y023543D02*
X011740Y024017D01*
X012740Y024017D02*
X012740Y023543D01*
X013740Y023543D02*
X013740Y024017D01*
X014740Y024017D02*
X014740Y023543D01*
X015740Y023543D02*
X015740Y024017D01*
D13*
X016880Y019140D03*
X017880Y019140D03*
X017880Y018140D03*
X017880Y017140D03*
X016880Y017140D03*
X016880Y018140D03*
X016880Y016140D03*
X017880Y016140D03*
X016880Y015140D03*
X003609Y014708D03*
X003609Y013708D03*
X002609Y013708D03*
X002609Y014708D03*
X002609Y015708D03*
X003609Y015708D03*
X003609Y016708D03*
X003609Y017708D03*
X003609Y018708D03*
X003609Y019708D03*
X003609Y020708D03*
X002609Y020708D03*
X002609Y019708D03*
X002609Y018708D03*
X002609Y017708D03*
X002609Y016708D03*
D14*
X009040Y012225D02*
X009040Y011825D01*
X011040Y011825D02*
X011040Y012225D01*
D15*
X009895Y006500D03*
X009225Y006500D03*
X025285Y006220D03*
X025955Y006220D03*
X025665Y011720D03*
X026335Y011720D03*
X026375Y017640D03*
X025705Y017640D03*
X026015Y023100D03*
X025345Y023100D03*
X025245Y028640D03*
X025915Y028640D03*
X010395Y022720D03*
X009725Y022720D03*
X009395Y028640D03*
X010065Y028640D03*
D16*
X008325Y031335D03*
X006325Y031335D03*
X004340Y027960D03*
X004340Y026960D03*
X002580Y026960D03*
X002580Y027960D03*
X006370Y025695D03*
X008370Y025695D03*
X004480Y023460D03*
X004480Y022460D03*
X002680Y022460D03*
X002680Y023460D03*
X013120Y025660D03*
X016120Y025660D03*
X016105Y031320D03*
X013105Y031320D03*
X023125Y031190D03*
X026125Y031190D03*
X030305Y031130D03*
X032305Y031130D03*
X033220Y028520D03*
X033220Y027520D03*
X034980Y027520D03*
X034980Y028520D03*
X032160Y025470D03*
X030160Y025470D03*
X033300Y022520D03*
X033300Y021520D03*
X032095Y020255D03*
X030095Y020255D03*
X033220Y017000D03*
X033220Y016000D03*
X035060Y016000D03*
X035060Y017000D03*
X032355Y014270D03*
X030355Y014270D03*
X033300Y011240D03*
X033300Y010240D03*
X032635Y008945D03*
X030635Y008945D03*
X033300Y006120D03*
X033300Y005120D03*
X034980Y005120D03*
X034980Y006120D03*
X035060Y010240D03*
X035060Y011240D03*
X026320Y009060D03*
X023320Y009060D03*
X023080Y014340D03*
X026080Y014340D03*
X025920Y020260D03*
X022920Y020260D03*
X023015Y025555D03*
X026015Y025555D03*
X035060Y022520D03*
X035060Y021520D03*
X015280Y009460D03*
X012280Y009460D03*
X007130Y009315D03*
X005130Y009315D03*
X005170Y012365D03*
X007170Y012365D03*
X004340Y006360D03*
X004340Y005360D03*
X002420Y005360D03*
X002420Y006360D03*
D17*
X004040Y009300D03*
X009020Y009460D03*
X011020Y009460D03*
X015060Y012200D03*
X017700Y012120D03*
X027100Y014340D03*
X029100Y014340D03*
X030920Y016340D03*
X028940Y020260D03*
X026940Y020260D03*
X030760Y021940D03*
X029100Y025540D03*
X027100Y025540D03*
X030600Y027540D03*
X029180Y031220D03*
X027180Y031220D03*
X016040Y027700D03*
X011880Y025660D03*
X009880Y025660D03*
X009800Y031320D03*
X011800Y031320D03*
X008520Y019540D03*
X027340Y009060D03*
X029340Y009060D03*
X030920Y010740D03*
X030600Y005460D03*
D18*
X020740Y007380D03*
X020740Y008364D03*
X017620Y008420D03*
X017620Y007436D03*
X020740Y012900D03*
X020740Y013884D03*
X020820Y018660D03*
X020820Y019644D03*
X020740Y024180D03*
X020740Y025164D03*
X018100Y025140D03*
X018100Y024156D03*
X018180Y029436D03*
X018180Y030420D03*
X020740Y030444D03*
X020740Y029460D03*
D19*
X017880Y015140D03*
D20*
X017700Y011120D03*
X015060Y011200D03*
X007520Y019540D03*
X015040Y027700D03*
X029600Y027540D03*
X029760Y021940D03*
X029920Y016340D03*
X029920Y010740D03*
X029600Y005460D03*
X003040Y009300D03*
D21*
X003380Y011540D03*
X006100Y010900D03*
X008180Y008660D03*
X004660Y007380D03*
X005300Y003540D03*
X009140Y003540D03*
X009140Y005300D03*
X013300Y005460D03*
X013300Y003540D03*
X016340Y002740D03*
X022900Y005780D03*
X025300Y006740D03*
X028660Y006420D03*
X029140Y002740D03*
X023860Y002740D03*
X022580Y011060D03*
X028180Y011300D03*
X028500Y012140D03*
X027860Y016660D03*
X022260Y016980D03*
X018260Y020500D03*
X015060Y020340D03*
X012500Y022260D03*
X011260Y023180D03*
X008340Y023060D03*
X003540Y025140D03*
X008500Y029020D03*
X011380Y029020D03*
X012660Y032180D03*
X018900Y032180D03*
X022260Y027700D03*
X027300Y029060D03*
X027860Y027060D03*
X027460Y023500D03*
X022260Y022260D03*
X014100Y015380D03*
X005140Y032020D03*
D22*
X005980Y027380D03*
X013500Y026260D03*
X004620Y018700D03*
X006180Y016620D03*
X005380Y016100D03*
X004900Y015100D03*
X005380Y014700D03*
X005060Y013700D03*
X006260Y013260D03*
X009460Y016620D03*
X009900Y017100D03*
X014460Y018100D03*
X014820Y016700D03*
X013260Y008420D03*
X009740Y007740D03*
X006740Y006060D03*
X028180Y017900D03*
X027980Y021140D03*
X027980Y025900D03*
X030820Y031300D03*
X028700Y013100D03*
D23*
X009140Y021140D03*
X004980Y021780D03*
X008980Y027060D03*
M02*
