%
M48
M72
T01C0.0118
T02C0.0138
T03C0.0157
T04C0.0197
T05C0.0236
T06C0.0240
T07C0.0315
T08C0.0320
T09C0.0400
T10C0.0433
T11C0.0512
T12C0.1378
%
T01
X4700Y14701
X5100Y14861
X4700Y15501
X5100Y16141
X2380Y16701
X4620Y19341
X2380Y20221
X8940Y17101
X9340Y16781
X9660Y17101
X8940Y16301
X9340Y15501
X9660Y15181
X12780Y18221
X14460Y17341
X15420Y17021
X15900Y16541
X16780Y17341
X18780Y17341
X19260Y17581
X19100Y17981
X18700Y16541
X18620Y15581
X19820Y14941
X19740Y14541
X17180Y14781
X16140Y12861
X21500Y11261
X23180Y17261
X20700Y20941
X20220Y20941
X20220Y21341
X19740Y21341
X17420Y21341
X17340Y20941
X16940Y20941
X16940Y20541
X16260Y19821
X15820Y19821
X15820Y19341
X15340Y19341
X14780Y18941
X15100Y18621
X14780Y22541
T02
X13100Y22221
X13100Y21101
X13340Y20381
X10220Y22381
X9740Y22381
X9260Y22381
X8780Y22381
X8300Y22381
X7820Y22381
X7820Y22861
X8300Y22861
X8780Y22861
X9260Y22861
X9260Y23341
X8780Y23341
X8300Y23341
X7820Y23341
X7820Y23821
X8300Y23821
X8780Y23821
X9260Y23821
X9740Y23821
X9740Y23341
X9740Y22861
X10220Y22861
X10220Y23341
X10220Y23821
X10220Y24301
X9740Y24301
X9740Y24781
X10220Y24781
X10220Y25261
X9740Y25261
X9260Y25261
X9260Y24781
X9260Y24301
X8780Y24301
X8300Y24301
X7820Y24301
X7820Y24781
X8300Y24781
X8780Y24781
X8780Y25261
X8300Y25261
X7820Y25261
X7820Y25741
X8300Y25741
X8780Y25741
X9260Y25741
X9260Y26221
X8780Y26221
X8300Y26221
X7820Y26221
X7820Y26701
X8300Y26701
X8780Y26701
X9260Y26701
X9740Y26701
X9740Y26221
X9740Y25741
X10220Y25741
X10220Y26221
X10220Y26701
X10220Y27181
X9740Y27181
X9260Y27181
X8780Y27181
X8300Y27181
X7820Y27181
X5820Y25901
X5780Y25421
X5980Y24781
X5980Y23301
X11740Y25981
X11740Y27101
X14380Y25021
X15900Y25101
X16220Y25421
X17580Y25101
X18620Y25421
X20540Y25421
X21820Y25101
X21940Y26301
X22300Y26621
X23220Y26621
X23500Y27021
X23380Y25701
X24940Y25741
X25420Y25741
X25900Y25741
X25900Y26221
X25420Y26221
X24940Y26221
X24940Y26701
X25420Y26701
X25900Y26701
X26380Y26701
X26380Y26221
X26380Y25741
X26860Y25741
X27340Y25741
X27340Y26221
X26860Y26221
X26860Y26701
X27340Y26701
X27340Y27181
X26860Y27181
X26380Y27181
X25900Y27181
X25420Y27181
X24940Y27181
X24940Y25261
X24940Y24781
X24940Y24301
X25420Y24301
X25900Y24301
X25900Y24781
X25420Y24781
X25420Y25261
X25900Y25261
X26380Y25261
X26380Y24781
X26380Y24301
X26860Y24301
X27340Y24301
X27340Y24781
X26860Y24781
X26860Y25261
X27340Y25261
X27340Y23821
X27340Y23341
X27340Y22861
X26860Y22861
X26380Y22861
X26380Y23341
X26860Y23341
X26860Y23821
X26380Y23821
X25900Y23821
X25900Y23341
X25900Y22861
X25420Y22861
X24940Y22861
X24940Y23341
X25420Y23341
X25420Y23821
X24940Y23821
X23380Y23501
X22860Y23581
X22740Y22701
X21900Y22701
X21860Y21901
X23620Y21821
X26140Y18621
X24300Y17181
X23740Y17181
X23100Y16301
X22780Y14941
X21180Y14461
X21100Y13981
X20540Y15581
X21260Y16621
X18580Y14861
X17660Y14781
X17180Y15261
X16180Y13581
X15580Y13341
X14700Y10781
X15100Y10141
X14900Y9341
X14220Y8781
X13860Y7421
X12540Y8621
X12060Y8621
X11580Y8621
X11100Y8621
X10620Y8621
X10140Y8621
X10140Y9101
X10620Y9101
X11100Y9101
X11580Y9101
X11580Y9581
X11100Y9581
X10620Y9581
X10140Y9581
X10140Y10061
X10620Y10061
X11100Y10061
X11580Y10061
X12060Y10061
X12060Y9581
X12060Y9101
X12540Y9101
X12540Y9581
X12540Y10061
X12540Y10541
X12060Y10541
X12060Y11021
X12540Y11021
X12540Y11501
X12060Y11501
X11580Y11501
X11580Y11021
X11580Y10541
X11100Y10541
X10620Y10541
X10140Y10541
X10140Y11021
X10620Y11021
X11100Y11021
X11100Y11501
X10620Y11501
X10140Y11501
X10140Y11981
X10620Y11981
X11100Y11981
X11580Y11981
X11580Y12461
X11100Y12461
X10620Y12461
X10140Y12461
X10140Y12941
X10620Y12941
X11100Y12941
X11580Y12941
X12060Y12941
X12060Y12461
X12060Y11981
X12540Y11981
X12540Y12461
X12540Y12941
X12540Y13421
X12060Y13421
X11580Y13421
X11100Y13421
X10620Y13421
X10140Y13421
X7340Y10621
X7300Y9821
X7820Y8781
X8700Y9581
X6580Y6621
X3780Y9181
X19180Y27741
X27740Y21501
X28060Y21181
X28380Y20861
X28780Y22221
X29260Y22221
X29740Y22221
X29260Y23661
X29580Y26221
X28780Y27021
X34780Y17821
X32100Y13101
X32900Y12941
X30620Y12861
X30620Y12381
X30140Y12381
X29660Y12381
X29180Y12381
X28700Y12381
X28700Y12861
X29180Y12861
X29660Y12861
X30140Y12861
X30140Y13341
X29660Y13341
X29180Y13341
X28700Y13341
X28220Y13341
X28220Y12861
X28220Y12381
X28220Y11901
X28220Y11421
X28220Y10941
X28220Y10461
X28220Y9981
X28220Y9501
X28220Y9021
X28220Y8541
X28700Y8541
X29180Y8541
X29660Y8541
X30140Y8541
X30620Y8541
X30620Y9021
X30140Y9021
X29660Y9021
X29180Y9021
X28700Y9021
X28700Y9501
X29180Y9501
X29660Y9501
X30140Y9501
X30620Y9501
X30620Y9981
X30140Y9981
X29660Y9981
X29180Y9981
X28700Y9981
X28700Y10461
X29180Y10461
X29660Y10461
X30140Y10461
X30620Y10461
X30620Y10941
X30140Y10941
X29660Y10941
X29180Y10941
X28700Y10941
X28700Y11421
X29180Y11421
X29660Y11421
X30140Y11421
X30620Y11421
X30620Y11901
X30140Y11901
X29660Y11901
X29180Y11901
X28700Y11901
X30620Y13341
X27540Y15981
X24700Y9421
X25900Y8701
X32060Y8701
X32220Y9501
X34820Y7421
X35460Y6141
X35300Y10621
T03
X26220Y16621
X25420Y15021
X24460Y15021
X22060Y16621
X20060Y17181
X19260Y16461
X18020Y16221
X17860Y17021
X18300Y17741
X15500Y17981
X14780Y17821
X13460Y19741
X12620Y20381
X12020Y16861
X15780Y14461
X23100Y10941
X25820Y18941
X23260Y20141
X23260Y22141
X20500Y27741
X21140Y28621
X19300Y28381
X16140Y26061
X15900Y24221
X13980Y25341
X6340Y24221
X3860Y24301
X3700Y27101
X4900Y28541
X7220Y15901
X31180Y24061
X31420Y24941
X33940Y28941
X34900Y28941
T04
X21660Y30221
X19900Y28381
X18700Y28381
X17420Y26461
X10860Y22101
X6380Y22941
X19500Y8301
X17340Y7661
X18540Y5741
X19500Y5741
T05
X17340Y9421
X19260Y10061
X13260Y13741
X8780Y13581
X6780Y12301
X5660Y13021
X5260Y17021
X7900Y19661
X12300Y22301
X13740Y22221
X17420Y18381
X18220Y21581
X23900Y18781
X27180Y20621
X24220Y22221
X23980Y27581
X24460Y28621
X30140Y24061
X30620Y17261
X31100Y13821
X26380Y13341
X17580Y28301
T06
X17765Y13114
X19765Y13114
T07
X22300Y9981
X24300Y13741
X27260Y13901
X32700Y13901
X35180Y20861
X31180Y22621
X32220Y28221
X28620Y30861
X22380Y25101
X13980Y17741
X5580Y26941
X11020Y31661
X15580Y7501
X11100Y4781
X27820Y5101
T08
X28100Y7381
X30100Y7381
X25020Y6441
X24080Y7501
X23080Y7501
X22860Y5941
X22860Y4941
X22860Y3941
X21000Y3761
X20000Y3761
X19000Y3761
X18000Y3761
X15740Y3941
X15740Y4941
X15740Y5941
X13580Y6441
X12580Y7421
X10580Y7421
X8240Y7981
X7240Y7981
X13580Y3441
X18000Y6761
X19000Y6761
X20000Y6761
X21000Y6761
X25020Y3441
X25900Y14441
X25900Y15441
X24060Y15441
X24060Y14441
X28340Y16321
X29340Y16321
X30340Y16321
X31340Y16321
X32340Y16321
X33340Y16321
X34340Y16321
X34340Y19321
X33340Y19321
X32340Y19321
X31340Y19321
X30340Y19321
X29340Y19321
X28340Y19321
X25785Y19782
X25785Y20782
X23828Y20782
X23828Y19782
X26427Y28234
X28427Y28234
X29800Y27981
X30800Y27981
X24780Y29761
X22780Y29941
X22780Y30941
X22780Y31941
X24780Y32761
X20520Y32441
X19520Y32441
X18520Y32441
X17520Y32441
X15900Y31941
X15900Y30941
X15900Y29941
X17520Y29441
X18520Y29441
X19520Y29441
X20520Y29441
X14140Y29681
X13200Y28061
X12200Y28061
X10660Y28381
X8660Y28381
X14140Y32681
X11980Y20881
X11980Y19881
X10140Y19881
X10140Y20881
X10432Y18487
X9632Y18487
X7570Y18674
X7570Y17674
X6580Y16621
X8580Y16621
X10220Y15681
X10220Y14681
X12060Y14681
X12060Y15681
T09
X3969Y15709
X3969Y14709
X2969Y14709
X2969Y15709
X2969Y16709
X2969Y17709
X3969Y17709
X3969Y16709
X3969Y18709
X3969Y19709
X3969Y20709
X3969Y21709
X2969Y21709
X2969Y20709
X2969Y19709
X2969Y18709
X17580Y23321
X18580Y23321
X19580Y23321
X20580Y23321
X21580Y23321
X21580Y24321
X20580Y24321
X19580Y24321
X18580Y24321
X17580Y24321
T10
X12820Y29761
X9820Y29761
X7820Y29761
X5820Y29761
X5820Y32761
X7820Y32761
X9820Y32761
X12820Y32761
X26180Y32761
X26180Y29761
X29180Y29761
X31180Y29761
X33180Y29761
X33180Y32761
X31180Y32761
X29180Y32761
X29260Y6441
X31260Y6441
X33260Y6441
X33260Y3441
X31260Y3441
X29260Y3441
X26260Y3441
X26260Y6441
X12260Y6361
X12260Y3361
X9260Y3361
X7260Y3361
X5260Y3361
X5260Y6361
X7260Y6361
X9260Y6361
T11
X4004Y8301
X3020Y8301
X3020Y10941
X4004Y10941
X4300Y25261
X3316Y25261
X3316Y27821
X4300Y27821
X34397Y27237
X35381Y27237
X35381Y24226
X34397Y24226
X34300Y12301
X35284Y12301
X35284Y9421
X34300Y9421
T12
X3469Y4430
X3469Y31989
X34965Y31989
X34965Y4430
M30
