G75*
G70*
%OFA0B0*%
%FSLAX24Y24*%
%IPPOS*%
%LPD*%
%AMOC8*
5,1,8,0,0,1.08239X$1,22.5*
%
%ADD10C,0.0000*%
D10*
X001500Y002461D02*
X001500Y033957D01*
X036933Y033957D01*
X036933Y002461D01*
X001500Y002461D01*
X002780Y004430D02*
X002782Y004482D01*
X002788Y004534D01*
X002798Y004585D01*
X002811Y004635D01*
X002829Y004685D01*
X002850Y004732D01*
X002874Y004778D01*
X002903Y004822D01*
X002934Y004864D01*
X002968Y004903D01*
X003005Y004940D01*
X003045Y004973D01*
X003088Y005004D01*
X003132Y005031D01*
X003178Y005055D01*
X003227Y005075D01*
X003276Y005091D01*
X003327Y005104D01*
X003378Y005113D01*
X003430Y005118D01*
X003482Y005119D01*
X003534Y005116D01*
X003586Y005109D01*
X003637Y005098D01*
X003687Y005084D01*
X003736Y005065D01*
X003783Y005043D01*
X003828Y005018D01*
X003872Y004989D01*
X003913Y004957D01*
X003952Y004922D01*
X003987Y004884D01*
X004020Y004843D01*
X004050Y004801D01*
X004076Y004756D01*
X004099Y004709D01*
X004118Y004660D01*
X004134Y004610D01*
X004146Y004560D01*
X004154Y004508D01*
X004158Y004456D01*
X004158Y004404D01*
X004154Y004352D01*
X004146Y004300D01*
X004134Y004250D01*
X004118Y004200D01*
X004099Y004151D01*
X004076Y004104D01*
X004050Y004059D01*
X004020Y004017D01*
X003987Y003976D01*
X003952Y003938D01*
X003913Y003903D01*
X003872Y003871D01*
X003828Y003842D01*
X003783Y003817D01*
X003736Y003795D01*
X003687Y003776D01*
X003637Y003762D01*
X003586Y003751D01*
X003534Y003744D01*
X003482Y003741D01*
X003430Y003742D01*
X003378Y003747D01*
X003327Y003756D01*
X003276Y003769D01*
X003227Y003785D01*
X003178Y003805D01*
X003132Y003829D01*
X003088Y003856D01*
X003045Y003887D01*
X003005Y003920D01*
X002968Y003957D01*
X002934Y003996D01*
X002903Y004038D01*
X002874Y004082D01*
X002850Y004128D01*
X002829Y004175D01*
X002811Y004225D01*
X002798Y004275D01*
X002788Y004326D01*
X002782Y004378D01*
X002780Y004430D01*
X002780Y031989D02*
X002782Y032041D01*
X002788Y032093D01*
X002798Y032144D01*
X002811Y032194D01*
X002829Y032244D01*
X002850Y032291D01*
X002874Y032337D01*
X002903Y032381D01*
X002934Y032423D01*
X002968Y032462D01*
X003005Y032499D01*
X003045Y032532D01*
X003088Y032563D01*
X003132Y032590D01*
X003178Y032614D01*
X003227Y032634D01*
X003276Y032650D01*
X003327Y032663D01*
X003378Y032672D01*
X003430Y032677D01*
X003482Y032678D01*
X003534Y032675D01*
X003586Y032668D01*
X003637Y032657D01*
X003687Y032643D01*
X003736Y032624D01*
X003783Y032602D01*
X003828Y032577D01*
X003872Y032548D01*
X003913Y032516D01*
X003952Y032481D01*
X003987Y032443D01*
X004020Y032402D01*
X004050Y032360D01*
X004076Y032315D01*
X004099Y032268D01*
X004118Y032219D01*
X004134Y032169D01*
X004146Y032119D01*
X004154Y032067D01*
X004158Y032015D01*
X004158Y031963D01*
X004154Y031911D01*
X004146Y031859D01*
X004134Y031809D01*
X004118Y031759D01*
X004099Y031710D01*
X004076Y031663D01*
X004050Y031618D01*
X004020Y031576D01*
X003987Y031535D01*
X003952Y031497D01*
X003913Y031462D01*
X003872Y031430D01*
X003828Y031401D01*
X003783Y031376D01*
X003736Y031354D01*
X003687Y031335D01*
X003637Y031321D01*
X003586Y031310D01*
X003534Y031303D01*
X003482Y031300D01*
X003430Y031301D01*
X003378Y031306D01*
X003327Y031315D01*
X003276Y031328D01*
X003227Y031344D01*
X003178Y031364D01*
X003132Y031388D01*
X003088Y031415D01*
X003045Y031446D01*
X003005Y031479D01*
X002968Y031516D01*
X002934Y031555D01*
X002903Y031597D01*
X002874Y031641D01*
X002850Y031687D01*
X002829Y031734D01*
X002811Y031784D01*
X002798Y031834D01*
X002788Y031885D01*
X002782Y031937D01*
X002780Y031989D01*
X034276Y031989D02*
X034278Y032041D01*
X034284Y032093D01*
X034294Y032144D01*
X034307Y032194D01*
X034325Y032244D01*
X034346Y032291D01*
X034370Y032337D01*
X034399Y032381D01*
X034430Y032423D01*
X034464Y032462D01*
X034501Y032499D01*
X034541Y032532D01*
X034584Y032563D01*
X034628Y032590D01*
X034674Y032614D01*
X034723Y032634D01*
X034772Y032650D01*
X034823Y032663D01*
X034874Y032672D01*
X034926Y032677D01*
X034978Y032678D01*
X035030Y032675D01*
X035082Y032668D01*
X035133Y032657D01*
X035183Y032643D01*
X035232Y032624D01*
X035279Y032602D01*
X035324Y032577D01*
X035368Y032548D01*
X035409Y032516D01*
X035448Y032481D01*
X035483Y032443D01*
X035516Y032402D01*
X035546Y032360D01*
X035572Y032315D01*
X035595Y032268D01*
X035614Y032219D01*
X035630Y032169D01*
X035642Y032119D01*
X035650Y032067D01*
X035654Y032015D01*
X035654Y031963D01*
X035650Y031911D01*
X035642Y031859D01*
X035630Y031809D01*
X035614Y031759D01*
X035595Y031710D01*
X035572Y031663D01*
X035546Y031618D01*
X035516Y031576D01*
X035483Y031535D01*
X035448Y031497D01*
X035409Y031462D01*
X035368Y031430D01*
X035324Y031401D01*
X035279Y031376D01*
X035232Y031354D01*
X035183Y031335D01*
X035133Y031321D01*
X035082Y031310D01*
X035030Y031303D01*
X034978Y031300D01*
X034926Y031301D01*
X034874Y031306D01*
X034823Y031315D01*
X034772Y031328D01*
X034723Y031344D01*
X034674Y031364D01*
X034628Y031388D01*
X034584Y031415D01*
X034541Y031446D01*
X034501Y031479D01*
X034464Y031516D01*
X034430Y031555D01*
X034399Y031597D01*
X034370Y031641D01*
X034346Y031687D01*
X034325Y031734D01*
X034307Y031784D01*
X034294Y031834D01*
X034284Y031885D01*
X034278Y031937D01*
X034276Y031989D01*
X034276Y004430D02*
X034278Y004482D01*
X034284Y004534D01*
X034294Y004585D01*
X034307Y004635D01*
X034325Y004685D01*
X034346Y004732D01*
X034370Y004778D01*
X034399Y004822D01*
X034430Y004864D01*
X034464Y004903D01*
X034501Y004940D01*
X034541Y004973D01*
X034584Y005004D01*
X034628Y005031D01*
X034674Y005055D01*
X034723Y005075D01*
X034772Y005091D01*
X034823Y005104D01*
X034874Y005113D01*
X034926Y005118D01*
X034978Y005119D01*
X035030Y005116D01*
X035082Y005109D01*
X035133Y005098D01*
X035183Y005084D01*
X035232Y005065D01*
X035279Y005043D01*
X035324Y005018D01*
X035368Y004989D01*
X035409Y004957D01*
X035448Y004922D01*
X035483Y004884D01*
X035516Y004843D01*
X035546Y004801D01*
X035572Y004756D01*
X035595Y004709D01*
X035614Y004660D01*
X035630Y004610D01*
X035642Y004560D01*
X035650Y004508D01*
X035654Y004456D01*
X035654Y004404D01*
X035650Y004352D01*
X035642Y004300D01*
X035630Y004250D01*
X035614Y004200D01*
X035595Y004151D01*
X035572Y004104D01*
X035546Y004059D01*
X035516Y004017D01*
X035483Y003976D01*
X035448Y003938D01*
X035409Y003903D01*
X035368Y003871D01*
X035324Y003842D01*
X035279Y003817D01*
X035232Y003795D01*
X035183Y003776D01*
X035133Y003762D01*
X035082Y003751D01*
X035030Y003744D01*
X034978Y003741D01*
X034926Y003742D01*
X034874Y003747D01*
X034823Y003756D01*
X034772Y003769D01*
X034723Y003785D01*
X034674Y003805D01*
X034628Y003829D01*
X034584Y003856D01*
X034541Y003887D01*
X034501Y003920D01*
X034464Y003957D01*
X034430Y003996D01*
X034399Y004038D01*
X034370Y004082D01*
X034346Y004128D01*
X034325Y004175D01*
X034307Y004225D01*
X034294Y004275D01*
X034284Y004326D01*
X034278Y004378D01*
X034276Y004430D01*
M02*
