G75*
G70*
%OFA0B0*%
%FSLAX24Y24*%
%IPPOS*%
%LPD*%
%AMOC8*
5,1,8,0,0,1.08239X$1,22.5*
%
%ADD10C,0.0000*%
%ADD11C,0.1438*%
%ADD12R,0.3040X0.5360*%
%ADD13R,0.2960X0.5120*%
%ADD14R,0.2960X0.5280*%
%ADD15R,0.2880X0.5280*%
%ADD16OC8,0.0660*%
%ADD17C,0.0460*%
%ADD18OC8,0.0560*%
%ADD19C,0.0560*%
%ADD20OC8,0.0690*%
%ADD21C,0.0690*%
%ADD22OC8,0.0540*%
%ADD23R,0.0828X0.0828*%
%ADD24R,0.0660X0.0660*%
%ADD25R,0.0710X0.0710*%
%ADD26C,0.0540*%
%ADD27OC8,0.0680*%
%ADD28C,0.0680*%
%ADD29C,0.0575*%
%ADD30C,0.0398*%
%ADD31C,0.0496*%
%ADD32C,0.0417*%
%ADD33C,0.0378*%
%ADD34OC8,0.0575*%
%ADD35OC8,0.0457*%
%ADD36OC8,0.0398*%
%ADD37C,0.0457*%
D10*
X001500Y002461D02*
X001500Y033957D01*
X036933Y033957D01*
X036933Y002461D01*
X001500Y002461D01*
X002780Y004430D02*
X002782Y004482D01*
X002788Y004534D01*
X002798Y004585D01*
X002811Y004635D01*
X002829Y004685D01*
X002850Y004732D01*
X002874Y004778D01*
X002903Y004822D01*
X002934Y004864D01*
X002968Y004903D01*
X003005Y004940D01*
X003045Y004973D01*
X003088Y005004D01*
X003132Y005031D01*
X003178Y005055D01*
X003227Y005075D01*
X003276Y005091D01*
X003327Y005104D01*
X003378Y005113D01*
X003430Y005118D01*
X003482Y005119D01*
X003534Y005116D01*
X003586Y005109D01*
X003637Y005098D01*
X003687Y005084D01*
X003736Y005065D01*
X003783Y005043D01*
X003828Y005018D01*
X003872Y004989D01*
X003913Y004957D01*
X003952Y004922D01*
X003987Y004884D01*
X004020Y004843D01*
X004050Y004801D01*
X004076Y004756D01*
X004099Y004709D01*
X004118Y004660D01*
X004134Y004610D01*
X004146Y004560D01*
X004154Y004508D01*
X004158Y004456D01*
X004158Y004404D01*
X004154Y004352D01*
X004146Y004300D01*
X004134Y004250D01*
X004118Y004200D01*
X004099Y004151D01*
X004076Y004104D01*
X004050Y004059D01*
X004020Y004017D01*
X003987Y003976D01*
X003952Y003938D01*
X003913Y003903D01*
X003872Y003871D01*
X003828Y003842D01*
X003783Y003817D01*
X003736Y003795D01*
X003687Y003776D01*
X003637Y003762D01*
X003586Y003751D01*
X003534Y003744D01*
X003482Y003741D01*
X003430Y003742D01*
X003378Y003747D01*
X003327Y003756D01*
X003276Y003769D01*
X003227Y003785D01*
X003178Y003805D01*
X003132Y003829D01*
X003088Y003856D01*
X003045Y003887D01*
X003005Y003920D01*
X002968Y003957D01*
X002934Y003996D01*
X002903Y004038D01*
X002874Y004082D01*
X002850Y004128D01*
X002829Y004175D01*
X002811Y004225D01*
X002798Y004275D01*
X002788Y004326D01*
X002782Y004378D01*
X002780Y004430D01*
X002780Y031989D02*
X002782Y032041D01*
X002788Y032093D01*
X002798Y032144D01*
X002811Y032194D01*
X002829Y032244D01*
X002850Y032291D01*
X002874Y032337D01*
X002903Y032381D01*
X002934Y032423D01*
X002968Y032462D01*
X003005Y032499D01*
X003045Y032532D01*
X003088Y032563D01*
X003132Y032590D01*
X003178Y032614D01*
X003227Y032634D01*
X003276Y032650D01*
X003327Y032663D01*
X003378Y032672D01*
X003430Y032677D01*
X003482Y032678D01*
X003534Y032675D01*
X003586Y032668D01*
X003637Y032657D01*
X003687Y032643D01*
X003736Y032624D01*
X003783Y032602D01*
X003828Y032577D01*
X003872Y032548D01*
X003913Y032516D01*
X003952Y032481D01*
X003987Y032443D01*
X004020Y032402D01*
X004050Y032360D01*
X004076Y032315D01*
X004099Y032268D01*
X004118Y032219D01*
X004134Y032169D01*
X004146Y032119D01*
X004154Y032067D01*
X004158Y032015D01*
X004158Y031963D01*
X004154Y031911D01*
X004146Y031859D01*
X004134Y031809D01*
X004118Y031759D01*
X004099Y031710D01*
X004076Y031663D01*
X004050Y031618D01*
X004020Y031576D01*
X003987Y031535D01*
X003952Y031497D01*
X003913Y031462D01*
X003872Y031430D01*
X003828Y031401D01*
X003783Y031376D01*
X003736Y031354D01*
X003687Y031335D01*
X003637Y031321D01*
X003586Y031310D01*
X003534Y031303D01*
X003482Y031300D01*
X003430Y031301D01*
X003378Y031306D01*
X003327Y031315D01*
X003276Y031328D01*
X003227Y031344D01*
X003178Y031364D01*
X003132Y031388D01*
X003088Y031415D01*
X003045Y031446D01*
X003005Y031479D01*
X002968Y031516D01*
X002934Y031555D01*
X002903Y031597D01*
X002874Y031641D01*
X002850Y031687D01*
X002829Y031734D01*
X002811Y031784D01*
X002798Y031834D01*
X002788Y031885D01*
X002782Y031937D01*
X002780Y031989D01*
X034276Y031989D02*
X034278Y032041D01*
X034284Y032093D01*
X034294Y032144D01*
X034307Y032194D01*
X034325Y032244D01*
X034346Y032291D01*
X034370Y032337D01*
X034399Y032381D01*
X034430Y032423D01*
X034464Y032462D01*
X034501Y032499D01*
X034541Y032532D01*
X034584Y032563D01*
X034628Y032590D01*
X034674Y032614D01*
X034723Y032634D01*
X034772Y032650D01*
X034823Y032663D01*
X034874Y032672D01*
X034926Y032677D01*
X034978Y032678D01*
X035030Y032675D01*
X035082Y032668D01*
X035133Y032657D01*
X035183Y032643D01*
X035232Y032624D01*
X035279Y032602D01*
X035324Y032577D01*
X035368Y032548D01*
X035409Y032516D01*
X035448Y032481D01*
X035483Y032443D01*
X035516Y032402D01*
X035546Y032360D01*
X035572Y032315D01*
X035595Y032268D01*
X035614Y032219D01*
X035630Y032169D01*
X035642Y032119D01*
X035650Y032067D01*
X035654Y032015D01*
X035654Y031963D01*
X035650Y031911D01*
X035642Y031859D01*
X035630Y031809D01*
X035614Y031759D01*
X035595Y031710D01*
X035572Y031663D01*
X035546Y031618D01*
X035516Y031576D01*
X035483Y031535D01*
X035448Y031497D01*
X035409Y031462D01*
X035368Y031430D01*
X035324Y031401D01*
X035279Y031376D01*
X035232Y031354D01*
X035183Y031335D01*
X035133Y031321D01*
X035082Y031310D01*
X035030Y031303D01*
X034978Y031300D01*
X034926Y031301D01*
X034874Y031306D01*
X034823Y031315D01*
X034772Y031328D01*
X034723Y031344D01*
X034674Y031364D01*
X034628Y031388D01*
X034584Y031415D01*
X034541Y031446D01*
X034501Y031479D01*
X034464Y031516D01*
X034430Y031555D01*
X034399Y031597D01*
X034370Y031641D01*
X034346Y031687D01*
X034325Y031734D01*
X034307Y031784D01*
X034294Y031834D01*
X034284Y031885D01*
X034278Y031937D01*
X034276Y031989D01*
X034276Y004430D02*
X034278Y004482D01*
X034284Y004534D01*
X034294Y004585D01*
X034307Y004635D01*
X034325Y004685D01*
X034346Y004732D01*
X034370Y004778D01*
X034399Y004822D01*
X034430Y004864D01*
X034464Y004903D01*
X034501Y004940D01*
X034541Y004973D01*
X034584Y005004D01*
X034628Y005031D01*
X034674Y005055D01*
X034723Y005075D01*
X034772Y005091D01*
X034823Y005104D01*
X034874Y005113D01*
X034926Y005118D01*
X034978Y005119D01*
X035030Y005116D01*
X035082Y005109D01*
X035133Y005098D01*
X035183Y005084D01*
X035232Y005065D01*
X035279Y005043D01*
X035324Y005018D01*
X035368Y004989D01*
X035409Y004957D01*
X035448Y004922D01*
X035483Y004884D01*
X035516Y004843D01*
X035546Y004801D01*
X035572Y004756D01*
X035595Y004709D01*
X035614Y004660D01*
X035630Y004610D01*
X035642Y004560D01*
X035650Y004508D01*
X035654Y004456D01*
X035654Y004404D01*
X035650Y004352D01*
X035642Y004300D01*
X035630Y004250D01*
X035614Y004200D01*
X035595Y004151D01*
X035572Y004104D01*
X035546Y004059D01*
X035516Y004017D01*
X035483Y003976D01*
X035448Y003938D01*
X035409Y003903D01*
X035368Y003871D01*
X035324Y003842D01*
X035279Y003817D01*
X035232Y003795D01*
X035183Y003776D01*
X035133Y003762D01*
X035082Y003751D01*
X035030Y003744D01*
X034978Y003741D01*
X034926Y003742D01*
X034874Y003747D01*
X034823Y003756D01*
X034772Y003769D01*
X034723Y003785D01*
X034674Y003805D01*
X034628Y003829D01*
X034584Y003856D01*
X034541Y003887D01*
X034501Y003920D01*
X034464Y003957D01*
X034430Y003996D01*
X034399Y004038D01*
X034370Y004082D01*
X034346Y004128D01*
X034325Y004175D01*
X034307Y004225D01*
X034294Y004275D01*
X034284Y004326D01*
X034278Y004378D01*
X034276Y004430D01*
D11*
X034965Y004430D03*
X034965Y031989D03*
X003469Y031989D03*
X003469Y004430D03*
D12*
X009020Y024741D03*
D13*
X026180Y024781D03*
D14*
X029460Y010941D03*
D15*
X011340Y011021D03*
D16*
X003969Y014709D03*
X003969Y015709D03*
X003969Y016709D03*
X003969Y017709D03*
X003969Y018709D03*
X003969Y019709D03*
X003969Y020709D03*
X003969Y021709D03*
X002969Y021709D03*
X002969Y020709D03*
X002969Y019709D03*
X002969Y018709D03*
X002969Y017709D03*
X002969Y016709D03*
X002969Y015709D03*
X002969Y014709D03*
X017580Y024321D03*
X018580Y024321D03*
X018580Y023321D03*
X019580Y023321D03*
X020580Y023321D03*
X021580Y023321D03*
X021580Y024321D03*
X020580Y024321D03*
X019580Y024321D03*
D17*
X019765Y013314D02*
X019765Y012914D01*
X017765Y012914D02*
X017765Y013314D01*
D18*
X010432Y018487D03*
D19*
X009632Y018487D03*
D20*
X007570Y018674D03*
D21*
X007570Y017674D03*
D22*
X006580Y016621D03*
X008580Y016621D03*
X010220Y015681D03*
X010220Y014681D03*
X012060Y014681D03*
X012060Y015681D03*
X011980Y019881D03*
X011980Y020881D03*
X010140Y020881D03*
X010140Y019881D03*
X010660Y028381D03*
X008660Y028381D03*
X023828Y020782D03*
X023828Y019782D03*
X025785Y019782D03*
X025785Y020782D03*
X025900Y015441D03*
X025900Y014441D03*
X024060Y014441D03*
X024060Y015441D03*
X028100Y007381D03*
X030100Y007381D03*
X012580Y007421D03*
X010580Y007421D03*
X026427Y028234D03*
X028427Y028234D03*
D23*
X034397Y027237D03*
X035381Y027237D03*
X035381Y024226D03*
X034397Y024226D03*
X034300Y012301D03*
X035284Y012301D03*
X035284Y009421D03*
X034300Y009421D03*
X004300Y025261D03*
X003316Y025261D03*
X003316Y027821D03*
X004300Y027821D03*
X004004Y010941D03*
X003020Y010941D03*
X003020Y008301D03*
X004004Y008301D03*
D24*
X017580Y023321D03*
D25*
X012820Y029761D03*
X009820Y029761D03*
X007820Y029761D03*
X005820Y029761D03*
X005820Y032761D03*
X007820Y032761D03*
X009820Y032761D03*
X012820Y032761D03*
X026180Y032761D03*
X026180Y029761D03*
X029180Y029761D03*
X031180Y029761D03*
X033180Y029761D03*
X033180Y032761D03*
X031180Y032761D03*
X029180Y032761D03*
X029260Y006441D03*
X031260Y006441D03*
X033260Y006441D03*
X033260Y003441D03*
X031260Y003441D03*
X029260Y003441D03*
X026260Y003441D03*
X026260Y006441D03*
X012260Y006361D03*
X012260Y003361D03*
X009260Y003361D03*
X007260Y003361D03*
X005260Y003361D03*
X005260Y006361D03*
X007260Y006361D03*
X009260Y006361D03*
D26*
X013580Y006201D02*
X013580Y006681D01*
X015500Y005941D02*
X015980Y005941D01*
X015980Y004941D02*
X015500Y004941D01*
X015500Y003941D02*
X015980Y003941D01*
X018000Y004001D02*
X018000Y003521D01*
X019000Y003521D02*
X019000Y004001D01*
X020000Y004001D02*
X020000Y003521D01*
X021000Y003521D02*
X021000Y004001D01*
X022620Y003941D02*
X023100Y003941D01*
X023100Y004941D02*
X022620Y004941D01*
X022620Y005941D02*
X023100Y005941D01*
X025020Y006201D02*
X025020Y006681D01*
X025020Y003681D02*
X025020Y003201D01*
X021000Y006521D02*
X021000Y007001D01*
X020000Y007001D02*
X020000Y006521D01*
X019000Y006521D02*
X019000Y007001D01*
X018000Y007001D02*
X018000Y006521D01*
X013580Y003681D02*
X013580Y003201D01*
X028340Y016081D02*
X028340Y016561D01*
X029340Y016561D02*
X029340Y016081D01*
X030340Y016081D02*
X030340Y016561D01*
X031340Y016561D02*
X031340Y016081D01*
X032340Y016081D02*
X032340Y016561D01*
X033340Y016561D02*
X033340Y016081D01*
X034340Y016081D02*
X034340Y016561D01*
X034340Y019081D02*
X034340Y019561D01*
X033340Y019561D02*
X033340Y019081D01*
X032340Y019081D02*
X032340Y019561D01*
X031340Y019561D02*
X031340Y019081D01*
X030340Y019081D02*
X030340Y019561D01*
X029340Y019561D02*
X029340Y019081D01*
X028340Y019081D02*
X028340Y019561D01*
X020520Y029201D02*
X020520Y029681D01*
X019520Y029681D02*
X019520Y029201D01*
X018520Y029201D02*
X018520Y029681D01*
X017520Y029681D02*
X017520Y029201D01*
X016140Y029941D02*
X015660Y029941D01*
X015660Y030941D02*
X016140Y030941D01*
X016140Y031941D02*
X015660Y031941D01*
X014140Y032441D02*
X014140Y032921D01*
X014140Y029921D02*
X014140Y029441D01*
X017520Y032201D02*
X017520Y032681D01*
X018520Y032681D02*
X018520Y032201D01*
X019520Y032201D02*
X019520Y032681D01*
X020520Y032681D02*
X020520Y032201D01*
X022540Y031941D02*
X023020Y031941D01*
X023020Y030941D02*
X022540Y030941D01*
X022540Y029941D02*
X023020Y029941D01*
X024780Y030001D02*
X024780Y029521D01*
X024780Y032521D02*
X024780Y033001D01*
D27*
X030800Y027981D03*
X013200Y028061D03*
X007240Y007981D03*
X023080Y007501D03*
D28*
X024080Y007501D03*
X008240Y007981D03*
X012200Y028061D03*
X029800Y027981D03*
D29*
X035180Y020861D03*
X024300Y013741D03*
X022300Y009981D03*
X027820Y005101D03*
X013980Y017741D03*
X011020Y031661D03*
D30*
X010220Y027181D03*
X009740Y027181D03*
X009740Y026701D03*
X009740Y026221D03*
X009740Y025741D03*
X010220Y025741D03*
X010220Y026221D03*
X010220Y026701D03*
X009260Y026701D03*
X009260Y026221D03*
X009260Y025741D03*
X008780Y025741D03*
X008300Y025741D03*
X007820Y025741D03*
X007820Y026221D03*
X008300Y026221D03*
X008780Y026221D03*
X008780Y026701D03*
X008300Y026701D03*
X007820Y026701D03*
X007820Y027181D03*
X008300Y027181D03*
X008780Y027181D03*
X009260Y027181D03*
X009260Y025261D03*
X009260Y024781D03*
X009260Y024301D03*
X008780Y024301D03*
X008300Y024301D03*
X007820Y024301D03*
X007820Y024781D03*
X008300Y024781D03*
X008780Y024781D03*
X008780Y025261D03*
X008300Y025261D03*
X007820Y025261D03*
X007820Y023821D03*
X007820Y023341D03*
X007820Y022861D03*
X008300Y022861D03*
X008780Y022861D03*
X009260Y022861D03*
X009260Y023341D03*
X008780Y023341D03*
X008300Y023341D03*
X008300Y023821D03*
X008780Y023821D03*
X009260Y023821D03*
X009740Y023821D03*
X009740Y023341D03*
X009740Y022861D03*
X010220Y022861D03*
X010220Y023341D03*
X010220Y023821D03*
X010220Y024301D03*
X009740Y024301D03*
X009740Y024781D03*
X010220Y024781D03*
X010220Y025261D03*
X009740Y025261D03*
X011740Y025981D03*
X011740Y027101D03*
X014380Y025021D03*
X016220Y025421D03*
X017580Y025101D03*
X018620Y025421D03*
X020540Y025421D03*
X021820Y025101D03*
X021940Y026301D03*
X022300Y026621D03*
X023220Y026621D03*
X023500Y027021D03*
X023380Y025701D03*
X024940Y025741D03*
X025420Y025741D03*
X025900Y025741D03*
X025900Y026221D03*
X025420Y026221D03*
X024940Y026221D03*
X024940Y026701D03*
X025420Y026701D03*
X025900Y026701D03*
X026380Y026701D03*
X026380Y026221D03*
X026380Y025741D03*
X026860Y025741D03*
X027340Y025741D03*
X027340Y026221D03*
X026860Y026221D03*
X026860Y026701D03*
X027340Y026701D03*
X027340Y027181D03*
X026860Y027181D03*
X026380Y027181D03*
X025900Y027181D03*
X025420Y027181D03*
X024940Y027181D03*
X024940Y025261D03*
X024940Y024781D03*
X024940Y024301D03*
X025420Y024301D03*
X025900Y024301D03*
X025900Y024781D03*
X025420Y024781D03*
X025420Y025261D03*
X025900Y025261D03*
X026380Y025261D03*
X026380Y024781D03*
X026380Y024301D03*
X026860Y024301D03*
X027340Y024301D03*
X027340Y024781D03*
X026860Y024781D03*
X026860Y025261D03*
X027340Y025261D03*
X027340Y023821D03*
X027340Y023341D03*
X027340Y022861D03*
X026860Y022861D03*
X026380Y022861D03*
X026380Y023341D03*
X026860Y023341D03*
X026860Y023821D03*
X026380Y023821D03*
X025900Y023821D03*
X025900Y023341D03*
X025900Y022861D03*
X025420Y022861D03*
X024940Y022861D03*
X024940Y023341D03*
X025420Y023341D03*
X025420Y023821D03*
X024940Y023821D03*
X023380Y023501D03*
X022860Y023581D03*
X022740Y022701D03*
X021900Y022701D03*
X021860Y021901D03*
X023620Y021821D03*
X026140Y018621D03*
X024300Y017181D03*
X023740Y017181D03*
X023100Y016301D03*
X022780Y014941D03*
X021180Y014461D03*
X021100Y013981D03*
X020540Y015581D03*
X021260Y016621D03*
X018580Y014861D03*
X017660Y014781D03*
X017180Y015261D03*
X016180Y013581D03*
X015580Y013341D03*
X014700Y010781D03*
X015100Y010141D03*
X014900Y009341D03*
X014220Y008781D03*
X013860Y007421D03*
X012540Y008621D03*
X012060Y008621D03*
X011580Y008621D03*
X011100Y008621D03*
X010620Y008621D03*
X010140Y008621D03*
X010140Y009101D03*
X010620Y009101D03*
X011100Y009101D03*
X011580Y009101D03*
X011580Y009581D03*
X011100Y009581D03*
X010620Y009581D03*
X010140Y009581D03*
X010140Y010061D03*
X010620Y010061D03*
X011100Y010061D03*
X011580Y010061D03*
X012060Y010061D03*
X012060Y009581D03*
X012060Y009101D03*
X012540Y009101D03*
X012540Y009581D03*
X012540Y010061D03*
X012540Y010541D03*
X012060Y010541D03*
X012060Y011021D03*
X012540Y011021D03*
X012540Y011501D03*
X012060Y011501D03*
X011580Y011501D03*
X011580Y011021D03*
X011580Y010541D03*
X011100Y010541D03*
X010620Y010541D03*
X010140Y010541D03*
X010140Y011021D03*
X010620Y011021D03*
X011100Y011021D03*
X011100Y011501D03*
X010620Y011501D03*
X010140Y011501D03*
X010140Y011981D03*
X010620Y011981D03*
X011100Y011981D03*
X011580Y011981D03*
X011580Y012461D03*
X011100Y012461D03*
X010620Y012461D03*
X010140Y012461D03*
X010140Y012941D03*
X010620Y012941D03*
X011100Y012941D03*
X011580Y012941D03*
X012060Y012941D03*
X012060Y012461D03*
X012060Y011981D03*
X012540Y011981D03*
X012540Y012461D03*
X012540Y012941D03*
X012540Y013421D03*
X012060Y013421D03*
X011580Y013421D03*
X011100Y013421D03*
X010620Y013421D03*
X010140Y013421D03*
X007340Y010621D03*
X007300Y009821D03*
X007820Y008781D03*
X008700Y009581D03*
X006580Y006621D03*
X003780Y009181D03*
X013340Y020381D03*
X013100Y021101D03*
X013100Y022221D03*
X010220Y022381D03*
X009740Y022381D03*
X009260Y022381D03*
X008780Y022381D03*
X008300Y022381D03*
X007820Y022381D03*
X005980Y023301D03*
X005980Y024781D03*
X005780Y025421D03*
X005820Y025901D03*
X019180Y027741D03*
X027740Y021501D03*
X028060Y021181D03*
X028380Y020861D03*
X028780Y022221D03*
X029260Y022221D03*
X029740Y022221D03*
X029260Y023661D03*
X029580Y026221D03*
X028780Y027021D03*
X034780Y017821D03*
X032100Y013101D03*
X032900Y012941D03*
X030620Y012861D03*
X030620Y012381D03*
X030140Y012381D03*
X029660Y012381D03*
X029180Y012381D03*
X028700Y012381D03*
X028700Y012861D03*
X029180Y012861D03*
X029660Y012861D03*
X030140Y012861D03*
X030140Y013341D03*
X029660Y013341D03*
X029180Y013341D03*
X028700Y013341D03*
X028220Y013341D03*
X028220Y012861D03*
X028220Y012381D03*
X028220Y011901D03*
X028220Y011421D03*
X028220Y010941D03*
X028220Y010461D03*
X028220Y009981D03*
X028220Y009501D03*
X028220Y009021D03*
X028220Y008541D03*
X028700Y008541D03*
X029180Y008541D03*
X029660Y008541D03*
X030140Y008541D03*
X030620Y008541D03*
X030620Y009021D03*
X030140Y009021D03*
X029660Y009021D03*
X029180Y009021D03*
X028700Y009021D03*
X028700Y009501D03*
X029180Y009501D03*
X029660Y009501D03*
X030140Y009501D03*
X030620Y009501D03*
X030620Y009981D03*
X030140Y009981D03*
X029660Y009981D03*
X029180Y009981D03*
X028700Y009981D03*
X028700Y010461D03*
X029180Y010461D03*
X029660Y010461D03*
X030140Y010461D03*
X030620Y010461D03*
X030620Y010941D03*
X030140Y010941D03*
X029660Y010941D03*
X029180Y010941D03*
X028700Y010941D03*
X028700Y011421D03*
X029180Y011421D03*
X029660Y011421D03*
X030140Y011421D03*
X030620Y011421D03*
X030620Y011901D03*
X030140Y011901D03*
X029660Y011901D03*
X029180Y011901D03*
X028700Y011901D03*
X030620Y013341D03*
X027540Y015981D03*
X024700Y009421D03*
X025900Y008701D03*
X032060Y008701D03*
X032220Y009501D03*
X034820Y007421D03*
X035460Y006141D03*
X035300Y010621D03*
D31*
X031100Y013821D03*
X030620Y017261D03*
X027180Y020621D03*
X024220Y022221D03*
X023900Y018781D03*
X018220Y021581D03*
X017420Y018381D03*
X013740Y022221D03*
X012300Y022301D03*
X007900Y019661D03*
X005260Y017021D03*
X008780Y013581D03*
X006780Y012301D03*
X005660Y013021D03*
X013260Y013741D03*
X017340Y009421D03*
X019260Y010061D03*
X026380Y013341D03*
X030140Y024061D03*
X024460Y028621D03*
X023980Y027581D03*
X017580Y028301D03*
D32*
X019300Y028381D03*
X020500Y027741D03*
X021140Y028621D03*
X016140Y026061D03*
X015900Y024221D03*
X013980Y025341D03*
X012620Y020381D03*
X013460Y019741D03*
X014780Y017821D03*
X015500Y017981D03*
X017860Y017021D03*
X018300Y017741D03*
X019260Y016461D03*
X020060Y017181D03*
X022060Y016621D03*
X024460Y015021D03*
X025420Y015021D03*
X026220Y016621D03*
X025820Y018941D03*
X023260Y020141D03*
X023260Y022141D03*
X018020Y016221D03*
X015780Y014461D03*
X012020Y016861D03*
X007220Y015901D03*
X006340Y024221D03*
X003860Y024301D03*
X003700Y027101D03*
X004900Y028541D03*
X023100Y010941D03*
X031180Y024061D03*
X031420Y024941D03*
X033940Y028941D03*
X034900Y028941D03*
D33*
X023180Y017261D03*
X019820Y014941D03*
X019740Y014541D03*
X018620Y015581D03*
X018700Y016541D03*
X018780Y017341D03*
X019260Y017581D03*
X019100Y017981D03*
X016780Y017341D03*
X015900Y016541D03*
X015420Y017021D03*
X014460Y017341D03*
X015100Y018621D03*
X014780Y018941D03*
X015340Y019341D03*
X015820Y019341D03*
X015820Y019821D03*
X016260Y019821D03*
X016940Y020541D03*
X016940Y020941D03*
X017340Y020941D03*
X017420Y021341D03*
X019740Y021341D03*
X020220Y021341D03*
X020220Y020941D03*
X020700Y020941D03*
X014780Y022541D03*
X012780Y018221D03*
X009660Y017101D03*
X009340Y016781D03*
X008940Y017101D03*
X008940Y016301D03*
X009340Y015501D03*
X009660Y015181D03*
X005100Y014861D03*
X004700Y014701D03*
X004700Y015501D03*
X005100Y016141D03*
X002380Y016701D03*
X004620Y019341D03*
X002380Y020221D03*
X016140Y012861D03*
X017180Y014781D03*
X021500Y011261D03*
D34*
X027260Y013901D03*
X032700Y013901D03*
X031180Y022621D03*
X032220Y028221D03*
X028620Y030861D03*
X022380Y025101D03*
X005580Y026941D03*
X015580Y007501D03*
X011100Y004781D03*
D35*
X017340Y007661D03*
X019500Y008301D03*
X019500Y005741D03*
X018540Y005741D03*
X006380Y022941D03*
X017420Y026461D03*
X018700Y028381D03*
X019900Y028381D03*
X021660Y030221D03*
D36*
X015900Y025101D03*
D37*
X010860Y022101D03*
M02*
