G75*
G70*
%OFA0B0*%
%FSLAX24Y24*%
%IPPOS*%
%LPD*%
%AMOC8*
5,1,8,0,0,1.08239X$1,22.5*
%
%ADD10C,0.0000*%
%ADD11R,0.0591X0.0197*%
%ADD12R,0.0197X0.0591*%
%ADD13R,0.0394X0.0433*%
%ADD14R,0.0630X0.0472*%
%ADD15R,0.0433X0.0394*%
%ADD16R,0.0787X0.0197*%
%ADD17R,0.0787X0.1339*%
%ADD18R,0.0630X0.0710*%
D10*
X001500Y002461D02*
X001500Y033957D01*
X036933Y033957D01*
X036933Y002461D01*
X001500Y002461D01*
X002780Y004430D02*
X002782Y004482D01*
X002788Y004534D01*
X002798Y004585D01*
X002811Y004635D01*
X002829Y004685D01*
X002850Y004732D01*
X002874Y004778D01*
X002903Y004822D01*
X002934Y004864D01*
X002968Y004903D01*
X003005Y004940D01*
X003045Y004973D01*
X003088Y005004D01*
X003132Y005031D01*
X003178Y005055D01*
X003227Y005075D01*
X003276Y005091D01*
X003327Y005104D01*
X003378Y005113D01*
X003430Y005118D01*
X003482Y005119D01*
X003534Y005116D01*
X003586Y005109D01*
X003637Y005098D01*
X003687Y005084D01*
X003736Y005065D01*
X003783Y005043D01*
X003828Y005018D01*
X003872Y004989D01*
X003913Y004957D01*
X003952Y004922D01*
X003987Y004884D01*
X004020Y004843D01*
X004050Y004801D01*
X004076Y004756D01*
X004099Y004709D01*
X004118Y004660D01*
X004134Y004610D01*
X004146Y004560D01*
X004154Y004508D01*
X004158Y004456D01*
X004158Y004404D01*
X004154Y004352D01*
X004146Y004300D01*
X004134Y004250D01*
X004118Y004200D01*
X004099Y004151D01*
X004076Y004104D01*
X004050Y004059D01*
X004020Y004017D01*
X003987Y003976D01*
X003952Y003938D01*
X003913Y003903D01*
X003872Y003871D01*
X003828Y003842D01*
X003783Y003817D01*
X003736Y003795D01*
X003687Y003776D01*
X003637Y003762D01*
X003586Y003751D01*
X003534Y003744D01*
X003482Y003741D01*
X003430Y003742D01*
X003378Y003747D01*
X003327Y003756D01*
X003276Y003769D01*
X003227Y003785D01*
X003178Y003805D01*
X003132Y003829D01*
X003088Y003856D01*
X003045Y003887D01*
X003005Y003920D01*
X002968Y003957D01*
X002934Y003996D01*
X002903Y004038D01*
X002874Y004082D01*
X002850Y004128D01*
X002829Y004175D01*
X002811Y004225D01*
X002798Y004275D01*
X002788Y004326D01*
X002782Y004378D01*
X002780Y004430D01*
X002780Y031989D02*
X002782Y032041D01*
X002788Y032093D01*
X002798Y032144D01*
X002811Y032194D01*
X002829Y032244D01*
X002850Y032291D01*
X002874Y032337D01*
X002903Y032381D01*
X002934Y032423D01*
X002968Y032462D01*
X003005Y032499D01*
X003045Y032532D01*
X003088Y032563D01*
X003132Y032590D01*
X003178Y032614D01*
X003227Y032634D01*
X003276Y032650D01*
X003327Y032663D01*
X003378Y032672D01*
X003430Y032677D01*
X003482Y032678D01*
X003534Y032675D01*
X003586Y032668D01*
X003637Y032657D01*
X003687Y032643D01*
X003736Y032624D01*
X003783Y032602D01*
X003828Y032577D01*
X003872Y032548D01*
X003913Y032516D01*
X003952Y032481D01*
X003987Y032443D01*
X004020Y032402D01*
X004050Y032360D01*
X004076Y032315D01*
X004099Y032268D01*
X004118Y032219D01*
X004134Y032169D01*
X004146Y032119D01*
X004154Y032067D01*
X004158Y032015D01*
X004158Y031963D01*
X004154Y031911D01*
X004146Y031859D01*
X004134Y031809D01*
X004118Y031759D01*
X004099Y031710D01*
X004076Y031663D01*
X004050Y031618D01*
X004020Y031576D01*
X003987Y031535D01*
X003952Y031497D01*
X003913Y031462D01*
X003872Y031430D01*
X003828Y031401D01*
X003783Y031376D01*
X003736Y031354D01*
X003687Y031335D01*
X003637Y031321D01*
X003586Y031310D01*
X003534Y031303D01*
X003482Y031300D01*
X003430Y031301D01*
X003378Y031306D01*
X003327Y031315D01*
X003276Y031328D01*
X003227Y031344D01*
X003178Y031364D01*
X003132Y031388D01*
X003088Y031415D01*
X003045Y031446D01*
X003005Y031479D01*
X002968Y031516D01*
X002934Y031555D01*
X002903Y031597D01*
X002874Y031641D01*
X002850Y031687D01*
X002829Y031734D01*
X002811Y031784D01*
X002798Y031834D01*
X002788Y031885D01*
X002782Y031937D01*
X002780Y031989D01*
X034276Y031989D02*
X034278Y032041D01*
X034284Y032093D01*
X034294Y032144D01*
X034307Y032194D01*
X034325Y032244D01*
X034346Y032291D01*
X034370Y032337D01*
X034399Y032381D01*
X034430Y032423D01*
X034464Y032462D01*
X034501Y032499D01*
X034541Y032532D01*
X034584Y032563D01*
X034628Y032590D01*
X034674Y032614D01*
X034723Y032634D01*
X034772Y032650D01*
X034823Y032663D01*
X034874Y032672D01*
X034926Y032677D01*
X034978Y032678D01*
X035030Y032675D01*
X035082Y032668D01*
X035133Y032657D01*
X035183Y032643D01*
X035232Y032624D01*
X035279Y032602D01*
X035324Y032577D01*
X035368Y032548D01*
X035409Y032516D01*
X035448Y032481D01*
X035483Y032443D01*
X035516Y032402D01*
X035546Y032360D01*
X035572Y032315D01*
X035595Y032268D01*
X035614Y032219D01*
X035630Y032169D01*
X035642Y032119D01*
X035650Y032067D01*
X035654Y032015D01*
X035654Y031963D01*
X035650Y031911D01*
X035642Y031859D01*
X035630Y031809D01*
X035614Y031759D01*
X035595Y031710D01*
X035572Y031663D01*
X035546Y031618D01*
X035516Y031576D01*
X035483Y031535D01*
X035448Y031497D01*
X035409Y031462D01*
X035368Y031430D01*
X035324Y031401D01*
X035279Y031376D01*
X035232Y031354D01*
X035183Y031335D01*
X035133Y031321D01*
X035082Y031310D01*
X035030Y031303D01*
X034978Y031300D01*
X034926Y031301D01*
X034874Y031306D01*
X034823Y031315D01*
X034772Y031328D01*
X034723Y031344D01*
X034674Y031364D01*
X034628Y031388D01*
X034584Y031415D01*
X034541Y031446D01*
X034501Y031479D01*
X034464Y031516D01*
X034430Y031555D01*
X034399Y031597D01*
X034370Y031641D01*
X034346Y031687D01*
X034325Y031734D01*
X034307Y031784D01*
X034294Y031834D01*
X034284Y031885D01*
X034278Y031937D01*
X034276Y031989D01*
X034276Y004430D02*
X034278Y004482D01*
X034284Y004534D01*
X034294Y004585D01*
X034307Y004635D01*
X034325Y004685D01*
X034346Y004732D01*
X034370Y004778D01*
X034399Y004822D01*
X034430Y004864D01*
X034464Y004903D01*
X034501Y004940D01*
X034541Y004973D01*
X034584Y005004D01*
X034628Y005031D01*
X034674Y005055D01*
X034723Y005075D01*
X034772Y005091D01*
X034823Y005104D01*
X034874Y005113D01*
X034926Y005118D01*
X034978Y005119D01*
X035030Y005116D01*
X035082Y005109D01*
X035133Y005098D01*
X035183Y005084D01*
X035232Y005065D01*
X035279Y005043D01*
X035324Y005018D01*
X035368Y004989D01*
X035409Y004957D01*
X035448Y004922D01*
X035483Y004884D01*
X035516Y004843D01*
X035546Y004801D01*
X035572Y004756D01*
X035595Y004709D01*
X035614Y004660D01*
X035630Y004610D01*
X035642Y004560D01*
X035650Y004508D01*
X035654Y004456D01*
X035654Y004404D01*
X035650Y004352D01*
X035642Y004300D01*
X035630Y004250D01*
X035614Y004200D01*
X035595Y004151D01*
X035572Y004104D01*
X035546Y004059D01*
X035516Y004017D01*
X035483Y003976D01*
X035448Y003938D01*
X035409Y003903D01*
X035368Y003871D01*
X035324Y003842D01*
X035279Y003817D01*
X035232Y003795D01*
X035183Y003776D01*
X035133Y003762D01*
X035082Y003751D01*
X035030Y003744D01*
X034978Y003741D01*
X034926Y003742D01*
X034874Y003747D01*
X034823Y003756D01*
X034772Y003769D01*
X034723Y003785D01*
X034674Y003805D01*
X034628Y003829D01*
X034584Y003856D01*
X034541Y003887D01*
X034501Y003920D01*
X034464Y003957D01*
X034430Y003996D01*
X034399Y004038D01*
X034370Y004082D01*
X034346Y004128D01*
X034325Y004175D01*
X034307Y004225D01*
X034294Y004275D01*
X034284Y004326D01*
X034278Y004378D01*
X034276Y004430D01*
D11*
G36*
X021591Y018596D02*
X021175Y018180D01*
X021037Y018318D01*
X021453Y018734D01*
X021591Y018596D01*
G37*
G36*
X021368Y018819D02*
X020952Y018403D01*
X020814Y018541D01*
X021230Y018957D01*
X021368Y018819D01*
G37*
G36*
X021145Y019042D02*
X020729Y018626D01*
X020591Y018764D01*
X021007Y019180D01*
X021145Y019042D01*
G37*
G36*
X020922Y019264D02*
X020506Y018848D01*
X020368Y018986D01*
X020784Y019402D01*
X020922Y019264D01*
G37*
G36*
X020700Y019487D02*
X020284Y019071D01*
X020146Y019209D01*
X020562Y019625D01*
X020700Y019487D01*
G37*
G36*
X020477Y019710D02*
X020061Y019294D01*
X019923Y019432D01*
X020339Y019848D01*
X020477Y019710D01*
G37*
G36*
X020254Y019933D02*
X019838Y019517D01*
X019700Y019655D01*
X020116Y020071D01*
X020254Y019933D01*
G37*
G36*
X020032Y020155D02*
X019616Y019739D01*
X019478Y019877D01*
X019894Y020293D01*
X020032Y020155D01*
G37*
G36*
X019809Y020378D02*
X019393Y019962D01*
X019255Y020100D01*
X019671Y020516D01*
X019809Y020378D01*
G37*
G36*
X019586Y020601D02*
X019170Y020185D01*
X019032Y020323D01*
X019448Y020739D01*
X019586Y020601D01*
G37*
G36*
X019363Y020823D02*
X018947Y020407D01*
X018809Y020545D01*
X019225Y020961D01*
X019363Y020823D01*
G37*
G36*
X016134Y017594D02*
X015718Y017178D01*
X015580Y017316D01*
X015996Y017732D01*
X016134Y017594D01*
G37*
G36*
X016357Y017371D02*
X015941Y016955D01*
X015803Y017093D01*
X016219Y017509D01*
X016357Y017371D01*
G37*
G36*
X016580Y017149D02*
X016164Y016733D01*
X016026Y016871D01*
X016442Y017287D01*
X016580Y017149D01*
G37*
G36*
X016802Y016926D02*
X016386Y016510D01*
X016248Y016648D01*
X016664Y017064D01*
X016802Y016926D01*
G37*
G36*
X017025Y016703D02*
X016609Y016287D01*
X016471Y016425D01*
X016887Y016841D01*
X017025Y016703D01*
G37*
G36*
X017248Y016481D02*
X016832Y016065D01*
X016694Y016203D01*
X017110Y016619D01*
X017248Y016481D01*
G37*
G36*
X017470Y016258D02*
X017054Y015842D01*
X016916Y015980D01*
X017332Y016396D01*
X017470Y016258D01*
G37*
G36*
X017693Y016035D02*
X017277Y015619D01*
X017139Y015757D01*
X017555Y016173D01*
X017693Y016035D01*
G37*
G36*
X017916Y015812D02*
X017500Y015396D01*
X017362Y015534D01*
X017778Y015950D01*
X017916Y015812D01*
G37*
G36*
X018139Y015590D02*
X017723Y015174D01*
X017585Y015312D01*
X018001Y015728D01*
X018139Y015590D01*
G37*
G36*
X018361Y015367D02*
X017945Y014951D01*
X017807Y015089D01*
X018223Y015505D01*
X018361Y015367D01*
G37*
D12*
G36*
X019363Y015089D02*
X019225Y014951D01*
X018809Y015367D01*
X018947Y015505D01*
X019363Y015089D01*
G37*
G36*
X019586Y015312D02*
X019448Y015174D01*
X019032Y015590D01*
X019170Y015728D01*
X019586Y015312D01*
G37*
G36*
X019809Y015534D02*
X019671Y015396D01*
X019255Y015812D01*
X019393Y015950D01*
X019809Y015534D01*
G37*
G36*
X020032Y015757D02*
X019894Y015619D01*
X019478Y016035D01*
X019616Y016173D01*
X020032Y015757D01*
G37*
G36*
X020254Y015980D02*
X020116Y015842D01*
X019700Y016258D01*
X019838Y016396D01*
X020254Y015980D01*
G37*
G36*
X020477Y016203D02*
X020339Y016065D01*
X019923Y016481D01*
X020061Y016619D01*
X020477Y016203D01*
G37*
G36*
X020700Y016425D02*
X020562Y016287D01*
X020146Y016703D01*
X020284Y016841D01*
X020700Y016425D01*
G37*
G36*
X020922Y016648D02*
X020784Y016510D01*
X020368Y016926D01*
X020506Y017064D01*
X020922Y016648D01*
G37*
G36*
X021145Y016871D02*
X021007Y016733D01*
X020591Y017149D01*
X020729Y017287D01*
X021145Y016871D01*
G37*
G36*
X021368Y017093D02*
X021230Y016955D01*
X020814Y017371D01*
X020952Y017509D01*
X021368Y017093D01*
G37*
G36*
X021591Y017316D02*
X021453Y017178D01*
X021037Y017594D01*
X021175Y017732D01*
X021591Y017316D01*
G37*
G36*
X018139Y020323D02*
X018001Y020185D01*
X017585Y020601D01*
X017723Y020739D01*
X018139Y020323D01*
G37*
G36*
X018361Y020545D02*
X018223Y020407D01*
X017807Y020823D01*
X017945Y020961D01*
X018361Y020545D01*
G37*
G36*
X017916Y020100D02*
X017778Y019962D01*
X017362Y020378D01*
X017500Y020516D01*
X017916Y020100D01*
G37*
G36*
X017693Y019877D02*
X017555Y019739D01*
X017139Y020155D01*
X017277Y020293D01*
X017693Y019877D01*
G37*
G36*
X017470Y019655D02*
X017332Y019517D01*
X016916Y019933D01*
X017054Y020071D01*
X017470Y019655D01*
G37*
G36*
X017248Y019432D02*
X017110Y019294D01*
X016694Y019710D01*
X016832Y019848D01*
X017248Y019432D01*
G37*
G36*
X017025Y019209D02*
X016887Y019071D01*
X016471Y019487D01*
X016609Y019625D01*
X017025Y019209D01*
G37*
G36*
X016802Y018986D02*
X016664Y018848D01*
X016248Y019264D01*
X016386Y019402D01*
X016802Y018986D01*
G37*
G36*
X016580Y018764D02*
X016442Y018626D01*
X016026Y019042D01*
X016164Y019180D01*
X016580Y018764D01*
G37*
G36*
X016357Y018541D02*
X016219Y018403D01*
X015803Y018819D01*
X015941Y018957D01*
X016357Y018541D01*
G37*
G36*
X016134Y018318D02*
X015996Y018180D01*
X015580Y018596D01*
X015718Y018734D01*
X016134Y018318D01*
G37*
D13*
X014482Y018347D03*
X013812Y018347D03*
X013195Y024461D03*
X012525Y024461D03*
X012525Y025661D03*
X013195Y025661D03*
X014605Y024461D03*
X015275Y024461D03*
X017485Y025901D03*
X018155Y025901D03*
X019245Y025821D03*
X019915Y025821D03*
X021005Y025821D03*
X021675Y025821D03*
X021675Y027181D03*
X021005Y027181D03*
X019896Y027197D03*
X019227Y027197D03*
X018155Y027181D03*
X017485Y027181D03*
X023437Y024937D03*
X023437Y024268D03*
X030125Y024621D03*
X030795Y024621D03*
X030829Y025764D03*
X030159Y025764D03*
X032045Y024541D03*
X032715Y024541D03*
X032795Y021901D03*
X032125Y021901D03*
X030875Y021901D03*
X030205Y021901D03*
X030205Y020621D03*
X030875Y020621D03*
X032125Y020621D03*
X032795Y020621D03*
X032315Y014781D03*
X031645Y014781D03*
X030715Y014781D03*
X030045Y014781D03*
X029035Y014781D03*
X028365Y014781D03*
X025915Y011341D03*
X025245Y011341D03*
X025245Y010141D03*
X025915Y010141D03*
X023915Y011501D03*
X023245Y011501D03*
X020635Y010061D03*
X019965Y010061D03*
X019965Y008941D03*
X020635Y008941D03*
X020635Y007741D03*
X019965Y007741D03*
X018555Y007741D03*
X017885Y007741D03*
X017885Y008861D03*
X018555Y008861D03*
X018555Y010061D03*
X017885Y010061D03*
X014220Y011247D03*
X014220Y011916D03*
X007995Y012301D03*
X007325Y012301D03*
X006235Y012381D03*
X005565Y012381D03*
X007325Y011101D03*
X007995Y011101D03*
X005580Y023727D03*
X005580Y024396D03*
X032300Y011836D03*
X032300Y011167D03*
X033405Y014781D03*
X034075Y014781D03*
D14*
X021320Y020228D03*
X021320Y021409D03*
D15*
X022596Y020771D03*
X022596Y020102D03*
X021675Y015301D03*
X021005Y015301D03*
X023245Y012701D03*
X023915Y012701D03*
X023915Y010141D03*
X023245Y010141D03*
X023245Y009021D03*
X023915Y009021D03*
X020578Y011260D03*
X019909Y011260D03*
X018553Y011209D03*
X017883Y011209D03*
X013820Y015007D03*
X013820Y015676D03*
X015316Y015656D03*
X015985Y015656D03*
X016289Y020547D03*
X015619Y020547D03*
X015275Y023021D03*
X014605Y023021D03*
X014605Y025661D03*
X015275Y025661D03*
X015275Y026781D03*
X014605Y026781D03*
X008460Y020716D03*
X008460Y020047D03*
X006235Y013661D03*
X005565Y013661D03*
X005565Y011101D03*
X006235Y011101D03*
X006235Y009901D03*
X005565Y009901D03*
X027260Y014447D03*
X027260Y015116D03*
X031165Y017741D03*
X031835Y017741D03*
X032125Y023181D03*
X032795Y023181D03*
X032799Y025755D03*
X032130Y025755D03*
X032116Y026981D03*
X032785Y026981D03*
D16*
X028124Y027013D03*
X028124Y026619D03*
X028124Y026225D03*
X028124Y025832D03*
X028124Y023863D03*
X028124Y023470D03*
X028124Y023076D03*
X028124Y022682D03*
X024187Y022682D03*
X024187Y023076D03*
X024187Y023470D03*
X024187Y023863D03*
X024187Y025832D03*
X024187Y026225D03*
X024187Y026619D03*
X024187Y027013D03*
X010989Y026867D03*
X010989Y026473D03*
X010989Y026079D03*
X010989Y025686D03*
X010989Y023717D03*
X010989Y023323D03*
X010989Y022930D03*
X010989Y022536D03*
X007051Y022536D03*
X007051Y022930D03*
X007051Y023323D03*
X007051Y023717D03*
X007051Y025686D03*
X007051Y026079D03*
X007051Y026473D03*
X007051Y026867D03*
X009371Y013107D03*
X009371Y012713D03*
X009371Y012319D03*
X009371Y011926D03*
X009371Y009957D03*
X009371Y009563D03*
X009371Y009170D03*
X009371Y008776D03*
X013309Y008776D03*
X013309Y009170D03*
X013309Y009563D03*
X013309Y009957D03*
X013309Y011926D03*
X013309Y012319D03*
X013309Y012713D03*
X013309Y013107D03*
X027451Y013027D03*
X027451Y012633D03*
X027451Y012239D03*
X027451Y011846D03*
X027451Y009877D03*
X027451Y009483D03*
X027451Y009090D03*
X027451Y008696D03*
X031389Y008696D03*
X031389Y009090D03*
X031389Y009483D03*
X031389Y009877D03*
X031389Y011846D03*
X031389Y012239D03*
X031389Y012633D03*
X031389Y013027D03*
D17*
X031389Y010861D03*
X027451Y010861D03*
X013309Y010941D03*
X009371Y010941D03*
X010989Y024701D03*
X007051Y024701D03*
X024187Y024848D03*
X028124Y024848D03*
D18*
X029980Y023341D03*
X031100Y023341D03*
X026140Y012621D03*
X025020Y012621D03*
X013420Y023021D03*
X012300Y023021D03*
X008140Y013581D03*
X007020Y013581D03*
M02*
