G75*
G70*
%OFA0B0*%
%FSLAX24Y24*%
%IPPOS*%
%LPD*%
%AMOC8*
5,1,8,0,0,1.08239X$1,22.5*
%
%ADD10C,0.0000*%
%ADD11C,0.0040*%
%ADD12C,0.0050*%
%ADD13R,0.0015X0.0015*%
%ADD14R,0.0030X0.0015*%
%ADD15R,0.0045X0.0015*%
%ADD16R,0.0060X0.0015*%
%ADD17R,0.0195X0.0015*%
%ADD18R,0.0165X0.0015*%
%ADD19R,0.0090X0.0015*%
%ADD20R,0.0315X0.0015*%
%ADD21R,0.0300X0.0015*%
%ADD22R,0.0390X0.0015*%
%ADD23R,0.0375X0.0015*%
%ADD24R,0.0435X0.0015*%
%ADD25R,0.0420X0.0015*%
%ADD26R,0.0480X0.0015*%
%ADD27R,0.0465X0.0015*%
%ADD28R,0.0510X0.0015*%
%ADD29R,0.0555X0.0015*%
%ADD30R,0.0540X0.0015*%
%ADD31R,0.0570X0.0015*%
%ADD32R,0.0600X0.0015*%
%ADD33R,0.0240X0.0015*%
%ADD34R,0.0225X0.0015*%
%ADD35R,0.0210X0.0015*%
%ADD36R,0.0135X0.0015*%
%ADD37R,0.0180X0.0015*%
%ADD38R,0.0150X0.0015*%
%ADD39R,0.0270X0.0015*%
%ADD40R,0.0450X0.0015*%
%ADD41R,0.0525X0.0015*%
%ADD42R,0.0330X0.0015*%
%ADD43R,0.0855X0.0015*%
%ADD44R,0.0870X0.0015*%
%ADD45R,0.0405X0.0015*%
%ADD46R,0.0360X0.0015*%
%ADD47R,0.0285X0.0015*%
%ADD48R,0.0675X0.0015*%
%ADD49C,0.0060*%
D10*
X001500Y002461D02*
X001500Y033957D01*
X036933Y033957D01*
X036933Y002461D01*
X001500Y002461D01*
X002780Y004430D02*
X002782Y004482D01*
X002788Y004534D01*
X002798Y004585D01*
X002811Y004635D01*
X002829Y004685D01*
X002850Y004732D01*
X002874Y004778D01*
X002903Y004822D01*
X002934Y004864D01*
X002968Y004903D01*
X003005Y004940D01*
X003045Y004973D01*
X003088Y005004D01*
X003132Y005031D01*
X003178Y005055D01*
X003227Y005075D01*
X003276Y005091D01*
X003327Y005104D01*
X003378Y005113D01*
X003430Y005118D01*
X003482Y005119D01*
X003534Y005116D01*
X003586Y005109D01*
X003637Y005098D01*
X003687Y005084D01*
X003736Y005065D01*
X003783Y005043D01*
X003828Y005018D01*
X003872Y004989D01*
X003913Y004957D01*
X003952Y004922D01*
X003987Y004884D01*
X004020Y004843D01*
X004050Y004801D01*
X004076Y004756D01*
X004099Y004709D01*
X004118Y004660D01*
X004134Y004610D01*
X004146Y004560D01*
X004154Y004508D01*
X004158Y004456D01*
X004158Y004404D01*
X004154Y004352D01*
X004146Y004300D01*
X004134Y004250D01*
X004118Y004200D01*
X004099Y004151D01*
X004076Y004104D01*
X004050Y004059D01*
X004020Y004017D01*
X003987Y003976D01*
X003952Y003938D01*
X003913Y003903D01*
X003872Y003871D01*
X003828Y003842D01*
X003783Y003817D01*
X003736Y003795D01*
X003687Y003776D01*
X003637Y003762D01*
X003586Y003751D01*
X003534Y003744D01*
X003482Y003741D01*
X003430Y003742D01*
X003378Y003747D01*
X003327Y003756D01*
X003276Y003769D01*
X003227Y003785D01*
X003178Y003805D01*
X003132Y003829D01*
X003088Y003856D01*
X003045Y003887D01*
X003005Y003920D01*
X002968Y003957D01*
X002934Y003996D01*
X002903Y004038D01*
X002874Y004082D01*
X002850Y004128D01*
X002829Y004175D01*
X002811Y004225D01*
X002798Y004275D01*
X002788Y004326D01*
X002782Y004378D01*
X002780Y004430D01*
X002780Y031989D02*
X002782Y032041D01*
X002788Y032093D01*
X002798Y032144D01*
X002811Y032194D01*
X002829Y032244D01*
X002850Y032291D01*
X002874Y032337D01*
X002903Y032381D01*
X002934Y032423D01*
X002968Y032462D01*
X003005Y032499D01*
X003045Y032532D01*
X003088Y032563D01*
X003132Y032590D01*
X003178Y032614D01*
X003227Y032634D01*
X003276Y032650D01*
X003327Y032663D01*
X003378Y032672D01*
X003430Y032677D01*
X003482Y032678D01*
X003534Y032675D01*
X003586Y032668D01*
X003637Y032657D01*
X003687Y032643D01*
X003736Y032624D01*
X003783Y032602D01*
X003828Y032577D01*
X003872Y032548D01*
X003913Y032516D01*
X003952Y032481D01*
X003987Y032443D01*
X004020Y032402D01*
X004050Y032360D01*
X004076Y032315D01*
X004099Y032268D01*
X004118Y032219D01*
X004134Y032169D01*
X004146Y032119D01*
X004154Y032067D01*
X004158Y032015D01*
X004158Y031963D01*
X004154Y031911D01*
X004146Y031859D01*
X004134Y031809D01*
X004118Y031759D01*
X004099Y031710D01*
X004076Y031663D01*
X004050Y031618D01*
X004020Y031576D01*
X003987Y031535D01*
X003952Y031497D01*
X003913Y031462D01*
X003872Y031430D01*
X003828Y031401D01*
X003783Y031376D01*
X003736Y031354D01*
X003687Y031335D01*
X003637Y031321D01*
X003586Y031310D01*
X003534Y031303D01*
X003482Y031300D01*
X003430Y031301D01*
X003378Y031306D01*
X003327Y031315D01*
X003276Y031328D01*
X003227Y031344D01*
X003178Y031364D01*
X003132Y031388D01*
X003088Y031415D01*
X003045Y031446D01*
X003005Y031479D01*
X002968Y031516D01*
X002934Y031555D01*
X002903Y031597D01*
X002874Y031641D01*
X002850Y031687D01*
X002829Y031734D01*
X002811Y031784D01*
X002798Y031834D01*
X002788Y031885D01*
X002782Y031937D01*
X002780Y031989D01*
X034276Y031989D02*
X034278Y032041D01*
X034284Y032093D01*
X034294Y032144D01*
X034307Y032194D01*
X034325Y032244D01*
X034346Y032291D01*
X034370Y032337D01*
X034399Y032381D01*
X034430Y032423D01*
X034464Y032462D01*
X034501Y032499D01*
X034541Y032532D01*
X034584Y032563D01*
X034628Y032590D01*
X034674Y032614D01*
X034723Y032634D01*
X034772Y032650D01*
X034823Y032663D01*
X034874Y032672D01*
X034926Y032677D01*
X034978Y032678D01*
X035030Y032675D01*
X035082Y032668D01*
X035133Y032657D01*
X035183Y032643D01*
X035232Y032624D01*
X035279Y032602D01*
X035324Y032577D01*
X035368Y032548D01*
X035409Y032516D01*
X035448Y032481D01*
X035483Y032443D01*
X035516Y032402D01*
X035546Y032360D01*
X035572Y032315D01*
X035595Y032268D01*
X035614Y032219D01*
X035630Y032169D01*
X035642Y032119D01*
X035650Y032067D01*
X035654Y032015D01*
X035654Y031963D01*
X035650Y031911D01*
X035642Y031859D01*
X035630Y031809D01*
X035614Y031759D01*
X035595Y031710D01*
X035572Y031663D01*
X035546Y031618D01*
X035516Y031576D01*
X035483Y031535D01*
X035448Y031497D01*
X035409Y031462D01*
X035368Y031430D01*
X035324Y031401D01*
X035279Y031376D01*
X035232Y031354D01*
X035183Y031335D01*
X035133Y031321D01*
X035082Y031310D01*
X035030Y031303D01*
X034978Y031300D01*
X034926Y031301D01*
X034874Y031306D01*
X034823Y031315D01*
X034772Y031328D01*
X034723Y031344D01*
X034674Y031364D01*
X034628Y031388D01*
X034584Y031415D01*
X034541Y031446D01*
X034501Y031479D01*
X034464Y031516D01*
X034430Y031555D01*
X034399Y031597D01*
X034370Y031641D01*
X034346Y031687D01*
X034325Y031734D01*
X034307Y031784D01*
X034294Y031834D01*
X034284Y031885D01*
X034278Y031937D01*
X034276Y031989D01*
X034276Y004430D02*
X034278Y004482D01*
X034284Y004534D01*
X034294Y004585D01*
X034307Y004635D01*
X034325Y004685D01*
X034346Y004732D01*
X034370Y004778D01*
X034399Y004822D01*
X034430Y004864D01*
X034464Y004903D01*
X034501Y004940D01*
X034541Y004973D01*
X034584Y005004D01*
X034628Y005031D01*
X034674Y005055D01*
X034723Y005075D01*
X034772Y005091D01*
X034823Y005104D01*
X034874Y005113D01*
X034926Y005118D01*
X034978Y005119D01*
X035030Y005116D01*
X035082Y005109D01*
X035133Y005098D01*
X035183Y005084D01*
X035232Y005065D01*
X035279Y005043D01*
X035324Y005018D01*
X035368Y004989D01*
X035409Y004957D01*
X035448Y004922D01*
X035483Y004884D01*
X035516Y004843D01*
X035546Y004801D01*
X035572Y004756D01*
X035595Y004709D01*
X035614Y004660D01*
X035630Y004610D01*
X035642Y004560D01*
X035650Y004508D01*
X035654Y004456D01*
X035654Y004404D01*
X035650Y004352D01*
X035642Y004300D01*
X035630Y004250D01*
X035614Y004200D01*
X035595Y004151D01*
X035572Y004104D01*
X035546Y004059D01*
X035516Y004017D01*
X035483Y003976D01*
X035448Y003938D01*
X035409Y003903D01*
X035368Y003871D01*
X035324Y003842D01*
X035279Y003817D01*
X035232Y003795D01*
X035183Y003776D01*
X035133Y003762D01*
X035082Y003751D01*
X035030Y003744D01*
X034978Y003741D01*
X034926Y003742D01*
X034874Y003747D01*
X034823Y003756D01*
X034772Y003769D01*
X034723Y003785D01*
X034674Y003805D01*
X034628Y003829D01*
X034584Y003856D01*
X034541Y003887D01*
X034501Y003920D01*
X034464Y003957D01*
X034430Y003996D01*
X034399Y004038D01*
X034370Y004082D01*
X034346Y004128D01*
X034325Y004175D01*
X034307Y004225D01*
X034294Y004275D01*
X034284Y004326D01*
X034278Y004378D01*
X034276Y004430D01*
D11*
X033446Y017288D02*
X033446Y017748D01*
X033216Y017748D01*
X033139Y017672D01*
X033139Y017518D01*
X033216Y017441D01*
X033446Y017441D01*
X033599Y017441D02*
X033676Y017518D01*
X033676Y017825D01*
X033753Y017748D02*
X033599Y017748D01*
X033906Y017748D02*
X034060Y017748D01*
X033983Y017825D02*
X033983Y017518D01*
X033906Y017441D01*
X034213Y017441D02*
X034213Y017672D01*
X034290Y017748D01*
X034443Y017748D01*
X034520Y017672D01*
X034520Y017902D02*
X034520Y017441D01*
X032985Y017441D02*
X032755Y017441D01*
X032678Y017518D01*
X032755Y017595D01*
X032909Y017595D01*
X032985Y017672D01*
X032909Y017748D01*
X032678Y017748D01*
X032525Y017748D02*
X032525Y017672D01*
X032448Y017672D01*
X032448Y017748D01*
X032525Y017748D01*
X032525Y017518D02*
X032525Y017441D01*
X032448Y017441D01*
X032448Y017518D01*
X032525Y017518D01*
X032295Y017441D02*
X031988Y017902D01*
X031527Y017902D02*
X031834Y017441D01*
X031374Y017518D02*
X031297Y017441D01*
X031067Y017441D01*
X031067Y017365D02*
X031067Y017748D01*
X031297Y017748D01*
X031374Y017672D01*
X031374Y017518D01*
X031221Y017288D02*
X031144Y017288D01*
X031067Y017365D01*
X030914Y017441D02*
X030760Y017441D01*
X030837Y017441D02*
X030837Y017748D01*
X030914Y017748D01*
X030837Y017902D02*
X030837Y017979D01*
X030607Y017748D02*
X030453Y017748D01*
X030530Y017825D02*
X030530Y017518D01*
X030453Y017441D01*
X030300Y017441D02*
X030300Y017902D01*
X030223Y017748D02*
X030300Y017672D01*
X030223Y017748D02*
X030070Y017748D01*
X029993Y017672D01*
X029993Y017441D01*
X029839Y017518D02*
X029839Y017748D01*
X029839Y017518D02*
X029763Y017441D01*
X029532Y017441D01*
X029532Y017748D01*
X029379Y017748D02*
X029149Y017748D01*
X029072Y017672D01*
X029072Y017518D01*
X029149Y017441D01*
X029379Y017441D01*
X029379Y017902D01*
X028919Y017518D02*
X028842Y017518D01*
X028842Y017441D01*
X028919Y017441D01*
X028919Y017518D01*
X028688Y017518D02*
X028612Y017441D01*
X028381Y017441D01*
X028228Y017518D02*
X028151Y017441D01*
X027998Y017441D01*
X027921Y017518D01*
X027921Y017672D01*
X027998Y017748D01*
X028151Y017748D01*
X028228Y017672D01*
X028228Y017518D01*
X028381Y017748D02*
X028612Y017748D01*
X028688Y017672D01*
X028688Y017518D01*
X027768Y017441D02*
X027768Y017748D01*
X027691Y017748D01*
X027614Y017672D01*
X027537Y017748D01*
X027461Y017672D01*
X027461Y017441D01*
X027614Y017441D02*
X027614Y017672D01*
X027307Y017441D02*
X027000Y017902D01*
X026770Y017748D02*
X026540Y017748D01*
X026617Y017595D02*
X026770Y017595D01*
X026847Y017672D01*
X026770Y017748D01*
X026617Y017595D02*
X026540Y017518D01*
X026617Y017441D01*
X026847Y017441D01*
X026386Y017518D02*
X026310Y017441D01*
X026156Y017441D01*
X026079Y017518D01*
X026079Y017672D01*
X026156Y017748D01*
X026310Y017748D01*
X026386Y017672D01*
X026386Y017518D01*
X025926Y017441D02*
X025696Y017441D01*
X025619Y017518D01*
X025696Y017595D01*
X025849Y017595D01*
X025926Y017672D01*
X025849Y017748D01*
X025619Y017748D01*
X025466Y017672D02*
X025466Y017518D01*
X025389Y017441D01*
X025235Y017441D01*
X025159Y017518D01*
X025159Y017672D01*
X025235Y017748D01*
X025389Y017748D01*
X025466Y017672D01*
X025005Y017748D02*
X025005Y017441D01*
X025005Y017595D02*
X024852Y017748D01*
X024775Y017748D01*
X024622Y017748D02*
X024622Y017518D01*
X024545Y017441D01*
X024315Y017441D01*
X024315Y017748D01*
X024161Y017441D02*
X023854Y017902D01*
X023701Y017902D02*
X023394Y017902D01*
X023547Y017902D02*
X023547Y017441D01*
X023240Y017441D02*
X023240Y017748D01*
X023087Y017748D02*
X023010Y017748D01*
X023087Y017748D02*
X023240Y017595D01*
X022857Y017518D02*
X022780Y017595D01*
X022550Y017595D01*
X022550Y017672D02*
X022550Y017441D01*
X022780Y017441D01*
X022857Y017518D01*
X022780Y017748D02*
X022627Y017748D01*
X022550Y017672D01*
X022396Y017748D02*
X022320Y017748D01*
X022320Y017441D01*
X022396Y017441D02*
X022243Y017441D01*
X022089Y017441D02*
X022089Y017748D01*
X021859Y017748D01*
X021782Y017672D01*
X021782Y017441D01*
X021629Y017518D02*
X021629Y017902D01*
X021322Y017902D02*
X021322Y017518D01*
X021399Y017441D01*
X021552Y017441D01*
X021629Y017518D01*
X021169Y017748D02*
X021015Y017748D01*
X021092Y017825D02*
X021092Y017518D01*
X021015Y017441D01*
X020862Y017441D02*
X020708Y017441D01*
X020785Y017441D02*
X020785Y017748D01*
X020862Y017748D01*
X020785Y017902D02*
X020785Y017979D01*
X020555Y017902D02*
X020478Y017902D01*
X020478Y017441D01*
X020555Y017441D02*
X020401Y017441D01*
X020248Y017441D02*
X020094Y017441D01*
X020171Y017441D02*
X020171Y017748D01*
X020248Y017748D01*
X020171Y017902D02*
X020171Y017979D01*
X019941Y017748D02*
X019634Y017748D01*
X019941Y017441D01*
X019634Y017441D01*
X019481Y017441D02*
X019327Y017441D01*
X019404Y017441D02*
X019404Y017748D01*
X019481Y017748D01*
X019404Y017902D02*
X019404Y017979D01*
X019174Y017748D02*
X019174Y017441D01*
X019174Y017748D02*
X018943Y017748D01*
X018867Y017672D01*
X018867Y017441D01*
X018713Y017518D02*
X018636Y017441D01*
X018406Y017441D01*
X018406Y017365D02*
X018406Y017748D01*
X018636Y017748D01*
X018713Y017672D01*
X018713Y017518D01*
X018560Y017288D02*
X018483Y017288D01*
X018406Y017365D01*
X018253Y017518D02*
X018176Y017441D01*
X018023Y017441D01*
X017946Y017518D01*
X017946Y017595D01*
X018023Y017672D01*
X018176Y017672D01*
X018253Y017748D01*
X018253Y017825D01*
X018176Y017902D01*
X018023Y017902D01*
X017946Y017825D01*
X017792Y017748D02*
X017792Y017518D01*
X017716Y017441D01*
X017485Y017441D01*
X017485Y017365D02*
X017562Y017288D01*
X017639Y017288D01*
X017485Y017365D02*
X017485Y017748D01*
X017332Y017672D02*
X017255Y017748D01*
X017025Y017748D01*
X016872Y017748D02*
X016718Y017748D01*
X016795Y017825D02*
X016795Y017518D01*
X016718Y017441D01*
X016565Y017518D02*
X016565Y017672D01*
X016488Y017748D01*
X016335Y017748D01*
X016258Y017672D01*
X016258Y017595D01*
X016565Y017595D01*
X016565Y017518D02*
X016488Y017441D01*
X016335Y017441D01*
X016104Y017441D02*
X016104Y017748D01*
X016028Y017748D01*
X015951Y017672D01*
X015874Y017748D01*
X015797Y017672D01*
X015797Y017441D01*
X015951Y017441D02*
X015951Y017672D01*
X017025Y017518D02*
X017102Y017595D01*
X017255Y017595D01*
X017332Y017672D01*
X017332Y017441D02*
X017102Y017441D01*
X017025Y017518D01*
X022320Y017902D02*
X022320Y017979D01*
D12*
X024823Y018166D02*
X025026Y018166D01*
X024925Y018166D02*
X024925Y018777D01*
X025026Y018777D01*
X025329Y018573D02*
X025532Y018573D01*
X025634Y018472D01*
X025634Y018268D01*
X025532Y018166D01*
X025329Y018166D01*
X025227Y018268D01*
X025227Y018472D01*
X025329Y018573D01*
X025835Y018573D02*
X025937Y018573D01*
X026141Y018370D01*
X026141Y018573D02*
X026141Y018166D01*
X026342Y018166D02*
X026444Y018268D01*
X026444Y018675D01*
X026546Y018573D02*
X026342Y018573D01*
X026746Y018472D02*
X026746Y018166D01*
X026746Y018472D02*
X026848Y018573D01*
X027153Y018573D01*
X027153Y018166D01*
X027354Y018268D02*
X027354Y018472D01*
X027456Y018573D01*
X027659Y018573D01*
X027761Y018472D01*
X027761Y018268D01*
X027659Y018166D01*
X027456Y018166D01*
X027354Y018268D01*
X027962Y018268D02*
X028064Y018166D01*
X028267Y018166D01*
X028369Y018268D01*
X028369Y018675D01*
X028267Y018777D01*
X028064Y018777D01*
X027962Y018675D01*
X028570Y018573D02*
X028672Y018573D01*
X028875Y018370D01*
X028875Y018573D02*
X028875Y018166D01*
X029076Y018268D02*
X029076Y018472D01*
X029178Y018573D01*
X029381Y018573D01*
X029483Y018472D01*
X029483Y018268D01*
X029381Y018166D01*
X029178Y018166D01*
X029076Y018268D01*
X029685Y018166D02*
X029786Y018268D01*
X029786Y018675D01*
X029685Y018573D02*
X029888Y018573D01*
X030089Y018472D02*
X030191Y018573D01*
X030394Y018573D01*
X030496Y018472D01*
X030496Y018268D01*
X030394Y018166D01*
X030191Y018166D01*
X030089Y018268D01*
X030089Y018472D01*
X030697Y018777D02*
X030697Y018166D01*
X031104Y018166D02*
X031104Y018777D01*
X030900Y018573D01*
X030697Y018777D01*
X031304Y018065D02*
X031711Y018065D01*
X032014Y018166D02*
X032217Y018166D01*
X032319Y018268D01*
X032319Y018472D01*
X032217Y018573D01*
X032014Y018573D01*
X031912Y018472D01*
X031912Y018370D01*
X032319Y018370D01*
X032521Y018166D02*
X032724Y018166D01*
X032622Y018166D02*
X032622Y018777D01*
X032724Y018777D01*
X032925Y018573D02*
X032925Y018166D01*
X033230Y018166D01*
X033332Y018268D01*
X033332Y018573D01*
X033533Y018573D02*
X033838Y018573D01*
X033940Y018472D01*
X033940Y018268D01*
X033838Y018166D01*
X033533Y018166D01*
X033533Y018777D01*
X034140Y018472D02*
X034140Y018268D01*
X034242Y018166D01*
X034446Y018166D01*
X034547Y018268D01*
X034547Y018472D01*
X034446Y018573D01*
X034242Y018573D01*
X034140Y018472D01*
X034748Y018472D02*
X034748Y018166D01*
X034951Y018166D02*
X034951Y018472D01*
X034850Y018573D01*
X034748Y018472D01*
X034951Y018472D02*
X035053Y018573D01*
X035155Y018573D01*
X035155Y018166D01*
D13*
X033005Y019901D03*
X033005Y020036D03*
X033005Y020111D03*
X032930Y020111D03*
X032930Y020186D03*
X032930Y020216D03*
X032930Y020261D03*
X032930Y020291D03*
X032930Y020336D03*
X032930Y020366D03*
X032855Y020411D03*
X032795Y020426D03*
X032795Y020441D03*
X032780Y020486D03*
X032840Y020636D03*
X032840Y020651D03*
X032765Y020861D03*
X032750Y020876D03*
X032705Y020906D03*
X032630Y020906D03*
X032630Y020921D03*
X032630Y020981D03*
X032630Y020996D03*
X032630Y021056D03*
X032630Y021071D03*
X032630Y021131D03*
X032630Y021146D03*
X032630Y021206D03*
X032630Y021221D03*
X032555Y021221D03*
X032555Y021206D03*
X032555Y021146D03*
X032555Y021131D03*
X032570Y021041D03*
X032705Y020981D03*
X032645Y020801D03*
X032495Y021236D03*
X032495Y021266D03*
X032495Y021281D03*
X032480Y021296D03*
X032555Y021296D03*
X032555Y021281D03*
X032555Y021431D03*
X032540Y021446D03*
X032540Y021461D03*
X032525Y021491D03*
X032480Y021521D03*
X032405Y021521D03*
X032420Y021461D03*
X032315Y022076D03*
X032255Y022121D03*
X032180Y022121D03*
X032105Y022121D03*
X032030Y022121D03*
X032030Y022181D03*
X031955Y022181D03*
X031955Y022121D03*
X031880Y022121D03*
X031880Y022106D03*
X031805Y022106D03*
X031805Y022121D03*
X031805Y022181D03*
X031880Y022181D03*
X031730Y022181D03*
X031730Y022121D03*
X031730Y022106D03*
X031655Y022106D03*
X031655Y022121D03*
X031655Y022181D03*
X031580Y022181D03*
X031580Y022121D03*
X031580Y022106D03*
X031505Y022106D03*
X031430Y022106D03*
X031355Y022106D03*
X031430Y022181D03*
X031505Y022181D03*
X030680Y022136D03*
X030605Y022136D03*
X030605Y022091D03*
X030530Y022091D03*
X030530Y022136D03*
X030530Y022166D03*
X030455Y022166D03*
X030455Y022136D03*
X030380Y022136D03*
X030380Y022076D03*
X030305Y022076D03*
X030305Y022136D03*
X030230Y022136D03*
X030230Y022076D03*
X030155Y022076D03*
X030005Y022151D03*
X032420Y023276D03*
X032480Y023261D03*
X032480Y023186D03*
X032495Y023111D03*
X032615Y023111D03*
X032615Y023126D03*
X032630Y023066D03*
X032570Y022886D03*
X032630Y022781D03*
X032705Y022781D03*
X032750Y022751D03*
X032765Y022691D03*
X032780Y022646D03*
X032780Y022631D03*
X032780Y022571D03*
X032780Y022556D03*
X032780Y022496D03*
X032780Y022481D03*
X032780Y022421D03*
X032780Y022406D03*
X032780Y022346D03*
X032795Y022286D03*
X032855Y022271D03*
X032915Y022271D03*
X032930Y022256D03*
X032900Y022316D03*
X032855Y022346D03*
X032855Y022406D03*
X032855Y022421D03*
X032840Y022511D03*
X032720Y022466D03*
X032705Y022556D03*
X032705Y022571D03*
X032705Y022631D03*
X032645Y022676D03*
X032645Y022691D03*
X032705Y022706D03*
X032855Y022121D03*
X033455Y021446D03*
X033530Y021446D03*
X033605Y021446D03*
X033680Y021446D03*
X033680Y021506D03*
X033680Y021521D03*
X033605Y021521D03*
X033755Y021521D03*
X033755Y021506D03*
X033755Y021446D03*
X033830Y021446D03*
X033830Y021506D03*
X033830Y021521D03*
X033905Y021521D03*
X033905Y021506D03*
X033905Y021446D03*
X033980Y021446D03*
X033980Y021506D03*
X033980Y021521D03*
X034055Y021521D03*
X034055Y021506D03*
X034130Y021506D03*
X034730Y021536D03*
X034805Y021536D03*
X034805Y021461D03*
X034880Y021461D03*
X034880Y021491D03*
X034880Y021536D03*
X034955Y021536D03*
X034955Y021491D03*
X034955Y021461D03*
X035030Y021461D03*
X035105Y021461D03*
X035105Y021536D03*
X035105Y021551D03*
X035180Y021551D03*
X035255Y021476D03*
X035330Y021476D03*
X035030Y021536D03*
X033005Y020186D03*
X032870Y020201D03*
X032855Y020261D03*
X032855Y020291D03*
X032555Y023291D03*
X032480Y023336D03*
X032480Y023366D03*
X032480Y023411D03*
X032480Y023441D03*
X032480Y023486D03*
X032480Y023501D03*
X032405Y023486D03*
X032405Y023441D03*
X032405Y023411D03*
X032405Y023366D03*
X032405Y023336D03*
X032345Y023501D03*
X032330Y023561D03*
X032405Y023561D03*
X032405Y023651D03*
X032330Y023726D03*
D14*
X032338Y023651D03*
X032338Y023576D03*
X032413Y023576D03*
X032413Y023501D03*
X032413Y023351D03*
X032488Y023291D03*
X032548Y023276D03*
X032548Y023261D03*
X032563Y023216D03*
X032548Y023186D03*
X032563Y023141D03*
X032563Y023066D03*
X032623Y023036D03*
X032563Y022961D03*
X032563Y022916D03*
X032563Y022901D03*
X032698Y022886D03*
X032638Y022736D03*
X032773Y022661D03*
X032713Y022541D03*
X032713Y022511D03*
X032848Y022466D03*
X032863Y022331D03*
X032923Y022286D03*
X032863Y022256D03*
X032848Y022196D03*
X032863Y022181D03*
X032863Y022136D03*
X032923Y022121D03*
X032938Y022181D03*
X032923Y022196D03*
X032788Y022316D03*
X032788Y022331D03*
X032308Y022091D03*
X032263Y022106D03*
X032263Y022181D03*
X032188Y022181D03*
X032188Y022106D03*
X032113Y022106D03*
X032113Y022181D03*
X032038Y022106D03*
X031963Y022106D03*
X031888Y022076D03*
X031813Y022076D03*
X031663Y022076D03*
X031588Y022076D03*
X031513Y022076D03*
X031438Y022076D03*
X031363Y022076D03*
X031288Y022076D03*
X031213Y022076D03*
X031138Y022076D03*
X031063Y022076D03*
X030988Y022076D03*
X030988Y022091D03*
X030988Y022166D03*
X030913Y022166D03*
X030913Y022091D03*
X030913Y022076D03*
X030838Y022076D03*
X030838Y022091D03*
X030823Y022136D03*
X030838Y022166D03*
X030763Y022166D03*
X030748Y022136D03*
X030763Y022091D03*
X030763Y022076D03*
X030688Y022076D03*
X030688Y022091D03*
X030688Y022166D03*
X030613Y022166D03*
X030613Y022076D03*
X030538Y022076D03*
X030463Y022076D03*
X030238Y022151D03*
X030163Y022151D03*
X030088Y022151D03*
X032413Y021506D03*
X032413Y021491D03*
X032473Y021446D03*
X032488Y021431D03*
X032473Y021371D03*
X032488Y021356D03*
X032488Y021311D03*
X032548Y021371D03*
X032563Y021356D03*
X032608Y021266D03*
X032623Y021236D03*
X032563Y021086D03*
X032698Y021041D03*
X032698Y021011D03*
X032638Y020891D03*
X032638Y020876D03*
X032638Y020861D03*
X032773Y020816D03*
X032773Y020786D03*
X032713Y020711D03*
X032713Y020666D03*
X032713Y020651D03*
X032848Y020591D03*
X032848Y020561D03*
X032863Y020516D03*
X032848Y020486D03*
X032863Y020441D03*
X032923Y020426D03*
X032923Y020411D03*
X032863Y020366D03*
X032848Y020336D03*
X032863Y020276D03*
X032998Y020201D03*
X033013Y020126D03*
X033013Y020051D03*
X033013Y019976D03*
X032938Y020051D03*
X032788Y020516D03*
X032488Y021506D03*
X033388Y021536D03*
X033388Y021551D03*
X033448Y021521D03*
X033463Y021506D03*
X033523Y021521D03*
X033538Y021506D03*
X033613Y021506D03*
X034573Y021536D03*
X034588Y021551D03*
X034588Y021491D03*
X034648Y021461D03*
X034663Y021491D03*
X034648Y021536D03*
X034663Y021551D03*
X034738Y021551D03*
X034738Y021491D03*
X034723Y021461D03*
X034813Y021491D03*
X034813Y021551D03*
X034888Y021551D03*
X034963Y021551D03*
X035038Y021551D03*
X035113Y021476D03*
X035188Y021476D03*
X032488Y023126D03*
X032488Y023141D03*
X032488Y023216D03*
D15*
X032480Y023201D03*
X032555Y023201D03*
X032555Y023126D03*
X032555Y023111D03*
X032555Y023051D03*
X032555Y023036D03*
X032555Y022991D03*
X032555Y022976D03*
X032630Y022976D03*
X032630Y022961D03*
X032630Y022991D03*
X032630Y023051D03*
X032630Y022916D03*
X032630Y022886D03*
X032630Y022841D03*
X032630Y022811D03*
X032630Y022766D03*
X032630Y022751D03*
X032705Y022736D03*
X032705Y022766D03*
X032705Y022811D03*
X032705Y022841D03*
X032690Y022901D03*
X032705Y022691D03*
X032705Y022661D03*
X032705Y022616D03*
X032705Y022601D03*
X032705Y022586D03*
X032780Y022586D03*
X032780Y022616D03*
X032765Y022676D03*
X032780Y022541D03*
X032780Y022511D03*
X032780Y022436D03*
X032780Y022391D03*
X032780Y022361D03*
X032855Y022361D03*
X032855Y022286D03*
X032855Y022211D03*
X032855Y022166D03*
X032930Y022136D03*
X032930Y022211D03*
X032915Y022241D03*
X032855Y022436D03*
X032255Y022136D03*
X032255Y022076D03*
X032180Y022076D03*
X032180Y022136D03*
X032105Y022136D03*
X032105Y022076D03*
X032030Y022076D03*
X032030Y022136D03*
X031955Y022136D03*
X031955Y022076D03*
X031880Y022091D03*
X031880Y022136D03*
X031805Y022136D03*
X031805Y022166D03*
X031805Y022091D03*
X031730Y022091D03*
X031730Y022076D03*
X031730Y022136D03*
X031730Y022166D03*
X031655Y022166D03*
X031655Y022136D03*
X031655Y022091D03*
X031580Y022091D03*
X031580Y022136D03*
X031580Y022166D03*
X031505Y022166D03*
X031505Y022136D03*
X031505Y022091D03*
X031430Y022091D03*
X031430Y022136D03*
X031430Y022166D03*
X031355Y022166D03*
X031355Y022136D03*
X031355Y022091D03*
X031280Y022091D03*
X031280Y022136D03*
X031280Y022166D03*
X031205Y022166D03*
X031205Y022136D03*
X031205Y022091D03*
X031130Y022091D03*
X031130Y022136D03*
X031130Y022151D03*
X031130Y022166D03*
X031055Y022166D03*
X031055Y022151D03*
X031055Y022136D03*
X031055Y022091D03*
X030980Y022136D03*
X030980Y022151D03*
X030905Y022151D03*
X030905Y022136D03*
X030830Y022151D03*
X030755Y022151D03*
X030680Y022151D03*
X030605Y022151D03*
X030530Y022151D03*
X030455Y022151D03*
X030380Y022151D03*
X030305Y022151D03*
X032480Y021461D03*
X032480Y021386D03*
X032480Y021341D03*
X032555Y021311D03*
X032555Y021236D03*
X032555Y021191D03*
X032555Y021161D03*
X032555Y021116D03*
X032555Y021101D03*
X032630Y021086D03*
X032630Y021116D03*
X032630Y021161D03*
X032630Y021041D03*
X032630Y021011D03*
X032630Y020966D03*
X032630Y020951D03*
X032630Y020936D03*
X032705Y020936D03*
X032705Y020966D03*
X032690Y021026D03*
X032705Y020891D03*
X032705Y020861D03*
X032705Y020816D03*
X032705Y020786D03*
X032705Y020741D03*
X032705Y020726D03*
X032780Y020726D03*
X032780Y020711D03*
X032780Y020741D03*
X032765Y020801D03*
X032780Y020666D03*
X032780Y020651D03*
X032780Y020636D03*
X032780Y020591D03*
X032780Y020576D03*
X032780Y020561D03*
X032780Y020501D03*
X032855Y020501D03*
X032855Y020426D03*
X032855Y020351D03*
X032930Y020351D03*
X032930Y020276D03*
X032930Y020201D03*
X032930Y020126D03*
X032855Y020576D03*
X032555Y021386D03*
X032540Y021416D03*
X033455Y021461D03*
X033530Y021461D03*
X033605Y021461D03*
X033680Y021461D03*
X033755Y021461D03*
X033830Y021461D03*
X033905Y021461D03*
X033905Y021491D03*
X033905Y021536D03*
X033905Y021551D03*
X033830Y021551D03*
X033830Y021536D03*
X033755Y021536D03*
X033755Y021551D03*
X033680Y021551D03*
X033680Y021536D03*
X033605Y021536D03*
X033605Y021551D03*
X033530Y021551D03*
X033530Y021536D03*
X033455Y021536D03*
X033455Y021551D03*
X033980Y021551D03*
X033980Y021536D03*
X033980Y021491D03*
X033980Y021461D03*
X034055Y021461D03*
X034055Y021491D03*
X034055Y021536D03*
X034055Y021551D03*
X034130Y021551D03*
X034130Y021536D03*
X034130Y021491D03*
X034130Y021461D03*
X034205Y021461D03*
X034205Y021491D03*
X034205Y021536D03*
X034205Y021551D03*
X034280Y021551D03*
X034280Y021536D03*
X034280Y021491D03*
X034280Y021461D03*
X034355Y021461D03*
X034355Y021491D03*
X034355Y021536D03*
X034355Y021551D03*
X034430Y021551D03*
X034430Y021536D03*
X034430Y021491D03*
X034430Y021476D03*
X034430Y021461D03*
X034505Y021461D03*
X034505Y021476D03*
X034505Y021491D03*
X034505Y021536D03*
X034505Y021551D03*
X034580Y021476D03*
X034580Y021461D03*
X034655Y021476D03*
X034730Y021476D03*
X034805Y021476D03*
X034880Y021476D03*
X034955Y021476D03*
X035030Y021476D03*
X032480Y023276D03*
X032480Y023351D03*
X032480Y023426D03*
X032405Y023426D03*
D16*
X032623Y022901D03*
X032623Y022826D03*
X032698Y022826D03*
X032698Y022751D03*
X032698Y022676D03*
X032773Y022601D03*
X032773Y022466D03*
X032848Y022391D03*
X032848Y022316D03*
X032848Y022241D03*
X032923Y022166D03*
X032248Y022091D03*
X032173Y022091D03*
X032098Y022091D03*
X032098Y022166D03*
X032023Y022166D03*
X032023Y022091D03*
X031948Y022091D03*
X031948Y022166D03*
X031873Y022166D03*
X031573Y022151D03*
X031498Y022151D03*
X031423Y022151D03*
X031348Y022151D03*
X031273Y022151D03*
X031198Y022151D03*
X032473Y021491D03*
X032473Y021416D03*
X032548Y021341D03*
X032548Y021266D03*
X032623Y021191D03*
X032698Y020951D03*
X032698Y020876D03*
X032698Y020801D03*
X033448Y021491D03*
X033523Y021491D03*
X033598Y021491D03*
X033673Y021491D03*
X033748Y021491D03*
X033823Y021491D03*
X033973Y021476D03*
X034048Y021476D03*
X034123Y021476D03*
X034198Y021476D03*
X034273Y021476D03*
X034348Y021476D03*
D17*
X032045Y021176D03*
X031880Y021011D03*
X031625Y021161D03*
X031610Y021176D03*
X030920Y021191D03*
X030740Y021011D03*
X030485Y021161D03*
X030410Y021341D03*
X030305Y021716D03*
X030725Y021731D03*
D18*
X030755Y021701D03*
X030770Y021671D03*
X030785Y021641D03*
X030785Y021626D03*
X030785Y021611D03*
X030935Y021281D03*
X030935Y021266D03*
X030935Y021251D03*
X030935Y021236D03*
X030425Y021221D03*
X030425Y021206D03*
X030410Y021236D03*
X030410Y021251D03*
X030395Y021281D03*
X030395Y021296D03*
X030395Y021311D03*
X030290Y021656D03*
X030470Y021881D03*
X031325Y021866D03*
X031340Y021851D03*
X031340Y021836D03*
X031340Y021821D03*
X031355Y021806D03*
X031355Y021791D03*
X031355Y021776D03*
X031370Y021761D03*
X031370Y021746D03*
X031370Y021731D03*
X031385Y021716D03*
X031385Y021701D03*
X031385Y021686D03*
X031400Y021671D03*
X031400Y021656D03*
X031400Y021641D03*
X031415Y021626D03*
X031415Y021611D03*
X031415Y021596D03*
X031430Y021581D03*
X031430Y021566D03*
X031430Y021551D03*
X031445Y021536D03*
X031445Y021521D03*
X031460Y021491D03*
X031460Y021476D03*
X031475Y021461D03*
X031475Y021446D03*
X031475Y021431D03*
X031490Y021416D03*
X031490Y021401D03*
X031490Y021386D03*
X031505Y021371D03*
X031505Y021356D03*
X031505Y021341D03*
X031520Y021326D03*
X031520Y021311D03*
X031535Y021296D03*
X031535Y021281D03*
X031550Y021251D03*
X031580Y021206D03*
X032015Y021371D03*
X032015Y021386D03*
X032015Y021401D03*
X032000Y021416D03*
X032000Y021431D03*
X032000Y021446D03*
X031985Y021461D03*
X031985Y021476D03*
X031985Y021491D03*
X031970Y021506D03*
X031970Y021521D03*
X031970Y021536D03*
X031955Y021551D03*
X031955Y021566D03*
X031955Y021581D03*
X031940Y021596D03*
X031940Y021611D03*
X031925Y021641D03*
X031925Y021656D03*
X031910Y021686D03*
X031910Y021701D03*
X031895Y021731D03*
X031895Y021746D03*
X031880Y021776D03*
X031880Y021791D03*
X031865Y021821D03*
X031865Y021836D03*
X031850Y021851D03*
X031850Y021866D03*
X032030Y021356D03*
X032030Y021341D03*
X032030Y021326D03*
X032045Y021296D03*
X032045Y021281D03*
X032045Y021266D03*
X032045Y021251D03*
X032555Y021251D03*
X032945Y021536D03*
X032945Y021551D03*
X032960Y021521D03*
X032960Y021506D03*
X032960Y021491D03*
X032975Y021476D03*
X032975Y021461D03*
X032975Y021446D03*
X032990Y021431D03*
X032990Y021416D03*
X032990Y021401D03*
X033005Y021386D03*
X033005Y021371D03*
X033005Y021356D03*
X033020Y021341D03*
X033020Y021326D03*
X033020Y021311D03*
X033035Y021296D03*
X033035Y021281D03*
X033035Y021266D03*
X033050Y021251D03*
X033050Y021236D03*
X033050Y021221D03*
X033065Y021206D03*
X033065Y021191D03*
X033065Y021176D03*
X033080Y021161D03*
X033080Y021146D03*
X033080Y021131D03*
X033095Y021116D03*
X033095Y021101D03*
X033095Y021086D03*
X033110Y021071D03*
X033110Y021056D03*
X033110Y021041D03*
X033125Y021026D03*
X032930Y021581D03*
X032930Y021596D03*
X032915Y021626D03*
X032915Y021641D03*
X032900Y021656D03*
X032900Y021671D03*
X032900Y021686D03*
X032885Y021701D03*
X032885Y021716D03*
X032885Y021731D03*
X032855Y022301D03*
X032795Y022451D03*
D19*
X032638Y021101D03*
X032608Y021026D03*
D20*
X031880Y021026D03*
X030470Y021386D03*
D21*
X030733Y021026D03*
D22*
X031873Y021041D03*
D23*
X030740Y021041D03*
X030500Y021401D03*
X030680Y021521D03*
D24*
X031865Y021056D03*
D25*
X030733Y021056D03*
X030538Y021416D03*
X030658Y021506D03*
D26*
X030493Y021806D03*
X031858Y021071D03*
D27*
X030725Y021071D03*
X030575Y021446D03*
X030590Y021461D03*
X030605Y021476D03*
X030485Y021821D03*
D28*
X030718Y021086D03*
X031858Y021086D03*
D29*
X031850Y021101D03*
X030500Y021776D03*
D30*
X030718Y021101D03*
D31*
X030718Y021116D03*
X030508Y021761D03*
X031843Y021116D03*
D32*
X031843Y021131D03*
X030703Y021131D03*
D33*
X030883Y021146D03*
X030763Y021566D03*
X031648Y021146D03*
X032023Y021146D03*
D34*
X030905Y021161D03*
X030515Y021146D03*
X030425Y021356D03*
X030335Y021746D03*
X030695Y021746D03*
D35*
X030778Y021581D03*
X030913Y021176D03*
X030313Y021731D03*
X032038Y021161D03*
D36*
X032525Y021326D03*
X032510Y021401D03*
X032585Y021176D03*
X032900Y022151D03*
X032885Y022226D03*
X032825Y022376D03*
X032210Y022166D03*
D37*
X031453Y021506D03*
X031543Y021266D03*
X031558Y021236D03*
X031573Y021221D03*
X031588Y021191D03*
X032053Y021191D03*
X032053Y021206D03*
X032053Y021221D03*
X032053Y021236D03*
X030928Y021221D03*
X030928Y021206D03*
X030793Y021596D03*
X030733Y021716D03*
X030298Y021701D03*
X030298Y021686D03*
X030298Y021671D03*
X030403Y021326D03*
X030448Y021191D03*
X030463Y021176D03*
D38*
X030403Y021266D03*
X030298Y021626D03*
X030298Y021641D03*
X030763Y021686D03*
X030778Y021656D03*
X030928Y021296D03*
X031933Y021626D03*
X031918Y021671D03*
X031903Y021716D03*
X031888Y021761D03*
X031873Y021806D03*
X032473Y021476D03*
X032038Y021311D03*
X032923Y021611D03*
X032938Y021566D03*
X032773Y022526D03*
D39*
X030748Y021551D03*
X030448Y021371D03*
D40*
X030553Y021431D03*
X030628Y021491D03*
D41*
X030500Y021791D03*
X033665Y021476D03*
D42*
X030718Y021536D03*
D43*
X032825Y021866D03*
X032840Y021836D03*
X032840Y021821D03*
X032855Y021791D03*
X032855Y021776D03*
X032870Y021746D03*
D44*
X032863Y021761D03*
X032848Y021806D03*
X032833Y021851D03*
D45*
X030485Y021836D03*
D46*
X030478Y021851D03*
D47*
X030470Y021866D03*
D48*
X031955Y022151D03*
D49*
X005150Y030171D02*
X004830Y030171D01*
X004723Y030278D01*
X004723Y030705D01*
X004830Y030812D01*
X005150Y030812D01*
X005150Y030171D01*
X004505Y030278D02*
X004399Y030171D01*
X004185Y030171D01*
X004078Y030278D01*
X004078Y030492D01*
X004185Y030598D01*
X004292Y030598D01*
X004505Y030492D01*
X004505Y030812D01*
X004078Y030812D01*
X003861Y030705D02*
X003754Y030812D01*
X003541Y030812D01*
X003434Y030705D01*
X003434Y030598D01*
X003541Y030492D01*
X003434Y030385D01*
X003434Y030278D01*
X003541Y030171D01*
X003754Y030171D01*
X003861Y030278D01*
X003647Y030492D02*
X003541Y030492D01*
X003216Y030705D02*
X003110Y030812D01*
X002896Y030812D01*
X002789Y030705D01*
X002789Y030598D01*
X002896Y030492D01*
X002789Y030385D01*
X002789Y030278D01*
X002896Y030171D01*
X003110Y030171D01*
X003216Y030278D01*
X003003Y030492D02*
X002896Y030492D01*
X002572Y030278D02*
X002572Y030171D01*
X002572Y030278D02*
X002145Y030705D01*
X002145Y030812D01*
X002572Y030812D01*
X001927Y030598D02*
X001714Y030812D01*
X001714Y030171D01*
X001927Y030171D02*
X001500Y030171D01*
M02*
